<?xml version="1.0" encoding="UTF-8" standalone="no"?><svg xmlns="http://www.w3.org/2000/svg" xmlns:xlink="http://www.w3.org/1999/xlink" contentStyleType="text/css" height="1073px" preserveAspectRatio="none" style="width:460px;height:1073px;background:#FFFFFF;" version="1.1" viewBox="0 0 460 1073" width="460px" zoomAndPan="magnify"><defs/><g><text fill="#000000" font-family="sans-serif" font-size="14" font-weight="bold" lengthAdjust="spacing" textLength="284" x="89.75" y="29.5332">System Sequence Diagram (SSD) - US001</text><rect fill="#FFFFFF" height="851.1953" style="stroke:#181818;stroke-width:1.0;" width="10" x="74.5" y="131.2188"/><rect fill="#FFFFFF" height="46.7031" style="stroke:#181818;stroke-width:1.0;" width="10" x="407.5" y="153.5703"/><rect fill="#FFFFFF" height="37.3516" style="stroke:#181818;stroke-width:1.0;" width="10" x="407.5" y="255.9766"/><rect fill="#FFFFFF" height="37.3516" style="stroke:#181818;stroke-width:1.0;" width="10" x="407.5" y="349.0313"/><rect fill="#FFFFFF" height="53.7031" style="stroke:#181818;stroke-width:1.0;" width="10" x="407.5" y="442.0859"/><rect fill="#FFFFFF" height="30.3516" style="stroke:#181818;stroke-width:1.0;" width="10" x="407.5" y="551.4922"/><rect fill="#FFFFFF" height="37.3516" style="stroke:#181818;stroke-width:1.0;" width="10" x="407.5" y="612.1953"/><rect fill="#FFFFFF" height="30.3516" style="stroke:#181818;stroke-width:1.0;" width="10" x="407.5" y="705.25"/><rect fill="#FFFFFF" height="37.3516" style="stroke:#181818;stroke-width:1.0;" width="10" x="407.5" y="765.9531"/><rect fill="#FFFFFF" height="30.3516" style="stroke:#181818;stroke-width:1.0;" width="10" x="407.5" y="859.0078"/><rect fill="#FFFFFF" height="53.7031" style="stroke:#181818;stroke-width:1.0;" width="10" x="407.5" y="919.7109"/><rect fill="none" height="48.7031" style="stroke:#000000;stroke-width:1.5;" width="444.5" x="10" y="215.2734"/><rect fill="none" height="48.7031" style="stroke:#000000;stroke-width:1.5;" width="444.5" x="10" y="308.3281"/><rect fill="none" height="48.7031" style="stroke:#000000;stroke-width:1.5;" width="444.5" x="10" y="401.3828"/><rect fill="none" height="109.4063" style="stroke:#000000;stroke-width:1.5;" width="444.5" x="10" y="510.7891"/><rect fill="none" height="109.4063" style="stroke:#000000;stroke-width:1.5;" width="444.5" x="10" y="664.5469"/><rect fill="none" height="109.4063" style="stroke:#000000;stroke-width:1.5;" width="444.5" x="10" y="818.3047"/><line style="stroke:#181818;stroke-width:0.5;stroke-dasharray:5.0,5.0;" x1="79" x2="79" y1="121.2188" y2="991.4141"/><line style="stroke:#181818;stroke-width:0.5;stroke-dasharray:5.0,5.0;" x1="412.5" x2="412.5" y1="121.2188" y2="991.4141"/><text fill="#000000" font-family="sans-serif" font-size="14" lengthAdjust="spacing" textLength="113" x="20" y="118.1426">Unregistered user</text><ellipse cx="79.5" cy="52.1094" fill="#E3E3E3" rx="8" ry="8" style="stroke:#181818;stroke-width:0.5;"/><path d="M79.5,60.1094 L79.5,87.1094 M66.5,68.1094 L92.5,68.1094 M79.5,87.1094 L66.5,102.1094 M79.5,87.1094 L92.5,102.1094 " fill="none" style="stroke:#181818;stroke-width:0.5;"/><text fill="#000000" font-family="sans-serif" font-size="14" lengthAdjust="spacing" textLength="113" x="20" y="1004.9473">Unregistered user</text><ellipse cx="79.5" cy="1016.5234" fill="#E3E3E3" rx="8" ry="8" style="stroke:#181818;stroke-width:0.5;"/><path d="M79.5,1024.5234 L79.5,1051.5234 M66.5,1032.5234 L92.5,1032.5234 M79.5,1051.5234 L66.5,1066.5234 M79.5,1051.5234 L92.5,1066.5234 " fill="none" style="stroke:#181818;stroke-width:0.5;"/><rect fill="#E3E3E3" height="31.6094" rx="2.5" ry="2.5" style="stroke:#181818;stroke-width:0.5;" width="64" x="380.5" y="88.6094"/><text fill="#000000" font-family="sans-serif" font-size="14" lengthAdjust="spacing" textLength="50" x="387.5" y="110.1426">:System</text><rect fill="#E3E3E3" height="31.6094" rx="2.5" ry="2.5" style="stroke:#181818;stroke-width:0.5;" width="64" x="380.5" y="990.4141"/><text fill="#000000" font-family="sans-serif" font-size="14" lengthAdjust="spacing" textLength="50" x="387.5" y="1011.9473">:System</text><rect fill="#FFFFFF" height="851.1953" style="stroke:#181818;stroke-width:1.0;" width="10" x="74.5" y="131.2188"/><rect fill="#FFFFFF" height="46.7031" style="stroke:#181818;stroke-width:1.0;" width="10" x="407.5" y="153.5703"/><rect fill="#FFFFFF" height="37.3516" style="stroke:#181818;stroke-width:1.0;" width="10" x="407.5" y="255.9766"/><rect fill="#FFFFFF" height="37.3516" style="stroke:#181818;stroke-width:1.0;" width="10" x="407.5" y="349.0313"/><rect fill="#FFFFFF" height="53.7031" style="stroke:#181818;stroke-width:1.0;" width="10" x="407.5" y="442.0859"/><rect fill="#FFFFFF" height="30.3516" style="stroke:#181818;stroke-width:1.0;" width="10" x="407.5" y="551.4922"/><rect fill="#FFFFFF" height="37.3516" style="stroke:#181818;stroke-width:1.0;" width="10" x="407.5" y="612.1953"/><rect fill="#FFFFFF" height="30.3516" style="stroke:#181818;stroke-width:1.0;" width="10" x="407.5" y="705.25"/><rect fill="#FFFFFF" height="37.3516" style="stroke:#181818;stroke-width:1.0;" width="10" x="407.5" y="765.9531"/><rect fill="#FFFFFF" height="30.3516" style="stroke:#181818;stroke-width:1.0;" width="10" x="407.5" y="859.0078"/><rect fill="#FFFFFF" height="53.7031" style="stroke:#181818;stroke-width:1.0;" width="10" x="407.5" y="919.7109"/><polygon fill="#181818" points="395.5,149.5703,405.5,153.5703,395.5,157.5703,399.5,153.5703" style="stroke:#181818;stroke-width:1.0;"/><line style="stroke:#181818;stroke-width:1.0;" x1="84.5" x2="401.5" y1="153.5703" y2="153.5703"/><text fill="#000000" font-family="sans-serif" font-size="13" font-weight="bold" lengthAdjust="spacing" textLength="7" x="91.5" y="148.7139">1</text><text fill="#000000" font-family="sans-serif" font-size="13" lengthAdjust="spacing" textLength="184" x="102.5" y="148.7139">asks to display listed properties</text><polygon fill="#181818" points="95.5,196.2734,85.5,200.2734,95.5,204.2734,91.5,200.2734" style="stroke:#181818;stroke-width:1.0;"/><line style="stroke:#181818;stroke-width:1.0;stroke-dasharray:2.0,2.0;" x1="89.5" x2="411.5" y1="200.2734" y2="200.2734"/><text fill="#000000" font-family="sans-serif" font-size="13" font-weight="bold" lengthAdjust="spacing" textLength="7" x="101.5" y="187.2412">2</text><text fill="#000000" font-family="sans-serif" font-size="13" lengthAdjust="spacing" textLength="267" x="112.5" y="179.0654">display listed properties by most recent added</text><text fill="#000000" font-family="sans-serif" font-size="13" lengthAdjust="spacing" textLength="243" x="112.5" y="195.417">and asks to select data (type of business)</text><path d="M10,215.2734 L75,215.2734 L75,223.625 L65,233.625 L10,233.625 L10,215.2734 " fill="#EEEEEE" style="stroke:#000000;stroke-width:1.5;"/><rect fill="none" height="48.7031" style="stroke:#000000;stroke-width:1.5;" width="444.5" x="10" y="215.2734"/><text fill="#000000" font-family="sans-serif" font-size="13" font-weight="bold" lengthAdjust="spacing" textLength="20" x="25" y="229.7686">opt</text><text fill="#000000" font-family="sans-serif" font-size="11" font-weight="bold" lengthAdjust="spacing" textLength="101" x="90" y="228.6924">[type of business]</text><polygon fill="#181818" points="395.5,251.9766,405.5,255.9766,395.5,259.9766,399.5,255.9766" style="stroke:#181818;stroke-width:1.0;"/><line style="stroke:#181818;stroke-width:1.0;" x1="84.5" x2="401.5" y1="255.9766" y2="255.9766"/><text fill="#000000" font-family="sans-serif" font-size="13" font-weight="bold" lengthAdjust="spacing" textLength="7" x="91.5" y="251.1201">3</text><text fill="#000000" font-family="sans-serif" font-size="13" lengthAdjust="spacing" textLength="178" x="102.5" y="251.1201">selects data (type of business)</text><polygon fill="#181818" points="95.5,289.3281,85.5,293.3281,95.5,297.3281,91.5,293.3281" style="stroke:#181818;stroke-width:1.0;"/><line style="stroke:#181818;stroke-width:1.0;stroke-dasharray:2.0,2.0;" x1="89.5" x2="411.5" y1="293.3281" y2="293.3281"/><text fill="#000000" font-family="sans-serif" font-size="13" font-weight="bold" lengthAdjust="spacing" textLength="7" x="101.5" y="288.4717">4</text><text fill="#000000" font-family="sans-serif" font-size="13" lengthAdjust="spacing" textLength="213" x="112.5" y="288.4717">asks to select data (type of property)</text><path d="M10,308.3281 L75,308.3281 L75,316.6797 L65,326.6797 L10,326.6797 L10,308.3281 " fill="#EEEEEE" style="stroke:#000000;stroke-width:1.5;"/><rect fill="none" height="48.7031" style="stroke:#000000;stroke-width:1.5;" width="444.5" x="10" y="308.3281"/><text fill="#000000" font-family="sans-serif" font-size="13" font-weight="bold" lengthAdjust="spacing" textLength="20" x="25" y="322.8232">opt</text><text fill="#000000" font-family="sans-serif" font-size="11" font-weight="bold" lengthAdjust="spacing" textLength="97" x="90" y="321.7471">[type of property]</text><polygon fill="#181818" points="395.5,345.0313,405.5,349.0313,395.5,353.0313,399.5,349.0313" style="stroke:#181818;stroke-width:1.0;"/><line style="stroke:#181818;stroke-width:1.0;" x1="84.5" x2="401.5" y1="349.0313" y2="349.0313"/><text fill="#000000" font-family="sans-serif" font-size="13" font-weight="bold" lengthAdjust="spacing" textLength="7" x="91.5" y="344.1748">5</text><text fill="#000000" font-family="sans-serif" font-size="13" lengthAdjust="spacing" textLength="173" x="102.5" y="344.1748">selects data (type of property)</text><polygon fill="#181818" points="95.5,382.3828,85.5,386.3828,95.5,390.3828,91.5,386.3828" style="stroke:#181818;stroke-width:1.0;"/><line style="stroke:#181818;stroke-width:1.0;stroke-dasharray:2.0,2.0;" x1="89.5" x2="411.5" y1="386.3828" y2="386.3828"/><text fill="#000000" font-family="sans-serif" font-size="13" font-weight="bold" lengthAdjust="spacing" textLength="7" x="101.5" y="381.5264">6</text><text fill="#000000" font-family="sans-serif" font-size="13" lengthAdjust="spacing" textLength="241" x="112.5" y="381.5264">asks to select data (number of bedrooms)</text><path d="M10,401.3828 L75,401.3828 L75,409.7344 L65,419.7344 L10,419.7344 L10,401.3828 " fill="#EEEEEE" style="stroke:#000000;stroke-width:1.5;"/><rect fill="none" height="48.7031" style="stroke:#000000;stroke-width:1.5;" width="444.5" x="10" y="401.3828"/><text fill="#000000" font-family="sans-serif" font-size="13" font-weight="bold" lengthAdjust="spacing" textLength="20" x="25" y="415.8779">opt</text><text fill="#000000" font-family="sans-serif" font-size="11" font-weight="bold" lengthAdjust="spacing" textLength="127" x="90" y="414.8018">[number of bedrooms]</text><polygon fill="#181818" points="395.5,438.0859,405.5,442.0859,395.5,446.0859,399.5,442.0859" style="stroke:#181818;stroke-width:1.0;"/><line style="stroke:#181818;stroke-width:1.0;" x1="84.5" x2="401.5" y1="442.0859" y2="442.0859"/><text fill="#000000" font-family="sans-serif" font-size="13" font-weight="bold" lengthAdjust="spacing" textLength="7" x="91.5" y="437.2295">7</text><text fill="#000000" font-family="sans-serif" font-size="13" lengthAdjust="spacing" textLength="201" x="102.5" y="437.2295">selects data (number of bedrooms)</text><polygon fill="#181818" points="95.5,491.7891,85.5,495.7891,95.5,499.7891,91.5,495.7891" style="stroke:#181818;stroke-width:1.0;"/><line style="stroke:#181818;stroke-width:1.0;stroke-dasharray:2.0,2.0;" x1="89.5" x2="411.5" y1="495.7891" y2="495.7891"/><text fill="#000000" font-family="sans-serif" font-size="13" font-weight="bold" lengthAdjust="spacing" textLength="7" x="101.5" y="482.7568">8</text><text fill="#000000" font-family="sans-serif" font-size="13" lengthAdjust="spacing" textLength="277" x="112.5" y="474.5811">display all the listed properties, according to the</text><text fill="#000000" font-family="sans-serif" font-size="13" lengthAdjust="spacing" textLength="265" x="112.5" y="490.9326">criteria chosen and asks to select data (price)</text><path d="M10,510.7891 L75,510.7891 L75,519.1406 L65,529.1406 L10,529.1406 L10,510.7891 " fill="#EEEEEE" style="stroke:#000000;stroke-width:1.5;"/><rect fill="none" height="109.4063" style="stroke:#000000;stroke-width:1.5;" width="444.5" x="10" y="510.7891"/><text fill="#000000" font-family="sans-serif" font-size="13" font-weight="bold" lengthAdjust="spacing" textLength="20" x="25" y="525.2842">opt</text><text fill="#000000" font-family="sans-serif" font-size="11" font-weight="bold" lengthAdjust="spacing" textLength="36" x="90" y="524.208">[price]</text><polygon fill="#181818" points="395.5,547.4922,405.5,551.4922,395.5,555.4922,399.5,551.4922" style="stroke:#181818;stroke-width:1.0;"/><line style="stroke:#181818;stroke-width:1.0;" x1="84.5" x2="401.5" y1="551.4922" y2="551.4922"/><text fill="#000000" font-family="sans-serif" font-size="13" font-weight="bold" lengthAdjust="spacing" textLength="7" x="91.5" y="546.6357">9</text><text fill="#000000" font-family="sans-serif" font-size="13" lengthAdjust="spacing" textLength="111" x="102.5" y="546.6357">selects data (price)</text><polygon fill="#181818" points="95.5,577.8438,85.5,581.8438,95.5,585.8438,91.5,581.8438" style="stroke:#181818;stroke-width:1.0;"/><line style="stroke:#181818;stroke-width:1.0;stroke-dasharray:2.0,2.0;" x1="89.5" x2="411.5" y1="581.8438" y2="581.8438"/><text fill="#000000" font-family="sans-serif" font-size="13" font-weight="bold" lengthAdjust="spacing" textLength="14" x="101.5" y="576.9873">10</text><text fill="#000000" font-family="sans-serif" font-size="13" lengthAdjust="spacing" textLength="205" x="119.5" y="576.9873">asks to select data (type of sorting)</text><polygon fill="#181818" points="395.5,608.1953,405.5,612.1953,395.5,616.1953,399.5,612.1953" style="stroke:#181818;stroke-width:1.0;"/><line style="stroke:#181818;stroke-width:1.0;" x1="84.5" x2="401.5" y1="612.1953" y2="612.1953"/><text fill="#000000" font-family="sans-serif" font-size="13" font-weight="bold" lengthAdjust="spacing" textLength="14" x="91.5" y="607.3389">11</text><text fill="#000000" font-family="sans-serif" font-size="13" lengthAdjust="spacing" textLength="158" x="109.5" y="607.3389">select data (type of sorting)</text><polygon fill="#181818" points="95.5,645.5469,85.5,649.5469,95.5,653.5469,91.5,649.5469" style="stroke:#181818;stroke-width:1.0;"/><line style="stroke:#181818;stroke-width:1.0;stroke-dasharray:2.0,2.0;" x1="89.5" x2="411.5" y1="649.5469" y2="649.5469"/><text fill="#000000" font-family="sans-serif" font-size="13" font-weight="bold" lengthAdjust="spacing" textLength="14" x="101.5" y="644.6904">12</text><text fill="#000000" font-family="sans-serif" font-size="13" lengthAdjust="spacing" textLength="144" x="119.5" y="644.6904">asks to select data (city)</text><path d="M10,664.5469 L75,664.5469 L75,672.8984 L65,682.8984 L10,682.8984 L10,664.5469 " fill="#EEEEEE" style="stroke:#000000;stroke-width:1.5;"/><rect fill="none" height="109.4063" style="stroke:#000000;stroke-width:1.5;" width="444.5" x="10" y="664.5469"/><text fill="#000000" font-family="sans-serif" font-size="13" font-weight="bold" lengthAdjust="spacing" textLength="20" x="25" y="679.042">opt</text><text fill="#000000" font-family="sans-serif" font-size="11" font-weight="bold" lengthAdjust="spacing" textLength="27" x="90" y="677.9658">[city]</text><polygon fill="#181818" points="395.5,701.25,405.5,705.25,395.5,709.25,399.5,705.25" style="stroke:#181818;stroke-width:1.0;"/><line style="stroke:#181818;stroke-width:1.0;" x1="84.5" x2="401.5" y1="705.25" y2="705.25"/><text fill="#000000" font-family="sans-serif" font-size="13" font-weight="bold" lengthAdjust="spacing" textLength="14" x="91.5" y="700.3936">13</text><text fill="#000000" font-family="sans-serif" font-size="13" lengthAdjust="spacing" textLength="104" x="109.5" y="700.3936">selects data (city)</text><polygon fill="#181818" points="95.5,731.6016,85.5,735.6016,95.5,739.6016,91.5,735.6016" style="stroke:#181818;stroke-width:1.0;"/><line style="stroke:#181818;stroke-width:1.0;stroke-dasharray:2.0,2.0;" x1="89.5" x2="411.5" y1="735.6016" y2="735.6016"/><text fill="#000000" font-family="sans-serif" font-size="13" font-weight="bold" lengthAdjust="spacing" textLength="14" x="101.5" y="730.7451">14</text><text fill="#000000" font-family="sans-serif" font-size="13" lengthAdjust="spacing" textLength="205" x="119.5" y="730.7451">asks to select data (type of sorting)</text><polygon fill="#181818" points="395.5,761.9531,405.5,765.9531,395.5,769.9531,399.5,765.9531" style="stroke:#181818;stroke-width:1.0;"/><line style="stroke:#181818;stroke-width:1.0;" x1="84.5" x2="401.5" y1="765.9531" y2="765.9531"/><text fill="#000000" font-family="sans-serif" font-size="13" font-weight="bold" lengthAdjust="spacing" textLength="14" x="91.5" y="761.0967">15</text><text fill="#000000" font-family="sans-serif" font-size="13" lengthAdjust="spacing" textLength="158" x="109.5" y="761.0967">select data (type of sorting)</text><polygon fill="#181818" points="95.5,799.3047,85.5,803.3047,95.5,807.3047,91.5,803.3047" style="stroke:#181818;stroke-width:1.0;"/><line style="stroke:#181818;stroke-width:1.0;stroke-dasharray:2.0,2.0;" x1="89.5" x2="411.5" y1="803.3047" y2="803.3047"/><text fill="#000000" font-family="sans-serif" font-size="13" font-weight="bold" lengthAdjust="spacing" textLength="14" x="101.5" y="798.4482">16</text><text fill="#000000" font-family="sans-serif" font-size="13" lengthAdjust="spacing" textLength="152" x="119.5" y="798.4482">asks to select data (state)</text><path d="M10,818.3047 L75,818.3047 L75,826.6563 L65,836.6563 L10,836.6563 L10,818.3047 " fill="#EEEEEE" style="stroke:#000000;stroke-width:1.5;"/><rect fill="none" height="109.4063" style="stroke:#000000;stroke-width:1.5;" width="444.5" x="10" y="818.3047"/><text fill="#000000" font-family="sans-serif" font-size="13" font-weight="bold" lengthAdjust="spacing" textLength="20" x="25" y="832.7998">opt</text><text fill="#000000" font-family="sans-serif" font-size="11" font-weight="bold" lengthAdjust="spacing" textLength="36" x="90" y="831.7236">[state]</text><polygon fill="#181818" points="395.5,855.0078,405.5,859.0078,395.5,863.0078,399.5,859.0078" style="stroke:#181818;stroke-width:1.0;"/><line style="stroke:#181818;stroke-width:1.0;" x1="84.5" x2="401.5" y1="859.0078" y2="859.0078"/><text fill="#000000" font-family="sans-serif" font-size="13" font-weight="bold" lengthAdjust="spacing" textLength="14" x="91.5" y="854.1514">17</text><text fill="#000000" font-family="sans-serif" font-size="13" lengthAdjust="spacing" textLength="112" x="109.5" y="854.1514">selects data (state)</text><polygon fill="#181818" points="95.5,885.3594,85.5,889.3594,95.5,893.3594,91.5,889.3594" style="stroke:#181818;stroke-width:1.0;"/><line style="stroke:#181818;stroke-width:1.0;stroke-dasharray:2.0,2.0;" x1="89.5" x2="411.5" y1="889.3594" y2="889.3594"/><text fill="#000000" font-family="sans-serif" font-size="13" font-weight="bold" lengthAdjust="spacing" textLength="14" x="101.5" y="884.5029">18</text><text fill="#000000" font-family="sans-serif" font-size="13" lengthAdjust="spacing" textLength="205" x="119.5" y="884.5029">asks to select data (type of sorting)</text><polygon fill="#181818" points="395.5,915.7109,405.5,919.7109,395.5,923.7109,399.5,919.7109" style="stroke:#181818;stroke-width:1.0;"/><line style="stroke:#181818;stroke-width:1.0;" x1="84.5" x2="401.5" y1="919.7109" y2="919.7109"/><text fill="#000000" font-family="sans-serif" font-size="13" font-weight="bold" lengthAdjust="spacing" textLength="14" x="91.5" y="914.8545">19</text><text fill="#000000" font-family="sans-serif" font-size="13" lengthAdjust="spacing" textLength="158" x="109.5" y="914.8545">select data (type of sorting)</text><polygon fill="#181818" points="95.5,969.4141,85.5,973.4141,95.5,977.4141,91.5,973.4141" style="stroke:#181818;stroke-width:1.0;"/><line style="stroke:#181818;stroke-width:1.0;stroke-dasharray:2.0,2.0;" x1="89.5" x2="411.5" y1="973.4141" y2="973.4141"/><text fill="#000000" font-family="sans-serif" font-size="13" font-weight="bold" lengthAdjust="spacing" textLength="14" x="101.5" y="960.3818">20</text><text fill="#000000" font-family="sans-serif" font-size="13" lengthAdjust="spacing" textLength="277" x="119.5" y="952.2061">display all the listed properties, according to the</text><text fill="#000000" font-family="sans-serif" font-size="13" lengthAdjust="spacing" textLength="85" x="119.5" y="968.5576">criteria chosen</text><!--SRC=[vPJ1Rjim38RlVWeYfnPOWEwQGqzz0oEtNXY9TOJOaYVI7Vpse-GcQnRRKu6Sjfm4w-T7_Z-eyCdv7YDsq0KVp366Za3YG1LVRdeq9soebh4bY6G4VTD-5l0HRVZfV0Dls39LbJXHQJsoK0Sr_HZ86u8NXqsIFzJrooDiOLy_FNslAXma-A4xKDIpaH1Xi_UH6gVLaImCJ743oB3NGwKTnHdNenVOxAOM-NOwPeHxHw59Ne7-qWcsp-U1TYe_CKW0wxXlSOGszRBGnz2JuebpsOLqHgUF7uojuZ9sjmo1mwYfigJCICT5Q_N-rQEtbmcOMWqKB0h2WumzGNY3my3E4_DZxcXfTf3G2_nPa2zc7KzzUBNHdEVqZRnTyhvguoE9yJUzmCgvwAjMRflTmygqbpagiZ64ZelCt9QLsbbh-4L3vxt4jWKvqkr-VbEY2T6cXwl6a-RLc-ZqsJa4SmnC7XQNjO_EK54QMLcL-R-cpY9dpQvl8WSrx9iBTs7OvV7-mhl7gXbN-5AIi33DA-R_52QB0ehIpCh2EA-f_sYUT_dRM4l-5m00]--></g></svg>