<?xml version="1.0" encoding="UTF-8" standalone="no"?><svg xmlns="http://www.w3.org/2000/svg" xmlns:xlink="http://www.w3.org/1999/xlink" contentStyleType="text/css" height="1519px" preserveAspectRatio="none" style="width:480px;height:1519px;background:#FFFFFF;" version="1.1" viewBox="0 0 480 1519" width="480px" zoomAndPan="magnify"><defs/><g><text fill="#000000" font-family="sans-serif" font-size="14" font-weight="bold" lengthAdjust="spacing" textLength="284" x="99.75" y="29.5332">System Sequence Diagram (SSD) - US001</text><rect fill="#FFFFFF" height="1296.8203" style="stroke:#181818;stroke-width:1.0;" width="10" x="84.5" y="131.2188"/><rect fill="#FFFFFF" height="30.3516" style="stroke:#181818;stroke-width:1.0;" width="10" x="417.5" y="153.5703"/><rect fill="#FFFFFF" height="30.3516" style="stroke:#181818;stroke-width:1.0;" width="10" x="417.5" y="239.625"/><rect fill="#FFFFFF" height="46.7031" style="stroke:#181818;stroke-width:1.0;" width="10" x="417.5" y="300.3281"/><rect fill="#FFFFFF" height="30.3516" style="stroke:#181818;stroke-width:1.0;" width="10" x="417.5" y="409.7344"/><rect fill="#FFFFFF" height="46.7031" style="stroke:#181818;stroke-width:1.0;" width="10" x="417.5" y="470.4375"/><rect fill="#FFFFFF" height="30.3516" style="stroke:#181818;stroke-width:1.0;" width="10" x="417.5" y="605.1953"/><rect fill="#FFFFFF" height="46.7031" style="stroke:#181818;stroke-width:1.0;" width="10" x="417.5" y="665.8984"/><rect fill="#FFFFFF" height="30.3516" style="stroke:#181818;stroke-width:1.0;" width="10" x="417.5" y="782.3047"/><rect fill="#FFFFFF" height="30.3516" style="stroke:#181818;stroke-width:1.0;" width="10" x="417.5" y="843.0078"/><rect fill="#FFFFFF" height="46.7031" style="stroke:#181818;stroke-width:1.0;" width="10" x="417.5" y="903.7109"/><rect fill="#FFFFFF" height="30.3516" style="stroke:#181818;stroke-width:1.0;" width="10" x="417.5" y="1013.1172"/><rect fill="#FFFFFF" height="30.3516" style="stroke:#181818;stroke-width:1.0;" width="10" x="417.5" y="1073.8203"/><rect fill="#FFFFFF" height="46.7031" style="stroke:#181818;stroke-width:1.0;" width="10" x="417.5" y="1134.5234"/><rect fill="#FFFFFF" height="30.3516" style="stroke:#181818;stroke-width:1.0;" width="10" x="417.5" y="1243.9297"/><rect fill="#FFFFFF" height="30.3516" style="stroke:#181818;stroke-width:1.0;" width="10" x="417.5" y="1304.6328"/><rect fill="#FFFFFF" height="46.7031" style="stroke:#181818;stroke-width:1.0;" width="10" x="417.5" y="1365.3359"/><rect fill="none" height="156.1094" style="stroke:#000000;stroke-width:1.5;" width="444.5" x="20" y="198.9219"/><rect fill="none" height="156.1094" style="stroke:#000000;stroke-width:1.5;" width="444.5" x="20" y="369.0313"/><rect fill="none" height="188.4609" style="stroke:#000000;stroke-width:1.5;" width="464.5" x="10" y="539.1406"/><rect fill="none" height="156.1094" style="stroke:#000000;stroke-width:1.5;" width="444.5" x="20" y="564.4922"/><rect fill="none" height="216.8125" style="stroke:#000000;stroke-width:1.5;" width="444.5" x="20" y="741.6016"/><rect fill="none" height="216.8125" style="stroke:#000000;stroke-width:1.5;" width="444.5" x="20" y="972.4141"/><rect fill="none" height="216.8125" style="stroke:#000000;stroke-width:1.5;" width="444.5" x="20" y="1203.2266"/><line style="stroke:#181818;stroke-width:0.5;stroke-dasharray:5.0,5.0;" x1="89" x2="89" y1="121.2188" y2="1437.0391"/><line style="stroke:#181818;stroke-width:0.5;stroke-dasharray:5.0,5.0;" x1="422.5" x2="422.5" y1="121.2188" y2="1437.0391"/><text fill="#000000" font-family="sans-serif" font-size="14" lengthAdjust="spacing" textLength="113" x="30" y="118.1426">Unregistered user</text><ellipse cx="89.5" cy="52.1094" fill="#E3E3E3" rx="8" ry="8" style="stroke:#181818;stroke-width:0.5;"/><path d="M89.5,60.1094 L89.5,87.1094 M76.5,68.1094 L102.5,68.1094 M89.5,87.1094 L76.5,102.1094 M89.5,87.1094 L102.5,102.1094 " fill="none" style="stroke:#181818;stroke-width:0.5;"/><text fill="#000000" font-family="sans-serif" font-size="14" lengthAdjust="spacing" textLength="113" x="30" y="1450.5723">Unregistered user</text><ellipse cx="89.5" cy="1462.1484" fill="#E3E3E3" rx="8" ry="8" style="stroke:#181818;stroke-width:0.5;"/><path d="M89.5,1470.1484 L89.5,1497.1484 M76.5,1478.1484 L102.5,1478.1484 M89.5,1497.1484 L76.5,1512.1484 M89.5,1497.1484 L102.5,1512.1484 " fill="none" style="stroke:#181818;stroke-width:0.5;"/><rect fill="#E3E3E3" height="31.6094" rx="2.5" ry="2.5" style="stroke:#181818;stroke-width:0.5;" width="64" x="390.5" y="88.6094"/><text fill="#000000" font-family="sans-serif" font-size="14" lengthAdjust="spacing" textLength="50" x="397.5" y="110.1426">:System</text><rect fill="#E3E3E3" height="31.6094" rx="2.5" ry="2.5" style="stroke:#181818;stroke-width:0.5;" width="64" x="390.5" y="1436.0391"/><text fill="#000000" font-family="sans-serif" font-size="14" lengthAdjust="spacing" textLength="50" x="397.5" y="1457.5723">:System</text><rect fill="#FFFFFF" height="1296.8203" style="stroke:#181818;stroke-width:1.0;" width="10" x="84.5" y="131.2188"/><rect fill="#FFFFFF" height="30.3516" style="stroke:#181818;stroke-width:1.0;" width="10" x="417.5" y="153.5703"/><rect fill="#FFFFFF" height="30.3516" style="stroke:#181818;stroke-width:1.0;" width="10" x="417.5" y="239.625"/><rect fill="#FFFFFF" height="46.7031" style="stroke:#181818;stroke-width:1.0;" width="10" x="417.5" y="300.3281"/><rect fill="#FFFFFF" height="30.3516" style="stroke:#181818;stroke-width:1.0;" width="10" x="417.5" y="409.7344"/><rect fill="#FFFFFF" height="46.7031" style="stroke:#181818;stroke-width:1.0;" width="10" x="417.5" y="470.4375"/><rect fill="#FFFFFF" height="30.3516" style="stroke:#181818;stroke-width:1.0;" width="10" x="417.5" y="605.1953"/><rect fill="#FFFFFF" height="46.7031" style="stroke:#181818;stroke-width:1.0;" width="10" x="417.5" y="665.8984"/><rect fill="#FFFFFF" height="30.3516" style="stroke:#181818;stroke-width:1.0;" width="10" x="417.5" y="782.3047"/><rect fill="#FFFFFF" height="30.3516" style="stroke:#181818;stroke-width:1.0;" width="10" x="417.5" y="843.0078"/><rect fill="#FFFFFF" height="46.7031" style="stroke:#181818;stroke-width:1.0;" width="10" x="417.5" y="903.7109"/><rect fill="#FFFFFF" height="30.3516" style="stroke:#181818;stroke-width:1.0;" width="10" x="417.5" y="1013.1172"/><rect fill="#FFFFFF" height="30.3516" style="stroke:#181818;stroke-width:1.0;" width="10" x="417.5" y="1073.8203"/><rect fill="#FFFFFF" height="46.7031" style="stroke:#181818;stroke-width:1.0;" width="10" x="417.5" y="1134.5234"/><rect fill="#FFFFFF" height="30.3516" style="stroke:#181818;stroke-width:1.0;" width="10" x="417.5" y="1243.9297"/><rect fill="#FFFFFF" height="30.3516" style="stroke:#181818;stroke-width:1.0;" width="10" x="417.5" y="1304.6328"/><rect fill="#FFFFFF" height="46.7031" style="stroke:#181818;stroke-width:1.0;" width="10" x="417.5" y="1365.3359"/><polygon fill="#181818" points="405.5,149.5703,415.5,153.5703,405.5,157.5703,409.5,153.5703" style="stroke:#181818;stroke-width:1.0;"/><line style="stroke:#181818;stroke-width:1.0;" x1="94.5" x2="411.5" y1="153.5703" y2="153.5703"/><text fill="#000000" font-family="sans-serif" font-size="13" font-weight="bold" lengthAdjust="spacing" textLength="7" x="101.5" y="148.7139">1</text><text fill="#000000" font-family="sans-serif" font-size="13" lengthAdjust="spacing" textLength="184" x="112.5" y="148.7139">asks to display listed properties</text><polygon fill="#181818" points="105.5,179.9219,95.5,183.9219,105.5,187.9219,101.5,183.9219" style="stroke:#181818;stroke-width:1.0;"/><line style="stroke:#181818;stroke-width:1.0;stroke-dasharray:2.0,2.0;" x1="99.5" x2="421.5" y1="183.9219" y2="183.9219"/><text fill="#000000" font-family="sans-serif" font-size="13" font-weight="bold" lengthAdjust="spacing" textLength="7" x="111.5" y="179.0654">2</text><text fill="#000000" font-family="sans-serif" font-size="13" lengthAdjust="spacing" textLength="267" x="122.5" y="179.0654">display listed properties by most recent added</text><path d="M20,198.9219 L85,198.9219 L85,207.2734 L75,217.2734 L20,217.2734 L20,198.9219 " fill="#EEEEEE" style="stroke:#000000;stroke-width:1.5;"/><rect fill="none" height="156.1094" style="stroke:#000000;stroke-width:1.5;" width="444.5" x="20" y="198.9219"/><text fill="#000000" font-family="sans-serif" font-size="13" font-weight="bold" lengthAdjust="spacing" textLength="20" x="35" y="213.417">opt</text><text fill="#000000" font-family="sans-serif" font-size="11" font-weight="bold" lengthAdjust="spacing" textLength="101" x="100" y="212.3408">[type of business]</text><polygon fill="#181818" points="405.5,235.625,415.5,239.625,405.5,243.625,409.5,239.625" style="stroke:#181818;stroke-width:1.0;"/><line style="stroke:#181818;stroke-width:1.0;" x1="94.5" x2="411.5" y1="239.625" y2="239.625"/><text fill="#000000" font-family="sans-serif" font-size="13" font-weight="bold" lengthAdjust="spacing" textLength="7" x="101.5" y="234.7686">3</text><text fill="#000000" font-family="sans-serif" font-size="13" lengthAdjust="spacing" textLength="181" x="112.5" y="234.7686">asks to select type of business</text><polygon fill="#181818" points="105.5,265.9766,95.5,269.9766,105.5,273.9766,101.5,269.9766" style="stroke:#181818;stroke-width:1.0;"/><line style="stroke:#181818;stroke-width:1.0;stroke-dasharray:2.0,2.0;" x1="99.5" x2="421.5" y1="269.9766" y2="269.9766"/><text fill="#000000" font-family="sans-serif" font-size="13" font-weight="bold" lengthAdjust="spacing" textLength="7" x="111.5" y="265.1201">4</text><text fill="#000000" font-family="sans-serif" font-size="13" lengthAdjust="spacing" textLength="79" x="122.5" y="265.1201">requests data</text><polygon fill="#181818" points="405.5,296.3281,415.5,300.3281,405.5,304.3281,409.5,300.3281" style="stroke:#181818;stroke-width:1.0;"/><line style="stroke:#181818;stroke-width:1.0;" x1="94.5" x2="411.5" y1="300.3281" y2="300.3281"/><text fill="#000000" font-family="sans-serif" font-size="13" font-weight="bold" lengthAdjust="spacing" textLength="7" x="101.5" y="295.4717">5</text><text fill="#000000" font-family="sans-serif" font-size="13" lengthAdjust="spacing" textLength="165" x="112.5" y="295.4717">selects data (BusinessType)</text><polygon fill="#181818" points="105.5,343.0313,95.5,347.0313,105.5,351.0313,101.5,347.0313" style="stroke:#181818;stroke-width:1.0;"/><line style="stroke:#181818;stroke-width:1.0;stroke-dasharray:2.0,2.0;" x1="99.5" x2="421.5" y1="347.0313" y2="347.0313"/><text fill="#000000" font-family="sans-serif" font-size="13" font-weight="bold" lengthAdjust="spacing" textLength="7" x="111.5" y="333.999">6</text><text fill="#000000" font-family="sans-serif" font-size="13" lengthAdjust="spacing" textLength="277" x="122.5" y="325.8232">display all the listed properties, according to the</text><text fill="#000000" font-family="sans-serif" font-size="13" lengthAdjust="spacing" textLength="85" x="122.5" y="342.1748">criteria chosen</text><path d="M20,369.0313 L85,369.0313 L85,377.3828 L75,387.3828 L20,387.3828 L20,369.0313 " fill="#EEEEEE" style="stroke:#000000;stroke-width:1.5;"/><rect fill="none" height="156.1094" style="stroke:#000000;stroke-width:1.5;" width="444.5" x="20" y="369.0313"/><text fill="#000000" font-family="sans-serif" font-size="13" font-weight="bold" lengthAdjust="spacing" textLength="20" x="35" y="383.5264">opt</text><text fill="#000000" font-family="sans-serif" font-size="11" font-weight="bold" lengthAdjust="spacing" textLength="97" x="100" y="382.4502">[type of property]</text><polygon fill="#181818" points="405.5,405.7344,415.5,409.7344,405.5,413.7344,409.5,409.7344" style="stroke:#181818;stroke-width:1.0;"/><line style="stroke:#181818;stroke-width:1.0;" x1="94.5" x2="411.5" y1="409.7344" y2="409.7344"/><text fill="#000000" font-family="sans-serif" font-size="13" font-weight="bold" lengthAdjust="spacing" textLength="7" x="101.5" y="404.8779">7</text><text fill="#000000" font-family="sans-serif" font-size="13" lengthAdjust="spacing" textLength="176" x="112.5" y="404.8779">asks to select type of property</text><polygon fill="#181818" points="105.5,436.0859,95.5,440.0859,105.5,444.0859,101.5,440.0859" style="stroke:#181818;stroke-width:1.0;"/><line style="stroke:#181818;stroke-width:1.0;stroke-dasharray:2.0,2.0;" x1="99.5" x2="421.5" y1="440.0859" y2="440.0859"/><text fill="#000000" font-family="sans-serif" font-size="13" font-weight="bold" lengthAdjust="spacing" textLength="7" x="111.5" y="435.2295">8</text><text fill="#000000" font-family="sans-serif" font-size="13" lengthAdjust="spacing" textLength="79" x="122.5" y="435.2295">requests data</text><polygon fill="#181818" points="405.5,466.4375,415.5,470.4375,405.5,474.4375,409.5,470.4375" style="stroke:#181818;stroke-width:1.0;"/><line style="stroke:#181818;stroke-width:1.0;" x1="94.5" x2="411.5" y1="470.4375" y2="470.4375"/><text fill="#000000" font-family="sans-serif" font-size="13" font-weight="bold" lengthAdjust="spacing" textLength="7" x="101.5" y="465.5811">9</text><text fill="#000000" font-family="sans-serif" font-size="13" lengthAdjust="spacing" textLength="158" x="112.5" y="465.5811">selects data (propertyType)</text><polygon fill="#181818" points="105.5,513.1406,95.5,517.1406,105.5,521.1406,101.5,517.1406" style="stroke:#181818;stroke-width:1.0;"/><line style="stroke:#181818;stroke-width:1.0;stroke-dasharray:2.0,2.0;" x1="99.5" x2="421.5" y1="517.1406" y2="517.1406"/><text fill="#000000" font-family="sans-serif" font-size="13" font-weight="bold" lengthAdjust="spacing" textLength="14" x="111.5" y="504.1084">10</text><text fill="#000000" font-family="sans-serif" font-size="13" lengthAdjust="spacing" textLength="277" x="129.5" y="495.9326">display all the listed properties, according to the</text><text fill="#000000" font-family="sans-serif" font-size="13" lengthAdjust="spacing" textLength="85" x="129.5" y="512.2842">criteria chosen</text><path d="M10,539.1406 L71,539.1406 L71,547.4922 L61,557.4922 L10,557.4922 L10,539.1406 " fill="#EEEEEE" style="stroke:#000000;stroke-width:1.5;"/><rect fill="none" height="188.4609" style="stroke:#000000;stroke-width:1.5;" width="464.5" x="10" y="539.1406"/><text fill="#000000" font-family="sans-serif" font-size="13" font-weight="bold" lengthAdjust="spacing" textLength="16" x="25" y="553.6357">alt</text><text fill="#000000" font-family="sans-serif" font-size="11" font-weight="bold" lengthAdjust="spacing" textLength="111" x="86" y="552.5596">[properType != land]</text><path d="M20,564.4922 L85,564.4922 L85,572.8438 L75,582.8438 L20,582.8438 L20,564.4922 " fill="#EEEEEE" style="stroke:#000000;stroke-width:1.5;"/><rect fill="none" height="156.1094" style="stroke:#000000;stroke-width:1.5;" width="444.5" x="20" y="564.4922"/><text fill="#000000" font-family="sans-serif" font-size="13" font-weight="bold" lengthAdjust="spacing" textLength="20" x="35" y="578.9873">opt</text><text fill="#000000" font-family="sans-serif" font-size="11" font-weight="bold" lengthAdjust="spacing" textLength="127" x="100" y="577.9111">[number of bedrooms]</text><polygon fill="#181818" points="405.5,601.1953,415.5,605.1953,405.5,609.1953,409.5,605.1953" style="stroke:#181818;stroke-width:1.0;"/><line style="stroke:#181818;stroke-width:1.0;" x1="94.5" x2="411.5" y1="605.1953" y2="605.1953"/><text fill="#000000" font-family="sans-serif" font-size="13" font-weight="bold" lengthAdjust="spacing" textLength="14" x="101.5" y="600.3389">11</text><text fill="#000000" font-family="sans-serif" font-size="13" lengthAdjust="spacing" textLength="204" x="119.5" y="600.3389">asks to select number of bedrooms</text><polygon fill="#181818" points="105.5,631.5469,95.5,635.5469,105.5,639.5469,101.5,635.5469" style="stroke:#181818;stroke-width:1.0;"/><line style="stroke:#181818;stroke-width:1.0;stroke-dasharray:2.0,2.0;" x1="99.5" x2="421.5" y1="635.5469" y2="635.5469"/><text fill="#000000" font-family="sans-serif" font-size="13" font-weight="bold" lengthAdjust="spacing" textLength="14" x="111.5" y="630.6904">12</text><text fill="#000000" font-family="sans-serif" font-size="13" lengthAdjust="spacing" textLength="79" x="129.5" y="630.6904">requests data</text><polygon fill="#181818" points="405.5,661.8984,415.5,665.8984,405.5,669.8984,409.5,665.8984" style="stroke:#181818;stroke-width:1.0;"/><line style="stroke:#181818;stroke-width:1.0;" x1="94.5" x2="411.5" y1="665.8984" y2="665.8984"/><text fill="#000000" font-family="sans-serif" font-size="13" font-weight="bold" lengthAdjust="spacing" textLength="14" x="101.5" y="661.042">13</text><text fill="#000000" font-family="sans-serif" font-size="13" lengthAdjust="spacing" textLength="185" x="119.5" y="661.042">selects data (numberBedrooms)</text><polygon fill="#181818" points="105.5,708.6016,95.5,712.6016,105.5,716.6016,101.5,712.6016" style="stroke:#181818;stroke-width:1.0;"/><line style="stroke:#181818;stroke-width:1.0;stroke-dasharray:2.0,2.0;" x1="99.5" x2="421.5" y1="712.6016" y2="712.6016"/><text fill="#000000" font-family="sans-serif" font-size="13" font-weight="bold" lengthAdjust="spacing" textLength="14" x="111.5" y="699.5693">14</text><text fill="#000000" font-family="sans-serif" font-size="13" lengthAdjust="spacing" textLength="277" x="129.5" y="691.3936">display all the listed properties, according to the</text><text fill="#000000" font-family="sans-serif" font-size="13" lengthAdjust="spacing" textLength="85" x="129.5" y="707.7451">criteria chosen</text><path d="M20,741.6016 L85,741.6016 L85,749.9531 L75,759.9531 L20,759.9531 L20,741.6016 " fill="#EEEEEE" style="stroke:#000000;stroke-width:1.5;"/><rect fill="none" height="216.8125" style="stroke:#000000;stroke-width:1.5;" width="444.5" x="20" y="741.6016"/><text fill="#000000" font-family="sans-serif" font-size="13" font-weight="bold" lengthAdjust="spacing" textLength="20" x="35" y="756.0967">opt</text><text fill="#000000" font-family="sans-serif" font-size="11" font-weight="bold" lengthAdjust="spacing" textLength="36" x="100" y="755.0205">[price]</text><polygon fill="#181818" points="405.5,778.3047,415.5,782.3047,405.5,786.3047,409.5,782.3047" style="stroke:#181818;stroke-width:1.0;"/><line style="stroke:#181818;stroke-width:1.0;" x1="94.5" x2="411.5" y1="782.3047" y2="782.3047"/><text fill="#000000" font-family="sans-serif" font-size="13" font-weight="bold" lengthAdjust="spacing" textLength="14" x="101.5" y="777.4482">15</text><text fill="#000000" font-family="sans-serif" font-size="13" lengthAdjust="spacing" textLength="180" x="119.5" y="777.4482">asks to sort properties by price</text><polygon fill="#181818" points="105.5,808.6563,95.5,812.6563,105.5,816.6563,101.5,812.6563" style="stroke:#181818;stroke-width:1.0;"/><line style="stroke:#181818;stroke-width:1.0;stroke-dasharray:2.0,2.0;" x1="99.5" x2="421.5" y1="812.6563" y2="812.6563"/><text fill="#000000" font-family="sans-serif" font-size="13" font-weight="bold" lengthAdjust="spacing" textLength="14" x="111.5" y="807.7998">16</text><text fill="#000000" font-family="sans-serif" font-size="13" lengthAdjust="spacing" textLength="72" x="129.5" y="807.7998">request data</text><polygon fill="#181818" points="405.5,839.0078,415.5,843.0078,405.5,847.0078,409.5,843.0078" style="stroke:#181818;stroke-width:1.0;"/><line style="stroke:#181818;stroke-width:1.0;" x1="94.5" x2="411.5" y1="843.0078" y2="843.0078"/><text fill="#000000" font-family="sans-serif" font-size="13" font-weight="bold" lengthAdjust="spacing" textLength="14" x="101.5" y="838.1514">17</text><text fill="#000000" font-family="sans-serif" font-size="13" lengthAdjust="spacing" textLength="111" x="119.5" y="838.1514">selects data (price)</text><polygon fill="#181818" points="105.5,869.3594,95.5,873.3594,105.5,877.3594,101.5,873.3594" style="stroke:#181818;stroke-width:1.0;"/><line style="stroke:#181818;stroke-width:1.0;stroke-dasharray:2.0,2.0;" x1="99.5" x2="421.5" y1="873.3594" y2="873.3594"/><text fill="#000000" font-family="sans-serif" font-size="13" font-weight="bold" lengthAdjust="spacing" textLength="14" x="111.5" y="868.5029">18</text><text fill="#000000" font-family="sans-serif" font-size="13" lengthAdjust="spacing" textLength="190" x="129.5" y="868.5029">asks to select data (sortingType)</text><polygon fill="#181818" points="405.5,899.7109,415.5,903.7109,405.5,907.7109,409.5,903.7109" style="stroke:#181818;stroke-width:1.0;"/><line style="stroke:#181818;stroke-width:1.0;" x1="94.5" x2="411.5" y1="903.7109" y2="903.7109"/><text fill="#000000" font-family="sans-serif" font-size="13" font-weight="bold" lengthAdjust="spacing" textLength="14" x="101.5" y="898.8545">19</text><text fill="#000000" font-family="sans-serif" font-size="13" lengthAdjust="spacing" textLength="143" x="119.5" y="898.8545">select data (sortingType)</text><polygon fill="#181818" points="105.5,946.4141,95.5,950.4141,105.5,954.4141,101.5,950.4141" style="stroke:#181818;stroke-width:1.0;"/><line style="stroke:#181818;stroke-width:1.0;stroke-dasharray:2.0,2.0;" x1="99.5" x2="421.5" y1="950.4141" y2="950.4141"/><text fill="#000000" font-family="sans-serif" font-size="13" font-weight="bold" lengthAdjust="spacing" textLength="14" x="111.5" y="937.3818">20</text><text fill="#000000" font-family="sans-serif" font-size="13" lengthAdjust="spacing" textLength="277" x="129.5" y="929.2061">display all the listed properties, according to the</text><text fill="#000000" font-family="sans-serif" font-size="13" lengthAdjust="spacing" textLength="85" x="129.5" y="945.5576">criteria chosen</text><path d="M20,972.4141 L85,972.4141 L85,980.7656 L75,990.7656 L20,990.7656 L20,972.4141 " fill="#EEEEEE" style="stroke:#000000;stroke-width:1.5;"/><rect fill="none" height="216.8125" style="stroke:#000000;stroke-width:1.5;" width="444.5" x="20" y="972.4141"/><text fill="#000000" font-family="sans-serif" font-size="13" font-weight="bold" lengthAdjust="spacing" textLength="20" x="35" y="986.9092">opt</text><text fill="#000000" font-family="sans-serif" font-size="11" font-weight="bold" lengthAdjust="spacing" textLength="27" x="100" y="985.833">[city]</text><polygon fill="#181818" points="405.5,1009.1172,415.5,1013.1172,405.5,1017.1172,409.5,1013.1172" style="stroke:#181818;stroke-width:1.0;"/><line style="stroke:#181818;stroke-width:1.0;" x1="94.5" x2="411.5" y1="1013.1172" y2="1013.1172"/><text fill="#000000" font-family="sans-serif" font-size="13" font-weight="bold" lengthAdjust="spacing" textLength="14" x="101.5" y="1008.2607">21</text><text fill="#000000" font-family="sans-serif" font-size="13" lengthAdjust="spacing" textLength="173" x="119.5" y="1008.2607">asks to sort properties by city</text><polygon fill="#181818" points="105.5,1039.4688,95.5,1043.4688,105.5,1047.4688,101.5,1043.4688" style="stroke:#181818;stroke-width:1.0;"/><line style="stroke:#181818;stroke-width:1.0;stroke-dasharray:2.0,2.0;" x1="99.5" x2="421.5" y1="1043.4688" y2="1043.4688"/><text fill="#000000" font-family="sans-serif" font-size="13" font-weight="bold" lengthAdjust="spacing" textLength="14" x="111.5" y="1038.6123">22</text><text fill="#000000" font-family="sans-serif" font-size="13" lengthAdjust="spacing" textLength="72" x="129.5" y="1038.6123">request data</text><polygon fill="#181818" points="405.5,1069.8203,415.5,1073.8203,405.5,1077.8203,409.5,1073.8203" style="stroke:#181818;stroke-width:1.0;"/><line style="stroke:#181818;stroke-width:1.0;" x1="94.5" x2="411.5" y1="1073.8203" y2="1073.8203"/><text fill="#000000" font-family="sans-serif" font-size="13" font-weight="bold" lengthAdjust="spacing" textLength="14" x="101.5" y="1068.9639">23</text><text fill="#000000" font-family="sans-serif" font-size="13" lengthAdjust="spacing" textLength="104" x="119.5" y="1068.9639">selects data (city)</text><polygon fill="#181818" points="105.5,1100.1719,95.5,1104.1719,105.5,1108.1719,101.5,1104.1719" style="stroke:#181818;stroke-width:1.0;"/><line style="stroke:#181818;stroke-width:1.0;stroke-dasharray:2.0,2.0;" x1="99.5" x2="421.5" y1="1104.1719" y2="1104.1719"/><text fill="#000000" font-family="sans-serif" font-size="13" font-weight="bold" lengthAdjust="spacing" textLength="14" x="111.5" y="1099.3154">24</text><text fill="#000000" font-family="sans-serif" font-size="13" lengthAdjust="spacing" textLength="190" x="129.5" y="1099.3154">asks to select data (sortingType)</text><polygon fill="#181818" points="405.5,1130.5234,415.5,1134.5234,405.5,1138.5234,409.5,1134.5234" style="stroke:#181818;stroke-width:1.0;"/><line style="stroke:#181818;stroke-width:1.0;" x1="94.5" x2="411.5" y1="1134.5234" y2="1134.5234"/><text fill="#000000" font-family="sans-serif" font-size="13" font-weight="bold" lengthAdjust="spacing" textLength="14" x="101.5" y="1129.667">25</text><text fill="#000000" font-family="sans-serif" font-size="13" lengthAdjust="spacing" textLength="143" x="119.5" y="1129.667">select data (sortingType)</text><polygon fill="#181818" points="105.5,1177.2266,95.5,1181.2266,105.5,1185.2266,101.5,1181.2266" style="stroke:#181818;stroke-width:1.0;"/><line style="stroke:#181818;stroke-width:1.0;stroke-dasharray:2.0,2.0;" x1="99.5" x2="421.5" y1="1181.2266" y2="1181.2266"/><text fill="#000000" font-family="sans-serif" font-size="13" font-weight="bold" lengthAdjust="spacing" textLength="14" x="111.5" y="1168.1943">26</text><text fill="#000000" font-family="sans-serif" font-size="13" lengthAdjust="spacing" textLength="277" x="129.5" y="1160.0186">display all the listed properties, according to the</text><text fill="#000000" font-family="sans-serif" font-size="13" lengthAdjust="spacing" textLength="85" x="129.5" y="1176.3701">criteria chosen</text><path d="M20,1203.2266 L85,1203.2266 L85,1211.5781 L75,1221.5781 L20,1221.5781 L20,1203.2266 " fill="#EEEEEE" style="stroke:#000000;stroke-width:1.5;"/><rect fill="none" height="216.8125" style="stroke:#000000;stroke-width:1.5;" width="444.5" x="20" y="1203.2266"/><text fill="#000000" font-family="sans-serif" font-size="13" font-weight="bold" lengthAdjust="spacing" textLength="20" x="35" y="1217.7217">opt</text><text fill="#000000" font-family="sans-serif" font-size="11" font-weight="bold" lengthAdjust="spacing" textLength="36" x="100" y="1216.6455">[state]</text><polygon fill="#181818" points="405.5,1239.9297,415.5,1243.9297,405.5,1247.9297,409.5,1243.9297" style="stroke:#181818;stroke-width:1.0;"/><line style="stroke:#181818;stroke-width:1.0;" x1="94.5" x2="411.5" y1="1243.9297" y2="1243.9297"/><text fill="#000000" font-family="sans-serif" font-size="13" font-weight="bold" lengthAdjust="spacing" textLength="14" x="101.5" y="1239.0732">27</text><text fill="#000000" font-family="sans-serif" font-size="13" lengthAdjust="spacing" textLength="181" x="119.5" y="1239.0732">asks to sort properties by state</text><polygon fill="#181818" points="105.5,1270.2813,95.5,1274.2813,105.5,1278.2813,101.5,1274.2813" style="stroke:#181818;stroke-width:1.0;"/><line style="stroke:#181818;stroke-width:1.0;stroke-dasharray:2.0,2.0;" x1="99.5" x2="421.5" y1="1274.2813" y2="1274.2813"/><text fill="#000000" font-family="sans-serif" font-size="13" font-weight="bold" lengthAdjust="spacing" textLength="14" x="111.5" y="1269.4248">28</text><text fill="#000000" font-family="sans-serif" font-size="13" lengthAdjust="spacing" textLength="72" x="129.5" y="1269.4248">request data</text><polygon fill="#181818" points="405.5,1300.6328,415.5,1304.6328,405.5,1308.6328,409.5,1304.6328" style="stroke:#181818;stroke-width:1.0;"/><line style="stroke:#181818;stroke-width:1.0;" x1="94.5" x2="411.5" y1="1304.6328" y2="1304.6328"/><text fill="#000000" font-family="sans-serif" font-size="13" font-weight="bold" lengthAdjust="spacing" textLength="14" x="101.5" y="1299.7764">29</text><text fill="#000000" font-family="sans-serif" font-size="13" lengthAdjust="spacing" textLength="112" x="119.5" y="1299.7764">selects data (state)</text><polygon fill="#181818" points="105.5,1330.9844,95.5,1334.9844,105.5,1338.9844,101.5,1334.9844" style="stroke:#181818;stroke-width:1.0;"/><line style="stroke:#181818;stroke-width:1.0;stroke-dasharray:2.0,2.0;" x1="99.5" x2="421.5" y1="1334.9844" y2="1334.9844"/><text fill="#000000" font-family="sans-serif" font-size="13" font-weight="bold" lengthAdjust="spacing" textLength="14" x="111.5" y="1330.1279">30</text><text fill="#000000" font-family="sans-serif" font-size="13" lengthAdjust="spacing" textLength="190" x="129.5" y="1330.1279">asks to select data (sortingType)</text><polygon fill="#181818" points="405.5,1361.3359,415.5,1365.3359,405.5,1369.3359,409.5,1365.3359" style="stroke:#181818;stroke-width:1.0;"/><line style="stroke:#181818;stroke-width:1.0;" x1="94.5" x2="411.5" y1="1365.3359" y2="1365.3359"/><text fill="#000000" font-family="sans-serif" font-size="13" font-weight="bold" lengthAdjust="spacing" textLength="14" x="101.5" y="1360.4795">31</text><text fill="#000000" font-family="sans-serif" font-size="13" lengthAdjust="spacing" textLength="143" x="119.5" y="1360.4795">select data (sortingType)</text><polygon fill="#181818" points="105.5,1408.0391,95.5,1412.0391,105.5,1416.0391,101.5,1412.0391" style="stroke:#181818;stroke-width:1.0;"/><line style="stroke:#181818;stroke-width:1.0;stroke-dasharray:2.0,2.0;" x1="99.5" x2="421.5" y1="1412.0391" y2="1412.0391"/><text fill="#000000" font-family="sans-serif" font-size="13" font-weight="bold" lengthAdjust="spacing" textLength="14" x="111.5" y="1399.0068">32</text><text fill="#000000" font-family="sans-serif" font-size="13" lengthAdjust="spacing" textLength="277" x="129.5" y="1390.8311">display all the listed properties, according to the</text><text fill="#000000" font-family="sans-serif" font-size="13" lengthAdjust="spacing" textLength="85" x="129.5" y="1407.1826">criteria chosen</text><!--SRC=[xLJBRkCm3BpxAxWvDS06w5u3x1wA_e4tjxqe4ki8aILLf5luxrUoRBTftcc0vb2V28iSZZX3qLfRBuAeeNRMoLLmDGA71WiQJxoGQr5XoQr122XPsCgyJw2LKEvLsmgUX24i2jOSKykM66ieyRb1An4UjQXI-brPFavX1elo_lvNKOY6dMtg9OOOItO19WiRiDAnEg22XZ1CG10iOb34Zgobzi8oJEQvHNUQmmv2lmZ6d5v0_584ipy3eNbCNnEm0wN96z62IRqK-E0yHdYahcn46g3JpnvZ5k4wsFb-45YsSQh4QMOOwGgbK7KW2dTYEy_0hKTmJx1iI5iaoYS7Rq5eeYZRbKFXpbwxxnAILiG4Ih0Oy_RGtKagaya0SFVGS_aRkKql8JGCLnW3lCBj8V-CQD85bTmNPv5o_baPTFIE5Y1NZj0Uk4ZwYrOLsmBqBThp1HWhRq20WSlD2l2cG4VCS0-T2CEFts34S3O8bD-ApkceWdFrczDFKUb8-TxHdAFN4SrEq2spVEWPJZz3yReA7hdQgEGO9Cbyq19FMIGN-CC3cailtwJhBLBaST46VJHWnajNZGFVtClpwHr2kyLdTd24rE_UntFyi57uTNP8DBxTS2qt4CVJY-omMVbrVkXuV1lYiuRu3m00]--></g></svg>