<?xml version="1.0" encoding="UTF-8" standalone="no"?><svg xmlns="http://www.w3.org/2000/svg" xmlns:xlink="http://www.w3.org/1999/xlink" contentStyleType="text/css" height="1443px" preserveAspectRatio="none" style="width:2520px;height:1443px;background:#FFFFFF;" version="1.1" viewBox="0 0 2520 1443" width="2520px" zoomAndPan="magnify"><defs/><g><rect fill="#FFFFFF" height="1250.8906" style="stroke:#181818;stroke-width:1.0;" width="10" x="75" y="92.6094"/><rect fill="#FFFFFF" height="89.3125" style="stroke:#181818;stroke-width:1.0;" width="10" x="482" y="114.9609"/><rect fill="#FFFFFF" height="30.3516" style="stroke:#181818;stroke-width:1.0;" width="10" x="482" y="250.9766"/><rect fill="#FFFFFF" height="37.3516" style="stroke:#181818;stroke-width:1.0;" width="10" x="482" y="337.0313"/><rect fill="#FFFFFF" height="938.7656" style="stroke:#181818;stroke-width:1.0;" width="10" x="482" y="404.7344"/><rect fill="#FFFFFF" height="845.3594" style="stroke:#181818;stroke-width:1.0;" width="10" x="835" y="467.7891"/><rect fill="#FFFFFF" height="30.3516" style="stroke:#181818;stroke-width:1.0;" width="10" x="974.5" y="498.1406"/><rect fill="#FFFFFF" height="30.3516" style="stroke:#181818;stroke-width:1.0;" width="10" x="1081.5" y="558.8438"/><rect fill="#FFFFFF" height="30.3516" style="stroke:#181818;stroke-width:1.0;" width="10" x="1081.5" y="680.25"/><rect fill="#FFFFFF" height="30.3516" style="stroke:#181818;stroke-width:1.0;" width="10" x="1081.5" y="1131.0391"/><rect fill="#FFFFFF" height="30.3516" style="stroke:#181818;stroke-width:1.0;" width="10" x="1195" y="619.5469"/><rect fill="#FFFFFF" height="327.0313" style="stroke:#181818;stroke-width:1.0;" width="10" x="1325.5" y="773.6563"/><rect fill="#FFFFFF" height="128.0547" style="stroke:#181818;stroke-width:1.0;" width="10" x="1330.5" y="935.2813"/><rect fill="#FFFFFF" height="41.3516" style="stroke:#181818;stroke-width:1.0;" width="10" x="1335.5" y="978.6328"/><rect fill="#FFFFFF" height="36.7031" style="stroke:#181818;stroke-width:1.0;" width="10" x="1683" y="846.7109"/><rect fill="#FFFFFF" height="160.7578" style="stroke:#181818;stroke-width:1.0;" width="10" x="2092.5" y="1191.7422"/><rect fill="#FFFFFF" height="30.3516" style="stroke:#181818;stroke-width:1.0;" width="10" x="2461.5" y="1222.0938"/><rect fill="none" height="48.7031" style="stroke:#000000;stroke-width:1.5;" width="543" x="10" y="296.3281"/><line style="stroke:#181818;stroke-width:0.5;stroke-dasharray:5.0,5.0;" x1="80" x2="80" y1="82.6094" y2="1361.5"/><line style="stroke:#181818;stroke-width:0.5;stroke-dasharray:5.0,5.0;" x1="487" x2="487" y1="82.6094" y2="1361.5"/><line style="stroke:#181818;stroke-width:0.5;stroke-dasharray:5.0,5.0;" x1="840" x2="840" y1="154.2656" y2="1361.5"/><line style="stroke:#181818;stroke-width:0.5;stroke-dasharray:5.0,5.0;" x1="979" x2="979" y1="82.6094" y2="1361.5"/><line style="stroke:#181818;stroke-width:0.5;stroke-dasharray:5.0,5.0;" x1="1086" x2="1086" y1="82.6094" y2="1361.5"/><line style="stroke:#181818;stroke-width:0.5;stroke-dasharray:5.0,5.0;" x1="1200" x2="1200" y1="82.6094" y2="1361.5"/><line style="stroke:#181818;stroke-width:0.5;stroke-dasharray:5.0,5.0;" x1="1330" x2="1330" y1="82.6094" y2="1361.5"/><line style="stroke:#181818;stroke-width:0.5;stroke-dasharray:5.0,5.0;" x1="1687.5" x2="1687.5" y1="823.1836" y2="1361.5"/><line style="stroke:#181818;stroke-width:0.5;stroke-dasharray:5.0,5.0;" x1="1964" x2="1964" y1="884.8203" y2="1361.5"/><line style="stroke:#181818;stroke-width:0.5;stroke-dasharray:5.0,5.0;" x1="2097" x2="2097" y1="82.6094" y2="1361.5"/><line style="stroke:#181818;stroke-width:0.5;stroke-dasharray:5.0,5.0;" x1="2466" x2="2466" y1="82.6094" y2="1361.5"/><text fill="#000000" font-family="sans-serif" font-size="14" lengthAdjust="spacing" textLength="114" x="20" y="79.5332">Unregistered User</text><ellipse cx="80" cy="13.5" fill="#E3E3E3" rx="8" ry="8" style="stroke:#181818;stroke-width:0.5;"/><path d="M80,21.5 L80,48.5 M67,29.5 L93,29.5 M80,48.5 L67,63.5 M80,48.5 L93,63.5 " fill="none" style="stroke:#181818;stroke-width:0.5;"/><text fill="#000000" font-family="sans-serif" font-size="14" lengthAdjust="spacing" textLength="114" x="20" y="1375.0332">Unregistered User</text><ellipse cx="80" cy="1386.6094" fill="#E3E3E3" rx="8" ry="8" style="stroke:#181818;stroke-width:0.5;"/><path d="M80,1394.6094 L80,1421.6094 M67,1402.6094 L93,1402.6094 M80,1421.6094 L67,1436.6094 M80,1421.6094 L93,1436.6094 " fill="none" style="stroke:#181818;stroke-width:0.5;"/><rect fill="#E3E3E3" height="31.6094" rx="2.5" ry="2.5" style="stroke:#181818;stroke-width:0.5;" width="112" x="431" y="50"/><text fill="#000000" font-family="sans-serif" font-size="14" lengthAdjust="spacing" textLength="98" x="438" y="71.5332">:RegisterUserUI</text><rect fill="#E3E3E3" height="31.6094" rx="2.5" ry="2.5" style="stroke:#181818;stroke-width:0.5;" width="112" x="431" y="1360.5"/><text fill="#000000" font-family="sans-serif" font-size="14" lengthAdjust="spacing" textLength="98" x="438" y="1382.0332">:RegisterUserUI</text><rect fill="#E3E3E3" height="31.6094" rx="2.5" ry="2.5" style="stroke:#181818;stroke-width:0.5;" width="162" x="759" y="1360.5"/><text fill="#000000" font-family="sans-serif" font-size="14" lengthAdjust="spacing" textLength="148" x="766" y="1382.0332">:RegisterUserController</text><rect fill="#E3E3E3" height="31.6094" rx="2.5" ry="2.5" style="stroke:#181818;stroke-width:0.5;" width="97" x="931" y="50"/><text fill="#000000" font-family="sans-serif" font-size="14" lengthAdjust="spacing" textLength="83" x="938" y="71.5332">:Repositories</text><rect fill="#E3E3E3" height="31.6094" rx="2.5" ry="2.5" style="stroke:#181818;stroke-width:0.5;" width="97" x="931" y="1360.5"/><text fill="#000000" font-family="sans-serif" font-size="14" lengthAdjust="spacing" textLength="83" x="938" y="1382.0332">:Repositories</text><rect fill="#E3E3E3" height="49.2188" rx="2.5" ry="2.5" style="stroke:#181818;stroke-width:0.5;" width="97" x="1038" y="32.3906"/><text fill="#000000" font-family="sans-serif" font-size="14" lengthAdjust="spacing" textLength="74" x="1049.5" y="53.9238">repositories</text><text fill="#000000" font-family="sans-serif" font-size="14" lengthAdjust="spacing" textLength="83" x="1045" y="71.5332">:Repositories</text><rect fill="#E3E3E3" height="49.2188" rx="2.5" ry="2.5" style="stroke:#181818;stroke-width:0.5;" width="97" x="1038" y="1360.5"/><text fill="#000000" font-family="sans-serif" font-size="14" lengthAdjust="spacing" textLength="74" x="1049.5" y="1382.0332">repositories</text><text fill="#000000" font-family="sans-serif" font-size="14" lengthAdjust="spacing" textLength="83" x="1045" y="1399.6426">:Repositories</text><rect fill="#E3E3E3" height="49.2188" rx="2.5" ry="2.5" style="stroke:#181818;stroke-width:0.5;" width="110" x="1145" y="32.3906"/><text fill="#000000" font-family="sans-serif" font-size="14" lengthAdjust="spacing" textLength="92" x="1154" y="53.9238">roleRepository</text><text fill="#000000" font-family="sans-serif" font-size="14" lengthAdjust="spacing" textLength="96" x="1152" y="71.5332">:roleRepository</text><rect fill="#E3E3E3" height="49.2188" rx="2.5" ry="2.5" style="stroke:#181818;stroke-width:0.5;" width="110" x="1145" y="1360.5"/><text fill="#000000" font-family="sans-serif" font-size="14" lengthAdjust="spacing" textLength="92" x="1154" y="1382.0332">roleRepository</text><text fill="#000000" font-family="sans-serif" font-size="14" lengthAdjust="spacing" textLength="96" x="1152" y="1399.6426">:roleRepository</text><rect fill="#E3E3E3" height="49.2188" rx="2.5" ry="2.5" style="stroke:#181818;stroke-width:0.5;" width="131" x="1265" y="32.3906"/><text fill="#000000" font-family="sans-serif" font-size="14" lengthAdjust="spacing" textLength="112" x="1274.5" y="53.9238">personRepository</text><text fill="#000000" font-family="sans-serif" font-size="14" lengthAdjust="spacing" textLength="117" x="1272" y="71.5332">:PersonRepository</text><rect fill="#E3E3E3" height="49.2188" rx="2.5" ry="2.5" style="stroke:#181818;stroke-width:0.5;" width="131" x="1265" y="1360.5"/><text fill="#000000" font-family="sans-serif" font-size="14" lengthAdjust="spacing" textLength="112" x="1274.5" y="1382.0332">personRepository</text><text fill="#000000" font-family="sans-serif" font-size="14" lengthAdjust="spacing" textLength="117" x="1272" y="1399.6426">:PersonRepository</text><rect fill="#E3E3E3" height="49.2188" rx="2.5" ry="2.5" style="stroke:#181818;stroke-width:0.5;" width="63" x="1656.5" y="1360.5"/><text fill="#000000" font-family="sans-serif" font-size="14" lengthAdjust="spacing" textLength="44" x="1666" y="1382.0332">person</text><text fill="#000000" font-family="sans-serif" font-size="14" lengthAdjust="spacing" textLength="49" x="1663.5" y="1399.6426">:Person</text><rect fill="#E3E3E3" height="49.2188" rx="2.5" ry="2.5" style="stroke:#181818;stroke-width:0.5;" width="72" x="1928" y="1360.5"/><text fill="#000000" font-family="sans-serif" font-size="14" lengthAdjust="spacing" textLength="49" x="1939.5" y="1382.0332">location</text><text fill="#000000" font-family="sans-serif" font-size="14" lengthAdjust="spacing" textLength="58" x="1935" y="1399.6426">:Location</text><rect fill="#E3E3E3" height="49.2188" rx="2.5" ry="2.5" style="stroke:#181818;stroke-width:0.5;" width="175" x="2010" y="32.3906"/><text fill="#000000" font-family="sans-serif" font-size="14" lengthAdjust="spacing" textLength="157" x="2019" y="53.9238">authenticationRepository</text><text fill="#000000" font-family="sans-serif" font-size="14" lengthAdjust="spacing" textLength="161" x="2017" y="71.5332">:authenticationRepository</text><rect fill="#E3E3E3" height="49.2188" rx="2.5" ry="2.5" style="stroke:#181818;stroke-width:0.5;" width="175" x="2010" y="1360.5"/><text fill="#000000" font-family="sans-serif" font-size="14" lengthAdjust="spacing" textLength="157" x="2019" y="1382.0332">authenticationRepository</text><text fill="#000000" font-family="sans-serif" font-size="14" lengthAdjust="spacing" textLength="161" x="2017" y="1399.6426">:authenticationRepository</text><rect fill="#E3E3E3" height="49.2188" rx="2.5" ry="2.5" style="stroke:#181818;stroke-width:0.5;" width="95" x="2419" y="32.3906"/><text fill="#000000" font-family="sans-serif" font-size="14" lengthAdjust="spacing" textLength="76" x="2428.5" y="53.9238">authFacade</text><text fill="#000000" font-family="sans-serif" font-size="14" lengthAdjust="spacing" textLength="81" x="2426" y="71.5332">:AuthFacade</text><rect fill="#E3E3E3" height="49.2188" rx="2.5" ry="2.5" style="stroke:#181818;stroke-width:0.5;" width="95" x="2419" y="1360.5"/><text fill="#000000" font-family="sans-serif" font-size="14" lengthAdjust="spacing" textLength="76" x="2428.5" y="1382.0332">authFacade</text><text fill="#000000" font-family="sans-serif" font-size="14" lengthAdjust="spacing" textLength="81" x="2426" y="1399.6426">:AuthFacade</text><rect fill="#FFFFFF" height="1250.8906" style="stroke:#181818;stroke-width:1.0;" width="10" x="75" y="92.6094"/><rect fill="#FFFFFF" height="89.3125" style="stroke:#181818;stroke-width:1.0;" width="10" x="482" y="114.9609"/><rect fill="#FFFFFF" height="30.3516" style="stroke:#181818;stroke-width:1.0;" width="10" x="482" y="250.9766"/><rect fill="#FFFFFF" height="37.3516" style="stroke:#181818;stroke-width:1.0;" width="10" x="482" y="337.0313"/><rect fill="#FFFFFF" height="938.7656" style="stroke:#181818;stroke-width:1.0;" width="10" x="482" y="404.7344"/><rect fill="#FFFFFF" height="845.3594" style="stroke:#181818;stroke-width:1.0;" width="10" x="835" y="467.7891"/><rect fill="#FFFFFF" height="30.3516" style="stroke:#181818;stroke-width:1.0;" width="10" x="974.5" y="498.1406"/><rect fill="#FFFFFF" height="30.3516" style="stroke:#181818;stroke-width:1.0;" width="10" x="1081.5" y="558.8438"/><rect fill="#FFFFFF" height="30.3516" style="stroke:#181818;stroke-width:1.0;" width="10" x="1081.5" y="680.25"/><rect fill="#FFFFFF" height="30.3516" style="stroke:#181818;stroke-width:1.0;" width="10" x="1081.5" y="1131.0391"/><rect fill="#FFFFFF" height="30.3516" style="stroke:#181818;stroke-width:1.0;" width="10" x="1195" y="619.5469"/><rect fill="#FFFFFF" height="327.0313" style="stroke:#181818;stroke-width:1.0;" width="10" x="1325.5" y="773.6563"/><rect fill="#FFFFFF" height="128.0547" style="stroke:#181818;stroke-width:1.0;" width="10" x="1330.5" y="935.2813"/><rect fill="#FFFFFF" height="41.3516" style="stroke:#181818;stroke-width:1.0;" width="10" x="1335.5" y="978.6328"/><rect fill="#FFFFFF" height="36.7031" style="stroke:#181818;stroke-width:1.0;" width="10" x="1683" y="846.7109"/><rect fill="#FFFFFF" height="160.7578" style="stroke:#181818;stroke-width:1.0;" width="10" x="2092.5" y="1191.7422"/><rect fill="#FFFFFF" height="30.3516" style="stroke:#181818;stroke-width:1.0;" width="10" x="2461.5" y="1222.0938"/><polygon fill="#181818" points="470,110.9609,480,114.9609,470,118.9609,474,114.9609" style="stroke:#181818;stroke-width:1.0;"/><line style="stroke:#181818;stroke-width:1.0;" x1="85" x2="476" y1="114.9609" y2="114.9609"/><text fill="#000000" font-family="sans-serif" font-size="13" font-weight="bold" lengthAdjust="spacing" textLength="7" x="92" y="110.1045">1</text><text fill="#000000" font-family="sans-serif" font-size="13" lengthAdjust="spacing" textLength="349" x="103" y="110.1045">asks to register in the system to buy,sell and rent properties</text><polygon fill="#181818" points="747,141.3125,757,145.3125,747,149.3125,751,145.3125" style="stroke:#181818;stroke-width:1.0;"/><line style="stroke:#181818;stroke-width:1.0;" x1="492" x2="753" y1="145.3125" y2="145.3125"/><text fill="#000000" font-family="sans-serif" font-size="13" font-weight="bold" lengthAdjust="spacing" textLength="7" x="499" y="140.4561">2</text><text fill="#000000" font-family="sans-serif" font-size="13" lengthAdjust="spacing" textLength="36" x="510" y="140.4561">create</text><rect fill="#E3E3E3" height="31.6094" rx="2.5" ry="2.5" style="stroke:#181818;stroke-width:0.5;" width="162" x="759" y="122.9609"/><text fill="#000000" font-family="sans-serif" font-size="14" lengthAdjust="spacing" textLength="148" x="766" y="144.4941">:RegisterUserController</text><polygon fill="#181818" points="96,200.2734,86,204.2734,96,208.2734,92,204.2734" style="stroke:#181818;stroke-width:1.0;"/><line style="stroke:#181818;stroke-width:1.0;stroke-dasharray:2.0,2.0;" x1="90" x2="486" y1="204.2734" y2="204.2734"/><text fill="#000000" font-family="sans-serif" font-size="13" font-weight="bold" lengthAdjust="spacing" textLength="7" x="102" y="191.2412">3</text><text fill="#000000" font-family="sans-serif" font-size="13" lengthAdjust="spacing" textLength="326" x="113" y="183.0654">requests data (name, passportCardNumber, tax number,</text><text fill="#000000" font-family="sans-serif" font-size="13" lengthAdjust="spacing" textLength="234" x="117" y="199.417">emailAddress, phoneNumber, password)</text><polygon fill="#181818" points="470,246.9766,480,250.9766,470,254.9766,474,250.9766" style="stroke:#181818;stroke-width:1.0;"/><line style="stroke:#181818;stroke-width:1.0;" x1="85" x2="476" y1="250.9766" y2="250.9766"/><text fill="#000000" font-family="sans-serif" font-size="13" font-weight="bold" lengthAdjust="spacing" textLength="7" x="92" y="237.9443">4</text><text fill="#000000" font-family="sans-serif" font-size="13" lengthAdjust="spacing" textLength="363" x="103" y="229.7686">types requested data (name, passportCardNumber,taxNumber,</text><text fill="#000000" font-family="sans-serif" font-size="13" lengthAdjust="spacing" textLength="234" x="107" y="246.1201">emailAddress, phoneNumber, password)</text><polygon fill="#181818" points="96,277.3281,86,281.3281,96,285.3281,92,281.3281" style="stroke:#181818;stroke-width:1.0;"/><line style="stroke:#181818;stroke-width:1.0;stroke-dasharray:2.0,2.0;" x1="90" x2="486" y1="281.3281" y2="281.3281"/><text fill="#000000" font-family="sans-serif" font-size="13" font-weight="bold" lengthAdjust="spacing" textLength="7" x="102" y="276.4717">5</text><text fill="#000000" font-family="sans-serif" font-size="13" lengthAdjust="spacing" textLength="324" x="113" y="276.4717">requests data (streetName, city, district, state, zipcode)</text><path d="M10,296.3281 L75,296.3281 L75,304.6797 L65,314.6797 L10,314.6797 L10,296.3281 " fill="#EEEEEE" style="stroke:#000000;stroke-width:1.5;"/><rect fill="none" height="48.7031" style="stroke:#000000;stroke-width:1.5;" width="543" x="10" y="296.3281"/><text fill="#000000" font-family="sans-serif" font-size="13" font-weight="bold" lengthAdjust="spacing" textLength="20" x="25" y="310.8232">opt</text><polygon fill="#181818" points="470,333.0313,480,337.0313,470,341.0313,474,337.0313" style="stroke:#181818;stroke-width:1.0;"/><line style="stroke:#181818;stroke-width:1.0;" x1="85" x2="476" y1="337.0313" y2="337.0313"/><text fill="#000000" font-family="sans-serif" font-size="13" font-weight="bold" lengthAdjust="spacing" textLength="7" x="92" y="332.1748">6</text><text fill="#000000" font-family="sans-serif" font-size="13" lengthAdjust="spacing" textLength="367" x="103" y="332.1748">types requested data (streetName, city, district, state, zipcode)</text><polygon fill="#181818" points="96,370.3828,86,374.3828,96,378.3828,92,374.3828" style="stroke:#181818;stroke-width:1.0;"/><line style="stroke:#181818;stroke-width:1.0;stroke-dasharray:2.0,2.0;" x1="90" x2="486" y1="374.3828" y2="374.3828"/><text fill="#000000" font-family="sans-serif" font-size="13" font-weight="bold" lengthAdjust="spacing" textLength="7" x="102" y="369.5264">7</text><text fill="#000000" font-family="sans-serif" font-size="13" lengthAdjust="spacing" textLength="236" x="113" y="369.5264">shows all data and asks for confirmation.</text><polygon fill="#181818" points="470,400.7344,480,404.7344,470,408.7344,474,404.7344" style="stroke:#181818;stroke-width:1.0;"/><line style="stroke:#181818;stroke-width:1.0;" x1="85" x2="476" y1="404.7344" y2="404.7344"/><text fill="#000000" font-family="sans-serif" font-size="13" font-weight="bold" lengthAdjust="spacing" textLength="7" x="92" y="399.8779">8</text><text fill="#000000" font-family="sans-serif" font-size="13" lengthAdjust="spacing" textLength="75" x="103" y="399.8779">submits data</text><polygon fill="#181818" points="823,463.7891,833,467.7891,823,471.7891,827,467.7891" style="stroke:#181818;stroke-width:1.0;"/><line style="stroke:#181818;stroke-width:1.0;" x1="492" x2="829" y1="467.7891" y2="467.7891"/><text fill="#000000" font-family="sans-serif" font-size="13" font-weight="bold" lengthAdjust="spacing" textLength="7" x="499" y="446.5811">9</text><text fill="#000000" font-family="sans-serif" font-size="13" lengthAdjust="spacing" textLength="313" x="510" y="430.2295">registerUser(name, passportCardNumber, tax number,</text><text fill="#000000" font-family="sans-serif" font-size="13" lengthAdjust="spacing" textLength="309" x="514" y="446.5811">emailAddress, phoneNumber, password, streetName,</text><text fill="#000000" font-family="sans-serif" font-size="13" lengthAdjust="spacing" textLength="162" x="514" y="462.9326">city, district, state, zipcode)</text><polygon fill="#181818" points="962.5,494.1406,972.5,498.1406,962.5,502.1406,966.5,498.1406" style="stroke:#181818;stroke-width:1.0;"/><line style="stroke:#181818;stroke-width:1.0;" x1="845" x2="968.5" y1="498.1406" y2="498.1406"/><text fill="#000000" font-family="sans-serif" font-size="13" font-weight="bold" lengthAdjust="spacing" textLength="14" x="852" y="493.2842">10</text><text fill="#000000" font-family="sans-serif" font-size="13" lengthAdjust="spacing" textLength="75" x="870" y="493.2842">getInstance()</text><polygon fill="#181818" points="856,524.4922,846,528.4922,856,532.4922,852,528.4922" style="stroke:#181818;stroke-width:1.0;"/><line style="stroke:#181818;stroke-width:1.0;stroke-dasharray:2.0,2.0;" x1="850" x2="978.5" y1="528.4922" y2="528.4922"/><text fill="#000000" font-family="sans-serif" font-size="13" font-weight="bold" lengthAdjust="spacing" textLength="14" x="862" y="523.6357">11</text><text fill="#000000" font-family="sans-serif" font-size="13" lengthAdjust="spacing" textLength="67" x="880" y="523.6357">repositories</text><polygon fill="#181818" points="1069.5,554.8438,1079.5,558.8438,1069.5,562.8438,1073.5,558.8438" style="stroke:#181818;stroke-width:1.0;"/><line style="stroke:#181818;stroke-width:1.0;" x1="845" x2="1075.5" y1="558.8438" y2="558.8438"/><text fill="#000000" font-family="sans-serif" font-size="13" font-weight="bold" lengthAdjust="spacing" textLength="14" x="852" y="553.9873">12</text><text fill="#000000" font-family="sans-serif" font-size="13" lengthAdjust="spacing" textLength="114" x="870" y="553.9873">getRoleRepository()</text><polygon fill="#181818" points="856,585.1953,846,589.1953,856,593.1953,852,589.1953" style="stroke:#181818;stroke-width:1.0;"/><line style="stroke:#181818;stroke-width:1.0;" x1="850" x2="1085.5" y1="589.1953" y2="589.1953"/><text fill="#000000" font-family="sans-serif" font-size="13" font-weight="bold" lengthAdjust="spacing" textLength="14" x="862" y="584.3389">13</text><text fill="#000000" font-family="sans-serif" font-size="13" lengthAdjust="spacing" textLength="83" x="880" y="584.3389">roleRepository</text><polygon fill="#181818" points="1183,615.5469,1193,619.5469,1183,623.5469,1187,619.5469" style="stroke:#181818;stroke-width:1.0;"/><line style="stroke:#181818;stroke-width:1.0;" x1="845" x2="1189" y1="619.5469" y2="619.5469"/><text fill="#000000" font-family="sans-serif" font-size="13" font-weight="bold" lengthAdjust="spacing" textLength="14" x="852" y="614.6904">14</text><text fill="#000000" font-family="sans-serif" font-size="13" lengthAdjust="spacing" textLength="92" x="870" y="614.6904">getClientRoles()</text><polygon fill="#181818" points="856,645.8984,846,649.8984,856,653.8984,852,649.8984" style="stroke:#181818;stroke-width:1.0;"/><line style="stroke:#181818;stroke-width:1.0;stroke-dasharray:2.0,2.0;" x1="850" x2="1199" y1="649.8984" y2="649.8984"/><text fill="#000000" font-family="sans-serif" font-size="13" font-weight="bold" lengthAdjust="spacing" textLength="14" x="862" y="645.042">15</text><text fill="#000000" font-family="sans-serif" font-size="13" lengthAdjust="spacing" textLength="28" x="880" y="645.042">roles</text><polygon fill="#181818" points="1069.5,676.25,1079.5,680.25,1069.5,684.25,1073.5,680.25" style="stroke:#181818;stroke-width:1.0;"/><line style="stroke:#181818;stroke-width:1.0;" x1="845" x2="1075.5" y1="680.25" y2="680.25"/><text fill="#000000" font-family="sans-serif" font-size="13" font-weight="bold" lengthAdjust="spacing" textLength="14" x="852" y="675.3936">16</text><text fill="#000000" font-family="sans-serif" font-size="13" lengthAdjust="spacing" textLength="129" x="870" y="675.3936">getPersonRepository()</text><polygon fill="#181818" points="856,706.6016,846,710.6016,856,714.6016,852,710.6016" style="stroke:#181818;stroke-width:1.0;"/><line style="stroke:#181818;stroke-width:1.0;stroke-dasharray:2.0,2.0;" x1="850" x2="1085.5" y1="710.6016" y2="710.6016"/><text fill="#000000" font-family="sans-serif" font-size="13" font-weight="bold" lengthAdjust="spacing" textLength="14" x="862" y="705.7451">17</text><text fill="#000000" font-family="sans-serif" font-size="13" lengthAdjust="spacing" textLength="101" x="880" y="705.7451">personRepository</text><polygon fill="#181818" points="1313.5,769.6563,1323.5,773.6563,1313.5,777.6563,1317.5,773.6563" style="stroke:#181818;stroke-width:1.0;"/><line style="stroke:#181818;stroke-width:1.0;" x1="845" x2="1319.5" y1="773.6563" y2="773.6563"/><text fill="#000000" font-family="sans-serif" font-size="13" font-weight="bold" lengthAdjust="spacing" textLength="14" x="852" y="752.4482">18</text><text fill="#000000" font-family="sans-serif" font-size="13" lengthAdjust="spacing" textLength="320" x="870" y="736.0967">createPerson(name, passportCardNumber, tax number,</text><text fill="#000000" font-family="sans-serif" font-size="13" lengthAdjust="spacing" textLength="246" x="874" y="752.4482">emailAddress, phoneNumber, streetName,</text><text fill="#000000" font-family="sans-serif" font-size="13" lengthAdjust="spacing" textLength="162" x="874" y="768.7998">city, district, state, zipcode)</text><polygon fill="#181818" points="1644.5,832.7109,1654.5,836.7109,1644.5,840.7109,1648.5,836.7109" style="stroke:#181818;stroke-width:1.0;"/><line style="stroke:#181818;stroke-width:1.0;" x1="1335.5" x2="1650.5" y1="836.7109" y2="836.7109"/><text fill="#000000" font-family="sans-serif" font-size="13" font-weight="bold" lengthAdjust="spacing" textLength="14" x="1342.5" y="815.5029">19</text><text fill="#000000" font-family="sans-serif" font-size="13" lengthAdjust="spacing" textLength="279" x="1360.5" y="799.1514">create(name, passportCardNumber, tax number,</text><text fill="#000000" font-family="sans-serif" font-size="13" lengthAdjust="spacing" textLength="246" x="1364.5" y="815.5029">emailAddress, phoneNumber, streetName,</text><text fill="#000000" font-family="sans-serif" font-size="13" lengthAdjust="spacing" textLength="162" x="1364.5" y="831.8545">city, district, state, zipcode)</text><rect fill="#E3E3E3" height="49.2188" rx="2.5" ry="2.5" style="stroke:#181818;stroke-width:0.5;" width="63" x="1656.5" y="784.4922"/><text fill="#000000" font-family="sans-serif" font-size="14" lengthAdjust="spacing" textLength="44" x="1666" y="806.0254">person</text><text fill="#000000" font-family="sans-serif" font-size="14" lengthAdjust="spacing" textLength="49" x="1663.5" y="823.6348">:Person</text><polygon fill="#181818" points="1916,879.4141,1926,883.4141,1916,887.4141,1920,883.4141" style="stroke:#181818;stroke-width:1.0;"/><line style="stroke:#181818;stroke-width:1.0;" x1="1688" x2="1922" y1="883.4141" y2="883.4141"/><text fill="#000000" font-family="sans-serif" font-size="13" font-weight="bold" lengthAdjust="spacing" textLength="14" x="1695" y="870.3818">20</text><text fill="#000000" font-family="sans-serif" font-size="13" lengthAdjust="spacing" textLength="189" x="1713" y="862.2061">createLocation(streetName, city,</text><text fill="#000000" font-family="sans-serif" font-size="13" lengthAdjust="spacing" textLength="133" x="1713" y="878.5576">district, state, zipcode)</text><rect fill="#E3E3E3" height="49.2188" rx="2.5" ry="2.5" style="stroke:#181818;stroke-width:0.5;" width="72" x="1928" y="844.7109"/><text fill="#000000" font-family="sans-serif" font-size="14" lengthAdjust="spacing" textLength="49" x="1939.5" y="866.2441">location</text><text fill="#000000" font-family="sans-serif" font-size="14" lengthAdjust="spacing" textLength="58" x="1935" y="883.8535">:Location</text><line style="stroke:#181818;stroke-width:1.0;" x1="1335.5" x2="1382.5" y1="922.2813" y2="922.2813"/><line style="stroke:#181818;stroke-width:1.0;" x1="1382.5" x2="1382.5" y1="922.2813" y2="935.2813"/><line style="stroke:#181818;stroke-width:1.0;" x1="1341.5" x2="1382.5" y1="935.2813" y2="935.2813"/><polygon fill="#181818" points="1351.5,931.2813,1341.5,935.2813,1351.5,939.2813,1347.5,935.2813" style="stroke:#181818;stroke-width:1.0;"/><text fill="#000000" font-family="sans-serif" font-size="13" font-weight="bold" lengthAdjust="spacing" textLength="14" x="1347.5" y="917.4248">21</text><text fill="#000000" font-family="sans-serif" font-size="13" lengthAdjust="spacing" textLength="109" x="1365.5" y="917.4248">addPerson(person)</text><line style="stroke:#181818;stroke-width:1.0;" x1="1340.5" x2="1387.5" y1="965.6328" y2="965.6328"/><line style="stroke:#181818;stroke-width:1.0;" x1="1387.5" x2="1387.5" y1="965.6328" y2="978.6328"/><line style="stroke:#181818;stroke-width:1.0;" x1="1346.5" x2="1387.5" y1="978.6328" y2="978.6328"/><polygon fill="#181818" points="1356.5,974.6328,1346.5,978.6328,1356.5,982.6328,1352.5,978.6328" style="stroke:#181818;stroke-width:1.0;"/><text fill="#000000" font-family="sans-serif" font-size="13" font-weight="bold" lengthAdjust="spacing" textLength="14" x="1352.5" y="960.7764">22</text><text fill="#000000" font-family="sans-serif" font-size="13" lengthAdjust="spacing" textLength="131" x="1370.5" y="960.7764">validatePerson(person)</text><line style="stroke:#181818;stroke-width:1.0;stroke-dasharray:2.0,2.0;" x1="1345.5" x2="1387.5" y1="1018.9844" y2="1018.9844"/><line style="stroke:#181818;stroke-width:1.0;stroke-dasharray:2.0,2.0;" x1="1387.5" x2="1387.5" y1="1018.9844" y2="1031.9844"/><line style="stroke:#181818;stroke-width:1.0;stroke-dasharray:2.0,2.0;" x1="1340.5" x2="1387.5" y1="1031.9844" y2="1031.9844"/><polygon fill="#181818" points="1350.5,1027.9844,1340.5,1031.9844,1350.5,1035.9844,1346.5,1031.9844" style="stroke:#181818;stroke-width:1.0;"/><text fill="#000000" font-family="sans-serif" font-size="13" font-weight="bold" lengthAdjust="spacing" textLength="14" x="1352.5" y="1014.1279">23</text><text fill="#000000" font-family="sans-serif" font-size="13" lengthAdjust="spacing" textLength="4" x="1370.5" y="1014.1279"> </text><line style="stroke:#181818;stroke-width:1.0;stroke-dasharray:2.0,2.0;" x1="1340.5" x2="1382.5" y1="1062.3359" y2="1062.3359"/><line style="stroke:#181818;stroke-width:1.0;stroke-dasharray:2.0,2.0;" x1="1382.5" x2="1382.5" y1="1062.3359" y2="1075.3359"/><line style="stroke:#181818;stroke-width:1.0;stroke-dasharray:2.0,2.0;" x1="1335.5" x2="1382.5" y1="1075.3359" y2="1075.3359"/><polygon fill="#181818" points="1345.5,1071.3359,1335.5,1075.3359,1345.5,1079.3359,1341.5,1075.3359" style="stroke:#181818;stroke-width:1.0;"/><text fill="#000000" font-family="sans-serif" font-size="13" font-weight="bold" lengthAdjust="spacing" textLength="14" x="1347.5" y="1057.4795">24</text><text fill="#000000" font-family="sans-serif" font-size="13" lengthAdjust="spacing" textLength="4" x="1365.5" y="1057.4795"> </text><polygon fill="#181818" points="856,1096.6875,846,1100.6875,856,1104.6875,852,1100.6875" style="stroke:#181818;stroke-width:1.0;"/><line style="stroke:#181818;stroke-width:1.0;stroke-dasharray:2.0,2.0;" x1="850" x2="1329.5" y1="1100.6875" y2="1100.6875"/><text fill="#000000" font-family="sans-serif" font-size="13" font-weight="bold" lengthAdjust="spacing" textLength="14" x="862" y="1095.8311">25</text><text fill="#000000" font-family="sans-serif" font-size="13" lengthAdjust="spacing" textLength="39" x="880" y="1095.8311">person</text><polygon fill="#181818" points="1069.5,1127.0391,1079.5,1131.0391,1069.5,1135.0391,1073.5,1131.0391" style="stroke:#181818;stroke-width:1.0;"/><line style="stroke:#181818;stroke-width:1.0;" x1="845" x2="1075.5" y1="1131.0391" y2="1131.0391"/><text fill="#000000" font-family="sans-serif" font-size="13" font-weight="bold" lengthAdjust="spacing" textLength="14" x="852" y="1126.1826">26</text><text fill="#000000" font-family="sans-serif" font-size="13" lengthAdjust="spacing" textLength="171" x="870" y="1126.1826">getAuthenticationRepository()</text><polygon fill="#181818" points="856,1157.3906,846,1161.3906,856,1165.3906,852,1161.3906" style="stroke:#181818;stroke-width:1.0;"/><line style="stroke:#181818;stroke-width:1.0;stroke-dasharray:2.0,2.0;" x1="850" x2="1085.5" y1="1161.3906" y2="1161.3906"/><text fill="#000000" font-family="sans-serif" font-size="13" font-weight="bold" lengthAdjust="spacing" textLength="14" x="862" y="1156.5342">27</text><text fill="#000000" font-family="sans-serif" font-size="13" lengthAdjust="spacing" textLength="143" x="880" y="1156.5342">authenticationRepository</text><polygon fill="#181818" points="2080.5,1187.7422,2090.5,1191.7422,2080.5,1195.7422,2084.5,1191.7422" style="stroke:#181818;stroke-width:1.0;"/><line style="stroke:#181818;stroke-width:1.0;" x1="845" x2="2086.5" y1="1191.7422" y2="1191.7422"/><text fill="#000000" font-family="sans-serif" font-size="13" font-weight="bold" lengthAdjust="spacing" textLength="14" x="852" y="1186.8857">28</text><text fill="#000000" font-family="sans-serif" font-size="13" lengthAdjust="spacing" textLength="322" x="870" y="1186.8857">addUserWithRoles(name,emailAddress,password,roles)</text><polygon fill="#181818" points="2449.5,1218.0938,2459.5,1222.0938,2449.5,1226.0938,2453.5,1222.0938" style="stroke:#181818;stroke-width:1.0;"/><line style="stroke:#181818;stroke-width:1.0;" x1="2102.5" x2="2455.5" y1="1222.0938" y2="1222.0938"/><text fill="#000000" font-family="sans-serif" font-size="13" font-weight="bold" lengthAdjust="spacing" textLength="14" x="2109.5" y="1217.2373">29</text><text fill="#000000" font-family="sans-serif" font-size="13" lengthAdjust="spacing" textLength="322" x="2127.5" y="1217.2373">addUserWithRoles(name,emailAddress,password,roles)</text><polygon fill="#181818" points="2113.5,1248.4453,2103.5,1252.4453,2113.5,1256.4453,2109.5,1252.4453" style="stroke:#181818;stroke-width:1.0;"/><line style="stroke:#181818;stroke-width:1.0;stroke-dasharray:2.0,2.0;" x1="2107.5" x2="2465.5" y1="1252.4453" y2="1252.4453"/><text fill="#000000" font-family="sans-serif" font-size="13" font-weight="bold" lengthAdjust="spacing" textLength="14" x="2119.5" y="1247.5889">30</text><text fill="#000000" font-family="sans-serif" font-size="13" lengthAdjust="spacing" textLength="49" x="2137.5" y="1247.5889">success</text><polygon fill="#181818" points="856,1278.7969,846,1282.7969,856,1286.7969,852,1282.7969" style="stroke:#181818;stroke-width:1.0;"/><line style="stroke:#181818;stroke-width:1.0;stroke-dasharray:2.0,2.0;" x1="850" x2="2091.5" y1="1282.7969" y2="1282.7969"/><text fill="#000000" font-family="sans-serif" font-size="13" font-weight="bold" lengthAdjust="spacing" textLength="14" x="862" y="1277.9404">31</text><text fill="#000000" font-family="sans-serif" font-size="13" lengthAdjust="spacing" textLength="49" x="880" y="1277.9404">success</text><polygon fill="#181818" points="503,1309.1484,493,1313.1484,503,1317.1484,499,1313.1484" style="stroke:#181818;stroke-width:1.0;"/><line style="stroke:#181818;stroke-width:1.0;stroke-dasharray:2.0,2.0;" x1="497" x2="839" y1="1313.1484" y2="1313.1484"/><text fill="#000000" font-family="sans-serif" font-size="13" font-weight="bold" lengthAdjust="spacing" textLength="14" x="509" y="1308.292">32</text><text fill="#000000" font-family="sans-serif" font-size="13" lengthAdjust="spacing" textLength="49" x="527" y="1308.292">success</text><polygon fill="#181818" points="91,1339.5,81,1343.5,91,1347.5,87,1343.5" style="stroke:#181818;stroke-width:1.0;"/><line style="stroke:#181818;stroke-width:1.0;stroke-dasharray:2.0,2.0;" x1="85" x2="486" y1="1343.5" y2="1343.5"/><text fill="#000000" font-family="sans-serif" font-size="13" font-weight="bold" lengthAdjust="spacing" textLength="14" x="97" y="1338.6436">33</text><text fill="#000000" font-family="sans-serif" font-size="13" lengthAdjust="spacing" textLength="158" x="115" y="1338.6436">displays operation success</text><!--SRC=[nLTDRnen4BtlhnXnQOf8Vm27IeWcAX8b4G7raelP7S3AhhsrJHBwwplsVh3UBo2Ar3snzioRvpVZsK6_S94onH98f93XNia4mQW31hhSILdumdRuP8unWiBGCB6BgmPwpoBvniKEjYpM60JiOAGu91jKGV1bpoE4hPHc8zy35XgfOB0M2dTS6rGOmLgZ6W3JCFdnAo14mqEUCc5WC5xcLjPaFND6wrcFpLGAesGSvu3JrNBUi4wbvaI2etOsvSBnYTjp4NFVHLKydaKJu74-MTKyP8mdMFBn5xAmtfBldwBIKdW8ZxMbBFBTykbXiRnxR7CldIgclbqiGsQuivpdFvtj_64wMStgrfJJFGfwTuOUkQwjBAdhrSy6HUjnpq8M8RbFofS151xta-danrr03rKCVsK6NNK4G0_zWDllL0Wm9lCN3KP2KKx01H0Pq4TwI-pEvd0SQOnZO28YCugUAaaI6SgVWoi3K6Mv1G8cU5ixm-4OGeMqUTgXBKjWJ5X_3gYDXeWP1ZU29JYYkw9rAfMPCXKjt0qOWM7laDs6qRC0J1YF9r6aK6kotqk1XQ5rVfCg-kg2HTXWLZsvEQQe2n9qYywm81ABwpcqQjEbW3OAqImSWv2RumWYoedYeHc1DeGoWhyy3MM4dGUKgRdmeDS6guQoxqZLOACrJwNtyaq3eufnaMpPk2hRKkCAfTXobRWw_tP9blHXa_1SeNFLvXGzzRBFh2YhIQaNkLobcEkYRicn9BOjFPF8xz3C126946yoYE8feTgQhMTfdpRqsrmZAz6f_tgkbKoS3LCSnFRkZBdVZxlukrxV8EnGAadqMti7nmogbPNF9UCtZJdrBhkZEyNrupPrzM5lVSRTOlR0DdMiVwWkLp9JyKIg_XNi5xALLV5zXAADP-m-usPTVvyQ2fHVRr-6adHvWk6mFC1_fLxdtaRSiYu6Y0hlOi1ewTlFuhBWrPHtXlTqenUQ4A8eptfMKBqdQcIZ3_cLnJmw5LKR_0T2-7NRi6oeq5T0FLZNudYNyagaPfUOT4oC7-mMbEKEmEkRHZwlWgiS-nt-pSq-wxlkxdaNg_o-kWxQGRwOWBtT8amUCPjtFpTcCKFNmsRhsSIJiR1pIXWIU9TSVN2r2YcGMiJDXw8piKxZXZUMKPD8OtRKO8TtbsMFT6qE2u8gU_hdy0y0]--></g></svg>