<?xml version="1.0" encoding="UTF-8" standalone="no"?><svg xmlns="http://www.w3.org/2000/svg" xmlns:xlink="http://www.w3.org/1999/xlink" contentStyleType="text/css" height="1630px" preserveAspectRatio="none" style="width:1718px;height:1630px;background:#FFFFFF;" version="1.1" viewBox="0 0 1718 1630" width="1718px" zoomAndPan="magnify"><defs/><g><rect fill="#FFFFFF" height="1437.8984" style="stroke:#181818;stroke-width:1.0;" width="10" x="21.5" y="92.6094"/><rect fill="#FFFFFF" height="72.9609" style="stroke:#181818;stroke-width:1.0;" width="10" x="335.5" y="131.3125"/><rect fill="#FFFFFF" height="1295.8828" style="stroke:#181818;stroke-width:1.0;" width="10" x="335.5" y="234.625"/><rect fill="#FFFFFF" height="1218.8281" style="stroke:#181818;stroke-width:1.0;" width="10" x="617.5" y="264.9766"/><rect fill="#FFFFFF" height="87.7969" style="stroke:#181818;stroke-width:1.0;" width="10" x="622.5" y="303.3281"/><rect fill="#FFFFFF" height="388.9609" style="stroke:#181818;stroke-width:1.0;" width="10" x="622.5" y="461.4766"/><rect fill="#FFFFFF" height="87.7969" style="stroke:#181818;stroke-width:1.0;" width="10" x="627.5" y="719.2891"/><rect fill="#FFFFFF" height="87.7969" style="stroke:#181818;stroke-width:1.0;" width="10" x="622.5" y="920.7891"/><rect fill="#FFFFFF" height="342.5156" style="stroke:#181818;stroke-width:1.0;" width="10" x="622.5" y="1078.9375"/><rect fill="#FFFFFF" height="30.3516" style="stroke:#181818;stroke-width:1.0;" width="10" x="1050.5" y="496.8281"/><rect fill="#FFFFFF" height="123.4063" style="stroke:#181818;stroke-width:1.0;" width="10" x="1177.5" y="557.5313"/><rect fill="#FFFFFF" height="30.3516" style="stroke:#181818;stroke-width:1.0;" width="10" x="1408.5" y="613.2344"/><rect fill="#FFFFFF" height="30.3516" style="stroke:#181818;stroke-width:1.0;" width="10" x="1523.5" y="1114.2891"/><rect fill="#FFFFFF" height="30.3516" style="stroke:#181818;stroke-width:1.0;" width="10" x="1523.5" y="1174.9922"/><rect fill="#FFFFFF" height="30.3516" style="stroke:#181818;stroke-width:1.0;" width="10" x="1655.5" y="1354.75"/><rect fill="none" height="79.0547" style="stroke:#000000;stroke-width:1.5;" width="354" x="1104" y="572.5313"/><line style="stroke:#181818;stroke-width:0.5;stroke-dasharray:5.0,5.0;" x1="26" x2="26" y1="82.6094" y2="1548.5078"/><line style="stroke:#181818;stroke-width:0.5;stroke-dasharray:5.0,5.0;" x1="340" x2="340" y1="82.6094" y2="1548.5078"/><line style="stroke:#181818;stroke-width:0.5;stroke-dasharray:5.0,5.0;" x1="622" x2="622" y1="170.6172" y2="1548.5078"/><line style="stroke:#181818;stroke-width:0.5;stroke-dasharray:5.0,5.0;" x1="1055" x2="1055" y1="82.6094" y2="1548.5078"/><line style="stroke:#181818;stroke-width:0.5;stroke-dasharray:5.0,5.0;" x1="1182" x2="1182" y1="82.6094" y2="1548.5078"/><line style="stroke:#181818;stroke-width:0.5;stroke-dasharray:5.0,5.0;" x1="1413" x2="1413" y1="82.6094" y2="1548.5078"/><line style="stroke:#181818;stroke-width:0.5;stroke-dasharray:5.0,5.0;" x1="1528" x2="1528" y1="82.6094" y2="1548.5078"/><line style="stroke:#181818;stroke-width:0.5;stroke-dasharray:5.0,5.0;" x1="1660" x2="1660" y1="82.6094" y2="1548.5078"/><text fill="#000000" font-family="sans-serif" font-size="14" lengthAdjust="spacing" textLength="37" x="5" y="79.5332">Agent</text><ellipse cx="26.5" cy="13.5" fill="#E3E3E3" rx="8" ry="8" style="stroke:#181818;stroke-width:0.5;"/><path d="M26.5,21.5 L26.5,48.5 M13.5,29.5 L39.5,29.5 M26.5,48.5 L13.5,63.5 M26.5,48.5 L39.5,63.5 " fill="none" style="stroke:#181818;stroke-width:0.5;"/><text fill="#000000" font-family="sans-serif" font-size="14" lengthAdjust="spacing" textLength="37" x="5" y="1562.041">Agent</text><ellipse cx="26.5" cy="1573.6172" fill="#E3E3E3" rx="8" ry="8" style="stroke:#181818;stroke-width:0.5;"/><path d="M26.5,1581.6172 L26.5,1608.6172 M13.5,1589.6172 L39.5,1589.6172 M26.5,1608.6172 L13.5,1623.6172 M26.5,1608.6172 L39.5,1623.6172 " fill="none" style="stroke:#181818;stroke-width:0.5;"/><rect fill="#E3E3E3" height="31.6094" rx="2.5" ry="2.5" style="stroke:#181818;stroke-width:0.5;" width="85" x="298" y="50"/><text fill="#000000" font-family="sans-serif" font-size="14" lengthAdjust="spacing" textLength="71" x="305" y="71.5332">:ListVisitsUI</text><rect fill="#E3E3E3" height="31.6094" rx="2.5" ry="2.5" style="stroke:#181818;stroke-width:0.5;" width="85" x="298" y="1547.5078"/><text fill="#000000" font-family="sans-serif" font-size="14" lengthAdjust="spacing" textLength="71" x="305" y="1569.041">:ListVisitsUI</text><rect fill="#E3E3E3" height="31.6094" rx="2.5" ry="2.5" style="stroke:#181818;stroke-width:0.5;" width="135" x="555" y="1547.5078"/><text fill="#000000" font-family="sans-serif" font-size="14" lengthAdjust="spacing" textLength="121" x="562" y="1569.041">:ListVisitsController</text><rect fill="#E3E3E3" height="49.2188" rx="2.5" ry="2.5" style="stroke:#181818;stroke-width:0.5;" width="97" x="1007" y="32.3906"/><text fill="#000000" font-family="sans-serif" font-size="14" lengthAdjust="spacing" textLength="74" x="1018.5" y="53.9238">repositories</text><text fill="#000000" font-family="sans-serif" font-size="14" lengthAdjust="spacing" textLength="83" x="1014" y="71.5332">:Repositories</text><rect fill="#E3E3E3" height="49.2188" rx="2.5" ry="2.5" style="stroke:#181818;stroke-width:0.5;" width="97" x="1007" y="1547.5078"/><text fill="#000000" font-family="sans-serif" font-size="14" lengthAdjust="spacing" textLength="74" x="1018.5" y="1569.041">repositories</text><text fill="#000000" font-family="sans-serif" font-size="14" lengthAdjust="spacing" textLength="83" x="1014" y="1586.6504">:Repositories</text><rect fill="#E3E3E3" height="49.2188" rx="2.5" ry="2.5" style="stroke:#181818;stroke-width:0.5;" width="137" x="1114" y="32.3906"/><text fill="#000000" font-family="sans-serif" font-size="14" lengthAdjust="spacing" textLength="114" x="1125.5" y="53.9238">agencyRepository</text><text fill="#000000" font-family="sans-serif" font-size="14" lengthAdjust="spacing" textLength="123" x="1121" y="71.5332">: AgencyRepository</text><rect fill="#E3E3E3" height="49.2188" rx="2.5" ry="2.5" style="stroke:#181818;stroke-width:0.5;" width="137" x="1114" y="1547.5078"/><text fill="#000000" font-family="sans-serif" font-size="14" lengthAdjust="spacing" textLength="114" x="1125.5" y="1569.041">agencyRepository</text><text fill="#000000" font-family="sans-serif" font-size="14" lengthAdjust="spacing" textLength="123" x="1121" y="1586.6504">: AgencyRepository</text><rect fill="#E3E3E3" height="49.2188" rx="2.5" ry="2.5" style="stroke:#181818;stroke-width:0.5;" width="69" x="1379" y="32.3906"/><text fill="#000000" font-family="sans-serif" font-size="14" lengthAdjust="spacing" textLength="46" x="1390.5" y="53.9238">agency</text><text fill="#000000" font-family="sans-serif" font-size="14" lengthAdjust="spacing" textLength="55" x="1386" y="71.5332">: Agency</text><rect fill="#E3E3E3" height="49.2188" rx="2.5" ry="2.5" style="stroke:#181818;stroke-width:0.5;" width="69" x="1379" y="1547.5078"/><text fill="#000000" font-family="sans-serif" font-size="14" lengthAdjust="spacing" textLength="46" x="1390.5" y="1569.041">agency</text><text fill="#000000" font-family="sans-serif" font-size="14" lengthAdjust="spacing" textLength="55" x="1386" y="1586.6504">: Agency</text><rect fill="#E3E3E3" height="49.2188" rx="2.5" ry="2.5" style="stroke:#181818;stroke-width:0.5;" width="141" x="1458" y="32.3906"/><text fill="#000000" font-family="sans-serif" font-size="14" lengthAdjust="spacing" textLength="118" x="1469.5" y="53.9238">applicationSession</text><text fill="#000000" font-family="sans-serif" font-size="14" lengthAdjust="spacing" textLength="127" x="1465" y="71.5332">: ApplicationSession</text><rect fill="#E3E3E3" height="49.2188" rx="2.5" ry="2.5" style="stroke:#181818;stroke-width:0.5;" width="141" x="1458" y="1547.5078"/><text fill="#000000" font-family="sans-serif" font-size="14" lengthAdjust="spacing" textLength="118" x="1469.5" y="1569.041">applicationSession</text><text fill="#000000" font-family="sans-serif" font-size="14" lengthAdjust="spacing" textLength="127" x="1465" y="1586.6504">: ApplicationSession</text><rect fill="#E3E3E3" height="49.2188" rx="2.5" ry="2.5" style="stroke:#181818;stroke-width:0.5;" width="103" x="1609" y="32.3906"/><text fill="#000000" font-family="sans-serif" font-size="14" font-weight="bold" lengthAdjust="spacing" textLength="79" x="1621" y="53.9238">«Interface»</text><text fill="#000000" font-family="sans-serif" font-size="14" lengthAdjust="spacing" textLength="89" x="1616" y="71.5332">:SortAlgorithm</text><rect fill="#E3E3E3" height="49.2188" rx="2.5" ry="2.5" style="stroke:#181818;stroke-width:0.5;" width="103" x="1609" y="1547.5078"/><text fill="#000000" font-family="sans-serif" font-size="14" font-weight="bold" lengthAdjust="spacing" textLength="79" x="1621" y="1569.041">«Interface»</text><text fill="#000000" font-family="sans-serif" font-size="14" lengthAdjust="spacing" textLength="89" x="1616" y="1586.6504">:SortAlgorithm</text><rect fill="#FFFFFF" height="1437.8984" style="stroke:#181818;stroke-width:1.0;" width="10" x="21.5" y="92.6094"/><rect fill="#FFFFFF" height="72.9609" style="stroke:#181818;stroke-width:1.0;" width="10" x="335.5" y="131.3125"/><rect fill="#FFFFFF" height="1295.8828" style="stroke:#181818;stroke-width:1.0;" width="10" x="335.5" y="234.625"/><rect fill="#FFFFFF" height="1218.8281" style="stroke:#181818;stroke-width:1.0;" width="10" x="617.5" y="264.9766"/><rect fill="#FFFFFF" height="87.7969" style="stroke:#181818;stroke-width:1.0;" width="10" x="622.5" y="303.3281"/><rect fill="#FFFFFF" height="388.9609" style="stroke:#181818;stroke-width:1.0;" width="10" x="622.5" y="461.4766"/><rect fill="#FFFFFF" height="87.7969" style="stroke:#181818;stroke-width:1.0;" width="10" x="627.5" y="719.2891"/><rect fill="#FFFFFF" height="87.7969" style="stroke:#181818;stroke-width:1.0;" width="10" x="622.5" y="920.7891"/><rect fill="#FFFFFF" height="342.5156" style="stroke:#181818;stroke-width:1.0;" width="10" x="622.5" y="1078.9375"/><rect fill="#FFFFFF" height="30.3516" style="stroke:#181818;stroke-width:1.0;" width="10" x="1050.5" y="496.8281"/><rect fill="#FFFFFF" height="123.4063" style="stroke:#181818;stroke-width:1.0;" width="10" x="1177.5" y="557.5313"/><rect fill="#FFFFFF" height="30.3516" style="stroke:#181818;stroke-width:1.0;" width="10" x="1408.5" y="613.2344"/><rect fill="#FFFFFF" height="30.3516" style="stroke:#181818;stroke-width:1.0;" width="10" x="1523.5" y="1114.2891"/><rect fill="#FFFFFF" height="30.3516" style="stroke:#181818;stroke-width:1.0;" width="10" x="1523.5" y="1174.9922"/><rect fill="#FFFFFF" height="30.3516" style="stroke:#181818;stroke-width:1.0;" width="10" x="1655.5" y="1354.75"/><polygon fill="#181818" points="323.5,127.3125,333.5,131.3125,323.5,135.3125,327.5,131.3125" style="stroke:#181818;stroke-width:1.0;"/><line style="stroke:#181818;stroke-width:1.0;" x1="31.5" x2="329.5" y1="131.3125" y2="131.3125"/><text fill="#000000" font-family="sans-serif" font-size="13" font-weight="bold" lengthAdjust="spacing" textLength="7" x="38.5" y="118.2803">1</text><text fill="#000000" font-family="sans-serif" font-size="13" lengthAdjust="spacing" textLength="261" x="49.5" y="110.1045">asks to see all the booking requests made to</text><text fill="#000000" font-family="sans-serif" font-size="13" lengthAdjust="spacing" textLength="170" x="49.5" y="126.4561">properties manage by himself</text><polygon fill="#181818" points="543,157.6641,553,161.6641,543,165.6641,547,161.6641" style="stroke:#181818;stroke-width:1.0;"/><line style="stroke:#181818;stroke-width:1.0;" x1="345.5" x2="549" y1="161.6641" y2="161.6641"/><text fill="#000000" font-family="sans-serif" font-size="13" font-weight="bold" lengthAdjust="spacing" textLength="7" x="352.5" y="156.8076">2</text><text fill="#000000" font-family="sans-serif" font-size="13" lengthAdjust="spacing" textLength="36" x="363.5" y="156.8076">create</text><rect fill="#E3E3E3" height="31.6094" rx="2.5" ry="2.5" style="stroke:#181818;stroke-width:0.5;" width="135" x="555" y="139.3125"/><text fill="#000000" font-family="sans-serif" font-size="14" lengthAdjust="spacing" textLength="121" x="562" y="160.8457">:ListVisitsController</text><polygon fill="#181818" points="42.5,200.2734,32.5,204.2734,42.5,208.2734,38.5,204.2734" style="stroke:#181818;stroke-width:1.0;"/><line style="stroke:#181818;stroke-width:1.0;stroke-dasharray:2.0,2.0;" x1="36.5" x2="339.5" y1="204.2734" y2="204.2734"/><text fill="#000000" font-family="sans-serif" font-size="13" font-weight="bold" lengthAdjust="spacing" textLength="7" x="48.5" y="199.417">3</text><text fill="#000000" font-family="sans-serif" font-size="13" lengthAdjust="spacing" textLength="79" x="59.5" y="199.417">requests data</text><polygon fill="#181818" points="323.5,230.625,333.5,234.625,323.5,238.625,327.5,234.625" style="stroke:#181818;stroke-width:1.0;"/><line style="stroke:#181818;stroke-width:1.0;" x1="31.5" x2="329.5" y1="234.625" y2="234.625"/><text fill="#000000" font-family="sans-serif" font-size="13" font-weight="bold" lengthAdjust="spacing" textLength="7" x="38.5" y="229.7686">4</text><text fill="#000000" font-family="sans-serif" font-size="13" lengthAdjust="spacing" textLength="262" x="49.5" y="229.7686">selects requested data (begin date, end date)</text><polygon fill="#181818" points="605.5,260.9766,615.5,264.9766,605.5,268.9766,609.5,264.9766" style="stroke:#181818;stroke-width:1.0;"/><line style="stroke:#181818;stroke-width:1.0;" x1="345.5" x2="611.5" y1="264.9766" y2="264.9766"/><text fill="#000000" font-family="sans-serif" font-size="13" font-weight="bold" lengthAdjust="spacing" textLength="7" x="352.5" y="260.1201">5</text><text fill="#000000" font-family="sans-serif" font-size="13" lengthAdjust="spacing" textLength="242" x="363.5" y="260.1201">getVisitRequestsList(beginDate, endDate)</text><line style="stroke:#181818;stroke-width:1.0;" x1="627.5" x2="674.5" y1="290.3281" y2="290.3281"/><line style="stroke:#181818;stroke-width:1.0;" x1="674.5" x2="674.5" y1="290.3281" y2="303.3281"/><line style="stroke:#181818;stroke-width:1.0;" x1="633.5" x2="674.5" y1="303.3281" y2="303.3281"/><polygon fill="#181818" points="643.5,299.3281,633.5,303.3281,643.5,307.3281,639.5,303.3281" style="stroke:#181818;stroke-width:1.0;"/><text fill="#000000" font-family="sans-serif" font-size="13" font-weight="bold" lengthAdjust="spacing" textLength="7" x="639.5" y="285.4717">6</text><text fill="#000000" font-family="sans-serif" font-size="13" lengthAdjust="spacing" textLength="93" x="650.5" y="285.4717">getAgentEmail()</text><rect fill="none" height="41.4453" style="stroke:#000000;stroke-width:1.5;" width="141" x="552" y="316.3281"/><path d="M552,316.3281 L614,316.3281 L614,324.3281 L604,334.3281 L552,334.3281 L552,316.3281 " fill="#EEEEEE" style="stroke:#000000;stroke-width:2.0;"/><text fill="#000000" font-family="sans-serif" font-size="13" font-weight="bold" lengthAdjust="spacing" textLength="17" x="565" y="331.8232">ref</text><text fill="#000000" font-family="sans-serif" font-size="12" lengthAdjust="spacing" textLength="88" x="578.5" y="350.7852">Get Agent Email</text><line style="stroke:#181818;stroke-width:1.0;stroke-dasharray:2.0,2.0;" x1="632.5" x2="674.5" y1="390.125" y2="390.125"/><line style="stroke:#181818;stroke-width:1.0;stroke-dasharray:2.0,2.0;" x1="674.5" x2="674.5" y1="390.125" y2="403.125"/><line style="stroke:#181818;stroke-width:1.0;stroke-dasharray:2.0,2.0;" x1="627.5" x2="674.5" y1="403.125" y2="403.125"/><polygon fill="#181818" points="637.5,399.125,627.5,403.125,637.5,407.125,633.5,403.125" style="stroke:#181818;stroke-width:1.0;"/><text fill="#000000" font-family="sans-serif" font-size="13" font-weight="bold" lengthAdjust="spacing" textLength="7" x="639.5" y="385.2686">7</text><text fill="#000000" font-family="sans-serif" font-size="13" lengthAdjust="spacing" textLength="65" x="650.5" y="385.2686">agentEmail</text><line style="stroke:#181818;stroke-width:1.0;" x1="627.5" x2="674.5" y1="448.4766" y2="448.4766"/><line style="stroke:#181818;stroke-width:1.0;" x1="674.5" x2="674.5" y1="448.4766" y2="461.4766"/><line style="stroke:#181818;stroke-width:1.0;" x1="633.5" x2="674.5" y1="461.4766" y2="461.4766"/><polygon fill="#181818" points="643.5,457.4766,633.5,461.4766,643.5,465.4766,639.5,461.4766" style="stroke:#181818;stroke-width:1.0;"/><text fill="#000000" font-family="sans-serif" font-size="13" font-weight="bold" lengthAdjust="spacing" textLength="7" x="639.5" y="443.6201">8</text><text fill="#000000" font-family="sans-serif" font-size="13" lengthAdjust="spacing" textLength="398" x="650.5" y="443.6201">getVisitRequestsListByAgentEmail(agentEmail, beginDate, endDate)</text><polygon fill="#181818" points="1038.5,492.8281,1048.5,496.8281,1038.5,500.8281,1042.5,496.8281" style="stroke:#181818;stroke-width:1.0;"/><line style="stroke:#181818;stroke-width:1.0;" x1="632.5" x2="1044.5" y1="496.8281" y2="496.8281"/><text fill="#000000" font-family="sans-serif" font-size="13" font-weight="bold" lengthAdjust="spacing" textLength="7" x="639.5" y="491.9717">9</text><text fill="#000000" font-family="sans-serif" font-size="13" lengthAdjust="spacing" textLength="132" x="650.5" y="491.9717">getAgencyRepository()</text><polygon fill="#181818" points="643.5,523.1797,633.5,527.1797,643.5,531.1797,639.5,527.1797" style="stroke:#181818;stroke-width:1.0;"/><line style="stroke:#181818;stroke-width:1.0;" x1="637.5" x2="1054.5" y1="527.1797" y2="527.1797"/><text fill="#000000" font-family="sans-serif" font-size="13" font-weight="bold" lengthAdjust="spacing" textLength="14" x="649.5" y="522.3232">10</text><text fill="#000000" font-family="sans-serif" font-size="13" lengthAdjust="spacing" textLength="104" x="667.5" y="522.3232">agencyRepository</text><polygon fill="#181818" points="1165.5,553.5313,1175.5,557.5313,1165.5,561.5313,1169.5,557.5313" style="stroke:#181818;stroke-width:1.0;"/><line style="stroke:#181818;stroke-width:1.0;" x1="632.5" x2="1171.5" y1="557.5313" y2="557.5313"/><text fill="#000000" font-family="sans-serif" font-size="13" font-weight="bold" lengthAdjust="spacing" textLength="14" x="639.5" y="552.6748">11</text><text fill="#000000" font-family="sans-serif" font-size="13" lengthAdjust="spacing" textLength="242" x="657.5" y="552.6748">getAgencyByEmployeeEmail(agentEmail)</text><path d="M1104,572.5313 L1177,572.5313 L1177,580.8828 L1167,590.8828 L1104,590.8828 L1104,572.5313 " fill="#EEEEEE" style="stroke:#000000;stroke-width:1.5;"/><rect fill="none" height="79.0547" style="stroke:#000000;stroke-width:1.5;" width="354" x="1104" y="572.5313"/><text fill="#000000" font-family="sans-serif" font-size="13" font-weight="bold" lengthAdjust="spacing" textLength="28" x="1119" y="587.0264">loop</text><text fill="#000000" font-family="sans-serif" font-size="11" font-weight="bold" lengthAdjust="spacing" textLength="95" x="1192" y="585.9502">[for each agency]</text><polygon fill="#181818" points="1396.5,609.2344,1406.5,613.2344,1396.5,617.2344,1400.5,613.2344" style="stroke:#181818;stroke-width:1.0;"/><line style="stroke:#181818;stroke-width:1.0;" x1="1187.5" x2="1402.5" y1="613.2344" y2="613.2344"/><text fill="#000000" font-family="sans-serif" font-size="13" font-weight="bold" lengthAdjust="spacing" textLength="14" x="1194.5" y="608.3779">12</text><text fill="#000000" font-family="sans-serif" font-size="13" lengthAdjust="spacing" textLength="184" x="1212.5" y="608.3779">anyAgentHasEmail(agentEmail)</text><polygon fill="#181818" points="1198.5,639.5859,1188.5,643.5859,1198.5,647.5859,1194.5,643.5859" style="stroke:#181818;stroke-width:1.0;"/><line style="stroke:#181818;stroke-width:1.0;stroke-dasharray:2.0,2.0;" x1="1192.5" x2="1412.5" y1="643.5859" y2="643.5859"/><text fill="#000000" font-family="sans-serif" font-size="13" font-weight="bold" lengthAdjust="spacing" textLength="14" x="1204.5" y="638.7295">13</text><text fill="#000000" font-family="sans-serif" font-size="13" lengthAdjust="spacing" textLength="53" x="1222.5" y="638.7295">true/false</text><polygon fill="#181818" points="643.5,676.9375,633.5,680.9375,643.5,684.9375,639.5,680.9375" style="stroke:#181818;stroke-width:1.0;"/><line style="stroke:#181818;stroke-width:1.0;stroke-dasharray:2.0,2.0;" x1="637.5" x2="1181.5" y1="680.9375" y2="680.9375"/><text fill="#000000" font-family="sans-serif" font-size="13" font-weight="bold" lengthAdjust="spacing" textLength="14" x="649.5" y="676.0811">14</text><text fill="#000000" font-family="sans-serif" font-size="13" lengthAdjust="spacing" textLength="42" x="667.5" y="676.0811">agency</text><line style="stroke:#181818;stroke-width:1.0;" x1="632.5" x2="679.5" y1="706.2891" y2="706.2891"/><line style="stroke:#181818;stroke-width:1.0;" x1="679.5" x2="679.5" y1="706.2891" y2="719.2891"/><line style="stroke:#181818;stroke-width:1.0;" x1="638.5" x2="679.5" y1="719.2891" y2="719.2891"/><polygon fill="#181818" points="648.5,715.2891,638.5,719.2891,648.5,723.2891,644.5,719.2891" style="stroke:#181818;stroke-width:1.0;"/><text fill="#000000" font-family="sans-serif" font-size="13" font-weight="bold" lengthAdjust="spacing" textLength="14" x="644.5" y="701.4326">15</text><text fill="#000000" font-family="sans-serif" font-size="13" lengthAdjust="spacing" textLength="377" x="662.5" y="701.4326">getVisitRequestsByAgentEmail(agentEmail, beginDate, endDate)</text><rect fill="none" height="41.4453" style="stroke:#000000;stroke-width:1.5;" width="194" x="552" y="732.2891"/><path d="M552,732.2891 L614,732.2891 L614,740.2891 L604,750.2891 L552,750.2891 L552,732.2891 " fill="#EEEEEE" style="stroke:#000000;stroke-width:2.0;"/><text fill="#000000" font-family="sans-serif" font-size="13" font-weight="bold" lengthAdjust="spacing" textLength="17" x="565" y="747.7842">ref</text><text fill="#000000" font-family="sans-serif" font-size="12" lengthAdjust="spacing" textLength="186" x="556" y="766.7461">Get Visit Requests by Agent Email</text><line style="stroke:#181818;stroke-width:1.0;stroke-dasharray:2.0,2.0;" x1="637.5" x2="679.5" y1="806.0859" y2="806.0859"/><line style="stroke:#181818;stroke-width:1.0;stroke-dasharray:2.0,2.0;" x1="679.5" x2="679.5" y1="806.0859" y2="819.0859"/><line style="stroke:#181818;stroke-width:1.0;stroke-dasharray:2.0,2.0;" x1="632.5" x2="679.5" y1="819.0859" y2="819.0859"/><polygon fill="#181818" points="642.5,815.0859,632.5,819.0859,642.5,823.0859,638.5,819.0859" style="stroke:#181818;stroke-width:1.0;"/><text fill="#000000" font-family="sans-serif" font-size="13" font-weight="bold" lengthAdjust="spacing" textLength="14" x="644.5" y="801.2295">16</text><text fill="#000000" font-family="sans-serif" font-size="13" lengthAdjust="spacing" textLength="98" x="662.5" y="801.2295">visitRequestsList</text><line style="stroke:#181818;stroke-width:1.0;stroke-dasharray:2.0,2.0;" x1="632.5" x2="674.5" y1="849.4375" y2="849.4375"/><line style="stroke:#181818;stroke-width:1.0;stroke-dasharray:2.0,2.0;" x1="674.5" x2="674.5" y1="849.4375" y2="862.4375"/><line style="stroke:#181818;stroke-width:1.0;stroke-dasharray:2.0,2.0;" x1="627.5" x2="674.5" y1="862.4375" y2="862.4375"/><polygon fill="#181818" points="637.5,858.4375,627.5,862.4375,637.5,866.4375,633.5,862.4375" style="stroke:#181818;stroke-width:1.0;"/><text fill="#000000" font-family="sans-serif" font-size="13" font-weight="bold" lengthAdjust="spacing" textLength="14" x="639.5" y="844.5811">17</text><text fill="#000000" font-family="sans-serif" font-size="13" lengthAdjust="spacing" textLength="98" x="657.5" y="844.5811">visitRequestsList</text><line style="stroke:#181818;stroke-width:1.0;" x1="627.5" x2="674.5" y1="907.7891" y2="907.7891"/><line style="stroke:#181818;stroke-width:1.0;" x1="674.5" x2="674.5" y1="907.7891" y2="920.7891"/><line style="stroke:#181818;stroke-width:1.0;" x1="633.5" x2="674.5" y1="920.7891" y2="920.7891"/><polygon fill="#181818" points="643.5,916.7891,633.5,920.7891,643.5,924.7891,639.5,920.7891" style="stroke:#181818;stroke-width:1.0;"/><text fill="#000000" font-family="sans-serif" font-size="13" font-weight="bold" lengthAdjust="spacing" textLength="14" x="639.5" y="902.9326">18</text><text fill="#000000" font-family="sans-serif" font-size="13" lengthAdjust="spacing" textLength="137" x="657.5" y="902.9326">toDto(visitRequestsList)</text><rect fill="none" height="41.4453" style="stroke:#000000;stroke-width:1.5;" width="147" x="552" y="933.7891"/><path d="M552,933.7891 L614,933.7891 L614,941.7891 L604,951.7891 L552,951.7891 L552,933.7891 " fill="#EEEEEE" style="stroke:#000000;stroke-width:2.0;"/><text fill="#000000" font-family="sans-serif" font-size="13" font-weight="bold" lengthAdjust="spacing" textLength="17" x="565" y="949.2842">ref</text><text fill="#000000" font-family="sans-serif" font-size="12" lengthAdjust="spacing" textLength="139" x="556" y="968.2461">Convert Visits List to DTO</text><line style="stroke:#181818;stroke-width:1.0;stroke-dasharray:2.0,2.0;" x1="632.5" x2="674.5" y1="1007.5859" y2="1007.5859"/><line style="stroke:#181818;stroke-width:1.0;stroke-dasharray:2.0,2.0;" x1="674.5" x2="674.5" y1="1007.5859" y2="1020.5859"/><line style="stroke:#181818;stroke-width:1.0;stroke-dasharray:2.0,2.0;" x1="627.5" x2="674.5" y1="1020.5859" y2="1020.5859"/><polygon fill="#181818" points="637.5,1016.5859,627.5,1020.5859,637.5,1024.5859,633.5,1020.5859" style="stroke:#181818;stroke-width:1.0;"/><text fill="#000000" font-family="sans-serif" font-size="13" font-weight="bold" lengthAdjust="spacing" textLength="14" x="639.5" y="1002.7295">19</text><text fill="#000000" font-family="sans-serif" font-size="13" lengthAdjust="spacing" textLength="70" x="657.5" y="1002.7295">listVisitsDto</text><line style="stroke:#181818;stroke-width:1.0;" x1="627.5" x2="674.5" y1="1065.9375" y2="1065.9375"/><line style="stroke:#181818;stroke-width:1.0;" x1="674.5" x2="674.5" y1="1065.9375" y2="1078.9375"/><line style="stroke:#181818;stroke-width:1.0;" x1="633.5" x2="674.5" y1="1078.9375" y2="1078.9375"/><polygon fill="#181818" points="643.5,1074.9375,633.5,1078.9375,643.5,1082.9375,639.5,1078.9375" style="stroke:#181818;stroke-width:1.0;"/><text fill="#000000" font-family="sans-serif" font-size="13" font-weight="bold" lengthAdjust="spacing" textLength="14" x="639.5" y="1061.0811">20</text><text fill="#000000" font-family="sans-serif" font-size="13" lengthAdjust="spacing" textLength="229" x="657.5" y="1061.0811">getSortedVisitRequestList(listVisitsDto)</text><polygon fill="#181818" points="1511.5,1110.2891,1521.5,1114.2891,1511.5,1118.2891,1515.5,1114.2891" style="stroke:#181818;stroke-width:1.0;"/><line style="stroke:#181818;stroke-width:1.0;" x1="632.5" x2="1517.5" y1="1114.2891" y2="1114.2891"/><text fill="#000000" font-family="sans-serif" font-size="13" font-weight="bold" lengthAdjust="spacing" textLength="14" x="639.5" y="1109.4326">21</text><text fill="#000000" font-family="sans-serif" font-size="13" lengthAdjust="spacing" textLength="75" x="657.5" y="1109.4326">getInstance()</text><polygon fill="#181818" points="643.5,1140.6406,633.5,1144.6406,643.5,1148.6406,639.5,1144.6406" style="stroke:#181818;stroke-width:1.0;"/><line style="stroke:#181818;stroke-width:1.0;stroke-dasharray:2.0,2.0;" x1="637.5" x2="1527.5" y1="1144.6406" y2="1144.6406"/><text fill="#000000" font-family="sans-serif" font-size="13" font-weight="bold" lengthAdjust="spacing" textLength="14" x="649.5" y="1139.7842">22</text><text fill="#000000" font-family="sans-serif" font-size="13" lengthAdjust="spacing" textLength="68" x="667.5" y="1139.7842">appSession</text><polygon fill="#181818" points="1511.5,1170.9922,1521.5,1174.9922,1511.5,1178.9922,1515.5,1174.9922" style="stroke:#181818;stroke-width:1.0;"/><line style="stroke:#181818;stroke-width:1.0;" x1="632.5" x2="1517.5" y1="1174.9922" y2="1174.9922"/><text fill="#000000" font-family="sans-serif" font-size="13" font-weight="bold" lengthAdjust="spacing" textLength="14" x="639.5" y="1170.1357">23</text><text fill="#000000" font-family="sans-serif" font-size="13" lengthAdjust="spacing" textLength="85" x="657.5" y="1170.1357">getProperties()</text><polygon fill="#181818" points="643.5,1201.3438,633.5,1205.3438,643.5,1209.3438,639.5,1205.3438" style="stroke:#181818;stroke-width:1.0;"/><line style="stroke:#181818;stroke-width:1.0;stroke-dasharray:2.0,2.0;" x1="637.5" x2="1527.5" y1="1205.3438" y2="1205.3438"/><text fill="#000000" font-family="sans-serif" font-size="13" font-weight="bold" lengthAdjust="spacing" textLength="14" x="649.5" y="1200.4873">24</text><text fill="#000000" font-family="sans-serif" font-size="13" lengthAdjust="spacing" textLength="57" x="667.5" y="1200.4873">properties</text><path d="M498,1243.3438 L498,1302.3438 L746,1302.3438 L746,1253.3438 L736,1243.3438 L498,1243.3438 " fill="#FAFAFA" style="stroke:#181818;stroke-width:0.5;"/><path d="M736,1243.3438 L736,1253.3438 L746,1253.3438 L736,1243.3438 " fill="#FAFAFA" style="stroke:#181818;stroke-width:0.5;"/><text fill="#000000" font-family="sans-serif" font-size="13" lengthAdjust="spacing" textLength="198" x="504" y="1261.8389">SortingMethod implementation will</text><text fill="#000000" font-family="sans-serif" font-size="13" lengthAdjust="spacing" textLength="227" x="504" y="1278.1904">depend on the sorting method specified</text><text fill="#000000" font-family="sans-serif" font-size="13" lengthAdjust="spacing" textLength="133" x="504" y="1294.542">in the configuration file.</text><polygon fill="#181818" points="1643.5,1350.75,1653.5,1354.75,1643.5,1358.75,1647.5,1354.75" style="stroke:#181818;stroke-width:1.0;"/><line style="stroke:#181818;stroke-width:1.0;" x1="632.5" x2="1649.5" y1="1354.75" y2="1354.75"/><text fill="#000000" font-family="sans-serif" font-size="13" font-weight="bold" lengthAdjust="spacing" textLength="14" x="639.5" y="1349.8936">25</text><text fill="#000000" font-family="sans-serif" font-size="13" lengthAdjust="spacing" textLength="100" x="657.5" y="1349.8936">sort(listVisitsDto)</text><polygon fill="#181818" points="643.5,1381.1016,633.5,1385.1016,643.5,1389.1016,639.5,1385.1016" style="stroke:#181818;stroke-width:1.0;"/><line style="stroke:#181818;stroke-width:1.0;stroke-dasharray:2.0,2.0;" x1="637.5" x2="1659.5" y1="1385.1016" y2="1385.1016"/><text fill="#000000" font-family="sans-serif" font-size="13" font-weight="bold" lengthAdjust="spacing" textLength="14" x="649.5" y="1380.2451">26</text><text fill="#000000" font-family="sans-serif" font-size="13" lengthAdjust="spacing" textLength="110" x="667.5" y="1380.2451">sortedVisitsListDto</text><line style="stroke:#181818;stroke-width:1.0;stroke-dasharray:2.0,2.0;" x1="632.5" x2="674.5" y1="1420.4531" y2="1420.4531"/><line style="stroke:#181818;stroke-width:1.0;stroke-dasharray:2.0,2.0;" x1="674.5" x2="674.5" y1="1420.4531" y2="1433.4531"/><line style="stroke:#181818;stroke-width:1.0;stroke-dasharray:2.0,2.0;" x1="627.5" x2="674.5" y1="1433.4531" y2="1433.4531"/><polygon fill="#181818" points="637.5,1429.4531,627.5,1433.4531,637.5,1437.4531,633.5,1433.4531" style="stroke:#181818;stroke-width:1.0;"/><text fill="#000000" font-family="sans-serif" font-size="13" font-weight="bold" lengthAdjust="spacing" textLength="14" x="639.5" y="1415.5967">27</text><text fill="#000000" font-family="sans-serif" font-size="13" lengthAdjust="spacing" textLength="110" x="657.5" y="1415.5967">sortedVisitsListDto</text><polygon fill="#181818" points="356.5,1479.8047,346.5,1483.8047,356.5,1487.8047,352.5,1483.8047" style="stroke:#181818;stroke-width:1.0;"/><line style="stroke:#181818;stroke-width:1.0;stroke-dasharray:2.0,2.0;" x1="350.5" x2="621.5" y1="1483.8047" y2="1483.8047"/><text fill="#000000" font-family="sans-serif" font-size="13" font-weight="bold" lengthAdjust="spacing" textLength="14" x="362.5" y="1478.9482">28</text><text fill="#000000" font-family="sans-serif" font-size="13" lengthAdjust="spacing" textLength="110" x="380.5" y="1478.9482">sortedVisitsListDto</text><polygon fill="#181818" points="37.5,1526.5078,27.5,1530.5078,37.5,1534.5078,33.5,1530.5078" style="stroke:#181818;stroke-width:1.0;"/><line style="stroke:#181818;stroke-width:1.0;stroke-dasharray:2.0,2.0;" x1="31.5" x2="339.5" y1="1530.5078" y2="1530.5078"/><text fill="#000000" font-family="sans-serif" font-size="13" font-weight="bold" lengthAdjust="spacing" textLength="14" x="43.5" y="1517.4756">29</text><text fill="#000000" font-family="sans-serif" font-size="13" lengthAdjust="spacing" textLength="258" x="61.5" y="1509.2998">display all booking requests according to the</text><text fill="#000000" font-family="sans-serif" font-size="13" lengthAdjust="spacing" textLength="78" x="61.5" y="1525.6514">dates chosen</text><!--SRC=[hLPDRziu4BthLmnoQLgqsxiH673Z81iWtHP9Mc21N6XfB16XI2r9fsiWFtw7f2o95BLDWVgIY9nvy-QJOvwux9XcBRHAghBHgaMm-e256MuwLZwn6k_jKI1eB2sJjPWAc8PLwWUNDUoPC5WKx62LFBGxr4Nnfk4LmbufkrF_5goqIiFPfaPfpu0Ps6m_5uHYUSax9YsShMwviT-vuTPyk_4YtsuM9IwLj5e9WTfBNZxStSQo6Zj5WafpD8zoTJVvz1fVRpSFiGPvAilZ87WaBTWaPu5vJGSvtL4Zo5rV_NNvToBOTOANp78bxz4O-kELPgS1eElSPunmiLjVNDn8YthFIbolBpxkreHnhxJTY9eSj4thjU-_t3riRgyB5th-p2pwa1VG_-W3Fgmfnh0YwIS3Le5112O4s0PXfzIJowp6Vmveh86MKJf9w55sMdL8bD0TIl8TTaTeU6jGx0VymIfbSJXqFx98Tbt6thqZswL6afgBa8oZk1e9LCooGQp2cO6fHqI5wjMSbB7osd2-mvfBzp- -1vJ-5DyMMRuZJyAhCHJUNK_6LM80svwmjdCeNvO3PGyLGVfkk6eP5-Tlvu6BjUcdSG_g6NMucLnSe_M5Py63JQ-SawINiXXfi853BhQHfPUNbxmt-VXyEaxy6ysyXwMulI9shcs9z2buqzxCXT1t-N3ibMFFfm0v_pr0Ii8FWDN8uTFngks4EYAclcOeXUanfaWerT6Kr416cvvJr0n1mzlr0yKnbo6qVpApR34n6uPHV1lW0-g7asE4xzw1Zs6aHwAJmFHuqpehKiPfg7C1xiFnFqqIrTNlhAbyExbUyYRXPDDDjrnt3Qsrs5lFQKiijbWUubSGeYQDqfQ4rAgjLUSpuBXmbeVGyXG2UfJfl0-V0OVg7epjmvT8R1wtNEp4yDOJtMAX2cSKeX6rK53kgSHgMbP-caS6bzfe7ex9M0ZFTJ1o8msjIoMU9qYJZknVz-J-X3Bjdd14Qq4YE-sZF5gMszVX_Pwn-ocz7Bzn7qY5CmGJYNd2f2BfV861Inqj9P_HDge2JbCNMsfClpd13ov4EgywLsnqvpOQ4vIX3TgcmvBlELQn3W_2fP9xNXzqWDvpWN_4SWxOKItWTVNNhsDkDo4UhwksOOMBWz0ZJJ9WnfBspPosp3GHUT2q_Nu5SPwdpARWDxEVuSx6Of5T2IjkEi6EVbUTxQciB9Mkt17D7fVAH-csF0Dbemo65agsnscPqexy7m00]--></g></svg>