<?xml version="1.0" encoding="UTF-8" standalone="no"?><svg xmlns="http://www.w3.org/2000/svg" xmlns:xlink="http://www.w3.org/1999/xlink" contentStyleType="text/css" height="986px" preserveAspectRatio="none" style="width:806px;height:986px;background:#FFFFFF;" version="1.1" viewBox="0 0 806 986" width="806px" zoomAndPan="magnify"><defs/><g><rect fill="#FFFFFF" height="826.8984" style="stroke:#181818;stroke-width:1.0;" width="10" x="107" y="87.5703"/><rect fill="#FFFFFF" height="733.8438" style="stroke:#181818;stroke-width:1.0;" width="10" x="302" y="143.2734"/><rect fill="#FFFFFF" height="455.2188" style="stroke:#181818;stroke-width:1.0;" width="10" x="307" y="267.1953"/><rect fill="#FFFFFF" height="30.3516" style="stroke:#181818;stroke-width:1.0;" width="10" x="505" y="327.5469"/><rect fill="#FFFFFF" height="30.3516" style="stroke:#181818;stroke-width:1.0;" width="10" x="505" y="388.25"/><rect fill="#FFFFFF" height="30.3516" style="stroke:#181818;stroke-width:1.0;" width="10" x="505" y="448.9531"/><rect fill="#FFFFFF" height="30.3516" style="stroke:#181818;stroke-width:1.0;" width="10" x="505" y="509.6563"/><rect fill="#FFFFFF" height="30.3516" style="stroke:#181818;stroke-width:1.0;" width="10" x="505" y="570.3594"/><rect fill="#FFFFFF" height="30" style="stroke:#181818;stroke-width:1.0;" width="10" x="593" y="784.7656"/><rect fill="#FFFFFF" height="30" style="stroke:#181818;stroke-width:1.0;" width="10" x="744" y="631.0625"/><rect fill="none" height="782.5469" style="stroke:#000000;stroke-width:1.5;" width="765.5" x="34.5" y="102.5703"/><rect fill="none" height="629.2734" style="stroke:#000000;stroke-width:1.5;" width="541" x="249" y="218.4922"/><line style="stroke:#181818;stroke-width:0.5;stroke-dasharray:5.0,5.0;" x1="111.5" x2="111.5" y1="55.2188" y2="932.4688"/><line style="stroke:#181818;stroke-width:0.5;stroke-dasharray:5.0,5.0;" x1="307" x2="307" y1="55.2188" y2="932.4688"/><line style="stroke:#181818;stroke-width:0.5;stroke-dasharray:5.0,5.0;" x1="510" x2="510" y1="55.2188" y2="932.4688"/><line style="stroke:#181818;stroke-width:0.5;stroke-dasharray:5.0,5.0;" x1="598" x2="598" y1="191.3828" y2="932.4688"/><line style="stroke:#181818;stroke-width:0.5;stroke-dasharray:5.0,5.0;" x1="685" x2="685" y1="55.2188" y2="932.4688"/><line style="stroke:#181818;stroke-width:0.5;stroke-dasharray:5.0,5.0;" x1="749" x2="749" y1="55.2188" y2="932.4688"/><rect fill="#E3E3E3" height="31.6094" rx="2.5" ry="2.5" style="stroke:#181818;stroke-width:0.5;" width="135" x="44.5" y="22.6094"/><text fill="#000000" font-family="sans-serif" font-size="14" lengthAdjust="spacing" textLength="121" x="51.5" y="44.1426">:ListVisitsController</text><rect fill="#E3E3E3" height="31.6094" rx="2.5" ry="2.5" style="stroke:#181818;stroke-width:0.5;" width="135" x="44.5" y="931.4688"/><text fill="#000000" font-family="sans-serif" font-size="14" lengthAdjust="spacing" textLength="121" x="51.5" y="953.002">:ListVisitsController</text><rect fill="#E3E3E3" height="49.2188" rx="2.5" ry="2.5" style="stroke:#181818;stroke-width:0.5;" width="96" x="259" y="5"/><text fill="#000000" font-family="sans-serif" font-size="14" lengthAdjust="spacing" textLength="72" x="271" y="26.5332">visitMapper</text><text fill="#000000" font-family="sans-serif" font-size="14" lengthAdjust="spacing" textLength="82" x="266" y="44.1426">: VisitMapper</text><rect fill="#E3E3E3" height="49.2188" rx="2.5" ry="2.5" style="stroke:#181818;stroke-width:0.5;" width="96" x="259" y="931.4688"/><text fill="#000000" font-family="sans-serif" font-size="14" lengthAdjust="spacing" textLength="72" x="271" y="953.002">visitMapper</text><text fill="#000000" font-family="sans-serif" font-size="14" lengthAdjust="spacing" textLength="82" x="266" y="970.6113">: VisitMapper</text><rect fill="#E3E3E3" height="49.2188" rx="2.5" ry="2.5" style="stroke:#181818;stroke-width:0.5;" width="48" x="486" y="5"/><text fill="#000000" font-family="sans-serif" font-size="14" lengthAdjust="spacing" textLength="24" x="498" y="26.5332">visit</text><text fill="#000000" font-family="sans-serif" font-size="14" lengthAdjust="spacing" textLength="34" x="493" y="44.1426">: Visit</text><rect fill="#E3E3E3" height="49.2188" rx="2.5" ry="2.5" style="stroke:#181818;stroke-width:0.5;" width="48" x="486" y="931.4688"/><text fill="#000000" font-family="sans-serif" font-size="14" lengthAdjust="spacing" textLength="24" x="498" y="953.002">visit</text><text fill="#000000" font-family="sans-serif" font-size="14" lengthAdjust="spacing" textLength="34" x="493" y="970.6113">: Visit</text><rect fill="#E3E3E3" height="49.2188" rx="2.5" ry="2.5" style="stroke:#181818;stroke-width:0.5;" width="108" x="544" y="931.4688"/><text fill="#000000" font-family="sans-serif" font-size="14" lengthAdjust="spacing" textLength="72" x="562" y="953.002">listVisitsDto</text><text fill="#000000" font-family="sans-serif" font-size="14" lengthAdjust="spacing" textLength="94" x="551" y="970.6113">: List&lt;VisitDto&gt;</text><rect fill="#E3E3E3" height="31.6094" rx="2.5" ry="2.5" style="stroke:#181818;stroke-width:0.5;" width="46" x="662" y="22.6094"/><text fill="#000000" font-family="sans-serif" font-size="14" lengthAdjust="spacing" textLength="32" x="669" y="44.1426">ORG</text><rect fill="#E3E3E3" height="31.6094" rx="2.5" ry="2.5" style="stroke:#181818;stroke-width:0.5;" width="46" x="662" y="931.4688"/><text fill="#000000" font-family="sans-serif" font-size="14" lengthAdjust="spacing" textLength="32" x="669" y="953.002">ORG</text><rect fill="#E3E3E3" height="31.6094" rx="2.5" ry="2.5" style="stroke:#181818;stroke-width:0.5;" width="62" x="718" y="22.6094"/><text fill="#000000" font-family="sans-serif" font-size="14" lengthAdjust="spacing" textLength="48" x="725" y="44.1426">VisitDto</text><rect fill="#E3E3E3" height="31.6094" rx="2.5" ry="2.5" style="stroke:#181818;stroke-width:0.5;" width="62" x="718" y="931.4688"/><text fill="#000000" font-family="sans-serif" font-size="14" lengthAdjust="spacing" textLength="48" x="725" y="953.002">VisitDto</text><rect fill="#FFFFFF" height="826.8984" style="stroke:#181818;stroke-width:1.0;" width="10" x="107" y="87.5703"/><rect fill="#FFFFFF" height="733.8438" style="stroke:#181818;stroke-width:1.0;" width="10" x="302" y="143.2734"/><rect fill="#FFFFFF" height="455.2188" style="stroke:#181818;stroke-width:1.0;" width="10" x="307" y="267.1953"/><rect fill="#FFFFFF" height="30.3516" style="stroke:#181818;stroke-width:1.0;" width="10" x="505" y="327.5469"/><rect fill="#FFFFFF" height="30.3516" style="stroke:#181818;stroke-width:1.0;" width="10" x="505" y="388.25"/><rect fill="#FFFFFF" height="30.3516" style="stroke:#181818;stroke-width:1.0;" width="10" x="505" y="448.9531"/><rect fill="#FFFFFF" height="30.3516" style="stroke:#181818;stroke-width:1.0;" width="10" x="505" y="509.6563"/><rect fill="#FFFFFF" height="30.3516" style="stroke:#181818;stroke-width:1.0;" width="10" x="505" y="570.3594"/><rect fill="#FFFFFF" height="30" style="stroke:#181818;stroke-width:1.0;" width="10" x="593" y="784.7656"/><rect fill="#FFFFFF" height="30" style="stroke:#181818;stroke-width:1.0;" width="10" x="744" y="631.0625"/><polygon fill="#181818" points="673,83.5703,683,87.5703,673,91.5703,677,87.5703" style="stroke:#181818;stroke-width:1.0;"/><line style="stroke:#181818;stroke-width:1.0;" x1="0" x2="679" y1="87.5703" y2="87.5703"/><text fill="#000000" font-family="sans-serif" font-size="13" font-weight="bold" lengthAdjust="spacing" textLength="14" x="7" y="82.7139">33</text><text fill="#000000" font-family="sans-serif" font-size="13" lengthAdjust="spacing" textLength="137" x="25" y="82.7139">toDto(visitRequestsList)</text><path d="M34.5,102.5703 L154.5,102.5703 L154.5,110.9219 L144.5,120.9219 L34.5,120.9219 L34.5,102.5703 " fill="#EEEEEE" style="stroke:#000000;stroke-width:1.5;"/><rect fill="none" height="782.5469" style="stroke:#000000;stroke-width:1.5;" width="765.5" x="34.5" y="102.5703"/><text fill="#000000" font-family="sans-serif" font-size="13" font-weight="bold" lengthAdjust="spacing" textLength="75" x="49.5" y="117.0654">Create Task</text><polygon fill="#181818" points="290,139.2734,300,143.2734,290,147.2734,294,143.2734" style="stroke:#181818;stroke-width:1.0;"/><line style="stroke:#181818;stroke-width:1.0;" x1="117" x2="296" y1="143.2734" y2="143.2734"/><text fill="#000000" font-family="sans-serif" font-size="13" font-weight="bold" lengthAdjust="spacing" textLength="25" x="124" y="138.417">33.1</text><text fill="#000000" font-family="sans-serif" font-size="13" lengthAdjust="spacing" textLength="137" x="153" y="138.417">toDto(visitRequestsList)</text><polygon fill="#181818" points="532,169.625,542,173.625,532,177.625,536,173.625" style="stroke:#181818;stroke-width:1.0;"/><line style="stroke:#181818;stroke-width:1.0;" x1="312" x2="538" y1="173.625" y2="173.625"/><text fill="#000000" font-family="sans-serif" font-size="13" font-weight="bold" lengthAdjust="spacing" textLength="25" x="319" y="168.7686">33.2</text><text fill="#000000" font-family="sans-serif" font-size="13" lengthAdjust="spacing" textLength="44" x="348" y="168.7686">create()</text><rect fill="#E3E3E3" height="49.2188" rx="2.5" ry="2.5" style="stroke:#181818;stroke-width:0.5;" width="108" x="544" y="151.2734"/><text fill="#000000" font-family="sans-serif" font-size="14" lengthAdjust="spacing" textLength="72" x="562" y="172.8066">listVisitsDto</text><text fill="#000000" font-family="sans-serif" font-size="14" lengthAdjust="spacing" textLength="94" x="551" y="190.416">: List&lt;VisitDto&gt;</text><path d="M249,218.4922 L322,218.4922 L322,226.8438 L312,236.8438 L249,236.8438 L249,218.4922 " fill="#EEEEEE" style="stroke:#000000;stroke-width:1.5;"/><rect fill="none" height="629.2734" style="stroke:#000000;stroke-width:1.5;" width="541" x="249" y="218.4922"/><text fill="#000000" font-family="sans-serif" font-size="13" font-weight="bold" lengthAdjust="spacing" textLength="28" x="264" y="232.9873">loop</text><text fill="#000000" font-family="sans-serif" font-size="11" font-weight="bold" lengthAdjust="spacing" textLength="130" x="337" y="231.9111">[for each Visit Request]</text><line style="stroke:#181818;stroke-width:1.0;" x1="312" x2="359" y1="254.1953" y2="254.1953"/><line style="stroke:#181818;stroke-width:1.0;" x1="359" x2="359" y1="254.1953" y2="267.1953"/><line style="stroke:#181818;stroke-width:1.0;" x1="318" x2="359" y1="267.1953" y2="267.1953"/><polygon fill="#181818" points="328,263.1953,318,267.1953,328,271.1953,324,267.1953" style="stroke:#181818;stroke-width:1.0;"/><text fill="#000000" font-family="sans-serif" font-size="13" font-weight="bold" lengthAdjust="spacing" textLength="25" x="324" y="249.3389">33.3</text><text fill="#000000" font-family="sans-serif" font-size="13" lengthAdjust="spacing" textLength="65" x="353" y="249.3389">toDto(Visit)</text><polygon fill="#181818" points="493,323.5469,503,327.5469,493,331.5469,497,327.5469" style="stroke:#181818;stroke-width:1.0;"/><line style="stroke:#181818;stroke-width:1.0;" x1="317" x2="499" y1="327.5469" y2="327.5469"/><text fill="#000000" font-family="sans-serif" font-size="13" font-weight="bold" lengthAdjust="spacing" textLength="25" x="324" y="322.6904">33.4</text><text fill="#000000" font-family="sans-serif" font-size="13" lengthAdjust="spacing" textLength="36" x="353" y="322.6904">getId()</text><polygon fill="#181818" points="328,353.8984,318,357.8984,328,361.8984,324,357.8984" style="stroke:#181818;stroke-width:1.0;"/><line style="stroke:#181818;stroke-width:1.0;stroke-dasharray:2.0,2.0;" x1="322" x2="509" y1="357.8984" y2="357.8984"/><text fill="#000000" font-family="sans-serif" font-size="13" font-weight="bold" lengthAdjust="spacing" textLength="25" x="334" y="353.042">33.5</text><text fill="#000000" font-family="sans-serif" font-size="13" lengthAdjust="spacing" textLength="10" x="363" y="353.042">id</text><polygon fill="#181818" points="493,384.25,503,388.25,493,392.25,497,388.25" style="stroke:#181818;stroke-width:1.0;"/><line style="stroke:#181818;stroke-width:1.0;" x1="317" x2="499" y1="388.25" y2="388.25"/><text fill="#000000" font-family="sans-serif" font-size="13" font-weight="bold" lengthAdjust="spacing" textLength="25" x="324" y="383.3936">33.6</text><text fill="#000000" font-family="sans-serif" font-size="13" lengthAdjust="spacing" textLength="79" x="353" y="383.3936">getVisitDate()</text><polygon fill="#181818" points="328,414.6016,318,418.6016,328,422.6016,324,418.6016" style="stroke:#181818;stroke-width:1.0;"/><line style="stroke:#181818;stroke-width:1.0;stroke-dasharray:2.0,2.0;" x1="322" x2="509" y1="418.6016" y2="418.6016"/><text fill="#000000" font-family="sans-serif" font-size="13" font-weight="bold" lengthAdjust="spacing" textLength="25" x="334" y="413.7451">33.7</text><text fill="#000000" font-family="sans-serif" font-size="13" lengthAdjust="spacing" textLength="49" x="363" y="413.7451">visitDate</text><polygon fill="#181818" points="493,444.9531,503,448.9531,493,452.9531,497,448.9531" style="stroke:#181818;stroke-width:1.0;"/><line style="stroke:#181818;stroke-width:1.0;" x1="317" x2="499" y1="448.9531" y2="448.9531"/><text fill="#000000" font-family="sans-serif" font-size="13" font-weight="bold" lengthAdjust="spacing" textLength="25" x="324" y="444.0967">33.8</text><text fill="#000000" font-family="sans-serif" font-size="13" lengthAdjust="spacing" textLength="81" x="353" y="444.0967">getStartHour()</text><polygon fill="#181818" points="328,475.3047,318,479.3047,328,483.3047,324,479.3047" style="stroke:#181818;stroke-width:1.0;"/><line style="stroke:#181818;stroke-width:1.0;stroke-dasharray:2.0,2.0;" x1="322" x2="509" y1="479.3047" y2="479.3047"/><text fill="#000000" font-family="sans-serif" font-size="13" font-weight="bold" lengthAdjust="spacing" textLength="25" x="334" y="474.4482">33.9</text><text fill="#000000" font-family="sans-serif" font-size="13" lengthAdjust="spacing" textLength="53" x="363" y="474.4482">startHour</text><polygon fill="#181818" points="493,505.6563,503,509.6563,493,513.6563,497,509.6563" style="stroke:#181818;stroke-width:1.0;"/><line style="stroke:#181818;stroke-width:1.0;" x1="317" x2="499" y1="509.6563" y2="509.6563"/><text fill="#000000" font-family="sans-serif" font-size="13" font-weight="bold" lengthAdjust="spacing" textLength="32" x="324" y="504.7998">33.10</text><text fill="#000000" font-family="sans-serif" font-size="13" lengthAdjust="spacing" textLength="76" x="360" y="504.7998">getEndHour()</text><polygon fill="#181818" points="328,536.0078,318,540.0078,328,544.0078,324,540.0078" style="stroke:#181818;stroke-width:1.0;"/><line style="stroke:#181818;stroke-width:1.0;stroke-dasharray:2.0,2.0;" x1="322" x2="509" y1="540.0078" y2="540.0078"/><text fill="#000000" font-family="sans-serif" font-size="13" font-weight="bold" lengthAdjust="spacing" textLength="32" x="334" y="535.1514">33.11</text><text fill="#000000" font-family="sans-serif" font-size="13" lengthAdjust="spacing" textLength="48" x="370" y="535.1514">endHour</text><polygon fill="#181818" points="493,566.3594,503,570.3594,493,574.3594,497,570.3594" style="stroke:#181818;stroke-width:1.0;"/><line style="stroke:#181818;stroke-width:1.0;" x1="317" x2="499" y1="570.3594" y2="570.3594"/><text fill="#000000" font-family="sans-serif" font-size="13" font-weight="bold" lengthAdjust="spacing" textLength="32" x="324" y="565.5029">33.12</text><text fill="#000000" font-family="sans-serif" font-size="13" lengthAdjust="spacing" textLength="133" x="360" y="565.5029">getAcceptanceStatus()</text><polygon fill="#181818" points="328,596.7109,318,600.7109,328,604.7109,324,600.7109" style="stroke:#181818;stroke-width:1.0;"/><line style="stroke:#181818;stroke-width:1.0;stroke-dasharray:2.0,2.0;" x1="322" x2="509" y1="600.7109" y2="600.7109"/><text fill="#000000" font-family="sans-serif" font-size="13" font-weight="bold" lengthAdjust="spacing" textLength="32" x="334" y="595.8545">33.13</text><text fill="#000000" font-family="sans-serif" font-size="13" lengthAdjust="spacing" textLength="105" x="370" y="595.8545">acceptanceStatus</text><polygon fill="#181818" points="732,627.0625,742,631.0625,732,635.0625,736,631.0625" style="stroke:#181818;stroke-width:1.0;"/><line style="stroke:#181818;stroke-width:1.0;" x1="317" x2="738" y1="631.0625" y2="631.0625"/><text fill="#000000" font-family="sans-serif" font-size="13" font-weight="bold" lengthAdjust="spacing" textLength="32" x="324" y="626.2061">33.14</text><text fill="#000000" font-family="sans-serif" font-size="13" lengthAdjust="spacing" textLength="341" x="360" y="626.2061">create(id, visitDate, startHour, endDate, acceptanceStatus)</text><line style="stroke:#181818;stroke-width:1.0;stroke-dasharray:2.0,2.0;" x1="317" x2="359" y1="721.4141" y2="721.4141"/><line style="stroke:#181818;stroke-width:1.0;stroke-dasharray:2.0,2.0;" x1="359" x2="359" y1="721.4141" y2="734.4141"/><line style="stroke:#181818;stroke-width:1.0;stroke-dasharray:2.0,2.0;" x1="312" x2="359" y1="734.4141" y2="734.4141"/><polygon fill="#181818" points="322,730.4141,312,734.4141,322,738.4141,318,734.4141" style="stroke:#181818;stroke-width:1.0;"/><text fill="#000000" font-family="sans-serif" font-size="13" font-weight="bold" lengthAdjust="spacing" textLength="32" x="324" y="716.5576">33.15</text><text fill="#000000" font-family="sans-serif" font-size="13" lengthAdjust="spacing" textLength="46" x="360" y="716.5576">VisitDto</text><polygon fill="#181818" points="581,780.7656,591,784.7656,581,788.7656,585,784.7656" style="stroke:#181818;stroke-width:1.0;"/><line style="stroke:#181818;stroke-width:1.0;" x1="312" x2="587" y1="784.7656" y2="784.7656"/><text fill="#000000" font-family="sans-serif" font-size="13" font-weight="bold" lengthAdjust="spacing" textLength="32" x="319" y="779.9092">33.16</text><text fill="#000000" font-family="sans-serif" font-size="13" lengthAdjust="spacing" textLength="75" x="355" y="779.9092">add(VisitDto)</text><polygon fill="#181818" points="128,873.1172,118,877.1172,128,881.1172,124,877.1172" style="stroke:#181818;stroke-width:1.0;"/><line style="stroke:#181818;stroke-width:1.0;stroke-dasharray:2.0,2.0;" x1="122" x2="306" y1="877.1172" y2="877.1172"/><text fill="#000000" font-family="sans-serif" font-size="13" font-weight="bold" lengthAdjust="spacing" textLength="32" x="134" y="872.2607">33.17</text><text fill="#000000" font-family="sans-serif" font-size="13" lengthAdjust="spacing" textLength="70" x="170" y="872.2607">listVisitsDto</text><polygon fill="#181818" points="11,910.4688,1,914.4688,11,918.4688,7,914.4688" style="stroke:#181818;stroke-width:1.0;"/><line style="stroke:#181818;stroke-width:1.0;stroke-dasharray:2.0,2.0;" x1="5" x2="111" y1="914.4688" y2="914.4688"/><text fill="#000000" font-family="sans-serif" font-size="13" font-weight="bold" lengthAdjust="spacing" textLength="14" x="17" y="909.6123">34</text><text fill="#000000" font-family="sans-serif" font-size="13" lengthAdjust="spacing" textLength="70" x="35" y="909.6123">listVisitsDto</text><!--SRC=[lLPTQzim57tNhxZqAIb9ONHFfXHALhP1oo0jVThBdNphY3YIAyaPW_puINByEJUEEx3UT7skpZcIh7lDLiWCDUvWfwJY6wrs15Rdn4pr9KE-nOIUx9-KG1EtA9Eq2J0RZDLl8HDunTGGOovi1HSPIWiNqOCmzaKOOSrAIQjLcfA-03ImUbu_jB5x3tl4B2FzKqRmKaz3GcFUarTbrDWsAgs4VB7Aexsocn1nWTiwpSty9yOmjqhckr-auVgQBM_Xn_fh15Ovm2nmhkaj9sEDXyyx-AjF3BaLUxHKM0Kt4gto35QQVFGPpPQ5i1yU0uwZuH9Ea47Vg0YRMzKFRTAKh4VZbvSHy21nDdyd-pXIfJ9uLHe8-QPO0uuoJoVsiNSyXzZyv2gzTc5e70u7DeZg4-Ya9MI_nxFvO7fRsPbqiFndAqGyc1hJXyXwlHMte3ZugIpkIyv9dJvPzpHyKxcUqAafEITrUY_ZYNrImJYfoplEANEbYRj2XJOt4zh53lL4ljqR2TKxBU95_ICjwfksy8THnBeonswGunljpEUmeRVuREFjdO_EazMLT4QL62MgNJhTROZZMHaPKxtAfcFazXQDol-uSHSarF4JgtHF8RGg4RGQAlQH4t3S1MspS_eS8ZVBPJzFOxdGLh6_]--></g></svg>