<?xml version="1.0" encoding="UTF-8" standalone="no"?><svg xmlns="http://www.w3.org/2000/svg" xmlns:xlink="http://www.w3.org/1999/xlink" contentStyleType="text/css" height="1375px" preserveAspectRatio="none" style="width:1353px;height:1375px;background:#FFFFFF;" version="1.1" viewBox="0 0 1353 1375" width="1353px" zoomAndPan="magnify"><defs/><g><!--class Repositories--><g id="elem_Repositories"><rect codeLine="9" fill="#F1F1F1" height="118.4375" id="Repositories" rx="2.5" ry="2.5" style="stroke:#181818;stroke-width:0.5;" width="208" x="805.5" y="16"/><ellipse cx="865.75" cy="32" fill="#ADD1B2" rx="11" ry="11" style="stroke:#181818;stroke-width:1.0;"/><path d="M868.5156,27.875 Q868.6719,27.6563 868.8594,27.5469 Q869.0469,27.4375 869.2656,27.4375 Q869.6406,27.4375 869.875,27.7031 Q870.1094,27.9531 870.1094,28.5625 L870.1094,30.0156 Q870.1094,30.625 869.875,30.8906 Q869.6406,31.1563 869.2656,31.1563 Q868.9219,31.1563 868.7188,30.9531 Q868.5156,30.7656 868.4063,30.25 Q868.3594,29.8906 868.1719,29.7031 Q867.8438,29.3281 867.2344,29.1094 Q866.625,28.8906 866,28.8906 Q865.2344,28.8906 864.5938,29.2188 Q863.9688,29.5469 863.4688,30.2969 Q862.9844,31.0469 862.9844,32.0781 L862.9844,33.1719 Q862.9844,34.4063 863.875,35.2344 Q864.7656,36.0469 866.3594,36.0469 Q867.2969,36.0469 867.9531,35.7969 Q868.3438,35.6406 868.7656,35.2031 Q869.0313,34.9375 869.1719,34.8594 Q869.3281,34.7813 869.5313,34.7813 Q869.8594,34.7813 870.1094,35.0469 Q870.375,35.2969 870.375,35.6406 Q870.375,35.9844 870.0313,36.3906 Q869.5313,36.9688 868.7344,37.2969 Q867.6563,37.75 866.3594,37.75 Q864.8438,37.75 863.6406,37.125 Q862.6563,36.625 861.9688,35.5625 Q861.2813,34.4844 861.2813,33.2031 L861.2813,32.0469 Q861.2813,30.7188 861.8906,29.5781 Q862.5156,28.4219 863.6094,27.8125 Q864.7031,27.1875 865.9375,27.1875 Q866.6719,27.1875 867.3125,27.3594 Q867.9688,27.5156 868.5156,27.875 Z " fill="#000000"/><text fill="#000000" font-family="sans-serif" font-size="14" lengthAdjust="spacing" textLength="79" x="886.25" y="37.7285">Repositories</text><line style="stroke:#181818;stroke-width:0.5;" x1="806.5" x2="1012.5" y1="48" y2="48"/><line style="stroke:#181818;stroke-width:0.5;" x1="806.5" x2="1012.5" y1="56" y2="56"/><text fill="#000000" font-family="sans-serif" font-size="14" lengthAdjust="spacing" textLength="94" x="811.5" y="74.5332">-Repositories()</text><text fill="#000000" font-family="sans-serif" font-size="14" lengthAdjust="spacing" textLength="177" x="811.5" y="92.1426">+getInstance() : repositories</text><text fill="#000000" font-family="sans-serif" font-size="14" lengthAdjust="spacing" textLength="196" x="811.5" y="109.752">+getAuthenticationRepository()</text><text fill="#000000" font-family="sans-serif" font-size="14" lengthAdjust="spacing" textLength="153" x="811.5" y="127.3613">+getAgencyRepository()</text></g><!--class ListVisitsController--><g id="elem_ListVisitsController"><rect codeLine="17" fill="#F1F1F1" height="136.0469" id="ListVisitsController" rx="2.5" ry="2.5" style="stroke:#181818;stroke-width:0.5;" width="560" x="141.5" y="7"/><ellipse cx="358.75" cy="23" fill="#ADD1B2" rx="11" ry="11" style="stroke:#181818;stroke-width:1.0;"/><path d="M361.5156,18.875 Q361.6719,18.6563 361.8594,18.5469 Q362.0469,18.4375 362.2656,18.4375 Q362.6406,18.4375 362.875,18.7031 Q363.1094,18.9531 363.1094,19.5625 L363.1094,21.0156 Q363.1094,21.625 362.875,21.8906 Q362.6406,22.1563 362.2656,22.1563 Q361.9219,22.1563 361.7188,21.9531 Q361.5156,21.7656 361.4063,21.25 Q361.3594,20.8906 361.1719,20.7031 Q360.8438,20.3281 360.2344,20.1094 Q359.625,19.8906 359,19.8906 Q358.2344,19.8906 357.5938,20.2188 Q356.9688,20.5469 356.4688,21.2969 Q355.9844,22.0469 355.9844,23.0781 L355.9844,24.1719 Q355.9844,25.4063 356.875,26.2344 Q357.7656,27.0469 359.3594,27.0469 Q360.2969,27.0469 360.9531,26.7969 Q361.3438,26.6406 361.7656,26.2031 Q362.0313,25.9375 362.1719,25.8594 Q362.3281,25.7813 362.5313,25.7813 Q362.8594,25.7813 363.1094,26.0469 Q363.375,26.2969 363.375,26.6406 Q363.375,26.9844 363.0313,27.3906 Q362.5313,27.9688 361.7344,28.2969 Q360.6563,28.75 359.3594,28.75 Q357.8438,28.75 356.6406,28.125 Q355.6563,27.625 354.9688,26.5625 Q354.2813,25.4844 354.2813,24.2031 L354.2813,23.0469 Q354.2813,21.7188 354.8906,20.5781 Q355.5156,19.4219 356.6094,18.8125 Q357.7031,18.1875 358.9375,18.1875 Q359.6719,18.1875 360.3125,18.3594 Q360.9688,18.5156 361.5156,18.875 Z " fill="#000000"/><text fill="#000000" font-family="sans-serif" font-size="14" lengthAdjust="spacing" textLength="117" x="379.25" y="28.7285">ListVisitsController</text><line style="stroke:#181818;stroke-width:0.5;" x1="142.5" x2="700.5" y1="39" y2="39"/><line style="stroke:#181818;stroke-width:0.5;" x1="142.5" x2="700.5" y1="47" y2="47"/><text fill="#000000" font-family="sans-serif" font-size="14" lengthAdjust="spacing" textLength="548" x="147.5" y="65.5332">+ListVisitsController(agencyRepository, authenticationRepository, algorithmRepository)</text><text fill="#000000" font-family="sans-serif" font-size="14" lengthAdjust="spacing" textLength="104" x="147.5" y="83.1426">+getAlgorithms()</text><text fill="#000000" font-family="sans-serif" font-size="14" lengthAdjust="spacing" textLength="383" x="147.5" y="100.752">+getVisitRequestsList(beginDate, endDate, sortingAlgorithm)</text><text fill="#000000" font-family="sans-serif" font-size="14" lengthAdjust="spacing" textLength="106" x="147.5" y="118.3613">-getAgentEmail()</text><text fill="#000000" font-family="sans-serif" font-size="14" lengthAdjust="spacing" textLength="545" x="147.5" y="135.9707">-getVisitRequestsListVyAgentEmail(agentEmail, beginDate, endDate, sortingAlgorithm)</text></g><!--class AuthenticationRepository--><g id="elem_AuthenticationRepository"><rect codeLine="45" fill="#F1F1F1" height="65.6094" id="AuthenticationRepository" rx="2.5" ry="2.5" style="stroke:#181818;stroke-width:0.5;" width="190" x="593.5" y="229.5"/><ellipse cx="608.5" cy="245.5" fill="#ADD1B2" rx="11" ry="11" style="stroke:#181818;stroke-width:1.0;"/><path d="M611.2656,241.375 Q611.4219,241.1563 611.6094,241.0469 Q611.7969,240.9375 612.0156,240.9375 Q612.3906,240.9375 612.625,241.2031 Q612.8594,241.4531 612.8594,242.0625 L612.8594,243.5156 Q612.8594,244.125 612.625,244.3906 Q612.3906,244.6563 612.0156,244.6563 Q611.6719,244.6563 611.4688,244.4531 Q611.2656,244.2656 611.1563,243.75 Q611.1094,243.3906 610.9219,243.2031 Q610.5938,242.8281 609.9844,242.6094 Q609.375,242.3906 608.75,242.3906 Q607.9844,242.3906 607.3438,242.7188 Q606.7188,243.0469 606.2188,243.7969 Q605.7344,244.5469 605.7344,245.5781 L605.7344,246.6719 Q605.7344,247.9063 606.625,248.7344 Q607.5156,249.5469 609.1094,249.5469 Q610.0469,249.5469 610.7031,249.2969 Q611.0938,249.1406 611.5156,248.7031 Q611.7813,248.4375 611.9219,248.3594 Q612.0781,248.2813 612.2813,248.2813 Q612.6094,248.2813 612.8594,248.5469 Q613.125,248.7969 613.125,249.1406 Q613.125,249.4844 612.7813,249.8906 Q612.2813,250.4688 611.4844,250.7969 Q610.4063,251.25 609.1094,251.25 Q607.5938,251.25 606.3906,250.625 Q605.4063,250.125 604.7188,249.0625 Q604.0313,247.9844 604.0313,246.7031 L604.0313,245.5469 Q604.0313,244.2188 604.6406,243.0781 Q605.2656,241.9219 606.3594,241.3125 Q607.4531,240.6875 608.6875,240.6875 Q609.4219,240.6875 610.0625,240.8594 Q610.7188,241.0156 611.2656,241.375 Z " fill="#000000"/><text fill="#000000" font-family="sans-serif" font-size="14" lengthAdjust="spacing" textLength="158" x="622.5" y="251.2285">AuthenticationRepository</text><line style="stroke:#181818;stroke-width:0.5;" x1="594.5" x2="782.5" y1="261.5" y2="261.5"/><line style="stroke:#181818;stroke-width:0.5;" x1="594.5" x2="782.5" y1="269.5" y2="269.5"/><text fill="#000000" font-family="sans-serif" font-size="14" lengthAdjust="spacing" textLength="136" x="599.5" y="288.0332">+getCurrentSession()</text></g><!--class AgencyRepository--><g id="elem_AgencyRepository"><rect codeLine="49" fill="#F1F1F1" height="83.2188" id="AgencyRepository" rx="2.5" ry="2.5" style="stroke:#181818;stroke-width:0.5;" width="279" x="819" y="221"/><ellipse cx="896.75" cy="237" fill="#ADD1B2" rx="11" ry="11" style="stroke:#181818;stroke-width:1.0;"/><path d="M899.5156,232.875 Q899.6719,232.6563 899.8594,232.5469 Q900.0469,232.4375 900.2656,232.4375 Q900.6406,232.4375 900.875,232.7031 Q901.1094,232.9531 901.1094,233.5625 L901.1094,235.0156 Q901.1094,235.625 900.875,235.8906 Q900.6406,236.1563 900.2656,236.1563 Q899.9219,236.1563 899.7188,235.9531 Q899.5156,235.7656 899.4063,235.25 Q899.3594,234.8906 899.1719,234.7031 Q898.8438,234.3281 898.2344,234.1094 Q897.625,233.8906 897,233.8906 Q896.2344,233.8906 895.5938,234.2188 Q894.9688,234.5469 894.4688,235.2969 Q893.9844,236.0469 893.9844,237.0781 L893.9844,238.1719 Q893.9844,239.4063 894.875,240.2344 Q895.7656,241.0469 897.3594,241.0469 Q898.2969,241.0469 898.9531,240.7969 Q899.3438,240.6406 899.7656,240.2031 Q900.0313,239.9375 900.1719,239.8594 Q900.3281,239.7813 900.5313,239.7813 Q900.8594,239.7813 901.1094,240.0469 Q901.375,240.2969 901.375,240.6406 Q901.375,240.9844 901.0313,241.3906 Q900.5313,241.9688 899.7344,242.2969 Q898.6563,242.75 897.3594,242.75 Q895.8438,242.75 894.6406,242.125 Q893.6563,241.625 892.9688,240.5625 Q892.2813,239.4844 892.2813,238.2031 L892.2813,237.0469 Q892.2813,235.7188 892.8906,234.5781 Q893.5156,233.4219 894.6094,232.8125 Q895.7031,232.1875 896.9375,232.1875 Q897.6719,232.1875 898.3125,232.3594 Q898.9688,232.5156 899.5156,232.875 Z " fill="#000000"/><text fill="#000000" font-family="sans-serif" font-size="14" lengthAdjust="spacing" textLength="115" x="917.25" y="242.7285">AgencyRepository</text><line style="stroke:#181818;stroke-width:0.5;" x1="820" x2="1097" y1="253" y2="253"/><text fill="#000000" font-family="sans-serif" font-size="14" lengthAdjust="spacing" textLength="151" x="825" y="271.5332">-List&lt;Agency&gt; agencies</text><line style="stroke:#181818;stroke-width:0.5;" x1="820" x2="1097" y1="278.6094" y2="278.6094"/><text fill="#000000" font-family="sans-serif" font-size="14" lengthAdjust="spacing" textLength="267" x="825" y="297.1426">+getAgencyByEmployeeEmail(agentEmail)</text></g><!--class Agency--><g id="elem_Agency"><rect codeLine="55" fill="#F1F1F1" height="153.6563" id="Agency" rx="2.5" ry="2.5" style="stroke:#181818;stroke-width:0.5;" width="538" x="808.5" y="365"/><ellipse cx="1049.75" cy="381" fill="#ADD1B2" rx="11" ry="11" style="stroke:#181818;stroke-width:1.0;"/><path d="M1052.5156,376.875 Q1052.6719,376.6563 1052.8594,376.5469 Q1053.0469,376.4375 1053.2656,376.4375 Q1053.6406,376.4375 1053.875,376.7031 Q1054.1094,376.9531 1054.1094,377.5625 L1054.1094,379.0156 Q1054.1094,379.625 1053.875,379.8906 Q1053.6406,380.1563 1053.2656,380.1563 Q1052.9219,380.1563 1052.7188,379.9531 Q1052.5156,379.7656 1052.4063,379.25 Q1052.3594,378.8906 1052.1719,378.7031 Q1051.8438,378.3281 1051.2344,378.1094 Q1050.625,377.8906 1050,377.8906 Q1049.2344,377.8906 1048.5938,378.2188 Q1047.9688,378.5469 1047.4688,379.2969 Q1046.9844,380.0469 1046.9844,381.0781 L1046.9844,382.1719 Q1046.9844,383.4063 1047.875,384.2344 Q1048.7656,385.0469 1050.3594,385.0469 Q1051.2969,385.0469 1051.9531,384.7969 Q1052.3438,384.6406 1052.7656,384.2031 Q1053.0313,383.9375 1053.1719,383.8594 Q1053.3281,383.7813 1053.5313,383.7813 Q1053.8594,383.7813 1054.1094,384.0469 Q1054.375,384.2969 1054.375,384.6406 Q1054.375,384.9844 1054.0313,385.3906 Q1053.5313,385.9688 1052.7344,386.2969 Q1051.6563,386.75 1050.3594,386.75 Q1048.8438,386.75 1047.6406,386.125 Q1046.6563,385.625 1045.9688,384.5625 Q1045.2813,383.4844 1045.2813,382.2031 L1045.2813,381.0469 Q1045.2813,379.7188 1045.8906,378.5781 Q1046.5156,377.4219 1047.6094,376.8125 Q1048.7031,376.1875 1049.9375,376.1875 Q1050.6719,376.1875 1051.3125,376.3594 Q1051.9688,376.5156 1052.5156,376.875 Z " fill="#000000"/><text fill="#000000" font-family="sans-serif" font-size="14" lengthAdjust="spacing" textLength="47" x="1070.25" y="386.7285">Agency</text><line style="stroke:#181818;stroke-width:0.5;" x1="809.5" x2="1345.5" y1="397" y2="397"/><text fill="#000000" font-family="sans-serif" font-size="14" lengthAdjust="spacing" textLength="64" x="814.5" y="415.5332">-Integer id</text><text fill="#000000" font-family="sans-serif" font-size="14" lengthAdjust="spacing" textLength="119" x="814.5" y="433.1426">-String designation</text><text fill="#000000" font-family="sans-serif" font-size="14" lengthAdjust="spacing" textLength="131" x="814.5" y="450.752">-String emailAddress</text><text fill="#000000" font-family="sans-serif" font-size="14" lengthAdjust="spacing" textLength="142" x="814.5" y="468.3613">-Integer phoneNumber</text><line style="stroke:#181818;stroke-width:0.5;" x1="809.5" x2="1345.5" y1="475.4375" y2="475.4375"/><text fill="#000000" font-family="sans-serif" font-size="14" lengthAdjust="spacing" textLength="206" x="814.5" y="493.9707">+anyAgentHasEmail(agentEmail)</text><text fill="#000000" font-family="sans-serif" font-size="14" lengthAdjust="spacing" textLength="526" x="814.5" y="511.5801">+getVisitRequestsByAgentEmail(agentEmail, beginDate, endDate, sortingAlgorithm)</text></g><!--class AnnouncementList--><g id="elem_AnnouncementList"><rect codeLine="65" fill="#F1F1F1" height="100.8281" id="AnnouncementList" rx="2.5" ry="2.5" style="stroke:#181818;stroke-width:0.5;" width="538" x="752.5" y="580"/><ellipse cx="958.75" cy="596" fill="#ADD1B2" rx="11" ry="11" style="stroke:#181818;stroke-width:1.0;"/><path d="M961.5156,591.875 Q961.6719,591.6563 961.8594,591.5469 Q962.0469,591.4375 962.2656,591.4375 Q962.6406,591.4375 962.875,591.7031 Q963.1094,591.9531 963.1094,592.5625 L963.1094,594.0156 Q963.1094,594.625 962.875,594.8906 Q962.6406,595.1563 962.2656,595.1563 Q961.9219,595.1563 961.7188,594.9531 Q961.5156,594.7656 961.4063,594.25 Q961.3594,593.8906 961.1719,593.7031 Q960.8438,593.3281 960.2344,593.1094 Q959.625,592.8906 959,592.8906 Q958.2344,592.8906 957.5938,593.2188 Q956.9688,593.5469 956.4688,594.2969 Q955.9844,595.0469 955.9844,596.0781 L955.9844,597.1719 Q955.9844,598.4063 956.875,599.2344 Q957.7656,600.0469 959.3594,600.0469 Q960.2969,600.0469 960.9531,599.7969 Q961.3438,599.6406 961.7656,599.2031 Q962.0313,598.9375 962.1719,598.8594 Q962.3281,598.7813 962.5313,598.7813 Q962.8594,598.7813 963.1094,599.0469 Q963.375,599.2969 963.375,599.6406 Q963.375,599.9844 963.0313,600.3906 Q962.5313,600.9688 961.7344,601.2969 Q960.6563,601.75 959.3594,601.75 Q957.8438,601.75 956.6406,601.125 Q955.6563,600.625 954.9688,599.5625 Q954.2813,598.4844 954.2813,597.2031 L954.2813,596.0469 Q954.2813,594.7188 954.8906,593.5781 Q955.5156,592.4219 956.6094,591.8125 Q957.7031,591.1875 958.9375,591.1875 Q959.6719,591.1875 960.3125,591.3594 Q960.9688,591.5156 961.5156,591.875 Z " fill="#000000"/><text fill="#000000" font-family="sans-serif" font-size="14" lengthAdjust="spacing" textLength="117" x="979.25" y="601.7285">AnnouncementList</text><line style="stroke:#181818;stroke-width:0.5;" x1="753.5" x2="1289.5" y1="612" y2="612"/><text fill="#000000" font-family="sans-serif" font-size="14" lengthAdjust="spacing" textLength="104" x="758.5" y="630.5332">-List&lt;Visit&gt; visits</text><line style="stroke:#181818;stroke-width:0.5;" x1="753.5" x2="1289.5" y1="637.6094" y2="637.6094"/><text fill="#000000" font-family="sans-serif" font-size="14" lengthAdjust="spacing" textLength="526" x="758.5" y="656.1426">+getVisitRequestsByAgentEmail(agentEmail, beginDate, endDate, sortingAlgorithm)</text><text fill="#000000" font-family="sans-serif" font-size="14" lengthAdjust="spacing" textLength="326" x="758.5" y="673.752">-sortingVisitsByAlgorithm(listVisits, sortingAlgorithm)</text></g><!--class Announcement--><g id="elem_Announcement"><rect codeLine="72" fill="#F1F1F1" height="171.2656" id="Announcement" rx="2.5" ry="2.5" style="stroke:#181818;stroke-width:0.5;" width="263" x="722" y="742"/><ellipse cx="801.75" cy="758" fill="#ADD1B2" rx="11" ry="11" style="stroke:#181818;stroke-width:1.0;"/><path d="M804.5156,753.875 Q804.6719,753.6563 804.8594,753.5469 Q805.0469,753.4375 805.2656,753.4375 Q805.6406,753.4375 805.875,753.7031 Q806.1094,753.9531 806.1094,754.5625 L806.1094,756.0156 Q806.1094,756.625 805.875,756.8906 Q805.6406,757.1563 805.2656,757.1563 Q804.9219,757.1563 804.7188,756.9531 Q804.5156,756.7656 804.4063,756.25 Q804.3594,755.8906 804.1719,755.7031 Q803.8438,755.3281 803.2344,755.1094 Q802.625,754.8906 802,754.8906 Q801.2344,754.8906 800.5938,755.2188 Q799.9688,755.5469 799.4688,756.2969 Q798.9844,757.0469 798.9844,758.0781 L798.9844,759.1719 Q798.9844,760.4063 799.875,761.2344 Q800.7656,762.0469 802.3594,762.0469 Q803.2969,762.0469 803.9531,761.7969 Q804.3438,761.6406 804.7656,761.2031 Q805.0313,760.9375 805.1719,760.8594 Q805.3281,760.7813 805.5313,760.7813 Q805.8594,760.7813 806.1094,761.0469 Q806.375,761.2969 806.375,761.6406 Q806.375,761.9844 806.0313,762.3906 Q805.5313,762.9688 804.7344,763.2969 Q803.6563,763.75 802.3594,763.75 Q800.8438,763.75 799.6406,763.125 Q798.6563,762.625 797.9688,761.5625 Q797.2813,760.4844 797.2813,759.2031 L797.2813,758.0469 Q797.2813,756.7188 797.8906,755.5781 Q798.5156,754.4219 799.6094,753.8125 Q800.7031,753.1875 801.9375,753.1875 Q802.6719,753.1875 803.3125,753.3594 Q803.9688,753.5156 804.5156,753.875 Z " fill="#000000"/><text fill="#000000" font-family="sans-serif" font-size="14" lengthAdjust="spacing" textLength="95" x="822.25" y="763.7285">Announcement</text><line style="stroke:#181818;stroke-width:0.5;" x1="723" x2="984" y1="774" y2="774"/><text fill="#000000" font-family="sans-serif" font-size="14" lengthAdjust="spacing" textLength="104" x="728" y="792.5332">-List&lt;Visit&gt; visits</text><text fill="#000000" font-family="sans-serif" font-size="14" lengthAdjust="spacing" textLength="176" x="728" y="810.1426">-LocalDate acceptanceDate</text><text fill="#000000" font-family="sans-serif" font-size="14" lengthAdjust="spacing" textLength="64" x="728" y="827.752">-Integer id</text><text fill="#000000" font-family="sans-serif" font-size="14" lengthAdjust="spacing" textLength="107" x="728" y="845.3613">-Employee agent</text><line style="stroke:#181818;stroke-width:0.5;" x1="723" x2="984" y1="852.4375" y2="852.4375"/><text fill="#000000" font-family="sans-serif" font-size="14" lengthAdjust="spacing" textLength="210" x="728" y="870.9707">+hasAgentWithEmail(agentEmail)</text><text fill="#000000" font-family="sans-serif" font-size="14" lengthAdjust="spacing" textLength="251" x="728" y="888.5801">+getVisitRequests(beginDate, endDate)</text><text fill="#000000" font-family="sans-serif" font-size="14" lengthAdjust="spacing" textLength="94" x="728" y="906.1895">+getVisitDate()</text></g><!--class VisitMapper--><g id="elem_VisitMapper"><rect codeLine="83" fill="#F1F1F1" height="65.6094" id="VisitMapper" rx="2.5" ry="2.5" style="stroke:#181818;stroke-width:0.5;" width="172" x="224.5" y="597.5"/><ellipse cx="269.25" cy="613.5" fill="#ADD1B2" rx="11" ry="11" style="stroke:#181818;stroke-width:1.0;"/><path d="M272.0156,609.375 Q272.1719,609.1563 272.3594,609.0469 Q272.5469,608.9375 272.7656,608.9375 Q273.1406,608.9375 273.375,609.2031 Q273.6094,609.4531 273.6094,610.0625 L273.6094,611.5156 Q273.6094,612.125 273.375,612.3906 Q273.1406,612.6563 272.7656,612.6563 Q272.4219,612.6563 272.2188,612.4531 Q272.0156,612.2656 271.9063,611.75 Q271.8594,611.3906 271.6719,611.2031 Q271.3438,610.8281 270.7344,610.6094 Q270.125,610.3906 269.5,610.3906 Q268.7344,610.3906 268.0938,610.7188 Q267.4688,611.0469 266.9688,611.7969 Q266.4844,612.5469 266.4844,613.5781 L266.4844,614.6719 Q266.4844,615.9063 267.375,616.7344 Q268.2656,617.5469 269.8594,617.5469 Q270.7969,617.5469 271.4531,617.2969 Q271.8438,617.1406 272.2656,616.7031 Q272.5313,616.4375 272.6719,616.3594 Q272.8281,616.2813 273.0313,616.2813 Q273.3594,616.2813 273.6094,616.5469 Q273.875,616.7969 273.875,617.1406 Q273.875,617.4844 273.5313,617.8906 Q273.0313,618.4688 272.2344,618.7969 Q271.1563,619.25 269.8594,619.25 Q268.3438,619.25 267.1406,618.625 Q266.1563,618.125 265.4688,617.0625 Q264.7813,615.9844 264.7813,614.7031 L264.7813,613.5469 Q264.7813,612.2188 265.3906,611.0781 Q266.0156,609.9219 267.1094,609.3125 Q268.2031,608.6875 269.4375,608.6875 Q270.1719,608.6875 270.8125,608.8594 Q271.4688,609.0156 272.0156,609.375 Z " fill="#000000"/><text fill="#000000" font-family="sans-serif" font-size="14" lengthAdjust="spacing" textLength="74" x="289.75" y="619.2285">VisitMapper</text><line style="stroke:#181818;stroke-width:0.5;" x1="225.5" x2="395.5" y1="629.5" y2="629.5"/><line style="stroke:#181818;stroke-width:0.5;" x1="225.5" x2="395.5" y1="637.5" y2="637.5"/><text fill="#000000" font-family="sans-serif" font-size="14" lengthAdjust="spacing" textLength="160" x="230.5" y="656.0332">+toDto(VisitRequestsList)</text></g><!--class Visit--><g id="elem_Visit"><rect codeLine="87" fill="#F1F1F1" height="224.0938" id="Visit" rx="2.5" ry="2.5" style="stroke:#181818;stroke-width:0.5;" width="186" x="470.5" y="1144"/><ellipse cx="546.25" cy="1160" fill="#ADD1B2" rx="11" ry="11" style="stroke:#181818;stroke-width:1.0;"/><path d="M549.0156,1155.875 Q549.1719,1155.6563 549.3594,1155.5469 Q549.5469,1155.4375 549.7656,1155.4375 Q550.1406,1155.4375 550.375,1155.7031 Q550.6094,1155.9531 550.6094,1156.5625 L550.6094,1158.0156 Q550.6094,1158.625 550.375,1158.8906 Q550.1406,1159.1563 549.7656,1159.1563 Q549.4219,1159.1563 549.2188,1158.9531 Q549.0156,1158.7656 548.9063,1158.25 Q548.8594,1157.8906 548.6719,1157.7031 Q548.3438,1157.3281 547.7344,1157.1094 Q547.125,1156.8906 546.5,1156.8906 Q545.7344,1156.8906 545.0938,1157.2188 Q544.4688,1157.5469 543.9688,1158.2969 Q543.4844,1159.0469 543.4844,1160.0781 L543.4844,1161.1719 Q543.4844,1162.4063 544.375,1163.2344 Q545.2656,1164.0469 546.8594,1164.0469 Q547.7969,1164.0469 548.4531,1163.7969 Q548.8438,1163.6406 549.2656,1163.2031 Q549.5313,1162.9375 549.6719,1162.8594 Q549.8281,1162.7813 550.0313,1162.7813 Q550.3594,1162.7813 550.6094,1163.0469 Q550.875,1163.2969 550.875,1163.6406 Q550.875,1163.9844 550.5313,1164.3906 Q550.0313,1164.9688 549.2344,1165.2969 Q548.1563,1165.75 546.8594,1165.75 Q545.3438,1165.75 544.1406,1165.125 Q543.1563,1164.625 542.4688,1163.5625 Q541.7813,1162.4844 541.7813,1161.2031 L541.7813,1160.0469 Q541.7813,1158.7188 542.3906,1157.5781 Q543.0156,1156.4219 544.1094,1155.8125 Q545.2031,1155.1875 546.4375,1155.1875 Q547.1719,1155.1875 547.8125,1155.3594 Q548.4688,1155.5156 549.0156,1155.875 Z " fill="#000000"/><text fill="#000000" font-family="sans-serif" font-size="14" lengthAdjust="spacing" textLength="26" x="566.75" y="1165.7285">Visit</text><line style="stroke:#181818;stroke-width:0.5;" x1="471.5" x2="655.5" y1="1176" y2="1176"/><text fill="#000000" font-family="sans-serif" font-size="14" lengthAdjust="spacing" textLength="64" x="476.5" y="1194.5332">-Integer id</text><text fill="#000000" font-family="sans-serif" font-size="14" lengthAdjust="spacing" textLength="111" x="476.5" y="1212.1426">-Integer startHour</text><text fill="#000000" font-family="sans-serif" font-size="14" lengthAdjust="spacing" textLength="107" x="476.5" y="1229.752">-Integer endHour</text><text fill="#000000" font-family="sans-serif" font-size="14" lengthAdjust="spacing" textLength="127" x="476.5" y="1247.3613">-LocalDate visitDate</text><text fill="#000000" font-family="sans-serif" font-size="14" lengthAdjust="spacing" textLength="174" x="476.5" y="1264.9707">-Boolean acceptanceStatus</text><line style="stroke:#181818;stroke-width:0.5;" x1="471.5" x2="655.5" y1="1272.0469" y2="1272.0469"/><text fill="#000000" font-family="sans-serif" font-size="14" lengthAdjust="spacing" textLength="49" x="476.5" y="1290.5801">+getId()</text><text fill="#000000" font-family="sans-serif" font-size="14" lengthAdjust="spacing" textLength="94" x="476.5" y="1308.1895">+getVisitDate()</text><text fill="#000000" font-family="sans-serif" font-size="14" lengthAdjust="spacing" textLength="98" x="476.5" y="1325.7988">+getStartHour()</text><text fill="#000000" font-family="sans-serif" font-size="14" lengthAdjust="spacing" textLength="93" x="476.5" y="1343.4082">+getEndHour()</text><text fill="#000000" font-family="sans-serif" font-size="14" lengthAdjust="spacing" textLength="152" x="476.5" y="1361.0176">+getAcceptanceStatus()</text></g><!--class VisitDto--><g id="elem_VisitDto"><rect codeLine="101" fill="#F1F1F1" height="153.6563" id="VisitDto" rx="2.5" ry="2.5" style="stroke:#181818;stroke-width:0.5;" width="400" x="110.5" y="750.5"/><ellipse cx="282.25" cy="766.5" fill="#ADD1B2" rx="11" ry="11" style="stroke:#181818;stroke-width:1.0;"/><path d="M285.0156,762.375 Q285.1719,762.1563 285.3594,762.0469 Q285.5469,761.9375 285.7656,761.9375 Q286.1406,761.9375 286.375,762.2031 Q286.6094,762.4531 286.6094,763.0625 L286.6094,764.5156 Q286.6094,765.125 286.375,765.3906 Q286.1406,765.6563 285.7656,765.6563 Q285.4219,765.6563 285.2188,765.4531 Q285.0156,765.2656 284.9063,764.75 Q284.8594,764.3906 284.6719,764.2031 Q284.3438,763.8281 283.7344,763.6094 Q283.125,763.3906 282.5,763.3906 Q281.7344,763.3906 281.0938,763.7188 Q280.4688,764.0469 279.9688,764.7969 Q279.4844,765.5469 279.4844,766.5781 L279.4844,767.6719 Q279.4844,768.9063 280.375,769.7344 Q281.2656,770.5469 282.8594,770.5469 Q283.7969,770.5469 284.4531,770.2969 Q284.8438,770.1406 285.2656,769.7031 Q285.5313,769.4375 285.6719,769.3594 Q285.8281,769.2813 286.0313,769.2813 Q286.3594,769.2813 286.6094,769.5469 Q286.875,769.7969 286.875,770.1406 Q286.875,770.4844 286.5313,770.8906 Q286.0313,771.4688 285.2344,771.7969 Q284.1563,772.25 282.8594,772.25 Q281.3438,772.25 280.1406,771.625 Q279.1563,771.125 278.4688,770.0625 Q277.7813,768.9844 277.7813,767.7031 L277.7813,766.5469 Q277.7813,765.2188 278.3906,764.0781 Q279.0156,762.9219 280.1094,762.3125 Q281.2031,761.6875 282.4375,761.6875 Q283.1719,761.6875 283.8125,761.8594 Q284.4688,762.0156 285.0156,762.375 Z " fill="#000000"/><text fill="#000000" font-family="sans-serif" font-size="14" lengthAdjust="spacing" textLength="48" x="302.75" y="772.2285">VisitDto</text><line style="stroke:#181818;stroke-width:0.5;" x1="111.5" x2="509.5" y1="782.5" y2="782.5"/><text fill="#000000" font-family="sans-serif" font-size="14" lengthAdjust="spacing" textLength="64" x="116.5" y="801.0332">-Integer id</text><text fill="#000000" font-family="sans-serif" font-size="14" lengthAdjust="spacing" textLength="111" x="116.5" y="818.6426">-Integer startHour</text><text fill="#000000" font-family="sans-serif" font-size="14" lengthAdjust="spacing" textLength="107" x="116.5" y="836.252">-Integer endHour</text><text fill="#000000" font-family="sans-serif" font-size="14" lengthAdjust="spacing" textLength="127" x="116.5" y="853.8613">-LocalDate visitDate</text><text fill="#000000" font-family="sans-serif" font-size="14" lengthAdjust="spacing" textLength="174" x="116.5" y="871.4707">-Boolean acceptanceStatus</text><line style="stroke:#181818;stroke-width:0.5;" x1="111.5" x2="509.5" y1="878.5469" y2="878.5469"/><text fill="#000000" font-family="sans-serif" font-size="14" lengthAdjust="spacing" textLength="388" x="116.5" y="897.0801">+VisitDto(id, visitDate, startHour, endHour, acceptanceStatus)</text></g><!--class Request--><g id="elem_Request"><rect codeLine="111" fill="#F1F1F1" height="171.2656" id="Request" rx="2.5" ry="2.5" style="stroke:#181818;stroke-width:0.5;" width="163" x="772" y="943"/><ellipse cx="822.75" cy="959" fill="#ADD1B2" rx="11" ry="11" style="stroke:#181818;stroke-width:1.0;"/><path d="M825.5156,954.875 Q825.6719,954.6563 825.8594,954.5469 Q826.0469,954.4375 826.2656,954.4375 Q826.6406,954.4375 826.875,954.7031 Q827.1094,954.9531 827.1094,955.5625 L827.1094,957.0156 Q827.1094,957.625 826.875,957.8906 Q826.6406,958.1563 826.2656,958.1563 Q825.9219,958.1563 825.7188,957.9531 Q825.5156,957.7656 825.4063,957.25 Q825.3594,956.8906 825.1719,956.7031 Q824.8438,956.3281 824.2344,956.1094 Q823.625,955.8906 823,955.8906 Q822.2344,955.8906 821.5938,956.2188 Q820.9688,956.5469 820.4688,957.2969 Q819.9844,958.0469 819.9844,959.0781 L819.9844,960.1719 Q819.9844,961.4063 820.875,962.2344 Q821.7656,963.0469 823.3594,963.0469 Q824.2969,963.0469 824.9531,962.7969 Q825.3438,962.6406 825.7656,962.2031 Q826.0313,961.9375 826.1719,961.8594 Q826.3281,961.7813 826.5313,961.7813 Q826.8594,961.7813 827.1094,962.0469 Q827.375,962.2969 827.375,962.6406 Q827.375,962.9844 827.0313,963.3906 Q826.5313,963.9688 825.7344,964.2969 Q824.6563,964.75 823.3594,964.75 Q821.8438,964.75 820.6406,964.125 Q819.6563,963.625 818.9688,962.5625 Q818.2813,961.4844 818.2813,960.2031 L818.2813,959.0469 Q818.2813,957.7188 818.8906,956.5781 Q819.5156,955.4219 820.6094,954.8125 Q821.7031,954.1875 822.9375,954.1875 Q823.6719,954.1875 824.3125,954.3594 Q824.9688,954.5156 825.5156,954.875 Z " fill="#000000"/><text fill="#000000" font-family="sans-serif" font-size="14" lengthAdjust="spacing" textLength="53" x="843.25" y="964.7285">Request</text><line style="stroke:#181818;stroke-width:0.5;" x1="773" x2="934" y1="975" y2="975"/><text fill="#000000" font-family="sans-serif" font-size="14" lengthAdjust="spacing" textLength="151" x="778" y="993.5332">-LocalDate requestDate</text><text fill="#000000" font-family="sans-serif" font-size="14" lengthAdjust="spacing" textLength="64" x="778" y="1011.1426">-Integer id</text><text fill="#000000" font-family="sans-serif" font-size="14" lengthAdjust="spacing" textLength="133" x="778" y="1028.752">-Employee Employee</text><text fill="#000000" font-family="sans-serif" font-size="14" lengthAdjust="spacing" textLength="115" x="778" y="1046.3613">-Email ownerEmail</text><text fill="#000000" font-family="sans-serif" font-size="14" lengthAdjust="spacing" textLength="122" x="778" y="1063.9707">-Business business</text><text fill="#000000" font-family="sans-serif" font-size="14" lengthAdjust="spacing" textLength="116" x="778" y="1081.5801">-Property property</text><line style="stroke:#181818;stroke-width:0.5;" x1="773" x2="934" y1="1088.6563" y2="1088.6563"/><text fill="#000000" font-family="sans-serif" font-size="14" lengthAdjust="spacing" textLength="92" x="778" y="1107.1895">+getLocation()</text></g><!--class Property--><g id="elem_Property"><rect codeLine="122" fill="#F1F1F1" height="153.6563" id="Property" rx="2.5" ry="2.5" style="stroke:#181818;stroke-width:0.5;" width="206" x="750.5" y="1179"/><ellipse cx="822.25" cy="1195" fill="#ADD1B2" rx="11" ry="11" style="stroke:#181818;stroke-width:1.0;"/><path d="M825.0156,1190.875 Q825.1719,1190.6563 825.3594,1190.5469 Q825.5469,1190.4375 825.7656,1190.4375 Q826.1406,1190.4375 826.375,1190.7031 Q826.6094,1190.9531 826.6094,1191.5625 L826.6094,1193.0156 Q826.6094,1193.625 826.375,1193.8906 Q826.1406,1194.1563 825.7656,1194.1563 Q825.4219,1194.1563 825.2188,1193.9531 Q825.0156,1193.7656 824.9063,1193.25 Q824.8594,1192.8906 824.6719,1192.7031 Q824.3438,1192.3281 823.7344,1192.1094 Q823.125,1191.8906 822.5,1191.8906 Q821.7344,1191.8906 821.0938,1192.2188 Q820.4688,1192.5469 819.9688,1193.2969 Q819.4844,1194.0469 819.4844,1195.0781 L819.4844,1196.1719 Q819.4844,1197.4063 820.375,1198.2344 Q821.2656,1199.0469 822.8594,1199.0469 Q823.7969,1199.0469 824.4531,1198.7969 Q824.8438,1198.6406 825.2656,1198.2031 Q825.5313,1197.9375 825.6719,1197.8594 Q825.8281,1197.7813 826.0313,1197.7813 Q826.3594,1197.7813 826.6094,1198.0469 Q826.875,1198.2969 826.875,1198.6406 Q826.875,1198.9844 826.5313,1199.3906 Q826.0313,1199.9688 825.2344,1200.2969 Q824.1563,1200.75 822.8594,1200.75 Q821.3438,1200.75 820.1406,1200.125 Q819.1563,1199.625 818.4688,1198.5625 Q817.7813,1197.4844 817.7813,1196.2031 L817.7813,1195.0469 Q817.7813,1193.7188 818.3906,1192.5781 Q819.0156,1191.4219 820.1094,1190.8125 Q821.2031,1190.1875 822.4375,1190.1875 Q823.1719,1190.1875 823.8125,1190.3594 Q824.4688,1190.5156 825.0156,1190.875 Z " fill="#000000"/><text fill="#000000" font-family="sans-serif" font-size="14" lengthAdjust="spacing" textLength="54" x="842.75" y="1200.7285">Property</text><line style="stroke:#181818;stroke-width:0.5;" x1="751.5" x2="955.5" y1="1211" y2="1211"/><text fill="#000000" font-family="sans-serif" font-size="14" lengthAdjust="spacing" textLength="180" x="756.5" y="1229.5332">-PropertyType propertyType</text><text fill="#000000" font-family="sans-serif" font-size="14" lengthAdjust="spacing" textLength="83" x="756.5" y="1247.1426">-Double area</text><text fill="#000000" font-family="sans-serif" font-size="14" lengthAdjust="spacing" textLength="174" x="756.5" y="1264.752">-Double distanceCityCenter</text><text fill="#000000" font-family="sans-serif" font-size="14" lengthAdjust="spacing" textLength="112" x="756.5" y="1282.3613">-Location location</text><text fill="#000000" font-family="sans-serif" font-size="14" lengthAdjust="spacing" textLength="194" x="756.5" y="1299.9707">-List&lt;Photograph&gt; photograph</text><line style="stroke:#181818;stroke-width:0.5;" x1="751.5" x2="955.5" y1="1307.0469" y2="1307.0469"/><text fill="#000000" font-family="sans-serif" font-size="14" lengthAdjust="spacing" textLength="92" x="756.5" y="1325.5801">+getLocation()</text></g><!--class SortingMethods--><g id="elem_SortingMethods"><rect codeLine="137" fill="#F1F1F1" height="65.6094" id="SortingMethods" rx="2.5" ry="2.5" style="stroke:#181818;stroke-width:0.5;" width="299" x="259" y="229.5"/><ellipse cx="354.25" cy="245.5" fill="#B4A7E5" rx="11" ry="11" style="stroke:#181818;stroke-width:1.0;"/><path d="M355.2031,242.1406 L355.2031,248.7969 L356.9219,248.7969 Q357.5313,248.7969 357.7969,249.0313 Q358.0625,249.2656 358.0625,249.6563 Q358.0625,250.0313 357.7969,250.2656 Q357.5313,250.5 356.9219,250.5 L351.7813,250.5 Q351.1719,250.5 350.9063,250.2656 Q350.6406,250.0313 350.6406,249.6406 Q350.6406,249.2656 350.9063,249.0313 Q351.1719,248.7969 351.7813,248.7969 L353.5,248.7969 L353.5,242.1406 L351.7813,242.1406 Q351.1719,242.1406 350.9063,241.9063 Q350.6406,241.6719 350.6406,241.2813 Q350.6406,240.9063 350.9063,240.6719 Q351.1719,240.4375 351.7813,240.4375 L356.9219,240.4375 Q357.5313,240.4375 357.7969,240.6719 Q358.0625,240.9063 358.0625,241.2813 Q358.0625,241.6719 357.7969,241.9063 Q357.5313,242.1406 356.9219,242.1406 L355.2031,242.1406 Z " fill="#000000"/><text fill="#000000" font-family="sans-serif" font-size="14" font-style="italic" lengthAdjust="spacing" textLength="100" x="374.75" y="251.2285">SortingMethods</text><line style="stroke:#181818;stroke-width:0.5;" x1="260" x2="557" y1="261.5" y2="261.5"/><line style="stroke:#181818;stroke-width:0.5;" x1="260" x2="557" y1="269.5" y2="269.5"/><text fill="#000000" font-family="sans-serif" font-size="14" lengthAdjust="spacing" textLength="287" x="265" y="288.0332">+getSortedVisitRequestList(visitRequestsList)</text></g><!--class SortingMethods1--><g id="elem_SortingMethods1"><rect codeLine="141" fill="#F1F1F1" height="65.6094" id="SortingMethods1" rx="2.5" ry="2.5" style="stroke:#181818;stroke-width:0.5;" width="299" x="474" y="409"/><ellipse cx="565.75" cy="425" fill="#ADD1B2" rx="11" ry="11" style="stroke:#181818;stroke-width:1.0;"/><path d="M568.5156,420.875 Q568.6719,420.6563 568.8594,420.5469 Q569.0469,420.4375 569.2656,420.4375 Q569.6406,420.4375 569.875,420.7031 Q570.1094,420.9531 570.1094,421.5625 L570.1094,423.0156 Q570.1094,423.625 569.875,423.8906 Q569.6406,424.1563 569.2656,424.1563 Q568.9219,424.1563 568.7188,423.9531 Q568.5156,423.7656 568.4063,423.25 Q568.3594,422.8906 568.1719,422.7031 Q567.8438,422.3281 567.2344,422.1094 Q566.625,421.8906 566,421.8906 Q565.2344,421.8906 564.5938,422.2188 Q563.9688,422.5469 563.4688,423.2969 Q562.9844,424.0469 562.9844,425.0781 L562.9844,426.1719 Q562.9844,427.4063 563.875,428.2344 Q564.7656,429.0469 566.3594,429.0469 Q567.2969,429.0469 567.9531,428.7969 Q568.3438,428.6406 568.7656,428.2031 Q569.0313,427.9375 569.1719,427.8594 Q569.3281,427.7813 569.5313,427.7813 Q569.8594,427.7813 570.1094,428.0469 Q570.375,428.2969 570.375,428.6406 Q570.375,428.9844 570.0313,429.3906 Q569.5313,429.9688 568.7344,430.2969 Q567.6563,430.75 566.3594,430.75 Q564.8438,430.75 563.6406,430.125 Q562.6563,429.625 561.9688,428.5625 Q561.2813,427.4844 561.2813,426.2031 L561.2813,425.0469 Q561.2813,423.7188 561.8906,422.5781 Q562.5156,421.4219 563.6094,420.8125 Q564.7031,420.1875 565.9375,420.1875 Q566.6719,420.1875 567.3125,420.3594 Q567.9688,420.5156 568.5156,420.875 Z " fill="#000000"/><text fill="#000000" font-family="sans-serif" font-size="14" lengthAdjust="spacing" textLength="107" x="586.25" y="430.7285">SortingMethods1</text><line style="stroke:#181818;stroke-width:0.5;" x1="475" x2="772" y1="441" y2="441"/><line style="stroke:#181818;stroke-width:0.5;" x1="475" x2="772" y1="449" y2="449"/><text fill="#000000" font-family="sans-serif" font-size="14" lengthAdjust="spacing" textLength="287" x="480" y="467.5332">+getSortedVisitRequestList(visitRequestsList)</text></g><!--class SortingMethods2--><g id="elem_SortingMethods2"><rect codeLine="145" fill="#F1F1F1" height="65.6094" id="SortingMethods2" rx="2.5" ry="2.5" style="stroke:#181818;stroke-width:0.5;" width="299" x="140" y="409"/><ellipse cx="231.75" cy="425" fill="#ADD1B2" rx="11" ry="11" style="stroke:#181818;stroke-width:1.0;"/><path d="M234.5156,420.875 Q234.6719,420.6563 234.8594,420.5469 Q235.0469,420.4375 235.2656,420.4375 Q235.6406,420.4375 235.875,420.7031 Q236.1094,420.9531 236.1094,421.5625 L236.1094,423.0156 Q236.1094,423.625 235.875,423.8906 Q235.6406,424.1563 235.2656,424.1563 Q234.9219,424.1563 234.7188,423.9531 Q234.5156,423.7656 234.4063,423.25 Q234.3594,422.8906 234.1719,422.7031 Q233.8438,422.3281 233.2344,422.1094 Q232.625,421.8906 232,421.8906 Q231.2344,421.8906 230.5938,422.2188 Q229.9688,422.5469 229.4688,423.2969 Q228.9844,424.0469 228.9844,425.0781 L228.9844,426.1719 Q228.9844,427.4063 229.875,428.2344 Q230.7656,429.0469 232.3594,429.0469 Q233.2969,429.0469 233.9531,428.7969 Q234.3438,428.6406 234.7656,428.2031 Q235.0313,427.9375 235.1719,427.8594 Q235.3281,427.7813 235.5313,427.7813 Q235.8594,427.7813 236.1094,428.0469 Q236.375,428.2969 236.375,428.6406 Q236.375,428.9844 236.0313,429.3906 Q235.5313,429.9688 234.7344,430.2969 Q233.6563,430.75 232.3594,430.75 Q230.8438,430.75 229.6406,430.125 Q228.6563,429.625 227.9688,428.5625 Q227.2813,427.4844 227.2813,426.2031 L227.2813,425.0469 Q227.2813,423.7188 227.8906,422.5781 Q228.5156,421.4219 229.6094,420.8125 Q230.7031,420.1875 231.9375,420.1875 Q232.6719,420.1875 233.3125,420.3594 Q233.9688,420.5156 234.5156,420.875 Z " fill="#000000"/><text fill="#000000" font-family="sans-serif" font-size="14" lengthAdjust="spacing" textLength="107" x="252.25" y="430.7285">SortingMethods2</text><line style="stroke:#181818;stroke-width:0.5;" x1="141" x2="438" y1="441" y2="441"/><line style="stroke:#181818;stroke-width:0.5;" x1="141" x2="438" y1="449" y2="449"/><text fill="#000000" font-family="sans-serif" font-size="14" lengthAdjust="spacing" textLength="287" x="146" y="467.5332">+getSortedVisitRequestList(visitRequestsList)</text></g><!--class ListVisitsUI--><g id="elem_ListVisitsUI"><rect codeLine="150" fill="#F1F1F1" height="48" id="ListVisitsUI" rx="2.5" ry="2.5" style="stroke:#181818;stroke-width:0.5;" width="99" x="7" y="51"/><ellipse cx="22" cy="67" fill="#ADD1B2" rx="11" ry="11" style="stroke:#181818;stroke-width:1.0;"/><path d="M24.7656,62.875 Q24.9219,62.6563 25.1094,62.5469 Q25.2969,62.4375 25.5156,62.4375 Q25.8906,62.4375 26.125,62.7031 Q26.3594,62.9531 26.3594,63.5625 L26.3594,65.0156 Q26.3594,65.625 26.125,65.8906 Q25.8906,66.1563 25.5156,66.1563 Q25.1719,66.1563 24.9688,65.9531 Q24.7656,65.7656 24.6563,65.25 Q24.6094,64.8906 24.4219,64.7031 Q24.0938,64.3281 23.4844,64.1094 Q22.875,63.8906 22.25,63.8906 Q21.4844,63.8906 20.8438,64.2188 Q20.2188,64.5469 19.7188,65.2969 Q19.2344,66.0469 19.2344,67.0781 L19.2344,68.1719 Q19.2344,69.4063 20.125,70.2344 Q21.0156,71.0469 22.6094,71.0469 Q23.5469,71.0469 24.2031,70.7969 Q24.5938,70.6406 25.0156,70.2031 Q25.2813,69.9375 25.4219,69.8594 Q25.5781,69.7813 25.7813,69.7813 Q26.1094,69.7813 26.3594,70.0469 Q26.625,70.2969 26.625,70.6406 Q26.625,70.9844 26.2813,71.3906 Q25.7813,71.9688 24.9844,72.2969 Q23.9063,72.75 22.6094,72.75 Q21.0938,72.75 19.8906,72.125 Q18.9063,71.625 18.2188,70.5625 Q17.5313,69.4844 17.5313,68.2031 L17.5313,67.0469 Q17.5313,65.7188 18.1406,64.5781 Q18.7656,63.4219 19.8594,62.8125 Q20.9531,62.1875 22.1875,62.1875 Q22.9219,62.1875 23.5625,62.3594 Q24.2188,62.5156 24.7656,62.875 Z " fill="#000000"/><text fill="#000000" font-family="sans-serif" font-size="14" lengthAdjust="spacing" textLength="67" x="36" y="72.7285">ListVisitsUI</text><line style="stroke:#181818;stroke-width:0.5;" x1="8" x2="105" y1="83" y2="83"/><line style="stroke:#181818;stroke-width:0.5;" x1="8" x2="105" y1="91" y2="91"/></g><!--reverse link SortingMethods to SortingMethods1--><g id="link_SortingMethods_SortingMethods1"><path d="M462.88,308.4 C500.79,339.7 550.48,380.72 584.49,408.8 " fill="none" id="SortingMethods-backto-SortingMethods1" style="stroke:#181818;stroke-width:1.0;stroke-dasharray:7.0,7.0;"/><polygon fill="none" points="458.4,313.78,447.43,295.64,467.31,302.98,458.4,313.78" style="stroke:#181818;stroke-width:1.0;"/></g><!--reverse link SortingMethods to SortingMethods2--><g id="link_SortingMethods_SortingMethods2"><path d="M375.55,312.65 C354.98,343.33 329.07,381.97 311.09,408.8 " fill="none" id="SortingMethods-backto-SortingMethods2" style="stroke:#181818;stroke-width:1.0;stroke-dasharray:7.0,7.0;"/><polygon fill="none" points="370,308.36,386.95,295.64,381.63,316.15,370,308.36" style="stroke:#181818;stroke-width:1.0;"/></g><!--link Repositories to Repositories--><g id="link_Repositories_Repositories"><path codeLine="154" d="M1013.76,56.01 C1034.08,58.21 1048.5,64.54 1048.5,75 C1048.5,84.56 1036.45,90.67 1018.86,93.33 " fill="none" id="Repositories-to-Repositories" style="stroke:#181818;stroke-width:1.0;"/><polygon fill="#181818" points="1013.76,93.99,1023.1997,96.7993,1018.7185,93.347,1022.1708,88.8658,1013.76,93.99" style="stroke:#181818;stroke-width:1.0;"/><text fill="#000000" font-family="sans-serif" font-size="13" lengthAdjust="spacing" textLength="49" x="1054.5" y="80.4951">instance</text></g><!--link ListVisitsUI to ListVisitsController--><g id="link_ListVisitsUI_ListVisitsController"><path codeLine="156" d="M106.34,75 C116.19,75 126.45,75 136.02,75 " fill="none" id="ListVisitsUI-to-ListVisitsController" style="stroke:#181818;stroke-width:1.0;stroke-dasharray:7.0,7.0;"/><polygon fill="#181818" points="141.26,75,132.26,71,136.26,75,132.26,79,141.26,75" style="stroke:#181818;stroke-width:1.0;"/></g><!--link ListVisitsController to Repositories--><g id="link_ListVisitsController_Repositories"><path codeLine="158" d="M701.84,75 C736.58,75 770.31,75 800.13,75 " fill="none" id="ListVisitsController-to-Repositories" style="stroke:#181818;stroke-width:1.0;stroke-dasharray:7.0,7.0;"/><polygon fill="#181818" points="805.27,75,796.27,71,800.27,75,796.27,79,805.27,75" style="stroke:#181818;stroke-width:1.0;"/><text fill="#000000" font-family="sans-serif" font-size="13" lengthAdjust="spacing" textLength="67" x="720" y="68.4951">repositories</text></g><!--link ListVisitsController to VisitMapper--><g id="link_ListVisitsController_VisitMapper"><path codeLine="161" d="M338.09,143.19 C291,181.12 241.5,221 241.5,221 C241.5,221 122.5,365 122.5,365 C122.5,365 122.5,519 122.5,519 C122.5,519 196.16,562.3 251.27,594.69 " fill="none" id="ListVisitsController-to-VisitMapper" style="stroke:#181818;stroke-width:1.0;stroke-dasharray:7.0,7.0;"/><polygon fill="#181818" points="255.87,597.39,250.1476,589.3741,251.5625,594.8512,246.0855,596.2661,255.87,597.39" style="stroke:#181818;stroke-width:1.0;"/></g><!--link VisitMapper to VisitDto--><g id="link_VisitMapper_VisitDto"><path codeLine="166" d="M310.5,663.7 C310.5,685.9 310.5,716.46 310.5,745.11 " fill="none" id="VisitMapper-to-VisitDto" style="stroke:#181818;stroke-width:1.0;stroke-dasharray:7.0,7.0;"/><polygon fill="#181818" points="310.5,750.44,314.5,741.44,310.5,745.44,306.5,741.44,310.5,750.44" style="stroke:#181818;stroke-width:1.0;"/></g><!--link VisitDto to Visit--><g id="link_VisitDto_Visit"><path codeLine="167" d="M355.73,904.75 C394.4,969.94 450.65,1064.75 494.87,1139.3 " fill="none" id="VisitDto-to-Visit" style="stroke:#181818;stroke-width:1.0;stroke-dasharray:7.0,7.0;"/><polygon fill="#181818" points="497.49,1143.73,496.3278,1133.95,494.9343,1139.4325,489.4518,1138.039,497.49,1143.73" style="stroke:#181818;stroke-width:1.0;"/></g><!--link VisitMapper to Visit--><g id="link_VisitMapper_Visit"><path codeLine="168" d="M373.85,663.61 C438.21,696.24 528.5,742 528.5,742 C528.5,742 545.21,986.97 555.54,1138.34 " fill="none" id="VisitMapper-to-Visit" style="stroke:#181818;stroke-width:1.0;stroke-dasharray:7.0,7.0;"/><polygon fill="#181818" points="555.91,1143.69,559.2831,1134.4368,555.567,1138.7018,551.302,1134.9856,555.91,1143.69" style="stroke:#181818;stroke-width:1.0;"/></g><!--link ListVisitsController to AgencyRepository--><g id="link_ListVisitsController_AgencyRepository"><path codeLine="170" d="M629.04,143.11 C680.62,159.78 721.5,173 721.5,173 C721.5,173 784.1,196.38 844.96,219.1 " fill="none" id="ListVisitsController-to-AgencyRepository" style="stroke:#181818;stroke-width:1.0;stroke-dasharray:7.0,7.0;"/><polygon fill="#181818" points="849.71,220.88,842.6875,213.9746,845.0284,219.1244,839.8785,221.4652,849.71,220.88" style="stroke:#181818;stroke-width:1.0;"/><text fill="#000000" font-family="sans-serif" font-size="13" lengthAdjust="spacing" textLength="104" x="767.5" y="187.4951">agencyRepository</text></g><!--link ListVisitsController to AuthenticationRepository--><g id="link_ListVisitsController_AuthenticationRepository"><path codeLine="171" d="M509.77,143.23 C542.82,168.39 572.5,191 572.5,191 C572.5,191 602.02,208.94 631.28,226.72 " fill="none" id="ListVisitsController-to-AuthenticationRepository" style="stroke:#181818;stroke-width:1.0;stroke-dasharray:7.0,7.0;"/><polygon fill="#181818" points="635.59,229.34,629.982,221.2437,631.319,226.7403,625.8224,228.0773,635.59,229.34" style="stroke:#181818;stroke-width:1.0;"/><text fill="#000000" font-family="sans-serif" font-size="13" lengthAdjust="spacing" textLength="143" x="573.5" y="187.4951">authenticationRepository</text></g><!--link Repositories to AgencyRepository--><g id="link_Repositories_AgencyRepository"><path codeLine="173" d="M924.87,134.18 C931.84,160.58 939.97,191.34 946.48,216.01 " fill="none" id="Repositories-to-AgencyRepository" style="stroke:#181818;stroke-width:1.0;"/><polygon fill="#181818" points="947.76,220.86,949.3364,211.1381,946.4868,216.0248,941.6001,213.1752,947.76,220.86" style="stroke:#181818;stroke-width:1.0;"/><text fill="#000000" font-family="sans-serif" font-size="13" lengthAdjust="spacing" textLength="7" x="938.4015" y="210.1445">1</text></g><!--link Repositories to AuthenticationRepository--><g id="link_Repositories_AuthenticationRepository"><path codeLine="175" d="M891.79,134.17 C883.11,162.7 874.5,191 874.5,191 C874.5,191 825.61,209.53 777.97,227.59 " fill="none" id="Repositories-to-AuthenticationRepository" style="stroke:#181818;stroke-width:1.0;"/><polygon fill="#181818" points="773.06,229.45,782.8935,229.999,777.7352,227.6772,780.057,222.5188,773.06,229.45" style="stroke:#181818;stroke-width:1.0;"/><text fill="#000000" font-family="sans-serif" font-size="13" lengthAdjust="spacing" textLength="7" x="782.7786" y="218.5551">1</text></g><!--link AgencyRepository to Agency--><g id="link_AgencyRepository_Agency"><path codeLine="176" d="M985.8,304.22 C997.03,320.97 1010.45,340.98 1023.51,360.46 " fill="none" id="AgencyRepository-to-Agency" style="stroke:#181818;stroke-width:1.0;"/><polygon fill="#181818" points="1026.46,364.87,1024.7728,355.1667,1023.6766,360.7163,1018.127,359.6201,1026.46,364.87" style="stroke:#181818;stroke-width:1.0;"/><text fill="#000000" font-family="sans-serif" font-size="13" lengthAdjust="spacing" textLength="5" x="1016.1897" y="354.0194">*</text></g><!--link Agency to AnnouncementList--><g id="link_Agency_AnnouncementList"><path codeLine="177" d="M1054.64,519.13 C1049.03,537.81 1043.13,557.45 1037.89,574.9 " fill="none" id="Agency-to-AnnouncementList" style="stroke:#181818;stroke-width:1.0;"/><polygon fill="#181818" points="1036.43,579.76,1042.8577,572.2977,1037.8733,574.9728,1035.1982,569.9885,1036.43,579.76" style="stroke:#181818;stroke-width:1.0;"/><text fill="#000000" font-family="sans-serif" font-size="13" lengthAdjust="spacing" textLength="7" x="1031.0373" y="569.0316">1</text></g><!--link AnnouncementList to Announcement--><g id="link_AnnouncementList_Announcement"><path codeLine="178" d="M978.67,681.21 C963.82,698.45 946.68,718.35 929.94,737.77 " fill="none" id="AnnouncementList-to-Announcement" style="stroke:#181818;stroke-width:1.0;"/><polygon fill="#181818" points="926.6,741.65,935.502,737.4364,929.861,737.8598,929.4377,732.2188,926.6,741.65" style="stroke:#181818;stroke-width:1.0;"/><text fill="#000000" font-family="sans-serif" font-size="13" lengthAdjust="spacing" textLength="7" x="965.734" y="702.2609">1</text><text fill="#000000" font-family="sans-serif" font-size="13" lengthAdjust="spacing" textLength="5" x="927.6672" y="731.0836">*</text></g><!--link Announcement to Visit--><g id="link_Announcement_Visit"><path codeLine="179" d="M780.25,913.22 C765.54,930.23 754.5,943 754.5,943 C754.5,943 688.74,1050.42 634.39,1139.2 " fill="none" id="Announcement-to-Visit" style="stroke:#181818;stroke-width:1.0;"/><polygon fill="#181818" points="631.65,1143.68,639.76,1138.0917,634.2601,1139.4154,632.9365,1133.9155,631.65,1143.68" style="stroke:#181818;stroke-width:1.0;"/><text fill="#000000" font-family="sans-serif" font-size="13" lengthAdjust="spacing" textLength="7" x="764.4404" y="932.1384">1</text><text fill="#000000" font-family="sans-serif" font-size="13" lengthAdjust="spacing" textLength="5" x="631.0609" y="1133.0998">*</text></g><!--link ListVisitsController to SortingMethods--><g id="link_ListVisitsController_SortingMethods"><path codeLine="181" d="M416.79,143.23 C414.88,170.51 412.74,200.99 411.12,224.17 " fill="none" id="ListVisitsController-to-SortingMethods" style="stroke:#181818;stroke-width:1.0;"/><polygon fill="#181818" points="410.76,229.3,415.368,220.5956,411.103,224.3118,407.3869,220.0468,410.76,229.3" style="stroke:#181818;stroke-width:1.0;"/><text fill="#000000" font-family="sans-serif" font-size="13" lengthAdjust="spacing" textLength="78" x="415.5" y="187.4951">makes use of</text><text fill="#000000" font-family="sans-serif" font-size="13" lengthAdjust="spacing" textLength="7" x="403.5159" y="218.7569">1</text></g><!--link Announcement to Request--><g id="link_Announcement_Request"><path codeLine="182" d="M853.5,913.18 C853.5,921.33 853.5,929.61 853.5,937.81 " fill="none" id="Announcement-to-Request" style="stroke:#181818;stroke-width:1.0;"/><polygon fill="#181818" points="853.5,942.89,857.5,933.89,853.5,937.89,849.5,933.89,853.5,942.89" style="stroke:#181818;stroke-width:1.0;"/><text fill="#000000" font-family="sans-serif" font-size="13" lengthAdjust="spacing" textLength="67" x="785.5" y="939.9851">is based on</text><text fill="#000000" font-family="sans-serif" font-size="13" lengthAdjust="spacing" textLength="7" x="853.9017" y="932.0938">1</text><text fill="#000000" font-family="sans-serif" font-size="13" lengthAdjust="spacing" textLength="7" x="853.8117" y="932.0518">1</text></g><!--link Request to Property--><g id="link_Request_Property"><path codeLine="183" d="M853.5,1114.11 C853.5,1133.53 853.5,1154.14 853.5,1173.43 " fill="none" id="Request-to-Property" style="stroke:#181818;stroke-width:1.0;"/><polygon fill="#181818" points="853.5,1178.83,857.5,1169.83,853.5,1173.83,849.5,1169.83,853.5,1178.83" style="stroke:#181818;stroke-width:1.0;"/><text fill="#000000" font-family="sans-serif" font-size="13" lengthAdjust="spacing" textLength="124" x="728.5" y="1140.2651">has information about</text><text fill="#000000" font-family="sans-serif" font-size="13" lengthAdjust="spacing" textLength="7" x="853.8008" y="1135.6534">1</text><text fill="#000000" font-family="sans-serif" font-size="13" lengthAdjust="spacing" textLength="7" x="846.1664" y="1168.2405">1</text></g><!--link Visit to Property--><g id="link_Visit_Property"><path codeLine="185" d="M656.85,1256 C685.03,1256 716.19,1256 745.25,1256 " fill="none" id="Visit-to-Property" style="stroke:#181818;stroke-width:1.0;"/><polygon fill="#181818" points="750.27,1256,741.27,1252,745.27,1256,741.27,1260,750.27,1256" style="stroke:#181818;stroke-width:1.0;"/><text fill="#000000" font-family="sans-serif" font-size="13" lengthAdjust="spacing" textLength="57" x="675" y="1249.4951">is done to</text><text fill="#000000" font-family="sans-serif" font-size="13" lengthAdjust="spacing" textLength="7" x="664.5677" y="1252.8679">1</text><text fill="#000000" font-family="sans-serif" font-size="13" lengthAdjust="spacing" textLength="7" x="735.432" y="1252.9331">1</text></g><!--SRC=[lLTBZzis4BxpLn2voDkrWqsFYyA0zm74G5C4SPgUQMbM9bOYLPBQG3NotpkaI8bwRGqagK_aFBvvS6OqJlGp5nLJhAIb538zALa2DQe6qdCgbZwp70wcAO0gI0qJUH4Bw1FBv5SkSlh42Xrp2Yx0D1NGIXQDlP1aXYcLaIJIIWkczSuOnO-rWNqgnO7_0_I64CUXdw2IcXkfE6Xw9XH_cm5nTUM8rpG7inSQ7KvXTKLlqVjUY2ITpAx8aMHEPGVIn12xsfn069uomwLOaCb1fCs0zotu-plNvWj7khwNmYXP5A2ytzUpp1KReQqfM_01ELFdOxy2Tv0KP_0J_5s3Djfwi3f2piK3Cx2c8BBseF5Xy5KxY2kVQX-kUImPBrOHTGBxfOa4MNTSqylCOGQJDeKpBtGcoJ125ySLIRwHPABsWLKLAAjYv8EHAnOhBUYW72fi3bY7MDgTncSiMIjz7GkkTZ7x0JJFXNkf1UnNWUEWHd1jVBwkbkhoJ2p4VQqKSW-WTQlOwusgwqmsDWs_jVGjTTLdEyJXjDIxvh6i2ja0Z1zp0enmT2yCv5ZbFCEB3pJhm-Y9O25sMQRGpKYlEaa1VzJb4HHwGPbe2-azqrFpqug- - -woy_488MkS7IKYs0pPo5ocdBKjVN5zItwy1vj0QoS3eWNUgkZcnSMkXn4vuxfdo9GLrXVAqXGgDo_jrREZnsm9eHHSfHWR_ubf5_1VwCObBpGpRs8nUuyhrX533_iMdWoRiVoa3iC5FmZAl9UrYcZeXAVqoNW9hY3rJie2c8WIT33CrBv7zXbwUptotjuFmPI_FxPc_6qt0fk4x4RG_nD5iBVYsRhNMVTcrW5zFL6FtFOFSXwue5gYTs8GJLTAuU1eM3LKVXMWtD4wNclS5X3_w0z8-wWareDfQEKFxLjOisOqyOBeELBxxFQIw8Ay1raVSSbX2bX_otYxGTnpqznZKKF8hxL22ty8e-7ZIHgPArQTjdQA-VESQ_wR48ZdCFiZAJlhkRNun5AWXxRTFu0voKotKzxI88jxmNq6NrvfZY7CEyenysvEw9zZuTSVQc6oK_svnrtACWPhuMOxN1DlAVUB8243tRVRsHKibegsjhSJsC5AIP9vBLGRhIAByD6eGxYHrX09kpMImDkG_H_Q9BBaE642a73egVEoIpcoLaOh1YPglDE-ehomrrYG1TObYHy2JQcZ0i8AUlFkpIGIaioBNOot5C4aPKxZb-21v_Suezs4Z0bEgiE8c0D9AnM4saTDvXBMuNJLCvjlxzomoJ7R9Nl65DGQ_-izJSnJ7v5lTTkgEEUPXepYM0tKIB0R_BTsxy36VfAgRASnEyeQGxYvQIjsGGlnCzmlgP7_0W00]--></g></svg>