<?xml version="1.0" encoding="UTF-8" standalone="no"?><svg xmlns="http://www.w3.org/2000/svg" xmlns:xlink="http://www.w3.org/1999/xlink" contentStyleType="text/css" height="530px" preserveAspectRatio="none" style="width:1066px;height:530px;background:#FFFFFF;" version="1.1" viewBox="0 0 1066 530" width="1066px" zoomAndPan="magnify"><defs/><g><rect fill="#FFFFFF" height="370.2188" style="stroke:#181818;stroke-width:1.0;" width="10" x="192" y="87.5703"/><rect fill="#FFFFFF" height="277.1641" style="stroke:#181818;stroke-width:1.0;" width="10" x="405" y="143.2734"/><rect fill="#FFFFFF" height="191.1094" style="stroke:#181818;stroke-width:1.0;" width="10" x="618" y="198.9766"/><rect fill="#FFFFFF" height="130.4063" style="stroke:#181818;stroke-width:1.0;" width="10" x="831" y="229.3281"/><rect fill="#FFFFFF" height="30.3516" style="stroke:#181818;stroke-width:1.0;" width="10" x="972" y="285.0313"/><rect fill="none" height="325.8672" style="stroke:#000000;stroke-width:1.5;" width="965" x="95.5" y="102.5703"/><rect fill="none" height="172.1094" style="stroke:#000000;stroke-width:1.5;" width="716.5" x="334" y="158.2734"/><rect fill="none" height="79.0547" style="stroke:#000000;stroke-width:1.5;" width="263" x="777.5" y="244.3281"/><line style="stroke:#181818;stroke-width:0.5;stroke-dasharray:5.0,5.0;" x1="196.5" x2="196.5" y1="55.2188" y2="475.7891"/><line style="stroke:#181818;stroke-width:0.5;stroke-dasharray:5.0,5.0;" x1="410" x2="410" y1="55.2188" y2="475.7891"/><line style="stroke:#181818;stroke-width:0.5;stroke-dasharray:5.0,5.0;" x1="622.5" x2="622.5" y1="55.2188" y2="475.7891"/><line style="stroke:#181818;stroke-width:0.5;stroke-dasharray:5.0,5.0;" x1="835.5" x2="835.5" y1="55.2188" y2="475.7891"/><line style="stroke:#181818;stroke-width:0.5;stroke-dasharray:5.0,5.0;" x1="976.5" x2="976.5" y1="55.2188" y2="475.7891"/><rect fill="#E3E3E3" height="31.6094" rx="2.5" ry="2.5" style="stroke:#181818;stroke-width:0.5;" width="183" x="105.5" y="22.6094"/><text fill="#000000" font-family="sans-serif" font-size="14" lengthAdjust="spacing" textLength="169" x="112.5" y="44.1426">:AcceptRequestsController</text><rect fill="#E3E3E3" height="31.6094" rx="2.5" ry="2.5" style="stroke:#181818;stroke-width:0.5;" width="183" x="105.5" y="474.7891"/><text fill="#000000" font-family="sans-serif" font-size="14" lengthAdjust="spacing" textLength="169" x="112.5" y="496.3223">:AcceptRequestsController</text><rect fill="#E3E3E3" height="49.2188" rx="2.5" ry="2.5" style="stroke:#181818;stroke-width:0.5;" width="132" x="344" y="5"/><text fill="#000000" font-family="sans-serif" font-size="14" lengthAdjust="spacing" textLength="118" x="351" y="26.5332">agencyRepository:</text><text fill="#000000" font-family="sans-serif" font-size="14" lengthAdjust="spacing" textLength="115" x="352.5" y="44.1426">AgencyRepository</text><rect fill="#E3E3E3" height="49.2188" rx="2.5" ry="2.5" style="stroke:#181818;stroke-width:0.5;" width="132" x="344" y="474.7891"/><text fill="#000000" font-family="sans-serif" font-size="14" lengthAdjust="spacing" textLength="118" x="351" y="496.3223">agencyRepository:</text><text fill="#000000" font-family="sans-serif" font-size="14" lengthAdjust="spacing" textLength="115" x="352.5" y="513.9316">AgencyRepository</text><rect fill="#E3E3E3" height="49.2188" rx="2.5" ry="2.5" style="stroke:#181818;stroke-width:0.5;" width="69" x="588.5" y="5"/><text fill="#000000" font-family="sans-serif" font-size="14" lengthAdjust="spacing" textLength="46" x="600" y="26.5332">agency</text><text fill="#000000" font-family="sans-serif" font-size="14" lengthAdjust="spacing" textLength="55" x="595.5" y="44.1426">: Agency</text><rect fill="#E3E3E3" height="49.2188" rx="2.5" ry="2.5" style="stroke:#181818;stroke-width:0.5;" width="69" x="588.5" y="474.7891"/><text fill="#000000" font-family="sans-serif" font-size="14" lengthAdjust="spacing" textLength="46" x="600" y="496.3223">agency</text><text fill="#000000" font-family="sans-serif" font-size="14" lengthAdjust="spacing" textLength="55" x="595.5" y="513.9316">: Agency</text><rect fill="#E3E3E3" height="49.2188" rx="2.5" ry="2.5" style="stroke:#181818;stroke-width:0.5;" width="97" x="787.5" y="5"/><text fill="#000000" font-family="sans-serif" font-size="14" lengthAdjust="spacing" textLength="70" x="801" y="26.5332">requestList</text><text fill="#000000" font-family="sans-serif" font-size="14" lengthAdjust="spacing" textLength="83" x="794.5" y="44.1426">: RequestList</text><rect fill="#E3E3E3" height="49.2188" rx="2.5" ry="2.5" style="stroke:#181818;stroke-width:0.5;" width="97" x="787.5" y="474.7891"/><text fill="#000000" font-family="sans-serif" font-size="14" lengthAdjust="spacing" textLength="70" x="801" y="496.3223">requestList</text><text fill="#000000" font-family="sans-serif" font-size="14" lengthAdjust="spacing" textLength="83" x="794.5" y="513.9316">: RequestList</text><rect fill="#E3E3E3" height="49.2188" rx="2.5" ry="2.5" style="stroke:#181818;stroke-width:0.5;" width="75" x="939.5" y="5"/><text fill="#000000" font-family="sans-serif" font-size="14" lengthAdjust="spacing" textLength="48" x="953" y="26.5332">request</text><text fill="#000000" font-family="sans-serif" font-size="14" lengthAdjust="spacing" textLength="61" x="946.5" y="44.1426">: Request</text><rect fill="#E3E3E3" height="49.2188" rx="2.5" ry="2.5" style="stroke:#181818;stroke-width:0.5;" width="75" x="939.5" y="474.7891"/><text fill="#000000" font-family="sans-serif" font-size="14" lengthAdjust="spacing" textLength="48" x="953" y="496.3223">request</text><text fill="#000000" font-family="sans-serif" font-size="14" lengthAdjust="spacing" textLength="61" x="946.5" y="513.9316">: Request</text><rect fill="#FFFFFF" height="370.2188" style="stroke:#181818;stroke-width:1.0;" width="10" x="192" y="87.5703"/><rect fill="#FFFFFF" height="277.1641" style="stroke:#181818;stroke-width:1.0;" width="10" x="405" y="143.2734"/><rect fill="#FFFFFF" height="191.1094" style="stroke:#181818;stroke-width:1.0;" width="10" x="618" y="198.9766"/><rect fill="#FFFFFF" height="130.4063" style="stroke:#181818;stroke-width:1.0;" width="10" x="831" y="229.3281"/><rect fill="#FFFFFF" height="30.3516" style="stroke:#181818;stroke-width:1.0;" width="10" x="972" y="285.0313"/><polygon fill="#181818" points="180,83.5703,190,87.5703,180,91.5703,184,87.5703" style="stroke:#181818;stroke-width:1.0;"/><line style="stroke:#181818;stroke-width:1.0;" x1="0" x2="186" y1="87.5703" y2="87.5703"/><text fill="#000000" font-family="sans-serif" font-size="13" font-weight="bold" lengthAdjust="spacing" textLength="14" x="7" y="82.7139">26</text><text fill="#000000" font-family="sans-serif" font-size="13" lengthAdjust="spacing" textLength="155" x="25" y="82.7139">getRequestByID(requestId)</text><path d="M95.5,102.5703 L249.5,102.5703 L249.5,110.9219 L239.5,120.9219 L95.5,120.9219 L95.5,102.5703 " fill="#EEEEEE" style="stroke:#000000;stroke-width:1.5;"/><rect fill="none" height="325.8672" style="stroke:#000000;stroke-width:1.5;" width="965" x="95.5" y="102.5703"/><text fill="#000000" font-family="sans-serif" font-size="13" font-weight="bold" lengthAdjust="spacing" textLength="109" x="110.5" y="117.0654">Get request by ID</text><polygon fill="#181818" points="393,139.2734,403,143.2734,393,147.2734,397,143.2734" style="stroke:#181818;stroke-width:1.0;"/><line style="stroke:#181818;stroke-width:1.0;" x1="202" x2="399" y1="143.2734" y2="143.2734"/><text fill="#000000" font-family="sans-serif" font-size="13" font-weight="bold" lengthAdjust="spacing" textLength="25" x="209" y="138.417">26.1</text><text fill="#000000" font-family="sans-serif" font-size="13" lengthAdjust="spacing" textLength="155" x="238" y="138.417">getRequestByID(requestId)</text><path d="M334,158.2734 L407,158.2734 L407,166.625 L397,176.625 L334,176.625 L334,158.2734 " fill="#EEEEEE" style="stroke:#000000;stroke-width:1.5;"/><rect fill="none" height="172.1094" style="stroke:#000000;stroke-width:1.5;" width="716.5" x="334" y="158.2734"/><text fill="#000000" font-family="sans-serif" font-size="13" font-weight="bold" lengthAdjust="spacing" textLength="28" x="349" y="172.7686">loop</text><text fill="#000000" font-family="sans-serif" font-size="11" font-weight="bold" lengthAdjust="spacing" textLength="92" x="422" y="171.6924">[for all agencies]</text><polygon fill="#181818" points="606,194.9766,616,198.9766,606,202.9766,610,198.9766" style="stroke:#181818;stroke-width:1.0;"/><line style="stroke:#181818;stroke-width:1.0;" x1="415" x2="612" y1="198.9766" y2="198.9766"/><text fill="#000000" font-family="sans-serif" font-size="13" font-weight="bold" lengthAdjust="spacing" textLength="25" x="422" y="194.1201">26.2</text><text fill="#000000" font-family="sans-serif" font-size="13" lengthAdjust="spacing" textLength="155" x="451" y="194.1201">getRequestByID(requestId)</text><polygon fill="#181818" points="819,225.3281,829,229.3281,819,233.3281,823,229.3281" style="stroke:#181818;stroke-width:1.0;"/><line style="stroke:#181818;stroke-width:1.0;" x1="628" x2="825" y1="229.3281" y2="229.3281"/><text fill="#000000" font-family="sans-serif" font-size="13" font-weight="bold" lengthAdjust="spacing" textLength="25" x="635" y="224.4717">26.3</text><text fill="#000000" font-family="sans-serif" font-size="13" lengthAdjust="spacing" textLength="155" x="664" y="224.4717">getRequestByID(requestId)</text><path d="M777.5,244.3281 L850.5,244.3281 L850.5,252.6797 L840.5,262.6797 L777.5,262.6797 L777.5,244.3281 " fill="#EEEEEE" style="stroke:#000000;stroke-width:1.5;"/><rect fill="none" height="79.0547" style="stroke:#000000;stroke-width:1.5;" width="263" x="777.5" y="244.3281"/><text fill="#000000" font-family="sans-serif" font-size="13" font-weight="bold" lengthAdjust="spacing" textLength="28" x="792.5" y="258.8232">loop</text><text fill="#000000" font-family="sans-serif" font-size="11" font-weight="bold" lengthAdjust="spacing" textLength="170" x="865.5" y="257.7471">[for all requests of the agency]</text><polygon fill="#181818" points="960,281.0313,970,285.0313,960,289.0313,964,285.0313" style="stroke:#181818;stroke-width:1.0;"/><line style="stroke:#181818;stroke-width:1.0;stroke-dasharray:2.0,2.0;" x1="841" x2="966" y1="285.0313" y2="285.0313"/><text fill="#000000" font-family="sans-serif" font-size="13" font-weight="bold" lengthAdjust="spacing" textLength="25" x="848" y="280.1748">26.4</text><text fill="#000000" font-family="sans-serif" font-size="13" lengthAdjust="spacing" textLength="83" x="877" y="280.1748">hasSameId(id)</text><polygon fill="#181818" points="852,311.3828,842,315.3828,852,319.3828,848,315.3828" style="stroke:#181818;stroke-width:1.0;"/><line style="stroke:#181818;stroke-width:1.0;stroke-dasharray:2.0,2.0;" x1="846" x2="976" y1="315.3828" y2="315.3828"/><text fill="#000000" font-family="sans-serif" font-size="13" font-weight="bold" lengthAdjust="spacing" textLength="25" x="858" y="310.5264">26.5</text><text fill="#000000" font-family="sans-serif" font-size="13" lengthAdjust="spacing" textLength="53" x="887" y="310.5264">true/false</text><polygon fill="#181818" points="639,355.7344,629,359.7344,639,363.7344,635,359.7344" style="stroke:#181818;stroke-width:1.0;"/><line style="stroke:#181818;stroke-width:1.0;stroke-dasharray:2.0,2.0;" x1="633" x2="835" y1="359.7344" y2="359.7344"/><text fill="#000000" font-family="sans-serif" font-size="13" font-weight="bold" lengthAdjust="spacing" textLength="25" x="645" y="354.8779">26.6</text><text fill="#000000" font-family="sans-serif" font-size="13" lengthAdjust="spacing" textLength="43" x="674" y="354.8779">request</text><polygon fill="#181818" points="426,386.0859,416,390.0859,426,394.0859,422,390.0859" style="stroke:#181818;stroke-width:1.0;"/><line style="stroke:#181818;stroke-width:1.0;stroke-dasharray:2.0,2.0;" x1="420" x2="622" y1="390.0859" y2="390.0859"/><text fill="#000000" font-family="sans-serif" font-size="13" font-weight="bold" lengthAdjust="spacing" textLength="25" x="432" y="385.2295">26.7</text><text fill="#000000" font-family="sans-serif" font-size="13" lengthAdjust="spacing" textLength="43" x="461" y="385.2295">request</text><polygon fill="#181818" points="213,416.4375,203,420.4375,213,424.4375,209,420.4375" style="stroke:#181818;stroke-width:1.0;"/><line style="stroke:#181818;stroke-width:1.0;stroke-dasharray:2.0,2.0;" x1="207" x2="409" y1="420.4375" y2="420.4375"/><text fill="#000000" font-family="sans-serif" font-size="13" font-weight="bold" lengthAdjust="spacing" textLength="25" x="219" y="415.5811">26.8</text><text fill="#000000" font-family="sans-serif" font-size="13" lengthAdjust="spacing" textLength="43" x="248" y="415.5811">request</text><polygon fill="#181818" points="11,453.7891,1,457.7891,11,461.7891,7,457.7891" style="stroke:#181818;stroke-width:1.0;"/><line style="stroke:#181818;stroke-width:1.0;stroke-dasharray:2.0,2.0;" x1="5" x2="196" y1="457.7891" y2="457.7891"/><text fill="#000000" font-family="sans-serif" font-size="13" font-weight="bold" lengthAdjust="spacing" textLength="14" x="17" y="452.9326">27</text><text fill="#000000" font-family="sans-serif" font-size="13" lengthAdjust="spacing" textLength="43" x="35" y="452.9326">request</text><!--SRC=[ZLFFJy8m5BxthtZXX0SqUj1aCIO8X90G4m4F9bpAzjWQjdQsdMR_lLkxuTeDjPUjVT_tlT_gn7XE9SqW4ro4YHGPWfO54dMsv3GyqHYtkamH98QQyZZj0bH28_75U0n7cYeaX5JlceKifrp3A9Y68UPwWny5AgrcWcifqXJb2AY2sMwpTl6LBnwM6yo5Obh8CjZpgVTacFxZaCgU1mtEKfQBbzcx2vGshZLJkaPlVgw6Kjth_q5E1s-nYzUtnNPN5O0MMl0YEw24kti2rPaycLG3YB4jnNEvceyRgLLqPM0qrEoJQhHr8R4KHGvBrD3Wu532QkuvkBubXbnpQaT-PVxjj5TIOqw5oE4e9D0q1LDNXigQwkEJJ0Icq7_vTNtRtfmDHjgyrO9D6tvJT9XEp0r8WJY2Jj3cKBe49vQswJr4Ou197PBjTW09LLkQuIeQCpyCLxKT3nWuZT4gjydMctXZbyh7HzZJxPgHHwJz4Z_ojZjDNOYlrys-RS7WM5qGwBQoFntdJRZ4xWrXbGIOJN36_i4c_3YP3EXr1SqgVGC0]--></g></svg>