<?xml version="1.0" encoding="UTF-8" standalone="no"?><svg xmlns="http://www.w3.org/2000/svg" xmlns:xlink="http://www.w3.org/1999/xlink" contentStyleType="text/css" height="875px" preserveAspectRatio="none" style="width:856px;height:875px;background:#FFFFFF;" version="1.1" viewBox="0 0 856 875" width="856px" zoomAndPan="magnify"><defs/><g><rect fill="#FFFFFF" height="716.1953" style="stroke:#181818;stroke-width:1.0;" width="10" x="140" y="87.5703"/><rect fill="#FFFFFF" height="598.1406" style="stroke:#181818;stroke-width:1.0;" width="10" x="303" y="143.2734"/><rect fill="#FFFFFF" height="344.5156" style="stroke:#181818;stroke-width:1.0;" width="10" x="308" y="267.1953"/><rect fill="#FFFFFF" height="30.3516" style="stroke:#181818;stroke-width:1.0;" width="10" x="502" y="302.5469"/><rect fill="#FFFFFF" height="30.3516" style="stroke:#181818;stroke-width:1.0;" width="10" x="502" y="363.25"/><rect fill="#FFFFFF" height="30.3516" style="stroke:#181818;stroke-width:1.0;" width="10" x="502" y="423.9531"/><rect fill="#FFFFFF" height="30.3516" style="stroke:#181818;stroke-width:1.0;" width="10" x="502" y="484.6563"/><rect fill="#FFFFFF" height="30" style="stroke:#181818;stroke-width:1.0;" width="10" x="615" y="649.0625"/><rect fill="#FFFFFF" height="30" style="stroke:#181818;stroke-width:1.0;" width="10" x="777" y="545.3594"/><rect fill="none" height="671.8438" style="stroke:#000000;stroke-width:1.5;" width="807" x="43.5" y="102.5703"/><rect fill="none" height="493.5703" style="stroke:#000000;stroke-width:1.5;" width="604" x="236.5" y="218.4922"/><line style="stroke:#181818;stroke-width:0.5;stroke-dasharray:5.0,5.0;" x1="144.5" x2="144.5" y1="55.2188" y2="821.7656"/><line style="stroke:#181818;stroke-width:0.5;stroke-dasharray:5.0,5.0;" x1="307.5" x2="307.5" y1="55.2188" y2="821.7656"/><line style="stroke:#181818;stroke-width:0.5;stroke-dasharray:5.0,5.0;" x1="506.5" x2="506.5" y1="55.2188" y2="821.7656"/><line style="stroke:#181818;stroke-width:0.5;stroke-dasharray:5.0,5.0;" x1="619.5" x2="619.5" y1="191.3828" y2="821.7656"/><line style="stroke:#181818;stroke-width:0.5;stroke-dasharray:5.0,5.0;" x1="781.5" x2="781.5" y1="55.2188" y2="821.7656"/><rect fill="#E3E3E3" height="31.6094" rx="2.5" ry="2.5" style="stroke:#181818;stroke-width:0.5;" width="183" x="53.5" y="22.6094"/><text fill="#000000" font-family="sans-serif" font-size="14" lengthAdjust="spacing" textLength="169" x="60.5" y="44.1426">:AcceptRequestsController</text><rect fill="#E3E3E3" height="31.6094" rx="2.5" ry="2.5" style="stroke:#181818;stroke-width:0.5;" width="183" x="53.5" y="820.7656"/><text fill="#000000" font-family="sans-serif" font-size="14" lengthAdjust="spacing" textLength="169" x="60.5" y="842.2988">:AcceptRequestsController</text><rect fill="#E3E3E3" height="49.2188" rx="2.5" ry="2.5" style="stroke:#181818;stroke-width:0.5;" width="123" x="246.5" y="5"/><text fill="#000000" font-family="sans-serif" font-size="14" lengthAdjust="spacing" textLength="96" x="260" y="26.5332">requestMapper</text><text fill="#000000" font-family="sans-serif" font-size="14" lengthAdjust="spacing" textLength="109" x="253.5" y="44.1426">: RequestMapper</text><rect fill="#E3E3E3" height="49.2188" rx="2.5" ry="2.5" style="stroke:#181818;stroke-width:0.5;" width="123" x="246.5" y="820.7656"/><text fill="#000000" font-family="sans-serif" font-size="14" lengthAdjust="spacing" textLength="96" x="260" y="842.2988">requestMapper</text><text fill="#000000" font-family="sans-serif" font-size="14" lengthAdjust="spacing" textLength="109" x="253.5" y="859.9082">: RequestMapper</text><rect fill="#E3E3E3" height="49.2188" rx="2.5" ry="2.5" style="stroke:#181818;stroke-width:0.5;" width="75" x="469.5" y="5"/><text fill="#000000" font-family="sans-serif" font-size="14" lengthAdjust="spacing" textLength="48" x="483" y="26.5332">request</text><text fill="#000000" font-family="sans-serif" font-size="14" lengthAdjust="spacing" textLength="61" x="476.5" y="44.1426">: Request</text><rect fill="#E3E3E3" height="49.2188" rx="2.5" ry="2.5" style="stroke:#181818;stroke-width:0.5;" width="75" x="469.5" y="820.7656"/><text fill="#000000" font-family="sans-serif" font-size="14" lengthAdjust="spacing" textLength="48" x="483" y="842.2988">request</text><text fill="#000000" font-family="sans-serif" font-size="14" lengthAdjust="spacing" textLength="61" x="476.5" y="859.9082">: Request</text><rect fill="#E3E3E3" height="49.2188" rx="2.5" ry="2.5" style="stroke:#181818;stroke-width:0.5;" width="131" x="554.5" y="820.7656"/><text fill="#000000" font-family="sans-serif" font-size="14" lengthAdjust="spacing" textLength="92" x="574" y="842.2988">requestListDto</text><text fill="#000000" font-family="sans-serif" font-size="14" lengthAdjust="spacing" textLength="117" x="561.5" y="859.9082">:List&lt;RequestDto&gt;</text><rect fill="#E3E3E3" height="49.2188" rx="2.5" ry="2.5" style="stroke:#181818;stroke-width:0.5;" width="97" x="733.5" y="5"/><text fill="#000000" font-family="sans-serif" font-size="14" lengthAdjust="spacing" textLength="70" x="747" y="26.5332">requestDto</text><text fill="#000000" font-family="sans-serif" font-size="14" lengthAdjust="spacing" textLength="83" x="740.5" y="44.1426">: RequestDto</text><rect fill="#E3E3E3" height="49.2188" rx="2.5" ry="2.5" style="stroke:#181818;stroke-width:0.5;" width="97" x="733.5" y="820.7656"/><text fill="#000000" font-family="sans-serif" font-size="14" lengthAdjust="spacing" textLength="70" x="747" y="842.2988">requestDto</text><text fill="#000000" font-family="sans-serif" font-size="14" lengthAdjust="spacing" textLength="83" x="740.5" y="859.9082">: RequestDto</text><rect fill="#FFFFFF" height="716.1953" style="stroke:#181818;stroke-width:1.0;" width="10" x="140" y="87.5703"/><rect fill="#FFFFFF" height="598.1406" style="stroke:#181818;stroke-width:1.0;" width="10" x="303" y="143.2734"/><rect fill="#FFFFFF" height="344.5156" style="stroke:#181818;stroke-width:1.0;" width="10" x="308" y="267.1953"/><rect fill="#FFFFFF" height="30.3516" style="stroke:#181818;stroke-width:1.0;" width="10" x="502" y="302.5469"/><rect fill="#FFFFFF" height="30.3516" style="stroke:#181818;stroke-width:1.0;" width="10" x="502" y="363.25"/><rect fill="#FFFFFF" height="30.3516" style="stroke:#181818;stroke-width:1.0;" width="10" x="502" y="423.9531"/><rect fill="#FFFFFF" height="30.3516" style="stroke:#181818;stroke-width:1.0;" width="10" x="502" y="484.6563"/><rect fill="#FFFFFF" height="30" style="stroke:#181818;stroke-width:1.0;" width="10" x="615" y="649.0625"/><rect fill="#FFFFFF" height="30" style="stroke:#181818;stroke-width:1.0;" width="10" x="777" y="545.3594"/><polygon fill="#181818" points="128,83.5703,138,87.5703,128,91.5703,132,87.5703" style="stroke:#181818;stroke-width:1.0;"/><line style="stroke:#181818;stroke-width:1.0;" x1="0" x2="134" y1="87.5703" y2="87.5703"/><text fill="#000000" font-family="sans-serif" font-size="13" font-weight="bold" lengthAdjust="spacing" textLength="14" x="7" y="82.7139">15</text><text fill="#000000" font-family="sans-serif" font-size="13" lengthAdjust="spacing" textLength="103" x="25" y="82.7139">toDto(requestList)</text><path d="M43.5,102.5703 L257.5,102.5703 L257.5,110.9219 L247.5,120.9219 L43.5,120.9219 L43.5,102.5703 " fill="#EEEEEE" style="stroke:#000000;stroke-width:1.5;"/><rect fill="none" height="671.8438" style="stroke:#000000;stroke-width:1.5;" width="807" x="43.5" y="102.5703"/><text fill="#000000" font-family="sans-serif" font-size="13" font-weight="bold" lengthAdjust="spacing" textLength="169" x="58.5" y="117.0654">Convert request list to DTO</text><polygon fill="#181818" points="291,139.2734,301,143.2734,291,147.2734,295,143.2734" style="stroke:#181818;stroke-width:1.0;"/><line style="stroke:#181818;stroke-width:1.0;" x1="150" x2="297" y1="143.2734" y2="143.2734"/><text fill="#000000" font-family="sans-serif" font-size="13" font-weight="bold" lengthAdjust="spacing" textLength="25" x="157" y="138.417">15.1</text><text fill="#000000" font-family="sans-serif" font-size="13" lengthAdjust="spacing" textLength="103" x="186" y="138.417">toDto(requestList)</text><polygon fill="#181818" points="542.5,169.625,552.5,173.625,542.5,177.625,546.5,173.625" style="stroke:#181818;stroke-width:1.0;"/><line style="stroke:#181818;stroke-width:1.0;" x1="313" x2="548.5" y1="173.625" y2="173.625"/><text fill="#000000" font-family="sans-serif" font-size="13" font-weight="bold" lengthAdjust="spacing" textLength="25" x="320" y="168.7686">15.2</text><text fill="#000000" font-family="sans-serif" font-size="13" lengthAdjust="spacing" textLength="44" x="349" y="168.7686">create()</text><rect fill="#E3E3E3" height="49.2188" rx="2.5" ry="2.5" style="stroke:#181818;stroke-width:0.5;" width="131" x="554.5" y="151.2734"/><text fill="#000000" font-family="sans-serif" font-size="14" lengthAdjust="spacing" textLength="92" x="574" y="172.8066">requestListDto</text><text fill="#000000" font-family="sans-serif" font-size="14" lengthAdjust="spacing" textLength="117" x="561.5" y="190.416">:List&lt;RequestDto&gt;</text><path d="M236.5,218.4922 L309.5,218.4922 L309.5,226.8438 L299.5,236.8438 L236.5,236.8438 L236.5,218.4922 " fill="#EEEEEE" style="stroke:#000000;stroke-width:1.5;"/><rect fill="none" height="493.5703" style="stroke:#000000;stroke-width:1.5;" width="604" x="236.5" y="218.4922"/><text fill="#000000" font-family="sans-serif" font-size="13" font-weight="bold" lengthAdjust="spacing" textLength="28" x="251.5" y="232.9873">loop</text><text fill="#000000" font-family="sans-serif" font-size="11" font-weight="bold" lengthAdjust="spacing" textLength="100" x="324.5" y="231.9111">[for each request]</text><line style="stroke:#181818;stroke-width:1.0;" x1="313" x2="360" y1="254.1953" y2="254.1953"/><line style="stroke:#181818;stroke-width:1.0;" x1="360" x2="360" y1="254.1953" y2="267.1953"/><line style="stroke:#181818;stroke-width:1.0;" x1="319" x2="360" y1="267.1953" y2="267.1953"/><polygon fill="#181818" points="329,263.1953,319,267.1953,329,271.1953,325,267.1953" style="stroke:#181818;stroke-width:1.0;"/><text fill="#000000" font-family="sans-serif" font-size="13" font-weight="bold" lengthAdjust="spacing" textLength="25" x="325" y="249.3389">15.3</text><text fill="#000000" font-family="sans-serif" font-size="13" lengthAdjust="spacing" textLength="82" x="354" y="249.3389">toDto(request)</text><polygon fill="#181818" points="490,298.5469,500,302.5469,490,306.5469,494,302.5469" style="stroke:#181818;stroke-width:1.0;"/><line style="stroke:#181818;stroke-width:1.0;" x1="318" x2="496" y1="302.5469" y2="302.5469"/><text fill="#000000" font-family="sans-serif" font-size="13" font-weight="bold" lengthAdjust="spacing" textLength="25" x="325" y="297.6904">15.4</text><text fill="#000000" font-family="sans-serif" font-size="13" lengthAdjust="spacing" textLength="131" x="354" y="297.6904">getPropertyAttributes()</text><polygon fill="#181818" points="329,328.8984,319,332.8984,329,336.8984,325,332.8984" style="stroke:#181818;stroke-width:1.0;"/><line style="stroke:#181818;stroke-width:1.0;stroke-dasharray:2.0,2.0;" x1="323" x2="506" y1="332.8984" y2="332.8984"/><text fill="#000000" font-family="sans-serif" font-size="13" font-weight="bold" lengthAdjust="spacing" textLength="25" x="335" y="328.042">15.5</text><text fill="#000000" font-family="sans-serif" font-size="13" lengthAdjust="spacing" textLength="103" x="364" y="328.042">propertyAttributes</text><polygon fill="#181818" points="490,359.25,500,363.25,490,367.25,494,363.25" style="stroke:#181818;stroke-width:1.0;"/><line style="stroke:#181818;stroke-width:1.0;" x1="318" x2="496" y1="363.25" y2="363.25"/><text fill="#000000" font-family="sans-serif" font-size="13" font-weight="bold" lengthAdjust="spacing" textLength="25" x="325" y="358.3936">15.6</text><text fill="#000000" font-family="sans-serif" font-size="13" lengthAdjust="spacing" textLength="136" x="354" y="358.3936">getBusinessAttributes()</text><polygon fill="#181818" points="329,389.6016,319,393.6016,329,397.6016,325,393.6016" style="stroke:#181818;stroke-width:1.0;"/><line style="stroke:#181818;stroke-width:1.0;stroke-dasharray:2.0,2.0;" x1="323" x2="506" y1="393.6016" y2="393.6016"/><text fill="#000000" font-family="sans-serif" font-size="13" font-weight="bold" lengthAdjust="spacing" textLength="25" x="335" y="388.7451">15.7</text><text fill="#000000" font-family="sans-serif" font-size="13" lengthAdjust="spacing" textLength="108" x="364" y="388.7451">businessAttributes</text><polygon fill="#181818" points="490,419.9531,500,423.9531,490,427.9531,494,423.9531" style="stroke:#181818;stroke-width:1.0;"/><line style="stroke:#181818;stroke-width:1.0;" x1="318" x2="496" y1="423.9531" y2="423.9531"/><text fill="#000000" font-family="sans-serif" font-size="13" font-weight="bold" lengthAdjust="spacing" textLength="25" x="325" y="419.0967">15.8</text><text fill="#000000" font-family="sans-serif" font-size="13" lengthAdjust="spacing" textLength="101" x="354" y="419.0967">getRequestDate()</text><polygon fill="#181818" points="329,450.3047,319,454.3047,329,458.3047,325,454.3047" style="stroke:#181818;stroke-width:1.0;"/><line style="stroke:#181818;stroke-width:1.0;stroke-dasharray:2.0,2.0;" x1="323" x2="506" y1="454.3047" y2="454.3047"/><text fill="#000000" font-family="sans-serif" font-size="13" font-weight="bold" lengthAdjust="spacing" textLength="25" x="335" y="449.4482">15.9</text><text fill="#000000" font-family="sans-serif" font-size="13" lengthAdjust="spacing" textLength="70" x="364" y="449.4482">requestDate</text><polygon fill="#181818" points="490,480.6563,500,484.6563,490,488.6563,494,484.6563" style="stroke:#181818;stroke-width:1.0;"/><line style="stroke:#181818;stroke-width:1.0;" x1="318" x2="496" y1="484.6563" y2="484.6563"/><text fill="#000000" font-family="sans-serif" font-size="13" font-weight="bold" lengthAdjust="spacing" textLength="32" x="325" y="479.7998">15.10</text><text fill="#000000" font-family="sans-serif" font-size="13" lengthAdjust="spacing" textLength="86" x="361" y="479.7998">getRequestID()</text><polygon fill="#181818" points="329,511.0078,319,515.0078,329,519.0078,325,515.0078" style="stroke:#181818;stroke-width:1.0;"/><line style="stroke:#181818;stroke-width:1.0;stroke-dasharray:2.0,2.0;" x1="323" x2="506" y1="515.0078" y2="515.0078"/><text fill="#000000" font-family="sans-serif" font-size="13" font-weight="bold" lengthAdjust="spacing" textLength="32" x="335" y="510.1514">15.11</text><text fill="#000000" font-family="sans-serif" font-size="13" lengthAdjust="spacing" textLength="55" x="371" y="510.1514">requestID</text><polygon fill="#181818" points="765,541.3594,775,545.3594,765,549.3594,769,545.3594" style="stroke:#181818;stroke-width:1.0;"/><line style="stroke:#181818;stroke-width:1.0;" x1="318" x2="771" y1="545.3594" y2="545.3594"/><text fill="#000000" font-family="sans-serif" font-size="13" font-weight="bold" lengthAdjust="spacing" textLength="32" x="325" y="540.5029">15.12</text><text fill="#000000" font-family="sans-serif" font-size="13" lengthAdjust="spacing" textLength="404" x="361" y="540.5029">create(propertyAttributes, businessAttributes, requestDate, requestID)</text><line style="stroke:#181818;stroke-width:1.0;stroke-dasharray:2.0,2.0;" x1="318" x2="360" y1="610.7109" y2="610.7109"/><line style="stroke:#181818;stroke-width:1.0;stroke-dasharray:2.0,2.0;" x1="360" x2="360" y1="610.7109" y2="623.7109"/><line style="stroke:#181818;stroke-width:1.0;stroke-dasharray:2.0,2.0;" x1="313" x2="360" y1="623.7109" y2="623.7109"/><polygon fill="#181818" points="323,619.7109,313,623.7109,323,627.7109,319,623.7109" style="stroke:#181818;stroke-width:1.0;"/><text fill="#000000" font-family="sans-serif" font-size="13" font-weight="bold" lengthAdjust="spacing" textLength="32" x="325" y="605.8545">15.13</text><text fill="#000000" font-family="sans-serif" font-size="13" lengthAdjust="spacing" textLength="63" x="361" y="605.8545">requestDto</text><polygon fill="#181818" points="603,645.0625,613,649.0625,603,653.0625,607,649.0625" style="stroke:#181818;stroke-width:1.0;"/><line style="stroke:#181818;stroke-width:1.0;" x1="313" x2="609" y1="649.0625" y2="649.0625"/><text fill="#000000" font-family="sans-serif" font-size="13" font-weight="bold" lengthAdjust="spacing" textLength="32" x="320" y="644.2061">15.14</text><text fill="#000000" font-family="sans-serif" font-size="13" lengthAdjust="spacing" textLength="92" x="356" y="644.2061">add(requestDto)</text><polygon fill="#181818" points="161,737.4141,151,741.4141,161,745.4141,157,741.4141" style="stroke:#181818;stroke-width:1.0;"/><line style="stroke:#181818;stroke-width:1.0;stroke-dasharray:2.0,2.0;" x1="155" x2="307" y1="741.4141" y2="741.4141"/><text fill="#000000" font-family="sans-serif" font-size="13" font-weight="bold" lengthAdjust="spacing" textLength="32" x="167" y="736.5576">15.15</text><text fill="#000000" font-family="sans-serif" font-size="13" lengthAdjust="spacing" textLength="84" x="203" y="736.5576">requestListDto</text><polygon fill="#181818" points="11,799.7656,1,803.7656,11,807.7656,7,803.7656" style="stroke:#181818;stroke-width:1.0;"/><line style="stroke:#181818;stroke-width:1.0;stroke-dasharray:2.0,2.0;" x1="5" x2="144" y1="803.7656" y2="803.7656"/><text fill="#000000" font-family="sans-serif" font-size="13" font-weight="bold" lengthAdjust="spacing" textLength="14" x="17" y="798.9092">16</text><text fill="#000000" font-family="sans-serif" font-size="13" lengthAdjust="spacing" textLength="84" x="35" y="798.9092">requestListDto</text><!--SRC=[fLH1Jy8m5BxtLxnuGWCc7lH0Z0cA1nAC2dZpKhhdM1njRTyq9lnuktPZWsrHX0lRw_TzxzlNzjdtH6fk-1hMIYgnCcgDG2P3PhShcejt7kESlbC4WuAuZDCwmAvufBuI6SCRJoqonboT4f5eBWbEXYCXKDCCFpAqPE-K9AFI5Cq9S0jtYzbq5sy2y85hZUPL3c5MBtYIguItLcQD4z3tpo_tyqKhTffO6fDobFpfkg2voar9dKxcY_7YiPKTc52nIdVkaJ6UaPBPUea6BYuPkD_Wnd_l44WvHA_cuTIlSq799oSCgR3Og4o32-mJ3K61XjJ1dG3afdPxd5zubPoSjzgc1Byth1BrzOgQwsn3E3jpKiAWO_HE0p9LIiERCe1Sh4gFBHfTNWxpaU-ZKuYHdenoPVeU4PbacH7QthvKiUr1gE0EzhpeXeo7HzWXq-ddDhE9H6kFzBDioFpJJtacmrOTRiHK_ECSJCR7z9-C3-ZkxrrrGfjxss_9jr__r7xLjtamyqkzRwQuwdjUEh9ivV_XsZa97aMzIgOPQ3cbcc7LLpQRZVz76RLvzeDZQxSOZTsMIqNcvC3FgfrnTEK1S3qO54ElHRSk76RU3m00]--></g></svg>