<?xml version="1.0" encoding="UTF-8" standalone="no"?><svg xmlns="http://www.w3.org/2000/svg" xmlns:xlink="http://www.w3.org/1999/xlink" contentStyleType="text/css" height="1107px" preserveAspectRatio="none" style="width:1853px;height:1107px;background:#FFFFFF;" version="1.1" viewBox="0 0 1853 1107" width="1853px" zoomAndPan="magnify"><defs/><g><!--class ApplicationSession--><g id="elem_ApplicationSession"><rect codeLine="11" fill="#F1F1F1" height="83.2188" id="ApplicationSession" rx="2.5" ry="2.5" style="stroke:#181818;stroke-width:0.5;" width="151" x="379" y="257"/><ellipse cx="394" cy="273" fill="#ADD1B2" rx="11" ry="11" style="stroke:#181818;stroke-width:1.0;"/><path d="M396.7656,268.875 Q396.9219,268.6563 397.1094,268.5469 Q397.2969,268.4375 397.5156,268.4375 Q397.8906,268.4375 398.125,268.7031 Q398.3594,268.9531 398.3594,269.5625 L398.3594,271.0156 Q398.3594,271.625 398.125,271.8906 Q397.8906,272.1563 397.5156,272.1563 Q397.1719,272.1563 396.9688,271.9531 Q396.7656,271.7656 396.6563,271.25 Q396.6094,270.8906 396.4219,270.7031 Q396.0938,270.3281 395.4844,270.1094 Q394.875,269.8906 394.25,269.8906 Q393.4844,269.8906 392.8438,270.2188 Q392.2188,270.5469 391.7188,271.2969 Q391.2344,272.0469 391.2344,273.0781 L391.2344,274.1719 Q391.2344,275.4063 392.125,276.2344 Q393.0156,277.0469 394.6094,277.0469 Q395.5469,277.0469 396.2031,276.7969 Q396.5938,276.6406 397.0156,276.2031 Q397.2813,275.9375 397.4219,275.8594 Q397.5781,275.7813 397.7813,275.7813 Q398.1094,275.7813 398.3594,276.0469 Q398.625,276.2969 398.625,276.6406 Q398.625,276.9844 398.2813,277.3906 Q397.7813,277.9688 396.9844,278.2969 Q395.9063,278.75 394.6094,278.75 Q393.0938,278.75 391.8906,278.125 Q390.9063,277.625 390.2188,276.5625 Q389.5313,275.4844 389.5313,274.2031 L389.5313,273.0469 Q389.5313,271.7188 390.1406,270.5781 Q390.7656,269.4219 391.8594,268.8125 Q392.9531,268.1875 394.1875,268.1875 Q394.9219,268.1875 395.5625,268.3594 Q396.2188,268.5156 396.7656,268.875 Z " fill="#000000"/><text fill="#000000" font-family="sans-serif" font-size="14" lengthAdjust="spacing" textLength="119" x="408" y="278.7285">ApplicationSession</text><line style="stroke:#181818;stroke-width:0.5;" x1="380" x2="529" y1="289" y2="289"/><line style="stroke:#181818;stroke-width:0.5;" x1="380" x2="529" y1="297" y2="297"/><text fill="#000000" font-family="sans-serif" font-size="14" lengthAdjust="spacing" textLength="128" x="385" y="315.5332">+static getInstance()</text><text fill="#000000" font-family="sans-serif" font-size="14" lengthAdjust="spacing" textLength="136" x="385" y="333.1426">+getCurrentSession()</text></g><!--class UserSession--><g id="elem_UserSession"><rect codeLine="16" fill="#F1F1F1" height="65.6094" id="UserSession" rx="2.5" ry="2.5" style="stroke:#181818;stroke-width:0.5;" width="113" x="510" y="544.5"/><ellipse cx="525.9" cy="560.5" fill="#ADD1B2" rx="11" ry="11" style="stroke:#181818;stroke-width:1.0;"/><path d="M528.6656,556.375 Q528.8219,556.1563 529.0094,556.0469 Q529.1969,555.9375 529.4156,555.9375 Q529.7906,555.9375 530.025,556.2031 Q530.2594,556.4531 530.2594,557.0625 L530.2594,558.5156 Q530.2594,559.125 530.025,559.3906 Q529.7906,559.6563 529.4156,559.6563 Q529.0719,559.6563 528.8688,559.4531 Q528.6656,559.2656 528.5563,558.75 Q528.5094,558.3906 528.3219,558.2031 Q527.9938,557.8281 527.3844,557.6094 Q526.775,557.3906 526.15,557.3906 Q525.3844,557.3906 524.7438,557.7188 Q524.1188,558.0469 523.6188,558.7969 Q523.1344,559.5469 523.1344,560.5781 L523.1344,561.6719 Q523.1344,562.9063 524.025,563.7344 Q524.9156,564.5469 526.5094,564.5469 Q527.4469,564.5469 528.1031,564.2969 Q528.4938,564.1406 528.9156,563.7031 Q529.1813,563.4375 529.3219,563.3594 Q529.4781,563.2813 529.6813,563.2813 Q530.0094,563.2813 530.2594,563.5469 Q530.525,563.7969 530.525,564.1406 Q530.525,564.4844 530.1813,564.8906 Q529.6813,565.4688 528.8844,565.7969 Q527.8063,566.25 526.5094,566.25 Q524.9938,566.25 523.7906,565.625 Q522.8063,565.125 522.1188,564.0625 Q521.4313,562.9844 521.4313,561.7031 L521.4313,560.5469 Q521.4313,559.2188 522.0406,558.0781 Q522.6656,556.9219 523.7594,556.3125 Q524.8531,555.6875 526.0875,555.6875 Q526.8219,555.6875 527.4625,555.8594 Q528.1188,556.0156 528.6656,556.375 Z " fill="#000000"/><text fill="#000000" font-family="sans-serif" font-size="14" lengthAdjust="spacing" textLength="79" x="540.1" y="566.2285">UserSession</text><line style="stroke:#181818;stroke-width:0.5;" x1="511" x2="622" y1="576.5" y2="576.5"/><line style="stroke:#181818;stroke-width:0.5;" x1="511" x2="622" y1="584.5" y2="584.5"/><text fill="#000000" font-family="sans-serif" font-size="14" lengthAdjust="spacing" textLength="101" x="516" y="603.0332">+getUserEmail()</text></g><!--class CommissionTypeRepository--><g id="elem_CommissionTypeRepository"><rect codeLine="24" fill="#F1F1F1" height="83.2188" id="CommissionTypeRepository" rx="2.5" ry="2.5" style="stroke:#181818;stroke-width:0.5;" width="322" x="1293.5" y="423"/><ellipse cx="1362.25" cy="439" fill="#ADD1B2" rx="11" ry="11" style="stroke:#181818;stroke-width:1.0;"/><path d="M1365.0156,434.875 Q1365.1719,434.6563 1365.3594,434.5469 Q1365.5469,434.4375 1365.7656,434.4375 Q1366.1406,434.4375 1366.375,434.7031 Q1366.6094,434.9531 1366.6094,435.5625 L1366.6094,437.0156 Q1366.6094,437.625 1366.375,437.8906 Q1366.1406,438.1563 1365.7656,438.1563 Q1365.4219,438.1563 1365.2188,437.9531 Q1365.0156,437.7656 1364.9063,437.25 Q1364.8594,436.8906 1364.6719,436.7031 Q1364.3438,436.3281 1363.7344,436.1094 Q1363.125,435.8906 1362.5,435.8906 Q1361.7344,435.8906 1361.0938,436.2188 Q1360.4688,436.5469 1359.9688,437.2969 Q1359.4844,438.0469 1359.4844,439.0781 L1359.4844,440.1719 Q1359.4844,441.4063 1360.375,442.2344 Q1361.2656,443.0469 1362.8594,443.0469 Q1363.7969,443.0469 1364.4531,442.7969 Q1364.8438,442.6406 1365.2656,442.2031 Q1365.5313,441.9375 1365.6719,441.8594 Q1365.8281,441.7813 1366.0313,441.7813 Q1366.3594,441.7813 1366.6094,442.0469 Q1366.875,442.2969 1366.875,442.6406 Q1366.875,442.9844 1366.5313,443.3906 Q1366.0313,443.9688 1365.2344,444.2969 Q1364.1563,444.75 1362.8594,444.75 Q1361.3438,444.75 1360.1406,444.125 Q1359.1563,443.625 1358.4688,442.5625 Q1357.7813,441.4844 1357.7813,440.2031 L1357.7813,439.0469 Q1357.7813,437.7188 1358.3906,436.5781 Q1359.0156,435.4219 1360.1094,434.8125 Q1361.2031,434.1875 1362.4375,434.1875 Q1363.1719,434.1875 1363.8125,434.3594 Q1364.4688,434.5156 1365.0156,434.875 Z " fill="#000000"/><text fill="#000000" font-family="sans-serif" font-size="14" lengthAdjust="spacing" textLength="176" x="1382.75" y="444.7285">CommissionTypeRepository</text><line style="stroke:#181818;stroke-width:0.5;" x1="1294.5" x2="1614.5" y1="455" y2="455"/><line style="stroke:#181818;stroke-width:0.5;" x1="1294.5" x2="1614.5" y1="463" y2="463"/><text fill="#000000" font-family="sans-serif" font-size="14" lengthAdjust="spacing" textLength="168" x="1299.5" y="481.5332">+getCommissionTypeList()</text><text fill="#000000" font-family="sans-serif" font-size="14" lengthAdjust="spacing" textLength="310" x="1299.5" y="499.1426">+getCommissionTypeByDesignation(designation)</text></g><!--class AgencyRepository--><g id="elem_AgencyRepository"><rect codeLine="29" fill="#F1F1F1" height="65.6094" id="AgencyRepository" rx="2.5" ry="2.5" style="stroke:#181818;stroke-width:0.5;" width="279" x="1567" y="265.5"/><ellipse cx="1644.75" cy="281.5" fill="#ADD1B2" rx="11" ry="11" style="stroke:#181818;stroke-width:1.0;"/><path d="M1647.5156,277.375 Q1647.6719,277.1563 1647.8594,277.0469 Q1648.0469,276.9375 1648.2656,276.9375 Q1648.6406,276.9375 1648.875,277.2031 Q1649.1094,277.4531 1649.1094,278.0625 L1649.1094,279.5156 Q1649.1094,280.125 1648.875,280.3906 Q1648.6406,280.6563 1648.2656,280.6563 Q1647.9219,280.6563 1647.7188,280.4531 Q1647.5156,280.2656 1647.4063,279.75 Q1647.3594,279.3906 1647.1719,279.2031 Q1646.8438,278.8281 1646.2344,278.6094 Q1645.625,278.3906 1645,278.3906 Q1644.2344,278.3906 1643.5938,278.7188 Q1642.9688,279.0469 1642.4688,279.7969 Q1641.9844,280.5469 1641.9844,281.5781 L1641.9844,282.6719 Q1641.9844,283.9063 1642.875,284.7344 Q1643.7656,285.5469 1645.3594,285.5469 Q1646.2969,285.5469 1646.9531,285.2969 Q1647.3438,285.1406 1647.7656,284.7031 Q1648.0313,284.4375 1648.1719,284.3594 Q1648.3281,284.2813 1648.5313,284.2813 Q1648.8594,284.2813 1649.1094,284.5469 Q1649.375,284.7969 1649.375,285.1406 Q1649.375,285.4844 1649.0313,285.8906 Q1648.5313,286.4688 1647.7344,286.7969 Q1646.6563,287.25 1645.3594,287.25 Q1643.8438,287.25 1642.6406,286.625 Q1641.6563,286.125 1640.9688,285.0625 Q1640.2813,283.9844 1640.2813,282.7031 L1640.2813,281.5469 Q1640.2813,280.2188 1640.8906,279.0781 Q1641.5156,277.9219 1642.6094,277.3125 Q1643.7031,276.6875 1644.9375,276.6875 Q1645.6719,276.6875 1646.3125,276.8594 Q1646.9688,277.0156 1647.5156,277.375 Z " fill="#000000"/><text fill="#000000" font-family="sans-serif" font-size="14" lengthAdjust="spacing" textLength="115" x="1665.25" y="287.2285">AgencyRepository</text><line style="stroke:#181818;stroke-width:0.5;" x1="1568" x2="1845" y1="297.5" y2="297.5"/><line style="stroke:#181818;stroke-width:0.5;" x1="1568" x2="1845" y1="305.5" y2="305.5"/><text fill="#000000" font-family="sans-serif" font-size="14" lengthAdjust="spacing" textLength="267" x="1573" y="324.0332">+getAgencyByEmployeeEmail(agentEmail)</text></g><!--class Repositories--><g id="elem_Repositories"><rect codeLine="33" fill="#F1F1F1" height="136.0469" id="Repositories" rx="2.5" ry="2.5" style="stroke:#181818;stroke-width:0.5;" width="226" x="1400.5" y="7"/><ellipse cx="1469.75" cy="23" fill="#ADD1B2" rx="11" ry="11" style="stroke:#181818;stroke-width:1.0;"/><path d="M1472.5156,18.875 Q1472.6719,18.6563 1472.8594,18.5469 Q1473.0469,18.4375 1473.2656,18.4375 Q1473.6406,18.4375 1473.875,18.7031 Q1474.1094,18.9531 1474.1094,19.5625 L1474.1094,21.0156 Q1474.1094,21.625 1473.875,21.8906 Q1473.6406,22.1563 1473.2656,22.1563 Q1472.9219,22.1563 1472.7188,21.9531 Q1472.5156,21.7656 1472.4063,21.25 Q1472.3594,20.8906 1472.1719,20.7031 Q1471.8438,20.3281 1471.2344,20.1094 Q1470.625,19.8906 1470,19.8906 Q1469.2344,19.8906 1468.5938,20.2188 Q1467.9688,20.5469 1467.4688,21.2969 Q1466.9844,22.0469 1466.9844,23.0781 L1466.9844,24.1719 Q1466.9844,25.4063 1467.875,26.2344 Q1468.7656,27.0469 1470.3594,27.0469 Q1471.2969,27.0469 1471.9531,26.7969 Q1472.3438,26.6406 1472.7656,26.2031 Q1473.0313,25.9375 1473.1719,25.8594 Q1473.3281,25.7813 1473.5313,25.7813 Q1473.8594,25.7813 1474.1094,26.0469 Q1474.375,26.2969 1474.375,26.6406 Q1474.375,26.9844 1474.0313,27.3906 Q1473.5313,27.9688 1472.7344,28.2969 Q1471.6563,28.75 1470.3594,28.75 Q1468.8438,28.75 1467.6406,28.125 Q1466.6563,27.625 1465.9688,26.5625 Q1465.2813,25.4844 1465.2813,24.2031 L1465.2813,23.0469 Q1465.2813,21.7188 1465.8906,20.5781 Q1466.5156,19.4219 1467.6094,18.8125 Q1468.7031,18.1875 1469.9375,18.1875 Q1470.6719,18.1875 1471.3125,18.3594 Q1471.9688,18.5156 1472.5156,18.875 Z " fill="#000000"/><text fill="#000000" font-family="sans-serif" font-size="14" lengthAdjust="spacing" textLength="79" x="1490.25" y="28.7285">Repositories</text><line style="stroke:#181818;stroke-width:0.5;" x1="1401.5" x2="1625.5" y1="39" y2="39"/><line style="stroke:#181818;stroke-width:0.5;" x1="1401.5" x2="1625.5" y1="47" y2="47"/><text fill="#000000" font-family="sans-serif" font-size="14" lengthAdjust="spacing" textLength="94" x="1406.5" y="65.5332">-Repositories()</text><text fill="#000000" font-family="sans-serif" font-size="14" lengthAdjust="spacing" textLength="177" x="1406.5" y="83.1426">+getInstance() : repositories</text><text fill="#000000" font-family="sans-serif" font-size="14" lengthAdjust="spacing" textLength="214" x="1406.5" y="100.752">+getCommissionTypeRepository()</text><text fill="#000000" font-family="sans-serif" font-size="14" lengthAdjust="spacing" textLength="153" x="1406.5" y="118.3613">+getAgencyRepository()</text><text fill="#000000" font-family="sans-serif" font-size="14" lengthAdjust="spacing" textLength="196" x="1406.5" y="135.9707">+getAuthenticationRepository()</text></g><!--class ListRequestsController--><g id="elem_ListRequestsController"><rect codeLine="41" fill="#F1F1F1" height="136.0469" id="ListRequestsController" rx="2.5" ry="2.5" style="stroke:#181818;stroke-width:0.5;" width="479" x="494" y="7"/><ellipse cx="657.25" cy="23" fill="#ADD1B2" rx="11" ry="11" style="stroke:#181818;stroke-width:1.0;"/><path d="M660.0156,18.875 Q660.1719,18.6563 660.3594,18.5469 Q660.5469,18.4375 660.7656,18.4375 Q661.1406,18.4375 661.375,18.7031 Q661.6094,18.9531 661.6094,19.5625 L661.6094,21.0156 Q661.6094,21.625 661.375,21.8906 Q661.1406,22.1563 660.7656,22.1563 Q660.4219,22.1563 660.2188,21.9531 Q660.0156,21.7656 659.9063,21.25 Q659.8594,20.8906 659.6719,20.7031 Q659.3438,20.3281 658.7344,20.1094 Q658.125,19.8906 657.5,19.8906 Q656.7344,19.8906 656.0938,20.2188 Q655.4688,20.5469 654.9688,21.2969 Q654.4844,22.0469 654.4844,23.0781 L654.4844,24.1719 Q654.4844,25.4063 655.375,26.2344 Q656.2656,27.0469 657.8594,27.0469 Q658.7969,27.0469 659.4531,26.7969 Q659.8438,26.6406 660.2656,26.2031 Q660.5313,25.9375 660.6719,25.8594 Q660.8281,25.7813 661.0313,25.7813 Q661.3594,25.7813 661.6094,26.0469 Q661.875,26.2969 661.875,26.6406 Q661.875,26.9844 661.5313,27.3906 Q661.0313,27.9688 660.2344,28.2969 Q659.1563,28.75 657.8594,28.75 Q656.3438,28.75 655.1406,28.125 Q654.1563,27.625 653.4688,26.5625 Q652.7813,25.4844 652.7813,24.2031 L652.7813,23.0469 Q652.7813,21.7188 653.3906,20.5781 Q654.0156,19.4219 655.1094,18.8125 Q656.2031,18.1875 657.4375,18.1875 Q658.1719,18.1875 658.8125,18.3594 Q659.4688,18.5156 660.0156,18.875 Z " fill="#000000"/><text fill="#000000" font-family="sans-serif" font-size="14" lengthAdjust="spacing" textLength="144" x="677.75" y="28.7285">ListRequestsController</text><line style="stroke:#181818;stroke-width:0.5;" x1="495" x2="972" y1="39" y2="39"/><line style="stroke:#181818;stroke-width:0.5;" x1="495" x2="972" y1="47" y2="47"/><text fill="#000000" font-family="sans-serif" font-size="14" lengthAdjust="spacing" textLength="467" x="500" y="65.5332">+ListRequestsController(organizationRepository, taskCategoryRepository)</text><text fill="#000000" font-family="sans-serif" font-size="14" lengthAdjust="spacing" textLength="138" x="500" y="83.1426">+getTaskCategories()</text><text fill="#000000" font-family="sans-serif" font-size="14" lengthAdjust="spacing" textLength="180" x="500" y="100.752">-getEmployeeFromSession()</text><text fill="#000000" font-family="sans-serif" font-size="14" lengthAdjust="spacing" textLength="204" x="500" y="118.3613">-getRequestsListByAgentEmail()</text><text fill="#000000" font-family="sans-serif" font-size="14" lengthAdjust="spacing" textLength="196" x="500" y="135.9707">-getRequestById(requestIdDto)</text></g><!--class ListRequestsUI--><g id="elem_ListRequestsUI"><rect codeLine="50" fill="#F1F1F1" height="48" id="ListRequestsUI" rx="2.5" ry="2.5" style="stroke:#181818;stroke-width:0.5;" width="126" x="332.5" y="51"/><ellipse cx="347.5" cy="67" fill="#ADD1B2" rx="11" ry="11" style="stroke:#181818;stroke-width:1.0;"/><path d="M350.2656,62.875 Q350.4219,62.6563 350.6094,62.5469 Q350.7969,62.4375 351.0156,62.4375 Q351.3906,62.4375 351.625,62.7031 Q351.8594,62.9531 351.8594,63.5625 L351.8594,65.0156 Q351.8594,65.625 351.625,65.8906 Q351.3906,66.1563 351.0156,66.1563 Q350.6719,66.1563 350.4688,65.9531 Q350.2656,65.7656 350.1563,65.25 Q350.1094,64.8906 349.9219,64.7031 Q349.5938,64.3281 348.9844,64.1094 Q348.375,63.8906 347.75,63.8906 Q346.9844,63.8906 346.3438,64.2188 Q345.7188,64.5469 345.2188,65.2969 Q344.7344,66.0469 344.7344,67.0781 L344.7344,68.1719 Q344.7344,69.4063 345.625,70.2344 Q346.5156,71.0469 348.1094,71.0469 Q349.0469,71.0469 349.7031,70.7969 Q350.0938,70.6406 350.5156,70.2031 Q350.7813,69.9375 350.9219,69.8594 Q351.0781,69.7813 351.2813,69.7813 Q351.6094,69.7813 351.8594,70.0469 Q352.125,70.2969 352.125,70.6406 Q352.125,70.9844 351.7813,71.3906 Q351.2813,71.9688 350.4844,72.2969 Q349.4063,72.75 348.1094,72.75 Q346.5938,72.75 345.3906,72.125 Q344.4063,71.625 343.7188,70.5625 Q343.0313,69.4844 343.0313,68.2031 L343.0313,67.0469 Q343.0313,65.7188 343.6406,64.5781 Q344.2656,63.4219 345.3594,62.8125 Q346.4531,62.1875 347.6875,62.1875 Q348.4219,62.1875 349.0625,62.3594 Q349.7188,62.5156 350.2656,62.875 Z " fill="#000000"/><text fill="#000000" font-family="sans-serif" font-size="14" lengthAdjust="spacing" textLength="94" x="361.5" y="72.7285">ListRequestsUI</text><line style="stroke:#181818;stroke-width:0.5;" x1="333.5" x2="457.5" y1="83" y2="83"/><line style="stroke:#181818;stroke-width:0.5;" x1="333.5" x2="457.5" y1="91" y2="91"/></g><!--class Email--><g id="elem_Email"><rect codeLine="53" fill="#F1F1F1" height="65.6094" id="Email" rx="2.5" ry="2.5" style="stroke:#181818;stroke-width:0.5;" width="79" x="527" y="706"/><ellipse cx="547.85" cy="722" fill="#ADD1B2" rx="11" ry="11" style="stroke:#181818;stroke-width:1.0;"/><path d="M550.6156,717.875 Q550.7719,717.6563 550.9594,717.5469 Q551.1469,717.4375 551.3656,717.4375 Q551.7406,717.4375 551.975,717.7031 Q552.2094,717.9531 552.2094,718.5625 L552.2094,720.0156 Q552.2094,720.625 551.975,720.8906 Q551.7406,721.1563 551.3656,721.1563 Q551.0219,721.1563 550.8188,720.9531 Q550.6156,720.7656 550.5063,720.25 Q550.4594,719.8906 550.2719,719.7031 Q549.9438,719.3281 549.3344,719.1094 Q548.725,718.8906 548.1,718.8906 Q547.3344,718.8906 546.6938,719.2188 Q546.0688,719.5469 545.5688,720.2969 Q545.0844,721.0469 545.0844,722.0781 L545.0844,723.1719 Q545.0844,724.4063 545.975,725.2344 Q546.8656,726.0469 548.4594,726.0469 Q549.3969,726.0469 550.0531,725.7969 Q550.4438,725.6406 550.8656,725.2031 Q551.1313,724.9375 551.2719,724.8594 Q551.4281,724.7813 551.6313,724.7813 Q551.9594,724.7813 552.2094,725.0469 Q552.475,725.2969 552.475,725.6406 Q552.475,725.9844 552.1313,726.3906 Q551.6313,726.9688 550.8344,727.2969 Q549.7563,727.75 548.4594,727.75 Q546.9438,727.75 545.7406,727.125 Q544.7563,726.625 544.0688,725.5625 Q543.3813,724.4844 543.3813,723.2031 L543.3813,722.0469 Q543.3813,720.7188 543.9906,719.5781 Q544.6156,718.4219 545.7094,717.8125 Q546.8031,717.1875 548.0375,717.1875 Q548.7719,717.1875 549.4125,717.3594 Q550.0688,717.5156 550.6156,717.875 Z " fill="#000000"/><text fill="#000000" font-family="sans-serif" font-size="14" lengthAdjust="spacing" textLength="34" x="563.15" y="727.7285">Email</text><line style="stroke:#181818;stroke-width:0.5;" x1="528" x2="605" y1="738" y2="738"/><line style="stroke:#181818;stroke-width:0.5;" x1="528" x2="605" y1="746" y2="746"/><text fill="#000000" font-family="sans-serif" font-size="14" lengthAdjust="spacing" textLength="67" x="533" y="764.5332">+toString()</text></g><!--class Announcement--><g id="elem_Announcement"><rect codeLine="57" fill="#F1F1F1" height="83.2188" id="Announcement" rx="2.5" ry="2.5" style="stroke:#181818;stroke-width:0.5;" width="447" x="787" y="257"/><ellipse cx="958.75" cy="273" fill="#ADD1B2" rx="11" ry="11" style="stroke:#181818;stroke-width:1.0;"/><path d="M961.5156,268.875 Q961.6719,268.6563 961.8594,268.5469 Q962.0469,268.4375 962.2656,268.4375 Q962.6406,268.4375 962.875,268.7031 Q963.1094,268.9531 963.1094,269.5625 L963.1094,271.0156 Q963.1094,271.625 962.875,271.8906 Q962.6406,272.1563 962.2656,272.1563 Q961.9219,272.1563 961.7188,271.9531 Q961.5156,271.7656 961.4063,271.25 Q961.3594,270.8906 961.1719,270.7031 Q960.8438,270.3281 960.2344,270.1094 Q959.625,269.8906 959,269.8906 Q958.2344,269.8906 957.5938,270.2188 Q956.9688,270.5469 956.4688,271.2969 Q955.9844,272.0469 955.9844,273.0781 L955.9844,274.1719 Q955.9844,275.4063 956.875,276.2344 Q957.7656,277.0469 959.3594,277.0469 Q960.2969,277.0469 960.9531,276.7969 Q961.3438,276.6406 961.7656,276.2031 Q962.0313,275.9375 962.1719,275.8594 Q962.3281,275.7813 962.5313,275.7813 Q962.8594,275.7813 963.1094,276.0469 Q963.375,276.2969 963.375,276.6406 Q963.375,276.9844 963.0313,277.3906 Q962.5313,277.9688 961.7344,278.2969 Q960.6563,278.75 959.3594,278.75 Q957.8438,278.75 956.6406,278.125 Q955.6563,277.625 954.9688,276.5625 Q954.2813,275.4844 954.2813,274.2031 L954.2813,273.0469 Q954.2813,271.7188 954.8906,270.5781 Q955.5156,269.4219 956.6094,268.8125 Q957.7031,268.1875 958.9375,268.1875 Q959.6719,268.1875 960.3125,268.3594 Q960.9688,268.5156 961.5156,268.875 Z " fill="#000000"/><text fill="#000000" font-family="sans-serif" font-size="14" lengthAdjust="spacing" textLength="95" x="979.25" y="278.7285">Announcement</text><line style="stroke:#181818;stroke-width:0.5;" x1="788" x2="1233" y1="289" y2="289"/><text fill="#000000" font-family="sans-serif" font-size="14" lengthAdjust="spacing" textLength="176" x="793" y="307.5332">-LocalDate acceptanceDate</text><line style="stroke:#181818;stroke-width:0.5;" x1="788" x2="1233" y1="314.6094" y2="314.6094"/><text fill="#000000" font-family="sans-serif" font-size="14" lengthAdjust="spacing" textLength="435" x="793" y="333.1426">+Announcement(agent, commissionType, commissionValue, request)</text></g><!--class Commission--><g id="elem_Commission"><rect codeLine="62" fill="#F1F1F1" height="83.2188" id="Commission" rx="2.5" ry="2.5" style="stroke:#181818;stroke-width:0.5;" width="328" x="1231.5" y="536"/><ellipse cx="1353.25" cy="552" fill="#ADD1B2" rx="11" ry="11" style="stroke:#181818;stroke-width:1.0;"/><path d="M1356.0156,547.875 Q1356.1719,547.6563 1356.3594,547.5469 Q1356.5469,547.4375 1356.7656,547.4375 Q1357.1406,547.4375 1357.375,547.7031 Q1357.6094,547.9531 1357.6094,548.5625 L1357.6094,550.0156 Q1357.6094,550.625 1357.375,550.8906 Q1357.1406,551.1563 1356.7656,551.1563 Q1356.4219,551.1563 1356.2188,550.9531 Q1356.0156,550.7656 1355.9063,550.25 Q1355.8594,549.8906 1355.6719,549.7031 Q1355.3438,549.3281 1354.7344,549.1094 Q1354.125,548.8906 1353.5,548.8906 Q1352.7344,548.8906 1352.0938,549.2188 Q1351.4688,549.5469 1350.9688,550.2969 Q1350.4844,551.0469 1350.4844,552.0781 L1350.4844,553.1719 Q1350.4844,554.4063 1351.375,555.2344 Q1352.2656,556.0469 1353.8594,556.0469 Q1354.7969,556.0469 1355.4531,555.7969 Q1355.8438,555.6406 1356.2656,555.2031 Q1356.5313,554.9375 1356.6719,554.8594 Q1356.8281,554.7813 1357.0313,554.7813 Q1357.3594,554.7813 1357.6094,555.0469 Q1357.875,555.2969 1357.875,555.6406 Q1357.875,555.9844 1357.5313,556.3906 Q1357.0313,556.9688 1356.2344,557.2969 Q1355.1563,557.75 1353.8594,557.75 Q1352.3438,557.75 1351.1406,557.125 Q1350.1563,556.625 1349.4688,555.5625 Q1348.7813,554.4844 1348.7813,553.2031 L1348.7813,552.0469 Q1348.7813,550.7188 1349.3906,549.5781 Q1350.0156,548.4219 1351.1094,547.8125 Q1352.2031,547.1875 1353.4375,547.1875 Q1354.1719,547.1875 1354.8125,547.3594 Q1355.4688,547.5156 1356.0156,547.875 Z " fill="#000000"/><text fill="#000000" font-family="sans-serif" font-size="14" lengthAdjust="spacing" textLength="76" x="1373.75" y="557.7285">Commission</text><line style="stroke:#181818;stroke-width:0.5;" x1="1232.5" x2="1558.5" y1="568" y2="568"/><line style="stroke:#181818;stroke-width:0.5;" x1="1232.5" x2="1558.5" y1="576" y2="576"/><text fill="#000000" font-family="sans-serif" font-size="14" lengthAdjust="spacing" textLength="273" x="1237.5" y="594.5332">-create(commissionValue,commissionType)</text><text fill="#000000" font-family="sans-serif" font-size="14" lengthAdjust="spacing" textLength="316" x="1237.5" y="612.1426">+Commission(commissionValue, commissionType)</text></g><!--class Agency--><g id="elem_Agency"><rect codeLine="67" fill="#F1F1F1" height="83.2188" id="Agency" rx="2.5" ry="2.5" style="stroke:#181818;stroke-width:0.5;" width="224" x="1594.5" y="536"/><ellipse cx="1678.75" cy="552" fill="#ADD1B2" rx="11" ry="11" style="stroke:#181818;stroke-width:1.0;"/><path d="M1681.5156,547.875 Q1681.6719,547.6563 1681.8594,547.5469 Q1682.0469,547.4375 1682.2656,547.4375 Q1682.6406,547.4375 1682.875,547.7031 Q1683.1094,547.9531 1683.1094,548.5625 L1683.1094,550.0156 Q1683.1094,550.625 1682.875,550.8906 Q1682.6406,551.1563 1682.2656,551.1563 Q1681.9219,551.1563 1681.7188,550.9531 Q1681.5156,550.7656 1681.4063,550.25 Q1681.3594,549.8906 1681.1719,549.7031 Q1680.8438,549.3281 1680.2344,549.1094 Q1679.625,548.8906 1679,548.8906 Q1678.2344,548.8906 1677.5938,549.2188 Q1676.9688,549.5469 1676.4688,550.2969 Q1675.9844,551.0469 1675.9844,552.0781 L1675.9844,553.1719 Q1675.9844,554.4063 1676.875,555.2344 Q1677.7656,556.0469 1679.3594,556.0469 Q1680.2969,556.0469 1680.9531,555.7969 Q1681.3438,555.6406 1681.7656,555.2031 Q1682.0313,554.9375 1682.1719,554.8594 Q1682.3281,554.7813 1682.5313,554.7813 Q1682.8594,554.7813 1683.1094,555.0469 Q1683.375,555.2969 1683.375,555.6406 Q1683.375,555.9844 1683.0313,556.3906 Q1682.5313,556.9688 1681.7344,557.2969 Q1680.6563,557.75 1679.3594,557.75 Q1677.8438,557.75 1676.6406,557.125 Q1675.6563,556.625 1674.9688,555.5625 Q1674.2813,554.4844 1674.2813,553.2031 L1674.2813,552.0469 Q1674.2813,550.7188 1674.8906,549.5781 Q1675.5156,548.4219 1676.6094,547.8125 Q1677.7031,547.1875 1678.9375,547.1875 Q1679.6719,547.1875 1680.3125,547.3594 Q1680.9688,547.5156 1681.5156,547.875 Z " fill="#000000"/><text fill="#000000" font-family="sans-serif" font-size="14" lengthAdjust="spacing" textLength="47" x="1699.25" y="557.7285">Agency</text><line style="stroke:#181818;stroke-width:0.5;" x1="1595.5" x2="1817.5" y1="568" y2="568"/><line style="stroke:#181818;stroke-width:0.5;" x1="1595.5" x2="1817.5" y1="576" y2="576"/><text fill="#000000" font-family="sans-serif" font-size="14" lengthAdjust="spacing" textLength="212" x="1600.5" y="594.5332">+getAgentByEmail(email, agency)</text><text fill="#000000" font-family="sans-serif" font-size="14" lengthAdjust="spacing" textLength="203" x="1600.5" y="612.1426">-anyAgentHasEmail(agentEmail)</text></g><!--class Request--><g id="elem_Request"><rect codeLine="72" fill="#F1F1F1" height="241.7031" id="Request" rx="2.5" ry="2.5" style="stroke:#181818;stroke-width:0.5;" width="232" x="637.5" y="859"/><ellipse cx="722.75" cy="875" fill="#ADD1B2" rx="11" ry="11" style="stroke:#181818;stroke-width:1.0;"/><path d="M725.5156,870.875 Q725.6719,870.6563 725.8594,870.5469 Q726.0469,870.4375 726.2656,870.4375 Q726.6406,870.4375 726.875,870.7031 Q727.1094,870.9531 727.1094,871.5625 L727.1094,873.0156 Q727.1094,873.625 726.875,873.8906 Q726.6406,874.1563 726.2656,874.1563 Q725.9219,874.1563 725.7188,873.9531 Q725.5156,873.7656 725.4063,873.25 Q725.3594,872.8906 725.1719,872.7031 Q724.8438,872.3281 724.2344,872.1094 Q723.625,871.8906 723,871.8906 Q722.2344,871.8906 721.5938,872.2188 Q720.9688,872.5469 720.4688,873.2969 Q719.9844,874.0469 719.9844,875.0781 L719.9844,876.1719 Q719.9844,877.4063 720.875,878.2344 Q721.7656,879.0469 723.3594,879.0469 Q724.2969,879.0469 724.9531,878.7969 Q725.3438,878.6406 725.7656,878.2031 Q726.0313,877.9375 726.1719,877.8594 Q726.3281,877.7813 726.5313,877.7813 Q726.8594,877.7813 727.1094,878.0469 Q727.375,878.2969 727.375,878.6406 Q727.375,878.9844 727.0313,879.3906 Q726.5313,879.9688 725.7344,880.2969 Q724.6563,880.75 723.3594,880.75 Q721.8438,880.75 720.6406,880.125 Q719.6563,879.625 718.9688,878.5625 Q718.2813,877.4844 718.2813,876.2031 L718.2813,875.0469 Q718.2813,873.7188 718.8906,872.5781 Q719.5156,871.4219 720.6094,870.8125 Q721.7031,870.1875 722.9375,870.1875 Q723.6719,870.1875 724.3125,870.3594 Q724.9688,870.5156 725.5156,870.875 Z " fill="#000000"/><text fill="#000000" font-family="sans-serif" font-size="14" lengthAdjust="spacing" textLength="53" x="743.25" y="880.7285">Request</text><line style="stroke:#181818;stroke-width:0.5;" x1="638.5" x2="868.5" y1="891" y2="891"/><text fill="#000000" font-family="sans-serif" font-size="14" lengthAdjust="spacing" textLength="64" x="643.5" y="909.5332">-Integer id</text><text fill="#000000" font-family="sans-serif" font-size="14" lengthAdjust="spacing" textLength="151" x="643.5" y="927.1426">-LocalDate requestDate</text><text fill="#000000" font-family="sans-serif" font-size="14" lengthAdjust="spacing" textLength="107" x="643.5" y="944.752">-Employee agent</text><text fill="#000000" font-family="sans-serif" font-size="14" lengthAdjust="spacing" textLength="116" x="643.5" y="962.3613">-Property property</text><text fill="#000000" font-family="sans-serif" font-size="14" lengthAdjust="spacing" textLength="122" x="643.5" y="979.9707">-Business business</text><text fill="#000000" font-family="sans-serif" font-size="14" lengthAdjust="spacing" textLength="115" x="643.5" y="997.5801">-Email ownerEmail</text><line style="stroke:#181818;stroke-width:0.5;" x1="638.5" x2="868.5" y1="1004.6563" y2="1004.6563"/><text fill="#000000" font-family="sans-serif" font-size="14" lengthAdjust="spacing" textLength="210" x="643.5" y="1023.1895">+hasAgentWithEmail(agentEmail)</text><text fill="#000000" font-family="sans-serif" font-size="14" lengthAdjust="spacing" textLength="42" x="643.5" y="1040.7988">+add()</text><text fill="#000000" font-family="sans-serif" font-size="14" lengthAdjust="spacing" textLength="113" x="643.5" y="1058.4082">+getOwnerEmail()</text><text fill="#000000" font-family="sans-serif" font-size="14" lengthAdjust="spacing" textLength="220" x="643.5" y="1076.0176">+sendEmail(ownerEmail, message)</text><text fill="#000000" font-family="sans-serif" font-size="14" lengthAdjust="spacing" textLength="99" x="643.5" y="1093.627">+hasSameId(id)</text></g><!--class RequestList--><g id="elem_RequestList"><rect codeLine="87" fill="#F1F1F1" height="118.4375" id="RequestList" rx="2.5" ry="2.5" style="stroke:#181818;stroke-width:0.5;" width="316" x="1167.5" y="680"/><ellipse cx="1283.75" cy="696" fill="#ADD1B2" rx="11" ry="11" style="stroke:#181818;stroke-width:1.0;"/><path d="M1286.5156,691.875 Q1286.6719,691.6563 1286.8594,691.5469 Q1287.0469,691.4375 1287.2656,691.4375 Q1287.6406,691.4375 1287.875,691.7031 Q1288.1094,691.9531 1288.1094,692.5625 L1288.1094,694.0156 Q1288.1094,694.625 1287.875,694.8906 Q1287.6406,695.1563 1287.2656,695.1563 Q1286.9219,695.1563 1286.7188,694.9531 Q1286.5156,694.7656 1286.4063,694.25 Q1286.3594,693.8906 1286.1719,693.7031 Q1285.8438,693.3281 1285.2344,693.1094 Q1284.625,692.8906 1284,692.8906 Q1283.2344,692.8906 1282.5938,693.2188 Q1281.9688,693.5469 1281.4688,694.2969 Q1280.9844,695.0469 1280.9844,696.0781 L1280.9844,697.1719 Q1280.9844,698.4063 1281.875,699.2344 Q1282.7656,700.0469 1284.3594,700.0469 Q1285.2969,700.0469 1285.9531,699.7969 Q1286.3438,699.6406 1286.7656,699.2031 Q1287.0313,698.9375 1287.1719,698.8594 Q1287.3281,698.7813 1287.5313,698.7813 Q1287.8594,698.7813 1288.1094,699.0469 Q1288.375,699.2969 1288.375,699.6406 Q1288.375,699.9844 1288.0313,700.3906 Q1287.5313,700.9688 1286.7344,701.2969 Q1285.6563,701.75 1284.3594,701.75 Q1282.8438,701.75 1281.6406,701.125 Q1280.6563,700.625 1279.9688,699.5625 Q1279.2813,698.4844 1279.2813,697.2031 L1279.2813,696.0469 Q1279.2813,694.7188 1279.8906,693.5781 Q1280.5156,692.4219 1281.6094,691.8125 Q1282.7031,691.1875 1283.9375,691.1875 Q1284.6719,691.1875 1285.3125,691.3594 Q1285.9688,691.5156 1286.5156,691.875 Z " fill="#000000"/><text fill="#000000" font-family="sans-serif" font-size="14" lengthAdjust="spacing" textLength="75" x="1304.25" y="701.7285">RequestList</text><line style="stroke:#181818;stroke-width:0.5;" x1="1168.5" x2="1482.5" y1="712" y2="712"/><text fill="#000000" font-family="sans-serif" font-size="14" lengthAdjust="spacing" textLength="155" x="1173.5" y="730.5332">-List&lt;Request&gt; requests</text><line style="stroke:#181818;stroke-width:0.5;" x1="1168.5" x2="1482.5" y1="737.6094" y2="737.6094"/><text fill="#000000" font-family="sans-serif" font-size="14" lengthAdjust="spacing" textLength="304" x="1173.5" y="756.1426">+sortRequestByMostRecentAdded(listRequests)</text><text fill="#000000" font-family="sans-serif" font-size="14" lengthAdjust="spacing" textLength="100" x="1173.5" y="773.752">+hasSAmeId(id)</text><text fill="#000000" font-family="sans-serif" font-size="14" lengthAdjust="spacing" textLength="177" x="1173.5" y="791.3613">+getRequestById(requestId)</text></g><!--class RequestMapper--><g id="elem_RequestMapper"><rect codeLine="95" fill="#F1F1F1" height="83.2188" id="RequestMapper" rx="2.5" ry="2.5" style="stroke:#181818;stroke-width:0.5;" width="133" x="7" y="257"/><ellipse cx="22" cy="273" fill="#ADD1B2" rx="11" ry="11" style="stroke:#181818;stroke-width:1.0;"/><path d="M24.7656,268.875 Q24.9219,268.6563 25.1094,268.5469 Q25.2969,268.4375 25.5156,268.4375 Q25.8906,268.4375 26.125,268.7031 Q26.3594,268.9531 26.3594,269.5625 L26.3594,271.0156 Q26.3594,271.625 26.125,271.8906 Q25.8906,272.1563 25.5156,272.1563 Q25.1719,272.1563 24.9688,271.9531 Q24.7656,271.7656 24.6563,271.25 Q24.6094,270.8906 24.4219,270.7031 Q24.0938,270.3281 23.4844,270.1094 Q22.875,269.8906 22.25,269.8906 Q21.4844,269.8906 20.8438,270.2188 Q20.2188,270.5469 19.7188,271.2969 Q19.2344,272.0469 19.2344,273.0781 L19.2344,274.1719 Q19.2344,275.4063 20.125,276.2344 Q21.0156,277.0469 22.6094,277.0469 Q23.5469,277.0469 24.2031,276.7969 Q24.5938,276.6406 25.0156,276.2031 Q25.2813,275.9375 25.4219,275.8594 Q25.5781,275.7813 25.7813,275.7813 Q26.1094,275.7813 26.3594,276.0469 Q26.625,276.2969 26.625,276.6406 Q26.625,276.9844 26.2813,277.3906 Q25.7813,277.9688 24.9844,278.2969 Q23.9063,278.75 22.6094,278.75 Q21.0938,278.75 19.8906,278.125 Q18.9063,277.625 18.2188,276.5625 Q17.5313,275.4844 17.5313,274.2031 L17.5313,273.0469 Q17.5313,271.7188 18.1406,270.5781 Q18.7656,269.4219 19.8594,268.8125 Q20.9531,268.1875 22.1875,268.1875 Q22.9219,268.1875 23.5625,268.3594 Q24.2188,268.5156 24.7656,268.875 Z " fill="#000000"/><text fill="#000000" font-family="sans-serif" font-size="14" lengthAdjust="spacing" textLength="101" x="36" y="278.7285">RequestMapper</text><line style="stroke:#181818;stroke-width:0.5;" x1="8" x2="139" y1="289" y2="289"/><line style="stroke:#181818;stroke-width:0.5;" x1="8" x2="139" y1="297" y2="297"/><text fill="#000000" font-family="sans-serif" font-size="14" lengthAdjust="spacing" textLength="100" x="13" y="315.5332">+toDto(request)</text><text fill="#000000" font-family="sans-serif" font-size="14" lengthAdjust="spacing" textLength="42" x="13" y="333.1426">+add()</text></g><!--class RequestDto--><g id="elem_RequestDto"><rect codeLine="100" fill="#F1F1F1" height="188.875" id="RequestDto" rx="2.5" ry="2.5" style="stroke:#181818;stroke-width:0.5;" width="169" x="175" y="204"/><ellipse cx="217.9" cy="220" fill="#ADD1B2" rx="11" ry="11" style="stroke:#181818;stroke-width:1.0;"/><path d="M220.6656,215.875 Q220.8219,215.6563 221.0094,215.5469 Q221.1969,215.4375 221.4156,215.4375 Q221.7906,215.4375 222.025,215.7031 Q222.2594,215.9531 222.2594,216.5625 L222.2594,218.0156 Q222.2594,218.625 222.025,218.8906 Q221.7906,219.1563 221.4156,219.1563 Q221.0719,219.1563 220.8688,218.9531 Q220.6656,218.7656 220.5563,218.25 Q220.5094,217.8906 220.3219,217.7031 Q219.9938,217.3281 219.3844,217.1094 Q218.775,216.8906 218.15,216.8906 Q217.3844,216.8906 216.7438,217.2188 Q216.1188,217.5469 215.6188,218.2969 Q215.1344,219.0469 215.1344,220.0781 L215.1344,221.1719 Q215.1344,222.4063 216.025,223.2344 Q216.9156,224.0469 218.5094,224.0469 Q219.4469,224.0469 220.1031,223.7969 Q220.4938,223.6406 220.9156,223.2031 Q221.1813,222.9375 221.3219,222.8594 Q221.4781,222.7813 221.6813,222.7813 Q222.0094,222.7813 222.2594,223.0469 Q222.525,223.2969 222.525,223.6406 Q222.525,223.9844 222.1813,224.3906 Q221.6813,224.9688 220.8844,225.2969 Q219.8063,225.75 218.5094,225.75 Q216.9938,225.75 215.7906,225.125 Q214.8063,224.625 214.1188,223.5625 Q213.4313,222.4844 213.4313,221.2031 L213.4313,220.0469 Q213.4313,218.7188 214.0406,217.5781 Q214.6656,216.4219 215.7594,215.8125 Q216.8531,215.1875 218.0875,215.1875 Q218.8219,215.1875 219.4625,215.3594 Q220.1188,215.5156 220.6656,215.875 Z " fill="#000000"/><text fill="#000000" font-family="sans-serif" font-size="14" lengthAdjust="spacing" textLength="75" x="238.1" y="225.7285">RequestDto</text><line style="stroke:#181818;stroke-width:0.5;" x1="176" x2="343" y1="236" y2="236"/><text fill="#000000" font-family="sans-serif" font-size="14" lengthAdjust="spacing" textLength="118" x="181" y="254.5332">-propertyAttributes</text><text fill="#000000" font-family="sans-serif" font-size="14" lengthAdjust="spacing" textLength="121" x="181" y="272.1426">-businessAttributes</text><text fill="#000000" font-family="sans-serif" font-size="14" lengthAdjust="spacing" textLength="16" x="181" y="289.752">-id</text><line style="stroke:#181818;stroke-width:0.5;" x1="176" x2="343" y1="296.8281" y2="296.8281"/><text fill="#000000" font-family="sans-serif" font-size="14" lengthAdjust="spacing" textLength="141" x="181" y="315.3613">+RequestDto(request)</text><text fill="#000000" font-family="sans-serif" font-size="14" lengthAdjust="spacing" textLength="152" x="181" y="332.9707">+getPropertyAttributes()</text><text fill="#000000" font-family="sans-serif" font-size="14" lengthAdjust="spacing" textLength="155" x="181" y="350.5801">+getBusinessAttributes()</text><text fill="#000000" font-family="sans-serif" font-size="14" lengthAdjust="spacing" textLength="121" x="181" y="368.1895">+getRequestDate()</text><text fill="#000000" font-family="sans-serif" font-size="14" lengthAdjust="spacing" textLength="157" x="181" y="385.7988">+getRequestIdFromDto()</text></g><!--class Notification--><g id="elem_Notification"><rect codeLine="112" fill="#F1F1F1" height="48" id="Notification" rx="2.5" ry="2.5" style="stroke:#181818;stroke-width:0.5;" width="102" x="904.5" y="956"/><ellipse cx="919.5" cy="972" fill="#B4A7E5" rx="11" ry="11" style="stroke:#181818;stroke-width:1.0;"/><path d="M920.4531,968.6406 L920.4531,975.2969 L922.1719,975.2969 Q922.7813,975.2969 923.0469,975.5313 Q923.3125,975.7656 923.3125,976.1563 Q923.3125,976.5313 923.0469,976.7656 Q922.7813,977 922.1719,977 L917.0313,977 Q916.4219,977 916.1563,976.7656 Q915.8906,976.5313 915.8906,976.1406 Q915.8906,975.7656 916.1563,975.5313 Q916.4219,975.2969 917.0313,975.2969 L918.75,975.2969 L918.75,968.6406 L917.0313,968.6406 Q916.4219,968.6406 916.1563,968.4063 Q915.8906,968.1719 915.8906,967.7813 Q915.8906,967.4063 916.1563,967.1719 Q916.4219,966.9375 917.0313,966.9375 L922.1719,966.9375 Q922.7813,966.9375 923.0469,967.1719 Q923.3125,967.4063 923.3125,967.7813 Q923.3125,968.1719 923.0469,968.4063 Q922.7813,968.6406 922.1719,968.6406 L920.4531,968.6406 Z " fill="#000000"/><text fill="#000000" font-family="sans-serif" font-size="14" font-style="italic" lengthAdjust="spacing" textLength="70" x="933.5" y="977.7285">Notification</text><line style="stroke:#181818;stroke-width:0.5;" x1="905.5" x2="1005.5" y1="988" y2="988"/><line style="stroke:#181818;stroke-width:0.5;" x1="905.5" x2="1005.5" y1="996" y2="996"/></g><!--class CommissionMapper--><g id="elem_CommissionMapper"><rect codeLine="115" fill="#F1F1F1" height="83.2188" id="CommissionMapper" rx="2.5" ry="2.5" style="stroke:#181818;stroke-width:0.5;" width="191" x="1269" y="257"/><ellipse cx="1299.75" cy="273" fill="#ADD1B2" rx="11" ry="11" style="stroke:#181818;stroke-width:1.0;"/><path d="M1302.5156,268.875 Q1302.6719,268.6563 1302.8594,268.5469 Q1303.0469,268.4375 1303.2656,268.4375 Q1303.6406,268.4375 1303.875,268.7031 Q1304.1094,268.9531 1304.1094,269.5625 L1304.1094,271.0156 Q1304.1094,271.625 1303.875,271.8906 Q1303.6406,272.1563 1303.2656,272.1563 Q1302.9219,272.1563 1302.7188,271.9531 Q1302.5156,271.7656 1302.4063,271.25 Q1302.3594,270.8906 1302.1719,270.7031 Q1301.8438,270.3281 1301.2344,270.1094 Q1300.625,269.8906 1300,269.8906 Q1299.2344,269.8906 1298.5938,270.2188 Q1297.9688,270.5469 1297.4688,271.2969 Q1296.9844,272.0469 1296.9844,273.0781 L1296.9844,274.1719 Q1296.9844,275.4063 1297.875,276.2344 Q1298.7656,277.0469 1300.3594,277.0469 Q1301.2969,277.0469 1301.9531,276.7969 Q1302.3438,276.6406 1302.7656,276.2031 Q1303.0313,275.9375 1303.1719,275.8594 Q1303.3281,275.7813 1303.5313,275.7813 Q1303.8594,275.7813 1304.1094,276.0469 Q1304.375,276.2969 1304.375,276.6406 Q1304.375,276.9844 1304.0313,277.3906 Q1303.5313,277.9688 1302.7344,278.2969 Q1301.6563,278.75 1300.3594,278.75 Q1298.8438,278.75 1297.6406,278.125 Q1296.6563,277.625 1295.9688,276.5625 Q1295.2813,275.4844 1295.2813,274.2031 L1295.2813,273.0469 Q1295.2813,271.7188 1295.8906,270.5781 Q1296.5156,269.4219 1297.6094,268.8125 Q1298.7031,268.1875 1299.9375,268.1875 Q1300.6719,268.1875 1301.3125,268.3594 Q1301.9688,268.5156 1302.5156,268.875 Z " fill="#000000"/><text fill="#000000" font-family="sans-serif" font-size="14" lengthAdjust="spacing" textLength="124" x="1317.25" y="278.7285">CommissionMapper</text><line style="stroke:#181818;stroke-width:0.5;" x1="1270" x2="1459" y1="289" y2="289"/><line style="stroke:#181818;stroke-width:0.5;" x1="1270" x2="1459" y1="297" y2="297"/><text fill="#000000" font-family="sans-serif" font-size="14" lengthAdjust="spacing" textLength="179" x="1275" y="315.5332">+toDto(commissionTypeList)</text><text fill="#000000" font-family="sans-serif" font-size="14" lengthAdjust="spacing" textLength="146" x="1275" y="333.1426">+getCommissionType()</text></g><!--class CommissionTypeDto--><g id="elem_CommissionTypeDto"><rect codeLine="120" fill="#F1F1F1" height="65.6094" id="CommissionTypeDto" rx="2.5" ry="2.5" style="stroke:#181818;stroke-width:0.5;" width="287" x="909" y="544.5"/><ellipse cx="983.25" cy="560.5" fill="#ADD1B2" rx="11" ry="11" style="stroke:#181818;stroke-width:1.0;"/><path d="M986.0156,556.375 Q986.1719,556.1563 986.3594,556.0469 Q986.5469,555.9375 986.7656,555.9375 Q987.1406,555.9375 987.375,556.2031 Q987.6094,556.4531 987.6094,557.0625 L987.6094,558.5156 Q987.6094,559.125 987.375,559.3906 Q987.1406,559.6563 986.7656,559.6563 Q986.4219,559.6563 986.2188,559.4531 Q986.0156,559.2656 985.9063,558.75 Q985.8594,558.3906 985.6719,558.2031 Q985.3438,557.8281 984.7344,557.6094 Q984.125,557.3906 983.5,557.3906 Q982.7344,557.3906 982.0938,557.7188 Q981.4688,558.0469 980.9688,558.7969 Q980.4844,559.5469 980.4844,560.5781 L980.4844,561.6719 Q980.4844,562.9063 981.375,563.7344 Q982.2656,564.5469 983.8594,564.5469 Q984.7969,564.5469 985.4531,564.2969 Q985.8438,564.1406 986.2656,563.7031 Q986.5313,563.4375 986.6719,563.3594 Q986.8281,563.2813 987.0313,563.2813 Q987.3594,563.2813 987.6094,563.5469 Q987.875,563.7969 987.875,564.1406 Q987.875,564.4844 987.5313,564.8906 Q987.0313,565.4688 986.2344,565.7969 Q985.1563,566.25 983.8594,566.25 Q982.3438,566.25 981.1406,565.625 Q980.1563,565.125 979.4688,564.0625 Q978.7813,562.9844 978.7813,561.7031 L978.7813,560.5469 Q978.7813,559.2188 979.3906,558.0781 Q980.0156,556.9219 981.1094,556.3125 Q982.2031,555.6875 983.4375,555.6875 Q984.1719,555.6875 984.8125,555.8594 Q985.4688,556.0156 986.0156,556.375 Z " fill="#000000"/><text fill="#000000" font-family="sans-serif" font-size="14" lengthAdjust="spacing" textLength="130" x="1003.75" y="566.2285">CommissionTypeDto</text><line style="stroke:#181818;stroke-width:0.5;" x1="910" x2="1195" y1="576.5" y2="576.5"/><line style="stroke:#181818;stroke-width:0.5;" x1="910" x2="1195" y1="584.5" y2="584.5"/><text fill="#000000" font-family="sans-serif" font-size="14" lengthAdjust="spacing" textLength="275" x="915" y="603.0332">+CommissionTypeDto(commissionTypeList)</text></g><!--link Repositories to Repositories--><g id="link_Repositories_Repositories"><path codeLine="127" d="M1626.74,57.67 C1647.19,59.89 1661.5,65.67 1661.5,75 C1661.5,83.53 1649.54,89.09 1631.87,91.68 " fill="none" id="Repositories-to-Repositories" style="stroke:#181818;stroke-width:1.0;"/><polygon fill="#181818" points="1626.74,92.33,1636.1717,95.1661,1631.7003,91.701,1635.1653,87.2296,1626.74,92.33" style="stroke:#181818;stroke-width:1.0;"/><text fill="#000000" font-family="sans-serif" font-size="13" lengthAdjust="spacing" textLength="49" x="1667.5" y="80.4951">instance</text></g><!--link ApplicationSession to ApplicationSession--><g id="link_ApplicationSession_ApplicationSession"><path codeLine="128" d="M530.16,275.47 C550,276.84 565,284.51 565,298.5 C565,311.28 552.47,318.8 535.16,321.04 " fill="none" id="ApplicationSession-to-ApplicationSession" style="stroke:#181818;stroke-width:1.0;"/><polygon fill="#181818" points="530.16,321.53,539.5063,324.6359,535.1363,321.0438,538.7284,316.6738,530.16,321.53" style="stroke:#181818;stroke-width:1.0;"/><text fill="#000000" font-family="sans-serif" font-size="13" lengthAdjust="spacing" textLength="49" x="571" y="303.9951">instance</text></g><!--link ListRequestsUI to ListRequestsController--><g id="link_ListRequestsUI_ListRequestsController"><path codeLine="130" d="M458.75,75 C469.72,75 480.33,75 488.89,75 " fill="none" id="ListRequestsUI-to-ListRequestsController" style="stroke:#181818;stroke-width:1.0;stroke-dasharray:7.0,7.0;"/><polygon fill="#181818" points="493.94,75,484.94,71,488.94,75,484.94,79,493.94,75" style="stroke:#181818;stroke-width:1.0;"/></g><!--link ListRequestsController to Repositories--><g id="link_ListRequestsController_Repositories"><path codeLine="132" d="M973.09,75 C1113.04,75 1283.5,75 1395.07,75 " fill="none" id="ListRequestsController-to-Repositories" style="stroke:#181818;stroke-width:1.0;stroke-dasharray:7.0,7.0;"/><polygon fill="#181818" points="1400.34,75,1391.34,71,1395.34,75,1391.34,79,1400.34,75" style="stroke:#181818;stroke-width:1.0;"/><text fill="#000000" font-family="sans-serif" font-size="13" lengthAdjust="spacing" textLength="67" x="1153.25" y="68.4951">repositories</text></g><!--link Repositories to AgencyRepository--><g id="link_Repositories_AgencyRepository"><path codeLine="134" d="M1571.93,143.06 C1605.83,181.97 1647.2,229.45 1675.05,261.4 " fill="none" id="Repositories-to-AgencyRepository" style="stroke:#181818;stroke-width:1.0;"/><polygon fill="#181818" points="1678.38,265.22,1675.484,255.8065,1675.0956,261.45,1669.4521,261.0616,1678.38,265.22" style="stroke:#181818;stroke-width:1.0;"/><text fill="#000000" font-family="sans-serif" font-size="13" lengthAdjust="spacing" textLength="7" x="1665.1548" y="254.6612">1</text></g><!--link Repositories to CommissionTypeRepository--><g id="link_Repositories_CommissionTypeRepository"><path codeLine="135" d="M1505.87,143.23 C1495.3,236.28 1477.5,393 1477.5,393 C1477.5,393 1473.82,404.28 1469.4,417.82 " fill="none" id="Repositories-to-CommissionTypeRepository" style="stroke:#181818;stroke-width:1.0;"/><polygon fill="#181818" points="1467.75,422.9,1474.3513,415.5909,1469.3054,418.1481,1466.7482,413.1022,1467.75,422.9" style="stroke:#181818;stroke-width:1.0;"/><text fill="#000000" font-family="sans-serif" font-size="13" lengthAdjust="spacing" textLength="7" x="1462.3648" y="412.1911">1</text></g><!--link AgencyRepository to Agency--><g id="link_AgencyRepository_Agency"><path codeLine="137" d="M1706.5,331.55 C1706.5,380.52 1706.5,474.22 1706.5,530.47 " fill="none" id="AgencyRepository-to-Agency" style="stroke:#181818;stroke-width:1.0;"/><polygon fill="#181818" points="1706.5,535.79,1710.5,526.79,1706.5,530.79,1702.5,526.79,1706.5,535.79" style="stroke:#181818;stroke-width:1.0;"/><text fill="#000000" font-family="sans-serif" font-size="13" lengthAdjust="spacing" textLength="5" x="1701.0859" y="525.0629">*</text></g><!--link ApplicationSession to UserSession--><g id="link_ApplicationSession_UserSession"><path codeLine="139" d="M470.91,340.07 C492.63,393.79 530.61,487.75 551.57,539.57 " fill="none" id="ApplicationSession-to-UserSession" style="stroke:#181818;stroke-width:1.0;"/><polygon fill="#181818" points="553.54,544.45,553.8853,534.6072,551.6708,539.8126,546.4654,537.598,553.54,544.45" style="stroke:#181818;stroke-width:1.0;"/><text fill="#000000" font-family="sans-serif" font-size="13" lengthAdjust="spacing" textLength="72" x="537.5" y="469.9951">userSession</text><text fill="#000000" font-family="sans-serif" font-size="13" lengthAdjust="spacing" textLength="7" x="543.1451" y="533.5551">1</text></g><!--link UserSession to Email--><g id="link_UserSession_Email"><path codeLine="140" d="M566.5,610.78 C566.5,636.72 566.5,673.2 566.5,700.45 " fill="none" id="UserSession-to-Email" style="stroke:#181818;stroke-width:1.0;"/><polygon fill="#181818" points="566.5,705.77,570.5,696.77,566.5,700.77,562.5,696.77,566.5,705.77" style="stroke:#181818;stroke-width:1.0;"/></g><!--link ListRequestsController to ApplicationSession--><g id="link_ListRequestsController_ApplicationSession"><path codeLine="142" d="M649.03,143.06 C604,178.81 549.86,221.79 510.14,253.33 " fill="none" id="ListRequestsController-to-ApplicationSession" style="stroke:#181818;stroke-width:1.0;stroke-dasharray:7.0,7.0;"/><polygon fill="#181818" points="505.86,256.73,515.3933,254.2567,509.7727,253.617,510.4124,247.9964,505.86,256.73" style="stroke:#181818;stroke-width:1.0;"/></g><!--link ListRequestsController to UserSession--><g id="link_ListRequestsController_UserSession"><path codeLine="143" d="M715.51,143.11 C711.04,159.78 707.5,173 707.5,173 C707.5,173 618.5,506 618.5,506 C618.5,506 606.21,522.66 593.58,539.79 " fill="none" id="ListRequestsController-to-UserSession" style="stroke:#181818;stroke-width:1.0;stroke-dasharray:7.0,7.0;"/><polygon fill="#181818" points="590.37,544.14,598.9201,539.2518,593.3287,540.1093,592.4711,534.5179,590.37,544.14" style="stroke:#181818;stroke-width:1.0;"/></g><!--link ListRequestsController to RequestMapper--><g id="link_ListRequestsController_RequestMapper"><path codeLine="145" d="M493.64,138.29 C482.28,141.24 475.5,143 475.5,143 C475.5,143 157.5,204 157.5,204 C157.5,204 135.19,228.84 113.56,252.91 " fill="none" id="ListRequestsController-to-RequestMapper" style="stroke:#181818;stroke-width:1.0;stroke-dasharray:7.0,7.0;"/><polygon fill="#181818" points="110.1,256.76,119.0939,252.7462,113.4448,253.0435,113.1475,247.3945,110.1,256.76" style="stroke:#181818;stroke-width:1.0;"/></g><!--link ListRequestsController to CommissionMapper--><g id="link_ListRequestsController_CommissionMapper"><path codeLine="146" d="M973.17,135.22 C1108.78,168.73 1251.5,204 1251.5,204 C1251.5,204 1282.01,229.25 1311.33,253.5 " fill="none" id="ListRequestsController-to-CommissionMapper" style="stroke:#181818;stroke-width:1.0;stroke-dasharray:7.0,7.0;"/><polygon fill="#181818" points="1315.27,256.76,1310.8941,247.9367,1311.4207,253.5689,1305.7884,254.0955,1315.27,256.76" style="stroke:#181818;stroke-width:1.0;"/></g><!--link ListRequestsController to Announcement--><g id="link_ListRequestsController_Announcement"><path codeLine="147" d="M817.36,143.06 C862.07,178.81 915.82,221.79 955.26,253.33 " fill="none" id="ListRequestsController-to-Announcement" style="stroke:#181818;stroke-width:1.0;"/><polygon fill="#181818" points="959.51,256.73,954.9927,247.9782,955.6098,253.6013,949.9868,254.2185,959.51,256.73" style="stroke:#181818;stroke-width:1.0;"/></g><!--link ListRequestsController to Request--><g id="link_ListRequestsController_Request"><path codeLine="148" d="M733.5,143.06 C733.5,208.25 733.5,297.5 733.5,297.5 C733.5,297.5 733.5,297.5 733.5,740 C733.5,740 738.17,795.86 743,853.57 " fill="none" id="ListRequestsController-to-Request" style="stroke:#181818;stroke-width:1.0;"/><polygon fill="#181818" points="743.44,858.8,746.681,849.4997,743.026,853.8172,738.7085,850.1621,743.44,858.8" style="stroke:#181818;stroke-width:1.0;"/></g><!--link Agency to RequestList--><g id="link_Agency_RequestList"><path codeLine="149" d="M1609.37,619.16 C1566.74,637.01 1515.82,658.32 1468.96,677.94 " fill="none" id="Agency-to-RequestList" style="stroke:#181818;stroke-width:1.0;"/><polygon fill="#181818" points="1464.14,679.96,1473.9864,680.18,1468.7533,678.0319,1470.9014,672.7987,1464.14,679.96" style="stroke:#181818;stroke-width:1.0;"/></g><!--link RequestList to Request--><g id="link_RequestList_Request"><path codeLine="150" d="M1167.37,782.96 C1041.91,817.05 887.5,859 887.5,859 C887.5,859 882.14,863.8 873.57,871.47 " fill="none" id="RequestList-to-Request" style="stroke:#181818;stroke-width:1.0;"/><polygon fill="#181818" points="869.71,874.94,879.0755,871.8925,873.4265,871.5952,873.7238,865.9461,869.71,874.94" style="stroke:#181818;stroke-width:1.0;"/></g><!--link Request to Notification--><g id="link_Request_Notification"><path codeLine="151" d="M869.77,980 C880.21,980 888.17,980 888.17,980 C888.17,980 892.55,980 899.09,980 " fill="none" id="Request-to-Notification" style="stroke:#181818;stroke-width:1.0;stroke-dasharray:7.0,7.0;"/><polygon fill="#181818" points="904.47,980,895.47,976,899.47,980,895.47,984,904.47,980" style="stroke:#181818;stroke-width:1.0;"/></g><!--link CommissionTypeRepository to Commission--><g id="link_CommissionTypeRepository_Commission"><path codeLine="152" d="M1432.87,506.2 C1428.54,514.35 1423.96,522.95 1419.56,531.24 " fill="none" id="CommissionTypeRepository-to-Commission" style="stroke:#181818;stroke-width:1.0;"/><polygon fill="#181818" points="1417.13,535.8,1424.8825,529.7255,1419.474,531.3835,1417.8161,525.9751,1417.13,535.8" style="stroke:#181818;stroke-width:1.0;"/></g><!--link Announcement to Commission--><g id="link_Announcement_Commission"><path codeLine="153" d="M1062.74,340.05 C1140.2,400.19 1276.5,506 1276.5,506 C1276.5,506 1297.96,518.71 1322.65,533.34 " fill="none" id="Announcement-to-Commission" style="stroke:#181818;stroke-width:1.0;"/><polygon fill="#181818" points="1326.97,535.9,1321.2673,527.8701,1322.6688,533.3506,1317.1883,534.7521,1326.97,535.9" style="stroke:#181818;stroke-width:1.0;"/></g><!--link CommissionMapper to CommissionTypeDto--><g id="link_CommissionMapper_CommissionTypeDto"><path codeLine="154" d="M1318.8,340.07 C1257.68,394.33 1150.33,489.65 1092.35,541.12 " fill="none" id="CommissionMapper-to-CommissionTypeDto" style="stroke:#181818;stroke-width:1.0;stroke-dasharray:7.0,7.0;"/><polygon fill="#181818" points="1088.6,544.45,1097.9898,541.4782,1092.3433,541.1353,1092.6862,535.4888,1088.6,544.45" style="stroke:#181818;stroke-width:1.0;"/></g><!--link RequestMapper to RequestDto--><g id="link_RequestMapper_RequestDto"><path codeLine="155" d="M140.37,298.5 C146.8,298.5 158.65,298.5 169.89,298.5 " fill="none" id="RequestMapper-to-RequestDto" style="stroke:#181818;stroke-width:1.0;stroke-dasharray:7.0,7.0;"/><polygon fill="#181818" points="175,298.5,166,294.5,170,298.5,166,302.5,175,298.5" style="stroke:#181818;stroke-width:1.0;"/></g><!--SRC=[VLRVRziW47xdhq1zYRlKrVPQJPMIjjCYjLkrjDipnTH1jS43hCgjzh_lmDY0xJGF2ToFxxuxxY0h_S95GnIfSIs5f0SbQuQDQXaAceRG5rAolUagXXMZXeYoYWtqWHJobOiIFvDAnvgA2sQwXk56LftTeDM2KYeZKUH5AwBrnXZ5drh3TbIAFNzZ-3D2guez6smaLhmy65nmIuTBWP3pmPkcgJWbLhHdMiCFVaSOFcki3OWfBfdP2LWBoh9JhmBPLQiK4yOxWURV0FcecPfYWOCLtzI4LxtjgZU-PqexkvKrp36KJHXdXbOZufMiQ-u07o3xNwoHcXkfkXW-jRdbsYHi4-ssksQQbyAbdHLX7MMn0IAqMuxLwxRTJTrKicEiJojGZs160CwqXyWJOSmor1bVGDy4esE917enp9HweclD0MZw8qziHiwsUB_OtvPfew-aC4fM5LDZ0PRLcLGb4VnjWdk63T4lLyIm4dP17b5w20QX7hdL3FNz1aCM6crK3oGieMst6Sk_OBFjTaMc-lMkk3Ro52td-xY3F4UDWuEyrqRkORX46PTf8uHiuRHgY3kSxAsafBg6P32Xb3NkDEtMPnkxzFroXcboel7-DwbQ47ZQKUJG14DSgXX4oQQ-AVPGy-0-Sy1JZyayJ8R0s1cm5MVs-ynDB-s6yXFH7yfteZ-S49VUEyft0fe06eqNA0-5zEcxAkP3H_Jt1ChlbMoOCXrk_0BbsrR3DGd0JtvXlI0abg_2tq08hGz4Esv_k3dCoQr9KS1Hho7DdwEN5MWcYduJqCvm3L70_TJ1xadDeDbuCS_HDXhaQN- -Uj7ba9y6KXhkzR5XxwJjIWgaDaN1YgoAkjH7seoHriTQVKxYZZHGgNS4FGrpa8tTvNEUceCDK1xAExunKDMXlh4CZWwjWsU43WJlPo2-njiPKfQaPCy-bUmAUoVO28unXyvHpuGo_4CQ_knlj_UbYPcaJsVFHXydlMUpnU6p6bUUzKosY6in44fUXFmoVI4kCFTl05fucS5wGHhveCbLTdvvvBPEBQDB_dn6A7c79ko1qCcNazbRkMnrxEb2QFRMEfTF0p1Qh8L7ZVzjNE0sx52iiTP-z8ybVhvKt8-i8_mFKPEv-yXmsgJ7R6qoyKjor6wCxIliFAEx24NhM3V8RJV40uME_X7BO_Oe9kTm8zqqoKdcVdvGKZGSgcXrxlCV]--></g></svg>