<?xml version="1.0" encoding="UTF-8" standalone="no"?><svg xmlns="http://www.w3.org/2000/svg" xmlns:xlink="http://www.w3.org/1999/xlink" contentStyleType="text/css" height="668px" preserveAspectRatio="none" style="width:1063px;height:668px;background:#FFFFFF;" version="1.1" viewBox="0 0 1063 668" width="1063px" zoomAndPan="magnify"><defs/><g><rect fill="#FFFFFF" height="509.0859" style="stroke:#181818;stroke-width:1.0;" width="10" x="199" y="87.5703"/><rect fill="#FFFFFF" height="416.0313" style="stroke:#181818;stroke-width:1.0;" width="10" x="415" y="143.2734"/><rect fill="#FFFFFF" height="162.4063" style="stroke:#181818;stroke-width:1.0;" width="10" x="420" y="267.1953"/><rect fill="#FFFFFF" height="30.3516" style="stroke:#181818;stroke-width:1.0;" width="10" x="605" y="302.5469"/><rect fill="#FFFFFF" height="30" style="stroke:#181818;stroke-width:1.0;" width="10" x="775" y="466.9531"/><rect fill="#FFFFFF" height="30" style="stroke:#181818;stroke-width:1.0;" width="10" x="956" y="363.25"/><rect fill="none" height="464.7344" style="stroke:#000000;stroke-width:1.5;" width="944" x="113" y="102.5703"/><rect fill="none" height="311.4609" style="stroke:#000000;stroke-width:1.5;" width="726" x="321" y="218.4922"/><line style="stroke:#181818;stroke-width:0.5;stroke-dasharray:5.0,5.0;" x1="204" x2="204" y1="55.2188" y2="614.6563"/><line style="stroke:#181818;stroke-width:0.5;stroke-dasharray:5.0,5.0;" x1="420" x2="420" y1="55.2188" y2="614.6563"/><line style="stroke:#181818;stroke-width:0.5;stroke-dasharray:5.0,5.0;" x1="610" x2="610" y1="55.2188" y2="614.6563"/><line style="stroke:#181818;stroke-width:0.5;stroke-dasharray:5.0,5.0;" x1="780" x2="780" y1="191.3828" y2="614.6563"/><line style="stroke:#181818;stroke-width:0.5;stroke-dasharray:5.0,5.0;" x1="961" x2="961" y1="55.2188" y2="614.6563"/><rect fill="#E3E3E3" height="31.6094" rx="2.5" ry="2.5" style="stroke:#181818;stroke-width:0.5;" width="162" x="123" y="22.6094"/><text fill="#000000" font-family="sans-serif" font-size="14" lengthAdjust="spacing" textLength="148" x="130" y="44.1426">:ListRequestsController</text><rect fill="#E3E3E3" height="31.6094" rx="2.5" ry="2.5" style="stroke:#181818;stroke-width:0.5;" width="162" x="123" y="613.6563"/><text fill="#000000" font-family="sans-serif" font-size="14" lengthAdjust="spacing" textLength="148" x="130" y="635.1895">:ListRequestsController</text><rect fill="#E3E3E3" height="49.2188" rx="2.5" ry="2.5" style="stroke:#181818;stroke-width:0.5;" width="178" x="331" y="5"/><text fill="#000000" font-family="sans-serif" font-size="14" lengthAdjust="spacing" textLength="153" x="343.5" y="26.5332">commissionTypeMapper</text><text fill="#000000" font-family="sans-serif" font-size="14" lengthAdjust="spacing" textLength="164" x="338" y="44.1426">: CommissionTypeMapper</text><rect fill="#E3E3E3" height="49.2188" rx="2.5" ry="2.5" style="stroke:#181818;stroke-width:0.5;" width="178" x="331" y="613.6563"/><text fill="#000000" font-family="sans-serif" font-size="14" lengthAdjust="spacing" textLength="153" x="343.5" y="635.1895">commissionTypeMapper</text><text fill="#000000" font-family="sans-serif" font-size="14" lengthAdjust="spacing" textLength="164" x="338" y="652.7988">: CommissionTypeMapper</text><rect fill="#E3E3E3" height="49.2188" rx="2.5" ry="2.5" style="stroke:#181818;stroke-width:0.5;" width="130" x="545" y="5"/><text fill="#000000" font-family="sans-serif" font-size="14" lengthAdjust="spacing" textLength="105" x="557.5" y="26.5332">commissionType</text><text fill="#000000" font-family="sans-serif" font-size="14" lengthAdjust="spacing" textLength="116" x="552" y="44.1426">: CommissionType</text><rect fill="#E3E3E3" height="49.2188" rx="2.5" ry="2.5" style="stroke:#181818;stroke-width:0.5;" width="130" x="545" y="613.6563"/><text fill="#000000" font-family="sans-serif" font-size="14" lengthAdjust="spacing" textLength="105" x="557.5" y="635.1895">commissionType</text><text fill="#000000" font-family="sans-serif" font-size="14" lengthAdjust="spacing" textLength="116" x="552" y="652.7988">: CommissionType</text><rect fill="#E3E3E3" height="49.2188" rx="2.5" ry="2.5" style="stroke:#181818;stroke-width:0.5;" width="190" x="685" y="613.6563"/><text fill="#000000" font-family="sans-serif" font-size="14" lengthAdjust="spacing" textLength="125" x="717.5" y="635.1895">listCommissionType</text><text fill="#000000" font-family="sans-serif" font-size="14" lengthAdjust="spacing" textLength="176" x="692" y="652.7988">: List&lt;CommissionTypeDto&gt;</text><rect fill="#E3E3E3" height="49.2188" rx="2.5" ry="2.5" style="stroke:#181818;stroke-width:0.5;" width="152" x="885" y="5"/><text fill="#000000" font-family="sans-serif" font-size="14" lengthAdjust="spacing" textLength="127" x="897.5" y="26.5332">commissionTypeDto</text><text fill="#000000" font-family="sans-serif" font-size="14" lengthAdjust="spacing" textLength="138" x="892" y="44.1426">: CommissionTypeDto</text><rect fill="#E3E3E3" height="49.2188" rx="2.5" ry="2.5" style="stroke:#181818;stroke-width:0.5;" width="152" x="885" y="613.6563"/><text fill="#000000" font-family="sans-serif" font-size="14" lengthAdjust="spacing" textLength="127" x="897.5" y="635.1895">commissionTypeDto</text><text fill="#000000" font-family="sans-serif" font-size="14" lengthAdjust="spacing" textLength="138" x="892" y="652.7988">: CommissionTypeDto</text><rect fill="#FFFFFF" height="509.0859" style="stroke:#181818;stroke-width:1.0;" width="10" x="199" y="87.5703"/><rect fill="#FFFFFF" height="416.0313" style="stroke:#181818;stroke-width:1.0;" width="10" x="415" y="143.2734"/><rect fill="#FFFFFF" height="162.4063" style="stroke:#181818;stroke-width:1.0;" width="10" x="420" y="267.1953"/><rect fill="#FFFFFF" height="30.3516" style="stroke:#181818;stroke-width:1.0;" width="10" x="605" y="302.5469"/><rect fill="#FFFFFF" height="30" style="stroke:#181818;stroke-width:1.0;" width="10" x="775" y="466.9531"/><rect fill="#FFFFFF" height="30" style="stroke:#181818;stroke-width:1.0;" width="10" x="956" y="363.25"/><polygon fill="#181818" points="187,83.5703,197,87.5703,187,91.5703,191,87.5703" style="stroke:#181818;stroke-width:1.0;"/><line style="stroke:#181818;stroke-width:1.0;" x1="0" x2="193" y1="87.5703" y2="87.5703"/><text fill="#000000" font-family="sans-serif" font-size="13" font-weight="bold" lengthAdjust="spacing" textLength="7" x="7" y="82.7139">3</text><text fill="#000000" font-family="sans-serif" font-size="13" lengthAdjust="spacing" textLength="169" x="18" y="82.7139">4 toDto(commissionTypeList)</text><path d="M113,102.5703 L386,102.5703 L386,110.9219 L376,120.9219 L113,120.9219 L113,102.5703 " fill="#EEEEEE" style="stroke:#000000;stroke-width:1.5;"/><rect fill="none" height="464.7344" style="stroke:#000000;stroke-width:1.5;" width="944" x="113" y="102.5703"/><text fill="#000000" font-family="sans-serif" font-size="13" font-weight="bold" lengthAdjust="spacing" textLength="228" x="128" y="117.0654">Convert commission type list to DTO</text><polygon fill="#181818" points="403,139.2734,413,143.2734,403,147.2734,407,143.2734" style="stroke:#181818;stroke-width:1.0;"/><line style="stroke:#181818;stroke-width:1.0;" x1="209" x2="409" y1="143.2734" y2="143.2734"/><text fill="#000000" font-family="sans-serif" font-size="13" font-weight="bold" lengthAdjust="spacing" textLength="25" x="216" y="138.417">34.1</text><text fill="#000000" font-family="sans-serif" font-size="13" lengthAdjust="spacing" textLength="158" x="245" y="138.417">toDto(commissionTypeList)</text><polygon fill="#181818" points="673,169.625,683,173.625,673,177.625,677,173.625" style="stroke:#181818;stroke-width:1.0;"/><line style="stroke:#181818;stroke-width:1.0;" x1="425" x2="679" y1="173.625" y2="173.625"/><text fill="#000000" font-family="sans-serif" font-size="13" font-weight="bold" lengthAdjust="spacing" textLength="25" x="432" y="168.7686">34.2</text><text fill="#000000" font-family="sans-serif" font-size="13" lengthAdjust="spacing" textLength="44" x="461" y="168.7686">create()</text><rect fill="#E3E3E3" height="49.2188" rx="2.5" ry="2.5" style="stroke:#181818;stroke-width:0.5;" width="190" x="685" y="151.2734"/><text fill="#000000" font-family="sans-serif" font-size="14" lengthAdjust="spacing" textLength="125" x="717.5" y="172.8066">listCommissionType</text><text fill="#000000" font-family="sans-serif" font-size="14" lengthAdjust="spacing" textLength="176" x="692" y="190.416">: List&lt;CommissionTypeDto&gt;</text><path d="M321,218.4922 L394,218.4922 L394,226.8438 L384,236.8438 L321,236.8438 L321,218.4922 " fill="#EEEEEE" style="stroke:#000000;stroke-width:1.5;"/><rect fill="none" height="311.4609" style="stroke:#000000;stroke-width:1.5;" width="726" x="321" y="218.4922"/><text fill="#000000" font-family="sans-serif" font-size="13" font-weight="bold" lengthAdjust="spacing" textLength="28" x="336" y="232.9873">loop</text><text fill="#000000" font-family="sans-serif" font-size="11" font-weight="bold" lengthAdjust="spacing" textLength="152" x="409" y="231.9111">[for each commission type]</text><line style="stroke:#181818;stroke-width:1.0;" x1="425" x2="472" y1="254.1953" y2="254.1953"/><line style="stroke:#181818;stroke-width:1.0;" x1="472" x2="472" y1="254.1953" y2="267.1953"/><line style="stroke:#181818;stroke-width:1.0;" x1="431" x2="472" y1="267.1953" y2="267.1953"/><polygon fill="#181818" points="441,263.1953,431,267.1953,441,271.1953,437,267.1953" style="stroke:#181818;stroke-width:1.0;"/><text fill="#000000" font-family="sans-serif" font-size="13" font-weight="bold" lengthAdjust="spacing" textLength="25" x="437" y="249.3389">34.3</text><text fill="#000000" font-family="sans-serif" font-size="13" lengthAdjust="spacing" textLength="137" x="466" y="249.3389">toDto(commissionType)</text><polygon fill="#181818" points="593,298.5469,603,302.5469,593,306.5469,597,302.5469" style="stroke:#181818;stroke-width:1.0;"/><line style="stroke:#181818;stroke-width:1.0;" x1="430" x2="599" y1="302.5469" y2="302.5469"/><text fill="#000000" font-family="sans-serif" font-size="13" font-weight="bold" lengthAdjust="spacing" textLength="25" x="437" y="297.6904">34.4</text><text fill="#000000" font-family="sans-serif" font-size="13" lengthAdjust="spacing" textLength="126" x="466" y="297.6904">getCommissionType()</text><polygon fill="#181818" points="441,328.8984,431,332.8984,441,336.8984,437,332.8984" style="stroke:#181818;stroke-width:1.0;"/><line style="stroke:#181818;stroke-width:1.0;stroke-dasharray:2.0,2.0;" x1="435" x2="609" y1="332.8984" y2="332.8984"/><text fill="#000000" font-family="sans-serif" font-size="13" font-weight="bold" lengthAdjust="spacing" textLength="25" x="447" y="328.042">34.5</text><text fill="#000000" font-family="sans-serif" font-size="13" lengthAdjust="spacing" textLength="98" x="476" y="328.042">commissionType</text><polygon fill="#181818" points="944,359.25,954,363.25,944,367.25,948,363.25" style="stroke:#181818;stroke-width:1.0;"/><line style="stroke:#181818;stroke-width:1.0;" x1="430" x2="950" y1="363.25" y2="363.25"/><text fill="#000000" font-family="sans-serif" font-size="13" font-weight="bold" lengthAdjust="spacing" textLength="25" x="437" y="358.3936">34.6</text><text fill="#000000" font-family="sans-serif" font-size="13" lengthAdjust="spacing" textLength="142" x="466" y="358.3936">create(commissionType)</text><line style="stroke:#181818;stroke-width:1.0;stroke-dasharray:2.0,2.0;" x1="430" x2="472" y1="428.6016" y2="428.6016"/><line style="stroke:#181818;stroke-width:1.0;stroke-dasharray:2.0,2.0;" x1="472" x2="472" y1="428.6016" y2="441.6016"/><line style="stroke:#181818;stroke-width:1.0;stroke-dasharray:2.0,2.0;" x1="425" x2="472" y1="441.6016" y2="441.6016"/><polygon fill="#181818" points="435,437.6016,425,441.6016,435,445.6016,431,441.6016" style="stroke:#181818;stroke-width:1.0;"/><text fill="#000000" font-family="sans-serif" font-size="13" font-weight="bold" lengthAdjust="spacing" textLength="25" x="437" y="423.7451">34.7</text><text fill="#000000" font-family="sans-serif" font-size="13" lengthAdjust="spacing" textLength="118" x="466" y="423.7451">commissionTypeDto</text><polygon fill="#181818" points="763,462.9531,773,466.9531,763,470.9531,767,466.9531" style="stroke:#181818;stroke-width:1.0;"/><line style="stroke:#181818;stroke-width:1.0;" x1="425" x2="769" y1="466.9531" y2="466.9531"/><text fill="#000000" font-family="sans-serif" font-size="13" font-weight="bold" lengthAdjust="spacing" textLength="25" x="432" y="462.0967">34.8</text><text fill="#000000" font-family="sans-serif" font-size="13" lengthAdjust="spacing" textLength="147" x="461" y="462.0967">add(commissionTypeDto)</text><polygon fill="#181818" points="220,555.3047,210,559.3047,220,563.3047,216,559.3047" style="stroke:#181818;stroke-width:1.0;"/><line style="stroke:#181818;stroke-width:1.0;stroke-dasharray:2.0,2.0;" x1="214" x2="419" y1="559.3047" y2="559.3047"/><text fill="#000000" font-family="sans-serif" font-size="13" font-weight="bold" lengthAdjust="spacing" textLength="25" x="226" y="554.4482">34.9</text><text fill="#000000" font-family="sans-serif" font-size="13" lengthAdjust="spacing" textLength="139" x="255" y="554.4482">commissionTypeListDto</text><polygon fill="#181818" points="11,592.6563,1,596.6563,11,600.6563,7,596.6563" style="stroke:#181818;stroke-width:1.0;"/><line style="stroke:#181818;stroke-width:1.0;stroke-dasharray:2.0,2.0;" x1="5" x2="203" y1="596.6563" y2="596.6563"/><text fill="#000000" font-family="sans-serif" font-size="13" font-weight="bold" lengthAdjust="spacing" textLength="14" x="17" y="591.7998">35</text><text fill="#000000" font-family="sans-serif" font-size="13" lengthAdjust="spacing" textLength="139" x="35" y="591.7998">commissionTypeListDto</text><!--SRC=[ZPDDRuCm38Rl-HLMJxGIawPr5rJjGe-T9dKzxfA1Ir4XOKdeLAa_VawO2cae6pSS-_7hBtqiHSCLhw6MGcO79Mi4erfa-lhIyEp82tmtvmf1OMQuAAgXWpxmN7wNee0zhpGoniXkognik30mIpQbDblyQb4RdKfXbAmgL3FW6jBTTkDxPxAkIwrBANRd1bzvqw3w40ca8_OE8UlUCiKAASDuFx8YoMaGRGjP-UQraIz3Z7MP4a7-eGuo3XdqonXlZHHj_OaAdXZG5x-uRYLBC98y8fzhyywT7yzCUU86kzwoGics8R8ueJBG1u6XAB1r4W_MkpS_vVBXaUPeUHRZaW_x3Cc_LNZZwOWUgKVRwCM2q9b22etcLa4bPGDxgG1vThZLJ-_tO9CwIUCzWPCA2LVWpM94umLx88X7XFcId7kEavX03rNMjoieSKILNQtnH6xfRXFzgThnGjXrsbEZ9XZFyoW0ZWp7NTL8div-kLmOGv6xNHdhr-_f1Efj-FsEN3V2ejqPUHVoxC9W5SVTNKwmFRYzoXy0]--></g></svg>