<?xml version="1.0" encoding="UTF-8" standalone="no"?><svg xmlns="http://www.w3.org/2000/svg" xmlns:xlink="http://www.w3.org/1999/xlink" contentStyleType="text/css" height="875px" preserveAspectRatio="none" style="width:854px;height:875px;background:#FFFFFF;" version="1.1" viewBox="0 0 854 875" width="854px" zoomAndPan="magnify"><defs/><g><rect fill="#FFFFFF" height="716.1953" style="stroke:#181818;stroke-width:1.0;" width="10" x="140" y="87.5703"/><rect fill="#FFFFFF" height="598.1406" style="stroke:#181818;stroke-width:1.0;" width="10" x="301" y="143.2734"/><rect fill="#FFFFFF" height="344.5156" style="stroke:#181818;stroke-width:1.0;" width="10" x="306" y="267.1953"/><rect fill="#FFFFFF" height="30.3516" style="stroke:#181818;stroke-width:1.0;" width="10" x="500" y="302.5469"/><rect fill="#FFFFFF" height="30.3516" style="stroke:#181818;stroke-width:1.0;" width="10" x="500" y="363.25"/><rect fill="#FFFFFF" height="30.3516" style="stroke:#181818;stroke-width:1.0;" width="10" x="500" y="423.9531"/><rect fill="#FFFFFF" height="30.3516" style="stroke:#181818;stroke-width:1.0;" width="10" x="500" y="484.6563"/><rect fill="#FFFFFF" height="30" style="stroke:#181818;stroke-width:1.0;" width="10" x="613" y="649.0625"/><rect fill="#FFFFFF" height="30" style="stroke:#181818;stroke-width:1.0;" width="10" x="775" y="545.3594"/><rect fill="none" height="671.8438" style="stroke:#000000;stroke-width:1.5;" width="794.5" x="54" y="102.5703"/><rect fill="none" height="493.5703" style="stroke:#000000;stroke-width:1.5;" width="604" x="234.5" y="218.4922"/><line style="stroke:#181818;stroke-width:0.5;stroke-dasharray:5.0,5.0;" x1="145" x2="145" y1="55.2188" y2="821.7656"/><line style="stroke:#181818;stroke-width:0.5;stroke-dasharray:5.0,5.0;" x1="305.5" x2="305.5" y1="55.2188" y2="821.7656"/><line style="stroke:#181818;stroke-width:0.5;stroke-dasharray:5.0,5.0;" x1="504.5" x2="504.5" y1="55.2188" y2="821.7656"/><line style="stroke:#181818;stroke-width:0.5;stroke-dasharray:5.0,5.0;" x1="617.5" x2="617.5" y1="191.3828" y2="821.7656"/><line style="stroke:#181818;stroke-width:0.5;stroke-dasharray:5.0,5.0;" x1="779.5" x2="779.5" y1="55.2188" y2="821.7656"/><rect fill="#E3E3E3" height="31.6094" rx="2.5" ry="2.5" style="stroke:#181818;stroke-width:0.5;" width="162" x="64" y="22.6094"/><text fill="#000000" font-family="sans-serif" font-size="14" lengthAdjust="spacing" textLength="148" x="71" y="44.1426">:ListRequestsController</text><rect fill="#E3E3E3" height="31.6094" rx="2.5" ry="2.5" style="stroke:#181818;stroke-width:0.5;" width="162" x="64" y="820.7656"/><text fill="#000000" font-family="sans-serif" font-size="14" lengthAdjust="spacing" textLength="148" x="71" y="842.2988">:ListRequestsController</text><rect fill="#E3E3E3" height="49.2188" rx="2.5" ry="2.5" style="stroke:#181818;stroke-width:0.5;" width="123" x="244.5" y="5"/><text fill="#000000" font-family="sans-serif" font-size="14" lengthAdjust="spacing" textLength="96" x="258" y="26.5332">requestMapper</text><text fill="#000000" font-family="sans-serif" font-size="14" lengthAdjust="spacing" textLength="109" x="251.5" y="44.1426">: RequestMapper</text><rect fill="#E3E3E3" height="49.2188" rx="2.5" ry="2.5" style="stroke:#181818;stroke-width:0.5;" width="123" x="244.5" y="820.7656"/><text fill="#000000" font-family="sans-serif" font-size="14" lengthAdjust="spacing" textLength="96" x="258" y="842.2988">requestMapper</text><text fill="#000000" font-family="sans-serif" font-size="14" lengthAdjust="spacing" textLength="109" x="251.5" y="859.9082">: RequestMapper</text><rect fill="#E3E3E3" height="49.2188" rx="2.5" ry="2.5" style="stroke:#181818;stroke-width:0.5;" width="75" x="467.5" y="5"/><text fill="#000000" font-family="sans-serif" font-size="14" lengthAdjust="spacing" textLength="48" x="481" y="26.5332">request</text><text fill="#000000" font-family="sans-serif" font-size="14" lengthAdjust="spacing" textLength="61" x="474.5" y="44.1426">: Request</text><rect fill="#E3E3E3" height="49.2188" rx="2.5" ry="2.5" style="stroke:#181818;stroke-width:0.5;" width="75" x="467.5" y="820.7656"/><text fill="#000000" font-family="sans-serif" font-size="14" lengthAdjust="spacing" textLength="48" x="481" y="842.2988">request</text><text fill="#000000" font-family="sans-serif" font-size="14" lengthAdjust="spacing" textLength="61" x="474.5" y="859.9082">: Request</text><rect fill="#E3E3E3" height="49.2188" rx="2.5" ry="2.5" style="stroke:#181818;stroke-width:0.5;" width="131" x="552.5" y="820.7656"/><text fill="#000000" font-family="sans-serif" font-size="14" lengthAdjust="spacing" textLength="92" x="572" y="842.2988">requestListDto</text><text fill="#000000" font-family="sans-serif" font-size="14" lengthAdjust="spacing" textLength="117" x="559.5" y="859.9082">:List&lt;RequestDto&gt;</text><rect fill="#E3E3E3" height="49.2188" rx="2.5" ry="2.5" style="stroke:#181818;stroke-width:0.5;" width="97" x="731.5" y="5"/><text fill="#000000" font-family="sans-serif" font-size="14" lengthAdjust="spacing" textLength="70" x="745" y="26.5332">requestDto</text><text fill="#000000" font-family="sans-serif" font-size="14" lengthAdjust="spacing" textLength="83" x="738.5" y="44.1426">: RequestDto</text><rect fill="#E3E3E3" height="49.2188" rx="2.5" ry="2.5" style="stroke:#181818;stroke-width:0.5;" width="97" x="731.5" y="820.7656"/><text fill="#000000" font-family="sans-serif" font-size="14" lengthAdjust="spacing" textLength="70" x="745" y="842.2988">requestDto</text><text fill="#000000" font-family="sans-serif" font-size="14" lengthAdjust="spacing" textLength="83" x="738.5" y="859.9082">: RequestDto</text><rect fill="#FFFFFF" height="716.1953" style="stroke:#181818;stroke-width:1.0;" width="10" x="140" y="87.5703"/><rect fill="#FFFFFF" height="598.1406" style="stroke:#181818;stroke-width:1.0;" width="10" x="301" y="143.2734"/><rect fill="#FFFFFF" height="344.5156" style="stroke:#181818;stroke-width:1.0;" width="10" x="306" y="267.1953"/><rect fill="#FFFFFF" height="30.3516" style="stroke:#181818;stroke-width:1.0;" width="10" x="500" y="302.5469"/><rect fill="#FFFFFF" height="30.3516" style="stroke:#181818;stroke-width:1.0;" width="10" x="500" y="363.25"/><rect fill="#FFFFFF" height="30.3516" style="stroke:#181818;stroke-width:1.0;" width="10" x="500" y="423.9531"/><rect fill="#FFFFFF" height="30.3516" style="stroke:#181818;stroke-width:1.0;" width="10" x="500" y="484.6563"/><rect fill="#FFFFFF" height="30" style="stroke:#181818;stroke-width:1.0;" width="10" x="613" y="649.0625"/><rect fill="#FFFFFF" height="30" style="stroke:#181818;stroke-width:1.0;" width="10" x="775" y="545.3594"/><polygon fill="#181818" points="128,83.5703,138,87.5703,128,91.5703,132,87.5703" style="stroke:#181818;stroke-width:1.0;"/><line style="stroke:#181818;stroke-width:1.0;" x1="0" x2="134" y1="87.5703" y2="87.5703"/><text fill="#000000" font-family="sans-serif" font-size="13" font-weight="bold" lengthAdjust="spacing" textLength="14" x="7" y="82.7139">14</text><text fill="#000000" font-family="sans-serif" font-size="13" lengthAdjust="spacing" textLength="103" x="25" y="82.7139">toDto(requestList)</text><path d="M54,102.5703 L268,102.5703 L268,110.9219 L258,120.9219 L54,120.9219 L54,102.5703 " fill="#EEEEEE" style="stroke:#000000;stroke-width:1.5;"/><rect fill="none" height="671.8438" style="stroke:#000000;stroke-width:1.5;" width="794.5" x="54" y="102.5703"/><text fill="#000000" font-family="sans-serif" font-size="13" font-weight="bold" lengthAdjust="spacing" textLength="169" x="69" y="117.0654">Convert request list to DTO</text><polygon fill="#181818" points="289,139.2734,299,143.2734,289,147.2734,293,143.2734" style="stroke:#181818;stroke-width:1.0;"/><line style="stroke:#181818;stroke-width:1.0;" x1="150" x2="295" y1="143.2734" y2="143.2734"/><text fill="#000000" font-family="sans-serif" font-size="13" font-weight="bold" lengthAdjust="spacing" textLength="25" x="157" y="138.417">14.1</text><text fill="#000000" font-family="sans-serif" font-size="13" lengthAdjust="spacing" textLength="103" x="186" y="138.417">toDto(requestList)</text><polygon fill="#181818" points="540.5,169.625,550.5,173.625,540.5,177.625,544.5,173.625" style="stroke:#181818;stroke-width:1.0;"/><line style="stroke:#181818;stroke-width:1.0;" x1="311" x2="546.5" y1="173.625" y2="173.625"/><text fill="#000000" font-family="sans-serif" font-size="13" font-weight="bold" lengthAdjust="spacing" textLength="25" x="318" y="168.7686">14.2</text><text fill="#000000" font-family="sans-serif" font-size="13" lengthAdjust="spacing" textLength="44" x="347" y="168.7686">create()</text><rect fill="#E3E3E3" height="49.2188" rx="2.5" ry="2.5" style="stroke:#181818;stroke-width:0.5;" width="131" x="552.5" y="151.2734"/><text fill="#000000" font-family="sans-serif" font-size="14" lengthAdjust="spacing" textLength="92" x="572" y="172.8066">requestListDto</text><text fill="#000000" font-family="sans-serif" font-size="14" lengthAdjust="spacing" textLength="117" x="559.5" y="190.416">:List&lt;RequestDto&gt;</text><path d="M234.5,218.4922 L307.5,218.4922 L307.5,226.8438 L297.5,236.8438 L234.5,236.8438 L234.5,218.4922 " fill="#EEEEEE" style="stroke:#000000;stroke-width:1.5;"/><rect fill="none" height="493.5703" style="stroke:#000000;stroke-width:1.5;" width="604" x="234.5" y="218.4922"/><text fill="#000000" font-family="sans-serif" font-size="13" font-weight="bold" lengthAdjust="spacing" textLength="28" x="249.5" y="232.9873">loop</text><text fill="#000000" font-family="sans-serif" font-size="11" font-weight="bold" lengthAdjust="spacing" textLength="100" x="322.5" y="231.9111">[for each request]</text><line style="stroke:#181818;stroke-width:1.0;" x1="311" x2="358" y1="254.1953" y2="254.1953"/><line style="stroke:#181818;stroke-width:1.0;" x1="358" x2="358" y1="254.1953" y2="267.1953"/><line style="stroke:#181818;stroke-width:1.0;" x1="317" x2="358" y1="267.1953" y2="267.1953"/><polygon fill="#181818" points="327,263.1953,317,267.1953,327,271.1953,323,267.1953" style="stroke:#181818;stroke-width:1.0;"/><text fill="#000000" font-family="sans-serif" font-size="13" font-weight="bold" lengthAdjust="spacing" textLength="25" x="323" y="249.3389">14.3</text><text fill="#000000" font-family="sans-serif" font-size="13" lengthAdjust="spacing" textLength="82" x="352" y="249.3389">toDto(request)</text><polygon fill="#181818" points="488,298.5469,498,302.5469,488,306.5469,492,302.5469" style="stroke:#181818;stroke-width:1.0;"/><line style="stroke:#181818;stroke-width:1.0;" x1="316" x2="494" y1="302.5469" y2="302.5469"/><text fill="#000000" font-family="sans-serif" font-size="13" font-weight="bold" lengthAdjust="spacing" textLength="25" x="323" y="297.6904">14.4</text><text fill="#000000" font-family="sans-serif" font-size="13" lengthAdjust="spacing" textLength="131" x="352" y="297.6904">getPropertyAttributes()</text><polygon fill="#181818" points="327,328.8984,317,332.8984,327,336.8984,323,332.8984" style="stroke:#181818;stroke-width:1.0;"/><line style="stroke:#181818;stroke-width:1.0;stroke-dasharray:2.0,2.0;" x1="321" x2="504" y1="332.8984" y2="332.8984"/><text fill="#000000" font-family="sans-serif" font-size="13" font-weight="bold" lengthAdjust="spacing" textLength="25" x="333" y="328.042">14.5</text><text fill="#000000" font-family="sans-serif" font-size="13" lengthAdjust="spacing" textLength="103" x="362" y="328.042">propertyAttributes</text><polygon fill="#181818" points="488,359.25,498,363.25,488,367.25,492,363.25" style="stroke:#181818;stroke-width:1.0;"/><line style="stroke:#181818;stroke-width:1.0;" x1="316" x2="494" y1="363.25" y2="363.25"/><text fill="#000000" font-family="sans-serif" font-size="13" font-weight="bold" lengthAdjust="spacing" textLength="25" x="323" y="358.3936">14.6</text><text fill="#000000" font-family="sans-serif" font-size="13" lengthAdjust="spacing" textLength="136" x="352" y="358.3936">getBusinessAttributes()</text><polygon fill="#181818" points="327,389.6016,317,393.6016,327,397.6016,323,393.6016" style="stroke:#181818;stroke-width:1.0;"/><line style="stroke:#181818;stroke-width:1.0;stroke-dasharray:2.0,2.0;" x1="321" x2="504" y1="393.6016" y2="393.6016"/><text fill="#000000" font-family="sans-serif" font-size="13" font-weight="bold" lengthAdjust="spacing" textLength="25" x="333" y="388.7451">14.7</text><text fill="#000000" font-family="sans-serif" font-size="13" lengthAdjust="spacing" textLength="108" x="362" y="388.7451">businessAttributes</text><polygon fill="#181818" points="488,419.9531,498,423.9531,488,427.9531,492,423.9531" style="stroke:#181818;stroke-width:1.0;"/><line style="stroke:#181818;stroke-width:1.0;" x1="316" x2="494" y1="423.9531" y2="423.9531"/><text fill="#000000" font-family="sans-serif" font-size="13" font-weight="bold" lengthAdjust="spacing" textLength="25" x="323" y="419.0967">14.8</text><text fill="#000000" font-family="sans-serif" font-size="13" lengthAdjust="spacing" textLength="101" x="352" y="419.0967">getRequestDate()</text><polygon fill="#181818" points="327,450.3047,317,454.3047,327,458.3047,323,454.3047" style="stroke:#181818;stroke-width:1.0;"/><line style="stroke:#181818;stroke-width:1.0;stroke-dasharray:2.0,2.0;" x1="321" x2="504" y1="454.3047" y2="454.3047"/><text fill="#000000" font-family="sans-serif" font-size="13" font-weight="bold" lengthAdjust="spacing" textLength="25" x="333" y="449.4482">14.9</text><text fill="#000000" font-family="sans-serif" font-size="13" lengthAdjust="spacing" textLength="70" x="362" y="449.4482">requestDate</text><polygon fill="#181818" points="488,480.6563,498,484.6563,488,488.6563,492,484.6563" style="stroke:#181818;stroke-width:1.0;"/><line style="stroke:#181818;stroke-width:1.0;" x1="316" x2="494" y1="484.6563" y2="484.6563"/><text fill="#000000" font-family="sans-serif" font-size="13" font-weight="bold" lengthAdjust="spacing" textLength="32" x="323" y="479.7998">14.10</text><text fill="#000000" font-family="sans-serif" font-size="13" lengthAdjust="spacing" textLength="86" x="359" y="479.7998">getRequestID()</text><polygon fill="#181818" points="327,511.0078,317,515.0078,327,519.0078,323,515.0078" style="stroke:#181818;stroke-width:1.0;"/><line style="stroke:#181818;stroke-width:1.0;stroke-dasharray:2.0,2.0;" x1="321" x2="504" y1="515.0078" y2="515.0078"/><text fill="#000000" font-family="sans-serif" font-size="13" font-weight="bold" lengthAdjust="spacing" textLength="32" x="333" y="510.1514">14.11</text><text fill="#000000" font-family="sans-serif" font-size="13" lengthAdjust="spacing" textLength="55" x="369" y="510.1514">requestID</text><polygon fill="#181818" points="763,541.3594,773,545.3594,763,549.3594,767,545.3594" style="stroke:#181818;stroke-width:1.0;"/><line style="stroke:#181818;stroke-width:1.0;" x1="316" x2="769" y1="545.3594" y2="545.3594"/><text fill="#000000" font-family="sans-serif" font-size="13" font-weight="bold" lengthAdjust="spacing" textLength="32" x="323" y="540.5029">14.12</text><text fill="#000000" font-family="sans-serif" font-size="13" lengthAdjust="spacing" textLength="404" x="359" y="540.5029">create(propertyAttributes, businessAttributes, requestDate, requestID)</text><line style="stroke:#181818;stroke-width:1.0;stroke-dasharray:2.0,2.0;" x1="316" x2="358" y1="610.7109" y2="610.7109"/><line style="stroke:#181818;stroke-width:1.0;stroke-dasharray:2.0,2.0;" x1="358" x2="358" y1="610.7109" y2="623.7109"/><line style="stroke:#181818;stroke-width:1.0;stroke-dasharray:2.0,2.0;" x1="311" x2="358" y1="623.7109" y2="623.7109"/><polygon fill="#181818" points="321,619.7109,311,623.7109,321,627.7109,317,623.7109" style="stroke:#181818;stroke-width:1.0;"/><text fill="#000000" font-family="sans-serif" font-size="13" font-weight="bold" lengthAdjust="spacing" textLength="32" x="323" y="605.8545">14.13</text><text fill="#000000" font-family="sans-serif" font-size="13" lengthAdjust="spacing" textLength="63" x="359" y="605.8545">requestDto</text><polygon fill="#181818" points="601,645.0625,611,649.0625,601,653.0625,605,649.0625" style="stroke:#181818;stroke-width:1.0;"/><line style="stroke:#181818;stroke-width:1.0;" x1="311" x2="607" y1="649.0625" y2="649.0625"/><text fill="#000000" font-family="sans-serif" font-size="13" font-weight="bold" lengthAdjust="spacing" textLength="32" x="318" y="644.2061">14.14</text><text fill="#000000" font-family="sans-serif" font-size="13" lengthAdjust="spacing" textLength="92" x="354" y="644.2061">add(requestDto)</text><polygon fill="#181818" points="161,737.4141,151,741.4141,161,745.4141,157,741.4141" style="stroke:#181818;stroke-width:1.0;"/><line style="stroke:#181818;stroke-width:1.0;stroke-dasharray:2.0,2.0;" x1="155" x2="305" y1="741.4141" y2="741.4141"/><text fill="#000000" font-family="sans-serif" font-size="13" font-weight="bold" lengthAdjust="spacing" textLength="32" x="167" y="736.5576">14.15</text><text fill="#000000" font-family="sans-serif" font-size="13" lengthAdjust="spacing" textLength="84" x="203" y="736.5576">requestListDto</text><polygon fill="#181818" points="11,799.7656,1,803.7656,11,807.7656,7,803.7656" style="stroke:#181818;stroke-width:1.0;"/><line style="stroke:#181818;stroke-width:1.0;stroke-dasharray:2.0,2.0;" x1="5" x2="144" y1="803.7656" y2="803.7656"/><text fill="#000000" font-family="sans-serif" font-size="13" font-weight="bold" lengthAdjust="spacing" textLength="14" x="17" y="798.9092">15</text><text fill="#000000" font-family="sans-serif" font-size="13" lengthAdjust="spacing" textLength="84" x="35" y="798.9092">requestListDto</text><!--SRC=[fLHDJy904BtlhvXugWPCJFH2Z8a21nAC2dZpihH3QIYxTNUACU77kzrjQUb75E52E_lUczUtkwCtaKYuublOIY7zjP9R158fCdrOIRY_uI7EwJj6KEWJ5s5S1UWr3-HN949OyLWZOypKAVAZX0k2Yy4qqZJ3pnGrwQ4Kf6GSexe0hc6uc4sFqSe1dtcIeFeG0vXL2vPaAkwjbLdXEFJuxNqyNxHYCsSZaeQIFTtdD5DvAAZJoNmnMhoqiXqJIbRXpZmonbEI8jqkKS7DBGFpwp_Oxnq0IOFmAXukxJhtATfnGfSA2vLC4p21xL0Hv6Y83Tm8G6RgkCVrZLN9o5chGqhmUyCoKLilgPdE8OIhAoFbApGCxz8XOoaJM4a5oFrruR55eylBQJwoVJGA8TAhagPCtuz4AbgcXDghI-NRxeHoRh_c9Md8M7Y07JATVfvI7GdK-am_ouRCF_qKPz9jrUb6LCa_py5aT4x_oUY4xlRUbIUqkRUzbdnxrK_jbNsR1pExr7Kp-LMlUUd8ifN_Xsjd97WGUALCCz1YIZN3ggxiztlxZo9eysm7ny5kFXgxBHUApCY1dLL7u-ZE0k2-ty-7NejkLTZDl1y0]--></g></svg>