<?xml version="1.0" encoding="UTF-8" standalone="no"?><svg xmlns="http://www.w3.org/2000/svg" xmlns:xlink="http://www.w3.org/1999/xlink" contentStyleType="text/css" height="642px" preserveAspectRatio="none" style="width:1091px;height:642px;background:#FFFFFF;" version="1.1" viewBox="0 0 1091 642" width="1091px" zoomAndPan="magnify"><defs/><g><rect fill="#FFFFFF" height="482.9219" style="stroke:#181818;stroke-width:1.0;" width="10" x="280" y="87.5703"/><rect fill="#FFFFFF" height="389.8672" style="stroke:#181818;stroke-width:1.0;" width="10" x="588" y="143.2734"/><rect fill="#FFFFFF" height="41.3516" style="stroke:#181818;stroke-width:1.0;" width="10" x="593" y="353.7344"/><rect fill="#FFFFFF" height="41.3516" style="stroke:#181818;stroke-width:1.0;" width="10" x="593" y="454.4375"/><rect fill="#FFFFFF" height="30.3516" style="stroke:#181818;stroke-width:1.0;" width="10" x="1023" y="198.9766"/><rect fill="#FFFFFF" height="30.3516" style="stroke:#181818;stroke-width:1.0;" width="10" x="1023" y="259.6797"/><rect fill="none" height="438.5703" style="stroke:#000000;stroke-width:1.5;" width="845" x="240.5" y="102.5703"/><rect fill="none" height="258.8125" style="stroke:#000000;stroke-width:1.5;" width="551" x="524.5" y="158.2734"/><rect fill="none" height="105.0547" style="stroke:#000000;stroke-width:1.5;" width="462" x="534.5" y="305.0313"/><line style="stroke:#181818;stroke-width:0.5;stroke-dasharray:5.0,5.0;" x1="284.5" x2="284.5" y1="55.2188" y2="588.4922"/><line style="stroke:#181818;stroke-width:0.5;stroke-dasharray:5.0,5.0;" x1="592.5" x2="592.5" y1="55.2188" y2="588.4922"/><line style="stroke:#181818;stroke-width:0.5;stroke-dasharray:5.0,5.0;" x1="918.5" x2="918.5" y1="55.2188" y2="588.4922"/><line style="stroke:#181818;stroke-width:0.5;stroke-dasharray:5.0,5.0;" x1="1027.5" x2="1027.5" y1="55.2188" y2="588.4922"/><rect fill="#E3E3E3" height="49.2188" rx="2.5" ry="2.5" style="stroke:#181818;stroke-width:0.5;" width="69" x="250.5" y="5"/><text fill="#000000" font-family="sans-serif" font-size="14" lengthAdjust="spacing" textLength="46" x="262" y="26.5332">agency</text><text fill="#000000" font-family="sans-serif" font-size="14" lengthAdjust="spacing" textLength="55" x="257.5" y="44.1426">: Agency</text><rect fill="#E3E3E3" height="49.2188" rx="2.5" ry="2.5" style="stroke:#181818;stroke-width:0.5;" width="69" x="250.5" y="587.4922"/><text fill="#000000" font-family="sans-serif" font-size="14" lengthAdjust="spacing" textLength="46" x="262" y="609.0254">agency</text><text fill="#000000" font-family="sans-serif" font-size="14" lengthAdjust="spacing" textLength="55" x="257.5" y="626.6348">: Agency</text><rect fill="#E3E3E3" height="49.2188" rx="2.5" ry="2.5" style="stroke:#181818;stroke-width:0.5;" width="97" x="544.5" y="5"/><text fill="#000000" font-family="sans-serif" font-size="14" lengthAdjust="spacing" textLength="70" x="558" y="26.5332">requestList</text><text fill="#000000" font-family="sans-serif" font-size="14" lengthAdjust="spacing" textLength="83" x="551.5" y="44.1426">: RequestList</text><rect fill="#E3E3E3" height="49.2188" rx="2.5" ry="2.5" style="stroke:#181818;stroke-width:0.5;" width="97" x="544.5" y="587.4922"/><text fill="#000000" font-family="sans-serif" font-size="14" lengthAdjust="spacing" textLength="70" x="558" y="609.0254">requestList</text><text fill="#000000" font-family="sans-serif" font-size="14" lengthAdjust="spacing" textLength="83" x="551.5" y="626.6348">: RequestList</text><rect fill="#E3E3E3" height="49.2188" rx="2.5" ry="2.5" style="stroke:#181818;stroke-width:0.5;" width="123" x="857.5" y="5"/><text fill="#000000" font-family="sans-serif" font-size="14" lengthAdjust="spacing" textLength="96" x="871" y="26.5332">requestMapper</text><text fill="#000000" font-family="sans-serif" font-size="14" lengthAdjust="spacing" textLength="109" x="864.5" y="44.1426">: RequestMapper</text><rect fill="#E3E3E3" height="49.2188" rx="2.5" ry="2.5" style="stroke:#181818;stroke-width:0.5;" width="123" x="857.5" y="587.4922"/><text fill="#000000" font-family="sans-serif" font-size="14" lengthAdjust="spacing" textLength="96" x="871" y="609.0254">requestMapper</text><text fill="#000000" font-family="sans-serif" font-size="14" lengthAdjust="spacing" textLength="109" x="864.5" y="626.6348">: RequestMapper</text><rect fill="#E3E3E3" height="49.2188" rx="2.5" ry="2.5" style="stroke:#181818;stroke-width:0.5;" width="75" x="990.5" y="5"/><text fill="#000000" font-family="sans-serif" font-size="14" lengthAdjust="spacing" textLength="48" x="1004" y="26.5332">request</text><text fill="#000000" font-family="sans-serif" font-size="14" lengthAdjust="spacing" textLength="61" x="997.5" y="44.1426">: Request</text><rect fill="#E3E3E3" height="49.2188" rx="2.5" ry="2.5" style="stroke:#181818;stroke-width:0.5;" width="75" x="990.5" y="587.4922"/><text fill="#000000" font-family="sans-serif" font-size="14" lengthAdjust="spacing" textLength="48" x="1004" y="609.0254">request</text><text fill="#000000" font-family="sans-serif" font-size="14" lengthAdjust="spacing" textLength="61" x="997.5" y="626.6348">: Request</text><rect fill="#FFFFFF" height="482.9219" style="stroke:#181818;stroke-width:1.0;" width="10" x="280" y="87.5703"/><rect fill="#FFFFFF" height="389.8672" style="stroke:#181818;stroke-width:1.0;" width="10" x="588" y="143.2734"/><rect fill="#FFFFFF" height="41.3516" style="stroke:#181818;stroke-width:1.0;" width="10" x="593" y="353.7344"/><rect fill="#FFFFFF" height="41.3516" style="stroke:#181818;stroke-width:1.0;" width="10" x="593" y="454.4375"/><rect fill="#FFFFFF" height="30.3516" style="stroke:#181818;stroke-width:1.0;" width="10" x="1023" y="198.9766"/><rect fill="#FFFFFF" height="30.3516" style="stroke:#181818;stroke-width:1.0;" width="10" x="1023" y="259.6797"/><polygon fill="#181818" points="268,83.5703,278,87.5703,268,91.5703,272,87.5703" style="stroke:#181818;stroke-width:1.0;"/><line style="stroke:#181818;stroke-width:1.0;" x1="0" x2="274" y1="87.5703" y2="87.5703"/><text fill="#000000" font-family="sans-serif" font-size="13" font-weight="bold" lengthAdjust="spacing" textLength="14" x="7" y="82.7139">13</text><text fill="#000000" font-family="sans-serif" font-size="13" lengthAdjust="spacing" textLength="243" x="25" y="82.7139">getRequestListByAgentEmail(agentEmail)</text><path d="M240.5,102.5703 L394.5,102.5703 L394.5,110.9219 L384.5,120.9219 L240.5,120.9219 L240.5,102.5703 " fill="#EEEEEE" style="stroke:#000000;stroke-width:1.5;"/><rect fill="none" height="438.5703" style="stroke:#000000;stroke-width:1.5;" width="845" x="240.5" y="102.5703"/><text fill="#000000" font-family="sans-serif" font-size="13" font-weight="bold" lengthAdjust="spacing" textLength="109" x="255.5" y="117.0654">Get Requests List</text><polygon fill="#181818" points="576,139.2734,586,143.2734,576,147.2734,580,143.2734" style="stroke:#181818;stroke-width:1.0;"/><line style="stroke:#181818;stroke-width:1.0;" x1="290" x2="582" y1="143.2734" y2="143.2734"/><text fill="#000000" font-family="sans-serif" font-size="13" font-weight="bold" lengthAdjust="spacing" textLength="25" x="297" y="138.417">13.1</text><text fill="#000000" font-family="sans-serif" font-size="13" lengthAdjust="spacing" textLength="250" x="326" y="138.417">getRequestsListByAgentEmail(agentEmail)</text><path d="M524.5,158.2734 L597.5,158.2734 L597.5,166.625 L587.5,176.625 L524.5,176.625 L524.5,158.2734 " fill="#EEEEEE" style="stroke:#000000;stroke-width:1.5;"/><rect fill="none" height="258.8125" style="stroke:#000000;stroke-width:1.5;" width="551" x="524.5" y="158.2734"/><text fill="#000000" font-family="sans-serif" font-size="13" font-weight="bold" lengthAdjust="spacing" textLength="28" x="539.5" y="172.7686">loop</text><text fill="#000000" font-family="sans-serif" font-size="11" font-weight="bold" lengthAdjust="spacing" textLength="100" x="612.5" y="171.6924">[for each request]</text><polygon fill="#181818" points="1011,194.9766,1021,198.9766,1011,202.9766,1015,198.9766" style="stroke:#181818;stroke-width:1.0;"/><line style="stroke:#181818;stroke-width:1.0;" x1="598" x2="1017" y1="198.9766" y2="198.9766"/><text fill="#000000" font-family="sans-serif" font-size="13" font-weight="bold" lengthAdjust="spacing" textLength="25" x="605" y="194.1201">13.2</text><text fill="#000000" font-family="sans-serif" font-size="13" lengthAdjust="spacing" textLength="188" x="634" y="194.1201">hasAgentWithEmail(agentEmail)</text><polygon fill="#181818" points="609,225.3281,599,229.3281,609,233.3281,605,229.3281" style="stroke:#181818;stroke-width:1.0;"/><line style="stroke:#181818;stroke-width:1.0;stroke-dasharray:2.0,2.0;" x1="603" x2="1027" y1="229.3281" y2="229.3281"/><text fill="#000000" font-family="sans-serif" font-size="13" font-weight="bold" lengthAdjust="spacing" textLength="25" x="615" y="224.4717">13.3</text><text fill="#000000" font-family="sans-serif" font-size="13" lengthAdjust="spacing" textLength="53" x="644" y="224.4717">true/false</text><polygon fill="#181818" points="1011,255.6797,1021,259.6797,1011,263.6797,1015,259.6797" style="stroke:#181818;stroke-width:1.0;"/><line style="stroke:#181818;stroke-width:1.0;" x1="598" x2="1017" y1="259.6797" y2="259.6797"/><text fill="#000000" font-family="sans-serif" font-size="13" font-weight="bold" lengthAdjust="spacing" textLength="25" x="605" y="254.8232">13.4</text><text fill="#000000" font-family="sans-serif" font-size="13" lengthAdjust="spacing" textLength="121" x="634" y="254.8232">getValidationStatus()</text><polygon fill="#181818" points="609,286.0313,599,290.0313,609,294.0313,605,290.0313" style="stroke:#181818;stroke-width:1.0;"/><line style="stroke:#181818;stroke-width:1.0;stroke-dasharray:2.0,2.0;" x1="603" x2="1027" y1="290.0313" y2="290.0313"/><text fill="#000000" font-family="sans-serif" font-size="13" font-weight="bold" lengthAdjust="spacing" textLength="25" x="615" y="285.1748">13.5</text><text fill="#000000" font-family="sans-serif" font-size="13" lengthAdjust="spacing" textLength="53" x="644" y="285.1748">true/false</text><path d="M534.5,305.0313 L595.5,305.0313 L595.5,313.3828 L585.5,323.3828 L534.5,323.3828 L534.5,305.0313 " fill="#EEEEEE" style="stroke:#000000;stroke-width:1.5;"/><rect fill="none" height="105.0547" style="stroke:#000000;stroke-width:1.5;" width="462" x="534.5" y="305.0313"/><text fill="#000000" font-family="sans-serif" font-size="13" font-weight="bold" lengthAdjust="spacing" textLength="16" x="549.5" y="319.5264">alt</text><text fill="#000000" font-family="sans-serif" font-size="11" font-weight="bold" lengthAdjust="spacing" textLength="381" x="610.5" y="318.4502">[hasAgentWithEmail(agentEmail) = true &amp; getValidationStatus() = true]</text><line style="stroke:#181818;stroke-width:1.0;" x1="598" x2="645" y1="340.7344" y2="340.7344"/><line style="stroke:#181818;stroke-width:1.0;" x1="645" x2="645" y1="340.7344" y2="353.7344"/><line style="stroke:#181818;stroke-width:1.0;" x1="604" x2="645" y1="353.7344" y2="353.7344"/><polygon fill="#181818" points="614,349.7344,604,353.7344,614,357.7344,610,353.7344" style="stroke:#181818;stroke-width:1.0;"/><text fill="#000000" font-family="sans-serif" font-size="13" font-weight="bold" lengthAdjust="spacing" textLength="25" x="610" y="335.8779">13.6</text><text fill="#000000" font-family="sans-serif" font-size="13" lengthAdjust="spacing" textLength="72" x="639" y="335.8779">add(request)</text><line style="stroke:#181818;stroke-width:1.0;stroke-dasharray:2.0,2.0;" x1="603" x2="645" y1="394.0859" y2="394.0859"/><line style="stroke:#181818;stroke-width:1.0;stroke-dasharray:2.0,2.0;" x1="645" x2="645" y1="394.0859" y2="407.0859"/><line style="stroke:#181818;stroke-width:1.0;stroke-dasharray:2.0,2.0;" x1="598" x2="645" y1="407.0859" y2="407.0859"/><polygon fill="#181818" points="608,403.0859,598,407.0859,608,411.0859,604,407.0859" style="stroke:#181818;stroke-width:1.0;"/><text fill="#000000" font-family="sans-serif" font-size="13" font-weight="bold" lengthAdjust="spacing" textLength="25" x="610" y="389.2295">13.7</text><text fill="#000000" font-family="sans-serif" font-size="13" lengthAdjust="spacing" textLength="4" x="639" y="389.2295"> </text><line style="stroke:#181818;stroke-width:1.0;" x1="598" x2="645" y1="441.4375" y2="441.4375"/><line style="stroke:#181818;stroke-width:1.0;" x1="645" x2="645" y1="441.4375" y2="454.4375"/><line style="stroke:#181818;stroke-width:1.0;" x1="604" x2="645" y1="454.4375" y2="454.4375"/><polygon fill="#181818" points="614,450.4375,604,454.4375,614,458.4375,610,454.4375" style="stroke:#181818;stroke-width:1.0;"/><text fill="#000000" font-family="sans-serif" font-size="13" font-weight="bold" lengthAdjust="spacing" textLength="25" x="610" y="436.5811">13.8</text><text fill="#000000" font-family="sans-serif" font-size="13" lengthAdjust="spacing" textLength="273" x="639" y="436.5811">sortRequestByMostRecentAdded(listRequests)</text><line style="stroke:#181818;stroke-width:1.0;stroke-dasharray:2.0,2.0;" x1="603" x2="645" y1="494.7891" y2="494.7891"/><line style="stroke:#181818;stroke-width:1.0;stroke-dasharray:2.0,2.0;" x1="645" x2="645" y1="494.7891" y2="507.7891"/><line style="stroke:#181818;stroke-width:1.0;stroke-dasharray:2.0,2.0;" x1="598" x2="645" y1="507.7891" y2="507.7891"/><polygon fill="#181818" points="608,503.7891,598,507.7891,608,511.7891,604,507.7891" style="stroke:#181818;stroke-width:1.0;"/><text fill="#000000" font-family="sans-serif" font-size="13" font-weight="bold" lengthAdjust="spacing" textLength="25" x="610" y="489.9326">13.9</text><text fill="#000000" font-family="sans-serif" font-size="13" lengthAdjust="spacing" textLength="4" x="639" y="489.9326"> </text><polygon fill="#181818" points="301,529.1406,291,533.1406,301,537.1406,297,533.1406" style="stroke:#181818;stroke-width:1.0;"/><line style="stroke:#181818;stroke-width:1.0;stroke-dasharray:2.0,2.0;" x1="295" x2="592" y1="533.1406" y2="533.1406"/><text fill="#000000" font-family="sans-serif" font-size="13" font-weight="bold" lengthAdjust="spacing" textLength="32" x="307" y="528.2842">13.10</text><text fill="#000000" font-family="sans-serif" font-size="13" lengthAdjust="spacing" textLength="64" x="343" y="528.2842">requestList</text><polygon fill="#181818" points="11,566.4922,1,570.4922,11,574.4922,7,570.4922" style="stroke:#181818;stroke-width:1.0;"/><line style="stroke:#181818;stroke-width:1.0;stroke-dasharray:2.0,2.0;" x1="5" x2="284" y1="570.4922" y2="570.4922"/><text fill="#000000" font-family="sans-serif" font-size="13" font-weight="bold" lengthAdjust="spacing" textLength="14" x="17" y="565.6357">14</text><text fill="#000000" font-family="sans-serif" font-size="13" lengthAdjust="spacing" textLength="64" x="35" y="565.6357">requestList</text><!--SRC=[bLJDJjmm4BxdAKOSq79O42gdLLjfGIikfH9TQ5Mfbo4U4el4Jkr9gttxEevZx1A2yCcJcUzd9hRjarGT6coXrKgNjT4j0PkU2Xip7PPFMD6U3ms1eP9HLKrQO6iK-gzK5JnYOwbmooLObh93nN3amAey_58RsFhT4Q25xVNkwzNFlD3GxvuiVv6MX-flpw67k7ZOps9kiEl89AZnmuGRerbaWXchTxVtk_rTKM3FMlNj0nau_r20M-lFmVO6AkB4tkLXw8ntBSfcXN5xub5Oilo3J5FBHMLqty4ryQHhmVUL2PwU5nuzh14uo8SHG6h0lkaWSp5DCMOQhJjur0O8onh2L68sIWxgusYSUetMw_sGNB-kcOXEGtsc3LphhAlXw9sDfoXM2bgYcNFdPlCT6ocGfLPxHkxjAd6rPEiTlfQDUPs6boS5dpmp7CzR3kcSDEqu-aCXLk7FdVpduTN_dhEbT7b9scRWoFAaH4AQHxDchJRJsRqyt6ZhWjADP2i4YLKZRJpOioVfHHjlj31ZVnuRRja6acTecQPmpOA_pTdTlHXH7zVh-5oye4pemhFm3m00]--></g></svg>