<?xml version="1.0" encoding="UTF-8" standalone="no"?><svg xmlns="http://www.w3.org/2000/svg" xmlns:xlink="http://www.w3.org/1999/xlink" contentStyleType="text/css" height="582px" preserveAspectRatio="none" style="width:1091px;height:582px;background:#FFFFFF;" version="1.1" viewBox="0 0 1091 582" width="1091px" zoomAndPan="magnify"><defs/><g><rect fill="#FFFFFF" height="422.2188" style="stroke:#181818;stroke-width:1.0;" width="10" x="280" y="87.5703"/><rect fill="#FFFFFF" height="329.1641" style="stroke:#181818;stroke-width:1.0;" width="10" x="588" y="143.2734"/><rect fill="#FFFFFF" height="41.3516" style="stroke:#181818;stroke-width:1.0;" width="10" x="593" y="293.0313"/><rect fill="#FFFFFF" height="41.3516" style="stroke:#181818;stroke-width:1.0;" width="10" x="593" y="393.7344"/><rect fill="#FFFFFF" height="30.3516" style="stroke:#181818;stroke-width:1.0;" width="10" x="1023" y="198.9766"/><rect fill="none" height="377.8672" style="stroke:#000000;stroke-width:1.5;" width="845" x="240.5" y="102.5703"/><rect fill="none" height="198.1094" style="stroke:#000000;stroke-width:1.5;" width="551" x="524.5" y="158.2734"/><rect fill="none" height="105.0547" style="stroke:#000000;stroke-width:1.5;" width="188.5" x="534.5" y="244.3281"/><line style="stroke:#181818;stroke-width:0.5;stroke-dasharray:5.0,5.0;" x1="284.5" x2="284.5" y1="55.2188" y2="527.7891"/><line style="stroke:#181818;stroke-width:0.5;stroke-dasharray:5.0,5.0;" x1="592.5" x2="592.5" y1="55.2188" y2="527.7891"/><line style="stroke:#181818;stroke-width:0.5;stroke-dasharray:5.0,5.0;" x1="918.5" x2="918.5" y1="55.2188" y2="527.7891"/><line style="stroke:#181818;stroke-width:0.5;stroke-dasharray:5.0,5.0;" x1="1027.5" x2="1027.5" y1="55.2188" y2="527.7891"/><rect fill="#E3E3E3" height="49.2188" rx="2.5" ry="2.5" style="stroke:#181818;stroke-width:0.5;" width="69" x="250.5" y="5"/><text fill="#000000" font-family="sans-serif" font-size="14" lengthAdjust="spacing" textLength="46" x="262" y="26.5332">agency</text><text fill="#000000" font-family="sans-serif" font-size="14" lengthAdjust="spacing" textLength="55" x="257.5" y="44.1426">: Agency</text><rect fill="#E3E3E3" height="49.2188" rx="2.5" ry="2.5" style="stroke:#181818;stroke-width:0.5;" width="69" x="250.5" y="526.7891"/><text fill="#000000" font-family="sans-serif" font-size="14" lengthAdjust="spacing" textLength="46" x="262" y="548.3223">agency</text><text fill="#000000" font-family="sans-serif" font-size="14" lengthAdjust="spacing" textLength="55" x="257.5" y="565.9316">: Agency</text><rect fill="#E3E3E3" height="49.2188" rx="2.5" ry="2.5" style="stroke:#181818;stroke-width:0.5;" width="97" x="544.5" y="5"/><text fill="#000000" font-family="sans-serif" font-size="14" lengthAdjust="spacing" textLength="70" x="558" y="26.5332">requestList</text><text fill="#000000" font-family="sans-serif" font-size="14" lengthAdjust="spacing" textLength="83" x="551.5" y="44.1426">: RequestList</text><rect fill="#E3E3E3" height="49.2188" rx="2.5" ry="2.5" style="stroke:#181818;stroke-width:0.5;" width="97" x="544.5" y="526.7891"/><text fill="#000000" font-family="sans-serif" font-size="14" lengthAdjust="spacing" textLength="70" x="558" y="548.3223">requestList</text><text fill="#000000" font-family="sans-serif" font-size="14" lengthAdjust="spacing" textLength="83" x="551.5" y="565.9316">: RequestList</text><rect fill="#E3E3E3" height="49.2188" rx="2.5" ry="2.5" style="stroke:#181818;stroke-width:0.5;" width="123" x="857.5" y="5"/><text fill="#000000" font-family="sans-serif" font-size="14" lengthAdjust="spacing" textLength="96" x="871" y="26.5332">requestMapper</text><text fill="#000000" font-family="sans-serif" font-size="14" lengthAdjust="spacing" textLength="109" x="864.5" y="44.1426">: RequestMapper</text><rect fill="#E3E3E3" height="49.2188" rx="2.5" ry="2.5" style="stroke:#181818;stroke-width:0.5;" width="123" x="857.5" y="526.7891"/><text fill="#000000" font-family="sans-serif" font-size="14" lengthAdjust="spacing" textLength="96" x="871" y="548.3223">requestMapper</text><text fill="#000000" font-family="sans-serif" font-size="14" lengthAdjust="spacing" textLength="109" x="864.5" y="565.9316">: RequestMapper</text><rect fill="#E3E3E3" height="49.2188" rx="2.5" ry="2.5" style="stroke:#181818;stroke-width:0.5;" width="75" x="990.5" y="5"/><text fill="#000000" font-family="sans-serif" font-size="14" lengthAdjust="spacing" textLength="48" x="1004" y="26.5332">request</text><text fill="#000000" font-family="sans-serif" font-size="14" lengthAdjust="spacing" textLength="61" x="997.5" y="44.1426">: Request</text><rect fill="#E3E3E3" height="49.2188" rx="2.5" ry="2.5" style="stroke:#181818;stroke-width:0.5;" width="75" x="990.5" y="526.7891"/><text fill="#000000" font-family="sans-serif" font-size="14" lengthAdjust="spacing" textLength="48" x="1004" y="548.3223">request</text><text fill="#000000" font-family="sans-serif" font-size="14" lengthAdjust="spacing" textLength="61" x="997.5" y="565.9316">: Request</text><rect fill="#FFFFFF" height="422.2188" style="stroke:#181818;stroke-width:1.0;" width="10" x="280" y="87.5703"/><rect fill="#FFFFFF" height="329.1641" style="stroke:#181818;stroke-width:1.0;" width="10" x="588" y="143.2734"/><rect fill="#FFFFFF" height="41.3516" style="stroke:#181818;stroke-width:1.0;" width="10" x="593" y="293.0313"/><rect fill="#FFFFFF" height="41.3516" style="stroke:#181818;stroke-width:1.0;" width="10" x="593" y="393.7344"/><rect fill="#FFFFFF" height="30.3516" style="stroke:#181818;stroke-width:1.0;" width="10" x="1023" y="198.9766"/><polygon fill="#181818" points="268,83.5703,278,87.5703,268,91.5703,272,87.5703" style="stroke:#181818;stroke-width:1.0;"/><line style="stroke:#181818;stroke-width:1.0;" x1="0" x2="274" y1="87.5703" y2="87.5703"/><text fill="#000000" font-family="sans-serif" font-size="13" font-weight="bold" lengthAdjust="spacing" textLength="14" x="7" y="82.7139">12</text><text fill="#000000" font-family="sans-serif" font-size="13" lengthAdjust="spacing" textLength="243" x="25" y="82.7139">getRequestListByAgentEmail(agentEmail)</text><path d="M240.5,102.5703 L394.5,102.5703 L394.5,110.9219 L384.5,120.9219 L240.5,120.9219 L240.5,102.5703 " fill="#EEEEEE" style="stroke:#000000;stroke-width:1.5;"/><rect fill="none" height="377.8672" style="stroke:#000000;stroke-width:1.5;" width="845" x="240.5" y="102.5703"/><text fill="#000000" font-family="sans-serif" font-size="13" font-weight="bold" lengthAdjust="spacing" textLength="109" x="255.5" y="117.0654">Get Requests List</text><polygon fill="#181818" points="576,139.2734,586,143.2734,576,147.2734,580,143.2734" style="stroke:#181818;stroke-width:1.0;"/><line style="stroke:#181818;stroke-width:1.0;" x1="290" x2="582" y1="143.2734" y2="143.2734"/><text fill="#000000" font-family="sans-serif" font-size="13" font-weight="bold" lengthAdjust="spacing" textLength="25" x="297" y="138.417">12.1</text><text fill="#000000" font-family="sans-serif" font-size="13" lengthAdjust="spacing" textLength="250" x="326" y="138.417">getRequestsListByAgentEmail(agentEmail)</text><path d="M524.5,158.2734 L597.5,158.2734 L597.5,166.625 L587.5,176.625 L524.5,176.625 L524.5,158.2734 " fill="#EEEEEE" style="stroke:#000000;stroke-width:1.5;"/><rect fill="none" height="198.1094" style="stroke:#000000;stroke-width:1.5;" width="551" x="524.5" y="158.2734"/><text fill="#000000" font-family="sans-serif" font-size="13" font-weight="bold" lengthAdjust="spacing" textLength="28" x="539.5" y="172.7686">loop</text><text fill="#000000" font-family="sans-serif" font-size="11" font-weight="bold" lengthAdjust="spacing" textLength="100" x="612.5" y="171.6924">[for each request]</text><polygon fill="#181818" points="1011,194.9766,1021,198.9766,1011,202.9766,1015,198.9766" style="stroke:#181818;stroke-width:1.0;"/><line style="stroke:#181818;stroke-width:1.0;" x1="598" x2="1017" y1="198.9766" y2="198.9766"/><text fill="#000000" font-family="sans-serif" font-size="13" font-weight="bold" lengthAdjust="spacing" textLength="25" x="605" y="194.1201">12.2</text><text fill="#000000" font-family="sans-serif" font-size="13" lengthAdjust="spacing" textLength="188" x="634" y="194.1201">hasAgentWithEmail(agentEmail)</text><polygon fill="#181818" points="609,225.3281,599,229.3281,609,233.3281,605,229.3281" style="stroke:#181818;stroke-width:1.0;"/><line style="stroke:#181818;stroke-width:1.0;stroke-dasharray:2.0,2.0;" x1="603" x2="1027" y1="229.3281" y2="229.3281"/><text fill="#000000" font-family="sans-serif" font-size="13" font-weight="bold" lengthAdjust="spacing" textLength="25" x="615" y="224.4717">12.3</text><text fill="#000000" font-family="sans-serif" font-size="13" lengthAdjust="spacing" textLength="53" x="644" y="224.4717">true/false</text><path d="M534.5,244.3281 L595.5,244.3281 L595.5,252.6797 L585.5,262.6797 L534.5,262.6797 L534.5,244.3281 " fill="#EEEEEE" style="stroke:#000000;stroke-width:1.5;"/><rect fill="none" height="105.0547" style="stroke:#000000;stroke-width:1.5;" width="188.5" x="534.5" y="244.3281"/><text fill="#000000" font-family="sans-serif" font-size="13" font-weight="bold" lengthAdjust="spacing" textLength="16" x="549.5" y="258.8232">alt</text><text fill="#000000" font-family="sans-serif" font-size="11" font-weight="bold" lengthAdjust="spacing" textLength="31" x="610.5" y="257.7471">[true]</text><line style="stroke:#181818;stroke-width:1.0;" x1="598" x2="645" y1="280.0313" y2="280.0313"/><line style="stroke:#181818;stroke-width:1.0;" x1="645" x2="645" y1="280.0313" y2="293.0313"/><line style="stroke:#181818;stroke-width:1.0;" x1="604" x2="645" y1="293.0313" y2="293.0313"/><polygon fill="#181818" points="614,289.0313,604,293.0313,614,297.0313,610,293.0313" style="stroke:#181818;stroke-width:1.0;"/><text fill="#000000" font-family="sans-serif" font-size="13" font-weight="bold" lengthAdjust="spacing" textLength="25" x="610" y="275.1748">12.4</text><text fill="#000000" font-family="sans-serif" font-size="13" lengthAdjust="spacing" textLength="72" x="639" y="275.1748">add(request)</text><line style="stroke:#181818;stroke-width:1.0;stroke-dasharray:2.0,2.0;" x1="603" x2="645" y1="333.3828" y2="333.3828"/><line style="stroke:#181818;stroke-width:1.0;stroke-dasharray:2.0,2.0;" x1="645" x2="645" y1="333.3828" y2="346.3828"/><line style="stroke:#181818;stroke-width:1.0;stroke-dasharray:2.0,2.0;" x1="598" x2="645" y1="346.3828" y2="346.3828"/><polygon fill="#181818" points="608,342.3828,598,346.3828,608,350.3828,604,346.3828" style="stroke:#181818;stroke-width:1.0;"/><text fill="#000000" font-family="sans-serif" font-size="13" font-weight="bold" lengthAdjust="spacing" textLength="25" x="610" y="328.5264">12.5</text><text fill="#000000" font-family="sans-serif" font-size="13" lengthAdjust="spacing" textLength="4" x="639" y="328.5264"> </text><line style="stroke:#181818;stroke-width:1.0;" x1="598" x2="645" y1="380.7344" y2="380.7344"/><line style="stroke:#181818;stroke-width:1.0;" x1="645" x2="645" y1="380.7344" y2="393.7344"/><line style="stroke:#181818;stroke-width:1.0;" x1="604" x2="645" y1="393.7344" y2="393.7344"/><polygon fill="#181818" points="614,389.7344,604,393.7344,614,397.7344,610,393.7344" style="stroke:#181818;stroke-width:1.0;"/><text fill="#000000" font-family="sans-serif" font-size="13" font-weight="bold" lengthAdjust="spacing" textLength="25" x="610" y="375.8779">12.6</text><text fill="#000000" font-family="sans-serif" font-size="13" lengthAdjust="spacing" textLength="273" x="639" y="375.8779">sortRequestByMostRecentAdded(listRequests)</text><line style="stroke:#181818;stroke-width:1.0;stroke-dasharray:2.0,2.0;" x1="603" x2="645" y1="434.0859" y2="434.0859"/><line style="stroke:#181818;stroke-width:1.0;stroke-dasharray:2.0,2.0;" x1="645" x2="645" y1="434.0859" y2="447.0859"/><line style="stroke:#181818;stroke-width:1.0;stroke-dasharray:2.0,2.0;" x1="598" x2="645" y1="447.0859" y2="447.0859"/><polygon fill="#181818" points="608,443.0859,598,447.0859,608,451.0859,604,447.0859" style="stroke:#181818;stroke-width:1.0;"/><text fill="#000000" font-family="sans-serif" font-size="13" font-weight="bold" lengthAdjust="spacing" textLength="25" x="610" y="429.2295">12.7</text><text fill="#000000" font-family="sans-serif" font-size="13" lengthAdjust="spacing" textLength="4" x="639" y="429.2295"> </text><polygon fill="#181818" points="301,468.4375,291,472.4375,301,476.4375,297,472.4375" style="stroke:#181818;stroke-width:1.0;"/><line style="stroke:#181818;stroke-width:1.0;stroke-dasharray:2.0,2.0;" x1="295" x2="592" y1="472.4375" y2="472.4375"/><text fill="#000000" font-family="sans-serif" font-size="13" font-weight="bold" lengthAdjust="spacing" textLength="25" x="307" y="467.5811">12.8</text><text fill="#000000" font-family="sans-serif" font-size="13" lengthAdjust="spacing" textLength="64" x="336" y="467.5811">requestList</text><polygon fill="#181818" points="11,505.7891,1,509.7891,11,513.7891,7,509.7891" style="stroke:#181818;stroke-width:1.0;"/><line style="stroke:#181818;stroke-width:1.0;stroke-dasharray:2.0,2.0;" x1="5" x2="284" y1="509.7891" y2="509.7891"/><text fill="#000000" font-family="sans-serif" font-size="13" font-weight="bold" lengthAdjust="spacing" textLength="14" x="17" y="504.9326">13</text><text fill="#000000" font-family="sans-serif" font-size="13" lengthAdjust="spacing" textLength="64" x="35" y="504.9326">requestList</text><!--SRC=[XLDBJyCm3BxtLrWxROU21hS98MseseKXmK08YOjflJPQcvGa1VNVaxwoX7LRJd7jxs7NKNl6IvHOG26uY3Cf2W8jAmgKpPGOxp6bhQvp0acnHfxcRe7AC16_ZAUmmrnHO8v9Q1Qp4hc6YG7pkFxa2rYsjmcWWkKwUdhuy0ibVLUaz2DJkgb-EOGjnCJDVHIpmR8awQ2w3mEkYqQH3gQhZfxVekrh462b1Q-ABv8mlmd0dF2-jxs0bBHZRrKtdUceG9PFqLvdBGfZpNvGqz1oa4fHbR0cFUWgQFlo1A_cGOjkJWTivFiHW6j0NNJWkHYcQ3Ev42NiX0J2E8D-AZPh9HlrRZH6FKFLwhqpdPtMT4I7eHveUwxGwwfPlUjkYsnbGcTeMfLSTplhVNLzMtvCacdVuUmVoSdv-6mkdL_Y-kmvl3pnn27rer6pIiZX7w_gZL0cYCsGbqb2oJHdoYx0wCIFshZGmeZzSMo_ZGjmdkjvci0q2-tMUpj-sw7kmj0-goDAXwv_Fdy0]--></g></svg>