<?xml version="1.0" encoding="UTF-8" standalone="no"?><svg xmlns="http://www.w3.org/2000/svg" xmlns:xlink="http://www.w3.org/1999/xlink" contentStyleType="text/css" height="1512px" preserveAspectRatio="none" style="width:982px;height:1512px;background:#FFFFFF;" version="1.1" viewBox="0 0 982 1512" width="982px" zoomAndPan="magnify"><defs/><g><!--class Agency--><g id="elem_Agency"><rect codeLine="10" fill="#F1F1F1" height="106.0469" id="Agency" rx="2.5" ry="2.5" style="stroke:#181818;stroke-width:0.5;" width="101" x="319.2952" y="935"/><text fill="#000000" font-family="sans-serif" font-size="14" lengthAdjust="spacing" textLength="47" x="346.2952" y="954.5332">Agency</text><line style="stroke:#181818;stroke-width:0.5;" x1="320.2952" x2="419.2952" y1="962.6094" y2="962.6094"/><text fill="#000000" font-family="sans-serif" font-size="14" lengthAdjust="spacing" textLength="11" x="325.2952" y="981.1426">id</text><text fill="#000000" font-family="sans-serif" font-size="14" lengthAdjust="spacing" textLength="73" x="325.2952" y="998.752">designation</text><text fill="#000000" font-family="sans-serif" font-size="14" lengthAdjust="spacing" textLength="85" x="325.2952" y="1016.3613">emailAddress</text><text fill="#000000" font-family="sans-serif" font-size="14" lengthAdjust="spacing" textLength="89" x="325.2952" y="1033.9707">phoneNumber</text></g><!--class Employee--><g id="elem_Employee"><rect codeLine="17" fill="#F1F1F1" height="35.6094" id="Employee" rx="2.5" ry="2.5" style="stroke:#181818;stroke-width:0.5;" width="68" x="265.7952" y="821"/><text fill="#000000" font-family="sans-serif" font-size="14" lengthAdjust="spacing" textLength="62" x="268.7952" y="840.5332">Employee</text><line style="stroke:#181818;stroke-width:0.5;" x1="266.7952" x2="332.7952" y1="848.6094" y2="848.6094"/></g><!--class Person--><g id="elem_Person"><rect codeLine="20" fill="#F1F1F1" height="123.6563" id="Person" rx="2.5" ry="2.5" style="stroke:#181818;stroke-width:0.5;" width="147" x="500.2952" y="619"/><text fill="#000000" font-family="sans-serif" font-size="14" lengthAdjust="spacing" textLength="45" x="551.2952" y="638.5332">Person</text><line style="stroke:#181818;stroke-width:0.5;" x1="501.2952" x2="646.2952" y1="646.6094" y2="646.6094"/><text fill="#000000" font-family="sans-serif" font-size="14" lengthAdjust="spacing" textLength="35" x="506.2952" y="665.1426">name</text><text fill="#000000" font-family="sans-serif" font-size="14" lengthAdjust="spacing" textLength="33" x="506.2952" y="682.752">email</text><text fill="#000000" font-family="sans-serif" font-size="14" lengthAdjust="spacing" textLength="135" x="506.2952" y="700.3613">passportCardNumber</text><text fill="#000000" font-family="sans-serif" font-size="14" lengthAdjust="spacing" textLength="67" x="506.2952" y="717.9707">taxNumber</text><text fill="#000000" font-family="sans-serif" font-size="14" lengthAdjust="spacing" textLength="89" x="506.2952" y="735.5801">phoneNumber</text></g><!--class Owner--><g id="elem_Owner"><rect codeLine="28" fill="#F1F1F1" height="35.6094" id="Owner" rx="2.5" ry="2.5" style="stroke:#181818;stroke-width:0.5;" width="47" x="659.2952" y="356.5"/><text fill="#000000" font-family="sans-serif" font-size="14" lengthAdjust="spacing" textLength="41" x="662.2952" y="376.0332">Owner</text><line style="stroke:#181818;stroke-width:0.5;" x1="660.2952" x2="705.2952" y1="384.1094" y2="384.1094"/></g><!--class Agent--><g id="elem_Agent"><rect codeLine="31" fill="#F1F1F1" height="35.6094" id="Agent" rx="2.5" ry="2.5" style="stroke:#181818;stroke-width:0.5;" width="43" x="117.2952" y="33"/><text fill="#000000" font-family="sans-serif" font-size="14" lengthAdjust="spacing" textLength="37" x="120.2952" y="52.5332">Agent</text><line style="stroke:#181818;stroke-width:0.5;" x1="118.2952" x2="159.2952" y1="60.6094" y2="60.6094"/></g><!--class Announcement--><g id="elem_Announcement"><rect codeLine="36" fill="#F1F1F1" height="70.8281" id="Announcement" rx="2.5" ry="2.5" style="stroke:#181818;stroke-width:0.5;" width="115" x="155.2952" y="1145.5"/><text fill="#000000" font-family="sans-serif" font-size="14" lengthAdjust="spacing" textLength="95" x="165.2952" y="1165.0332">Announcement</text><line style="stroke:#181818;stroke-width:0.5;" x1="156.2952" x2="269.2952" y1="1173.1094" y2="1173.1094"/><text fill="#000000" font-family="sans-serif" font-size="14" lengthAdjust="spacing" textLength="11" x="161.2952" y="1191.6426">id</text><text fill="#000000" font-family="sans-serif" font-size="14" lengthAdjust="spacing" textLength="103" x="161.2952" y="1209.252">acceptanceDate</text></g><!--class Property--><g id="elem_Property"><rect codeLine="42" fill="#F1F1F1" height="70.8281" id="Property" rx="2.5" ry="2.5" style="stroke:#181818;stroke-width:0.5;" width="132" x="741.7952" y="339"/><text fill="#000000" font-family="sans-serif" font-size="14" lengthAdjust="spacing" textLength="54" x="780.7952" y="358.5332">Property</text><line style="stroke:#181818;stroke-width:0.5;" x1="742.7952" x2="872.7952" y1="366.6094" y2="366.6094"/><text fill="#000000" font-family="sans-serif" font-size="14" lengthAdjust="spacing" textLength="29" x="747.7952" y="385.1426">area</text><text fill="#000000" font-family="sans-serif" font-size="14" lengthAdjust="spacing" textLength="120" x="747.7952" y="402.752">distanceCityCenter</text></g><!--class Residence--><g id="elem_Residence"><rect codeLine="47" fill="#F1F1F1" height="88.4375" id="Residence" rx="2.5" ry="2.5" style="stroke:#181818;stroke-width:0.5;" width="128" x="696.7952" y="173"/><text fill="#000000" font-family="sans-serif" font-size="14" lengthAdjust="spacing" textLength="67" x="727.2952" y="192.5332">Residence</text><line style="stroke:#181818;stroke-width:0.5;" x1="697.7952" x2="823.7952" y1="200.6094" y2="200.6094"/><text fill="#000000" font-family="sans-serif" font-size="14" lengthAdjust="spacing" textLength="112" x="702.7952" y="219.1426">numberBedrooms</text><text fill="#000000" font-family="sans-serif" font-size="14" lengthAdjust="spacing" textLength="116" x="702.7952" y="236.752">numberBathrooms</text><text fill="#000000" font-family="sans-serif" font-size="14" lengthAdjust="spacing" textLength="87" x="702.7952" y="254.3613">parkingSpace</text></g><!--class AvailableEquipment--><g id="elem_AvailableEquipment"><rect codeLine="53" fill="#F1F1F1" height="53.2188" id="AvailableEquipment" rx="2.5" ry="2.5" style="stroke:#181818;stroke-width:0.5;" width="130" x="468.7952" y="190.5"/><text fill="#000000" font-family="sans-serif" font-size="14" lengthAdjust="spacing" textLength="124" x="471.7952" y="210.0332">AvailableEquipment</text><line style="stroke:#181818;stroke-width:0.5;" x1="469.7952" x2="597.7952" y1="218.1094" y2="218.1094"/><text fill="#000000" font-family="sans-serif" font-size="14" lengthAdjust="spacing" textLength="69" x="474.7952" y="236.6426">description</text></g><!--class House--><g id="elem_House"><rect codeLine="57" fill="#F1F1F1" height="88.4375" id="House" rx="2.5" ry="2.5" style="stroke:#181818;stroke-width:0.5;" width="105" x="638.2952" y="7"/><text fill="#000000" font-family="sans-serif" font-size="14" lengthAdjust="spacing" textLength="40" x="670.7952" y="26.5332">House</text><line style="stroke:#181818;stroke-width:0.5;" x1="639.2952" x2="742.2952" y1="34.6094" y2="34.6094"/><text fill="#000000" font-family="sans-serif" font-size="14" lengthAdjust="spacing" textLength="62" x="644.2952" y="53.1426">basement</text><text fill="#000000" font-family="sans-serif" font-size="14" lengthAdjust="spacing" textLength="93" x="644.2952" y="70.752">inhabitableLoft</text><text fill="#000000" font-family="sans-serif" font-size="14" lengthAdjust="spacing" textLength="82" x="644.2952" y="88.3613">sunExposure</text></g><!--class PropertyType--><g id="elem_PropertyType"><rect codeLine="63" fill="#F1F1F1" height="53.2188" id="PropertyType" rx="2.5" ry="2.5" style="stroke:#181818;stroke-width:0.5;" width="92" x="859.7952" y="190.5"/><text fill="#000000" font-family="sans-serif" font-size="14" lengthAdjust="spacing" textLength="86" x="862.7952" y="210.0332">PropertyType</text><line style="stroke:#181818;stroke-width:0.5;" x1="860.7952" x2="950.7952" y1="218.1094" y2="218.1094"/><text fill="#000000" font-family="sans-serif" font-size="14" lengthAdjust="spacing" textLength="73" x="865.7952" y="236.6426">designation</text></g><!--class ResidenceType--><g id="elem_ResidenceType"><rect codeLine="67" fill="#F1F1F1" height="53.2188" id="ResidenceType" rx="2.5" ry="2.5" style="stroke:#181818;stroke-width:0.5;" width="105" x="778.2952" y="24.5"/><text fill="#000000" font-family="sans-serif" font-size="14" lengthAdjust="spacing" textLength="99" x="781.2952" y="44.0332">ResidenceType</text><line style="stroke:#181818;stroke-width:0.5;" x1="779.2952" x2="882.2952" y1="52.1094" y2="52.1094"/><text fill="#000000" font-family="sans-serif" font-size="14" lengthAdjust="spacing" textLength="73" x="784.2952" y="70.6426">designation</text></g><!--class Photograph--><g id="elem_Photograph"><rect codeLine="71" fill="#F1F1F1" height="53.2188" id="Photograph" rx="2.5" ry="2.5" style="stroke:#181818;stroke-width:0.5;" width="80" x="665.7952" y="488"/><text fill="#000000" font-family="sans-serif" font-size="14" lengthAdjust="spacing" textLength="74" x="668.7952" y="507.5332">Photograph</text><line style="stroke:#181818;stroke-width:0.5;" x1="666.7952" x2="744.7952" y1="515.6094" y2="515.6094"/><text fill="#000000" font-family="sans-serif" font-size="14" lengthAdjust="spacing" textLength="16" x="671.7952" y="534.1426">uri</text></g><!--class Location--><g id="elem_Location"><rect codeLine="75" fill="#F1F1F1" height="123.6563" id="Location" rx="2.5" ry="2.5" style="stroke:#181818;stroke-width:0.5;" width="84" x="531.7952" y="1119"/><text fill="#000000" font-family="sans-serif" font-size="14" lengthAdjust="spacing" textLength="54" x="546.7952" y="1138.5332">Location</text><line style="stroke:#181818;stroke-width:0.5;" x1="532.7952" x2="614.7952" y1="1146.6094" y2="1146.6094"/><text fill="#000000" font-family="sans-serif" font-size="14" lengthAdjust="spacing" textLength="72" x="537.7952" y="1165.1426">streetName</text><text fill="#000000" font-family="sans-serif" font-size="14" lengthAdjust="spacing" textLength="21" x="537.7952" y="1182.752">city</text><text fill="#000000" font-family="sans-serif" font-size="14" lengthAdjust="spacing" textLength="41" x="537.7952" y="1200.3613">district</text><text fill="#000000" font-family="sans-serif" font-size="14" lengthAdjust="spacing" textLength="31" x="537.7952" y="1217.9707">state</text><text fill="#000000" font-family="sans-serif" font-size="14" lengthAdjust="spacing" textLength="51" x="537.7952" y="1235.5801">zipCode</text></g><!--class Business--><g id="elem_Business"><rect codeLine="83" fill="#F1F1F1" height="53.2188" id="Business" rx="2.5" ry="2.5" style="stroke:#181818;stroke-width:0.5;" width="63" x="561.2952" y="348"/><text fill="#000000" font-family="sans-serif" font-size="14" lengthAdjust="spacing" textLength="57" x="564.2952" y="367.5332">Business</text><line style="stroke:#181818;stroke-width:0.5;" x1="562.2952" x2="623.2952" y1="375.6094" y2="375.6094"/><text fill="#000000" font-family="sans-serif" font-size="14" lengthAdjust="spacing" textLength="31" x="567.2952" y="394.1426">price</text></g><!--class BusinessType--><g id="elem_BusinessType"><rect codeLine="87" fill="#F1F1F1" height="53.2188" id="BusinessType" rx="2.5" ry="2.5" style="stroke:#181818;stroke-width:0.5;" width="95" x="360.2952" y="348"/><text fill="#000000" font-family="sans-serif" font-size="14" lengthAdjust="spacing" textLength="89" x="363.2952" y="367.5332">BusinessType</text><line style="stroke:#181818;stroke-width:0.5;" x1="361.2952" x2="454.2952" y1="375.6094" y2="375.6094"/><text fill="#000000" font-family="sans-serif" font-size="14" lengthAdjust="spacing" textLength="73" x="366.2952" y="394.1426">designation</text></g><!--class Lease--><g id="elem_Lease"><rect codeLine="91" fill="#F1F1F1" height="53.2188" id="Lease" rx="2.5" ry="2.5" style="stroke:#181818;stroke-width:0.5;" width="117" x="411.2952" y="488"/><text fill="#000000" font-family="sans-serif" font-size="14" lengthAdjust="spacing" textLength="39" x="450.2952" y="507.5332">Lease</text><line style="stroke:#181818;stroke-width:0.5;" x1="412.2952" x2="527.2952" y1="515.6094" y2="515.6094"/><text fill="#000000" font-family="sans-serif" font-size="14" lengthAdjust="spacing" textLength="105" x="417.2952" y="534.1426">contractDuration</text></g><!--class Commission--><g id="elem_Commission"><rect codeLine="95" fill="#F1F1F1" height="53.2188" id="Commission" rx="2.5" ry="2.5" style="stroke:#181818;stroke-width:0.5;" width="121" x="152.2952" y="1321"/><text fill="#000000" font-family="sans-serif" font-size="14" lengthAdjust="spacing" textLength="76" x="174.7952" y="1340.5332">Commission</text><line style="stroke:#181818;stroke-width:0.5;" x1="153.2952" x2="272.2952" y1="1348.6094" y2="1348.6094"/><text fill="#000000" font-family="sans-serif" font-size="14" lengthAdjust="spacing" textLength="109" x="158.2952" y="1367.1426">commissionValue</text></g><!--class CommissionType--><g id="elem_CommissionType"><rect codeLine="99" fill="#F1F1F1" height="53.2188" id="CommissionType" rx="2.5" ry="2.5" style="stroke:#181818;stroke-width:0.5;" width="114" x="155.7952" y="1452"/><text fill="#000000" font-family="sans-serif" font-size="14" lengthAdjust="spacing" textLength="108" x="158.7952" y="1471.5332">CommissionType</text><line style="stroke:#181818;stroke-width:0.5;" x1="156.7952" x2="268.7952" y1="1479.6094" y2="1479.6094"/><text fill="#000000" font-family="sans-serif" font-size="14" lengthAdjust="spacing" textLength="73" x="161.7952" y="1498.1426">designation</text></g><!--class Request--><g id="elem_Request"><rect codeLine="103" fill="#F1F1F1" height="70.8281" id="Request" rx="2.5" ry="2.5" style="stroke:#181818;stroke-width:0.5;" width="90" x="263.7952" y="181.5"/><text fill="#000000" font-family="sans-serif" font-size="14" lengthAdjust="spacing" textLength="53" x="282.2952" y="201.0332">Request</text><line style="stroke:#181818;stroke-width:0.5;" x1="264.7952" x2="352.7952" y1="209.1094" y2="209.1094"/><text fill="#000000" font-family="sans-serif" font-size="14" lengthAdjust="spacing" textLength="11" x="269.7952" y="227.6426">id</text><text fill="#000000" font-family="sans-serif" font-size="14" lengthAdjust="spacing" textLength="78" x="269.7952" y="245.252">requestDate</text></g><!--class Customer--><g id="elem_Customer"><rect fill="#F1F1F1" height="35.6094" id="Customer" rx="2.5" ry="2.5" style="stroke:#181818;stroke-width:0.5;" width="67" x="563.2952" y="496.5"/><text fill="#000000" font-family="sans-serif" font-size="14" lengthAdjust="spacing" textLength="61" x="566.2952" y="516.0332">Customer</text><line style="stroke:#181818;stroke-width:0.5;" x1="564.2952" x2="629.2952" y1="524.1094" y2="524.1094"/></g><!--link Person to Employee--><g id="link_Person_Employee"><path codeLine="109" d="M500.0052,724.01 C444.2152,755.78 370.5052,797.74 329.8852,820.87 " fill="none" id="Person-Employee" style="stroke:#181818;stroke-width:1.0;"/><polygon fill="#000000" points="421.1403,779.7019,411.8258,781.6233,414.7341,786.7312,421.1403,779.7019" style="stroke:#000000;stroke-width:1.0;"/><text fill="#000000" font-family="sans-serif" font-size="13" lengthAdjust="spacing" textLength="82" x="425.7952" y="787.4951">represented in</text><text fill="#000000" font-family="sans-serif" font-size="13" lengthAdjust="spacing" textLength="7" x="485.397" y="724.9856">1</text><text fill="#000000" font-family="sans-serif" font-size="13" lengthAdjust="spacing" textLength="7" x="331.3608" y="810.1545">1</text></g><!--link Agent to Employee--><g id="link_Agent_Employee"><path codeLine="110" d="M138.7952,69.24 C138.7952,99.12 138.7952,162.47 138.7952,216 C138.7952,216 138.7952,216 138.7952,682 C138.7952,752.06 218.3952,800.72 265.6552,823.44 " fill="none" id="Agent-Employee" style="stroke:#181818;stroke-width:1.0;"/><polygon fill="#000000" points="142.9658,444.245,141.568,453.6523,147.3644,452.6773,142.9658,444.245" style="stroke:#000000;stroke-width:1.0;"/><text fill="#000000" font-family="sans-serif" font-size="13" lengthAdjust="spacing" textLength="49" x="152.7952" y="454.4951">plays as</text><text fill="#000000" font-family="sans-serif" font-size="13" lengthAdjust="spacing" textLength="20" x="115.9827" y="90.2195">0..*</text><text fill="#000000" font-family="sans-serif" font-size="13" lengthAdjust="spacing" textLength="7" x="250.8919" y="816.1524">1</text></g><!--link Agent to Announcement--><g id="link_Agent_Announcement"><path codeLine="111" d="M117.0252,66.32 C81.2052,91.8 13.7952,148.7 13.7952,216 C13.7952,216 13.7952,216 13.7952,989 C13.7952,1068.01 96.4652,1124.52 155.2352,1154.71 " fill="none" id="Agent-Announcement" style="stroke:#181818;stroke-width:1.0;"/><polygon fill="#000000" points="18.6198,575.1789,16,584.3215,21.8742,584.1153,18.6198,575.1789" style="stroke:#000000;stroke-width:1.0;"/><text fill="#000000" font-family="sans-serif" font-size="13" lengthAdjust="spacing" textLength="87" x="27.7952" y="585.4951">is published by</text><text fill="#000000" font-family="sans-serif" font-size="13" lengthAdjust="spacing" textLength="7" x="102.2863" y="66.1705">1</text><text fill="#000000" font-family="sans-serif" font-size="13" lengthAdjust="spacing" textLength="5" x="142.1646" y="1147.6326">*</text></g><!--link Customer to Person--><g id="link_Customer_Person"><path codeLine="112" d="M594.3752,532.79 C591.5252,553.17 586.6352,588.14 582.3352,618.89 " fill="none" id="Customer-Person" style="stroke:#181818;stroke-width:1.0;"/><polygon fill="#000000" points="592.1027,585.1276,596.266,576.5767,590.4448,575.7627,592.1027,585.1276" style="stroke:#000000;stroke-width:1.0;"/><text fill="#000000" font-family="sans-serif" font-size="13" lengthAdjust="spacing" textLength="82" x="601.7952" y="585.4951">represented in</text><text fill="#000000" font-family="sans-serif" font-size="13" lengthAdjust="spacing" textLength="7" x="585.7842" y="553.4503">1</text><text fill="#000000" font-family="sans-serif" font-size="13" lengthAdjust="spacing" textLength="7" x="575.9179" y="608.3188">1</text></g><!--link Owner to Customer--><g id="link_Owner_Customer"><path codeLine="113" d="M663.0752,392.71 C656.4152,398.35 648.8852,404.56 641.7952,410 C623.3052,424.18 609.8552,419.49 598.7952,440 C589.4052,457.42 590.6552,480.69 593.0952,496.34 " fill="none" id="Owner-Customer" style="stroke:#181818;stroke-width:1.0;"/><polygon fill="#000000" points="606.5934,445.0321,599.0958,450.8834,603.967,454.1728,606.5934,445.0321" style="stroke:#000000;stroke-width:1.0;"/><text fill="#000000" font-family="sans-serif" font-size="13" lengthAdjust="spacing" textLength="49" x="612.7952" y="454.4951">plays as</text><text fill="#000000" font-family="sans-serif" font-size="13" lengthAdjust="spacing" textLength="20" x="634.7164" y="413.681">0..*</text></g><!--link Request to Owner--><g id="link_Request_Owner"><path codeLine="114" d="M353.9652,235.03 C391.9752,249.51 447.6652,271.05 495.7952,291 C514.1752,298.62 518.0752,302.25 536.7952,309 C582.4552,325.46 598.9452,316.21 641.7952,339 C650.3352,343.54 658.7052,350.09 665.6352,356.26 " fill="none" id="Request-Owner" style="stroke:#181818;stroke-width:1.0;"/><polygon fill="#000000" points="537.1353,298.3632,544.4997,304.3812,546.6305,298.9032,537.1353,298.3632" style="stroke:#000000;stroke-width:1.0;"/><text fill="#000000" font-family="sans-serif" font-size="13" lengthAdjust="spacing" textLength="46" x="550.7952" y="305.4951">submits</text><text fill="#000000" font-family="sans-serif" font-size="13" lengthAdjust="spacing" textLength="5" x="361.8605" y="234.2297">*</text><text fill="#000000" font-family="sans-serif" font-size="13" lengthAdjust="spacing" textLength="7" x="652.0498" y="345.5094">1</text></g><!--link Residence to Property--><g id="link_Residence_Property"><path codeLine="115" d="M773.8852,261.32 C779.3452,279.36 785.7352,300.51 791.4852,319.55 " fill="none" id="Residence-to-Property" style="stroke:#181818;stroke-width:1.0;"/><polygon fill="none" points="798.2152,317.6,797.2952,338.77,784.8152,321.65,798.2152,317.6" style="stroke:#181818;stroke-width:1.0;"/></g><!--link House to Residence--><g id="link_House_Residence"><path codeLine="116" d="M709.1852,95.09 C716.9152,113.19 726.0452,134.59 734.4652,154.31 " fill="none" id="House-to-Residence" style="stroke:#181818;stroke-width:1.0;"/><polygon fill="none" points="740.9952,151.77,742.4052,172.91,728.1152,157.27,740.9952,151.77" style="stroke:#181818;stroke-width:1.0;"/></g><!--link Employee to Agency--><g id="link_Employee_Agency"><path codeLine="117" d="M295.7852,857.15 C293.4552,870.6 291.9852,889.57 297.7952,905 C302.6052,917.76 310.4052,929.84 319.1252,940.59 " fill="none" id="Employee-Agency" style="stroke:#181818;stroke-width:1.0;"/><polygon fill="#000000" points="304.1421,900.9909,304.5358,891.4885,298.8752,893.0719,304.1421,900.9909" style="stroke:#000000;stroke-width:1.0;"/><text fill="#000000" font-family="sans-serif" font-size="13" lengthAdjust="spacing" textLength="48" x="311.7952" y="901.4951">works in</text><text fill="#000000" font-family="sans-serif" font-size="13" lengthAdjust="spacing" textLength="7" x="286.673" y="878.1042">1</text><text fill="#000000" font-family="sans-serif" font-size="13" lengthAdjust="spacing" textLength="7" x="304.169" y="929.9691">1</text></g><!--link PropertyType to Property--><g id="link_PropertyType_Property"><path codeLine="118" d="M889.6152,243.68 C873.2452,269.64 847.8452,309.95 829.6952,338.76 " fill="none" id="PropertyType-Property" style="stroke:#181818;stroke-width:1.0;"/><polygon fill="#000000" points="861.1294,304.4058,868.4383,298.3205,863.4655,295.1867,861.1294,304.4058" style="stroke:#000000;stroke-width:1.0;"/><text fill="#000000" font-family="sans-serif" font-size="13" lengthAdjust="spacing" textLength="102" x="872.7952" y="305.4951">is a description of</text><text fill="#000000" font-family="sans-serif" font-size="13" lengthAdjust="spacing" textLength="7" x="878.0642" y="265.2102">1</text><text fill="#000000" font-family="sans-serif" font-size="13" lengthAdjust="spacing" textLength="7" x="826.0877" y="328.2388">1</text></g><!--link ResidenceType to Residence--><g id="link_ResidenceType_Residence"><path codeLine="119" d="M819.8552,77.62 C809.0152,103.03 792.1952,142.43 779.2752,172.7 " fill="none" id="ResidenceType-Residence" style="stroke:#181818;stroke-width:1.0;"/><polygon fill="#000000" points="800.8325,138.7745,807.0861,131.609,801.68,129.3017,800.8325,138.7745" style="stroke:#000000;stroke-width:1.0;"/><text fill="#000000" font-family="sans-serif" font-size="13" lengthAdjust="spacing" textLength="102" x="811.7952" y="139.4951">is a description of</text><text fill="#000000" font-family="sans-serif" font-size="13" lengthAdjust="spacing" textLength="7" x="809.5159" y="99.1363">1</text><text fill="#000000" font-family="sans-serif" font-size="13" lengthAdjust="spacing" textLength="7" x="774.569" y="162.1801">1</text></g><!--link Property to Photograph--><g id="link_Property_Photograph"><path codeLine="120" d="M741.7152,402.15 C726.2252,411.69 711.6752,424.13 702.7952,440 C694.7552,454.38 695.5752,472.93 698.3752,487.8 " fill="none" id="Property-Photograph" style="stroke:#181818;stroke-width:1.0;"/><polygon fill="#000000" points="705.5377,453.6371,712.2439,446.8934,706.9992,444.2395,705.5377,453.6371" style="stroke:#000000;stroke-width:1.0;"/><text fill="#000000" font-family="sans-serif" font-size="13" lengthAdjust="spacing" textLength="84" x="716.7952" y="454.4951">is visualized in</text><text fill="#000000" font-family="sans-serif" font-size="13" lengthAdjust="spacing" textLength="7" x="726.67" y="401.9474">1</text><text fill="#000000" font-family="sans-serif" font-size="13" lengthAdjust="spacing" textLength="20" x="674.3468" y="477.2861">1..*</text></g><!--link Property to Location--><g id="link_Property_Location"><path codeLine="121" d="M815.6452,410.18 C821.2452,437.97 827.7952,478.03 827.7952,513.5 C827.7952,513.5 827.7952,513.5 827.7952,989 C827.7952,1093.69 688.2452,1148.12 616.0252,1169.28 " fill="none" id="Property-Location" style="stroke:#181818;stroke-width:1.0;"/><polygon fill="#000000" points="831.5236,787.0114,836.6662,779.0111,830.9817,777.5163,831.5236,787.0114" style="stroke:#000000;stroke-width:1.0;"/><text fill="#000000" font-family="sans-serif" font-size="13" lengthAdjust="spacing" textLength="71" x="841.7952" y="787.4951">has address</text><text fill="#000000" font-family="sans-serif" font-size="13" lengthAdjust="spacing" textLength="7" x="809.3929" y="431.2276">1</text><text fill="#000000" font-family="sans-serif" font-size="13" lengthAdjust="spacing" textLength="7" x="623.885" y="1163.4455">1</text></g><!--link Person to Location--><g id="link_Person_Location"><path codeLine="122" d="M573.7952,743.06 C573.7952,838.77 573.7952,1023.05 573.7952,1118.83 " fill="none" id="Person-Location" style="stroke:#181818;stroke-width:1.0;"/><polygon fill="#000000" points="578.7952,901.1758,581.7341,892.1307,575.8563,892.1307,578.7952,901.1758" style="stroke:#000000;stroke-width:1.0;"/><text fill="#000000" font-family="sans-serif" font-size="13" lengthAdjust="spacing" textLength="71" x="587.7952" y="901.4951">has address</text><text fill="#000000" font-family="sans-serif" font-size="13" lengthAdjust="spacing" textLength="7" x="566.4124" y="764.256">1</text><text fill="#000000" font-family="sans-serif" font-size="13" lengthAdjust="spacing" textLength="7" x="566.3905" y="1108.2519">1</text></g><!--link Agency to Location--><g id="link_Agency_Location"><path codeLine="123" d="M415.2252,1041.23 C429.6552,1057.04 445.9852,1074.13 461.7952,1089 C483.8752,1109.77 510.1052,1131.23 531.6352,1148.1 " fill="none" id="Agency-Location" style="stroke:#181818;stroke-width:1.0;"/><polygon fill="#000000" points="470.4784,1083.5572,465.8029,1075.2752,461.8279,1079.6051,470.4784,1083.5572" style="stroke:#000000;stroke-width:1.0;"/><text fill="#000000" font-family="sans-serif" font-size="13" lengthAdjust="spacing" textLength="71" x="475.7952" y="1085.4951">has address</text><text fill="#000000" font-family="sans-serif" font-size="13" lengthAdjust="spacing" textLength="7" x="413.5975" y="1062.5897">1</text><text fill="#000000" font-family="sans-serif" font-size="13" lengthAdjust="spacing" textLength="7" x="516.7874" y="1138.6252">1</text></g><!--link AvailableEquipment to Residence--><g id="link_AvailableEquipment_Residence"><path codeLine="124" d="M598.8452,217 C629.5052,217 665.9652,217 696.5252,217 " fill="none" id="AvailableEquipment-Residence" style="stroke:#181818;stroke-width:1.0;"/><polygon fill="#000000" points="616.2952,205.1758,625.3403,208.1147,625.3403,202.2369,616.2952,205.1758" style="stroke:#000000;stroke-width:1.0;"/><text fill="#000000" font-family="sans-serif" font-size="13" lengthAdjust="spacing" textLength="48" x="630.2952" y="210.4951">includes</text><text fill="#000000" font-family="sans-serif" font-size="13" lengthAdjust="spacing" textLength="5" x="606.6557" y="213.5778">*</text><text fill="#000000" font-family="sans-serif" font-size="13" lengthAdjust="spacing" textLength="7" x="681.6893" y="213.5651">1</text></g><!--link Announcement to Commission--><g id="link_Announcement_Commission"><path codeLine="125" d="M212.7952,1216.89 C212.7952,1248.01 212.7952,1292.86 212.7952,1320.81 " fill="none" id="Announcement-Commission" style="stroke:#181818;stroke-width:1.0;"/><polygon fill="#000000" points="217.7952,1277.1758,214.8563,1286.2209,220.7341,1286.2209,217.7952,1277.1758" style="stroke:#000000;stroke-width:1.0;"/><text fill="#000000" font-family="sans-serif" font-size="13" lengthAdjust="spacing" textLength="81" x="226.7952" y="1287.4951">is assigned to</text><text fill="#000000" font-family="sans-serif" font-size="13" lengthAdjust="spacing" textLength="7" x="205.2155" y="1237.6977">1</text><text fill="#000000" font-family="sans-serif" font-size="13" lengthAdjust="spacing" textLength="7" x="204.9858" y="1310.2984">1</text></g><!--link Agency to Announcement--><g id="link_Agency_Announcement"><path codeLine="126" d="M326.8952,1041.19 C299.6552,1074.33 265.1652,1116.29 241.2752,1145.36 " fill="none" id="Agency-Announcement" style="stroke:#181818;stroke-width:1.0;"/><polygon fill="#000000" points="302.6204,1084.0385,310.6341,1078.9169,306.0933,1075.1847,302.6204,1084.0385" style="stroke:#000000;stroke-width:1.0;"/><text fill="#000000" font-family="sans-serif" font-size="13" lengthAdjust="spacing" textLength="30" x="314.7952" y="1085.4951">owns</text><text fill="#000000" font-family="sans-serif" font-size="13" lengthAdjust="spacing" textLength="7" x="313.9502" y="1062.5446">1</text><text fill="#000000" font-family="sans-serif" font-size="13" lengthAdjust="spacing" textLength="5" x="241.2276" y="1134.5861">*</text></g><!--link Request to Property--><g id="link_Request_Property"><path codeLine="127" d="M353.8952,232.76 C381.8952,241.62 418.7252,252.74 451.7952,261 C517.7552,277.47 537.7452,268.19 601.7952,291 C617.9052,296.74 620.0952,302.22 635.7952,309 C673.7252,325.38 685.1052,324.48 723.7952,339 C729.5552,341.16 735.5052,343.46 741.4552,345.82 " fill="none" id="Request-Property" style="stroke:#181818;stroke-width:1.0;"/><polygon fill="#000000" points="645.5951,301.576,637.735,296.2216,636.0889,301.8643,645.5951,301.576" style="stroke:#000000;stroke-width:1.0;"/><text fill="#000000" font-family="sans-serif" font-size="13" lengthAdjust="spacing" textLength="124" x="649.7952" y="305.4951">has information about</text><text fill="#000000" font-family="sans-serif" font-size="13" lengthAdjust="spacing" textLength="7" x="361.9446" y="250.2337">1</text><text fill="#000000" font-family="sans-serif" font-size="13" lengthAdjust="spacing" textLength="7" x="726.8164" y="339.3319">1</text></g><!--link Request to Business--><g id="link_Request_Business"><path codeLine="128" d="M332.2152,252.92 C346.5552,271.9 366.4152,294.41 388.7952,309 C403.4952,318.59 507.6852,349.18 561.2052,364.53 " fill="none" id="Request-Business" style="stroke:#181818;stroke-width:1.0;"/><polygon fill="#000000" points="398.2898,302.3664,391.4467,295.7617,388.8714,301.0453,398.2898,302.3664" style="stroke:#000000;stroke-width:1.0;"/><text fill="#000000" font-family="sans-serif" font-size="13" lengthAdjust="spacing" textLength="88" x="402.7952" y="305.4951">is described by</text><text fill="#000000" font-family="sans-serif" font-size="13" lengthAdjust="spacing" textLength="7" x="328.5144" y="273.7327">1</text><text fill="#000000" font-family="sans-serif" font-size="13" lengthAdjust="spacing" textLength="7" x="546.0906" y="357.8849">1</text></g><!--reverse link Business to Lease--><g id="link_Business_Lease"><path codeLine="129" d="M556.5752,416.13 C536.0052,439.22 510.8552,467.43 492.9352,487.54 " fill="none" id="Business-backto-Lease" style="stroke:#181818;stroke-width:1.0;"/><polygon fill="none" points="551.4152,411.41,569.9452,401.13,561.8652,420.72,551.4152,411.41" style="stroke:#181818;stroke-width:1.0;"/></g><!--link BusinessType to Business--><g id="link_BusinessType_Business"><path codeLine="130" d="M455.4352,374.5 C488.6252,374.5 531.9752,374.5 561.0252,374.5 " fill="none" id="BusinessType-Business" style="stroke:#181818;stroke-width:1.0;"/><polygon fill="#000000" points="482.7952,362.6758,473.7501,359.7369,473.7501,365.6147,482.7952,362.6758" style="stroke:#000000;stroke-width:1.0;"/><text fill="#000000" font-family="sans-serif" font-size="13" lengthAdjust="spacing" textLength="56" x="486.7952" y="367.9951">describes</text><text fill="#000000" font-family="sans-serif" font-size="13" lengthAdjust="spacing" textLength="7" x="463.266" y="370.7803">1</text><text fill="#000000" font-family="sans-serif" font-size="13" lengthAdjust="spacing" textLength="7" x="546.3099" y="389.7596">1</text></g><!--link Announcement to Request--><g id="link_Announcement_Request"><path codeLine="131" d="M214.1752,1145.23 C217.7052,1053.19 226.7952,795.54 226.7952,581 C226.7952,373.5 226.7952,373.5 226.7952,373.5 C226.7952,327.87 254.7652,282.51 278.0252,252.65 " fill="none" id="Announcement-Request" style="stroke:#181818;stroke-width:1.0;"/><polygon fill="#000000" points="232.152,676.1885,228.5751,685.0009,234.438,685.4203,232.152,676.1885" style="stroke:#000000;stroke-width:1.0;"/><text fill="#000000" font-family="sans-serif" font-size="13" lengthAdjust="spacing" textLength="71" x="240.7952" y="686.4951">is  based on</text><text fill="#000000" font-family="sans-serif" font-size="13" lengthAdjust="spacing" textLength="7" x="206.7843" y="1134.7033">1</text><text fill="#000000" font-family="sans-serif" font-size="13" lengthAdjust="spacing" textLength="7" x="265.135" y="273.6924">1</text></g><!--link Commission to CommissionType--><g id="link_Commission_CommissionType"><path codeLine="132" d="M212.7952,1374.3 C212.7952,1396.79 212.7952,1429.26 212.7952,1451.75 " fill="none" id="Commission-CommissionType" style="stroke:#181818;stroke-width:1.0;"/><polygon fill="#000000" points="217.7952,1418.1758,220.7341,1409.1307,214.8563,1409.1307,217.7952,1418.1758" style="stroke:#000000;stroke-width:1.0;"/><text fill="#000000" font-family="sans-serif" font-size="13" lengthAdjust="spacing" textLength="95" x="226.7952" y="1418.4951">is categorized in</text><text fill="#000000" font-family="sans-serif" font-size="13" lengthAdjust="spacing" textLength="5" x="207.2171" y="1395.858">*</text><text fill="#000000" font-family="sans-serif" font-size="13" lengthAdjust="spacing" textLength="7" x="204.9858" y="1441.2245">1</text></g><!--link Agency to Request--><g id="link_Agency_Request"><path codeLine="133" d="M367.5152,934.82 C366.7552,919.41 365.8352,902.52 364.7952,887 C348.5552,643.95 321.5052,351.85 312.1252,252.79 " fill="none" id="Agency-Request" style="stroke:#181818;stroke-width:1.0;"/><polygon fill="#000000" points="346.3905,575.1922,344.1933,584.4455,350.0519,583.9697,346.3905,575.1922" style="stroke:#000000;stroke-width:1.0;"/><text fill="#000000" font-family="sans-serif" font-size="13" lengthAdjust="spacing" textLength="81" x="355.7952" y="585.4951">is assigned to</text><text fill="#000000" font-family="sans-serif" font-size="13" lengthAdjust="spacing" textLength="7" x="359.7385" y="924.1145">1</text><text fill="#000000" font-family="sans-serif" font-size="13" lengthAdjust="spacing" textLength="5" x="307.2679" y="273.8565">*</text></g><!--link Agent to Request--><g id="link_Agent_Request"><path codeLine="134" d="M156.6652,69.24 C184.1152,95.72 237.2052,146.94 272.8352,181.31 " fill="none" id="Agent-Request" style="stroke:#181818;stroke-width:1.0;"/><polygon fill="#000000" points="238.3937,137.6472,233.9245,129.2522,229.8435,133.4824,238.3937,137.6472" style="stroke:#000000;stroke-width:1.0;"/><text fill="#000000" font-family="sans-serif" font-size="13" lengthAdjust="spacing" textLength="98" x="243.7952" y="139.4951">is responsible for</text><text fill="#000000" font-family="sans-serif" font-size="13" lengthAdjust="spacing" textLength="7" x="153.7068" y="90.2195">1</text><text fill="#000000" font-family="sans-serif" font-size="13" lengthAdjust="spacing" textLength="5" x="260.5038" y="170.5266">*</text></g><!--SRC=[ZLLDJnin4BtxLrWSAmNHQuIG822r4gAeLBrxlPEinQx7U6n22Ftl7Nk_30bLSyck_URhpPjPUZJMAQywsQ55tNZiG0OVGT1quvH-L1ju2BiMf0STbDsq9O0QLUFMs8rSgvRA6zqgeiiGlAbYWEyQxODv1Nac6bE3rCPhTfIVEmWDrYJubutavGQiticzCBMeWSp6gc3G2kYKQI_hsWEHS0rQk8jT1Lxy6IrlEjVY3e1jfxDxy8HsBwpge7SX79yxz66bV3su2EfbU3hg-CVMWY-SfXH3VfzEhCLeDNJvWZDNMeDZmZHSgm0PEYJaqO4FkxsGoeCIiZQKSIiJTYisBmF_vFfhfWCORNDILr1xn8wcTnMQuO2PP_ut3zmsA79zvffLrSBDKpIkpuzfrTwuJEi4_8QHKfnAKIv3I6CRLPcGZ6znpGSKxSsBGug-230Mz6ldOF-kOuTb_0Dpts30ZLUksOlepNnnYpf3zuA21mXtgPEQoHA9EMzqu8l4yQjnAwoBpAuY6SjgsGl7i2CN_qZd5bHYWuKRlDBXEleFW1LsdI7YCvbWuyjlrKOuXagnvAVyF4MWNZY-VvvKqmjOddmzaOj5_XjblkIPT3mDIJCrDqkUYonCUN9sUlhb2DorQaTIqGnCJkK9OqlzBgKXwMBL6chOSRLZ_2fIu0tXiydekK_j88qBaUUbI6EqVfV2K7GEFpZCTakMMTMPq6C6uQIORnTo4fl8QkqF9v2O5a31LhzEbdAB_f5IUfnVATaIEvvd1fGinaJYcktUwRWqd2u-inmzpqQPcrdqsV3PK5GjByg1nz9giKYcup0iPSCagduR9kI1IZv33klrFv0p-HdSmZetwt2XSEvMjv6BJluB9PLHvadeEQ8q1rnem46EHL87WiIjfGCMenl9xuMqbEUv0cFNwBjSabGLnZ1BRKvdN04vcRvTLI_s2p7UoVCtHkTD8CgLCSvDuOQ3ZqwEa_0XKmwQ5sqjCJMwM2Pv7FYhQZ_IbYDdIsuNRD3FEYdfomxU1IgflYWd_mYMM-_Gak7sIcQHyU8l]--></g></svg>