<?xml version="1.0" encoding="UTF-8" standalone="no"?><svg xmlns="http://www.w3.org/2000/svg" xmlns:xlink="http://www.w3.org/1999/xlink" contentStyleType="text/css" height="721px" preserveAspectRatio="none" style="width:1031px;height:721px;background:#FFFFFF;" version="1.1" viewBox="0 0 1031 721" width="1031px" zoomAndPan="magnify"><defs/><g><rect fill="#FFFFFF" height="562.0078" style="stroke:#181818;stroke-width:1.0;" width="10" x="125" y="87.5703"/><rect fill="#FFFFFF" height="30.3516" style="stroke:#181818;stroke-width:1.0;" width="10" x="266" y="143.2734"/><rect fill="#FFFFFF" height="30.3516" style="stroke:#181818;stroke-width:1.0;" width="10" x="373" y="203.9766"/><rect fill="#FFFFFF" height="30.3516" style="stroke:#181818;stroke-width:1.0;" width="10" x="497.5" y="264.6797"/><rect fill="#FFFFFF" height="286.8438" style="stroke:#181818;stroke-width:1.0;" width="10" x="629.5" y="325.3828"/><rect fill="#FFFFFF" height="35.3516" style="stroke:#181818;stroke-width:1.0;" width="10" x="634.5" y="449.3047"/><rect fill="#FFFFFF" height="30" style="stroke:#181818;stroke-width:1.0;" width="10" x="842.5" y="544.875"/><rect fill="none" height="517.6563" style="stroke:#000000;stroke-width:1.5;" width="988" x="37.5" y="102.5703"/><rect fill="none" height="182.2734" style="stroke:#000000;stroke-width:1.5;" width="447" x="568.5" y="400.6016"/><line style="stroke:#181818;stroke-width:0.5;stroke-dasharray:5.0,5.0;" x1="129.5" x2="129.5" y1="55.2188" y2="667.5781"/><line style="stroke:#181818;stroke-width:0.5;stroke-dasharray:5.0,5.0;" x1="270.5" x2="270.5" y1="55.2188" y2="667.5781"/><line style="stroke:#181818;stroke-width:0.5;stroke-dasharray:5.0,5.0;" x1="377.5" x2="377.5" y1="55.2188" y2="667.5781"/><line style="stroke:#181818;stroke-width:0.5;stroke-dasharray:5.0,5.0;" x1="502.5" x2="502.5" y1="55.2188" y2="667.5781"/><line style="stroke:#181818;stroke-width:0.5;stroke-dasharray:5.0,5.0;" x1="634.5" x2="634.5" y1="55.2188" y2="667.5781"/><line style="stroke:#181818;stroke-width:0.5;stroke-dasharray:5.0,5.0;" x1="847.5" x2="847.5" y1="373.4922" y2="667.5781"/><line style="stroke:#181818;stroke-width:0.5;stroke-dasharray:5.0,5.0;" x1="962.5" x2="962.5" y1="502.4141" y2="667.5781"/><rect fill="#E3E3E3" height="31.6094" rx="2.5" ry="2.5" style="stroke:#181818;stroke-width:0.5;" width="165" x="47.5" y="22.6094"/><text fill="#000000" font-family="sans-serif" font-size="14" lengthAdjust="spacing" textLength="151" x="54.5" y="44.1426">:ScheduleVisitController</text><rect fill="#E3E3E3" height="31.6094" rx="2.5" ry="2.5" style="stroke:#181818;stroke-width:0.5;" width="165" x="47.5" y="666.5781"/><text fill="#000000" font-family="sans-serif" font-size="14" lengthAdjust="spacing" textLength="151" x="54.5" y="688.1113">:ScheduleVisitController</text><rect fill="#E3E3E3" height="31.6094" rx="2.5" ry="2.5" style="stroke:#181818;stroke-width:0.5;" width="97" x="222.5" y="22.6094"/><text fill="#000000" font-family="sans-serif" font-size="14" lengthAdjust="spacing" textLength="83" x="229.5" y="44.1426">:Repositories</text><rect fill="#E3E3E3" height="31.6094" rx="2.5" ry="2.5" style="stroke:#181818;stroke-width:0.5;" width="97" x="222.5" y="666.5781"/><text fill="#000000" font-family="sans-serif" font-size="14" lengthAdjust="spacing" textLength="83" x="229.5" y="688.1113">:Repositories</text><rect fill="#E3E3E3" height="49.2188" rx="2.5" ry="2.5" style="stroke:#181818;stroke-width:0.5;" width="97" x="329.5" y="5"/><text fill="#000000" font-family="sans-serif" font-size="14" lengthAdjust="spacing" textLength="74" x="341" y="26.5332">repositories</text><text fill="#000000" font-family="sans-serif" font-size="14" lengthAdjust="spacing" textLength="83" x="336.5" y="44.1426">:Repositories</text><rect fill="#E3E3E3" height="49.2188" rx="2.5" ry="2.5" style="stroke:#181818;stroke-width:0.5;" width="97" x="329.5" y="666.5781"/><text fill="#000000" font-family="sans-serif" font-size="14" lengthAdjust="spacing" textLength="74" x="341" y="688.1113">repositories</text><text fill="#000000" font-family="sans-serif" font-size="14" lengthAdjust="spacing" textLength="83" x="336.5" y="705.7207">:Repositories</text><rect fill="#E3E3E3" height="49.2188" rx="2.5" ry="2.5" style="stroke:#181818;stroke-width:0.5;" width="132" x="436.5" y="5"/><text fill="#000000" font-family="sans-serif" font-size="14" lengthAdjust="spacing" textLength="111" x="447" y="26.5332">criteriaRepository</text><text fill="#000000" font-family="sans-serif" font-size="14" lengthAdjust="spacing" textLength="118" x="443.5" y="44.1426">:CriteriaRepository</text><rect fill="#E3E3E3" height="49.2188" rx="2.5" ry="2.5" style="stroke:#181818;stroke-width:0.5;" width="132" x="436.5" y="666.5781"/><text fill="#000000" font-family="sans-serif" font-size="14" lengthAdjust="spacing" textLength="111" x="447" y="688.1113">criteriaRepository</text><text fill="#000000" font-family="sans-serif" font-size="14" lengthAdjust="spacing" textLength="118" x="443.5" y="705.7207">:CriteriaRepository</text><rect fill="#E3E3E3" height="31.6094" rx="2.5" ry="2.5" style="stroke:#181818;stroke-width:0.5;" width="112" x="578.5" y="22.6094"/><text fill="#000000" font-family="sans-serif" font-size="14" lengthAdjust="spacing" textLength="98" x="585.5" y="44.1426">:CriteriaMapper</text><rect fill="#E3E3E3" height="31.6094" rx="2.5" ry="2.5" style="stroke:#181818;stroke-width:0.5;" width="112" x="578.5" y="666.5781"/><text fill="#000000" font-family="sans-serif" font-size="14" lengthAdjust="spacing" textLength="98" x="585.5" y="688.1113">:CriteriaMapper</text><rect fill="#E3E3E3" height="49.2188" rx="2.5" ry="2.5" style="stroke:#181818;stroke-width:0.5;" width="124" x="785.5" y="666.5781"/><text fill="#000000" font-family="sans-serif" font-size="14" lengthAdjust="spacing" textLength="87" x="804" y="688.1113">criteriaDtoList</text><text fill="#000000" font-family="sans-serif" font-size="14" lengthAdjust="spacing" textLength="110" x="792.5" y="705.7207">:List&lt;CriteriaDto&gt;</text><rect fill="#E3E3E3" height="49.2188" rx="2.5" ry="2.5" style="stroke:#181818;stroke-width:0.5;" width="86" x="919.5" y="666.5781"/><text fill="#000000" font-family="sans-serif" font-size="14" lengthAdjust="spacing" textLength="65" x="930" y="688.1113">criteriaDto</text><text fill="#000000" font-family="sans-serif" font-size="14" lengthAdjust="spacing" textLength="72" x="926.5" y="705.7207">:CriteriaDto</text><rect fill="#FFFFFF" height="562.0078" style="stroke:#181818;stroke-width:1.0;" width="10" x="125" y="87.5703"/><rect fill="#FFFFFF" height="30.3516" style="stroke:#181818;stroke-width:1.0;" width="10" x="266" y="143.2734"/><rect fill="#FFFFFF" height="30.3516" style="stroke:#181818;stroke-width:1.0;" width="10" x="373" y="203.9766"/><rect fill="#FFFFFF" height="30.3516" style="stroke:#181818;stroke-width:1.0;" width="10" x="497.5" y="264.6797"/><rect fill="#FFFFFF" height="286.8438" style="stroke:#181818;stroke-width:1.0;" width="10" x="629.5" y="325.3828"/><rect fill="#FFFFFF" height="35.3516" style="stroke:#181818;stroke-width:1.0;" width="10" x="634.5" y="449.3047"/><rect fill="#FFFFFF" height="30" style="stroke:#181818;stroke-width:1.0;" width="10" x="842.5" y="544.875"/><polygon fill="#181818" points="113,83.5703,123,87.5703,113,91.5703,117,87.5703" style="stroke:#181818;stroke-width:1.0;"/><line style="stroke:#181818;stroke-width:1.0;" x1="0" x2="119" y1="87.5703" y2="87.5703"/><text fill="#000000" font-family="sans-serif" font-size="13" font-weight="bold" lengthAdjust="spacing" textLength="14" x="7" y="82.7139">11</text><text fill="#000000" font-family="sans-serif" font-size="13" lengthAdjust="spacing" textLength="88" x="25" y="82.7139">getCriteriaList()</text><path d="M37.5,102.5703 L212.5,102.5703 L212.5,110.9219 L202.5,120.9219 L37.5,120.9219 L37.5,102.5703 " fill="#EEEEEE" style="stroke:#000000;stroke-width:1.5;"/><rect fill="none" height="517.6563" style="stroke:#000000;stroke-width:1.5;" width="988" x="37.5" y="102.5703"/><text fill="#000000" font-family="sans-serif" font-size="13" font-weight="bold" lengthAdjust="spacing" textLength="130" x="52.5" y="117.0654">Get Criteria DTO List</text><polygon fill="#181818" points="254,139.2734,264,143.2734,254,147.2734,258,143.2734" style="stroke:#181818;stroke-width:1.0;"/><line style="stroke:#181818;stroke-width:1.0;" x1="135" x2="260" y1="143.2734" y2="143.2734"/><text fill="#000000" font-family="sans-serif" font-size="13" font-weight="bold" lengthAdjust="spacing" textLength="25" x="142" y="138.417">11.1</text><text fill="#000000" font-family="sans-serif" font-size="13" lengthAdjust="spacing" textLength="75" x="171" y="138.417">getInstance()</text><polygon fill="#181818" points="146,169.625,136,173.625,146,177.625,142,173.625" style="stroke:#181818;stroke-width:1.0;"/><line style="stroke:#181818;stroke-width:1.0;stroke-dasharray:2.0,2.0;" x1="140" x2="270" y1="173.625" y2="173.625"/><text fill="#000000" font-family="sans-serif" font-size="13" font-weight="bold" lengthAdjust="spacing" textLength="25" x="152" y="168.7686">11.2</text><text fill="#000000" font-family="sans-serif" font-size="13" lengthAdjust="spacing" textLength="67" x="181" y="168.7686">repositories</text><polygon fill="#181818" points="361,199.9766,371,203.9766,361,207.9766,365,203.9766" style="stroke:#181818;stroke-width:1.0;"/><line style="stroke:#181818;stroke-width:1.0;" x1="135" x2="367" y1="203.9766" y2="203.9766"/><text fill="#000000" font-family="sans-serif" font-size="13" font-weight="bold" lengthAdjust="spacing" textLength="25" x="142" y="199.1201">11.3</text><text fill="#000000" font-family="sans-serif" font-size="13" lengthAdjust="spacing" textLength="129" x="171" y="199.1201">getCriteriaRepository()</text><polygon fill="#181818" points="146,230.3281,136,234.3281,146,238.3281,142,234.3281" style="stroke:#181818;stroke-width:1.0;"/><line style="stroke:#181818;stroke-width:1.0;stroke-dasharray:2.0,2.0;" x1="140" x2="377" y1="234.3281" y2="234.3281"/><text fill="#000000" font-family="sans-serif" font-size="13" font-weight="bold" lengthAdjust="spacing" textLength="25" x="152" y="229.4717">11.4</text><text fill="#000000" font-family="sans-serif" font-size="13" lengthAdjust="spacing" textLength="103" x="181" y="229.4717">CriteriaRepository</text><polygon fill="#181818" points="485.5,260.6797,495.5,264.6797,485.5,268.6797,489.5,264.6797" style="stroke:#181818;stroke-width:1.0;"/><line style="stroke:#181818;stroke-width:1.0;" x1="135" x2="491.5" y1="264.6797" y2="264.6797"/><text fill="#000000" font-family="sans-serif" font-size="13" font-weight="bold" lengthAdjust="spacing" textLength="25" x="142" y="259.8232">11.5</text><text fill="#000000" font-family="sans-serif" font-size="13" lengthAdjust="spacing" textLength="80" x="171" y="259.8232">getCriteriaList</text><polygon fill="#181818" points="146,291.0313,136,295.0313,146,299.0313,142,295.0313" style="stroke:#181818;stroke-width:1.0;"/><line style="stroke:#181818;stroke-width:1.0;stroke-dasharray:2.0,2.0;" x1="140" x2="501.5" y1="295.0313" y2="295.0313"/><text fill="#000000" font-family="sans-serif" font-size="13" font-weight="bold" lengthAdjust="spacing" textLength="25" x="152" y="290.1748">11.6</text><text fill="#000000" font-family="sans-serif" font-size="13" lengthAdjust="spacing" textLength="60" x="181" y="290.1748">criteriaList</text><polygon fill="#181818" points="617.5,321.3828,627.5,325.3828,617.5,329.3828,621.5,325.3828" style="stroke:#181818;stroke-width:1.0;"/><line style="stroke:#181818;stroke-width:1.0;" x1="135" x2="623.5" y1="325.3828" y2="325.3828"/><text fill="#000000" font-family="sans-serif" font-size="13" font-weight="bold" lengthAdjust="spacing" textLength="25" x="142" y="320.5264">11.7</text><text fill="#000000" font-family="sans-serif" font-size="13" lengthAdjust="spacing" textLength="99" x="171" y="320.5264">toDto(criteriaList)</text><polygon fill="#181818" points="773.5,351.7344,783.5,355.7344,773.5,359.7344,777.5,355.7344" style="stroke:#181818;stroke-width:1.0;"/><line style="stroke:#181818;stroke-width:1.0;" x1="639.5" x2="779.5" y1="355.7344" y2="355.7344"/><text fill="#000000" font-family="sans-serif" font-size="13" font-weight="bold" lengthAdjust="spacing" textLength="25" x="646.5" y="350.8779">11.8</text><text fill="#000000" font-family="sans-serif" font-size="13" lengthAdjust="spacing" textLength="44" x="675.5" y="350.8779">create()</text><rect fill="#E3E3E3" height="49.2188" rx="2.5" ry="2.5" style="stroke:#181818;stroke-width:0.5;" width="124" x="785.5" y="333.3828"/><text fill="#000000" font-family="sans-serif" font-size="14" lengthAdjust="spacing" textLength="87" x="804" y="354.916">criteriaDtoList</text><text fill="#000000" font-family="sans-serif" font-size="14" lengthAdjust="spacing" textLength="110" x="792.5" y="372.5254">:List&lt;CriteriaDto&gt;</text><path d="M568.5,400.6016 L641.5,400.6016 L641.5,408.9531 L631.5,418.9531 L568.5,418.9531 L568.5,400.6016 " fill="#EEEEEE" style="stroke:#000000;stroke-width:1.5;"/><rect fill="none" height="182.2734" style="stroke:#000000;stroke-width:1.5;" width="447" x="568.5" y="400.6016"/><text fill="#000000" font-family="sans-serif" font-size="13" font-weight="bold" lengthAdjust="spacing" textLength="28" x="583.5" y="415.0967">loop</text><text fill="#000000" font-family="sans-serif" font-size="11" font-weight="bold" lengthAdjust="spacing" textLength="103" x="656.5" y="414.0205">[for each criterion]</text><line style="stroke:#181818;stroke-width:1.0;" x1="639.5" x2="686.5" y1="436.3047" y2="436.3047"/><line style="stroke:#181818;stroke-width:1.0;" x1="686.5" x2="686.5" y1="436.3047" y2="449.3047"/><line style="stroke:#181818;stroke-width:1.0;" x1="645.5" x2="686.5" y1="449.3047" y2="449.3047"/><polygon fill="#181818" points="655.5,445.3047,645.5,449.3047,655.5,453.3047,651.5,449.3047" style="stroke:#181818;stroke-width:1.0;"/><text fill="#000000" font-family="sans-serif" font-size="13" font-weight="bold" lengthAdjust="spacing" textLength="25" x="651.5" y="431.4482">11.9</text><text fill="#000000" font-family="sans-serif" font-size="13" lengthAdjust="spacing" textLength="160" x="680.5" y="431.4482">criteriaDto = toDto(criterion)</text><polygon fill="#181818" points="907.5,480.6563,917.5,484.6563,907.5,488.6563,911.5,484.6563" style="stroke:#181818;stroke-width:1.0;"/><line style="stroke:#181818;stroke-width:1.0;stroke-dasharray:2.0,2.0;" x1="639.5" x2="913.5" y1="484.6563" y2="484.6563"/><text fill="#000000" font-family="sans-serif" font-size="13" font-weight="bold" lengthAdjust="spacing" textLength="32" x="646.5" y="479.7998">11.10</text><text fill="#000000" font-family="sans-serif" font-size="13" lengthAdjust="spacing" textLength="90" x="682.5" y="479.7998">create(criterion)</text><rect fill="#E3E3E3" height="49.2188" rx="2.5" ry="2.5" style="stroke:#181818;stroke-width:0.5;" width="86" x="919.5" y="462.3047"/><text fill="#000000" font-family="sans-serif" font-size="14" lengthAdjust="spacing" textLength="65" x="930" y="483.8379">criteriaDto</text><text fill="#000000" font-family="sans-serif" font-size="14" lengthAdjust="spacing" textLength="72" x="926.5" y="501.4473">:CriteriaDto</text><polygon fill="#181818" points="830.5,540.875,840.5,544.875,830.5,548.875,834.5,544.875" style="stroke:#181818;stroke-width:1.0;"/><line style="stroke:#181818;stroke-width:1.0;" x1="639.5" x2="836.5" y1="544.875" y2="544.875"/><text fill="#000000" font-family="sans-serif" font-size="13" font-weight="bold" lengthAdjust="spacing" textLength="32" x="646.5" y="540.0186">11.11</text><text fill="#000000" font-family="sans-serif" font-size="13" lengthAdjust="spacing" textLength="88" x="682.5" y="540.0186">add(criteriaDto)</text><polygon fill="#181818" points="146,608.2266,136,612.2266,146,616.2266,142,612.2266" style="stroke:#181818;stroke-width:1.0;"/><line style="stroke:#181818;stroke-width:1.0;stroke-dasharray:2.0,2.0;" x1="140" x2="633.5" y1="612.2266" y2="612.2266"/><text fill="#000000" font-family="sans-serif" font-size="13" font-weight="bold" lengthAdjust="spacing" textLength="32" x="152" y="607.3701">11.12</text><text fill="#000000" font-family="sans-serif" font-size="13" lengthAdjust="spacing" textLength="80" x="188" y="607.3701">criteriaDtoList</text><polygon fill="#181818" points="11,645.5781,1,649.5781,11,653.5781,7,649.5781" style="stroke:#181818;stroke-width:1.0;"/><line style="stroke:#181818;stroke-width:1.0;stroke-dasharray:2.0,2.0;" x1="5" x2="129" y1="649.5781" y2="649.5781"/><text fill="#000000" font-family="sans-serif" font-size="13" font-weight="bold" lengthAdjust="spacing" textLength="14" x="17" y="644.7217">12</text><text fill="#000000" font-family="sans-serif" font-size="13" lengthAdjust="spacing" textLength="80" x="35" y="644.7217">criteriaDtoList</text><!--SRC=[bPHDJyCm38Rl-HKMfu4qf754W8G6GfE6cBQ94vUGcYwYIwea1V7lSVgHfciOqClMnE_h9xOR-ovLoGtVmruhBNP6xn6SgP3Pi5DoySvptBYl0i6WS5pbHHnWTppJdrBbyCOBYupHifD2bbmvEBdSY1rcLO7FqaetryePNHHeJe1Rc6_NouFmDPQQ0hMHQEkOiF2raJwpqseeCP7YHOqDLilRxL0XZ7He9E-jIJSVBJQ8e-K3u2xWaPTbUwp7szNgVftEUUVqKbf72VtFrRnVlgcrTzkdvMAp_L4SaT9R9s6CyOegK-rVqS1injZqfgukN4AEhbFub9DJYXLEVd27JGC6odFI0ZsvqLK93-X21NmUy0wCrSwK8T6R9k52MPeJWJuPj4z8ckfeYF9FodRQ7oXkUD1b-3V_3jrFnR0ulIn9NO_H0BEsYBWIevB26nfrF6Fnk7K9gcCv4vOHhKWQHvn7hLlgPjB9pMcQnadiUJg6RR-BiD6goQUT-hEp6WmfEEv1eNK9Rze0mUqwyC7Gz4w1AFfcu7h8fzK_u1gwc2pX4fNjq6TyIdBYMJQ901CutJsGoD1jXJrKMLsZ9Fn1kzlxX_sAJgRDd_XwkEXrLzFfVxnzw3S0]--></g></svg>