<?xml version="1.0" encoding="UTF-8" standalone="no"?><svg xmlns="http://www.w3.org/2000/svg" xmlns:xlink="http://www.w3.org/1999/xlink" contentStyleType="text/css" height="907px" preserveAspectRatio="none" style="width:1414px;height:907px;background:#FFFFFF;" version="1.1" viewBox="0 0 1414 907" width="1414px" zoomAndPan="magnify"><defs/><g><rect fill="#FFFFFF" height="770.25" style="stroke:#181818;stroke-width:1.0;" width="10" x="214" y="65.2188"/><rect fill="#FFFFFF" height="30.3516" style="stroke:#181818;stroke-width:1.0;" width="10" x="355" y="143.2734"/><rect fill="#FFFFFF" height="30.3516" style="stroke:#181818;stroke-width:1.0;" width="10" x="462" y="203.9766"/><rect fill="#FFFFFF" height="515.4375" style="stroke:#181818;stroke-width:1.0;" width="10" x="587" y="289.6797"/><rect fill="#FFFFFF" height="184.1094" style="stroke:#181818;stroke-width:1.0;" width="10" x="807" y="405.6016"/><rect fill="#FFFFFF" height="123.4063" style="stroke:#181818;stroke-width:1.0;" width="10" x="1026" y="435.9531"/><rect fill="#FFFFFF" height="30.3516" style="stroke:#181818;stroke-width:1.0;" width="10" x="1026" y="712.4141"/><rect fill="#FFFFFF" height="30.3516" style="stroke:#181818;stroke-width:1.0;" width="10" x="1161" y="491.6563"/><rect fill="#FFFFFF" height="30" style="stroke:#181818;stroke-width:1.0;" width="10" x="1306" y="620.0625"/><rect fill="none" height="673.1953" style="stroke:#000000;stroke-width:1.5;" width="1282" x="126.5" y="102.5703"/><rect fill="none" height="318.1641" style="stroke:#000000;stroke-width:1.5;" width="883" x="515.5" y="364.8984"/><rect fill="none" height="79.0547" style="stroke:#000000;stroke-width:1.5;" width="280" x="953.5" y="450.9531"/><line style="stroke:#181818;stroke-width:0.5;stroke-dasharray:5.0,5.0;" x1="218.5" x2="218.5" y1="55.2188" y2="853.4688"/><line style="stroke:#181818;stroke-width:0.5;stroke-dasharray:5.0,5.0;" x1="359.5" x2="359.5" y1="55.2188" y2="853.4688"/><line style="stroke:#181818;stroke-width:0.5;stroke-dasharray:5.0,5.0;" x1="466.5" x2="466.5" y1="55.2188" y2="853.4688"/><line style="stroke:#181818;stroke-width:0.5;stroke-dasharray:5.0,5.0;" x1="591.5" x2="591.5" y1="55.2188" y2="853.4688"/><line style="stroke:#181818;stroke-width:0.5;stroke-dasharray:5.0,5.0;" x1="811.5" x2="811.5" y1="55.2188" y2="853.4688"/><line style="stroke:#181818;stroke-width:0.5;stroke-dasharray:5.0,5.0;" x1="1030.5" x2="1030.5" y1="55.2188" y2="853.4688"/><line style="stroke:#181818;stroke-width:0.5;stroke-dasharray:5.0,5.0;" x1="1165.5" x2="1165.5" y1="55.2188" y2="853.4688"/><line style="stroke:#181818;stroke-width:0.5;stroke-dasharray:5.0,5.0;" x1="1310.5" x2="1310.5" y1="337.7891" y2="853.4688"/><rect fill="#E3E3E3" height="31.6094" rx="2.5" ry="2.5" style="stroke:#181818;stroke-width:0.5;" width="165" x="136.5" y="22.6094"/><text fill="#000000" font-family="sans-serif" font-size="14" lengthAdjust="spacing" textLength="151" x="143.5" y="44.1426">:ScheduleVisitController</text><rect fill="#E3E3E3" height="31.6094" rx="2.5" ry="2.5" style="stroke:#181818;stroke-width:0.5;" width="165" x="136.5" y="852.4688"/><text fill="#000000" font-family="sans-serif" font-size="14" lengthAdjust="spacing" textLength="151" x="143.5" y="874.002">:ScheduleVisitController</text><rect fill="#E3E3E3" height="31.6094" rx="2.5" ry="2.5" style="stroke:#181818;stroke-width:0.5;" width="97" x="311.5" y="22.6094"/><text fill="#000000" font-family="sans-serif" font-size="14" lengthAdjust="spacing" textLength="83" x="318.5" y="44.1426">:Repositories</text><rect fill="#E3E3E3" height="31.6094" rx="2.5" ry="2.5" style="stroke:#181818;stroke-width:0.5;" width="97" x="311.5" y="852.4688"/><text fill="#000000" font-family="sans-serif" font-size="14" lengthAdjust="spacing" textLength="83" x="318.5" y="874.002">:Repositories</text><rect fill="#E3E3E3" height="49.2188" rx="2.5" ry="2.5" style="stroke:#181818;stroke-width:0.5;" width="97" x="418.5" y="5"/><text fill="#000000" font-family="sans-serif" font-size="14" lengthAdjust="spacing" textLength="74" x="430" y="26.5332">repositories</text><text fill="#000000" font-family="sans-serif" font-size="14" lengthAdjust="spacing" textLength="83" x="425.5" y="44.1426">:Repositories</text><rect fill="#E3E3E3" height="49.2188" rx="2.5" ry="2.5" style="stroke:#181818;stroke-width:0.5;" width="97" x="418.5" y="852.4688"/><text fill="#000000" font-family="sans-serif" font-size="14" lengthAdjust="spacing" textLength="74" x="430" y="874.002">repositories</text><text fill="#000000" font-family="sans-serif" font-size="14" lengthAdjust="spacing" textLength="83" x="425.5" y="891.6113">:Repositories</text><rect fill="#E3E3E3" height="49.2188" rx="2.5" ry="2.5" style="stroke:#181818;stroke-width:0.5;" width="133" x="525.5" y="5"/><text fill="#000000" font-family="sans-serif" font-size="14" lengthAdjust="spacing" textLength="114" x="535" y="26.5332">agencyRepository</text><text fill="#000000" font-family="sans-serif" font-size="14" lengthAdjust="spacing" textLength="119" x="532.5" y="44.1426">:AgencyRepository</text><rect fill="#E3E3E3" height="49.2188" rx="2.5" ry="2.5" style="stroke:#181818;stroke-width:0.5;" width="133" x="525.5" y="852.4688"/><text fill="#000000" font-family="sans-serif" font-size="14" lengthAdjust="spacing" textLength="114" x="535" y="874.002">agencyRepository</text><text fill="#000000" font-family="sans-serif" font-size="14" lengthAdjust="spacing" textLength="119" x="532.5" y="891.6113">:AgencyRepository</text><rect fill="#E3E3E3" height="49.2188" rx="2.5" ry="2.5" style="stroke:#181818;stroke-width:0.5;" width="65" x="779.5" y="5"/><text fill="#000000" font-family="sans-serif" font-size="14" lengthAdjust="spacing" textLength="46" x="789" y="26.5332">agency</text><text fill="#000000" font-family="sans-serif" font-size="14" lengthAdjust="spacing" textLength="51" x="786.5" y="44.1426">:Agency</text><rect fill="#E3E3E3" height="49.2188" rx="2.5" ry="2.5" style="stroke:#181818;stroke-width:0.5;" width="65" x="779.5" y="852.4688"/><text fill="#000000" font-family="sans-serif" font-size="14" lengthAdjust="spacing" textLength="46" x="789" y="874.002">agency</text><text fill="#000000" font-family="sans-serif" font-size="14" lengthAdjust="spacing" textLength="51" x="786.5" y="891.6113">:Agency</text><rect fill="#E3E3E3" height="49.2188" rx="2.5" ry="2.5" style="stroke:#181818;stroke-width:0.5;" width="135" x="963.5" y="5"/><text fill="#000000" font-family="sans-serif" font-size="14" lengthAdjust="spacing" textLength="116" x="973" y="26.5332">announcementList</text><text fill="#000000" font-family="sans-serif" font-size="14" lengthAdjust="spacing" textLength="121" x="970.5" y="44.1426">:AnnouncementList</text><rect fill="#E3E3E3" height="49.2188" rx="2.5" ry="2.5" style="stroke:#181818;stroke-width:0.5;" width="135" x="963.5" y="852.4688"/><text fill="#000000" font-family="sans-serif" font-size="14" lengthAdjust="spacing" textLength="116" x="973" y="874.002">announcementList</text><text fill="#000000" font-family="sans-serif" font-size="14" lengthAdjust="spacing" textLength="121" x="970.5" y="891.6113">:AnnouncementList</text><rect fill="#E3E3E3" height="49.2188" rx="2.5" ry="2.5" style="stroke:#181818;stroke-width:0.5;" width="115" x="1108.5" y="5"/><text fill="#000000" font-family="sans-serif" font-size="14" lengthAdjust="spacing" textLength="101" x="1115.5" y="26.5332">announcements</text><text fill="#000000" font-family="sans-serif" font-size="14" lengthAdjust="spacing" textLength="99" x="1116.5" y="44.1426">:Announcement</text><rect fill="#E3E3E3" height="49.2188" rx="2.5" ry="2.5" style="stroke:#181818;stroke-width:0.5;" width="115" x="1108.5" y="852.4688"/><text fill="#000000" font-family="sans-serif" font-size="14" lengthAdjust="spacing" textLength="101" x="1115.5" y="874.002">announcements</text><text fill="#000000" font-family="sans-serif" font-size="14" lengthAdjust="spacing" textLength="99" x="1116.5" y="891.6113">:Announcement</text><rect fill="#E3E3E3" height="49.2188" rx="2.5" ry="2.5" style="stroke:#181818;stroke-width:0.5;" width="155" x="1233.5" y="852.4688"/><text fill="#000000" font-family="sans-serif" font-size="14" lengthAdjust="spacing" textLength="119" x="1251.5" y="874.002">listAnnouncements</text><text fill="#000000" font-family="sans-serif" font-size="14" lengthAdjust="spacing" textLength="141" x="1240.5" y="891.6113">: List&lt;Announcement&gt;</text><rect fill="#FFFFFF" height="770.25" style="stroke:#181818;stroke-width:1.0;" width="10" x="214" y="65.2188"/><rect fill="#FFFFFF" height="30.3516" style="stroke:#181818;stroke-width:1.0;" width="10" x="355" y="143.2734"/><rect fill="#FFFFFF" height="30.3516" style="stroke:#181818;stroke-width:1.0;" width="10" x="462" y="203.9766"/><rect fill="#FFFFFF" height="515.4375" style="stroke:#181818;stroke-width:1.0;" width="10" x="587" y="289.6797"/><rect fill="#FFFFFF" height="184.1094" style="stroke:#181818;stroke-width:1.0;" width="10" x="807" y="405.6016"/><rect fill="#FFFFFF" height="123.4063" style="stroke:#181818;stroke-width:1.0;" width="10" x="1026" y="435.9531"/><rect fill="#FFFFFF" height="30.3516" style="stroke:#181818;stroke-width:1.0;" width="10" x="1026" y="712.4141"/><rect fill="#FFFFFF" height="30.3516" style="stroke:#181818;stroke-width:1.0;" width="10" x="1161" y="491.6563"/><rect fill="#FFFFFF" height="30" style="stroke:#181818;stroke-width:1.0;" width="10" x="1306" y="620.0625"/><polygon fill="#181818" points="202,83.5703,212,87.5703,202,91.5703,206,87.5703" style="stroke:#181818;stroke-width:1.0;"/><line style="stroke:#181818;stroke-width:1.0;" x1="0" x2="208" y1="87.5703" y2="87.5703"/><text fill="#000000" font-family="sans-serif" font-size="13" font-weight="bold" lengthAdjust="spacing" textLength="7" x="7" y="82.7139">4</text><text fill="#000000" font-family="sans-serif" font-size="13" lengthAdjust="spacing" textLength="184" x="18" y="82.7139">getAllNonDealAnnouncements()</text><path d="M126.5,102.5703 L287.5,102.5703 L287.5,110.9219 L277.5,120.9219 L126.5,120.9219 L126.5,102.5703 " fill="#EEEEEE" style="stroke:#000000;stroke-width:1.5;"/><rect fill="none" height="673.1953" style="stroke:#000000;stroke-width:1.5;" width="1282" x="126.5" y="102.5703"/><text fill="#000000" font-family="sans-serif" font-size="13" font-weight="bold" lengthAdjust="spacing" textLength="116" x="141.5" y="117.0654">Get Non Deals List</text><polygon fill="#181818" points="343,139.2734,353,143.2734,343,147.2734,347,143.2734" style="stroke:#181818;stroke-width:1.0;"/><line style="stroke:#181818;stroke-width:1.0;" x1="224" x2="349" y1="143.2734" y2="143.2734"/><text fill="#000000" font-family="sans-serif" font-size="13" font-weight="bold" lengthAdjust="spacing" textLength="18" x="231" y="138.417">4.1</text><text fill="#000000" font-family="sans-serif" font-size="13" lengthAdjust="spacing" textLength="75" x="253" y="138.417">getInstance()</text><polygon fill="#181818" points="235,169.625,225,173.625,235,177.625,231,173.625" style="stroke:#181818;stroke-width:1.0;"/><line style="stroke:#181818;stroke-width:1.0;stroke-dasharray:2.0,2.0;" x1="229" x2="359" y1="173.625" y2="173.625"/><text fill="#000000" font-family="sans-serif" font-size="13" font-weight="bold" lengthAdjust="spacing" textLength="18" x="241" y="168.7686">4.2</text><text fill="#000000" font-family="sans-serif" font-size="13" lengthAdjust="spacing" textLength="67" x="263" y="168.7686">repositories</text><polygon fill="#181818" points="450,199.9766,460,203.9766,450,207.9766,454,203.9766" style="stroke:#181818;stroke-width:1.0;"/><line style="stroke:#181818;stroke-width:1.0;" x1="224" x2="456" y1="203.9766" y2="203.9766"/><text fill="#000000" font-family="sans-serif" font-size="13" font-weight="bold" lengthAdjust="spacing" textLength="18" x="231" y="199.1201">4.3</text><text fill="#000000" font-family="sans-serif" font-size="13" lengthAdjust="spacing" textLength="132" x="253" y="199.1201">getAgencyRepository()</text><polygon fill="#181818" points="235,230.3281,225,234.3281,235,238.3281,231,234.3281" style="stroke:#181818;stroke-width:1.0;"/><line style="stroke:#181818;stroke-width:1.0;" x1="229" x2="466" y1="234.3281" y2="234.3281"/><text fill="#000000" font-family="sans-serif" font-size="13" font-weight="bold" lengthAdjust="spacing" textLength="18" x="241" y="229.4717">4.4</text><text fill="#000000" font-family="sans-serif" font-size="13" lengthAdjust="spacing" textLength="104" x="263" y="229.4717">agencyRepository</text><polygon fill="#181818" points="575,285.6797,585,289.6797,575,293.6797,579,289.6797" style="stroke:#181818;stroke-width:1.0;"/><line style="stroke:#181818;stroke-width:1.0;" x1="224" x2="581" y1="289.6797" y2="289.6797"/><text fill="#000000" font-family="sans-serif" font-size="13" font-weight="bold" lengthAdjust="spacing" textLength="18" x="231" y="284.8232">4.5</text><text fill="#000000" font-family="sans-serif" font-size="13" lengthAdjust="spacing" textLength="184" x="253" y="284.8232">getAllNonDealAnnouncements()</text><polygon fill="#181818" points="1221.5,316.0313,1231.5,320.0313,1221.5,324.0313,1225.5,320.0313" style="stroke:#181818;stroke-width:1.0;"/><line style="stroke:#181818;stroke-width:1.0;" x1="597" x2="1227.5" y1="320.0313" y2="320.0313"/><text fill="#000000" font-family="sans-serif" font-size="13" font-weight="bold" lengthAdjust="spacing" textLength="18" x="604" y="315.1748">4.6</text><text fill="#000000" font-family="sans-serif" font-size="13" lengthAdjust="spacing" textLength="134" x="626" y="315.1748">listToDisplay = create()</text><rect fill="#E3E3E3" height="49.2188" rx="2.5" ry="2.5" style="stroke:#181818;stroke-width:0.5;" width="155" x="1233.5" y="297.6797"/><text fill="#000000" font-family="sans-serif" font-size="14" lengthAdjust="spacing" textLength="119" x="1251.5" y="319.2129">listAnnouncements</text><text fill="#000000" font-family="sans-serif" font-size="14" lengthAdjust="spacing" textLength="141" x="1240.5" y="336.8223">: List&lt;Announcement&gt;</text><path d="M515.5,364.8984 L588.5,364.8984 L588.5,373.25 L578.5,383.25 L515.5,383.25 L515.5,364.8984 " fill="#EEEEEE" style="stroke:#000000;stroke-width:1.5;"/><rect fill="none" height="318.1641" style="stroke:#000000;stroke-width:1.5;" width="883" x="515.5" y="364.8984"/><text fill="#000000" font-family="sans-serif" font-size="13" font-weight="bold" lengthAdjust="spacing" textLength="28" x="530.5" y="379.3936">loop</text><text fill="#000000" font-family="sans-serif" font-size="11" font-weight="bold" lengthAdjust="spacing" textLength="92" x="603.5" y="378.3174">[for all agencies]</text><polygon fill="#181818" points="795,401.6016,805,405.6016,795,409.6016,799,405.6016" style="stroke:#181818;stroke-width:1.0;"/><line style="stroke:#181818;stroke-width:1.0;" x1="597" x2="801" y1="405.6016" y2="405.6016"/><text fill="#000000" font-family="sans-serif" font-size="13" font-weight="bold" lengthAdjust="spacing" textLength="18" x="604" y="400.7451">4.7</text><text fill="#000000" font-family="sans-serif" font-size="13" lengthAdjust="spacing" textLength="169" x="626" y="400.7451">getNonDealAnnouncements()</text><polygon fill="#181818" points="1014,431.9531,1024,435.9531,1014,439.9531,1018,435.9531" style="stroke:#181818;stroke-width:1.0;"/><line style="stroke:#181818;stroke-width:1.0;" x1="817" x2="1020" y1="435.9531" y2="435.9531"/><text fill="#000000" font-family="sans-serif" font-size="13" font-weight="bold" lengthAdjust="spacing" textLength="18" x="824" y="431.0967">4.8</text><text fill="#000000" font-family="sans-serif" font-size="13" lengthAdjust="spacing" textLength="82" x="846" y="431.0967">getNonDeals()</text><path d="M953.5,450.9531 L1026.5,450.9531 L1026.5,459.3047 L1016.5,469.3047 L953.5,469.3047 L953.5,450.9531 " fill="#EEEEEE" style="stroke:#000000;stroke-width:1.5;"/><rect fill="none" height="79.0547" style="stroke:#000000;stroke-width:1.5;" width="280" x="953.5" y="450.9531"/><text fill="#000000" font-family="sans-serif" font-size="13" font-weight="bold" lengthAdjust="spacing" textLength="28" x="968.5" y="465.4482">loop</text><text fill="#000000" font-family="sans-serif" font-size="11" font-weight="bold" lengthAdjust="spacing" textLength="132" x="1041.5" y="464.3721">[for all announcements]</text><polygon fill="#181818" points="1149,487.6563,1159,491.6563,1149,495.6563,1153,491.6563" style="stroke:#181818;stroke-width:1.0;"/><line style="stroke:#181818;stroke-width:1.0;" x1="1036" x2="1155" y1="491.6563" y2="491.6563"/><text fill="#000000" font-family="sans-serif" font-size="13" font-weight="bold" lengthAdjust="spacing" textLength="18" x="1043" y="486.7998">4.9</text><text fill="#000000" font-family="sans-serif" font-size="13" lengthAdjust="spacing" textLength="44" x="1065" y="486.7998">isDeal()</text><polygon fill="#181818" points="1047,518.0078,1037,522.0078,1047,526.0078,1043,522.0078" style="stroke:#181818;stroke-width:1.0;"/><line style="stroke:#181818;stroke-width:1.0;stroke-dasharray:2.0,2.0;" x1="1041" x2="1165" y1="522.0078" y2="522.0078"/><text fill="#000000" font-family="sans-serif" font-size="13" font-weight="bold" lengthAdjust="spacing" textLength="25" x="1053" y="517.1514">4.10</text><text fill="#000000" font-family="sans-serif" font-size="13" lengthAdjust="spacing" textLength="53" x="1082" y="517.1514">true/false</text><polygon fill="#181818" points="828,555.3594,818,559.3594,828,563.3594,824,559.3594" style="stroke:#181818;stroke-width:1.0;"/><line style="stroke:#181818;stroke-width:1.0;stroke-dasharray:2.0,2.0;" x1="822" x2="1030" y1="559.3594" y2="559.3594"/><text fill="#000000" font-family="sans-serif" font-size="13" font-weight="bold" lengthAdjust="spacing" textLength="25" x="834" y="554.5029">4.11</text><text fill="#000000" font-family="sans-serif" font-size="13" lengthAdjust="spacing" textLength="75" x="863" y="554.5029">nonDealsList</text><polygon fill="#181818" points="608,585.7109,598,589.7109,608,593.7109,604,589.7109" style="stroke:#181818;stroke-width:1.0;"/><line style="stroke:#181818;stroke-width:1.0;stroke-dasharray:2.0,2.0;" x1="602" x2="811" y1="589.7109" y2="589.7109"/><text fill="#000000" font-family="sans-serif" font-size="13" font-weight="bold" lengthAdjust="spacing" textLength="25" x="614" y="584.8545">4.12</text><text fill="#000000" font-family="sans-serif" font-size="13" lengthAdjust="spacing" textLength="75" x="643" y="584.8545">nonDealsList</text><polygon fill="#181818" points="1294,616.0625,1304,620.0625,1294,624.0625,1298,620.0625" style="stroke:#181818;stroke-width:1.0;"/><line style="stroke:#181818;stroke-width:1.0;" x1="597" x2="1300" y1="620.0625" y2="620.0625"/><text fill="#000000" font-family="sans-serif" font-size="13" font-weight="bold" lengthAdjust="spacing" textLength="25" x="604" y="615.2061">4.13</text><text fill="#000000" font-family="sans-serif" font-size="13" lengthAdjust="spacing" textLength="119" x="633" y="615.2061">addAll(nonDealsList)</text><polygon fill="#181818" points="1014,708.4141,1024,712.4141,1014,716.4141,1018,712.4141" style="stroke:#181818;stroke-width:1.0;"/><line style="stroke:#181818;stroke-width:1.0;" x1="597" x2="1020" y1="712.4141" y2="712.4141"/><text fill="#000000" font-family="sans-serif" font-size="13" font-weight="bold" lengthAdjust="spacing" textLength="25" x="604" y="707.5576">4.14</text><text fill="#000000" font-family="sans-serif" font-size="13" lengthAdjust="spacing" textLength="381" x="633" y="707.5576">sortAnnouncementsByMostRecentAcceptanceDate(nonDealsList)</text><polygon fill="#181818" points="608,738.7656,598,742.7656,608,746.7656,604,742.7656" style="stroke:#181818;stroke-width:1.0;"/><line style="stroke:#181818;stroke-width:1.0;stroke-dasharray:2.0,2.0;" x1="602" x2="1030" y1="742.7656" y2="742.7656"/><text fill="#000000" font-family="sans-serif" font-size="13" font-weight="bold" lengthAdjust="spacing" textLength="25" x="614" y="737.9092">4.15</text><text fill="#000000" font-family="sans-serif" font-size="13" lengthAdjust="spacing" textLength="75" x="643" y="737.9092">nonDealsList</text><polygon fill="#181818" points="235,801.1172,225,805.1172,235,809.1172,231,805.1172" style="stroke:#181818;stroke-width:1.0;"/><line style="stroke:#181818;stroke-width:1.0;stroke-dasharray:2.0,2.0;" x1="229" x2="591" y1="805.1172" y2="805.1172"/><text fill="#000000" font-family="sans-serif" font-size="13" font-weight="bold" lengthAdjust="spacing" textLength="25" x="241" y="800.2607">4.16</text><text fill="#000000" font-family="sans-serif" font-size="13" lengthAdjust="spacing" textLength="75" x="270" y="800.2607">nonDealsList</text><polygon fill="#181818" points="11,831.4688,1,835.4688,11,839.4688,7,835.4688" style="stroke:#181818;stroke-width:1.0;"/><line style="stroke:#181818;stroke-width:1.0;stroke-dasharray:2.0,2.0;" x1="5" x2="218" y1="835.4688" y2="835.4688"/><text fill="#000000" font-family="sans-serif" font-size="13" font-weight="bold" lengthAdjust="spacing" textLength="7" x="17" y="830.6123">5</text><text fill="#000000" font-family="sans-serif" font-size="13" lengthAdjust="spacing" textLength="75" x="28" y="830.6123">nonDealsList</text><!--SRC=[dLLDZzCm4BtdLrXxMbOg20akgsMbaA9gfL9GKpXnCSviQwrhHxO3gjGVZp_Qn7QSRKLkcSoyDs- -ebueRx74UxGNN92T57j0MdPGgFvBYyaBtaAj3moG1A8ntxBGGUrm8_vIlaNFc2aeYiBODIMqnLoZc_kQxA3f6FoaYkfAS2q5Oo1l45QesgoNYViQMc4SXQIWd4zlEDJKKcl1un0PHFpYOu3lot8JHnWzd1m6O1DL9YONcHfpA7siZrXKYHFdekC4zi3raYfjtHEJ2rm-rPjgMTRrTBXAOZtXQlNjnwhw4eSn0riceSXoFOJMHuzmijZFfdcuCmNkzhz1eW_sbMZw1slmhIgGUsQFxXNTeoteah6Lu7F0B6AyVUEzGxotxxrjAqNNeWLeP2AH3LN8qwFJu-0DJQRvdlM9ApE91CuqZkgSQsvaUY_xv61dWwfmelgu1gx3FwTkn-vKeMICiZcxAOsIT013KkdG5hdC7ChnU1nba-PmgNUZ_Cf9-X6qfGk6wkxEaDc9t8WvLIt31_G94Ga6DQW44w95pq8Yp9ZNQeiVLoJBjAYybWj2OZ5cJMDaWsB0-YsC82TXXgMDliTImdnYF_iCZ5RBQPaDErMMEI6EDPmtV-JY19sXPeaiUzxV-KkTnWHpb0S7tZXnhyheUy9FrNERFS4pKS6-9Vd9lGPvtE8BOsfNh6dCHjo6y5C351xDgGn2ds0dyrNCfHVsJGaPd_JFXwz2wJKGyr8I0gsxXtExLLS8UANmII__h_m3VdYDh7Ht_2zf7yvUbYoiykWkfR-TZyxmC9jvo1GpmFB_k7y0]--></g></svg>