<?xml version="1.0" encoding="UTF-8" standalone="no"?><svg xmlns="http://www.w3.org/2000/svg" xmlns:xlink="http://www.w3.org/1999/xlink" contentStyleType="text/css" height="2373px" preserveAspectRatio="none" style="width:2241px;height:2373px;background:#FFFFFF;" version="1.1" viewBox="0 0 2241 2373" width="2241px" zoomAndPan="magnify"><defs/><g><!--class AuthenticationRepository--><g id="elem_AuthenticationRepository"><rect codeLine="11" fill="#F1F1F1" height="65.6094" id="AuthenticationRepository" rx="2.5" ry="2.5" style="stroke:#181818;stroke-width:0.5;" width="190" x="1739" y="943.5"/><ellipse cx="1754" cy="959.5" fill="#ADD1B2" rx="11" ry="11" style="stroke:#181818;stroke-width:1.0;"/><path d="M1756.7656,955.375 Q1756.9219,955.1563 1757.1094,955.0469 Q1757.2969,954.9375 1757.5156,954.9375 Q1757.8906,954.9375 1758.125,955.2031 Q1758.3594,955.4531 1758.3594,956.0625 L1758.3594,957.5156 Q1758.3594,958.125 1758.125,958.3906 Q1757.8906,958.6563 1757.5156,958.6563 Q1757.1719,958.6563 1756.9688,958.4531 Q1756.7656,958.2656 1756.6563,957.75 Q1756.6094,957.3906 1756.4219,957.2031 Q1756.0938,956.8281 1755.4844,956.6094 Q1754.875,956.3906 1754.25,956.3906 Q1753.4844,956.3906 1752.8438,956.7188 Q1752.2188,957.0469 1751.7188,957.7969 Q1751.2344,958.5469 1751.2344,959.5781 L1751.2344,960.6719 Q1751.2344,961.9063 1752.125,962.7344 Q1753.0156,963.5469 1754.6094,963.5469 Q1755.5469,963.5469 1756.2031,963.2969 Q1756.5938,963.1406 1757.0156,962.7031 Q1757.2813,962.4375 1757.4219,962.3594 Q1757.5781,962.2813 1757.7813,962.2813 Q1758.1094,962.2813 1758.3594,962.5469 Q1758.625,962.7969 1758.625,963.1406 Q1758.625,963.4844 1758.2813,963.8906 Q1757.7813,964.4688 1756.9844,964.7969 Q1755.9063,965.25 1754.6094,965.25 Q1753.0938,965.25 1751.8906,964.625 Q1750.9063,964.125 1750.2188,963.0625 Q1749.5313,961.9844 1749.5313,960.7031 L1749.5313,959.5469 Q1749.5313,958.2188 1750.1406,957.0781 Q1750.7656,955.9219 1751.8594,955.3125 Q1752.9531,954.6875 1754.1875,954.6875 Q1754.9219,954.6875 1755.5625,954.8594 Q1756.2188,955.0156 1756.7656,955.375 Z " fill="#000000"/><text fill="#000000" font-family="sans-serif" font-size="14" lengthAdjust="spacing" textLength="158" x="1768" y="965.2285">AuthenticationRepository</text><line style="stroke:#181818;stroke-width:0.5;" x1="1740" x2="1928" y1="975.5" y2="975.5"/><line style="stroke:#181818;stroke-width:0.5;" x1="1740" x2="1928" y1="983.5" y2="983.5"/><text fill="#000000" font-family="sans-serif" font-size="14" lengthAdjust="spacing" textLength="165" x="1745" y="1002.0332">+getCurrentUserSession()</text></g><!--class UserSession--><g id="elem_UserSession"><rect codeLine="16" fill="#F1F1F1" height="65.6094" id="UserSession" rx="2.5" ry="2.5" style="stroke:#181818;stroke-width:0.5;" width="111" x="1778.5" y="1148.5"/><ellipse cx="1793.5" cy="1164.5" fill="#ADD1B2" rx="11" ry="11" style="stroke:#181818;stroke-width:1.0;"/><path d="M1796.2656,1160.375 Q1796.4219,1160.1563 1796.6094,1160.0469 Q1796.7969,1159.9375 1797.0156,1159.9375 Q1797.3906,1159.9375 1797.625,1160.2031 Q1797.8594,1160.4531 1797.8594,1161.0625 L1797.8594,1162.5156 Q1797.8594,1163.125 1797.625,1163.3906 Q1797.3906,1163.6563 1797.0156,1163.6563 Q1796.6719,1163.6563 1796.4688,1163.4531 Q1796.2656,1163.2656 1796.1563,1162.75 Q1796.1094,1162.3906 1795.9219,1162.2031 Q1795.5938,1161.8281 1794.9844,1161.6094 Q1794.375,1161.3906 1793.75,1161.3906 Q1792.9844,1161.3906 1792.3438,1161.7188 Q1791.7188,1162.0469 1791.2188,1162.7969 Q1790.7344,1163.5469 1790.7344,1164.5781 L1790.7344,1165.6719 Q1790.7344,1166.9063 1791.625,1167.7344 Q1792.5156,1168.5469 1794.1094,1168.5469 Q1795.0469,1168.5469 1795.7031,1168.2969 Q1796.0938,1168.1406 1796.5156,1167.7031 Q1796.7813,1167.4375 1796.9219,1167.3594 Q1797.0781,1167.2813 1797.2813,1167.2813 Q1797.6094,1167.2813 1797.8594,1167.5469 Q1798.125,1167.7969 1798.125,1168.1406 Q1798.125,1168.4844 1797.7813,1168.8906 Q1797.2813,1169.4688 1796.4844,1169.7969 Q1795.4063,1170.25 1794.1094,1170.25 Q1792.5938,1170.25 1791.3906,1169.625 Q1790.4063,1169.125 1789.7188,1168.0625 Q1789.0313,1166.9844 1789.0313,1165.7031 L1789.0313,1164.5469 Q1789.0313,1163.2188 1789.6406,1162.0781 Q1790.2656,1160.9219 1791.3594,1160.3125 Q1792.4531,1159.6875 1793.6875,1159.6875 Q1794.4219,1159.6875 1795.0625,1159.8594 Q1795.7188,1160.0156 1796.2656,1160.375 Z " fill="#000000"/><text fill="#000000" font-family="sans-serif" font-size="14" lengthAdjust="spacing" textLength="79" x="1807.5" y="1170.2285">UserSession</text><line style="stroke:#181818;stroke-width:0.5;" x1="1779.5" x2="1888.5" y1="1180.5" y2="1180.5"/><line style="stroke:#181818;stroke-width:0.5;" x1="1779.5" x2="1888.5" y1="1188.5" y2="1188.5"/><text fill="#000000" font-family="sans-serif" font-size="14" lengthAdjust="spacing" textLength="78" x="1784.5" y="1207.0332">+getUserId()</text></g><!--class Visit--><g id="elem_Visit"><rect codeLine="21" fill="#F1F1F1" height="276.9219" id="Visit" rx="2.5" ry="2.5" style="stroke:#181818;stroke-width:0.5;" width="365" x="786.5" y="2090"/><ellipse cx="951.75" cy="2106" fill="#ADD1B2" rx="11" ry="11" style="stroke:#181818;stroke-width:1.0;"/><path d="M954.5156,2101.875 Q954.6719,2101.6563 954.8594,2101.5469 Q955.0469,2101.4375 955.2656,2101.4375 Q955.6406,2101.4375 955.875,2101.7031 Q956.1094,2101.9531 956.1094,2102.5625 L956.1094,2104.0156 Q956.1094,2104.625 955.875,2104.8906 Q955.6406,2105.1563 955.2656,2105.1563 Q954.9219,2105.1563 954.7188,2104.9531 Q954.5156,2104.7656 954.4063,2104.25 Q954.3594,2103.8906 954.1719,2103.7031 Q953.8438,2103.3281 953.2344,2103.1094 Q952.625,2102.8906 952,2102.8906 Q951.2344,2102.8906 950.5938,2103.2188 Q949.9688,2103.5469 949.4688,2104.2969 Q948.9844,2105.0469 948.9844,2106.0781 L948.9844,2107.1719 Q948.9844,2108.4063 949.875,2109.2344 Q950.7656,2110.0469 952.3594,2110.0469 Q953.2969,2110.0469 953.9531,2109.7969 Q954.3438,2109.6406 954.7656,2109.2031 Q955.0313,2108.9375 955.1719,2108.8594 Q955.3281,2108.7813 955.5313,2108.7813 Q955.8594,2108.7813 956.1094,2109.0469 Q956.375,2109.2969 956.375,2109.6406 Q956.375,2109.9844 956.0313,2110.3906 Q955.5313,2110.9688 954.7344,2111.2969 Q953.6563,2111.75 952.3594,2111.75 Q950.8438,2111.75 949.6406,2111.125 Q948.6563,2110.625 947.9688,2109.5625 Q947.2813,2108.4844 947.2813,2107.2031 L947.2813,2106.0469 Q947.2813,2104.7188 947.8906,2103.5781 Q948.5156,2102.4219 949.6094,2101.8125 Q950.7031,2101.1875 951.9375,2101.1875 Q952.6719,2101.1875 953.3125,2101.3594 Q953.9688,2101.5156 954.5156,2101.875 Z " fill="#000000"/><text fill="#000000" font-family="sans-serif" font-size="14" lengthAdjust="spacing" textLength="26" x="972.25" y="2111.7285">Visit</text><line style="stroke:#181818;stroke-width:0.5;" x1="787.5" x2="1150.5" y1="2122" y2="2122"/><text fill="#000000" font-family="sans-serif" font-size="14" lengthAdjust="spacing" textLength="64" x="792.5" y="2140.5332">-Integer id</text><text fill="#000000" font-family="sans-serif" font-size="14" lengthAdjust="spacing" textLength="110" x="792.5" y="2158.1426">-String userName</text><text fill="#000000" font-family="sans-serif" font-size="14" lengthAdjust="spacing" textLength="164" x="792.5" y="2175.752">-String userPhoneNumber</text><text fill="#000000" font-family="sans-serif" font-size="14" lengthAdjust="spacing" textLength="111" x="792.5" y="2193.3613">-Integer startHour</text><text fill="#000000" font-family="sans-serif" font-size="14" lengthAdjust="spacing" textLength="107" x="792.5" y="2210.9707">-Integer endHour</text><text fill="#000000" font-family="sans-serif" font-size="14" lengthAdjust="spacing" textLength="127" x="792.5" y="2228.5801">-LocalDate visitDate</text><text fill="#000000" font-family="sans-serif" font-size="14" lengthAdjust="spacing" textLength="174" x="792.5" y="2246.1895">-Boolean acceptanceStatus</text><line style="stroke:#181818;stroke-width:0.5;" x1="787.5" x2="1150.5" y1="2253.2656" y2="2253.2656"/><text fill="#000000" font-family="sans-serif" font-size="14" lengthAdjust="spacing" textLength="353" x="792.5" y="2271.7988">+Visit(visitDay, visitMonth, visitYear, startHour, endHour,</text><text fill="#000000" font-family="sans-serif" font-size="14" lengthAdjust="spacing" textLength="195" x="796.5" y="2289.4082">userName, userPhoneNumber)</text><text fill="#000000" font-family="sans-serif" font-size="14" lengthAdjust="spacing" textLength="94" x="792.5" y="2307.0176">+getVisitDate()</text><text fill="#000000" font-family="sans-serif" font-size="14" lengthAdjust="spacing" textLength="98" x="792.5" y="2324.627">+getStartHour()</text><text fill="#000000" font-family="sans-serif" font-size="14" lengthAdjust="spacing" textLength="93" x="792.5" y="2342.2363">+getEndHour()</text><text fill="#000000" font-family="sans-serif" font-size="14" lengthAdjust="spacing" textLength="188" x="792.5" y="2359.8457">+sendNotification(agentEmail)</text></g><!--class AgencyRepository--><g id="elem_AgencyRepository"><rect codeLine="36" fill="#F1F1F1" height="83.2188" id="AgencyRepository" rx="2.5" ry="2.5" style="stroke:#181818;stroke-width:0.5;" width="324" x="692" y="935"/><ellipse cx="792.25" cy="951" fill="#ADD1B2" rx="11" ry="11" style="stroke:#181818;stroke-width:1.0;"/><path d="M795.0156,946.875 Q795.1719,946.6563 795.3594,946.5469 Q795.5469,946.4375 795.7656,946.4375 Q796.1406,946.4375 796.375,946.7031 Q796.6094,946.9531 796.6094,947.5625 L796.6094,949.0156 Q796.6094,949.625 796.375,949.8906 Q796.1406,950.1563 795.7656,950.1563 Q795.4219,950.1563 795.2188,949.9531 Q795.0156,949.7656 794.9063,949.25 Q794.8594,948.8906 794.6719,948.7031 Q794.3438,948.3281 793.7344,948.1094 Q793.125,947.8906 792.5,947.8906 Q791.7344,947.8906 791.0938,948.2188 Q790.4688,948.5469 789.9688,949.2969 Q789.4844,950.0469 789.4844,951.0781 L789.4844,952.1719 Q789.4844,953.4063 790.375,954.2344 Q791.2656,955.0469 792.8594,955.0469 Q793.7969,955.0469 794.4531,954.7969 Q794.8438,954.6406 795.2656,954.2031 Q795.5313,953.9375 795.6719,953.8594 Q795.8281,953.7813 796.0313,953.7813 Q796.3594,953.7813 796.6094,954.0469 Q796.875,954.2969 796.875,954.6406 Q796.875,954.9844 796.5313,955.3906 Q796.0313,955.9688 795.2344,956.2969 Q794.1563,956.75 792.8594,956.75 Q791.3438,956.75 790.1406,956.125 Q789.1563,955.625 788.4688,954.5625 Q787.7813,953.4844 787.7813,952.2031 L787.7813,951.0469 Q787.7813,949.7188 788.3906,948.5781 Q789.0156,947.4219 790.1094,946.8125 Q791.2031,946.1875 792.4375,946.1875 Q793.1719,946.1875 793.8125,946.3594 Q794.4688,946.5156 795.0156,946.875 Z " fill="#000000"/><text fill="#000000" font-family="sans-serif" font-size="14" lengthAdjust="spacing" textLength="115" x="812.75" y="956.7285">AgencyRepository</text><line style="stroke:#181818;stroke-width:0.5;" x1="693" x2="1015" y1="967" y2="967"/><line style="stroke:#181818;stroke-width:0.5;" x1="693" x2="1015" y1="975" y2="975"/><text fill="#000000" font-family="sans-serif" font-size="14" lengthAdjust="spacing" textLength="177" x="698" y="993.5332">+getAllAnnouncementsList()</text><text fill="#000000" font-family="sans-serif" font-size="14" lengthAdjust="spacing" textLength="312" x="698" y="1011.1426">+getAgencyByAnnouncementId(announcementId)</text></g><!--class BusinessTypeRepository--><g id="elem_BusinessTypeRepository"><rect codeLine="41" fill="#F1F1F1" height="65.6094" id="BusinessTypeRepository" rx="2.5" ry="2.5" style="stroke:#181818;stroke-width:0.5;" width="189" x="1293.5" y="943.5"/><ellipse cx="1308.5" cy="959.5" fill="#ADD1B2" rx="11" ry="11" style="stroke:#181818;stroke-width:1.0;"/><path d="M1311.2656,955.375 Q1311.4219,955.1563 1311.6094,955.0469 Q1311.7969,954.9375 1312.0156,954.9375 Q1312.3906,954.9375 1312.625,955.2031 Q1312.8594,955.4531 1312.8594,956.0625 L1312.8594,957.5156 Q1312.8594,958.125 1312.625,958.3906 Q1312.3906,958.6563 1312.0156,958.6563 Q1311.6719,958.6563 1311.4688,958.4531 Q1311.2656,958.2656 1311.1563,957.75 Q1311.1094,957.3906 1310.9219,957.2031 Q1310.5938,956.8281 1309.9844,956.6094 Q1309.375,956.3906 1308.75,956.3906 Q1307.9844,956.3906 1307.3438,956.7188 Q1306.7188,957.0469 1306.2188,957.7969 Q1305.7344,958.5469 1305.7344,959.5781 L1305.7344,960.6719 Q1305.7344,961.9063 1306.625,962.7344 Q1307.5156,963.5469 1309.1094,963.5469 Q1310.0469,963.5469 1310.7031,963.2969 Q1311.0938,963.1406 1311.5156,962.7031 Q1311.7813,962.4375 1311.9219,962.3594 Q1312.0781,962.2813 1312.2813,962.2813 Q1312.6094,962.2813 1312.8594,962.5469 Q1313.125,962.7969 1313.125,963.1406 Q1313.125,963.4844 1312.7813,963.8906 Q1312.2813,964.4688 1311.4844,964.7969 Q1310.4063,965.25 1309.1094,965.25 Q1307.5938,965.25 1306.3906,964.625 Q1305.4063,964.125 1304.7188,963.0625 Q1304.0313,961.9844 1304.0313,960.7031 L1304.0313,959.5469 Q1304.0313,958.2188 1304.6406,957.0781 Q1305.2656,955.9219 1306.3594,955.3125 Q1307.4531,954.6875 1308.6875,954.6875 Q1309.4219,954.6875 1310.0625,954.8594 Q1310.7188,955.0156 1311.2656,955.375 Z " fill="#000000"/><text fill="#000000" font-family="sans-serif" font-size="14" lengthAdjust="spacing" textLength="157" x="1322.5" y="965.2285">BusinessTypeRepository</text><line style="stroke:#181818;stroke-width:0.5;" x1="1294.5" x2="1481.5" y1="975.5" y2="975.5"/><line style="stroke:#181818;stroke-width:0.5;" x1="1294.5" x2="1481.5" y1="983.5" y2="983.5"/><text fill="#000000" font-family="sans-serif" font-size="14" lengthAdjust="spacing" textLength="149" x="1299.5" y="1002.0332">+getBusinessTypeList()</text></g><!--class PropertyTypeRepository--><g id="elem_PropertyTypeRepository"><rect codeLine="45" fill="#F1F1F1" height="65.6094" id="PropertyTypeRepository" rx="2.5" ry="2.5" style="stroke:#181818;stroke-width:0.5;" width="186" x="1518" y="943.5"/><ellipse cx="1533" cy="959.5" fill="#ADD1B2" rx="11" ry="11" style="stroke:#181818;stroke-width:1.0;"/><path d="M1535.7656,955.375 Q1535.9219,955.1563 1536.1094,955.0469 Q1536.2969,954.9375 1536.5156,954.9375 Q1536.8906,954.9375 1537.125,955.2031 Q1537.3594,955.4531 1537.3594,956.0625 L1537.3594,957.5156 Q1537.3594,958.125 1537.125,958.3906 Q1536.8906,958.6563 1536.5156,958.6563 Q1536.1719,958.6563 1535.9688,958.4531 Q1535.7656,958.2656 1535.6563,957.75 Q1535.6094,957.3906 1535.4219,957.2031 Q1535.0938,956.8281 1534.4844,956.6094 Q1533.875,956.3906 1533.25,956.3906 Q1532.4844,956.3906 1531.8438,956.7188 Q1531.2188,957.0469 1530.7188,957.7969 Q1530.2344,958.5469 1530.2344,959.5781 L1530.2344,960.6719 Q1530.2344,961.9063 1531.125,962.7344 Q1532.0156,963.5469 1533.6094,963.5469 Q1534.5469,963.5469 1535.2031,963.2969 Q1535.5938,963.1406 1536.0156,962.7031 Q1536.2813,962.4375 1536.4219,962.3594 Q1536.5781,962.2813 1536.7813,962.2813 Q1537.1094,962.2813 1537.3594,962.5469 Q1537.625,962.7969 1537.625,963.1406 Q1537.625,963.4844 1537.2813,963.8906 Q1536.7813,964.4688 1535.9844,964.7969 Q1534.9063,965.25 1533.6094,965.25 Q1532.0938,965.25 1530.8906,964.625 Q1529.9063,964.125 1529.2188,963.0625 Q1528.5313,961.9844 1528.5313,960.7031 L1528.5313,959.5469 Q1528.5313,958.2188 1529.1406,957.0781 Q1529.7656,955.9219 1530.8594,955.3125 Q1531.9531,954.6875 1533.1875,954.6875 Q1533.9219,954.6875 1534.5625,954.8594 Q1535.2188,955.0156 1535.7656,955.375 Z " fill="#000000"/><text fill="#000000" font-family="sans-serif" font-size="14" lengthAdjust="spacing" textLength="154" x="1547" y="965.2285">PropertyTypeRepository</text><line style="stroke:#181818;stroke-width:0.5;" x1="1519" x2="1703" y1="975.5" y2="975.5"/><line style="stroke:#181818;stroke-width:0.5;" x1="1519" x2="1703" y1="983.5" y2="983.5"/><text fill="#000000" font-family="sans-serif" font-size="14" lengthAdjust="spacing" textLength="146" x="1524" y="1002.0332">+getPropertyTypeList()</text></g><!--class Agency--><g id="elem_Agency"><rect codeLine="49" fill="#F1F1F1" height="171.2656" id="Agency" rx="2.5" ry="2.5" style="stroke:#181818;stroke-width:0.5;" width="288" x="855" y="1096"/><ellipse cx="971.25" cy="1112" fill="#ADD1B2" rx="11" ry="11" style="stroke:#181818;stroke-width:1.0;"/><path d="M974.0156,1107.875 Q974.1719,1107.6563 974.3594,1107.5469 Q974.5469,1107.4375 974.7656,1107.4375 Q975.1406,1107.4375 975.375,1107.7031 Q975.6094,1107.9531 975.6094,1108.5625 L975.6094,1110.0156 Q975.6094,1110.625 975.375,1110.8906 Q975.1406,1111.1563 974.7656,1111.1563 Q974.4219,1111.1563 974.2188,1110.9531 Q974.0156,1110.7656 973.9063,1110.25 Q973.8594,1109.8906 973.6719,1109.7031 Q973.3438,1109.3281 972.7344,1109.1094 Q972.125,1108.8906 971.5,1108.8906 Q970.7344,1108.8906 970.0938,1109.2188 Q969.4688,1109.5469 968.9688,1110.2969 Q968.4844,1111.0469 968.4844,1112.0781 L968.4844,1113.1719 Q968.4844,1114.4063 969.375,1115.2344 Q970.2656,1116.0469 971.8594,1116.0469 Q972.7969,1116.0469 973.4531,1115.7969 Q973.8438,1115.6406 974.2656,1115.2031 Q974.5313,1114.9375 974.6719,1114.8594 Q974.8281,1114.7813 975.0313,1114.7813 Q975.3594,1114.7813 975.6094,1115.0469 Q975.875,1115.2969 975.875,1115.6406 Q975.875,1115.9844 975.5313,1116.3906 Q975.0313,1116.9688 974.2344,1117.2969 Q973.1563,1117.75 971.8594,1117.75 Q970.3438,1117.75 969.1406,1117.125 Q968.1563,1116.625 967.4688,1115.5625 Q966.7813,1114.4844 966.7813,1113.2031 L966.7813,1112.0469 Q966.7813,1110.7188 967.3906,1109.5781 Q968.0156,1108.4219 969.1094,1107.8125 Q970.2031,1107.1875 971.4375,1107.1875 Q972.1719,1107.1875 972.8125,1107.3594 Q973.4688,1107.5156 974.0156,1107.875 Z " fill="#000000"/><text fill="#000000" font-family="sans-serif" font-size="14" lengthAdjust="spacing" textLength="47" x="991.75" y="1117.7285">Agency</text><line style="stroke:#181818;stroke-width:0.5;" x1="856" x2="1142" y1="1128" y2="1128"/><text fill="#000000" font-family="sans-serif" font-size="14" lengthAdjust="spacing" textLength="64" x="861" y="1146.5332">-Integer id</text><text fill="#000000" font-family="sans-serif" font-size="14" lengthAdjust="spacing" textLength="119" x="861" y="1164.1426">-String designation</text><text fill="#000000" font-family="sans-serif" font-size="14" lengthAdjust="spacing" textLength="131" x="861" y="1181.752">-String emailAddress</text><text fill="#000000" font-family="sans-serif" font-size="14" lengthAdjust="spacing" textLength="142" x="861" y="1199.3613">-Integer phoneNumber</text><line style="stroke:#181818;stroke-width:0.5;" x1="856" x2="1142" y1="1206.4375" y2="1206.4375"/><text fill="#000000" font-family="sans-serif" font-size="14" lengthAdjust="spacing" textLength="155" x="861" y="1224.9707">+getAnnouncementList()</text><text fill="#000000" font-family="sans-serif" font-size="14" lengthAdjust="spacing" textLength="265" x="861" y="1242.5801">+getAnnouncementById(announcementId)</text><text fill="#000000" font-family="sans-serif" font-size="14" lengthAdjust="spacing" textLength="276" x="861" y="1260.1895">+anyAnnouncementHasId(announcementId)</text></g><!--class Repositories--><g id="elem_Repositories"><rect codeLine="59" fill="#F1F1F1" height="188.875" id="Repositories" rx="2.5" ry="2.5" style="stroke:#181818;stroke-width:0.5;" width="208" x="1284" y="685"/><ellipse cx="1344.25" cy="701" fill="#ADD1B2" rx="11" ry="11" style="stroke:#181818;stroke-width:1.0;"/><path d="M1347.0156,696.875 Q1347.1719,696.6563 1347.3594,696.5469 Q1347.5469,696.4375 1347.7656,696.4375 Q1348.1406,696.4375 1348.375,696.7031 Q1348.6094,696.9531 1348.6094,697.5625 L1348.6094,699.0156 Q1348.6094,699.625 1348.375,699.8906 Q1348.1406,700.1563 1347.7656,700.1563 Q1347.4219,700.1563 1347.2188,699.9531 Q1347.0156,699.7656 1346.9063,699.25 Q1346.8594,698.8906 1346.6719,698.7031 Q1346.3438,698.3281 1345.7344,698.1094 Q1345.125,697.8906 1344.5,697.8906 Q1343.7344,697.8906 1343.0938,698.2188 Q1342.4688,698.5469 1341.9688,699.2969 Q1341.4844,700.0469 1341.4844,701.0781 L1341.4844,702.1719 Q1341.4844,703.4063 1342.375,704.2344 Q1343.2656,705.0469 1344.8594,705.0469 Q1345.7969,705.0469 1346.4531,704.7969 Q1346.8438,704.6406 1347.2656,704.2031 Q1347.5313,703.9375 1347.6719,703.8594 Q1347.8281,703.7813 1348.0313,703.7813 Q1348.3594,703.7813 1348.6094,704.0469 Q1348.875,704.2969 1348.875,704.6406 Q1348.875,704.9844 1348.5313,705.3906 Q1348.0313,705.9688 1347.2344,706.2969 Q1346.1563,706.75 1344.8594,706.75 Q1343.3438,706.75 1342.1406,706.125 Q1341.1563,705.625 1340.4688,704.5625 Q1339.7813,703.4844 1339.7813,702.2031 L1339.7813,701.0469 Q1339.7813,699.7188 1340.3906,698.5781 Q1341.0156,697.4219 1342.1094,696.8125 Q1343.2031,696.1875 1344.4375,696.1875 Q1345.1719,696.1875 1345.8125,696.3594 Q1346.4688,696.5156 1347.0156,696.875 Z " fill="#000000"/><text fill="#000000" font-family="sans-serif" font-size="14" lengthAdjust="spacing" textLength="79" x="1364.75" y="706.7285">Repositories</text><line style="stroke:#181818;stroke-width:0.5;" x1="1285" x2="1491" y1="717" y2="717"/><line style="stroke:#181818;stroke-width:0.5;" x1="1285" x2="1491" y1="725" y2="725"/><text fill="#000000" font-family="sans-serif" font-size="14" lengthAdjust="spacing" textLength="94" x="1290" y="743.5332">-Repositories()</text><text fill="#000000" font-family="sans-serif" font-size="14" lengthAdjust="spacing" textLength="182" x="1290" y="761.1426">+getInstance() : Repositories</text><text fill="#000000" font-family="sans-serif" font-size="14" lengthAdjust="spacing" textLength="151" x="1290" y="778.752">+getPersonRepository()</text><text fill="#000000" font-family="sans-serif" font-size="14" lengthAdjust="spacing" textLength="153" x="1290" y="796.3613">+getAgencyRepository()</text><text fill="#000000" font-family="sans-serif" font-size="14" lengthAdjust="spacing" textLength="196" x="1290" y="813.9707">+getAuthenticationRepository()</text><text fill="#000000" font-family="sans-serif" font-size="14" lengthAdjust="spacing" textLength="152" x="1290" y="831.5801">+getCriteriaRepository()</text><text fill="#000000" font-family="sans-serif" font-size="14" lengthAdjust="spacing" textLength="195" x="1290" y="849.1895">+getBusinessTypeRepository()</text><text fill="#000000" font-family="sans-serif" font-size="14" lengthAdjust="spacing" textLength="192" x="1290" y="866.7988">+getPropertyTypeRepository()</text></g><!--class ScheduleVisitController--><g id="elem_ScheduleVisitController"><rect codeLine="70" fill="#F1F1F1" height="382.5781" id="ScheduleVisitController" rx="2.5" ry="2.5" style="stroke:#181818;stroke-width:0.5;" width="481" x="949.5" y="241"/><ellipse cx="1112.25" cy="257" fill="#ADD1B2" rx="11" ry="11" style="stroke:#181818;stroke-width:1.0;"/><path d="M1115.0156,252.875 Q1115.1719,252.6563 1115.3594,252.5469 Q1115.5469,252.4375 1115.7656,252.4375 Q1116.1406,252.4375 1116.375,252.7031 Q1116.6094,252.9531 1116.6094,253.5625 L1116.6094,255.0156 Q1116.6094,255.625 1116.375,255.8906 Q1116.1406,256.1563 1115.7656,256.1563 Q1115.4219,256.1563 1115.2188,255.9531 Q1115.0156,255.7656 1114.9063,255.25 Q1114.8594,254.8906 1114.6719,254.7031 Q1114.3438,254.3281 1113.7344,254.1094 Q1113.125,253.8906 1112.5,253.8906 Q1111.7344,253.8906 1111.0938,254.2188 Q1110.4688,254.5469 1109.9688,255.2969 Q1109.4844,256.0469 1109.4844,257.0781 L1109.4844,258.1719 Q1109.4844,259.4063 1110.375,260.2344 Q1111.2656,261.0469 1112.8594,261.0469 Q1113.7969,261.0469 1114.4531,260.7969 Q1114.8438,260.6406 1115.2656,260.2031 Q1115.5313,259.9375 1115.6719,259.8594 Q1115.8281,259.7813 1116.0313,259.7813 Q1116.3594,259.7813 1116.6094,260.0469 Q1116.875,260.2969 1116.875,260.6406 Q1116.875,260.9844 1116.5313,261.3906 Q1116.0313,261.9688 1115.2344,262.2969 Q1114.1563,262.75 1112.8594,262.75 Q1111.3438,262.75 1110.1406,262.125 Q1109.1563,261.625 1108.4688,260.5625 Q1107.7813,259.4844 1107.7813,258.2031 L1107.7813,257.0469 Q1107.7813,255.7188 1108.3906,254.5781 Q1109.0156,253.4219 1110.1094,252.8125 Q1111.2031,252.1875 1112.4375,252.1875 Q1113.1719,252.1875 1113.8125,252.3594 Q1114.4688,252.5156 1115.0156,252.875 Z " fill="#000000"/><text fill="#000000" font-family="sans-serif" font-size="14" lengthAdjust="spacing" textLength="147" x="1132.75" y="262.7285">ScheduleVisitController</text><line style="stroke:#181818;stroke-width:0.5;" x1="950.5" x2="1429.5" y1="273" y2="273"/><line style="stroke:#181818;stroke-width:0.5;" x1="950.5" x2="1429.5" y1="281" y2="281"/><text fill="#000000" font-family="sans-serif" font-size="14" lengthAdjust="spacing" textLength="398" x="955.5" y="299.5332">+ScheduleVisitController(agencyRepository, personRepository,</text><text fill="#000000" font-family="sans-serif" font-size="14" lengthAdjust="spacing" textLength="280" x="959.5" y="317.1426">criteriaRepository, authenticationRepository,</text><text fill="#000000" font-family="sans-serif" font-size="14" lengthAdjust="spacing" textLength="322" x="959.5" y="334.752">businessTypeRepository, propertyTypeRepository)</text><text fill="#000000" font-family="sans-serif" font-size="14" lengthAdjust="spacing" textLength="177" x="955.5" y="352.3613">+getAnnouncementListDto()</text><text fill="#000000" font-family="sans-serif" font-size="14" lengthAdjust="spacing" textLength="177" x="955.5" y="369.9707">+getAllAnnouncementsList()</text><text fill="#000000" font-family="sans-serif" font-size="14" lengthAdjust="spacing" textLength="106" x="955.5" y="387.5801">+getCriteriaList()</text><text fill="#000000" font-family="sans-serif" font-size="14" lengthAdjust="spacing" textLength="149" x="955.5" y="405.1895">+getBusinessTypeList()</text><text fill="#000000" font-family="sans-serif" font-size="14" lengthAdjust="spacing" textLength="146" x="955.5" y="422.7988">+getPropertyTypeList()</text><text fill="#000000" font-family="sans-serif" font-size="14" lengthAdjust="spacing" textLength="132" x="955.5" y="440.4082">+toDto(listToDisplay)</text><text fill="#000000" font-family="sans-serif" font-size="14" lengthAdjust="spacing" textLength="421" x="955.5" y="458.0176">+getAnnouncementsByBusinessType(businessType, listToDisplay)</text><text fill="#000000" font-family="sans-serif" font-size="14" lengthAdjust="spacing" textLength="415" x="955.5" y="475.627">+getAnnouncementsByPropertyType(propertyType, listToDisplay)</text><text fill="#000000" font-family="sans-serif" font-size="14" lengthAdjust="spacing" textLength="469" x="955.5" y="493.2363">+getAnnouncementsByNumberBedrooms(numberBedrooms, listToDisplay)</text><text fill="#000000" font-family="sans-serif" font-size="14" lengthAdjust="spacing" textLength="356" x="955.5" y="510.8457">+getAnnouncementsByPrice(sortingOrder, listToDisplay)</text><text fill="#000000" font-family="sans-serif" font-size="14" lengthAdjust="spacing" textLength="348" x="955.5" y="528.4551">+getAnnouncementsByCity(sortingOrder, listToDisplay)</text><text fill="#000000" font-family="sans-serif" font-size="14" lengthAdjust="spacing" textLength="357" x="955.5" y="546.0645">+getAnnouncementsByState(sortingOrder, listToDisplay)</text><text fill="#000000" font-family="sans-serif" font-size="14" lengthAdjust="spacing" textLength="184" x="955.5" y="563.6738">+toModel(announcementDto)</text><text fill="#000000" font-family="sans-serif" font-size="14" lengthAdjust="spacing" textLength="384" x="955.5" y="581.2832">+scheduleVisit(announcement, visitDay, visitMonth, visitYear,</text><text fill="#000000" font-family="sans-serif" font-size="14" lengthAdjust="spacing" textLength="125" x="959.5" y="598.8926">startHour, endHour)</text><text fill="#000000" font-family="sans-serif" font-size="14" lengthAdjust="spacing" textLength="112" x="955.5" y="616.502">+getUserPerson()</text></g><g id="elem_GMN11"><path d="M1059,6 L1059,179.5156 A0,0 0 0 0 1059,179.5156 L1186,179.5156 L1190,240.7 L1194,179.5156 L1321,179.5156 A0,0 0 0 0 1321,179.5156 L1321,16 L1311,6 L1059,6 A0,0 0 0 0 1059,6 " fill="#FEFFDD" style="stroke:#181818;stroke-width:0.5;"/><path d="M1311,6 L1311,16 L1321,16 L1311,6 " fill="#FEFFDD" style="stroke:#181818;stroke-width:0.5;"/><text fill="#000000" font-family="sans-serif" font-size="13" lengthAdjust="spacing" textLength="179" x="1065" y="24.4951">- announcementDto is retrieved</text><text fill="#000000" font-family="sans-serif" font-size="13" lengthAdjust="spacing" textLength="107" x="1073" y="40.8467">from selected data</text><text fill="#000000" font-family="sans-serif" font-size="13" lengthAdjust="spacing" textLength="188" x="1065" y="57.1982">- announcement is retrieved from</text><text fill="#000000" font-family="sans-serif" font-size="13" lengthAdjust="spacing" textLength="181" x="1073" y="73.5498">convertion of announcementDto</text><text fill="#000000" font-family="sans-serif" font-size="13" lengthAdjust="spacing" textLength="50" x="1073" y="89.9014">to Model</text><text fill="#000000" font-family="sans-serif" font-size="13" lengthAdjust="spacing" textLength="214" x="1065" y="106.2529">- visit is retrieved from announcement</text><text fill="#000000" font-family="sans-serif" font-size="13" lengthAdjust="spacing" textLength="241" x="1065" y="122.6045">- visitDay, visitMonth, visitYear, startHour,</text><text fill="#000000" font-family="sans-serif" font-size="13" lengthAdjust="spacing" textLength="181" x="1069" y="138.9561">endHour are retrieved from Visit</text><text fill="#000000" font-family="sans-serif" font-size="13" lengthAdjust="spacing" textLength="214" x="1065" y="155.3076">- listToDisplay is the list of properties</text><text fill="#000000" font-family="sans-serif" font-size="13" lengthAdjust="spacing" textLength="56" x="1073" y="171.6592">to display</text></g><!--class ScheduleVisitUI--><g id="elem_ScheduleVisitUI"><rect codeLine="102" fill="#F1F1F1" height="48" id="ScheduleVisitUI" rx="2.5" ry="2.5" style="stroke:#181818;stroke-width:0.5;" width="129" x="371.5" y="408.5"/><ellipse cx="386.5" cy="424.5" fill="#ADD1B2" rx="11" ry="11" style="stroke:#181818;stroke-width:1.0;"/><path d="M389.2656,420.375 Q389.4219,420.1563 389.6094,420.0469 Q389.7969,419.9375 390.0156,419.9375 Q390.3906,419.9375 390.625,420.2031 Q390.8594,420.4531 390.8594,421.0625 L390.8594,422.5156 Q390.8594,423.125 390.625,423.3906 Q390.3906,423.6563 390.0156,423.6563 Q389.6719,423.6563 389.4688,423.4531 Q389.2656,423.2656 389.1563,422.75 Q389.1094,422.3906 388.9219,422.2031 Q388.5938,421.8281 387.9844,421.6094 Q387.375,421.3906 386.75,421.3906 Q385.9844,421.3906 385.3438,421.7188 Q384.7188,422.0469 384.2188,422.7969 Q383.7344,423.5469 383.7344,424.5781 L383.7344,425.6719 Q383.7344,426.9063 384.625,427.7344 Q385.5156,428.5469 387.1094,428.5469 Q388.0469,428.5469 388.7031,428.2969 Q389.0938,428.1406 389.5156,427.7031 Q389.7813,427.4375 389.9219,427.3594 Q390.0781,427.2813 390.2813,427.2813 Q390.6094,427.2813 390.8594,427.5469 Q391.125,427.7969 391.125,428.1406 Q391.125,428.4844 390.7813,428.8906 Q390.2813,429.4688 389.4844,429.7969 Q388.4063,430.25 387.1094,430.25 Q385.5938,430.25 384.3906,429.625 Q383.4063,429.125 382.7188,428.0625 Q382.0313,426.9844 382.0313,425.7031 L382.0313,424.5469 Q382.0313,423.2188 382.6406,422.0781 Q383.2656,420.9219 384.3594,420.3125 Q385.4531,419.6875 386.6875,419.6875 Q387.4219,419.6875 388.0625,419.8594 Q388.7188,420.0156 389.2656,420.375 Z " fill="#000000"/><text fill="#000000" font-family="sans-serif" font-size="14" lengthAdjust="spacing" textLength="97" x="400.5" y="430.2285">ScheduleVisitUI</text><line style="stroke:#181818;stroke-width:0.5;" x1="372.5" x2="499.5" y1="440.5" y2="440.5"/><line style="stroke:#181818;stroke-width:0.5;" x1="372.5" x2="499.5" y1="448.5" y2="448.5"/></g><!--class Announcement--><g id="elem_Announcement"><rect codeLine="105" fill="#F1F1F1" height="259.3125" id="Announcement" rx="2.5" ry="2.5" style="stroke:#181818;stroke-width:0.5;" width="343" x="797.5" y="1753"/><ellipse cx="917.25" cy="1769" fill="#ADD1B2" rx="11" ry="11" style="stroke:#181818;stroke-width:1.0;"/><path d="M920.0156,1764.875 Q920.1719,1764.6563 920.3594,1764.5469 Q920.5469,1764.4375 920.7656,1764.4375 Q921.1406,1764.4375 921.375,1764.7031 Q921.6094,1764.9531 921.6094,1765.5625 L921.6094,1767.0156 Q921.6094,1767.625 921.375,1767.8906 Q921.1406,1768.1563 920.7656,1768.1563 Q920.4219,1768.1563 920.2188,1767.9531 Q920.0156,1767.7656 919.9063,1767.25 Q919.8594,1766.8906 919.6719,1766.7031 Q919.3438,1766.3281 918.7344,1766.1094 Q918.125,1765.8906 917.5,1765.8906 Q916.7344,1765.8906 916.0938,1766.2188 Q915.4688,1766.5469 914.9688,1767.2969 Q914.4844,1768.0469 914.4844,1769.0781 L914.4844,1770.1719 Q914.4844,1771.4063 915.375,1772.2344 Q916.2656,1773.0469 917.8594,1773.0469 Q918.7969,1773.0469 919.4531,1772.7969 Q919.8438,1772.6406 920.2656,1772.2031 Q920.5313,1771.9375 920.6719,1771.8594 Q920.8281,1771.7813 921.0313,1771.7813 Q921.3594,1771.7813 921.6094,1772.0469 Q921.875,1772.2969 921.875,1772.6406 Q921.875,1772.9844 921.5313,1773.3906 Q921.0313,1773.9688 920.2344,1774.2969 Q919.1563,1774.75 917.8594,1774.75 Q916.3438,1774.75 915.1406,1774.125 Q914.1563,1773.625 913.4688,1772.5625 Q912.7813,1771.4844 912.7813,1770.2031 L912.7813,1769.0469 Q912.7813,1767.7188 913.3906,1766.5781 Q914.0156,1765.4219 915.1094,1764.8125 Q916.2031,1764.1875 917.4375,1764.1875 Q918.1719,1764.1875 918.8125,1764.3594 Q919.4688,1764.5156 920.0156,1764.875 Z " fill="#000000"/><text fill="#000000" font-family="sans-serif" font-size="14" lengthAdjust="spacing" textLength="95" x="937.75" y="1774.7285">Announcement</text><line style="stroke:#181818;stroke-width:0.5;" x1="798.5" x2="1139.5" y1="1785" y2="1785"/><text fill="#000000" font-family="sans-serif" font-size="14" lengthAdjust="spacing" textLength="104" x="803.5" y="1803.5332">-List&lt;Visit&gt; visits</text><text fill="#000000" font-family="sans-serif" font-size="14" lengthAdjust="spacing" textLength="176" x="803.5" y="1821.1426">-LocalDate acceptanceDate</text><text fill="#000000" font-family="sans-serif" font-size="14" lengthAdjust="spacing" textLength="64" x="803.5" y="1838.752">-Integer id</text><text fill="#000000" font-family="sans-serif" font-size="14" lengthAdjust="spacing" textLength="107" x="803.5" y="1856.3613">-Employee agent</text><line style="stroke:#181818;stroke-width:0.5;" x1="798.5" x2="1139.5" y1="1863.4375" y2="1863.4375"/><text fill="#000000" font-family="sans-serif" font-size="14" lengthAdjust="spacing" textLength="49" x="803.5" y="1881.9707">+getId()</text><text fill="#000000" font-family="sans-serif" font-size="14" lengthAdjust="spacing" textLength="157" x="803.5" y="1899.5801">+hasId(announcementId)</text><text fill="#000000" font-family="sans-serif" font-size="14" lengthAdjust="spacing" textLength="219" x="803.5" y="1917.1895">+getAnnouncementInfoToDisplay()</text><text fill="#000000" font-family="sans-serif" font-size="14" lengthAdjust="spacing" textLength="331" x="803.5" y="1934.7988">+createVisit(visitDay, visitMonth, visitYear, startHour,</text><text fill="#000000" font-family="sans-serif" font-size="14" lengthAdjust="spacing" textLength="257" x="807.5" y="1952.4082">endHour, userName, userPhoneNumber)</text><text fill="#000000" font-family="sans-serif" font-size="14" lengthAdjust="spacing" textLength="92" x="803.5" y="1970.0176">+addVisit(visit)</text><text fill="#000000" font-family="sans-serif" font-size="14" lengthAdjust="spacing" textLength="114" x="803.5" y="1987.627">-validateVisit(visit)</text><text fill="#000000" font-family="sans-serif" font-size="14" lengthAdjust="spacing" textLength="109" x="803.5" y="2005.2363">+getAgentEmail()</text></g><!--class AnnouncementMapper--><g id="elem_AnnouncementMapper"><rect codeLine="119" fill="#F1F1F1" height="83.2188" id="AnnouncementMapper" rx="2.5" ry="2.5" style="stroke:#181818;stroke-width:0.5;" width="327" x="187.5" y="738"/><ellipse cx="275.25" cy="754" fill="#ADD1B2" rx="11" ry="11" style="stroke:#181818;stroke-width:1.0;"/><path d="M278.0156,749.875 Q278.1719,749.6563 278.3594,749.5469 Q278.5469,749.4375 278.7656,749.4375 Q279.1406,749.4375 279.375,749.7031 Q279.6094,749.9531 279.6094,750.5625 L279.6094,752.0156 Q279.6094,752.625 279.375,752.8906 Q279.1406,753.1563 278.7656,753.1563 Q278.4219,753.1563 278.2188,752.9531 Q278.0156,752.7656 277.9063,752.25 Q277.8594,751.8906 277.6719,751.7031 Q277.3438,751.3281 276.7344,751.1094 Q276.125,750.8906 275.5,750.8906 Q274.7344,750.8906 274.0938,751.2188 Q273.4688,751.5469 272.9688,752.2969 Q272.4844,753.0469 272.4844,754.0781 L272.4844,755.1719 Q272.4844,756.4063 273.375,757.2344 Q274.2656,758.0469 275.8594,758.0469 Q276.7969,758.0469 277.4531,757.7969 Q277.8438,757.6406 278.2656,757.2031 Q278.5313,756.9375 278.6719,756.8594 Q278.8281,756.7813 279.0313,756.7813 Q279.3594,756.7813 279.6094,757.0469 Q279.875,757.2969 279.875,757.6406 Q279.875,757.9844 279.5313,758.3906 Q279.0313,758.9688 278.2344,759.2969 Q277.1563,759.75 275.8594,759.75 Q274.3438,759.75 273.1406,759.125 Q272.1563,758.625 271.4688,757.5625 Q270.7813,756.4844 270.7813,755.2031 L270.7813,754.0469 Q270.7813,752.7188 271.3906,751.5781 Q272.0156,750.4219 273.1094,749.8125 Q274.2031,749.1875 275.4375,749.1875 Q276.1719,749.1875 276.8125,749.3594 Q277.4688,749.5156 278.0156,749.875 Z " fill="#000000"/><text fill="#000000" font-family="sans-serif" font-size="14" lengthAdjust="spacing" textLength="143" x="295.75" y="759.7285">AnnouncementMapper</text><line style="stroke:#181818;stroke-width:0.5;" x1="188.5" x2="513.5" y1="770" y2="770"/><line style="stroke:#181818;stroke-width:0.5;" x1="188.5" x2="513.5" y1="778" y2="778"/><text fill="#000000" font-family="sans-serif" font-size="14" lengthAdjust="spacing" textLength="132" x="193.5" y="796.5332">+toDto(listToDisplay)</text><text fill="#000000" font-family="sans-serif" font-size="14" lengthAdjust="spacing" textLength="315" x="193.5" y="814.1426">+getAnnouncementIdFromDto(announcementDto)</text></g><!--class AnnouncementList--><g id="elem_AnnouncementList"><rect codeLine="124" fill="#F1F1F1" height="329.75" id="AnnouncementList" rx="2.5" ry="2.5" style="stroke:#181818;stroke-width:0.5;" width="461" x="959.5" y="1345"/><ellipse cx="1127.25" cy="1361" fill="#ADD1B2" rx="11" ry="11" style="stroke:#181818;stroke-width:1.0;"/><path d="M1130.0156,1356.875 Q1130.1719,1356.6563 1130.3594,1356.5469 Q1130.5469,1356.4375 1130.7656,1356.4375 Q1131.1406,1356.4375 1131.375,1356.7031 Q1131.6094,1356.9531 1131.6094,1357.5625 L1131.6094,1359.0156 Q1131.6094,1359.625 1131.375,1359.8906 Q1131.1406,1360.1563 1130.7656,1360.1563 Q1130.4219,1360.1563 1130.2188,1359.9531 Q1130.0156,1359.7656 1129.9063,1359.25 Q1129.8594,1358.8906 1129.6719,1358.7031 Q1129.3438,1358.3281 1128.7344,1358.1094 Q1128.125,1357.8906 1127.5,1357.8906 Q1126.7344,1357.8906 1126.0938,1358.2188 Q1125.4688,1358.5469 1124.9688,1359.2969 Q1124.4844,1360.0469 1124.4844,1361.0781 L1124.4844,1362.1719 Q1124.4844,1363.4063 1125.375,1364.2344 Q1126.2656,1365.0469 1127.8594,1365.0469 Q1128.7969,1365.0469 1129.4531,1364.7969 Q1129.8438,1364.6406 1130.2656,1364.2031 Q1130.5313,1363.9375 1130.6719,1363.8594 Q1130.8281,1363.7813 1131.0313,1363.7813 Q1131.3594,1363.7813 1131.6094,1364.0469 Q1131.875,1364.2969 1131.875,1364.6406 Q1131.875,1364.9844 1131.5313,1365.3906 Q1131.0313,1365.9688 1130.2344,1366.2969 Q1129.1563,1366.75 1127.8594,1366.75 Q1126.3438,1366.75 1125.1406,1366.125 Q1124.1563,1365.625 1123.4688,1364.5625 Q1122.7813,1363.4844 1122.7813,1362.2031 L1122.7813,1361.0469 Q1122.7813,1359.7188 1123.3906,1358.5781 Q1124.0156,1357.4219 1125.1094,1356.8125 Q1126.2031,1356.1875 1127.4375,1356.1875 Q1128.1719,1356.1875 1128.8125,1356.3594 Q1129.4688,1356.5156 1130.0156,1356.875 Z " fill="#000000"/><text fill="#000000" font-family="sans-serif" font-size="14" lengthAdjust="spacing" textLength="117" x="1147.75" y="1366.7285">AnnouncementList</text><line style="stroke:#181818;stroke-width:0.5;" x1="960.5" x2="1419.5" y1="1377" y2="1377"/><text fill="#000000" font-family="sans-serif" font-size="14" lengthAdjust="spacing" textLength="243" x="965.5" y="1395.5332">-List&lt;Announcement&gt; announcements</text><line style="stroke:#181818;stroke-width:0.5;" x1="960.5" x2="1419.5" y1="1402.6094" y2="1402.6094"/><text fill="#000000" font-family="sans-serif" font-size="14" lengthAdjust="spacing" textLength="135" x="965.5" y="1421.1426">+AnnouncementList()</text><text fill="#000000" font-family="sans-serif" font-size="14" lengthAdjust="spacing" textLength="155" x="965.5" y="1438.752">+getAnnouncementList()</text><text fill="#000000" font-family="sans-serif" font-size="14" lengthAdjust="spacing" textLength="183" x="965.5" y="1456.3613">+getAnnouncementByIdx(idx)</text><text fill="#000000" font-family="sans-serif" font-size="14" lengthAdjust="spacing" textLength="173" x="965.5" y="1473.9707">+addAll(announcementList)</text><text fill="#000000" font-family="sans-serif" font-size="14" lengthAdjust="spacing" textLength="193" x="965.5" y="1491.5801">+hasSameId(announcementId)</text><text fill="#000000" font-family="sans-serif" font-size="14" lengthAdjust="spacing" textLength="401" x="965.5" y="1509.1895">+announcementHasBusinessType(listToDisplay, businessType)</text><text fill="#000000" font-family="sans-serif" font-size="14" lengthAdjust="spacing" textLength="395" x="965.5" y="1526.7988">+announcementHasPropertyType(listToDisplay, propertyType)</text><text fill="#000000" font-family="sans-serif" font-size="14" lengthAdjust="spacing" textLength="449" x="965.5" y="1544.4082">+announcementHasNumberBedrooms(listToDisplay, numberBedrooms)</text><text fill="#000000" font-family="sans-serif" font-size="14" lengthAdjust="spacing" textLength="338" x="965.5" y="1562.0176">+sortAnnouncementsByAscendingPrice(listToDisplay)</text><text fill="#000000" font-family="sans-serif" font-size="14" lengthAdjust="spacing" textLength="347" x="965.5" y="1579.627">+sortAnnouncementsByDescendingPrice(listToDisplay)</text><text fill="#000000" font-family="sans-serif" font-size="14" lengthAdjust="spacing" textLength="330" x="965.5" y="1597.2363">+sortAnnouncementsByAscendingCity(listToDisplay)</text><text fill="#000000" font-family="sans-serif" font-size="14" lengthAdjust="spacing" textLength="339" x="965.5" y="1614.8457">+sortAnnouncementsByDescendingCity(listToDisplay)</text><text fill="#000000" font-family="sans-serif" font-size="14" lengthAdjust="spacing" textLength="339" x="965.5" y="1632.4551">+sortAnnouncementsByAscendingState(listToDisplay)</text><text fill="#000000" font-family="sans-serif" font-size="14" lengthAdjust="spacing" textLength="348" x="965.5" y="1650.0645">+sortAnnouncementsByDescendingState(listToDisplay)</text><text fill="#000000" font-family="sans-serif" font-size="14" lengthAdjust="spacing" textLength="419" x="965.5" y="1667.6738">+sortAnnouncementsByMostRecentAcceptanceDate(listToDisplay)</text></g><path d="M1455.5,1475.5 L1455.5,1501.0273 L1148.5,1450.6328 L1455.5,1509.0273 L1455.5,1534.5547 A0,0 0 0 0 1455.5,1534.5547 L1646.5,1534.5547 A0,0 0 0 0 1646.5,1534.5547 L1646.5,1485.5 L1636.5,1475.5 L1455.5,1475.5 A0,0 0 0 0 1455.5,1475.5 " fill="#FEFFDD" style="stroke:#181818;stroke-width:0.5;"/><path d="M1636.5,1475.5 L1636.5,1485.5 L1646.5,1485.5 L1636.5,1475.5 " fill="#FEFFDD" style="stroke:#181818;stroke-width:0.5;"/><text fill="#000000" font-family="sans-serif" font-size="13" lengthAdjust="spacing" textLength="162" x="1461.5" y="1493.9951">The variable idx refers to the</text><text fill="#000000" font-family="sans-serif" font-size="13" lengthAdjust="spacing" textLength="170" x="1461.5" y="1510.3467">position of the announcement</text><text fill="#000000" font-family="sans-serif" font-size="13" lengthAdjust="spacing" textLength="148" x="1461.5" y="1526.6982">in the Announcement List</text><!--class AnnouncementDto--><g id="elem_AnnouncementDto"><rect codeLine="149" fill="#F1F1F1" height="83.2188" id="AnnouncementDto" rx="2.5" ry="2.5" style="stroke:#181818;stroke-width:0.5;" width="254" x="7" y="935"/><ellipse cx="71.25" cy="951" fill="#ADD1B2" rx="11" ry="11" style="stroke:#181818;stroke-width:1.0;"/><path d="M74.0156,946.875 Q74.1719,946.6563 74.3594,946.5469 Q74.5469,946.4375 74.7656,946.4375 Q75.1406,946.4375 75.375,946.7031 Q75.6094,946.9531 75.6094,947.5625 L75.6094,949.0156 Q75.6094,949.625 75.375,949.8906 Q75.1406,950.1563 74.7656,950.1563 Q74.4219,950.1563 74.2188,949.9531 Q74.0156,949.7656 73.9063,949.25 Q73.8594,948.8906 73.6719,948.7031 Q73.3438,948.3281 72.7344,948.1094 Q72.125,947.8906 71.5,947.8906 Q70.7344,947.8906 70.0938,948.2188 Q69.4688,948.5469 68.9688,949.2969 Q68.4844,950.0469 68.4844,951.0781 L68.4844,952.1719 Q68.4844,953.4063 69.375,954.2344 Q70.2656,955.0469 71.8594,955.0469 Q72.7969,955.0469 73.4531,954.7969 Q73.8438,954.6406 74.2656,954.2031 Q74.5313,953.9375 74.6719,953.8594 Q74.8281,953.7813 75.0313,953.7813 Q75.3594,953.7813 75.6094,954.0469 Q75.875,954.2969 75.875,954.6406 Q75.875,954.9844 75.5313,955.3906 Q75.0313,955.9688 74.2344,956.2969 Q73.1563,956.75 71.8594,956.75 Q70.3438,956.75 69.1406,956.125 Q68.1563,955.625 67.4688,954.5625 Q66.7813,953.4844 66.7813,952.2031 L66.7813,951.0469 Q66.7813,949.7188 67.3906,948.5781 Q68.0156,947.4219 69.1094,946.8125 Q70.2031,946.1875 71.4375,946.1875 Q72.1719,946.1875 72.8125,946.3594 Q73.4688,946.5156 74.0156,946.875 Z " fill="#000000"/><text fill="#000000" font-family="sans-serif" font-size="14" lengthAdjust="spacing" textLength="117" x="91.75" y="956.7285">AnnouncementDto</text><line style="stroke:#181818;stroke-width:0.5;" x1="8" x2="260" y1="967" y2="967"/><line style="stroke:#181818;stroke-width:0.5;" x1="8" x2="260" y1="975" y2="975"/><text fill="#000000" font-family="sans-serif" font-size="14" lengthAdjust="spacing" textLength="242" x="13" y="993.5332">+create(announcementId, requestInfo)</text><text fill="#000000" font-family="sans-serif" font-size="14" lengthAdjust="spacing" textLength="144" x="13" y="1011.1426">+getAnnouncementId()</text></g><g id="elem_GMN21"><path d="M52.5,1152 L52.5,1211.0547 A0,0 0 0 0 52.5,1211.0547 L215.5,1211.0547 A0,0 0 0 0 215.5,1211.0547 L215.5,1162 L205.5,1152 L138,1152 L134,1018.09 L130,1152 L52.5,1152 A0,0 0 0 0 52.5,1152 " fill="#FEFFDD" style="stroke:#181818;stroke-width:0.5;"/><path d="M205.5,1152 L205.5,1162 L215.5,1162 L205.5,1152 " fill="#FEFFDD" style="stroke:#181818;stroke-width:0.5;"/><text fill="#000000" font-family="sans-serif" font-size="13" lengthAdjust="spacing" textLength="123" x="58.5" y="1170.4951">- requestInfo is String</text><text fill="#000000" font-family="sans-serif" font-size="13" lengthAdjust="spacing" textLength="138" x="62.5" y="1186.8467">from the Announcement</text><text fill="#000000" font-family="sans-serif" font-size="13" lengthAdjust="spacing" textLength="114" x="62.5" y="1203.1982">Request's toString()</text></g><!--class Request--><g id="elem_Request"><rect codeLine="160" fill="#F1F1F1" height="188.875" id="Request" rx="2.5" ry="2.5" style="stroke:#181818;stroke-width:0.5;" width="163" x="513.5" y="1788"/><ellipse cx="564.25" cy="1804" fill="#ADD1B2" rx="11" ry="11" style="stroke:#181818;stroke-width:1.0;"/><path d="M567.0156,1799.875 Q567.1719,1799.6563 567.3594,1799.5469 Q567.5469,1799.4375 567.7656,1799.4375 Q568.1406,1799.4375 568.375,1799.7031 Q568.6094,1799.9531 568.6094,1800.5625 L568.6094,1802.0156 Q568.6094,1802.625 568.375,1802.8906 Q568.1406,1803.1563 567.7656,1803.1563 Q567.4219,1803.1563 567.2188,1802.9531 Q567.0156,1802.7656 566.9063,1802.25 Q566.8594,1801.8906 566.6719,1801.7031 Q566.3438,1801.3281 565.7344,1801.1094 Q565.125,1800.8906 564.5,1800.8906 Q563.7344,1800.8906 563.0938,1801.2188 Q562.4688,1801.5469 561.9688,1802.2969 Q561.4844,1803.0469 561.4844,1804.0781 L561.4844,1805.1719 Q561.4844,1806.4063 562.375,1807.2344 Q563.2656,1808.0469 564.8594,1808.0469 Q565.7969,1808.0469 566.4531,1807.7969 Q566.8438,1807.6406 567.2656,1807.2031 Q567.5313,1806.9375 567.6719,1806.8594 Q567.8281,1806.7813 568.0313,1806.7813 Q568.3594,1806.7813 568.6094,1807.0469 Q568.875,1807.2969 568.875,1807.6406 Q568.875,1807.9844 568.5313,1808.3906 Q568.0313,1808.9688 567.2344,1809.2969 Q566.1563,1809.75 564.8594,1809.75 Q563.3438,1809.75 562.1406,1809.125 Q561.1563,1808.625 560.4688,1807.5625 Q559.7813,1806.4844 559.7813,1805.2031 L559.7813,1804.0469 Q559.7813,1802.7188 560.3906,1801.5781 Q561.0156,1800.4219 562.1094,1799.8125 Q563.2031,1799.1875 564.4375,1799.1875 Q565.1719,1799.1875 565.8125,1799.3594 Q566.4688,1799.5156 567.0156,1799.875 Z " fill="#000000"/><text fill="#000000" font-family="sans-serif" font-size="14" lengthAdjust="spacing" textLength="53" x="584.75" y="1809.7285">Request</text><line style="stroke:#181818;stroke-width:0.5;" x1="514.5" x2="675.5" y1="1820" y2="1820"/><text fill="#000000" font-family="sans-serif" font-size="14" lengthAdjust="spacing" textLength="151" x="519.5" y="1838.5332">-LocalDate requestDate</text><text fill="#000000" font-family="sans-serif" font-size="14" lengthAdjust="spacing" textLength="64" x="519.5" y="1856.1426">-Integer id</text><text fill="#000000" font-family="sans-serif" font-size="14" lengthAdjust="spacing" textLength="133" x="519.5" y="1873.752">-Employee Employee</text><text fill="#000000" font-family="sans-serif" font-size="14" lengthAdjust="spacing" textLength="115" x="519.5" y="1891.3613">-Email ownerEmail</text><text fill="#000000" font-family="sans-serif" font-size="14" lengthAdjust="spacing" textLength="122" x="519.5" y="1908.9707">-Business business</text><text fill="#000000" font-family="sans-serif" font-size="14" lengthAdjust="spacing" textLength="116" x="519.5" y="1926.5801">-Property property</text><line style="stroke:#181818;stroke-width:0.5;" x1="514.5" x2="675.5" y1="1933.6563" y2="1933.6563"/><text fill="#000000" font-family="sans-serif" font-size="14" lengthAdjust="spacing" textLength="92" x="519.5" y="1952.1895">+getLocation()</text><text fill="#000000" font-family="sans-serif" font-size="14" lengthAdjust="spacing" textLength="67" x="519.5" y="1969.7988">+toString()</text></g><!--class Property--><g id="elem_Property"><rect codeLine="172" fill="#F1F1F1" height="171.2656" id="Property" rx="2.5" ry="2.5" style="stroke:#181818;stroke-width:0.5;" width="206" x="1244" y="2143"/><ellipse cx="1315.75" cy="2159" fill="#ADD1B2" rx="11" ry="11" style="stroke:#181818;stroke-width:1.0;"/><path d="M1318.5156,2154.875 Q1318.6719,2154.6563 1318.8594,2154.5469 Q1319.0469,2154.4375 1319.2656,2154.4375 Q1319.6406,2154.4375 1319.875,2154.7031 Q1320.1094,2154.9531 1320.1094,2155.5625 L1320.1094,2157.0156 Q1320.1094,2157.625 1319.875,2157.8906 Q1319.6406,2158.1563 1319.2656,2158.1563 Q1318.9219,2158.1563 1318.7188,2157.9531 Q1318.5156,2157.7656 1318.4063,2157.25 Q1318.3594,2156.8906 1318.1719,2156.7031 Q1317.8438,2156.3281 1317.2344,2156.1094 Q1316.625,2155.8906 1316,2155.8906 Q1315.2344,2155.8906 1314.5938,2156.2188 Q1313.9688,2156.5469 1313.4688,2157.2969 Q1312.9844,2158.0469 1312.9844,2159.0781 L1312.9844,2160.1719 Q1312.9844,2161.4063 1313.875,2162.2344 Q1314.7656,2163.0469 1316.3594,2163.0469 Q1317.2969,2163.0469 1317.9531,2162.7969 Q1318.3438,2162.6406 1318.7656,2162.2031 Q1319.0313,2161.9375 1319.1719,2161.8594 Q1319.3281,2161.7813 1319.5313,2161.7813 Q1319.8594,2161.7813 1320.1094,2162.0469 Q1320.375,2162.2969 1320.375,2162.6406 Q1320.375,2162.9844 1320.0313,2163.3906 Q1319.5313,2163.9688 1318.7344,2164.2969 Q1317.6563,2164.75 1316.3594,2164.75 Q1314.8438,2164.75 1313.6406,2164.125 Q1312.6563,2163.625 1311.9688,2162.5625 Q1311.2813,2161.4844 1311.2813,2160.2031 L1311.2813,2159.0469 Q1311.2813,2157.7188 1311.8906,2156.5781 Q1312.5156,2155.4219 1313.6094,2154.8125 Q1314.7031,2154.1875 1315.9375,2154.1875 Q1316.6719,2154.1875 1317.3125,2154.3594 Q1317.9688,2154.5156 1318.5156,2154.875 Z " fill="#000000"/><text fill="#000000" font-family="sans-serif" font-size="14" lengthAdjust="spacing" textLength="54" x="1336.25" y="2164.7285">Property</text><line style="stroke:#181818;stroke-width:0.5;" x1="1245" x2="1449" y1="2175" y2="2175"/><text fill="#000000" font-family="sans-serif" font-size="14" lengthAdjust="spacing" textLength="180" x="1250" y="2193.5332">-PropertyType propertyType</text><text fill="#000000" font-family="sans-serif" font-size="14" lengthAdjust="spacing" textLength="83" x="1250" y="2211.1426">-Double area</text><text fill="#000000" font-family="sans-serif" font-size="14" lengthAdjust="spacing" textLength="174" x="1250" y="2228.752">-Double distanceCityCenter</text><text fill="#000000" font-family="sans-serif" font-size="14" lengthAdjust="spacing" textLength="112" x="1250" y="2246.3613">-Location location</text><text fill="#000000" font-family="sans-serif" font-size="14" lengthAdjust="spacing" textLength="194" x="1250" y="2263.9707">-List&lt;Photograph&gt; photograph</text><line style="stroke:#181818;stroke-width:0.5;" x1="1245" x2="1449" y1="2271.0469" y2="2271.0469"/><text fill="#000000" font-family="sans-serif" font-size="14" lengthAdjust="spacing" textLength="92" x="1250" y="2289.5801">+getLocation()</text><text fill="#000000" font-family="sans-serif" font-size="14" lengthAdjust="spacing" textLength="67" x="1250" y="2307.1895">+toString()</text></g><!--class Employee--><g id="elem_Employee"><rect codeLine="182" fill="#F1F1F1" height="83.2188" id="Employee" rx="2.5" ry="2.5" style="stroke:#181818;stroke-width:0.5;" width="136" x="621" y="1140"/><ellipse cx="654.9" cy="1156" fill="#ADD1B2" rx="11" ry="11" style="stroke:#181818;stroke-width:1.0;"/><path d="M657.6656,1151.875 Q657.8219,1151.6563 658.0094,1151.5469 Q658.1969,1151.4375 658.4156,1151.4375 Q658.7906,1151.4375 659.025,1151.7031 Q659.2594,1151.9531 659.2594,1152.5625 L659.2594,1154.0156 Q659.2594,1154.625 659.025,1154.8906 Q658.7906,1155.1563 658.4156,1155.1563 Q658.0719,1155.1563 657.8688,1154.9531 Q657.6656,1154.7656 657.5563,1154.25 Q657.5094,1153.8906 657.3219,1153.7031 Q656.9938,1153.3281 656.3844,1153.1094 Q655.775,1152.8906 655.15,1152.8906 Q654.3844,1152.8906 653.7438,1153.2188 Q653.1188,1153.5469 652.6188,1154.2969 Q652.1344,1155.0469 652.1344,1156.0781 L652.1344,1157.1719 Q652.1344,1158.4063 653.025,1159.2344 Q653.9156,1160.0469 655.5094,1160.0469 Q656.4469,1160.0469 657.1031,1159.7969 Q657.4938,1159.6406 657.9156,1159.2031 Q658.1813,1158.9375 658.3219,1158.8594 Q658.4781,1158.7813 658.6813,1158.7813 Q659.0094,1158.7813 659.2594,1159.0469 Q659.525,1159.2969 659.525,1159.6406 Q659.525,1159.9844 659.1813,1160.3906 Q658.6813,1160.9688 657.8844,1161.2969 Q656.8063,1161.75 655.5094,1161.75 Q653.9938,1161.75 652.7906,1161.125 Q651.8063,1160.625 651.1188,1159.5625 Q650.4313,1158.4844 650.4313,1157.2031 L650.4313,1156.0469 Q650.4313,1154.7188 651.0406,1153.5781 Q651.6656,1152.4219 652.7594,1151.8125 Q653.8531,1151.1875 655.0875,1151.1875 Q655.8219,1151.1875 656.4625,1151.3594 Q657.1188,1151.5156 657.6656,1151.875 Z " fill="#000000"/><text fill="#000000" font-family="sans-serif" font-size="14" lengthAdjust="spacing" textLength="62" x="673.1" y="1161.7285">Employee</text><line style="stroke:#181818;stroke-width:0.5;" x1="622" x2="756" y1="1172" y2="1172"/><text fill="#000000" font-family="sans-serif" font-size="14" lengthAdjust="spacing" textLength="103" x="627" y="1190.5332">-String agencyId</text><line style="stroke:#181818;stroke-width:0.5;" x1="622" x2="756" y1="1197.6094" y2="1197.6094"/><text fill="#000000" font-family="sans-serif" font-size="14" lengthAdjust="spacing" textLength="124" x="627" y="1216.1426">+getEmailAddress()</text></g><!--class Person--><g id="elem_Person"><rect codeLine="187" fill="#F1F1F1" height="241.7031" id="Person" rx="2.5" ry="2.5" style="stroke:#181818;stroke-width:0.5;" width="197" x="1681.5" y="1389"/><ellipse cx="1753.25" cy="1405" fill="#ADD1B2" rx="11" ry="11" style="stroke:#181818;stroke-width:1.0;"/><path d="M1756.0156,1400.875 Q1756.1719,1400.6563 1756.3594,1400.5469 Q1756.5469,1400.4375 1756.7656,1400.4375 Q1757.1406,1400.4375 1757.375,1400.7031 Q1757.6094,1400.9531 1757.6094,1401.5625 L1757.6094,1403.0156 Q1757.6094,1403.625 1757.375,1403.8906 Q1757.1406,1404.1563 1756.7656,1404.1563 Q1756.4219,1404.1563 1756.2188,1403.9531 Q1756.0156,1403.7656 1755.9063,1403.25 Q1755.8594,1402.8906 1755.6719,1402.7031 Q1755.3438,1402.3281 1754.7344,1402.1094 Q1754.125,1401.8906 1753.5,1401.8906 Q1752.7344,1401.8906 1752.0938,1402.2188 Q1751.4688,1402.5469 1750.9688,1403.2969 Q1750.4844,1404.0469 1750.4844,1405.0781 L1750.4844,1406.1719 Q1750.4844,1407.4063 1751.375,1408.2344 Q1752.2656,1409.0469 1753.8594,1409.0469 Q1754.7969,1409.0469 1755.4531,1408.7969 Q1755.8438,1408.6406 1756.2656,1408.2031 Q1756.5313,1407.9375 1756.6719,1407.8594 Q1756.8281,1407.7813 1757.0313,1407.7813 Q1757.3594,1407.7813 1757.6094,1408.0469 Q1757.875,1408.2969 1757.875,1408.6406 Q1757.875,1408.9844 1757.5313,1409.3906 Q1757.0313,1409.9688 1756.2344,1410.2969 Q1755.1563,1410.75 1753.8594,1410.75 Q1752.3438,1410.75 1751.1406,1410.125 Q1750.1563,1409.625 1749.4688,1408.5625 Q1748.7813,1407.4844 1748.7813,1406.2031 L1748.7813,1405.0469 Q1748.7813,1403.7188 1749.3906,1402.5781 Q1750.0156,1401.4219 1751.1094,1400.8125 Q1752.2031,1400.1875 1753.4375,1400.1875 Q1754.1719,1400.1875 1754.8125,1400.3594 Q1755.4688,1400.5156 1756.0156,1400.875 Z " fill="#000000"/><text fill="#000000" font-family="sans-serif" font-size="14" lengthAdjust="spacing" textLength="45" x="1773.75" y="1410.7285">Person</text><line style="stroke:#181818;stroke-width:0.5;" x1="1682.5" x2="1877.5" y1="1421" y2="1421"/><text fill="#000000" font-family="sans-serif" font-size="14" lengthAdjust="spacing" textLength="85" x="1687.5" y="1439.5332">-String name;</text><text fill="#000000" font-family="sans-serif" font-size="14" lengthAdjust="spacing" textLength="117" x="1687.5" y="1457.1426">-String taxNumber;</text><text fill="#000000" font-family="sans-serif" font-size="14" lengthAdjust="spacing" textLength="132" x="1687.5" y="1474.752">-Email emailAddress;</text><text fill="#000000" font-family="sans-serif" font-size="14" lengthAdjust="spacing" textLength="139" x="1687.5" y="1492.3613">-String phoneNumber;</text><text fill="#000000" font-family="sans-serif" font-size="14" lengthAdjust="spacing" textLength="185" x="1687.5" y="1509.9707">-String passportCardNumber;</text><text fill="#000000" font-family="sans-serif" font-size="14" lengthAdjust="spacing" textLength="119" x="1687.5" y="1527.5801">-List&lt;String&gt; roles;</text><text fill="#000000" font-family="sans-serif" font-size="14" lengthAdjust="spacing" textLength="116" x="1687.5" y="1545.1895">-Location location;</text><line style="stroke:#181818;stroke-width:0.5;" x1="1682.5" x2="1877.5" y1="1552.2656" y2="1552.2656"/><text fill="#000000" font-family="sans-serif" font-size="14" lengthAdjust="spacing" textLength="74" x="1687.5" y="1570.7988">+getName()</text><text fill="#000000" font-family="sans-serif" font-size="14" lengthAdjust="spacing" textLength="128" x="1687.5" y="1588.4082">+getPhoneNumber()</text><text fill="#000000" font-family="sans-serif" font-size="14" lengthAdjust="spacing" textLength="124" x="1687.5" y="1606.0176">+getEmailAddress()</text><text fill="#000000" font-family="sans-serif" font-size="14" lengthAdjust="spacing" textLength="137" x="1687.5" y="1623.627">+hasEmail(userEmail)</text></g><!--class PersonRepository--><g id="elem_PersonRepository"><rect codeLine="201" fill="#F1F1F1" height="65.6094" id="PersonRepository" rx="2.5" ry="2.5" style="stroke:#181818;stroke-width:0.5;" width="207" x="1051.5" y="943.5"/><ellipse cx="1094.4" cy="959.5" fill="#ADD1B2" rx="11" ry="11" style="stroke:#181818;stroke-width:1.0;"/><path d="M1097.1656,955.375 Q1097.3219,955.1563 1097.5094,955.0469 Q1097.6969,954.9375 1097.9156,954.9375 Q1098.2906,954.9375 1098.525,955.2031 Q1098.7594,955.4531 1098.7594,956.0625 L1098.7594,957.5156 Q1098.7594,958.125 1098.525,958.3906 Q1098.2906,958.6563 1097.9156,958.6563 Q1097.5719,958.6563 1097.3688,958.4531 Q1097.1656,958.2656 1097.0563,957.75 Q1097.0094,957.3906 1096.8219,957.2031 Q1096.4938,956.8281 1095.8844,956.6094 Q1095.275,956.3906 1094.65,956.3906 Q1093.8844,956.3906 1093.2438,956.7188 Q1092.6188,957.0469 1092.1188,957.7969 Q1091.6344,958.5469 1091.6344,959.5781 L1091.6344,960.6719 Q1091.6344,961.9063 1092.525,962.7344 Q1093.4156,963.5469 1095.0094,963.5469 Q1095.9469,963.5469 1096.6031,963.2969 Q1096.9938,963.1406 1097.4156,962.7031 Q1097.6813,962.4375 1097.8219,962.3594 Q1097.9781,962.2813 1098.1813,962.2813 Q1098.5094,962.2813 1098.7594,962.5469 Q1099.025,962.7969 1099.025,963.1406 Q1099.025,963.4844 1098.6813,963.8906 Q1098.1813,964.4688 1097.3844,964.7969 Q1096.3063,965.25 1095.0094,965.25 Q1093.4938,965.25 1092.2906,964.625 Q1091.3063,964.125 1090.6188,963.0625 Q1089.9313,961.9844 1089.9313,960.7031 L1089.9313,959.5469 Q1089.9313,958.2188 1090.5406,957.0781 Q1091.1656,955.9219 1092.2594,955.3125 Q1093.3531,954.6875 1094.5875,954.6875 Q1095.3219,954.6875 1095.9625,954.8594 Q1096.6188,955.0156 1097.1656,955.375 Z " fill="#000000"/><text fill="#000000" font-family="sans-serif" font-size="14" lengthAdjust="spacing" textLength="113" x="1114.6" y="965.2285">PersonRepository</text><line style="stroke:#181818;stroke-width:0.5;" x1="1052.5" x2="1257.5" y1="975.5" y2="975.5"/><line style="stroke:#181818;stroke-width:0.5;" x1="1052.5" x2="1257.5" y1="983.5" y2="983.5"/><text fill="#000000" font-family="sans-serif" font-size="14" lengthAdjust="spacing" textLength="195" x="1057.5" y="1002.0332">+getPersonByEmail(userEmail)</text></g><!--class CriteriaRepository--><g id="elem_CriteriaRepository"><rect codeLine="205" fill="#F1F1F1" height="65.6094" id="CriteriaRepository" rx="2.5" ry="2.5" style="stroke:#181818;stroke-width:0.5;" width="146" x="1964" y="943.5"/><ellipse cx="1979" cy="959.5" fill="#ADD1B2" rx="11" ry="11" style="stroke:#181818;stroke-width:1.0;"/><path d="M1981.7656,955.375 Q1981.9219,955.1563 1982.1094,955.0469 Q1982.2969,954.9375 1982.5156,954.9375 Q1982.8906,954.9375 1983.125,955.2031 Q1983.3594,955.4531 1983.3594,956.0625 L1983.3594,957.5156 Q1983.3594,958.125 1983.125,958.3906 Q1982.8906,958.6563 1982.5156,958.6563 Q1982.1719,958.6563 1981.9688,958.4531 Q1981.7656,958.2656 1981.6563,957.75 Q1981.6094,957.3906 1981.4219,957.2031 Q1981.0938,956.8281 1980.4844,956.6094 Q1979.875,956.3906 1979.25,956.3906 Q1978.4844,956.3906 1977.8438,956.7188 Q1977.2188,957.0469 1976.7188,957.7969 Q1976.2344,958.5469 1976.2344,959.5781 L1976.2344,960.6719 Q1976.2344,961.9063 1977.125,962.7344 Q1978.0156,963.5469 1979.6094,963.5469 Q1980.5469,963.5469 1981.2031,963.2969 Q1981.5938,963.1406 1982.0156,962.7031 Q1982.2813,962.4375 1982.4219,962.3594 Q1982.5781,962.2813 1982.7813,962.2813 Q1983.1094,962.2813 1983.3594,962.5469 Q1983.625,962.7969 1983.625,963.1406 Q1983.625,963.4844 1983.2813,963.8906 Q1982.7813,964.4688 1981.9844,964.7969 Q1980.9063,965.25 1979.6094,965.25 Q1978.0938,965.25 1976.8906,964.625 Q1975.9063,964.125 1975.2188,963.0625 Q1974.5313,961.9844 1974.5313,960.7031 L1974.5313,959.5469 Q1974.5313,958.2188 1975.1406,957.0781 Q1975.7656,955.9219 1976.8594,955.3125 Q1977.9531,954.6875 1979.1875,954.6875 Q1979.9219,954.6875 1980.5625,954.8594 Q1981.2188,955.0156 1981.7656,955.375 Z " fill="#000000"/><text fill="#000000" font-family="sans-serif" font-size="14" lengthAdjust="spacing" textLength="114" x="1993" y="965.2285">CriteriaRepository</text><line style="stroke:#181818;stroke-width:0.5;" x1="1965" x2="2109" y1="975.5" y2="975.5"/><line style="stroke:#181818;stroke-width:0.5;" x1="1965" x2="2109" y1="983.5" y2="983.5"/><text fill="#000000" font-family="sans-serif" font-size="14" lengthAdjust="spacing" textLength="106" x="1970" y="1002.0332">+getCriteriaList()</text></g><g id="elem_GMN30"><path d="M1327.5,1160 L1327.5,1202.7031 A0,0 0 0 0 1327.5,1202.7031 L1480.5,1202.7031 A0,0 0 0 0 1480.5,1202.7031 L1480.5,1170 L1470.5,1160 L1382.76,1160 L1194.45,1009.67 L1374.76,1160 L1327.5,1160 A0,0 0 0 0 1327.5,1160 " fill="#FEFFDD" style="stroke:#181818;stroke-width:0.5;"/><path d="M1470.5,1160 L1470.5,1170 L1480.5,1170 L1470.5,1160 " fill="#FEFFDD" style="stroke:#181818;stroke-width:0.5;"/><text fill="#000000" font-family="sans-serif" font-size="13" lengthAdjust="spacing" textLength="132" x="1333.5" y="1178.4951">- userEmail is retrieved</text><text fill="#000000" font-family="sans-serif" font-size="13" lengthAdjust="spacing" textLength="103" x="1333.5" y="1194.8467">from user session</text></g><!--class Notification--><g id="elem_Notification"><rect codeLine="214" fill="#F1F1F1" height="78.8281" id="Notification" rx="2.5" ry="2.5" style="stroke:#181818;stroke-width:0.5;" width="163" x="506.5" y="2189"/><ellipse cx="546.7" cy="2211.6094" fill="#B4A7E5" rx="11" ry="11" style="stroke:#181818;stroke-width:1.0;"/><path d="M547.6531,2208.25 L547.6531,2214.9063 L549.3719,2214.9063 Q549.9813,2214.9063 550.2469,2215.1406 Q550.5125,2215.375 550.5125,2215.7656 Q550.5125,2216.1406 550.2469,2216.375 Q549.9813,2216.6094 549.3719,2216.6094 L544.2313,2216.6094 Q543.6219,2216.6094 543.3563,2216.375 Q543.0906,2216.1406 543.0906,2215.75 Q543.0906,2215.375 543.3563,2215.1406 Q543.6219,2214.9063 544.2313,2214.9063 L545.95,2214.9063 L545.95,2208.25 L544.2313,2208.25 Q543.6219,2208.25 543.3563,2208.0156 Q543.0906,2207.7813 543.0906,2207.3906 Q543.0906,2207.0156 543.3563,2206.7813 Q543.6219,2206.5469 544.2313,2206.5469 L549.3719,2206.5469 Q549.9813,2206.5469 550.2469,2206.7813 Q550.5125,2207.0156 550.5125,2207.3906 Q550.5125,2207.7813 550.2469,2208.0156 Q549.9813,2208.25 549.3719,2208.25 L547.6531,2208.25 Z " fill="#000000"/><text fill="#000000" font-family="sans-serif" font-size="14" font-style="italic" font-weight="bold" lengthAdjust="spacing" textLength="75" x="566.3" y="2208.5332">Interface</text><text fill="#000000" font-family="sans-serif" font-size="14" font-style="italic" lengthAdjust="spacing" textLength="70" x="568.8" y="2226.1426">Notification</text><line style="stroke:#181818;stroke-width:0.5;" x1="507.5" x2="668.5" y1="2234.2188" y2="2234.2188"/><line style="stroke:#181818;stroke-width:0.5;" x1="507.5" x2="668.5" y1="2242.2188" y2="2242.2188"/><text fill="#000000" font-family="sans-serif" font-size="14" lengthAdjust="spacing" textLength="151" x="512.5" y="2260.752">+sendNotification(email)</text></g><!--link ScheduleVisitUI to ScheduleVisitController--><g id="link_ScheduleVisitUI_ScheduleVisitController"><path codeLine="220" d="M500.72,432.5 C575.19,432.5 687.33,432.5 687.33,432.5 C687.33,432.5 938.67,432.5 938.67,432.5 C938.67,432.5 940.7,432.5 944.39,432.5 " fill="none" id="ScheduleVisitUI-to-ScheduleVisitController" style="stroke:#181818;stroke-width:1.0;stroke-dasharray:7.0,7.0;"/><polygon fill="#181818" points="949.47,432.5,940.47,428.5,944.47,432.5,940.47,436.5,949.47,432.5" style="stroke:#181818;stroke-width:1.0;"/></g><!--link Repositories to Repositories--><g id="link_Repositories_Repositories"><path codeLine="222" d="M1492.26,757.28 C1512.58,759.86 1527,767.27 1527,779.5 C1527,790.68 1514.95,797.83 1497.36,800.94 " fill="none" id="Repositories-to-Repositories" style="stroke:#181818;stroke-width:1.0;"/><polygon fill="#181818" points="1492.26,801.72,1501.7545,804.338,1497.2045,800.9769,1500.5656,796.4268,1492.26,801.72" style="stroke:#181818;stroke-width:1.0;"/><text fill="#000000" font-family="sans-serif" font-size="13" lengthAdjust="spacing" textLength="49" x="1533" y="784.9951">instance</text></g><!--link AuthenticationRepository to UserSession--><g id="link_AuthenticationRepository_UserSession"><path codeLine="224" d="M1834,1009.67 C1834,1046.04 1834,1105.18 1834,1143.46 " fill="none" id="AuthenticationRepository-to-UserSession" style="stroke:#181818;stroke-width:1.0;"/><polygon fill="#181818" points="1834,1148.48,1838,1139.48,1834,1143.48,1830,1139.48,1834,1148.48" style="stroke:#181818;stroke-width:1.0;"/><text fill="#000000" font-family="sans-serif" font-size="13" lengthAdjust="spacing" textLength="7" x="1826.2781" y="1137.5913">1</text></g><!--link ScheduleVisitController to AuthenticationRepository--><g id="link_ScheduleVisitController_AuthenticationRepository"><path codeLine="226" d="M1430.63,573.59 C1529.83,631.34 1622,685 1622,685 C1622,685 1750.66,861.3 1807.52,939.22 " fill="none" id="ScheduleVisitController-to-AuthenticationRepository" style="stroke:#181818;stroke-width:1.0;stroke-dasharray:7.0,7.0;"/><polygon fill="#181818" points="1810.5,943.3,1808.4374,933.6696,1807.5574,939.2576,1801.9694,938.3776,1810.5,943.3" style="stroke:#181818;stroke-width:1.0;"/></g><!--link ScheduleVisitController to Repositories--><g id="link_ScheduleVisitController_Repositories"><path codeLine="228" d="M1299.42,624.16 C1310.55,643.56 1321.51,662.64 1331.71,680.42 " fill="none" id="ScheduleVisitController-to-Repositories" style="stroke:#181818;stroke-width:1.0;stroke-dasharray:7.0,7.0;"/><polygon fill="#181818" points="1334.29,684.91,1333.2908,675.112,1331.8062,680.5705,1326.3477,679.086,1334.29,684.91" style="stroke:#181818;stroke-width:1.0;"/></g><!--link Repositories to PersonRepository--><g id="link_Repositories_PersonRepository"><path codeLine="230" d="M1283.77,867.73 C1253.17,893.34 1221.44,919.9 1197.13,940.24 " fill="none" id="Repositories-to-PersonRepository" style="stroke:#181818;stroke-width:1.0;"/><polygon fill="#181818" points="1193.29,943.45,1202.7598,940.7439,1197.1253,940.2421,1197.6271,934.6075,1193.29,943.45" style="stroke:#181818;stroke-width:1.0;"/><text fill="#000000" font-family="sans-serif" font-size="13" lengthAdjust="spacing" textLength="7" x="1268.8586" y="871.1345">1</text><text fill="#000000" font-family="sans-serif" font-size="13" lengthAdjust="spacing" textLength="7" x="1193.4654" y="932.5551">1</text></g><!--link Repositories to AgencyRepository--><g id="link_Repositories_AgencyRepository"><path codeLine="232" d="M1283.77,818.56 C1193.63,851.48 1063.46,899.01 970.03,933.13 " fill="none" id="Repositories-to-AgencyRepository" style="stroke:#181818;stroke-width:1.0;"/><polygon fill="#181818" points="965.33,934.85,975.1564,935.5143,970.0256,933.1321,972.4078,928.0013,965.33,934.85" style="stroke:#181818;stroke-width:1.0;"/><text fill="#000000" font-family="sans-serif" font-size="13" lengthAdjust="spacing" textLength="7" x="1268.8586" y="818.3536">1</text><text fill="#000000" font-family="sans-serif" font-size="13" lengthAdjust="spacing" textLength="7" x="976.1893" y="924.1328">1</text></g><!--link Repositories to AuthenticationRepository--><g id="link_Repositories_AuthenticationRepository"><path codeLine="234" d="M1492,825.97 C1572.6,861.21 1682.53,909.27 1755.77,941.3 " fill="none" id="Repositories-to-AuthenticationRepository" style="stroke:#181818;stroke-width:1.0;"/><polygon fill="#181818" points="1760.54,943.38,1753.8979,936.108,1755.9592,941.3759,1750.6913,943.4373,1760.54,943.38" style="stroke:#181818;stroke-width:1.0;"/><text fill="#000000" font-family="sans-serif" font-size="13" lengthAdjust="spacing" textLength="7" x="1499.8945" y="826.3078">1</text><text fill="#000000" font-family="sans-serif" font-size="13" lengthAdjust="spacing" textLength="7" x="1737.667" y="932.4707">1</text></g><!--link ScheduleVisitController to PersonRepository--><g id="link_ScheduleVisitController_PersonRepository"><path codeLine="236" d="M1177.68,624.21 C1170.31,738.38 1161.59,873.46 1157.43,937.79 " fill="none" id="ScheduleVisitController-to-PersonRepository" style="stroke:#181818;stroke-width:1.0;stroke-dasharray:7.0,7.0;"/><polygon fill="#181818" points="1157.1,943.05,1161.6583,934.3195,1157.4146,938.0599,1153.6741,933.8162,1157.1,943.05" style="stroke:#181818;stroke-width:1.0;"/></g><!--link Repositories to CriteriaRepository--><g id="link_Repositories_CriteriaRepository"><path codeLine="238" d="M1492.16,809.29 C1653.89,853.99 1947,935 1947,935 C1947,935 1952.5,937.47 1960.78,941.2 " fill="none" id="Repositories-to-CriteriaRepository" style="stroke:#181818;stroke-width:1.0;"/><polygon fill="#181818" points="1965.65,943.39,1959.0842,936.049,1961.0904,941.3382,1955.8012,943.3444,1965.65,943.39" style="stroke:#181818;stroke-width:1.0;"/><text fill="#000000" font-family="sans-serif" font-size="13" lengthAdjust="spacing" textLength="7" x="1500.0663" y="808.4028">1</text><text fill="#000000" font-family="sans-serif" font-size="13" lengthAdjust="spacing" textLength="7" x="1949.0598" y="935.6654">1</text></g><!--link ScheduleVisitController to CriteriaRepository--><g id="link_ScheduleVisitController_CriteriaRepository"><path codeLine="240" d="M1430.68,548.58 C1569.18,614.8 1716,685 1716,685 C1716,685 1911.97,862.35 1997.67,939.91 " fill="none" id="ScheduleVisitController-to-CriteriaRepository" style="stroke:#181818;stroke-width:1.0;stroke-dasharray:7.0,7.0;"/><polygon fill="#181818" points="2001.42,943.3,1997.4426,934.29,1997.7171,939.9402,1992.0669,940.2147,2001.42,943.3" style="stroke:#181818;stroke-width:1.0;"/></g><!--link Repositories to BusinessTypeRepository--><g id="link_Repositories_BusinessTypeRepository"><path codeLine="242" d="M1388,874 C1388,896.7 1388,919.68 1388,938.02 " fill="none" id="Repositories-to-BusinessTypeRepository" style="stroke:#181818;stroke-width:1.0;"/><polygon fill="#181818" points="1388,943.07,1392,934.07,1388,938.07,1384,934.07,1388,943.07" style="stroke:#181818;stroke-width:1.0;"/><text fill="#000000" font-family="sans-serif" font-size="13" lengthAdjust="spacing" textLength="7" x="1380.732" y="895.361">1</text><text fill="#000000" font-family="sans-serif" font-size="13" lengthAdjust="spacing" textLength="7" x="1380.3328" y="932.7383">1</text></g><!--link ScheduleVisitController to BusinessTypeRepository--><g id="link_ScheduleVisitController_BusinessTypeRepository"><path codeLine="244" d="M1223.33,624.15 C1244.14,743.2 1267,874 1267,874 C1267,874 1310.65,910.61 1345.51,939.86 " fill="none" id="ScheduleVisitController-to-BusinessTypeRepository" style="stroke:#181818;stroke-width:1.0;stroke-dasharray:7.0,7.0;"/><polygon fill="#181818" points="1349.71,943.38,1345.3891,934.5296,1345.8806,940.165,1340.2452,940.6566,1349.71,943.38" style="stroke:#181818;stroke-width:1.0;"/></g><!--link Repositories to PropertyTypeRepository--><g id="link_Repositories_PropertyTypeRepository"><path codeLine="246" d="M1492.32,872.61 C1513.27,891.11 1529,905 1529,905 C1529,905 1549.21,922.38 1569.56,939.87 " fill="none" id="Repositories-to-PropertyTypeRepository" style="stroke:#181818;stroke-width:1.0;"/><polygon fill="#181818" points="1573.36,943.14,1569.1299,934.2459,1569.5637,939.886,1563.9235,940.3199,1573.36,943.14" style="stroke:#181818;stroke-width:1.0;"/><text fill="#000000" font-family="sans-serif" font-size="13" lengthAdjust="spacing" textLength="7" x="1499.9011" y="876.1062">1</text><text fill="#000000" font-family="sans-serif" font-size="13" lengthAdjust="spacing" textLength="7" x="1558.2606" y="932.5654">1</text></g><!--link ScheduleVisitController to PropertyTypeRepository--><g id="link_ScheduleVisitController_PropertyTypeRepository"><path codeLine="248" d="M1430.73,585.24 C1515,638.35 1589,685 1589,685 C1589,685 1602.25,859.9 1608.18,938.28 " fill="none" id="ScheduleVisitController-to-PropertyTypeRepository" style="stroke:#181818;stroke-width:1.0;stroke-dasharray:7.0,7.0;"/><polygon fill="#181818" points="1608.56,943.3,1611.8539,934.0183,1608.1743,938.3149,1603.8777,934.6353,1608.56,943.3" style="stroke:#181818;stroke-width:1.0;"/></g><!--link ScheduleVisitController to AgencyRepository--><g id="link_ScheduleVisitController_AgencyRepository"><path codeLine="250" d="M1071.78,624.21 C1003.53,734.3 923.23,863.82 881.82,930.62 " fill="none" id="ScheduleVisitController-to-AgencyRepository" style="stroke:#181818;stroke-width:1.0;stroke-dasharray:7.0,7.0;"/><polygon fill="#181818" points="879.15,934.93,887.2902,929.3859,881.7833,930.6796,880.4895,925.1727,879.15,934.93" style="stroke:#181818;stroke-width:1.0;"/></g><!--link ScheduleVisitController to Agency--><g id="link_ScheduleVisitController_Agency"><path codeLine="252" d="M977.78,624.12 C938.73,659.2 910,685 910,685 C910,685 674,935 674,935 C674,935 674,1018 674,1018 C674,1018 764.49,1063.25 849.97,1105.99 " fill="none" id="ScheduleVisitController-to-Agency" style="stroke:#181818;stroke-width:1.0;stroke-dasharray:7.0,7.0;"/><polygon fill="#181818" points="854.56,1108.28,848.3087,1100.6694,850.0907,1106.0382,844.7219,1107.8202,854.56,1108.28" style="stroke:#181818;stroke-width:1.0;"/></g><!--link AgencyRepository to Agency--><g id="link_AgencyRepository_Agency"><path codeLine="254" d="M882.99,1018.09 C898.14,1039.29 917.29,1066.11 935.65,1091.82 " fill="none" id="AgencyRepository-to-Agency" style="stroke:#181818;stroke-width:1.0;"/><polygon fill="#181818" points="938.59,1095.93,936.6266,1086.2788,935.6892,1091.8575,930.1106,1090.9201,938.59,1095.93" style="stroke:#181818;stroke-width:1.0;"/><polygon fill="#000000" points="921.906,1061.2446,919.0405,1052.1759,914.2574,1055.5922,921.906,1061.2446" style="stroke:#000000;stroke-width:1.0;"/><text fill="#000000" font-family="sans-serif" font-size="13" lengthAdjust="spacing" textLength="64" x="928" y="1062.4951">aggregates</text><text fill="#000000" font-family="sans-serif" font-size="13" lengthAdjust="spacing" textLength="7" x="880.2118" y="1039.8095">1</text><text fill="#000000" font-family="sans-serif" font-size="13" lengthAdjust="spacing" textLength="5" x="927.9871" y="1085.0954">*</text></g><!--link PersonRepository to Person--><g id="link_PersonRepository_Person"><path codeLine="256" d="M1163.42,1009.59 C1183.21,1084.96 1231,1267 1231,1267 C1231,1267 1664,1345 1664,1345 C1664,1345 1675.87,1361.79 1692.02,1384.62 " fill="none" id="PersonRepository-to-Person" style="stroke:#181818;stroke-width:1.0;"/><polygon fill="#181818" points="1695.09,1388.95,1693.1651,1379.2911,1692.2055,1384.866,1686.6306,1383.9063,1695.09,1388.95" style="stroke:#181818;stroke-width:1.0;"/><polygon fill="#000000" points="1240.0779,1184.569,1234.4015,1176.9382,1231.0003,1181.7321,1240.0779,1184.569" style="stroke:#000000;stroke-width:1.0;"/><text fill="#000000" font-family="sans-serif" font-size="13" lengthAdjust="spacing" textLength="64" x="1245" y="1186.9951">aggregates</text><text fill="#000000" font-family="sans-serif" font-size="13" lengthAdjust="spacing" textLength="7" x="1157.3271" y="1030.7295">1</text><text fill="#000000" font-family="sans-serif" font-size="13" lengthAdjust="spacing" textLength="5" x="1689.8106" y="1378.1986">*</text></g><!--link ScheduleVisitController to Person--><g id="link_ScheduleVisitController_Person"><path codeLine="258" d="M1430.52,518.78 C1718.65,620.95 2163,778.5 2163,778.5 C2163,778.5 2163,778.5 2163,1182.5 C2163,1182.5 1996.09,1324.78 1882.64,1421.5 " fill="none" id="ScheduleVisitController-to-Person" style="stroke:#181818;stroke-width:1.0;stroke-dasharray:7.0,7.0;"/><polygon fill="#181818" points="1878.63,1424.92,1888.0777,1422.1379,1882.4393,1421.6813,1882.8959,1416.0429,1878.63,1424.92" style="stroke:#181818;stroke-width:1.0;"/></g><!--link ScheduleVisitController to Visit--><g id="link_ScheduleVisitController_Visit"><path codeLine="260" d="M1430.63,503.22 C1687.51,577.65 2058,685 2058,685 C2058,685 2234,778.5 2234,778.5 C2234,778.5 2234,778.5 2234,1883.5 C2234,1883.5 1632,2012 1632,2012 C1632,2012 1227,2090 1227,2090 C1227,2090 1196.32,2106.35 1156.11,2127.78 " fill="none" id="ScheduleVisitController-to-Visit" style="stroke:#181818;stroke-width:1.0;stroke-dasharray:7.0,7.0;"/><polygon fill="#181818" points="1151.68,2130.14,1161.5032,2129.4292,1156.0906,2127.7848,1157.7349,2122.3722,1151.68,2130.14" style="stroke:#181818;stroke-width:1.0;"/></g><!--link ScheduleVisitController to Announcement--><g id="link_ScheduleVisitController_Announcement"><path codeLine="262" d="M949.49,563.3 C835.55,624.8 724,685 724,685 C724,685 568,778.5 568,778.5 C568,778.5 568,778.5 568,1511 C568,1511 675,1675 675,1675 C675,1675 718,1723 718,1723 C718,1723 750.99,1743.83 793.05,1770.39 " fill="none" id="ScheduleVisitController-to-Announcement" style="stroke:#181818;stroke-width:1.0;stroke-dasharray:7.0,7.0;"/><polygon fill="#181818" points="797.42,1773.15,791.9278,1764.9747,793.1864,1770.4897,787.6714,1771.7484,797.42,1773.15" style="stroke:#181818;stroke-width:1.0;"/></g><!--link ScheduleVisitController to AnnouncementMapper--><g id="link_ScheduleVisitController_AnnouncementMapper"><path codeLine="264" d="M949.17,515.45 C764.84,578.17 542,654 542,654 C542,654 472.67,699.19 417.55,735.12 " fill="none" id="ScheduleVisitController-to-AnnouncementMapper" style="stroke:#181818;stroke-width:1.0;stroke-dasharray:7.0,7.0;"/><polygon fill="#181818" points="413.28,737.91,423.0039,736.3461,417.4686,735.1795,418.6351,729.6443,413.28,737.91" style="stroke:#181818;stroke-width:1.0;"/></g><!--link AnnouncementMapper to Announcement--><g id="link_AnnouncementMapper_Announcement"><path codeLine="266" d="M381.61,821.38 C424.42,878.56 497,975.5 497,975.5 C497,975.5 497,975.5 497,1511 C497,1511 542,1723 542,1723 C542,1723 694,1753 694,1753 C694,1753 739.03,1774.04 792.64,1799.09 " fill="none" id="AnnouncementMapper-to-Announcement" style="stroke:#181818;stroke-width:1.0;stroke-dasharray:7.0,7.0;"/><polygon fill="#181818" points="797.18,1801.21,790.7172,1793.7782,792.6494,1799.0948,787.3328,1801.0271,797.18,1801.21" style="stroke:#181818;stroke-width:1.0;"/></g><!--link AnnouncementMapper to AnnouncementDto--><g id="link_AnnouncementMapper_AnnouncementDto"><path codeLine="268" d="M305.77,821.14 C269.94,853.34 219.95,898.26 183.14,931.34 " fill="none" id="AnnouncementMapper-to-AnnouncementDto" style="stroke:#181818;stroke-width:1.0;stroke-dasharray:7.0,7.0;"/><polygon fill="#181818" points="179.17,934.91,188.5355,931.8625,182.8865,931.5652,183.1838,925.9161,179.17,934.91" style="stroke:#181818;stroke-width:1.0;"/></g><!--link ScheduleVisitController to AnnouncementDto--><g id="link_ScheduleVisitController_AnnouncementDto"><path codeLine="270" d="M949.29,501.74 C756.47,556.4 518,624 518,624 C518,624 170,685 170,685 C170,685 149.85,847.63 139.7,929.53 " fill="none" id="ScheduleVisitController-to-AnnouncementDto" style="stroke:#181818;stroke-width:1.0;stroke-dasharray:7.0,7.0;"/><polygon fill="#181818" points="139.04,934.8,144.1135,926.3585,139.6532,929.8377,136.1739,925.3774,139.04,934.8" style="stroke:#181818;stroke-width:1.0;"/></g><!--link ScheduleVisitUI to AnnouncementDto--><g id="link_ScheduleVisitUI_AnnouncementDto"><path codeLine="272" d="M401.52,456.68 C317.31,513.29 108,654 108,654 C108,654 108,905 108,905 C108,905 112.24,916.48 117.29,930.18 " fill="none" id="ScheduleVisitUI-to-AnnouncementDto" style="stroke:#181818;stroke-width:1.0;stroke-dasharray:7.0,7.0;"/><polygon fill="#181818" points="119.03,934.9,119.6776,925.0725,117.3041,930.2073,112.1693,927.8339,119.03,934.9" style="stroke:#181818;stroke-width:1.0;"/></g><!--reverse link Employee to Person--><g id="link_Employee_Person"><path codeLine="275" d="M761.92,1224.13 C799.28,1245.46 837,1267 837,1267 C837,1267 961,1315 961,1315 C961,1315 1664,1345 1664,1345 C1664,1345 1677.4,1363.94 1695.09,1388.95 " fill="none" id="Employee-backto-Person" style="stroke:#181818;stroke-width:1.0;"/><polygon fill="#181818" points="757.37,1221.53,763.194,1229.4723,761.7095,1224.0138,767.168,1222.5292,757.37,1221.53" style="stroke:#181818;stroke-width:1.0;"/><polygon fill="#000000" points="970.9238,1307.0454,962.5277,1302.5781,961.5054,1308.3663,970.9238,1307.0454" style="stroke:#000000;stroke-width:1.0;"/><text fill="#000000" font-family="sans-serif" font-size="13" lengthAdjust="spacing" textLength="82" x="975" y="1311.4951">represented in</text><text fill="#000000" font-family="sans-serif" font-size="13" lengthAdjust="spacing" textLength="7" x="764.7816" y="1222.3351">1</text><text fill="#000000" font-family="sans-serif" font-size="13" lengthAdjust="spacing" textLength="7" x="1682.4262" y="1378.1986">1</text></g><!--link Employee to Announcement--><g id="link_Employee_Announcement"><path codeLine="276" d="M687.5,1223.09 C685.72,1271.22 683,1345 683,1345 C683,1345 683,1675 683,1675 C683,1675 734.05,1711.86 793.01,1754.43 " fill="none" id="Employee-to-Announcement" style="stroke:#181818;stroke-width:1.0;"/><polygon fill="#181818" points="797.27,1757.5,792.3137,1748.9891,793.2159,1754.5736,787.6314,1755.4758,797.27,1757.5" style="stroke:#181818;stroke-width:1.0;"/><polygon fill="#000000" points="687.0261,1505.2715,685.9052,1514.7158,691.6705,1513.571,687.0261,1505.2715" style="stroke:#000000;stroke-width:1.0;"/><text fill="#000000" font-family="sans-serif" font-size="13" lengthAdjust="spacing" textLength="87" x="697" y="1515.4951">is published by</text><text fill="#000000" font-family="sans-serif" font-size="13" lengthAdjust="spacing" textLength="7" x="679.6719" y="1244.8095">1</text><text fill="#000000" font-family="sans-serif" font-size="13" lengthAdjust="spacing" textLength="5" x="784.3752" y="1748.9694">*</text></g><!--link Employee to Visit--><g id="link_Employee_Visit"><path codeLine="277" d="M666.33,1223.06 C597.72,1345.83 397,1705 397,1705 C397,1705 397,1723 397,1723 C397,1723 496,2012 496,2012 C496,2012 687,2090 687,2090 C687,2090 729.6,2110.77 781.68,2136.17 " fill="none" id="Employee-to-Visit" style="stroke:#181818;stroke-width:1.0;"/><polygon fill="#181818" points="786.42,2138.48,780.0914,2130.9336,781.9281,2136.2839,776.5777,2138.1206,786.42,2138.48" style="stroke:#181818;stroke-width:1.0;"/><polygon fill="#000000" points="402.6267,1719.1364,404.4088,1709.7943,398.5773,1710.5309,402.6267,1719.1364" style="stroke:#000000;stroke-width:1.0;"/><text fill="#000000" font-family="sans-serif" font-size="13" lengthAdjust="spacing" textLength="59" x="411" y="1719.4951">schedules</text><text fill="#000000" font-family="sans-serif" font-size="13" lengthAdjust="spacing" textLength="7" x="654.9956" y="1244.7745">1</text><text fill="#000000" font-family="sans-serif" font-size="13" lengthAdjust="spacing" textLength="5" x="773.6119" y="2131.849">*</text></g><!--link Person to Visit--><g id="link_Person_Visit"><path codeLine="278" d="M1695.09,1631.05 C1677.4,1656.06 1664,1675 1664,1675 C1664,1675 1351.98,1923.04 1146.07,2086.74 " fill="none" id="Person-to-Visit" style="stroke:#181818;stroke-width:1.0;"/><polygon fill="#181818" points="1142.14,2089.86,1151.6733,2087.3867,1146.0527,2086.747,1146.6924,2081.1264,1142.14,2089.86" style="stroke:#181818;stroke-width:1.0;"/><polygon fill="#000000" points="1560.1526,1885.8691,1568.9896,1882.3537,1565.2356,1877.8309,1560.1526,1885.8691" style="stroke:#000000;stroke-width:1.0;"/><text fill="#000000" font-family="sans-serif" font-size="13" lengthAdjust="spacing" textLength="50" x="1573" y="1887.9951">requests</text><text fill="#000000" font-family="sans-serif" font-size="13" lengthAdjust="spacing" textLength="7" x="1682.9788" y="1652.0246">1</text><text fill="#000000" font-family="sans-serif" font-size="13" lengthAdjust="spacing" textLength="5" x="1146.4719" y="2079.3475">*</text></g><!--link Visit to Property--><g id="link_Visit_Property"><path codeLine="279" d="M1151.63,2228.5 C1181.46,2228.5 1211.51,2228.5 1238.79,2228.5 " fill="none" id="Visit-to-Property" style="stroke:#181818;stroke-width:1.0;"/><polygon fill="#181818" points="1243.85,2228.5,1234.85,2224.5,1238.85,2228.5,1234.85,2232.5,1243.85,2228.5" style="stroke:#181818;stroke-width:1.0;"/><polygon fill="#000000" points="1178.75,2216.6758,1169.7049,2213.7369,1169.7049,2219.6147,1178.75,2216.6758" style="stroke:#000000;stroke-width:1.0;"/><text fill="#000000" font-family="sans-serif" font-size="13" lengthAdjust="spacing" textLength="43" x="1182.75" y="2221.9951">done to</text><text fill="#000000" font-family="sans-serif" font-size="13" lengthAdjust="spacing" textLength="7" x="1159.4824" y="2225.6667">1</text><text fill="#000000" font-family="sans-serif" font-size="13" lengthAdjust="spacing" textLength="7" x="1229.0179" y="2225.4108">1</text></g><!--link Announcement to Visit--><g id="link_Announcement_Visit"><path codeLine="280" d="M969,2012.08 C969,2035.78 969,2060.65 969,2084.73 " fill="none" id="Announcement-to-Visit" style="stroke:#181818;stroke-width:1.0;"/><polygon fill="#181818" points="969,2089.86,973,2080.86,969,2084.86,965,2080.86,969,2089.86" style="stroke:#181818;stroke-width:1.0;"/><polygon fill="#000000" points="974,2056.1758,976.9389,2047.1307,971.0611,2047.1307,974,2056.1758" style="stroke:#000000;stroke-width:1.0;"/><text fill="#000000" font-family="sans-serif" font-size="13" lengthAdjust="spacing" textLength="43" x="983" y="2056.4951">records</text><text fill="#000000" font-family="sans-serif" font-size="13" lengthAdjust="spacing" textLength="7" x="961.7867" y="2033.9601">1</text><text fill="#000000" font-family="sans-serif" font-size="13" lengthAdjust="spacing" textLength="5" x="963.8633" y="2079.3475">*</text></g><!--link Employee to Agency--><g id="link_Employee_Agency"><path codeLine="281" d="M757.03,1181.5 C784.44,1181.5 817.21,1181.5 849.65,1181.5 " fill="none" id="Employee-to-Agency" style="stroke:#181818;stroke-width:1.0;"/><polygon fill="#181818" points="854.85,1181.5,845.85,1177.5,849.85,1181.5,845.85,1185.5,854.85,1181.5" style="stroke:#181818;stroke-width:1.0;"/><polygon fill="#000000" points="784.5,1169.6758,775.4549,1166.7369,775.4549,1172.6147,784.5,1169.6758" style="stroke:#000000;stroke-width:1.0;"/><text fill="#000000" font-family="sans-serif" font-size="13" lengthAdjust="spacing" textLength="48" x="788.5" y="1174.9951">works in</text><text fill="#000000" font-family="sans-serif" font-size="13" lengthAdjust="spacing" textLength="7" x="764.8536" y="1178.1274">1</text><text fill="#000000" font-family="sans-serif" font-size="13" lengthAdjust="spacing" textLength="7" x="839.7754" y="1178.56">1</text></g><!--link Agency to AnnouncementList--><g id="link_Agency_AnnouncementList"><path codeLine="282" d="M1048.44,1267.01 C1061.71,1289.69 1076.54,1315.04 1091.47,1340.56 " fill="none" id="Agency-to-AnnouncementList" style="stroke:#181818;stroke-width:1.0;"/><polygon fill="#181818" points="1094.06,1344.99,1092.9601,1335.2027,1091.5318,1340.6763,1086.0582,1339.2479,1094.06,1344.99" style="stroke:#181818;stroke-width:1.0;"/><polygon fill="#000000" points="1078.5249,1310.4915,1076.494,1301.2002,1071.4207,1304.1684,1078.5249,1310.4915" style="stroke:#000000;stroke-width:1.0;"/><text fill="#000000" font-family="sans-serif" font-size="13" lengthAdjust="spacing" textLength="30" x="1085" y="1311.4951">owns</text><text fill="#000000" font-family="sans-serif" font-size="13" lengthAdjust="spacing" textLength="7" x="1045.5315" y="1288.8372">1</text><text fill="#000000" font-family="sans-serif" font-size="13" lengthAdjust="spacing" textLength="7" x="1082.2434" y="1334.1195">1</text></g><!--link AnnouncementList to Announcement--><g id="link_AnnouncementList_Announcement"><path codeLine="283" d="M1092.1,1675.12 C1077.48,1699.63 1062.57,1724.64 1048.39,1748.4 " fill="none" id="AnnouncementList-to-Announcement" style="stroke:#181818;stroke-width:1.0;"/><polygon fill="#181818" points="1045.75,1752.82,1053.8021,1747.1487,1048.3162,1748.5288,1046.9361,1743.0428,1045.75,1752.82" style="stroke:#181818;stroke-width:1.0;"/><polygon fill="#000000" points="1074.4386,1718.4699,1081.5962,1712.2073,1076.5482,1709.1962,1074.4386,1718.4699" style="stroke:#000000;stroke-width:1.0;"/><text fill="#000000" font-family="sans-serif" font-size="13" lengthAdjust="spacing" textLength="43" x="1086" y="1719.4951">records</text><text fill="#000000" font-family="sans-serif" font-size="13" lengthAdjust="spacing" textLength="7" x="1080.5053" y="1696.4732">1</text><text fill="#000000" font-family="sans-serif" font-size="13" lengthAdjust="spacing" textLength="5" x="1045.0426" y="1742.3566">*</text></g><!--reverse link Request to Property--><g id="link_Request_Property"><path codeLine="284" d="M681.05,1943.27 C729.34,1976.82 780,2012 780,2012 C780,2012 1035,2042 1035,2042 C1035,2042 1169,2090 1169,2090 C1169,2090 1204.61,2117.51 1243.97,2147.91 " fill="none" id="Request-backto-Property" style="stroke:#181818;stroke-width:1.0;"/><polygon fill="#181818" points="676.68,1940.24,681.7907,1948.659,680.7868,1943.092,686.3539,1942.0881,676.68,1940.24" style="stroke:#181818;stroke-width:1.0;"/><polygon fill="#000000" points="1091.6991,2052.8841,1084.2024,2047.0317,1082.1942,2052.5558,1091.6991,2052.8841" style="stroke:#000000;stroke-width:1.0;"/><text fill="#000000" font-family="sans-serif" font-size="13" lengthAdjust="spacing" textLength="124" x="1096" y="2056.4951">has information about</text><text fill="#000000" font-family="sans-serif" font-size="13" lengthAdjust="spacing" textLength="7" x="684.5325" y="1942.3425">1</text><text fill="#000000" font-family="sans-serif" font-size="13" lengthAdjust="spacing" textLength="7" x="1229.1467" y="2138.9024">1</text></g><!--reverse link Request to Announcement--><g id="link_Request_Announcement"><path codeLine="286" d="M681.66,1882.5 C716.23,1882.5 757.28,1882.5 797.39,1882.5 " fill="none" id="Request-backto-Announcement" style="stroke:#181818;stroke-width:1.0;"/><polygon fill="#181818" points="676.61,1882.5,685.61,1886.5,681.61,1882.5,685.61,1878.5,676.61,1882.5" style="stroke:#181818;stroke-width:1.0;"/><polygon fill="#000000" points="694,1870.6758,703.0451,1873.6147,703.0451,1867.7369,694,1870.6758" style="stroke:#000000;stroke-width:1.0;"/><text fill="#000000" font-family="sans-serif" font-size="13" lengthAdjust="spacing" textLength="71" x="708" y="1875.9951">is  based on</text><text fill="#000000" font-family="sans-serif" font-size="13" lengthAdjust="spacing" textLength="7" x="684.4561" y="1879.2796">1</text><text fill="#000000" font-family="sans-serif" font-size="13" lengthAdjust="spacing" textLength="7" x="782.4553" y="1879.6335">1</text></g><!--link Agency to Request--><g id="link_Agency_Request"><path codeLine="287" d="M919.36,1267.08 C882.19,1306.57 846,1345 846,1345 C846,1345 789,1675 789,1675 C789,1675 732.25,1735.41 680.14,1790.88 " fill="none" id="Agency-to-Request" style="stroke:#181818;stroke-width:1.0;"/><polygon fill="#181818" points="676.71,1794.52,685.7911,1790.7077,680.1368,1790.879,679.9655,1785.2247,676.71,1794.52" style="stroke:#181818;stroke-width:1.0;"/><polygon fill="#000000" points="848.9229,1514.7239,855.3538,1507.7172,850.0071,1505.2754,848.9229,1514.7239" style="stroke:#000000;stroke-width:1.0;"/><text fill="#000000" font-family="sans-serif" font-size="13" lengthAdjust="spacing" textLength="81" x="860" y="1515.4951">is assigned to</text><text fill="#000000" font-family="sans-serif" font-size="13" lengthAdjust="spacing" textLength="7" x="905.2152" y="1288.6208">1</text><text fill="#000000" font-family="sans-serif" font-size="13" lengthAdjust="spacing" textLength="5" x="684.4731" y="1783.1889">*</text></g><!--reverse link Notification to Visit--><g id="link_Notification_Visit"><path codeLine="288" d="M689.74,2228.5 C719.58,2228.5 753.15,2228.5 786.41,2228.5 " fill="none" id="Notification-backto-Visit" style="stroke:#181818;stroke-width:1.0;stroke-dasharray:7.0,7.0;"/><polygon fill="none" points="689.73,2235.5,669.73,2228.5,689.73,2221.5,689.73,2235.5" style="stroke:#181818;stroke-width:1.0;"/><polygon fill="#000000" points="687,2216.6758,696.0451,2219.6147,696.0451,2213.7369,687,2216.6758" style="stroke:#000000;stroke-width:1.0;"/><text fill="#000000" font-family="sans-serif" font-size="13" lengthAdjust="spacing" textLength="67" x="701" y="2221.9951">implements</text></g><!--SRC=[dLb9Rziu5BxhLn2vnEaucPchQnYmamnge4cBE2qmG2-qHDj4PL53KcazwVptULn4Sv6y92UPV1lVzZqob-8xhMhCyHPjMSNo3MTRWYHlIBRVgN7-7Q_9GkvAWZZ99QxMfKyWDhXWFsYrHYjS2d-df1MHkvgWcfKxzIExxDXaNBBCuyfBBCHKIawNZIJpd5KB-Yz1VsJPPKbM4ac6E5rl92geCeUoAiiq3vesSaCgINEiLfz8pGILZE-ormp1tszeJUHjmpdGV164BuWGG3Uuolvh9NZBFfDQdXS-uLSAef4XkKRpIf8ruOWMTc41reD36k1xn5kIhdxUi8eyDjibuP4C8J6N7rWJhvEgy5O_iXoNTrWIzA8iKLzsPyPOIN25S9wJ6eALG-YmR8GzZJPyO9bsGyF-m2gviTz_4yo7Uok6hUBXjygTPnYVuMhlgw-jFGDlST6AynVlZM2t943J8vDqPGCuWBIhvFqMqzBp_1GMyzq-kCYBqxGifrN56ZZq5bZ5Hogahz7mpdO-4SGL1pyzNRD6G9OAyGnvsgtHfx3Q7FTdpch2vQwVswU8kOsjHrEi88AkA-slS8CelqsBWeDraOmwIZxZ6yy9YT-ylTckmsE64bU1PpzWSSYvpYMK27TCVz6tO5u9dSk3ApGAY3nd4Yxygay3txFNqpLycbjE9U4KT-zsfubFqPqAVhWN-OOKJKbq-Tn2FN9MbX2hDbjwzdMD-2SReZhoWohSFB5_Y73FkHNzilD48Blp75VzMNGdMU3h8mNQ-ZbUxoYpGqLazYHJsajOUcPtLDGbxhDKp7Q-Xe5__24wKO9lny1trCaIJ4dEIC4Psuf15VmymmuATI80Lg4DVE85uIUptbAvUnkdmfYJb4hsm0fI1cq1mkGmm4_pW6Y8Ze4Mv6qAMrSXYficOGglOW2VajM8hVhAotQbo5X41Kn2q6R92p7j6A4Lp4w0O2LC9AH01PQuWpTWr2oM6uQS5qWNg4DbJAJEqe1UxJehLvyx5HWm-wIdeRtHPNs7C2UnUEqWApS8i3856efUL8Um5T2sQ6r_OKWpa8-KzpkRtvSvDBqz3FhkQr52bVbO4q_CCKGo5kt77sysIa3qVbkNR4U0VDswoy1DuRh8fXF5EkjWNgsOyuSJa7C25fmzTq4sjvFNyRaB5uMduAgDEovf4UgECD5CLy7OuPtd0TUr1q6dzzDvyHVaYg9EohnJaOfd65n_TnBaT8lufyuhnsQPdmDQ_FJy210LMAtulLnOG1WE3431z1DWIk2tOO2mFUm1e4JiFhxqi4Te4Wa8mSMrNsZWKMUVYXpo4BgwmPNEy7UmtP6tyJbr6elErtOMcrDcuEjyRUVnFJ0XdmYmocdGdM81BJQPQoxqqZYVHwEkHCwUeVs-O1YVbd1LXwo6thq2l5ET5pfpfiSr2p6gKmT8GIkz5hHRfIhfrTEmeb-3BXVLnH0i-ASXGdV6tbxXeV6IIGaW4nsvnS1hNvp26tFLoVO071_1R3qPhalb2SC2AkDpMQBN14cipfDWfFrmwz1T4VjH4Qu_sokwhNtN1EnwM_2kklSUK-P8yrZHDcDt4d1UTEDqlTHl8K7FiFjth56v0ZYFmnL0QfsUgfnkmP74VtZGILJQ3xzh0p99jkQutapK9TD-dtOAjU30eVNZQtYdDPUTUU6z8NYttE3khUUyYBs2tlq-N9Buf-cJxuEG-PVdYCExFCSxeBY6gh_5l0W9j7CCrGJ1P4cSqCITx_TdKuWVN7JsceDdbD053gaCjAk18Nv2YM_AmPE4tflj-hdJkx3F7ztWqiAEbLj7E4tfSAqhM-t3V6sUvlQrgqgHht1EaFzoXB105-FbP3ns-vF9-FVbv5lbarqumvEd9-8EVVbq_t7wFF_qkCYoU4wzcVHU7BBWUUDw4ZvtZ12r3nfPrlV-WAw1w-BFY-1HCkjx9xW1MthVFmzo1QyfeTbAUsj54hT-qlYrvH3fcqm-mvOqMm-BxgBl5Txzy7DOGHzFl-CxtroEEEWDF6dKZbD3ziRFiSxqTsqYGBRZzPgJDI2eG9CiI_gFpsCs4vxZwN2OnjnR-qacuTnm-Ep97GdyaDwRRXAX9n2fMUTKArDQqvCI6kjnu-UcjedLWkm8-cqDwA5Wle36XCQP6sY2Q7fYHwfDrp0gK07gqNANC1aURTN8FUkeKFgsX5JjgAMep3zOD94UWwDY6A42m51DjfF0guQZW97B5utK4NF62oKvCTDrh17wmVXteLoWn9ha3RfLV6STgU5EH3RedNx7xIrnuvecLl_SidhiB0hYnmh9mQ0LuriBRKlMI40bI-9OWuQamrF0DONJfGbFbviwDG8ZMc81NA0izSAxY1Oc0hgkW5g7mdZxfgb_JK901bfmkxa80Tt_]--></g></svg>