<?xml version="1.0" encoding="UTF-8" standalone="no"?><svg xmlns="http://www.w3.org/2000/svg" xmlns:xlink="http://www.w3.org/1999/xlink" contentStyleType="text/css" height="721px" preserveAspectRatio="none" style="width:1258px;height:721px;background:#FFFFFF;" version="1.1" viewBox="0 0 1258 721" width="1258px" zoomAndPan="magnify"><defs/><g><rect fill="#FFFFFF" height="562.0078" style="stroke:#181818;stroke-width:1.0;" width="10" x="166" y="87.5703"/><rect fill="#FFFFFF" height="30.3516" style="stroke:#181818;stroke-width:1.0;" width="10" x="307" y="143.2734"/><rect fill="#FFFFFF" height="30.3516" style="stroke:#181818;stroke-width:1.0;" width="10" x="414" y="203.9766"/><rect fill="#FFFFFF" height="30.3516" style="stroke:#181818;stroke-width:1.0;" width="10" x="560" y="264.6797"/><rect fill="#FFFFFF" height="286.8438" style="stroke:#181818;stroke-width:1.0;" width="10" x="713.5" y="325.3828"/><rect fill="#FFFFFF" height="35.3516" style="stroke:#181818;stroke-width:1.0;" width="10" x="718.5" y="449.3047"/><rect fill="#FFFFFF" height="30" style="stroke:#181818;stroke-width:1.0;" width="10" x="1069.5" y="544.875"/><rect fill="none" height="517.6563" style="stroke:#000000;stroke-width:1.5;" width="1174" x="78.5" y="102.5703"/><rect fill="none" height="182.2734" style="stroke:#000000;stroke-width:1.5;" width="590" x="652.5" y="400.6016"/><line style="stroke:#181818;stroke-width:0.5;stroke-dasharray:5.0,5.0;" x1="170.5" x2="170.5" y1="55.2188" y2="667.5781"/><line style="stroke:#181818;stroke-width:0.5;stroke-dasharray:5.0,5.0;" x1="311.5" x2="311.5" y1="55.2188" y2="667.5781"/><line style="stroke:#181818;stroke-width:0.5;stroke-dasharray:5.0,5.0;" x1="418.5" x2="418.5" y1="55.2188" y2="667.5781"/><line style="stroke:#181818;stroke-width:0.5;stroke-dasharray:5.0,5.0;" x1="564.5" x2="564.5" y1="55.2188" y2="667.5781"/><line style="stroke:#181818;stroke-width:0.5;stroke-dasharray:5.0,5.0;" x1="718.5" x2="718.5" y1="55.2188" y2="667.5781"/><line style="stroke:#181818;stroke-width:0.5;stroke-dasharray:5.0,5.0;" x1="1074.5" x2="1074.5" y1="373.4922" y2="667.5781"/><line style="stroke:#181818;stroke-width:0.5;stroke-dasharray:5.0,5.0;" x1="1189.5" x2="1189.5" y1="502.4141" y2="667.5781"/><rect fill="#E3E3E3" height="31.6094" rx="2.5" ry="2.5" style="stroke:#181818;stroke-width:0.5;" width="165" x="88.5" y="22.6094"/><text fill="#000000" font-family="sans-serif" font-size="14" lengthAdjust="spacing" textLength="151" x="95.5" y="44.1426">:ScheduleVisitController</text><rect fill="#E3E3E3" height="31.6094" rx="2.5" ry="2.5" style="stroke:#181818;stroke-width:0.5;" width="165" x="88.5" y="666.5781"/><text fill="#000000" font-family="sans-serif" font-size="14" lengthAdjust="spacing" textLength="151" x="95.5" y="688.1113">:ScheduleVisitController</text><rect fill="#E3E3E3" height="31.6094" rx="2.5" ry="2.5" style="stroke:#181818;stroke-width:0.5;" width="97" x="263.5" y="22.6094"/><text fill="#000000" font-family="sans-serif" font-size="14" lengthAdjust="spacing" textLength="83" x="270.5" y="44.1426">:Repositories</text><rect fill="#E3E3E3" height="31.6094" rx="2.5" ry="2.5" style="stroke:#181818;stroke-width:0.5;" width="97" x="263.5" y="666.5781"/><text fill="#000000" font-family="sans-serif" font-size="14" lengthAdjust="spacing" textLength="83" x="270.5" y="688.1113">:Repositories</text><rect fill="#E3E3E3" height="49.2188" rx="2.5" ry="2.5" style="stroke:#181818;stroke-width:0.5;" width="97" x="370.5" y="5"/><text fill="#000000" font-family="sans-serif" font-size="14" lengthAdjust="spacing" textLength="74" x="382" y="26.5332">repositories</text><text fill="#000000" font-family="sans-serif" font-size="14" lengthAdjust="spacing" textLength="83" x="377.5" y="44.1426">:Repositories</text><rect fill="#E3E3E3" height="49.2188" rx="2.5" ry="2.5" style="stroke:#181818;stroke-width:0.5;" width="97" x="370.5" y="666.5781"/><text fill="#000000" font-family="sans-serif" font-size="14" lengthAdjust="spacing" textLength="74" x="382" y="688.1113">repositories</text><text fill="#000000" font-family="sans-serif" font-size="14" lengthAdjust="spacing" textLength="83" x="377.5" y="705.7207">:Repositories</text><rect fill="#E3E3E3" height="49.2188" rx="2.5" ry="2.5" style="stroke:#181818;stroke-width:0.5;" width="175" x="477.5" y="5"/><text fill="#000000" font-family="sans-serif" font-size="14" lengthAdjust="spacing" textLength="156" x="487" y="26.5332">businessTypeRepository</text><text fill="#000000" font-family="sans-serif" font-size="14" lengthAdjust="spacing" textLength="161" x="484.5" y="44.1426">:BusinessTypeRepository</text><rect fill="#E3E3E3" height="49.2188" rx="2.5" ry="2.5" style="stroke:#181818;stroke-width:0.5;" width="175" x="477.5" y="666.5781"/><text fill="#000000" font-family="sans-serif" font-size="14" lengthAdjust="spacing" textLength="156" x="487" y="688.1113">businessTypeRepository</text><text fill="#000000" font-family="sans-serif" font-size="14" lengthAdjust="spacing" textLength="161" x="484.5" y="705.7207">:BusinessTypeRepository</text><rect fill="#E3E3E3" height="31.6094" rx="2.5" ry="2.5" style="stroke:#181818;stroke-width:0.5;" width="112" x="662.5" y="22.6094"/><text fill="#000000" font-family="sans-serif" font-size="14" lengthAdjust="spacing" textLength="98" x="669.5" y="44.1426">:CriteriaMapper</text><rect fill="#E3E3E3" height="31.6094" rx="2.5" ry="2.5" style="stroke:#181818;stroke-width:0.5;" width="112" x="662.5" y="666.5781"/><text fill="#000000" font-family="sans-serif" font-size="14" lengthAdjust="spacing" textLength="98" x="669.5" y="688.1113">:CriteriaMapper</text><rect fill="#E3E3E3" height="49.2188" rx="2.5" ry="2.5" style="stroke:#181818;stroke-width:0.5;" width="124" x="1012.5" y="666.5781"/><text fill="#000000" font-family="sans-serif" font-size="14" lengthAdjust="spacing" textLength="87" x="1031" y="688.1113">criteriaDtoList</text><text fill="#000000" font-family="sans-serif" font-size="14" lengthAdjust="spacing" textLength="110" x="1019.5" y="705.7207">:List&lt;CriteriaDto&gt;</text><rect fill="#E3E3E3" height="49.2188" rx="2.5" ry="2.5" style="stroke:#181818;stroke-width:0.5;" width="86" x="1146.5" y="666.5781"/><text fill="#000000" font-family="sans-serif" font-size="14" lengthAdjust="spacing" textLength="65" x="1157" y="688.1113">criteriaDto</text><text fill="#000000" font-family="sans-serif" font-size="14" lengthAdjust="spacing" textLength="72" x="1153.5" y="705.7207">:CriteriaDto</text><rect fill="#FFFFFF" height="562.0078" style="stroke:#181818;stroke-width:1.0;" width="10" x="166" y="87.5703"/><rect fill="#FFFFFF" height="30.3516" style="stroke:#181818;stroke-width:1.0;" width="10" x="307" y="143.2734"/><rect fill="#FFFFFF" height="30.3516" style="stroke:#181818;stroke-width:1.0;" width="10" x="414" y="203.9766"/><rect fill="#FFFFFF" height="30.3516" style="stroke:#181818;stroke-width:1.0;" width="10" x="560" y="264.6797"/><rect fill="#FFFFFF" height="286.8438" style="stroke:#181818;stroke-width:1.0;" width="10" x="713.5" y="325.3828"/><rect fill="#FFFFFF" height="35.3516" style="stroke:#181818;stroke-width:1.0;" width="10" x="718.5" y="449.3047"/><rect fill="#FFFFFF" height="30" style="stroke:#181818;stroke-width:1.0;" width="10" x="1069.5" y="544.875"/><polygon fill="#181818" points="154,83.5703,164,87.5703,154,91.5703,158,87.5703" style="stroke:#181818;stroke-width:1.0;"/><line style="stroke:#181818;stroke-width:1.0;" x1="0" x2="160" y1="87.5703" y2="87.5703"/><text fill="#000000" font-family="sans-serif" font-size="13" font-weight="bold" lengthAdjust="spacing" textLength="14" x="7" y="82.7139">15</text><text fill="#000000" font-family="sans-serif" font-size="13" lengthAdjust="spacing" textLength="129" x="25" y="82.7139">getBusinessTypeList()</text><path d="M78.5,102.5703 L296.5,102.5703 L296.5,110.9219 L286.5,120.9219 L78.5,120.9219 L78.5,102.5703 " fill="#EEEEEE" style="stroke:#000000;stroke-width:1.5;"/><rect fill="none" height="517.6563" style="stroke:#000000;stroke-width:1.5;" width="1174" x="78.5" y="102.5703"/><text fill="#000000" font-family="sans-serif" font-size="13" font-weight="bold" lengthAdjust="spacing" textLength="173" x="93.5" y="117.0654">Get Business Type DTO List</text><polygon fill="#181818" points="295,139.2734,305,143.2734,295,147.2734,299,143.2734" style="stroke:#181818;stroke-width:1.0;"/><line style="stroke:#181818;stroke-width:1.0;" x1="176" x2="301" y1="143.2734" y2="143.2734"/><text fill="#000000" font-family="sans-serif" font-size="13" font-weight="bold" lengthAdjust="spacing" textLength="25" x="183" y="138.417">15.1</text><text fill="#000000" font-family="sans-serif" font-size="13" lengthAdjust="spacing" textLength="82" x="212" y="138.417">getInstances()</text><polygon fill="#181818" points="187,169.625,177,173.625,187,177.625,183,173.625" style="stroke:#181818;stroke-width:1.0;"/><line style="stroke:#181818;stroke-width:1.0;stroke-dasharray:2.0,2.0;" x1="181" x2="311" y1="173.625" y2="173.625"/><text fill="#000000" font-family="sans-serif" font-size="13" font-weight="bold" lengthAdjust="spacing" textLength="25" x="193" y="168.7686">15.2</text><text fill="#000000" font-family="sans-serif" font-size="13" lengthAdjust="spacing" textLength="67" x="222" y="168.7686">repositories</text><polygon fill="#181818" points="402,199.9766,412,203.9766,402,207.9766,406,203.9766" style="stroke:#181818;stroke-width:1.0;"/><line style="stroke:#181818;stroke-width:1.0;" x1="176" x2="408" y1="203.9766" y2="203.9766"/><text fill="#000000" font-family="sans-serif" font-size="13" font-weight="bold" lengthAdjust="spacing" textLength="25" x="183" y="199.1201">15.3</text><text fill="#000000" font-family="sans-serif" font-size="13" lengthAdjust="spacing" textLength="170" x="212" y="199.1201">getBusinessTypeRepository()</text><polygon fill="#181818" points="187,230.3281,177,234.3281,187,238.3281,183,234.3281" style="stroke:#181818;stroke-width:1.0;"/><line style="stroke:#181818;stroke-width:1.0;stroke-dasharray:2.0,2.0;" x1="181" x2="418" y1="234.3281" y2="234.3281"/><text fill="#000000" font-family="sans-serif" font-size="13" font-weight="bold" lengthAdjust="spacing" textLength="25" x="193" y="229.4717">15.4</text><text fill="#000000" font-family="sans-serif" font-size="13" lengthAdjust="spacing" textLength="142" x="222" y="229.4717">businessTypeRepository</text><polygon fill="#181818" points="548,260.6797,558,264.6797,548,268.6797,552,264.6797" style="stroke:#181818;stroke-width:1.0;"/><line style="stroke:#181818;stroke-width:1.0;" x1="176" x2="554" y1="264.6797" y2="264.6797"/><text fill="#000000" font-family="sans-serif" font-size="13" font-weight="bold" lengthAdjust="spacing" textLength="25" x="183" y="259.8232">15.5</text><text fill="#000000" font-family="sans-serif" font-size="13" lengthAdjust="spacing" textLength="204" x="212" y="259.8232">getBusinessTypeDesignationsList()</text><polygon fill="#181818" points="187,291.0313,177,295.0313,187,299.0313,183,295.0313" style="stroke:#181818;stroke-width:1.0;"/><line style="stroke:#181818;stroke-width:1.0;stroke-dasharray:2.0,2.0;" x1="181" x2="564" y1="295.0313" y2="295.0313"/><text fill="#000000" font-family="sans-serif" font-size="13" font-weight="bold" lengthAdjust="spacing" textLength="25" x="193" y="290.1748">15.6</text><text fill="#000000" font-family="sans-serif" font-size="13" lengthAdjust="spacing" textLength="176" x="222" y="290.1748">businessTypeDesignationsList</text><polygon fill="#181818" points="701.5,321.3828,711.5,325.3828,701.5,329.3828,705.5,325.3828" style="stroke:#181818;stroke-width:1.0;"/><line style="stroke:#181818;stroke-width:1.0;" x1="176" x2="707.5" y1="325.3828" y2="325.3828"/><text fill="#000000" font-family="sans-serif" font-size="13" font-weight="bold" lengthAdjust="spacing" textLength="25" x="183" y="320.5264">15.7</text><text fill="#000000" font-family="sans-serif" font-size="13" lengthAdjust="spacing" textLength="215" x="212" y="320.5264">toDto(businessTypeDesignationsList)</text><polygon fill="#181818" points="1000.5,351.7344,1010.5,355.7344,1000.5,359.7344,1004.5,355.7344" style="stroke:#181818;stroke-width:1.0;"/><line style="stroke:#181818;stroke-width:1.0;" x1="723.5" x2="1006.5" y1="355.7344" y2="355.7344"/><text fill="#000000" font-family="sans-serif" font-size="13" font-weight="bold" lengthAdjust="spacing" textLength="25" x="730.5" y="350.8779">15.8</text><text fill="#000000" font-family="sans-serif" font-size="13" lengthAdjust="spacing" textLength="44" x="759.5" y="350.8779">create()</text><rect fill="#E3E3E3" height="49.2188" rx="2.5" ry="2.5" style="stroke:#181818;stroke-width:0.5;" width="124" x="1012.5" y="333.3828"/><text fill="#000000" font-family="sans-serif" font-size="14" lengthAdjust="spacing" textLength="87" x="1031" y="354.916">criteriaDtoList</text><text fill="#000000" font-family="sans-serif" font-size="14" lengthAdjust="spacing" textLength="110" x="1019.5" y="372.5254">:List&lt;CriteriaDto&gt;</text><path d="M652.5,400.6016 L725.5,400.6016 L725.5,408.9531 L715.5,418.9531 L652.5,418.9531 L652.5,400.6016 " fill="#EEEEEE" style="stroke:#000000;stroke-width:1.5;"/><rect fill="none" height="182.2734" style="stroke:#000000;stroke-width:1.5;" width="590" x="652.5" y="400.6016"/><text fill="#000000" font-family="sans-serif" font-size="13" font-weight="bold" lengthAdjust="spacing" textLength="28" x="667.5" y="415.0967">loop</text><text fill="#000000" font-family="sans-serif" font-size="11" font-weight="bold" lengthAdjust="spacing" textLength="200" x="740.5" y="414.0205">[for each businessTypeDesignation]</text><line style="stroke:#181818;stroke-width:1.0;" x1="723.5" x2="770.5" y1="436.3047" y2="436.3047"/><line style="stroke:#181818;stroke-width:1.0;" x1="770.5" x2="770.5" y1="436.3047" y2="449.3047"/><line style="stroke:#181818;stroke-width:1.0;" x1="729.5" x2="770.5" y1="449.3047" y2="449.3047"/><polygon fill="#181818" points="739.5,445.3047,729.5,449.3047,739.5,453.3047,735.5,449.3047" style="stroke:#181818;stroke-width:1.0;"/><text fill="#000000" font-family="sans-serif" font-size="13" font-weight="bold" lengthAdjust="spacing" textLength="25" x="735.5" y="431.4482">15.9</text><text fill="#000000" font-family="sans-serif" font-size="13" lengthAdjust="spacing" textLength="303" x="764.5" y="431.4482">businessTypeDto = toDto(businessTypeDesignation)</text><polygon fill="#181818" points="1134.5,480.6563,1144.5,484.6563,1134.5,488.6563,1138.5,484.6563" style="stroke:#181818;stroke-width:1.0;"/><line style="stroke:#181818;stroke-width:1.0;stroke-dasharray:2.0,2.0;" x1="723.5" x2="1140.5" y1="484.6563" y2="484.6563"/><text fill="#000000" font-family="sans-serif" font-size="13" font-weight="bold" lengthAdjust="spacing" textLength="32" x="730.5" y="479.7998">15.10</text><text fill="#000000" font-family="sans-serif" font-size="13" lengthAdjust="spacing" textLength="192" x="766.5" y="479.7998">create(businessTypeDesignation)</text><rect fill="#E3E3E3" height="49.2188" rx="2.5" ry="2.5" style="stroke:#181818;stroke-width:0.5;" width="86" x="1146.5" y="462.3047"/><text fill="#000000" font-family="sans-serif" font-size="14" lengthAdjust="spacing" textLength="65" x="1157" y="483.8379">criteriaDto</text><text fill="#000000" font-family="sans-serif" font-size="14" lengthAdjust="spacing" textLength="72" x="1153.5" y="501.4473">:CriteriaDto</text><polygon fill="#181818" points="1057.5,540.875,1067.5,544.875,1057.5,548.875,1061.5,544.875" style="stroke:#181818;stroke-width:1.0;"/><line style="stroke:#181818;stroke-width:1.0;" x1="723.5" x2="1063.5" y1="544.875" y2="544.875"/><text fill="#000000" font-family="sans-serif" font-size="13" font-weight="bold" lengthAdjust="spacing" textLength="32" x="730.5" y="540.0186">15.11</text><text fill="#000000" font-family="sans-serif" font-size="13" lengthAdjust="spacing" textLength="129" x="766.5" y="540.0186">add(businessTypeDto)</text><polygon fill="#181818" points="187,608.2266,177,612.2266,187,616.2266,183,612.2266" style="stroke:#181818;stroke-width:1.0;"/><line style="stroke:#181818;stroke-width:1.0;stroke-dasharray:2.0,2.0;" x1="181" x2="717.5" y1="612.2266" y2="612.2266"/><text fill="#000000" font-family="sans-serif" font-size="13" font-weight="bold" lengthAdjust="spacing" textLength="32" x="193" y="607.3701">15.12</text><text fill="#000000" font-family="sans-serif" font-size="13" lengthAdjust="spacing" textLength="121" x="229" y="607.3701">businessTypeDtoList</text><polygon fill="#181818" points="11,645.5781,1,649.5781,11,653.5781,7,649.5781" style="stroke:#181818;stroke-width:1.0;"/><line style="stroke:#181818;stroke-width:1.0;stroke-dasharray:2.0,2.0;" x1="5" x2="170" y1="649.5781" y2="649.5781"/><text fill="#000000" font-family="sans-serif" font-size="13" font-weight="bold" lengthAdjust="spacing" textLength="14" x="17" y="644.7217">16</text><text fill="#000000" font-family="sans-serif" font-size="13" lengthAdjust="spacing" textLength="121" x="35" y="644.7217">businessTypeDtoList</text><!--SRC=[bLJDQkCm4BxhAKHFsK8MUcWFfIrqar8AAHiIiwUzgFBK4NKa8OrtoTjNbcrPjkLqrnU3PhwV6Ot6VWYfcM57UbHIyODHHw1eAY0sH3JZ7wo0FPvAe0OuCbcKSO8zi5pz5RAWxwoqG0XnvoYuq4mYlRZTymFaLGc_X1MuKXADAaim5vHPkifscr7w3hHoYSe8i3ud79psefP69OSG4o5-ood1TlEO3H5lbHKIhCrE6dfwX_sH37YMT6XaVcK4WX7ibMdTblZwkDq-xOPvl4rReze8Yqwu_jsj-kC7ZrrdFpSl-smMx80HfeCGmYhNfEhu1ePUNHD2bm- -q_IM5e1n8RNiufi3S1H_649p8OIwRy3n_QevhB_2g4hJPy3G4bfJrSgqvkiplQRJJjnWO-L5MZTE7Appq862bTIzXwmKvR8lCnw9WCdXtxWxs_NSJ5lMG-l6JLpxOGl7dYBobHwybCCXJsSfRMHgSWrM59AXKD9sTponEZFH8N56RAQSiMIggAyKkpARD-C4KBcvNfoJIGnE- -92e6LplErxkhnqrDo0IuuRKogbwRior1a-pDNMfqUymUy0X8hUdw_WFymtxcFdNt96ZH-pJdlYU5cUBqO590nsEocXqeL236Jkkvei9pL3pJuavqeOaFjTDDntD-HkkJn77d7wRVS9]--></g></svg>