<?xml version="1.0" encoding="UTF-8" standalone="no"?><svg xmlns="http://www.w3.org/2000/svg" xmlns:xlink="http://www.w3.org/1999/xlink" contentStyleType="text/css" height="814px" preserveAspectRatio="none" style="width:1260px;height:814px;background:#FFFFFF;" version="1.1" viewBox="0 0 1260 814" width="1260px" zoomAndPan="magnify"><defs/><g><rect fill="#FFFFFF" height="654.8438" style="stroke:#181818;stroke-width:1.0;" width="10" x="186" y="87.5703"/><rect fill="#FFFFFF" height="30.3516" style="stroke:#181818;stroke-width:1.0;" width="10" x="327" y="143.2734"/><rect fill="#FFFFFF" height="30.3516" style="stroke:#181818;stroke-width:1.0;" width="10" x="434" y="203.9766"/><rect fill="#FFFFFF" height="422.3828" style="stroke:#181818;stroke-width:1.0;" width="10" x="559" y="289.6797"/><rect fill="#FFFFFF" height="91.0547" style="stroke:#181818;stroke-width:1.0;" width="10" x="744" y="405.6016"/><rect fill="#FFFFFF" height="30.3516" style="stroke:#181818;stroke-width:1.0;" width="10" x="997" y="435.9531"/><rect fill="#FFFFFF" height="30.3516" style="stroke:#181818;stroke-width:1.0;" width="10" x="997" y="619.3594"/><rect fill="#FFFFFF" height="30" style="stroke:#181818;stroke-width:1.0;" width="10" x="1152" y="527.0078"/><rect fill="none" height="580.1406" style="stroke:#000000;stroke-width:1.5;" width="1156" x="98.5" y="102.5703"/><rect fill="none" height="225.1094" style="stroke:#000000;stroke-width:1.5;" width="757" x="487.5" y="364.8984"/><line style="stroke:#181818;stroke-width:0.5;stroke-dasharray:5.0,5.0;" x1="190.5" x2="190.5" y1="55.2188" y2="760.4141"/><line style="stroke:#181818;stroke-width:0.5;stroke-dasharray:5.0,5.0;" x1="331.5" x2="331.5" y1="55.2188" y2="760.4141"/><line style="stroke:#181818;stroke-width:0.5;stroke-dasharray:5.0,5.0;" x1="438.5" x2="438.5" y1="55.2188" y2="760.4141"/><line style="stroke:#181818;stroke-width:0.5;stroke-dasharray:5.0,5.0;" x1="563.5" x2="563.5" y1="55.2188" y2="760.4141"/><line style="stroke:#181818;stroke-width:0.5;stroke-dasharray:5.0,5.0;" x1="748.5" x2="748.5" y1="55.2188" y2="760.4141"/><line style="stroke:#181818;stroke-width:0.5;stroke-dasharray:5.0,5.0;" x1="1001.5" x2="1001.5" y1="55.2188" y2="760.4141"/><line style="stroke:#181818;stroke-width:0.5;stroke-dasharray:5.0,5.0;" x1="1156.5" x2="1156.5" y1="337.7891" y2="760.4141"/><rect fill="#E3E3E3" height="31.6094" rx="2.5" ry="2.5" style="stroke:#181818;stroke-width:0.5;" width="165" x="108.5" y="22.6094"/><text fill="#000000" font-family="sans-serif" font-size="14" lengthAdjust="spacing" textLength="151" x="115.5" y="44.1426">:ScheduleVisitController</text><rect fill="#E3E3E3" height="31.6094" rx="2.5" ry="2.5" style="stroke:#181818;stroke-width:0.5;" width="165" x="108.5" y="759.4141"/><text fill="#000000" font-family="sans-serif" font-size="14" lengthAdjust="spacing" textLength="151" x="115.5" y="780.9473">:ScheduleVisitController</text><rect fill="#E3E3E3" height="31.6094" rx="2.5" ry="2.5" style="stroke:#181818;stroke-width:0.5;" width="97" x="283.5" y="22.6094"/><text fill="#000000" font-family="sans-serif" font-size="14" lengthAdjust="spacing" textLength="83" x="290.5" y="44.1426">:Repositories</text><rect fill="#E3E3E3" height="31.6094" rx="2.5" ry="2.5" style="stroke:#181818;stroke-width:0.5;" width="97" x="283.5" y="759.4141"/><text fill="#000000" font-family="sans-serif" font-size="14" lengthAdjust="spacing" textLength="83" x="290.5" y="780.9473">:Repositories</text><rect fill="#E3E3E3" height="49.2188" rx="2.5" ry="2.5" style="stroke:#181818;stroke-width:0.5;" width="97" x="390.5" y="5"/><text fill="#000000" font-family="sans-serif" font-size="14" lengthAdjust="spacing" textLength="74" x="402" y="26.5332">repositories</text><text fill="#000000" font-family="sans-serif" font-size="14" lengthAdjust="spacing" textLength="83" x="397.5" y="44.1426">:Repositories</text><rect fill="#E3E3E3" height="49.2188" rx="2.5" ry="2.5" style="stroke:#181818;stroke-width:0.5;" width="97" x="390.5" y="759.4141"/><text fill="#000000" font-family="sans-serif" font-size="14" lengthAdjust="spacing" textLength="74" x="402" y="780.9473">repositories</text><text fill="#000000" font-family="sans-serif" font-size="14" lengthAdjust="spacing" textLength="83" x="397.5" y="798.5566">:Repositories</text><rect fill="#E3E3E3" height="49.2188" rx="2.5" ry="2.5" style="stroke:#181818;stroke-width:0.5;" width="133" x="497.5" y="5"/><text fill="#000000" font-family="sans-serif" font-size="14" lengthAdjust="spacing" textLength="114" x="507" y="26.5332">agencyRepository</text><text fill="#000000" font-family="sans-serif" font-size="14" lengthAdjust="spacing" textLength="119" x="504.5" y="44.1426">:AgencyRepository</text><rect fill="#E3E3E3" height="49.2188" rx="2.5" ry="2.5" style="stroke:#181818;stroke-width:0.5;" width="133" x="497.5" y="759.4141"/><text fill="#000000" font-family="sans-serif" font-size="14" lengthAdjust="spacing" textLength="114" x="507" y="780.9473">agencyRepository</text><text fill="#000000" font-family="sans-serif" font-size="14" lengthAdjust="spacing" textLength="119" x="504.5" y="798.5566">:AgencyRepository</text><rect fill="#E3E3E3" height="49.2188" rx="2.5" ry="2.5" style="stroke:#181818;stroke-width:0.5;" width="65" x="716.5" y="5"/><text fill="#000000" font-family="sans-serif" font-size="14" lengthAdjust="spacing" textLength="46" x="726" y="26.5332">agency</text><text fill="#000000" font-family="sans-serif" font-size="14" lengthAdjust="spacing" textLength="51" x="723.5" y="44.1426">:Agency</text><rect fill="#E3E3E3" height="49.2188" rx="2.5" ry="2.5" style="stroke:#181818;stroke-width:0.5;" width="65" x="716.5" y="759.4141"/><text fill="#000000" font-family="sans-serif" font-size="14" lengthAdjust="spacing" textLength="46" x="726" y="780.9473">agency</text><text fill="#000000" font-family="sans-serif" font-size="14" lengthAdjust="spacing" textLength="51" x="723.5" y="798.5566">:Agency</text><rect fill="#E3E3E3" height="49.2188" rx="2.5" ry="2.5" style="stroke:#181818;stroke-width:0.5;" width="135" x="934.5" y="5"/><text fill="#000000" font-family="sans-serif" font-size="14" lengthAdjust="spacing" textLength="116" x="944" y="26.5332">announcementList</text><text fill="#000000" font-family="sans-serif" font-size="14" lengthAdjust="spacing" textLength="121" x="941.5" y="44.1426">:AnnouncementList</text><rect fill="#E3E3E3" height="49.2188" rx="2.5" ry="2.5" style="stroke:#181818;stroke-width:0.5;" width="135" x="934.5" y="759.4141"/><text fill="#000000" font-family="sans-serif" font-size="14" lengthAdjust="spacing" textLength="116" x="944" y="780.9473">announcementList</text><text fill="#000000" font-family="sans-serif" font-size="14" lengthAdjust="spacing" textLength="121" x="941.5" y="798.5566">:AnnouncementList</text><rect fill="#E3E3E3" height="49.2188" rx="2.5" ry="2.5" style="stroke:#181818;stroke-width:0.5;" width="155" x="1079.5" y="759.4141"/><text fill="#000000" font-family="sans-serif" font-size="14" lengthAdjust="spacing" textLength="119" x="1097.5" y="780.9473">listAnnouncements</text><text fill="#000000" font-family="sans-serif" font-size="14" lengthAdjust="spacing" textLength="141" x="1086.5" y="798.5566">: List&lt;Announcement&gt;</text><rect fill="#FFFFFF" height="654.8438" style="stroke:#181818;stroke-width:1.0;" width="10" x="186" y="87.5703"/><rect fill="#FFFFFF" height="30.3516" style="stroke:#181818;stroke-width:1.0;" width="10" x="327" y="143.2734"/><rect fill="#FFFFFF" height="30.3516" style="stroke:#181818;stroke-width:1.0;" width="10" x="434" y="203.9766"/><rect fill="#FFFFFF" height="422.3828" style="stroke:#181818;stroke-width:1.0;" width="10" x="559" y="289.6797"/><rect fill="#FFFFFF" height="91.0547" style="stroke:#181818;stroke-width:1.0;" width="10" x="744" y="405.6016"/><rect fill="#FFFFFF" height="30.3516" style="stroke:#181818;stroke-width:1.0;" width="10" x="997" y="435.9531"/><rect fill="#FFFFFF" height="30.3516" style="stroke:#181818;stroke-width:1.0;" width="10" x="997" y="619.3594"/><rect fill="#FFFFFF" height="30" style="stroke:#181818;stroke-width:1.0;" width="10" x="1152" y="527.0078"/><polygon fill="#181818" points="174,83.5703,184,87.5703,174,91.5703,178,87.5703" style="stroke:#181818;stroke-width:1.0;"/><line style="stroke:#181818;stroke-width:1.0;" x1="0" x2="180" y1="87.5703" y2="87.5703"/><text fill="#000000" font-family="sans-serif" font-size="13" font-weight="bold" lengthAdjust="spacing" textLength="7" x="7" y="82.7139">4</text><text fill="#000000" font-family="sans-serif" font-size="13" lengthAdjust="spacing" textLength="156" x="18" y="82.7139">getAllAnnouncementsList()</text><path d="M98.5,102.5703 L297.5,102.5703 L297.5,110.9219 L287.5,120.9219 L98.5,120.9219 L98.5,102.5703 " fill="#EEEEEE" style="stroke:#000000;stroke-width:1.5;"/><rect fill="none" height="580.1406" style="stroke:#000000;stroke-width:1.5;" width="1156" x="98.5" y="102.5703"/><text fill="#000000" font-family="sans-serif" font-size="13" font-weight="bold" lengthAdjust="spacing" textLength="154" x="113.5" y="117.0654">Get Announcements List</text><polygon fill="#181818" points="315,139.2734,325,143.2734,315,147.2734,319,143.2734" style="stroke:#181818;stroke-width:1.0;"/><line style="stroke:#181818;stroke-width:1.0;" x1="196" x2="321" y1="143.2734" y2="143.2734"/><text fill="#000000" font-family="sans-serif" font-size="13" font-weight="bold" lengthAdjust="spacing" textLength="18" x="203" y="138.417">4.1</text><text fill="#000000" font-family="sans-serif" font-size="13" lengthAdjust="spacing" textLength="75" x="225" y="138.417">getInstance()</text><polygon fill="#181818" points="207,169.625,197,173.625,207,177.625,203,173.625" style="stroke:#181818;stroke-width:1.0;"/><line style="stroke:#181818;stroke-width:1.0;stroke-dasharray:2.0,2.0;" x1="201" x2="331" y1="173.625" y2="173.625"/><text fill="#000000" font-family="sans-serif" font-size="13" font-weight="bold" lengthAdjust="spacing" textLength="18" x="213" y="168.7686">4.2</text><text fill="#000000" font-family="sans-serif" font-size="13" lengthAdjust="spacing" textLength="67" x="235" y="168.7686">repositories</text><polygon fill="#181818" points="422,199.9766,432,203.9766,422,207.9766,426,203.9766" style="stroke:#181818;stroke-width:1.0;"/><line style="stroke:#181818;stroke-width:1.0;" x1="196" x2="428" y1="203.9766" y2="203.9766"/><text fill="#000000" font-family="sans-serif" font-size="13" font-weight="bold" lengthAdjust="spacing" textLength="18" x="203" y="199.1201">4.3</text><text fill="#000000" font-family="sans-serif" font-size="13" lengthAdjust="spacing" textLength="132" x="225" y="199.1201">getAgencyRepository()</text><polygon fill="#181818" points="207,230.3281,197,234.3281,207,238.3281,203,234.3281" style="stroke:#181818;stroke-width:1.0;"/><line style="stroke:#181818;stroke-width:1.0;" x1="201" x2="438" y1="234.3281" y2="234.3281"/><text fill="#000000" font-family="sans-serif" font-size="13" font-weight="bold" lengthAdjust="spacing" textLength="18" x="213" y="229.4717">4.4</text><text fill="#000000" font-family="sans-serif" font-size="13" lengthAdjust="spacing" textLength="104" x="235" y="229.4717">agencyRepository</text><polygon fill="#181818" points="547,285.6797,557,289.6797,547,293.6797,551,289.6797" style="stroke:#181818;stroke-width:1.0;"/><line style="stroke:#181818;stroke-width:1.0;" x1="196" x2="553" y1="289.6797" y2="289.6797"/><text fill="#000000" font-family="sans-serif" font-size="13" font-weight="bold" lengthAdjust="spacing" textLength="18" x="203" y="284.8232">4.5</text><text fill="#000000" font-family="sans-serif" font-size="13" lengthAdjust="spacing" textLength="156" x="225" y="284.8232">getAllAnnouncementsList()</text><polygon fill="#181818" points="1067.5,316.0313,1077.5,320.0313,1067.5,324.0313,1071.5,320.0313" style="stroke:#181818;stroke-width:1.0;"/><line style="stroke:#181818;stroke-width:1.0;" x1="569" x2="1073.5" y1="320.0313" y2="320.0313"/><text fill="#000000" font-family="sans-serif" font-size="13" font-weight="bold" lengthAdjust="spacing" textLength="18" x="576" y="315.1748">4.6</text><text fill="#000000" font-family="sans-serif" font-size="13" lengthAdjust="spacing" textLength="134" x="598" y="315.1748">listToDisplay = create()</text><rect fill="#E3E3E3" height="49.2188" rx="2.5" ry="2.5" style="stroke:#181818;stroke-width:0.5;" width="155" x="1079.5" y="297.6797"/><text fill="#000000" font-family="sans-serif" font-size="14" lengthAdjust="spacing" textLength="119" x="1097.5" y="319.2129">listAnnouncements</text><text fill="#000000" font-family="sans-serif" font-size="14" lengthAdjust="spacing" textLength="141" x="1086.5" y="336.8223">: List&lt;Announcement&gt;</text><path d="M487.5,364.8984 L560.5,364.8984 L560.5,373.25 L550.5,383.25 L487.5,383.25 L487.5,364.8984 " fill="#EEEEEE" style="stroke:#000000;stroke-width:1.5;"/><rect fill="none" height="225.1094" style="stroke:#000000;stroke-width:1.5;" width="757" x="487.5" y="364.8984"/><text fill="#000000" font-family="sans-serif" font-size="13" font-weight="bold" lengthAdjust="spacing" textLength="28" x="502.5" y="379.3936">loop</text><text fill="#000000" font-family="sans-serif" font-size="11" font-weight="bold" lengthAdjust="spacing" textLength="92" x="575.5" y="378.3174">[for all agencies]</text><polygon fill="#181818" points="732,401.6016,742,405.6016,732,409.6016,736,405.6016" style="stroke:#181818;stroke-width:1.0;"/><line style="stroke:#181818;stroke-width:1.0;" x1="569" x2="738" y1="405.6016" y2="405.6016"/><text fill="#000000" font-family="sans-serif" font-size="13" font-weight="bold" lengthAdjust="spacing" textLength="18" x="576" y="400.7451">4.7</text><text fill="#000000" font-family="sans-serif" font-size="13" lengthAdjust="spacing" textLength="134" x="598" y="400.7451">getAnnouncementList()</text><polygon fill="#181818" points="985,431.9531,995,435.9531,985,439.9531,989,435.9531" style="stroke:#181818;stroke-width:1.0;"/><line style="stroke:#181818;stroke-width:1.0;" x1="754" x2="991" y1="435.9531" y2="435.9531"/><text fill="#000000" font-family="sans-serif" font-size="13" font-weight="bold" lengthAdjust="spacing" textLength="18" x="761" y="431.0967">4.8</text><text fill="#000000" font-family="sans-serif" font-size="13" lengthAdjust="spacing" textLength="134" x="783" y="431.0967">getAnnouncementList()</text><polygon fill="#181818" points="765,462.3047,755,466.3047,765,470.3047,761,466.3047" style="stroke:#181818;stroke-width:1.0;"/><line style="stroke:#181818;stroke-width:1.0;stroke-dasharray:2.0,2.0;" x1="759" x2="1001" y1="466.3047" y2="466.3047"/><text fill="#000000" font-family="sans-serif" font-size="13" font-weight="bold" lengthAdjust="spacing" textLength="18" x="771" y="461.4482">4.9</text><text fill="#000000" font-family="sans-serif" font-size="13" lengthAdjust="spacing" textLength="106" x="793" y="461.4482">announcementList</text><polygon fill="#181818" points="580,492.6563,570,496.6563,580,500.6563,576,496.6563" style="stroke:#181818;stroke-width:1.0;"/><line style="stroke:#181818;stroke-width:1.0;stroke-dasharray:2.0,2.0;" x1="574" x2="748" y1="496.6563" y2="496.6563"/><text fill="#000000" font-family="sans-serif" font-size="13" font-weight="bold" lengthAdjust="spacing" textLength="25" x="586" y="491.7998">4.10</text><text fill="#000000" font-family="sans-serif" font-size="13" lengthAdjust="spacing" textLength="106" x="615" y="491.7998">announcementList</text><polygon fill="#181818" points="1140,523.0078,1150,527.0078,1140,531.0078,1144,527.0078" style="stroke:#181818;stroke-width:1.0;"/><line style="stroke:#181818;stroke-width:1.0;" x1="569" x2="1146" y1="527.0078" y2="527.0078"/><text fill="#000000" font-family="sans-serif" font-size="13" font-weight="bold" lengthAdjust="spacing" textLength="25" x="576" y="522.1514">4.11</text><text fill="#000000" font-family="sans-serif" font-size="13" lengthAdjust="spacing" textLength="150" x="605" y="522.1514">addAll(announcementList)</text><polygon fill="#181818" points="985,615.3594,995,619.3594,985,623.3594,989,619.3594" style="stroke:#181818;stroke-width:1.0;"/><line style="stroke:#181818;stroke-width:1.0;" x1="569" x2="991" y1="619.3594" y2="619.3594"/><text fill="#000000" font-family="sans-serif" font-size="13" font-weight="bold" lengthAdjust="spacing" textLength="25" x="576" y="614.5029">4.12</text><text fill="#000000" font-family="sans-serif" font-size="13" lengthAdjust="spacing" textLength="380" x="605" y="614.5029">sortAnnouncementsByMostRecentAcceptanceDate(listToDisplay)</text><polygon fill="#181818" points="580,645.7109,570,649.7109,580,653.7109,576,649.7109" style="stroke:#181818;stroke-width:1.0;"/><line style="stroke:#181818;stroke-width:1.0;stroke-dasharray:2.0,2.0;" x1="574" x2="1001" y1="649.7109" y2="649.7109"/><text fill="#000000" font-family="sans-serif" font-size="13" font-weight="bold" lengthAdjust="spacing" textLength="25" x="586" y="644.8545">4.13</text><text fill="#000000" font-family="sans-serif" font-size="13" lengthAdjust="spacing" textLength="74" x="615" y="644.8545">listToDisplay</text><polygon fill="#181818" points="207,708.0625,197,712.0625,207,716.0625,203,712.0625" style="stroke:#181818;stroke-width:1.0;"/><line style="stroke:#181818;stroke-width:1.0;stroke-dasharray:2.0,2.0;" x1="201" x2="563" y1="712.0625" y2="712.0625"/><text fill="#000000" font-family="sans-serif" font-size="13" font-weight="bold" lengthAdjust="spacing" textLength="25" x="213" y="707.2061">4.14</text><text fill="#000000" font-family="sans-serif" font-size="13" lengthAdjust="spacing" textLength="74" x="242" y="707.2061">listToDisplay</text><polygon fill="#181818" points="11,738.4141,1,742.4141,11,746.4141,7,742.4141" style="stroke:#181818;stroke-width:1.0;"/><line style="stroke:#181818;stroke-width:1.0;stroke-dasharray:2.0,2.0;" x1="5" x2="190" y1="742.4141" y2="742.4141"/><text fill="#000000" font-family="sans-serif" font-size="13" font-weight="bold" lengthAdjust="spacing" textLength="7" x="17" y="737.5576">5</text><text fill="#000000" font-family="sans-serif" font-size="13" lengthAdjust="spacing" textLength="74" x="28" y="737.5576">listToDisplay</text><!--SRC=[fLHDQzmm4BtxLmmvfO4j5DfBI0Ek0ql0XR9UUkf5bITU4LaoajnYs1zVITxOakpD9jGtZ-QzUVEfdvdeY28jj598Ub2oHJ2gnqnFBnsXpwJ1oWmSGI4rH3GyTD07Kik_J3JmHBZ6BCkitJ3AEY8CNDrMz81rp_4dqymKKXWbEKTr1KH3iT-LYViEEsaTfMAelSza62hcGXifOeWA4B_4ak17cUzZXCr7q64cjgWyCNbaQbnZcR0ZObiaJaB8Nb1iKPYIQUFS4vC7be_LlYZpgehXtBw7_Yv1SA2xq7e_nZvPtBFj0kbjfVhsDohud6MmkVVLXbjeqEISHwmESlt1OgXXVuZ1iJ4Ps2-a-VXfj3LAzXriqK340cDaE7q-d0sxqi1HnQFGTfeekiWle4d1MjidB_UjqMxcBCEfc70rlet_HReRdLF5ab5OrUmdBHBf2MPHwU1bQyeyo_5uNAX9DRpQouMu_6pi1Q-B5GpJpOsDv2PnBn-OxZWPu2jGXPOrA0ENieCdgO1mFYRgAX-NOpNIjZWbakn5a4ISYDsncDKoMA9fXTv7DszUzEw-cN4p2KqNEW85NNo5rkjTx-TRsPSrkD13nrtNTbQkqn3dgXnUatCgGfzWOb7KVXmkImnxfgMARzstuRlKPeVK_kIKOkUlnOCRksWQ_xknopv4_9TR76whIzuVo4lPpsTXFLfOwCNkfhVvYpVSRJOZvu8q81jl-py0]--></g></svg>