<?xml version="1.0" encoding="UTF-8" standalone="no"?><svg xmlns="http://www.w3.org/2000/svg" xmlns:xlink="http://www.w3.org/1999/xlink" contentStyleType="text/css" height="368px" preserveAspectRatio="none" style="width:749px;height:368px;background:#FFFFFF;" version="1.1" viewBox="0 0 749 368" width="749px" zoomAndPan="magnify"><defs/><g><rect fill="#FFFFFF" height="209.1094" style="stroke:#181818;stroke-width:1.0;" width="10" x="281" y="87.5703"/><rect fill="#FFFFFF" height="91.0547" style="stroke:#181818;stroke-width:1.0;" width="10" x="533" y="168.2734"/><rect fill="#FFFFFF" height="30.3516" style="stroke:#181818;stroke-width:1.0;" width="10" x="685" y="198.625"/><rect fill="none" height="164.7578" style="stroke:#000000;stroke-width:1.5;" width="549.5" x="193.5" y="102.5703"/><line style="stroke:#181818;stroke-width:0.5;stroke-dasharray:5.0,5.0;" x1="285.5" x2="285.5" y1="55.2188" y2="314.6797"/><line style="stroke:#181818;stroke-width:0.5;stroke-dasharray:5.0,5.0;" x1="538" x2="538" y1="55.2188" y2="314.6797"/><line style="stroke:#181818;stroke-width:0.5;stroke-dasharray:5.0,5.0;" x1="690" x2="690" y1="55.2188" y2="314.6797"/><rect fill="#E3E3E3" height="31.6094" rx="2.5" ry="2.5" style="stroke:#181818;stroke-width:0.5;" width="165" x="203.5" y="22.6094"/><text fill="#000000" font-family="sans-serif" font-size="14" lengthAdjust="spacing" textLength="151" x="210.5" y="44.1426">:ScheduleVisitController</text><rect fill="#E3E3E3" height="31.6094" rx="2.5" ry="2.5" style="stroke:#181818;stroke-width:0.5;" width="165" x="203.5" y="313.6797"/><text fill="#000000" font-family="sans-serif" font-size="14" lengthAdjust="spacing" textLength="151" x="210.5" y="335.2129">:ScheduleVisitController</text><rect fill="#E3E3E3" height="31.6094" rx="2.5" ry="2.5" style="stroke:#181818;stroke-width:0.5;" width="112" x="482" y="22.6094"/><text fill="#000000" font-family="sans-serif" font-size="14" lengthAdjust="spacing" textLength="98" x="489" y="44.1426">:CriteriaMapper</text><rect fill="#E3E3E3" height="31.6094" rx="2.5" ry="2.5" style="stroke:#181818;stroke-width:0.5;" width="112" x="482" y="313.6797"/><text fill="#000000" font-family="sans-serif" font-size="14" lengthAdjust="spacing" textLength="98" x="489" y="335.2129">:CriteriaMapper</text><rect fill="#E3E3E3" height="49.2188" rx="2.5" ry="2.5" style="stroke:#181818;stroke-width:0.5;" width="86" x="647" y="5"/><text fill="#000000" font-family="sans-serif" font-size="14" lengthAdjust="spacing" textLength="65" x="657.5" y="26.5332">criteriaDto</text><text fill="#000000" font-family="sans-serif" font-size="14" lengthAdjust="spacing" textLength="72" x="654" y="44.1426">:CriteriaDto</text><rect fill="#E3E3E3" height="49.2188" rx="2.5" ry="2.5" style="stroke:#181818;stroke-width:0.5;" width="86" x="647" y="313.6797"/><text fill="#000000" font-family="sans-serif" font-size="14" lengthAdjust="spacing" textLength="65" x="657.5" y="335.2129">criteriaDto</text><text fill="#000000" font-family="sans-serif" font-size="14" lengthAdjust="spacing" textLength="72" x="654" y="352.8223">:CriteriaDto</text><rect fill="#FFFFFF" height="209.1094" style="stroke:#181818;stroke-width:1.0;" width="10" x="281" y="87.5703"/><rect fill="#FFFFFF" height="91.0547" style="stroke:#181818;stroke-width:1.0;" width="10" x="533" y="168.2734"/><rect fill="#FFFFFF" height="30.3516" style="stroke:#181818;stroke-width:1.0;" width="10" x="685" y="198.625"/><polygon fill="#181818" points="269,83.5703,279,87.5703,269,91.5703,273,87.5703" style="stroke:#181818;stroke-width:1.0;"/><line style="stroke:#181818;stroke-width:1.0;" x1="0" x2="275" y1="87.5703" y2="87.5703"/><text fill="#000000" font-family="sans-serif" font-size="13" font-weight="bold" lengthAdjust="spacing" textLength="14" x="7" y="82.7139">20</text><text fill="#000000" font-family="sans-serif" font-size="13" lengthAdjust="spacing" textLength="244" x="25" y="82.7139">getDesignationFromDto(businessTypeDto)</text><path d="M193.5,102.5703 L454.5,102.5703 L454.5,110.9219 L444.5,120.9219 L193.5,120.9219 L193.5,102.5703 " fill="#EEEEEE" style="stroke:#000000;stroke-width:1.5;"/><rect fill="none" height="164.7578" style="stroke:#000000;stroke-width:1.5;" width="549.5" x="193.5" y="102.5703"/><text fill="#000000" font-family="sans-serif" font-size="13" font-weight="bold" lengthAdjust="spacing" textLength="216" x="208.5" y="117.0654">Get Designation from Criteria DTO</text><polygon fill="#181818" points="521,164.2734,531,168.2734,521,172.2734,525,168.2734" style="stroke:#181818;stroke-width:1.0;"/><line style="stroke:#181818;stroke-width:1.0;" x1="291" x2="527" y1="168.2734" y2="168.2734"/><text fill="#000000" font-family="sans-serif" font-size="13" font-weight="bold" lengthAdjust="spacing" textLength="25" x="298" y="163.417">20.1</text><text fill="#000000" font-family="sans-serif" font-size="13" lengthAdjust="spacing" textLength="194" x="327" y="163.417">getDesignation(businessTypeDto)</text><polygon fill="#181818" points="673,194.625,683,198.625,673,202.625,677,198.625" style="stroke:#181818;stroke-width:1.0;"/><line style="stroke:#181818;stroke-width:1.0;" x1="543" x2="679" y1="198.625" y2="198.625"/><text fill="#000000" font-family="sans-serif" font-size="13" font-weight="bold" lengthAdjust="spacing" textLength="25" x="550" y="193.7686">20.2</text><text fill="#000000" font-family="sans-serif" font-size="13" lengthAdjust="spacing" textLength="94" x="579" y="193.7686">getDesignation()</text><polygon fill="#181818" points="554,224.9766,544,228.9766,554,232.9766,550,228.9766" style="stroke:#181818;stroke-width:1.0;"/><line style="stroke:#181818;stroke-width:1.0;stroke-dasharray:2.0,2.0;" x1="548" x2="689" y1="228.9766" y2="228.9766"/><text fill="#000000" font-family="sans-serif" font-size="13" font-weight="bold" lengthAdjust="spacing" textLength="25" x="560" y="224.1201">20.3</text><text fill="#000000" font-family="sans-serif" font-size="13" lengthAdjust="spacing" textLength="66" x="589" y="224.1201">designation</text><polygon fill="#181818" points="302,255.3281,292,259.3281,302,263.3281,298,259.3281" style="stroke:#181818;stroke-width:1.0;"/><line style="stroke:#181818;stroke-width:1.0;stroke-dasharray:2.0,2.0;" x1="296" x2="537" y1="259.3281" y2="259.3281"/><text fill="#000000" font-family="sans-serif" font-size="13" font-weight="bold" lengthAdjust="spacing" textLength="25" x="308" y="254.4717">20.4</text><text fill="#000000" font-family="sans-serif" font-size="13" lengthAdjust="spacing" textLength="66" x="337" y="254.4717">designation</text><polygon fill="#181818" points="11,292.6797,1,296.6797,11,300.6797,7,296.6797" style="stroke:#181818;stroke-width:1.0;"/><line style="stroke:#181818;stroke-width:1.0;stroke-dasharray:2.0,2.0;" x1="5" x2="285" y1="296.6797" y2="296.6797"/><text fill="#000000" font-family="sans-serif" font-size="13" font-weight="bold" lengthAdjust="spacing" textLength="14" x="17" y="291.8232">21</text><text fill="#000000" font-family="sans-serif" font-size="13" lengthAdjust="spacing" textLength="66" x="35" y="291.8232">designation</text><!--SRC=[PP7DJiCm48JlVefLJt080euLGa99uK95rLQSk6oTRMeriIrx0whKXyTraZO_kNazy-ruuezAMtHOGMMqaGTdAW9sDGb_lR4eZrZGXaybWIF9g8koB_07pCsVqWNiiVGaX0XpLb9Pr0op-KOUAAzB-bPUSMeqErEMv6Q07jBj-dCaJvrYSWgNQ6shMhwjLelrK2TRMSRcHrzDuHGTsVPB2ApPwBhQaOFdHo4WUOtxO0u5SKPU5HfP6VqUdXsCTxlQAqtURq-Mmla-42IhNsHgSWe8tm3wyDGC2sTg2n_4qCF2Fd2XInOZdS_dg8ynGfpcOPD0qoHnSnUchKCqkrj6e8KDKzJ86ukvJ2xYf1yXlvcY8AUXQR3iLcNVDlPrGIzZqdbJqxJ6jiIN96cW8seF67_3Fm00]--></g></svg>