<?xml version="1.0" encoding="UTF-8" standalone="no"?><svg xmlns="http://www.w3.org/2000/svg" xmlns:xlink="http://www.w3.org/1999/xlink" contentStyleType="text/css" height="494px" preserveAspectRatio="none" style="width:807px;height:494px;background:#FFFFFF;" version="1.1" viewBox="0 0 807 494" width="807px" zoomAndPan="magnify"><defs/><g><rect fill="#FFFFFF" height="343.2969" style="stroke:#181818;stroke-width:1.0;" width="10" x="383" y="87.5703"/><rect fill="#FFFFFF" height="334.2969" style="stroke:#181818;stroke-width:1.0;" width="10" x="383" y="87.5703"/><rect fill="#FFFFFF" height="41.3516" style="stroke:#181818;stroke-width:1.0;" width="10" x="388" y="176.625"/><rect fill="#FFFFFF" height="41.3516" style="stroke:#181818;stroke-width:1.0;" width="10" x="388" y="279.1641"/><rect fill="none" height="289.9453" style="stroke:#000000;stroke-width:1.5;" width="472.5" x="328.5" y="102.5703"/><rect fill="none" height="232.5938" style="stroke:#000000;stroke-width:1.5;" width="452.5" x="338.5" y="127.9219"/><line style="stroke:#181818;stroke-width:0.5;stroke-dasharray:5.0,5.0;" x1="382.5" x2="382.5" y1="55.2188" y2="439.8672"/><rect fill="#E3E3E3" height="49.2188" rx="2.5" ry="2.5" style="stroke:#181818;stroke-width:0.5;" width="69" x="348.5" y="5"/><text fill="#000000" font-family="sans-serif" font-size="14" lengthAdjust="spacing" textLength="46" x="360" y="26.5332">agency</text><text fill="#000000" font-family="sans-serif" font-size="14" lengthAdjust="spacing" textLength="55" x="355.5" y="44.1426">: Agency</text><rect fill="#E3E3E3" height="49.2188" rx="2.5" ry="2.5" style="stroke:#181818;stroke-width:0.5;" width="69" x="348.5" y="438.8672"/><text fill="#000000" font-family="sans-serif" font-size="14" lengthAdjust="spacing" textLength="46" x="360" y="460.4004">agency</text><text fill="#000000" font-family="sans-serif" font-size="14" lengthAdjust="spacing" textLength="55" x="355.5" y="478.0098">: Agency</text><rect fill="#FFFFFF" height="343.2969" style="stroke:#181818;stroke-width:1.0;" width="10" x="383" y="87.5703"/><rect fill="#FFFFFF" height="334.2969" style="stroke:#181818;stroke-width:1.0;" width="10" x="383" y="87.5703"/><rect fill="#FFFFFF" height="41.3516" style="stroke:#181818;stroke-width:1.0;" width="10" x="388" y="176.625"/><rect fill="#FFFFFF" height="41.3516" style="stroke:#181818;stroke-width:1.0;" width="10" x="388" y="279.1641"/><polygon fill="#181818" points="366,83.5703,376,87.5703,366,91.5703,370,87.5703" style="stroke:#181818;stroke-width:1.0;"/><line style="stroke:#181818;stroke-width:1.0;" x1="0" x2="372" y1="87.5703" y2="87.5703"/><text fill="#000000" font-family="sans-serif" font-size="13" font-weight="bold" lengthAdjust="spacing" textLength="14" x="7" y="82.7139">59</text><text fill="#000000" font-family="sans-serif" font-size="13" lengthAdjust="spacing" textLength="341" x="25" y="82.7139">sortAnnouncements(state, typeSorting, announcementList)</text><path d="M328.5,102.5703 L562.5,102.5703 L562.5,110.9219 L552.5,120.9219 L328.5,120.9219 L328.5,102.5703 " fill="#EEEEEE" style="stroke:#000000;stroke-width:1.5;"/><rect fill="none" height="289.9453" style="stroke:#000000;stroke-width:1.5;" width="472.5" x="328.5" y="102.5703"/><text fill="#000000" font-family="sans-serif" font-size="13" font-weight="bold" lengthAdjust="spacing" textLength="189" x="343.5" y="117.0654">Sort Announcements By State</text><path d="M338.5,127.9219 L399.5,127.9219 L399.5,136.2734 L389.5,146.2734 L338.5,146.2734 L338.5,127.9219 " fill="#EEEEEE" style="stroke:#000000;stroke-width:1.5;"/><rect fill="none" height="232.5938" style="stroke:#000000;stroke-width:1.5;" width="452.5" x="338.5" y="127.9219"/><text fill="#000000" font-family="sans-serif" font-size="13" font-weight="bold" lengthAdjust="spacing" textLength="16" x="353.5" y="142.417">alt</text><text fill="#000000" font-family="sans-serif" font-size="11" font-weight="bold" lengthAdjust="spacing" textLength="96" x="414.5" y="141.3408">[ascending state]</text><line style="stroke:#181818;stroke-width:1.0;" x1="393" x2="440" y1="163.625" y2="163.625"/><line style="stroke:#181818;stroke-width:1.0;" x1="440" x2="440" y1="163.625" y2="176.625"/><line style="stroke:#181818;stroke-width:1.0;" x1="399" x2="440" y1="176.625" y2="176.625"/><polygon fill="#181818" points="409,172.625,399,176.625,409,180.625,405,176.625" style="stroke:#181818;stroke-width:1.0;"/><text fill="#000000" font-family="sans-serif" font-size="13" font-weight="bold" lengthAdjust="spacing" textLength="25" x="405" y="158.7686">59.1</text><text fill="#000000" font-family="sans-serif" font-size="13" lengthAdjust="spacing" textLength="338" x="434" y="158.7686">sortAnnouncementsByAscendingState(announcementList)</text><line style="stroke:#181818;stroke-width:1.0;stroke-dasharray:2.0,2.0;" x1="398" x2="440" y1="216.9766" y2="216.9766"/><line style="stroke:#181818;stroke-width:1.0;stroke-dasharray:2.0,2.0;" x1="440" x2="440" y1="216.9766" y2="229.9766"/><line style="stroke:#181818;stroke-width:1.0;stroke-dasharray:2.0,2.0;" x1="393" x2="440" y1="229.9766" y2="229.9766"/><polygon fill="#181818" points="403,225.9766,393,229.9766,403,233.9766,399,229.9766" style="stroke:#181818;stroke-width:1.0;"/><text fill="#000000" font-family="sans-serif" font-size="13" font-weight="bold" lengthAdjust="spacing" textLength="25" x="405" y="212.1201">59.2</text><text fill="#000000" font-family="sans-serif" font-size="13" lengthAdjust="spacing" textLength="106" x="434" y="212.1201">announcementList</text><line style="stroke:#000000;stroke-width:1.0;stroke-dasharray:2.0,2.0;" x1="338.5" x2="791" y1="233.9766" y2="233.9766"/><text fill="#000000" font-family="sans-serif" font-size="11" font-weight="bold" lengthAdjust="spacing" textLength="104" x="343.5" y="245.3955">[descending state]</text><line style="stroke:#181818;stroke-width:1.0;" x1="393" x2="440" y1="266.1641" y2="266.1641"/><line style="stroke:#181818;stroke-width:1.0;" x1="440" x2="440" y1="266.1641" y2="279.1641"/><line style="stroke:#181818;stroke-width:1.0;" x1="399" x2="440" y1="279.1641" y2="279.1641"/><polygon fill="#181818" points="409,275.1641,399,279.1641,409,283.1641,405,279.1641" style="stroke:#181818;stroke-width:1.0;"/><text fill="#000000" font-family="sans-serif" font-size="13" font-weight="bold" lengthAdjust="spacing" textLength="25" x="405" y="261.3076">59.3</text><text fill="#000000" font-family="sans-serif" font-size="13" lengthAdjust="spacing" textLength="345" x="434" y="261.3076">sortAnnouncementsByDescendingState(announcementList)</text><line style="stroke:#181818;stroke-width:1.0;stroke-dasharray:2.0,2.0;" x1="398" x2="440" y1="319.5156" y2="319.5156"/><line style="stroke:#181818;stroke-width:1.0;stroke-dasharray:2.0,2.0;" x1="440" x2="440" y1="319.5156" y2="332.5156"/><line style="stroke:#181818;stroke-width:1.0;stroke-dasharray:2.0,2.0;" x1="393" x2="440" y1="332.5156" y2="332.5156"/><polygon fill="#181818" points="403,328.5156,393,332.5156,403,336.5156,399,332.5156" style="stroke:#181818;stroke-width:1.0;"/><text fill="#000000" font-family="sans-serif" font-size="13" font-weight="bold" lengthAdjust="spacing" textLength="25" x="405" y="314.6592">59.4</text><text fill="#000000" font-family="sans-serif" font-size="13" lengthAdjust="spacing" textLength="106" x="434" y="314.6592">announcementList</text><polygon fill="#181818" points="11,417.8672,1,421.8672,11,425.8672,7,421.8672" style="stroke:#181818;stroke-width:1.0;"/><line style="stroke:#181818;stroke-width:1.0;stroke-dasharray:2.0,2.0;" x1="5" x2="377" y1="421.8672" y2="421.8672"/><text fill="#000000" font-family="sans-serif" font-size="13" font-weight="bold" lengthAdjust="spacing" textLength="14" x="17" y="417.0107">60</text><text fill="#000000" font-family="sans-serif" font-size="13" lengthAdjust="spacing" textLength="106" x="35" y="417.0107">announcementList</text><!--SRC=[pLB1IiGm4BtdAuOzhR0LFIYuYD1LyI9UUXAyZDcn6xQTb6Ig5FhnfdLTKbjwsOjpcinxyruUYTyRhj1X2QLbgtVEbWJYQbB-Y5IezvXJ9ar1u4WBSbx41B_3hVqodCC75fwK2cCnsbJ80ekmohfvupMaVRS0z90-FRxSlog5jLYkotToS7MZahi306lmradAR6lML1ABNtf1eHL8Kr4MmE2t0emOpyRBcK8jvZCGfotEBqS429KxMrVGgSB04pODP9sjwcbTOI4XW2RUTe7z4Epga60sowP9VoLw-UKuHomvoZJb5nl-bHiiR6bMZy8J1ixf4H_eNsPis_ROX-kfUDQT-oRwDDSNFwFR99andp3y1W00]--></g></svg>