<?xml version="1.0" encoding="UTF-8" standalone="no"?><svg xmlns="http://www.w3.org/2000/svg" xmlns:xlink="http://www.w3.org/1999/xlink" contentStyleType="text/css" height="596px" preserveAspectRatio="none" style="width:1152px;height:596px;background:#FFFFFF;" version="1.1" viewBox="0 0 1152 596" width="1152px" zoomAndPan="magnify"><defs/><g><!--class DisplayPropertiesUI--><g id="elem_DisplayPropertiesUI"><rect codeLine="9" fill="#F1F1F1" height="65.6094" id="DisplayPropertiesUI" rx="2.5" ry="2.5" style="stroke:#181818;stroke-width:0.5;" width="155" x="137.5" y="15.5"/><ellipse cx="152.5" cy="31.5" fill="#ADD1B2" rx="11" ry="11" style="stroke:#181818;stroke-width:1.0;"/><path d="M155.2656,27.375 Q155.4219,27.1563 155.6094,27.0469 Q155.7969,26.9375 156.0156,26.9375 Q156.3906,26.9375 156.625,27.2031 Q156.8594,27.4531 156.8594,28.0625 L156.8594,29.5156 Q156.8594,30.125 156.625,30.3906 Q156.3906,30.6563 156.0156,30.6563 Q155.6719,30.6563 155.4688,30.4531 Q155.2656,30.2656 155.1563,29.75 Q155.1094,29.3906 154.9219,29.2031 Q154.5938,28.8281 153.9844,28.6094 Q153.375,28.3906 152.75,28.3906 Q151.9844,28.3906 151.3438,28.7188 Q150.7188,29.0469 150.2188,29.7969 Q149.7344,30.5469 149.7344,31.5781 L149.7344,32.6719 Q149.7344,33.9063 150.625,34.7344 Q151.5156,35.5469 153.1094,35.5469 Q154.0469,35.5469 154.7031,35.2969 Q155.0938,35.1406 155.5156,34.7031 Q155.7813,34.4375 155.9219,34.3594 Q156.0781,34.2813 156.2813,34.2813 Q156.6094,34.2813 156.8594,34.5469 Q157.125,34.7969 157.125,35.1406 Q157.125,35.4844 156.7813,35.8906 Q156.2813,36.4688 155.4844,36.7969 Q154.4063,37.25 153.1094,37.25 Q151.5938,37.25 150.3906,36.625 Q149.4063,36.125 148.7188,35.0625 Q148.0313,33.9844 148.0313,32.7031 L148.0313,31.5469 Q148.0313,30.2188 148.6406,29.0781 Q149.2656,27.9219 150.3594,27.3125 Q151.4531,26.6875 152.6875,26.6875 Q153.4219,26.6875 154.0625,26.8594 Q154.7188,27.0156 155.2656,27.375 Z " fill="#000000"/><text fill="#000000" font-family="sans-serif" font-size="14" lengthAdjust="spacing" textLength="123" x="166.5" y="37.2285">DisplayPropertiesUI</text><line style="stroke:#181818;stroke-width:0.5;" x1="138.5" x2="291.5" y1="47.5" y2="47.5"/><text fill="#000000" font-family="sans-serif" font-size="14" lengthAdjust="spacing" textLength="73" x="143.5" y="66.0332">+sortingList</text><line style="stroke:#181818;stroke-width:0.5;" x1="138.5" x2="291.5" y1="73.1094" y2="73.1094"/></g><!--class DisplayPropertiesController--><g id="elem_DisplayPropertiesController"><rect codeLine="13" fill="#F1F1F1" height="83.2188" id="DisplayPropertiesController" rx="2.5" ry="2.5" style="stroke:#181818;stroke-width:0.5;" width="302" x="328" y="7"/><ellipse cx="388.25" cy="23" fill="#ADD1B2" rx="11" ry="11" style="stroke:#181818;stroke-width:1.0;"/><path d="M391.0156,18.875 Q391.1719,18.6563 391.3594,18.5469 Q391.5469,18.4375 391.7656,18.4375 Q392.1406,18.4375 392.375,18.7031 Q392.6094,18.9531 392.6094,19.5625 L392.6094,21.0156 Q392.6094,21.625 392.375,21.8906 Q392.1406,22.1563 391.7656,22.1563 Q391.4219,22.1563 391.2188,21.9531 Q391.0156,21.7656 390.9063,21.25 Q390.8594,20.8906 390.6719,20.7031 Q390.3438,20.3281 389.7344,20.1094 Q389.125,19.8906 388.5,19.8906 Q387.7344,19.8906 387.0938,20.2188 Q386.4688,20.5469 385.9688,21.2969 Q385.4844,22.0469 385.4844,23.0781 L385.4844,24.1719 Q385.4844,25.4063 386.375,26.2344 Q387.2656,27.0469 388.8594,27.0469 Q389.7969,27.0469 390.4531,26.7969 Q390.8438,26.6406 391.2656,26.2031 Q391.5313,25.9375 391.6719,25.8594 Q391.8281,25.7813 392.0313,25.7813 Q392.3594,25.7813 392.6094,26.0469 Q392.875,26.2969 392.875,26.6406 Q392.875,26.9844 392.5313,27.3906 Q392.0313,27.9688 391.2344,28.2969 Q390.1563,28.75 388.8594,28.75 Q387.3438,28.75 386.1406,28.125 Q385.1563,27.625 384.4688,26.5625 Q383.7813,25.4844 383.7813,24.2031 L383.7813,23.0469 Q383.7813,21.7188 384.3906,20.5781 Q385.0156,19.4219 386.1094,18.8125 Q387.2031,18.1875 388.4375,18.1875 Q389.1719,18.1875 389.8125,18.3594 Q390.4688,18.5156 391.0156,18.875 Z " fill="#000000"/><text fill="#000000" font-family="sans-serif" font-size="14" lengthAdjust="spacing" textLength="173" x="408.75" y="28.7285">DisplayPropertiesController</text><line style="stroke:#181818;stroke-width:0.5;" x1="329" x2="629" y1="39" y2="39"/><text fill="#000000" font-family="sans-serif" font-size="14" lengthAdjust="spacing" textLength="124" x="334" y="57.5332">+announcementList</text><line style="stroke:#181818;stroke-width:0.5;" x1="329" x2="629" y1="64.6094" y2="64.6094"/><text fill="#000000" font-family="sans-serif" font-size="14" lengthAdjust="spacing" textLength="290" x="334" y="83.1426">+sortByMostRecentAdded(announcementList)</text></g><!--class Repositories--><g id="elem_Repositories"><rect codeLine="19" fill="#F1F1F1" height="136.0469" id="Repositories" rx="2.5" ry="2.5" style="stroke:#181818;stroke-width:0.5;" width="194" x="7" y="151"/><ellipse cx="60.25" cy="167" fill="#ADD1B2" rx="11" ry="11" style="stroke:#181818;stroke-width:1.0;"/><path d="M63.0156,162.875 Q63.1719,162.6563 63.3594,162.5469 Q63.5469,162.4375 63.7656,162.4375 Q64.1406,162.4375 64.375,162.7031 Q64.6094,162.9531 64.6094,163.5625 L64.6094,165.0156 Q64.6094,165.625 64.375,165.8906 Q64.1406,166.1563 63.7656,166.1563 Q63.4219,166.1563 63.2188,165.9531 Q63.0156,165.7656 62.9063,165.25 Q62.8594,164.8906 62.6719,164.7031 Q62.3438,164.3281 61.7344,164.1094 Q61.125,163.8906 60.5,163.8906 Q59.7344,163.8906 59.0938,164.2188 Q58.4688,164.5469 57.9688,165.2969 Q57.4844,166.0469 57.4844,167.0781 L57.4844,168.1719 Q57.4844,169.4063 58.375,170.2344 Q59.2656,171.0469 60.8594,171.0469 Q61.7969,171.0469 62.4531,170.7969 Q62.8438,170.6406 63.2656,170.2031 Q63.5313,169.9375 63.6719,169.8594 Q63.8281,169.7813 64.0313,169.7813 Q64.3594,169.7813 64.6094,170.0469 Q64.875,170.2969 64.875,170.6406 Q64.875,170.9844 64.5313,171.3906 Q64.0313,171.9688 63.2344,172.2969 Q62.1563,172.75 60.8594,172.75 Q59.3438,172.75 58.1406,172.125 Q57.1563,171.625 56.4688,170.5625 Q55.7813,169.4844 55.7813,168.2031 L55.7813,167.0469 Q55.7813,165.7188 56.3906,164.5781 Q57.0156,163.4219 58.1094,162.8125 Q59.2031,162.1875 60.4375,162.1875 Q61.1719,162.1875 61.8125,162.3594 Q62.4688,162.5156 63.0156,162.875 Z " fill="#000000"/><text fill="#000000" font-family="sans-serif" font-size="14" lengthAdjust="spacing" textLength="79" x="80.75" y="172.7285">Repositories</text><line style="stroke:#181818;stroke-width:0.5;" x1="8" x2="200" y1="183" y2="183"/><line style="stroke:#181818;stroke-width:0.5;" x1="8" x2="200" y1="191" y2="191"/><text fill="#000000" font-family="sans-serif" font-size="14" lengthAdjust="spacing" textLength="94" x="13" y="209.5332">-Repositories()</text><text fill="#000000" font-family="sans-serif" font-size="14" lengthAdjust="spacing" textLength="182" x="13" y="227.1426">+getInstance() : Repositories</text><text fill="#000000" font-family="sans-serif" font-size="14" lengthAdjust="spacing" textLength="145" x="13" y="244.752">+getFiltersRepository()</text><text fill="#000000" font-family="sans-serif" font-size="14" lengthAdjust="spacing" textLength="153" x="13" y="262.3613">+getAgencyRepository()</text><text fill="#000000" font-family="sans-serif" font-size="14" lengthAdjust="spacing" textLength="155" x="13" y="279.9707">+getAnnouncementList()</text></g><!--class FiltersRepository--><g id="elem_FiltersRepository"><rect codeLine="28" fill="#F1F1F1" height="65.6094" id="FiltersRepository" rx="2.5" ry="2.5" style="stroke:#181818;stroke-width:0.5;" width="139" x="308.5" y="186"/><ellipse cx="323.5" cy="202" fill="#ADD1B2" rx="11" ry="11" style="stroke:#181818;stroke-width:1.0;"/><path d="M326.2656,197.875 Q326.4219,197.6563 326.6094,197.5469 Q326.7969,197.4375 327.0156,197.4375 Q327.3906,197.4375 327.625,197.7031 Q327.8594,197.9531 327.8594,198.5625 L327.8594,200.0156 Q327.8594,200.625 327.625,200.8906 Q327.3906,201.1563 327.0156,201.1563 Q326.6719,201.1563 326.4688,200.9531 Q326.2656,200.7656 326.1563,200.25 Q326.1094,199.8906 325.9219,199.7031 Q325.5938,199.3281 324.9844,199.1094 Q324.375,198.8906 323.75,198.8906 Q322.9844,198.8906 322.3438,199.2188 Q321.7188,199.5469 321.2188,200.2969 Q320.7344,201.0469 320.7344,202.0781 L320.7344,203.1719 Q320.7344,204.4063 321.625,205.2344 Q322.5156,206.0469 324.1094,206.0469 Q325.0469,206.0469 325.7031,205.7969 Q326.0938,205.6406 326.5156,205.2031 Q326.7813,204.9375 326.9219,204.8594 Q327.0781,204.7813 327.2813,204.7813 Q327.6094,204.7813 327.8594,205.0469 Q328.125,205.2969 328.125,205.6406 Q328.125,205.9844 327.7813,206.3906 Q327.2813,206.9688 326.4844,207.2969 Q325.4063,207.75 324.1094,207.75 Q322.5938,207.75 321.3906,207.125 Q320.4063,206.625 319.7188,205.5625 Q319.0313,204.4844 319.0313,203.2031 L319.0313,202.0469 Q319.0313,200.7188 319.6406,199.5781 Q320.2656,198.4219 321.3594,197.8125 Q322.4531,197.1875 323.6875,197.1875 Q324.4219,197.1875 325.0625,197.3594 Q325.7188,197.5156 326.2656,197.875 Z " fill="#000000"/><text fill="#000000" font-family="sans-serif" font-size="14" lengthAdjust="spacing" textLength="107" x="337.5" y="207.7285">FiltersRepository</text><line style="stroke:#181818;stroke-width:0.5;" x1="309.5" x2="446.5" y1="218" y2="218"/><text fill="#000000" font-family="sans-serif" font-size="14" lengthAdjust="spacing" textLength="64" x="314.5" y="236.5332">+filtersList</text><line style="stroke:#181818;stroke-width:0.5;" x1="309.5" x2="446.5" y1="243.6094" y2="243.6094"/></g><!--class AgencyRepository--><g id="elem_AgencyRepository"><rect codeLine="32" fill="#F1F1F1" height="118.4375" id="AgencyRepository" rx="2.5" ry="2.5" style="stroke:#181818;stroke-width:0.5;" width="517" x="482.5" y="160"/><ellipse cx="679.25" cy="176" fill="#ADD1B2" rx="11" ry="11" style="stroke:#181818;stroke-width:1.0;"/><path d="M682.0156,171.875 Q682.1719,171.6563 682.3594,171.5469 Q682.5469,171.4375 682.7656,171.4375 Q683.1406,171.4375 683.375,171.7031 Q683.6094,171.9531 683.6094,172.5625 L683.6094,174.0156 Q683.6094,174.625 683.375,174.8906 Q683.1406,175.1563 682.7656,175.1563 Q682.4219,175.1563 682.2188,174.9531 Q682.0156,174.7656 681.9063,174.25 Q681.8594,173.8906 681.6719,173.7031 Q681.3438,173.3281 680.7344,173.1094 Q680.125,172.8906 679.5,172.8906 Q678.7344,172.8906 678.0938,173.2188 Q677.4688,173.5469 676.9688,174.2969 Q676.4844,175.0469 676.4844,176.0781 L676.4844,177.1719 Q676.4844,178.4063 677.375,179.2344 Q678.2656,180.0469 679.8594,180.0469 Q680.7969,180.0469 681.4531,179.7969 Q681.8438,179.6406 682.2656,179.2031 Q682.5313,178.9375 682.6719,178.8594 Q682.8281,178.7813 683.0313,178.7813 Q683.3594,178.7813 683.6094,179.0469 Q683.875,179.2969 683.875,179.6406 Q683.875,179.9844 683.5313,180.3906 Q683.0313,180.9688 682.2344,181.2969 Q681.1563,181.75 679.8594,181.75 Q678.3438,181.75 677.1406,181.125 Q676.1563,180.625 675.4688,179.5625 Q674.7813,178.4844 674.7813,177.2031 L674.7813,176.0469 Q674.7813,174.7188 675.3906,173.5781 Q676.0156,172.4219 677.1094,171.8125 Q678.2031,171.1875 679.4375,171.1875 Q680.1719,171.1875 680.8125,171.3594 Q681.4688,171.5156 682.0156,171.875 Z " fill="#000000"/><text fill="#000000" font-family="sans-serif" font-size="14" lengthAdjust="spacing" textLength="115" x="699.75" y="181.7285">AgencyRepository</text><line style="stroke:#181818;stroke-width:0.5;" x1="483.5" x2="998.5" y1="192" y2="192"/><text fill="#000000" font-family="sans-serif" font-size="14" lengthAdjust="spacing" textLength="54" x="488.5" y="210.5332">+agency</text><line style="stroke:#181818;stroke-width:0.5;" x1="483.5" x2="998.5" y1="217.6094" y2="217.6094"/><text fill="#000000" font-family="sans-serif" font-size="14" lengthAdjust="spacing" textLength="453" x="488.5" y="236.1426">+getAnnouncementsByTypeBusiness(announcementList, typeBusiness)</text><text fill="#000000" font-family="sans-serif" font-size="14" lengthAdjust="spacing" textLength="447" x="488.5" y="253.752">+getAnnouncementsByTypeProperty(announcementList, typeProperty)</text><text fill="#000000" font-family="sans-serif" font-size="14" lengthAdjust="spacing" textLength="505" x="488.5" y="271.3613">+getAnnouncementsByNumberBedrooms(announcementList, numberBedrooms)</text></g><!--class Agency--><g id="elem_Agency"><rect codeLine="41" fill="#F1F1F1" height="224.0938" id="Agency" rx="2.5" ry="2.5" style="stroke:#181818;stroke-width:0.5;" width="497" x="648.5" y="365"/><ellipse cx="869.25" cy="381" fill="#ADD1B2" rx="11" ry="11" style="stroke:#181818;stroke-width:1.0;"/><path d="M872.0156,376.875 Q872.1719,376.6563 872.3594,376.5469 Q872.5469,376.4375 872.7656,376.4375 Q873.1406,376.4375 873.375,376.7031 Q873.6094,376.9531 873.6094,377.5625 L873.6094,379.0156 Q873.6094,379.625 873.375,379.8906 Q873.1406,380.1563 872.7656,380.1563 Q872.4219,380.1563 872.2188,379.9531 Q872.0156,379.7656 871.9063,379.25 Q871.8594,378.8906 871.6719,378.7031 Q871.3438,378.3281 870.7344,378.1094 Q870.125,377.8906 869.5,377.8906 Q868.7344,377.8906 868.0938,378.2188 Q867.4688,378.5469 866.9688,379.2969 Q866.4844,380.0469 866.4844,381.0781 L866.4844,382.1719 Q866.4844,383.4063 867.375,384.2344 Q868.2656,385.0469 869.8594,385.0469 Q870.7969,385.0469 871.4531,384.7969 Q871.8438,384.6406 872.2656,384.2031 Q872.5313,383.9375 872.6719,383.8594 Q872.8281,383.7813 873.0313,383.7813 Q873.3594,383.7813 873.6094,384.0469 Q873.875,384.2969 873.875,384.6406 Q873.875,384.9844 873.5313,385.3906 Q873.0313,385.9688 872.2344,386.2969 Q871.1563,386.75 869.8594,386.75 Q868.3438,386.75 867.1406,386.125 Q866.1563,385.625 865.4688,384.5625 Q864.7813,383.4844 864.7813,382.2031 L864.7813,381.0469 Q864.7813,379.7188 865.3906,378.5781 Q866.0156,377.4219 867.1094,376.8125 Q868.2031,376.1875 869.4375,376.1875 Q870.1719,376.1875 870.8125,376.3594 Q871.4688,376.5156 872.0156,376.875 Z " fill="#000000"/><text fill="#000000" font-family="sans-serif" font-size="14" lengthAdjust="spacing" textLength="47" x="889.75" y="386.7285">Agency</text><line style="stroke:#181818;stroke-width:0.5;" x1="649.5" x2="1144.5" y1="397" y2="397"/><line style="stroke:#181818;stroke-width:0.5;" x1="649.5" x2="1144.5" y1="405" y2="405"/><text fill="#000000" font-family="sans-serif" font-size="14" lengthAdjust="spacing" textLength="433" x="654.5" y="423.5332">+announcementHasTypeBusiness(announcementList, typeBusiness)</text><text fill="#000000" font-family="sans-serif" font-size="14" lengthAdjust="spacing" textLength="438" x="654.5" y="441.1426">+announcementHasTypeProperties(announcementList, typeProperty)</text><text fill="#000000" font-family="sans-serif" font-size="14" lengthAdjust="spacing" textLength="485" x="654.5" y="458.752">+announcementHasNumberBedrooms(announcementList, numberBedrooms)</text><text fill="#000000" font-family="sans-serif" font-size="14" lengthAdjust="spacing" textLength="276" x="654.5" y="476.3613">+removeAnnouncement(announcementList)</text><text fill="#000000" font-family="sans-serif" font-size="14" lengthAdjust="spacing" textLength="371" x="654.5" y="493.9707">-sortAnnouncementsByAscendingPrice(announcementList)</text><text fill="#000000" font-family="sans-serif" font-size="14" lengthAdjust="spacing" textLength="380" x="654.5" y="511.5801">-sortAnnouncementsByDescendingPrice(announcementList)</text><text fill="#000000" font-family="sans-serif" font-size="14" lengthAdjust="spacing" textLength="363" x="654.5" y="529.1895">-sortAnnouncementsByAscendingCity(announcementList)</text><text fill="#000000" font-family="sans-serif" font-size="14" lengthAdjust="spacing" textLength="372" x="654.5" y="546.7988">-sortAnnouncementsByDescendingCity(announcementList)</text><text fill="#000000" font-family="sans-serif" font-size="14" lengthAdjust="spacing" textLength="372" x="654.5" y="564.4082">-sortAnnouncementsByAscendingState(announcementList)</text><text fill="#000000" font-family="sans-serif" font-size="14" lengthAdjust="spacing" textLength="381" x="654.5" y="582.0176">-sortAnnouncementsByDescendingState(announcementList)</text></g><!--link DisplayPropertiesUI to DisplayPropertiesController--><g id="link_DisplayPropertiesUI_DisplayPropertiesController"><path codeLine="55" d="M292.56,48.5 C298.94,48.5 303,48.5 303,48.5 C303,48.5 311.33,48.5 322.86,48.5 " fill="none" id="DisplayPropertiesUI-to-DisplayPropertiesController" style="stroke:#181818;stroke-width:1.0;stroke-dasharray:7.0,7.0;"/><polygon fill="#181818" points="327.98,48.5,318.98,44.5,322.98,48.5,318.98,52.5,327.98,48.5" style="stroke:#181818;stroke-width:1.0;"/></g><!--link DisplayPropertiesController to Repositories--><g id="link_DisplayPropertiesController_Repositories"><path codeLine="56" d="M388.7,90.07 C333.58,114.84 262.96,146.57 205.85,172.24 " fill="none" id="DisplayPropertiesController-to-Repositories" style="stroke:#181818;stroke-width:1.0;stroke-dasharray:7.0,7.0;"/><polygon fill="#181818" points="201.07,174.39,210.9188,174.3585,205.6325,172.3447,207.6464,167.0585,201.07,174.39" style="stroke:#181818;stroke-width:1.0;"/></g><!--link DisplayPropertiesController to FiltersRepository--><g id="link_DisplayPropertiesController_FiltersRepository"><path codeLine="57" d="M454.55,90.29 C437.94,118 416.15,154.36 400.07,181.19 " fill="none" id="DisplayPropertiesController-to-FiltersRepository" style="stroke:#181818;stroke-width:1.0;stroke-dasharray:7.0,7.0;"/><polygon fill="#181818" points="397.33,185.75,405.3821,180.0787,399.8962,181.4588,398.5161,175.9728,397.33,185.75" style="stroke:#181818;stroke-width:1.0;"/></g><!--link DisplayPropertiesController to AgencyRepository--><g id="link_DisplayPropertiesController_AgencyRepository"><path codeLine="58" d="M542.09,90.07 C573.37,110.19 611.8,134.91 646.51,157.23 " fill="none" id="DisplayPropertiesController-to-AgencyRepository" style="stroke:#181818;stroke-width:1.0;stroke-dasharray:7.0,7.0;"/><polygon fill="#181818" points="650.72,159.94,645.3124,151.7085,646.5141,157.2362,640.9864,158.4379,650.72,159.94" style="stroke:#181818;stroke-width:1.0;"/></g><!--link DisplayPropertiesController to Agency--><g id="link_DisplayPropertiesController_Agency"><path codeLine="59" d="M630.29,78.04 C789.42,108.06 1017,151 1017,151 C1017,151 1017,287 1017,287 C1017,287 995.23,321.28 970.24,360.64 " fill="none" id="DisplayPropertiesController-to-Agency" style="stroke:#181818;stroke-width:1.0;stroke-dasharray:7.0,7.0;"/><polygon fill="#181818" points="967.5,364.96,975.6886,359.4876,970.1705,360.7329,968.9252,355.2148,967.5,364.96" style="stroke:#181818;stroke-width:1.0;"/></g><!--link Repositories to Repositories--><g id="link_Repositories_Repositories"><path codeLine="61" d="M201.28,201.27 C221.48,203.14 236,209.05 236,219 C236,228.1 223.87,233.82 206.36,236.16 " fill="none" id="Repositories-to-Repositories" style="stroke:#181818;stroke-width:1.0;"/><polygon fill="#181818" points="201.28,236.73,210.6695,239.7028,206.2489,236.1731,209.7785,231.7525,201.28,236.73" style="stroke:#181818;stroke-width:1.0;"/><text fill="#000000" font-family="sans-serif" font-size="13" lengthAdjust="spacing" textLength="42" x="242" y="224.4951">instace</text></g><!--link AgencyRepository to Agency--><g id="link_AgencyRepository_Agency"><path codeLine="62" d="M776.4,278.09 C791.29,302.53 809.17,331.86 826.54,360.38 " fill="none" id="AgencyRepository-to-Agency" style="stroke:#181818;stroke-width:1.0;"/><polygon fill="#181818" points="829.32,364.94,828.0573,355.1724,826.7203,360.669,821.2237,359.332,829.32,364.94" style="stroke:#181818;stroke-width:1.0;"/><text fill="#000000" font-family="sans-serif" font-size="13" lengthAdjust="spacing" textLength="21" x="811" y="331.4951">has</text><text fill="#000000" font-family="sans-serif" font-size="13" lengthAdjust="spacing" textLength="7" x="773.2878" y="299.7565">1</text><text fill="#000000" font-family="sans-serif" font-size="13" lengthAdjust="spacing" textLength="5" x="819.3855" y="354.0025">*</text></g><!--SRC=[dLJBRjim4BppAmXVOjTra5vxA60dA68WBOAu_G26siX4A5BWhbemGVwzApcr95gAu-YcdPbzSy_mqRXI1LN8mZkljy4N82bK85gaLFfHvR2XQ446qAHSRhi4tAhC_pKkbm_AOXUnnW754cJfRQn_nDa0w0DvqL5fgn2NHC7SLmHhxTt6F86y4A91v9N1qgfu6tm9WGpWxxLy5dDaFvp4ZK4IBwFSI-yeU6iXr1hbdA-SXW8SDSATcrNyuP7kGBDvcMMGJLFYh0rn1wL7GpwmT_Of-LlqZDDPOvpB76ZjaFkdOJgJNtkablBTM8A0Up1szSiSd8uZM98ZOssM1rxhyXzsndxBqX1rcneJDoU9WgluYoUugf1dYNZGfS-IEl1iJFywdJYY_myFwdzMnJs45MJ1-s8e0zSZT5koApJPWck5fvKq86wtxNX5YVpaSkO12ly7kbqPMDP5lTL9vvR8wvtnYxaDXXVoVQ8h-8Xg7-hI34pvMAGJHFj06r9qUarZAbuPCNHrph-zTM34MyVddBMzzt-CVF20ZohIX_nEWH2zYxRevybdozGtJ8D8_Sl9bubSC7_oQVBgYzbRXQBv_W40]--></g></svg>