<?xml version="1.0" encoding="UTF-8" standalone="no"?><svg xmlns="http://www.w3.org/2000/svg" xmlns:xlink="http://www.w3.org/1999/xlink" contentStyleType="text/css" height="494px" preserveAspectRatio="none" style="width:805px;height:494px;background:#FFFFFF;" version="1.1" viewBox="0 0 805 494" width="805px" zoomAndPan="magnify"><defs/><g><rect fill="#FFFFFF" height="343.2969" style="stroke:#181818;stroke-width:1.0;" width="10" x="382" y="87.5703"/><rect fill="#FFFFFF" height="334.2969" style="stroke:#181818;stroke-width:1.0;" width="10" x="382" y="87.5703"/><rect fill="#FFFFFF" height="41.3516" style="stroke:#181818;stroke-width:1.0;" width="10" x="387" y="176.625"/><rect fill="#FFFFFF" height="41.3516" style="stroke:#181818;stroke-width:1.0;" width="10" x="387" y="279.1641"/><rect fill="none" height="289.9453" style="stroke:#000000;stroke-width:1.5;" width="471.5" x="327.5" y="102.5703"/><rect fill="none" height="232.5938" style="stroke:#000000;stroke-width:1.5;" width="451.5" x="337.5" y="127.9219"/><line style="stroke:#181818;stroke-width:0.5;stroke-dasharray:5.0,5.0;" x1="381.5" x2="381.5" y1="55.2188" y2="439.8672"/><rect fill="#E3E3E3" height="49.2188" rx="2.5" ry="2.5" style="stroke:#181818;stroke-width:0.5;" width="69" x="347.5" y="5"/><text fill="#000000" font-family="sans-serif" font-size="14" lengthAdjust="spacing" textLength="46" x="359" y="26.5332">agency</text><text fill="#000000" font-family="sans-serif" font-size="14" lengthAdjust="spacing" textLength="55" x="354.5" y="44.1426">: Agency</text><rect fill="#E3E3E3" height="49.2188" rx="2.5" ry="2.5" style="stroke:#181818;stroke-width:0.5;" width="69" x="347.5" y="438.8672"/><text fill="#000000" font-family="sans-serif" font-size="14" lengthAdjust="spacing" textLength="46" x="359" y="460.4004">agency</text><text fill="#000000" font-family="sans-serif" font-size="14" lengthAdjust="spacing" textLength="55" x="354.5" y="478.0098">: Agency</text><rect fill="#FFFFFF" height="343.2969" style="stroke:#181818;stroke-width:1.0;" width="10" x="382" y="87.5703"/><rect fill="#FFFFFF" height="334.2969" style="stroke:#181818;stroke-width:1.0;" width="10" x="382" y="87.5703"/><rect fill="#FFFFFF" height="41.3516" style="stroke:#181818;stroke-width:1.0;" width="10" x="387" y="176.625"/><rect fill="#FFFFFF" height="41.3516" style="stroke:#181818;stroke-width:1.0;" width="10" x="387" y="279.1641"/><polygon fill="#181818" points="365,83.5703,375,87.5703,365,91.5703,369,87.5703" style="stroke:#181818;stroke-width:1.0;"/><line style="stroke:#181818;stroke-width:1.0;" x1="0" x2="371" y1="87.5703" y2="87.5703"/><text fill="#000000" font-family="sans-serif" font-size="13" font-weight="bold" lengthAdjust="spacing" textLength="14" x="7" y="82.7139">39</text><text fill="#000000" font-family="sans-serif" font-size="13" lengthAdjust="spacing" textLength="340" x="25" y="82.7139">sortAnnouncements(price, typeSorting, announcementList)</text><path d="M327.5,102.5703 L561.5,102.5703 L561.5,110.9219 L551.5,120.9219 L327.5,120.9219 L327.5,102.5703 " fill="#EEEEEE" style="stroke:#000000;stroke-width:1.5;"/><rect fill="none" height="289.9453" style="stroke:#000000;stroke-width:1.5;" width="471.5" x="327.5" y="102.5703"/><text fill="#000000" font-family="sans-serif" font-size="13" font-weight="bold" lengthAdjust="spacing" textLength="189" x="342.5" y="117.0654">Sort Announcements By Price</text><path d="M337.5,127.9219 L398.5,127.9219 L398.5,136.2734 L388.5,146.2734 L337.5,146.2734 L337.5,127.9219 " fill="#EEEEEE" style="stroke:#000000;stroke-width:1.5;"/><rect fill="none" height="232.5938" style="stroke:#000000;stroke-width:1.5;" width="451.5" x="337.5" y="127.9219"/><text fill="#000000" font-family="sans-serif" font-size="13" font-weight="bold" lengthAdjust="spacing" textLength="16" x="352.5" y="142.417">alt</text><text fill="#000000" font-family="sans-serif" font-size="11" font-weight="bold" lengthAdjust="spacing" textLength="96" x="413.5" y="141.3408">[ascending price]</text><line style="stroke:#181818;stroke-width:1.0;" x1="392" x2="439" y1="163.625" y2="163.625"/><line style="stroke:#181818;stroke-width:1.0;" x1="439" x2="439" y1="163.625" y2="176.625"/><line style="stroke:#181818;stroke-width:1.0;" x1="398" x2="439" y1="176.625" y2="176.625"/><polygon fill="#181818" points="408,172.625,398,176.625,408,180.625,404,176.625" style="stroke:#181818;stroke-width:1.0;"/><text fill="#000000" font-family="sans-serif" font-size="13" font-weight="bold" lengthAdjust="spacing" textLength="25" x="404" y="158.7686">39.1</text><text fill="#000000" font-family="sans-serif" font-size="13" lengthAdjust="spacing" textLength="337" x="433" y="158.7686">sortAnnouncementsByAscendingPrice(announcementList)</text><line style="stroke:#181818;stroke-width:1.0;stroke-dasharray:2.0,2.0;" x1="397" x2="439" y1="216.9766" y2="216.9766"/><line style="stroke:#181818;stroke-width:1.0;stroke-dasharray:2.0,2.0;" x1="439" x2="439" y1="216.9766" y2="229.9766"/><line style="stroke:#181818;stroke-width:1.0;stroke-dasharray:2.0,2.0;" x1="392" x2="439" y1="229.9766" y2="229.9766"/><polygon fill="#181818" points="402,225.9766,392,229.9766,402,233.9766,398,229.9766" style="stroke:#181818;stroke-width:1.0;"/><text fill="#000000" font-family="sans-serif" font-size="13" font-weight="bold" lengthAdjust="spacing" textLength="25" x="404" y="212.1201">39.2</text><text fill="#000000" font-family="sans-serif" font-size="13" lengthAdjust="spacing" textLength="106" x="433" y="212.1201">announcementList</text><line style="stroke:#000000;stroke-width:1.0;stroke-dasharray:2.0,2.0;" x1="337.5" x2="789" y1="233.9766" y2="233.9766"/><text fill="#000000" font-family="sans-serif" font-size="11" font-weight="bold" lengthAdjust="spacing" textLength="104" x="342.5" y="245.3955">[descending price]</text><line style="stroke:#181818;stroke-width:1.0;" x1="392" x2="439" y1="266.1641" y2="266.1641"/><line style="stroke:#181818;stroke-width:1.0;" x1="439" x2="439" y1="266.1641" y2="279.1641"/><line style="stroke:#181818;stroke-width:1.0;" x1="398" x2="439" y1="279.1641" y2="279.1641"/><polygon fill="#181818" points="408,275.1641,398,279.1641,408,283.1641,404,279.1641" style="stroke:#181818;stroke-width:1.0;"/><text fill="#000000" font-family="sans-serif" font-size="13" font-weight="bold" lengthAdjust="spacing" textLength="25" x="404" y="261.3076">39.3</text><text fill="#000000" font-family="sans-serif" font-size="13" lengthAdjust="spacing" textLength="344" x="433" y="261.3076">sortAnnouncementsByDescendingPrice(announcementList)</text><line style="stroke:#181818;stroke-width:1.0;stroke-dasharray:2.0,2.0;" x1="397" x2="439" y1="319.5156" y2="319.5156"/><line style="stroke:#181818;stroke-width:1.0;stroke-dasharray:2.0,2.0;" x1="439" x2="439" y1="319.5156" y2="332.5156"/><line style="stroke:#181818;stroke-width:1.0;stroke-dasharray:2.0,2.0;" x1="392" x2="439" y1="332.5156" y2="332.5156"/><polygon fill="#181818" points="402,328.5156,392,332.5156,402,336.5156,398,332.5156" style="stroke:#181818;stroke-width:1.0;"/><text fill="#000000" font-family="sans-serif" font-size="13" font-weight="bold" lengthAdjust="spacing" textLength="25" x="404" y="314.6592">39.4</text><text fill="#000000" font-family="sans-serif" font-size="13" lengthAdjust="spacing" textLength="106" x="433" y="314.6592">announcementList</text><polygon fill="#181818" points="11,417.8672,1,421.8672,11,425.8672,7,421.8672" style="stroke:#181818;stroke-width:1.0;"/><line style="stroke:#181818;stroke-width:1.0;stroke-dasharray:2.0,2.0;" x1="5" x2="376" y1="421.8672" y2="421.8672"/><text fill="#000000" font-family="sans-serif" font-size="13" font-weight="bold" lengthAdjust="spacing" textLength="14" x="17" y="417.0107">40</text><text fill="#000000" font-family="sans-serif" font-size="13" lengthAdjust="spacing" textLength="106" x="35" y="417.0107">announcementList</text><!--SRC=[pL9DIyGm4BtdLmnxMc4hYbvSHEYgU14HzYHu6TEn6xQTX6Ig5FhZJUkwjBRquiKvpSURz-QHXBrXXnvBA2rRlVEs911VaGh7YKEznvosKXS4dhGWvqKV47QOsK_3ERnZ4KYfs1QZZKCMMCHLrlKhho7jiWLWWFJX_kdsHIcin79Llf67YokLt1m6i8PWlQJCjc9D9R64fVD6qmgaThIDmwYt0kmX7asG4uLQp0SAJKkSdey042FtjdBGii904pOrFBUogeErWOL40veuQmsxuR2DWuDPBviw_Q7ew9TZ7ttAaQSflRxWRxh1GaQpV1IVC6B-Rl6E_gt7fccETJnHzNjjtIMzZtDvzjswJfAP0oP4lm00]--></g></svg>