<?xml version="1.0" encoding="UTF-8" standalone="no"?><svg xmlns="http://www.w3.org/2000/svg" xmlns:xlink="http://www.w3.org/1999/xlink" contentStyleType="text/css" height="404px" preserveAspectRatio="none" style="width:560px;height:404px;background:#FFFFFF;" version="1.1" viewBox="0 0 560 404" width="560px" zoomAndPan="magnify"><defs/><g><rect fill="#FFFFFF" height="244.8125" style="stroke:#181818;stroke-width:1.0;" width="10" x="113" y="87.5703"/><rect fill="#FFFFFF" height="30.3516" style="stroke:#181818;stroke-width:1.0;" width="10" x="248.5" y="143.2734"/><rect fill="#FFFFFF" height="30.3516" style="stroke:#181818;stroke-width:1.0;" width="10" x="355.5" y="203.9766"/><rect fill="#FFFFFF" height="30.3516" style="stroke:#181818;stroke-width:1.0;" width="10" x="476.5" y="264.6797"/><rect fill="none" height="200.4609" style="stroke:#000000;stroke-width:1.5;" width="523" x="31" y="102.5703"/><line style="stroke:#181818;stroke-width:0.5;stroke-dasharray:5.0,5.0;" x1="118" x2="118" y1="55.2188" y2="350.3828"/><line style="stroke:#181818;stroke-width:0.5;stroke-dasharray:5.0,5.0;" x1="253" x2="253" y1="55.2188" y2="350.3828"/><line style="stroke:#181818;stroke-width:0.5;stroke-dasharray:5.0,5.0;" x1="360" x2="360" y1="55.2188" y2="350.3828"/><line style="stroke:#181818;stroke-width:0.5;stroke-dasharray:5.0,5.0;" x1="481" x2="481" y1="55.2188" y2="350.3828"/><rect fill="#E3E3E3" height="31.6094" rx="2.5" ry="2.5" style="stroke:#181818;stroke-width:0.5;" width="154" x="41" y="22.6094"/><text fill="#000000" font-family="sans-serif" font-size="14" lengthAdjust="spacing" textLength="140" x="48" y="44.1426">:CreateTaskController</text><rect fill="#E3E3E3" height="31.6094" rx="2.5" ry="2.5" style="stroke:#181818;stroke-width:0.5;" width="154" x="41" y="349.3828"/><text fill="#000000" font-family="sans-serif" font-size="14" lengthAdjust="spacing" textLength="140" x="48" y="370.916">:CreateTaskController</text><rect fill="#E3E3E3" height="31.6094" rx="2.5" ry="2.5" style="stroke:#181818;stroke-width:0.5;" width="97" x="205" y="22.6094"/><text fill="#000000" font-family="sans-serif" font-size="14" lengthAdjust="spacing" textLength="83" x="212" y="44.1426">:Repositories</text><rect fill="#E3E3E3" height="31.6094" rx="2.5" ry="2.5" style="stroke:#181818;stroke-width:0.5;" width="97" x="205" y="349.3828"/><text fill="#000000" font-family="sans-serif" font-size="14" lengthAdjust="spacing" textLength="83" x="212" y="370.916">:Repositories</text><rect fill="#E3E3E3" height="49.2188" rx="2.5" ry="2.5" style="stroke:#181818;stroke-width:0.5;" width="97" x="312" y="5"/><text fill="#000000" font-family="sans-serif" font-size="14" lengthAdjust="spacing" textLength="74" x="323.5" y="26.5332">repositories</text><text fill="#000000" font-family="sans-serif" font-size="14" lengthAdjust="spacing" textLength="83" x="319" y="44.1426">:Repositories</text><rect fill="#E3E3E3" height="49.2188" rx="2.5" ry="2.5" style="stroke:#181818;stroke-width:0.5;" width="97" x="312" y="349.3828"/><text fill="#000000" font-family="sans-serif" font-size="14" lengthAdjust="spacing" textLength="74" x="323.5" y="370.916">repositories</text><text fill="#000000" font-family="sans-serif" font-size="14" lengthAdjust="spacing" textLength="83" x="319" y="388.5254">:Repositories</text><rect fill="#E3E3E3" height="49.2188" rx="2.5" ry="2.5" style="stroke:#181818;stroke-width:0.5;" width="125" x="419" y="5"/><text fill="#000000" font-family="sans-serif" font-size="14" lengthAdjust="spacing" textLength="102" x="430.5" y="26.5332">filtersRepository</text><text fill="#000000" font-family="sans-serif" font-size="14" lengthAdjust="spacing" textLength="111" x="426" y="44.1426">:FiltersRepository</text><rect fill="#E3E3E3" height="49.2188" rx="2.5" ry="2.5" style="stroke:#181818;stroke-width:0.5;" width="125" x="419" y="349.3828"/><text fill="#000000" font-family="sans-serif" font-size="14" lengthAdjust="spacing" textLength="102" x="430.5" y="370.916">filtersRepository</text><text fill="#000000" font-family="sans-serif" font-size="14" lengthAdjust="spacing" textLength="111" x="426" y="388.5254">:FiltersRepository</text><rect fill="#FFFFFF" height="244.8125" style="stroke:#181818;stroke-width:1.0;" width="10" x="113" y="87.5703"/><rect fill="#FFFFFF" height="30.3516" style="stroke:#181818;stroke-width:1.0;" width="10" x="248.5" y="143.2734"/><rect fill="#FFFFFF" height="30.3516" style="stroke:#181818;stroke-width:1.0;" width="10" x="355.5" y="203.9766"/><rect fill="#FFFFFF" height="30.3516" style="stroke:#181818;stroke-width:1.0;" width="10" x="476.5" y="264.6797"/><polygon fill="#181818" points="101,83.5703,111,87.5703,101,91.5703,105,87.5703" style="stroke:#181818;stroke-width:1.0;"/><line style="stroke:#181818;stroke-width:1.0;" x1="0" x2="107" y1="87.5703" y2="87.5703"/><text fill="#000000" font-family="sans-serif" font-size="13" font-weight="bold" lengthAdjust="spacing" textLength="7" x="7" y="82.7139">5</text><text fill="#000000" font-family="sans-serif" font-size="13" lengthAdjust="spacing" textLength="83" x="18" y="82.7139">getFiltersList()</text><path d="M31,102.5703 L167,102.5703 L167,110.9219 L157,120.9219 L31,120.9219 L31,102.5703 " fill="#EEEEEE" style="stroke:#000000;stroke-width:1.5;"/><rect fill="none" height="200.4609" style="stroke:#000000;stroke-width:1.5;" width="523" x="31" y="102.5703"/><text fill="#000000" font-family="sans-serif" font-size="13" font-weight="bold" lengthAdjust="spacing" textLength="91" x="46" y="117.0654">Get Filters List</text><polygon fill="#181818" points="236.5,139.2734,246.5,143.2734,236.5,147.2734,240.5,143.2734" style="stroke:#181818;stroke-width:1.0;"/><line style="stroke:#181818;stroke-width:1.0;" x1="123" x2="242.5" y1="143.2734" y2="143.2734"/><text fill="#000000" font-family="sans-serif" font-size="13" font-weight="bold" lengthAdjust="spacing" textLength="18" x="130" y="138.417">5.1</text><text fill="#000000" font-family="sans-serif" font-size="13" lengthAdjust="spacing" textLength="75" x="152" y="138.417">getInstance()</text><polygon fill="#181818" points="134,169.625,124,173.625,134,177.625,130,173.625" style="stroke:#181818;stroke-width:1.0;"/><line style="stroke:#181818;stroke-width:1.0;stroke-dasharray:2.0,2.0;" x1="128" x2="252.5" y1="173.625" y2="173.625"/><text fill="#000000" font-family="sans-serif" font-size="13" font-weight="bold" lengthAdjust="spacing" textLength="18" x="140" y="168.7686">5.2</text><text fill="#000000" font-family="sans-serif" font-size="13" lengthAdjust="spacing" textLength="67" x="162" y="168.7686">repositories</text><polygon fill="#181818" points="343.5,199.9766,353.5,203.9766,343.5,207.9766,347.5,203.9766" style="stroke:#181818;stroke-width:1.0;"/><line style="stroke:#181818;stroke-width:1.0;" x1="123" x2="349.5" y1="203.9766" y2="203.9766"/><text fill="#000000" font-family="sans-serif" font-size="13" font-weight="bold" lengthAdjust="spacing" textLength="18" x="130" y="199.1201">5.3</text><text fill="#000000" font-family="sans-serif" font-size="13" lengthAdjust="spacing" textLength="124" x="152" y="199.1201">getFiltersRepository()</text><polygon fill="#181818" points="134,230.3281,124,234.3281,134,238.3281,130,234.3281" style="stroke:#181818;stroke-width:1.0;"/><line style="stroke:#181818;stroke-width:1.0;stroke-dasharray:2.0,2.0;" x1="128" x2="359.5" y1="234.3281" y2="234.3281"/><text fill="#000000" font-family="sans-serif" font-size="13" font-weight="bold" lengthAdjust="spacing" textLength="18" x="140" y="229.4717">5.4</text><text fill="#000000" font-family="sans-serif" font-size="13" lengthAdjust="spacing" textLength="93" x="162" y="229.4717">filtersRepository</text><polygon fill="#181818" points="464.5,260.6797,474.5,264.6797,464.5,268.6797,468.5,264.6797" style="stroke:#181818;stroke-width:1.0;"/><line style="stroke:#181818;stroke-width:1.0;" x1="123" x2="470.5" y1="264.6797" y2="264.6797"/><text fill="#000000" font-family="sans-serif" font-size="13" font-weight="bold" lengthAdjust="spacing" textLength="18" x="130" y="259.8232">5.5</text><text fill="#000000" font-family="sans-serif" font-size="13" lengthAdjust="spacing" textLength="83" x="152" y="259.8232">getFiltersList()</text><polygon fill="#181818" points="134,291.0313,124,295.0313,134,299.0313,130,295.0313" style="stroke:#181818;stroke-width:1.0;"/><line style="stroke:#181818;stroke-width:1.0;stroke-dasharray:2.0,2.0;" x1="128" x2="480.5" y1="295.0313" y2="295.0313"/><text fill="#000000" font-family="sans-serif" font-size="13" font-weight="bold" lengthAdjust="spacing" textLength="18" x="140" y="290.1748">5.6</text><text fill="#000000" font-family="sans-serif" font-size="13" lengthAdjust="spacing" textLength="52" x="162" y="290.1748">filtersList</text><polygon fill="#181818" points="11,328.3828,1,332.3828,11,336.3828,7,332.3828" style="stroke:#181818;stroke-width:1.0;"/><line style="stroke:#181818;stroke-width:1.0;stroke-dasharray:2.0,2.0;" x1="5" x2="117" y1="332.3828" y2="332.3828"/><text fill="#000000" font-family="sans-serif" font-size="13" font-weight="bold" lengthAdjust="spacing" textLength="7" x="17" y="327.5264">6</text><text fill="#000000" font-family="sans-serif" font-size="13" lengthAdjust="spacing" textLength="52" x="28" y="327.5264">filtersList</text><!--SRC=[ZL8zRuCm4DtzAqwPse5A7TeXgYfLAAaYCKJ0sCKb5s81DhAFLldtDIQ02HxgpNVtFdpFfXAovPetq2YfYejM3GBf3fcPEYqlAbvYHjSQGMD1N9QrFs0k_AH-XIpXp6k3ZDaoYKAqN19ijh56JfXpKyLAabPrZNe3t42SfydTR8gjCeAK5cZSp5IuPgAN9IMN4EqXlkIQu9Xyv4l4MTI4sipC5hQ_hpdi_f3akpHBTqV6U6Ubk-ORDRomwDsPXosKI3Ti8WmzF2u7dvxjlI3nOnSmF1ViARNgMlX4WXiKUgnhzSSnMuN0qmV1WpGsWmAjseYPH4BxcgP2ZD7jBLlmDpb1JlW_wj5ql-x5McPKoAvBPoexy6ne5LJ8rP9Xj34d5yfePSCFUcnw5D6Sztac2hcv9q9v6k8UhjxVU7M5joWACJEFqdqRzWS0]--></g></svg>