<?xml version="1.0" encoding="UTF-8" standalone="no"?><svg xmlns="http://www.w3.org/2000/svg" xmlns:xlink="http://www.w3.org/1999/xlink" contentStyleType="text/css" height="568px" preserveAspectRatio="none" style="width:793px;height:568px;background:#FFFFFF;" version="1.1" viewBox="0 0 793 568" width="793px" zoomAndPan="magnify"><defs/><g><rect fill="#FFFFFF" height="401.1641" style="stroke:#181818;stroke-width:1.0;" width="10" x="388" y="103.9219"/><rect fill="#FFFFFF" height="392.1641" style="stroke:#181818;stroke-width:1.0;" width="10" x="388" y="103.9219"/><rect fill="#FFFFFF" height="41.3516" style="stroke:#181818;stroke-width:1.0;" width="10" x="393" y="209.3281"/><rect fill="#FFFFFF" height="41.3516" style="stroke:#181818;stroke-width:1.0;" width="10" x="393" y="321.3828"/><rect fill="none" height="347.8125" style="stroke:#000000;stroke-width:1.5;" width="463.5" x="323.5" y="118.9219"/><rect fill="none" height="290.4609" style="stroke:#000000;stroke-width:1.5;" width="443.5" x="333.5" y="144.2734"/><rect fill="none" height="130.0547" style="stroke:#000000;stroke-width:1.5;" width="349.5" x="343.5" y="272.6797"/><line style="stroke:#181818;stroke-width:0.5;stroke-dasharray:5.0,5.0;" x1="387.5" x2="387.5" y1="55.2188" y2="514.0859"/><rect fill="#E3E3E3" height="49.2188" rx="2.5" ry="2.5" style="stroke:#181818;stroke-width:0.5;" width="69" x="353.5" y="5"/><text fill="#000000" font-family="sans-serif" font-size="14" lengthAdjust="spacing" textLength="46" x="365" y="26.5332">agency</text><text fill="#000000" font-family="sans-serif" font-size="14" lengthAdjust="spacing" textLength="55" x="360.5" y="44.1426">: Agency</text><rect fill="#E3E3E3" height="49.2188" rx="2.5" ry="2.5" style="stroke:#181818;stroke-width:0.5;" width="69" x="353.5" y="513.0859"/><text fill="#000000" font-family="sans-serif" font-size="14" lengthAdjust="spacing" textLength="46" x="365" y="534.6191">agency</text><text fill="#000000" font-family="sans-serif" font-size="14" lengthAdjust="spacing" textLength="55" x="360.5" y="552.2285">: Agency</text><rect fill="#FFFFFF" height="401.1641" style="stroke:#181818;stroke-width:1.0;" width="10" x="388" y="103.9219"/><rect fill="#FFFFFF" height="392.1641" style="stroke:#181818;stroke-width:1.0;" width="10" x="388" y="103.9219"/><rect fill="#FFFFFF" height="41.3516" style="stroke:#181818;stroke-width:1.0;" width="10" x="393" y="209.3281"/><rect fill="#FFFFFF" height="41.3516" style="stroke:#181818;stroke-width:1.0;" width="10" x="393" y="321.3828"/><polygon fill="#181818" points="371,99.9219,381,103.9219,371,107.9219,375,103.9219" style="stroke:#181818;stroke-width:1.0;"/><line style="stroke:#181818;stroke-width:1.0;" x1="0" x2="377" y1="103.9219" y2="103.9219"/><text fill="#000000" font-family="sans-serif" font-size="13" font-weight="bold" lengthAdjust="spacing" textLength="14" x="7" y="90.8896">27</text><text fill="#000000" font-family="sans-serif" font-size="13" lengthAdjust="spacing" textLength="346" x="25" y="82.7139">getAnnouncementsByNumberBedrooms(announcementList,</text><text fill="#000000" font-family="sans-serif" font-size="13" lengthAdjust="spacing" textLength="106" x="29" y="99.0654">numberBedrooms)</text><path d="M323.5,118.9219 L654.5,118.9219 L654.5,127.2734 L644.5,137.2734 L323.5,137.2734 L323.5,118.9219 " fill="#EEEEEE" style="stroke:#000000;stroke-width:1.5;"/><rect fill="none" height="347.8125" style="stroke:#000000;stroke-width:1.5;" width="463.5" x="323.5" y="118.9219"/><text fill="#000000" font-family="sans-serif" font-size="13" font-weight="bold" lengthAdjust="spacing" textLength="286" x="338.5" y="133.417">Get Announcements By Number of Bedrooms</text><path d="M333.5,144.2734 L406.5,144.2734 L406.5,152.625 L396.5,162.625 L333.5,162.625 L333.5,144.2734 " fill="#EEEEEE" style="stroke:#000000;stroke-width:1.5;"/><rect fill="none" height="290.4609" style="stroke:#000000;stroke-width:1.5;" width="443.5" x="333.5" y="144.2734"/><text fill="#000000" font-family="sans-serif" font-size="13" font-weight="bold" lengthAdjust="spacing" textLength="28" x="348.5" y="158.7686">loop</text><text fill="#000000" font-family="sans-serif" font-size="11" font-weight="bold" lengthAdjust="spacing" textLength="139" x="421.5" y="157.6924">[for each announcement]</text><line style="stroke:#181818;stroke-width:1.0;" x1="398" x2="445" y1="196.3281" y2="196.3281"/><line style="stroke:#181818;stroke-width:1.0;" x1="445" x2="445" y1="196.3281" y2="209.3281"/><line style="stroke:#181818;stroke-width:1.0;" x1="404" x2="445" y1="209.3281" y2="209.3281"/><polygon fill="#181818" points="414,205.3281,404,209.3281,414,213.3281,410,209.3281" style="stroke:#181818;stroke-width:1.0;"/><text fill="#000000" font-family="sans-serif" font-size="13" font-weight="bold" lengthAdjust="spacing" textLength="25" x="410" y="183.2959">27.1</text><text fill="#000000" font-family="sans-serif" font-size="13" lengthAdjust="spacing" textLength="326" x="439" y="175.1201">announcementHasNumberBedrooms(announcementList,</text><text fill="#000000" font-family="sans-serif" font-size="13" lengthAdjust="spacing" textLength="106" x="443" y="191.4717">numberBedrooms)</text><line style="stroke:#181818;stroke-width:1.0;stroke-dasharray:2.0,2.0;" x1="403" x2="445" y1="249.6797" y2="249.6797"/><line style="stroke:#181818;stroke-width:1.0;stroke-dasharray:2.0,2.0;" x1="445" x2="445" y1="249.6797" y2="262.6797"/><line style="stroke:#181818;stroke-width:1.0;stroke-dasharray:2.0,2.0;" x1="398" x2="445" y1="262.6797" y2="262.6797"/><polygon fill="#181818" points="408,258.6797,398,262.6797,408,266.6797,404,262.6797" style="stroke:#181818;stroke-width:1.0;"/><text fill="#000000" font-family="sans-serif" font-size="13" font-weight="bold" lengthAdjust="spacing" textLength="25" x="410" y="244.8232">27.2</text><text fill="#000000" font-family="sans-serif" font-size="13" lengthAdjust="spacing" textLength="53" x="439" y="244.8232">true/false</text><path d="M343.5,272.6797 L404.5,272.6797 L404.5,281.0313 L394.5,291.0313 L343.5,291.0313 L343.5,272.6797 " fill="#EEEEEE" style="stroke:#000000;stroke-width:1.5;"/><rect fill="none" height="130.0547" style="stroke:#000000;stroke-width:1.5;" width="349.5" x="343.5" y="272.6797"/><text fill="#000000" font-family="sans-serif" font-size="13" font-weight="bold" lengthAdjust="spacing" textLength="16" x="358.5" y="287.1748">alt</text><text fill="#000000" font-family="sans-serif" font-size="11" font-weight="bold" lengthAdjust="spacing" textLength="35" x="419.5" y="286.0986">[false]</text><line style="stroke:#181818;stroke-width:1.0;" x1="398" x2="445" y1="308.3828" y2="308.3828"/><line style="stroke:#181818;stroke-width:1.0;" x1="445" x2="445" y1="308.3828" y2="321.3828"/><line style="stroke:#181818;stroke-width:1.0;" x1="404" x2="445" y1="321.3828" y2="321.3828"/><polygon fill="#181818" points="414,317.3828,404,321.3828,414,325.3828,410,321.3828" style="stroke:#181818;stroke-width:1.0;"/><text fill="#000000" font-family="sans-serif" font-size="13" font-weight="bold" lengthAdjust="spacing" textLength="25" x="410" y="303.5264">27.3</text><text fill="#000000" font-family="sans-serif" font-size="13" lengthAdjust="spacing" textLength="242" x="439" y="303.5264">removeAnnouncement(announcementList)</text><line style="stroke:#181818;stroke-width:1.0;stroke-dasharray:2.0,2.0;" x1="403" x2="445" y1="361.7344" y2="361.7344"/><line style="stroke:#181818;stroke-width:1.0;stroke-dasharray:2.0,2.0;" x1="445" x2="445" y1="361.7344" y2="374.7344"/><line style="stroke:#181818;stroke-width:1.0;stroke-dasharray:2.0,2.0;" x1="398" x2="445" y1="374.7344" y2="374.7344"/><polygon fill="#181818" points="408,370.7344,398,374.7344,408,378.7344,404,374.7344" style="stroke:#181818;stroke-width:1.0;"/><text fill="#000000" font-family="sans-serif" font-size="13" font-weight="bold" lengthAdjust="spacing" textLength="25" x="410" y="356.8779">27.4</text><text fill="#000000" font-family="sans-serif" font-size="13" lengthAdjust="spacing" textLength="106" x="439" y="356.8779">announcementList</text><polygon fill="#181818" points="11,492.0859,1,496.0859,11,500.0859,7,496.0859" style="stroke:#181818;stroke-width:1.0;"/><line style="stroke:#181818;stroke-width:1.0;stroke-dasharray:2.0,2.0;" x1="5" x2="382" y1="496.0859" y2="496.0859"/><text fill="#000000" font-family="sans-serif" font-size="13" font-weight="bold" lengthAdjust="spacing" textLength="14" x="17" y="491.2295">28</text><text fill="#000000" font-family="sans-serif" font-size="13" lengthAdjust="spacing" textLength="106" x="35" y="491.2295">announcementList</text><!--SRC=[hLB1JiCm3BtdAwoTG68Wk80cXBGYD0ve5qv8kvZKQwirTfMuGvNsyMpTEhAj28JmAV5xjj-B4nO5L-ZHWHCMctjn1EfhCc6FL6WNcD6hDYM19wl8MHaJGewfV1ISmHpBGCQiqrhOea9M6AnBsJOp7i6uFGq00umdJzF7DsEmLk7QlPE7cripVDW1C8ACTCmiDLjon1gIPjho4agzY0jd6A4lHT2B6GCVKCuDMYsMgDG_x_BwX03hoBpK5Kn8uK0090ri9O3CePjXsf9Db28LpCK3eSqXLlV5wMBdClOR5pnZ-8FPuo4dvhzJiPSnQbT_jTtYCJkb7njYgT1Vt6FOavCbnKzyul9_F1rt_OMp65sjLWTtujJqOLs-ostkxI7-StVRrFrmsB_vLb_FIty2]--></g></svg>