<?xml version="1.0" encoding="UTF-8" standalone="no"?><svg xmlns="http://www.w3.org/2000/svg" xmlns:xlink="http://www.w3.org/1999/xlink" contentStyleType="text/css" height="494px" preserveAspectRatio="none" style="width:791px;height:494px;background:#FFFFFF;" version="1.1" viewBox="0 0 791 494" width="791px" zoomAndPan="magnify"><defs/><g><rect fill="#FFFFFF" height="343.2969" style="stroke:#181818;stroke-width:1.0;" width="10" x="375" y="87.5703"/><rect fill="#FFFFFF" height="334.2969" style="stroke:#181818;stroke-width:1.0;" width="10" x="375" y="87.5703"/><rect fill="#FFFFFF" height="41.3516" style="stroke:#181818;stroke-width:1.0;" width="10" x="380" y="176.625"/><rect fill="#FFFFFF" height="41.3516" style="stroke:#181818;stroke-width:1.0;" width="10" x="380" y="279.1641"/><rect fill="none" height="289.9453" style="stroke:#000000;stroke-width:1.5;" width="464.5" x="320.5" y="102.5703"/><rect fill="none" height="232.5938" style="stroke:#000000;stroke-width:1.5;" width="444.5" x="330.5" y="127.9219"/><line style="stroke:#181818;stroke-width:0.5;stroke-dasharray:5.0,5.0;" x1="374.5" x2="374.5" y1="55.2188" y2="439.8672"/><rect fill="#E3E3E3" height="49.2188" rx="2.5" ry="2.5" style="stroke:#181818;stroke-width:0.5;" width="69" x="340.5" y="5"/><text fill="#000000" font-family="sans-serif" font-size="14" lengthAdjust="spacing" textLength="46" x="352" y="26.5332">agency</text><text fill="#000000" font-family="sans-serif" font-size="14" lengthAdjust="spacing" textLength="55" x="347.5" y="44.1426">: Agency</text><rect fill="#E3E3E3" height="49.2188" rx="2.5" ry="2.5" style="stroke:#181818;stroke-width:0.5;" width="69" x="340.5" y="438.8672"/><text fill="#000000" font-family="sans-serif" font-size="14" lengthAdjust="spacing" textLength="46" x="352" y="460.4004">agency</text><text fill="#000000" font-family="sans-serif" font-size="14" lengthAdjust="spacing" textLength="55" x="347.5" y="478.0098">: Agency</text><rect fill="#FFFFFF" height="343.2969" style="stroke:#181818;stroke-width:1.0;" width="10" x="375" y="87.5703"/><rect fill="#FFFFFF" height="334.2969" style="stroke:#181818;stroke-width:1.0;" width="10" x="375" y="87.5703"/><rect fill="#FFFFFF" height="41.3516" style="stroke:#181818;stroke-width:1.0;" width="10" x="380" y="176.625"/><rect fill="#FFFFFF" height="41.3516" style="stroke:#181818;stroke-width:1.0;" width="10" x="380" y="279.1641"/><polygon fill="#181818" points="358,83.5703,368,87.5703,358,91.5703,362,87.5703" style="stroke:#181818;stroke-width:1.0;"/><line style="stroke:#181818;stroke-width:1.0;" x1="0" x2="364" y1="87.5703" y2="87.5703"/><text fill="#000000" font-family="sans-serif" font-size="13" font-weight="bold" lengthAdjust="spacing" textLength="14" x="7" y="82.7139">49</text><text fill="#000000" font-family="sans-serif" font-size="13" lengthAdjust="spacing" textLength="333" x="25" y="82.7139">sortAnnouncements(city, typeSorting, announcementList)</text><path d="M320.5,102.5703 L545.5,102.5703 L545.5,110.9219 L535.5,120.9219 L320.5,120.9219 L320.5,102.5703 " fill="#EEEEEE" style="stroke:#000000;stroke-width:1.5;"/><rect fill="none" height="289.9453" style="stroke:#000000;stroke-width:1.5;" width="464.5" x="320.5" y="102.5703"/><text fill="#000000" font-family="sans-serif" font-size="13" font-weight="bold" lengthAdjust="spacing" textLength="180" x="335.5" y="117.0654">Sort Announcements By City</text><path d="M330.5,127.9219 L391.5,127.9219 L391.5,136.2734 L381.5,146.2734 L330.5,146.2734 L330.5,127.9219 " fill="#EEEEEE" style="stroke:#000000;stroke-width:1.5;"/><rect fill="none" height="232.5938" style="stroke:#000000;stroke-width:1.5;" width="444.5" x="330.5" y="127.9219"/><text fill="#000000" font-family="sans-serif" font-size="13" font-weight="bold" lengthAdjust="spacing" textLength="16" x="345.5" y="142.417">alt</text><text fill="#000000" font-family="sans-serif" font-size="11" font-weight="bold" lengthAdjust="spacing" textLength="87" x="406.5" y="141.3408">[ascending city]</text><line style="stroke:#181818;stroke-width:1.0;" x1="385" x2="432" y1="163.625" y2="163.625"/><line style="stroke:#181818;stroke-width:1.0;" x1="432" x2="432" y1="163.625" y2="176.625"/><line style="stroke:#181818;stroke-width:1.0;" x1="391" x2="432" y1="176.625" y2="176.625"/><polygon fill="#181818" points="401,172.625,391,176.625,401,180.625,397,176.625" style="stroke:#181818;stroke-width:1.0;"/><text fill="#000000" font-family="sans-serif" font-size="13" font-weight="bold" lengthAdjust="spacing" textLength="25" x="397" y="158.7686">49.1</text><text fill="#000000" font-family="sans-serif" font-size="13" lengthAdjust="spacing" textLength="330" x="426" y="158.7686">sortAnnouncementsByAscendingCity(announcementList)</text><line style="stroke:#181818;stroke-width:1.0;stroke-dasharray:2.0,2.0;" x1="390" x2="432" y1="216.9766" y2="216.9766"/><line style="stroke:#181818;stroke-width:1.0;stroke-dasharray:2.0,2.0;" x1="432" x2="432" y1="216.9766" y2="229.9766"/><line style="stroke:#181818;stroke-width:1.0;stroke-dasharray:2.0,2.0;" x1="385" x2="432" y1="229.9766" y2="229.9766"/><polygon fill="#181818" points="395,225.9766,385,229.9766,395,233.9766,391,229.9766" style="stroke:#181818;stroke-width:1.0;"/><text fill="#000000" font-family="sans-serif" font-size="13" font-weight="bold" lengthAdjust="spacing" textLength="25" x="397" y="212.1201">49.2</text><text fill="#000000" font-family="sans-serif" font-size="13" lengthAdjust="spacing" textLength="106" x="426" y="212.1201">announcementList</text><line style="stroke:#000000;stroke-width:1.0;stroke-dasharray:2.0,2.0;" x1="330.5" x2="775" y1="233.9766" y2="233.9766"/><text fill="#000000" font-family="sans-serif" font-size="11" font-weight="bold" lengthAdjust="spacing" textLength="95" x="335.5" y="245.3955">[descending city]</text><line style="stroke:#181818;stroke-width:1.0;" x1="385" x2="432" y1="266.1641" y2="266.1641"/><line style="stroke:#181818;stroke-width:1.0;" x1="432" x2="432" y1="266.1641" y2="279.1641"/><line style="stroke:#181818;stroke-width:1.0;" x1="391" x2="432" y1="279.1641" y2="279.1641"/><polygon fill="#181818" points="401,275.1641,391,279.1641,401,283.1641,397,279.1641" style="stroke:#181818;stroke-width:1.0;"/><text fill="#000000" font-family="sans-serif" font-size="13" font-weight="bold" lengthAdjust="spacing" textLength="25" x="397" y="261.3076">49.3</text><text fill="#000000" font-family="sans-serif" font-size="13" lengthAdjust="spacing" textLength="337" x="426" y="261.3076">sortAnnouncementsByDescendingCity(announcementList)</text><line style="stroke:#181818;stroke-width:1.0;stroke-dasharray:2.0,2.0;" x1="390" x2="432" y1="319.5156" y2="319.5156"/><line style="stroke:#181818;stroke-width:1.0;stroke-dasharray:2.0,2.0;" x1="432" x2="432" y1="319.5156" y2="332.5156"/><line style="stroke:#181818;stroke-width:1.0;stroke-dasharray:2.0,2.0;" x1="385" x2="432" y1="332.5156" y2="332.5156"/><polygon fill="#181818" points="395,328.5156,385,332.5156,395,336.5156,391,332.5156" style="stroke:#181818;stroke-width:1.0;"/><text fill="#000000" font-family="sans-serif" font-size="13" font-weight="bold" lengthAdjust="spacing" textLength="25" x="397" y="314.6592">49.4</text><text fill="#000000" font-family="sans-serif" font-size="13" lengthAdjust="spacing" textLength="106" x="426" y="314.6592">announcementList</text><polygon fill="#181818" points="11,417.8672,1,421.8672,11,425.8672,7,421.8672" style="stroke:#181818;stroke-width:1.0;"/><line style="stroke:#181818;stroke-width:1.0;stroke-dasharray:2.0,2.0;" x1="5" x2="369" y1="421.8672" y2="421.8672"/><text fill="#000000" font-family="sans-serif" font-size="13" font-weight="bold" lengthAdjust="spacing" textLength="14" x="17" y="417.0107">50</text><text fill="#000000" font-family="sans-serif" font-size="13" lengthAdjust="spacing" textLength="106" x="35" y="417.0107">announcementList</text><!--SRC=[pLB1IiGm4BtdAuOzhR0L1JsuYD1TnOjusPFWPKp7RjXsKfAf4kZ7czPrQMtfnOjpcinxUMyUYJyOhj1X2QLbg_VEbWJYQbB-X5Ie3vZJJa91u4WBSbxq2NwFcVqqdCCx5fwKYcCnsbJ80ejubNLuvJMaNRS0z90-FZnlNvJ2MYpNvHivkBfHoTqHW3LuwoHbjZLhAed5BxMHi0895UqY5krMW3t2a_5ofb2B-K2XQOVpon41OkNErXMqgZ2mX4s0RNHL7QijB2IkhucpDguUO6qTrvyDiWdfZq8hlXo7w2kE0atPzVr-omqkP3IhH_7v8kVF0U_fFoPickRKn-rKVzQUkwRtNwullaUtIJ9ZFc7u1G00]--></g></svg>