<?xml version="1.0" encoding="UTF-8" standalone="no"?><svg xmlns="http://www.w3.org/2000/svg" xmlns:xlink="http://www.w3.org/1999/xlink" contentStyleType="text/css" height="568px" preserveAspectRatio="none" style="width:739px;height:568px;background:#FFFFFF;" version="1.1" viewBox="0 0 739 568" width="739px" zoomAndPan="magnify"><defs/><g><rect fill="#FFFFFF" height="401.1641" style="stroke:#181818;stroke-width:1.0;" width="10" x="361" y="103.9219"/><rect fill="#FFFFFF" height="392.1641" style="stroke:#181818;stroke-width:1.0;" width="10" x="361" y="103.9219"/><rect fill="#FFFFFF" height="41.3516" style="stroke:#181818;stroke-width:1.0;" width="10" x="366" y="209.3281"/><rect fill="#FFFFFF" height="41.3516" style="stroke:#181818;stroke-width:1.0;" width="10" x="366" y="321.3828"/><rect fill="none" height="347.8125" style="stroke:#000000;stroke-width:1.5;" width="436.5" x="296.5" y="118.9219"/><rect fill="none" height="290.4609" style="stroke:#000000;stroke-width:1.5;" width="416.5" x="306.5" y="144.2734"/><rect fill="none" height="130.0547" style="stroke:#000000;stroke-width:1.5;" width="349.5" x="316.5" y="272.6797"/><line style="stroke:#181818;stroke-width:0.5;stroke-dasharray:5.0,5.0;" x1="360.5" x2="360.5" y1="55.2188" y2="514.0859"/><rect fill="#E3E3E3" height="49.2188" rx="2.5" ry="2.5" style="stroke:#181818;stroke-width:0.5;" width="69" x="326.5" y="5"/><text fill="#000000" font-family="sans-serif" font-size="14" lengthAdjust="spacing" textLength="46" x="338" y="26.5332">agency</text><text fill="#000000" font-family="sans-serif" font-size="14" lengthAdjust="spacing" textLength="55" x="333.5" y="44.1426">: Agency</text><rect fill="#E3E3E3" height="49.2188" rx="2.5" ry="2.5" style="stroke:#181818;stroke-width:0.5;" width="69" x="326.5" y="513.0859"/><text fill="#000000" font-family="sans-serif" font-size="14" lengthAdjust="spacing" textLength="46" x="338" y="534.6191">agency</text><text fill="#000000" font-family="sans-serif" font-size="14" lengthAdjust="spacing" textLength="55" x="333.5" y="552.2285">: Agency</text><rect fill="#FFFFFF" height="401.1641" style="stroke:#181818;stroke-width:1.0;" width="10" x="361" y="103.9219"/><rect fill="#FFFFFF" height="392.1641" style="stroke:#181818;stroke-width:1.0;" width="10" x="361" y="103.9219"/><rect fill="#FFFFFF" height="41.3516" style="stroke:#181818;stroke-width:1.0;" width="10" x="366" y="209.3281"/><rect fill="#FFFFFF" height="41.3516" style="stroke:#181818;stroke-width:1.0;" width="10" x="366" y="321.3828"/><polygon fill="#181818" points="344,99.9219,354,103.9219,344,107.9219,348,103.9219" style="stroke:#181818;stroke-width:1.0;"/><line style="stroke:#181818;stroke-width:1.0;" x1="0" x2="350" y1="103.9219" y2="103.9219"/><text fill="#000000" font-family="sans-serif" font-size="13" font-weight="bold" lengthAdjust="spacing" textLength="14" x="7" y="90.8896">19</text><text fill="#000000" font-family="sans-serif" font-size="13" lengthAdjust="spacing" textLength="319" x="25" y="82.7139">getAnnouncementsByTypeProperty(announcementList,</text><text fill="#000000" font-family="sans-serif" font-size="13" lengthAdjust="spacing" textLength="78" x="29" y="99.0654">typeProperty)</text><path d="M296.5,118.9219 L582.5,118.9219 L582.5,127.2734 L572.5,137.2734 L296.5,137.2734 L296.5,118.9219 " fill="#EEEEEE" style="stroke:#000000;stroke-width:1.5;"/><rect fill="none" height="347.8125" style="stroke:#000000;stroke-width:1.5;" width="436.5" x="296.5" y="118.9219"/><text fill="#000000" font-family="sans-serif" font-size="13" font-weight="bold" lengthAdjust="spacing" textLength="241" x="311.5" y="133.417">Get Announcements By Property Type</text><path d="M306.5,144.2734 L379.5,144.2734 L379.5,152.625 L369.5,162.625 L306.5,162.625 L306.5,144.2734 " fill="#EEEEEE" style="stroke:#000000;stroke-width:1.5;"/><rect fill="none" height="290.4609" style="stroke:#000000;stroke-width:1.5;" width="416.5" x="306.5" y="144.2734"/><text fill="#000000" font-family="sans-serif" font-size="13" font-weight="bold" lengthAdjust="spacing" textLength="28" x="321.5" y="158.7686">loop</text><text fill="#000000" font-family="sans-serif" font-size="11" font-weight="bold" lengthAdjust="spacing" textLength="139" x="394.5" y="157.6924">[for each announcement]</text><line style="stroke:#181818;stroke-width:1.0;" x1="371" x2="418" y1="196.3281" y2="196.3281"/><line style="stroke:#181818;stroke-width:1.0;" x1="418" x2="418" y1="196.3281" y2="209.3281"/><line style="stroke:#181818;stroke-width:1.0;" x1="377" x2="418" y1="209.3281" y2="209.3281"/><polygon fill="#181818" points="387,205.3281,377,209.3281,387,213.3281,383,209.3281" style="stroke:#181818;stroke-width:1.0;"/><text fill="#000000" font-family="sans-serif" font-size="13" font-weight="bold" lengthAdjust="spacing" textLength="25" x="383" y="183.2959">19.1</text><text fill="#000000" font-family="sans-serif" font-size="13" lengthAdjust="spacing" textLength="299" x="412" y="175.1201">announcementHasTypeProperty(announcementList,</text><text fill="#000000" font-family="sans-serif" font-size="13" lengthAdjust="spacing" textLength="79" x="416" y="191.4717">propertyType)</text><line style="stroke:#181818;stroke-width:1.0;stroke-dasharray:2.0,2.0;" x1="376" x2="418" y1="249.6797" y2="249.6797"/><line style="stroke:#181818;stroke-width:1.0;stroke-dasharray:2.0,2.0;" x1="418" x2="418" y1="249.6797" y2="262.6797"/><line style="stroke:#181818;stroke-width:1.0;stroke-dasharray:2.0,2.0;" x1="371" x2="418" y1="262.6797" y2="262.6797"/><polygon fill="#181818" points="381,258.6797,371,262.6797,381,266.6797,377,262.6797" style="stroke:#181818;stroke-width:1.0;"/><text fill="#000000" font-family="sans-serif" font-size="13" font-weight="bold" lengthAdjust="spacing" textLength="25" x="383" y="244.8232">19.2</text><text fill="#000000" font-family="sans-serif" font-size="13" lengthAdjust="spacing" textLength="53" x="412" y="244.8232">true/false</text><path d="M316.5,272.6797 L377.5,272.6797 L377.5,281.0313 L367.5,291.0313 L316.5,291.0313 L316.5,272.6797 " fill="#EEEEEE" style="stroke:#000000;stroke-width:1.5;"/><rect fill="none" height="130.0547" style="stroke:#000000;stroke-width:1.5;" width="349.5" x="316.5" y="272.6797"/><text fill="#000000" font-family="sans-serif" font-size="13" font-weight="bold" lengthAdjust="spacing" textLength="16" x="331.5" y="287.1748">alt</text><text fill="#000000" font-family="sans-serif" font-size="11" font-weight="bold" lengthAdjust="spacing" textLength="35" x="392.5" y="286.0986">[false]</text><line style="stroke:#181818;stroke-width:1.0;" x1="371" x2="418" y1="308.3828" y2="308.3828"/><line style="stroke:#181818;stroke-width:1.0;" x1="418" x2="418" y1="308.3828" y2="321.3828"/><line style="stroke:#181818;stroke-width:1.0;" x1="377" x2="418" y1="321.3828" y2="321.3828"/><polygon fill="#181818" points="387,317.3828,377,321.3828,387,325.3828,383,321.3828" style="stroke:#181818;stroke-width:1.0;"/><text fill="#000000" font-family="sans-serif" font-size="13" font-weight="bold" lengthAdjust="spacing" textLength="25" x="383" y="303.5264">19.3</text><text fill="#000000" font-family="sans-serif" font-size="13" lengthAdjust="spacing" textLength="242" x="412" y="303.5264">removeAnnouncement(announcementList)</text><line style="stroke:#181818;stroke-width:1.0;stroke-dasharray:2.0,2.0;" x1="376" x2="418" y1="361.7344" y2="361.7344"/><line style="stroke:#181818;stroke-width:1.0;stroke-dasharray:2.0,2.0;" x1="418" x2="418" y1="361.7344" y2="374.7344"/><line style="stroke:#181818;stroke-width:1.0;stroke-dasharray:2.0,2.0;" x1="371" x2="418" y1="374.7344" y2="374.7344"/><polygon fill="#181818" points="381,370.7344,371,374.7344,381,378.7344,377,374.7344" style="stroke:#181818;stroke-width:1.0;"/><text fill="#000000" font-family="sans-serif" font-size="13" font-weight="bold" lengthAdjust="spacing" textLength="25" x="383" y="356.8779">19.4</text><text fill="#000000" font-family="sans-serif" font-size="13" lengthAdjust="spacing" textLength="106" x="412" y="356.8779">announcementList</text><polygon fill="#181818" points="11,492.0859,1,496.0859,11,500.0859,7,496.0859" style="stroke:#181818;stroke-width:1.0;"/><line style="stroke:#181818;stroke-width:1.0;stroke-dasharray:2.0,2.0;" x1="5" x2="355" y1="496.0859" y2="496.0859"/><text fill="#000000" font-family="sans-serif" font-size="13" font-weight="bold" lengthAdjust="spacing" textLength="14" x="17" y="491.2295">20</text><text fill="#000000" font-family="sans-serif" font-size="13" lengthAdjust="spacing" textLength="106" x="35" y="491.2295">announcementList</text><!--SRC=[XP9FImCn4CNl-HH3BrgmQhrPH6X5wa54q8lGopGxtGtTJK8oMrteXtTt-uVORDqvXRnVPjvBujTAMtHOG66qaPap1G6xaeG_AXRb6bFwu2edS2GPTPg7WCymCTzAfx32t9Eewo9J2S7A65wQ7r5ZhAIog1a6TIijguMUmBHT3G0zJEVFRqzVGc39HfV5aXoCxyNeSI_015BYgTQcr98AqkndrMTbwTqPIuwhImoqL-NvQg610s0eKBBQ85FthEjn141TgJEbXJan_1aEimeEdQ7n8LgwgTmOMmTtG2Wp26qTaKFjiuKfG_u5VMz4knSRS1WDY2AVSt2qC6aV_sRtZgTqGhqDCMVeFdmciAF2R2Yyt2ZdiBDNhvKp-KwxTvwBavuIs-qssYETz7B_COtMBeAVUNUxsteOZRf_IPiXzliB]--></g></svg>