<?xml version="1.0" encoding="UTF-8" standalone="no"?><svg xmlns="http://www.w3.org/2000/svg" xmlns:xlink="http://www.w3.org/1999/xlink" contentStyleType="text/css" height="568px" preserveAspectRatio="none" style="width:749px;height:568px;background:#FFFFFF;" version="1.1" viewBox="0 0 749 568" width="749px" zoomAndPan="magnify"><defs/><g><rect fill="#FFFFFF" height="401.1641" style="stroke:#181818;stroke-width:1.0;" width="10" x="366" y="103.9219"/><rect fill="#FFFFFF" height="392.1641" style="stroke:#181818;stroke-width:1.0;" width="10" x="366" y="103.9219"/><rect fill="#FFFFFF" height="41.3516" style="stroke:#181818;stroke-width:1.0;" width="10" x="371" y="209.3281"/><rect fill="#FFFFFF" height="41.3516" style="stroke:#181818;stroke-width:1.0;" width="10" x="371" y="321.3828"/><rect fill="none" height="347.8125" style="stroke:#000000;stroke-width:1.5;" width="441.5" x="301.5" y="118.9219"/><rect fill="none" height="290.4609" style="stroke:#000000;stroke-width:1.5;" width="421.5" x="311.5" y="144.2734"/><rect fill="none" height="130.0547" style="stroke:#000000;stroke-width:1.5;" width="349.5" x="321.5" y="272.6797"/><line style="stroke:#181818;stroke-width:0.5;stroke-dasharray:5.0,5.0;" x1="365.5" x2="365.5" y1="55.2188" y2="514.0859"/><rect fill="#E3E3E3" height="49.2188" rx="2.5" ry="2.5" style="stroke:#181818;stroke-width:0.5;" width="69" x="331.5" y="5"/><text fill="#000000" font-family="sans-serif" font-size="14" lengthAdjust="spacing" textLength="46" x="343" y="26.5332">agency</text><text fill="#000000" font-family="sans-serif" font-size="14" lengthAdjust="spacing" textLength="55" x="338.5" y="44.1426">: Agency</text><rect fill="#E3E3E3" height="49.2188" rx="2.5" ry="2.5" style="stroke:#181818;stroke-width:0.5;" width="69" x="331.5" y="513.0859"/><text fill="#000000" font-family="sans-serif" font-size="14" lengthAdjust="spacing" textLength="46" x="343" y="534.6191">agency</text><text fill="#000000" font-family="sans-serif" font-size="14" lengthAdjust="spacing" textLength="55" x="338.5" y="552.2285">: Agency</text><rect fill="#FFFFFF" height="401.1641" style="stroke:#181818;stroke-width:1.0;" width="10" x="366" y="103.9219"/><rect fill="#FFFFFF" height="392.1641" style="stroke:#181818;stroke-width:1.0;" width="10" x="366" y="103.9219"/><rect fill="#FFFFFF" height="41.3516" style="stroke:#181818;stroke-width:1.0;" width="10" x="371" y="209.3281"/><rect fill="#FFFFFF" height="41.3516" style="stroke:#181818;stroke-width:1.0;" width="10" x="371" y="321.3828"/><polygon fill="#181818" points="349,99.9219,359,103.9219,349,107.9219,353,103.9219" style="stroke:#181818;stroke-width:1.0;"/><line style="stroke:#181818;stroke-width:1.0;" x1="0" x2="355" y1="103.9219" y2="103.9219"/><text fill="#000000" font-family="sans-serif" font-size="13" font-weight="bold" lengthAdjust="spacing" textLength="14" x="7" y="90.8896">11</text><text fill="#000000" font-family="sans-serif" font-size="13" lengthAdjust="spacing" textLength="324" x="25" y="82.7139">getAnnouncementsByBusinessType(announcementList,</text><text fill="#000000" font-family="sans-serif" font-size="13" lengthAdjust="spacing" textLength="84" x="29" y="99.0654">businessType)</text><path d="M301.5,118.9219 L588.5,118.9219 L588.5,127.2734 L578.5,137.2734 L301.5,137.2734 L301.5,118.9219 " fill="#EEEEEE" style="stroke:#000000;stroke-width:1.5;"/><rect fill="none" height="347.8125" style="stroke:#000000;stroke-width:1.5;" width="441.5" x="301.5" y="118.9219"/><text fill="#000000" font-family="sans-serif" font-size="13" font-weight="bold" lengthAdjust="spacing" textLength="242" x="316.5" y="133.417">Get Announcements By Business Type</text><path d="M311.5,144.2734 L384.5,144.2734 L384.5,152.625 L374.5,162.625 L311.5,162.625 L311.5,144.2734 " fill="#EEEEEE" style="stroke:#000000;stroke-width:1.5;"/><rect fill="none" height="290.4609" style="stroke:#000000;stroke-width:1.5;" width="421.5" x="311.5" y="144.2734"/><text fill="#000000" font-family="sans-serif" font-size="13" font-weight="bold" lengthAdjust="spacing" textLength="28" x="326.5" y="158.7686">loop</text><text fill="#000000" font-family="sans-serif" font-size="11" font-weight="bold" lengthAdjust="spacing" textLength="139" x="399.5" y="157.6924">[for each announcement]</text><line style="stroke:#181818;stroke-width:1.0;" x1="376" x2="423" y1="196.3281" y2="196.3281"/><line style="stroke:#181818;stroke-width:1.0;" x1="423" x2="423" y1="196.3281" y2="209.3281"/><line style="stroke:#181818;stroke-width:1.0;" x1="382" x2="423" y1="209.3281" y2="209.3281"/><polygon fill="#181818" points="392,205.3281,382,209.3281,392,213.3281,388,209.3281" style="stroke:#181818;stroke-width:1.0;"/><text fill="#000000" font-family="sans-serif" font-size="13" font-weight="bold" lengthAdjust="spacing" textLength="25" x="388" y="183.2959">11.1</text><text fill="#000000" font-family="sans-serif" font-size="13" lengthAdjust="spacing" textLength="304" x="417" y="175.1201">announcementHasTypeBusiness(announcementList,</text><text fill="#000000" font-family="sans-serif" font-size="13" lengthAdjust="spacing" textLength="84" x="421" y="191.4717">businessType)</text><line style="stroke:#181818;stroke-width:1.0;stroke-dasharray:2.0,2.0;" x1="381" x2="423" y1="249.6797" y2="249.6797"/><line style="stroke:#181818;stroke-width:1.0;stroke-dasharray:2.0,2.0;" x1="423" x2="423" y1="249.6797" y2="262.6797"/><line style="stroke:#181818;stroke-width:1.0;stroke-dasharray:2.0,2.0;" x1="376" x2="423" y1="262.6797" y2="262.6797"/><polygon fill="#181818" points="386,258.6797,376,262.6797,386,266.6797,382,262.6797" style="stroke:#181818;stroke-width:1.0;"/><text fill="#000000" font-family="sans-serif" font-size="13" font-weight="bold" lengthAdjust="spacing" textLength="25" x="388" y="244.8232">11.2</text><text fill="#000000" font-family="sans-serif" font-size="13" lengthAdjust="spacing" textLength="53" x="417" y="244.8232">true/false</text><path d="M321.5,272.6797 L382.5,272.6797 L382.5,281.0313 L372.5,291.0313 L321.5,291.0313 L321.5,272.6797 " fill="#EEEEEE" style="stroke:#000000;stroke-width:1.5;"/><rect fill="none" height="130.0547" style="stroke:#000000;stroke-width:1.5;" width="349.5" x="321.5" y="272.6797"/><text fill="#000000" font-family="sans-serif" font-size="13" font-weight="bold" lengthAdjust="spacing" textLength="16" x="336.5" y="287.1748">alt</text><text fill="#000000" font-family="sans-serif" font-size="11" font-weight="bold" lengthAdjust="spacing" textLength="35" x="397.5" y="286.0986">[false]</text><line style="stroke:#181818;stroke-width:1.0;" x1="376" x2="423" y1="308.3828" y2="308.3828"/><line style="stroke:#181818;stroke-width:1.0;" x1="423" x2="423" y1="308.3828" y2="321.3828"/><line style="stroke:#181818;stroke-width:1.0;" x1="382" x2="423" y1="321.3828" y2="321.3828"/><polygon fill="#181818" points="392,317.3828,382,321.3828,392,325.3828,388,321.3828" style="stroke:#181818;stroke-width:1.0;"/><text fill="#000000" font-family="sans-serif" font-size="13" font-weight="bold" lengthAdjust="spacing" textLength="25" x="388" y="303.5264">11.3</text><text fill="#000000" font-family="sans-serif" font-size="13" lengthAdjust="spacing" textLength="242" x="417" y="303.5264">removeAnnouncement(announcementList)</text><line style="stroke:#181818;stroke-width:1.0;stroke-dasharray:2.0,2.0;" x1="381" x2="423" y1="361.7344" y2="361.7344"/><line style="stroke:#181818;stroke-width:1.0;stroke-dasharray:2.0,2.0;" x1="423" x2="423" y1="361.7344" y2="374.7344"/><line style="stroke:#181818;stroke-width:1.0;stroke-dasharray:2.0,2.0;" x1="376" x2="423" y1="374.7344" y2="374.7344"/><polygon fill="#181818" points="386,370.7344,376,374.7344,386,378.7344,382,374.7344" style="stroke:#181818;stroke-width:1.0;"/><text fill="#000000" font-family="sans-serif" font-size="13" font-weight="bold" lengthAdjust="spacing" textLength="25" x="388" y="356.8779">11.4</text><text fill="#000000" font-family="sans-serif" font-size="13" lengthAdjust="spacing" textLength="106" x="417" y="356.8779">announcementList</text><polygon fill="#181818" points="11,492.0859,1,496.0859,11,500.0859,7,496.0859" style="stroke:#181818;stroke-width:1.0;"/><line style="stroke:#181818;stroke-width:1.0;stroke-dasharray:2.0,2.0;" x1="5" x2="360" y1="496.0859" y2="496.0859"/><text fill="#000000" font-family="sans-serif" font-size="13" font-weight="bold" lengthAdjust="spacing" textLength="14" x="17" y="491.2295">12</text><text fill="#000000" font-family="sans-serif" font-size="13" lengthAdjust="spacing" textLength="106" x="35" y="491.2295">announcementList</text><!--SRC=[hL8zJyD03DtlLrYTGAAWCaO8gK6e38W55gGkxjLDJqryqPrJ52a_dZJzu23NAWEUBFlPpy-stnWkqM41XMMhryuM1E8gKlwKAL5lCADtgNC2HrgGipm4-3KkxPVX35QOUrAg3OlHfaGM6BMbhEiv9p3jl16WX-di-UtfKocin79LBCZ1PAB6ZuS4992HJ9bjnPeAOl5fdLRUC7d_KPTqXK7krNYvcJCi0i2rGYrcYq9nhjj93m2jPSvM9Sn8u1Svf3KSwM7NNdNedUNMbh2o3WZr6iAnVZ2X7GI6KiEY5-p6Fv8Dq1aZwMc_DCbfbAIx_Dt-YB6A9GrgZBd0-IQH1JWgx9R2ZVTq_w_Elzq7gesXcgQ9nOcNQWZq4cwNwvpmS-_teOVnEFv0dPp8eRu1]--></g></svg>