<?xml version="1.0" encoding="UTF-8" standalone="no"?><svg xmlns="http://www.w3.org/2000/svg" xmlns:xlink="http://www.w3.org/1999/xlink" contentStyleType="text/css" height="2111px" preserveAspectRatio="none" style="width:2010px;height:2111px;background:#FFFFFF;" version="1.1" viewBox="0 0 2010 2111" width="2010px" zoomAndPan="magnify"><defs/><g><text fill="#000000" font-family="sans-serif" font-size="14" font-weight="bold" lengthAdjust="spacing" textLength="221" x="893.75" y="29.5332">Sequence Diagram (SD) - US019</text><rect fill="#FFFFFF" height="1880.1797" style="stroke:#181818;stroke-width:1.0;" width="10" x="58" y="131.2188"/><rect fill="#FFFFFF" height="1857.8281" style="stroke:#181818;stroke-width:1.0;" width="10" x="370" y="153.5703"/><rect fill="#FFFFFF" height="1738.1641" style="stroke:#181818;stroke-width:1.0;" width="10" x="555" y="226.5313"/><rect fill="#FFFFFF" height="30.3516" style="stroke:#181818;stroke-width:1.0;" width="10" x="713.5" y="256.8828"/><rect fill="#FFFFFF" height="30.3516" style="stroke:#181818;stroke-width:1.0;" width="10" x="820.5" y="317.5859"/><rect fill="#FFFFFF" height="1080.6719" style="stroke:#181818;stroke-width:1.0;" width="10" x="945" y="378.2891"/><rect fill="#FFFFFF" height="30" style="stroke:#181818;stroke-width:1.0;" width="10" x="1140" y="476.6016"/><rect fill="#FFFFFF" height="184.1094" style="stroke:#181818;stroke-width:1.0;" width="10" x="1140" y="536.9531"/><rect fill="#FFFFFF" height="123.4063" style="stroke:#181818;stroke-width:1.0;" width="10" x="1291" y="567.3047"/><rect fill="#FFFFFF" height="30.3516" style="stroke:#181818;stroke-width:1.0;" width="10" x="1425" y="623.0078"/><rect fill="#FFFFFF" height="479.3828" style="stroke:#181818;stroke-width:1.0;" width="10" x="1526.5" y="949.2266"/><rect fill="#FFFFFF" height="383.8125" style="stroke:#181818;stroke-width:1.0;" width="10" x="1531.5" y="1007.4453"/><rect fill="#FFFFFF" height="41.3516" style="stroke:#181818;stroke-width:1.0;" width="10" x="1536.5" y="1050.7969"/><rect fill="#FFFFFF" height="41.3516" style="stroke:#181818;stroke-width:1.0;" width="10" x="1536.5" y="1162.8516"/><rect fill="#FFFFFF" height="41.3516" style="stroke:#181818;stroke-width:1.0;" width="10" x="1536.5" y="1274.5547"/><rect fill="#FFFFFF" height="445.0313" style="stroke:#181818;stroke-width:1.0;" width="10" x="1526.5" y="1489.3125"/><rect fill="#FFFFFF" height="41.3516" style="stroke:#181818;stroke-width:1.0;" width="10" x="1531.5" y="1587.8828"/><rect fill="#FFFFFF" height="41.3516" style="stroke:#181818;stroke-width:1.0;" width="10" x="1531.5" y="1734.9375"/><rect fill="#FFFFFF" height="30" style="stroke:#181818;stroke-width:1.0;" width="10" x="1846.5" y="811.6445"/><rect fill="#FFFFFF" height="30" style="stroke:#181818;stroke-width:1.0;" width="10" x="1953" y="1666.5859"/><rect fill="#FFFFFF" height="30" style="stroke:#181818;stroke-width:1.0;" width="10" x="1953" y="1813.6406"/><rect fill="#FFFFFF" height="30" style="stroke:#181818;stroke-width:1.0;" width="10" x="1953" y="1873.9922"/><rect fill="none" height="473.9766" style="stroke:#000000;stroke-width:1.5;" width="1153.5" x="758" y="435.8984"/><rect fill="none" height="79.0547" style="stroke:#000000;stroke-width:1.5;" width="278" x="1218.5" y="582.3047"/><rect fill="none" height="241.7578" style="stroke:#000000;stroke-width:1.5;" width="370" x="1486.5" y="1114.1484"/><line style="stroke:#181818;stroke-width:0.5;stroke-dasharray:5.0,5.0;" x1="63" x2="63" y1="121.2188" y2="2029.3984"/><line style="stroke:#181818;stroke-width:0.5;stroke-dasharray:5.0,5.0;" x1="375" x2="375" y1="121.2188" y2="2029.3984"/><line style="stroke:#181818;stroke-width:0.5;stroke-dasharray:5.0,5.0;" x1="560" x2="560" y1="192.875" y2="2029.3984"/><line style="stroke:#181818;stroke-width:0.5;stroke-dasharray:5.0,5.0;" x1="718" x2="718" y1="121.2188" y2="2029.3984"/><line style="stroke:#181818;stroke-width:0.5;stroke-dasharray:5.0,5.0;" x1="825" x2="825" y1="121.2188" y2="2029.3984"/><line style="stroke:#181818;stroke-width:0.5;stroke-dasharray:5.0,5.0;" x1="950" x2="950" y1="121.2188" y2="2029.3984"/><line style="stroke:#181818;stroke-width:0.5;stroke-dasharray:5.0,5.0;" x1="1144.5" x2="1144.5" y1="121.2188" y2="2029.3984"/><line style="stroke:#181818;stroke-width:0.5;stroke-dasharray:5.0,5.0;" x1="1295.5" x2="1295.5" y1="121.2188" y2="2029.3984"/><line style="stroke:#181818;stroke-width:0.5;stroke-dasharray:5.0,5.0;" x1="1429.5" x2="1429.5" y1="121.2188" y2="2029.3984"/><line style="stroke:#181818;stroke-width:0.5;stroke-dasharray:5.0,5.0;" x1="1531.5" x2="1531.5" y1="956.9844" y2="2029.3984"/><line style="stroke:#181818;stroke-width:0.5;stroke-dasharray:5.0,5.0;" x1="1851.5" x2="1851.5" y1="417.5938" y2="2029.3984"/><line style="stroke:#181818;stroke-width:0.5;stroke-dasharray:5.0,5.0;" x1="1957.5" x2="1957.5" y1="1537.4219" y2="2029.3984"/><text fill="#000000" font-family="sans-serif" font-size="14" lengthAdjust="spacing" textLength="110" x="5" y="118.1426">Network Manager</text><ellipse cx="63" cy="52.1094" fill="#E3E3E3" rx="8" ry="8" style="stroke:#181818;stroke-width:0.5;"/><path d="M63,60.1094 L63,87.1094 M50,68.1094 L76,68.1094 M63,87.1094 L50,102.1094 M63,87.1094 L76,102.1094 " fill="none" style="stroke:#181818;stroke-width:0.5;"/><text fill="#000000" font-family="sans-serif" font-size="14" lengthAdjust="spacing" textLength="110" x="5" y="2042.9316">Network Manager</text><ellipse cx="63" cy="2054.5078" fill="#E3E3E3" rx="8" ry="8" style="stroke:#181818;stroke-width:0.5;"/><path d="M63,2062.5078 L63,2089.5078 M50,2070.5078 L76,2070.5078 M63,2089.5078 L50,2104.5078 M63,2089.5078 L76,2104.5078 " fill="none" style="stroke:#181818;stroke-width:0.5;"/><rect fill="#E3E3E3" height="31.6094" rx="2.5" ry="2.5" style="stroke:#181818;stroke-width:0.5;" width="150" x="300" y="88.6094"/><text fill="#000000" font-family="sans-serif" font-size="14" lengthAdjust="spacing" textLength="136" x="307" y="110.1426">:SubdivideAgenciesUI</text><rect fill="#E3E3E3" height="31.6094" rx="2.5" ry="2.5" style="stroke:#181818;stroke-width:0.5;" width="150" x="300" y="2028.3984"/><text fill="#000000" font-family="sans-serif" font-size="14" lengthAdjust="spacing" textLength="136" x="307" y="2049.9316">:SubdivideAgenciesUI</text><rect fill="#E3E3E3" height="31.6094" rx="2.5" ry="2.5" style="stroke:#181818;stroke-width:0.5;" width="200" x="460" y="2028.3984"/><text fill="#000000" font-family="sans-serif" font-size="14" lengthAdjust="spacing" textLength="186" x="467" y="2049.9316">:SubdivideAgenciesController</text><rect fill="#E3E3E3" height="31.6094" rx="2.5" ry="2.5" style="stroke:#181818;stroke-width:0.5;" width="97" x="670" y="88.6094"/><text fill="#000000" font-family="sans-serif" font-size="14" lengthAdjust="spacing" textLength="83" x="677" y="110.1426">:Repositories</text><rect fill="#E3E3E3" height="31.6094" rx="2.5" ry="2.5" style="stroke:#181818;stroke-width:0.5;" width="97" x="670" y="2028.3984"/><text fill="#000000" font-family="sans-serif" font-size="14" lengthAdjust="spacing" textLength="83" x="677" y="2049.9316">:Repositories</text><rect fill="#E3E3E3" height="49.2188" rx="2.5" ry="2.5" style="stroke:#181818;stroke-width:0.5;" width="97" x="777" y="71"/><text fill="#000000" font-family="sans-serif" font-size="14" lengthAdjust="spacing" textLength="74" x="788.5" y="92.5332">repositories</text><text fill="#000000" font-family="sans-serif" font-size="14" lengthAdjust="spacing" textLength="83" x="784" y="110.1426">:Repositories</text><rect fill="#E3E3E3" height="49.2188" rx="2.5" ry="2.5" style="stroke:#181818;stroke-width:0.5;" width="97" x="777" y="2028.3984"/><text fill="#000000" font-family="sans-serif" font-size="14" lengthAdjust="spacing" textLength="74" x="788.5" y="2049.9316">repositories</text><text fill="#000000" font-family="sans-serif" font-size="14" lengthAdjust="spacing" textLength="83" x="784" y="2067.541">:Repositories</text><rect fill="#E3E3E3" height="49.2188" rx="2.5" ry="2.5" style="stroke:#181818;stroke-width:0.5;" width="132" x="884" y="71"/><text fill="#000000" font-family="sans-serif" font-size="14" lengthAdjust="spacing" textLength="118" x="891" y="92.5332">agencyRepository:</text><text fill="#000000" font-family="sans-serif" font-size="14" lengthAdjust="spacing" textLength="115" x="892.5" y="110.1426">AgencyRepository</text><rect fill="#E3E3E3" height="49.2188" rx="2.5" ry="2.5" style="stroke:#181818;stroke-width:0.5;" width="132" x="884" y="2028.3984"/><text fill="#000000" font-family="sans-serif" font-size="14" lengthAdjust="spacing" textLength="118" x="891" y="2049.9316">agencyRepository:</text><text fill="#000000" font-family="sans-serif" font-size="14" lengthAdjust="spacing" textLength="115" x="892.5" y="2067.541">AgencyRepository</text><rect fill="#E3E3E3" height="49.2188" rx="2.5" ry="2.5" style="stroke:#181818;stroke-width:0.5;" width="65" x="1112.5" y="71"/><text fill="#000000" font-family="sans-serif" font-size="14" lengthAdjust="spacing" textLength="46" x="1122" y="92.5332">agency</text><text fill="#000000" font-family="sans-serif" font-size="14" lengthAdjust="spacing" textLength="51" x="1119.5" y="110.1426">:Agency</text><rect fill="#E3E3E3" height="49.2188" rx="2.5" ry="2.5" style="stroke:#181818;stroke-width:0.5;" width="65" x="1112.5" y="2028.3984"/><text fill="#000000" font-family="sans-serif" font-size="14" lengthAdjust="spacing" textLength="46" x="1122" y="2049.9316">agency</text><text fill="#000000" font-family="sans-serif" font-size="14" lengthAdjust="spacing" textLength="51" x="1119.5" y="2067.541">:Agency</text><rect fill="#E3E3E3" height="49.2188" rx="2.5" ry="2.5" style="stroke:#181818;stroke-width:0.5;" width="135" x="1228.5" y="71"/><text fill="#000000" font-family="sans-serif" font-size="14" lengthAdjust="spacing" textLength="116" x="1238" y="92.5332">announcementList</text><text fill="#000000" font-family="sans-serif" font-size="14" lengthAdjust="spacing" textLength="121" x="1235.5" y="110.1426">:AnnouncementList</text><rect fill="#E3E3E3" height="49.2188" rx="2.5" ry="2.5" style="stroke:#181818;stroke-width:0.5;" width="135" x="1228.5" y="2028.3984"/><text fill="#000000" font-family="sans-serif" font-size="14" lengthAdjust="spacing" textLength="116" x="1238" y="2049.9316">announcementList</text><text fill="#000000" font-family="sans-serif" font-size="14" lengthAdjust="spacing" textLength="121" x="1235.5" y="2067.541">:AnnouncementList</text><rect fill="#E3E3E3" height="49.2188" rx="2.5" ry="2.5" style="stroke:#181818;stroke-width:0.5;" width="113" x="1373.5" y="71"/><text fill="#000000" font-family="sans-serif" font-size="14" lengthAdjust="spacing" textLength="94" x="1383" y="92.5332">announcement</text><text fill="#000000" font-family="sans-serif" font-size="14" lengthAdjust="spacing" textLength="99" x="1380.5" y="110.1426">:Announcement</text><rect fill="#E3E3E3" height="49.2188" rx="2.5" ry="2.5" style="stroke:#181818;stroke-width:0.5;" width="113" x="1373.5" y="2028.3984"/><text fill="#000000" font-family="sans-serif" font-size="14" lengthAdjust="spacing" textLength="94" x="1383" y="2049.9316">announcement</text><text fill="#000000" font-family="sans-serif" font-size="14" lengthAdjust="spacing" textLength="99" x="1380.5" y="2067.541">:Announcement</text><rect fill="#E3E3E3" height="49.2188" rx="2.5" ry="2.5" style="stroke:#181818;stroke-width:0.5;" width="70" x="1496.5" y="2028.3984"/><text fill="#000000" font-family="sans-serif" font-size="14" lengthAdjust="spacing" textLength="51" x="1506" y="2049.9316">partition</text><text fill="#000000" font-family="sans-serif" font-size="14" lengthAdjust="spacing" textLength="56" x="1503.5" y="2067.541">:Partition</text><rect fill="#E3E3E3" height="31.6094" rx="2.5" ry="2.5" style="stroke:#181818;stroke-width:0.5;" width="100" x="1801.5" y="2028.3984"/><text fill="#000000" font-family="sans-serif" font-size="14" lengthAdjust="spacing" textLength="86" x="1808.5" y="2049.9316">:List&lt;Integer&gt;</text><rect fill="#E3E3E3" height="49.2188" rx="2.5" ry="2.5" style="stroke:#181818;stroke-width:0.5;" width="93" x="1911.5" y="2028.3984"/><text fill="#000000" font-family="sans-serif" font-size="14" lengthAdjust="spacing" textLength="75" x="1920.5" y="2049.9316">subListsInfo</text><text fill="#000000" font-family="sans-serif" font-size="14" lengthAdjust="spacing" textLength="79" x="1918.5" y="2067.541">:List&lt;String&gt;</text><rect fill="#FFFFFF" height="1880.1797" style="stroke:#181818;stroke-width:1.0;" width="10" x="58" y="131.2188"/><rect fill="#FFFFFF" height="1857.8281" style="stroke:#181818;stroke-width:1.0;" width="10" x="370" y="153.5703"/><rect fill="#FFFFFF" height="1738.1641" style="stroke:#181818;stroke-width:1.0;" width="10" x="555" y="226.5313"/><rect fill="#FFFFFF" height="30.3516" style="stroke:#181818;stroke-width:1.0;" width="10" x="713.5" y="256.8828"/><rect fill="#FFFFFF" height="30.3516" style="stroke:#181818;stroke-width:1.0;" width="10" x="820.5" y="317.5859"/><rect fill="#FFFFFF" height="1080.6719" style="stroke:#181818;stroke-width:1.0;" width="10" x="945" y="378.2891"/><rect fill="#FFFFFF" height="30" style="stroke:#181818;stroke-width:1.0;" width="10" x="1140" y="476.6016"/><rect fill="#FFFFFF" height="184.1094" style="stroke:#181818;stroke-width:1.0;" width="10" x="1140" y="536.9531"/><rect fill="#FFFFFF" height="123.4063" style="stroke:#181818;stroke-width:1.0;" width="10" x="1291" y="567.3047"/><rect fill="#FFFFFF" height="30.3516" style="stroke:#181818;stroke-width:1.0;" width="10" x="1425" y="623.0078"/><rect fill="#FFFFFF" height="479.3828" style="stroke:#181818;stroke-width:1.0;" width="10" x="1526.5" y="949.2266"/><rect fill="#FFFFFF" height="383.8125" style="stroke:#181818;stroke-width:1.0;" width="10" x="1531.5" y="1007.4453"/><rect fill="#FFFFFF" height="41.3516" style="stroke:#181818;stroke-width:1.0;" width="10" x="1536.5" y="1050.7969"/><rect fill="#FFFFFF" height="41.3516" style="stroke:#181818;stroke-width:1.0;" width="10" x="1536.5" y="1162.8516"/><rect fill="#FFFFFF" height="41.3516" style="stroke:#181818;stroke-width:1.0;" width="10" x="1536.5" y="1274.5547"/><rect fill="#FFFFFF" height="445.0313" style="stroke:#181818;stroke-width:1.0;" width="10" x="1526.5" y="1489.3125"/><rect fill="#FFFFFF" height="41.3516" style="stroke:#181818;stroke-width:1.0;" width="10" x="1531.5" y="1587.8828"/><rect fill="#FFFFFF" height="41.3516" style="stroke:#181818;stroke-width:1.0;" width="10" x="1531.5" y="1734.9375"/><rect fill="#FFFFFF" height="30" style="stroke:#181818;stroke-width:1.0;" width="10" x="1846.5" y="811.6445"/><rect fill="#FFFFFF" height="30" style="stroke:#181818;stroke-width:1.0;" width="10" x="1953" y="1666.5859"/><rect fill="#FFFFFF" height="30" style="stroke:#181818;stroke-width:1.0;" width="10" x="1953" y="1813.6406"/><rect fill="#FFFFFF" height="30" style="stroke:#181818;stroke-width:1.0;" width="10" x="1953" y="1873.9922"/><polygon fill="#181818" points="358,149.5703,368,153.5703,358,157.5703,362,153.5703" style="stroke:#181818;stroke-width:1.0;"/><line style="stroke:#181818;stroke-width:1.0;" x1="68" x2="364" y1="153.5703" y2="153.5703"/><text fill="#000000" font-family="sans-serif" font-size="13" font-weight="bold" lengthAdjust="spacing" textLength="7" x="75" y="148.7139">1</text><text fill="#000000" font-family="sans-serif" font-size="13" lengthAdjust="spacing" textLength="272" x="86" y="148.7139">asks to divide set of Agencies into two subsets</text><polygon fill="#181818" points="448,179.9219,458,183.9219,448,187.9219,452,183.9219" style="stroke:#181818;stroke-width:1.0;"/><line style="stroke:#181818;stroke-width:1.0;" x1="380" x2="454" y1="183.9219" y2="183.9219"/><text fill="#000000" font-family="sans-serif" font-size="13" font-weight="bold" lengthAdjust="spacing" textLength="7" x="387" y="179.0654">2</text><text fill="#000000" font-family="sans-serif" font-size="13" lengthAdjust="spacing" textLength="36" x="398" y="179.0654">create</text><rect fill="#E3E3E3" height="31.6094" rx="2.5" ry="2.5" style="stroke:#181818;stroke-width:0.5;" width="200" x="460" y="161.5703"/><text fill="#000000" font-family="sans-serif" font-size="14" lengthAdjust="spacing" textLength="186" x="467" y="183.1035">:SubdivideAgenciesController</text><polygon fill="#181818" points="543,222.5313,553,226.5313,543,230.5313,547,226.5313" style="stroke:#181818;stroke-width:1.0;"/><line style="stroke:#181818;stroke-width:1.0;" x1="380" x2="549" y1="226.5313" y2="226.5313"/><text fill="#000000" font-family="sans-serif" font-size="13" font-weight="bold" lengthAdjust="spacing" textLength="7" x="387" y="221.6748">3</text><text fill="#000000" font-family="sans-serif" font-size="13" lengthAdjust="spacing" textLength="135" x="398" y="221.6748">getAgenciesPartitions()</text><polygon fill="#181818" points="701.5,252.8828,711.5,256.8828,701.5,260.8828,705.5,256.8828" style="stroke:#181818;stroke-width:1.0;"/><line style="stroke:#181818;stroke-width:1.0;" x1="565" x2="707.5" y1="256.8828" y2="256.8828"/><text fill="#000000" font-family="sans-serif" font-size="13" font-weight="bold" lengthAdjust="spacing" textLength="7" x="572" y="252.0264">4</text><text fill="#000000" font-family="sans-serif" font-size="13" lengthAdjust="spacing" textLength="75" x="583" y="252.0264">getInstance()</text><polygon fill="#181818" points="576,283.2344,566,287.2344,576,291.2344,572,287.2344" style="stroke:#181818;stroke-width:1.0;"/><line style="stroke:#181818;stroke-width:1.0;stroke-dasharray:2.0,2.0;" x1="570" x2="717.5" y1="287.2344" y2="287.2344"/><text fill="#000000" font-family="sans-serif" font-size="13" font-weight="bold" lengthAdjust="spacing" textLength="7" x="582" y="282.3779">5</text><text fill="#000000" font-family="sans-serif" font-size="13" lengthAdjust="spacing" textLength="67" x="593" y="282.3779">repositories</text><polygon fill="#181818" points="808.5,313.5859,818.5,317.5859,808.5,321.5859,812.5,317.5859" style="stroke:#181818;stroke-width:1.0;"/><line style="stroke:#181818;stroke-width:1.0;" x1="565" x2="814.5" y1="317.5859" y2="317.5859"/><text fill="#000000" font-family="sans-serif" font-size="13" font-weight="bold" lengthAdjust="spacing" textLength="7" x="572" y="312.7295">6</text><text fill="#000000" font-family="sans-serif" font-size="13" lengthAdjust="spacing" textLength="132" x="583" y="312.7295">getAgencyRepository()</text><polygon fill="#181818" points="576,343.9375,566,347.9375,576,351.9375,572,347.9375" style="stroke:#181818;stroke-width:1.0;"/><line style="stroke:#181818;stroke-width:1.0;stroke-dasharray:2.0,2.0;" x1="570" x2="824.5" y1="347.9375" y2="347.9375"/><text fill="#000000" font-family="sans-serif" font-size="13" font-weight="bold" lengthAdjust="spacing" textLength="7" x="582" y="343.0811">7</text><text fill="#000000" font-family="sans-serif" font-size="13" lengthAdjust="spacing" textLength="104" x="593" y="343.0811">agencyRepository</text><polygon fill="#181818" points="933,374.2891,943,378.2891,933,382.2891,937,378.2891" style="stroke:#181818;stroke-width:1.0;"/><line style="stroke:#181818;stroke-width:1.0;" x1="565" x2="939" y1="378.2891" y2="378.2891"/><text fill="#000000" font-family="sans-serif" font-size="13" font-weight="bold" lengthAdjust="spacing" textLength="7" x="572" y="373.4326">8</text><text fill="#000000" font-family="sans-serif" font-size="13" lengthAdjust="spacing" textLength="171" x="583" y="373.4326">getDealsNumberOfAgencies()</text><polygon fill="#181818" points="1789.5,404.6406,1799.5,408.6406,1789.5,412.6406,1793.5,408.6406" style="stroke:#181818;stroke-width:1.0;"/><line style="stroke:#181818;stroke-width:1.0;" x1="955" x2="1795.5" y1="408.6406" y2="408.6406"/><text fill="#000000" font-family="sans-serif" font-size="13" font-weight="bold" lengthAdjust="spacing" textLength="7" x="962" y="403.7842">9</text><text fill="#000000" font-family="sans-serif" font-size="13" lengthAdjust="spacing" textLength="123" x="973" y="403.7842">listOfDeals = create()</text><rect fill="#E3E3E3" height="31.6094" rx="2.5" ry="2.5" style="stroke:#181818;stroke-width:0.5;" width="100" x="1801.5" y="386.2891"/><text fill="#000000" font-family="sans-serif" font-size="14" lengthAdjust="spacing" textLength="86" x="1808.5" y="407.8223">:List&lt;Integer&gt;</text><path d="M758,435.8984 L831,435.8984 L831,444.25 L821,454.25 L758,454.25 L758,435.8984 " fill="#EEEEEE" style="stroke:#000000;stroke-width:1.5;"/><rect fill="none" height="473.9766" style="stroke:#000000;stroke-width:1.5;" width="1153.5" x="758" y="435.8984"/><text fill="#000000" font-family="sans-serif" font-size="13" font-weight="bold" lengthAdjust="spacing" textLength="28" x="773" y="450.3936">loop</text><text fill="#000000" font-family="sans-serif" font-size="11" font-weight="bold" lengthAdjust="spacing" textLength="92" x="846" y="449.3174">[for all agencies]</text><polygon fill="#181818" points="1128,472.6016,1138,476.6016,1128,480.6016,1132,476.6016" style="stroke:#181818;stroke-width:1.0;"/><line style="stroke:#181818;stroke-width:1.0;" x1="955" x2="1134" y1="476.6016" y2="476.6016"/><text fill="#000000" font-family="sans-serif" font-size="13" font-weight="bold" lengthAdjust="spacing" textLength="14" x="962" y="471.7451">10</text><text fill="#000000" font-family="sans-serif" font-size="13" lengthAdjust="spacing" textLength="148" x="980" y="471.7451">agencyId = getAgencyId()</text><polygon fill="#181818" points="1128,532.9531,1138,536.9531,1128,540.9531,1132,536.9531" style="stroke:#181818;stroke-width:1.0;"/><line style="stroke:#181818;stroke-width:1.0;" x1="955" x2="1134" y1="536.9531" y2="536.9531"/><text fill="#000000" font-family="sans-serif" font-size="13" font-weight="bold" lengthAdjust="spacing" textLength="14" x="962" y="532.0967">11</text><text fill="#000000" font-family="sans-serif" font-size="13" lengthAdjust="spacing" textLength="117" x="980" y="532.0967">getNumberOfDeals()</text><polygon fill="#181818" points="1279,563.3047,1289,567.3047,1279,571.3047,1283,567.3047" style="stroke:#181818;stroke-width:1.0;"/><line style="stroke:#181818;stroke-width:1.0;" x1="1150" x2="1285" y1="567.3047" y2="567.3047"/><text fill="#000000" font-family="sans-serif" font-size="13" font-weight="bold" lengthAdjust="spacing" textLength="14" x="1157" y="562.4482">12</text><text fill="#000000" font-family="sans-serif" font-size="13" lengthAdjust="spacing" textLength="104" x="1175" y="562.4482">getDealsNumber()</text><path d="M1218.5,582.3047 L1291.5,582.3047 L1291.5,590.6563 L1281.5,600.6563 L1218.5,600.6563 L1218.5,582.3047 " fill="#EEEEEE" style="stroke:#000000;stroke-width:1.5;"/><rect fill="none" height="79.0547" style="stroke:#000000;stroke-width:1.5;" width="278" x="1218.5" y="582.3047"/><text fill="#000000" font-family="sans-serif" font-size="13" font-weight="bold" lengthAdjust="spacing" textLength="28" x="1233.5" y="596.7998">loop</text><text fill="#000000" font-family="sans-serif" font-size="11" font-weight="bold" lengthAdjust="spacing" textLength="132" x="1306.5" y="595.7236">[for all announcements]</text><polygon fill="#181818" points="1413,619.0078,1423,623.0078,1413,627.0078,1417,623.0078" style="stroke:#181818;stroke-width:1.0;"/><line style="stroke:#181818;stroke-width:1.0;" x1="1301" x2="1419" y1="623.0078" y2="623.0078"/><text fill="#000000" font-family="sans-serif" font-size="13" font-weight="bold" lengthAdjust="spacing" textLength="14" x="1308" y="618.1514">13</text><text fill="#000000" font-family="sans-serif" font-size="13" lengthAdjust="spacing" textLength="44" x="1326" y="618.1514">isDeal()</text><polygon fill="#181818" points="1312,649.3594,1302,653.3594,1312,657.3594,1308,653.3594" style="stroke:#181818;stroke-width:1.0;"/><line style="stroke:#181818;stroke-width:1.0;stroke-dasharray:2.0,2.0;" x1="1306" x2="1429" y1="653.3594" y2="653.3594"/><text fill="#000000" font-family="sans-serif" font-size="13" font-weight="bold" lengthAdjust="spacing" textLength="14" x="1318" y="648.5029">14</text><text fill="#000000" font-family="sans-serif" font-size="13" lengthAdjust="spacing" textLength="53" x="1336" y="648.5029">true/false</text><polygon fill="#181818" points="1161,686.7109,1151,690.7109,1161,694.7109,1157,690.7109" style="stroke:#181818;stroke-width:1.0;"/><line style="stroke:#181818;stroke-width:1.0;stroke-dasharray:2.0,2.0;" x1="1155" x2="1295" y1="690.7109" y2="690.7109"/><text fill="#000000" font-family="sans-serif" font-size="13" font-weight="bold" lengthAdjust="spacing" textLength="14" x="1167" y="685.8545">15</text><text fill="#000000" font-family="sans-serif" font-size="13" lengthAdjust="spacing" textLength="76" x="1185" y="685.8545">dealsNumber</text><polygon fill="#181818" points="966,717.0625,956,721.0625,966,725.0625,962,721.0625" style="stroke:#181818;stroke-width:1.0;"/><line style="stroke:#181818;stroke-width:1.0;stroke-dasharray:2.0,2.0;" x1="960" x2="1144" y1="721.0625" y2="721.0625"/><text fill="#000000" font-family="sans-serif" font-size="13" font-weight="bold" lengthAdjust="spacing" textLength="14" x="972" y="716.2061">16</text><text fill="#000000" font-family="sans-serif" font-size="13" lengthAdjust="spacing" textLength="76" x="990" y="716.2061">dealsNumber</text><polygon fill="#181818" points="1834.5,807.6445,1844.5,811.6445,1834.5,815.6445,1838.5,811.6445" style="stroke:#181818;stroke-width:1.0;"/><line style="stroke:#181818;stroke-width:1.0;" x1="955" x2="1840.5" y1="811.6445" y2="811.6445"/><text fill="#000000" font-family="sans-serif" font-size="13" font-weight="bold" lengthAdjust="spacing" textLength="14" x="962" y="806.7881">17</text><text fill="#000000" font-family="sans-serif" font-size="13" lengthAdjust="spacing" textLength="165" x="980" y="806.7881">add(agencyId, dealsNumber)</text><path d="M768,734.0625 L768,874.0625 L940,874.0625 L940,744.0625 L930,734.0625 L768,734.0625 " fill="#FAFAFA" style="stroke:#181818;stroke-width:0.5;"/><path d="M930,734.0625 L930,744.0625 L940,744.0625 L930,734.0625 " fill="#FAFAFA" style="stroke:#181818;stroke-width:0.5;"/><text fill="#000000" font-family="sans-serif" font-size="13" lengthAdjust="spacing" textLength="120" x="774" y="752.5576">Lists in JAVA have a</text><text fill="#000000" font-family="sans-serif" font-size="13" lengthAdjust="spacing" textLength="150" x="774" y="768.9092">method to place an object</text><text fill="#000000" font-family="sans-serif" font-size="13" lengthAdjust="spacing" textLength="98" x="774" y="785.2607">in a specific slot.</text><text fill="#000000" font-family="sans-serif" font-size="13" lengthAdjust="spacing" textLength="4" x="774" y="801.6123"> </text><text fill="#000000" font-family="sans-serif" font-size="13" lengthAdjust="spacing" textLength="151" x="774" y="817.9639">In this case, dealsNumber</text><text fill="#000000" font-family="sans-serif" font-size="13" lengthAdjust="spacing" textLength="143" x="774" y="834.3154">will be placed on the slot</text><text fill="#000000" font-family="sans-serif" font-size="13" lengthAdjust="spacing" textLength="136" x="774" y="850.667">in which its index is the</text><text fill="#000000" font-family="sans-serif" font-size="13" lengthAdjust="spacing" textLength="110" x="774" y="867.0186">same as agencyId.</text><polygon fill="#181818" points="1484.5,935.2266,1494.5,939.2266,1484.5,943.2266,1488.5,939.2266" style="stroke:#181818;stroke-width:1.0;"/><line style="stroke:#181818;stroke-width:1.0;" x1="955" x2="1490.5" y1="939.2266" y2="939.2266"/><text fill="#000000" font-family="sans-serif" font-size="13" font-weight="bold" lengthAdjust="spacing" textLength="14" x="962" y="934.3701">18</text><text fill="#000000" font-family="sans-serif" font-size="13" lengthAdjust="spacing" textLength="107" x="980" y="934.3701">create(listOfDeals)</text><rect fill="#E3E3E3" height="49.2188" rx="2.5" ry="2.5" style="stroke:#181818;stroke-width:0.5;" width="70" x="1496.5" y="916.875"/><text fill="#000000" font-family="sans-serif" font-size="14" lengthAdjust="spacing" textLength="51" x="1506" y="938.4082">partition</text><text fill="#000000" font-family="sans-serif" font-size="14" lengthAdjust="spacing" textLength="56" x="1503.5" y="956.0176">:Partition</text><line style="stroke:#181818;stroke-width:1.0;" x1="1536.5" x2="1583.5" y1="994.4453" y2="994.4453"/><line style="stroke:#181818;stroke-width:1.0;" x1="1583.5" x2="1583.5" y1="994.4453" y2="1007.4453"/><line style="stroke:#181818;stroke-width:1.0;" x1="1542.5" x2="1583.5" y1="1007.4453" y2="1007.4453"/><polygon fill="#181818" points="1552.5,1003.4453,1542.5,1007.4453,1552.5,1011.4453,1548.5,1007.4453" style="stroke:#181818;stroke-width:1.0;"/><text fill="#000000" font-family="sans-serif" font-size="13" font-weight="bold" lengthAdjust="spacing" textLength="14" x="1548.5" y="989.5889">19</text><text fill="#000000" font-family="sans-serif" font-size="13" lengthAdjust="spacing" textLength="178" x="1566.5" y="989.5889">calculatePartitions(listOfDeals)</text><line style="stroke:#181818;stroke-width:1.0;" x1="1541.5" x2="1588.5" y1="1037.7969" y2="1037.7969"/><line style="stroke:#181818;stroke-width:1.0;" x1="1588.5" x2="1588.5" y1="1037.7969" y2="1050.7969"/><line style="stroke:#181818;stroke-width:1.0;" x1="1547.5" x2="1588.5" y1="1050.7969" y2="1050.7969"/><polygon fill="#181818" points="1557.5,1046.7969,1547.5,1050.7969,1557.5,1054.7969,1553.5,1050.7969" style="stroke:#181818;stroke-width:1.0;"/><text fill="#000000" font-family="sans-serif" font-size="13" font-weight="bold" lengthAdjust="spacing" textLength="14" x="1553.5" y="1032.9404">20</text><text fill="#000000" font-family="sans-serif" font-size="13" lengthAdjust="spacing" textLength="161" x="1571.5" y="1032.9404">getPowerOfTwo(listOfDeals)</text><line style="stroke:#181818;stroke-width:1.0;stroke-dasharray:2.0,2.0;" x1="1546.5" x2="1588.5" y1="1091.1484" y2="1091.1484"/><line style="stroke:#181818;stroke-width:1.0;stroke-dasharray:2.0,2.0;" x1="1588.5" x2="1588.5" y1="1091.1484" y2="1104.1484"/><line style="stroke:#181818;stroke-width:1.0;stroke-dasharray:2.0,2.0;" x1="1541.5" x2="1588.5" y1="1104.1484" y2="1104.1484"/><polygon fill="#181818" points="1551.5,1100.1484,1541.5,1104.1484,1551.5,1108.1484,1547.5,1104.1484" style="stroke:#181818;stroke-width:1.0;"/><text fill="#000000" font-family="sans-serif" font-size="13" font-weight="bold" lengthAdjust="spacing" textLength="14" x="1553.5" y="1086.292">21</text><text fill="#000000" font-family="sans-serif" font-size="13" lengthAdjust="spacing" textLength="24" x="1571.5" y="1086.292">size</text><path d="M1486.5,1114.1484 L1559.5,1114.1484 L1559.5,1122.5 L1549.5,1132.5 L1486.5,1132.5 L1486.5,1114.1484 " fill="#EEEEEE" style="stroke:#000000;stroke-width:1.5;"/><rect fill="none" height="241.7578" style="stroke:#000000;stroke-width:1.5;" width="370" x="1486.5" y="1114.1484"/><text fill="#000000" font-family="sans-serif" font-size="13" font-weight="bold" lengthAdjust="spacing" textLength="28" x="1501.5" y="1128.6436">loop</text><text fill="#000000" font-family="sans-serif" font-size="11" font-weight="bold" lengthAdjust="spacing" textLength="146" x="1574.5" y="1127.5674">[for all numbers until size]</text><line style="stroke:#181818;stroke-width:1.0;" x1="1541.5" x2="1588.5" y1="1149.8516" y2="1149.8516"/><line style="stroke:#181818;stroke-width:1.0;" x1="1588.5" x2="1588.5" y1="1149.8516" y2="1162.8516"/><line style="stroke:#181818;stroke-width:1.0;" x1="1547.5" x2="1588.5" y1="1162.8516" y2="1162.8516"/><polygon fill="#181818" points="1557.5,1158.8516,1547.5,1162.8516,1557.5,1166.8516,1553.5,1162.8516" style="stroke:#181818;stroke-width:1.0;"/><text fill="#000000" font-family="sans-serif" font-size="13" font-weight="bold" lengthAdjust="spacing" textLength="14" x="1553.5" y="1144.9951">22</text><text fill="#000000" font-family="sans-serif" font-size="13" lengthAdjust="spacing" textLength="147" x="1571.5" y="1144.9951">decimalToBinary(number)</text><line style="stroke:#181818;stroke-width:1.0;stroke-dasharray:2.0,2.0;" x1="1546.5" x2="1588.5" y1="1203.2031" y2="1203.2031"/><line style="stroke:#181818;stroke-width:1.0;stroke-dasharray:2.0,2.0;" x1="1588.5" x2="1588.5" y1="1203.2031" y2="1216.2031"/><line style="stroke:#181818;stroke-width:1.0;stroke-dasharray:2.0,2.0;" x1="1541.5" x2="1588.5" y1="1216.2031" y2="1216.2031"/><polygon fill="#181818" points="1551.5,1212.2031,1541.5,1216.2031,1551.5,1220.2031,1547.5,1216.2031" style="stroke:#181818;stroke-width:1.0;"/><text fill="#000000" font-family="sans-serif" font-size="13" font-weight="bold" lengthAdjust="spacing" textLength="14" x="1553.5" y="1198.3467">23</text><text fill="#000000" font-family="sans-serif" font-size="13" lengthAdjust="spacing" textLength="35" x="1571.5" y="1198.3467">binary</text><line style="stroke:#181818;stroke-width:1.0;" x1="1541.5" x2="1588.5" y1="1261.5547" y2="1261.5547"/><line style="stroke:#181818;stroke-width:1.0;" x1="1588.5" x2="1588.5" y1="1261.5547" y2="1274.5547"/><line style="stroke:#181818;stroke-width:1.0;" x1="1547.5" x2="1588.5" y1="1274.5547" y2="1274.5547"/><polygon fill="#181818" points="1557.5,1270.5547,1547.5,1274.5547,1557.5,1278.5547,1553.5,1274.5547" style="stroke:#181818;stroke-width:1.0;"/><text fill="#000000" font-family="sans-serif" font-size="13" font-weight="bold" lengthAdjust="spacing" textLength="14" x="1553.5" y="1256.6982">24</text><text fill="#000000" font-family="sans-serif" font-size="13" lengthAdjust="spacing" textLength="273" x="1571.5" y="1256.6982">calculateDifference(subListSum1,subListSum2)</text><line style="stroke:#181818;stroke-width:1.0;stroke-dasharray:2.0,2.0;" x1="1546.5" x2="1588.5" y1="1314.9063" y2="1314.9063"/><line style="stroke:#181818;stroke-width:1.0;stroke-dasharray:2.0,2.0;" x1="1588.5" x2="1588.5" y1="1314.9063" y2="1327.9063"/><line style="stroke:#181818;stroke-width:1.0;stroke-dasharray:2.0,2.0;" x1="1541.5" x2="1588.5" y1="1327.9063" y2="1327.9063"/><polygon fill="#181818" points="1551.5,1323.9063,1541.5,1327.9063,1551.5,1331.9063,1547.5,1327.9063" style="stroke:#181818;stroke-width:1.0;"/><text fill="#000000" font-family="sans-serif" font-size="13" font-weight="bold" lengthAdjust="spacing" textLength="14" x="1553.5" y="1310.0498">25</text><text fill="#000000" font-family="sans-serif" font-size="13" lengthAdjust="spacing" textLength="55" x="1571.5" y="1310.0498">difference</text><line style="stroke:#181818;stroke-width:1.0;stroke-dasharray:2.0,2.0;" x1="1541.5" x2="1583.5" y1="1390.2578" y2="1390.2578"/><line style="stroke:#181818;stroke-width:1.0;stroke-dasharray:2.0,2.0;" x1="1583.5" x2="1583.5" y1="1390.2578" y2="1403.2578"/><line style="stroke:#181818;stroke-width:1.0;stroke-dasharray:2.0,2.0;" x1="1536.5" x2="1583.5" y1="1403.2578" y2="1403.2578"/><polygon fill="#181818" points="1546.5,1399.2578,1536.5,1403.2578,1546.5,1407.2578,1542.5,1403.2578" style="stroke:#181818;stroke-width:1.0;"/><text fill="#000000" font-family="sans-serif" font-size="13" font-weight="bold" lengthAdjust="spacing" textLength="14" x="1548.5" y="1385.4014">26</text><text fill="#000000" font-family="sans-serif" font-size="13" lengthAdjust="spacing" textLength="4" x="1566.5" y="1385.4014"> </text><polygon fill="#181818" points="966,1424.6094,956,1428.6094,966,1432.6094,962,1428.6094" style="stroke:#181818;stroke-width:1.0;"/><line style="stroke:#181818;stroke-width:1.0;stroke-dasharray:2.0,2.0;" x1="960" x2="1530.5" y1="1428.6094" y2="1428.6094"/><text fill="#000000" font-family="sans-serif" font-size="13" font-weight="bold" lengthAdjust="spacing" textLength="14" x="972" y="1423.7529">27</text><text fill="#000000" font-family="sans-serif" font-size="13" lengthAdjust="spacing" textLength="4" x="990" y="1423.7529"> </text><polygon fill="#181818" points="576,1454.9609,566,1458.9609,576,1462.9609,572,1458.9609" style="stroke:#181818;stroke-width:1.0;"/><line style="stroke:#181818;stroke-width:1.0;stroke-dasharray:2.0,2.0;" x1="570" x2="949" y1="1458.9609" y2="1458.9609"/><text fill="#000000" font-family="sans-serif" font-size="13" font-weight="bold" lengthAdjust="spacing" textLength="14" x="582" y="1454.1045">28</text><text fill="#000000" font-family="sans-serif" font-size="13" lengthAdjust="spacing" textLength="46" x="600" y="1454.1045">partition</text><polygon fill="#181818" points="1514.5,1485.3125,1524.5,1489.3125,1514.5,1493.3125,1518.5,1489.3125" style="stroke:#181818;stroke-width:1.0;"/><line style="stroke:#181818;stroke-width:1.0;" x1="565" x2="1520.5" y1="1489.3125" y2="1489.3125"/><text fill="#000000" font-family="sans-serif" font-size="13" font-weight="bold" lengthAdjust="spacing" textLength="14" x="572" y="1484.4561">29</text><text fill="#000000" font-family="sans-serif" font-size="13" lengthAdjust="spacing" textLength="77" x="590" y="1484.4561">getSubLists()</text><polygon fill="#181818" points="1899.5,1515.6641,1909.5,1519.6641,1899.5,1523.6641,1903.5,1519.6641" style="stroke:#181818;stroke-width:1.0;"/><line style="stroke:#181818;stroke-width:1.0;" x1="1536.5" x2="1905.5" y1="1519.6641" y2="1519.6641"/><text fill="#000000" font-family="sans-serif" font-size="13" font-weight="bold" lengthAdjust="spacing" textLength="14" x="1543.5" y="1514.8076">30</text><text fill="#000000" font-family="sans-serif" font-size="13" lengthAdjust="spacing" textLength="153" x="1561.5" y="1514.8076">sublistStringList = create()</text><rect fill="#E3E3E3" height="49.2188" rx="2.5" ry="2.5" style="stroke:#181818;stroke-width:0.5;" width="93" x="1911.5" y="1497.3125"/><text fill="#000000" font-family="sans-serif" font-size="14" lengthAdjust="spacing" textLength="75" x="1920.5" y="1518.8457">subListsInfo</text><text fill="#000000" font-family="sans-serif" font-size="14" lengthAdjust="spacing" textLength="79" x="1918.5" y="1536.4551">:List&lt;String&gt;</text><line style="stroke:#181818;stroke-width:1.0;" x1="1536.5" x2="1583.5" y1="1574.8828" y2="1574.8828"/><line style="stroke:#181818;stroke-width:1.0;" x1="1583.5" x2="1583.5" y1="1574.8828" y2="1587.8828"/><line style="stroke:#181818;stroke-width:1.0;" x1="1542.5" x2="1583.5" y1="1587.8828" y2="1587.8828"/><polygon fill="#181818" points="1552.5,1583.8828,1542.5,1587.8828,1552.5,1591.8828,1548.5,1587.8828" style="stroke:#181818;stroke-width:1.0;"/><text fill="#000000" font-family="sans-serif" font-size="13" font-weight="bold" lengthAdjust="spacing" textLength="14" x="1548.5" y="1570.0264">31</text><text fill="#000000" font-family="sans-serif" font-size="13" lengthAdjust="spacing" textLength="139" x="1566.5" y="1570.0264">getPartitionInfo(sublist1)</text><line style="stroke:#181818;stroke-width:1.0;stroke-dasharray:2.0,2.0;" x1="1541.5" x2="1583.5" y1="1628.2344" y2="1628.2344"/><line style="stroke:#181818;stroke-width:1.0;stroke-dasharray:2.0,2.0;" x1="1583.5" x2="1583.5" y1="1628.2344" y2="1641.2344"/><line style="stroke:#181818;stroke-width:1.0;stroke-dasharray:2.0,2.0;" x1="1536.5" x2="1583.5" y1="1641.2344" y2="1641.2344"/><polygon fill="#181818" points="1546.5,1637.2344,1536.5,1641.2344,1546.5,1645.2344,1542.5,1641.2344" style="stroke:#181818;stroke-width:1.0;"/><text fill="#000000" font-family="sans-serif" font-size="13" font-weight="bold" lengthAdjust="spacing" textLength="14" x="1548.5" y="1623.3779">32</text><text fill="#000000" font-family="sans-serif" font-size="13" lengthAdjust="spacing" textLength="69" x="1566.5" y="1623.3779">subListInfo1</text><polygon fill="#181818" points="1941,1662.5859,1951,1666.5859,1941,1670.5859,1945,1666.5859" style="stroke:#181818;stroke-width:1.0;"/><line style="stroke:#181818;stroke-width:1.0;" x1="1536.5" x2="1947" y1="1666.5859" y2="1666.5859"/><text fill="#000000" font-family="sans-serif" font-size="13" font-weight="bold" lengthAdjust="spacing" textLength="14" x="1543.5" y="1661.7295">33</text><text fill="#000000" font-family="sans-serif" font-size="13" lengthAdjust="spacing" textLength="98" x="1561.5" y="1661.7295">add(subListInfo1)</text><line style="stroke:#181818;stroke-width:1.0;" x1="1536.5" x2="1583.5" y1="1721.9375" y2="1721.9375"/><line style="stroke:#181818;stroke-width:1.0;" x1="1583.5" x2="1583.5" y1="1721.9375" y2="1734.9375"/><line style="stroke:#181818;stroke-width:1.0;" x1="1542.5" x2="1583.5" y1="1734.9375" y2="1734.9375"/><polygon fill="#181818" points="1552.5,1730.9375,1542.5,1734.9375,1552.5,1738.9375,1548.5,1734.9375" style="stroke:#181818;stroke-width:1.0;"/><text fill="#000000" font-family="sans-serif" font-size="13" font-weight="bold" lengthAdjust="spacing" textLength="14" x="1548.5" y="1717.0811">34</text><text fill="#000000" font-family="sans-serif" font-size="13" lengthAdjust="spacing" textLength="139" x="1566.5" y="1717.0811">getPartitionInfo(sublist2)</text><line style="stroke:#181818;stroke-width:1.0;stroke-dasharray:2.0,2.0;" x1="1541.5" x2="1583.5" y1="1775.2891" y2="1775.2891"/><line style="stroke:#181818;stroke-width:1.0;stroke-dasharray:2.0,2.0;" x1="1583.5" x2="1583.5" y1="1775.2891" y2="1788.2891"/><line style="stroke:#181818;stroke-width:1.0;stroke-dasharray:2.0,2.0;" x1="1536.5" x2="1583.5" y1="1788.2891" y2="1788.2891"/><polygon fill="#181818" points="1546.5,1784.2891,1536.5,1788.2891,1546.5,1792.2891,1542.5,1788.2891" style="stroke:#181818;stroke-width:1.0;"/><text fill="#000000" font-family="sans-serif" font-size="13" font-weight="bold" lengthAdjust="spacing" textLength="14" x="1548.5" y="1770.4326">35</text><text fill="#000000" font-family="sans-serif" font-size="13" lengthAdjust="spacing" textLength="69" x="1566.5" y="1770.4326">subListInfo2</text><polygon fill="#181818" points="1941,1809.6406,1951,1813.6406,1941,1817.6406,1945,1813.6406" style="stroke:#181818;stroke-width:1.0;"/><line style="stroke:#181818;stroke-width:1.0;" x1="1536.5" x2="1947" y1="1813.6406" y2="1813.6406"/><text fill="#000000" font-family="sans-serif" font-size="13" font-weight="bold" lengthAdjust="spacing" textLength="14" x="1543.5" y="1808.7842">36</text><text fill="#000000" font-family="sans-serif" font-size="13" lengthAdjust="spacing" textLength="98" x="1561.5" y="1808.7842">add(subListInfo2)</text><polygon fill="#181818" points="1941,1869.9922,1951,1873.9922,1941,1877.9922,1945,1873.9922" style="stroke:#181818;stroke-width:1.0;"/><line style="stroke:#181818;stroke-width:1.0;" x1="1536.5" x2="1947" y1="1873.9922" y2="1873.9922"/><text fill="#000000" font-family="sans-serif" font-size="13" font-weight="bold" lengthAdjust="spacing" textLength="14" x="1543.5" y="1869.1357">37</text><text fill="#000000" font-family="sans-serif" font-size="13" lengthAdjust="spacing" textLength="107" x="1561.5" y="1869.1357">add(minDifference)</text><polygon fill="#181818" points="576,1930.3438,566,1934.3438,576,1938.3438,572,1934.3438" style="stroke:#181818;stroke-width:1.0;"/><line style="stroke:#181818;stroke-width:1.0;stroke-dasharray:2.0,2.0;" x1="570" x2="1530.5" y1="1934.3438" y2="1934.3438"/><text fill="#000000" font-family="sans-serif" font-size="13" font-weight="bold" lengthAdjust="spacing" textLength="14" x="582" y="1929.4873">38</text><text fill="#000000" font-family="sans-serif" font-size="13" lengthAdjust="spacing" textLength="69" x="600" y="1929.4873">subListsInfo</text><polygon fill="#181818" points="391,1960.6953,381,1964.6953,391,1968.6953,387,1964.6953" style="stroke:#181818;stroke-width:1.0;"/><line style="stroke:#181818;stroke-width:1.0;stroke-dasharray:2.0,2.0;" x1="385" x2="559" y1="1964.6953" y2="1964.6953"/><text fill="#000000" font-family="sans-serif" font-size="13" font-weight="bold" lengthAdjust="spacing" textLength="14" x="397" y="1959.8389">39</text><text fill="#000000" font-family="sans-serif" font-size="13" lengthAdjust="spacing" textLength="69" x="415" y="1959.8389">subListsInfo</text><polygon fill="#181818" points="74,2007.3984,64,2011.3984,74,2015.3984,70,2011.3984" style="stroke:#181818;stroke-width:1.0;"/><line style="stroke:#181818;stroke-width:1.0;stroke-dasharray:2.0,2.0;" x1="68" x2="374" y1="2011.3984" y2="2011.3984"/><text fill="#000000" font-family="sans-serif" font-size="13" font-weight="bold" lengthAdjust="spacing" textLength="14" x="80" y="1998.3662">40</text><text fill="#000000" font-family="sans-serif" font-size="13" lengthAdjust="spacing" textLength="246" x="98" y="1990.1904">shows sublists, difference of the number of</text><text fill="#000000" font-family="sans-serif" font-size="13" lengthAdjust="spacing" textLength="244" x="102" y="2006.542">properties and displays operation success</text><!--SRC=[jLTVK-Cs47_tfzZXfJa6heMtPdetamB3kCC59Wwz5ruKMqvK72crP79q-F3TbMD7jcmJ6CvFYRJxs_-hNVqev8RbR0rh9LMyojMQWyaB7kZwPiFYHxRaaNdEEEGyDamkCvT0hrYYja8k8MMPva702gDaiLxmF0X-MOc4GwgKMQWV0OkDok5eoirMvO_mZKb4pe-0QPX-_nOWdX6ns31fu6WS5Oj4F27xPCbbBBY-3otbVVWQuOMI9bTPjeE-cCzkMYmplb5Qe398RMdgW-T8a7reGPCbTpWUf0zmTpEPDpaOQVEy1nu_o4dho7As3xjGK699Ld9SNxI8f5I5ZFcQItCZj27orb79E9tUtaylhcx2QDwFqE9kS3Qvx1yZb4IMk-ftwOx9h2LXJ5hy4Kh3CUHVBL4udLzTNyryRNIn86eTobGXjEMCJ8wHAHcZ-IoSNbk-842fc9aH_xT01t6u56n9QJcABZ_1ATn7lvtz7b3cYITckCsp07OV_e7JhvXHC4ROHmr6GPbAeBa1bKALKY0atc7Q0kg6TteFKaDZOjQ7z24iWbFs7H-ZW3ZdIDL7WWHBRYfnjJFrw5E3eHPcaxfnHPz5GiIET2u5X59Z0SUy1Tk0xge5Zvg-BYcdEtl6u5QCnvxmjuch3ACoSrpbbCsGHROuEqsmU7kTspKxfBSFMYdPLgrK-99ZUvpQldYRLe56hRlZwtM51fad0QKwrMJpBSEgkKsjLFYooxwsk4of3NRd75YMbSPJi3ohkyHX4uBAOM624kgOXCbGBAXv3NYLhjyW7uLMBhMMlYRPXqOOGdCwenUkGL2tfNfaJVywJRNBoQuAZageZj2aJJjudNhquzeqRzb9R_slksTxA2Yzu5mcriZNpAa3bkpTUeZ4RhVQe7KNcel_8Ndcb1NbUvACgfm_SONvAI8LYibuQhmR-xRXYm9_JVwUm8ezSM0UqPgRbKheHTfa3Dyr9a4j_i7vowD480PwmsEHYXXqfindtxHGWba93J7J_6Gm2bk1kRhWfTW4535o2zibURiIyGg4jIVXFp1LYToZr0mdItovAzzzximaSjb0Zhlpma1eNRAW9riR5rrXfm7c-BXwjKTEC-rvaEt4qxYYamgAtd-MnKM6fCxZ_W6msAhkr9OQu7oh3WNqyVQ0MlpNZ9_xvddQD3fSEVLhAAGHMGdKgpgLQYpMB9khFuLa-83BZa9wrGzxlHSMPL1pz-xbvML0jpfObo9DUKwJvMWtbKR5-kna__lytGedDVIxbQuJUa3EuR4i6JexwrjG_7BQpxZrnX3qDkR1mQUU0-laZtQxmkZD1RJV8koyX26bwYdt38BidPgQgK85M5b52yje1tJsxiJO9HU1dHtkTz-itNlbmlNev2nKFVBSbUljlZZ_25-SVwmlpd-QBpofQo7tVUGdYQrt67TvFjnZPM7PPVWm27y1fMKM0N2fHeILskggfFI9q-jegwQ1ekps-Ez1mYPN6uvfWtismuwM28t3nxC6EcMKIuWKnrphtgv1kxVpbxRy_m40]--></g></svg>