<?xml version="1.0" encoding="UTF-8" standalone="no"?><svg xmlns="http://www.w3.org/2000/svg" xmlns:xlink="http://www.w3.org/1999/xlink" contentStyleType="text/css" height="770px" preserveAspectRatio="none" style="width:937px;height:770px;background:#FFFFFF;" version="1.1" viewBox="0 0 937 770" width="937px" zoomAndPan="magnify"><defs/><g><text fill="#000000" font-family="sans-serif" font-size="14" font-weight="bold" lengthAdjust="spacing" textLength="155" x="384" y="24.5332">Class Diagram - US019</text><!--class Agency--><g id="elem_Agency"><rect codeLine="13" fill="#F1F1F1" height="153.6563" id="Agency" rx="2.5" ry="2.5" style="stroke:#181818;stroke-width:0.5;" width="150" x="678" y="609.6094"/><ellipse cx="725.25" cy="625.6094" fill="#ADD1B2" rx="11" ry="11" style="stroke:#181818;stroke-width:1.0;"/><path d="M728.0156,621.4844 Q728.1719,621.2656 728.3594,621.1563 Q728.5469,621.0469 728.7656,621.0469 Q729.1406,621.0469 729.375,621.3125 Q729.6094,621.5625 729.6094,622.1719 L729.6094,623.625 Q729.6094,624.2344 729.375,624.5 Q729.1406,624.7656 728.7656,624.7656 Q728.4219,624.7656 728.2188,624.5625 Q728.0156,624.375 727.9063,623.8594 Q727.8594,623.5 727.6719,623.3125 Q727.3438,622.9375 726.7344,622.7188 Q726.125,622.5 725.5,622.5 Q724.7344,622.5 724.0938,622.8281 Q723.4688,623.1563 722.9688,623.9063 Q722.4844,624.6563 722.4844,625.6875 L722.4844,626.7813 Q722.4844,628.0156 723.375,628.8438 Q724.2656,629.6563 725.8594,629.6563 Q726.7969,629.6563 727.4531,629.4063 Q727.8438,629.25 728.2656,628.8125 Q728.5313,628.5469 728.6719,628.4688 Q728.8281,628.3906 729.0313,628.3906 Q729.3594,628.3906 729.6094,628.6563 Q729.875,628.9063 729.875,629.25 Q729.875,629.5938 729.5313,630 Q729.0313,630.5781 728.2344,630.9063 Q727.1563,631.3594 725.8594,631.3594 Q724.3438,631.3594 723.1406,630.7344 Q722.1563,630.2344 721.4688,629.1719 Q720.7813,628.0938 720.7813,626.8125 L720.7813,625.6563 Q720.7813,624.3281 721.3906,623.1875 Q722.0156,622.0313 723.1094,621.4219 Q724.2031,620.7969 725.4375,620.7969 Q726.1719,620.7969 726.8125,620.9688 Q727.4688,621.125 728.0156,621.4844 Z " fill="#000000"/><text fill="#000000" font-family="sans-serif" font-size="14" lengthAdjust="spacing" textLength="47" x="745.75" y="631.3379">Agency</text><line style="stroke:#181818;stroke-width:0.5;" x1="679" x2="827" y1="641.6094" y2="641.6094"/><text fill="#000000" font-family="sans-serif" font-size="14" lengthAdjust="spacing" textLength="64" x="684" y="660.1426">-Integer id</text><text fill="#000000" font-family="sans-serif" font-size="14" lengthAdjust="spacing" textLength="115" x="684" y="677.752">-String description</text><text fill="#000000" font-family="sans-serif" font-size="14" lengthAdjust="spacing" textLength="128" x="684" y="695.3613">-Email emailAddress</text><text fill="#000000" font-family="sans-serif" font-size="14" lengthAdjust="spacing" textLength="135" x="684" y="712.9707">-String phoneNumber</text><line style="stroke:#181818;stroke-width:0.5;" x1="679" x2="827" y1="720.0469" y2="720.0469"/><text fill="#000000" font-family="sans-serif" font-size="14" lengthAdjust="spacing" textLength="96" x="684" y="738.5801">+getAgencyId()</text><text fill="#000000" font-family="sans-serif" font-size="14" lengthAdjust="spacing" textLength="138" x="684" y="756.1895">+getNumberOfDeals()</text></g><!--class AnnouncementList--><g id="elem_AnnouncementList"><rect codeLine="22" fill="#F1F1F1" height="65.6094" id="AnnouncementList" rx="2.5" ry="2.5" style="stroke:#181818;stroke-width:0.5;" width="149" x="449.5" y="653.6094"/><ellipse cx="464.5" cy="669.6094" fill="#ADD1B2" rx="11" ry="11" style="stroke:#181818;stroke-width:1.0;"/><path d="M467.2656,665.4844 Q467.4219,665.2656 467.6094,665.1563 Q467.7969,665.0469 468.0156,665.0469 Q468.3906,665.0469 468.625,665.3125 Q468.8594,665.5625 468.8594,666.1719 L468.8594,667.625 Q468.8594,668.2344 468.625,668.5 Q468.3906,668.7656 468.0156,668.7656 Q467.6719,668.7656 467.4688,668.5625 Q467.2656,668.375 467.1563,667.8594 Q467.1094,667.5 466.9219,667.3125 Q466.5938,666.9375 465.9844,666.7188 Q465.375,666.5 464.75,666.5 Q463.9844,666.5 463.3438,666.8281 Q462.7188,667.1563 462.2188,667.9063 Q461.7344,668.6563 461.7344,669.6875 L461.7344,670.7813 Q461.7344,672.0156 462.625,672.8438 Q463.5156,673.6563 465.1094,673.6563 Q466.0469,673.6563 466.7031,673.4063 Q467.0938,673.25 467.5156,672.8125 Q467.7813,672.5469 467.9219,672.4688 Q468.0781,672.3906 468.2813,672.3906 Q468.6094,672.3906 468.8594,672.6563 Q469.125,672.9063 469.125,673.25 Q469.125,673.5938 468.7813,674 Q468.2813,674.5781 467.4844,674.9063 Q466.4063,675.3594 465.1094,675.3594 Q463.5938,675.3594 462.3906,674.7344 Q461.4063,674.2344 460.7188,673.1719 Q460.0313,672.0938 460.0313,670.8125 L460.0313,669.6563 Q460.0313,668.3281 460.6406,667.1875 Q461.2656,666.0313 462.3594,665.4219 Q463.4531,664.7969 464.6875,664.7969 Q465.4219,664.7969 466.0625,664.9688 Q466.7188,665.125 467.2656,665.4844 Z " fill="#000000"/><text fill="#000000" font-family="sans-serif" font-size="14" lengthAdjust="spacing" textLength="117" x="478.5" y="675.3379">AnnouncementList</text><line style="stroke:#181818;stroke-width:0.5;" x1="450.5" x2="597.5" y1="685.6094" y2="685.6094"/><line style="stroke:#181818;stroke-width:0.5;" x1="450.5" x2="597.5" y1="693.6094" y2="693.6094"/><text fill="#000000" font-family="sans-serif" font-size="14" lengthAdjust="spacing" textLength="123" x="455.5" y="712.1426">+getDealsNumber()</text></g><!--class Announcement--><g id="elem_Announcement"><rect codeLine="27" fill="#F1F1F1" height="153.6563" id="Announcement" rx="2.5" ry="2.5" style="stroke:#181818;stroke-width:0.5;" width="188" x="169" y="609.6094"/><ellipse cx="211.45" cy="625.6094" fill="#ADD1B2" rx="11" ry="11" style="stroke:#181818;stroke-width:1.0;"/><path d="M214.2156,621.4844 Q214.3719,621.2656 214.5594,621.1563 Q214.7469,621.0469 214.9656,621.0469 Q215.3406,621.0469 215.575,621.3125 Q215.8094,621.5625 215.8094,622.1719 L215.8094,623.625 Q215.8094,624.2344 215.575,624.5 Q215.3406,624.7656 214.9656,624.7656 Q214.6219,624.7656 214.4188,624.5625 Q214.2156,624.375 214.1063,623.8594 Q214.0594,623.5 213.8719,623.3125 Q213.5438,622.9375 212.9344,622.7188 Q212.325,622.5 211.7,622.5 Q210.9344,622.5 210.2938,622.8281 Q209.6688,623.1563 209.1688,623.9063 Q208.6844,624.6563 208.6844,625.6875 L208.6844,626.7813 Q208.6844,628.0156 209.575,628.8438 Q210.4656,629.6563 212.0594,629.6563 Q212.9969,629.6563 213.6531,629.4063 Q214.0438,629.25 214.4656,628.8125 Q214.7313,628.5469 214.8719,628.4688 Q215.0281,628.3906 215.2313,628.3906 Q215.5594,628.3906 215.8094,628.6563 Q216.075,628.9063 216.075,629.25 Q216.075,629.5938 215.7313,630 Q215.2313,630.5781 214.4344,630.9063 Q213.3563,631.3594 212.0594,631.3594 Q210.5438,631.3594 209.3406,630.7344 Q208.3563,630.2344 207.6688,629.1719 Q206.9813,628.0938 206.9813,626.8125 L206.9813,625.6563 Q206.9813,624.3281 207.5906,623.1875 Q208.2156,622.0313 209.3094,621.4219 Q210.4031,620.7969 211.6375,620.7969 Q212.3719,620.7969 213.0125,620.9688 Q213.6688,621.125 214.2156,621.4844 Z " fill="#000000"/><text fill="#000000" font-family="sans-serif" font-size="14" lengthAdjust="spacing" textLength="95" x="231.55" y="631.3379">Announcement</text><line style="stroke:#181818;stroke-width:0.5;" x1="170" x2="356" y1="641.6094" y2="641.6094"/><text fill="#000000" font-family="sans-serif" font-size="14" lengthAdjust="spacing" textLength="176" x="175" y="660.1426">-LocalDate acceptanceDate</text><text fill="#000000" font-family="sans-serif" font-size="14" lengthAdjust="spacing" textLength="129" x="175" y="677.752">-LocalDate saleDate</text><text fill="#000000" font-family="sans-serif" font-size="14" lengthAdjust="spacing" textLength="128" x="175" y="695.3613">-Double saleAmount</text><text fill="#000000" font-family="sans-serif" font-size="14" lengthAdjust="spacing" textLength="64" x="175" y="712.9707">-Integer id</text><text fill="#000000" font-family="sans-serif" font-size="14" lengthAdjust="spacing" textLength="119" x="175" y="730.5801">-List&lt;Visit&gt; visitList</text><line style="stroke:#181818;stroke-width:0.5;" x1="170" x2="356" y1="737.6563" y2="737.6563"/><text fill="#000000" font-family="sans-serif" font-size="14" lengthAdjust="spacing" textLength="57" x="175" y="756.1895">+isDeal()</text></g><!--class Partition--><g id="elem_Partition"><rect codeLine="36" fill="#F1F1F1" height="241.7031" id="Partition" rx="2.5" ry="2.5" style="stroke:#181818;stroke-width:0.5;" width="314" x="7" y="289.6094"/><ellipse cx="133.75" cy="305.6094" fill="#ADD1B2" rx="11" ry="11" style="stroke:#181818;stroke-width:1.0;"/><path d="M136.5156,301.4844 Q136.6719,301.2656 136.8594,301.1563 Q137.0469,301.0469 137.2656,301.0469 Q137.6406,301.0469 137.875,301.3125 Q138.1094,301.5625 138.1094,302.1719 L138.1094,303.625 Q138.1094,304.2344 137.875,304.5 Q137.6406,304.7656 137.2656,304.7656 Q136.9219,304.7656 136.7188,304.5625 Q136.5156,304.375 136.4063,303.8594 Q136.3594,303.5 136.1719,303.3125 Q135.8438,302.9375 135.2344,302.7188 Q134.625,302.5 134,302.5 Q133.2344,302.5 132.5938,302.8281 Q131.9688,303.1563 131.4688,303.9063 Q130.9844,304.6563 130.9844,305.6875 L130.9844,306.7813 Q130.9844,308.0156 131.875,308.8438 Q132.7656,309.6563 134.3594,309.6563 Q135.2969,309.6563 135.9531,309.4063 Q136.3438,309.25 136.7656,308.8125 Q137.0313,308.5469 137.1719,308.4688 Q137.3281,308.3906 137.5313,308.3906 Q137.8594,308.3906 138.1094,308.6563 Q138.375,308.9063 138.375,309.25 Q138.375,309.5938 138.0313,310 Q137.5313,310.5781 136.7344,310.9063 Q135.6563,311.3594 134.3594,311.3594 Q132.8438,311.3594 131.6406,310.7344 Q130.6563,310.2344 129.9688,309.1719 Q129.2813,308.0938 129.2813,306.8125 L129.2813,305.6563 Q129.2813,304.3281 129.8906,303.1875 Q130.5156,302.0313 131.6094,301.4219 Q132.7031,300.7969 133.9375,300.7969 Q134.6719,300.7969 135.3125,300.9688 Q135.9688,301.125 136.5156,301.4844 Z " fill="#000000"/><text fill="#000000" font-family="sans-serif" font-size="14" lengthAdjust="spacing" textLength="52" x="154.25" y="311.3379">Partition</text><line style="stroke:#181818;stroke-width:0.5;" x1="8" x2="320" y1="321.6094" y2="321.6094"/><text fill="#000000" font-family="sans-serif" font-size="14" lengthAdjust="spacing" textLength="159" x="13" y="340.1426">-List&lt;Integer&gt; listOfDeals</text><text fill="#000000" font-family="sans-serif" font-size="14" lengthAdjust="spacing" textLength="111" x="13" y="357.752">-int minDifference</text><text fill="#000000" font-family="sans-serif" font-size="14" lengthAdjust="spacing" textLength="144" x="13" y="375.3613">-List&lt;Integer&gt; subList1</text><text fill="#000000" font-family="sans-serif" font-size="14" lengthAdjust="spacing" textLength="144" x="13" y="392.9707">-List&lt;Integer&gt; subList2</text><line style="stroke:#181818;stroke-width:0.5;" x1="8" x2="320" y1="400.0469" y2="400.0469"/><text fill="#000000" font-family="sans-serif" font-size="14" lengthAdjust="spacing" textLength="138" x="13" y="418.5801">+Partition(listOfDeals)</text><text fill="#000000" font-family="sans-serif" font-size="14" lengthAdjust="spacing" textLength="92" x="13" y="436.1895">+getSubLists()</text><text fill="#000000" font-family="sans-serif" font-size="14" lengthAdjust="spacing" textLength="183" x="13" y="453.7988">-getPowerOfTwo(listOfDeals)</text><text fill="#000000" font-family="sans-serif" font-size="14" lengthAdjust="spacing" textLength="198" x="13" y="471.4082">-calculatePartitions(listOfDeals)</text><text fill="#000000" font-family="sans-serif" font-size="14" lengthAdjust="spacing" textLength="168" x="13" y="489.0176">-decimalToBinary(number)</text><text fill="#000000" font-family="sans-serif" font-size="14" lengthAdjust="spacing" textLength="302" x="13" y="506.627">-calculateDifference(subListSum1,subListSum2)</text><text fill="#000000" font-family="sans-serif" font-size="14" lengthAdjust="spacing" textLength="155" x="13" y="524.2363">-getPartitionInfo(subList)</text></g><!--class AgencyRepository--><g id="elem_AgencyRepository"><rect codeLine="70" fill="#F1F1F1" height="65.6094" id="AgencyRepository" rx="2.5" ry="2.5" style="stroke:#181818;stroke-width:0.5;" width="208" x="557" y="377.6094"/><ellipse cx="599.45" cy="393.6094" fill="#ADD1B2" rx="11" ry="11" style="stroke:#181818;stroke-width:1.0;"/><path d="M602.2156,389.4844 Q602.3719,389.2656 602.5594,389.1563 Q602.7469,389.0469 602.9656,389.0469 Q603.3406,389.0469 603.575,389.3125 Q603.8094,389.5625 603.8094,390.1719 L603.8094,391.625 Q603.8094,392.2344 603.575,392.5 Q603.3406,392.7656 602.9656,392.7656 Q602.6219,392.7656 602.4188,392.5625 Q602.2156,392.375 602.1063,391.8594 Q602.0594,391.5 601.8719,391.3125 Q601.5438,390.9375 600.9344,390.7188 Q600.325,390.5 599.7,390.5 Q598.9344,390.5 598.2938,390.8281 Q597.6688,391.1563 597.1688,391.9063 Q596.6844,392.6563 596.6844,393.6875 L596.6844,394.7813 Q596.6844,396.0156 597.575,396.8438 Q598.4656,397.6563 600.0594,397.6563 Q600.9969,397.6563 601.6531,397.4063 Q602.0438,397.25 602.4656,396.8125 Q602.7313,396.5469 602.8719,396.4688 Q603.0281,396.3906 603.2313,396.3906 Q603.5594,396.3906 603.8094,396.6563 Q604.075,396.9063 604.075,397.25 Q604.075,397.5938 603.7313,398 Q603.2313,398.5781 602.4344,398.9063 Q601.3563,399.3594 600.0594,399.3594 Q598.5438,399.3594 597.3406,398.7344 Q596.3563,398.2344 595.6688,397.1719 Q594.9813,396.0938 594.9813,394.8125 L594.9813,393.6563 Q594.9813,392.3281 595.5906,391.1875 Q596.2156,390.0313 597.3094,389.4219 Q598.4031,388.7969 599.6375,388.7969 Q600.3719,388.7969 601.0125,388.9688 Q601.6688,389.125 602.2156,389.4844 Z " fill="#000000"/><text fill="#000000" font-family="sans-serif" font-size="14" lengthAdjust="spacing" textLength="115" x="619.55" y="399.3379">AgencyRepository</text><line style="stroke:#181818;stroke-width:0.5;" x1="558" x2="764" y1="409.6094" y2="409.6094"/><line style="stroke:#181818;stroke-width:0.5;" x1="558" x2="764" y1="417.6094" y2="417.6094"/><text fill="#000000" font-family="sans-serif" font-size="14" lengthAdjust="spacing" textLength="196" x="563" y="436.1426">+getDealsNumberOfAgencies()</text></g><!--class Repositories--><g id="elem_Repositories"><rect codeLine="74" fill="#F1F1F1" height="100.8281" id="Repositories" rx="2.5" ry="2.5" style="stroke:#181818;stroke-width:0.5;" width="189" x="365.5" y="158.6094"/><ellipse cx="416.25" cy="174.6094" fill="#ADD1B2" rx="11" ry="11" style="stroke:#181818;stroke-width:1.0;"/><path d="M419.0156,170.4844 Q419.1719,170.2656 419.3594,170.1563 Q419.5469,170.0469 419.7656,170.0469 Q420.1406,170.0469 420.375,170.3125 Q420.6094,170.5625 420.6094,171.1719 L420.6094,172.625 Q420.6094,173.2344 420.375,173.5 Q420.1406,173.7656 419.7656,173.7656 Q419.4219,173.7656 419.2188,173.5625 Q419.0156,173.375 418.9063,172.8594 Q418.8594,172.5 418.6719,172.3125 Q418.3438,171.9375 417.7344,171.7188 Q417.125,171.5 416.5,171.5 Q415.7344,171.5 415.0938,171.8281 Q414.4688,172.1563 413.9688,172.9063 Q413.4844,173.6563 413.4844,174.6875 L413.4844,175.7813 Q413.4844,177.0156 414.375,177.8438 Q415.2656,178.6563 416.8594,178.6563 Q417.7969,178.6563 418.4531,178.4063 Q418.8438,178.25 419.2656,177.8125 Q419.5313,177.5469 419.6719,177.4688 Q419.8281,177.3906 420.0313,177.3906 Q420.3594,177.3906 420.6094,177.6563 Q420.875,177.9063 420.875,178.25 Q420.875,178.5938 420.5313,179 Q420.0313,179.5781 419.2344,179.9063 Q418.1563,180.3594 416.8594,180.3594 Q415.3438,180.3594 414.1406,179.7344 Q413.1563,179.2344 412.4688,178.1719 Q411.7813,177.0938 411.7813,175.8125 L411.7813,174.6563 Q411.7813,173.3281 412.3906,172.1875 Q413.0156,171.0313 414.1094,170.4219 Q415.2031,169.7969 416.4375,169.7969 Q417.1719,169.7969 417.8125,169.9688 Q418.4688,170.125 419.0156,170.4844 Z " fill="#000000"/><text fill="#000000" font-family="sans-serif" font-size="14" lengthAdjust="spacing" textLength="79" x="436.75" y="180.3379">Repositories</text><line style="stroke:#181818;stroke-width:0.5;" x1="366.5" x2="553.5" y1="190.6094" y2="190.6094"/><line style="stroke:#181818;stroke-width:0.5;" x1="366.5" x2="553.5" y1="198.6094" y2="198.6094"/><text fill="#000000" font-family="sans-serif" font-size="14" lengthAdjust="spacing" textLength="94" x="371.5" y="217.1426">-Repositories()</text><text fill="#000000" font-family="sans-serif" font-size="14" lengthAdjust="spacing" textLength="177" x="371.5" y="234.752">+getInstance() : repositories</text><text fill="#000000" font-family="sans-serif" font-size="14" lengthAdjust="spacing" textLength="153" x="371.5" y="252.3613">+getAgencyRepository()</text></g><!--class SubdivideAgenciesController--><g id="elem_SubdivideAgenciesController"><rect codeLine="80" fill="#F1F1F1" height="83.2188" id="SubdivideAgenciesController" rx="2.5" ry="2.5" style="stroke:#181818;stroke-width:0.5;" width="327" x="403.5" y="45.6094"/><ellipse cx="471.75" cy="61.6094" fill="#ADD1B2" rx="11" ry="11" style="stroke:#181818;stroke-width:1.0;"/><path d="M474.5156,57.4844 Q474.6719,57.2656 474.8594,57.1563 Q475.0469,57.0469 475.2656,57.0469 Q475.6406,57.0469 475.875,57.3125 Q476.1094,57.5625 476.1094,58.1719 L476.1094,59.625 Q476.1094,60.2344 475.875,60.5 Q475.6406,60.7656 475.2656,60.7656 Q474.9219,60.7656 474.7188,60.5625 Q474.5156,60.375 474.4063,59.8594 Q474.3594,59.5 474.1719,59.3125 Q473.8438,58.9375 473.2344,58.7188 Q472.625,58.5 472,58.5 Q471.2344,58.5 470.5938,58.8281 Q469.9688,59.1563 469.4688,59.9063 Q468.9844,60.6563 468.9844,61.6875 L468.9844,62.7813 Q468.9844,64.0156 469.875,64.8438 Q470.7656,65.6563 472.3594,65.6563 Q473.2969,65.6563 473.9531,65.4063 Q474.3438,65.25 474.7656,64.8125 Q475.0313,64.5469 475.1719,64.4688 Q475.3281,64.3906 475.5313,64.3906 Q475.8594,64.3906 476.1094,64.6563 Q476.375,64.9063 476.375,65.25 Q476.375,65.5938 476.0313,66 Q475.5313,66.5781 474.7344,66.9063 Q473.6563,67.3594 472.3594,67.3594 Q470.8438,67.3594 469.6406,66.7344 Q468.6563,66.2344 467.9688,65.1719 Q467.2813,64.0938 467.2813,62.8125 L467.2813,61.6563 Q467.2813,60.3281 467.8906,59.1875 Q468.5156,58.0313 469.6094,57.4219 Q470.7031,56.7969 471.9375,56.7969 Q472.6719,56.7969 473.3125,56.9688 Q473.9688,57.125 474.5156,57.4844 Z " fill="#000000"/><text fill="#000000" font-family="sans-serif" font-size="14" lengthAdjust="spacing" textLength="182" x="492.25" y="67.3379">SubdivideAgenciesController</text><line style="stroke:#181818;stroke-width:0.5;" x1="404.5" x2="729.5" y1="77.6094" y2="77.6094"/><line style="stroke:#181818;stroke-width:0.5;" x1="404.5" x2="729.5" y1="85.6094" y2="85.6094"/><text fill="#000000" font-family="sans-serif" font-size="14" lengthAdjust="spacing" textLength="315" x="409.5" y="104.1426">+SubdivideAgenciesController(AgencyRepository)</text><text fill="#000000" font-family="sans-serif" font-size="14" lengthAdjust="spacing" textLength="148" x="409.5" y="121.752">+getAgenciePartitions()</text></g><!--class SubdivideAgenciesUI--><g id="elem_SubdivideAgenciesUI"><rect codeLine="85" fill="#F1F1F1" height="48" id="SubdivideAgenciesUI" rx="2.5" ry="2.5" style="stroke:#181818;stroke-width:0.5;" width="164" x="766" y="63.1094"/><ellipse cx="781" cy="79.1094" fill="#ADD1B2" rx="11" ry="11" style="stroke:#181818;stroke-width:1.0;"/><path d="M783.7656,74.9844 Q783.9219,74.7656 784.1094,74.6563 Q784.2969,74.5469 784.5156,74.5469 Q784.8906,74.5469 785.125,74.8125 Q785.3594,75.0625 785.3594,75.6719 L785.3594,77.125 Q785.3594,77.7344 785.125,78 Q784.8906,78.2656 784.5156,78.2656 Q784.1719,78.2656 783.9688,78.0625 Q783.7656,77.875 783.6563,77.3594 Q783.6094,77 783.4219,76.8125 Q783.0938,76.4375 782.4844,76.2188 Q781.875,76 781.25,76 Q780.4844,76 779.8438,76.3281 Q779.2188,76.6563 778.7188,77.4063 Q778.2344,78.1563 778.2344,79.1875 L778.2344,80.2813 Q778.2344,81.5156 779.125,82.3438 Q780.0156,83.1563 781.6094,83.1563 Q782.5469,83.1563 783.2031,82.9063 Q783.5938,82.75 784.0156,82.3125 Q784.2813,82.0469 784.4219,81.9688 Q784.5781,81.8906 784.7813,81.8906 Q785.1094,81.8906 785.3594,82.1563 Q785.625,82.4063 785.625,82.75 Q785.625,83.0938 785.2813,83.5 Q784.7813,84.0781 783.9844,84.4063 Q782.9063,84.8594 781.6094,84.8594 Q780.0938,84.8594 778.8906,84.2344 Q777.9063,83.7344 777.2188,82.6719 Q776.5313,81.5938 776.5313,80.3125 L776.5313,79.1563 Q776.5313,77.8281 777.1406,76.6875 Q777.7656,75.5313 778.8594,74.9219 Q779.9531,74.2969 781.1875,74.2969 Q781.9219,74.2969 782.5625,74.4688 Q783.2188,74.625 783.7656,74.9844 Z " fill="#000000"/><text fill="#000000" font-family="sans-serif" font-size="14" lengthAdjust="spacing" textLength="132" x="795" y="84.8379">SubdivideAgenciesUI</text><line style="stroke:#181818;stroke-width:0.5;" x1="767" x2="929" y1="95.1094" y2="95.1094"/><line style="stroke:#181818;stroke-width:0.5;" x1="767" x2="929" y1="103.1094" y2="103.1094"/></g><!--link Repositories to Repositories--><g id="link_Repositories_Repositories"><path codeLine="88" d="M554.58,186.9394 C574.84,189.1494 589.5,196.5394 589.5,209.1094 C589.5,220.5994 577.25,227.7594 559.67,230.5894 " fill="none" id="Repositories-to-Repositories" style="stroke:#181818;stroke-width:1.0;"/><polygon fill="#181818" points="554.58,231.2794,564.0354,234.0352,559.5348,230.6083,562.9617,226.1076,554.58,231.2794" style="stroke:#181818;stroke-width:1.0;"/><text fill="#000000" font-family="sans-serif" font-size="13" lengthAdjust="spacing" textLength="49" x="595.5" y="214.6045">instance</text></g><!--reverse link SubdivideAgenciesController to SubdivideAgenciesUI--><g id="link_SubdivideAgenciesController_SubdivideAgenciesUI"><path codeLine="90" d="M735.9,87.1094 C746.75,87.1094 754.33,87.1094 754.33,87.1094 C754.33,87.1094 758.82,87.1094 765.82,87.1094 " fill="none" id="SubdivideAgenciesController-backto-SubdivideAgenciesUI" style="stroke:#181818;stroke-width:1.0;stroke-dasharray:7.0,7.0;"/><polygon fill="#181818" points="730.7,87.1094,739.7,91.1094,735.7,87.1094,739.7,83.1094,730.7,87.1094" style="stroke:#181818;stroke-width:1.0;"/></g><!--link SubdivideAgenciesController to Repositories--><g id="link_SubdivideAgenciesController_Repositories"><path codeLine="92" d="M530.77,128.7394 C523.48,136.9194 515.71,145.6394 508.08,154.1894 " fill="none" id="SubdivideAgenciesController-to-Repositories" style="stroke:#181818;stroke-width:1.0;stroke-dasharray:7.0,7.0;"/><polygon fill="#181818" points="504.35,158.3694,513.3199,154.3023,507.6727,154.6331,507.3419,148.9859,504.35,158.3694" style="stroke:#181818;stroke-width:1.0;"/><text fill="#000000" font-family="sans-serif" font-size="13" lengthAdjust="spacing" textLength="67" x="520.43" y="155.9545">repositories</text></g><!--link SubdivideAgenciesController to Partition--><g id="link_SubdivideAgenciesController_Partition"><path codeLine="94" d="M440.88,128.7094 C392.19,144.3794 348,158.6094 348,158.6094 C348,158.6094 301.51,222.0194 255.27,285.0994 " fill="none" id="SubdivideAgenciesController-to-Partition" style="stroke:#181818;stroke-width:1.0;stroke-dasharray:7.0,7.0;"/><polygon fill="#181818" points="252.23,289.2594,260.7719,284.3567,255.1819,285.2237,254.3148,279.6337,252.23,289.2594" style="stroke:#181818;stroke-width:1.0;"/></g><!--link Repositories to AgencyRepository--><g id="link_Repositories_AgencyRepository"><path codeLine="96" d="M509.94,259.6794 C545.58,295.0594 592.69,341.8094 624.77,373.6494 " fill="none" id="Repositories-to-AgencyRepository" style="stroke:#181818;stroke-width:1.0;"/><polygon fill="#181818" points="628.6,377.4494,625.0273,368.2714,625.0502,373.9282,619.3934,373.9511,628.6,377.4494" style="stroke:#181818;stroke-width:1.0;"/><text fill="#000000" font-family="sans-serif" font-size="13" lengthAdjust="spacing" textLength="7" x="614.1956" y="366.5318">1</text></g><!--link SubdivideAgenciesController to Agency--><g id="link_SubdivideAgenciesController_Agency"><path codeLine="98" d="M678.73,128.7094 C721.85,144.3794 761,158.6094 761,158.6094 C761,158.6094 782,289.6094 782,289.6094 C782,289.6094 796,561.6094 796,561.6094 C796,561.6094 796,579.6094 796,579.6094 C796,579.6094 791.76,590.0694 785.94,604.4094 " fill="none" id="SubdivideAgenciesController-to-Agency" style="stroke:#181818;stroke-width:1.0;stroke-dasharray:7.0,7.0;"/><polygon fill="#181818" points="783.91,609.4194,790.9919,602.5749,785.7842,604.7839,783.5752,599.5762,783.91,609.4194" style="stroke:#181818;stroke-width:1.0;"/></g><!--link SubdivideAgenciesController to AgencyRepository--><g id="link_SubdivideAgenciesController_AgencyRepository"><path codeLine="99" d="M606.16,128.7094 C621.28,144.3794 635,158.6094 635,158.6094 C635,158.6094 649.89,302.3094 657.13,372.2494 " fill="none" id="SubdivideAgenciesController-to-AgencyRepository" style="stroke:#181818;stroke-width:1.0;stroke-dasharray:7.0,7.0;"/><polygon fill="#181818" points="657.68,377.5694,660.7354,368.2064,657.167,372.5958,652.7776,369.0273,657.68,377.5694" style="stroke:#181818;stroke-width:1.0;"/><text fill="#000000" font-family="sans-serif" font-size="13" lengthAdjust="spacing" textLength="106" x="646" y="214.6045">AgencyRepository</text></g><!--link AgencyRepository to Agency--><g id="link_AgencyRepository_Agency"><path codeLine="101" d="M671.03,443.9994 C686.14,492.8194 713,579.6094 713,579.6094 C713,579.6094 716.95,590.0694 722.36,604.4094 " fill="none" id="AgencyRepository-to-Agency" style="stroke:#181818;stroke-width:1.0;"/><polygon fill="#181818" points="724.25,609.4194,724.799,599.5858,722.4772,604.7442,717.3188,602.4224,724.25,609.4194" style="stroke:#181818;stroke-width:1.0;"/><polygon fill="#000000" points="719.5238,575.5473,719.5663,566.0368,713.9681,567.8282,719.5238,575.5473" style="stroke:#000000;stroke-width:1.0;"/><text fill="#000000" font-family="sans-serif" font-size="13" lengthAdjust="spacing" textLength="64" x="727" y="576.1045">aggregates</text><text fill="#000000" font-family="sans-serif" font-size="13" lengthAdjust="spacing" textLength="7" x="665.1523" y="464.6722">1</text><text fill="#000000" font-family="sans-serif" font-size="13" lengthAdjust="spacing" textLength="5" x="716.2715" y="598.828">*</text></g><!--reverse link AnnouncementList to Agency--><g id="link_AnnouncementList_Agency"><path codeLine="103" d="M603.75,686.6094 C627.73,686.6094 653.96,686.6094 677.65,686.6094 " fill="none" id="AnnouncementList-backto-Agency" style="stroke:#181818;stroke-width:1.0;"/><polygon fill="#181818" points="598.67,686.6094,607.67,690.6094,603.67,686.6094,607.67,682.6094,598.67,686.6094" style="stroke:#181818;stroke-width:1.0;"/><polygon fill="#000000" points="615.75,674.7852,624.7951,677.7241,624.7951,671.8462,615.75,674.7852" style="stroke:#000000;stroke-width:1.0;"/><text fill="#000000" font-family="sans-serif" font-size="13" lengthAdjust="spacing" textLength="30" x="629.75" y="680.1045">owns</text><text fill="#000000" font-family="sans-serif" font-size="13" lengthAdjust="spacing" textLength="7" x="606.7313" y="683.3178">1</text><text fill="#000000" font-family="sans-serif" font-size="13" lengthAdjust="spacing" textLength="7" x="662.8882" y="683.3512">1</text></g><!--reverse link Announcement to AnnouncementList--><g id="link_Announcement_AnnouncementList"><path codeLine="105" d="M362.57,686.6094 C391.31,686.6094 422.18,686.6094 449.14,686.6094 " fill="none" id="Announcement-backto-AnnouncementList" style="stroke:#181818;stroke-width:1.0;"/><polygon fill="#181818" points="357.23,686.6094,366.23,690.6094,362.23,686.6094,366.23,682.6094,357.23,686.6094" style="stroke:#181818;stroke-width:1.0;"/><polygon fill="#000000" points="374.25,674.7852,383.2951,677.7241,383.2951,671.8462,374.25,674.7852" style="stroke:#000000;stroke-width:1.0;"/><text fill="#000000" font-family="sans-serif" font-size="13" lengthAdjust="spacing" textLength="43" x="388.25" y="680.1045">records</text><text fill="#000000" font-family="sans-serif" font-size="13" lengthAdjust="spacing" textLength="5" x="364.9382" y="683.4947">*</text><text fill="#000000" font-family="sans-serif" font-size="13" lengthAdjust="spacing" textLength="7" x="434.4264" y="683.3535">1</text></g><!--SRC=[ZLLDSzem4BthLsXwCKb39kHM9iCC3Jqmasao9UbTs6kZYIovaWobcVpthYn_oDYbuG1Ok-_jsoyvCgzS5aopdEPAgdYdLGxKwX98PobO_CeosDYZ0AeXjanc8dGmEvQe0vSPJPameKLm2VPO02sKEBe74eqObRQA1AXOC6EMrcg-BIsiOoKt_0_G6q8Y0QcbLb7Divsb2NTok9A4M6vHtRr3qXLdcUEPqfVDpUmB8HKXNMOWuoDz8nG_KxgM5ZBGb2VrmGO3OWu9c5ZpegBrXcyvuuA2-rucYGPZ-eXYfoHyB_CjwChmcMPWVRHrChdephpFOxe2h1CQtbjfKgfInf23j0_SsBSEK_bwe4UCG9gK7bJCn8fPe2oEeS16nU0U1sR3H6XOgN8h_EaoHrRxhn8vRNS_kU5sGVVknntKMhbnKiEidfZ6jc0TsvfN-9frWGDWR5sCsiwbfJcNAvwceB5-C8epvTOTpCuPRsjLhOP942reoSQxcxfDKtVsf0wkIyy7DGHDATOmBWKMhwKsOsu9n3ndubbzvPBfuqHMBHoGTAbEQkMRCfzTTVzlGs5DnBLCLUD_GLp5fSAs-grGQPVrV8umh-0755MtddT0zqnpLhNSBHOtH0EECkmXeIbU0RtEW4oeO_zW35mFd4XMhGzFVbFuLI8BlRcY38aEN0YonP0orjNeOaGkAKRMHy8jQ0_iOaP-b9poPXhlxavQlbYyaSXtb2N9XDMRTuKzg1eIlVTuwgrjQFpZW0MhArfdpn5U8vYfmlbNkhbGJfVrCQqSEVGMlONXURiLuM5uNQobgLPuSa7dUF5sJgUtJ2ScZ8MZdV0zJw0HSg-arKe8h66Z-OpFv9JxuYGi3pVWNDoNDSP3So_vwQ9VZ3dEWK-Na366QtVrByu97i456LyFulKgUXwBhpU916s-mrm-pJuD9kC_f4Ze4Hzq2qPkFX9huEGaJPsqoqOQubYMQSZmuZ5qqM2yfwzlbSV9smXXcBy7d9f2w6KVwYeSAvrKm6XSdWyORlUSuitGw8kwLqYRJUrVRt7F7Jz_0G00]--></g></svg>