<?xml version="1.0" encoding="UTF-8" standalone="no"?><svg xmlns="http://www.w3.org/2000/svg" xmlns:xlink="http://www.w3.org/1999/xlink" contentStyleType="text/css" height="919px" preserveAspectRatio="none" style="width:813px;height:919px;background:#FFFFFF;" version="1.1" viewBox="0 0 813 919" width="813px" zoomAndPan="magnify"><defs/><g><!--class RegisterUserUI--><g id="elem_RegisterUserUI"><rect codeLine="9" fill="#F1F1F1" height="48" id="RegisterUserUI" rx="2.5" ry="2.5" style="stroke:#181818;stroke-width:0.5;" width="126" x="565" y="33.5"/><ellipse cx="580" cy="49.5" fill="#ADD1B2" rx="11" ry="11" style="stroke:#181818;stroke-width:1.0;"/><path d="M582.7656,45.375 Q582.9219,45.1563 583.1094,45.0469 Q583.2969,44.9375 583.5156,44.9375 Q583.8906,44.9375 584.125,45.2031 Q584.3594,45.4531 584.3594,46.0625 L584.3594,47.5156 Q584.3594,48.125 584.125,48.3906 Q583.8906,48.6563 583.5156,48.6563 Q583.1719,48.6563 582.9688,48.4531 Q582.7656,48.2656 582.6563,47.75 Q582.6094,47.3906 582.4219,47.2031 Q582.0938,46.8281 581.4844,46.6094 Q580.875,46.3906 580.25,46.3906 Q579.4844,46.3906 578.8438,46.7188 Q578.2188,47.0469 577.7188,47.7969 Q577.2344,48.5469 577.2344,49.5781 L577.2344,50.6719 Q577.2344,51.9063 578.125,52.7344 Q579.0156,53.5469 580.6094,53.5469 Q581.5469,53.5469 582.2031,53.2969 Q582.5938,53.1406 583.0156,52.7031 Q583.2813,52.4375 583.4219,52.3594 Q583.5781,52.2813 583.7813,52.2813 Q584.1094,52.2813 584.3594,52.5469 Q584.625,52.7969 584.625,53.1406 Q584.625,53.4844 584.2813,53.8906 Q583.7813,54.4688 582.9844,54.7969 Q581.9063,55.25 580.6094,55.25 Q579.0938,55.25 577.8906,54.625 Q576.9063,54.125 576.2188,53.0625 Q575.5313,51.9844 575.5313,50.7031 L575.5313,49.5469 Q575.5313,48.2188 576.1406,47.0781 Q576.7656,45.9219 577.8594,45.3125 Q578.9531,44.6875 580.1875,44.6875 Q580.9219,44.6875 581.5625,44.8594 Q582.2188,45.0156 582.7656,45.375 Z " fill="#000000"/><text fill="#000000" font-family="sans-serif" font-size="14" lengthAdjust="spacing" textLength="94" x="594" y="55.2285">RegisterUserUI</text><line style="stroke:#181818;stroke-width:0.5;" x1="566" x2="690" y1="65.5" y2="65.5"/><line style="stroke:#181818;stroke-width:0.5;" x1="566" x2="690" y1="73.5" y2="73.5"/></g><!--class RegisterUserController--><g id="elem_RegisterUserController"><rect codeLine="13" fill="#F1F1F1" height="100.8281" id="RegisterUserController" rx="2.5" ry="2.5" style="stroke:#181818;stroke-width:0.5;" width="362" x="168" y="7"/><ellipse cx="272.75" cy="23" fill="#ADD1B2" rx="11" ry="11" style="stroke:#181818;stroke-width:1.0;"/><path d="M275.5156,18.875 Q275.6719,18.6563 275.8594,18.5469 Q276.0469,18.4375 276.2656,18.4375 Q276.6406,18.4375 276.875,18.7031 Q277.1094,18.9531 277.1094,19.5625 L277.1094,21.0156 Q277.1094,21.625 276.875,21.8906 Q276.6406,22.1563 276.2656,22.1563 Q275.9219,22.1563 275.7188,21.9531 Q275.5156,21.7656 275.4063,21.25 Q275.3594,20.8906 275.1719,20.7031 Q274.8438,20.3281 274.2344,20.1094 Q273.625,19.8906 273,19.8906 Q272.2344,19.8906 271.5938,20.2188 Q270.9688,20.5469 270.4688,21.2969 Q269.9844,22.0469 269.9844,23.0781 L269.9844,24.1719 Q269.9844,25.4063 270.875,26.2344 Q271.7656,27.0469 273.3594,27.0469 Q274.2969,27.0469 274.9531,26.7969 Q275.3438,26.6406 275.7656,26.2031 Q276.0313,25.9375 276.1719,25.8594 Q276.3281,25.7813 276.5313,25.7813 Q276.8594,25.7813 277.1094,26.0469 Q277.375,26.2969 277.375,26.6406 Q277.375,26.9844 277.0313,27.3906 Q276.5313,27.9688 275.7344,28.2969 Q274.6563,28.75 273.3594,28.75 Q271.8438,28.75 270.6406,28.125 Q269.6563,27.625 268.9688,26.5625 Q268.2813,25.4844 268.2813,24.2031 L268.2813,23.0469 Q268.2813,21.7188 268.8906,20.5781 Q269.5156,19.4219 270.6094,18.8125 Q271.7031,18.1875 272.9375,18.1875 Q273.6719,18.1875 274.3125,18.3594 Q274.9688,18.5156 275.5156,18.875 Z " fill="#000000"/><text fill="#000000" font-family="sans-serif" font-size="14" lengthAdjust="spacing" textLength="144" x="293.25" y="28.7285">RegisterUserController</text><line style="stroke:#181818;stroke-width:0.5;" x1="169" x2="529" y1="39" y2="39"/><line style="stroke:#181818;stroke-width:0.5;" x1="169" x2="529" y1="47" y2="47"/><text fill="#000000" font-family="sans-serif" font-size="14" lengthAdjust="spacing" textLength="350" x="174" y="65.5332">+registerUser(name, passportCardNumber, tax number,</text><text fill="#000000" font-family="sans-serif" font-size="14" lengthAdjust="spacing" textLength="334" x="178" y="83.1426">emailAddress, phoneNumber, password, streetName,</text><text fill="#000000" font-family="sans-serif" font-size="14" lengthAdjust="spacing" textLength="170" x="178" y="100.752">city, district, state, zipcode)</text></g><!--class AuthenticationRepository--><g id="elem_AuthenticationRepository"><rect codeLine="17" fill="#F1F1F1" height="65.6094" id="AuthenticationRepository" rx="2.5" ry="2.5" style="stroke:#181818;stroke-width:0.5;" width="394" x="402" y="212"/><ellipse cx="515.75" cy="228" fill="#ADD1B2" rx="11" ry="11" style="stroke:#181818;stroke-width:1.0;"/><path d="M518.5156,223.875 Q518.6719,223.6563 518.8594,223.5469 Q519.0469,223.4375 519.2656,223.4375 Q519.6406,223.4375 519.875,223.7031 Q520.1094,223.9531 520.1094,224.5625 L520.1094,226.0156 Q520.1094,226.625 519.875,226.8906 Q519.6406,227.1563 519.2656,227.1563 Q518.9219,227.1563 518.7188,226.9531 Q518.5156,226.7656 518.4063,226.25 Q518.3594,225.8906 518.1719,225.7031 Q517.8438,225.3281 517.2344,225.1094 Q516.625,224.8906 516,224.8906 Q515.2344,224.8906 514.5938,225.2188 Q513.9688,225.5469 513.4688,226.2969 Q512.9844,227.0469 512.9844,228.0781 L512.9844,229.1719 Q512.9844,230.4063 513.875,231.2344 Q514.7656,232.0469 516.3594,232.0469 Q517.2969,232.0469 517.9531,231.7969 Q518.3438,231.6406 518.7656,231.2031 Q519.0313,230.9375 519.1719,230.8594 Q519.3281,230.7813 519.5313,230.7813 Q519.8594,230.7813 520.1094,231.0469 Q520.375,231.2969 520.375,231.6406 Q520.375,231.9844 520.0313,232.3906 Q519.5313,232.9688 518.7344,233.2969 Q517.6563,233.75 516.3594,233.75 Q514.8438,233.75 513.6406,233.125 Q512.6563,232.625 511.9688,231.5625 Q511.2813,230.4844 511.2813,229.2031 L511.2813,228.0469 Q511.2813,226.7188 511.8906,225.5781 Q512.5156,224.4219 513.6094,223.8125 Q514.7031,223.1875 515.9375,223.1875 Q516.6719,223.1875 517.3125,223.3594 Q517.9688,223.5156 518.5156,223.875 Z " fill="#000000"/><text fill="#000000" font-family="sans-serif" font-size="14" lengthAdjust="spacing" textLength="158" x="536.25" y="233.7285">AuthenticationRepository</text><line style="stroke:#181818;stroke-width:0.5;" x1="403" x2="795" y1="244" y2="244"/><line style="stroke:#181818;stroke-width:0.5;" x1="403" x2="795" y1="252" y2="252"/><text fill="#000000" font-family="sans-serif" font-size="14" lengthAdjust="spacing" textLength="382" x="408" y="270.5332">+addUserWithRole(name,emailAddress,password,clientRole)</text></g><!--class Person--><g id="elem_Person"><rect codeLine="21" fill="#F1F1F1" height="188.875" id="Person" rx="2.5" ry="2.5" style="stroke:#181818;stroke-width:0.5;" width="330" x="27" y="562"/><ellipse cx="165.25" cy="578" fill="#ADD1B2" rx="11" ry="11" style="stroke:#181818;stroke-width:1.0;"/><path d="M168.0156,573.875 Q168.1719,573.6563 168.3594,573.5469 Q168.5469,573.4375 168.7656,573.4375 Q169.1406,573.4375 169.375,573.7031 Q169.6094,573.9531 169.6094,574.5625 L169.6094,576.0156 Q169.6094,576.625 169.375,576.8906 Q169.1406,577.1563 168.7656,577.1563 Q168.4219,577.1563 168.2188,576.9531 Q168.0156,576.7656 167.9063,576.25 Q167.8594,575.8906 167.6719,575.7031 Q167.3438,575.3281 166.7344,575.1094 Q166.125,574.8906 165.5,574.8906 Q164.7344,574.8906 164.0938,575.2188 Q163.4688,575.5469 162.9688,576.2969 Q162.4844,577.0469 162.4844,578.0781 L162.4844,579.1719 Q162.4844,580.4063 163.375,581.2344 Q164.2656,582.0469 165.8594,582.0469 Q166.7969,582.0469 167.4531,581.7969 Q167.8438,581.6406 168.2656,581.2031 Q168.5313,580.9375 168.6719,580.8594 Q168.8281,580.7813 169.0313,580.7813 Q169.3594,580.7813 169.6094,581.0469 Q169.875,581.2969 169.875,581.6406 Q169.875,581.9844 169.5313,582.3906 Q169.0313,582.9688 168.2344,583.2969 Q167.1563,583.75 165.8594,583.75 Q164.3438,583.75 163.1406,583.125 Q162.1563,582.625 161.4688,581.5625 Q160.7813,580.4844 160.7813,579.2031 L160.7813,578.0469 Q160.7813,576.7188 161.3906,575.5781 Q162.0156,574.4219 163.1094,573.8125 Q164.2031,573.1875 165.4375,573.1875 Q166.1719,573.1875 166.8125,573.3594 Q167.4688,573.5156 168.0156,573.875 Z " fill="#000000"/><text fill="#000000" font-family="sans-serif" font-size="14" lengthAdjust="spacing" textLength="45" x="185.75" y="583.7285">Person</text><line style="stroke:#181818;stroke-width:0.5;" x1="28" x2="356" y1="594" y2="594"/><text fill="#000000" font-family="sans-serif" font-size="14" lengthAdjust="spacing" textLength="81" x="33" y="612.5332">-String name</text><text fill="#000000" font-family="sans-serif" font-size="14" lengthAdjust="spacing" textLength="181" x="33" y="630.1426">-String passportCardNumber</text><text fill="#000000" font-family="sans-serif" font-size="14" lengthAdjust="spacing" textLength="113" x="33" y="647.752">-String taxNumber</text><text fill="#000000" font-family="sans-serif" font-size="14" lengthAdjust="spacing" textLength="131" x="33" y="665.3613">-String emailAddress</text><text fill="#000000" font-family="sans-serif" font-size="14" lengthAdjust="spacing" textLength="135" x="33" y="682.9707">-String phoneNumber</text><line style="stroke:#181818;stroke-width:0.5;" x1="28" x2="356" y1="690.0469" y2="690.0469"/><text fill="#000000" font-family="sans-serif" font-size="14" lengthAdjust="spacing" textLength="318" x="33" y="708.5801">+Person(name, passportCardNumber, tax number,</text><text fill="#000000" font-family="sans-serif" font-size="14" lengthAdjust="spacing" textLength="266" x="37" y="726.1895">emailAddress, phoneNumber, streetName,</text><text fill="#000000" font-family="sans-serif" font-size="14" lengthAdjust="spacing" textLength="170" x="37" y="743.7988">city, district, state, zipcode)</text></g><!--class PersonRepository--><g id="elem_PersonRepository"><rect codeLine="32" fill="#F1F1F1" height="136.0469" id="PersonRepository" rx="2.5" ry="2.5" style="stroke:#181818;stroke-width:0.5;" width="370" x="7" y="365"/><ellipse cx="131.25" cy="381" fill="#ADD1B2" rx="11" ry="11" style="stroke:#181818;stroke-width:1.0;"/><path d="M134.0156,376.875 Q134.1719,376.6563 134.3594,376.5469 Q134.5469,376.4375 134.7656,376.4375 Q135.1406,376.4375 135.375,376.7031 Q135.6094,376.9531 135.6094,377.5625 L135.6094,379.0156 Q135.6094,379.625 135.375,379.8906 Q135.1406,380.1563 134.7656,380.1563 Q134.4219,380.1563 134.2188,379.9531 Q134.0156,379.7656 133.9063,379.25 Q133.8594,378.8906 133.6719,378.7031 Q133.3438,378.3281 132.7344,378.1094 Q132.125,377.8906 131.5,377.8906 Q130.7344,377.8906 130.0938,378.2188 Q129.4688,378.5469 128.9688,379.2969 Q128.4844,380.0469 128.4844,381.0781 L128.4844,382.1719 Q128.4844,383.4063 129.375,384.2344 Q130.2656,385.0469 131.8594,385.0469 Q132.7969,385.0469 133.4531,384.7969 Q133.8438,384.6406 134.2656,384.2031 Q134.5313,383.9375 134.6719,383.8594 Q134.8281,383.7813 135.0313,383.7813 Q135.3594,383.7813 135.6094,384.0469 Q135.875,384.2969 135.875,384.6406 Q135.875,384.9844 135.5313,385.3906 Q135.0313,385.9688 134.2344,386.2969 Q133.1563,386.75 131.8594,386.75 Q130.3438,386.75 129.1406,386.125 Q128.1563,385.625 127.4688,384.5625 Q126.7813,383.4844 126.7813,382.2031 L126.7813,381.0469 Q126.7813,379.7188 127.3906,378.5781 Q128.0156,377.4219 129.1094,376.8125 Q130.2031,376.1875 131.4375,376.1875 Q132.1719,376.1875 132.8125,376.3594 Q133.4688,376.5156 134.0156,376.875 Z " fill="#000000"/><text fill="#000000" font-family="sans-serif" font-size="14" lengthAdjust="spacing" textLength="113" x="151.75" y="386.7285">PersonRepository</text><line style="stroke:#181818;stroke-width:0.5;" x1="8" x2="376" y1="397" y2="397"/><line style="stroke:#181818;stroke-width:0.5;" x1="8" x2="376" y1="405" y2="405"/><text fill="#000000" font-family="sans-serif" font-size="14" lengthAdjust="spacing" textLength="358" x="13" y="423.5332">+createPerson(name, passportCardNumber, tax number,</text><text fill="#000000" font-family="sans-serif" font-size="14" lengthAdjust="spacing" textLength="266" x="17" y="441.1426">emailAddress, phoneNumber, streetName,</text><text fill="#000000" font-family="sans-serif" font-size="14" lengthAdjust="spacing" textLength="170" x="17" y="458.752">city, district, state, zipcode)</text><text fill="#000000" font-family="sans-serif" font-size="14" lengthAdjust="spacing" textLength="131" x="13" y="476.3613">+addPerson(person)</text><text fill="#000000" font-family="sans-serif" font-size="14" lengthAdjust="spacing" textLength="156" x="13" y="493.9707">+validatePerson(person)</text></g><!--class AuthFacade--><g id="elem_AuthFacade"><rect codeLine="38" fill="#F1F1F1" height="65.6094" id="AuthFacade" rx="2.5" ry="2.5" style="stroke:#181818;stroke-width:0.5;" width="394" x="412" y="400"/><ellipse cx="566.25" cy="416" fill="#ADD1B2" rx="11" ry="11" style="stroke:#181818;stroke-width:1.0;"/><path d="M569.0156,411.875 Q569.1719,411.6563 569.3594,411.5469 Q569.5469,411.4375 569.7656,411.4375 Q570.1406,411.4375 570.375,411.7031 Q570.6094,411.9531 570.6094,412.5625 L570.6094,414.0156 Q570.6094,414.625 570.375,414.8906 Q570.1406,415.1563 569.7656,415.1563 Q569.4219,415.1563 569.2188,414.9531 Q569.0156,414.7656 568.9063,414.25 Q568.8594,413.8906 568.6719,413.7031 Q568.3438,413.3281 567.7344,413.1094 Q567.125,412.8906 566.5,412.8906 Q565.7344,412.8906 565.0938,413.2188 Q564.4688,413.5469 563.9688,414.2969 Q563.4844,415.0469 563.4844,416.0781 L563.4844,417.1719 Q563.4844,418.4063 564.375,419.2344 Q565.2656,420.0469 566.8594,420.0469 Q567.7969,420.0469 568.4531,419.7969 Q568.8438,419.6406 569.2656,419.2031 Q569.5313,418.9375 569.6719,418.8594 Q569.8281,418.7813 570.0313,418.7813 Q570.3594,418.7813 570.6094,419.0469 Q570.875,419.2969 570.875,419.6406 Q570.875,419.9844 570.5313,420.3906 Q570.0313,420.9688 569.2344,421.2969 Q568.1563,421.75 566.8594,421.75 Q565.3438,421.75 564.1406,421.125 Q563.1563,420.625 562.4688,419.5625 Q561.7813,418.4844 561.7813,417.2031 L561.7813,416.0469 Q561.7813,414.7188 562.3906,413.5781 Q563.0156,412.4219 564.1094,411.8125 Q565.2031,411.1875 566.4375,411.1875 Q567.1719,411.1875 567.8125,411.3594 Q568.4688,411.5156 569.0156,411.875 Z " fill="#000000"/><text fill="#000000" font-family="sans-serif" font-size="14" lengthAdjust="spacing" textLength="77" x="586.75" y="421.7285">AuthFacade</text><line style="stroke:#181818;stroke-width:0.5;" x1="413" x2="805" y1="432" y2="432"/><line style="stroke:#181818;stroke-width:0.5;" x1="413" x2="805" y1="440" y2="440"/><text fill="#000000" font-family="sans-serif" font-size="14" lengthAdjust="spacing" textLength="382" x="418" y="458.5332">+addUserWithRole(name,emailAddress,password,clientRole)</text></g><!--class Repositories--><g id="elem_Repositories"><rect codeLine="42" fill="#F1F1F1" height="118.4375" id="Repositories" rx="2.5" ry="2.5" style="stroke:#181818;stroke-width:0.5;" width="208" x="88" y="186"/><ellipse cx="148.25" cy="202" fill="#ADD1B2" rx="11" ry="11" style="stroke:#181818;stroke-width:1.0;"/><path d="M151.0156,197.875 Q151.1719,197.6563 151.3594,197.5469 Q151.5469,197.4375 151.7656,197.4375 Q152.1406,197.4375 152.375,197.7031 Q152.6094,197.9531 152.6094,198.5625 L152.6094,200.0156 Q152.6094,200.625 152.375,200.8906 Q152.1406,201.1563 151.7656,201.1563 Q151.4219,201.1563 151.2188,200.9531 Q151.0156,200.7656 150.9063,200.25 Q150.8594,199.8906 150.6719,199.7031 Q150.3438,199.3281 149.7344,199.1094 Q149.125,198.8906 148.5,198.8906 Q147.7344,198.8906 147.0938,199.2188 Q146.4688,199.5469 145.9688,200.2969 Q145.4844,201.0469 145.4844,202.0781 L145.4844,203.1719 Q145.4844,204.4063 146.375,205.2344 Q147.2656,206.0469 148.8594,206.0469 Q149.7969,206.0469 150.4531,205.7969 Q150.8438,205.6406 151.2656,205.2031 Q151.5313,204.9375 151.6719,204.8594 Q151.8281,204.7813 152.0313,204.7813 Q152.3594,204.7813 152.6094,205.0469 Q152.875,205.2969 152.875,205.6406 Q152.875,205.9844 152.5313,206.3906 Q152.0313,206.9688 151.2344,207.2969 Q150.1563,207.75 148.8594,207.75 Q147.3438,207.75 146.1406,207.125 Q145.1563,206.625 144.4688,205.5625 Q143.7813,204.4844 143.7813,203.2031 L143.7813,202.0469 Q143.7813,200.7188 144.3906,199.5781 Q145.0156,198.4219 146.1094,197.8125 Q147.2031,197.1875 148.4375,197.1875 Q149.1719,197.1875 149.8125,197.3594 Q150.4688,197.5156 151.0156,197.875 Z " fill="#000000"/><text fill="#000000" font-family="sans-serif" font-size="14" lengthAdjust="spacing" textLength="79" x="168.75" y="207.7285">Repositories</text><line style="stroke:#181818;stroke-width:0.5;" x1="89" x2="295" y1="218" y2="218"/><line style="stroke:#181818;stroke-width:0.5;" x1="89" x2="295" y1="226" y2="226"/><text fill="#000000" font-family="sans-serif" font-size="14" lengthAdjust="spacing" textLength="94" x="94" y="244.5332">-Repositories()</text><text fill="#000000" font-family="sans-serif" font-size="14" lengthAdjust="spacing" textLength="91" x="94" y="262.1426">+getInstance()</text><text fill="#000000" font-family="sans-serif" font-size="14" lengthAdjust="spacing" textLength="151" x="94" y="279.752">+getPersonRepository()</text><text fill="#000000" font-family="sans-serif" font-size="14" lengthAdjust="spacing" textLength="196" x="94" y="297.3613">+getAuthenticationRepository()</text></g><!--class Location--><g id="elem_Location"><rect codeLine="49" fill="#F1F1F1" height="83.2188" id="Location" rx="2.5" ry="2.5" style="stroke:#181818;stroke-width:0.5;" width="233" x="75.5" y="829"/><ellipse cx="160.75" cy="845" fill="#ADD1B2" rx="11" ry="11" style="stroke:#181818;stroke-width:1.0;"/><path d="M163.5156,840.875 Q163.6719,840.6563 163.8594,840.5469 Q164.0469,840.4375 164.2656,840.4375 Q164.6406,840.4375 164.875,840.7031 Q165.1094,840.9531 165.1094,841.5625 L165.1094,843.0156 Q165.1094,843.625 164.875,843.8906 Q164.6406,844.1563 164.2656,844.1563 Q163.9219,844.1563 163.7188,843.9531 Q163.5156,843.7656 163.4063,843.25 Q163.3594,842.8906 163.1719,842.7031 Q162.8438,842.3281 162.2344,842.1094 Q161.625,841.8906 161,841.8906 Q160.2344,841.8906 159.5938,842.2188 Q158.9688,842.5469 158.4688,843.2969 Q157.9844,844.0469 157.9844,845.0781 L157.9844,846.1719 Q157.9844,847.4063 158.875,848.2344 Q159.7656,849.0469 161.3594,849.0469 Q162.2969,849.0469 162.9531,848.7969 Q163.3438,848.6406 163.7656,848.2031 Q164.0313,847.9375 164.1719,847.8594 Q164.3281,847.7813 164.5313,847.7813 Q164.8594,847.7813 165.1094,848.0469 Q165.375,848.2969 165.375,848.6406 Q165.375,848.9844 165.0313,849.3906 Q164.5313,849.9688 163.7344,850.2969 Q162.6563,850.75 161.3594,850.75 Q159.8438,850.75 158.6406,850.125 Q157.6563,849.625 156.9688,848.5625 Q156.2813,847.4844 156.2813,846.2031 L156.2813,845.0469 Q156.2813,843.7188 156.8906,842.5781 Q157.5156,841.4219 158.6094,840.8125 Q159.7031,840.1875 160.9375,840.1875 Q161.6719,840.1875 162.3125,840.3594 Q162.9688,840.5156 163.5156,840.875 Z " fill="#000000"/><text fill="#000000" font-family="sans-serif" font-size="14" lengthAdjust="spacing" textLength="54" x="181.25" y="850.7285">Location</text><line style="stroke:#181818;stroke-width:0.5;" x1="76.5" x2="307.5" y1="861" y2="861"/><line style="stroke:#181818;stroke-width:0.5;" x1="76.5" x2="307.5" y1="869" y2="869"/><text fill="#000000" font-family="sans-serif" font-size="14" lengthAdjust="spacing" textLength="221" x="81.5" y="887.5332">+Location(streetName, city, district,</text><text fill="#000000" font-family="sans-serif" font-size="14" lengthAdjust="spacing" textLength="92" x="85.5" y="905.1426">state, zipcode)</text></g><!--reverse link RegisterUserController to RegisterUserUI--><g id="link_RegisterUserController_RegisterUserUI"><path codeLine="55" d="M535.35,57.5 C541.88,57.5 552.5,57.5 564.94,57.5 " fill="none" id="RegisterUserController-backto-RegisterUserUI" style="stroke:#181818;stroke-width:1.0;stroke-dasharray:7.0,7.0;"/><polygon fill="#181818" points="530.26,57.5,539.26,61.5,535.26,57.5,539.26,53.5,530.26,57.5" style="stroke:#181818;stroke-width:1.0;"/></g><!--link RegisterUserController to Repositories--><g id="link_RegisterUserController_Repositories"><path codeLine="56" d="M289.64,108.17 C270.44,124.24 254,138 254,138 C254,138 242.13,158.3 228.77,181.13 " fill="none" id="RegisterUserController-to-Repositories" style="stroke:#181818;stroke-width:1.0;stroke-dasharray:7.0,7.0;"/><polygon fill="#181818" points="226.08,185.73,234.0818,179.9879,228.6082,181.4163,227.1799,175.9427,226.08,185.73" style="stroke:#181818;stroke-width:1.0;"/><text fill="#000000" font-family="sans-serif" font-size="13" lengthAdjust="spacing" textLength="67" x="255" y="152.4951">repositories</text></g><!--link RegisterUserController to PersonRepository--><g id="link_RegisterUserController_PersonRepository"><path codeLine="57" d="M341.71,108.18 C331.2,179.92 313,304 313,304 C313,304 287.21,331.28 259.44,360.66 " fill="none" id="RegisterUserController-to-PersonRepository" style="stroke:#181818;stroke-width:1.0;stroke-dasharray:7.0,7.0;"/><polygon fill="#181818" points="255.69,364.63,264.779,360.8365,259.1244,360.9961,258.9648,355.3415,255.69,364.63" style="stroke:#181818;stroke-width:1.0;"/><text fill="#000000" font-family="sans-serif" font-size="13" lengthAdjust="spacing" textLength="7" x="254.8971" y="354.2652">1</text></g><!--link RegisterUserController to AuthenticationRepository--><g id="link_RegisterUserController_AuthenticationRepository"><path codeLine="58" d="M416,108.21 C458.84,140 513.36,180.45 551.71,208.91 " fill="none" id="RegisterUserController-to-AuthenticationRepository" style="stroke:#181818;stroke-width:1.0;stroke-dasharray:7.0,7.0;"/><polygon fill="#181818" points="555.83,211.97,550.976,203.4004,551.8112,208.9952,546.2163,209.8305,555.83,211.97" style="stroke:#181818;stroke-width:1.0;"/></g><!--link Repositories to PersonRepository--><g id="link_Repositories_PersonRepository"><path codeLine="60" d="M192,304.09 C192,321.72 192,341.32 192,359.76 " fill="none" id="Repositories-to-PersonRepository" style="stroke:#181818;stroke-width:1.0;"/><polygon fill="#181818" points="192,364.93,196,355.93,192,359.93,188,355.93,192,364.93" style="stroke:#181818;stroke-width:1.0;"/><text fill="#000000" font-family="sans-serif" font-size="13" lengthAdjust="spacing" textLength="7" x="184.5734" y="325.7565">1</text><text fill="#000000" font-family="sans-serif" font-size="13" lengthAdjust="spacing" textLength="7" x="184.6172" y="354.1216">1</text></g><!--link Repositories to AuthenticationRepository--><g id="link_Repositories_AuthenticationRepository"><path codeLine="61" d="M296.2,245 C314.42,245 327.67,245 327.67,245 C327.67,245 362.45,245 396.79,245 " fill="none" id="Repositories-to-AuthenticationRepository" style="stroke:#181818;stroke-width:1.0;"/><polygon fill="#181818" points="401.85,245,392.85,241,396.85,245,392.85,249,401.85,245" style="stroke:#181818;stroke-width:1.0;"/><text fill="#000000" font-family="sans-serif" font-size="13" lengthAdjust="spacing" textLength="7" x="304.1092" y="241.9045">1</text><text fill="#000000" font-family="sans-serif" font-size="13" lengthAdjust="spacing" textLength="7" x="387.0121" y="242.1971">1</text></g><!--link PersonRepository to Person--><g id="link_PersonRepository_Person"><path codeLine="63" d="M192,501.06 C192,518.52 192,537.7 192,556.43 " fill="none" id="PersonRepository-to-Person" style="stroke:#181818;stroke-width:1.0;"/><polygon fill="#181818" points="192,561.7,196,552.7,192,556.7,188,552.7,192,561.7" style="stroke:#181818;stroke-width:1.0;"/><text fill="#000000" font-family="sans-serif" font-size="13" lengthAdjust="spacing" textLength="5" x="186.8008" y="551.0222">*</text></g><!--link Person to Location--><g id="link_Person_Location"><path codeLine="64" d="M192,751.1 C192,776.36 192,802.58 192,823.9 " fill="none" id="Person-to-Location" style="stroke:#181818;stroke-width:1.0;"/><polygon fill="#181818" points="192,828.93,196,819.93,192,823.93,188,819.93,192,828.93" style="stroke:#181818;stroke-width:1.0;"/><text fill="#000000" font-family="sans-serif" font-size="13" lengthAdjust="spacing" textLength="69" x="193" y="795.4951">hasAddress</text><text fill="#000000" font-family="sans-serif" font-size="13" lengthAdjust="spacing" textLength="7" x="184.4203" y="818.2261">1</text></g><!--link AuthenticationRepository to AuthFacade--><g id="link_AuthenticationRepository_AuthFacade"><path codeLine="65" d="M600.74,278.4 C602.48,310.8 605.16,360.6 606.99,394.65 " fill="none" id="AuthenticationRepository-to-AuthFacade" style="stroke:#181818;stroke-width:1.0;"/><polygon fill="#181818" points="607.28,399.97,610.8125,390.7764,607.0232,394.9766,602.823,391.1873,607.28,399.97" style="stroke:#181818;stroke-width:1.0;"/><text fill="#000000" font-family="sans-serif" font-size="13" lengthAdjust="spacing" textLength="7" x="599.2034" y="389.0792">1</text></g><!--SRC=[nLHDQnin4BthLmovn6diq5vxC9X0mH12i2czzA98arqHhMQHnaqtfV-zi-lifxs7GA07OslUp9itJnfVfcSNIXrr0GK5Cdca0e7Z0LMFbDeywmptN7c4Y8ProFmm8UNQqeiB6JnfduQ8Tm6vAX5AybLzK9TdG8fCQb1bl4vfmnpTuu5nQoZitIl2PwKQ17QOkSGOloVvRDKVfVwUGMufS2JlCKh6jGZleKNG1Ivbi9HAQNwhexq_58yOby3wDuJZxvy1iD3ERwoDc9BavnImJQoBNoZQ9IIEY7nVKqg9SLmjmKglw0pNg6RfzUfAGnQlEgcR0-SOs1dDZi8EIqgEALQDM6rjhVE7utn77ezwHsAwziOxeQcpUku7Z8c2CAtseaBkfQxl3gTZTv1CFuaCc_OClH5Ar1xRVOIfxxDoCk_4GnDHql-NjkOEtvgNpLST-wMzixsg5XY-YM_QQ8iVyGewFnmcuOFLABAuKd0D6V8sYFPWi0jCtUo0kIUxw7lUqH5izBU7nS2wgN5YvUc6A3LUSRZn-CJhkVK-7uQRzMXW-2h_0GD7vgfMgpLSVBauVLIp1UlvPLOZ1JNjFFlvn7dgAGL08_rJI_wM0Er0xNM84RbExKxFyNTb_QFy1m00]--></g></svg>