<?xml version="1.0" encoding="UTF-8" standalone="no"?><svg xmlns="http://www.w3.org/2000/svg" xmlns:xlink="http://www.w3.org/1999/xlink" contentStyleType="text/css" height="1261px" preserveAspectRatio="none" style="width:2549px;height:1261px;background:#FFFFFF;" version="1.1" viewBox="0 0 2549 1261" width="2549px" zoomAndPan="magnify"><defs/><g><rect fill="#FFFFFF" height="1068.7813" style="stroke:#181818;stroke-width:1.0;" width="10" x="75" y="92.6094"/><rect fill="#FFFFFF" height="89.3125" style="stroke:#181818;stroke-width:1.0;" width="10" x="482" y="114.9609"/><rect fill="#FFFFFF" height="30.3516" style="stroke:#181818;stroke-width:1.0;" width="10" x="482" y="250.9766"/><rect fill="#FFFFFF" height="37.3516" style="stroke:#181818;stroke-width:1.0;" width="10" x="482" y="337.0313"/><rect fill="#FFFFFF" height="756.6563" style="stroke:#181818;stroke-width:1.0;" width="10" x="482" y="404.7344"/><rect fill="#FFFFFF" height="663.25" style="stroke:#181818;stroke-width:1.0;" width="10" x="835" y="467.7891"/><rect fill="#FFFFFF" height="30.3516" style="stroke:#181818;stroke-width:1.0;" width="10" x="1081.5" y="498.1406"/><rect fill="#FFFFFF" height="30.3516" style="stroke:#181818;stroke-width:1.0;" width="10" x="1081.5" y="948.9297"/><rect fill="#FFFFFF" height="327.0313" style="stroke:#181818;stroke-width:1.0;" width="10" x="1325.5" y="591.5469"/><rect fill="#FFFFFF" height="128.0547" style="stroke:#181818;stroke-width:1.0;" width="10" x="1330.5" y="753.1719"/><rect fill="#FFFFFF" height="41.3516" style="stroke:#181818;stroke-width:1.0;" width="10" x="1335.5" y="796.5234"/><rect fill="#FFFFFF" height="36.7031" style="stroke:#181818;stroke-width:1.0;" width="10" x="1683" y="664.6016"/><rect fill="#FFFFFF" height="160.7578" style="stroke:#181818;stroke-width:1.0;" width="10" x="2092.5" y="1009.6328"/><rect fill="#FFFFFF" height="30.3516" style="stroke:#181818;stroke-width:1.0;" width="10" x="2490.5" y="1039.9844"/><rect fill="none" height="48.7031" style="stroke:#000000;stroke-width:1.5;" width="543" x="10" y="296.3281"/><line style="stroke:#181818;stroke-width:0.5;stroke-dasharray:5.0,5.0;" x1="80" x2="80" y1="82.6094" y2="1179.3906"/><line style="stroke:#181818;stroke-width:0.5;stroke-dasharray:5.0,5.0;" x1="487" x2="487" y1="82.6094" y2="1179.3906"/><line style="stroke:#181818;stroke-width:0.5;stroke-dasharray:5.0,5.0;" x1="840" x2="840" y1="154.2656" y2="1179.3906"/><line style="stroke:#181818;stroke-width:0.5;stroke-dasharray:5.0,5.0;" x1="979" x2="979" y1="82.6094" y2="1179.3906"/><line style="stroke:#181818;stroke-width:0.5;stroke-dasharray:5.0,5.0;" x1="1086" x2="1086" y1="82.6094" y2="1179.3906"/><line style="stroke:#181818;stroke-width:0.5;stroke-dasharray:5.0,5.0;" x1="1200" x2="1200" y1="82.6094" y2="1179.3906"/><line style="stroke:#181818;stroke-width:0.5;stroke-dasharray:5.0,5.0;" x1="1330" x2="1330" y1="82.6094" y2="1179.3906"/><line style="stroke:#181818;stroke-width:0.5;stroke-dasharray:5.0,5.0;" x1="1687.5" x2="1687.5" y1="641.0742" y2="1179.3906"/><line style="stroke:#181818;stroke-width:0.5;stroke-dasharray:5.0,5.0;" x1="1964" x2="1964" y1="702.7109" y2="1179.3906"/><line style="stroke:#181818;stroke-width:0.5;stroke-dasharray:5.0,5.0;" x1="2097" x2="2097" y1="82.6094" y2="1179.3906"/><line style="stroke:#181818;stroke-width:0.5;stroke-dasharray:5.0,5.0;" x1="2495" x2="2495" y1="82.6094" y2="1179.3906"/><text fill="#000000" font-family="sans-serif" font-size="14" lengthAdjust="spacing" textLength="114" x="20" y="79.5332">Unregistered User</text><ellipse cx="80" cy="13.5" fill="#E3E3E3" rx="8" ry="8" style="stroke:#181818;stroke-width:0.5;"/><path d="M80,21.5 L80,48.5 M67,29.5 L93,29.5 M80,48.5 L67,63.5 M80,48.5 L93,63.5 " fill="none" style="stroke:#181818;stroke-width:0.5;"/><text fill="#000000" font-family="sans-serif" font-size="14" lengthAdjust="spacing" textLength="114" x="20" y="1192.9238">Unregistered User</text><ellipse cx="80" cy="1204.5" fill="#E3E3E3" rx="8" ry="8" style="stroke:#181818;stroke-width:0.5;"/><path d="M80,1212.5 L80,1239.5 M67,1220.5 L93,1220.5 M80,1239.5 L67,1254.5 M80,1239.5 L93,1254.5 " fill="none" style="stroke:#181818;stroke-width:0.5;"/><rect fill="#E3E3E3" height="31.6094" rx="2.5" ry="2.5" style="stroke:#181818;stroke-width:0.5;" width="112" x="431" y="50"/><text fill="#000000" font-family="sans-serif" font-size="14" lengthAdjust="spacing" textLength="98" x="438" y="71.5332">:RegisterUserUI</text><rect fill="#E3E3E3" height="31.6094" rx="2.5" ry="2.5" style="stroke:#181818;stroke-width:0.5;" width="112" x="431" y="1178.3906"/><text fill="#000000" font-family="sans-serif" font-size="14" lengthAdjust="spacing" textLength="98" x="438" y="1199.9238">:RegisterUserUI</text><rect fill="#E3E3E3" height="31.6094" rx="2.5" ry="2.5" style="stroke:#181818;stroke-width:0.5;" width="162" x="759" y="1178.3906"/><text fill="#000000" font-family="sans-serif" font-size="14" lengthAdjust="spacing" textLength="148" x="766" y="1199.9238">:RegisterUserController</text><rect fill="#E3E3E3" height="31.6094" rx="2.5" ry="2.5" style="stroke:#181818;stroke-width:0.5;" width="97" x="931" y="50"/><text fill="#000000" font-family="sans-serif" font-size="14" lengthAdjust="spacing" textLength="83" x="938" y="71.5332">:Repositories</text><rect fill="#E3E3E3" height="31.6094" rx="2.5" ry="2.5" style="stroke:#181818;stroke-width:0.5;" width="97" x="931" y="1178.3906"/><text fill="#000000" font-family="sans-serif" font-size="14" lengthAdjust="spacing" textLength="83" x="938" y="1199.9238">:Repositories</text><rect fill="#E3E3E3" height="49.2188" rx="2.5" ry="2.5" style="stroke:#181818;stroke-width:0.5;" width="97" x="1038" y="32.3906"/><text fill="#000000" font-family="sans-serif" font-size="14" lengthAdjust="spacing" textLength="74" x="1049.5" y="53.9238">repositories</text><text fill="#000000" font-family="sans-serif" font-size="14" lengthAdjust="spacing" textLength="83" x="1045" y="71.5332">:Repositories</text><rect fill="#E3E3E3" height="49.2188" rx="2.5" ry="2.5" style="stroke:#181818;stroke-width:0.5;" width="97" x="1038" y="1178.3906"/><text fill="#000000" font-family="sans-serif" font-size="14" lengthAdjust="spacing" textLength="74" x="1049.5" y="1199.9238">repositories</text><text fill="#000000" font-family="sans-serif" font-size="14" lengthAdjust="spacing" textLength="83" x="1045" y="1217.5332">:Repositories</text><rect fill="#E3E3E3" height="49.2188" rx="2.5" ry="2.5" style="stroke:#181818;stroke-width:0.5;" width="110" x="1145" y="32.3906"/><text fill="#000000" font-family="sans-serif" font-size="14" lengthAdjust="spacing" textLength="92" x="1154" y="53.9238">roleRepository</text><text fill="#000000" font-family="sans-serif" font-size="14" lengthAdjust="spacing" textLength="96" x="1152" y="71.5332">:roleRepository</text><rect fill="#E3E3E3" height="49.2188" rx="2.5" ry="2.5" style="stroke:#181818;stroke-width:0.5;" width="110" x="1145" y="1178.3906"/><text fill="#000000" font-family="sans-serif" font-size="14" lengthAdjust="spacing" textLength="92" x="1154" y="1199.9238">roleRepository</text><text fill="#000000" font-family="sans-serif" font-size="14" lengthAdjust="spacing" textLength="96" x="1152" y="1217.5332">:roleRepository</text><rect fill="#E3E3E3" height="49.2188" rx="2.5" ry="2.5" style="stroke:#181818;stroke-width:0.5;" width="131" x="1265" y="32.3906"/><text fill="#000000" font-family="sans-serif" font-size="14" lengthAdjust="spacing" textLength="112" x="1274.5" y="53.9238">personRepository</text><text fill="#000000" font-family="sans-serif" font-size="14" lengthAdjust="spacing" textLength="117" x="1272" y="71.5332">:PersonRepository</text><rect fill="#E3E3E3" height="49.2188" rx="2.5" ry="2.5" style="stroke:#181818;stroke-width:0.5;" width="131" x="1265" y="1178.3906"/><text fill="#000000" font-family="sans-serif" font-size="14" lengthAdjust="spacing" textLength="112" x="1274.5" y="1199.9238">personRepository</text><text fill="#000000" font-family="sans-serif" font-size="14" lengthAdjust="spacing" textLength="117" x="1272" y="1217.5332">:PersonRepository</text><rect fill="#E3E3E3" height="49.2188" rx="2.5" ry="2.5" style="stroke:#181818;stroke-width:0.5;" width="63" x="1656.5" y="1178.3906"/><text fill="#000000" font-family="sans-serif" font-size="14" lengthAdjust="spacing" textLength="44" x="1666" y="1199.9238">person</text><text fill="#000000" font-family="sans-serif" font-size="14" lengthAdjust="spacing" textLength="49" x="1663.5" y="1217.5332">:Person</text><rect fill="#E3E3E3" height="49.2188" rx="2.5" ry="2.5" style="stroke:#181818;stroke-width:0.5;" width="72" x="1928" y="1178.3906"/><text fill="#000000" font-family="sans-serif" font-size="14" lengthAdjust="spacing" textLength="49" x="1939.5" y="1199.9238">location</text><text fill="#000000" font-family="sans-serif" font-size="14" lengthAdjust="spacing" textLength="58" x="1935" y="1217.5332">:Location</text><rect fill="#E3E3E3" height="49.2188" rx="2.5" ry="2.5" style="stroke:#181818;stroke-width:0.5;" width="175" x="2010" y="32.3906"/><text fill="#000000" font-family="sans-serif" font-size="14" lengthAdjust="spacing" textLength="157" x="2019" y="53.9238">authenticationRepository</text><text fill="#000000" font-family="sans-serif" font-size="14" lengthAdjust="spacing" textLength="161" x="2017" y="71.5332">:authenticationRepository</text><rect fill="#E3E3E3" height="49.2188" rx="2.5" ry="2.5" style="stroke:#181818;stroke-width:0.5;" width="175" x="2010" y="1178.3906"/><text fill="#000000" font-family="sans-serif" font-size="14" lengthAdjust="spacing" textLength="157" x="2019" y="1199.9238">authenticationRepository</text><text fill="#000000" font-family="sans-serif" font-size="14" lengthAdjust="spacing" textLength="161" x="2017" y="1217.5332">:authenticationRepository</text><rect fill="#E3E3E3" height="49.2188" rx="2.5" ry="2.5" style="stroke:#181818;stroke-width:0.5;" width="95" x="2448" y="32.3906"/><text fill="#000000" font-family="sans-serif" font-size="14" lengthAdjust="spacing" textLength="76" x="2457.5" y="53.9238">authFacade</text><text fill="#000000" font-family="sans-serif" font-size="14" lengthAdjust="spacing" textLength="81" x="2455" y="71.5332">:AuthFacade</text><rect fill="#E3E3E3" height="49.2188" rx="2.5" ry="2.5" style="stroke:#181818;stroke-width:0.5;" width="95" x="2448" y="1178.3906"/><text fill="#000000" font-family="sans-serif" font-size="14" lengthAdjust="spacing" textLength="76" x="2457.5" y="1199.9238">authFacade</text><text fill="#000000" font-family="sans-serif" font-size="14" lengthAdjust="spacing" textLength="81" x="2455" y="1217.5332">:AuthFacade</text><rect fill="#FFFFFF" height="1068.7813" style="stroke:#181818;stroke-width:1.0;" width="10" x="75" y="92.6094"/><rect fill="#FFFFFF" height="89.3125" style="stroke:#181818;stroke-width:1.0;" width="10" x="482" y="114.9609"/><rect fill="#FFFFFF" height="30.3516" style="stroke:#181818;stroke-width:1.0;" width="10" x="482" y="250.9766"/><rect fill="#FFFFFF" height="37.3516" style="stroke:#181818;stroke-width:1.0;" width="10" x="482" y="337.0313"/><rect fill="#FFFFFF" height="756.6563" style="stroke:#181818;stroke-width:1.0;" width="10" x="482" y="404.7344"/><rect fill="#FFFFFF" height="663.25" style="stroke:#181818;stroke-width:1.0;" width="10" x="835" y="467.7891"/><rect fill="#FFFFFF" height="30.3516" style="stroke:#181818;stroke-width:1.0;" width="10" x="1081.5" y="498.1406"/><rect fill="#FFFFFF" height="30.3516" style="stroke:#181818;stroke-width:1.0;" width="10" x="1081.5" y="948.9297"/><rect fill="#FFFFFF" height="327.0313" style="stroke:#181818;stroke-width:1.0;" width="10" x="1325.5" y="591.5469"/><rect fill="#FFFFFF" height="128.0547" style="stroke:#181818;stroke-width:1.0;" width="10" x="1330.5" y="753.1719"/><rect fill="#FFFFFF" height="41.3516" style="stroke:#181818;stroke-width:1.0;" width="10" x="1335.5" y="796.5234"/><rect fill="#FFFFFF" height="36.7031" style="stroke:#181818;stroke-width:1.0;" width="10" x="1683" y="664.6016"/><rect fill="#FFFFFF" height="160.7578" style="stroke:#181818;stroke-width:1.0;" width="10" x="2092.5" y="1009.6328"/><rect fill="#FFFFFF" height="30.3516" style="stroke:#181818;stroke-width:1.0;" width="10" x="2490.5" y="1039.9844"/><polygon fill="#181818" points="470,110.9609,480,114.9609,470,118.9609,474,114.9609" style="stroke:#181818;stroke-width:1.0;"/><line style="stroke:#181818;stroke-width:1.0;" x1="85" x2="476" y1="114.9609" y2="114.9609"/><text fill="#000000" font-family="sans-serif" font-size="13" font-weight="bold" lengthAdjust="spacing" textLength="7" x="92" y="110.1045">1</text><text fill="#000000" font-family="sans-serif" font-size="13" lengthAdjust="spacing" textLength="349" x="103" y="110.1045">asks to register in the system to buy,sell and rent properties</text><polygon fill="#181818" points="747,141.3125,757,145.3125,747,149.3125,751,145.3125" style="stroke:#181818;stroke-width:1.0;"/><line style="stroke:#181818;stroke-width:1.0;" x1="492" x2="753" y1="145.3125" y2="145.3125"/><text fill="#000000" font-family="sans-serif" font-size="13" font-weight="bold" lengthAdjust="spacing" textLength="7" x="499" y="140.4561">2</text><text fill="#000000" font-family="sans-serif" font-size="13" lengthAdjust="spacing" textLength="36" x="510" y="140.4561">create</text><rect fill="#E3E3E3" height="31.6094" rx="2.5" ry="2.5" style="stroke:#181818;stroke-width:0.5;" width="162" x="759" y="122.9609"/><text fill="#000000" font-family="sans-serif" font-size="14" lengthAdjust="spacing" textLength="148" x="766" y="144.4941">:RegisterUserController</text><polygon fill="#181818" points="96,200.2734,86,204.2734,96,208.2734,92,204.2734" style="stroke:#181818;stroke-width:1.0;"/><line style="stroke:#181818;stroke-width:1.0;stroke-dasharray:2.0,2.0;" x1="90" x2="486" y1="204.2734" y2="204.2734"/><text fill="#000000" font-family="sans-serif" font-size="13" font-weight="bold" lengthAdjust="spacing" textLength="7" x="102" y="191.2412">3</text><text fill="#000000" font-family="sans-serif" font-size="13" lengthAdjust="spacing" textLength="326" x="113" y="183.0654">requests data (name, passportCardNumber, tax number,</text><text fill="#000000" font-family="sans-serif" font-size="13" lengthAdjust="spacing" textLength="234" x="117" y="199.417">emailAddress, phoneNumber, password)</text><polygon fill="#181818" points="470,246.9766,480,250.9766,470,254.9766,474,250.9766" style="stroke:#181818;stroke-width:1.0;"/><line style="stroke:#181818;stroke-width:1.0;" x1="85" x2="476" y1="250.9766" y2="250.9766"/><text fill="#000000" font-family="sans-serif" font-size="13" font-weight="bold" lengthAdjust="spacing" textLength="7" x="92" y="237.9443">4</text><text fill="#000000" font-family="sans-serif" font-size="13" lengthAdjust="spacing" textLength="363" x="103" y="229.7686">types requested data (name, passportCardNumber,taxNumber,</text><text fill="#000000" font-family="sans-serif" font-size="13" lengthAdjust="spacing" textLength="234" x="107" y="246.1201">emailAddress, phoneNumber, password)</text><polygon fill="#181818" points="96,277.3281,86,281.3281,96,285.3281,92,281.3281" style="stroke:#181818;stroke-width:1.0;"/><line style="stroke:#181818;stroke-width:1.0;stroke-dasharray:2.0,2.0;" x1="90" x2="486" y1="281.3281" y2="281.3281"/><text fill="#000000" font-family="sans-serif" font-size="13" font-weight="bold" lengthAdjust="spacing" textLength="7" x="102" y="276.4717">5</text><text fill="#000000" font-family="sans-serif" font-size="13" lengthAdjust="spacing" textLength="324" x="113" y="276.4717">requests data (streetName, city, district, state, zipcode)</text><path d="M10,296.3281 L75,296.3281 L75,304.6797 L65,314.6797 L10,314.6797 L10,296.3281 " fill="#EEEEEE" style="stroke:#000000;stroke-width:1.5;"/><rect fill="none" height="48.7031" style="stroke:#000000;stroke-width:1.5;" width="543" x="10" y="296.3281"/><text fill="#000000" font-family="sans-serif" font-size="13" font-weight="bold" lengthAdjust="spacing" textLength="20" x="25" y="310.8232">opt</text><polygon fill="#181818" points="470,333.0313,480,337.0313,470,341.0313,474,337.0313" style="stroke:#181818;stroke-width:1.0;"/><line style="stroke:#181818;stroke-width:1.0;" x1="85" x2="476" y1="337.0313" y2="337.0313"/><text fill="#000000" font-family="sans-serif" font-size="13" font-weight="bold" lengthAdjust="spacing" textLength="7" x="92" y="332.1748">6</text><text fill="#000000" font-family="sans-serif" font-size="13" lengthAdjust="spacing" textLength="367" x="103" y="332.1748">types requested data (streetName, city, district, state, zipcode)</text><polygon fill="#181818" points="96,370.3828,86,374.3828,96,378.3828,92,374.3828" style="stroke:#181818;stroke-width:1.0;"/><line style="stroke:#181818;stroke-width:1.0;stroke-dasharray:2.0,2.0;" x1="90" x2="486" y1="374.3828" y2="374.3828"/><text fill="#000000" font-family="sans-serif" font-size="13" font-weight="bold" lengthAdjust="spacing" textLength="7" x="102" y="369.5264">7</text><text fill="#000000" font-family="sans-serif" font-size="13" lengthAdjust="spacing" textLength="236" x="113" y="369.5264">shows all data and asks for confirmation.</text><polygon fill="#181818" points="470,400.7344,480,404.7344,470,408.7344,474,404.7344" style="stroke:#181818;stroke-width:1.0;"/><line style="stroke:#181818;stroke-width:1.0;" x1="85" x2="476" y1="404.7344" y2="404.7344"/><text fill="#000000" font-family="sans-serif" font-size="13" font-weight="bold" lengthAdjust="spacing" textLength="7" x="92" y="399.8779">8</text><text fill="#000000" font-family="sans-serif" font-size="13" lengthAdjust="spacing" textLength="75" x="103" y="399.8779">submits data</text><polygon fill="#181818" points="823,463.7891,833,467.7891,823,471.7891,827,467.7891" style="stroke:#181818;stroke-width:1.0;"/><line style="stroke:#181818;stroke-width:1.0;" x1="492" x2="829" y1="467.7891" y2="467.7891"/><text fill="#000000" font-family="sans-serif" font-size="13" font-weight="bold" lengthAdjust="spacing" textLength="7" x="499" y="446.5811">9</text><text fill="#000000" font-family="sans-serif" font-size="13" lengthAdjust="spacing" textLength="313" x="510" y="430.2295">registerUser(name, passportCardNumber, tax number,</text><text fill="#000000" font-family="sans-serif" font-size="13" lengthAdjust="spacing" textLength="309" x="514" y="446.5811">emailAddress, phoneNumber, password, streetName,</text><text fill="#000000" font-family="sans-serif" font-size="13" lengthAdjust="spacing" textLength="162" x="514" y="462.9326">city, district, state, zipcode)</text><polygon fill="#181818" points="1069.5,494.1406,1079.5,498.1406,1069.5,502.1406,1073.5,498.1406" style="stroke:#181818;stroke-width:1.0;"/><line style="stroke:#181818;stroke-width:1.0;" x1="845" x2="1075.5" y1="498.1406" y2="498.1406"/><text fill="#000000" font-family="sans-serif" font-size="13" font-weight="bold" lengthAdjust="spacing" textLength="14" x="852" y="493.2842">10</text><text fill="#000000" font-family="sans-serif" font-size="13" lengthAdjust="spacing" textLength="129" x="870" y="493.2842">getPersonRepository()</text><polygon fill="#181818" points="856,524.4922,846,528.4922,856,532.4922,852,528.4922" style="stroke:#181818;stroke-width:1.0;"/><line style="stroke:#181818;stroke-width:1.0;stroke-dasharray:2.0,2.0;" x1="850" x2="1085.5" y1="528.4922" y2="528.4922"/><text fill="#000000" font-family="sans-serif" font-size="13" font-weight="bold" lengthAdjust="spacing" textLength="14" x="862" y="523.6357">11</text><text fill="#000000" font-family="sans-serif" font-size="13" lengthAdjust="spacing" textLength="101" x="880" y="523.6357">personRepository</text><polygon fill="#181818" points="1313.5,587.5469,1323.5,591.5469,1313.5,595.5469,1317.5,591.5469" style="stroke:#181818;stroke-width:1.0;"/><line style="stroke:#181818;stroke-width:1.0;" x1="845" x2="1319.5" y1="591.5469" y2="591.5469"/><text fill="#000000" font-family="sans-serif" font-size="13" font-weight="bold" lengthAdjust="spacing" textLength="14" x="852" y="570.3389">12</text><text fill="#000000" font-family="sans-serif" font-size="13" lengthAdjust="spacing" textLength="320" x="870" y="553.9873">createPerson(name, passportCardNumber, tax number,</text><text fill="#000000" font-family="sans-serif" font-size="13" lengthAdjust="spacing" textLength="246" x="874" y="570.3389">emailAddress, phoneNumber, streetName,</text><text fill="#000000" font-family="sans-serif" font-size="13" lengthAdjust="spacing" textLength="223" x="874" y="586.6904">city, district, state, zipcode,clientRole)</text><polygon fill="#181818" points="1644.5,650.6016,1654.5,654.6016,1644.5,658.6016,1648.5,654.6016" style="stroke:#181818;stroke-width:1.0;"/><line style="stroke:#181818;stroke-width:1.0;" x1="1335.5" x2="1650.5" y1="654.6016" y2="654.6016"/><text fill="#000000" font-family="sans-serif" font-size="13" font-weight="bold" lengthAdjust="spacing" textLength="14" x="1342.5" y="633.3936">13</text><text fill="#000000" font-family="sans-serif" font-size="13" lengthAdjust="spacing" textLength="279" x="1360.5" y="617.042">create(name, passportCardNumber, tax number,</text><text fill="#000000" font-family="sans-serif" font-size="13" lengthAdjust="spacing" textLength="246" x="1364.5" y="633.3936">emailAddress, phoneNumber, streetName,</text><text fill="#000000" font-family="sans-serif" font-size="13" lengthAdjust="spacing" textLength="223" x="1364.5" y="649.7451">city, district, state, zipcode,clientRole)</text><rect fill="#E3E3E3" height="49.2188" rx="2.5" ry="2.5" style="stroke:#181818;stroke-width:0.5;" width="63" x="1656.5" y="602.3828"/><text fill="#000000" font-family="sans-serif" font-size="14" lengthAdjust="spacing" textLength="44" x="1666" y="623.916">person</text><text fill="#000000" font-family="sans-serif" font-size="14" lengthAdjust="spacing" textLength="49" x="1663.5" y="641.5254">:Person</text><polygon fill="#181818" points="1916,697.3047,1926,701.3047,1916,705.3047,1920,701.3047" style="stroke:#181818;stroke-width:1.0;"/><line style="stroke:#181818;stroke-width:1.0;" x1="1688" x2="1922" y1="701.3047" y2="701.3047"/><text fill="#000000" font-family="sans-serif" font-size="13" font-weight="bold" lengthAdjust="spacing" textLength="14" x="1695" y="688.2725">14</text><text fill="#000000" font-family="sans-serif" font-size="13" lengthAdjust="spacing" textLength="189" x="1713" y="680.0967">createLocation(streetName, city,</text><text fill="#000000" font-family="sans-serif" font-size="13" lengthAdjust="spacing" textLength="133" x="1713" y="696.4482">district, state, zipcode)</text><rect fill="#E3E3E3" height="49.2188" rx="2.5" ry="2.5" style="stroke:#181818;stroke-width:0.5;" width="72" x="1928" y="662.6016"/><text fill="#000000" font-family="sans-serif" font-size="14" lengthAdjust="spacing" textLength="49" x="1939.5" y="684.1348">location</text><text fill="#000000" font-family="sans-serif" font-size="14" lengthAdjust="spacing" textLength="58" x="1935" y="701.7441">:Location</text><line style="stroke:#181818;stroke-width:1.0;" x1="1335.5" x2="1382.5" y1="740.1719" y2="740.1719"/><line style="stroke:#181818;stroke-width:1.0;" x1="1382.5" x2="1382.5" y1="740.1719" y2="753.1719"/><line style="stroke:#181818;stroke-width:1.0;" x1="1341.5" x2="1382.5" y1="753.1719" y2="753.1719"/><polygon fill="#181818" points="1351.5,749.1719,1341.5,753.1719,1351.5,757.1719,1347.5,753.1719" style="stroke:#181818;stroke-width:1.0;"/><text fill="#000000" font-family="sans-serif" font-size="13" font-weight="bold" lengthAdjust="spacing" textLength="14" x="1347.5" y="735.3154">15</text><text fill="#000000" font-family="sans-serif" font-size="13" lengthAdjust="spacing" textLength="109" x="1365.5" y="735.3154">addPerson(person)</text><line style="stroke:#181818;stroke-width:1.0;" x1="1340.5" x2="1387.5" y1="783.5234" y2="783.5234"/><line style="stroke:#181818;stroke-width:1.0;" x1="1387.5" x2="1387.5" y1="783.5234" y2="796.5234"/><line style="stroke:#181818;stroke-width:1.0;" x1="1346.5" x2="1387.5" y1="796.5234" y2="796.5234"/><polygon fill="#181818" points="1356.5,792.5234,1346.5,796.5234,1356.5,800.5234,1352.5,796.5234" style="stroke:#181818;stroke-width:1.0;"/><text fill="#000000" font-family="sans-serif" font-size="13" font-weight="bold" lengthAdjust="spacing" textLength="14" x="1352.5" y="778.667">16</text><text fill="#000000" font-family="sans-serif" font-size="13" lengthAdjust="spacing" textLength="131" x="1370.5" y="778.667">validatePerson(person)</text><line style="stroke:#181818;stroke-width:1.0;stroke-dasharray:2.0,2.0;" x1="1345.5" x2="1387.5" y1="836.875" y2="836.875"/><line style="stroke:#181818;stroke-width:1.0;stroke-dasharray:2.0,2.0;" x1="1387.5" x2="1387.5" y1="836.875" y2="849.875"/><line style="stroke:#181818;stroke-width:1.0;stroke-dasharray:2.0,2.0;" x1="1340.5" x2="1387.5" y1="849.875" y2="849.875"/><polygon fill="#181818" points="1350.5,845.875,1340.5,849.875,1350.5,853.875,1346.5,849.875" style="stroke:#181818;stroke-width:1.0;"/><text fill="#000000" font-family="sans-serif" font-size="13" font-weight="bold" lengthAdjust="spacing" textLength="14" x="1352.5" y="832.0186">17</text><text fill="#000000" font-family="sans-serif" font-size="13" lengthAdjust="spacing" textLength="4" x="1370.5" y="832.0186"> </text><line style="stroke:#181818;stroke-width:1.0;stroke-dasharray:2.0,2.0;" x1="1340.5" x2="1382.5" y1="880.2266" y2="880.2266"/><line style="stroke:#181818;stroke-width:1.0;stroke-dasharray:2.0,2.0;" x1="1382.5" x2="1382.5" y1="880.2266" y2="893.2266"/><line style="stroke:#181818;stroke-width:1.0;stroke-dasharray:2.0,2.0;" x1="1335.5" x2="1382.5" y1="893.2266" y2="893.2266"/><polygon fill="#181818" points="1345.5,889.2266,1335.5,893.2266,1345.5,897.2266,1341.5,893.2266" style="stroke:#181818;stroke-width:1.0;"/><text fill="#000000" font-family="sans-serif" font-size="13" font-weight="bold" lengthAdjust="spacing" textLength="14" x="1347.5" y="875.3701">18</text><text fill="#000000" font-family="sans-serif" font-size="13" lengthAdjust="spacing" textLength="4" x="1365.5" y="875.3701"> </text><polygon fill="#181818" points="856,914.5781,846,918.5781,856,922.5781,852,918.5781" style="stroke:#181818;stroke-width:1.0;"/><line style="stroke:#181818;stroke-width:1.0;stroke-dasharray:2.0,2.0;" x1="850" x2="1329.5" y1="918.5781" y2="918.5781"/><text fill="#000000" font-family="sans-serif" font-size="13" font-weight="bold" lengthAdjust="spacing" textLength="14" x="862" y="913.7217">19</text><text fill="#000000" font-family="sans-serif" font-size="13" lengthAdjust="spacing" textLength="39" x="880" y="913.7217">person</text><polygon fill="#181818" points="1069.5,944.9297,1079.5,948.9297,1069.5,952.9297,1073.5,948.9297" style="stroke:#181818;stroke-width:1.0;"/><line style="stroke:#181818;stroke-width:1.0;" x1="845" x2="1075.5" y1="948.9297" y2="948.9297"/><text fill="#000000" font-family="sans-serif" font-size="13" font-weight="bold" lengthAdjust="spacing" textLength="14" x="852" y="944.0732">20</text><text fill="#000000" font-family="sans-serif" font-size="13" lengthAdjust="spacing" textLength="171" x="870" y="944.0732">getAuthenticationRepository()</text><polygon fill="#181818" points="856,975.2813,846,979.2813,856,983.2813,852,979.2813" style="stroke:#181818;stroke-width:1.0;"/><line style="stroke:#181818;stroke-width:1.0;stroke-dasharray:2.0,2.0;" x1="850" x2="1085.5" y1="979.2813" y2="979.2813"/><text fill="#000000" font-family="sans-serif" font-size="13" font-weight="bold" lengthAdjust="spacing" textLength="14" x="862" y="974.4248">21</text><text fill="#000000" font-family="sans-serif" font-size="13" lengthAdjust="spacing" textLength="143" x="880" y="974.4248">authenticationRepository</text><polygon fill="#181818" points="2080.5,1005.6328,2090.5,1009.6328,2080.5,1013.6328,2084.5,1009.6328" style="stroke:#181818;stroke-width:1.0;"/><line style="stroke:#181818;stroke-width:1.0;" x1="845" x2="2086.5" y1="1009.6328" y2="1009.6328"/><text fill="#000000" font-family="sans-serif" font-size="13" font-weight="bold" lengthAdjust="spacing" textLength="14" x="852" y="1004.7764">22</text><text fill="#000000" font-family="sans-serif" font-size="13" lengthAdjust="spacing" textLength="351" x="870" y="1004.7764">addUserWithRoles(name,emailAddress,password,clientRole)</text><polygon fill="#181818" points="2478.5,1035.9844,2488.5,1039.9844,2478.5,1043.9844,2482.5,1039.9844" style="stroke:#181818;stroke-width:1.0;"/><line style="stroke:#181818;stroke-width:1.0;" x1="2102.5" x2="2484.5" y1="1039.9844" y2="1039.9844"/><text fill="#000000" font-family="sans-serif" font-size="13" font-weight="bold" lengthAdjust="spacing" textLength="14" x="2109.5" y="1035.1279">23</text><text fill="#000000" font-family="sans-serif" font-size="13" lengthAdjust="spacing" textLength="351" x="2127.5" y="1035.1279">addUserWithRoles(name,emailAddress,password,clientRole)</text><polygon fill="#181818" points="2113.5,1066.3359,2103.5,1070.3359,2113.5,1074.3359,2109.5,1070.3359" style="stroke:#181818;stroke-width:1.0;"/><line style="stroke:#181818;stroke-width:1.0;stroke-dasharray:2.0,2.0;" x1="2107.5" x2="2494.5" y1="1070.3359" y2="1070.3359"/><text fill="#000000" font-family="sans-serif" font-size="13" font-weight="bold" lengthAdjust="spacing" textLength="14" x="2119.5" y="1065.4795">24</text><text fill="#000000" font-family="sans-serif" font-size="13" lengthAdjust="spacing" textLength="49" x="2137.5" y="1065.4795">success</text><polygon fill="#181818" points="856,1096.6875,846,1100.6875,856,1104.6875,852,1100.6875" style="stroke:#181818;stroke-width:1.0;"/><line style="stroke:#181818;stroke-width:1.0;stroke-dasharray:2.0,2.0;" x1="850" x2="2091.5" y1="1100.6875" y2="1100.6875"/><text fill="#000000" font-family="sans-serif" font-size="13" font-weight="bold" lengthAdjust="spacing" textLength="14" x="862" y="1095.8311">25</text><text fill="#000000" font-family="sans-serif" font-size="13" lengthAdjust="spacing" textLength="49" x="880" y="1095.8311">success</text><polygon fill="#181818" points="503,1127.0391,493,1131.0391,503,1135.0391,499,1131.0391" style="stroke:#181818;stroke-width:1.0;"/><line style="stroke:#181818;stroke-width:1.0;stroke-dasharray:2.0,2.0;" x1="497" x2="839" y1="1131.0391" y2="1131.0391"/><text fill="#000000" font-family="sans-serif" font-size="13" font-weight="bold" lengthAdjust="spacing" textLength="14" x="509" y="1126.1826">26</text><text fill="#000000" font-family="sans-serif" font-size="13" lengthAdjust="spacing" textLength="49" x="527" y="1126.1826">success</text><polygon fill="#181818" points="91,1157.3906,81,1161.3906,91,1165.3906,87,1161.3906" style="stroke:#181818;stroke-width:1.0;"/><line style="stroke:#181818;stroke-width:1.0;stroke-dasharray:2.0,2.0;" x1="85" x2="486" y1="1161.3906" y2="1161.3906"/><text fill="#000000" font-family="sans-serif" font-size="13" font-weight="bold" lengthAdjust="spacing" textLength="14" x="97" y="1156.5342">27</text><text fill="#000000" font-family="sans-serif" font-size="13" lengthAdjust="spacing" textLength="158" x="115" y="1156.5342">displays operation success</text><!--SRC=[nLPDR-8m4BtdLuouR1Ub-mCuh1JHLgt4qeg2zjABYGUmcjXPsxHbV_sEdU-4590gBITipvjvddapZdaLCcEQfP0ggUATLYc2rNiCJ7MIiVYLRV7P7X84ZR5bSfiq3SoESVKkv1OsB34O16nlbTodQzH1y6qdEC96ARjM7m6BhT8mMacDMs4iQkImCgX7m0n4Dxy2ycX5B38cBOmcYyBAcQmUlD7guHERgP9MgoGf74wNYrdFEbD640c1njjK6uTduUv5pDiGtK2yoBw3frcqx21KWhLRmhGtyh2jhJO-GssKR7buwcpbaMyNpu_pnUtJCNW5QfYsxH8LCokyvQpuwsrdZzDe-T2rffhkKDBQ6xR83HtbHLqjxtiK7UAEnOmZmQDgCO8ISHTDevlRW7wa6F76B7fr140_-WFNFqa8C27pLmDMGIad41A839W3hL9tijuVGeD90anoCgFecLQK8alry-wg0AGilq6EoRtJpdWyWLWZ7TOdTEG8JCZNdpqQQu0po-1AiXH3wXLZCgNjb6a-znqGWcKVa7T3-281KoQIY7EDnf3zJaai3HtuNMd-tGVZs6FMlBazP6XA4jH59rWGYVdb78xcPYW3ncf4E_SCOc4F8N2gYHQn3S5OyXB2Nv75YkFW1LLcpxpefS6QeTmQIGqkMlzMPgVU3J1IZ8_aPEDLjg715Ikv4JhrElznJfNCVfsA8aEdrEOpMi-ohrIKoqcLBu9Sb34_HVsMPqbitSWZjbkqtRbqrS7wuUYtFEQwlcfto7MpMIEhgEMuWx8hy-XVaQXBqXF6YQ0vuYQulsrDkPh7-OqhlXNvyRZY_hzPTsatEJl2vIlGe5o-4aUQxqMUtUlzSAqKqOB6EkT5RNEP76LS9VepJsyi4RoMIjFT1IxRwgiiUhSwLliZs7DnhLOvWUptPZJmB9_PerI50GUdMxLuzC5NqWsptyBkdFHCBlkMfgiXDQZGyXiY7w-5xo9C_gNmXO7AJuyoLhxE7uWyj1lhSKmUkuau1k_KiaGsqbMy5GC-w-dRUgMetRA47GouRnbVdo5Ixg49WYPB-f3w1m00]--></g></svg>