<?xml version="1.0" encoding="UTF-8" standalone="no"?><svg xmlns="http://www.w3.org/2000/svg" xmlns:xlink="http://www.w3.org/1999/xlink" contentStyleType="text/css" height="1440px" preserveAspectRatio="none" style="width:1708px;height:1440px;background:#FFFFFF;" version="1.1" viewBox="0 0 1708 1440" width="1708px" zoomAndPan="magnify"><defs/><g><rect fill="#FFFFFF" height="1205.3125" style="stroke:#181818;stroke-width:1.0;" width="10" x="366" y="162.9766"/><rect fill="#FFFFFF" height="1002.9844" style="stroke:#181818;stroke-width:1.0;" width="10" x="795.5" y="327.9531"/><rect fill="#FFFFFF" height="332.3281" style="stroke:#181818;stroke-width:1.0;" width="10" x="800.5" y="356.3047"/><rect fill="#FFFFFF" height="128.0547" style="stroke:#181818;stroke-width:1.0;" width="10" x="805.5" y="485.2266"/><rect fill="#FFFFFF" height="41.3516" style="stroke:#181818;stroke-width:1.0;" width="10" x="810.5" y="528.5781"/><rect fill="#FFFFFF" height="332.3281" style="stroke:#181818;stroke-width:1.0;" width="10" x="800.5" y="961.2578"/><rect fill="#FFFFFF" height="128.0547" style="stroke:#181818;stroke-width:1.0;" width="10" x="805.5" y="1090.1797"/><rect fill="#FFFFFF" height="41.3516" style="stroke:#181818;stroke-width:1.0;" width="10" x="810.5" y="1133.5313"/><rect fill="#FFFFFF" height="136.9219" style="stroke:#181818;stroke-width:1.0;" width="10" x="1224.5" y="760.9844"/><rect fill="#FFFFFF" height="41.3516" style="stroke:#181818;stroke-width:1.0;" width="10" x="1229.5" y="819.2031"/><rect fill="none" height="1170.9609" style="stroke:#000000;stroke-width:1.5;" width="1377" x="325.5" y="167.9766"/><rect fill="none" height="276.9766" style="stroke:#000000;stroke-width:1.5;" width="869.5" x="748" y="376.3047"/><rect fill="none" height="276.9766" style="stroke:#000000;stroke-width:1.5;" width="767.5" x="748" y="981.2578"/><line style="stroke:#181818;stroke-width:0.5;stroke-dasharray:5.0,5.0;" x1="370.5" x2="370.5" y1="55.2188" y2="1386.2891"/><line style="stroke:#181818;stroke-width:0.5;stroke-dasharray:5.0,5.0;" x1="800" x2="800" y1="296.25" y2="1386.2891"/><line style="stroke:#181818;stroke-width:0.5;stroke-dasharray:5.0,5.0;" x1="1229.5" x2="1229.5" y1="768.7422" y2="1386.2891"/><line style="stroke:#181818;stroke-width:0.5;stroke-dasharray:5.0,5.0;" x1="1434.5" x2="1434.5" y1="1039.7188" y2="1386.2891"/><line style="stroke:#181818;stroke-width:0.5;stroke-dasharray:5.0,5.0;" x1="1561.5" x2="1561.5" y1="434.7656" y2="1386.2891"/><line style="stroke:#181818;stroke-width:0.5;stroke-dasharray:5.0,5.0;" x1="1654.5" x2="1654.5" y1="226.4375" y2="1386.2891"/><rect fill="#E3E3E3" height="49.2188" rx="2.5" ry="2.5" style="stroke:#181818;stroke-width:0.5;" width="71" x="335.5" y="5"/><text fill="#000000" font-family="sans-serif" font-size="14" lengthAdjust="spacing" textLength="48" x="347" y="26.5332">request</text><text fill="#000000" font-family="sans-serif" font-size="14" lengthAdjust="spacing" textLength="57" x="342.5" y="44.1426">:Request</text><rect fill="#E3E3E3" height="49.2188" rx="2.5" ry="2.5" style="stroke:#181818;stroke-width:0.5;" width="71" x="335.5" y="1385.2891"/><text fill="#000000" font-family="sans-serif" font-size="14" lengthAdjust="spacing" textLength="48" x="347" y="1406.8223">request</text><text fill="#000000" font-family="sans-serif" font-size="14" lengthAdjust="spacing" textLength="57" x="342.5" y="1424.4316">:Request</text><rect fill="#E3E3E3" height="49.2188" rx="2.5" ry="2.5" style="stroke:#181818;stroke-width:0.5;" width="85" x="758" y="1385.2891"/><text fill="#000000" font-family="sans-serif" font-size="14" lengthAdjust="spacing" textLength="62" x="769.5" y="1406.8223">residence</text><text fill="#000000" font-family="sans-serif" font-size="14" lengthAdjust="spacing" textLength="71" x="765" y="1424.4316">:Residence</text><rect fill="#E3E3E3" height="49.2188" rx="2.5" ry="2.5" style="stroke:#181818;stroke-width:0.5;" width="72" x="1193.5" y="1385.2891"/><text fill="#000000" font-family="sans-serif" font-size="14" lengthAdjust="spacing" textLength="49" x="1205" y="1406.8223">location</text><text fill="#000000" font-family="sans-serif" font-size="14" lengthAdjust="spacing" textLength="58" x="1200.5" y="1424.4316">:Location</text><rect fill="#E3E3E3" height="49.2188" rx="2.5" ry="2.5" style="stroke:#181818;stroke-width:0.5;" width="142" x="1363.5" y="1385.2891"/><text fill="#000000" font-family="sans-serif" font-size="14" lengthAdjust="spacing" textLength="123" x="1373" y="1406.8223">availableEquipment</text><text fill="#000000" font-family="sans-serif" font-size="14" lengthAdjust="spacing" textLength="128" x="1370.5" y="1424.4316">:AvailableEquipment</text><rect fill="#E3E3E3" height="49.2188" rx="2.5" ry="2.5" style="stroke:#181818;stroke-width:0.5;" width="92" x="1515.5" y="1385.2891"/><text fill="#000000" font-family="sans-serif" font-size="14" lengthAdjust="spacing" textLength="73" x="1525" y="1406.8223">photograph</text><text fill="#000000" font-family="sans-serif" font-size="14" lengthAdjust="spacing" textLength="78" x="1522.5" y="1424.4316">:Photograph</text><rect fill="#E3E3E3" height="49.2188" rx="2.5" ry="2.5" style="stroke:#181818;stroke-width:0.5;" width="75" x="1617.5" y="1385.2891"/><text fill="#000000" font-family="sans-serif" font-size="14" lengthAdjust="spacing" textLength="56" x="1627" y="1406.8223">business</text><text fill="#000000" font-family="sans-serif" font-size="14" lengthAdjust="spacing" textLength="61" x="1624.5" y="1424.4316">:Business</text><rect fill="#FFFFFF" height="1205.3125" style="stroke:#181818;stroke-width:1.0;" width="10" x="366" y="162.9766"/><rect fill="#FFFFFF" height="1002.9844" style="stroke:#181818;stroke-width:1.0;" width="10" x="795.5" y="327.9531"/><rect fill="#FFFFFF" height="332.3281" style="stroke:#181818;stroke-width:1.0;" width="10" x="800.5" y="356.3047"/><rect fill="#FFFFFF" height="128.0547" style="stroke:#181818;stroke-width:1.0;" width="10" x="805.5" y="485.2266"/><rect fill="#FFFFFF" height="41.3516" style="stroke:#181818;stroke-width:1.0;" width="10" x="810.5" y="528.5781"/><rect fill="#FFFFFF" height="332.3281" style="stroke:#181818;stroke-width:1.0;" width="10" x="800.5" y="961.2578"/><rect fill="#FFFFFF" height="128.0547" style="stroke:#181818;stroke-width:1.0;" width="10" x="805.5" y="1090.1797"/><rect fill="#FFFFFF" height="41.3516" style="stroke:#181818;stroke-width:1.0;" width="10" x="810.5" y="1133.5313"/><rect fill="#FFFFFF" height="136.9219" style="stroke:#181818;stroke-width:1.0;" width="10" x="1224.5" y="760.9844"/><rect fill="#FFFFFF" height="41.3516" style="stroke:#181818;stroke-width:1.0;" width="10" x="1229.5" y="819.2031"/><polygon fill="#181818" points="359,148.9766,369,152.9766,359,156.9766,363,152.9766" style="stroke:#181818;stroke-width:1.0;"/><line style="stroke:#181818;stroke-width:1.0;" x1="0" x2="365" y1="152.9766" y2="152.9766"/><text fill="#000000" font-family="sans-serif" font-size="13" font-weight="bold" lengthAdjust="spacing" textLength="14" x="7" y="115.417">42</text><text fill="#000000" font-family="sans-serif" font-size="13" lengthAdjust="spacing" textLength="244" x="25" y="82.7139">createSaleRequest(propertyType, amount,</text><text fill="#000000" font-family="sans-serif" font-size="13" lengthAdjust="spacing" textLength="180" x="29" y="99.0654">area, streetName, city, district,</text><text fill="#000000" font-family="sans-serif" font-size="13" lengthAdjust="spacing" textLength="206" x="25" y="115.417">state, zipCode, distanceCityCenter,</text><text fill="#000000" font-family="sans-serif" font-size="13" lengthAdjust="spacing" textLength="216" x="25" y="131.7686">numberBedrooms,numberBathrooms,</text><text fill="#000000" font-family="sans-serif" font-size="13" lengthAdjust="spacing" textLength="329" x="25" y="148.1201">numberParkingSpace,availableEquipmentDescriptionList)</text><path d="M325.5,167.9766 L570.5,167.9766 L570.5,176.3281 L560.5,186.3281 L325.5,186.3281 L325.5,167.9766 " fill="#EEEEEE" style="stroke:#000000;stroke-width:1.5;"/><rect fill="none" height="1170.9609" style="stroke:#000000;stroke-width:1.5;" width="1377" x="325.5" y="167.9766"/><text fill="#000000" font-family="sans-serif" font-size="13" font-weight="bold" lengthAdjust="spacing" textLength="200" x="340.5" y="182.4717">Create Residence Sale Request</text><polygon fill="#181818" points="1605.5,204.6797,1615.5,208.6797,1605.5,212.6797,1609.5,208.6797" style="stroke:#181818;stroke-width:1.0;"/><line style="stroke:#181818;stroke-width:1.0;" x1="376" x2="1611.5" y1="208.6797" y2="208.6797"/><text fill="#000000" font-family="sans-serif" font-size="13" font-weight="bold" lengthAdjust="spacing" textLength="25" x="383" y="203.8232">42.1</text><text fill="#000000" font-family="sans-serif" font-size="13" lengthAdjust="spacing" textLength="141" x="412" y="203.8232">createBusiness(amount)</text><rect fill="#E3E3E3" height="49.2188" rx="2.5" ry="2.5" style="stroke:#181818;stroke-width:0.5;" width="75" x="1617.5" y="186.3281"/><text fill="#000000" font-family="sans-serif" font-size="14" lengthAdjust="spacing" textLength="56" x="1627" y="207.8613">business</text><text fill="#000000" font-family="sans-serif" font-size="14" lengthAdjust="spacing" textLength="61" x="1624.5" y="225.4707">:Business</text><polygon fill="#181818" points="746,313.9531,756,317.9531,746,321.9531,750,317.9531" style="stroke:#181818;stroke-width:1.0;"/><line style="stroke:#181818;stroke-width:1.0;" x1="376" x2="752" y1="317.9531" y2="317.9531"/><text fill="#000000" font-family="sans-serif" font-size="13" font-weight="bold" lengthAdjust="spacing" textLength="25" x="383" y="288.5693">42.2</text><text fill="#000000" font-family="sans-serif" font-size="13" lengthAdjust="spacing" textLength="281" x="412" y="264.042">createResidence(area, streetName, city, district,</text><text fill="#000000" font-family="sans-serif" font-size="13" lengthAdjust="spacing" textLength="206" x="412" y="280.3936">state, zipCode, distanceCityCenter,</text><text fill="#000000" font-family="sans-serif" font-size="13" lengthAdjust="spacing" textLength="216" x="412" y="296.7451">numberBedrooms,numberBathrooms,</text><text fill="#000000" font-family="sans-serif" font-size="13" lengthAdjust="spacing" textLength="329" x="412" y="313.0967">numberParkingSpace,availableEquipmentDescriptionList)</text><rect fill="#E3E3E3" height="49.2188" rx="2.5" ry="2.5" style="stroke:#181818;stroke-width:0.5;" width="85" x="758" y="265.7344"/><text fill="#000000" font-family="sans-serif" font-size="14" lengthAdjust="spacing" textLength="62" x="769.5" y="287.2676">residence</text><text fill="#000000" font-family="sans-serif" font-size="14" lengthAdjust="spacing" textLength="71" x="765" y="304.877">:Residence</text><line style="stroke:#181818;stroke-width:1.0;" x1="805.5" x2="852.5" y1="343.3047" y2="343.3047"/><line style="stroke:#181818;stroke-width:1.0;" x1="852.5" x2="852.5" y1="343.3047" y2="356.3047"/><line style="stroke:#181818;stroke-width:1.0;" x1="811.5" x2="852.5" y1="356.3047" y2="356.3047"/><polygon fill="#181818" points="821.5,352.3047,811.5,356.3047,821.5,360.3047,817.5,356.3047" style="stroke:#181818;stroke-width:1.0;"/><text fill="#000000" font-family="sans-serif" font-size="13" font-weight="bold" lengthAdjust="spacing" textLength="25" x="817.5" y="338.4482">42.3</text><text fill="#000000" font-family="sans-serif" font-size="13" lengthAdjust="spacing" textLength="142" x="846.5" y="338.4482">fillPhotographList(uriList)</text><path d="M748,376.3047 L821,376.3047 L821,384.6563 L811,394.6563 L748,394.6563 L748,376.3047 " fill="#EEEEEE" style="stroke:#000000;stroke-width:1.5;"/><rect fill="none" height="276.9766" style="stroke:#000000;stroke-width:1.5;" width="869.5" x="748" y="376.3047"/><text fill="#000000" font-family="sans-serif" font-size="13" font-weight="bold" lengthAdjust="spacing" textLength="28" x="763" y="390.7998">loop</text><text fill="#000000" font-family="sans-serif" font-size="11" font-weight="bold" lengthAdjust="spacing" textLength="71" x="836" y="389.7236">[for each uri]</text><polygon fill="#181818" points="1503.5,413.0078,1513.5,417.0078,1503.5,421.0078,1507.5,417.0078" style="stroke:#181818;stroke-width:1.0;"/><line style="stroke:#181818;stroke-width:1.0;" x1="810.5" x2="1509.5" y1="417.0078" y2="417.0078"/><text fill="#000000" font-family="sans-serif" font-size="13" font-weight="bold" lengthAdjust="spacing" textLength="25" x="817.5" y="412.1514">42.4</text><text fill="#000000" font-family="sans-serif" font-size="13" lengthAdjust="spacing" textLength="58" x="846.5" y="412.1514">create(uri)</text><rect fill="#E3E3E3" height="49.2188" rx="2.5" ry="2.5" style="stroke:#181818;stroke-width:0.5;" width="92" x="1515.5" y="394.6563"/><text fill="#000000" font-family="sans-serif" font-size="14" lengthAdjust="spacing" textLength="73" x="1525" y="416.1895">photograph</text><text fill="#000000" font-family="sans-serif" font-size="14" lengthAdjust="spacing" textLength="78" x="1522.5" y="433.7988">:Photograph</text><line style="stroke:#181818;stroke-width:1.0;" x1="810.5" x2="857.5" y1="472.2266" y2="472.2266"/><line style="stroke:#181818;stroke-width:1.0;" x1="857.5" x2="857.5" y1="472.2266" y2="485.2266"/><line style="stroke:#181818;stroke-width:1.0;" x1="816.5" x2="857.5" y1="485.2266" y2="485.2266"/><polygon fill="#181818" points="826.5,481.2266,816.5,485.2266,826.5,489.2266,822.5,485.2266" style="stroke:#181818;stroke-width:1.0;"/><text fill="#000000" font-family="sans-serif" font-size="13" font-weight="bold" lengthAdjust="spacing" textLength="25" x="822.5" y="467.3701">42.5</text><text fill="#000000" font-family="sans-serif" font-size="13" lengthAdjust="spacing" textLength="159" x="851.5" y="467.3701">addPhotograph(photograph)</text><line style="stroke:#181818;stroke-width:1.0;" x1="815.5" x2="862.5" y1="515.5781" y2="515.5781"/><line style="stroke:#181818;stroke-width:1.0;" x1="862.5" x2="862.5" y1="515.5781" y2="528.5781"/><line style="stroke:#181818;stroke-width:1.0;" x1="821.5" x2="862.5" y1="528.5781" y2="528.5781"/><polygon fill="#181818" points="831.5,524.5781,821.5,528.5781,831.5,532.5781,827.5,528.5781" style="stroke:#181818;stroke-width:1.0;"/><text fill="#000000" font-family="sans-serif" font-size="13" font-weight="bold" lengthAdjust="spacing" textLength="25" x="827.5" y="510.7217">42.6</text><text fill="#000000" font-family="sans-serif" font-size="13" lengthAdjust="spacing" textLength="115" x="856.5" y="510.7217">validate(photograph)</text><line style="stroke:#181818;stroke-width:1.0;stroke-dasharray:2.0,2.0;" x1="820.5" x2="862.5" y1="568.9297" y2="568.9297"/><line style="stroke:#181818;stroke-width:1.0;stroke-dasharray:2.0,2.0;" x1="862.5" x2="862.5" y1="568.9297" y2="581.9297"/><line style="stroke:#181818;stroke-width:1.0;stroke-dasharray:2.0,2.0;" x1="815.5" x2="862.5" y1="581.9297" y2="581.9297"/><polygon fill="#181818" points="825.5,577.9297,815.5,581.9297,825.5,585.9297,821.5,581.9297" style="stroke:#181818;stroke-width:1.0;"/><text fill="#000000" font-family="sans-serif" font-size="13" font-weight="bold" lengthAdjust="spacing" textLength="25" x="827.5" y="564.0732">42.7</text><text fill="#000000" font-family="sans-serif" font-size="13" lengthAdjust="spacing" textLength="4" x="856.5" y="564.0732"> </text><line style="stroke:#181818;stroke-width:1.0;stroke-dasharray:2.0,2.0;" x1="815.5" x2="857.5" y1="612.2813" y2="612.2813"/><line style="stroke:#181818;stroke-width:1.0;stroke-dasharray:2.0,2.0;" x1="857.5" x2="857.5" y1="612.2813" y2="625.2813"/><line style="stroke:#181818;stroke-width:1.0;stroke-dasharray:2.0,2.0;" x1="810.5" x2="857.5" y1="625.2813" y2="625.2813"/><polygon fill="#181818" points="820.5,621.2813,810.5,625.2813,820.5,629.2813,816.5,625.2813" style="stroke:#181818;stroke-width:1.0;"/><text fill="#000000" font-family="sans-serif" font-size="13" font-weight="bold" lengthAdjust="spacing" textLength="25" x="822.5" y="607.4248">42.8</text><text fill="#000000" font-family="sans-serif" font-size="13" lengthAdjust="spacing" textLength="4" x="851.5" y="607.4248"> </text><line style="stroke:#181818;stroke-width:1.0;stroke-dasharray:2.0,2.0;" x1="810.5" x2="852.5" y1="687.6328" y2="687.6328"/><line style="stroke:#181818;stroke-width:1.0;stroke-dasharray:2.0,2.0;" x1="852.5" x2="852.5" y1="687.6328" y2="700.6328"/><line style="stroke:#181818;stroke-width:1.0;stroke-dasharray:2.0,2.0;" x1="805.5" x2="852.5" y1="700.6328" y2="700.6328"/><polygon fill="#181818" points="815.5,696.6328,805.5,700.6328,815.5,704.6328,811.5,700.6328" style="stroke:#181818;stroke-width:1.0;"/><text fill="#000000" font-family="sans-serif" font-size="13" font-weight="bold" lengthAdjust="spacing" textLength="25" x="817.5" y="682.7764">42.9</text><text fill="#000000" font-family="sans-serif" font-size="13" lengthAdjust="spacing" textLength="4" x="846.5" y="682.7764"> </text><polygon fill="#181818" points="1181.5,746.9844,1191.5,750.9844,1181.5,754.9844,1185.5,750.9844" style="stroke:#181818;stroke-width:1.0;"/><line style="stroke:#181818;stroke-width:1.0;" x1="805.5" x2="1187.5" y1="750.9844" y2="750.9844"/><text fill="#000000" font-family="sans-serif" font-size="13" font-weight="bold" lengthAdjust="spacing" textLength="32" x="812.5" y="746.1279">42.10</text><text fill="#000000" font-family="sans-serif" font-size="13" lengthAdjust="spacing" textLength="328" x="848.5" y="746.1279">createLocation(streetName, city, district, state, zipCode)</text><rect fill="#E3E3E3" height="49.2188" rx="2.5" ry="2.5" style="stroke:#181818;stroke-width:0.5;" width="72" x="1193.5" y="728.6328"/><text fill="#000000" font-family="sans-serif" font-size="14" lengthAdjust="spacing" textLength="49" x="1205" y="750.166">location</text><text fill="#000000" font-family="sans-serif" font-size="14" lengthAdjust="spacing" textLength="58" x="1200.5" y="767.7754">:Location</text><line style="stroke:#181818;stroke-width:1.0;" x1="1234.5" x2="1281.5" y1="806.2031" y2="806.2031"/><line style="stroke:#181818;stroke-width:1.0;" x1="1281.5" x2="1281.5" y1="806.2031" y2="819.2031"/><line style="stroke:#181818;stroke-width:1.0;" x1="1240.5" x2="1281.5" y1="819.2031" y2="819.2031"/><polygon fill="#181818" points="1250.5,815.2031,1240.5,819.2031,1250.5,823.2031,1246.5,819.2031" style="stroke:#181818;stroke-width:1.0;"/><text fill="#000000" font-family="sans-serif" font-size="13" font-weight="bold" lengthAdjust="spacing" textLength="32" x="1246.5" y="801.3467">42.11</text><text fill="#000000" font-family="sans-serif" font-size="13" lengthAdjust="spacing" textLength="145" x="1282.5" y="801.3467">validateLocation(location)</text><line style="stroke:#181818;stroke-width:1.0;stroke-dasharray:2.0,2.0;" x1="1239.5" x2="1281.5" y1="859.5547" y2="859.5547"/><line style="stroke:#181818;stroke-width:1.0;stroke-dasharray:2.0,2.0;" x1="1281.5" x2="1281.5" y1="859.5547" y2="872.5547"/><line style="stroke:#181818;stroke-width:1.0;stroke-dasharray:2.0,2.0;" x1="1234.5" x2="1281.5" y1="872.5547" y2="872.5547"/><polygon fill="#181818" points="1244.5,868.5547,1234.5,872.5547,1244.5,876.5547,1240.5,872.5547" style="stroke:#181818;stroke-width:1.0;"/><text fill="#000000" font-family="sans-serif" font-size="13" font-weight="bold" lengthAdjust="spacing" textLength="32" x="1246.5" y="854.6982">42.12</text><text fill="#000000" font-family="sans-serif" font-size="13" lengthAdjust="spacing" textLength="4" x="1282.5" y="854.6982"> </text><polygon fill="#181818" points="816.5,893.9063,806.5,897.9063,816.5,901.9063,812.5,897.9063" style="stroke:#181818;stroke-width:1.0;"/><line style="stroke:#181818;stroke-width:1.0;stroke-dasharray:2.0,2.0;" x1="810.5" x2="1228.5" y1="897.9063" y2="897.9063"/><text fill="#000000" font-family="sans-serif" font-size="13" font-weight="bold" lengthAdjust="spacing" textLength="32" x="822.5" y="893.0498">42.13</text><text fill="#000000" font-family="sans-serif" font-size="13" lengthAdjust="spacing" textLength="45" x="858.5" y="893.0498">location</text><line style="stroke:#181818;stroke-width:1.0;" x1="805.5" x2="852.5" y1="948.2578" y2="948.2578"/><line style="stroke:#181818;stroke-width:1.0;" x1="852.5" x2="852.5" y1="948.2578" y2="961.2578"/><line style="stroke:#181818;stroke-width:1.0;" x1="811.5" x2="852.5" y1="961.2578" y2="961.2578"/><polygon fill="#181818" points="821.5,957.2578,811.5,961.2578,821.5,965.2578,817.5,961.2578" style="stroke:#181818;stroke-width:1.0;"/><text fill="#000000" font-family="sans-serif" font-size="13" font-weight="bold" lengthAdjust="spacing" textLength="32" x="817.5" y="943.4014">42.14</text><text fill="#000000" font-family="sans-serif" font-size="13" lengthAdjust="spacing" textLength="351" x="853.5" y="943.4014">fillAvailableEquipmentList(availableEquipmentDescriptionList)</text><path d="M748,981.2578 L821,981.2578 L821,989.6094 L811,999.6094 L748,999.6094 L748,981.2578 " fill="#EEEEEE" style="stroke:#000000;stroke-width:1.5;"/><rect fill="none" height="276.9766" style="stroke:#000000;stroke-width:1.5;" width="767.5" x="748" y="981.2578"/><text fill="#000000" font-family="sans-serif" font-size="13" font-weight="bold" lengthAdjust="spacing" textLength="28" x="763" y="995.7529">loop</text><text fill="#000000" font-family="sans-serif" font-size="11" font-weight="bold" lengthAdjust="spacing" textLength="225" x="836" y="994.6768">[for each availableEquipmentDescription]</text><polygon fill="#181818" points="1351.5,1017.9609,1361.5,1021.9609,1351.5,1025.9609,1355.5,1021.9609" style="stroke:#181818;stroke-width:1.0;"/><line style="stroke:#181818;stroke-width:1.0;" x1="810.5" x2="1357.5" y1="1021.9609" y2="1021.9609"/><text fill="#000000" font-family="sans-serif" font-size="13" font-weight="bold" lengthAdjust="spacing" textLength="32" x="817.5" y="1017.1045">42.15</text><text fill="#000000" font-family="sans-serif" font-size="13" lengthAdjust="spacing" textLength="220" x="853.5" y="1017.1045">create(availableEquipmentDescription)</text><rect fill="#E3E3E3" height="49.2188" rx="2.5" ry="2.5" style="stroke:#181818;stroke-width:0.5;" width="142" x="1363.5" y="999.6094"/><text fill="#000000" font-family="sans-serif" font-size="14" lengthAdjust="spacing" textLength="123" x="1373" y="1021.1426">availableEquipment</text><text fill="#000000" font-family="sans-serif" font-size="14" lengthAdjust="spacing" textLength="128" x="1370.5" y="1038.752">:AvailableEquipment</text><line style="stroke:#181818;stroke-width:1.0;" x1="810.5" x2="857.5" y1="1077.1797" y2="1077.1797"/><line style="stroke:#181818;stroke-width:1.0;" x1="857.5" x2="857.5" y1="1077.1797" y2="1090.1797"/><line style="stroke:#181818;stroke-width:1.0;" x1="816.5" x2="857.5" y1="1090.1797" y2="1090.1797"/><polygon fill="#181818" points="826.5,1086.1797,816.5,1090.1797,826.5,1094.1797,822.5,1090.1797" style="stroke:#181818;stroke-width:1.0;"/><text fill="#000000" font-family="sans-serif" font-size="13" font-weight="bold" lengthAdjust="spacing" textLength="32" x="822.5" y="1072.3232">42.16</text><text fill="#000000" font-family="sans-serif" font-size="13" lengthAdjust="spacing" textLength="253" x="858.5" y="1072.3232">addAvailableEquipment(availableEquipment)</text><line style="stroke:#181818;stroke-width:1.0;" x1="815.5" x2="862.5" y1="1120.5313" y2="1120.5313"/><line style="stroke:#181818;stroke-width:1.0;" x1="862.5" x2="862.5" y1="1120.5313" y2="1133.5313"/><line style="stroke:#181818;stroke-width:1.0;" x1="821.5" x2="862.5" y1="1133.5313" y2="1133.5313"/><polygon fill="#181818" points="831.5,1129.5313,821.5,1133.5313,831.5,1137.5313,827.5,1133.5313" style="stroke:#181818;stroke-width:1.0;"/><text fill="#000000" font-family="sans-serif" font-size="13" font-weight="bold" lengthAdjust="spacing" textLength="32" x="827.5" y="1115.6748">42.17</text><text fill="#000000" font-family="sans-serif" font-size="13" lengthAdjust="spacing" textLength="162" x="863.5" y="1115.6748">validate(availableEquipment)</text><line style="stroke:#181818;stroke-width:1.0;stroke-dasharray:2.0,2.0;" x1="820.5" x2="862.5" y1="1173.8828" y2="1173.8828"/><line style="stroke:#181818;stroke-width:1.0;stroke-dasharray:2.0,2.0;" x1="862.5" x2="862.5" y1="1173.8828" y2="1186.8828"/><line style="stroke:#181818;stroke-width:1.0;stroke-dasharray:2.0,2.0;" x1="815.5" x2="862.5" y1="1186.8828" y2="1186.8828"/><polygon fill="#181818" points="825.5,1182.8828,815.5,1186.8828,825.5,1190.8828,821.5,1186.8828" style="stroke:#181818;stroke-width:1.0;"/><text fill="#000000" font-family="sans-serif" font-size="13" font-weight="bold" lengthAdjust="spacing" textLength="32" x="827.5" y="1169.0264">42.18</text><text fill="#000000" font-family="sans-serif" font-size="13" lengthAdjust="spacing" textLength="4" x="863.5" y="1169.0264"> </text><line style="stroke:#181818;stroke-width:1.0;stroke-dasharray:2.0,2.0;" x1="815.5" x2="857.5" y1="1217.2344" y2="1217.2344"/><line style="stroke:#181818;stroke-width:1.0;stroke-dasharray:2.0,2.0;" x1="857.5" x2="857.5" y1="1217.2344" y2="1230.2344"/><line style="stroke:#181818;stroke-width:1.0;stroke-dasharray:2.0,2.0;" x1="810.5" x2="857.5" y1="1230.2344" y2="1230.2344"/><polygon fill="#181818" points="820.5,1226.2344,810.5,1230.2344,820.5,1234.2344,816.5,1230.2344" style="stroke:#181818;stroke-width:1.0;"/><text fill="#000000" font-family="sans-serif" font-size="13" font-weight="bold" lengthAdjust="spacing" textLength="32" x="822.5" y="1212.3779">42.19</text><text fill="#000000" font-family="sans-serif" font-size="13" lengthAdjust="spacing" textLength="4" x="858.5" y="1212.3779"> </text><line style="stroke:#181818;stroke-width:1.0;stroke-dasharray:2.0,2.0;" x1="810.5" x2="852.5" y1="1292.5859" y2="1292.5859"/><line style="stroke:#181818;stroke-width:1.0;stroke-dasharray:2.0,2.0;" x1="852.5" x2="852.5" y1="1292.5859" y2="1305.5859"/><line style="stroke:#181818;stroke-width:1.0;stroke-dasharray:2.0,2.0;" x1="805.5" x2="852.5" y1="1305.5859" y2="1305.5859"/><polygon fill="#181818" points="815.5,1301.5859,805.5,1305.5859,815.5,1309.5859,811.5,1305.5859" style="stroke:#181818;stroke-width:1.0;"/><text fill="#000000" font-family="sans-serif" font-size="13" font-weight="bold" lengthAdjust="spacing" textLength="32" x="817.5" y="1287.7295">42.20</text><text fill="#000000" font-family="sans-serif" font-size="13" lengthAdjust="spacing" textLength="132" x="853.5" y="1287.7295">availableEquipmentList</text><polygon fill="#181818" points="387,1326.9375,377,1330.9375,387,1334.9375,383,1330.9375" style="stroke:#181818;stroke-width:1.0;"/><line style="stroke:#181818;stroke-width:1.0;stroke-dasharray:2.0,2.0;" x1="381" x2="799.5" y1="1330.9375" y2="1330.9375"/><text fill="#000000" font-family="sans-serif" font-size="13" font-weight="bold" lengthAdjust="spacing" textLength="32" x="393" y="1326.0811">42.21</text><text fill="#000000" font-family="sans-serif" font-size="13" lengthAdjust="spacing" textLength="56" x="429" y="1326.0811">residence</text><polygon fill="#181818" points="11,1364.2891,1,1368.2891,11,1372.2891,7,1368.2891" style="stroke:#181818;stroke-width:1.0;"/><line style="stroke:#181818;stroke-width:1.0;stroke-dasharray:2.0,2.0;" x1="5" x2="370" y1="1368.2891" y2="1368.2891"/><text fill="#000000" font-family="sans-serif" font-size="13" font-weight="bold" lengthAdjust="spacing" textLength="14" x="17" y="1363.4326">43</text><text fill="#000000" font-family="sans-serif" font-size="13" lengthAdjust="spacing" textLength="43" x="35" y="1363.4326">request</text><!--SRC=[rLPBRzim3BxxLn0z9O4pO8zJC0neqm0BK2HPdTvwOMms4MfBhYHtoD0VF_aXnufJrttiC9zawHC_yXD5KTqpdgB411B1HRYJ8Y7GCYDFrIifXlUufK3lOm99eKQ-ZPi0jSD8_6Py2tSOA_8ypynh5h8KkOOpIGyPANtB9zVbw0nGmVNiryqiM1z35Ok8XrI0gt453-QNiyLqvcv8fKX9wht1hwfX5pmM8Meck85VLSC2VhMSdg_douMBnaTaCMvYcZraB4s8vp6SjoOB2-ScdFdgoBcTq68hCTtbxjK_1NxrSxbUkl1DfXWdfGpueXeMq8kROBwO1O7H5JCjU9PiICAtB-OVgc_ym-e9ez44GaceAS2OAiK7LgVrFYKVC14Pr_uj1pH87vIMH7g1YLaBcTxx434pny8SexInvSCVbav5HEKIccEP6k3KX4_IW4gdBYYIGYJAhtvHxyf_2rYXD5cp3KnAaT-Mzv9KA5cQ7ykLOHdMyUKVXfez6bVgp77L-FIvb6ChHPR2j500wXo2N0oerF2QTgrkHa8hz6W4LaDx48DIig6pjRctJhZ6vffzy1_9x0XjBv5t1873cXFy1EvO71zIFJS_o2GxHNEQw1WJ2v72dP106Ex0c7h1bU9U7Uv0JZxixpr6qS7vmU7-littvrWUCMPHxjm74ZWCBM14_zxSCUZfwQarHpmgJlJ3G-d5xfo7BVcD-sgVX477HGNtddQSM_scj21sfUa67DAYTiE-LkyY6JT8kiJiusxpP8p3rhzUPbzzG4sclAgq7zwYkhowlFMwMcxPwUHexNMYAFk2Ha7gj3NiDjQKn9IgjY8dhBV2xn7ziwHrvVfm7fV8UqlzUf-rbxBpTEbwblD4pkJ9wBqkgcFpHRinWRfDxc7EgujZ7a7H7RcTqzVQoFVns7OqEKVPAy7fpo6h-h6_]--></g></svg>