<?xml version="1.0" encoding="UTF-8" standalone="no"?><svg xmlns="http://www.w3.org/2000/svg" xmlns:xlink="http://www.w3.org/1999/xlink" contentStyleType="text/css" height="1566px" preserveAspectRatio="none" style="width:2221px;height:1566px;background:#FFFFFF;" version="1.1" viewBox="0 0 2221 1566" width="2221px" zoomAndPan="magnify"><defs/><g><rect fill="#FFFFFF" height="1341.4219" style="stroke:#181818;stroke-width:1.0;" width="10" x="384" y="152.9766"/><rect fill="#FFFFFF" height="1172.9609" style="stroke:#181818;stroke-width:1.0;" width="10" x="824.5" y="284.0859"/><rect fill="#FFFFFF" height="1002.9844" style="stroke:#181818;stroke-width:1.0;" width="10" x="1272" y="423.7109"/><rect fill="#FFFFFF" height="332.3281" style="stroke:#181818;stroke-width:1.0;" width="10" x="1277" y="452.0625"/><rect fill="#FFFFFF" height="128.0547" style="stroke:#181818;stroke-width:1.0;" width="10" x="1282" y="580.9844"/><rect fill="#FFFFFF" height="41.3516" style="stroke:#181818;stroke-width:1.0;" width="10" x="1287" y="624.3359"/><rect fill="#FFFFFF" height="332.3281" style="stroke:#181818;stroke-width:1.0;" width="10" x="1277" y="1057.0156"/><rect fill="#FFFFFF" height="128.0547" style="stroke:#181818;stroke-width:1.0;" width="10" x="1282" y="1185.9375"/><rect fill="#FFFFFF" height="41.3516" style="stroke:#181818;stroke-width:1.0;" width="10" x="1287" y="1229.2891"/><rect fill="#FFFFFF" height="136.9219" style="stroke:#181818;stroke-width:1.0;" width="10" x="1719" y="856.7422"/><rect fill="#FFFFFF" height="41.3516" style="stroke:#181818;stroke-width:1.0;" width="10" x="1724" y="914.9609"/><rect fill="none" height="1297.0703" style="stroke:#000000;stroke-width:1.5;" width="1916.5" x="298.5" y="167.9766"/><rect fill="none" height="276.9766" style="stroke:#000000;stroke-width:1.5;" width="905.5" x="1224.5" y="472.0625"/><rect fill="none" height="276.9766" style="stroke:#000000;stroke-width:1.5;" width="803.5" x="1224.5" y="1077.0156"/><line style="stroke:#181818;stroke-width:0.5;stroke-dasharray:5.0,5.0;" x1="388.5" x2="388.5" y1="55.2188" y2="1512.3984"/><line style="stroke:#181818;stroke-width:0.5;stroke-dasharray:5.0,5.0;" x1="829" x2="829" y1="244.207" y2="1512.3984"/><line style="stroke:#181818;stroke-width:0.5;stroke-dasharray:5.0,5.0;" x1="1276.5" x2="1276.5" y1="392.0078" y2="1512.3984"/><line style="stroke:#181818;stroke-width:0.5;stroke-dasharray:5.0,5.0;" x1="1724" x2="1724" y1="864.5" y2="1512.3984"/><line style="stroke:#181818;stroke-width:0.5;stroke-dasharray:5.0,5.0;" x1="1947" x2="1947" y1="1135.4766" y2="1512.3984"/><line style="stroke:#181818;stroke-width:0.5;stroke-dasharray:5.0,5.0;" x1="2074" x2="2074" y1="530.5234" y2="1512.3984"/><line style="stroke:#181818;stroke-width:0.5;stroke-dasharray:5.0,5.0;" x1="2167" x2="2167" y1="322.1953" y2="1512.3984"/><rect fill="#E3E3E3" height="49.2188" rx="2.5" ry="2.5" style="stroke:#181818;stroke-width:0.5;" width="161" x="308.5" y="5"/><text fill="#000000" font-family="sans-serif" font-size="14" lengthAdjust="spacing" textLength="142" x="318" y="26.5332">announcementMapper</text><text fill="#000000" font-family="sans-serif" font-size="14" lengthAdjust="spacing" textLength="147" x="315.5" y="44.1426">:AnnouncementMapper</text><rect fill="#E3E3E3" height="49.2188" rx="2.5" ry="2.5" style="stroke:#181818;stroke-width:0.5;" width="161" x="308.5" y="1511.3984"/><text fill="#000000" font-family="sans-serif" font-size="14" lengthAdjust="spacing" textLength="142" x="318" y="1532.9316">announcementMapper</text><text fill="#000000" font-family="sans-serif" font-size="14" lengthAdjust="spacing" textLength="147" x="315.5" y="1550.541">:AnnouncementMapper</text><rect fill="#E3E3E3" height="49.2188" rx="2.5" ry="2.5" style="stroke:#181818;stroke-width:0.5;" width="71" x="794" y="1511.3984"/><text fill="#000000" font-family="sans-serif" font-size="14" lengthAdjust="spacing" textLength="48" x="805.5" y="1532.9316">request</text><text fill="#000000" font-family="sans-serif" font-size="14" lengthAdjust="spacing" textLength="57" x="801" y="1550.541">:Request</text><rect fill="#E3E3E3" height="49.2188" rx="2.5" ry="2.5" style="stroke:#181818;stroke-width:0.5;" width="85" x="1234.5" y="1511.3984"/><text fill="#000000" font-family="sans-serif" font-size="14" lengthAdjust="spacing" textLength="62" x="1246" y="1532.9316">residence</text><text fill="#000000" font-family="sans-serif" font-size="14" lengthAdjust="spacing" textLength="71" x="1241.5" y="1550.541">:Residence</text><rect fill="#E3E3E3" height="49.2188" rx="2.5" ry="2.5" style="stroke:#181818;stroke-width:0.5;" width="72" x="1688" y="1511.3984"/><text fill="#000000" font-family="sans-serif" font-size="14" lengthAdjust="spacing" textLength="49" x="1699.5" y="1532.9316">location</text><text fill="#000000" font-family="sans-serif" font-size="14" lengthAdjust="spacing" textLength="58" x="1695" y="1550.541">:Location</text><rect fill="#E3E3E3" height="49.2188" rx="2.5" ry="2.5" style="stroke:#181818;stroke-width:0.5;" width="142" x="1876" y="1511.3984"/><text fill="#000000" font-family="sans-serif" font-size="14" lengthAdjust="spacing" textLength="123" x="1885.5" y="1532.9316">availableEquipment</text><text fill="#000000" font-family="sans-serif" font-size="14" lengthAdjust="spacing" textLength="128" x="1883" y="1550.541">:AvailableEquipment</text><rect fill="#E3E3E3" height="49.2188" rx="2.5" ry="2.5" style="stroke:#181818;stroke-width:0.5;" width="92" x="2028" y="1511.3984"/><text fill="#000000" font-family="sans-serif" font-size="14" lengthAdjust="spacing" textLength="73" x="2037.5" y="1532.9316">photograph</text><text fill="#000000" font-family="sans-serif" font-size="14" lengthAdjust="spacing" textLength="78" x="2035" y="1550.541">:Photograph</text><rect fill="#E3E3E3" height="49.2188" rx="2.5" ry="2.5" style="stroke:#181818;stroke-width:0.5;" width="75" x="2130" y="1511.3984"/><text fill="#000000" font-family="sans-serif" font-size="14" lengthAdjust="spacing" textLength="56" x="2139.5" y="1532.9316">business</text><text fill="#000000" font-family="sans-serif" font-size="14" lengthAdjust="spacing" textLength="61" x="2137" y="1550.541">:Business</text><rect fill="#FFFFFF" height="1341.4219" style="stroke:#181818;stroke-width:1.0;" width="10" x="384" y="152.9766"/><rect fill="#FFFFFF" height="1172.9609" style="stroke:#181818;stroke-width:1.0;" width="10" x="824.5" y="284.0859"/><rect fill="#FFFFFF" height="1002.9844" style="stroke:#181818;stroke-width:1.0;" width="10" x="1272" y="423.7109"/><rect fill="#FFFFFF" height="332.3281" style="stroke:#181818;stroke-width:1.0;" width="10" x="1277" y="452.0625"/><rect fill="#FFFFFF" height="128.0547" style="stroke:#181818;stroke-width:1.0;" width="10" x="1282" y="580.9844"/><rect fill="#FFFFFF" height="41.3516" style="stroke:#181818;stroke-width:1.0;" width="10" x="1287" y="624.3359"/><rect fill="#FFFFFF" height="332.3281" style="stroke:#181818;stroke-width:1.0;" width="10" x="1277" y="1057.0156"/><rect fill="#FFFFFF" height="128.0547" style="stroke:#181818;stroke-width:1.0;" width="10" x="1282" y="1185.9375"/><rect fill="#FFFFFF" height="41.3516" style="stroke:#181818;stroke-width:1.0;" width="10" x="1287" y="1229.2891"/><rect fill="#FFFFFF" height="136.9219" style="stroke:#181818;stroke-width:1.0;" width="10" x="1719" y="856.7422"/><rect fill="#FFFFFF" height="41.3516" style="stroke:#181818;stroke-width:1.0;" width="10" x="1724" y="914.9609"/><polygon fill="#181818" points="372,148.9766,382,152.9766,372,156.9766,376,152.9766" style="stroke:#181818;stroke-width:1.0;"/><line style="stroke:#181818;stroke-width:1.0;" x1="0" x2="378" y1="152.9766" y2="152.9766"/><text fill="#000000" font-family="sans-serif" font-size="13" font-weight="bold" lengthAdjust="spacing" textLength="32" x="7" y="115.417">46.18</text><text fill="#000000" font-family="sans-serif" font-size="13" lengthAdjust="spacing" textLength="244" x="43" y="82.7139">createSaleRequest(propertyType, amount,</text><text fill="#000000" font-family="sans-serif" font-size="13" lengthAdjust="spacing" textLength="180" x="47" y="99.0654">area, streetName, city, district,</text><text fill="#000000" font-family="sans-serif" font-size="13" lengthAdjust="spacing" textLength="281" x="43" y="115.417">state, zipCode, distanceCityCenter,uriList,agent,</text><text fill="#000000" font-family="sans-serif" font-size="13" lengthAdjust="spacing" textLength="216" x="43" y="131.7686">numberBedrooms,numberBathrooms,</text><text fill="#000000" font-family="sans-serif" font-size="13" lengthAdjust="spacing" textLength="329" x="43" y="148.1201">numberParkingSpace,availableEquipmentDescriptionList)</text><path d="M298.5,167.9766 L543.5,167.9766 L543.5,176.3281 L533.5,186.3281 L298.5,186.3281 L298.5,167.9766 " fill="#EEEEEE" style="stroke:#000000;stroke-width:1.5;"/><rect fill="none" height="1297.0703" style="stroke:#000000;stroke-width:1.5;" width="1916.5" x="298.5" y="167.9766"/><text fill="#000000" font-family="sans-serif" font-size="13" font-weight="bold" lengthAdjust="spacing" textLength="200" x="313.5" y="182.4717">Create Residence Sale Request</text><polygon fill="#181818" points="782,270.0859,792,274.0859,782,278.0859,786,274.0859" style="stroke:#181818;stroke-width:1.0;"/><line style="stroke:#181818;stroke-width:1.0;" x1="394" x2="788" y1="274.0859" y2="274.0859"/><text fill="#000000" font-family="sans-serif" font-size="13" font-weight="bold" lengthAdjust="spacing" textLength="43" x="401" y="236.5264">46.18.1</text><text fill="#000000" font-family="sans-serif" font-size="13" lengthAdjust="spacing" textLength="244" x="448" y="203.8232">createSaleRequest(propertyType, amount,</text><text fill="#000000" font-family="sans-serif" font-size="13" lengthAdjust="spacing" textLength="180" x="452" y="220.1748">area, streetName, city, district,</text><text fill="#000000" font-family="sans-serif" font-size="13" lengthAdjust="spacing" textLength="206" x="448" y="236.5264">state, zipCode, distanceCityCenter,</text><text fill="#000000" font-family="sans-serif" font-size="13" lengthAdjust="spacing" textLength="216" x="448" y="252.8779">numberBedrooms,numberBathrooms,</text><text fill="#000000" font-family="sans-serif" font-size="13" lengthAdjust="spacing" textLength="329" x="448" y="269.2295">numberParkingSpace,availableEquipmentDescriptionList)</text><rect fill="#E3E3E3" height="49.2188" rx="2.5" ry="2.5" style="stroke:#181818;stroke-width:0.5;" width="71" x="794" y="221.8672"/><text fill="#000000" font-family="sans-serif" font-size="14" lengthAdjust="spacing" textLength="48" x="805.5" y="243.4004">request</text><text fill="#000000" font-family="sans-serif" font-size="14" lengthAdjust="spacing" textLength="57" x="801" y="261.0098">:Request</text><polygon fill="#181818" points="2118,300.4375,2128,304.4375,2118,308.4375,2122,304.4375" style="stroke:#181818;stroke-width:1.0;"/><line style="stroke:#181818;stroke-width:1.0;" x1="834.5" x2="2124" y1="304.4375" y2="304.4375"/><text fill="#000000" font-family="sans-serif" font-size="13" font-weight="bold" lengthAdjust="spacing" textLength="43" x="841.5" y="299.5811">46.18.2</text><text fill="#000000" font-family="sans-serif" font-size="13" lengthAdjust="spacing" textLength="141" x="888.5" y="299.5811">createBusiness(amount)</text><rect fill="#E3E3E3" height="49.2188" rx="2.5" ry="2.5" style="stroke:#181818;stroke-width:0.5;" width="75" x="2130" y="282.0859"/><text fill="#000000" font-family="sans-serif" font-size="14" lengthAdjust="spacing" textLength="56" x="2139.5" y="303.6191">business</text><text fill="#000000" font-family="sans-serif" font-size="14" lengthAdjust="spacing" textLength="61" x="2137" y="321.2285">:Business</text><polygon fill="#181818" points="1222.5,409.7109,1232.5,413.7109,1222.5,417.7109,1226.5,413.7109" style="stroke:#181818;stroke-width:1.0;"/><line style="stroke:#181818;stroke-width:1.0;" x1="834.5" x2="1228.5" y1="413.7109" y2="413.7109"/><text fill="#000000" font-family="sans-serif" font-size="13" font-weight="bold" lengthAdjust="spacing" textLength="43" x="841.5" y="384.3271">46.18.3</text><text fill="#000000" font-family="sans-serif" font-size="13" lengthAdjust="spacing" textLength="281" x="888.5" y="359.7998">createResidence(area, streetName, city, district,</text><text fill="#000000" font-family="sans-serif" font-size="13" lengthAdjust="spacing" textLength="206" x="888.5" y="376.1514">state, zipCode, distanceCityCenter,</text><text fill="#000000" font-family="sans-serif" font-size="13" lengthAdjust="spacing" textLength="216" x="888.5" y="392.5029">numberBedrooms,numberBathrooms,</text><text fill="#000000" font-family="sans-serif" font-size="13" lengthAdjust="spacing" textLength="329" x="888.5" y="408.8545">numberParkingSpace,availableEquipmentDescriptionList)</text><rect fill="#E3E3E3" height="49.2188" rx="2.5" ry="2.5" style="stroke:#181818;stroke-width:0.5;" width="85" x="1234.5" y="361.4922"/><text fill="#000000" font-family="sans-serif" font-size="14" lengthAdjust="spacing" textLength="62" x="1246" y="383.0254">residence</text><text fill="#000000" font-family="sans-serif" font-size="14" lengthAdjust="spacing" textLength="71" x="1241.5" y="400.6348">:Residence</text><line style="stroke:#181818;stroke-width:1.0;" x1="1282" x2="1329" y1="439.0625" y2="439.0625"/><line style="stroke:#181818;stroke-width:1.0;" x1="1329" x2="1329" y1="439.0625" y2="452.0625"/><line style="stroke:#181818;stroke-width:1.0;" x1="1288" x2="1329" y1="452.0625" y2="452.0625"/><polygon fill="#181818" points="1298,448.0625,1288,452.0625,1298,456.0625,1294,452.0625" style="stroke:#181818;stroke-width:1.0;"/><text fill="#000000" font-family="sans-serif" font-size="13" font-weight="bold" lengthAdjust="spacing" textLength="43" x="1294" y="434.2061">46.18.4</text><text fill="#000000" font-family="sans-serif" font-size="13" lengthAdjust="spacing" textLength="142" x="1341" y="434.2061">fillPhotographList(uriList)</text><path d="M1224.5,472.0625 L1297.5,472.0625 L1297.5,480.4141 L1287.5,490.4141 L1224.5,490.4141 L1224.5,472.0625 " fill="#EEEEEE" style="stroke:#000000;stroke-width:1.5;"/><rect fill="none" height="276.9766" style="stroke:#000000;stroke-width:1.5;" width="905.5" x="1224.5" y="472.0625"/><text fill="#000000" font-family="sans-serif" font-size="13" font-weight="bold" lengthAdjust="spacing" textLength="28" x="1239.5" y="486.5576">loop</text><text fill="#000000" font-family="sans-serif" font-size="11" font-weight="bold" lengthAdjust="spacing" textLength="71" x="1312.5" y="485.4814">[for each uri]</text><polygon fill="#181818" points="2016,508.7656,2026,512.7656,2016,516.7656,2020,512.7656" style="stroke:#181818;stroke-width:1.0;"/><line style="stroke:#181818;stroke-width:1.0;" x1="1287" x2="2022" y1="512.7656" y2="512.7656"/><text fill="#000000" font-family="sans-serif" font-size="13" font-weight="bold" lengthAdjust="spacing" textLength="43" x="1294" y="507.9092">46.18.5</text><text fill="#000000" font-family="sans-serif" font-size="13" lengthAdjust="spacing" textLength="58" x="1341" y="507.9092">create(uri)</text><rect fill="#E3E3E3" height="49.2188" rx="2.5" ry="2.5" style="stroke:#181818;stroke-width:0.5;" width="92" x="2028" y="490.4141"/><text fill="#000000" font-family="sans-serif" font-size="14" lengthAdjust="spacing" textLength="73" x="2037.5" y="511.9473">photograph</text><text fill="#000000" font-family="sans-serif" font-size="14" lengthAdjust="spacing" textLength="78" x="2035" y="529.5566">:Photograph</text><line style="stroke:#181818;stroke-width:1.0;" x1="1287" x2="1334" y1="567.9844" y2="567.9844"/><line style="stroke:#181818;stroke-width:1.0;" x1="1334" x2="1334" y1="567.9844" y2="580.9844"/><line style="stroke:#181818;stroke-width:1.0;" x1="1293" x2="1334" y1="580.9844" y2="580.9844"/><polygon fill="#181818" points="1303,576.9844,1293,580.9844,1303,584.9844,1299,580.9844" style="stroke:#181818;stroke-width:1.0;"/><text fill="#000000" font-family="sans-serif" font-size="13" font-weight="bold" lengthAdjust="spacing" textLength="43" x="1299" y="563.1279">46.18.6</text><text fill="#000000" font-family="sans-serif" font-size="13" lengthAdjust="spacing" textLength="159" x="1346" y="563.1279">addPhotograph(photograph)</text><line style="stroke:#181818;stroke-width:1.0;" x1="1292" x2="1339" y1="611.3359" y2="611.3359"/><line style="stroke:#181818;stroke-width:1.0;" x1="1339" x2="1339" y1="611.3359" y2="624.3359"/><line style="stroke:#181818;stroke-width:1.0;" x1="1298" x2="1339" y1="624.3359" y2="624.3359"/><polygon fill="#181818" points="1308,620.3359,1298,624.3359,1308,628.3359,1304,624.3359" style="stroke:#181818;stroke-width:1.0;"/><text fill="#000000" font-family="sans-serif" font-size="13" font-weight="bold" lengthAdjust="spacing" textLength="43" x="1304" y="606.4795">46.18.7</text><text fill="#000000" font-family="sans-serif" font-size="13" lengthAdjust="spacing" textLength="115" x="1351" y="606.4795">validate(photograph)</text><line style="stroke:#181818;stroke-width:1.0;stroke-dasharray:2.0,2.0;" x1="1297" x2="1339" y1="664.6875" y2="664.6875"/><line style="stroke:#181818;stroke-width:1.0;stroke-dasharray:2.0,2.0;" x1="1339" x2="1339" y1="664.6875" y2="677.6875"/><line style="stroke:#181818;stroke-width:1.0;stroke-dasharray:2.0,2.0;" x1="1292" x2="1339" y1="677.6875" y2="677.6875"/><polygon fill="#181818" points="1302,673.6875,1292,677.6875,1302,681.6875,1298,677.6875" style="stroke:#181818;stroke-width:1.0;"/><text fill="#000000" font-family="sans-serif" font-size="13" font-weight="bold" lengthAdjust="spacing" textLength="43" x="1304" y="659.8311">46.18.8</text><text fill="#000000" font-family="sans-serif" font-size="13" lengthAdjust="spacing" textLength="4" x="1351" y="659.8311"> </text><line style="stroke:#181818;stroke-width:1.0;stroke-dasharray:2.0,2.0;" x1="1292" x2="1334" y1="708.0391" y2="708.0391"/><line style="stroke:#181818;stroke-width:1.0;stroke-dasharray:2.0,2.0;" x1="1334" x2="1334" y1="708.0391" y2="721.0391"/><line style="stroke:#181818;stroke-width:1.0;stroke-dasharray:2.0,2.0;" x1="1287" x2="1334" y1="721.0391" y2="721.0391"/><polygon fill="#181818" points="1297,717.0391,1287,721.0391,1297,725.0391,1293,721.0391" style="stroke:#181818;stroke-width:1.0;"/><text fill="#000000" font-family="sans-serif" font-size="13" font-weight="bold" lengthAdjust="spacing" textLength="43" x="1299" y="703.1826">46.18.9</text><text fill="#000000" font-family="sans-serif" font-size="13" lengthAdjust="spacing" textLength="4" x="1346" y="703.1826"> </text><line style="stroke:#181818;stroke-width:1.0;stroke-dasharray:2.0,2.0;" x1="1287" x2="1329" y1="783.3906" y2="783.3906"/><line style="stroke:#181818;stroke-width:1.0;stroke-dasharray:2.0,2.0;" x1="1329" x2="1329" y1="783.3906" y2="796.3906"/><line style="stroke:#181818;stroke-width:1.0;stroke-dasharray:2.0,2.0;" x1="1282" x2="1329" y1="796.3906" y2="796.3906"/><polygon fill="#181818" points="1292,792.3906,1282,796.3906,1292,800.3906,1288,796.3906" style="stroke:#181818;stroke-width:1.0;"/><text fill="#000000" font-family="sans-serif" font-size="13" font-weight="bold" lengthAdjust="spacing" textLength="50" x="1294" y="778.5342">46.18.10</text><text fill="#000000" font-family="sans-serif" font-size="13" lengthAdjust="spacing" textLength="4" x="1348" y="778.5342"> </text><polygon fill="#181818" points="1676,842.7422,1686,846.7422,1676,850.7422,1680,846.7422" style="stroke:#181818;stroke-width:1.0;"/><line style="stroke:#181818;stroke-width:1.0;" x1="1282" x2="1682" y1="846.7422" y2="846.7422"/><text fill="#000000" font-family="sans-serif" font-size="13" font-weight="bold" lengthAdjust="spacing" textLength="50" x="1289" y="841.8857">46.18.11</text><text fill="#000000" font-family="sans-serif" font-size="13" lengthAdjust="spacing" textLength="328" x="1343" y="841.8857">createLocation(streetName, city, district, state, zipCode)</text><rect fill="#E3E3E3" height="49.2188" rx="2.5" ry="2.5" style="stroke:#181818;stroke-width:0.5;" width="72" x="1688" y="824.3906"/><text fill="#000000" font-family="sans-serif" font-size="14" lengthAdjust="spacing" textLength="49" x="1699.5" y="845.9238">location</text><text fill="#000000" font-family="sans-serif" font-size="14" lengthAdjust="spacing" textLength="58" x="1695" y="863.5332">:Location</text><line style="stroke:#181818;stroke-width:1.0;" x1="1729" x2="1776" y1="901.9609" y2="901.9609"/><line style="stroke:#181818;stroke-width:1.0;" x1="1776" x2="1776" y1="901.9609" y2="914.9609"/><line style="stroke:#181818;stroke-width:1.0;" x1="1735" x2="1776" y1="914.9609" y2="914.9609"/><polygon fill="#181818" points="1745,910.9609,1735,914.9609,1745,918.9609,1741,914.9609" style="stroke:#181818;stroke-width:1.0;"/><text fill="#000000" font-family="sans-serif" font-size="13" font-weight="bold" lengthAdjust="spacing" textLength="50" x="1741" y="897.1045">46.18.12</text><text fill="#000000" font-family="sans-serif" font-size="13" lengthAdjust="spacing" textLength="145" x="1795" y="897.1045">validateLocation(location)</text><line style="stroke:#181818;stroke-width:1.0;stroke-dasharray:2.0,2.0;" x1="1734" x2="1776" y1="955.3125" y2="955.3125"/><line style="stroke:#181818;stroke-width:1.0;stroke-dasharray:2.0,2.0;" x1="1776" x2="1776" y1="955.3125" y2="968.3125"/><line style="stroke:#181818;stroke-width:1.0;stroke-dasharray:2.0,2.0;" x1="1729" x2="1776" y1="968.3125" y2="968.3125"/><polygon fill="#181818" points="1739,964.3125,1729,968.3125,1739,972.3125,1735,968.3125" style="stroke:#181818;stroke-width:1.0;"/><text fill="#000000" font-family="sans-serif" font-size="13" font-weight="bold" lengthAdjust="spacing" textLength="50" x="1741" y="950.4561">46.18.13</text><text fill="#000000" font-family="sans-serif" font-size="13" lengthAdjust="spacing" textLength="4" x="1795" y="950.4561"> </text><polygon fill="#181818" points="1293,989.6641,1283,993.6641,1293,997.6641,1289,993.6641" style="stroke:#181818;stroke-width:1.0;"/><line style="stroke:#181818;stroke-width:1.0;stroke-dasharray:2.0,2.0;" x1="1287" x2="1723" y1="993.6641" y2="993.6641"/><text fill="#000000" font-family="sans-serif" font-size="13" font-weight="bold" lengthAdjust="spacing" textLength="50" x="1299" y="988.8076">46.18.14</text><text fill="#000000" font-family="sans-serif" font-size="13" lengthAdjust="spacing" textLength="45" x="1353" y="988.8076">location</text><line style="stroke:#181818;stroke-width:1.0;" x1="1282" x2="1329" y1="1044.0156" y2="1044.0156"/><line style="stroke:#181818;stroke-width:1.0;" x1="1329" x2="1329" y1="1044.0156" y2="1057.0156"/><line style="stroke:#181818;stroke-width:1.0;" x1="1288" x2="1329" y1="1057.0156" y2="1057.0156"/><polygon fill="#181818" points="1298,1053.0156,1288,1057.0156,1298,1061.0156,1294,1057.0156" style="stroke:#181818;stroke-width:1.0;"/><text fill="#000000" font-family="sans-serif" font-size="13" font-weight="bold" lengthAdjust="spacing" textLength="50" x="1294" y="1039.1592">46.18.15</text><text fill="#000000" font-family="sans-serif" font-size="13" lengthAdjust="spacing" textLength="351" x="1348" y="1039.1592">fillAvailableEquipmentList(availableEquipmentDescriptionList)</text><path d="M1224.5,1077.0156 L1297.5,1077.0156 L1297.5,1085.3672 L1287.5,1095.3672 L1224.5,1095.3672 L1224.5,1077.0156 " fill="#EEEEEE" style="stroke:#000000;stroke-width:1.5;"/><rect fill="none" height="276.9766" style="stroke:#000000;stroke-width:1.5;" width="803.5" x="1224.5" y="1077.0156"/><text fill="#000000" font-family="sans-serif" font-size="13" font-weight="bold" lengthAdjust="spacing" textLength="28" x="1239.5" y="1091.5107">loop</text><text fill="#000000" font-family="sans-serif" font-size="11" font-weight="bold" lengthAdjust="spacing" textLength="225" x="1312.5" y="1090.4346">[for each availableEquipmentDescription]</text><polygon fill="#181818" points="1864,1113.7188,1874,1117.7188,1864,1121.7188,1868,1117.7188" style="stroke:#181818;stroke-width:1.0;"/><line style="stroke:#181818;stroke-width:1.0;" x1="1287" x2="1870" y1="1117.7188" y2="1117.7188"/><text fill="#000000" font-family="sans-serif" font-size="13" font-weight="bold" lengthAdjust="spacing" textLength="50" x="1294" y="1112.8623">46.18.16</text><text fill="#000000" font-family="sans-serif" font-size="13" lengthAdjust="spacing" textLength="220" x="1348" y="1112.8623">create(availableEquipmentDescription)</text><rect fill="#E3E3E3" height="49.2188" rx="2.5" ry="2.5" style="stroke:#181818;stroke-width:0.5;" width="142" x="1876" y="1095.3672"/><text fill="#000000" font-family="sans-serif" font-size="14" lengthAdjust="spacing" textLength="123" x="1885.5" y="1116.9004">availableEquipment</text><text fill="#000000" font-family="sans-serif" font-size="14" lengthAdjust="spacing" textLength="128" x="1883" y="1134.5098">:AvailableEquipment</text><line style="stroke:#181818;stroke-width:1.0;" x1="1287" x2="1334" y1="1172.9375" y2="1172.9375"/><line style="stroke:#181818;stroke-width:1.0;" x1="1334" x2="1334" y1="1172.9375" y2="1185.9375"/><line style="stroke:#181818;stroke-width:1.0;" x1="1293" x2="1334" y1="1185.9375" y2="1185.9375"/><polygon fill="#181818" points="1303,1181.9375,1293,1185.9375,1303,1189.9375,1299,1185.9375" style="stroke:#181818;stroke-width:1.0;"/><text fill="#000000" font-family="sans-serif" font-size="13" font-weight="bold" lengthAdjust="spacing" textLength="50" x="1299" y="1168.0811">46.18.17</text><text fill="#000000" font-family="sans-serif" font-size="13" lengthAdjust="spacing" textLength="253" x="1353" y="1168.0811">addAvailableEquipment(availableEquipment)</text><line style="stroke:#181818;stroke-width:1.0;" x1="1292" x2="1339" y1="1216.2891" y2="1216.2891"/><line style="stroke:#181818;stroke-width:1.0;" x1="1339" x2="1339" y1="1216.2891" y2="1229.2891"/><line style="stroke:#181818;stroke-width:1.0;" x1="1298" x2="1339" y1="1229.2891" y2="1229.2891"/><polygon fill="#181818" points="1308,1225.2891,1298,1229.2891,1308,1233.2891,1304,1229.2891" style="stroke:#181818;stroke-width:1.0;"/><text fill="#000000" font-family="sans-serif" font-size="13" font-weight="bold" lengthAdjust="spacing" textLength="50" x="1304" y="1211.4326">46.18.18</text><text fill="#000000" font-family="sans-serif" font-size="13" lengthAdjust="spacing" textLength="162" x="1358" y="1211.4326">validate(availableEquipment)</text><line style="stroke:#181818;stroke-width:1.0;stroke-dasharray:2.0,2.0;" x1="1297" x2="1339" y1="1269.6406" y2="1269.6406"/><line style="stroke:#181818;stroke-width:1.0;stroke-dasharray:2.0,2.0;" x1="1339" x2="1339" y1="1269.6406" y2="1282.6406"/><line style="stroke:#181818;stroke-width:1.0;stroke-dasharray:2.0,2.0;" x1="1292" x2="1339" y1="1282.6406" y2="1282.6406"/><polygon fill="#181818" points="1302,1278.6406,1292,1282.6406,1302,1286.6406,1298,1282.6406" style="stroke:#181818;stroke-width:1.0;"/><text fill="#000000" font-family="sans-serif" font-size="13" font-weight="bold" lengthAdjust="spacing" textLength="50" x="1304" y="1264.7842">46.18.19</text><text fill="#000000" font-family="sans-serif" font-size="13" lengthAdjust="spacing" textLength="4" x="1358" y="1264.7842"> </text><line style="stroke:#181818;stroke-width:1.0;stroke-dasharray:2.0,2.0;" x1="1292" x2="1334" y1="1312.9922" y2="1312.9922"/><line style="stroke:#181818;stroke-width:1.0;stroke-dasharray:2.0,2.0;" x1="1334" x2="1334" y1="1312.9922" y2="1325.9922"/><line style="stroke:#181818;stroke-width:1.0;stroke-dasharray:2.0,2.0;" x1="1287" x2="1334" y1="1325.9922" y2="1325.9922"/><polygon fill="#181818" points="1297,1321.9922,1287,1325.9922,1297,1329.9922,1293,1325.9922" style="stroke:#181818;stroke-width:1.0;"/><text fill="#000000" font-family="sans-serif" font-size="13" font-weight="bold" lengthAdjust="spacing" textLength="50" x="1299" y="1308.1357">46.18.20</text><text fill="#000000" font-family="sans-serif" font-size="13" lengthAdjust="spacing" textLength="4" x="1353" y="1308.1357"> </text><line style="stroke:#181818;stroke-width:1.0;stroke-dasharray:2.0,2.0;" x1="1287" x2="1329" y1="1388.3438" y2="1388.3438"/><line style="stroke:#181818;stroke-width:1.0;stroke-dasharray:2.0,2.0;" x1="1329" x2="1329" y1="1388.3438" y2="1401.3438"/><line style="stroke:#181818;stroke-width:1.0;stroke-dasharray:2.0,2.0;" x1="1282" x2="1329" y1="1401.3438" y2="1401.3438"/><polygon fill="#181818" points="1292,1397.3438,1282,1401.3438,1292,1405.3438,1288,1401.3438" style="stroke:#181818;stroke-width:1.0;"/><text fill="#000000" font-family="sans-serif" font-size="13" font-weight="bold" lengthAdjust="spacing" textLength="50" x="1294" y="1383.4873">46.18.21</text><text fill="#000000" font-family="sans-serif" font-size="13" lengthAdjust="spacing" textLength="132" x="1348" y="1383.4873">availableEquipmentList</text><polygon fill="#181818" points="845.5,1422.6953,835.5,1426.6953,845.5,1430.6953,841.5,1426.6953" style="stroke:#181818;stroke-width:1.0;"/><line style="stroke:#181818;stroke-width:1.0;stroke-dasharray:2.0,2.0;" x1="839.5" x2="1276" y1="1426.6953" y2="1426.6953"/><text fill="#000000" font-family="sans-serif" font-size="13" font-weight="bold" lengthAdjust="spacing" textLength="50" x="851.5" y="1421.8389">46.18.22</text><text fill="#000000" font-family="sans-serif" font-size="13" lengthAdjust="spacing" textLength="56" x="905.5" y="1421.8389">residence</text><polygon fill="#181818" points="405,1453.0469,395,1457.0469,405,1461.0469,401,1457.0469" style="stroke:#181818;stroke-width:1.0;"/><line style="stroke:#181818;stroke-width:1.0;stroke-dasharray:2.0,2.0;" x1="399" x2="828.5" y1="1457.0469" y2="1457.0469"/><text fill="#000000" font-family="sans-serif" font-size="13" font-weight="bold" lengthAdjust="spacing" textLength="50" x="411" y="1452.1904">46.18.23</text><text fill="#000000" font-family="sans-serif" font-size="13" lengthAdjust="spacing" textLength="43" x="465" y="1452.1904">request</text><polygon fill="#181818" points="11,1490.3984,1,1494.3984,11,1498.3984,7,1494.3984" style="stroke:#181818;stroke-width:1.0;"/><line style="stroke:#181818;stroke-width:1.0;stroke-dasharray:2.0,2.0;" x1="5" x2="388" y1="1494.3984" y2="1494.3984"/><text fill="#000000" font-family="sans-serif" font-size="13" font-weight="bold" lengthAdjust="spacing" textLength="32" x="17" y="1489.542">46.19</text><text fill="#000000" font-family="sans-serif" font-size="13" lengthAdjust="spacing" textLength="43" x="53" y="1489.542">request</text><!--SRC=[rLVVQzim47xNNt7qAGbEeJ365iOWJGqBj4bMfszzKUrh8cfBhYntPFIFdsHRZdyahljZW-L9bZvzT_VfTBea3up7LD888i65lvKYGb0oHPAKAp7r7-W6FRKB4IJwYl9DM0KaMng8Nunlu9w62HAYfnNpMKovWXFAkKYvZn5oTKNZ6EKjdqnRaoT04xYQhbRkTNs_nCSK4wKtNUUZ37dj_hnnlNKJch00DMq6BiO5t9jVk8kPMzyGIw5Dgvt6hufX5pmKFbLCS0s_B8OP_78vcwxdoqKZy2VAGdeNelkOijX4QW9lJMOCKntEVDLmRYkKs4WQRurxvKU6N_rOhfTr-5sQC8v9ei7dnJ23djzuyuNhUOGGcYh1q-WE9NpwV7hsXP3nzqBp2VWIgKAFXbZeFB3gh7SnEa0ZVMBAkUL0DTA1H4b4jQ2HNlEPsZaGC3t7V8D9bEPou3UBPoB0V8dgmvXfu4m7ZT999RlKiuvEhOmsT-mS0ob4b3Z59rNR_Di2LbJgnDjuEYlHQKjyWOalMMoEnh0F2LH-r5ViIJjcywmboEaPoJPif4XZc6MAG9b9OCI1GXrIOyu90RIUHMR2QFJlDVstAjexM5srqMiXREADHc2Li8avo0CVraMix2qlO6LpUGw3_qYicbosg9061FPhjU0dSC_2S7_r3VsWk3V35iSXGqrCA4GCzq82KdyBcke5Lx8wiyzaOtpOttiQ17ld1_jwzZRVZrbveY4BZ7CVQA1ceGKCyE_JDK7Fpy-jEUH1Tg8V7aelwxNpi4zWvRxQ9tBGSL6XVayxpgryOriGkr9r0_PfKRfXN-zt6HbNZ7I9sSVTwibeXwr_lMXVVK1LIwQgj1kHhBgykhprkbhrijDfexMt5aNU9rKAKYVNi9kiAeakLMr53h2tmkyH_L6ZPUNwS3jrG-GjzUjzR2zbv-7ITTJcWPmnoKXU5rMJFcit9b3-RUX1L_OePUSCXY1l2G_jB5eawuY9E-ikMytdLmtvDXx3CTeAgsrV_m00]--></g></svg>