<?xml version="1.0" encoding="UTF-8" standalone="no"?><svg xmlns="http://www.w3.org/2000/svg" xmlns:xlink="http://www.w3.org/1999/xlink" contentStyleType="text/css" height="1615px" preserveAspectRatio="none" style="width:2164px;height:1615px;background:#FFFFFF;" version="1.1" viewBox="0 0 2164 1615" width="2164px" zoomAndPan="magnify"><defs/><g><rect fill="#FFFFFF" height="1374.125" style="stroke:#181818;stroke-width:1.0;" width="10" x="341" y="169.3281"/><rect fill="#FFFFFF" height="1189.3125" style="stroke:#181818;stroke-width:1.0;" width="10" x="781.5" y="316.7891"/><rect fill="#FFFFFF" height="1002.9844" style="stroke:#181818;stroke-width:1.0;" width="10" x="1215.5" y="472.7656"/><rect fill="#FFFFFF" height="332.3281" style="stroke:#181818;stroke-width:1.0;" width="10" x="1220.5" y="501.1172"/><rect fill="#FFFFFF" height="128.0547" style="stroke:#181818;stroke-width:1.0;" width="10" x="1225.5" y="630.0391"/><rect fill="#FFFFFF" height="41.3516" style="stroke:#181818;stroke-width:1.0;" width="10" x="1230.5" y="673.3906"/><rect fill="#FFFFFF" height="332.3281" style="stroke:#181818;stroke-width:1.0;" width="10" x="1220.5" y="1106.0703"/><rect fill="#FFFFFF" height="128.0547" style="stroke:#181818;stroke-width:1.0;" width="10" x="1225.5" y="1234.9922"/><rect fill="#FFFFFF" height="41.3516" style="stroke:#181818;stroke-width:1.0;" width="10" x="1230.5" y="1278.3438"/><rect fill="#FFFFFF" height="136.9219" style="stroke:#181818;stroke-width:1.0;" width="10" x="1662.5" y="905.7969"/><rect fill="#FFFFFF" height="41.3516" style="stroke:#181818;stroke-width:1.0;" width="10" x="1667.5" y="964.0156"/><rect fill="none" height="1329.7734" style="stroke:#000000;stroke-width:1.5;" width="1903" x="255.5" y="184.3281"/><rect fill="none" height="276.9766" style="stroke:#000000;stroke-width:1.5;" width="892" x="1181.5" y="521.1172"/><rect fill="none" height="276.9766" style="stroke:#000000;stroke-width:1.5;" width="790" x="1181.5" y="1126.0703"/><line style="stroke:#181818;stroke-width:0.5;stroke-dasharray:5.0,5.0;" x1="345.5" x2="345.5" y1="55.2188" y2="1561.4531"/><line style="stroke:#181818;stroke-width:0.5;stroke-dasharray:5.0,5.0;" x1="786" x2="786" y1="268.7344" y2="1561.4531"/><line style="stroke:#181818;stroke-width:0.5;stroke-dasharray:5.0,5.0;" x1="1220.5" x2="1220.5" y1="432.8867" y2="1561.4531"/><line style="stroke:#181818;stroke-width:0.5;stroke-dasharray:5.0,5.0;" x1="1667.5" x2="1667.5" y1="913.5547" y2="1561.4531"/><line style="stroke:#181818;stroke-width:0.5;stroke-dasharray:5.0,5.0;" x1="1890.5" x2="1890.5" y1="1184.5313" y2="1561.4531"/><line style="stroke:#181818;stroke-width:0.5;stroke-dasharray:5.0,5.0;" x1="2017.5" x2="2017.5" y1="579.5781" y2="1561.4531"/><line style="stroke:#181818;stroke-width:0.5;stroke-dasharray:5.0,5.0;" x1="2110.5" x2="2110.5" y1="354.8984" y2="1561.4531"/><rect fill="#E3E3E3" height="49.2188" rx="2.5" ry="2.5" style="stroke:#181818;stroke-width:0.5;" width="161" x="265.5" y="5"/><text fill="#000000" font-family="sans-serif" font-size="14" lengthAdjust="spacing" textLength="142" x="275" y="26.5332">announcementMapper</text><text fill="#000000" font-family="sans-serif" font-size="14" lengthAdjust="spacing" textLength="147" x="272.5" y="44.1426">:AnnouncementMapper</text><rect fill="#E3E3E3" height="49.2188" rx="2.5" ry="2.5" style="stroke:#181818;stroke-width:0.5;" width="161" x="265.5" y="1560.4531"/><text fill="#000000" font-family="sans-serif" font-size="14" lengthAdjust="spacing" textLength="142" x="275" y="1581.9863">announcementMapper</text><text fill="#000000" font-family="sans-serif" font-size="14" lengthAdjust="spacing" textLength="147" x="272.5" y="1599.5957">:AnnouncementMapper</text><rect fill="#E3E3E3" height="49.2188" rx="2.5" ry="2.5" style="stroke:#181818;stroke-width:0.5;" width="71" x="751" y="1560.4531"/><text fill="#000000" font-family="sans-serif" font-size="14" lengthAdjust="spacing" textLength="48" x="762.5" y="1581.9863">request</text><text fill="#000000" font-family="sans-serif" font-size="14" lengthAdjust="spacing" textLength="57" x="758" y="1599.5957">:Request</text><rect fill="#E3E3E3" height="49.2188" rx="2.5" ry="2.5" style="stroke:#181818;stroke-width:0.5;" width="58" x="1191.5" y="1560.4531"/><text fill="#000000" font-family="sans-serif" font-size="14" lengthAdjust="spacing" textLength="39" x="1201" y="1581.9863">house</text><text fill="#000000" font-family="sans-serif" font-size="14" lengthAdjust="spacing" textLength="44" x="1198.5" y="1599.5957">:House</text><rect fill="#E3E3E3" height="49.2188" rx="2.5" ry="2.5" style="stroke:#181818;stroke-width:0.5;" width="72" x="1631.5" y="1560.4531"/><text fill="#000000" font-family="sans-serif" font-size="14" lengthAdjust="spacing" textLength="49" x="1643" y="1581.9863">location</text><text fill="#000000" font-family="sans-serif" font-size="14" lengthAdjust="spacing" textLength="58" x="1638.5" y="1599.5957">:Location</text><rect fill="#E3E3E3" height="49.2188" rx="2.5" ry="2.5" style="stroke:#181818;stroke-width:0.5;" width="142" x="1819.5" y="1560.4531"/><text fill="#000000" font-family="sans-serif" font-size="14" lengthAdjust="spacing" textLength="123" x="1829" y="1581.9863">availableEquipment</text><text fill="#000000" font-family="sans-serif" font-size="14" lengthAdjust="spacing" textLength="128" x="1826.5" y="1599.5957">:AvailableEquipment</text><rect fill="#E3E3E3" height="49.2188" rx="2.5" ry="2.5" style="stroke:#181818;stroke-width:0.5;" width="92" x="1971.5" y="1560.4531"/><text fill="#000000" font-family="sans-serif" font-size="14" lengthAdjust="spacing" textLength="73" x="1981" y="1581.9863">photograph</text><text fill="#000000" font-family="sans-serif" font-size="14" lengthAdjust="spacing" textLength="78" x="1978.5" y="1599.5957">:Photograph</text><rect fill="#E3E3E3" height="49.2188" rx="2.5" ry="2.5" style="stroke:#181818;stroke-width:0.5;" width="75" x="2073.5" y="1560.4531"/><text fill="#000000" font-family="sans-serif" font-size="14" lengthAdjust="spacing" textLength="56" x="2083" y="1581.9863">business</text><text fill="#000000" font-family="sans-serif" font-size="14" lengthAdjust="spacing" textLength="61" x="2080.5" y="1599.5957">:Business</text><rect fill="#FFFFFF" height="1374.125" style="stroke:#181818;stroke-width:1.0;" width="10" x="341" y="169.3281"/><rect fill="#FFFFFF" height="1189.3125" style="stroke:#181818;stroke-width:1.0;" width="10" x="781.5" y="316.7891"/><rect fill="#FFFFFF" height="1002.9844" style="stroke:#181818;stroke-width:1.0;" width="10" x="1215.5" y="472.7656"/><rect fill="#FFFFFF" height="332.3281" style="stroke:#181818;stroke-width:1.0;" width="10" x="1220.5" y="501.1172"/><rect fill="#FFFFFF" height="128.0547" style="stroke:#181818;stroke-width:1.0;" width="10" x="1225.5" y="630.0391"/><rect fill="#FFFFFF" height="41.3516" style="stroke:#181818;stroke-width:1.0;" width="10" x="1230.5" y="673.3906"/><rect fill="#FFFFFF" height="332.3281" style="stroke:#181818;stroke-width:1.0;" width="10" x="1220.5" y="1106.0703"/><rect fill="#FFFFFF" height="128.0547" style="stroke:#181818;stroke-width:1.0;" width="10" x="1225.5" y="1234.9922"/><rect fill="#FFFFFF" height="41.3516" style="stroke:#181818;stroke-width:1.0;" width="10" x="1230.5" y="1278.3438"/><rect fill="#FFFFFF" height="136.9219" style="stroke:#181818;stroke-width:1.0;" width="10" x="1662.5" y="905.7969"/><rect fill="#FFFFFF" height="41.3516" style="stroke:#181818;stroke-width:1.0;" width="10" x="1667.5" y="964.0156"/><polygon fill="#181818" points="329,165.3281,339,169.3281,329,173.3281,333,169.3281" style="stroke:#181818;stroke-width:1.0;"/><line style="stroke:#181818;stroke-width:1.0;" x1="0" x2="335" y1="169.3281" y2="169.3281"/><text fill="#000000" font-family="sans-serif" font-size="13" font-weight="bold" lengthAdjust="spacing" textLength="32" x="7" y="123.5928">46.23</text><text fill="#000000" font-family="sans-serif" font-size="13" lengthAdjust="spacing" textLength="244" x="43" y="82.7139">createSaleRequest(propertyType, amount,</text><text fill="#000000" font-family="sans-serif" font-size="13" lengthAdjust="spacing" textLength="180" x="47" y="99.0654">area, streetName, city, district,</text><text fill="#000000" font-family="sans-serif" font-size="13" lengthAdjust="spacing" textLength="281" x="43" y="115.417">state, zipCode, distanceCityCenter,uriList,agent,</text><text fill="#000000" font-family="sans-serif" font-size="13" lengthAdjust="spacing" textLength="216" x="43" y="131.7686">numberBedrooms,numberBathrooms,</text><text fill="#000000" font-family="sans-serif" font-size="13" lengthAdjust="spacing" textLength="243" x="43" y="148.1201">numberParkingSpace,availableEquipment,</text><text fill="#000000" font-family="sans-serif" font-size="13" lengthAdjust="spacing" textLength="286" x="43" y="164.4717">existenceBasement,inhabitableLoft,sunExposure)</text><path d="M255.5,184.3281 L473.5,184.3281 L473.5,192.6797 L463.5,202.6797 L255.5,202.6797 L255.5,184.3281 " fill="#EEEEEE" style="stroke:#000000;stroke-width:1.5;"/><rect fill="none" height="1329.7734" style="stroke:#000000;stroke-width:1.5;" width="1903" x="255.5" y="184.3281"/><text fill="#000000" font-family="sans-serif" font-size="13" font-weight="bold" lengthAdjust="spacing" textLength="173" x="270.5" y="198.8232">Create House Sale Request</text><polygon fill="#181818" points="739,302.7891,749,306.7891,739,310.7891,743,306.7891" style="stroke:#181818;stroke-width:1.0;"/><line style="stroke:#181818;stroke-width:1.0;" x1="351" x2="745" y1="306.7891" y2="306.7891"/><text fill="#000000" font-family="sans-serif" font-size="13" font-weight="bold" lengthAdjust="spacing" textLength="43" x="358" y="261.0537">46.23.1</text><text fill="#000000" font-family="sans-serif" font-size="13" lengthAdjust="spacing" textLength="244" x="405" y="220.1748">createSaleRequest(propertyType, amount,</text><text fill="#000000" font-family="sans-serif" font-size="13" lengthAdjust="spacing" textLength="180" x="409" y="236.5264">area, streetName, city, district,</text><text fill="#000000" font-family="sans-serif" font-size="13" lengthAdjust="spacing" textLength="206" x="405" y="252.8779">state, zipCode, distanceCityCenter,</text><text fill="#000000" font-family="sans-serif" font-size="13" lengthAdjust="spacing" textLength="216" x="405" y="269.2295">numberBedrooms,numberBathrooms,</text><text fill="#000000" font-family="sans-serif" font-size="13" lengthAdjust="spacing" textLength="329" x="405" y="285.5811">numberParkingSpace,availableEquipmentDescriptionList,</text><text fill="#000000" font-family="sans-serif" font-size="13" lengthAdjust="spacing" textLength="286" x="405" y="301.9326">existenceBasement,inhabitableLoft,sunExposure)</text><rect fill="#E3E3E3" height="49.2188" rx="2.5" ry="2.5" style="stroke:#181818;stroke-width:0.5;" width="71" x="751" y="254.5703"/><text fill="#000000" font-family="sans-serif" font-size="14" lengthAdjust="spacing" textLength="48" x="762.5" y="276.1035">request</text><text fill="#000000" font-family="sans-serif" font-size="14" lengthAdjust="spacing" textLength="57" x="758" y="293.7129">:Request</text><polygon fill="#181818" points="2061.5,333.1406,2071.5,337.1406,2061.5,341.1406,2065.5,337.1406" style="stroke:#181818;stroke-width:1.0;"/><line style="stroke:#181818;stroke-width:1.0;" x1="791.5" x2="2067.5" y1="337.1406" y2="337.1406"/><text fill="#000000" font-family="sans-serif" font-size="13" font-weight="bold" lengthAdjust="spacing" textLength="43" x="798.5" y="332.2842">46.23.2</text><text fill="#000000" font-family="sans-serif" font-size="13" lengthAdjust="spacing" textLength="141" x="845.5" y="332.2842">createBusiness(amount)</text><rect fill="#E3E3E3" height="49.2188" rx="2.5" ry="2.5" style="stroke:#181818;stroke-width:0.5;" width="75" x="2073.5" y="314.7891"/><text fill="#000000" font-family="sans-serif" font-size="14" lengthAdjust="spacing" textLength="56" x="2083" y="336.3223">business</text><text fill="#000000" font-family="sans-serif" font-size="14" lengthAdjust="spacing" textLength="61" x="2080.5" y="353.9316">:Business</text><polygon fill="#181818" points="1179.5,458.7656,1189.5,462.7656,1179.5,466.7656,1183.5,462.7656" style="stroke:#181818;stroke-width:1.0;"/><line style="stroke:#181818;stroke-width:1.0;" x1="791.5" x2="1185.5" y1="462.7656" y2="462.7656"/><text fill="#000000" font-family="sans-serif" font-size="13" font-weight="bold" lengthAdjust="spacing" textLength="43" x="798.5" y="425.2061">46.23.3</text><text fill="#000000" font-family="sans-serif" font-size="13" lengthAdjust="spacing" textLength="257" x="845.5" y="392.5029">createHouse(area, streetName, city, district,</text><text fill="#000000" font-family="sans-serif" font-size="13" lengthAdjust="spacing" textLength="206" x="845.5" y="408.8545">state, zipCode, distanceCityCenter,</text><text fill="#000000" font-family="sans-serif" font-size="13" lengthAdjust="spacing" textLength="216" x="845.5" y="425.2061">numberBedrooms,numberBathrooms,</text><text fill="#000000" font-family="sans-serif" font-size="13" lengthAdjust="spacing" textLength="329" x="845.5" y="441.5576">numberParkingSpace,availableEquipmentDescriptionList,</text><text fill="#000000" font-family="sans-serif" font-size="13" lengthAdjust="spacing" textLength="286" x="845.5" y="457.9092">existenceBasement,inhabitableLoft,sunExposure)</text><rect fill="#E3E3E3" height="49.2188" rx="2.5" ry="2.5" style="stroke:#181818;stroke-width:0.5;" width="58" x="1191.5" y="410.5469"/><text fill="#000000" font-family="sans-serif" font-size="14" lengthAdjust="spacing" textLength="39" x="1201" y="432.0801">house</text><text fill="#000000" font-family="sans-serif" font-size="14" lengthAdjust="spacing" textLength="44" x="1198.5" y="449.6895">:House</text><line style="stroke:#181818;stroke-width:1.0;" x1="1225.5" x2="1272.5" y1="488.1172" y2="488.1172"/><line style="stroke:#181818;stroke-width:1.0;" x1="1272.5" x2="1272.5" y1="488.1172" y2="501.1172"/><line style="stroke:#181818;stroke-width:1.0;" x1="1231.5" x2="1272.5" y1="501.1172" y2="501.1172"/><polygon fill="#181818" points="1241.5,497.1172,1231.5,501.1172,1241.5,505.1172,1237.5,501.1172" style="stroke:#181818;stroke-width:1.0;"/><text fill="#000000" font-family="sans-serif" font-size="13" font-weight="bold" lengthAdjust="spacing" textLength="43" x="1237.5" y="483.2607">46.23.4</text><text fill="#000000" font-family="sans-serif" font-size="13" lengthAdjust="spacing" textLength="142" x="1284.5" y="483.2607">fillPhotographList(uriList)</text><path d="M1181.5,521.1172 L1254.5,521.1172 L1254.5,529.4688 L1244.5,539.4688 L1181.5,539.4688 L1181.5,521.1172 " fill="#EEEEEE" style="stroke:#000000;stroke-width:1.5;"/><rect fill="none" height="276.9766" style="stroke:#000000;stroke-width:1.5;" width="892" x="1181.5" y="521.1172"/><text fill="#000000" font-family="sans-serif" font-size="13" font-weight="bold" lengthAdjust="spacing" textLength="28" x="1196.5" y="535.6123">loop</text><text fill="#000000" font-family="sans-serif" font-size="11" font-weight="bold" lengthAdjust="spacing" textLength="71" x="1269.5" y="534.5361">[for each uri]</text><polygon fill="#181818" points="1959.5,557.8203,1969.5,561.8203,1959.5,565.8203,1963.5,561.8203" style="stroke:#181818;stroke-width:1.0;"/><line style="stroke:#181818;stroke-width:1.0;" x1="1230.5" x2="1965.5" y1="561.8203" y2="561.8203"/><text fill="#000000" font-family="sans-serif" font-size="13" font-weight="bold" lengthAdjust="spacing" textLength="43" x="1237.5" y="556.9639">46.23.5</text><text fill="#000000" font-family="sans-serif" font-size="13" lengthAdjust="spacing" textLength="58" x="1284.5" y="556.9639">create(uri)</text><rect fill="#E3E3E3" height="49.2188" rx="2.5" ry="2.5" style="stroke:#181818;stroke-width:0.5;" width="92" x="1971.5" y="539.4688"/><text fill="#000000" font-family="sans-serif" font-size="14" lengthAdjust="spacing" textLength="73" x="1981" y="561.002">photograph</text><text fill="#000000" font-family="sans-serif" font-size="14" lengthAdjust="spacing" textLength="78" x="1978.5" y="578.6113">:Photograph</text><line style="stroke:#181818;stroke-width:1.0;" x1="1230.5" x2="1277.5" y1="617.0391" y2="617.0391"/><line style="stroke:#181818;stroke-width:1.0;" x1="1277.5" x2="1277.5" y1="617.0391" y2="630.0391"/><line style="stroke:#181818;stroke-width:1.0;" x1="1236.5" x2="1277.5" y1="630.0391" y2="630.0391"/><polygon fill="#181818" points="1246.5,626.0391,1236.5,630.0391,1246.5,634.0391,1242.5,630.0391" style="stroke:#181818;stroke-width:1.0;"/><text fill="#000000" font-family="sans-serif" font-size="13" font-weight="bold" lengthAdjust="spacing" textLength="43" x="1242.5" y="612.1826">46.23.6</text><text fill="#000000" font-family="sans-serif" font-size="13" lengthAdjust="spacing" textLength="159" x="1289.5" y="612.1826">addPhotograph(photograph)</text><line style="stroke:#181818;stroke-width:1.0;" x1="1235.5" x2="1282.5" y1="660.3906" y2="660.3906"/><line style="stroke:#181818;stroke-width:1.0;" x1="1282.5" x2="1282.5" y1="660.3906" y2="673.3906"/><line style="stroke:#181818;stroke-width:1.0;" x1="1241.5" x2="1282.5" y1="673.3906" y2="673.3906"/><polygon fill="#181818" points="1251.5,669.3906,1241.5,673.3906,1251.5,677.3906,1247.5,673.3906" style="stroke:#181818;stroke-width:1.0;"/><text fill="#000000" font-family="sans-serif" font-size="13" font-weight="bold" lengthAdjust="spacing" textLength="43" x="1247.5" y="655.5342">46.23.7</text><text fill="#000000" font-family="sans-serif" font-size="13" lengthAdjust="spacing" textLength="115" x="1294.5" y="655.5342">validate(photograph)</text><line style="stroke:#181818;stroke-width:1.0;stroke-dasharray:2.0,2.0;" x1="1240.5" x2="1282.5" y1="713.7422" y2="713.7422"/><line style="stroke:#181818;stroke-width:1.0;stroke-dasharray:2.0,2.0;" x1="1282.5" x2="1282.5" y1="713.7422" y2="726.7422"/><line style="stroke:#181818;stroke-width:1.0;stroke-dasharray:2.0,2.0;" x1="1235.5" x2="1282.5" y1="726.7422" y2="726.7422"/><polygon fill="#181818" points="1245.5,722.7422,1235.5,726.7422,1245.5,730.7422,1241.5,726.7422" style="stroke:#181818;stroke-width:1.0;"/><text fill="#000000" font-family="sans-serif" font-size="13" font-weight="bold" lengthAdjust="spacing" textLength="43" x="1247.5" y="708.8857">46.23.8</text><text fill="#000000" font-family="sans-serif" font-size="13" lengthAdjust="spacing" textLength="4" x="1294.5" y="708.8857"> </text><line style="stroke:#181818;stroke-width:1.0;stroke-dasharray:2.0,2.0;" x1="1235.5" x2="1277.5" y1="757.0938" y2="757.0938"/><line style="stroke:#181818;stroke-width:1.0;stroke-dasharray:2.0,2.0;" x1="1277.5" x2="1277.5" y1="757.0938" y2="770.0938"/><line style="stroke:#181818;stroke-width:1.0;stroke-dasharray:2.0,2.0;" x1="1230.5" x2="1277.5" y1="770.0938" y2="770.0938"/><polygon fill="#181818" points="1240.5,766.0938,1230.5,770.0938,1240.5,774.0938,1236.5,770.0938" style="stroke:#181818;stroke-width:1.0;"/><text fill="#000000" font-family="sans-serif" font-size="13" font-weight="bold" lengthAdjust="spacing" textLength="43" x="1242.5" y="752.2373">46.23.9</text><text fill="#000000" font-family="sans-serif" font-size="13" lengthAdjust="spacing" textLength="4" x="1289.5" y="752.2373"> </text><line style="stroke:#181818;stroke-width:1.0;stroke-dasharray:2.0,2.0;" x1="1230.5" x2="1272.5" y1="832.4453" y2="832.4453"/><line style="stroke:#181818;stroke-width:1.0;stroke-dasharray:2.0,2.0;" x1="1272.5" x2="1272.5" y1="832.4453" y2="845.4453"/><line style="stroke:#181818;stroke-width:1.0;stroke-dasharray:2.0,2.0;" x1="1225.5" x2="1272.5" y1="845.4453" y2="845.4453"/><polygon fill="#181818" points="1235.5,841.4453,1225.5,845.4453,1235.5,849.4453,1231.5,845.4453" style="stroke:#181818;stroke-width:1.0;"/><text fill="#000000" font-family="sans-serif" font-size="13" font-weight="bold" lengthAdjust="spacing" textLength="50" x="1237.5" y="827.5889">46.23.10</text><text fill="#000000" font-family="sans-serif" font-size="13" lengthAdjust="spacing" textLength="4" x="1291.5" y="827.5889"> </text><polygon fill="#181818" points="1619.5,891.7969,1629.5,895.7969,1619.5,899.7969,1623.5,895.7969" style="stroke:#181818;stroke-width:1.0;"/><line style="stroke:#181818;stroke-width:1.0;" x1="1225.5" x2="1625.5" y1="895.7969" y2="895.7969"/><text fill="#000000" font-family="sans-serif" font-size="13" font-weight="bold" lengthAdjust="spacing" textLength="50" x="1232.5" y="890.9404">46.23.11</text><text fill="#000000" font-family="sans-serif" font-size="13" lengthAdjust="spacing" textLength="328" x="1286.5" y="890.9404">createLocation(streetName, city, district, state, zipCode)</text><rect fill="#E3E3E3" height="49.2188" rx="2.5" ry="2.5" style="stroke:#181818;stroke-width:0.5;" width="72" x="1631.5" y="873.4453"/><text fill="#000000" font-family="sans-serif" font-size="14" lengthAdjust="spacing" textLength="49" x="1643" y="894.9785">location</text><text fill="#000000" font-family="sans-serif" font-size="14" lengthAdjust="spacing" textLength="58" x="1638.5" y="912.5879">:Location</text><line style="stroke:#181818;stroke-width:1.0;" x1="1672.5" x2="1719.5" y1="951.0156" y2="951.0156"/><line style="stroke:#181818;stroke-width:1.0;" x1="1719.5" x2="1719.5" y1="951.0156" y2="964.0156"/><line style="stroke:#181818;stroke-width:1.0;" x1="1678.5" x2="1719.5" y1="964.0156" y2="964.0156"/><polygon fill="#181818" points="1688.5,960.0156,1678.5,964.0156,1688.5,968.0156,1684.5,964.0156" style="stroke:#181818;stroke-width:1.0;"/><text fill="#000000" font-family="sans-serif" font-size="13" font-weight="bold" lengthAdjust="spacing" textLength="50" x="1684.5" y="946.1592">46.23.12</text><text fill="#000000" font-family="sans-serif" font-size="13" lengthAdjust="spacing" textLength="145" x="1738.5" y="946.1592">validateLocation(location)</text><line style="stroke:#181818;stroke-width:1.0;stroke-dasharray:2.0,2.0;" x1="1677.5" x2="1719.5" y1="1004.3672" y2="1004.3672"/><line style="stroke:#181818;stroke-width:1.0;stroke-dasharray:2.0,2.0;" x1="1719.5" x2="1719.5" y1="1004.3672" y2="1017.3672"/><line style="stroke:#181818;stroke-width:1.0;stroke-dasharray:2.0,2.0;" x1="1672.5" x2="1719.5" y1="1017.3672" y2="1017.3672"/><polygon fill="#181818" points="1682.5,1013.3672,1672.5,1017.3672,1682.5,1021.3672,1678.5,1017.3672" style="stroke:#181818;stroke-width:1.0;"/><text fill="#000000" font-family="sans-serif" font-size="13" font-weight="bold" lengthAdjust="spacing" textLength="50" x="1684.5" y="999.5107">46.23.13</text><text fill="#000000" font-family="sans-serif" font-size="13" lengthAdjust="spacing" textLength="4" x="1738.5" y="999.5107"> </text><polygon fill="#181818" points="1236.5,1038.7188,1226.5,1042.7188,1236.5,1046.7188,1232.5,1042.7188" style="stroke:#181818;stroke-width:1.0;"/><line style="stroke:#181818;stroke-width:1.0;stroke-dasharray:2.0,2.0;" x1="1230.5" x2="1666.5" y1="1042.7188" y2="1042.7188"/><text fill="#000000" font-family="sans-serif" font-size="13" font-weight="bold" lengthAdjust="spacing" textLength="50" x="1242.5" y="1037.8623">46.23.14</text><text fill="#000000" font-family="sans-serif" font-size="13" lengthAdjust="spacing" textLength="45" x="1296.5" y="1037.8623">location</text><line style="stroke:#181818;stroke-width:1.0;" x1="1225.5" x2="1272.5" y1="1093.0703" y2="1093.0703"/><line style="stroke:#181818;stroke-width:1.0;" x1="1272.5" x2="1272.5" y1="1093.0703" y2="1106.0703"/><line style="stroke:#181818;stroke-width:1.0;" x1="1231.5" x2="1272.5" y1="1106.0703" y2="1106.0703"/><polygon fill="#181818" points="1241.5,1102.0703,1231.5,1106.0703,1241.5,1110.0703,1237.5,1106.0703" style="stroke:#181818;stroke-width:1.0;"/><text fill="#000000" font-family="sans-serif" font-size="13" font-weight="bold" lengthAdjust="spacing" textLength="50" x="1237.5" y="1088.2139">46.23.15</text><text fill="#000000" font-family="sans-serif" font-size="13" lengthAdjust="spacing" textLength="351" x="1291.5" y="1088.2139">fillAvailableEquipmentList(availableEquipmentDescriptionList)</text><path d="M1181.5,1126.0703 L1254.5,1126.0703 L1254.5,1134.4219 L1244.5,1144.4219 L1181.5,1144.4219 L1181.5,1126.0703 " fill="#EEEEEE" style="stroke:#000000;stroke-width:1.5;"/><rect fill="none" height="276.9766" style="stroke:#000000;stroke-width:1.5;" width="790" x="1181.5" y="1126.0703"/><text fill="#000000" font-family="sans-serif" font-size="13" font-weight="bold" lengthAdjust="spacing" textLength="28" x="1196.5" y="1140.5654">loop</text><text fill="#000000" font-family="sans-serif" font-size="11" font-weight="bold" lengthAdjust="spacing" textLength="225" x="1269.5" y="1139.4893">[for each availableEquipmentDescription]</text><polygon fill="#181818" points="1807.5,1162.7734,1817.5,1166.7734,1807.5,1170.7734,1811.5,1166.7734" style="stroke:#181818;stroke-width:1.0;"/><line style="stroke:#181818;stroke-width:1.0;" x1="1230.5" x2="1813.5" y1="1166.7734" y2="1166.7734"/><text fill="#000000" font-family="sans-serif" font-size="13" font-weight="bold" lengthAdjust="spacing" textLength="50" x="1237.5" y="1161.917">46.23.16</text><text fill="#000000" font-family="sans-serif" font-size="13" lengthAdjust="spacing" textLength="220" x="1291.5" y="1161.917">create(availableEquipmentDescription)</text><rect fill="#E3E3E3" height="49.2188" rx="2.5" ry="2.5" style="stroke:#181818;stroke-width:0.5;" width="142" x="1819.5" y="1144.4219"/><text fill="#000000" font-family="sans-serif" font-size="14" lengthAdjust="spacing" textLength="123" x="1829" y="1165.9551">availableEquipment</text><text fill="#000000" font-family="sans-serif" font-size="14" lengthAdjust="spacing" textLength="128" x="1826.5" y="1183.5645">:AvailableEquipment</text><line style="stroke:#181818;stroke-width:1.0;" x1="1230.5" x2="1277.5" y1="1221.9922" y2="1221.9922"/><line style="stroke:#181818;stroke-width:1.0;" x1="1277.5" x2="1277.5" y1="1221.9922" y2="1234.9922"/><line style="stroke:#181818;stroke-width:1.0;" x1="1236.5" x2="1277.5" y1="1234.9922" y2="1234.9922"/><polygon fill="#181818" points="1246.5,1230.9922,1236.5,1234.9922,1246.5,1238.9922,1242.5,1234.9922" style="stroke:#181818;stroke-width:1.0;"/><text fill="#000000" font-family="sans-serif" font-size="13" font-weight="bold" lengthAdjust="spacing" textLength="50" x="1242.5" y="1217.1357">46.23.17</text><text fill="#000000" font-family="sans-serif" font-size="13" lengthAdjust="spacing" textLength="253" x="1296.5" y="1217.1357">addAvailableEquipment(availableEquipment)</text><line style="stroke:#181818;stroke-width:1.0;" x1="1235.5" x2="1282.5" y1="1265.3438" y2="1265.3438"/><line style="stroke:#181818;stroke-width:1.0;" x1="1282.5" x2="1282.5" y1="1265.3438" y2="1278.3438"/><line style="stroke:#181818;stroke-width:1.0;" x1="1241.5" x2="1282.5" y1="1278.3438" y2="1278.3438"/><polygon fill="#181818" points="1251.5,1274.3438,1241.5,1278.3438,1251.5,1282.3438,1247.5,1278.3438" style="stroke:#181818;stroke-width:1.0;"/><text fill="#000000" font-family="sans-serif" font-size="13" font-weight="bold" lengthAdjust="spacing" textLength="50" x="1247.5" y="1260.4873">46.23.18</text><text fill="#000000" font-family="sans-serif" font-size="13" lengthAdjust="spacing" textLength="162" x="1301.5" y="1260.4873">validate(availableEquipment)</text><line style="stroke:#181818;stroke-width:1.0;stroke-dasharray:2.0,2.0;" x1="1240.5" x2="1282.5" y1="1318.6953" y2="1318.6953"/><line style="stroke:#181818;stroke-width:1.0;stroke-dasharray:2.0,2.0;" x1="1282.5" x2="1282.5" y1="1318.6953" y2="1331.6953"/><line style="stroke:#181818;stroke-width:1.0;stroke-dasharray:2.0,2.0;" x1="1235.5" x2="1282.5" y1="1331.6953" y2="1331.6953"/><polygon fill="#181818" points="1245.5,1327.6953,1235.5,1331.6953,1245.5,1335.6953,1241.5,1331.6953" style="stroke:#181818;stroke-width:1.0;"/><text fill="#000000" font-family="sans-serif" font-size="13" font-weight="bold" lengthAdjust="spacing" textLength="50" x="1247.5" y="1313.8389">46.23.19</text><text fill="#000000" font-family="sans-serif" font-size="13" lengthAdjust="spacing" textLength="4" x="1301.5" y="1313.8389"> </text><line style="stroke:#181818;stroke-width:1.0;stroke-dasharray:2.0,2.0;" x1="1235.5" x2="1277.5" y1="1362.0469" y2="1362.0469"/><line style="stroke:#181818;stroke-width:1.0;stroke-dasharray:2.0,2.0;" x1="1277.5" x2="1277.5" y1="1362.0469" y2="1375.0469"/><line style="stroke:#181818;stroke-width:1.0;stroke-dasharray:2.0,2.0;" x1="1230.5" x2="1277.5" y1="1375.0469" y2="1375.0469"/><polygon fill="#181818" points="1240.5,1371.0469,1230.5,1375.0469,1240.5,1379.0469,1236.5,1375.0469" style="stroke:#181818;stroke-width:1.0;"/><text fill="#000000" font-family="sans-serif" font-size="13" font-weight="bold" lengthAdjust="spacing" textLength="50" x="1242.5" y="1357.1904">46.23.20</text><text fill="#000000" font-family="sans-serif" font-size="13" lengthAdjust="spacing" textLength="4" x="1296.5" y="1357.1904"> </text><line style="stroke:#181818;stroke-width:1.0;stroke-dasharray:2.0,2.0;" x1="1230.5" x2="1272.5" y1="1437.3984" y2="1437.3984"/><line style="stroke:#181818;stroke-width:1.0;stroke-dasharray:2.0,2.0;" x1="1272.5" x2="1272.5" y1="1437.3984" y2="1450.3984"/><line style="stroke:#181818;stroke-width:1.0;stroke-dasharray:2.0,2.0;" x1="1225.5" x2="1272.5" y1="1450.3984" y2="1450.3984"/><polygon fill="#181818" points="1235.5,1446.3984,1225.5,1450.3984,1235.5,1454.3984,1231.5,1450.3984" style="stroke:#181818;stroke-width:1.0;"/><text fill="#000000" font-family="sans-serif" font-size="13" font-weight="bold" lengthAdjust="spacing" textLength="50" x="1237.5" y="1432.542">46.23.21</text><text fill="#000000" font-family="sans-serif" font-size="13" lengthAdjust="spacing" textLength="132" x="1291.5" y="1432.542">availableEquipmentList</text><polygon fill="#181818" points="802.5,1471.75,792.5,1475.75,802.5,1479.75,798.5,1475.75" style="stroke:#181818;stroke-width:1.0;"/><line style="stroke:#181818;stroke-width:1.0;stroke-dasharray:2.0,2.0;" x1="796.5" x2="1219.5" y1="1475.75" y2="1475.75"/><text fill="#000000" font-family="sans-serif" font-size="13" font-weight="bold" lengthAdjust="spacing" textLength="50" x="808.5" y="1470.8936">46.23.22</text><text fill="#000000" font-family="sans-serif" font-size="13" lengthAdjust="spacing" textLength="35" x="862.5" y="1470.8936">house</text><polygon fill="#181818" points="362,1502.1016,352,1506.1016,362,1510.1016,358,1506.1016" style="stroke:#181818;stroke-width:1.0;"/><line style="stroke:#181818;stroke-width:1.0;stroke-dasharray:2.0,2.0;" x1="356" x2="785.5" y1="1506.1016" y2="1506.1016"/><text fill="#000000" font-family="sans-serif" font-size="13" font-weight="bold" lengthAdjust="spacing" textLength="50" x="368" y="1501.2451">46.23.23</text><text fill="#000000" font-family="sans-serif" font-size="13" lengthAdjust="spacing" textLength="43" x="422" y="1501.2451">request</text><polygon fill="#181818" points="11,1539.4531,1,1543.4531,11,1547.4531,7,1543.4531" style="stroke:#181818;stroke-width:1.0;"/><line style="stroke:#181818;stroke-width:1.0;stroke-dasharray:2.0,2.0;" x1="5" x2="345" y1="1543.4531" y2="1543.4531"/><text fill="#000000" font-family="sans-serif" font-size="13" font-weight="bold" lengthAdjust="spacing" textLength="32" x="17" y="1538.5967">46.24</text><text fill="#000000" font-family="sans-serif" font-size="13" lengthAdjust="spacing" textLength="43" x="53" y="1538.5967">request</text><!--SRC=[tLTTRzem57tFhx3s12XKsbRj0KsJW26r4YsieMzzCSc5M4rirtQwClN7pt7YVDHj2epjORoGsESU7ywzlZRodb2E1KvHoYWBOy5IG4fauCbgXkFm7cyXKBi4a81GORfDcW0PuuZz97IBDZYHu7bwM96GS4mL-e0fPHaD8GMghZ3d8ExeQEmCVa1OeglnSZcxQSSBUCX0AXrqKpmPvCtin-qiMBMXCSiaQE15_crW5ulRODO69Ip4YZ2gSVFoqK3dY-buTRcuVg7-4PC4hnEOFMI4vt9pzSwWOHXhJPVBTZoFcM9RWNciuvRLYy4lBnQhHHk-pYIX8AK6Jyf70vtS1fVNio3mF0zdYj4iNOD0vr_EFdtsFDJu3B-L9g8H2WLW1G5Ee7IknmNJLglTQiV1HpZLEL3-7KLO8tqabG1GrpZLSo5HEnz5H8-HCCT8fRbyz8lmAOkWcC8wWrCDd6e7GFYP87CzwkjYCRI5oWb4Wh5K-kKhLd7nRW5BB7GfRGDTP-2xVciSF6bQq8jDi3GbunCQupLHEN3EDigN6PqzSIOp0VsM7pXKv54hjwNbs7VsiJ1mArZ6qTHOXam1eTmvL5fNkrpQguqkQn0D1l_UwrEv-nraA0ZFTu79tT5cLqRRdTbAG-MLjitMyc1GrQYjzLvXK_z5S3lUxEb6i4bMxp-rrR6tw6ZEV35UsJD26v8aTR_9HVJA_UcIly-UCCRHXWa4E8oH9kfIOFfQlIdoTVjxACPHL0lkrOtp6BqlkHznGg9SoqbeAruN4S7V874Gpy_FxY3Go2JgHCBtNBMosXwWZQrf3zXUnxv4xMtPbPRgY7OnTgef1DLvhuJOq_yFbnasbkdqSY_9DYrQiDMt9-cXERBBvDt1lSMOBl5kCpjYuxJRH-SARd0blhXVDHfB9r6_WydQe5kEwy8hj8VtOsUfgWETaBsczmxlGqTml5zgRxGWPwrNQY0lBU-GbbIJsil129b_0Dx-HbJNYkQzkVp7yHQDlU2KlzUvKfxNWL-7GzJ1so2rrzFV]--></g></svg>