<?xml version="1.0" encoding="UTF-8" standalone="no"?><svg xmlns="http://www.w3.org/2000/svg" xmlns:xlink="http://www.w3.org/1999/xlink" contentStyleType="text/css" height="1129px" preserveAspectRatio="none" style="width:1971px;height:1129px;background:#FFFFFF;" version="1.1" viewBox="0 0 1971 1129" width="1971px" zoomAndPan="magnify"><defs/><g><rect fill="#FFFFFF" height="901.625" style="stroke:#181818;stroke-width:1.0;" width="10" x="336" y="137.8828"/><rect fill="#FFFFFF" height="765.8672" style="stroke:#181818;stroke-width:1.0;" width="10" x="728.5" y="236.2891"/><rect fill="#FFFFFF" height="613.8203" style="stroke:#181818;stroke-width:1.0;" width="10" x="1224.5" y="357.9844"/><rect fill="#FFFFFF" height="332.3281" style="stroke:#181818;stroke-width:1.0;" width="10" x="1229.5" y="399.8516"/><rect fill="#FFFFFF" height="128.0547" style="stroke:#181818;stroke-width:1.0;" width="10" x="1234.5" y="528.7734"/><rect fill="#FFFFFF" height="41.3516" style="stroke:#181818;stroke-width:1.0;" width="10" x="1239.5" y="572.125"/><rect fill="#FFFFFF" height="136.9219" style="stroke:#181818;stroke-width:1.0;" width="10" x="1671.5" y="804.5313"/><rect fill="#FFFFFF" height="41.3516" style="stroke:#181818;stroke-width:1.0;" width="10" x="1676.5" y="862.75"/><rect fill="none" height="857.2734" style="stroke:#000000;stroke-width:1.5;" width="1715" x="250.5" y="152.8828"/><rect fill="none" height="276.9766" style="stroke:#000000;stroke-width:1.5;" width="772" x="1183.5" y="419.8516"/><line style="stroke:#181818;stroke-width:0.5;stroke-dasharray:5.0,5.0;" x1="340.5" x2="340.5" y1="72.8281" y2="1057.5078"/><line style="stroke:#181818;stroke-width:0.5;stroke-dasharray:5.0,5.0;" x1="733" x2="733" y1="220.1484" y2="1057.5078"/><line style="stroke:#181818;stroke-width:0.5;stroke-dasharray:5.0,5.0;" x1="987.5" x2="987.5" y1="289.1719" y2="1057.5078"/><line style="stroke:#181818;stroke-width:0.5;stroke-dasharray:5.0,5.0;" x1="1229.5" x2="1229.5" y1="349.3906" y2="1057.5078"/><line style="stroke:#181818;stroke-width:0.5;stroke-dasharray:5.0,5.0;" x1="1676.5" x2="1676.5" y1="812.2891" y2="1057.5078"/><line style="stroke:#181818;stroke-width:0.5;stroke-dasharray:5.0,5.0;" x1="1899.5" x2="1899.5" y1="478.3125" y2="1057.5078"/><rect fill="#E3E3E3" height="49.2188" rx="2.5" ry="2.5" style="stroke:#181818;stroke-width:0.5;" width="161" x="260.5" y="22.6094"/><text fill="#000000" font-family="sans-serif" font-size="14" lengthAdjust="spacing" textLength="142" x="270" y="44.1426">announcementMapper</text><text fill="#000000" font-family="sans-serif" font-size="14" lengthAdjust="spacing" textLength="147" x="267.5" y="61.752">:AnnouncementMapper</text><rect fill="#E3E3E3" height="49.2188" rx="2.5" ry="2.5" style="stroke:#181818;stroke-width:0.5;" width="161" x="260.5" y="1056.5078"/><text fill="#000000" font-family="sans-serif" font-size="14" lengthAdjust="spacing" textLength="142" x="270" y="1078.041">announcementMapper</text><text fill="#000000" font-family="sans-serif" font-size="14" lengthAdjust="spacing" textLength="147" x="267.5" y="1095.6504">:AnnouncementMapper</text><rect fill="#E3E3E3" height="66.8281" rx="2.5" ry="2.5" style="stroke:#181818;stroke-width:0.5;" width="71" x="698" y="1056.5078"/><text fill="#000000" font-family="sans-serif" font-size="14" lengthAdjust="spacing" textLength="48" x="709.5" y="1078.041">request</text><text fill="#000000" font-family="sans-serif" font-size="14" lengthAdjust="spacing" textLength="57" x="705" y="1095.6504">:Request</text><text fill="#000000" font-family="sans-serif" font-size="14" lengthAdjust="spacing" textLength="4" x="731.5" y="1113.2598"> </text><rect fill="#E3E3E3" height="49.2188" rx="2.5" ry="2.5" style="stroke:#181818;stroke-width:0.5;" width="75" x="950.5" y="1056.5078"/><text fill="#000000" font-family="sans-serif" font-size="14" lengthAdjust="spacing" textLength="56" x="960" y="1078.041">business</text><text fill="#000000" font-family="sans-serif" font-size="14" lengthAdjust="spacing" textLength="61" x="957.5" y="1095.6504">:Business</text><rect fill="#E3E3E3" height="49.2188" rx="2.5" ry="2.5" style="stroke:#181818;stroke-width:0.5;" width="72" x="1193.5" y="1056.5078"/><text fill="#000000" font-family="sans-serif" font-size="14" lengthAdjust="spacing" textLength="53" x="1203" y="1078.041">property</text><text fill="#000000" font-family="sans-serif" font-size="14" lengthAdjust="spacing" textLength="58" x="1200.5" y="1095.6504">:Property</text><rect fill="#E3E3E3" height="49.2188" rx="2.5" ry="2.5" style="stroke:#181818;stroke-width:0.5;" width="72" x="1640.5" y="1056.5078"/><text fill="#000000" font-family="sans-serif" font-size="14" lengthAdjust="spacing" textLength="49" x="1652" y="1078.041">location</text><text fill="#000000" font-family="sans-serif" font-size="14" lengthAdjust="spacing" textLength="58" x="1647.5" y="1095.6504">:Location</text><rect fill="#E3E3E3" height="49.2188" rx="2.5" ry="2.5" style="stroke:#181818;stroke-width:0.5;" width="92" x="1853.5" y="1056.5078"/><text fill="#000000" font-family="sans-serif" font-size="14" lengthAdjust="spacing" textLength="73" x="1863" y="1078.041">photograph</text><text fill="#000000" font-family="sans-serif" font-size="14" lengthAdjust="spacing" textLength="78" x="1860.5" y="1095.6504">:Photograph</text><rect fill="#FFFFFF" height="901.625" style="stroke:#181818;stroke-width:1.0;" width="10" x="336" y="137.8828"/><rect fill="#FFFFFF" height="765.8672" style="stroke:#181818;stroke-width:1.0;" width="10" x="728.5" y="236.2891"/><rect fill="#FFFFFF" height="613.8203" style="stroke:#181818;stroke-width:1.0;" width="10" x="1224.5" y="357.9844"/><rect fill="#FFFFFF" height="332.3281" style="stroke:#181818;stroke-width:1.0;" width="10" x="1229.5" y="399.8516"/><rect fill="#FFFFFF" height="128.0547" style="stroke:#181818;stroke-width:1.0;" width="10" x="1234.5" y="528.7734"/><rect fill="#FFFFFF" height="41.3516" style="stroke:#181818;stroke-width:1.0;" width="10" x="1239.5" y="572.125"/><rect fill="#FFFFFF" height="136.9219" style="stroke:#181818;stroke-width:1.0;" width="10" x="1671.5" y="804.5313"/><rect fill="#FFFFFF" height="41.3516" style="stroke:#181818;stroke-width:1.0;" width="10" x="1676.5" y="862.75"/><polygon fill="#181818" points="324,133.8828,334,137.8828,324,141.8828,328,137.8828" style="stroke:#181818;stroke-width:1.0;"/><line style="stroke:#181818;stroke-width:1.0;" x1="0" x2="330" y1="137.8828" y2="137.8828"/><text fill="#000000" font-family="sans-serif" font-size="13" font-weight="bold" lengthAdjust="spacing" textLength="32" x="7" y="116.6748">46.12</text><text fill="#000000" font-family="sans-serif" font-size="13" lengthAdjust="spacing" textLength="244" x="43" y="100.3232">createSaleRequest(propertyType, amount,</text><text fill="#000000" font-family="sans-serif" font-size="13" lengthAdjust="spacing" textLength="180" x="47" y="116.6748">area, streetName, city, district,</text><text fill="#000000" font-family="sans-serif" font-size="13" lengthAdjust="spacing" textLength="281" x="43" y="133.0264">state, zipCode, distanceCityCenter,uriList,agent)</text><path d="M250.5,152.8828 L483.5,152.8828 L483.5,161.2344 L473.5,171.2344 L250.5,171.2344 L250.5,152.8828 " fill="#EEEEEE" style="stroke:#000000;stroke-width:1.5;"/><rect fill="none" height="857.2734" style="stroke:#000000;stroke-width:1.5;" width="1715" x="250.5" y="152.8828"/><text fill="#000000" font-family="sans-serif" font-size="13" font-weight="bold" lengthAdjust="spacing" textLength="188" x="265.5" y="167.3779">Create Property Sale Request</text><polygon fill="#181818" points="686,222.2891,696,226.2891,686,230.2891,690,226.2891" style="stroke:#181818;stroke-width:1.0;"/><line style="stroke:#181818;stroke-width:1.0;" x1="346" x2="692" y1="226.2891" y2="226.2891"/><text fill="#000000" font-family="sans-serif" font-size="13" font-weight="bold" lengthAdjust="spacing" textLength="43" x="353" y="205.0811">46.12.1</text><text fill="#000000" font-family="sans-serif" font-size="13" lengthAdjust="spacing" textLength="244" x="400" y="188.7295">createSaleRequest(propertyType, amount,</text><text fill="#000000" font-family="sans-serif" font-size="13" lengthAdjust="spacing" textLength="180" x="404" y="205.0811">area, streetName, city, district,</text><text fill="#000000" font-family="sans-serif" font-size="13" lengthAdjust="spacing" textLength="281" x="400" y="221.4326">state, zipCode, distanceCityCenter,uriList,agent)</text><rect fill="#E3E3E3" height="66.8281" rx="2.5" ry="2.5" style="stroke:#181818;stroke-width:0.5;" width="71" x="698" y="171.2344"/><text fill="#000000" font-family="sans-serif" font-size="14" lengthAdjust="spacing" textLength="48" x="709.5" y="192.7676">request</text><text fill="#000000" font-family="sans-serif" font-size="14" lengthAdjust="spacing" textLength="57" x="705" y="210.377">:Request</text><text fill="#000000" font-family="sans-serif" font-size="14" lengthAdjust="spacing" textLength="4" x="731.5" y="227.9863"> </text><polygon fill="#181818" points="938.5,267.4141,948.5,271.4141,938.5,275.4141,942.5,271.4141" style="stroke:#181818;stroke-width:1.0;"/><line style="stroke:#181818;stroke-width:1.0;" x1="738.5" x2="944.5" y1="271.4141" y2="271.4141"/><text fill="#000000" font-family="sans-serif" font-size="13" font-weight="bold" lengthAdjust="spacing" textLength="43" x="745.5" y="266.5576">46.12.2</text><text fill="#000000" font-family="sans-serif" font-size="13" lengthAdjust="spacing" textLength="141" x="792.5" y="266.5576">createBusiness(amount)</text><rect fill="#E3E3E3" height="49.2188" rx="2.5" ry="2.5" style="stroke:#181818;stroke-width:0.5;" width="75" x="950.5" y="249.0625"/><text fill="#000000" font-family="sans-serif" font-size="14" lengthAdjust="spacing" textLength="56" x="960" y="270.5957">business</text><text fill="#000000" font-family="sans-serif" font-size="14" lengthAdjust="spacing" textLength="61" x="957.5" y="288.2051">:Business</text><polygon fill="#181818" points="1181.5,343.9844,1191.5,347.9844,1181.5,351.9844,1185.5,347.9844" style="stroke:#181818;stroke-width:1.0;"/><line style="stroke:#181818;stroke-width:1.0;" x1="738.5" x2="1187.5" y1="347.9844" y2="347.9844"/><text fill="#000000" font-family="sans-serif" font-size="13" font-weight="bold" lengthAdjust="spacing" textLength="43" x="745.5" y="334.9521">46.12.3</text><text fill="#000000" font-family="sans-serif" font-size="13" lengthAdjust="spacing" textLength="384" x="792.5" y="326.7764">createProperty(business, streetName, city, district, state,zipCode,</text><text fill="#000000" font-family="sans-serif" font-size="13" lengthAdjust="spacing" textLength="190" x="796.5" y="343.1279">distanceCityCenter, area, uriList)</text><rect fill="#E3E3E3" height="49.2188" rx="2.5" ry="2.5" style="stroke:#181818;stroke-width:0.5;" width="72" x="1193.5" y="309.2813"/><text fill="#000000" font-family="sans-serif" font-size="14" lengthAdjust="spacing" textLength="53" x="1203" y="330.8145">property</text><text fill="#000000" font-family="sans-serif" font-size="14" lengthAdjust="spacing" textLength="58" x="1200.5" y="348.4238">:Property</text><line style="stroke:#181818;stroke-width:1.0;" x1="1234.5" x2="1281.5" y1="386.8516" y2="386.8516"/><line style="stroke:#181818;stroke-width:1.0;" x1="1281.5" x2="1281.5" y1="386.8516" y2="399.8516"/><line style="stroke:#181818;stroke-width:1.0;" x1="1240.5" x2="1281.5" y1="399.8516" y2="399.8516"/><polygon fill="#181818" points="1250.5,395.8516,1240.5,399.8516,1250.5,403.8516,1246.5,399.8516" style="stroke:#181818;stroke-width:1.0;"/><text fill="#000000" font-family="sans-serif" font-size="13" font-weight="bold" lengthAdjust="spacing" textLength="43" x="1246.5" y="381.9951">46.12.4</text><text fill="#000000" font-family="sans-serif" font-size="13" lengthAdjust="spacing" textLength="142" x="1293.5" y="381.9951">fillPhotographList(uriList)</text><path d="M1183.5,419.8516 L1256.5,419.8516 L1256.5,428.2031 L1246.5,438.2031 L1183.5,438.2031 L1183.5,419.8516 " fill="#EEEEEE" style="stroke:#000000;stroke-width:1.5;"/><rect fill="none" height="276.9766" style="stroke:#000000;stroke-width:1.5;" width="772" x="1183.5" y="419.8516"/><text fill="#000000" font-family="sans-serif" font-size="13" font-weight="bold" lengthAdjust="spacing" textLength="28" x="1198.5" y="434.3467">loop</text><text fill="#000000" font-family="sans-serif" font-size="11" font-weight="bold" lengthAdjust="spacing" textLength="71" x="1271.5" y="433.2705">[for each uri]</text><polygon fill="#181818" points="1841.5,456.5547,1851.5,460.5547,1841.5,464.5547,1845.5,460.5547" style="stroke:#181818;stroke-width:1.0;"/><line style="stroke:#181818;stroke-width:1.0;" x1="1239.5" x2="1847.5" y1="460.5547" y2="460.5547"/><text fill="#000000" font-family="sans-serif" font-size="13" font-weight="bold" lengthAdjust="spacing" textLength="43" x="1246.5" y="455.6982">46.12.5</text><text fill="#000000" font-family="sans-serif" font-size="13" lengthAdjust="spacing" textLength="58" x="1293.5" y="455.6982">create(uri)</text><rect fill="#E3E3E3" height="49.2188" rx="2.5" ry="2.5" style="stroke:#181818;stroke-width:0.5;" width="92" x="1853.5" y="438.2031"/><text fill="#000000" font-family="sans-serif" font-size="14" lengthAdjust="spacing" textLength="73" x="1863" y="459.7363">photograph</text><text fill="#000000" font-family="sans-serif" font-size="14" lengthAdjust="spacing" textLength="78" x="1860.5" y="477.3457">:Photograph</text><line style="stroke:#181818;stroke-width:1.0;" x1="1239.5" x2="1286.5" y1="515.7734" y2="515.7734"/><line style="stroke:#181818;stroke-width:1.0;" x1="1286.5" x2="1286.5" y1="515.7734" y2="528.7734"/><line style="stroke:#181818;stroke-width:1.0;" x1="1245.5" x2="1286.5" y1="528.7734" y2="528.7734"/><polygon fill="#181818" points="1255.5,524.7734,1245.5,528.7734,1255.5,532.7734,1251.5,528.7734" style="stroke:#181818;stroke-width:1.0;"/><text fill="#000000" font-family="sans-serif" font-size="13" font-weight="bold" lengthAdjust="spacing" textLength="43" x="1251.5" y="510.917">46.12.6</text><text fill="#000000" font-family="sans-serif" font-size="13" lengthAdjust="spacing" textLength="159" x="1298.5" y="510.917">addPhotograph(photograph)</text><line style="stroke:#181818;stroke-width:1.0;" x1="1244.5" x2="1291.5" y1="559.125" y2="559.125"/><line style="stroke:#181818;stroke-width:1.0;" x1="1291.5" x2="1291.5" y1="559.125" y2="572.125"/><line style="stroke:#181818;stroke-width:1.0;" x1="1250.5" x2="1291.5" y1="572.125" y2="572.125"/><polygon fill="#181818" points="1260.5,568.125,1250.5,572.125,1260.5,576.125,1256.5,572.125" style="stroke:#181818;stroke-width:1.0;"/><text fill="#000000" font-family="sans-serif" font-size="13" font-weight="bold" lengthAdjust="spacing" textLength="43" x="1256.5" y="554.2686">46.12.7</text><text fill="#000000" font-family="sans-serif" font-size="13" lengthAdjust="spacing" textLength="115" x="1303.5" y="554.2686">validate(photograph)</text><line style="stroke:#181818;stroke-width:1.0;stroke-dasharray:2.0,2.0;" x1="1249.5" x2="1291.5" y1="612.4766" y2="612.4766"/><line style="stroke:#181818;stroke-width:1.0;stroke-dasharray:2.0,2.0;" x1="1291.5" x2="1291.5" y1="612.4766" y2="625.4766"/><line style="stroke:#181818;stroke-width:1.0;stroke-dasharray:2.0,2.0;" x1="1244.5" x2="1291.5" y1="625.4766" y2="625.4766"/><polygon fill="#181818" points="1254.5,621.4766,1244.5,625.4766,1254.5,629.4766,1250.5,625.4766" style="stroke:#181818;stroke-width:1.0;"/><text fill="#000000" font-family="sans-serif" font-size="13" font-weight="bold" lengthAdjust="spacing" textLength="43" x="1256.5" y="607.6201">46.12.8</text><text fill="#000000" font-family="sans-serif" font-size="13" lengthAdjust="spacing" textLength="4" x="1303.5" y="607.6201"> </text><line style="stroke:#181818;stroke-width:1.0;stroke-dasharray:2.0,2.0;" x1="1244.5" x2="1286.5" y1="655.8281" y2="655.8281"/><line style="stroke:#181818;stroke-width:1.0;stroke-dasharray:2.0,2.0;" x1="1286.5" x2="1286.5" y1="655.8281" y2="668.8281"/><line style="stroke:#181818;stroke-width:1.0;stroke-dasharray:2.0,2.0;" x1="1239.5" x2="1286.5" y1="668.8281" y2="668.8281"/><polygon fill="#181818" points="1249.5,664.8281,1239.5,668.8281,1249.5,672.8281,1245.5,668.8281" style="stroke:#181818;stroke-width:1.0;"/><text fill="#000000" font-family="sans-serif" font-size="13" font-weight="bold" lengthAdjust="spacing" textLength="43" x="1251.5" y="650.9717">46.12.9</text><text fill="#000000" font-family="sans-serif" font-size="13" lengthAdjust="spacing" textLength="4" x="1298.5" y="650.9717"> </text><line style="stroke:#181818;stroke-width:1.0;stroke-dasharray:2.0,2.0;" x1="1239.5" x2="1281.5" y1="731.1797" y2="731.1797"/><line style="stroke:#181818;stroke-width:1.0;stroke-dasharray:2.0,2.0;" x1="1281.5" x2="1281.5" y1="731.1797" y2="744.1797"/><line style="stroke:#181818;stroke-width:1.0;stroke-dasharray:2.0,2.0;" x1="1234.5" x2="1281.5" y1="744.1797" y2="744.1797"/><polygon fill="#181818" points="1244.5,740.1797,1234.5,744.1797,1244.5,748.1797,1240.5,744.1797" style="stroke:#181818;stroke-width:1.0;"/><text fill="#000000" font-family="sans-serif" font-size="13" font-weight="bold" lengthAdjust="spacing" textLength="50" x="1246.5" y="726.3232">46.12.10</text><text fill="#000000" font-family="sans-serif" font-size="13" lengthAdjust="spacing" textLength="4" x="1300.5" y="726.3232"> </text><polygon fill="#181818" points="1628.5,790.5313,1638.5,794.5313,1628.5,798.5313,1632.5,794.5313" style="stroke:#181818;stroke-width:1.0;"/><line style="stroke:#181818;stroke-width:1.0;" x1="1234.5" x2="1634.5" y1="794.5313" y2="794.5313"/><text fill="#000000" font-family="sans-serif" font-size="13" font-weight="bold" lengthAdjust="spacing" textLength="50" x="1241.5" y="789.6748">46.12.11</text><text fill="#000000" font-family="sans-serif" font-size="13" lengthAdjust="spacing" textLength="328" x="1295.5" y="789.6748">createLocation(streetName, city, district, state, zipCode)</text><rect fill="#E3E3E3" height="49.2188" rx="2.5" ry="2.5" style="stroke:#181818;stroke-width:0.5;" width="72" x="1640.5" y="772.1797"/><text fill="#000000" font-family="sans-serif" font-size="14" lengthAdjust="spacing" textLength="49" x="1652" y="793.7129">location</text><text fill="#000000" font-family="sans-serif" font-size="14" lengthAdjust="spacing" textLength="58" x="1647.5" y="811.3223">:Location</text><line style="stroke:#181818;stroke-width:1.0;" x1="1681.5" x2="1728.5" y1="849.75" y2="849.75"/><line style="stroke:#181818;stroke-width:1.0;" x1="1728.5" x2="1728.5" y1="849.75" y2="862.75"/><line style="stroke:#181818;stroke-width:1.0;" x1="1687.5" x2="1728.5" y1="862.75" y2="862.75"/><polygon fill="#181818" points="1697.5,858.75,1687.5,862.75,1697.5,866.75,1693.5,862.75" style="stroke:#181818;stroke-width:1.0;"/><text fill="#000000" font-family="sans-serif" font-size="13" font-weight="bold" lengthAdjust="spacing" textLength="50" x="1693.5" y="844.8936">46.12.12</text><text fill="#000000" font-family="sans-serif" font-size="13" lengthAdjust="spacing" textLength="145" x="1747.5" y="844.8936">validateLocation(location)</text><line style="stroke:#181818;stroke-width:1.0;stroke-dasharray:2.0,2.0;" x1="1686.5" x2="1728.5" y1="903.1016" y2="903.1016"/><line style="stroke:#181818;stroke-width:1.0;stroke-dasharray:2.0,2.0;" x1="1728.5" x2="1728.5" y1="903.1016" y2="916.1016"/><line style="stroke:#181818;stroke-width:1.0;stroke-dasharray:2.0,2.0;" x1="1681.5" x2="1728.5" y1="916.1016" y2="916.1016"/><polygon fill="#181818" points="1691.5,912.1016,1681.5,916.1016,1691.5,920.1016,1687.5,916.1016" style="stroke:#181818;stroke-width:1.0;"/><text fill="#000000" font-family="sans-serif" font-size="13" font-weight="bold" lengthAdjust="spacing" textLength="50" x="1693.5" y="898.2451">46.12.13</text><text fill="#000000" font-family="sans-serif" font-size="13" lengthAdjust="spacing" textLength="4" x="1747.5" y="898.2451"> </text><polygon fill="#181818" points="1245.5,937.4531,1235.5,941.4531,1245.5,945.4531,1241.5,941.4531" style="stroke:#181818;stroke-width:1.0;"/><line style="stroke:#181818;stroke-width:1.0;stroke-dasharray:2.0,2.0;" x1="1239.5" x2="1675.5" y1="941.4531" y2="941.4531"/><text fill="#000000" font-family="sans-serif" font-size="13" font-weight="bold" lengthAdjust="spacing" textLength="50" x="1251.5" y="936.5967">46.12.14</text><text fill="#000000" font-family="sans-serif" font-size="13" lengthAdjust="spacing" textLength="45" x="1305.5" y="936.5967">location</text><polygon fill="#181818" points="749.5,967.8047,739.5,971.8047,749.5,975.8047,745.5,971.8047" style="stroke:#181818;stroke-width:1.0;"/><line style="stroke:#181818;stroke-width:1.0;stroke-dasharray:2.0,2.0;" x1="743.5" x2="1228.5" y1="971.8047" y2="971.8047"/><text fill="#000000" font-family="sans-serif" font-size="13" font-weight="bold" lengthAdjust="spacing" textLength="50" x="755.5" y="966.9482">46.12.15</text><text fill="#000000" font-family="sans-serif" font-size="13" lengthAdjust="spacing" textLength="47" x="809.5" y="966.9482">property</text><polygon fill="#181818" points="357,998.1563,347,1002.1563,357,1006.1563,353,1002.1563" style="stroke:#181818;stroke-width:1.0;"/><line style="stroke:#181818;stroke-width:1.0;stroke-dasharray:2.0,2.0;" x1="351" x2="732.5" y1="1002.1563" y2="1002.1563"/><text fill="#000000" font-family="sans-serif" font-size="13" font-weight="bold" lengthAdjust="spacing" textLength="50" x="363" y="997.2998">46.12.16</text><text fill="#000000" font-family="sans-serif" font-size="13" lengthAdjust="spacing" textLength="43" x="417" y="997.2998">request</text><polygon fill="#181818" points="11,1035.5078,1,1039.5078,11,1043.5078,7,1039.5078" style="stroke:#181818;stroke-width:1.0;"/><line style="stroke:#181818;stroke-width:1.0;stroke-dasharray:2.0,2.0;" x1="5" x2="340" y1="1039.5078" y2="1039.5078"/><text fill="#000000" font-family="sans-serif" font-size="13" font-weight="bold" lengthAdjust="spacing" textLength="32" x="17" y="1034.6514">46.13</text><text fill="#000000" font-family="sans-serif" font-size="13" lengthAdjust="spacing" textLength="43" x="53" y="1034.6514">request</text><!--SRC=[pLPHRzem47xFhpZrAQ1GgTkq1rHDeWXfbIWme0-J-d9D3h2Qs9dZT6BgZvyJRCUGZZ7MISkJyNs- -xwxyvdYYV4S9MQG2IxYZHGPWP8b1OMpv1W_uPeMQfiII8eLydNg0ueD9k8xusjOOLfG4EXjnMAM8rTmWPoBaiUK4LTtcESa7tX_qDgy02pWRZ2RZURxvoLzAwbG-j3ShchiVFJbVhHOxeCVou9nAWgDlZ7B6dnplxYTZ1QBVNGkXOwijXezCyiQFPjFDOtbrtrqAc9KJ72D7fjbZHvFXuFbxNHou7iZb5XBp3ULT_TZv__pT3aDz8Ub4hpC7ad2Xu-NL- -20CpN-sII0Ns89Q6Y1QPaCX1QuijjJX5WfdEfeWSEg94H54eIgGbcsXOpjOqWONgFnHMcKDfN13zOFXG9xKoeAp7KmA6k1iceb6oiToDTTAuwZX80neezw-EsJYt-brSx1MifoXo6DM-mgOLA0HW9ZLAhKois9OLkz_yHxJJRVdCcorOJj-tLxRfosVOBTqGxdk3sUTjmtdcRjT2sz569i5De1Ugil2BHPCeexRG8EQck_myHrk1pxiEAfMdJuPNly0zYj22f43ciX0J2U5En3Oxpg2vJqp5Lw4vm8dDCaePus5pPitY_7k8PKvPKlDxCk- - -1Klet_ewnBoylBJsY2Tr4TzMn4cX_HhOkUnTAZktmzzV9JiiZXJB3VuMn5fy6j3qWgDXdvI_2jBpWXnBvIbqlR9elfRUULxtYcs6NH_i53-lSztCzDz7ym_Xc4Stl8EWwixwVJfylTuR1zUz7lpAkUVIl84_0G00]--></g></svg>