<?xml version="1.0" encoding="UTF-8" standalone="no"?><svg xmlns="http://www.w3.org/2000/svg" xmlns:xlink="http://www.w3.org/1999/xlink" contentStyleType="text/css" height="1473px" preserveAspectRatio="none" style="width:1695px;height:1473px;background:#FFFFFF;" version="1.1" viewBox="0 0 1695 1473" width="1695px" zoomAndPan="magnify"><defs/><g><rect fill="#FFFFFF" height="1221.6641" style="stroke:#181818;stroke-width:1.0;" width="10" x="366" y="179.3281"/><rect fill="#FFFFFF" height="1002.9844" style="stroke:#181818;stroke-width:1.0;" width="10" x="782" y="360.6563"/><rect fill="#FFFFFF" height="332.3281" style="stroke:#181818;stroke-width:1.0;" width="10" x="787" y="389.0078"/><rect fill="#FFFFFF" height="128.0547" style="stroke:#181818;stroke-width:1.0;" width="10" x="792" y="517.9297"/><rect fill="#FFFFFF" height="41.3516" style="stroke:#181818;stroke-width:1.0;" width="10" x="797" y="561.2813"/><rect fill="#FFFFFF" height="332.3281" style="stroke:#181818;stroke-width:1.0;" width="10" x="787" y="993.9609"/><rect fill="#FFFFFF" height="128.0547" style="stroke:#181818;stroke-width:1.0;" width="10" x="792" y="1122.8828"/><rect fill="#FFFFFF" height="41.3516" style="stroke:#181818;stroke-width:1.0;" width="10" x="797" y="1166.2344"/><rect fill="#FFFFFF" height="136.9219" style="stroke:#181818;stroke-width:1.0;" width="10" x="1211" y="793.6875"/><rect fill="#FFFFFF" height="41.3516" style="stroke:#181818;stroke-width:1.0;" width="10" x="1216" y="851.9063"/><rect fill="none" height="1187.3125" style="stroke:#000000;stroke-width:1.5;" width="1363.5" x="325.5" y="184.3281"/><rect fill="none" height="276.9766" style="stroke:#000000;stroke-width:1.5;" width="856" x="748" y="409.0078"/><rect fill="none" height="276.9766" style="stroke:#000000;stroke-width:1.5;" width="754" x="748" y="1013.9609"/><line style="stroke:#181818;stroke-width:0.5;stroke-dasharray:5.0,5.0;" x1="370.5" x2="370.5" y1="55.2188" y2="1418.9922"/><line style="stroke:#181818;stroke-width:0.5;stroke-dasharray:5.0,5.0;" x1="787" x2="787" y1="320.7773" y2="1418.9922"/><line style="stroke:#181818;stroke-width:0.5;stroke-dasharray:5.0,5.0;" x1="1216" x2="1216" y1="801.4453" y2="1418.9922"/><line style="stroke:#181818;stroke-width:0.5;stroke-dasharray:5.0,5.0;" x1="1421" x2="1421" y1="1072.4219" y2="1418.9922"/><line style="stroke:#181818;stroke-width:0.5;stroke-dasharray:5.0,5.0;" x1="1548" x2="1548" y1="467.4688" y2="1418.9922"/><line style="stroke:#181818;stroke-width:0.5;stroke-dasharray:5.0,5.0;" x1="1641" x2="1641" y1="242.7891" y2="1418.9922"/><rect fill="#E3E3E3" height="49.2188" rx="2.5" ry="2.5" style="stroke:#181818;stroke-width:0.5;" width="71" x="335.5" y="5"/><text fill="#000000" font-family="sans-serif" font-size="14" lengthAdjust="spacing" textLength="48" x="347" y="26.5332">request</text><text fill="#000000" font-family="sans-serif" font-size="14" lengthAdjust="spacing" textLength="57" x="342.5" y="44.1426">:Request</text><rect fill="#E3E3E3" height="49.2188" rx="2.5" ry="2.5" style="stroke:#181818;stroke-width:0.5;" width="71" x="335.5" y="1417.9922"/><text fill="#000000" font-family="sans-serif" font-size="14" lengthAdjust="spacing" textLength="48" x="347" y="1439.5254">request</text><text fill="#000000" font-family="sans-serif" font-size="14" lengthAdjust="spacing" textLength="57" x="342.5" y="1457.1348">:Request</text><rect fill="#E3E3E3" height="49.2188" rx="2.5" ry="2.5" style="stroke:#181818;stroke-width:0.5;" width="58" x="758" y="1417.9922"/><text fill="#000000" font-family="sans-serif" font-size="14" lengthAdjust="spacing" textLength="39" x="767.5" y="1439.5254">house</text><text fill="#000000" font-family="sans-serif" font-size="14" lengthAdjust="spacing" textLength="44" x="765" y="1457.1348">:House</text><rect fill="#E3E3E3" height="49.2188" rx="2.5" ry="2.5" style="stroke:#181818;stroke-width:0.5;" width="72" x="1180" y="1417.9922"/><text fill="#000000" font-family="sans-serif" font-size="14" lengthAdjust="spacing" textLength="49" x="1191.5" y="1439.5254">location</text><text fill="#000000" font-family="sans-serif" font-size="14" lengthAdjust="spacing" textLength="58" x="1187" y="1457.1348">:Location</text><rect fill="#E3E3E3" height="49.2188" rx="2.5" ry="2.5" style="stroke:#181818;stroke-width:0.5;" width="142" x="1350" y="1417.9922"/><text fill="#000000" font-family="sans-serif" font-size="14" lengthAdjust="spacing" textLength="123" x="1359.5" y="1439.5254">availableEquipment</text><text fill="#000000" font-family="sans-serif" font-size="14" lengthAdjust="spacing" textLength="128" x="1357" y="1457.1348">:AvailableEquipment</text><rect fill="#E3E3E3" height="49.2188" rx="2.5" ry="2.5" style="stroke:#181818;stroke-width:0.5;" width="92" x="1502" y="1417.9922"/><text fill="#000000" font-family="sans-serif" font-size="14" lengthAdjust="spacing" textLength="73" x="1511.5" y="1439.5254">photograph</text><text fill="#000000" font-family="sans-serif" font-size="14" lengthAdjust="spacing" textLength="78" x="1509" y="1457.1348">:Photograph</text><rect fill="#E3E3E3" height="49.2188" rx="2.5" ry="2.5" style="stroke:#181818;stroke-width:0.5;" width="75" x="1604" y="1417.9922"/><text fill="#000000" font-family="sans-serif" font-size="14" lengthAdjust="spacing" textLength="56" x="1613.5" y="1439.5254">business</text><text fill="#000000" font-family="sans-serif" font-size="14" lengthAdjust="spacing" textLength="61" x="1611" y="1457.1348">:Business</text><rect fill="#FFFFFF" height="1221.6641" style="stroke:#181818;stroke-width:1.0;" width="10" x="366" y="179.3281"/><rect fill="#FFFFFF" height="1002.9844" style="stroke:#181818;stroke-width:1.0;" width="10" x="782" y="360.6563"/><rect fill="#FFFFFF" height="332.3281" style="stroke:#181818;stroke-width:1.0;" width="10" x="787" y="389.0078"/><rect fill="#FFFFFF" height="128.0547" style="stroke:#181818;stroke-width:1.0;" width="10" x="792" y="517.9297"/><rect fill="#FFFFFF" height="41.3516" style="stroke:#181818;stroke-width:1.0;" width="10" x="797" y="561.2813"/><rect fill="#FFFFFF" height="332.3281" style="stroke:#181818;stroke-width:1.0;" width="10" x="787" y="993.9609"/><rect fill="#FFFFFF" height="128.0547" style="stroke:#181818;stroke-width:1.0;" width="10" x="792" y="1122.8828"/><rect fill="#FFFFFF" height="41.3516" style="stroke:#181818;stroke-width:1.0;" width="10" x="797" y="1166.2344"/><rect fill="#FFFFFF" height="136.9219" style="stroke:#181818;stroke-width:1.0;" width="10" x="1211" y="793.6875"/><rect fill="#FFFFFF" height="41.3516" style="stroke:#181818;stroke-width:1.0;" width="10" x="1216" y="851.9063"/><polygon fill="#181818" points="359,165.3281,369,169.3281,359,173.3281,363,169.3281" style="stroke:#181818;stroke-width:1.0;"/><line style="stroke:#181818;stroke-width:1.0;" x1="0" x2="365" y1="169.3281" y2="169.3281"/><text fill="#000000" font-family="sans-serif" font-size="13" font-weight="bold" lengthAdjust="spacing" textLength="14" x="7" y="123.5928">42</text><text fill="#000000" font-family="sans-serif" font-size="13" lengthAdjust="spacing" textLength="244" x="25" y="82.7139">createSaleRequest(propertyType, amount,</text><text fill="#000000" font-family="sans-serif" font-size="13" lengthAdjust="spacing" textLength="180" x="29" y="99.0654">area, streetName, city, district,</text><text fill="#000000" font-family="sans-serif" font-size="13" lengthAdjust="spacing" textLength="206" x="25" y="115.417">state, zipCode, distanceCityCenter,</text><text fill="#000000" font-family="sans-serif" font-size="13" lengthAdjust="spacing" textLength="216" x="25" y="131.7686">numberBedrooms,numberBathrooms,</text><text fill="#000000" font-family="sans-serif" font-size="13" lengthAdjust="spacing" textLength="329" x="25" y="148.1201">numberParkingSpace,availableEquipmentDescriptionList,</text><text fill="#000000" font-family="sans-serif" font-size="13" lengthAdjust="spacing" textLength="286" x="25" y="164.4717">existenceBasement,inhabitableLoft,sunExposure)</text><path d="M325.5,184.3281 L543.5,184.3281 L543.5,192.6797 L533.5,202.6797 L325.5,202.6797 L325.5,184.3281 " fill="#EEEEEE" style="stroke:#000000;stroke-width:1.5;"/><rect fill="none" height="1187.3125" style="stroke:#000000;stroke-width:1.5;" width="1363.5" x="325.5" y="184.3281"/><text fill="#000000" font-family="sans-serif" font-size="13" font-weight="bold" lengthAdjust="spacing" textLength="173" x="340.5" y="198.8232">Create House Sale Request</text><polygon fill="#181818" points="1592,221.0313,1602,225.0313,1592,229.0313,1596,225.0313" style="stroke:#181818;stroke-width:1.0;"/><line style="stroke:#181818;stroke-width:1.0;" x1="376" x2="1598" y1="225.0313" y2="225.0313"/><text fill="#000000" font-family="sans-serif" font-size="13" font-weight="bold" lengthAdjust="spacing" textLength="25" x="383" y="220.1748">42.1</text><text fill="#000000" font-family="sans-serif" font-size="13" lengthAdjust="spacing" textLength="141" x="412" y="220.1748">createBusiness(amount)</text><rect fill="#E3E3E3" height="49.2188" rx="2.5" ry="2.5" style="stroke:#181818;stroke-width:0.5;" width="75" x="1604" y="202.6797"/><text fill="#000000" font-family="sans-serif" font-size="14" lengthAdjust="spacing" textLength="56" x="1613.5" y="224.2129">business</text><text fill="#000000" font-family="sans-serif" font-size="14" lengthAdjust="spacing" textLength="61" x="1611" y="241.8223">:Business</text><polygon fill="#181818" points="746,346.6563,756,350.6563,746,354.6563,750,350.6563" style="stroke:#181818;stroke-width:1.0;"/><line style="stroke:#181818;stroke-width:1.0;" x1="376" x2="752" y1="350.6563" y2="350.6563"/><text fill="#000000" font-family="sans-serif" font-size="13" font-weight="bold" lengthAdjust="spacing" textLength="25" x="383" y="313.0967">42.2</text><text fill="#000000" font-family="sans-serif" font-size="13" lengthAdjust="spacing" textLength="257" x="412" y="280.3936">createHouse(area, streetName, city, district,</text><text fill="#000000" font-family="sans-serif" font-size="13" lengthAdjust="spacing" textLength="206" x="412" y="296.7451">state, zipCode, distanceCityCenter,</text><text fill="#000000" font-family="sans-serif" font-size="13" lengthAdjust="spacing" textLength="216" x="412" y="313.0967">numberBedrooms,numberBathrooms,</text><text fill="#000000" font-family="sans-serif" font-size="13" lengthAdjust="spacing" textLength="329" x="412" y="329.4482">numberParkingSpace,availableEquipmentDescriptionList,</text><text fill="#000000" font-family="sans-serif" font-size="13" lengthAdjust="spacing" textLength="286" x="412" y="345.7998">existenceBasement,inhabitableLoft,sunExposure)</text><rect fill="#E3E3E3" height="49.2188" rx="2.5" ry="2.5" style="stroke:#181818;stroke-width:0.5;" width="58" x="758" y="298.4375"/><text fill="#000000" font-family="sans-serif" font-size="14" lengthAdjust="spacing" textLength="39" x="767.5" y="319.9707">house</text><text fill="#000000" font-family="sans-serif" font-size="14" lengthAdjust="spacing" textLength="44" x="765" y="337.5801">:House</text><line style="stroke:#181818;stroke-width:1.0;" x1="792" x2="839" y1="376.0078" y2="376.0078"/><line style="stroke:#181818;stroke-width:1.0;" x1="839" x2="839" y1="376.0078" y2="389.0078"/><line style="stroke:#181818;stroke-width:1.0;" x1="798" x2="839" y1="389.0078" y2="389.0078"/><polygon fill="#181818" points="808,385.0078,798,389.0078,808,393.0078,804,389.0078" style="stroke:#181818;stroke-width:1.0;"/><text fill="#000000" font-family="sans-serif" font-size="13" font-weight="bold" lengthAdjust="spacing" textLength="25" x="804" y="371.1514">42.3</text><text fill="#000000" font-family="sans-serif" font-size="13" lengthAdjust="spacing" textLength="142" x="833" y="371.1514">fillPhotographList(uriList)</text><path d="M748,409.0078 L821,409.0078 L821,417.3594 L811,427.3594 L748,427.3594 L748,409.0078 " fill="#EEEEEE" style="stroke:#000000;stroke-width:1.5;"/><rect fill="none" height="276.9766" style="stroke:#000000;stroke-width:1.5;" width="856" x="748" y="409.0078"/><text fill="#000000" font-family="sans-serif" font-size="13" font-weight="bold" lengthAdjust="spacing" textLength="28" x="763" y="423.5029">loop</text><text fill="#000000" font-family="sans-serif" font-size="11" font-weight="bold" lengthAdjust="spacing" textLength="71" x="836" y="422.4268">[for each uri]</text><polygon fill="#181818" points="1490,445.7109,1500,449.7109,1490,453.7109,1494,449.7109" style="stroke:#181818;stroke-width:1.0;"/><line style="stroke:#181818;stroke-width:1.0;" x1="797" x2="1496" y1="449.7109" y2="449.7109"/><text fill="#000000" font-family="sans-serif" font-size="13" font-weight="bold" lengthAdjust="spacing" textLength="25" x="804" y="444.8545">42.4</text><text fill="#000000" font-family="sans-serif" font-size="13" lengthAdjust="spacing" textLength="58" x="833" y="444.8545">create(uri)</text><rect fill="#E3E3E3" height="49.2188" rx="2.5" ry="2.5" style="stroke:#181818;stroke-width:0.5;" width="92" x="1502" y="427.3594"/><text fill="#000000" font-family="sans-serif" font-size="14" lengthAdjust="spacing" textLength="73" x="1511.5" y="448.8926">photograph</text><text fill="#000000" font-family="sans-serif" font-size="14" lengthAdjust="spacing" textLength="78" x="1509" y="466.502">:Photograph</text><line style="stroke:#181818;stroke-width:1.0;" x1="797" x2="844" y1="504.9297" y2="504.9297"/><line style="stroke:#181818;stroke-width:1.0;" x1="844" x2="844" y1="504.9297" y2="517.9297"/><line style="stroke:#181818;stroke-width:1.0;" x1="803" x2="844" y1="517.9297" y2="517.9297"/><polygon fill="#181818" points="813,513.9297,803,517.9297,813,521.9297,809,517.9297" style="stroke:#181818;stroke-width:1.0;"/><text fill="#000000" font-family="sans-serif" font-size="13" font-weight="bold" lengthAdjust="spacing" textLength="25" x="809" y="500.0732">42.5</text><text fill="#000000" font-family="sans-serif" font-size="13" lengthAdjust="spacing" textLength="159" x="838" y="500.0732">addPhotograph(photograph)</text><line style="stroke:#181818;stroke-width:1.0;" x1="802" x2="849" y1="548.2813" y2="548.2813"/><line style="stroke:#181818;stroke-width:1.0;" x1="849" x2="849" y1="548.2813" y2="561.2813"/><line style="stroke:#181818;stroke-width:1.0;" x1="808" x2="849" y1="561.2813" y2="561.2813"/><polygon fill="#181818" points="818,557.2813,808,561.2813,818,565.2813,814,561.2813" style="stroke:#181818;stroke-width:1.0;"/><text fill="#000000" font-family="sans-serif" font-size="13" font-weight="bold" lengthAdjust="spacing" textLength="25" x="814" y="543.4248">42.6</text><text fill="#000000" font-family="sans-serif" font-size="13" lengthAdjust="spacing" textLength="115" x="843" y="543.4248">validate(photograph)</text><line style="stroke:#181818;stroke-width:1.0;stroke-dasharray:2.0,2.0;" x1="807" x2="849" y1="601.6328" y2="601.6328"/><line style="stroke:#181818;stroke-width:1.0;stroke-dasharray:2.0,2.0;" x1="849" x2="849" y1="601.6328" y2="614.6328"/><line style="stroke:#181818;stroke-width:1.0;stroke-dasharray:2.0,2.0;" x1="802" x2="849" y1="614.6328" y2="614.6328"/><polygon fill="#181818" points="812,610.6328,802,614.6328,812,618.6328,808,614.6328" style="stroke:#181818;stroke-width:1.0;"/><text fill="#000000" font-family="sans-serif" font-size="13" font-weight="bold" lengthAdjust="spacing" textLength="25" x="814" y="596.7764">42.7</text><text fill="#000000" font-family="sans-serif" font-size="13" lengthAdjust="spacing" textLength="4" x="843" y="596.7764"> </text><line style="stroke:#181818;stroke-width:1.0;stroke-dasharray:2.0,2.0;" x1="802" x2="844" y1="644.9844" y2="644.9844"/><line style="stroke:#181818;stroke-width:1.0;stroke-dasharray:2.0,2.0;" x1="844" x2="844" y1="644.9844" y2="657.9844"/><line style="stroke:#181818;stroke-width:1.0;stroke-dasharray:2.0,2.0;" x1="797" x2="844" y1="657.9844" y2="657.9844"/><polygon fill="#181818" points="807,653.9844,797,657.9844,807,661.9844,803,657.9844" style="stroke:#181818;stroke-width:1.0;"/><text fill="#000000" font-family="sans-serif" font-size="13" font-weight="bold" lengthAdjust="spacing" textLength="25" x="809" y="640.1279">42.8</text><text fill="#000000" font-family="sans-serif" font-size="13" lengthAdjust="spacing" textLength="4" x="838" y="640.1279"> </text><line style="stroke:#181818;stroke-width:1.0;stroke-dasharray:2.0,2.0;" x1="797" x2="839" y1="720.3359" y2="720.3359"/><line style="stroke:#181818;stroke-width:1.0;stroke-dasharray:2.0,2.0;" x1="839" x2="839" y1="720.3359" y2="733.3359"/><line style="stroke:#181818;stroke-width:1.0;stroke-dasharray:2.0,2.0;" x1="792" x2="839" y1="733.3359" y2="733.3359"/><polygon fill="#181818" points="802,729.3359,792,733.3359,802,737.3359,798,733.3359" style="stroke:#181818;stroke-width:1.0;"/><text fill="#000000" font-family="sans-serif" font-size="13" font-weight="bold" lengthAdjust="spacing" textLength="25" x="804" y="715.4795">42.9</text><text fill="#000000" font-family="sans-serif" font-size="13" lengthAdjust="spacing" textLength="4" x="833" y="715.4795"> </text><polygon fill="#181818" points="1168,779.6875,1178,783.6875,1168,787.6875,1172,783.6875" style="stroke:#181818;stroke-width:1.0;"/><line style="stroke:#181818;stroke-width:1.0;" x1="792" x2="1174" y1="783.6875" y2="783.6875"/><text fill="#000000" font-family="sans-serif" font-size="13" font-weight="bold" lengthAdjust="spacing" textLength="32" x="799" y="778.8311">42.10</text><text fill="#000000" font-family="sans-serif" font-size="13" lengthAdjust="spacing" textLength="328" x="835" y="778.8311">createLocation(streetName, city, district, state, zipCode)</text><rect fill="#E3E3E3" height="49.2188" rx="2.5" ry="2.5" style="stroke:#181818;stroke-width:0.5;" width="72" x="1180" y="761.3359"/><text fill="#000000" font-family="sans-serif" font-size="14" lengthAdjust="spacing" textLength="49" x="1191.5" y="782.8691">location</text><text fill="#000000" font-family="sans-serif" font-size="14" lengthAdjust="spacing" textLength="58" x="1187" y="800.4785">:Location</text><line style="stroke:#181818;stroke-width:1.0;" x1="1221" x2="1268" y1="838.9063" y2="838.9063"/><line style="stroke:#181818;stroke-width:1.0;" x1="1268" x2="1268" y1="838.9063" y2="851.9063"/><line style="stroke:#181818;stroke-width:1.0;" x1="1227" x2="1268" y1="851.9063" y2="851.9063"/><polygon fill="#181818" points="1237,847.9063,1227,851.9063,1237,855.9063,1233,851.9063" style="stroke:#181818;stroke-width:1.0;"/><text fill="#000000" font-family="sans-serif" font-size="13" font-weight="bold" lengthAdjust="spacing" textLength="32" x="1233" y="834.0498">42.11</text><text fill="#000000" font-family="sans-serif" font-size="13" lengthAdjust="spacing" textLength="145" x="1269" y="834.0498">validateLocation(location)</text><line style="stroke:#181818;stroke-width:1.0;stroke-dasharray:2.0,2.0;" x1="1226" x2="1268" y1="892.2578" y2="892.2578"/><line style="stroke:#181818;stroke-width:1.0;stroke-dasharray:2.0,2.0;" x1="1268" x2="1268" y1="892.2578" y2="905.2578"/><line style="stroke:#181818;stroke-width:1.0;stroke-dasharray:2.0,2.0;" x1="1221" x2="1268" y1="905.2578" y2="905.2578"/><polygon fill="#181818" points="1231,901.2578,1221,905.2578,1231,909.2578,1227,905.2578" style="stroke:#181818;stroke-width:1.0;"/><text fill="#000000" font-family="sans-serif" font-size="13" font-weight="bold" lengthAdjust="spacing" textLength="32" x="1233" y="887.4014">42.12</text><text fill="#000000" font-family="sans-serif" font-size="13" lengthAdjust="spacing" textLength="4" x="1269" y="887.4014"> </text><polygon fill="#181818" points="803,926.6094,793,930.6094,803,934.6094,799,930.6094" style="stroke:#181818;stroke-width:1.0;"/><line style="stroke:#181818;stroke-width:1.0;stroke-dasharray:2.0,2.0;" x1="797" x2="1215" y1="930.6094" y2="930.6094"/><text fill="#000000" font-family="sans-serif" font-size="13" font-weight="bold" lengthAdjust="spacing" textLength="32" x="809" y="925.7529">42.13</text><text fill="#000000" font-family="sans-serif" font-size="13" lengthAdjust="spacing" textLength="45" x="845" y="925.7529">location</text><line style="stroke:#181818;stroke-width:1.0;" x1="792" x2="839" y1="980.9609" y2="980.9609"/><line style="stroke:#181818;stroke-width:1.0;" x1="839" x2="839" y1="980.9609" y2="993.9609"/><line style="stroke:#181818;stroke-width:1.0;" x1="798" x2="839" y1="993.9609" y2="993.9609"/><polygon fill="#181818" points="808,989.9609,798,993.9609,808,997.9609,804,993.9609" style="stroke:#181818;stroke-width:1.0;"/><text fill="#000000" font-family="sans-serif" font-size="13" font-weight="bold" lengthAdjust="spacing" textLength="32" x="804" y="976.1045">42.14</text><text fill="#000000" font-family="sans-serif" font-size="13" lengthAdjust="spacing" textLength="351" x="840" y="976.1045">fillAvailableEquipmentList(availableEquipmentDescriptionList)</text><path d="M748,1013.9609 L821,1013.9609 L821,1022.3125 L811,1032.3125 L748,1032.3125 L748,1013.9609 " fill="#EEEEEE" style="stroke:#000000;stroke-width:1.5;"/><rect fill="none" height="276.9766" style="stroke:#000000;stroke-width:1.5;" width="754" x="748" y="1013.9609"/><text fill="#000000" font-family="sans-serif" font-size="13" font-weight="bold" lengthAdjust="spacing" textLength="28" x="763" y="1028.4561">loop</text><text fill="#000000" font-family="sans-serif" font-size="11" font-weight="bold" lengthAdjust="spacing" textLength="225" x="836" y="1027.3799">[for each availableEquipmentDescription]</text><polygon fill="#181818" points="1338,1050.6641,1348,1054.6641,1338,1058.6641,1342,1054.6641" style="stroke:#181818;stroke-width:1.0;"/><line style="stroke:#181818;stroke-width:1.0;" x1="797" x2="1344" y1="1054.6641" y2="1054.6641"/><text fill="#000000" font-family="sans-serif" font-size="13" font-weight="bold" lengthAdjust="spacing" textLength="32" x="804" y="1049.8076">42.15</text><text fill="#000000" font-family="sans-serif" font-size="13" lengthAdjust="spacing" textLength="220" x="840" y="1049.8076">create(availableEquipmentDescription)</text><rect fill="#E3E3E3" height="49.2188" rx="2.5" ry="2.5" style="stroke:#181818;stroke-width:0.5;" width="142" x="1350" y="1032.3125"/><text fill="#000000" font-family="sans-serif" font-size="14" lengthAdjust="spacing" textLength="123" x="1359.5" y="1053.8457">availableEquipment</text><text fill="#000000" font-family="sans-serif" font-size="14" lengthAdjust="spacing" textLength="128" x="1357" y="1071.4551">:AvailableEquipment</text><line style="stroke:#181818;stroke-width:1.0;" x1="797" x2="844" y1="1109.8828" y2="1109.8828"/><line style="stroke:#181818;stroke-width:1.0;" x1="844" x2="844" y1="1109.8828" y2="1122.8828"/><line style="stroke:#181818;stroke-width:1.0;" x1="803" x2="844" y1="1122.8828" y2="1122.8828"/><polygon fill="#181818" points="813,1118.8828,803,1122.8828,813,1126.8828,809,1122.8828" style="stroke:#181818;stroke-width:1.0;"/><text fill="#000000" font-family="sans-serif" font-size="13" font-weight="bold" lengthAdjust="spacing" textLength="32" x="809" y="1105.0264">42.16</text><text fill="#000000" font-family="sans-serif" font-size="13" lengthAdjust="spacing" textLength="253" x="845" y="1105.0264">addAvailableEquipment(availableEquipment)</text><line style="stroke:#181818;stroke-width:1.0;" x1="802" x2="849" y1="1153.2344" y2="1153.2344"/><line style="stroke:#181818;stroke-width:1.0;" x1="849" x2="849" y1="1153.2344" y2="1166.2344"/><line style="stroke:#181818;stroke-width:1.0;" x1="808" x2="849" y1="1166.2344" y2="1166.2344"/><polygon fill="#181818" points="818,1162.2344,808,1166.2344,818,1170.2344,814,1166.2344" style="stroke:#181818;stroke-width:1.0;"/><text fill="#000000" font-family="sans-serif" font-size="13" font-weight="bold" lengthAdjust="spacing" textLength="32" x="814" y="1148.3779">42.17</text><text fill="#000000" font-family="sans-serif" font-size="13" lengthAdjust="spacing" textLength="162" x="850" y="1148.3779">validate(availableEquipment)</text><line style="stroke:#181818;stroke-width:1.0;stroke-dasharray:2.0,2.0;" x1="807" x2="849" y1="1206.5859" y2="1206.5859"/><line style="stroke:#181818;stroke-width:1.0;stroke-dasharray:2.0,2.0;" x1="849" x2="849" y1="1206.5859" y2="1219.5859"/><line style="stroke:#181818;stroke-width:1.0;stroke-dasharray:2.0,2.0;" x1="802" x2="849" y1="1219.5859" y2="1219.5859"/><polygon fill="#181818" points="812,1215.5859,802,1219.5859,812,1223.5859,808,1219.5859" style="stroke:#181818;stroke-width:1.0;"/><text fill="#000000" font-family="sans-serif" font-size="13" font-weight="bold" lengthAdjust="spacing" textLength="32" x="814" y="1201.7295">42.18</text><text fill="#000000" font-family="sans-serif" font-size="13" lengthAdjust="spacing" textLength="4" x="850" y="1201.7295"> </text><line style="stroke:#181818;stroke-width:1.0;stroke-dasharray:2.0,2.0;" x1="802" x2="844" y1="1249.9375" y2="1249.9375"/><line style="stroke:#181818;stroke-width:1.0;stroke-dasharray:2.0,2.0;" x1="844" x2="844" y1="1249.9375" y2="1262.9375"/><line style="stroke:#181818;stroke-width:1.0;stroke-dasharray:2.0,2.0;" x1="797" x2="844" y1="1262.9375" y2="1262.9375"/><polygon fill="#181818" points="807,1258.9375,797,1262.9375,807,1266.9375,803,1262.9375" style="stroke:#181818;stroke-width:1.0;"/><text fill="#000000" font-family="sans-serif" font-size="13" font-weight="bold" lengthAdjust="spacing" textLength="32" x="809" y="1245.0811">42.19</text><text fill="#000000" font-family="sans-serif" font-size="13" lengthAdjust="spacing" textLength="4" x="845" y="1245.0811"> </text><line style="stroke:#181818;stroke-width:1.0;stroke-dasharray:2.0,2.0;" x1="797" x2="839" y1="1325.2891" y2="1325.2891"/><line style="stroke:#181818;stroke-width:1.0;stroke-dasharray:2.0,2.0;" x1="839" x2="839" y1="1325.2891" y2="1338.2891"/><line style="stroke:#181818;stroke-width:1.0;stroke-dasharray:2.0,2.0;" x1="792" x2="839" y1="1338.2891" y2="1338.2891"/><polygon fill="#181818" points="802,1334.2891,792,1338.2891,802,1342.2891,798,1338.2891" style="stroke:#181818;stroke-width:1.0;"/><text fill="#000000" font-family="sans-serif" font-size="13" font-weight="bold" lengthAdjust="spacing" textLength="32" x="804" y="1320.4326">42.20</text><text fill="#000000" font-family="sans-serif" font-size="13" lengthAdjust="spacing" textLength="132" x="840" y="1320.4326">availableEquipmentList</text><polygon fill="#181818" points="387,1359.6406,377,1363.6406,387,1367.6406,383,1363.6406" style="stroke:#181818;stroke-width:1.0;"/><line style="stroke:#181818;stroke-width:1.0;stroke-dasharray:2.0,2.0;" x1="381" x2="786" y1="1363.6406" y2="1363.6406"/><text fill="#000000" font-family="sans-serif" font-size="13" font-weight="bold" lengthAdjust="spacing" textLength="32" x="393" y="1358.7842">42.21</text><text fill="#000000" font-family="sans-serif" font-size="13" lengthAdjust="spacing" textLength="35" x="429" y="1358.7842">house</text><polygon fill="#181818" points="11,1396.9922,1,1400.9922,11,1404.9922,7,1400.9922" style="stroke:#181818;stroke-width:1.0;"/><line style="stroke:#181818;stroke-width:1.0;stroke-dasharray:2.0,2.0;" x1="5" x2="370" y1="1400.9922" y2="1400.9922"/><text fill="#000000" font-family="sans-serif" font-size="13" font-weight="bold" lengthAdjust="spacing" textLength="14" x="17" y="1396.1357">43</text><text fill="#000000" font-family="sans-serif" font-size="13" lengthAdjust="spacing" textLength="43" x="35" y="1396.1357">request</text><!--SRC=[tLRBRjim4BphAnOvsOPSe8-JKHI8NGC9OCHkPDzoMKjhYuX4AYILnaK-lfHaKbAK-f6cb_eYYPoT7S-IIwfxnZEKc48gk0XZAL82BNFob9l9CBp7BGLwbn182ZNoRT84g1WZyPFnBMmmKUHvPbYpa6N8DLn8UiX9wJi-kgtUBW0Lt4v_hAR1iWsDHQx80A-APmcxcg-2QHkKY10r4zpWPllN4ZgRJowNr_ERDXeVaIMuJcZwaBCi9Lu8kUmCbWoNHjFreXsVnKABhSGiDd4Bzr7Y5rVpvRmDN-UASLBAWCVxrn8wNWNNDzCWy3mFSorudgv9mfTFdWVLR_ZDMWA3mGX2IQWfm8JsflKoAJAIUhVSPUG3fYBdsh_ZW0RfWzAIIDzWQkP2fdS-HCoCiR30A6suVFZ5iec8g9f27jB402VcpvCqe4hIc28fHAhy_IVgkFgsW0LAK_TjO1O5-LrplvCA9SkAeinC5XD6J-P99jiO5HKGd_4OrqmNSJEnqRxA-VGf4ogNrBTsOAZPer7jradRjWyVA-EsKkGPJ4gpe5mrK7W6UzCyPs_rimuRisr11WEmRjk2zIfp-o-2s_7bmcm4bybx_sSntCzLfTgMdVbgtDapWWrBadhJ529wkMJ5iqj-d3qH8eEDa40Onc283YaeDsUzbOgy_HCKOnJLWdlrxd-BtfVSZvYmgD3oBhIEjuk8w5-GT13Fpy_TGU9HMQXt4dvYLcUrFGKQMzEU4hq3-nBQs_9GMTmvqyNOgQOGgElkXDWZx2_J31jf3dfvacHR5YFOwZkHzDmQsJH5T-WUnMMNEDhCth1nsktZO8Pki1DVNH8QZUKWKVy0axN1j9ok2w_Gdj-FEwbS1tf7zfhUExyFlO7Z-5BxGmlgv7fb3HHBopkd9TMazd8mWl8QwnqtmkXitsi-kw2lmo4q6FTtQEyLFdT1-Wq0]--></g></svg>