<?xml version="1.0" encoding="UTF-8" standalone="no"?><svg xmlns="http://www.w3.org/2000/svg" xmlns:xlink="http://www.w3.org/1999/xlink" contentStyleType="text/css" height="657px" preserveAspectRatio="none" style="width:573px;height:657px;background:#FFFFFF;" version="1.1" viewBox="0 0 573 657" width="573px" zoomAndPan="magnify"><defs/><g><text fill="#000000" font-family="sans-serif" font-size="14" font-weight="bold" lengthAdjust="spacing" textLength="156" x="201.5" y="24.5332">Domain Model - US001</text><!--class Client--><g id="elem_Client"><rect codeLine="14" fill="#F1F1F1" height="35.6094" id="Client" rx="2.5" ry="2.5" style="stroke:#181818;stroke-width:0.5;" width="42" x="201" y="71.6094"/><text fill="#000000" font-family="sans-serif" font-size="14" lengthAdjust="spacing" textLength="36" x="204" y="91.1426">Client</text><line style="stroke:#181818;stroke-width:0.5;" x1="202" x2="242" y1="99.2188" y2="99.2188"/></g><!--class Announcement--><g id="elem_Announcement"><rect codeLine="16" fill="#F1F1F1" height="70.8281" id="Announcement" rx="2.5" ry="2.5" style="stroke:#181818;stroke-width:0.5;" width="135" x="154.5" y="229.1094"/><text fill="#000000" font-family="sans-serif" font-size="14" lengthAdjust="spacing" textLength="95" x="174.5" y="248.6426">Announcement</text><line style="stroke:#181818;stroke-width:0.5;" x1="155.5" x2="288.5" y1="256.7188" y2="256.7188"/><text fill="#000000" font-family="sans-serif" font-size="14" lengthAdjust="spacing" textLength="103" x="160.5" y="275.252">typeCommission</text><text fill="#000000" font-family="sans-serif" font-size="14" lengthAdjust="spacing" textLength="123" x="160.5" y="292.8613">amountCommission</text></g><!--class Property--><g id="elem_Property"><rect codeLine="21" fill="#F1F1F1" height="70.8281" id="Property" rx="2.5" ry="2.5" style="stroke:#181818;stroke-width:0.5;" width="132" x="251" y="422.1094"/><text fill="#000000" font-family="sans-serif" font-size="14" lengthAdjust="spacing" textLength="54" x="290" y="441.6426">Property</text><line style="stroke:#181818;stroke-width:0.5;" x1="252" x2="382" y1="449.7188" y2="449.7188"/><text fill="#000000" font-family="sans-serif" font-size="14" lengthAdjust="spacing" textLength="29" x="257" y="468.252">area</text><text fill="#000000" font-family="sans-serif" font-size="14" lengthAdjust="spacing" textLength="120" x="257" y="485.8613">distanceCityCenter</text></g><!--class Price--><g id="elem_Price"><rect codeLine="26" fill="#F1F1F1" height="53.2188" id="Price" rx="2.5" ry="2.5" style="stroke:#181818;stroke-width:0.5;" width="59" x="234.5" y="597.6094"/><text fill="#000000" font-family="sans-serif" font-size="14" lengthAdjust="spacing" textLength="32" x="248" y="617.1426">Price</text><line style="stroke:#181818;stroke-width:0.5;" x1="235.5" x2="292.5" y1="625.2188" y2="625.2188"/><text fill="#000000" font-family="sans-serif" font-size="14" lengthAdjust="spacing" textLength="47" x="240.5" y="643.752">amount</text></g><!--class Lease--><g id="elem_Lease"><rect codeLine="30" fill="#F1F1F1" height="53.2188" id="Lease" rx="2.5" ry="2.5" style="stroke:#181818;stroke-width:0.5;" width="117" x="82.5" y="597.6094"/><text fill="#000000" font-family="sans-serif" font-size="14" lengthAdjust="spacing" textLength="39" x="121.5" y="617.1426">Lease</text><line style="stroke:#181818;stroke-width:0.5;" x1="83.5" x2="198.5" y1="625.2188" y2="625.2188"/><text fill="#000000" font-family="sans-serif" font-size="14" lengthAdjust="spacing" textLength="105" x="88.5" y="643.752">contractDuration</text></g><!--class Location--><g id="elem_Location"><rect codeLine="34" fill="#F1F1F1" height="123.6563" id="Location" rx="2.5" ry="2.5" style="stroke:#181818;stroke-width:0.5;" width="84" x="482" y="395.6094"/><text fill="#000000" font-family="sans-serif" font-size="14" lengthAdjust="spacing" textLength="54" x="497" y="415.1426">Location</text><line style="stroke:#181818;stroke-width:0.5;" x1="483" x2="565" y1="423.2188" y2="423.2188"/><text fill="#000000" font-family="sans-serif" font-size="14" lengthAdjust="spacing" textLength="72" x="488" y="441.752">streetName</text><text fill="#000000" font-family="sans-serif" font-size="14" lengthAdjust="spacing" textLength="21" x="488" y="459.3613">city</text><text fill="#000000" font-family="sans-serif" font-size="14" lengthAdjust="spacing" textLength="41" x="488" y="476.9707">district</text><text fill="#000000" font-family="sans-serif" font-size="14" lengthAdjust="spacing" textLength="31" x="488" y="494.5801">state</text><text fill="#000000" font-family="sans-serif" font-size="14" lengthAdjust="spacing" textLength="51" x="488" y="512.1895">zipCode</text></g><!--class TypeProperty--><g id="elem_TypeProperty"><rect codeLine="42" fill="#F1F1F1" height="53.2188" id="TypeProperty" rx="2.5" ry="2.5" style="stroke:#181818;stroke-width:0.5;" width="92" x="7" y="431.1094"/><text fill="#000000" font-family="sans-serif" font-size="14" lengthAdjust="spacing" textLength="86" x="10" y="450.6426">TypeProperty</text><line style="stroke:#181818;stroke-width:0.5;" x1="8" x2="98" y1="458.7188" y2="458.7188"/><text fill="#000000" font-family="sans-serif" font-size="14" lengthAdjust="spacing" textLength="73" x="13" y="477.252">designation</text></g><!--class TypeResidence--><g id="elem_TypeResidence"><rect codeLine="46" fill="#F1F1F1" height="53.2188" id="TypeResidence" rx="2.5" ry="2.5" style="stroke:#181818;stroke-width:0.5;" width="105" x="308.5" y="63.1094"/><text fill="#000000" font-family="sans-serif" font-size="14" lengthAdjust="spacing" textLength="99" x="311.5" y="82.6426">TypeResidence</text><line style="stroke:#181818;stroke-width:0.5;" x1="309.5" x2="412.5" y1="90.7188" y2="90.7188"/><text fill="#000000" font-family="sans-serif" font-size="14" lengthAdjust="spacing" textLength="73" x="314.5" y="109.252">designation</text></g><!--class Photograph--><g id="elem_Photograph"><rect codeLine="50" fill="#F1F1F1" height="53.2188" id="Photograph" rx="2.5" ry="2.5" style="stroke:#181818;stroke-width:0.5;" width="80" x="329" y="597.6094"/><text fill="#000000" font-family="sans-serif" font-size="14" lengthAdjust="spacing" textLength="74" x="332" y="617.1426">Photograph</text><line style="stroke:#181818;stroke-width:0.5;" x1="330" x2="408" y1="625.2188" y2="625.2188"/><text fill="#000000" font-family="sans-serif" font-size="14" lengthAdjust="spacing" textLength="16" x="335" y="643.752">url</text></g><!--class House--><g id="elem_House"><rect codeLine="54" fill="#F1F1F1" height="88.4375" id="House" rx="2.5" ry="2.5" style="stroke:#181818;stroke-width:0.5;" width="105" x="448.5" y="45.6094"/><text fill="#000000" font-family="sans-serif" font-size="14" lengthAdjust="spacing" textLength="40" x="481" y="65.1426">House</text><line style="stroke:#181818;stroke-width:0.5;" x1="449.5" x2="552.5" y1="73.2188" y2="73.2188"/><text fill="#000000" font-family="sans-serif" font-size="14" lengthAdjust="spacing" textLength="62" x="454.5" y="91.752">basement</text><text fill="#000000" font-family="sans-serif" font-size="14" lengthAdjust="spacing" textLength="93" x="454.5" y="109.3613">inhabitableLoft</text><text fill="#000000" font-family="sans-serif" font-size="14" lengthAdjust="spacing" textLength="82" x="454.5" y="126.9707">sunExposure</text></g><!--class Residence--><g id="elem_Residence"><rect codeLine="60" fill="#F1F1F1" height="106.0469" id="Residence" rx="2.5" ry="2.5" style="stroke:#181818;stroke-width:0.5;" width="135" x="324.5" y="211.6094"/><text fill="#000000" font-family="sans-serif" font-size="14" lengthAdjust="spacing" textLength="67" x="358.5" y="231.1426">Residence</text><line style="stroke:#181818;stroke-width:0.5;" x1="325.5" x2="458.5" y1="239.2188" y2="239.2188"/><text fill="#000000" font-family="sans-serif" font-size="14" lengthAdjust="spacing" textLength="112" x="330.5" y="257.752">numberBedrooms</text><text fill="#000000" font-family="sans-serif" font-size="14" lengthAdjust="spacing" textLength="116" x="330.5" y="275.3613">numberBathrooms</text><text fill="#000000" font-family="sans-serif" font-size="14" lengthAdjust="spacing" textLength="87" x="330.5" y="292.9707">parkingSpace</text><text fill="#000000" font-family="sans-serif" font-size="14" lengthAdjust="spacing" textLength="123" x="330.5" y="310.5801">availableEquipment</text></g><!--link Client to Announcement--><g id="link_Client_Announcement"><path codeLine="68" d="M222,107.8294 C222,135.9494 222,192.2494 222,228.9094 " fill="none" id="Client-Announcement" style="stroke:#181818;stroke-width:1.0;"/><polygon fill="#000000" points="227,177.7852,229.9389,168.7401,224.0611,168.7401,227,177.7852" style="stroke:#000000;stroke-width:1.0;"/><text fill="#000000" font-family="sans-serif" font-size="13" lengthAdjust="spacing" textLength="31" x="236" y="178.1045">views</text><text fill="#000000" font-family="sans-serif" font-size="13" lengthAdjust="spacing" textLength="7" x="214.0156" y="128.8032">1</text><text fill="#000000" font-family="sans-serif" font-size="13" lengthAdjust="spacing" textLength="20" x="200.0938" y="218.1241">1..*</text></g><!--link Announcement to Property--><g id="link_Announcement_Property"><path codeLine="69" d="M239.2,300.1994 C256.37,334.7094 282.59,387.4294 299.76,421.9594 " fill="none" id="Announcement-Property" style="stroke:#181818;stroke-width:1.0;"/><polygon fill="#000000" points="277.2267,361.262,275.83,351.8545,270.5672,354.4721,277.2267,361.262" style="stroke:#000000;stroke-width:1.0;"/><text fill="#000000" font-family="sans-serif" font-size="13" lengthAdjust="spacing" textLength="49" x="284" y="362.1045">contains</text><text fill="#000000" font-family="sans-serif" font-size="13" lengthAdjust="spacing" textLength="7" x="234.6403" y="321.5056">1</text><text fill="#000000" font-family="sans-serif" font-size="13" lengthAdjust="spacing" textLength="7" x="288.8064" y="411.1836">1</text></g><!--link Residence to Property--><g id="link_Residence_Property"><path codeLine="70" d="M371.51,317.7994 C361.09,344.3394 348.45,376.5294 337.96,403.2294 " fill="none" id="Residence-to-Property" style="stroke:#181818;stroke-width:1.0;"/><polygon fill="none" points="344.43,405.9094,330.6,421.9694,331.4,400.7894,344.43,405.9094" style="stroke:#181818;stroke-width:1.0;"/></g><!--link House to Residence--><g id="link_House_Residence"><path codeLine="71" d="M495.83,133.7594 C492.61,149.5694 487.41,167.1294 479,181.6094 C476.12,186.5694 472.84,191.4194 469.29,196.1194 " fill="none" id="House-to-Residence" style="stroke:#181818;stroke-width:1.0;"/><polygon fill="none" points="474.59,200.6994,456.34,211.4794,463.88,191.6794,474.59,200.6994" style="stroke:#181818;stroke-width:1.0;"/></g><!--link TypeProperty to Property--><g id="link_TypeProperty_Property"><path codeLine="72" d="M99.29,457.6094 C141.29,457.6094 203.68,457.6094 250.92,457.6094 " fill="none" id="TypeProperty-Property" style="stroke:#181818;stroke-width:1.0;"/><polygon fill="#000000" points="126.5,445.7852,117.4549,442.8462,117.4549,448.7241,126.5,445.7852" style="stroke:#000000;stroke-width:1.0;"/><text fill="#000000" font-family="sans-serif" font-size="13" lengthAdjust="spacing" textLength="102" x="130.5" y="451.1045">is a description of</text><text fill="#000000" font-family="sans-serif" font-size="13" lengthAdjust="spacing" textLength="7" x="106.9141" y="453.8897">1</text><text fill="#000000" font-family="sans-serif" font-size="13" lengthAdjust="spacing" textLength="7" x="235.8748" y="454.2098">1</text></g><!--link TypeResidence to Residence--><g id="link_TypeResidence_Residence"><path codeLine="73" d="M357.05,116.3594 C354.98,134.7294 353.68,159.9094 358,181.6094 C359.96,191.4294 363.11,201.5594 366.73,211.1894 " fill="none" id="TypeResidence-Residence" style="stroke:#181818;stroke-width:1.0;"/><polygon fill="#000000" points="363.5077,177.7593,365.513,168.4625,359.6655,169.0594,363.5077,177.7593" style="stroke:#000000;stroke-width:1.0;"/><text fill="#000000" font-family="sans-serif" font-size="13" lengthAdjust="spacing" textLength="102" x="372" y="178.1045">is a description of</text><text fill="#000000" font-family="sans-serif" font-size="13" lengthAdjust="spacing" textLength="7" x="348.3272" y="137.9058">1</text><text fill="#000000" font-family="sans-serif" font-size="13" lengthAdjust="spacing" textLength="7" x="356.0438" y="200.8346">1</text></g><!--link Property to Location--><g id="link_Property_Location"><path codeLine="74" d="M383.07,457.6094 C415.48,457.6094 453.57,457.6094 481.97,457.6094 " fill="none" id="Property-Location" style="stroke:#181818;stroke-width:1.0;"/><polygon fill="#000000" points="410.5,445.7852,401.4549,442.8462,401.4549,448.7241,410.5,445.7852" style="stroke:#000000;stroke-width:1.0;"/><text fill="#000000" font-family="sans-serif" font-size="13" lengthAdjust="spacing" textLength="49" x="414.5" y="451.1045">contains</text><text fill="#000000" font-family="sans-serif" font-size="13" lengthAdjust="spacing" textLength="7" x="391.114" y="454.2098">1</text><text fill="#000000" font-family="sans-serif" font-size="13" lengthAdjust="spacing" textLength="7" x="466.86" y="453.7414">1</text></g><!--link Property to Photograph--><g id="link_Property_Photograph"><path codeLine="75" d="M328.03,493.4994 C337.87,524.6194 352.04,569.4694 360.88,597.4194 " fill="none" id="Property-Photograph" style="stroke:#181818;stroke-width:1.0;"/><polygon fill="#000000" points="357.507,563.5526,357.583,554.0424,351.9785,555.814,357.507,563.5526" style="stroke:#000000;stroke-width:1.0;"/><text fill="#000000" font-family="sans-serif" font-size="13" lengthAdjust="spacing" textLength="49" x="365" y="564.1045">contains</text><text fill="#000000" font-family="sans-serif" font-size="13" lengthAdjust="spacing" textLength="7" x="322.2772" y="514.3071">1</text><text fill="#000000" font-family="sans-serif" font-size="13" lengthAdjust="spacing" textLength="5" x="353.4241" y="586.9078">*</text></g><!--link Lease to Price--><g id="link_Lease_Price"><path codeLine="76" d="M199.62,624.1094 C204.5,624.1094 209.38,624.1094 214.26,624.1094 " fill="none" id="Lease-to-Price" style="stroke:#181818;stroke-width:1.0;"/><polygon fill="none" points="214.32,617.1094,234.32,624.1094,214.32,631.1094,214.32,617.1094" style="stroke:#181818;stroke-width:1.0;"/></g><!--link Property to Price--><g id="link_Property_Price"><path codeLine="77" d="M298.24,493.1394 C289.95,509.7694 280.78,530.2694 275,549.6094 C270.34,565.1894 267.61,583.2294 266.03,597.5494 " fill="none" id="Property-Price" style="stroke:#181818;stroke-width:1.0;"/><polygon fill="#000000" points="278.5261,563.563,284.0008,555.7862,278.3841,554.0535,278.5261,563.563" style="stroke:#000000;stroke-width:1.0;"/><text fill="#000000" font-family="sans-serif" font-size="13" lengthAdjust="spacing" textLength="49" x="289" y="564.1045">contains</text><text fill="#000000" font-family="sans-serif" font-size="13" lengthAdjust="spacing" textLength="7" x="287.2749" y="514.4349">1</text><text fill="#000000" font-family="sans-serif" font-size="13" lengthAdjust="spacing" textLength="7" x="258.6717" y="586.6367">1</text></g><!--SRC=[TLFRJjj047sVhnZbfLAb87X55H8DIAsKLgXfFs2odjWZx5rtTmmDeV_UMHiSEr2_s7lsd3DNftlnBKLgi0a-k2g6Xb5Znv36cvRSFPMyqNtD6Daf-RAU4b95HNWKN-AEwiG07shUAMh0A6MbM4XMIV0m4RcQKhfMZRBjbB-wu3Von7WEK4d1w2Gw2z9_DwnLA1A0YbeADw4XyVWj55pZ4dzjpiyl07e_NDN2NWz_Ny_NteVEEsuCnGEWFRflUHMQHbBAAMM86YFf11prTp6q77K_I8qPcLu-2qdM2SShqVtAx3bEPUBu08Fl4Lup9OEjLetazAQBfBDmw-1wv0198xD-fuR1MG38qSnKxOAKuKdQbTL_LFwqgex95foaz2VccVB3BWhsERbtENTLq516Qgi3TB4-Ndm9NKuTjrP1RYQW-8gsehIjUHrs1gJEt_vfG-hY9Az9GFHTi-NucOiOGfF6Csdr0jXcs7wK6ziu1deWgRFxxUzEsZwckS8mOLnSB72vjDVPsSV5RCoN-23ycF0APiCV1Ojng9UO9s6xbCbZecYqvoiSMT2NFe0Z2QRz7hnFh2KXeVNOHMbpZp7iBCfi1jESHl1_odU2lMxBh8uvpuZMdkDKJwYsfVZfUPb_r-MmdM_rVLMI4vj8_m40]--></g></svg>