<?xml version="1.0" encoding="UTF-8" standalone="no"?><svg xmlns="http://www.w3.org/2000/svg" xmlns:xlink="http://www.w3.org/1999/xlink" contentStyleType="text/css" height="657px" preserveAspectRatio="none" style="width:977px;height:657px;background:#FFFFFF;" version="1.1" viewBox="0 0 977 657" width="977px" zoomAndPan="magnify"><defs/><g><text fill="#000000" font-family="sans-serif" font-size="14" font-weight="bold" lengthAdjust="spacing" textLength="156" x="403.75" y="24.5332">Domain Model - US001</text><!--class Announcement--><g id="elem_Announcement"><rect codeLine="15" fill="#F1F1F1" height="53.2188" id="Announcement" rx="2.5" ry="2.5" style="stroke:#181818;stroke-width:0.5;" width="115" x="633.5" y="63.1094"/><text fill="#000000" font-family="sans-serif" font-size="14" lengthAdjust="spacing" textLength="95" x="643.5" y="82.6426">Announcement</text><line style="stroke:#181818;stroke-width:0.5;" x1="634.5" x2="747.5" y1="90.7188" y2="90.7188"/><text fill="#000000" font-family="sans-serif" font-size="14" lengthAdjust="spacing" textLength="103" x="639.5" y="109.252">acceptanceDate</text></g><!--class Property--><g id="elem_Property"><rect codeLine="19" fill="#F1F1F1" height="70.8281" id="Property" rx="2.5" ry="2.5" style="stroke:#181818;stroke-width:0.5;" width="132" x="378" y="377.6094"/><text fill="#000000" font-family="sans-serif" font-size="14" lengthAdjust="spacing" textLength="54" x="417" y="397.1426">Property</text><line style="stroke:#181818;stroke-width:0.5;" x1="379" x2="509" y1="405.2188" y2="405.2188"/><text fill="#000000" font-family="sans-serif" font-size="14" lengthAdjust="spacing" textLength="29" x="384" y="423.752">area</text><text fill="#000000" font-family="sans-serif" font-size="14" lengthAdjust="spacing" textLength="120" x="384" y="441.3613">distanceCityCenter</text></g><!--class Residence--><g id="elem_Residence"><rect codeLine="24" fill="#F1F1F1" height="88.4375" id="Residence" rx="2.5" ry="2.5" style="stroke:#181818;stroke-width:0.5;" width="128" x="235" y="211.6094"/><text fill="#000000" font-family="sans-serif" font-size="14" lengthAdjust="spacing" textLength="67" x="265.5" y="231.1426">Residence</text><line style="stroke:#181818;stroke-width:0.5;" x1="236" x2="362" y1="239.2188" y2="239.2188"/><text fill="#000000" font-family="sans-serif" font-size="14" lengthAdjust="spacing" textLength="112" x="241" y="257.752">numberBedrooms</text><text fill="#000000" font-family="sans-serif" font-size="14" lengthAdjust="spacing" textLength="116" x="241" y="275.3613">numberBathrooms</text><text fill="#000000" font-family="sans-serif" font-size="14" lengthAdjust="spacing" textLength="87" x="241" y="292.9707">parkingSpace</text></g><!--class AvailableEquipment--><g id="elem_AvailableEquipment"><rect codeLine="30" fill="#F1F1F1" height="53.2188" id="AvailableEquipment" rx="2.5" ry="2.5" style="stroke:#181818;stroke-width:0.5;" width="130" x="7" y="229.1094"/><text fill="#000000" font-family="sans-serif" font-size="14" lengthAdjust="spacing" textLength="124" x="10" y="248.6426">AvailableEquipment</text><line style="stroke:#181818;stroke-width:0.5;" x1="8" x2="136" y1="256.7188" y2="256.7188"/><text fill="#000000" font-family="sans-serif" font-size="14" lengthAdjust="spacing" textLength="69" x="13" y="275.252">description</text></g><!--class House--><g id="elem_House"><rect codeLine="34" fill="#F1F1F1" height="88.4375" id="House" rx="2.5" ry="2.5" style="stroke:#181818;stroke-width:0.5;" width="105" x="316.5" y="45.6094"/><text fill="#000000" font-family="sans-serif" font-size="14" lengthAdjust="spacing" textLength="40" x="349" y="65.1426">House</text><line style="stroke:#181818;stroke-width:0.5;" x1="317.5" x2="420.5" y1="73.2188" y2="73.2188"/><text fill="#000000" font-family="sans-serif" font-size="14" lengthAdjust="spacing" textLength="62" x="322.5" y="91.752">basement</text><text fill="#000000" font-family="sans-serif" font-size="14" lengthAdjust="spacing" textLength="93" x="322.5" y="109.3613">inhabitableLoft</text><text fill="#000000" font-family="sans-serif" font-size="14" lengthAdjust="spacing" textLength="82" x="322.5" y="126.9707">sunExposure</text></g><!--class PropertyType--><g id="elem_PropertyType"><rect codeLine="40" fill="#F1F1F1" height="53.2188" id="PropertyType" rx="2.5" ry="2.5" style="stroke:#181818;stroke-width:0.5;" width="92" x="398" y="229.1094"/><text fill="#000000" font-family="sans-serif" font-size="14" lengthAdjust="spacing" textLength="86" x="401" y="248.6426">PropertyType</text><line style="stroke:#181818;stroke-width:0.5;" x1="399" x2="489" y1="256.7188" y2="256.7188"/><text fill="#000000" font-family="sans-serif" font-size="14" lengthAdjust="spacing" textLength="73" x="404" y="275.252">designation</text></g><!--class ResidenceType--><g id="elem_ResidenceType"><rect codeLine="43" fill="#F1F1F1" height="53.2188" id="ResidenceType" rx="2.5" ry="2.5" style="stroke:#181818;stroke-width:0.5;" width="105" x="176.5" y="63.1094"/><text fill="#000000" font-family="sans-serif" font-size="14" lengthAdjust="spacing" textLength="99" x="179.5" y="82.6426">ResidenceType</text><line style="stroke:#181818;stroke-width:0.5;" x1="177.5" x2="280.5" y1="90.7188" y2="90.7188"/><text fill="#000000" font-family="sans-serif" font-size="14" lengthAdjust="spacing" textLength="73" x="182.5" y="109.252">designation</text></g><!--class Photograph--><g id="elem_Photograph"><rect codeLine="46" fill="#F1F1F1" height="53.2188" id="Photograph" rx="2.5" ry="2.5" style="stroke:#181818;stroke-width:0.5;" width="80" x="467" y="562.1094"/><text fill="#000000" font-family="sans-serif" font-size="14" lengthAdjust="spacing" textLength="74" x="470" y="581.6426">Photograph</text><line style="stroke:#181818;stroke-width:0.5;" x1="468" x2="546" y1="589.7188" y2="589.7188"/><text fill="#000000" font-family="sans-serif" font-size="14" lengthAdjust="spacing" textLength="16" x="473" y="608.252">uri</text></g><!--class Location--><g id="elem_Location"><rect codeLine="49" fill="#F1F1F1" height="123.6563" id="Location" rx="2.5" ry="2.5" style="stroke:#181818;stroke-width:0.5;" width="84" x="339" y="526.6094"/><text fill="#000000" font-family="sans-serif" font-size="14" lengthAdjust="spacing" textLength="54" x="354" y="546.1426">Location</text><line style="stroke:#181818;stroke-width:0.5;" x1="340" x2="422" y1="554.2188" y2="554.2188"/><text fill="#000000" font-family="sans-serif" font-size="14" lengthAdjust="spacing" textLength="72" x="345" y="572.752">streetName</text><text fill="#000000" font-family="sans-serif" font-size="14" lengthAdjust="spacing" textLength="21" x="345" y="590.3613">city</text><text fill="#000000" font-family="sans-serif" font-size="14" lengthAdjust="spacing" textLength="41" x="345" y="607.9707">district</text><text fill="#000000" font-family="sans-serif" font-size="14" lengthAdjust="spacing" textLength="31" x="345" y="625.5801">state</text><text fill="#000000" font-family="sans-serif" font-size="14" lengthAdjust="spacing" textLength="51" x="345" y="643.1895">zipCode</text></g><!--class Business--><g id="elem_Business"><rect codeLine="56" fill="#F1F1F1" height="53.2188" id="Business" rx="2.5" ry="2.5" style="stroke:#181818;stroke-width:0.5;" width="63" x="819.5" y="386.6094"/><text fill="#000000" font-family="sans-serif" font-size="14" lengthAdjust="spacing" textLength="57" x="822.5" y="406.1426">Business</text><line style="stroke:#181818;stroke-width:0.5;" x1="820.5" x2="881.5" y1="414.2188" y2="414.2188"/><text fill="#000000" font-family="sans-serif" font-size="14" lengthAdjust="spacing" textLength="31" x="825.5" y="432.752">price</text></g><!--class BusinessType--><g id="elem_BusinessType"><rect codeLine="59" fill="#F1F1F1" height="53.2188" id="BusinessType" rx="2.5" ry="2.5" style="stroke:#181818;stroke-width:0.5;" width="95" x="875.5" y="229.1094"/><text fill="#000000" font-family="sans-serif" font-size="14" lengthAdjust="spacing" textLength="89" x="878.5" y="248.6426">BusinessType</text><line style="stroke:#181818;stroke-width:0.5;" x1="876.5" x2="969.5" y1="256.7188" y2="256.7188"/><text fill="#000000" font-family="sans-serif" font-size="14" lengthAdjust="spacing" textLength="73" x="881.5" y="275.252">designation</text></g><!--class Lease--><g id="elem_Lease"><rect codeLine="62" fill="#F1F1F1" height="53.2188" id="Lease" rx="2.5" ry="2.5" style="stroke:#181818;stroke-width:0.5;" width="117" x="792.5" y="562.1094"/><text fill="#000000" font-family="sans-serif" font-size="14" lengthAdjust="spacing" textLength="39" x="831.5" y="581.6426">Lease</text><line style="stroke:#181818;stroke-width:0.5;" x1="793.5" x2="908.5" y1="589.7188" y2="589.7188"/><text fill="#000000" font-family="sans-serif" font-size="14" lengthAdjust="spacing" textLength="105" x="798.5" y="608.252">contractDuration</text></g><!--class Request--><g id="elem_Request"><rect codeLine="66" fill="#F1F1F1" height="53.2188" id="Request" rx="2.5" ry="2.5" style="stroke:#181818;stroke-width:0.5;" width="90" x="646" y="229.1094"/><text fill="#000000" font-family="sans-serif" font-size="14" lengthAdjust="spacing" textLength="53" x="664.5" y="248.6426">Request</text><line style="stroke:#181818;stroke-width:0.5;" x1="647" x2="735" y1="256.7188" y2="256.7188"/><text fill="#000000" font-family="sans-serif" font-size="14" lengthAdjust="spacing" textLength="78" x="652" y="275.252">requestDate</text></g><!--link Residence to Property--><g id="link_Residence_Property"><path codeLine="71" d="M339.39,299.9294 C357.55,319.3994 379.09,342.4994 397.88,362.6494 " fill="none" id="Residence-to-Property" style="stroke:#181818;stroke-width:1.0;"/><polygon fill="none" points="403.1,357.9794,411.62,377.3794,392.86,367.5294,403.1,357.9794" style="stroke:#181818;stroke-width:1.0;"/></g><!--link House to Residence--><g id="link_House_Residence"><path codeLine="72" d="M361.76,133.7294 C358.34,149.2094 353.54,166.5494 347,181.6094 C345.21,185.7394 343.19,189.8894 341.02,193.9994 " fill="none" id="House-to-Residence" style="stroke:#181818;stroke-width:1.0;"/><polygon fill="none" points="346.88,197.8494,330.76,211.5994,334.78,190.7994,346.88,197.8494" style="stroke:#181818;stroke-width:1.0;"/></g><!--link PropertyType to Property--><g id="link_PropertyType_Property"><path codeLine="73" d="M442.37,282.4894 C441.42,300.6994 440.49,325.6394 441,347.6094 C441.22,357.2494 441.64,367.6894 442.08,377.3094 " fill="none" id="PropertyType-Property" style="stroke:#181818;stroke-width:1.0;"/><polygon fill="#000000" points="445.9847,343.7851,448.9513,334.7491,443.0735,334.7311,445.9847,343.7851" style="stroke:#000000;stroke-width:1.0;"/><text fill="#000000" font-family="sans-serif" font-size="13" lengthAdjust="spacing" textLength="102" x="455" y="344.1045">is a description of</text><text fill="#000000" font-family="sans-serif" font-size="13" lengthAdjust="spacing" textLength="7" x="434.2478" y="303.629">1</text><text fill="#000000" font-family="sans-serif" font-size="13" lengthAdjust="spacing" textLength="7" x="434.0807" y="366.7771">1</text></g><!--link ResidenceType to Residence--><g id="link_ResidenceType_Residence"><path codeLine="74" d="M220.79,116.3794 C216.24,135.1994 213.11,160.9394 222,181.6094 C226.66,192.4394 233.8,202.4194 241.89,211.2894 " fill="none" id="ResidenceType-Residence" style="stroke:#181818;stroke-width:1.0;"/><polygon fill="#000000" points="228.0851,177.666,228.991,168.1987,223.2533,169.4743,228.0851,177.666" style="stroke:#000000;stroke-width:1.0;"/><text fill="#000000" font-family="sans-serif" font-size="13" lengthAdjust="spacing" textLength="102" x="236" y="178.1045">is a description of</text><text fill="#000000" font-family="sans-serif" font-size="13" lengthAdjust="spacing" textLength="7" x="211.0821" y="137.9304">1</text><text fill="#000000" font-family="sans-serif" font-size="13" lengthAdjust="spacing" textLength="7" x="225.6091" y="200.7664">1</text></g><!--link Property to Photograph--><g id="link_Property_Photograph"><path codeLine="75" d="M457.03,448.8894 C460.61,458.5094 464.48,468.9594 468,478.6094 C478.4,507.1194 490.1,539.9194 497.95,562.0294 " fill="none" id="Property-Photograph" style="stroke:#181818;stroke-width:1.0;"/><polygon fill="#000000" points="481.7006,492.4871,481.3879,482.9817,475.8605,484.9808,481.7006,492.4871" style="stroke:#000000;stroke-width:1.0;"/><text fill="#000000" font-family="sans-serif" font-size="13" lengthAdjust="spacing" textLength="49" x="489" y="493.1045">contains</text><text fill="#000000" font-family="sans-serif" font-size="13" lengthAdjust="spacing" textLength="7" x="451.668" y="469.9542">1</text><text fill="#000000" font-family="sans-serif" font-size="13" lengthAdjust="spacing" textLength="20" x="473.3066" y="551.1118">1..*</text></g><!--link Property to Location--><g id="link_Property_Location"><path codeLine="76" d="M395.25,448.9294 C386.62,457.5694 378.84,467.5594 374,478.6094 C367.53,493.3694 366.13,510.3494 367.14,526.4394 " fill="none" id="Property-Location" style="stroke:#181818;stroke-width:1.0;"/><polygon fill="#000000" points="377.2953,492.4856,383.142,484.9844,377.6163,482.9804,377.2953,492.4856" style="stroke:#000000;stroke-width:1.0;"/><text fill="#000000" font-family="sans-serif" font-size="13" lengthAdjust="spacing" textLength="71" x="388" y="493.1045">has address</text><text fill="#000000" font-family="sans-serif" font-size="13" lengthAdjust="spacing" textLength="7" x="379.2695" y="470.001">1</text><text fill="#000000" font-family="sans-serif" font-size="13" lengthAdjust="spacing" textLength="7" x="358.1328" y="515.8613">1</text></g><!--link AvailableEquipment to Residence--><g id="link_AvailableEquipment_Residence"><path codeLine="77" d="M137.05,255.6094 C167.71,255.6094 204.17,255.6094 234.73,255.6094 " fill="none" id="AvailableEquipment-Residence" style="stroke:#181818;stroke-width:1.0;"/><polygon fill="#000000" points="154.5,243.7852,163.5451,246.7241,163.5451,240.8462,154.5,243.7852" style="stroke:#000000;stroke-width:1.0;"/><text fill="#000000" font-family="sans-serif" font-size="13" lengthAdjust="spacing" textLength="48" x="168.5" y="249.1045">includes</text><text fill="#000000" font-family="sans-serif" font-size="13" lengthAdjust="spacing" textLength="5" x="144.8605" y="252.1872">*</text><text fill="#000000" font-family="sans-serif" font-size="13" lengthAdjust="spacing" textLength="7" x="219.8941" y="252.1745">1</text></g><!--link Request to Property--><g id="link_Request_Property"><path codeLine="78" d="M656.96,282.2294 C631.36,301.0994 595.15,326.9494 562,347.6094 C545.55,357.8594 527.37,368.2394 510.3,377.5994 " fill="none" id="Request-Property" style="stroke:#181818;stroke-width:1.0;"/><polygon fill="#000000" points="588.8083,341.5109,597.9933,339.0438,594.789,334.1162,588.8083,341.5109" style="stroke:#000000;stroke-width:1.0;"/><text fill="#000000" font-family="sans-serif" font-size="13" lengthAdjust="spacing" textLength="124" x="602" y="344.1045">has information about</text><text fill="#000000" font-family="sans-serif" font-size="13" lengthAdjust="spacing" textLength="7" x="641.2789" y="303.7457">1</text><text fill="#000000" font-family="sans-serif" font-size="13" lengthAdjust="spacing" textLength="7" x="515.2713" y="366.8503">1</text></g><!--link Request to Business--><g id="link_Request_Business"><path codeLine="79" d="M712.33,282.2394 C728.35,300.9994 751.2,326.7094 773,347.6094 C787.59,361.5894 804.81,376.0294 819.36,387.6894 " fill="none" id="Request-Business" style="stroke:#181818;stroke-width:1.0;"/><polygon fill="#000000" points="781.5617,342.2943,777.1811,333.8527,773.0559,338.0397,781.5617,342.2943" style="stroke:#000000;stroke-width:1.0;"/><text fill="#000000" font-family="sans-serif" font-size="13" lengthAdjust="spacing" textLength="88" x="787" y="344.1045">is described by</text><text fill="#000000" font-family="sans-serif" font-size="13" lengthAdjust="spacing" textLength="7" x="709.4532" y="303.758">1</text><text fill="#000000" font-family="sans-serif" font-size="13" lengthAdjust="spacing" textLength="7" x="804.6731" y="377.8884">1</text></g><!--reverse link Business to Lease--><g id="link_Business_Lease"><path codeLine="80" d="M851,459.8794 C851,492.4794 851,535.0794 851,561.8994 " fill="none" id="Business-backto-Lease" style="stroke:#181818;stroke-width:1.0;"/><polygon fill="none" points="844,459.7094,851,439.7094,858,459.7094,844,459.7094" style="stroke:#181818;stroke-width:1.0;"/></g><!--link BusinessType to Business--><g id="link_BusinessType_Business"><path codeLine="81" d="M912.53,282.3094 C904.93,300.6494 894.23,325.8294 884,347.6094 C877.91,360.5894 870.7,374.7994 864.57,386.5694 " fill="none" id="BusinessType-Business" style="stroke:#181818;stroke-width:1.0;"/><polygon fill="#000000" points="893.9105,343.3276,900.3605,336.3384,895.0205,333.882,893.9105,343.3276" style="stroke:#000000;stroke-width:1.0;"/><text fill="#000000" font-family="sans-serif" font-size="13" lengthAdjust="spacing" textLength="56" x="905" y="344.1045">describes</text><text fill="#000000" font-family="sans-serif" font-size="13" lengthAdjust="spacing" textLength="7" x="902.2994" y="303.8442">1</text><text fill="#000000" font-family="sans-serif" font-size="13" lengthAdjust="spacing" textLength="7" x="860.0246" y="375.6616">1</text></g><!--link Announcement to Request--><g id="link_Announcement_Request"><path codeLine="82" d="M691,116.2294 C691,146.9494 691,198.1294 691,228.8894 " fill="none" id="Announcement-Request" style="stroke:#181818;stroke-width:1.0;"/><polygon fill="#000000" points="696,177.7852,698.9389,168.7401,693.0611,168.7401,696,177.7852" style="stroke:#000000;stroke-width:1.0;"/><text fill="#000000" font-family="sans-serif" font-size="13" lengthAdjust="spacing" textLength="71" x="705" y="178.1045">is  based on</text><text fill="#000000" font-family="sans-serif" font-size="13" lengthAdjust="spacing" textLength="7" x="683.1906" y="137.7457">1</text><text fill="#000000" font-family="sans-serif" font-size="13" lengthAdjust="spacing" textLength="7" x="683.1906" y="218.3708">1</text></g><!--SRC=[TLFRRjim37tdLn1v6L0WHVeQ50NIfC06T4FHR1z0oumjr9PSYTgMflltqKhjkfSynI4FoNCEgVXWNKU1McozywOElcMKa1ZYcEd8F535MzatZ86DaAkQAI3MLFe_rbMueoOom9U6TuBYCTYg5YnjNsMzWqcHQIZ6bKYmHHB-PhpRsYV61K1jIqPZWz4X-RjbgNqP0SIAKjZubgp3xxxa1kVuQxjON010ReWhvtnoXbjsSW0oXZlbQtX3ml1lGDq5tt6G_G6G0XCenPXXQolxjPPoU0NVSrGMcbIqIst1uPhBu7qRn_yazKj0nQd4QgkcJUQjVfDjg6ZuvZ7PxiYjv6Y2xR8l8_2hJx6VKr3C4W2jgwcmqXVV-fq6Od8tVpiVK_X4qCzznxcrhHozj7wduZJahlRYgq1TVO0Kx1Y_zIO33n0bCCiFQXcCEWMzRS4QqKJlxvFjrhgLiV0wHUiunWDqYleOFqtbbgdtGQz20XdPf41lZRhdnyHHRGp7Zs6_CEf4dC-Vht2q1hAtn-08WgbnEBkOQJx_3F4bseY4asMXt-4LlB5pMZWcJbKEdL-Bpi_FPXFpbzZBrXEFxz3pULyoR6E9DUc0iWpgv9JHiN5-WhEpsSVJKsBED4c9VM2Jka54DXMNU9cdMBVpeSrZaGgV10R4HFcmrIpyABlW4ekzZXboUFciwBnTc5x1Ptrq-j2bPpfzsMyD7xZgsFnmIbIQLteB_m40]--></g></svg>