<?xml version="1.0" encoding="UTF-8" standalone="no"?><svg xmlns="http://www.w3.org/2000/svg" xmlns:xlink="http://www.w3.org/1999/xlink" contentStyleType="text/css" height="807px" preserveAspectRatio="none" style="width:560px;height:807px;background:#FFFFFF;" version="1.1" viewBox="0 0 560 807" width="560px" zoomAndPan="magnify"><defs/><g><text fill="#000000" font-family="sans-serif" font-size="14" font-weight="bold" lengthAdjust="spacing" textLength="156" x="195" y="24.5332">Domain Model - US004</text><!--class Property--><g id="elem_Property"><rect codeLine="14" fill="#F1F1F1" height="70.8281" id="Property" rx="2.5" ry="2.5" style="stroke:#181818;stroke-width:0.5;" width="60" x="314.5" y="370.1094"/><text fill="#000000" font-family="sans-serif" font-size="14" lengthAdjust="spacing" textLength="54" x="317.5" y="389.6426">Property</text><line style="stroke:#181818;stroke-width:0.5;" x1="315.5" x2="373.5" y1="397.7188" y2="397.7188"/><text fill="#000000" font-family="sans-serif" font-size="14" lengthAdjust="spacing" textLength="29" x="320.5" y="416.252">area</text><text fill="#000000" font-family="sans-serif" font-size="14" lengthAdjust="spacing" textLength="30" x="320.5" y="433.8613">DCC</text></g><!--class Photograph--><g id="elem_Photograph"><rect codeLine="19" fill="#F1F1F1" height="53.2188" id="Photograph" rx="2.5" ry="2.5" style="stroke:#181818;stroke-width:0.5;" width="80" x="304.5" y="563.1094"/><text fill="#000000" font-family="sans-serif" font-size="14" lengthAdjust="spacing" textLength="74" x="307.5" y="582.6426">Photograph</text><line style="stroke:#181818;stroke-width:0.5;" x1="305.5" x2="383.5" y1="590.7188" y2="590.7188"/><text fill="#000000" font-family="sans-serif" font-size="14" lengthAdjust="spacing" textLength="16" x="310.5" y="609.252">url</text></g><!--class Lease--><g id="elem_Lease"><rect codeLine="23" fill="#F1F1F1" height="53.2188" id="Lease" rx="2.5" ry="2.5" style="stroke:#181818;stroke-width:0.5;" width="117" x="436" y="563.1094"/><text fill="#000000" font-family="sans-serif" font-size="14" lengthAdjust="spacing" textLength="39" x="475" y="582.6426">Lease</text><line style="stroke:#181818;stroke-width:0.5;" x1="437" x2="552" y1="590.7188" y2="590.7188"/><text fill="#000000" font-family="sans-serif" font-size="14" lengthAdjust="spacing" textLength="105" x="442" y="609.252">contractDuration</text></g><!--class Price--><g id="elem_Price"><rect codeLine="27" fill="#F1F1F1" height="53.2188" id="Price" rx="2.5" ry="2.5" style="stroke:#181818;stroke-width:0.5;" width="43" x="473" y="379.1094"/><text fill="#000000" font-family="sans-serif" font-size="14" lengthAdjust="spacing" textLength="32" x="478.5" y="398.6426">Price</text><line style="stroke:#181818;stroke-width:0.5;" x1="474" x2="515" y1="406.7188" y2="406.7188"/><text fill="#000000" font-family="sans-serif" font-size="14" lengthAdjust="spacing" textLength="31" x="479" y="425.252">price</text></g><!--class Residence--><g id="elem_Residence"><rect codeLine="31" fill="#F1F1F1" height="88.4375" id="Residence" rx="2.5" ry="2.5" style="stroke:#181818;stroke-width:0.5;" width="128" x="71.5" y="545.6094"/><text fill="#000000" font-family="sans-serif" font-size="14" lengthAdjust="spacing" textLength="67" x="102" y="565.1426">Residence</text><line style="stroke:#181818;stroke-width:0.5;" x1="72.5" x2="198.5" y1="573.2188" y2="573.2188"/><text fill="#000000" font-family="sans-serif" font-size="14" lengthAdjust="spacing" textLength="112" x="77.5" y="591.752">numberBedrooms</text><text fill="#000000" font-family="sans-serif" font-size="14" lengthAdjust="spacing" textLength="116" x="77.5" y="609.3613">numberBathrooms</text><text fill="#000000" font-family="sans-serif" font-size="14" lengthAdjust="spacing" textLength="87" x="77.5" y="626.9707">parkingSpace</text></g><!--class Location--><g id="elem_Location"><rect codeLine="38" fill="#F1F1F1" height="123.6563" id="Location" rx="2.5" ry="2.5" style="stroke:#181818;stroke-width:0.5;" width="63" x="153" y="343.6094"/><text fill="#000000" font-family="sans-serif" font-size="14" lengthAdjust="spacing" textLength="54" x="157.5" y="363.1426">Location</text><line style="stroke:#181818;stroke-width:0.5;" x1="154" x2="215" y1="371.2188" y2="371.2188"/><text fill="#000000" font-family="sans-serif" font-size="14" lengthAdjust="spacing" textLength="36" x="159" y="389.752">street</text><text fill="#000000" font-family="sans-serif" font-size="14" lengthAdjust="spacing" textLength="21" x="159" y="407.3613">city</text><text fill="#000000" font-family="sans-serif" font-size="14" lengthAdjust="spacing" textLength="41" x="159" y="424.9707">district</text><text fill="#000000" font-family="sans-serif" font-size="14" lengthAdjust="spacing" textLength="31" x="159" y="442.5801">state</text><text fill="#000000" font-family="sans-serif" font-size="14" lengthAdjust="spacing" textLength="51" x="159" y="460.1895">zipCode</text></g><!--class TypeResidence--><g id="elem_TypeResidence"><rect codeLine="46" fill="#F1F1F1" height="53.2188" id="TypeResidence" rx="2.5" ry="2.5" style="stroke:#181818;stroke-width:0.5;" width="105" x="13" y="379.1094"/><text fill="#000000" font-family="sans-serif" font-size="14" lengthAdjust="spacing" textLength="99" x="16" y="398.6426">TypeResidence</text><line style="stroke:#181818;stroke-width:0.5;" x1="14" x2="117" y1="406.7188" y2="406.7188"/><text fill="#000000" font-family="sans-serif" font-size="14" lengthAdjust="spacing" textLength="73" x="19" y="425.252">designation</text></g><!--class TypeProperty--><g id="elem_TypeProperty"><rect codeLine="50" fill="#F1F1F1" height="53.2188" id="TypeProperty" rx="2.5" ry="2.5" style="stroke:#181818;stroke-width:0.5;" width="92" x="225.5" y="186.1094"/><text fill="#000000" font-family="sans-serif" font-size="14" lengthAdjust="spacing" textLength="86" x="228.5" y="205.6426">TypeProperty</text><line style="stroke:#181818;stroke-width:0.5;" x1="226.5" x2="316.5" y1="213.7188" y2="213.7188"/><text fill="#000000" font-family="sans-serif" font-size="14" lengthAdjust="spacing" textLength="73" x="231.5" y="232.252">designation</text></g><!--class House--><g id="elem_House"><rect codeLine="54" fill="#F1F1F1" height="88.4375" id="House" rx="2.5" ry="2.5" style="stroke:#181818;stroke-width:0.5;" width="105" x="7" y="711.6094"/><text fill="#000000" font-family="sans-serif" font-size="14" lengthAdjust="spacing" textLength="40" x="39.5" y="731.1426">House</text><line style="stroke:#181818;stroke-width:0.5;" x1="8" x2="111" y1="739.2188" y2="739.2188"/><text fill="#000000" font-family="sans-serif" font-size="14" lengthAdjust="spacing" textLength="62" x="13" y="757.752">basement</text><text fill="#000000" font-family="sans-serif" font-size="14" lengthAdjust="spacing" textLength="93" x="13" y="775.3613">inhabitableLoft</text><text fill="#000000" font-family="sans-serif" font-size="14" lengthAdjust="spacing" textLength="82" x="13" y="792.9707">sunExposure</text></g><!--class AvailableEquipment--><g id="elem_AvailableEquipment"><rect codeLine="60" fill="#F1F1F1" height="53.2188" id="AvailableEquipment" rx="2.5" ry="2.5" style="stroke:#181818;stroke-width:0.5;" width="130" x="147.5" y="729.1094"/><text fill="#000000" font-family="sans-serif" font-size="14" lengthAdjust="spacing" textLength="124" x="150.5" y="748.6426">AvailableEquipment</text><line style="stroke:#181818;stroke-width:0.5;" x1="148.5" x2="276.5" y1="756.7188" y2="756.7188"/><text fill="#000000" font-family="sans-serif" font-size="14" lengthAdjust="spacing" textLength="69" x="153.5" y="775.252">description</text></g><!--class Agent--><g id="elem_Agent"><rect codeLine="64" fill="#F1F1F1" height="35.6094" id="Agent" rx="2.5" ry="2.5" style="stroke:#181818;stroke-width:0.5;" width="43" x="356" y="194.6094"/><text fill="#000000" font-family="sans-serif" font-size="14" lengthAdjust="spacing" textLength="37" x="359" y="214.1426">Agent</text><line style="stroke:#181818;stroke-width:0.5;" x1="357" x2="398" y1="222.2188" y2="222.2188"/></g><!--class Employee--><g id="elem_Employee"><rect codeLine="72" fill="#F1F1F1" height="35.6094" id="Employee" rx="2.5" ry="2.5" style="stroke:#181818;stroke-width:0.5;" width="68" x="221.5" y="45.6094"/><text fill="#000000" font-family="sans-serif" font-size="14" lengthAdjust="spacing" textLength="62" x="224.5" y="65.1426">Employee</text><line style="stroke:#181818;stroke-width:0.5;" x1="222.5" x2="288.5" y1="73.2188" y2="73.2188"/></g><!--class Agency--><g id="elem_Agency"><rect codeLine="66" fill="#F1F1F1" height="106.0469" id="Agency" rx="2.5" ry="2.5" style="stroke:#181818;stroke-width:0.5;" width="107" x="83" y="159.6094"/><text fill="#000000" font-family="sans-serif" font-size="14" lengthAdjust="spacing" textLength="47" x="113" y="179.1426">Agency</text><line style="stroke:#181818;stroke-width:0.5;" x1="84" x2="189" y1="187.2188" y2="187.2188"/><text fill="#000000" font-family="sans-serif" font-size="14" lengthAdjust="spacing" textLength="13" x="89" y="205.752">ID</text><text fill="#000000" font-family="sans-serif" font-size="14" lengthAdjust="spacing" textLength="73" x="89" y="223.3613">designation</text><text fill="#000000" font-family="sans-serif" font-size="14" lengthAdjust="spacing" textLength="85" x="89" y="240.9707">emailAddress</text><text fill="#000000" font-family="sans-serif" font-size="14" lengthAdjust="spacing" textLength="95" x="89" y="258.5801">contactNumber</text></g><!--class Owner--><g id="elem_Owner"><rect codeLine="73" fill="#F1F1F1" height="35.6094" id="Owner" rx="2.5" ry="2.5" style="stroke:#181818;stroke-width:0.5;" width="47" x="486" y="194.6094"/><text fill="#000000" font-family="sans-serif" font-size="14" lengthAdjust="spacing" textLength="41" x="489" y="214.1426">Owner</text><line style="stroke:#181818;stroke-width:0.5;" x1="487" x2="532" y1="222.2188" y2="222.2188"/></g><!--reverse link Price to Lease--><g id="link_Price_Lease"><path d="M494.5,452.7794 C494.5,487.7594 494.5,534.5194 494.5,563.0494 " fill="none" id="Price-backto-Lease" style="stroke:#181818;stroke-width:1.0;"/><polygon fill="none" points="487.5,452.2994,494.5,432.2994,501.5,452.2994,487.5,452.2994" style="stroke:#181818;stroke-width:1.0;"/></g><!--reverse link Property to Residence--><g id="link_Property_Residence"><path d="M298.66,446.5294 C265.03,475.8194 219.39,515.5494 184.94,545.5594 " fill="none" id="Property-backto-Residence" style="stroke:#181818;stroke-width:1.0;"/><polygon fill="none" points="294.43,440.9294,314.11,433.0694,303.62,451.4894,294.43,440.9294" style="stroke:#181818;stroke-width:1.0;"/></g><!--reverse link Residence to House--><g id="link_Residence_House"><path d="M107.05,651.9994 C97.87,671.8094 87.9,693.3294 79.47,711.5194 " fill="none" id="Residence-backto-House" style="stroke:#181818;stroke-width:1.0;"/><polygon fill="none" points="100.77,648.8994,115.53,633.6994,113.47,654.7894,100.77,648.8994" style="stroke:#181818;stroke-width:1.0;"/></g><!--reverse link Employee to Agent--><g id="link_Employee_Agent"><path d="M282.69,97.2694 C297.94,115.5794 317.29,138.8594 334.5,159.6094 C344.07,171.1494 354.82,184.1494 363.18,194.2694 " fill="none" id="Employee-backto-Agent" style="stroke:#181818;stroke-width:1.0;"/><polygon fill="none" points="277.2,101.6094,269.79,81.7594,287.96,92.6494,277.2,101.6094" style="stroke:#181818;stroke-width:1.0;"/></g><!--link Employee to Agency--><g id="link_Employee_Agency"><path codeLine="77" d="M241.62,81.7594 C226.23,100.7694 200.66,132.3494 178.6,159.5994 " fill="none" id="Employee-Agency" style="stroke:#181818;stroke-width:1.0;"/><polygon fill="#000000" points="219.3538,124.6712,227.3295,119.4906,222.7612,115.792,219.3538,124.6712" style="stroke:#000000;stroke-width:1.0;"/><text fill="#000000" font-family="sans-serif" font-size="13" lengthAdjust="spacing" textLength="48" x="231.5" y="126.1045">works in</text><text fill="#000000" font-family="sans-serif" font-size="13" lengthAdjust="spacing" textLength="7" x="229.7319" y="102.7135">1</text><text fill="#000000" font-family="sans-serif" font-size="13" lengthAdjust="spacing" textLength="7" x="176.7869" y="148.9167">1</text></g><!--link Agency to Location--><g id="link_Agency_Location"><path codeLine="78" d="M149.62,265.7994 C155.64,289.7694 162.82,318.3594 169.1,343.3394 " fill="none" id="Agency-Location" style="stroke:#181818;stroke-width:1.0;"/><polygon fill="#000000" points="166.7183,309.6345,167.3648,300.1459,161.664,301.5781,166.7183,309.6345" style="stroke:#000000;stroke-width:1.0;"/><text fill="#000000" font-family="sans-serif" font-size="13" lengthAdjust="spacing" textLength="49" x="174.5" y="310.1045">contains</text><text fill="#000000" font-family="sans-serif" font-size="13" lengthAdjust="spacing" textLength="7" x="143.8526" y="287.154">1</text><text fill="#000000" font-family="sans-serif" font-size="13" lengthAdjust="spacing" textLength="7" x="159.9147" y="332.7497">1</text></g><!--link TypeProperty to Property--><g id="link_TypeProperty_Property"><path codeLine="79" d="M271.68,239.4394 C272.57,260.0994 275.53,289.4894 284.5,313.6094 C291.95,333.6494 304.52,353.7294 316.23,369.9094 " fill="none" id="TypeProperty-Property" style="stroke:#181818;stroke-width:1.0;"/><polygon fill="#000000" points="291.1157,309.5169,290.9741,300.0074,285.4116,301.9068,291.1157,309.5169" style="stroke:#000000;stroke-width:1.0;"/><text fill="#000000" font-family="sans-serif" font-size="13" lengthAdjust="spacing" textLength="54" x="298.5" y="310.1045">classifies</text><text fill="#000000" font-family="sans-serif" font-size="13" lengthAdjust="spacing" textLength="7" x="263.9123" y="261.0043">1</text><text fill="#000000" font-family="sans-serif" font-size="13" lengthAdjust="spacing" textLength="5" x="305.3645" y="359.1241">*</text></g><!--link Property to Price--><g id="link_Property_Price"><path codeLine="80" d="M374.85,405.6094 C403.96,405.6094 447.17,405.6094 472.92,405.6094 " fill="none" id="Property-Price" style="stroke:#181818;stroke-width:1.0;"/><polygon fill="#000000" points="401.75,393.7852,392.7049,390.8462,392.7049,396.7241,401.75,393.7852" style="stroke:#000000;stroke-width:1.0;"/><text fill="#000000" font-family="sans-serif" font-size="13" lengthAdjust="spacing" textLength="49" x="405.75" y="399.1045">contains</text><text fill="#000000" font-family="sans-serif" font-size="13" lengthAdjust="spacing" textLength="7" x="382.6778" y="401.315">1</text><text fill="#000000" font-family="sans-serif" font-size="13" lengthAdjust="spacing" textLength="7" x="457.9258" y="400.5757">1</text></g><!--link Owner to Property--><g id="link_Owner_Property"><path codeLine="81" d="M504.19,230.8994 C497.11,252.0094 483.04,288.0294 462.5,313.6094 C437.8,344.3694 400.65,370.7794 374.65,387.0994 " fill="none" id="Owner-Property" style="stroke:#181818;stroke-width:1.0;"/><polygon fill="#000000" points="483.6918,300.9365,475.6556,306.0227,480.18,309.7749,483.6918,300.9365" style="stroke:#000000;stroke-width:1.0;"/><text fill="#000000" font-family="sans-serif" font-size="13" lengthAdjust="spacing" textLength="60" x="489.5" y="310.1045">belongs to</text><text fill="#000000" font-family="sans-serif" font-size="13" lengthAdjust="spacing" textLength="7" x="494.8223" y="251.5597">1</text><text fill="#000000" font-family="sans-serif" font-size="13" lengthAdjust="spacing" textLength="7" x="382.4316" y="378.5246">1</text></g><!--link Agent to Property--><g id="link_Agent_Property"><path codeLine="82" d="M374.51,230.8994 C369.1,262.2094 357.59,328.8694 350.5,369.8994 " fill="none" id="Agent-Property" style="stroke:#181818;stroke-width:1.0;"/><polygon fill="#000000" points="369.3511,299.8581,364.9154,308.271,370.7075,309.2715,369.3511,299.8581" style="stroke:#000000;stroke-width:1.0;"/><text fill="#000000" font-family="sans-serif" font-size="13" lengthAdjust="spacing" textLength="76" x="377.5" y="310.1045">advertised by</text><text fill="#000000" font-family="sans-serif" font-size="13" lengthAdjust="spacing" textLength="7" x="365.7658" y="251.5597">1</text><text fill="#000000" font-family="sans-serif" font-size="13" lengthAdjust="spacing" textLength="5" x="346.1453" y="359.3837">*</text></g><!--link Property to Photograph--><g id="link_Property_Photograph"><path codeLine="83" d="M344.5,441.2694 C344.5,476.7494 344.5,531.0694 344.5,562.8894 " fill="none" id="Property-Photograph" style="stroke:#181818;stroke-width:1.0;"/><polygon fill="#000000" points="349.5,511.7852,352.4389,502.7401,346.5611,502.7401,349.5,511.7852" style="stroke:#000000;stroke-width:1.0;"/><text fill="#000000" font-family="sans-serif" font-size="13" lengthAdjust="spacing" textLength="49" x="358.5" y="512.1045">contains</text><text fill="#000000" font-family="sans-serif" font-size="13" lengthAdjust="spacing" textLength="7" x="336.8984" y="462.3135">1</text><text fill="#000000" font-family="sans-serif" font-size="13" lengthAdjust="spacing" textLength="20" x="322.1875" y="552.3708">1..*</text></g><!--link Location to Property--><g id="link_Location_Property"><path codeLine="84" d="M216.11,405.6094 C244.62,405.6094 286.25,405.6094 314.31,405.6094 " fill="none" id="Location-Property" style="stroke:#181818;stroke-width:1.0;"/><polygon fill="#000000" points="233.25,393.7852,242.2951,396.7241,242.2951,390.8462,233.25,393.7852" style="stroke:#000000;stroke-width:1.0;"/><text fill="#000000" font-family="sans-serif" font-size="13" lengthAdjust="spacing" textLength="49" x="247.25" y="399.1045">contains</text><text fill="#000000" font-family="sans-serif" font-size="13" lengthAdjust="spacing" textLength="7" x="223.7903" y="401.4305">1</text><text fill="#000000" font-family="sans-serif" font-size="13" lengthAdjust="spacing" textLength="7" x="299.5192" y="401.315">1</text></g><!--link Residence to AvailableEquipment--><g id="link_Residence_AvailableEquipment"><path codeLine="85" d="M155.73,633.6994 C169.9,663.8794 188.37,703.2094 200.33,728.6894 " fill="none" id="Residence-AvailableEquipment" style="stroke:#181818;stroke-width:1.0;"/><polygon fill="#000000" points="183.625,677.3111,182.4411,667.8745,177.1205,670.3727,183.625,677.3111" style="stroke:#000000;stroke-width:1.0;"/><text fill="#000000" font-family="sans-serif" font-size="13" lengthAdjust="spacing" textLength="49" x="190.5" y="678.1045">contains</text><text fill="#000000" font-family="sans-serif" font-size="13" lengthAdjust="spacing" textLength="7" x="151.3963" y="655.4895">1</text><text fill="#000000" font-family="sans-serif" font-size="13" lengthAdjust="spacing" textLength="5" x="191.9376" y="718.1246">*</text></g><!--link TypeResidence to Residence--><g id="link_TypeResidence_Residence"><path codeLine="86" d="M75.38,432.2994 C86.69,461.6994 105.38,510.3094 118.93,545.5294 " fill="none" id="TypeResidence-Residence" style="stroke:#181818;stroke-width:1.0;"/><polygon fill="#000000" points="114.2949,511.4519,113.7909,501.9547,108.3049,504.0647,114.2949,511.4519" style="stroke:#000000;stroke-width:1.0;"/><text fill="#000000" font-family="sans-serif" font-size="13" lengthAdjust="spacing" textLength="54" x="121.5" y="512.1045">classifies</text><text fill="#000000" font-family="sans-serif" font-size="13" lengthAdjust="spacing" textLength="7" x="69.8554" y="453.8319">1</text><text fill="#000000" font-family="sans-serif" font-size="13" lengthAdjust="spacing" textLength="7" x="108.7313" y="534.7174">1</text></g><!--SRC=[VLJRRjim37tNLn1z6L0WHGRiAIW6P4c05UWkMBOFa2N69c9BdaGtTOlz-sWhiPsag5zCYuU7XnJfk2TNww0hgBppfWY-Gk3Ge8g3fzPchtFSSbiY13IiNLvE0R7GrX_8vR3JPKIbFfIuOs0FWVA2mL8NHTwfIP0fTOnBva1Pm_XWlDlI2y9SgO8iWg5W94blLyY5jr4f9XO9QrzfSl3DMonX1d-sy_adfNe- -1byZO5RU5KWZmweUsEzMgb_0wZmxFEWwoAXcb2EpaVK4G6V6Ptj-CXWGeb23jhmkWcwBsRawq37Z7LdZwvV6AK2PwQCIM62kwRAC7n16xolulH8Sp6UISkaSVbMhaBQEshrffUIk287H4vQYTlUi2IdPFW8q8ozzKBrIjetClrkQnoq9ZehdxcxABN3dLVm9kohRoPDl23EfC4LkgI9NA4pOfsL-EXtHvsDsppNFZPXed3vfAdiO9k_3TLT_93V1AhFyozpyG_vDrLT-XRnzSnlJaFoiBugfFj6cR9oQMt068S1aFl_tj-Fv4fK4_9qyEFWC0Yr95Cd9znyl87Ph7-bt0iu-B2FKZ_0PtNKCq6ThXOMAI-vABXf-mVqxSquzekqLxGZxF1fCdjWjvA9UWe-KT-hSzgcJjXKp08oBBtBOxVJIIqddEozkv9m3ze-YKqHBMIj6lTDWkxkRYVyRsiPYkzpz3-Hz-3ZaarQSZqlrwsy3fJNS7ZHo_y0]--></g></svg>