<?xml version="1.0" encoding="UTF-8" standalone="no"?><svg xmlns="http://www.w3.org/2000/svg" xmlns:xlink="http://www.w3.org/1999/xlink" contentStyleType="text/css" height="893px" preserveAspectRatio="none" style="width:1334px;height:893px;background:#FFFFFF;" version="1.1" viewBox="0 0 1334 893" width="1334px" zoomAndPan="magnify"><defs/><g><rect fill="#FFFFFF" height="733.3281" style="stroke:#181818;stroke-width:1.0;" width="10" x="264" y="87.5703"/><rect fill="#FFFFFF" height="640.2734" style="stroke:#181818;stroke-width:1.0;" width="10" x="553" y="143.2734"/><rect fill="#FFFFFF" height="41.3516" style="stroke:#181818;stroke-width:1.0;" width="10" x="558" y="181.625"/><rect fill="#FFFFFF" height="117.0547" style="stroke:#181818;stroke-width:1.0;" width="10" x="913" y="285.3281"/><rect fill="#FFFFFF" height="41.3516" style="stroke:#181818;stroke-width:1.0;" width="10" x="918" y="323.6797"/><rect fill="#FFFFFF" height="238.7578" style="stroke:#181818;stroke-width:1.0;" width="10" x="913" y="483.4375"/><rect fill="#FFFFFF" height="128.0547" style="stroke:#181818;stroke-width:1.0;" width="10" x="918" y="547.1406"/><rect fill="#FFFFFF" height="41.3516" style="stroke:#181818;stroke-width:1.0;" width="10" x="923" y="590.4922"/><rect fill="none" height="688.9766" style="stroke:#000000;stroke-width:1.5;" width="1127.5" x="200.5" y="102.5703"/><rect fill="none" height="336.8125" style="stroke:#000000;stroke-width:1.5;" width="820.5" x="497.5" y="417.3828"/><rect fill="none" height="304.4609" style="stroke:#000000;stroke-width:1.5;" width="800.5" x="507.5" y="442.7344"/><rect fill="none" height="216.7578" style="stroke:#000000;stroke-width:1.5;" width="419.5" x="878.5" y="498.4375"/><line style="stroke:#181818;stroke-width:0.5;stroke-dasharray:5.0,5.0;" x1="268.5" x2="268.5" y1="55.2188" y2="838.8984"/><line style="stroke:#181818;stroke-width:0.5;stroke-dasharray:5.0,5.0;" x1="557.5" x2="557.5" y1="55.2188" y2="838.8984"/><line style="stroke:#181818;stroke-width:0.5;stroke-dasharray:5.0,5.0;" x1="733.5" x2="733.5" y1="55.2188" y2="838.8984"/><line style="stroke:#181818;stroke-width:0.5;stroke-dasharray:5.0,5.0;" x1="837.5" x2="837.5" y1="55.2188" y2="838.8984"/><line style="stroke:#181818;stroke-width:0.5;stroke-dasharray:5.0,5.0;" x1="917.5" x2="917.5" y1="55.2188" y2="838.8984"/><rect fill="#E3E3E3" height="49.2188" rx="2.5" ry="2.5" style="stroke:#181818;stroke-width:0.5;" width="117" x="210.5" y="5"/><text fill="#000000" font-family="sans-serif" font-size="14" lengthAdjust="spacing" textLength="94" x="222" y="26.5332">announcement</text><text fill="#000000" font-family="sans-serif" font-size="14" lengthAdjust="spacing" textLength="103" x="217.5" y="44.1426">: Announcement</text><rect fill="#E3E3E3" height="49.2188" rx="2.5" ry="2.5" style="stroke:#181818;stroke-width:0.5;" width="117" x="210.5" y="837.8984"/><text fill="#000000" font-family="sans-serif" font-size="14" lengthAdjust="spacing" textLength="94" x="222" y="859.4316">announcement</text><text fill="#000000" font-family="sans-serif" font-size="14" lengthAdjust="spacing" textLength="103" x="217.5" y="877.041">: Announcement</text><rect fill="#E3E3E3" height="49.2188" rx="2.5" ry="2.5" style="stroke:#181818;stroke-width:0.5;" width="81" x="517.5" y="5"/><text fill="#000000" font-family="sans-serif" font-size="14" lengthAdjust="spacing" textLength="56" x="530" y="26.5332">orderList</text><text fill="#000000" font-family="sans-serif" font-size="14" lengthAdjust="spacing" textLength="67" x="524.5" y="44.1426">: OrderList</text><rect fill="#E3E3E3" height="49.2188" rx="2.5" ry="2.5" style="stroke:#181818;stroke-width:0.5;" width="81" x="517.5" y="837.8984"/><text fill="#000000" font-family="sans-serif" font-size="14" lengthAdjust="spacing" textLength="56" x="530" y="859.4316">orderList</text><text fill="#000000" font-family="sans-serif" font-size="14" lengthAdjust="spacing" textLength="67" x="524.5" y="877.041">: OrderList</text><rect fill="#E3E3E3" height="49.2188" rx="2.5" ry="2.5" style="stroke:#181818;stroke-width:0.5;" width="107" x="680.5" y="5"/><text fill="#000000" font-family="sans-serif" font-size="14" lengthAdjust="spacing" textLength="82" x="693" y="26.5332">orderMapper</text><text fill="#000000" font-family="sans-serif" font-size="14" lengthAdjust="spacing" textLength="93" x="687.5" y="44.1426">: OrderMapper</text><rect fill="#E3E3E3" height="49.2188" rx="2.5" ry="2.5" style="stroke:#181818;stroke-width:0.5;" width="107" x="680.5" y="837.8984"/><text fill="#000000" font-family="sans-serif" font-size="14" lengthAdjust="spacing" textLength="82" x="693" y="859.4316">orderMapper</text><text fill="#000000" font-family="sans-serif" font-size="14" lengthAdjust="spacing" textLength="93" x="687.5" y="877.041">: OrderMapper</text><rect fill="#E3E3E3" height="49.2188" rx="2.5" ry="2.5" style="stroke:#181818;stroke-width:0.5;" width="81" x="797.5" y="5"/><text fill="#000000" font-family="sans-serif" font-size="14" lengthAdjust="spacing" textLength="56" x="810" y="26.5332">orderDto</text><text fill="#000000" font-family="sans-serif" font-size="14" lengthAdjust="spacing" textLength="67" x="804.5" y="44.1426">: OrderDto</text><rect fill="#E3E3E3" height="49.2188" rx="2.5" ry="2.5" style="stroke:#181818;stroke-width:0.5;" width="81" x="797.5" y="837.8984"/><text fill="#000000" font-family="sans-serif" font-size="14" lengthAdjust="spacing" textLength="56" x="810" y="859.4316">orderDto</text><text fill="#000000" font-family="sans-serif" font-size="14" lengthAdjust="spacing" textLength="67" x="804.5" y="877.041">: OrderDto</text><rect fill="#E3E3E3" height="49.2188" rx="2.5" ry="2.5" style="stroke:#181818;stroke-width:0.5;" width="59" x="888.5" y="5"/><text fill="#000000" font-family="sans-serif" font-size="14" lengthAdjust="spacing" textLength="34" x="901" y="26.5332">order</text><text fill="#000000" font-family="sans-serif" font-size="14" lengthAdjust="spacing" textLength="45" x="895.5" y="44.1426">: Order</text><rect fill="#E3E3E3" height="49.2188" rx="2.5" ry="2.5" style="stroke:#181818;stroke-width:0.5;" width="59" x="888.5" y="837.8984"/><text fill="#000000" font-family="sans-serif" font-size="14" lengthAdjust="spacing" textLength="34" x="901" y="859.4316">order</text><text fill="#000000" font-family="sans-serif" font-size="14" lengthAdjust="spacing" textLength="45" x="895.5" y="877.041">: Order</text><rect fill="#FFFFFF" height="733.3281" style="stroke:#181818;stroke-width:1.0;" width="10" x="264" y="87.5703"/><rect fill="#FFFFFF" height="640.2734" style="stroke:#181818;stroke-width:1.0;" width="10" x="553" y="143.2734"/><rect fill="#FFFFFF" height="41.3516" style="stroke:#181818;stroke-width:1.0;" width="10" x="558" y="181.625"/><rect fill="#FFFFFF" height="117.0547" style="stroke:#181818;stroke-width:1.0;" width="10" x="913" y="285.3281"/><rect fill="#FFFFFF" height="41.3516" style="stroke:#181818;stroke-width:1.0;" width="10" x="918" y="323.6797"/><rect fill="#FFFFFF" height="238.7578" style="stroke:#181818;stroke-width:1.0;" width="10" x="913" y="483.4375"/><rect fill="#FFFFFF" height="128.0547" style="stroke:#181818;stroke-width:1.0;" width="10" x="918" y="547.1406"/><rect fill="#FFFFFF" height="41.3516" style="stroke:#181818;stroke-width:1.0;" width="10" x="923" y="590.4922"/><polygon fill="#181818" points="252,83.5703,262,87.5703,252,91.5703,256,87.5703" style="stroke:#181818;stroke-width:1.0;"/><line style="stroke:#181818;stroke-width:1.0;" x1="0" x2="258" y1="87.5703" y2="87.5703"/><text fill="#000000" font-family="sans-serif" font-size="13" font-weight="bold" lengthAdjust="spacing" textLength="14" x="7" y="82.7139">30</text><text fill="#000000" font-family="sans-serif" font-size="13" lengthAdjust="spacing" textLength="227" x="25" y="82.7139">defineOrderAcceptance(answer,orderId)</text><path d="M200.5,102.5703 L420.5,102.5703 L420.5,110.9219 L410.5,120.9219 L200.5,120.9219 L200.5,102.5703 " fill="#EEEEEE" style="stroke:#000000;stroke-width:1.5;"/><rect fill="none" height="688.9766" style="stroke:#000000;stroke-width:1.5;" width="1127.5" x="200.5" y="102.5703"/><text fill="#000000" font-family="sans-serif" font-size="13" font-weight="bold" lengthAdjust="spacing" textLength="175" x="215.5" y="117.0654">Define Acceptance of Order</text><polygon fill="#181818" points="541,139.2734,551,143.2734,541,147.2734,545,143.2734" style="stroke:#181818;stroke-width:1.0;"/><line style="stroke:#181818;stroke-width:1.0;" x1="274" x2="547" y1="143.2734" y2="143.2734"/><text fill="#000000" font-family="sans-serif" font-size="13" font-weight="bold" lengthAdjust="spacing" textLength="25" x="281" y="138.417">30.1</text><text fill="#000000" font-family="sans-serif" font-size="13" lengthAdjust="spacing" textLength="231" x="310" y="138.417">defineOrderAcceptance(answer, orderId)</text><line style="stroke:#181818;stroke-width:1.0;" x1="563" x2="610" y1="168.625" y2="168.625"/><line style="stroke:#181818;stroke-width:1.0;" x1="610" x2="610" y1="168.625" y2="181.625"/><line style="stroke:#181818;stroke-width:1.0;" x1="569" x2="610" y1="181.625" y2="181.625"/><polygon fill="#181818" points="579,177.625,569,181.625,579,185.625,575,181.625" style="stroke:#181818;stroke-width:1.0;"/><text fill="#000000" font-family="sans-serif" font-size="13" font-weight="bold" lengthAdjust="spacing" textLength="25" x="575" y="163.7686">30.2</text><text fill="#000000" font-family="sans-serif" font-size="13" lengthAdjust="spacing" textLength="123" x="604" y="163.7686">getOrderById(orderId)</text><line style="stroke:#181818;stroke-width:1.0;stroke-dasharray:2.0,2.0;" x1="568" x2="610" y1="221.9766" y2="221.9766"/><line style="stroke:#181818;stroke-width:1.0;stroke-dasharray:2.0,2.0;" x1="610" x2="610" y1="221.9766" y2="234.9766"/><line style="stroke:#181818;stroke-width:1.0;stroke-dasharray:2.0,2.0;" x1="563" x2="610" y1="234.9766" y2="234.9766"/><polygon fill="#181818" points="573,230.9766,563,234.9766,573,238.9766,569,234.9766" style="stroke:#181818;stroke-width:1.0;"/><text fill="#000000" font-family="sans-serif" font-size="13" font-weight="bold" lengthAdjust="spacing" textLength="25" x="575" y="217.1201">30.3</text><text fill="#000000" font-family="sans-serif" font-size="13" lengthAdjust="spacing" textLength="29" x="604" y="217.1201">order</text><polygon fill="#181818" points="901,281.3281,911,285.3281,901,289.3281,905,285.3281" style="stroke:#181818;stroke-width:1.0;"/><line style="stroke:#181818;stroke-width:1.0;" x1="563" x2="907" y1="285.3281" y2="285.3281"/><text fill="#000000" font-family="sans-serif" font-size="13" font-weight="bold" lengthAdjust="spacing" textLength="25" x="570" y="280.4717">30.4</text><text fill="#000000" font-family="sans-serif" font-size="13" lengthAdjust="spacing" textLength="179" x="599" y="280.4717">setAcceptanceAnswer(answer)</text><line style="stroke:#181818;stroke-width:1.0;" x1="923" x2="970" y1="310.6797" y2="310.6797"/><line style="stroke:#181818;stroke-width:1.0;" x1="970" x2="970" y1="310.6797" y2="323.6797"/><line style="stroke:#181818;stroke-width:1.0;" x1="929" x2="970" y1="323.6797" y2="323.6797"/><polygon fill="#181818" points="939,319.6797,929,323.6797,939,327.6797,935,323.6797" style="stroke:#181818;stroke-width:1.0;"/><text fill="#000000" font-family="sans-serif" font-size="13" font-weight="bold" lengthAdjust="spacing" textLength="25" x="935" y="305.8232">30.5</text><text fill="#000000" font-family="sans-serif" font-size="13" lengthAdjust="spacing" textLength="314" x="964" y="305.8232">sendOrderAcceptanceNotification(clientEmail, answer)</text><line style="stroke:#181818;stroke-width:1.0;stroke-dasharray:2.0,2.0;" x1="928" x2="970" y1="364.0313" y2="364.0313"/><line style="stroke:#181818;stroke-width:1.0;stroke-dasharray:2.0,2.0;" x1="970" x2="970" y1="364.0313" y2="377.0313"/><line style="stroke:#181818;stroke-width:1.0;stroke-dasharray:2.0,2.0;" x1="923" x2="970" y1="377.0313" y2="377.0313"/><polygon fill="#181818" points="933,373.0313,923,377.0313,933,381.0313,929,377.0313" style="stroke:#181818;stroke-width:1.0;"/><text fill="#000000" font-family="sans-serif" font-size="13" font-weight="bold" lengthAdjust="spacing" textLength="25" x="935" y="359.1748">30.6</text><text fill="#000000" font-family="sans-serif" font-size="13" lengthAdjust="spacing" textLength="49" x="964" y="359.1748">success</text><polygon fill="#181818" points="574,398.3828,564,402.3828,574,406.3828,570,402.3828" style="stroke:#181818;stroke-width:1.0;"/><line style="stroke:#181818;stroke-width:1.0;" x1="568" x2="917" y1="402.3828" y2="402.3828"/><text fill="#000000" font-family="sans-serif" font-size="13" font-weight="bold" lengthAdjust="spacing" textLength="25" x="580" y="397.5264">30.7</text><text fill="#000000" font-family="sans-serif" font-size="13" lengthAdjust="spacing" textLength="49" x="609" y="397.5264">success</text><path d="M497.5,417.3828 L562.5,417.3828 L562.5,425.7344 L552.5,435.7344 L497.5,435.7344 L497.5,417.3828 " fill="#EEEEEE" style="stroke:#000000;stroke-width:1.5;"/><rect fill="none" height="336.8125" style="stroke:#000000;stroke-width:1.5;" width="820.5" x="497.5" y="417.3828"/><text fill="#000000" font-family="sans-serif" font-size="13" font-weight="bold" lengthAdjust="spacing" textLength="20" x="512.5" y="431.8779">opt</text><text fill="#000000" font-family="sans-serif" font-size="11" font-weight="bold" lengthAdjust="spacing" textLength="104" x="577.5" y="430.8018">[answer == accept]</text><path d="M507.5,442.7344 L580.5,442.7344 L580.5,451.0859 L570.5,461.0859 L507.5,461.0859 L507.5,442.7344 " fill="#EEEEEE" style="stroke:#000000;stroke-width:1.5;"/><rect fill="none" height="304.4609" style="stroke:#000000;stroke-width:1.5;" width="800.5" x="507.5" y="442.7344"/><text fill="#000000" font-family="sans-serif" font-size="13" font-weight="bold" lengthAdjust="spacing" textLength="28" x="522.5" y="457.2295">loop</text><text fill="#000000" font-family="sans-serif" font-size="11" font-weight="bold" lengthAdjust="spacing" textLength="134" x="595.5" y="456.1533">[for all the other orders]</text><polygon fill="#181818" points="901,479.4375,911,483.4375,901,487.4375,905,483.4375" style="stroke:#181818;stroke-width:1.0;"/><line style="stroke:#181818;stroke-width:1.0;" x1="563" x2="907" y1="483.4375" y2="483.4375"/><text fill="#000000" font-family="sans-serif" font-size="13" font-weight="bold" lengthAdjust="spacing" textLength="25" x="570" y="478.5811">30.8</text><text fill="#000000" font-family="sans-serif" font-size="13" lengthAdjust="spacing" textLength="72" x="599" y="478.5811">rejectOrder()</text><path d="M878.5,498.4375 L943.5,498.4375 L943.5,506.7891 L933.5,516.7891 L878.5,516.7891 L878.5,498.4375 " fill="#EEEEEE" style="stroke:#000000;stroke-width:1.5;"/><rect fill="none" height="216.7578" style="stroke:#000000;stroke-width:1.5;" width="419.5" x="878.5" y="498.4375"/><text fill="#000000" font-family="sans-serif" font-size="13" font-weight="bold" lengthAdjust="spacing" textLength="20" x="893.5" y="512.9326">opt</text><text fill="#000000" font-family="sans-serif" font-size="11" font-weight="bold" lengthAdjust="spacing" textLength="149" x="958.5" y="511.8564">[acceptanceAnswer != null]</text><line style="stroke:#181818;stroke-width:1.0;" x1="923" x2="970" y1="534.1406" y2="534.1406"/><line style="stroke:#181818;stroke-width:1.0;" x1="970" x2="970" y1="534.1406" y2="547.1406"/><line style="stroke:#181818;stroke-width:1.0;" x1="929" x2="970" y1="547.1406" y2="547.1406"/><polygon fill="#181818" points="939,543.1406,929,547.1406,939,551.1406,935,547.1406" style="stroke:#181818;stroke-width:1.0;"/><text fill="#000000" font-family="sans-serif" font-size="13" font-weight="bold" lengthAdjust="spacing" textLength="25" x="935" y="529.2842">30.9</text><text fill="#000000" font-family="sans-serif" font-size="13" lengthAdjust="spacing" textLength="179" x="964" y="529.2842">setAcceptanceAnswer(answer)</text><line style="stroke:#181818;stroke-width:1.0;" x1="928" x2="975" y1="577.4922" y2="577.4922"/><line style="stroke:#181818;stroke-width:1.0;" x1="975" x2="975" y1="577.4922" y2="590.4922"/><line style="stroke:#181818;stroke-width:1.0;" x1="934" x2="975" y1="590.4922" y2="590.4922"/><polygon fill="#181818" points="944,586.4922,934,590.4922,944,594.4922,940,590.4922" style="stroke:#181818;stroke-width:1.0;"/><text fill="#000000" font-family="sans-serif" font-size="13" font-weight="bold" lengthAdjust="spacing" textLength="32" x="940" y="572.6357">30.10</text><text fill="#000000" font-family="sans-serif" font-size="13" lengthAdjust="spacing" textLength="310" x="976" y="572.6357">sendOrderAcceptanceNotification(clientEmail,answer)</text><line style="stroke:#181818;stroke-width:1.0;stroke-dasharray:2.0,2.0;" x1="933" x2="975" y1="630.8438" y2="630.8438"/><line style="stroke:#181818;stroke-width:1.0;stroke-dasharray:2.0,2.0;" x1="975" x2="975" y1="630.8438" y2="643.8438"/><line style="stroke:#181818;stroke-width:1.0;stroke-dasharray:2.0,2.0;" x1="928" x2="975" y1="643.8438" y2="643.8438"/><polygon fill="#181818" points="938,639.8438,928,643.8438,938,647.8438,934,643.8438" style="stroke:#181818;stroke-width:1.0;"/><text fill="#000000" font-family="sans-serif" font-size="13" font-weight="bold" lengthAdjust="spacing" textLength="32" x="940" y="625.9873">30.11</text><text fill="#000000" font-family="sans-serif" font-size="13" lengthAdjust="spacing" textLength="4" x="976" y="625.9873"> </text><line style="stroke:#181818;stroke-width:1.0;stroke-dasharray:2.0,2.0;" x1="928" x2="970" y1="674.1953" y2="674.1953"/><line style="stroke:#181818;stroke-width:1.0;stroke-dasharray:2.0,2.0;" x1="970" x2="970" y1="674.1953" y2="687.1953"/><line style="stroke:#181818;stroke-width:1.0;stroke-dasharray:2.0,2.0;" x1="923" x2="970" y1="687.1953" y2="687.1953"/><polygon fill="#181818" points="933,683.1953,923,687.1953,933,691.1953,929,687.1953" style="stroke:#181818;stroke-width:1.0;"/><text fill="#000000" font-family="sans-serif" font-size="13" font-weight="bold" lengthAdjust="spacing" textLength="32" x="935" y="669.3389">30.12</text><text fill="#000000" font-family="sans-serif" font-size="13" lengthAdjust="spacing" textLength="4" x="971" y="669.3389"> </text><polygon fill="#181818" points="285,779.5469,275,783.5469,285,787.5469,281,783.5469" style="stroke:#181818;stroke-width:1.0;"/><line style="stroke:#181818;stroke-width:1.0;stroke-dasharray:2.0,2.0;" x1="279" x2="557" y1="783.5469" y2="783.5469"/><text fill="#000000" font-family="sans-serif" font-size="13" font-weight="bold" lengthAdjust="spacing" textLength="32" x="291" y="778.6904">30.13</text><text fill="#000000" font-family="sans-serif" font-size="13" lengthAdjust="spacing" textLength="49" x="327" y="778.6904">success</text><polygon fill="#181818" points="11,816.8984,1,820.8984,11,824.8984,7,820.8984" style="stroke:#181818;stroke-width:1.0;"/><line style="stroke:#181818;stroke-width:1.0;stroke-dasharray:2.0,2.0;" x1="5" x2="268" y1="820.8984" y2="820.8984"/><text fill="#000000" font-family="sans-serif" font-size="13" font-weight="bold" lengthAdjust="spacing" textLength="14" x="17" y="816.042">31</text><text fill="#000000" font-family="sans-serif" font-size="13" lengthAdjust="spacing" textLength="49" x="35" y="816.042">success</text><!--SRC=[fLHDRzim3BthLx0zfK1JhEYjM0Pao0u5jlNG7dTXPTfHAqk29Ayea1zVMKaaErE-C1qCK-HxVAGakZUX35fieTLAywNLBO6t7J6NF0Rv6pRqv3yaWINkKJLo6E2MMEbteHgeKJfYZ8LzBxWmg3nSebAwKvnQKlwFkeVvmBu4T6bZ3DEs8ljJk8Xvt1eHaAm2uXSQGpPXrcP6hUq2Rk5r0eN_Z5WyFnR2KsmE37LZvxNgsXUoSFU5GLZJRwayk8UAQg4eHiyv9nDQoMc2ohsJlOwy3zLLn27tuYzwoirXZTMTWKMaW0m7NM_oZxBVtB98bB879QblnwH0MKlkUzpFT3lS3VbeVlzug2RdKkrmHNYCgQY0xXshrMgFde1tv7DzyrZUfigIee6QHD9pg6gdKx-r5xNWw8LM4ov5kCi_MXJo6WwG3xY72hl0wbonneASJLyEek9kMDhuZHwOpOAQNdronYMrDb1h2oWb-6MuJU5Zrrrtuz1YUoszXeaGhSdLA7oFfAnhvrJWOWQga_BVdESSvodP_-TuJyXLI9KB67dtdbi9UmGwTAONiLsXm730_dI64a5_LRB28UNuzMudpk4xkdxxFKkSQ-FPUHiXNwVJusHvFZBs2G00]--></g></svg>