<?xml version="1.0" encoding="UTF-8" standalone="no"?><svg xmlns="http://www.w3.org/2000/svg" xmlns:xlink="http://www.w3.org/1999/xlink" contentStyleType="text/css" height="683px" preserveAspectRatio="none" style="width:1656px;height:683px;background:#FFFFFF;" version="1.1" viewBox="0 0 1656 683" width="1656px" zoomAndPan="magnify"><defs/><g><rect fill="#FFFFFF" height="523.9766" style="stroke:#181818;stroke-width:1.0;" width="10" x="285" y="87.5703"/><rect fill="#FFFFFF" height="216.4609" style="stroke:#181818;stroke-width:1.0;" width="10" x="771" y="143.2734"/><rect fill="#FFFFFF" height="123.4063" style="stroke:#181818;stroke-width:1.0;" width="10" x="1073" y="198.9766"/><rect fill="#FFFFFF" height="184.1094" style="stroke:#181818;stroke-width:1.0;" width="10" x="1073" y="390.0859"/><rect fill="#FFFFFF" height="30.3516" style="stroke:#181818;stroke-width:1.0;" width="10" x="1375" y="254.6797"/><rect fill="#FFFFFF" height="123.4063" style="stroke:#181818;stroke-width:1.0;" width="10" x="1375" y="420.4375"/><rect fill="#FFFFFF" height="30.3516" style="stroke:#181818;stroke-width:1.0;" width="10" x="1567" y="476.1406"/><rect fill="none" height="479.625" style="stroke:#000000;stroke-width:1.5;" width="1454" x="196.5" y="102.5703"/><rect fill="none" height="172.1094" style="stroke:#000000;stroke-width:1.5;" width="772" x="697.5" y="158.2734"/><rect fill="none" height="79.0547" style="stroke:#000000;stroke-width:1.5;" width="426" x="1033.5" y="213.9766"/><rect fill="none" height="79.0547" style="stroke:#000000;stroke-width:1.5;" width="340" x="1300.5" y="435.4375"/><line style="stroke:#181818;stroke-width:0.5;stroke-dasharray:5.0,5.0;" x1="289.5" x2="289.5" y1="55.2188" y2="629.5469"/><line style="stroke:#181818;stroke-width:0.5;stroke-dasharray:5.0,5.0;" x1="465.5" x2="465.5" y1="55.2188" y2="629.5469"/><line style="stroke:#181818;stroke-width:0.5;stroke-dasharray:5.0,5.0;" x1="627.5" x2="627.5" y1="55.2188" y2="629.5469"/><line style="stroke:#181818;stroke-width:0.5;stroke-dasharray:5.0,5.0;" x1="775.5" x2="775.5" y1="55.2188" y2="629.5469"/><line style="stroke:#181818;stroke-width:0.5;stroke-dasharray:5.0,5.0;" x1="1077.5" x2="1077.5" y1="55.2188" y2="629.5469"/><line style="stroke:#181818;stroke-width:0.5;stroke-dasharray:5.0,5.0;" x1="1379.5" x2="1379.5" y1="55.2188" y2="629.5469"/><line style="stroke:#181818;stroke-width:0.5;stroke-dasharray:5.0,5.0;" x1="1571.5" x2="1571.5" y1="55.2188" y2="629.5469"/><rect fill="#E3E3E3" height="31.6094" rx="2.5" ry="2.5" style="stroke:#181818;stroke-width:0.5;" width="167" x="206.5" y="22.6094"/><text fill="#000000" font-family="sans-serif" font-size="14" lengthAdjust="spacing" textLength="153" x="213.5" y="44.1426">:AcceptOrdersController</text><rect fill="#E3E3E3" height="31.6094" rx="2.5" ry="2.5" style="stroke:#181818;stroke-width:0.5;" width="167" x="206.5" y="628.5469"/><text fill="#000000" font-family="sans-serif" font-size="14" lengthAdjust="spacing" textLength="153" x="213.5" y="650.0801">:AcceptOrdersController</text><rect fill="#E3E3E3" height="49.2188" rx="2.5" ry="2.5" style="stroke:#181818;stroke-width:0.5;" width="165" x="383.5" y="5"/><text fill="#000000" font-family="sans-serif" font-size="14" lengthAdjust="spacing" textLength="142" x="395" y="26.5332">announcementMapper</text><text fill="#000000" font-family="sans-serif" font-size="14" lengthAdjust="spacing" textLength="151" x="390.5" y="44.1426">: AnnouncementMapper</text><rect fill="#E3E3E3" height="49.2188" rx="2.5" ry="2.5" style="stroke:#181818;stroke-width:0.5;" width="165" x="383.5" y="628.5469"/><text fill="#000000" font-family="sans-serif" font-size="14" lengthAdjust="spacing" textLength="142" x="395" y="650.0801">announcementMapper</text><text fill="#000000" font-family="sans-serif" font-size="14" lengthAdjust="spacing" textLength="151" x="390.5" y="667.6895">: AnnouncementMapper</text><rect fill="#E3E3E3" height="49.2188" rx="2.5" ry="2.5" style="stroke:#181818;stroke-width:0.5;" width="139" x="558.5" y="5"/><text fill="#000000" font-family="sans-serif" font-size="14" lengthAdjust="spacing" textLength="116" x="570" y="26.5332">announcementDto</text><text fill="#000000" font-family="sans-serif" font-size="14" lengthAdjust="spacing" textLength="125" x="565.5" y="44.1426">: AnnouncementDto</text><rect fill="#E3E3E3" height="49.2188" rx="2.5" ry="2.5" style="stroke:#181818;stroke-width:0.5;" width="139" x="558.5" y="628.5469"/><text fill="#000000" font-family="sans-serif" font-size="14" lengthAdjust="spacing" textLength="116" x="570" y="650.0801">announcementDto</text><text fill="#000000" font-family="sans-serif" font-size="14" lengthAdjust="spacing" textLength="125" x="565.5" y="667.6895">: AnnouncementDto</text><rect fill="#E3E3E3" height="49.2188" rx="2.5" ry="2.5" style="stroke:#181818;stroke-width:0.5;" width="137" x="707.5" y="5"/><text fill="#000000" font-family="sans-serif" font-size="14" lengthAdjust="spacing" textLength="114" x="719" y="26.5332">agencyRepository</text><text fill="#000000" font-family="sans-serif" font-size="14" lengthAdjust="spacing" textLength="123" x="714.5" y="44.1426">: AgencyRepository</text><rect fill="#E3E3E3" height="49.2188" rx="2.5" ry="2.5" style="stroke:#181818;stroke-width:0.5;" width="137" x="707.5" y="628.5469"/><text fill="#000000" font-family="sans-serif" font-size="14" lengthAdjust="spacing" textLength="114" x="719" y="650.0801">agencyRepository</text><text fill="#000000" font-family="sans-serif" font-size="14" lengthAdjust="spacing" textLength="123" x="714.5" y="667.6895">: AgencyRepository</text><rect fill="#E3E3E3" height="49.2188" rx="2.5" ry="2.5" style="stroke:#181818;stroke-width:0.5;" width="69" x="1043.5" y="5"/><text fill="#000000" font-family="sans-serif" font-size="14" lengthAdjust="spacing" textLength="46" x="1055" y="26.5332">agency</text><text fill="#000000" font-family="sans-serif" font-size="14" lengthAdjust="spacing" textLength="55" x="1050.5" y="44.1426">: Agency</text><rect fill="#E3E3E3" height="49.2188" rx="2.5" ry="2.5" style="stroke:#181818;stroke-width:0.5;" width="69" x="1043.5" y="628.5469"/><text fill="#000000" font-family="sans-serif" font-size="14" lengthAdjust="spacing" textLength="46" x="1055" y="650.0801">agency</text><text fill="#000000" font-family="sans-serif" font-size="14" lengthAdjust="spacing" textLength="55" x="1050.5" y="667.6895">: Agency</text><rect fill="#E3E3E3" height="49.2188" rx="2.5" ry="2.5" style="stroke:#181818;stroke-width:0.5;" width="139" x="1310.5" y="5"/><text fill="#000000" font-family="sans-serif" font-size="14" lengthAdjust="spacing" textLength="116" x="1322" y="26.5332">announcementList</text><text fill="#000000" font-family="sans-serif" font-size="14" lengthAdjust="spacing" textLength="125" x="1317.5" y="44.1426">: AnnouncementList</text><rect fill="#E3E3E3" height="49.2188" rx="2.5" ry="2.5" style="stroke:#181818;stroke-width:0.5;" width="139" x="1310.5" y="628.5469"/><text fill="#000000" font-family="sans-serif" font-size="14" lengthAdjust="spacing" textLength="116" x="1322" y="650.0801">announcementList</text><text fill="#000000" font-family="sans-serif" font-size="14" lengthAdjust="spacing" textLength="125" x="1317.5" y="667.6895">: AnnouncementList</text><rect fill="#E3E3E3" height="49.2188" rx="2.5" ry="2.5" style="stroke:#181818;stroke-width:0.5;" width="117" x="1513.5" y="5"/><text fill="#000000" font-family="sans-serif" font-size="14" lengthAdjust="spacing" textLength="94" x="1525" y="26.5332">announcement</text><text fill="#000000" font-family="sans-serif" font-size="14" lengthAdjust="spacing" textLength="103" x="1520.5" y="44.1426">: Announcement</text><rect fill="#E3E3E3" height="49.2188" rx="2.5" ry="2.5" style="stroke:#181818;stroke-width:0.5;" width="117" x="1513.5" y="628.5469"/><text fill="#000000" font-family="sans-serif" font-size="14" lengthAdjust="spacing" textLength="94" x="1525" y="650.0801">announcement</text><text fill="#000000" font-family="sans-serif" font-size="14" lengthAdjust="spacing" textLength="103" x="1520.5" y="667.6895">: Announcement</text><rect fill="#FFFFFF" height="523.9766" style="stroke:#181818;stroke-width:1.0;" width="10" x="285" y="87.5703"/><rect fill="#FFFFFF" height="216.4609" style="stroke:#181818;stroke-width:1.0;" width="10" x="771" y="143.2734"/><rect fill="#FFFFFF" height="123.4063" style="stroke:#181818;stroke-width:1.0;" width="10" x="1073" y="198.9766"/><rect fill="#FFFFFF" height="184.1094" style="stroke:#181818;stroke-width:1.0;" width="10" x="1073" y="390.0859"/><rect fill="#FFFFFF" height="30.3516" style="stroke:#181818;stroke-width:1.0;" width="10" x="1375" y="254.6797"/><rect fill="#FFFFFF" height="123.4063" style="stroke:#181818;stroke-width:1.0;" width="10" x="1375" y="420.4375"/><rect fill="#FFFFFF" height="30.3516" style="stroke:#181818;stroke-width:1.0;" width="10" x="1567" y="476.1406"/><polygon fill="#181818" points="273,83.5703,283,87.5703,273,91.5703,277,87.5703" style="stroke:#181818;stroke-width:1.0;"/><line style="stroke:#181818;stroke-width:1.0;" x1="0" x2="279" y1="87.5703" y2="87.5703"/><text fill="#000000" font-family="sans-serif" font-size="13" font-weight="bold" lengthAdjust="spacing" textLength="14" x="7" y="82.7139">28</text><text fill="#000000" font-family="sans-serif" font-size="13" lengthAdjust="spacing" textLength="248" x="25" y="82.7139">getAnnouncementFromId(announcementId)</text><path d="M196.5,102.5703 L363.5,102.5703 L363.5,110.9219 L353.5,120.9219 L196.5,120.9219 L196.5,102.5703 " fill="#EEEEEE" style="stroke:#000000;stroke-width:1.5;"/><rect fill="none" height="479.625" style="stroke:#000000;stroke-width:1.5;" width="1454" x="196.5" y="102.5703"/><text fill="#000000" font-family="sans-serif" font-size="13" font-weight="bold" lengthAdjust="spacing" textLength="122" x="211.5" y="117.0654">Get Announcement</text><polygon fill="#181818" points="759,139.2734,769,143.2734,759,147.2734,763,143.2734" style="stroke:#181818;stroke-width:1.0;"/><line style="stroke:#181818;stroke-width:1.0;" x1="295" x2="765" y1="143.2734" y2="143.2734"/><text fill="#000000" font-family="sans-serif" font-size="13" font-weight="bold" lengthAdjust="spacing" textLength="25" x="302" y="138.417">28.1</text><text fill="#000000" font-family="sans-serif" font-size="13" lengthAdjust="spacing" textLength="278" x="331" y="138.417">getAgencyByAnnouncementId(announcementId)</text><path d="M697.5,158.2734 L770.5,158.2734 L770.5,166.625 L760.5,176.625 L697.5,176.625 L697.5,158.2734 " fill="#EEEEEE" style="stroke:#000000;stroke-width:1.5;"/><rect fill="none" height="172.1094" style="stroke:#000000;stroke-width:1.5;" width="772" x="697.5" y="158.2734"/><text fill="#000000" font-family="sans-serif" font-size="13" font-weight="bold" lengthAdjust="spacing" textLength="28" x="712.5" y="172.7686">loop</text><text fill="#000000" font-family="sans-serif" font-size="11" font-weight="bold" lengthAdjust="spacing" textLength="95" x="785.5" y="171.6924">[for each agency]</text><polygon fill="#181818" points="1061,194.9766,1071,198.9766,1061,202.9766,1065,198.9766" style="stroke:#181818;stroke-width:1.0;"/><line style="stroke:#181818;stroke-width:1.0;" x1="781" x2="1067" y1="198.9766" y2="198.9766"/><text fill="#000000" font-family="sans-serif" font-size="13" font-weight="bold" lengthAdjust="spacing" textLength="25" x="788" y="194.1201">28.2</text><text fill="#000000" font-family="sans-serif" font-size="13" lengthAdjust="spacing" textLength="244" x="817" y="194.1201">anyAnnouncementHasId(announcementId)</text><path d="M1033.5,213.9766 L1106.5,213.9766 L1106.5,222.3281 L1096.5,232.3281 L1033.5,232.3281 L1033.5,213.9766 " fill="#EEEEEE" style="stroke:#000000;stroke-width:1.5;"/><rect fill="none" height="79.0547" style="stroke:#000000;stroke-width:1.5;" width="426" x="1033.5" y="213.9766"/><text fill="#000000" font-family="sans-serif" font-size="13" font-weight="bold" lengthAdjust="spacing" textLength="28" x="1048.5" y="228.4717">loop</text><text fill="#000000" font-family="sans-serif" font-size="11" font-weight="bold" lengthAdjust="spacing" textLength="139" x="1121.5" y="227.3955">[for each announcement]</text><polygon fill="#181818" points="1363,250.6797,1373,254.6797,1363,258.6797,1367,254.6797" style="stroke:#181818;stroke-width:1.0;"/><line style="stroke:#181818;stroke-width:1.0;" x1="1083" x2="1369" y1="254.6797" y2="254.6797"/><text fill="#000000" font-family="sans-serif" font-size="13" font-weight="bold" lengthAdjust="spacing" textLength="25" x="1090" y="249.8232">28.3</text><text fill="#000000" font-family="sans-serif" font-size="13" lengthAdjust="spacing" textLength="244" x="1119" y="249.8232">anyAnnouncementHasId(announcementId)</text><polygon fill="#181818" points="1094,281.0313,1084,285.0313,1094,289.0313,1090,285.0313" style="stroke:#181818;stroke-width:1.0;"/><line style="stroke:#181818;stroke-width:1.0;stroke-dasharray:2.0,2.0;" x1="1088" x2="1379" y1="285.0313" y2="285.0313"/><text fill="#000000" font-family="sans-serif" font-size="13" font-weight="bold" lengthAdjust="spacing" textLength="25" x="1100" y="280.1748">28.4</text><text fill="#000000" font-family="sans-serif" font-size="13" lengthAdjust="spacing" textLength="53" x="1129" y="280.1748">true/false</text><polygon fill="#181818" points="792,318.3828,782,322.3828,792,326.3828,788,322.3828" style="stroke:#181818;stroke-width:1.0;"/><line style="stroke:#181818;stroke-width:1.0;stroke-dasharray:2.0,2.0;" x1="786" x2="1077" y1="322.3828" y2="322.3828"/><text fill="#000000" font-family="sans-serif" font-size="13" font-weight="bold" lengthAdjust="spacing" textLength="25" x="798" y="317.5264">28.5</text><text fill="#000000" font-family="sans-serif" font-size="13" lengthAdjust="spacing" textLength="53" x="827" y="317.5264">true/false</text><polygon fill="#181818" points="306,355.7344,296,359.7344,306,363.7344,302,359.7344" style="stroke:#181818;stroke-width:1.0;"/><line style="stroke:#181818;stroke-width:1.0;stroke-dasharray:2.0,2.0;" x1="300" x2="775" y1="359.7344" y2="359.7344"/><text fill="#000000" font-family="sans-serif" font-size="13" font-weight="bold" lengthAdjust="spacing" textLength="25" x="312" y="354.8779">28.6</text><text fill="#000000" font-family="sans-serif" font-size="13" lengthAdjust="spacing" textLength="42" x="341" y="354.8779">agency</text><polygon fill="#181818" points="1061,386.0859,1071,390.0859,1061,394.0859,1065,390.0859" style="stroke:#181818;stroke-width:1.0;"/><line style="stroke:#181818;stroke-width:1.0;" x1="295" x2="1067" y1="390.0859" y2="390.0859"/><text fill="#000000" font-family="sans-serif" font-size="13" font-weight="bold" lengthAdjust="spacing" textLength="25" x="302" y="385.2295">28.7</text><text fill="#000000" font-family="sans-serif" font-size="13" lengthAdjust="spacing" textLength="234" x="331" y="385.2295">getAnnouncementById(announcementId)</text><polygon fill="#181818" points="1363,416.4375,1373,420.4375,1363,424.4375,1367,420.4375" style="stroke:#181818;stroke-width:1.0;"/><line style="stroke:#181818;stroke-width:1.0;" x1="1083" x2="1369" y1="420.4375" y2="420.4375"/><text fill="#000000" font-family="sans-serif" font-size="13" font-weight="bold" lengthAdjust="spacing" textLength="25" x="1090" y="415.5811">28.8</text><text fill="#000000" font-family="sans-serif" font-size="13" lengthAdjust="spacing" textLength="234" x="1119" y="415.5811">getAnnouncementById(announcementId)</text><path d="M1300.5,435.4375 L1373.5,435.4375 L1373.5,443.7891 L1363.5,453.7891 L1300.5,453.7891 L1300.5,435.4375 " fill="#EEEEEE" style="stroke:#000000;stroke-width:1.5;"/><rect fill="none" height="79.0547" style="stroke:#000000;stroke-width:1.5;" width="340" x="1300.5" y="435.4375"/><text fill="#000000" font-family="sans-serif" font-size="13" font-weight="bold" lengthAdjust="spacing" textLength="28" x="1315.5" y="449.9326">loop</text><text fill="#000000" font-family="sans-serif" font-size="11" font-weight="bold" lengthAdjust="spacing" textLength="139" x="1388.5" y="448.8564">[for each announcement]</text><polygon fill="#181818" points="1555,472.1406,1565,476.1406,1555,480.1406,1559,476.1406" style="stroke:#181818;stroke-width:1.0;"/><line style="stroke:#181818;stroke-width:1.0;" x1="1385" x2="1561" y1="476.1406" y2="476.1406"/><text fill="#000000" font-family="sans-serif" font-size="13" font-weight="bold" lengthAdjust="spacing" textLength="25" x="1392" y="471.2842">28.9</text><text fill="#000000" font-family="sans-serif" font-size="13" lengthAdjust="spacing" textLength="134" x="1421" y="471.2842">hasId(announcementId)</text><polygon fill="#181818" points="1396,502.4922,1386,506.4922,1396,510.4922,1392,506.4922" style="stroke:#181818;stroke-width:1.0;"/><line style="stroke:#181818;stroke-width:1.0;stroke-dasharray:2.0,2.0;" x1="1390" x2="1571" y1="506.4922" y2="506.4922"/><text fill="#000000" font-family="sans-serif" font-size="13" font-weight="bold" lengthAdjust="spacing" textLength="32" x="1402" y="501.6357">28.10</text><text fill="#000000" font-family="sans-serif" font-size="13" lengthAdjust="spacing" textLength="53" x="1438" y="501.6357">true/false</text><polygon fill="#181818" points="1094,539.8438,1084,543.8438,1094,547.8438,1090,543.8438" style="stroke:#181818;stroke-width:1.0;"/><line style="stroke:#181818;stroke-width:1.0;stroke-dasharray:2.0,2.0;" x1="1088" x2="1379" y1="543.8438" y2="543.8438"/><text fill="#000000" font-family="sans-serif" font-size="13" font-weight="bold" lengthAdjust="spacing" textLength="32" x="1100" y="538.9873">28.11</text><text fill="#000000" font-family="sans-serif" font-size="13" lengthAdjust="spacing" textLength="85" x="1136" y="538.9873">announcement</text><polygon fill="#181818" points="306,570.1953,296,574.1953,306,578.1953,302,574.1953" style="stroke:#181818;stroke-width:1.0;"/><line style="stroke:#181818;stroke-width:1.0;stroke-dasharray:2.0,2.0;" x1="300" x2="1077" y1="574.1953" y2="574.1953"/><text fill="#000000" font-family="sans-serif" font-size="13" font-weight="bold" lengthAdjust="spacing" textLength="32" x="312" y="569.3389">28.12</text><text fill="#000000" font-family="sans-serif" font-size="13" lengthAdjust="spacing" textLength="85" x="348" y="569.3389">announcement</text><polygon fill="#181818" points="11,607.5469,1,611.5469,11,615.5469,7,611.5469" style="stroke:#181818;stroke-width:1.0;"/><line style="stroke:#181818;stroke-width:1.0;stroke-dasharray:2.0,2.0;" x1="5" x2="289" y1="611.5469" y2="611.5469"/><text fill="#000000" font-family="sans-serif" font-size="13" font-weight="bold" lengthAdjust="spacing" textLength="14" x="17" y="606.6904">29</text><text fill="#000000" font-family="sans-serif" font-size="13" lengthAdjust="spacing" textLength="85" x="35" y="606.6904">announcement</text><!--SRC=[dLHDJzmm4BtxLumujOUbWbCRLKZBGW69BorxGUBYEaCs8h4jsodAlwy_ibdRONTRSeh6yzwRcJUsVgkvf8gsq0eks5g95i6e3eaUJoHbRxJ29zCt20gPeRnguWIzfgLuhta5hxJHI0YnSLEpMb9kuAYOCuRIFAWIbLu8RfHe6bH7G3KiLilRD9joBZhEi4LkxgYKg5vu0VD9rCDj-6x- -7YvtCrnOKHEO4CRzCNg8ODMo5c_H2bqROJgFJQB1N1b0nzXjuYGTtLvltZUNTzjhKrUe8jjAdJ_kz4vSeFo0K9ePmJlsj-euFGx0VlDplpC2wZGnC1VrlcRyalCVLD-zH3AJFs76WncLKfq4gxG9Bgfql69tG47TGWdwOSLDFrapljv8hHVDupQnzpN227XLIX0ojOGXhuzzSbUqmyU2al44xbhgdSefgh1E8Y-J3dkFyaRf5qHmS3_BI8jP5Y2H274O3OsMlXh-otSm3Yrn0bJSewyz8sHlFgjRnymnwnXK6H2I28_XhspTWo6vIHRZyUb6GtCTlMyFxWnKKaJCw3u164-ERyAXtPXTEbil2nMVFsF-pVUueWkSDXfZhqSy6P2ahapsIFdKDpClXMADcLZxZxeO8ghmByYwVlqm-V_dCs61seVbN-9_W80]--></g></svg>