<?xml version="1.0" encoding="UTF-8" standalone="no"?><svg xmlns="http://www.w3.org/2000/svg" xmlns:xlink="http://www.w3.org/1999/xlink" contentStyleType="text/css" height="1407px" preserveAspectRatio="none" style="width:1698px;height:1407px;background:#FFFFFF;" version="1.1" viewBox="0 0 1698 1407" width="1698px" zoomAndPan="magnify"><defs/><g><rect fill="#FFFFFF" height="1198.7422" style="stroke:#181818;stroke-width:1.0;" width="10" x="541" y="136.625"/><rect fill="#FFFFFF" height="41.3516" style="stroke:#181818;stroke-width:1.0;" width="10" x="546" y="655.2266"/><rect fill="#FFFFFF" height="41.3516" style="stroke:#181818;stroke-width:1.0;" width="10" x="546" y="1192.6641"/><rect fill="#FFFFFF" height="322.8438" style="stroke:#181818;stroke-width:1.0;" width="10" x="1052" y="269.0313"/><rect fill="#FFFFFF" height="41.3516" style="stroke:#181818;stroke-width:1.0;" width="10" x="1057" y="513.1719"/><rect fill="#FFFFFF" height="309.3281" style="stroke:#181818;stroke-width:1.0;" width="10" x="1052" y="819.9844"/><rect fill="#FFFFFF" height="41.3516" style="stroke:#181818;stroke-width:1.0;" width="10" x="1057" y="1050.6094"/><rect fill="#FFFFFF" height="136.9219" style="stroke:#181818;stroke-width:1.0;" width="10" x="1474" y="312.8984"/><rect fill="#FFFFFF" height="41.3516" style="stroke:#181818;stroke-width:1.0;" width="10" x="1479" y="371.1172"/><rect fill="#FFFFFF" height="136.9219" style="stroke:#181818;stroke-width:1.0;" width="10" x="1474" y="850.3359"/><rect fill="#FFFFFF" height="41.3516" style="stroke:#181818;stroke-width:1.0;" width="10" x="1479" y="908.5547"/><rect fill="none" height="1154.3906" style="stroke:#000000;stroke-width:1.5;" width="1201.5" x="490.5" y="151.625"/><rect fill="none" height="1072.0391" style="stroke:#000000;stroke-width:1.5;" width="1181.5" x="500.5" y="201.9766"/><line style="stroke:#181818;stroke-width:0.5;stroke-dasharray:5.0,5.0;" x1="545.5" x2="545.5" y1="55.2188" y2="1353.3672"/><line style="stroke:#181818;stroke-width:0.5;stroke-dasharray:5.0,5.0;" x1="1057" x2="1057" y1="788.2813" y2="1353.3672"/><line style="stroke:#181818;stroke-width:0.5;stroke-dasharray:5.0,5.0;" x1="1479" x2="1479" y1="858.0938" y2="1353.3672"/><rect fill="#E3E3E3" height="49.2188" rx="2.5" ry="2.5" style="stroke:#181818;stroke-width:0.5;" width="71" x="510.5" y="5"/><text fill="#000000" font-family="sans-serif" font-size="14" lengthAdjust="spacing" textLength="48" x="522" y="26.5332">request</text><text fill="#000000" font-family="sans-serif" font-size="14" lengthAdjust="spacing" textLength="57" x="517.5" y="44.1426">:Request</text><rect fill="#E3E3E3" height="49.2188" rx="2.5" ry="2.5" style="stroke:#181818;stroke-width:0.5;" width="71" x="510.5" y="1352.3672"/><text fill="#000000" font-family="sans-serif" font-size="14" lengthAdjust="spacing" textLength="48" x="522" y="1373.9004">request</text><text fill="#000000" font-family="sans-serif" font-size="14" lengthAdjust="spacing" textLength="57" x="517.5" y="1391.5098">:Request</text><rect fill="#E3E3E3" height="49.2188" rx="2.5" ry="2.5" style="stroke:#181818;stroke-width:0.5;" width="72" x="1021" y="1352.3672"/><text fill="#000000" font-family="sans-serif" font-size="14" lengthAdjust="spacing" textLength="53" x="1030.5" y="1373.9004">property</text><text fill="#000000" font-family="sans-serif" font-size="14" lengthAdjust="spacing" textLength="58" x="1028" y="1391.5098">:Property</text><rect fill="#E3E3E3" height="49.2188" rx="2.5" ry="2.5" style="stroke:#181818;stroke-width:0.5;" width="72" x="1443" y="1352.3672"/><text fill="#000000" font-family="sans-serif" font-size="14" lengthAdjust="spacing" textLength="49" x="1454.5" y="1373.9004">location</text><text fill="#000000" font-family="sans-serif" font-size="14" lengthAdjust="spacing" textLength="58" x="1450" y="1391.5098">:Location</text><rect fill="#FFFFFF" height="1198.7422" style="stroke:#181818;stroke-width:1.0;" width="10" x="541" y="136.625"/><rect fill="#FFFFFF" height="41.3516" style="stroke:#181818;stroke-width:1.0;" width="10" x="546" y="655.2266"/><rect fill="#FFFFFF" height="41.3516" style="stroke:#181818;stroke-width:1.0;" width="10" x="546" y="1192.6641"/><rect fill="#FFFFFF" height="322.8438" style="stroke:#181818;stroke-width:1.0;" width="10" x="1052" y="269.0313"/><rect fill="#FFFFFF" height="41.3516" style="stroke:#181818;stroke-width:1.0;" width="10" x="1057" y="513.1719"/><rect fill="#FFFFFF" height="309.3281" style="stroke:#181818;stroke-width:1.0;" width="10" x="1052" y="819.9844"/><rect fill="#FFFFFF" height="41.3516" style="stroke:#181818;stroke-width:1.0;" width="10" x="1057" y="1050.6094"/><rect fill="#FFFFFF" height="136.9219" style="stroke:#181818;stroke-width:1.0;" width="10" x="1474" y="312.8984"/><rect fill="#FFFFFF" height="41.3516" style="stroke:#181818;stroke-width:1.0;" width="10" x="1479" y="371.1172"/><rect fill="#FFFFFF" height="136.9219" style="stroke:#181818;stroke-width:1.0;" width="10" x="1474" y="850.3359"/><rect fill="#FFFFFF" height="41.3516" style="stroke:#181818;stroke-width:1.0;" width="10" x="1479" y="908.5547"/><polygon fill="#181818" points="529,132.625,539,136.625,529,140.625,533,136.625" style="stroke:#181818;stroke-width:1.0;"/><line style="stroke:#181818;stroke-width:1.0;" x1="0" x2="535" y1="136.625" y2="136.625"/><text fill="#000000" font-family="sans-serif" font-size="13" font-weight="bold" lengthAdjust="spacing" textLength="14" x="7" y="107.2412">35</text><text fill="#000000" font-family="sans-serif" font-size="13" lengthAdjust="spacing" textLength="504" x="25" y="82.7139">createRequest(agent, agency, ownerEmail, propertyType, businessType, amount, area,</text><text fill="#000000" font-family="sans-serif" font-size="13" lengthAdjust="spacing" textLength="461" x="29" y="99.0654">contractDuration, availableEquipment, streetName, city, district, state, zipCode,</text><text fill="#000000" font-family="sans-serif" font-size="13" lengthAdjust="spacing" textLength="426" x="29" y="115.417">basement, inhabitableLoft, parkingSpace, sunExposure, numberBedroom,</text><text fill="#000000" font-family="sans-serif" font-size="13" lengthAdjust="spacing" textLength="293" x="29" y="131.7686">numberBathroom, distanceCityCenter, photograph)</text><path d="M490.5,151.625 L632.5,151.625 L632.5,159.9766 L622.5,169.9766 L490.5,169.9766 L490.5,151.625 " fill="#EEEEEE" style="stroke:#000000;stroke-width:1.5;"/><rect fill="none" height="1154.3906" style="stroke:#000000;stroke-width:1.5;" width="1201.5" x="490.5" y="151.625"/><text fill="#000000" font-family="sans-serif" font-size="13" font-weight="bold" lengthAdjust="spacing" textLength="97" x="505.5" y="166.1201">Create Request</text><path d="M500.5,201.9766 L561.5,201.9766 L561.5,210.3281 L551.5,220.3281 L500.5,220.3281 L500.5,201.9766 " fill="#EEEEEE" style="stroke:#000000;stroke-width:1.5;"/><rect fill="none" height="1072.0391" style="stroke:#000000;stroke-width:1.5;" width="1181.5" x="500.5" y="201.9766"/><text fill="#000000" font-family="sans-serif" font-size="13" font-weight="bold" lengthAdjust="spacing" textLength="16" x="515.5" y="216.4717">alt</text><text fill="#000000" font-family="sans-serif" font-size="11" font-weight="bold" lengthAdjust="spacing" textLength="125" x="576.5" y="215.3955">[Property Type = Land]</text><polygon fill="#181818" points="1009,255.0313,1019,259.0313,1009,263.0313,1013,259.0313" style="stroke:#181818;stroke-width:1.0;"/><line style="stroke:#181818;stroke-width:1.0;" x1="551" x2="1015" y1="259.0313" y2="259.0313"/><text fill="#000000" font-family="sans-serif" font-size="13" font-weight="bold" lengthAdjust="spacing" textLength="25" x="558" y="245.999">35.1</text><text fill="#000000" font-family="sans-serif" font-size="13" lengthAdjust="spacing" textLength="389" x="587" y="237.8232">createProperty(propertyType, area, streetName, city, district, state,</text><text fill="#000000" font-family="sans-serif" font-size="13" lengthAdjust="spacing" textLength="241" x="591" y="254.1748">zipCode, distanceCityCenter, photograph)</text><rect fill="#E3E3E3" height="49.2188" rx="2.5" ry="2.5" style="stroke:#181818;stroke-width:0.5;" width="72" x="1021" y="220.3281"/><text fill="#000000" font-family="sans-serif" font-size="14" lengthAdjust="spacing" textLength="53" x="1030.5" y="241.8613">property</text><text fill="#000000" font-family="sans-serif" font-size="14" lengthAdjust="spacing" textLength="58" x="1028" y="259.4707">:Property</text><polygon fill="#181818" points="1431,298.8984,1441,302.8984,1431,306.8984,1435,302.8984" style="stroke:#181818;stroke-width:1.0;"/><line style="stroke:#181818;stroke-width:1.0;" x1="1062" x2="1437" y1="302.8984" y2="302.8984"/><text fill="#000000" font-family="sans-serif" font-size="13" font-weight="bold" lengthAdjust="spacing" textLength="25" x="1069" y="298.042">35.2</text><text fill="#000000" font-family="sans-serif" font-size="13" lengthAdjust="spacing" textLength="328" x="1098" y="298.042">createLocation(streetName, city, district, state, zipCode)</text><rect fill="#E3E3E3" height="49.2188" rx="2.5" ry="2.5" style="stroke:#181818;stroke-width:0.5;" width="72" x="1443" y="280.5469"/><text fill="#000000" font-family="sans-serif" font-size="14" lengthAdjust="spacing" textLength="49" x="1454.5" y="302.0801">location</text><text fill="#000000" font-family="sans-serif" font-size="14" lengthAdjust="spacing" textLength="58" x="1450" y="319.6895">:Location</text><line style="stroke:#181818;stroke-width:1.0;" x1="1484" x2="1531" y1="358.1172" y2="358.1172"/><line style="stroke:#181818;stroke-width:1.0;" x1="1531" x2="1531" y1="358.1172" y2="371.1172"/><line style="stroke:#181818;stroke-width:1.0;" x1="1490" x2="1531" y1="371.1172" y2="371.1172"/><polygon fill="#181818" points="1500,367.1172,1490,371.1172,1500,375.1172,1496,371.1172" style="stroke:#181818;stroke-width:1.0;"/><text fill="#000000" font-family="sans-serif" font-size="13" font-weight="bold" lengthAdjust="spacing" textLength="25" x="1496" y="353.2607">35.3</text><text fill="#000000" font-family="sans-serif" font-size="13" lengthAdjust="spacing" textLength="145" x="1525" y="353.2607">validateLocation(location)</text><line style="stroke:#181818;stroke-width:1.0;stroke-dasharray:2.0,2.0;" x1="1489" x2="1531" y1="411.4688" y2="411.4688"/><line style="stroke:#181818;stroke-width:1.0;stroke-dasharray:2.0,2.0;" x1="1531" x2="1531" y1="411.4688" y2="424.4688"/><line style="stroke:#181818;stroke-width:1.0;stroke-dasharray:2.0,2.0;" x1="1484" x2="1531" y1="424.4688" y2="424.4688"/><polygon fill="#181818" points="1494,420.4688,1484,424.4688,1494,428.4688,1490,424.4688" style="stroke:#181818;stroke-width:1.0;"/><text fill="#000000" font-family="sans-serif" font-size="13" font-weight="bold" lengthAdjust="spacing" textLength="25" x="1496" y="406.6123">35.4</text><text fill="#000000" font-family="sans-serif" font-size="13" lengthAdjust="spacing" textLength="4" x="1525" y="406.6123"> </text><polygon fill="#181818" points="1073,445.8203,1063,449.8203,1073,453.8203,1069,449.8203" style="stroke:#181818;stroke-width:1.0;"/><line style="stroke:#181818;stroke-width:1.0;stroke-dasharray:2.0,2.0;" x1="1067" x2="1478" y1="449.8203" y2="449.8203"/><text fill="#000000" font-family="sans-serif" font-size="13" font-weight="bold" lengthAdjust="spacing" textLength="25" x="1079" y="444.9639">35.5</text><text fill="#000000" font-family="sans-serif" font-size="13" lengthAdjust="spacing" textLength="45" x="1108" y="444.9639">location</text><line style="stroke:#181818;stroke-width:1.0;" x1="1062" x2="1109" y1="500.1719" y2="500.1719"/><line style="stroke:#181818;stroke-width:1.0;" x1="1109" x2="1109" y1="500.1719" y2="513.1719"/><line style="stroke:#181818;stroke-width:1.0;" x1="1068" x2="1109" y1="513.1719" y2="513.1719"/><polygon fill="#181818" points="1078,509.1719,1068,513.1719,1078,517.1719,1074,513.1719" style="stroke:#181818;stroke-width:1.0;"/><text fill="#000000" font-family="sans-serif" font-size="13" font-weight="bold" lengthAdjust="spacing" textLength="25" x="1074" y="495.3154">35.6</text><text fill="#000000" font-family="sans-serif" font-size="13" lengthAdjust="spacing" textLength="147" x="1103" y="495.3154">validateProperty(property)</text><line style="stroke:#181818;stroke-width:1.0;stroke-dasharray:2.0,2.0;" x1="1067" x2="1109" y1="553.5234" y2="553.5234"/><line style="stroke:#181818;stroke-width:1.0;stroke-dasharray:2.0,2.0;" x1="1109" x2="1109" y1="553.5234" y2="566.5234"/><line style="stroke:#181818;stroke-width:1.0;stroke-dasharray:2.0,2.0;" x1="1062" x2="1109" y1="566.5234" y2="566.5234"/><polygon fill="#181818" points="1072,562.5234,1062,566.5234,1072,570.5234,1068,566.5234" style="stroke:#181818;stroke-width:1.0;"/><text fill="#000000" font-family="sans-serif" font-size="13" font-weight="bold" lengthAdjust="spacing" textLength="25" x="1074" y="548.667">35.7</text><text fill="#000000" font-family="sans-serif" font-size="13" lengthAdjust="spacing" textLength="4" x="1103" y="548.667"> </text><polygon fill="#181818" points="562,587.875,552,591.875,562,595.875,558,591.875" style="stroke:#181818;stroke-width:1.0;"/><line style="stroke:#181818;stroke-width:1.0;stroke-dasharray:2.0,2.0;" x1="556" x2="1056" y1="591.875" y2="591.875"/><text fill="#000000" font-family="sans-serif" font-size="13" font-weight="bold" lengthAdjust="spacing" textLength="25" x="568" y="587.0186">35.8</text><text fill="#000000" font-family="sans-serif" font-size="13" lengthAdjust="spacing" textLength="47" x="597" y="587.0186">property</text><line style="stroke:#181818;stroke-width:1.0;" x1="551" x2="598" y1="642.2266" y2="642.2266"/><line style="stroke:#181818;stroke-width:1.0;" x1="598" x2="598" y1="642.2266" y2="655.2266"/><line style="stroke:#181818;stroke-width:1.0;" x1="557" x2="598" y1="655.2266" y2="655.2266"/><polygon fill="#181818" points="567,651.2266,557,655.2266,567,659.2266,563,655.2266" style="stroke:#181818;stroke-width:1.0;"/><text fill="#000000" font-family="sans-serif" font-size="13" font-weight="bold" lengthAdjust="spacing" textLength="25" x="563" y="637.3701">35.9</text><text fill="#000000" font-family="sans-serif" font-size="13" lengthAdjust="spacing" textLength="95" x="592" y="637.3701">getCurrentDate()</text><line style="stroke:#181818;stroke-width:1.0;stroke-dasharray:2.0,2.0;" x1="556" x2="598" y1="695.5781" y2="695.5781"/><line style="stroke:#181818;stroke-width:1.0;stroke-dasharray:2.0,2.0;" x1="598" x2="598" y1="695.5781" y2="708.5781"/><line style="stroke:#181818;stroke-width:1.0;stroke-dasharray:2.0,2.0;" x1="551" x2="598" y1="708.5781" y2="708.5781"/><polygon fill="#181818" points="561,704.5781,551,708.5781,561,712.5781,557,708.5781" style="stroke:#181818;stroke-width:1.0;"/><text fill="#000000" font-family="sans-serif" font-size="13" font-weight="bold" lengthAdjust="spacing" textLength="32" x="563" y="690.7217">35.10</text><text fill="#000000" font-family="sans-serif" font-size="13" lengthAdjust="spacing" textLength="4" x="599" y="690.7217"> </text><line style="stroke:#000000;stroke-width:1.0;stroke-dasharray:2.0,2.0;" x1="500.5" x2="1682" y1="737.5781" y2="737.5781"/><polygon fill="#181818" points="1009,805.9844,1019,809.9844,1009,813.9844,1013,809.9844" style="stroke:#181818;stroke-width:1.0;"/><line style="stroke:#181818;stroke-width:1.0;" x1="551" x2="1015" y1="809.9844" y2="809.9844"/><text fill="#000000" font-family="sans-serif" font-size="13" font-weight="bold" lengthAdjust="spacing" textLength="25" x="558" y="780.6006">35.1</text><text fill="#000000" font-family="sans-serif" font-size="13" lengthAdjust="spacing" textLength="389" x="587" y="756.0732">createProperty(propertyType, area, streetName, city, district, state,</text><text fill="#000000" font-family="sans-serif" font-size="13" lengthAdjust="spacing" textLength="413" x="591" y="772.4248">zipCode, basement, availableEquipment, inhabitableLoft, parkingSpace,</text><text fill="#000000" font-family="sans-serif" font-size="13" lengthAdjust="spacing" textLength="362" x="591" y="788.7764">sunExposure, numberBedroom, numberBathroom, photograph,</text><text fill="#000000" font-family="sans-serif" font-size="13" lengthAdjust="spacing" textLength="114" x="591" y="805.1279">distanceCityCenter)</text><rect fill="#E3E3E3" height="49.2188" rx="2.5" ry="2.5" style="stroke:#181818;stroke-width:0.5;" width="72" x="1021" y="757.7656"/><text fill="#000000" font-family="sans-serif" font-size="14" lengthAdjust="spacing" textLength="53" x="1030.5" y="779.2988">property</text><text fill="#000000" font-family="sans-serif" font-size="14" lengthAdjust="spacing" textLength="58" x="1028" y="796.9082">:Property</text><polygon fill="#181818" points="1431,836.3359,1441,840.3359,1431,844.3359,1435,840.3359" style="stroke:#181818;stroke-width:1.0;"/><line style="stroke:#181818;stroke-width:1.0;" x1="1062" x2="1437" y1="840.3359" y2="840.3359"/><text fill="#000000" font-family="sans-serif" font-size="13" font-weight="bold" lengthAdjust="spacing" textLength="25" x="1069" y="835.4795">35.2</text><text fill="#000000" font-family="sans-serif" font-size="13" lengthAdjust="spacing" textLength="328" x="1098" y="835.4795">createLocation(streetName, city, district, state, zipCode)</text><rect fill="#E3E3E3" height="49.2188" rx="2.5" ry="2.5" style="stroke:#181818;stroke-width:0.5;" width="72" x="1443" y="817.9844"/><text fill="#000000" font-family="sans-serif" font-size="14" lengthAdjust="spacing" textLength="49" x="1454.5" y="839.5176">location</text><text fill="#000000" font-family="sans-serif" font-size="14" lengthAdjust="spacing" textLength="58" x="1450" y="857.127">:Location</text><line style="stroke:#181818;stroke-width:1.0;" x1="1484" x2="1531" y1="895.5547" y2="895.5547"/><line style="stroke:#181818;stroke-width:1.0;" x1="1531" x2="1531" y1="895.5547" y2="908.5547"/><line style="stroke:#181818;stroke-width:1.0;" x1="1490" x2="1531" y1="908.5547" y2="908.5547"/><polygon fill="#181818" points="1500,904.5547,1490,908.5547,1500,912.5547,1496,908.5547" style="stroke:#181818;stroke-width:1.0;"/><text fill="#000000" font-family="sans-serif" font-size="13" font-weight="bold" lengthAdjust="spacing" textLength="25" x="1496" y="890.6982">35.3</text><text fill="#000000" font-family="sans-serif" font-size="13" lengthAdjust="spacing" textLength="145" x="1525" y="890.6982">validateLocation(location)</text><line style="stroke:#181818;stroke-width:1.0;stroke-dasharray:2.0,2.0;" x1="1489" x2="1531" y1="948.9063" y2="948.9063"/><line style="stroke:#181818;stroke-width:1.0;stroke-dasharray:2.0,2.0;" x1="1531" x2="1531" y1="948.9063" y2="961.9063"/><line style="stroke:#181818;stroke-width:1.0;stroke-dasharray:2.0,2.0;" x1="1484" x2="1531" y1="961.9063" y2="961.9063"/><polygon fill="#181818" points="1494,957.9063,1484,961.9063,1494,965.9063,1490,961.9063" style="stroke:#181818;stroke-width:1.0;"/><text fill="#000000" font-family="sans-serif" font-size="13" font-weight="bold" lengthAdjust="spacing" textLength="25" x="1496" y="944.0498">35.4</text><text fill="#000000" font-family="sans-serif" font-size="13" lengthAdjust="spacing" textLength="4" x="1525" y="944.0498"> </text><polygon fill="#181818" points="1073,983.2578,1063,987.2578,1073,991.2578,1069,987.2578" style="stroke:#181818;stroke-width:1.0;"/><line style="stroke:#181818;stroke-width:1.0;stroke-dasharray:2.0,2.0;" x1="1067" x2="1478" y1="987.2578" y2="987.2578"/><text fill="#000000" font-family="sans-serif" font-size="13" font-weight="bold" lengthAdjust="spacing" textLength="25" x="1079" y="982.4014">35.5</text><text fill="#000000" font-family="sans-serif" font-size="13" lengthAdjust="spacing" textLength="45" x="1108" y="982.4014">location</text><line style="stroke:#181818;stroke-width:1.0;" x1="1062" x2="1109" y1="1037.6094" y2="1037.6094"/><line style="stroke:#181818;stroke-width:1.0;" x1="1109" x2="1109" y1="1037.6094" y2="1050.6094"/><line style="stroke:#181818;stroke-width:1.0;" x1="1068" x2="1109" y1="1050.6094" y2="1050.6094"/><polygon fill="#181818" points="1078,1046.6094,1068,1050.6094,1078,1054.6094,1074,1050.6094" style="stroke:#181818;stroke-width:1.0;"/><text fill="#000000" font-family="sans-serif" font-size="13" font-weight="bold" lengthAdjust="spacing" textLength="25" x="1074" y="1032.7529">35.6</text><text fill="#000000" font-family="sans-serif" font-size="13" lengthAdjust="spacing" textLength="147" x="1103" y="1032.7529">validateProperty(property)</text><line style="stroke:#181818;stroke-width:1.0;stroke-dasharray:2.0,2.0;" x1="1067" x2="1109" y1="1090.9609" y2="1090.9609"/><line style="stroke:#181818;stroke-width:1.0;stroke-dasharray:2.0,2.0;" x1="1109" x2="1109" y1="1090.9609" y2="1103.9609"/><line style="stroke:#181818;stroke-width:1.0;stroke-dasharray:2.0,2.0;" x1="1062" x2="1109" y1="1103.9609" y2="1103.9609"/><polygon fill="#181818" points="1072,1099.9609,1062,1103.9609,1072,1107.9609,1068,1103.9609" style="stroke:#181818;stroke-width:1.0;"/><text fill="#000000" font-family="sans-serif" font-size="13" font-weight="bold" lengthAdjust="spacing" textLength="25" x="1074" y="1086.1045">35.7</text><text fill="#000000" font-family="sans-serif" font-size="13" lengthAdjust="spacing" textLength="4" x="1103" y="1086.1045"> </text><polygon fill="#181818" points="562,1125.3125,552,1129.3125,562,1133.3125,558,1129.3125" style="stroke:#181818;stroke-width:1.0;"/><line style="stroke:#181818;stroke-width:1.0;stroke-dasharray:2.0,2.0;" x1="556" x2="1056" y1="1129.3125" y2="1129.3125"/><text fill="#000000" font-family="sans-serif" font-size="13" font-weight="bold" lengthAdjust="spacing" textLength="25" x="568" y="1124.4561">35.8</text><text fill="#000000" font-family="sans-serif" font-size="13" lengthAdjust="spacing" textLength="47" x="597" y="1124.4561">property</text><line style="stroke:#181818;stroke-width:1.0;" x1="551" x2="598" y1="1179.6641" y2="1179.6641"/><line style="stroke:#181818;stroke-width:1.0;" x1="598" x2="598" y1="1179.6641" y2="1192.6641"/><line style="stroke:#181818;stroke-width:1.0;" x1="557" x2="598" y1="1192.6641" y2="1192.6641"/><polygon fill="#181818" points="567,1188.6641,557,1192.6641,567,1196.6641,563,1192.6641" style="stroke:#181818;stroke-width:1.0;"/><text fill="#000000" font-family="sans-serif" font-size="13" font-weight="bold" lengthAdjust="spacing" textLength="25" x="563" y="1174.8076">35.9</text><text fill="#000000" font-family="sans-serif" font-size="13" lengthAdjust="spacing" textLength="95" x="592" y="1174.8076">getCurrentDate()</text><line style="stroke:#181818;stroke-width:1.0;stroke-dasharray:2.0,2.0;" x1="556" x2="598" y1="1233.0156" y2="1233.0156"/><line style="stroke:#181818;stroke-width:1.0;stroke-dasharray:2.0,2.0;" x1="598" x2="598" y1="1233.0156" y2="1246.0156"/><line style="stroke:#181818;stroke-width:1.0;stroke-dasharray:2.0,2.0;" x1="551" x2="598" y1="1246.0156" y2="1246.0156"/><polygon fill="#181818" points="561,1242.0156,551,1246.0156,561,1250.0156,557,1246.0156" style="stroke:#181818;stroke-width:1.0;"/><text fill="#000000" font-family="sans-serif" font-size="13" font-weight="bold" lengthAdjust="spacing" textLength="32" x="563" y="1228.1592">35.10</text><text fill="#000000" font-family="sans-serif" font-size="13" lengthAdjust="spacing" textLength="4" x="599" y="1228.1592"> </text><polygon fill="#181818" points="11,1331.3672,1,1335.3672,11,1339.3672,7,1335.3672" style="stroke:#181818;stroke-width:1.0;"/><line style="stroke:#181818;stroke-width:1.0;stroke-dasharray:2.0,2.0;" x1="5" x2="545" y1="1335.3672" y2="1335.3672"/><text fill="#000000" font-family="sans-serif" font-size="13" font-weight="bold" lengthAdjust="spacing" textLength="14" x="17" y="1330.5107">36</text><text fill="#000000" font-family="sans-serif" font-size="13" lengthAdjust="spacing" textLength="43" x="35" y="1330.5107">request</text><!--SRC=[pLVDRzCm5B_dhx1swgOM2I4uJ804MGz8rLgwSa3QnKtU4ck9dTbEHr7_U5xSE759QDmo8N9fOh-Ft_lmxxdgaV62IfgJN70HfLBaGBGi8L3DJa6ZHvh0dTvcG2H4cl8aSmLKIcFnp7X27cYc80XmMRE85PHhSY7XgGIbx_drSlzsGQWYo-dNRzExrQ5e8KK1KczHTb6_6k75ShwOBbVV3wKp4L7D14VfMVrgf6VpyDFgo_ms26Yf1I_pDKZovcqGaFgPVBJkhqaaWMgeaOqmJAx7fFg9jcCYdZd8QKvPDYOMssfRm9YiIyKuABN_ehaeZHuQ6zzp4Wck9OtqJIaDBDpPe16wpc3wLB8YDrwKbW3wbkPe8M8Q_SKCrrXazX3LcFnaHIXYg6okgOAz7kCfNJDTMPk91rp0h60jaZii5Egeaaz_54AL4Z_sqN-6M0gHLsRg1QfJis9SKXv1Y012D0yIxQL2YqJI8hriSeRHi0rYQWhNx5HF8aLPaD3aajJ9F9JOxNO7tyPcfecjCwaoIJwG6ULnq9Lq2_dgTLUWHbMLrZRBrHMnvRLEHeT5DENoA0EcpHPYC5yTP9rGR2ARfXvIiO9LSBQtdU1ixu_y-saOPeEoFKm36bRGHOaODpHZiOlIdbgFL9s5un2B0yPBCuQ_YTpfFWpTHZfeu1odVUVfIDyui6n5EeV2ho9dDF1lQ1muVgfEViuuD2tRO_0srbDguW_MeoWEKRMe4j1XAINIoGqw75rwdyvUCZxcrNLxGWgi7v-0mLm1_by6RmTftr0-FbpHpf7nsXckxM2eDBkZe-V43NVTlnW7mtpqCdJlntl-TEx3f2VJjO_HdeFmGlJhIKCdqAiFjPrAdrvqsPEai-XmaFwywAw7texUM877rOsr5N85garp2MwtNSPxrow_dqoSKEi_Hy6VGVq2]--></g></svg>