<?xml version="1.0" encoding="UTF-8" standalone="no"?><svg xmlns="http://www.w3.org/2000/svg" xmlns:xlink="http://www.w3.org/1999/xlink" contentStyleType="text/css" height="1956px" preserveAspectRatio="none" style="width:1698px;height:1956px;background:#FFFFFF;" version="1.1" viewBox="0 0 1698 1956" width="1698px" zoomAndPan="magnify"><defs/><g><rect fill="#FFFFFF" height="1747.5" style="stroke:#181818;stroke-width:1.0;" width="10" x="541" y="136.625"/><rect fill="#FFFFFF" height="41.3516" style="stroke:#181818;stroke-width:1.0;" width="10" x="546" y="655.2266"/><rect fill="#FFFFFF" height="41.3516" style="stroke:#181818;stroke-width:1.0;" width="10" x="546" y="1190.1484"/><rect fill="#FFFFFF" height="41.3516" style="stroke:#181818;stroke-width:1.0;" width="10" x="546" y="1741.4219"/><rect fill="#FFFFFF" height="322.8438" style="stroke:#181818;stroke-width:1.0;" width="10" x="1052" y="269.0313"/><rect fill="#FFFFFF" height="41.3516" style="stroke:#181818;stroke-width:1.0;" width="10" x="1057" y="513.1719"/><rect fill="#FFFFFF" height="309.3281" style="stroke:#181818;stroke-width:1.0;" width="10" x="1052" y="817.4688"/><rect fill="#FFFFFF" height="41.3516" style="stroke:#181818;stroke-width:1.0;" width="10" x="1057" y="1048.0938"/><rect fill="#FFFFFF" height="309.3281" style="stroke:#181818;stroke-width:1.0;" width="10" x="1052" y="1368.7422"/><rect fill="#FFFFFF" height="41.3516" style="stroke:#181818;stroke-width:1.0;" width="10" x="1057" y="1599.3672"/><rect fill="#FFFFFF" height="136.9219" style="stroke:#181818;stroke-width:1.0;" width="10" x="1474" y="312.8984"/><rect fill="#FFFFFF" height="41.3516" style="stroke:#181818;stroke-width:1.0;" width="10" x="1479" y="371.1172"/><rect fill="#FFFFFF" height="136.9219" style="stroke:#181818;stroke-width:1.0;" width="10" x="1474" y="847.8203"/><rect fill="#FFFFFF" height="41.3516" style="stroke:#181818;stroke-width:1.0;" width="10" x="1479" y="906.0391"/><rect fill="#FFFFFF" height="136.9219" style="stroke:#181818;stroke-width:1.0;" width="10" x="1474" y="1399.0938"/><rect fill="#FFFFFF" height="41.3516" style="stroke:#181818;stroke-width:1.0;" width="10" x="1479" y="1457.3125"/><rect fill="none" height="1703.1484" style="stroke:#000000;stroke-width:1.5;" width="1201.5" x="490.5" y="151.625"/><rect fill="none" height="1620.7969" style="stroke:#000000;stroke-width:1.5;" width="1181.5" x="500.5" y="201.9766"/><line style="stroke:#181818;stroke-width:0.5;stroke-dasharray:5.0,5.0;" x1="545.5" x2="545.5" y1="55.2188" y2="1902.125"/><line style="stroke:#181818;stroke-width:0.5;stroke-dasharray:5.0,5.0;" x1="1057" x2="1057" y1="1337.0391" y2="1902.125"/><line style="stroke:#181818;stroke-width:0.5;stroke-dasharray:5.0,5.0;" x1="1479" x2="1479" y1="1406.8516" y2="1902.125"/><rect fill="#E3E3E3" height="49.2188" rx="2.5" ry="2.5" style="stroke:#181818;stroke-width:0.5;" width="71" x="510.5" y="5"/><text fill="#000000" font-family="sans-serif" font-size="14" lengthAdjust="spacing" textLength="48" x="522" y="26.5332">request</text><text fill="#000000" font-family="sans-serif" font-size="14" lengthAdjust="spacing" textLength="57" x="517.5" y="44.1426">:Request</text><rect fill="#E3E3E3" height="49.2188" rx="2.5" ry="2.5" style="stroke:#181818;stroke-width:0.5;" width="71" x="510.5" y="1901.125"/><text fill="#000000" font-family="sans-serif" font-size="14" lengthAdjust="spacing" textLength="48" x="522" y="1922.6582">request</text><text fill="#000000" font-family="sans-serif" font-size="14" lengthAdjust="spacing" textLength="57" x="517.5" y="1940.2676">:Request</text><rect fill="#E3E3E3" height="49.2188" rx="2.5" ry="2.5" style="stroke:#181818;stroke-width:0.5;" width="72" x="1021" y="1901.125"/><text fill="#000000" font-family="sans-serif" font-size="14" lengthAdjust="spacing" textLength="53" x="1030.5" y="1922.6582">property</text><text fill="#000000" font-family="sans-serif" font-size="14" lengthAdjust="spacing" textLength="58" x="1028" y="1940.2676">:Property</text><rect fill="#E3E3E3" height="49.2188" rx="2.5" ry="2.5" style="stroke:#181818;stroke-width:0.5;" width="72" x="1443" y="1901.125"/><text fill="#000000" font-family="sans-serif" font-size="14" lengthAdjust="spacing" textLength="49" x="1454.5" y="1922.6582">location</text><text fill="#000000" font-family="sans-serif" font-size="14" lengthAdjust="spacing" textLength="58" x="1450" y="1940.2676">:Location</text><rect fill="#FFFFFF" height="1747.5" style="stroke:#181818;stroke-width:1.0;" width="10" x="541" y="136.625"/><rect fill="#FFFFFF" height="41.3516" style="stroke:#181818;stroke-width:1.0;" width="10" x="546" y="655.2266"/><rect fill="#FFFFFF" height="41.3516" style="stroke:#181818;stroke-width:1.0;" width="10" x="546" y="1190.1484"/><rect fill="#FFFFFF" height="41.3516" style="stroke:#181818;stroke-width:1.0;" width="10" x="546" y="1741.4219"/><rect fill="#FFFFFF" height="322.8438" style="stroke:#181818;stroke-width:1.0;" width="10" x="1052" y="269.0313"/><rect fill="#FFFFFF" height="41.3516" style="stroke:#181818;stroke-width:1.0;" width="10" x="1057" y="513.1719"/><rect fill="#FFFFFF" height="309.3281" style="stroke:#181818;stroke-width:1.0;" width="10" x="1052" y="817.4688"/><rect fill="#FFFFFF" height="41.3516" style="stroke:#181818;stroke-width:1.0;" width="10" x="1057" y="1048.0938"/><rect fill="#FFFFFF" height="309.3281" style="stroke:#181818;stroke-width:1.0;" width="10" x="1052" y="1368.7422"/><rect fill="#FFFFFF" height="41.3516" style="stroke:#181818;stroke-width:1.0;" width="10" x="1057" y="1599.3672"/><rect fill="#FFFFFF" height="136.9219" style="stroke:#181818;stroke-width:1.0;" width="10" x="1474" y="312.8984"/><rect fill="#FFFFFF" height="41.3516" style="stroke:#181818;stroke-width:1.0;" width="10" x="1479" y="371.1172"/><rect fill="#FFFFFF" height="136.9219" style="stroke:#181818;stroke-width:1.0;" width="10" x="1474" y="847.8203"/><rect fill="#FFFFFF" height="41.3516" style="stroke:#181818;stroke-width:1.0;" width="10" x="1479" y="906.0391"/><rect fill="#FFFFFF" height="136.9219" style="stroke:#181818;stroke-width:1.0;" width="10" x="1474" y="1399.0938"/><rect fill="#FFFFFF" height="41.3516" style="stroke:#181818;stroke-width:1.0;" width="10" x="1479" y="1457.3125"/><polygon fill="#181818" points="529,132.625,539,136.625,529,140.625,533,136.625" style="stroke:#181818;stroke-width:1.0;"/><line style="stroke:#181818;stroke-width:1.0;" x1="0" x2="535" y1="136.625" y2="136.625"/><text fill="#000000" font-family="sans-serif" font-size="13" font-weight="bold" lengthAdjust="spacing" textLength="14" x="7" y="107.2412">35</text><text fill="#000000" font-family="sans-serif" font-size="13" lengthAdjust="spacing" textLength="504" x="25" y="82.7139">createRequest(agent, agency, ownerEmail, propertyType, businessType, amount, area,</text><text fill="#000000" font-family="sans-serif" font-size="13" lengthAdjust="spacing" textLength="461" x="29" y="99.0654">contractDuration, availableEquipment, streetName, city, district, state, zipCode,</text><text fill="#000000" font-family="sans-serif" font-size="13" lengthAdjust="spacing" textLength="426" x="29" y="115.417">basement, inhabitableLoft, parkingSpace, sunExposure, numberBedroom,</text><text fill="#000000" font-family="sans-serif" font-size="13" lengthAdjust="spacing" textLength="293" x="29" y="131.7686">numberBathroom, distanceCityCenter, photograph)</text><path d="M490.5,151.625 L632.5,151.625 L632.5,159.9766 L622.5,169.9766 L490.5,169.9766 L490.5,151.625 " fill="#EEEEEE" style="stroke:#000000;stroke-width:1.5;"/><rect fill="none" height="1703.1484" style="stroke:#000000;stroke-width:1.5;" width="1201.5" x="490.5" y="151.625"/><text fill="#000000" font-family="sans-serif" font-size="13" font-weight="bold" lengthAdjust="spacing" textLength="97" x="505.5" y="166.1201">Create Request</text><path d="M500.5,201.9766 L561.5,201.9766 L561.5,210.3281 L551.5,220.3281 L500.5,220.3281 L500.5,201.9766 " fill="#EEEEEE" style="stroke:#000000;stroke-width:1.5;"/><rect fill="none" height="1620.7969" style="stroke:#000000;stroke-width:1.5;" width="1181.5" x="500.5" y="201.9766"/><text fill="#000000" font-family="sans-serif" font-size="13" font-weight="bold" lengthAdjust="spacing" textLength="16" x="515.5" y="216.4717">alt</text><text fill="#000000" font-family="sans-serif" font-size="11" font-weight="bold" lengthAdjust="spacing" textLength="125" x="576.5" y="215.3955">[Property Type = Land]</text><polygon fill="#181818" points="1009,255.0313,1019,259.0313,1009,263.0313,1013,259.0313" style="stroke:#181818;stroke-width:1.0;"/><line style="stroke:#181818;stroke-width:1.0;" x1="551" x2="1015" y1="259.0313" y2="259.0313"/><text fill="#000000" font-family="sans-serif" font-size="13" font-weight="bold" lengthAdjust="spacing" textLength="25" x="558" y="245.999">35.1</text><text fill="#000000" font-family="sans-serif" font-size="13" lengthAdjust="spacing" textLength="389" x="587" y="237.8232">createProperty(propertyType, area, streetName, city, district, state,</text><text fill="#000000" font-family="sans-serif" font-size="13" lengthAdjust="spacing" textLength="241" x="591" y="254.1748">zipCode, distanceCityCenter, photograph)</text><rect fill="#E3E3E3" height="49.2188" rx="2.5" ry="2.5" style="stroke:#181818;stroke-width:0.5;" width="72" x="1021" y="220.3281"/><text fill="#000000" font-family="sans-serif" font-size="14" lengthAdjust="spacing" textLength="53" x="1030.5" y="241.8613">property</text><text fill="#000000" font-family="sans-serif" font-size="14" lengthAdjust="spacing" textLength="58" x="1028" y="259.4707">:Property</text><polygon fill="#181818" points="1431,298.8984,1441,302.8984,1431,306.8984,1435,302.8984" style="stroke:#181818;stroke-width:1.0;"/><line style="stroke:#181818;stroke-width:1.0;" x1="1062" x2="1437" y1="302.8984" y2="302.8984"/><text fill="#000000" font-family="sans-serif" font-size="13" font-weight="bold" lengthAdjust="spacing" textLength="25" x="1069" y="298.042">35.2</text><text fill="#000000" font-family="sans-serif" font-size="13" lengthAdjust="spacing" textLength="328" x="1098" y="298.042">createLocation(streetName, city, district, state, zipCode)</text><rect fill="#E3E3E3" height="49.2188" rx="2.5" ry="2.5" style="stroke:#181818;stroke-width:0.5;" width="72" x="1443" y="280.5469"/><text fill="#000000" font-family="sans-serif" font-size="14" lengthAdjust="spacing" textLength="49" x="1454.5" y="302.0801">location</text><text fill="#000000" font-family="sans-serif" font-size="14" lengthAdjust="spacing" textLength="58" x="1450" y="319.6895">:Location</text><line style="stroke:#181818;stroke-width:1.0;" x1="1484" x2="1531" y1="358.1172" y2="358.1172"/><line style="stroke:#181818;stroke-width:1.0;" x1="1531" x2="1531" y1="358.1172" y2="371.1172"/><line style="stroke:#181818;stroke-width:1.0;" x1="1490" x2="1531" y1="371.1172" y2="371.1172"/><polygon fill="#181818" points="1500,367.1172,1490,371.1172,1500,375.1172,1496,371.1172" style="stroke:#181818;stroke-width:1.0;"/><text fill="#000000" font-family="sans-serif" font-size="13" font-weight="bold" lengthAdjust="spacing" textLength="25" x="1496" y="353.2607">35.3</text><text fill="#000000" font-family="sans-serif" font-size="13" lengthAdjust="spacing" textLength="145" x="1525" y="353.2607">validateLocation(location)</text><line style="stroke:#181818;stroke-width:1.0;stroke-dasharray:2.0,2.0;" x1="1489" x2="1531" y1="411.4688" y2="411.4688"/><line style="stroke:#181818;stroke-width:1.0;stroke-dasharray:2.0,2.0;" x1="1531" x2="1531" y1="411.4688" y2="424.4688"/><line style="stroke:#181818;stroke-width:1.0;stroke-dasharray:2.0,2.0;" x1="1484" x2="1531" y1="424.4688" y2="424.4688"/><polygon fill="#181818" points="1494,420.4688,1484,424.4688,1494,428.4688,1490,424.4688" style="stroke:#181818;stroke-width:1.0;"/><text fill="#000000" font-family="sans-serif" font-size="13" font-weight="bold" lengthAdjust="spacing" textLength="25" x="1496" y="406.6123">35.4</text><text fill="#000000" font-family="sans-serif" font-size="13" lengthAdjust="spacing" textLength="4" x="1525" y="406.6123"> </text><polygon fill="#181818" points="1073,445.8203,1063,449.8203,1073,453.8203,1069,449.8203" style="stroke:#181818;stroke-width:1.0;"/><line style="stroke:#181818;stroke-width:1.0;stroke-dasharray:2.0,2.0;" x1="1067" x2="1478" y1="449.8203" y2="449.8203"/><text fill="#000000" font-family="sans-serif" font-size="13" font-weight="bold" lengthAdjust="spacing" textLength="25" x="1079" y="444.9639">35.5</text><text fill="#000000" font-family="sans-serif" font-size="13" lengthAdjust="spacing" textLength="45" x="1108" y="444.9639">location</text><line style="stroke:#181818;stroke-width:1.0;" x1="1062" x2="1109" y1="500.1719" y2="500.1719"/><line style="stroke:#181818;stroke-width:1.0;" x1="1109" x2="1109" y1="500.1719" y2="513.1719"/><line style="stroke:#181818;stroke-width:1.0;" x1="1068" x2="1109" y1="513.1719" y2="513.1719"/><polygon fill="#181818" points="1078,509.1719,1068,513.1719,1078,517.1719,1074,513.1719" style="stroke:#181818;stroke-width:1.0;"/><text fill="#000000" font-family="sans-serif" font-size="13" font-weight="bold" lengthAdjust="spacing" textLength="25" x="1074" y="495.3154">35.6</text><text fill="#000000" font-family="sans-serif" font-size="13" lengthAdjust="spacing" textLength="147" x="1103" y="495.3154">validateProperty(property)</text><line style="stroke:#181818;stroke-width:1.0;stroke-dasharray:2.0,2.0;" x1="1067" x2="1109" y1="553.5234" y2="553.5234"/><line style="stroke:#181818;stroke-width:1.0;stroke-dasharray:2.0,2.0;" x1="1109" x2="1109" y1="553.5234" y2="566.5234"/><line style="stroke:#181818;stroke-width:1.0;stroke-dasharray:2.0,2.0;" x1="1062" x2="1109" y1="566.5234" y2="566.5234"/><polygon fill="#181818" points="1072,562.5234,1062,566.5234,1072,570.5234,1068,566.5234" style="stroke:#181818;stroke-width:1.0;"/><text fill="#000000" font-family="sans-serif" font-size="13" font-weight="bold" lengthAdjust="spacing" textLength="25" x="1074" y="548.667">35.7</text><text fill="#000000" font-family="sans-serif" font-size="13" lengthAdjust="spacing" textLength="4" x="1103" y="548.667"> </text><polygon fill="#181818" points="562,587.875,552,591.875,562,595.875,558,591.875" style="stroke:#181818;stroke-width:1.0;"/><line style="stroke:#181818;stroke-width:1.0;stroke-dasharray:2.0,2.0;" x1="556" x2="1056" y1="591.875" y2="591.875"/><text fill="#000000" font-family="sans-serif" font-size="13" font-weight="bold" lengthAdjust="spacing" textLength="25" x="568" y="587.0186">35.8</text><text fill="#000000" font-family="sans-serif" font-size="13" lengthAdjust="spacing" textLength="47" x="597" y="587.0186">property</text><line style="stroke:#181818;stroke-width:1.0;" x1="551" x2="598" y1="642.2266" y2="642.2266"/><line style="stroke:#181818;stroke-width:1.0;" x1="598" x2="598" y1="642.2266" y2="655.2266"/><line style="stroke:#181818;stroke-width:1.0;" x1="557" x2="598" y1="655.2266" y2="655.2266"/><polygon fill="#181818" points="567,651.2266,557,655.2266,567,659.2266,563,655.2266" style="stroke:#181818;stroke-width:1.0;"/><text fill="#000000" font-family="sans-serif" font-size="13" font-weight="bold" lengthAdjust="spacing" textLength="25" x="563" y="637.3701">35.9</text><text fill="#000000" font-family="sans-serif" font-size="13" lengthAdjust="spacing" textLength="95" x="592" y="637.3701">getCurrentDate()</text><line style="stroke:#181818;stroke-width:1.0;stroke-dasharray:2.0,2.0;" x1="556" x2="598" y1="695.5781" y2="695.5781"/><line style="stroke:#181818;stroke-width:1.0;stroke-dasharray:2.0,2.0;" x1="598" x2="598" y1="695.5781" y2="708.5781"/><line style="stroke:#181818;stroke-width:1.0;stroke-dasharray:2.0,2.0;" x1="551" x2="598" y1="708.5781" y2="708.5781"/><polygon fill="#181818" points="561,704.5781,551,708.5781,561,712.5781,557,708.5781" style="stroke:#181818;stroke-width:1.0;"/><text fill="#000000" font-family="sans-serif" font-size="13" font-weight="bold" lengthAdjust="spacing" textLength="32" x="563" y="690.7217">35.10</text><text fill="#000000" font-family="sans-serif" font-size="13" lengthAdjust="spacing" textLength="4" x="599" y="690.7217"> </text><line style="stroke:#000000;stroke-width:1.0;stroke-dasharray:2.0,2.0;" x1="500.5" x2="1682" y1="737.5781" y2="737.5781"/><text fill="#000000" font-family="sans-serif" font-size="11" font-weight="bold" lengthAdjust="spacing" textLength="157" x="505.5" y="748.9971">[Property Type = Apartment]</text><polygon fill="#181818" points="1009,803.4688,1019,807.4688,1009,811.4688,1013,807.4688" style="stroke:#181818;stroke-width:1.0;"/><line style="stroke:#181818;stroke-width:1.0;" x1="551" x2="1015" y1="807.4688" y2="807.4688"/><text fill="#000000" font-family="sans-serif" font-size="13" font-weight="bold" lengthAdjust="spacing" textLength="25" x="558" y="786.2607">35.1</text><text fill="#000000" font-family="sans-serif" font-size="13" lengthAdjust="spacing" textLength="389" x="587" y="769.9092">createProperty(propertyType, area, streetName, city, district, state,</text><text fill="#000000" font-family="sans-serif" font-size="13" lengthAdjust="spacing" textLength="360" x="591" y="786.2607">zipCode, availableEquipment, parkingSpace, numberBedroom,</text><text fill="#000000" font-family="sans-serif" font-size="13" lengthAdjust="spacing" textLength="293" x="591" y="802.6123">numberBathroom, photograph, distanceCityCenter)</text><rect fill="#E3E3E3" height="49.2188" rx="2.5" ry="2.5" style="stroke:#181818;stroke-width:0.5;" width="72" x="1021" y="755.25"/><text fill="#000000" font-family="sans-serif" font-size="14" lengthAdjust="spacing" textLength="53" x="1030.5" y="776.7832">property</text><text fill="#000000" font-family="sans-serif" font-size="14" lengthAdjust="spacing" textLength="58" x="1028" y="794.3926">:Property</text><polygon fill="#181818" points="1431,833.8203,1441,837.8203,1431,841.8203,1435,837.8203" style="stroke:#181818;stroke-width:1.0;"/><line style="stroke:#181818;stroke-width:1.0;" x1="1062" x2="1437" y1="837.8203" y2="837.8203"/><text fill="#000000" font-family="sans-serif" font-size="13" font-weight="bold" lengthAdjust="spacing" textLength="25" x="1069" y="832.9639">35.2</text><text fill="#000000" font-family="sans-serif" font-size="13" lengthAdjust="spacing" textLength="328" x="1098" y="832.9639">createLocation(streetName, city, district, state, zipCode)</text><rect fill="#E3E3E3" height="49.2188" rx="2.5" ry="2.5" style="stroke:#181818;stroke-width:0.5;" width="72" x="1443" y="815.4688"/><text fill="#000000" font-family="sans-serif" font-size="14" lengthAdjust="spacing" textLength="49" x="1454.5" y="837.002">location</text><text fill="#000000" font-family="sans-serif" font-size="14" lengthAdjust="spacing" textLength="58" x="1450" y="854.6113">:Location</text><line style="stroke:#181818;stroke-width:1.0;" x1="1484" x2="1531" y1="893.0391" y2="893.0391"/><line style="stroke:#181818;stroke-width:1.0;" x1="1531" x2="1531" y1="893.0391" y2="906.0391"/><line style="stroke:#181818;stroke-width:1.0;" x1="1490" x2="1531" y1="906.0391" y2="906.0391"/><polygon fill="#181818" points="1500,902.0391,1490,906.0391,1500,910.0391,1496,906.0391" style="stroke:#181818;stroke-width:1.0;"/><text fill="#000000" font-family="sans-serif" font-size="13" font-weight="bold" lengthAdjust="spacing" textLength="25" x="1496" y="888.1826">35.3</text><text fill="#000000" font-family="sans-serif" font-size="13" lengthAdjust="spacing" textLength="145" x="1525" y="888.1826">validateLocation(location)</text><line style="stroke:#181818;stroke-width:1.0;stroke-dasharray:2.0,2.0;" x1="1489" x2="1531" y1="946.3906" y2="946.3906"/><line style="stroke:#181818;stroke-width:1.0;stroke-dasharray:2.0,2.0;" x1="1531" x2="1531" y1="946.3906" y2="959.3906"/><line style="stroke:#181818;stroke-width:1.0;stroke-dasharray:2.0,2.0;" x1="1484" x2="1531" y1="959.3906" y2="959.3906"/><polygon fill="#181818" points="1494,955.3906,1484,959.3906,1494,963.3906,1490,959.3906" style="stroke:#181818;stroke-width:1.0;"/><text fill="#000000" font-family="sans-serif" font-size="13" font-weight="bold" lengthAdjust="spacing" textLength="25" x="1496" y="941.5342">35.4</text><text fill="#000000" font-family="sans-serif" font-size="13" lengthAdjust="spacing" textLength="4" x="1525" y="941.5342"> </text><polygon fill="#181818" points="1073,980.7422,1063,984.7422,1073,988.7422,1069,984.7422" style="stroke:#181818;stroke-width:1.0;"/><line style="stroke:#181818;stroke-width:1.0;stroke-dasharray:2.0,2.0;" x1="1067" x2="1478" y1="984.7422" y2="984.7422"/><text fill="#000000" font-family="sans-serif" font-size="13" font-weight="bold" lengthAdjust="spacing" textLength="25" x="1079" y="979.8857">35.5</text><text fill="#000000" font-family="sans-serif" font-size="13" lengthAdjust="spacing" textLength="45" x="1108" y="979.8857">location</text><line style="stroke:#181818;stroke-width:1.0;" x1="1062" x2="1109" y1="1035.0938" y2="1035.0938"/><line style="stroke:#181818;stroke-width:1.0;" x1="1109" x2="1109" y1="1035.0938" y2="1048.0938"/><line style="stroke:#181818;stroke-width:1.0;" x1="1068" x2="1109" y1="1048.0938" y2="1048.0938"/><polygon fill="#181818" points="1078,1044.0938,1068,1048.0938,1078,1052.0938,1074,1048.0938" style="stroke:#181818;stroke-width:1.0;"/><text fill="#000000" font-family="sans-serif" font-size="13" font-weight="bold" lengthAdjust="spacing" textLength="25" x="1074" y="1030.2373">35.6</text><text fill="#000000" font-family="sans-serif" font-size="13" lengthAdjust="spacing" textLength="147" x="1103" y="1030.2373">validateProperty(property)</text><line style="stroke:#181818;stroke-width:1.0;stroke-dasharray:2.0,2.0;" x1="1067" x2="1109" y1="1088.4453" y2="1088.4453"/><line style="stroke:#181818;stroke-width:1.0;stroke-dasharray:2.0,2.0;" x1="1109" x2="1109" y1="1088.4453" y2="1101.4453"/><line style="stroke:#181818;stroke-width:1.0;stroke-dasharray:2.0,2.0;" x1="1062" x2="1109" y1="1101.4453" y2="1101.4453"/><polygon fill="#181818" points="1072,1097.4453,1062,1101.4453,1072,1105.4453,1068,1101.4453" style="stroke:#181818;stroke-width:1.0;"/><text fill="#000000" font-family="sans-serif" font-size="13" font-weight="bold" lengthAdjust="spacing" textLength="25" x="1074" y="1083.5889">35.7</text><text fill="#000000" font-family="sans-serif" font-size="13" lengthAdjust="spacing" textLength="4" x="1103" y="1083.5889"> </text><polygon fill="#181818" points="562,1122.7969,552,1126.7969,562,1130.7969,558,1126.7969" style="stroke:#181818;stroke-width:1.0;"/><line style="stroke:#181818;stroke-width:1.0;stroke-dasharray:2.0,2.0;" x1="556" x2="1056" y1="1126.7969" y2="1126.7969"/><text fill="#000000" font-family="sans-serif" font-size="13" font-weight="bold" lengthAdjust="spacing" textLength="25" x="568" y="1121.9404">35.8</text><text fill="#000000" font-family="sans-serif" font-size="13" lengthAdjust="spacing" textLength="47" x="597" y="1121.9404">property</text><line style="stroke:#181818;stroke-width:1.0;" x1="551" x2="598" y1="1177.1484" y2="1177.1484"/><line style="stroke:#181818;stroke-width:1.0;" x1="598" x2="598" y1="1177.1484" y2="1190.1484"/><line style="stroke:#181818;stroke-width:1.0;" x1="557" x2="598" y1="1190.1484" y2="1190.1484"/><polygon fill="#181818" points="567,1186.1484,557,1190.1484,567,1194.1484,563,1190.1484" style="stroke:#181818;stroke-width:1.0;"/><text fill="#000000" font-family="sans-serif" font-size="13" font-weight="bold" lengthAdjust="spacing" textLength="25" x="563" y="1172.292">35.9</text><text fill="#000000" font-family="sans-serif" font-size="13" lengthAdjust="spacing" textLength="95" x="592" y="1172.292">getCurrentDate()</text><line style="stroke:#181818;stroke-width:1.0;stroke-dasharray:2.0,2.0;" x1="556" x2="598" y1="1230.5" y2="1230.5"/><line style="stroke:#181818;stroke-width:1.0;stroke-dasharray:2.0,2.0;" x1="598" x2="598" y1="1230.5" y2="1243.5"/><line style="stroke:#181818;stroke-width:1.0;stroke-dasharray:2.0,2.0;" x1="551" x2="598" y1="1243.5" y2="1243.5"/><polygon fill="#181818" points="561,1239.5,551,1243.5,561,1247.5,557,1243.5" style="stroke:#181818;stroke-width:1.0;"/><text fill="#000000" font-family="sans-serif" font-size="13" font-weight="bold" lengthAdjust="spacing" textLength="32" x="563" y="1225.6436">35.10</text><text fill="#000000" font-family="sans-serif" font-size="13" lengthAdjust="spacing" textLength="4" x="599" y="1225.6436"> </text><line style="stroke:#000000;stroke-width:1.0;stroke-dasharray:2.0,2.0;" x1="500.5" x2="1682" y1="1272.5" y2="1272.5"/><text fill="#000000" font-family="sans-serif" font-size="11" font-weight="bold" lengthAdjust="spacing" textLength="133" x="505.5" y="1283.9189">[Property Type = House]</text><polygon fill="#181818" points="1009,1354.7422,1019,1358.7422,1009,1362.7422,1013,1358.7422" style="stroke:#181818;stroke-width:1.0;"/><line style="stroke:#181818;stroke-width:1.0;" x1="551" x2="1015" y1="1358.7422" y2="1358.7422"/><text fill="#000000" font-family="sans-serif" font-size="13" font-weight="bold" lengthAdjust="spacing" textLength="25" x="558" y="1329.3584">35.1</text><text fill="#000000" font-family="sans-serif" font-size="13" lengthAdjust="spacing" textLength="389" x="587" y="1304.8311">createProperty(propertyType, area, streetName, city, district, state,</text><text fill="#000000" font-family="sans-serif" font-size="13" lengthAdjust="spacing" textLength="413" x="591" y="1321.1826">zipCode, basement, availableEquipment, inhabitableLoft, parkingSpace,</text><text fill="#000000" font-family="sans-serif" font-size="13" lengthAdjust="spacing" textLength="362" x="591" y="1337.5342">sunExposure, numberBedroom, numberBathroom, photograph,</text><text fill="#000000" font-family="sans-serif" font-size="13" lengthAdjust="spacing" textLength="114" x="591" y="1353.8857">distanceCityCenter)</text><rect fill="#E3E3E3" height="49.2188" rx="2.5" ry="2.5" style="stroke:#181818;stroke-width:0.5;" width="72" x="1021" y="1306.5234"/><text fill="#000000" font-family="sans-serif" font-size="14" lengthAdjust="spacing" textLength="53" x="1030.5" y="1328.0566">property</text><text fill="#000000" font-family="sans-serif" font-size="14" lengthAdjust="spacing" textLength="58" x="1028" y="1345.666">:Property</text><polygon fill="#181818" points="1431,1385.0938,1441,1389.0938,1431,1393.0938,1435,1389.0938" style="stroke:#181818;stroke-width:1.0;"/><line style="stroke:#181818;stroke-width:1.0;" x1="1062" x2="1437" y1="1389.0938" y2="1389.0938"/><text fill="#000000" font-family="sans-serif" font-size="13" font-weight="bold" lengthAdjust="spacing" textLength="25" x="1069" y="1384.2373">35.2</text><text fill="#000000" font-family="sans-serif" font-size="13" lengthAdjust="spacing" textLength="328" x="1098" y="1384.2373">createLocation(streetName, city, district, state, zipCode)</text><rect fill="#E3E3E3" height="49.2188" rx="2.5" ry="2.5" style="stroke:#181818;stroke-width:0.5;" width="72" x="1443" y="1366.7422"/><text fill="#000000" font-family="sans-serif" font-size="14" lengthAdjust="spacing" textLength="49" x="1454.5" y="1388.2754">location</text><text fill="#000000" font-family="sans-serif" font-size="14" lengthAdjust="spacing" textLength="58" x="1450" y="1405.8848">:Location</text><line style="stroke:#181818;stroke-width:1.0;" x1="1484" x2="1531" y1="1444.3125" y2="1444.3125"/><line style="stroke:#181818;stroke-width:1.0;" x1="1531" x2="1531" y1="1444.3125" y2="1457.3125"/><line style="stroke:#181818;stroke-width:1.0;" x1="1490" x2="1531" y1="1457.3125" y2="1457.3125"/><polygon fill="#181818" points="1500,1453.3125,1490,1457.3125,1500,1461.3125,1496,1457.3125" style="stroke:#181818;stroke-width:1.0;"/><text fill="#000000" font-family="sans-serif" font-size="13" font-weight="bold" lengthAdjust="spacing" textLength="25" x="1496" y="1439.4561">35.3</text><text fill="#000000" font-family="sans-serif" font-size="13" lengthAdjust="spacing" textLength="145" x="1525" y="1439.4561">validateLocation(location)</text><line style="stroke:#181818;stroke-width:1.0;stroke-dasharray:2.0,2.0;" x1="1489" x2="1531" y1="1497.6641" y2="1497.6641"/><line style="stroke:#181818;stroke-width:1.0;stroke-dasharray:2.0,2.0;" x1="1531" x2="1531" y1="1497.6641" y2="1510.6641"/><line style="stroke:#181818;stroke-width:1.0;stroke-dasharray:2.0,2.0;" x1="1484" x2="1531" y1="1510.6641" y2="1510.6641"/><polygon fill="#181818" points="1494,1506.6641,1484,1510.6641,1494,1514.6641,1490,1510.6641" style="stroke:#181818;stroke-width:1.0;"/><text fill="#000000" font-family="sans-serif" font-size="13" font-weight="bold" lengthAdjust="spacing" textLength="25" x="1496" y="1492.8076">35.4</text><text fill="#000000" font-family="sans-serif" font-size="13" lengthAdjust="spacing" textLength="4" x="1525" y="1492.8076"> </text><polygon fill="#181818" points="1073,1532.0156,1063,1536.0156,1073,1540.0156,1069,1536.0156" style="stroke:#181818;stroke-width:1.0;"/><line style="stroke:#181818;stroke-width:1.0;stroke-dasharray:2.0,2.0;" x1="1067" x2="1478" y1="1536.0156" y2="1536.0156"/><text fill="#000000" font-family="sans-serif" font-size="13" font-weight="bold" lengthAdjust="spacing" textLength="25" x="1079" y="1531.1592">35.5</text><text fill="#000000" font-family="sans-serif" font-size="13" lengthAdjust="spacing" textLength="45" x="1108" y="1531.1592">location</text><line style="stroke:#181818;stroke-width:1.0;" x1="1062" x2="1109" y1="1586.3672" y2="1586.3672"/><line style="stroke:#181818;stroke-width:1.0;" x1="1109" x2="1109" y1="1586.3672" y2="1599.3672"/><line style="stroke:#181818;stroke-width:1.0;" x1="1068" x2="1109" y1="1599.3672" y2="1599.3672"/><polygon fill="#181818" points="1078,1595.3672,1068,1599.3672,1078,1603.3672,1074,1599.3672" style="stroke:#181818;stroke-width:1.0;"/><text fill="#000000" font-family="sans-serif" font-size="13" font-weight="bold" lengthAdjust="spacing" textLength="25" x="1074" y="1581.5107">35.6</text><text fill="#000000" font-family="sans-serif" font-size="13" lengthAdjust="spacing" textLength="147" x="1103" y="1581.5107">validateProperty(property)</text><line style="stroke:#181818;stroke-width:1.0;stroke-dasharray:2.0,2.0;" x1="1067" x2="1109" y1="1639.7188" y2="1639.7188"/><line style="stroke:#181818;stroke-width:1.0;stroke-dasharray:2.0,2.0;" x1="1109" x2="1109" y1="1639.7188" y2="1652.7188"/><line style="stroke:#181818;stroke-width:1.0;stroke-dasharray:2.0,2.0;" x1="1062" x2="1109" y1="1652.7188" y2="1652.7188"/><polygon fill="#181818" points="1072,1648.7188,1062,1652.7188,1072,1656.7188,1068,1652.7188" style="stroke:#181818;stroke-width:1.0;"/><text fill="#000000" font-family="sans-serif" font-size="13" font-weight="bold" lengthAdjust="spacing" textLength="25" x="1074" y="1634.8623">35.7</text><text fill="#000000" font-family="sans-serif" font-size="13" lengthAdjust="spacing" textLength="4" x="1103" y="1634.8623"> </text><polygon fill="#181818" points="562,1674.0703,552,1678.0703,562,1682.0703,558,1678.0703" style="stroke:#181818;stroke-width:1.0;"/><line style="stroke:#181818;stroke-width:1.0;stroke-dasharray:2.0,2.0;" x1="556" x2="1056" y1="1678.0703" y2="1678.0703"/><text fill="#000000" font-family="sans-serif" font-size="13" font-weight="bold" lengthAdjust="spacing" textLength="25" x="568" y="1673.2139">35.8</text><text fill="#000000" font-family="sans-serif" font-size="13" lengthAdjust="spacing" textLength="47" x="597" y="1673.2139">property</text><line style="stroke:#181818;stroke-width:1.0;" x1="551" x2="598" y1="1728.4219" y2="1728.4219"/><line style="stroke:#181818;stroke-width:1.0;" x1="598" x2="598" y1="1728.4219" y2="1741.4219"/><line style="stroke:#181818;stroke-width:1.0;" x1="557" x2="598" y1="1741.4219" y2="1741.4219"/><polygon fill="#181818" points="567,1737.4219,557,1741.4219,567,1745.4219,563,1741.4219" style="stroke:#181818;stroke-width:1.0;"/><text fill="#000000" font-family="sans-serif" font-size="13" font-weight="bold" lengthAdjust="spacing" textLength="25" x="563" y="1723.5654">35.9</text><text fill="#000000" font-family="sans-serif" font-size="13" lengthAdjust="spacing" textLength="95" x="592" y="1723.5654">getCurrentDate()</text><line style="stroke:#181818;stroke-width:1.0;stroke-dasharray:2.0,2.0;" x1="556" x2="598" y1="1781.7734" y2="1781.7734"/><line style="stroke:#181818;stroke-width:1.0;stroke-dasharray:2.0,2.0;" x1="598" x2="598" y1="1781.7734" y2="1794.7734"/><line style="stroke:#181818;stroke-width:1.0;stroke-dasharray:2.0,2.0;" x1="551" x2="598" y1="1794.7734" y2="1794.7734"/><polygon fill="#181818" points="561,1790.7734,551,1794.7734,561,1798.7734,557,1794.7734" style="stroke:#181818;stroke-width:1.0;"/><text fill="#000000" font-family="sans-serif" font-size="13" font-weight="bold" lengthAdjust="spacing" textLength="32" x="563" y="1776.917">35.10</text><text fill="#000000" font-family="sans-serif" font-size="13" lengthAdjust="spacing" textLength="4" x="599" y="1776.917"> </text><polygon fill="#181818" points="11,1880.125,1,1884.125,11,1888.125,7,1884.125" style="stroke:#181818;stroke-width:1.0;"/><line style="stroke:#181818;stroke-width:1.0;stroke-dasharray:2.0,2.0;" x1="5" x2="545" y1="1884.125" y2="1884.125"/><text fill="#000000" font-family="sans-serif" font-size="13" font-weight="bold" lengthAdjust="spacing" textLength="14" x="17" y="1879.2686">36</text><text fill="#000000" font-family="sans-serif" font-size="13" lengthAdjust="spacing" textLength="43" x="35" y="1879.2686">request</text><!--SRC=[xLXRRzCm57xFhx3sr4qT4aBmC07Iw2g1LAsZwnwGzk8cPwcrnCvywIZQZ-SuZHk7XiGj4zh3yjBOFfVlNFmvhhfdlA2IvYGNNCHBAN8WMXg8r7QbeF4zJU5QhpCW4c9DUPhv0cf94_78U4hkQAOWYd1QivWLb6jo9E71WDAt_6osUJiYL97P-FlD-7hU52saA43gDSfULQ-byDLiUZMUpNyqfJCHKyq4H-b9zLfAJwQZy_ctwMKKKQC5D_a297dtFef8zPn-TkxFI2o1QgYG3J1CheV4_iJh8H6F7EGufomR4eTjlYvWI1P6CGvARKOq5wRKGsF3MqvYmRMaiRumieI5AoiqGXSPZ1yCA_BIYz8IG5_I72t4JAE_XE4SYyirH3KalrWn4WbOcmkgOAF7-98kcBRM9k8E9p0hM8lq6Wk5EihmySz2A2Dni8d-2oHIYDoQgIQeNfOpfKlAOnWXW16Q1udsbaABLD9YURpD6KR3LeXfMxZjYdrIAKn1HcKkIPNCfiJJqrDZNDhCD75r9ZQJv1EPK9v4kv9-8T-ytHMeKDdIkcOvEI6klCx9e5d4ibm1PS2qkKBqvci7sKueBf7RfkvJSO8sEDVRNd2kzmVX_TGFSukotamz6axGHuaOLpHZYO_IxTg0L1s4eud50nEacS2_HEvr7uRk8kqrS8ZJjltKqJSUB5UHdKqHLf436lWFD1wSC5KlFmTicfhjCNWNwpur2GSRK1IFg6fKAUYHaHBfv08T3ew3TsSh6NTvzTtkaGBd9oHWm4-07Le_joUtFRvUChUt7TBDixNtEAsFWhQZecM7zNVP_w3_Vlvv7deFuxbm-WvXphtfESHeI-C_4zq6qiuUT1f2PVlIPH0zjYJf8FhhfRiWUckXiyulr5OU-ogClU2yJFwghmXjJDPzRK0x7HU7Bfv3pLUcUsMwLwPxoKpNINGyiLVnsfSlO1VBstszx1FUXthwu-cf5sdrhq_qTqo_0G00]--></g></svg>