<?xml version="1.0" encoding="UTF-8" standalone="no"?><svg xmlns="http://www.w3.org/2000/svg" xmlns:xlink="http://www.w3.org/1999/xlink" contentStyleType="text/css" height="369px" preserveAspectRatio="none" style="width:572px;height:369px;background:#FFFFFF;" version="1.1" viewBox="0 0 572 369" width="572px" zoomAndPan="magnify"><defs/><g><rect fill="#FFFFFF" height="210.1094" style="stroke:#181818;stroke-width:1.0;" width="10" x="173" y="87.5703"/><rect fill="#FFFFFF" height="117.0547" style="stroke:#181818;stroke-width:1.0;" width="10" x="367" y="143.2734"/><rect fill="#FFFFFF" height="41.3516" style="stroke:#181818;stroke-width:1.0;" width="10" x="372" y="181.625"/><rect fill="none" height="165.7578" style="stroke:#000000;stroke-width:1.5;" width="486" x="80" y="102.5703"/><line style="stroke:#181818;stroke-width:0.5;stroke-dasharray:5.0,5.0;" x1="178" x2="178" y1="55.2188" y2="315.6797"/><line style="stroke:#181818;stroke-width:0.5;stroke-dasharray:5.0,5.0;" x1="372" x2="372" y1="55.2188" y2="315.6797"/><rect fill="#E3E3E3" height="31.6094" rx="2.5" ry="2.5" style="stroke:#181818;stroke-width:0.5;" width="176" x="90" y="22.6094"/><text fill="#000000" font-family="sans-serif" font-size="14" lengthAdjust="spacing" textLength="162" x="97" y="44.1426">:CreateRequestController</text><rect fill="#E3E3E3" height="31.6094" rx="2.5" ry="2.5" style="stroke:#181818;stroke-width:0.5;" width="176" x="90" y="314.6797"/><text fill="#000000" font-family="sans-serif" font-size="14" lengthAdjust="spacing" textLength="162" x="97" y="336.2129">:CreateRequestController</text><rect fill="#E3E3E3" height="49.2188" rx="2.5" ry="2.5" style="stroke:#181818;stroke-width:0.5;" width="92" x="326" y="5"/><text fill="#000000" font-family="sans-serif" font-size="14" lengthAdjust="spacing" textLength="73" x="335.5" y="26.5332">photograph</text><text fill="#000000" font-family="sans-serif" font-size="14" lengthAdjust="spacing" textLength="78" x="333" y="44.1426">:Photograph</text><rect fill="#E3E3E3" height="49.2188" rx="2.5" ry="2.5" style="stroke:#181818;stroke-width:0.5;" width="92" x="326" y="314.6797"/><text fill="#000000" font-family="sans-serif" font-size="14" lengthAdjust="spacing" textLength="73" x="335.5" y="336.2129">photograph</text><text fill="#000000" font-family="sans-serif" font-size="14" lengthAdjust="spacing" textLength="78" x="333" y="353.8223">:Photograph</text><rect fill="#FFFFFF" height="210.1094" style="stroke:#181818;stroke-width:1.0;" width="10" x="173" y="87.5703"/><rect fill="#FFFFFF" height="117.0547" style="stroke:#181818;stroke-width:1.0;" width="10" x="367" y="143.2734"/><rect fill="#FFFFFF" height="41.3516" style="stroke:#181818;stroke-width:1.0;" width="10" x="372" y="181.625"/><polygon fill="#181818" points="161,83.5703,171,87.5703,161,91.5703,165,87.5703" style="stroke:#181818;stroke-width:1.0;"/><line style="stroke:#181818;stroke-width:1.0;" x1="0" x2="167" y1="87.5703" y2="87.5703"/><text fill="#000000" font-family="sans-serif" font-size="13" font-weight="bold" lengthAdjust="spacing" textLength="25" x="7" y="82.7139">16.2</text><text fill="#000000" font-family="sans-serif" font-size="13" lengthAdjust="spacing" textLength="125" x="36" y="82.7139">addPhotographUri(uri)</text><path d="M80,102.5703 L250,102.5703 L250,110.9219 L240,120.9219 L80,120.9219 L80,102.5703 " fill="#EEEEEE" style="stroke:#000000;stroke-width:1.5;"/><rect fill="none" height="165.7578" style="stroke:#000000;stroke-width:1.5;" width="486" x="80" y="102.5703"/><text fill="#000000" font-family="sans-serif" font-size="13" font-weight="bold" lengthAdjust="spacing" textLength="125" x="95" y="117.0654">Add Photograph Uri</text><polygon fill="#181818" points="355,139.2734,365,143.2734,355,147.2734,359,143.2734" style="stroke:#181818;stroke-width:1.0;"/><line style="stroke:#181818;stroke-width:1.0;" x1="183" x2="361" y1="143.2734" y2="143.2734"/><text fill="#000000" font-family="sans-serif" font-size="13" font-weight="bold" lengthAdjust="spacing" textLength="36" x="190" y="138.417">16.2.1</text><text fill="#000000" font-family="sans-serif" font-size="13" lengthAdjust="spacing" textLength="125" x="230" y="138.417">addPhotographUri(uri)</text><line style="stroke:#181818;stroke-width:1.0;" x1="377" x2="424" y1="168.625" y2="168.625"/><line style="stroke:#181818;stroke-width:1.0;" x1="424" x2="424" y1="168.625" y2="181.625"/><line style="stroke:#181818;stroke-width:1.0;" x1="383" x2="424" y1="181.625" y2="181.625"/><polygon fill="#181818" points="393,177.625,383,181.625,393,185.625,389,181.625" style="stroke:#181818;stroke-width:1.0;"/><text fill="#000000" font-family="sans-serif" font-size="13" font-weight="bold" lengthAdjust="spacing" textLength="36" x="389" y="163.7686">16.2.2</text><text fill="#000000" font-family="sans-serif" font-size="13" lengthAdjust="spacing" textLength="125" x="429" y="163.7686">addPhotographUri(uri)</text><line style="stroke:#181818;stroke-width:1.0;stroke-dasharray:2.0,2.0;" x1="382" x2="424" y1="221.9766" y2="221.9766"/><line style="stroke:#181818;stroke-width:1.0;stroke-dasharray:2.0,2.0;" x1="424" x2="424" y1="221.9766" y2="234.9766"/><line style="stroke:#181818;stroke-width:1.0;stroke-dasharray:2.0,2.0;" x1="377" x2="424" y1="234.9766" y2="234.9766"/><polygon fill="#181818" points="387,230.9766,377,234.9766,387,238.9766,383,234.9766" style="stroke:#181818;stroke-width:1.0;"/><text fill="#000000" font-family="sans-serif" font-size="13" font-weight="bold" lengthAdjust="spacing" textLength="36" x="389" y="217.1201">16.2.3</text><text fill="#000000" font-family="sans-serif" font-size="13" lengthAdjust="spacing" textLength="64" x="429" y="217.1201">photograph</text><polygon fill="#181818" points="194,256.3281,184,260.3281,194,264.3281,190,260.3281" style="stroke:#181818;stroke-width:1.0;"/><line style="stroke:#181818;stroke-width:1.0;stroke-dasharray:2.0,2.0;" x1="188" x2="371" y1="260.3281" y2="260.3281"/><text fill="#000000" font-family="sans-serif" font-size="13" font-weight="bold" lengthAdjust="spacing" textLength="36" x="200" y="255.4717">16.2.4</text><text fill="#000000" font-family="sans-serif" font-size="13" lengthAdjust="spacing" textLength="64" x="240" y="255.4717">photograph</text><polygon fill="#181818" points="11,293.6797,1,297.6797,11,301.6797,7,297.6797" style="stroke:#181818;stroke-width:1.0;"/><line style="stroke:#181818;stroke-width:1.0;stroke-dasharray:2.0,2.0;" x1="5" x2="177" y1="297.6797" y2="297.6797"/><text fill="#000000" font-family="sans-serif" font-size="13" font-weight="bold" lengthAdjust="spacing" textLength="25" x="17" y="292.8232">16.3</text><text fill="#000000" font-family="sans-serif" font-size="13" lengthAdjust="spacing" textLength="64" x="46" y="292.8232">photograph</text><!--SRC=[hL7DIiD04BxlKmmzrKCALV0GH91SF0WjjTwyZDbnipJPtSxEAhwzQTeciLIauDnslbzcuyQwW8mDDDxvicBV40WdKh570fORDFGiNpK1KodeJ3qcn0gr_xJEm3lMaPHgrs9B6z09JFA22OLMj4qKfV1EsDSryGGmGh5UFVsaXygBDuoXUdNvidzqxENZOhrG2fDubvetOfZVpgvLTj_vG0wezI1vOJjDRAyKbc8_sWhxD0Nj6FOfm8FMCF2X5NJWRauoPdFLGrrMczcr-JMqDpg67yeVztlrVzcCV8O3zYHDVyiF5xn8VHuXfq__w4RTPTcPY9713lm6]--></g></svg>