<?xml version="1.0" encoding="UTF-8" standalone="no"?><svg xmlns="http://www.w3.org/2000/svg" xmlns:xlink="http://www.w3.org/1999/xlink" contentStyleType="text/css" height="1202px" preserveAspectRatio="none" style="width:655px;height:1202px;background:#FFFFFF;" version="1.1" viewBox="0 0 655 1202" width="655px" zoomAndPan="magnify"><defs/><g><text fill="#000000" font-family="sans-serif" font-size="14" font-weight="bold" lengthAdjust="spacing" textLength="156" x="242.75" y="24.5332">Domain Model - US002</text><!--class Announcement--><g id="elem_Announcement"><rect codeLine="15" fill="#F1F1F1" height="70.8281" id="Announcement" rx="2.5" ry="2.5" style="stroke:#181818;stroke-width:0.5;" width="135" x="261" y="493.6094"/><text fill="#000000" font-family="sans-serif" font-size="14" lengthAdjust="spacing" textLength="95" x="281" y="513.1426">Announcement</text><line style="stroke:#181818;stroke-width:0.5;" x1="262" x2="395" y1="521.2188" y2="521.2188"/><text fill="#000000" font-family="sans-serif" font-size="14" lengthAdjust="spacing" textLength="103" x="267" y="539.752">typeCommission</text><text fill="#000000" font-family="sans-serif" font-size="14" lengthAdjust="spacing" textLength="123" x="267" y="557.3613">amountCommission</text></g><!--class Property--><g id="elem_Property"><rect codeLine="19" fill="#F1F1F1" height="70.8281" id="Property" rx="2.5" ry="2.5" style="stroke:#181818;stroke-width:0.5;" width="132" x="337.5" y="642.6094"/><text fill="#000000" font-family="sans-serif" font-size="14" lengthAdjust="spacing" textLength="54" x="376.5" y="662.1426">Property</text><line style="stroke:#181818;stroke-width:0.5;" x1="338.5" x2="468.5" y1="670.2188" y2="670.2188"/><text fill="#000000" font-family="sans-serif" font-size="14" lengthAdjust="spacing" textLength="29" x="343.5" y="688.752">area</text><text fill="#000000" font-family="sans-serif" font-size="14" lengthAdjust="spacing" textLength="120" x="343.5" y="706.3613">distanceCityCenter</text></g><!--class Residence--><g id="elem_Residence"><rect codeLine="24" fill="#F1F1F1" height="88.4375" id="Residence" rx="2.5" ry="2.5" style="stroke:#181818;stroke-width:0.5;" width="128" x="134.5" y="809.6094"/><text fill="#000000" font-family="sans-serif" font-size="14" lengthAdjust="spacing" textLength="67" x="165" y="829.1426">Residence</text><line style="stroke:#181818;stroke-width:0.5;" x1="135.5" x2="261.5" y1="837.2188" y2="837.2188"/><text fill="#000000" font-family="sans-serif" font-size="14" lengthAdjust="spacing" textLength="112" x="140.5" y="855.752">numberBedrooms</text><text fill="#000000" font-family="sans-serif" font-size="14" lengthAdjust="spacing" textLength="116" x="140.5" y="873.3613">numberBathrooms</text><text fill="#000000" font-family="sans-serif" font-size="14" lengthAdjust="spacing" textLength="87" x="140.5" y="890.9707">parkingSpace</text></g><!--class House--><g id="elem_House"><rect codeLine="29" fill="#F1F1F1" height="88.4375" id="House" rx="2.5" ry="2.5" style="stroke:#181818;stroke-width:0.5;" width="105" x="7" y="993.6094"/><text fill="#000000" font-family="sans-serif" font-size="14" lengthAdjust="spacing" textLength="40" x="39.5" y="1013.1426">House</text><line style="stroke:#181818;stroke-width:0.5;" x1="8" x2="111" y1="1021.2188" y2="1021.2188"/><text fill="#000000" font-family="sans-serif" font-size="14" lengthAdjust="spacing" textLength="62" x="13" y="1039.752">basement</text><text fill="#000000" font-family="sans-serif" font-size="14" lengthAdjust="spacing" textLength="93" x="13" y="1057.3613">inhabitableLoft</text><text fill="#000000" font-family="sans-serif" font-size="14" lengthAdjust="spacing" textLength="82" x="13" y="1074.9707">sunExposure</text></g><!--class TypeProperty--><g id="elem_TypeProperty"><rect codeLine="34" fill="#F1F1F1" height="53.2188" id="TypeProperty" rx="2.5" ry="2.5" style="stroke:#181818;stroke-width:0.5;" width="92" x="431.5" y="502.6094"/><text fill="#000000" font-family="sans-serif" font-size="14" lengthAdjust="spacing" textLength="86" x="434.5" y="522.1426">TypeProperty</text><line style="stroke:#181818;stroke-width:0.5;" x1="432.5" x2="522.5" y1="530.2188" y2="530.2188"/><text fill="#000000" font-family="sans-serif" font-size="14" lengthAdjust="spacing" textLength="73" x="437.5" y="548.752">designation</text></g><!--class TypeResidence--><g id="elem_TypeResidence"><rect codeLine="37" fill="#F1F1F1" height="53.2188" id="TypeResidence" rx="2.5" ry="2.5" style="stroke:#181818;stroke-width:0.5;" width="105" x="130" y="1142.6094"/><text fill="#000000" font-family="sans-serif" font-size="14" lengthAdjust="spacing" textLength="99" x="133" y="1162.1426">TypeResidence</text><line style="stroke:#181818;stroke-width:0.5;" x1="131" x2="234" y1="1170.2188" y2="1170.2188"/><text fill="#000000" font-family="sans-serif" font-size="14" lengthAdjust="spacing" textLength="73" x="136" y="1188.752">designation</text></g><!--class Photograph--><g id="elem_Photograph"><rect codeLine="40" fill="#F1F1F1" height="53.2188" id="Photograph" rx="2.5" ry="2.5" style="stroke:#181818;stroke-width:0.5;" width="80" x="568.5" y="651.6094"/><text fill="#000000" font-family="sans-serif" font-size="14" lengthAdjust="spacing" textLength="74" x="571.5" y="671.1426">Photograph</text><line style="stroke:#181818;stroke-width:0.5;" x1="569.5" x2="647.5" y1="679.2188" y2="679.2188"/><text fill="#000000" font-family="sans-serif" font-size="14" lengthAdjust="spacing" textLength="16" x="574.5" y="697.752">url</text></g><!--class Location--><g id="elem_Location"><rect codeLine="43" fill="#F1F1F1" height="123.6563" id="Location" rx="2.5" ry="2.5" style="stroke:#181818;stroke-width:0.5;" width="84" x="361.5" y="791.6094"/><text fill="#000000" font-family="sans-serif" font-size="14" lengthAdjust="spacing" textLength="54" x="376.5" y="811.1426">Location</text><line style="stroke:#181818;stroke-width:0.5;" x1="362.5" x2="444.5" y1="819.2188" y2="819.2188"/><text fill="#000000" font-family="sans-serif" font-size="14" lengthAdjust="spacing" textLength="72" x="367.5" y="837.752">streetName</text><text fill="#000000" font-family="sans-serif" font-size="14" lengthAdjust="spacing" textLength="21" x="367.5" y="855.3613">city</text><text fill="#000000" font-family="sans-serif" font-size="14" lengthAdjust="spacing" textLength="41" x="367.5" y="872.9707">district</text><text fill="#000000" font-family="sans-serif" font-size="14" lengthAdjust="spacing" textLength="31" x="367.5" y="890.5801">state</text><text fill="#000000" font-family="sans-serif" font-size="14" lengthAdjust="spacing" textLength="51" x="367.5" y="908.1895">zipCode</text></g><!--class Price--><g id="elem_Price"><rect codeLine="50" fill="#F1F1F1" height="53.2188" id="Price" rx="2.5" ry="2.5" style="stroke:#181818;stroke-width:0.5;" width="59" x="513" y="827.1094"/><text fill="#000000" font-family="sans-serif" font-size="14" lengthAdjust="spacing" textLength="32" x="526.5" y="846.6426">Price</text><line style="stroke:#181818;stroke-width:0.5;" x1="514" x2="571" y1="854.7188" y2="854.7188"/><text fill="#000000" font-family="sans-serif" font-size="14" lengthAdjust="spacing" textLength="47" x="519" y="873.252">amount</text></g><!--class Lease--><g id="elem_Lease"><rect codeLine="53" fill="#F1F1F1" height="53.2188" id="Lease" rx="2.5" ry="2.5" style="stroke:#181818;stroke-width:0.5;" width="117" x="500" y="1011.1094"/><text fill="#000000" font-family="sans-serif" font-size="14" lengthAdjust="spacing" textLength="39" x="539" y="1030.6426">Lease</text><line style="stroke:#181818;stroke-width:0.5;" x1="501" x2="616" y1="1038.7188" y2="1038.7188"/><text fill="#000000" font-family="sans-serif" font-size="14" lengthAdjust="spacing" textLength="105" x="506" y="1057.252">contractDuration</text></g><!--class Agent--><g id="elem_Agent"><rect codeLine="56" fill="#F1F1F1" height="35.6094" id="Agent" rx="2.5" ry="2.5" style="stroke:#181818;stroke-width:0.5;" width="43" x="307" y="379.6094"/><text fill="#000000" font-family="sans-serif" font-size="14" lengthAdjust="spacing" textLength="37" x="310" y="399.1426">Agent</text><line style="stroke:#181818;stroke-width:0.5;" x1="308" x2="349" y1="407.2188" y2="407.2188"/></g><!--class AvailableEquipment--><g id="elem_AvailableEquipment"><rect codeLine="58" fill="#F1F1F1" height="53.2188" id="AvailableEquipment" rx="2.5" ry="2.5" style="stroke:#181818;stroke-width:0.5;" width="130" x="334.5" y="1011.1094"/><text fill="#000000" font-family="sans-serif" font-size="14" lengthAdjust="spacing" textLength="124" x="337.5" y="1030.6426">AvailableEquipment</text><line style="stroke:#181818;stroke-width:0.5;" x1="335.5" x2="463.5" y1="1038.7188" y2="1038.7188"/><text fill="#000000" font-family="sans-serif" font-size="14" lengthAdjust="spacing" textLength="69" x="340.5" y="1057.252">description</text></g><!--class Agency--><g id="elem_Agency"><rect codeLine="61" fill="#F1F1F1" height="88.4375" id="Agency" rx="2.5" ry="2.5" style="stroke:#181818;stroke-width:0.5;" width="107" x="460" y="230.6094"/><text fill="#000000" font-family="sans-serif" font-size="14" lengthAdjust="spacing" textLength="47" x="490" y="250.1426">Agency</text><line style="stroke:#181818;stroke-width:0.5;" x1="461" x2="566" y1="258.2188" y2="258.2188"/><text fill="#000000" font-family="sans-serif" font-size="14" lengthAdjust="spacing" textLength="73" x="466" y="276.752">designation</text><text fill="#000000" font-family="sans-serif" font-size="14" lengthAdjust="spacing" textLength="85" x="466" y="294.3613">emailAddress</text><text fill="#000000" font-family="sans-serif" font-size="14" lengthAdjust="spacing" textLength="95" x="466" y="311.9707">contactNumber</text></g><!--class Employee--><g id="elem_Employee"><rect codeLine="67" fill="#F1F1F1" height="35.6094" id="Employee" rx="2.5" ry="2.5" style="stroke:#181818;stroke-width:0.5;" width="68" x="294.5" y="256.6094"/><text fill="#000000" font-family="sans-serif" font-size="14" lengthAdjust="spacing" textLength="62" x="297.5" y="276.1426">Employee</text><line style="stroke:#181818;stroke-width:0.5;" x1="295.5" x2="361.5" y1="284.2188" y2="284.2188"/></g><!--class Person--><g id="elem_Person"><rect codeLine="70" fill="#F1F1F1" height="123.6563" id="Person" rx="2.5" ry="2.5" style="stroke:#181818;stroke-width:0.5;" width="131" x="263" y="45.6094"/><text fill="#000000" font-family="sans-serif" font-size="14" lengthAdjust="spacing" textLength="45" x="306" y="65.1426">Person</text><line style="stroke:#181818;stroke-width:0.5;" x1="264" x2="393" y1="73.2188" y2="73.2188"/><text fill="#000000" font-family="sans-serif" font-size="14" lengthAdjust="spacing" textLength="35" x="269" y="91.752">name</text><text fill="#000000" font-family="sans-serif" font-size="14" lengthAdjust="spacing" textLength="119" x="269" y="109.3613">citizenCardNumber</text><text fill="#000000" font-family="sans-serif" font-size="14" lengthAdjust="spacing" textLength="67" x="269" y="126.9707">taxNumber</text><text fill="#000000" font-family="sans-serif" font-size="14" lengthAdjust="spacing" textLength="85" x="269" y="144.5801">emailAddress</text><text fill="#000000" font-family="sans-serif" font-size="14" lengthAdjust="spacing" textLength="95" x="269" y="162.1895">contactNumber</text></g><!--reverse link Employee to Agent--><g id="link_Employee_Agent"><path codeLine="78" d="M328.5,312.9794 C328.5,335.0694 328.5,361.9994 328.5,379.2294 " fill="none" id="Employee-backto-Agent" style="stroke:#181818;stroke-width:1.0;"/><polygon fill="none" points="321.5,312.6894,328.5,292.6894,335.5,312.6894,321.5,312.6894" style="stroke:#181818;stroke-width:1.0;"/></g><!--reverse link Person to Employee--><g id="link_Person_Employee"><path codeLine="79" d="M328.5,190.4094 C328.5,215.4594 328.5,240.5994 328.5,256.5894 " fill="none" id="Person-backto-Employee" style="stroke:#181818;stroke-width:1.0;"/><polygon fill="none" points="321.5,190.0494,328.5,170.0494,335.5,190.0494,321.5,190.0494" style="stroke:#181818;stroke-width:1.0;"/></g><!--link Employee to Agency--><g id="link_Employee_Agency"><path codeLine="80" d="M362.86,274.6094 C390.03,274.6094 428.45,274.6094 459.69,274.6094 " fill="none" id="Employee-Agency" style="stroke:#181818;stroke-width:1.0;"/><polygon fill="#000000" points="389.75,262.7852,380.7049,259.8462,380.7049,265.7241,389.75,262.7852" style="stroke:#000000;stroke-width:1.0;"/><text fill="#000000" font-family="sans-serif" font-size="13" lengthAdjust="spacing" textLength="48" x="393.75" y="268.1045">works in</text><text fill="#000000" font-family="sans-serif" font-size="13" lengthAdjust="spacing" textLength="7" x="370.6686" y="270.531">1</text><text fill="#000000" font-family="sans-serif" font-size="13" lengthAdjust="spacing" textLength="7" x="444.989" y="271.0237">1</text></g><!--link Agent to Announcement--><g id="link_Agent_Announcement"><path codeLine="81" d="M328.5,415.8094 C328.5,435.5494 328.5,468.4494 328.5,493.5494 " fill="none" id="Agent-Announcement" style="stroke:#181818;stroke-width:1.0;"/><polygon fill="#000000" points="333.5,459.7852,336.4389,450.7401,330.5611,450.7401,333.5,459.7852" style="stroke:#000000;stroke-width:1.0;"/><text fill="#000000" font-family="sans-serif" font-size="13" lengthAdjust="spacing" textLength="55" x="342.5" y="460.1045">publishes</text><text fill="#000000" font-family="sans-serif" font-size="13" lengthAdjust="spacing" textLength="7" x="320.5156" y="436.7776">1</text><text fill="#000000" font-family="sans-serif" font-size="13" lengthAdjust="spacing" textLength="5" x="323.0234" y="482.7908">*</text></g><!--link Announcement to Property--><g id="link_Announcement_Property"><path codeLine="82" d="M341.82,564.7694 C347.92,579.7294 355.55,597.2794 363.5,612.6094 C368.65,622.5494 374.79,633.0094 380.7,642.5294 " fill="none" id="Announcement-Property" style="stroke:#181818;stroke-width:1.0;"/><polygon fill="#000000" points="370.7361,608.2573,369.3196,598.8528,364.0623,601.4815,370.7361,608.2573" style="stroke:#000000;stroke-width:1.0;"/><text fill="#000000" font-family="sans-serif" font-size="13" lengthAdjust="spacing" textLength="49" x="377.5" y="609.1045">contains</text><text fill="#000000" font-family="sans-serif" font-size="13" lengthAdjust="spacing" textLength="7" x="336.5078" y="585.8135">1</text><text fill="#000000" font-family="sans-serif" font-size="13" lengthAdjust="spacing" textLength="7" x="368.6866" y="631.7669">1</text></g><!--link TypeProperty to Property--><g id="link_TypeProperty_Property"><path codeLine="83" d="M464.61,555.7194 C452.52,579.7294 434.34,615.8394 420.95,642.4394 " fill="none" id="TypeProperty-Property" style="stroke:#181818;stroke-width:1.0;"/><polygon fill="#000000" points="447.2516,608.2511,453.944,601.4937,448.694,598.8505,447.2516,608.2511" style="stroke:#000000;stroke-width:1.0;"/><text fill="#000000" font-family="sans-serif" font-size="13" lengthAdjust="spacing" textLength="102" x="458.5" y="609.1045">is a description of</text><text fill="#000000" font-family="sans-serif" font-size="13" lengthAdjust="spacing" textLength="7" x="453.8198" y="577.2334">1</text><text fill="#000000" font-family="sans-serif" font-size="13" lengthAdjust="spacing" textLength="7" x="416.6092" y="631.6598">1</text></g><!--reverse link Property to Residence--><g id="link_Property_Residence"><path codeLine="84" d="M346.84,727.0694 C316.39,752.8294 279.15,784.3494 249.6,809.3594 " fill="none" id="Property-backto-Residence" style="stroke:#181818;stroke-width:1.0;"/><polygon fill="none" points="342.72,721.3794,362.51,713.7994,351.76,732.0694,342.72,721.3794" style="stroke:#181818;stroke-width:1.0;"/></g><!--link Residence to TypeResidence--><g id="link_Residence_TypeResidence"><path codeLine="85" d="M196.29,897.8694 C192.91,964.0494 186.57,1088.4094 183.82,1142.2094 " fill="none" id="Residence-TypeResidence" style="stroke:#181818;stroke-width:1.0;"/><polygon fill="#000000" points="196.7548,1032.7917,193.3587,1041.6752,199.2289,1041.9748,196.7548,1032.7917" style="stroke:#000000;stroke-width:1.0;"/><text fill="#000000" font-family="sans-serif" font-size="13" lengthAdjust="spacing" textLength="102" x="205.5" y="1043.1045">is a description of</text><text fill="#000000" font-family="sans-serif" font-size="13" lengthAdjust="spacing" textLength="7" x="188.38" y="919.6866">1</text><text fill="#000000" font-family="sans-serif" font-size="13" lengthAdjust="spacing" textLength="7" x="176.3159" y="1131.6492">1</text></g><!--reverse link Residence to House--><g id="link_Residence_House"><path codeLine="86" d="M153.35,913.7194 C133.51,939.6994 110.64,969.6494 92.45,993.4694 " fill="none" id="Residence-backto-House" style="stroke:#181818;stroke-width:1.0;"/><polygon fill="none" points="147.86,909.3894,165.56,897.7394,158.98,917.8794,147.86,909.3894" style="stroke:#181818;stroke-width:1.0;"/></g><!--link Property to Photograph--><g id="link_Property_Photograph"><path codeLine="87" d="M469.77,678.1094 C502.29,678.1094 540.4,678.1094 568.43,678.1094 " fill="none" id="Property-Photograph" style="stroke:#181818;stroke-width:1.0;"/><polygon fill="#000000" points="497,666.2852,487.9549,663.3462,487.9549,669.2241,497,666.2852" style="stroke:#000000;stroke-width:1.0;"/><text fill="#000000" font-family="sans-serif" font-size="13" lengthAdjust="spacing" textLength="49" x="501" y="671.6045">contains</text><text fill="#000000" font-family="sans-serif" font-size="13" lengthAdjust="spacing" textLength="7" x="477.4011" y="674.7581">1</text><text fill="#000000" font-family="sans-serif" font-size="13" lengthAdjust="spacing" textLength="5" x="555.5812" y="674.1417">*</text></g><!--link Property to Location--><g id="link_Property_Location"><path codeLine="88" d="M403.5,713.7994 C403.5,735.9494 403.5,765.2894 403.5,791.2894 " fill="none" id="Property-Location" style="stroke:#181818;stroke-width:1.0;"/><polygon fill="#000000" points="408.5,757.7852,411.4389,748.7401,405.5611,748.7401,408.5,757.7852" style="stroke:#000000;stroke-width:1.0;"/><text fill="#000000" font-family="sans-serif" font-size="13" lengthAdjust="spacing" textLength="49" x="417.5" y="758.1045">contains</text><text fill="#000000" font-family="sans-serif" font-size="13" lengthAdjust="spacing" textLength="7" x="395.8984" y="734.8487">1</text><text fill="#000000" font-family="sans-serif" font-size="13" lengthAdjust="spacing" textLength="7" x="396.0953" y="780.6939">1</text></g><!--link Property to Price--><g id="link_Property_Price"><path codeLine="89" d="M446.22,713.6994 C456.38,722.8894 466.79,733.1794 475.5,743.6094 C497.42,769.8694 517.22,803.9794 529.51,826.9894 " fill="none" id="Property-Price" style="stroke:#181818;stroke-width:1.0;"/><polygon fill="#000000" points="495.4617,756.8136,492.4718,747.7852,487.7361,751.2669,495.4617,756.8136" style="stroke:#000000;stroke-width:1.0;"/><text fill="#000000" font-family="sans-serif" font-size="13" lengthAdjust="spacing" textLength="49" x="501.5" y="758.1045">contains</text><text fill="#000000" font-family="sans-serif" font-size="13" lengthAdjust="spacing" textLength="7" x="446.2061" y="735.0056">1</text><text fill="#000000" font-family="sans-serif" font-size="13" lengthAdjust="spacing" textLength="7" x="518.4906" y="816.0621">1</text></g><!--reverse link Price to Lease--><g id="link_Price_Lease"><path codeLine="90" d="M546.52,900.2794 C549.6,935.3194 553.73,982.3794 556.25,1011.0494 " fill="none" id="Price-backto-Lease" style="stroke:#181818;stroke-width:1.0;"/><polygon fill="none" points="539.54,900.8394,544.76,880.2994,553.48,899.6094,539.54,900.8394" style="stroke:#181818;stroke-width:1.0;"/></g><!--link Residence to AvailableEquipment--><g id="link_Residence_AvailableEquipment"><path codeLine="91" d="M246.13,897.7394 C285.02,932.9594 338.68,981.5394 371.13,1010.9194 " fill="none" id="Residence-AvailableEquipment" style="stroke:#181818;stroke-width:1.0;"/><polygon fill="#000000" points="326.2064,958.1411,321.474,949.8916,317.5289,954.2487,326.2064,958.1411" style="stroke:#000000;stroke-width:1.0;"/><text fill="#000000" font-family="sans-serif" font-size="13" lengthAdjust="spacing" textLength="49" x="331.5" y="960.1045">contains</text><text fill="#000000" font-family="sans-serif" font-size="13" lengthAdjust="spacing" textLength="7" x="246.1632" y="919.5359">1</text><text fill="#000000" font-family="sans-serif" font-size="13" lengthAdjust="spacing" textLength="5" x="358.9913" y="1000.4078">*</text></g><!--SRC=[VLDTRzim37pNho3wCc20WMoFnL0WImjiG5SKo_O369cnXLYI9z5hqtJ_VPJYpxNTIs9JT-GTTOu7ureCQC5wvtKTl2NWq96AuqcB-e0LRVdO40JIZAvgve1OO-aVZAjWZqqafTurj6TW3y5KDKDf4ijufsOatM2CQ-PWTXtJL-tTrZmHh9IgJKcWJT0o93zRujgNKIasB1AklKNZu9ilgO42VcvNguzAgTmGrixvpccov1XE2lZOqiPRQs9C0W2j7FEiygSdtWVVKk2ZS30GAb4TnQccZU7ZHhfH46mF_avHXCcXe5rdTnG-Kncyjt5yHwxxWlWLrzLMzaZZk2- -YuczmvYrAZ2knfrXt3Lqw_TIY9sxUMnzxC94-o5s9gMboAWSyjn7GipalGQvhptxAc1RdrGNch5-wtK6dbJaGCHtQ4bfiQ_IBeBHB0V8f9vCkv7jptPdqgppRgTsXCcYt2m7r7pTXQMCTNM-e_7zDvecsR_vrPasBINBry6qBtZw24jl99bercKPACOyKYRUvPkORkt6jeq_4kMPWtGACJbslLV9eDjWA7ikusF_zFy1PozGT6tnV3KEKkVk09-UYmAcyYZauiE593ZzdarTmeCFXoXP0BZgcsQCWDvVBC9z2MstQqoiAIReFFO3G_w6h5n2bcnS0iz3z3hOH42OxHxyNdXZh0QV0q4jGjUt54X-6kjljSsVmj1oHAkbmkn_2kx2pnnP50a-9FbDs6JP964Bb5JE5vO3hFxrbPIyZEgYnry0]--></g></svg>