<?xml version="1.0" encoding="UTF-8" standalone="no"?><svg xmlns="http://www.w3.org/2000/svg" xmlns:xlink="http://www.w3.org/1999/xlink" contentStyleType="text/css" height="736px" preserveAspectRatio="none" style="width:866px;height:736px;background:#FFFFFF;" version="1.1" viewBox="0 0 866 736" width="866px" zoomAndPan="magnify"><defs/><g><text fill="#000000" font-family="sans-serif" font-size="14" font-weight="bold" lengthAdjust="spacing" textLength="156" x="348.25" y="24.5332">Domain Model - US008</text><!--class Announcement--><g id="elem_Announcement"><rect codeLine="33" fill="#F1F1F1" height="70.8281" id="Announcement" rx="2.5" ry="2.5" style="stroke:#181818;stroke-width:0.5;" width="115" x="84" y="176.6094"/><text fill="#000000" font-family="sans-serif" font-size="14" lengthAdjust="spacing" textLength="95" x="94" y="196.1426">Announcement</text><line style="stroke:#181818;stroke-width:0.5;" x1="85" x2="198" y1="204.2188" y2="204.2188"/><text fill="#000000" font-family="sans-serif" font-size="14" lengthAdjust="spacing" textLength="11" x="90" y="222.752">id</text><text fill="#000000" font-family="sans-serif" font-size="14" lengthAdjust="spacing" textLength="103" x="90" y="240.3613">acceptanceDate</text></g><!--class Agent--><g id="elem_Agent"><rect codeLine="38" fill="#F1F1F1" height="35.6094" id="Agent" rx="2.5" ry="2.5" style="stroke:#181818;stroke-width:0.5;" width="43" x="120" y="54.1094"/><text fill="#000000" font-family="sans-serif" font-size="14" lengthAdjust="spacing" textLength="37" x="123" y="73.6426">Agent</text><line style="stroke:#181818;stroke-width:0.5;" x1="121" x2="162" y1="81.7188" y2="81.7188"/></g><!--class Property--><g id="elem_Property"><rect codeLine="41" fill="#F1F1F1" height="70.8281" id="Property" rx="2.5" ry="2.5" style="stroke:#181818;stroke-width:0.5;" width="132" x="453.5" y="176.6094"/><text fill="#000000" font-family="sans-serif" font-size="14" lengthAdjust="spacing" textLength="54" x="492.5" y="196.1426">Property</text><line style="stroke:#181818;stroke-width:0.5;" x1="454.5" x2="584.5" y1="204.2188" y2="204.2188"/><text fill="#000000" font-family="sans-serif" font-size="14" lengthAdjust="spacing" textLength="29" x="459.5" y="222.752">area</text><text fill="#000000" font-family="sans-serif" font-size="14" lengthAdjust="spacing" textLength="120" x="459.5" y="240.3613">distanceCityCenter</text></g><!--class Residence--><g id="elem_Residence"><rect codeLine="46" fill="#F1F1F1" height="88.4375" id="Residence" rx="2.5" ry="2.5" style="stroke:#181818;stroke-width:0.5;" width="128" x="596.5" y="343.6094"/><text fill="#000000" font-family="sans-serif" font-size="14" lengthAdjust="spacing" textLength="67" x="627" y="363.1426">Residence</text><line style="stroke:#181818;stroke-width:0.5;" x1="597.5" x2="723.5" y1="371.2188" y2="371.2188"/><text fill="#000000" font-family="sans-serif" font-size="14" lengthAdjust="spacing" textLength="112" x="602.5" y="389.752">numberBedrooms</text><text fill="#000000" font-family="sans-serif" font-size="14" lengthAdjust="spacing" textLength="116" x="602.5" y="407.3613">numberBathrooms</text><text fill="#000000" font-family="sans-serif" font-size="14" lengthAdjust="spacing" textLength="87" x="602.5" y="424.9707">parkingSpace</text></g><!--class AvailableEquipment--><g id="elem_AvailableEquipment"><rect codeLine="52" fill="#F1F1F1" height="53.2188" id="AvailableEquipment" rx="2.5" ry="2.5" style="stroke:#181818;stroke-width:0.5;" width="130" x="442.5" y="545.1094"/><text fill="#000000" font-family="sans-serif" font-size="14" lengthAdjust="spacing" textLength="124" x="445.5" y="564.6426">AvailableEquipment</text><line style="stroke:#181818;stroke-width:0.5;" x1="443.5" x2="571.5" y1="572.7188" y2="572.7188"/><text fill="#000000" font-family="sans-serif" font-size="14" lengthAdjust="spacing" textLength="69" x="448.5" y="591.252">description</text></g><!--class House--><g id="elem_House"><rect codeLine="56" fill="#F1F1F1" height="88.4375" id="House" rx="2.5" ry="2.5" style="stroke:#181818;stroke-width:0.5;" width="105" x="608" y="527.6094"/><text fill="#000000" font-family="sans-serif" font-size="14" lengthAdjust="spacing" textLength="40" x="640.5" y="547.1426">House</text><line style="stroke:#181818;stroke-width:0.5;" x1="609" x2="712" y1="555.2188" y2="555.2188"/><text fill="#000000" font-family="sans-serif" font-size="14" lengthAdjust="spacing" textLength="62" x="614" y="573.752">basement</text><text fill="#000000" font-family="sans-serif" font-size="14" lengthAdjust="spacing" textLength="93" x="614" y="591.3613">inhabitableLoft</text><text fill="#000000" font-family="sans-serif" font-size="14" lengthAdjust="spacing" textLength="82" x="614" y="608.9707">sunExposure</text></g><!--class PropertyType--><g id="elem_PropertyType"><rect codeLine="62" fill="#F1F1F1" height="53.2188" id="PropertyType" rx="2.5" ry="2.5" style="stroke:#181818;stroke-width:0.5;" width="92" x="473.5" y="45.6094"/><text fill="#000000" font-family="sans-serif" font-size="14" lengthAdjust="spacing" textLength="86" x="476.5" y="65.1426">PropertyType</text><line style="stroke:#181818;stroke-width:0.5;" x1="474.5" x2="564.5" y1="73.2188" y2="73.2188"/><text fill="#000000" font-family="sans-serif" font-size="14" lengthAdjust="spacing" textLength="73" x="479.5" y="91.752">designation</text></g><!--class ResidenceType--><g id="elem_ResidenceType"><rect codeLine="66" fill="#F1F1F1" height="53.2188" id="ResidenceType" rx="2.5" ry="2.5" style="stroke:#181818;stroke-width:0.5;" width="105" x="748" y="545.1094"/><text fill="#000000" font-family="sans-serif" font-size="14" lengthAdjust="spacing" textLength="99" x="751" y="564.6426">ResidenceType</text><line style="stroke:#181818;stroke-width:0.5;" x1="749" x2="852" y1="572.7188" y2="572.7188"/><text fill="#000000" font-family="sans-serif" font-size="14" lengthAdjust="spacing" textLength="73" x="754" y="591.252">designation</text></g><!--class Photograph--><g id="elem_Photograph"><rect codeLine="70" fill="#F1F1F1" height="53.2188" id="Photograph" rx="2.5" ry="2.5" style="stroke:#181818;stroke-width:0.5;" width="80" x="719.5" y="185.6094"/><text fill="#000000" font-family="sans-serif" font-size="14" lengthAdjust="spacing" textLength="74" x="722.5" y="205.1426">Photograph</text><line style="stroke:#181818;stroke-width:0.5;" x1="720.5" x2="798.5" y1="213.2188" y2="213.2188"/><text fill="#000000" font-family="sans-serif" font-size="14" lengthAdjust="spacing" textLength="16" x="725.5" y="231.752">uri</text></g><!--class Location--><g id="elem_Location"><rect codeLine="74" fill="#F1F1F1" height="123.6563" id="Location" rx="2.5" ry="2.5" style="stroke:#181818;stroke-width:0.5;" width="84" x="477.5" y="325.6094"/><text fill="#000000" font-family="sans-serif" font-size="14" lengthAdjust="spacing" textLength="54" x="492.5" y="345.1426">Location</text><line style="stroke:#181818;stroke-width:0.5;" x1="478.5" x2="560.5" y1="353.2188" y2="353.2188"/><text fill="#000000" font-family="sans-serif" font-size="14" lengthAdjust="spacing" textLength="72" x="483.5" y="371.752">streetName</text><text fill="#000000" font-family="sans-serif" font-size="14" lengthAdjust="spacing" textLength="21" x="483.5" y="389.3613">city</text><text fill="#000000" font-family="sans-serif" font-size="14" lengthAdjust="spacing" textLength="41" x="483.5" y="406.9707">district</text><text fill="#000000" font-family="sans-serif" font-size="14" lengthAdjust="spacing" textLength="31" x="483.5" y="424.5801">state</text><text fill="#000000" font-family="sans-serif" font-size="14" lengthAdjust="spacing" textLength="51" x="483.5" y="442.1895">zipCode</text></g><!--class Business--><g id="elem_Business"><rect codeLine="82" fill="#F1F1F1" height="53.2188" id="Business" rx="2.5" ry="2.5" style="stroke:#181818;stroke-width:0.5;" width="63" x="242" y="545.1094"/><text fill="#000000" font-family="sans-serif" font-size="14" lengthAdjust="spacing" textLength="57" x="245" y="564.6426">Business</text><line style="stroke:#181818;stroke-width:0.5;" x1="243" x2="304" y1="572.7188" y2="572.7188"/><text fill="#000000" font-family="sans-serif" font-size="14" lengthAdjust="spacing" textLength="31" x="248" y="591.252">price</text></g><!--class BusinessType--><g id="elem_BusinessType"><rect codeLine="86" fill="#F1F1F1" height="53.2188" id="BusinessType" rx="2.5" ry="2.5" style="stroke:#181818;stroke-width:0.5;" width="95" x="165" y="361.1094"/><text fill="#000000" font-family="sans-serif" font-size="14" lengthAdjust="spacing" textLength="89" x="168" y="380.6426">BusinessType</text><line style="stroke:#181818;stroke-width:0.5;" x1="166" x2="259" y1="388.7188" y2="388.7188"/><text fill="#000000" font-family="sans-serif" font-size="14" lengthAdjust="spacing" textLength="73" x="171" y="407.252">designation</text></g><!--class Lease--><g id="elem_Lease"><rect codeLine="90" fill="#F1F1F1" height="53.2188" id="Lease" rx="2.5" ry="2.5" style="stroke:#181818;stroke-width:0.5;" width="117" x="215" y="676.6094"/><text fill="#000000" font-family="sans-serif" font-size="14" lengthAdjust="spacing" textLength="39" x="254" y="696.1426">Lease</text><line style="stroke:#181818;stroke-width:0.5;" x1="216" x2="331" y1="704.2188" y2="704.2188"/><text fill="#000000" font-family="sans-serif" font-size="14" lengthAdjust="spacing" textLength="105" x="221" y="722.752">contractDuration</text></g><!--class Commission--><g id="elem_Commission"><rect codeLine="94" fill="#F1F1F1" height="53.2188" id="Commission" rx="2.5" ry="2.5" style="stroke:#181818;stroke-width:0.5;" width="121" x="7" y="361.1094"/><text fill="#000000" font-family="sans-serif" font-size="14" lengthAdjust="spacing" textLength="76" x="29.5" y="380.6426">Commission</text><line style="stroke:#181818;stroke-width:0.5;" x1="8" x2="127" y1="388.7188" y2="388.7188"/><text fill="#000000" font-family="sans-serif" font-size="14" lengthAdjust="spacing" textLength="109" x="13" y="407.252">commissionValue</text></g><!--class CommissionType--><g id="elem_CommissionType"><rect codeLine="98" fill="#F1F1F1" height="53.2188" id="CommissionType" rx="2.5" ry="2.5" style="stroke:#181818;stroke-width:0.5;" width="114" x="7.5" y="545.1094"/><text fill="#000000" font-family="sans-serif" font-size="14" lengthAdjust="spacing" textLength="108" x="10.5" y="564.6426">CommissionType</text><line style="stroke:#181818;stroke-width:0.5;" x1="8.5" x2="120.5" y1="572.7188" y2="572.7188"/><text fill="#000000" font-family="sans-serif" font-size="14" lengthAdjust="spacing" textLength="73" x="13.5" y="591.252">designation</text></g><!--class Request--><g id="elem_Request"><rect codeLine="102" fill="#F1F1F1" height="70.8281" id="Request" rx="2.5" ry="2.5" style="stroke:#181818;stroke-width:0.5;" width="90" x="295.5" y="352.1094"/><text fill="#000000" font-family="sans-serif" font-size="14" lengthAdjust="spacing" textLength="53" x="314" y="371.6426">Request</text><line style="stroke:#181818;stroke-width:0.5;" x1="296.5" x2="384.5" y1="379.7188" y2="379.7188"/><text fill="#000000" font-family="sans-serif" font-size="14" lengthAdjust="spacing" textLength="11" x="301.5" y="398.252">id</text><text fill="#000000" font-family="sans-serif" font-size="14" lengthAdjust="spacing" textLength="78" x="301.5" y="415.8613">requestDate</text></g><!--link Agent to Announcement--><g id="link_Agent_Announcement"><path codeLine="107" d="M141.5,90.3094 C141.5,111.7694 141.5,148.9794 141.5,176.4494 " fill="none" id="Agent-Announcement" style="stroke:#181818;stroke-width:1.0;"/><polygon fill="#000000" points="146.5,132.7852,143.5611,141.8302,149.4389,141.8302,146.5,132.7852" style="stroke:#000000;stroke-width:1.0;"/><text fill="#000000" font-family="sans-serif" font-size="13" lengthAdjust="spacing" textLength="87" x="155.5" y="143.1045">is published by</text><text fill="#000000" font-family="sans-serif" font-size="13" lengthAdjust="spacing" textLength="7" x="133.5156" y="111.2776">1</text><text fill="#000000" font-family="sans-serif" font-size="13" lengthAdjust="spacing" textLength="5" x="136.0234" y="165.6717">*</text></g><!--link PropertyType to Property--><g id="link_PropertyType_Property"><path codeLine="108" d="M519.5,98.7394 C519.5,120.6494 519.5,152.3494 519.5,176.5094 " fill="none" id="PropertyType-Property" style="stroke:#181818;stroke-width:1.0;"/><polygon fill="#000000" points="524.5,142.7852,527.4389,133.7401,521.5611,133.7401,524.5,142.7852" style="stroke:#000000;stroke-width:1.0;"/><text fill="#000000" font-family="sans-serif" font-size="13" lengthAdjust="spacing" textLength="102" x="533.5" y="143.1045">is a description of</text><text fill="#000000" font-family="sans-serif" font-size="13" lengthAdjust="spacing" textLength="7" x="511.6906" y="120.258">1</text><text fill="#000000" font-family="sans-serif" font-size="13" lengthAdjust="spacing" textLength="7" x="511.8328" y="165.7431">1</text></g><!--reverse link Property to Residence--><g id="link_Property_Residence"><path codeLine="109" d="M596.63,260.3494 C602.74,265.7394 608.48,271.5094 613.5,277.6094 C629.27,296.7894 640.61,322.0594 648.19,343.4494 " fill="none" id="Property-backto-Residence" style="stroke:#181818;stroke-width:1.0;"/><polygon fill="none" points="592.12,265.7094,580.86,247.7594,600.86,254.7694,592.12,265.7094" style="stroke:#181818;stroke-width:1.0;"/></g><!--link Residence to ResidenceType--><g id="link_Residence_ResidenceType"><path codeLine="110" d="M693.68,431.7394 C720.77,466.9594 758.14,515.5394 780.74,544.9194 " fill="none" id="Residence-ResidenceType" style="stroke:#181818;stroke-width:1.0;"/><polygon fill="#000000" points="744.4515,484.822,747.6368,493.7833,752.2958,490.1995,744.4515,484.822" style="stroke:#000000;stroke-width:1.0;"/><text fill="#000000" font-family="sans-serif" font-size="13" lengthAdjust="spacing" textLength="102" x="756.5" y="494.1045">is a description of</text><text fill="#000000" font-family="sans-serif" font-size="13" lengthAdjust="spacing" textLength="7" x="691.4102" y="453.5359">1</text><text fill="#000000" font-family="sans-serif" font-size="13" lengthAdjust="spacing" textLength="7" x="768.3611" y="534.4078">1</text></g><!--reverse link Residence to House--><g id="link_Residence_House"><path codeLine="111" d="M660.5,451.8194 C660.5,476.8094 660.5,504.8894 660.5,527.4694 " fill="none" id="Residence-backto-House" style="stroke:#181818;stroke-width:1.0;"/><polygon fill="none" points="653.5,451.7394,660.5,431.7394,667.5,451.7394,653.5,451.7394" style="stroke:#181818;stroke-width:1.0;"/></g><!--link Property to Photograph--><g id="link_Property_Photograph"><path codeLine="112" d="M585.72,212.1094 C628.59,212.1094 683.01,212.1094 719.43,212.1094 " fill="none" id="Property-Photograph" style="stroke:#181818;stroke-width:1.0;"/><polygon fill="#000000" points="613,200.2852,603.9549,197.3462,603.9549,203.2241,613,200.2852" style="stroke:#000000;stroke-width:1.0;"/><text fill="#000000" font-family="sans-serif" font-size="13" lengthAdjust="spacing" textLength="84" x="617" y="205.6045">is visualized in</text><text fill="#000000" font-family="sans-serif" font-size="13" lengthAdjust="spacing" textLength="7" x="593.3456" y="208.7581">1</text><text fill="#000000" font-family="sans-serif" font-size="13" lengthAdjust="spacing" textLength="5" x="706.5812" y="208.1417">*</text></g><!--link Property to Location--><g id="link_Property_Location"><path codeLine="113" d="M519.5,247.7994 C519.5,269.9494 519.5,299.2894 519.5,325.2894 " fill="none" id="Property-Location" style="stroke:#181818;stroke-width:1.0;"/><polygon fill="#000000" points="524.5,291.7852,527.4389,282.7401,521.5611,282.7401,524.5,291.7852" style="stroke:#000000;stroke-width:1.0;"/><text fill="#000000" font-family="sans-serif" font-size="13" lengthAdjust="spacing" textLength="71" x="533.5" y="292.1045">has address</text><text fill="#000000" font-family="sans-serif" font-size="13" lengthAdjust="spacing" textLength="7" x="511.8984" y="268.8487">1</text><text fill="#000000" font-family="sans-serif" font-size="13" lengthAdjust="spacing" textLength="7" x="512.0953" y="314.6939">1</text></g><!--reverse link Business to Lease--><g id="link_Business_Lease"><path codeLine="114" d="M273.5,618.3894 C273.5,637.9294 273.5,660.0094 273.5,676.5794 " fill="none" id="Business-backto-Lease" style="stroke:#181818;stroke-width:1.0;"/><polygon fill="none" points="266.5,618.1994,273.5,598.1994,280.5,618.1894,266.5,618.1994" style="stroke:#181818;stroke-width:1.0;"/></g><!--link Residence to AvailableEquipment--><g id="link_Residence_AvailableEquipment"><path codeLine="115" d="M624.24,431.7394 C594.64,466.9594 553.8,515.5394 529.1,544.9194 " fill="none" id="Residence-AvailableEquipment" style="stroke:#181818;stroke-width:1.0;"/><polygon fill="#000000" points="585.2827,492.6125,593.3525,487.5798,588.8532,483.7976,585.2827,492.6125" style="stroke:#000000;stroke-width:1.0;"/><text fill="#000000" font-family="sans-serif" font-size="13" lengthAdjust="spacing" textLength="48" x="597.5" y="494.1045">includes</text><text fill="#000000" font-family="sans-serif" font-size="13" lengthAdjust="spacing" textLength="7" x="610.9033" y="453.5359">1</text><text fill="#000000" font-family="sans-serif" font-size="13" lengthAdjust="spacing" textLength="5" x="528.5169" y="534.4078">*</text></g><!--link Announcement to Commission--><g id="link_Announcement_Commission"><path codeLine="116" d="M94.17,247.8494 C85.5,256.5594 77.59,266.5894 72.5,277.6094 C60.27,304.0994 60.95,338.1594 63.43,361.0994 " fill="none" id="Announcement-Commission" style="stroke:#181818;stroke-width:1.0;"/><polygon fill="#000000" points="78.8098,281.9598,73.6041,289.9191,79.2767,291.4589,78.8098,281.9598" style="stroke:#000000;stroke-width:1.0;"/><text fill="#000000" font-family="sans-serif" font-size="13" lengthAdjust="spacing" textLength="81" x="86.5" y="292.1045">is assigned to</text><text fill="#000000" font-family="sans-serif" font-size="13" lengthAdjust="spacing" textLength="7" x="78.4336" y="268.9073">1</text><text fill="#000000" font-family="sans-serif" font-size="13" lengthAdjust="spacing" textLength="7" x="54.5848" y="350.1989">1</text></g><!--link Commission to CommissionType--><g id="link_Commission_CommissionType"><path codeLine="117" d="M65,414.1394 C63.11,436.2194 60.91,468.9994 61.5,497.6094 C61.82,513.3394 62.54,530.9494 63.19,544.9394 " fill="none" id="Commission-CommissionType" style="stroke:#181818;stroke-width:1.0;"/><polygon fill="#000000" points="66.4308,493.7847,69.4946,484.7811,63.6173,484.6998,66.4308,493.7847" style="stroke:#000000;stroke-width:1.0;"/><text fill="#000000" font-family="sans-serif" font-size="13" lengthAdjust="spacing" textLength="95" x="75.5" y="494.1045">is categorized in</text><text fill="#000000" font-family="sans-serif" font-size="13" lengthAdjust="spacing" textLength="5" x="58.8438" y="435.6349">*</text><text fill="#000000" font-family="sans-serif" font-size="13" lengthAdjust="spacing" textLength="7" x="55.0777" y="534.4324">1</text></g><!--link Property to Request--><g id="link_Property_Request"><path codeLine="118" d="M453.36,228.6094 C424.93,238.3494 393.48,253.7494 372.5,277.6094 C354.39,298.1894 346.52,328.5594 343.1,352.0194 " fill="none" id="Property-Request" style="stroke:#181818;stroke-width:1.0;"/><polygon fill="#000000" points="380.8313,283.0566,372.6133,287.8436,376.9965,291.7597,380.8313,283.0566" style="stroke:#000000;stroke-width:1.0;"/><text fill="#000000" font-family="sans-serif" font-size="13" lengthAdjust="spacing" textLength="124" x="386.5" y="292.1045">has information about</text><text fill="#000000" font-family="sans-serif" font-size="13" lengthAdjust="spacing" textLength="7" x="438.3079" y="227.1176">1</text><text fill="#000000" font-family="sans-serif" font-size="13" lengthAdjust="spacing" textLength="7" x="335.9284" y="341.255">1</text></g><!--link Request to Business--><g id="link_Request_Business"><path codeLine="119" d="M327.74,423.2694 C314.68,458.7494 294.68,513.0694 282.97,544.8894 " fill="none" id="Request-Business" style="stroke:#181818;stroke-width:1.0;"/><polygon fill="#000000" points="310.7727,493.4773,316.6554,486.0044,311.1394,483.9738,310.7727,493.4773" style="stroke:#000000;stroke-width:1.0;"/><text fill="#000000" font-family="sans-serif" font-size="13" lengthAdjust="spacing" textLength="88" x="321.5" y="494.1045">is described by</text><text fill="#000000" font-family="sans-serif" font-size="13" lengthAdjust="spacing" textLength="7" x="317.9453" y="444.3135">1</text><text fill="#000000" font-family="sans-serif" font-size="13" lengthAdjust="spacing" textLength="7" x="277.3506" y="534.3708">1</text></g><!--link BusinessType to Business--><g id="link_BusinessType_Business"><path codeLine="120" d="M210.15,414.1094 C208.98,436.7494 209.54,470.3594 219.5,497.6094 C225.89,515.0794 237.86,531.9594 248.91,545.0694 " fill="none" id="BusinessType-Business" style="stroke:#181818;stroke-width:1.0;"/><polygon fill="#000000" points="225.919,493.5796,226.1701,484.0723,220.5339,485.7405,225.919,493.5796" style="stroke:#000000;stroke-width:1.0;"/><text fill="#000000" font-family="sans-serif" font-size="13" lengthAdjust="spacing" textLength="56" x="233.5" y="494.1045">describes</text><text fill="#000000" font-family="sans-serif" font-size="13" lengthAdjust="spacing" textLength="7" x="201.7241" y="436.0301">1</text><text fill="#000000" font-family="sans-serif" font-size="13" lengthAdjust="spacing" textLength="7" x="235.0631" y="534.1616">1</text></g><!--link Announcement to Request--><g id="link_Announcement_Request"><path codeLine="121" d="M185.1,247.7294 C212.15,269.5594 247.36,298.6294 277.5,325.6094 C286.8,333.9394 296.61,343.1894 305.64,351.9194 " fill="none" id="Announcement-Request" style="stroke:#181818;stroke-width:1.0;"/><polygon fill="#000000" points="250.2828,290.0548,245.3615,281.9165,241.5178,286.3634,250.2828,290.0548" style="stroke:#000000;stroke-width:1.0;"/><text fill="#000000" font-family="sans-serif" font-size="13" lengthAdjust="spacing" textLength="71" x="255.5" y="292.1045">is  based on</text><text fill="#000000" font-family="sans-serif" font-size="13" lengthAdjust="spacing" textLength="7" x="185.2428" y="269.0409">1</text><text fill="#000000" font-family="sans-serif" font-size="13" lengthAdjust="spacing" textLength="7" x="291.3276" y="341.136">1</text></g><!--SRC=[VLHDRzim3BthLn2v11XWeBqDHL2WJGjiG5SKoxQxB36sK5jKzT7LJVVVHyknupPjJv75zqY-HqRXtbWdlMoX9KkgzjGYH9zGX2dYfBgN5MvYro1uL57Qgfa3GYqr_JMsWgri0WgnR70R8H9uKzKHjEbPXgoOaLGZGxY8qPioHVoko6xCCyA94BNH2CfunKNokSLOamv2H1EvXIjgfR7mWpGsKC3lpSd9Ly55SqQugD2g3dPYQRHOQWociZ8NNoBpcWkjFOOWbgucYxUfBT6BvJ-n71DSjwwX3h5FCRk-Gn_8yfsLBUvpSH8EEV9nBRqUSqNvD1xVr13x5gsbP1MsQEDES9jIANHigy8h6L4SW5L6JDztdXpwsEq4I8zIiBCXqzOcTcl6Sfa9_9EbQ_O26Mrp2vUeFL4RfcyPw_q5puGdKsrurlFwZonIbWrUFoJZXdRPKUMDouvEm6-KGb-db26h4c1iBKiJU_8DRVaY97lzv2WaZyU2VdKES-ffMCSoFi7SrHIfyjBLEv6yEGHkI6NeJeJe4UDjFpl5PedUEMzKv41l-RDnQzwd0_Co1MDvJtR2CUoTm2VjtA3itU2LZbwgU9Ny6y2QsjQ4m7VGmyQFFx99-1wghmKV-lEGC0nxv8Vpk4HvVM1nke2YWCMNnQl5EmCJmAMoCQ563MK7Ap4VnyJZd_4-SoJCLW1e2-TYcX4KoHKlvnD1l9hUa98H-J25FigQbshCEA6d9eTiMTTX_ZdNemb9DloQQ5v3JZHd54LF6_VY36h9jOSdWP7ZS67rmjBp76VY3auU_p6ui5LDOX6SPkxptCVPt0VHeHyejybFvKhCehse8qwsCFEuUQp8lwzm9EuNWnchhDBOBVasomPPKefYHCn8em6vp32HSjYEWpbljsCoxMnYV6R2eIykaLyC3TIB-0y0]--></g></svg>