<?xml version="1.0" encoding="UTF-8" standalone="no"?><svg xmlns="http://www.w3.org/2000/svg" xmlns:xlink="http://www.w3.org/1999/xlink" contentStyleType="text/css" height="789px" preserveAspectRatio="none" style="width:866px;height:789px;background:#FFFFFF;" version="1.1" viewBox="0 0 866 789" width="866px" zoomAndPan="magnify"><defs/><g><text fill="#000000" font-family="sans-serif" font-size="14" font-weight="bold" lengthAdjust="spacing" textLength="156" x="348.25" y="24.5332">Domain Model - US008</text><!--class Agency--><g id="elem_Agency"><rect codeLine="15" fill="#F1F1F1" height="106.0469" id="Agency" rx="2.5" ry="2.5" style="stroke:#181818;stroke-width:0.5;" width="101" x="159" y="45.6094"/><text fill="#000000" font-family="sans-serif" font-size="14" lengthAdjust="spacing" textLength="47" x="186" y="65.1426">Agency</text><line style="stroke:#181818;stroke-width:0.5;" x1="160" x2="259" y1="73.2188" y2="73.2188"/><text fill="#000000" font-family="sans-serif" font-size="14" lengthAdjust="spacing" textLength="11" x="165" y="91.752">id</text><text fill="#000000" font-family="sans-serif" font-size="14" lengthAdjust="spacing" textLength="73" x="165" y="109.3613">designation</text><text fill="#000000" font-family="sans-serif" font-size="14" lengthAdjust="spacing" textLength="85" x="165" y="126.9707">emailAddress</text><text fill="#000000" font-family="sans-serif" font-size="14" lengthAdjust="spacing" textLength="89" x="165" y="144.5801">phoneNumber</text></g><!--class Announcement--><g id="elem_Announcement"><rect codeLine="22" fill="#F1F1F1" height="70.8281" id="Announcement" rx="2.5" ry="2.5" style="stroke:#181818;stroke-width:0.5;" width="115" x="81" y="229.6094"/><text fill="#000000" font-family="sans-serif" font-size="14" lengthAdjust="spacing" textLength="95" x="91" y="249.1426">Announcement</text><line style="stroke:#181818;stroke-width:0.5;" x1="82" x2="195" y1="257.2188" y2="257.2188"/><text fill="#000000" font-family="sans-serif" font-size="14" lengthAdjust="spacing" textLength="11" x="87" y="275.752">id</text><text fill="#000000" font-family="sans-serif" font-size="14" lengthAdjust="spacing" textLength="103" x="87" y="293.3613">acceptanceDate</text></g><!--class Agent--><g id="elem_Agent"><rect codeLine="27" fill="#F1F1F1" height="35.6094" id="Agent" rx="2.5" ry="2.5" style="stroke:#181818;stroke-width:0.5;" width="43" x="46" y="80.6094"/><text fill="#000000" font-family="sans-serif" font-size="14" lengthAdjust="spacing" textLength="37" x="49" y="100.1426">Agent</text><line style="stroke:#181818;stroke-width:0.5;" x1="47" x2="88" y1="108.2188" y2="108.2188"/></g><!--class Property--><g id="elem_Property"><rect codeLine="30" fill="#F1F1F1" height="70.8281" id="Property" rx="2.5" ry="2.5" style="stroke:#181818;stroke-width:0.5;" width="132" x="453.5" y="229.6094"/><text fill="#000000" font-family="sans-serif" font-size="14" lengthAdjust="spacing" textLength="54" x="492.5" y="249.1426">Property</text><line style="stroke:#181818;stroke-width:0.5;" x1="454.5" x2="584.5" y1="257.2188" y2="257.2188"/><text fill="#000000" font-family="sans-serif" font-size="14" lengthAdjust="spacing" textLength="29" x="459.5" y="275.752">area</text><text fill="#000000" font-family="sans-serif" font-size="14" lengthAdjust="spacing" textLength="120" x="459.5" y="293.3613">distanceCityCenter</text></g><!--class Residence--><g id="elem_Residence"><rect codeLine="35" fill="#F1F1F1" height="88.4375" id="Residence" rx="2.5" ry="2.5" style="stroke:#181818;stroke-width:0.5;" width="128" x="596.5" y="396.6094"/><text fill="#000000" font-family="sans-serif" font-size="14" lengthAdjust="spacing" textLength="67" x="627" y="416.1426">Residence</text><line style="stroke:#181818;stroke-width:0.5;" x1="597.5" x2="723.5" y1="424.2188" y2="424.2188"/><text fill="#000000" font-family="sans-serif" font-size="14" lengthAdjust="spacing" textLength="112" x="602.5" y="442.752">numberBedrooms</text><text fill="#000000" font-family="sans-serif" font-size="14" lengthAdjust="spacing" textLength="116" x="602.5" y="460.3613">numberBathrooms</text><text fill="#000000" font-family="sans-serif" font-size="14" lengthAdjust="spacing" textLength="87" x="602.5" y="477.9707">parkingSpace</text></g><!--class AvailableEquipment--><g id="elem_AvailableEquipment"><rect codeLine="41" fill="#F1F1F1" height="53.2188" id="AvailableEquipment" rx="2.5" ry="2.5" style="stroke:#181818;stroke-width:0.5;" width="130" x="442.5" y="598.1094"/><text fill="#000000" font-family="sans-serif" font-size="14" lengthAdjust="spacing" textLength="124" x="445.5" y="617.6426">AvailableEquipment</text><line style="stroke:#181818;stroke-width:0.5;" x1="443.5" x2="571.5" y1="625.7188" y2="625.7188"/><text fill="#000000" font-family="sans-serif" font-size="14" lengthAdjust="spacing" textLength="69" x="448.5" y="644.252">description</text></g><!--class House--><g id="elem_House"><rect codeLine="45" fill="#F1F1F1" height="88.4375" id="House" rx="2.5" ry="2.5" style="stroke:#181818;stroke-width:0.5;" width="105" x="608" y="580.6094"/><text fill="#000000" font-family="sans-serif" font-size="14" lengthAdjust="spacing" textLength="40" x="640.5" y="600.1426">House</text><line style="stroke:#181818;stroke-width:0.5;" x1="609" x2="712" y1="608.2188" y2="608.2188"/><text fill="#000000" font-family="sans-serif" font-size="14" lengthAdjust="spacing" textLength="62" x="614" y="626.752">basement</text><text fill="#000000" font-family="sans-serif" font-size="14" lengthAdjust="spacing" textLength="93" x="614" y="644.3613">inhabitableLoft</text><text fill="#000000" font-family="sans-serif" font-size="14" lengthAdjust="spacing" textLength="82" x="614" y="661.9707">sunExposure</text></g><!--class PropertyType--><g id="elem_PropertyType"><rect codeLine="51" fill="#F1F1F1" height="53.2188" id="PropertyType" rx="2.5" ry="2.5" style="stroke:#181818;stroke-width:0.5;" width="92" x="473.5" y="72.1094"/><text fill="#000000" font-family="sans-serif" font-size="14" lengthAdjust="spacing" textLength="86" x="476.5" y="91.6426">PropertyType</text><line style="stroke:#181818;stroke-width:0.5;" x1="474.5" x2="564.5" y1="99.7188" y2="99.7188"/><text fill="#000000" font-family="sans-serif" font-size="14" lengthAdjust="spacing" textLength="73" x="479.5" y="118.252">designation</text></g><!--class ResidenceType--><g id="elem_ResidenceType"><rect codeLine="55" fill="#F1F1F1" height="53.2188" id="ResidenceType" rx="2.5" ry="2.5" style="stroke:#181818;stroke-width:0.5;" width="105" x="748" y="598.1094"/><text fill="#000000" font-family="sans-serif" font-size="14" lengthAdjust="spacing" textLength="99" x="751" y="617.6426">ResidenceType</text><line style="stroke:#181818;stroke-width:0.5;" x1="749" x2="852" y1="625.7188" y2="625.7188"/><text fill="#000000" font-family="sans-serif" font-size="14" lengthAdjust="spacing" textLength="73" x="754" y="644.252">designation</text></g><!--class Photograph--><g id="elem_Photograph"><rect codeLine="59" fill="#F1F1F1" height="53.2188" id="Photograph" rx="2.5" ry="2.5" style="stroke:#181818;stroke-width:0.5;" width="80" x="719.5" y="238.6094"/><text fill="#000000" font-family="sans-serif" font-size="14" lengthAdjust="spacing" textLength="74" x="722.5" y="258.1426">Photograph</text><line style="stroke:#181818;stroke-width:0.5;" x1="720.5" x2="798.5" y1="266.2188" y2="266.2188"/><text fill="#000000" font-family="sans-serif" font-size="14" lengthAdjust="spacing" textLength="16" x="725.5" y="284.752">uri</text></g><!--class Location--><g id="elem_Location"><rect codeLine="63" fill="#F1F1F1" height="123.6563" id="Location" rx="2.5" ry="2.5" style="stroke:#181818;stroke-width:0.5;" width="84" x="477.5" y="378.6094"/><text fill="#000000" font-family="sans-serif" font-size="14" lengthAdjust="spacing" textLength="54" x="492.5" y="398.1426">Location</text><line style="stroke:#181818;stroke-width:0.5;" x1="478.5" x2="560.5" y1="406.2188" y2="406.2188"/><text fill="#000000" font-family="sans-serif" font-size="14" lengthAdjust="spacing" textLength="72" x="483.5" y="424.752">streetName</text><text fill="#000000" font-family="sans-serif" font-size="14" lengthAdjust="spacing" textLength="21" x="483.5" y="442.3613">city</text><text fill="#000000" font-family="sans-serif" font-size="14" lengthAdjust="spacing" textLength="41" x="483.5" y="459.9707">district</text><text fill="#000000" font-family="sans-serif" font-size="14" lengthAdjust="spacing" textLength="31" x="483.5" y="477.5801">state</text><text fill="#000000" font-family="sans-serif" font-size="14" lengthAdjust="spacing" textLength="51" x="483.5" y="495.1895">zipCode</text></g><!--class Business--><g id="elem_Business"><rect codeLine="71" fill="#F1F1F1" height="53.2188" id="Business" rx="2.5" ry="2.5" style="stroke:#181818;stroke-width:0.5;" width="63" x="242" y="598.1094"/><text fill="#000000" font-family="sans-serif" font-size="14" lengthAdjust="spacing" textLength="57" x="245" y="617.6426">Business</text><line style="stroke:#181818;stroke-width:0.5;" x1="243" x2="304" y1="625.7188" y2="625.7188"/><text fill="#000000" font-family="sans-serif" font-size="14" lengthAdjust="spacing" textLength="31" x="248" y="644.252">price</text></g><!--class BusinessType--><g id="elem_BusinessType"><rect codeLine="75" fill="#F1F1F1" height="53.2188" id="BusinessType" rx="2.5" ry="2.5" style="stroke:#181818;stroke-width:0.5;" width="95" x="165" y="414.1094"/><text fill="#000000" font-family="sans-serif" font-size="14" lengthAdjust="spacing" textLength="89" x="168" y="433.6426">BusinessType</text><line style="stroke:#181818;stroke-width:0.5;" x1="166" x2="259" y1="441.7188" y2="441.7188"/><text fill="#000000" font-family="sans-serif" font-size="14" lengthAdjust="spacing" textLength="73" x="171" y="460.252">designation</text></g><!--class Lease--><g id="elem_Lease"><rect codeLine="79" fill="#F1F1F1" height="53.2188" id="Lease" rx="2.5" ry="2.5" style="stroke:#181818;stroke-width:0.5;" width="117" x="215" y="729.6094"/><text fill="#000000" font-family="sans-serif" font-size="14" lengthAdjust="spacing" textLength="39" x="254" y="749.1426">Lease</text><line style="stroke:#181818;stroke-width:0.5;" x1="216" x2="331" y1="757.2188" y2="757.2188"/><text fill="#000000" font-family="sans-serif" font-size="14" lengthAdjust="spacing" textLength="105" x="221" y="775.752">contractDuration</text></g><!--class Commission--><g id="elem_Commission"><rect codeLine="83" fill="#F1F1F1" height="53.2188" id="Commission" rx="2.5" ry="2.5" style="stroke:#181818;stroke-width:0.5;" width="121" x="7" y="414.1094"/><text fill="#000000" font-family="sans-serif" font-size="14" lengthAdjust="spacing" textLength="76" x="29.5" y="433.6426">Commission</text><line style="stroke:#181818;stroke-width:0.5;" x1="8" x2="127" y1="441.7188" y2="441.7188"/><text fill="#000000" font-family="sans-serif" font-size="14" lengthAdjust="spacing" textLength="109" x="13" y="460.252">commissionValue</text></g><!--class CommissionType--><g id="elem_CommissionType"><rect codeLine="87" fill="#F1F1F1" height="53.2188" id="CommissionType" rx="2.5" ry="2.5" style="stroke:#181818;stroke-width:0.5;" width="114" x="7.5" y="598.1094"/><text fill="#000000" font-family="sans-serif" font-size="14" lengthAdjust="spacing" textLength="108" x="10.5" y="617.6426">CommissionType</text><line style="stroke:#181818;stroke-width:0.5;" x1="8.5" x2="120.5" y1="625.7188" y2="625.7188"/><text fill="#000000" font-family="sans-serif" font-size="14" lengthAdjust="spacing" textLength="73" x="13.5" y="644.252">designation</text></g><!--class Request--><g id="elem_Request"><rect codeLine="91" fill="#F1F1F1" height="70.8281" id="Request" rx="2.5" ry="2.5" style="stroke:#181818;stroke-width:0.5;" width="90" x="295.5" y="405.1094"/><text fill="#000000" font-family="sans-serif" font-size="14" lengthAdjust="spacing" textLength="53" x="314" y="424.6426">Request</text><line style="stroke:#181818;stroke-width:0.5;" x1="296.5" x2="384.5" y1="432.7188" y2="432.7188"/><text fill="#000000" font-family="sans-serif" font-size="14" lengthAdjust="spacing" textLength="11" x="301.5" y="451.252">id</text><text fill="#000000" font-family="sans-serif" font-size="14" lengthAdjust="spacing" textLength="78" x="301.5" y="468.8613">requestDate</text></g><!--link Agent to Announcement--><g id="link_Agent_Announcement"><path codeLine="96" d="M62.57,116.7794 C57.61,137.4494 52.27,172.7294 64.5,199.6094 C69.58,210.7794 77.66,220.7694 86.64,229.3594 " fill="none" id="Agent-Announcement" style="stroke:#181818;stroke-width:1.0;"/><polygon fill="#000000" points="68.4546,185.8957,67.4718,195.3553,73.2197,194.1264,68.4546,185.8957" style="stroke:#000000;stroke-width:1.0;"/><text fill="#000000" font-family="sans-serif" font-size="13" lengthAdjust="spacing" textLength="87" x="78.5" y="196.1045">is published by</text><text fill="#000000" font-family="sans-serif" font-size="13" lengthAdjust="spacing" textLength="7" x="53.1991" y="137.7392">1</text><text fill="#000000" font-family="sans-serif" font-size="13" lengthAdjust="spacing" textLength="5" x="71.6174" y="218.8363">*</text></g><!--link PropertyType to Property--><g id="link_PropertyType_Property"><path codeLine="97" d="M519.5,125.3094 C519.5,153.3294 519.5,198.2994 519.5,229.4194 " fill="none" id="PropertyType-Property" style="stroke:#181818;stroke-width:1.0;"/><polygon fill="#000000" points="524.5,195.7852,527.4389,186.7401,521.5611,186.7401,524.5,195.7852" style="stroke:#000000;stroke-width:1.0;"/><text fill="#000000" font-family="sans-serif" font-size="13" lengthAdjust="spacing" textLength="102" x="533.5" y="196.1045">is a description of</text><text fill="#000000" font-family="sans-serif" font-size="13" lengthAdjust="spacing" textLength="7" x="511.6906" y="146.8442">1</text><text fill="#000000" font-family="sans-serif" font-size="13" lengthAdjust="spacing" textLength="7" x="511.8328" y="218.636">1</text></g><!--reverse link Property to Residence--><g id="link_Property_Residence"><path codeLine="98" d="M596.63,313.3494 C602.74,318.7394 608.48,324.5094 613.5,330.6094 C629.27,349.7894 640.61,375.0594 648.19,396.4494 " fill="none" id="Property-backto-Residence" style="stroke:#181818;stroke-width:1.0;"/><polygon fill="none" points="592.12,318.7094,580.86,300.7594,600.86,307.7694,592.12,318.7094" style="stroke:#181818;stroke-width:1.0;"/></g><!--link Residence to ResidenceType--><g id="link_Residence_ResidenceType"><path codeLine="99" d="M693.68,484.7394 C720.77,519.9594 758.14,568.5394 780.74,597.9194 " fill="none" id="Residence-ResidenceType" style="stroke:#181818;stroke-width:1.0;"/><polygon fill="#000000" points="744.4515,537.822,747.6368,546.7833,752.2958,543.1995,744.4515,537.822" style="stroke:#000000;stroke-width:1.0;"/><text fill="#000000" font-family="sans-serif" font-size="13" lengthAdjust="spacing" textLength="102" x="756.5" y="547.1045">is a description of</text><text fill="#000000" font-family="sans-serif" font-size="13" lengthAdjust="spacing" textLength="7" x="691.4102" y="506.5359">1</text><text fill="#000000" font-family="sans-serif" font-size="13" lengthAdjust="spacing" textLength="7" x="768.3611" y="587.4078">1</text></g><!--reverse link Residence to House--><g id="link_Residence_House"><path codeLine="100" d="M660.5,504.8194 C660.5,529.8094 660.5,557.8894 660.5,580.4694 " fill="none" id="Residence-backto-House" style="stroke:#181818;stroke-width:1.0;"/><polygon fill="none" points="653.5,504.7394,660.5,484.7394,667.5,504.7394,653.5,504.7394" style="stroke:#181818;stroke-width:1.0;"/></g><!--link Property to Photograph--><g id="link_Property_Photograph"><path codeLine="101" d="M585.72,265.1094 C628.59,265.1094 683.01,265.1094 719.43,265.1094 " fill="none" id="Property-Photograph" style="stroke:#181818;stroke-width:1.0;"/><polygon fill="#000000" points="613,253.2852,603.9549,250.3462,603.9549,256.2241,613,253.2852" style="stroke:#000000;stroke-width:1.0;"/><text fill="#000000" font-family="sans-serif" font-size="13" lengthAdjust="spacing" textLength="84" x="617" y="258.6045">is visualized in</text><text fill="#000000" font-family="sans-serif" font-size="13" lengthAdjust="spacing" textLength="7" x="593.3456" y="261.7581">1</text><text fill="#000000" font-family="sans-serif" font-size="13" lengthAdjust="spacing" textLength="5" x="706.5812" y="261.1417">*</text></g><!--link Property to Location--><g id="link_Property_Location"><path codeLine="102" d="M519.5,300.7994 C519.5,322.9494 519.5,352.2894 519.5,378.2894 " fill="none" id="Property-Location" style="stroke:#181818;stroke-width:1.0;"/><polygon fill="#000000" points="524.5,344.7852,527.4389,335.7401,521.5611,335.7401,524.5,344.7852" style="stroke:#000000;stroke-width:1.0;"/><text fill="#000000" font-family="sans-serif" font-size="13" lengthAdjust="spacing" textLength="71" x="533.5" y="345.1045">has address</text><text fill="#000000" font-family="sans-serif" font-size="13" lengthAdjust="spacing" textLength="7" x="511.8984" y="321.8487">1</text><text fill="#000000" font-family="sans-serif" font-size="13" lengthAdjust="spacing" textLength="7" x="512.0953" y="367.6939">1</text></g><!--reverse link Business to Lease--><g id="link_Business_Lease"><path codeLine="103" d="M273.5,671.3894 C273.5,690.9294 273.5,713.0094 273.5,729.5794 " fill="none" id="Business-backto-Lease" style="stroke:#181818;stroke-width:1.0;"/><polygon fill="none" points="266.5,671.1994,273.5,651.1994,280.5,671.1894,266.5,671.1994" style="stroke:#181818;stroke-width:1.0;"/></g><!--link Residence to AvailableEquipment--><g id="link_Residence_AvailableEquipment"><path codeLine="104" d="M624.24,484.7394 C594.64,519.9594 553.8,568.5394 529.1,597.9194 " fill="none" id="Residence-AvailableEquipment" style="stroke:#181818;stroke-width:1.0;"/><polygon fill="#000000" points="585.2827,545.6125,593.3525,540.5798,588.8532,536.7976,585.2827,545.6125" style="stroke:#000000;stroke-width:1.0;"/><text fill="#000000" font-family="sans-serif" font-size="13" lengthAdjust="spacing" textLength="48" x="597.5" y="547.1045">includes</text><text fill="#000000" font-family="sans-serif" font-size="13" lengthAdjust="spacing" textLength="7" x="610.9033" y="506.5359">1</text><text fill="#000000" font-family="sans-serif" font-size="13" lengthAdjust="spacing" textLength="5" x="528.5169" y="587.4078">*</text></g><!--link Announcement to Commission--><g id="link_Announcement_Commission"><path codeLine="105" d="M93.55,300.7994 C85.11,309.5694 77.41,319.6394 72.5,330.6094 C60.65,357.0594 61.17,390.8294 63.52,413.7194 " fill="none" id="Announcement-Commission" style="stroke:#181818;stroke-width:1.0;"/><polygon fill="#000000" points="78.785,334.9531,73.6202,342.939,79.3006,344.4497,78.785,334.9531" style="stroke:#000000;stroke-width:1.0;"/><text fill="#000000" font-family="sans-serif" font-size="13" lengthAdjust="spacing" textLength="81" x="86.5" y="345.1045">is assigned to</text><text fill="#000000" font-family="sans-serif" font-size="13" lengthAdjust="spacing" textLength="7" x="78.2227" y="321.8487">1</text><text fill="#000000" font-family="sans-serif" font-size="13" lengthAdjust="spacing" textLength="7" x="54.7903" y="403.1615">1</text></g><!--link Commission to CommissionType--><g id="link_Commission_CommissionType"><path codeLine="106" d="M65,467.1394 C63.11,489.2194 60.91,521.9994 61.5,550.6094 C61.82,566.3394 62.54,583.9494 63.19,597.9394 " fill="none" id="Commission-CommissionType" style="stroke:#181818;stroke-width:1.0;"/><polygon fill="#000000" points="66.4308,546.7847,69.4946,537.7811,63.6173,537.6998,66.4308,546.7847" style="stroke:#000000;stroke-width:1.0;"/><text fill="#000000" font-family="sans-serif" font-size="13" lengthAdjust="spacing" textLength="95" x="75.5" y="547.1045">is categorized in</text><text fill="#000000" font-family="sans-serif" font-size="13" lengthAdjust="spacing" textLength="5" x="58.8438" y="488.6349">*</text><text fill="#000000" font-family="sans-serif" font-size="13" lengthAdjust="spacing" textLength="7" x="55.0777" y="587.4324">1</text></g><!--link Property to Request--><g id="link_Property_Request"><path codeLine="107" d="M453.36,281.6094 C424.93,291.3494 393.48,306.7494 372.5,330.6094 C354.39,351.1894 346.52,381.5594 343.1,405.0194 " fill="none" id="Property-Request" style="stroke:#181818;stroke-width:1.0;"/><polygon fill="#000000" points="380.8313,336.0566,372.6133,340.8436,376.9965,344.7597,380.8313,336.0566" style="stroke:#000000;stroke-width:1.0;"/><text fill="#000000" font-family="sans-serif" font-size="13" lengthAdjust="spacing" textLength="124" x="386.5" y="345.1045">has information about</text><text fill="#000000" font-family="sans-serif" font-size="13" lengthAdjust="spacing" textLength="7" x="438.3079" y="280.1176">1</text><text fill="#000000" font-family="sans-serif" font-size="13" lengthAdjust="spacing" textLength="7" x="335.9284" y="394.255">1</text></g><!--link Request to Business--><g id="link_Request_Business"><path codeLine="108" d="M327.74,476.2694 C314.68,511.7494 294.68,566.0694 282.97,597.8894 " fill="none" id="Request-Business" style="stroke:#181818;stroke-width:1.0;"/><polygon fill="#000000" points="310.7727,546.4773,316.6554,539.0044,311.1394,536.9738,310.7727,546.4773" style="stroke:#000000;stroke-width:1.0;"/><text fill="#000000" font-family="sans-serif" font-size="13" lengthAdjust="spacing" textLength="88" x="321.5" y="547.1045">is described by</text><text fill="#000000" font-family="sans-serif" font-size="13" lengthAdjust="spacing" textLength="7" x="317.9453" y="497.3135">1</text><text fill="#000000" font-family="sans-serif" font-size="13" lengthAdjust="spacing" textLength="7" x="277.3506" y="587.3708">1</text></g><!--link BusinessType to Business--><g id="link_BusinessType_Business"><path codeLine="109" d="M210.15,467.1094 C208.98,489.7494 209.54,523.3594 219.5,550.6094 C225.89,568.0794 237.86,584.9594 248.91,598.0694 " fill="none" id="BusinessType-Business" style="stroke:#181818;stroke-width:1.0;"/><polygon fill="#000000" points="225.919,546.5796,226.1701,537.0723,220.5339,538.7405,225.919,546.5796" style="stroke:#000000;stroke-width:1.0;"/><text fill="#000000" font-family="sans-serif" font-size="13" lengthAdjust="spacing" textLength="56" x="233.5" y="547.1045">describes</text><text fill="#000000" font-family="sans-serif" font-size="13" lengthAdjust="spacing" textLength="7" x="201.7241" y="489.0301">1</text><text fill="#000000" font-family="sans-serif" font-size="13" lengthAdjust="spacing" textLength="7" x="235.0631" y="587.1616">1</text></g><!--link Announcement to Request--><g id="link_Announcement_Request"><path codeLine="110" d="M183.47,300.8494 C211.1,322.5994 246.94,351.5394 277.5,378.6094 C286.85,386.8894 296.67,396.1194 305.7,404.8494 " fill="none" id="Announcement-Request" style="stroke:#181818;stroke-width:1.0;"/><polygon fill="#000000" points="249.3081,343.0253,244.3237,334.9255,240.5147,339.4022,249.3081,343.0253" style="stroke:#000000;stroke-width:1.0;"/><text fill="#000000" font-family="sans-serif" font-size="13" lengthAdjust="spacing" textLength="71" x="254.5" y="345.1045">is  based on</text><text fill="#000000" font-family="sans-serif" font-size="13" lengthAdjust="spacing" textLength="7" x="183.5977" y="321.9073">1</text><text fill="#000000" font-family="sans-serif" font-size="13" lengthAdjust="spacing" textLength="7" x="291.6384" y="394.3245">1</text></g><!--link Agency to Announcement--><g id="link_Agency_Announcement"><path codeLine="111" d="M190.22,151.6094 C184.19,167.1694 177.32,184.1894 170.5,199.6094 C166.15,209.4394 161.12,219.9494 156.34,229.5594 " fill="none" id="Agency-Announcement" style="stroke:#181818;stroke-width:1.0;"/><polygon fill="#000000" points="180.5069,195.3707,186.8078,188.2468,181.4171,185.9038,180.5069,195.3707" style="stroke:#000000;stroke-width:1.0;"/><text fill="#000000" font-family="sans-serif" font-size="13" lengthAdjust="spacing" textLength="30" x="191.5" y="196.1045">owns</text><text fill="#000000" font-family="sans-serif" font-size="13" lengthAdjust="spacing" textLength="7" x="180.1589" y="173.3218">1</text><text fill="#000000" font-family="sans-serif" font-size="13" lengthAdjust="spacing" textLength="5" x="154.2642" y="218.8027">*</text></g><!--SRC=[VLHDJzmm4BtxLupsKgbI97ghq0e95gHMeWXrszuTUpQnI3p67z1bwN_ln25PBmkSujZlpSnxCtQuCzP9BtleoP9gFVK8qISKOJvnKjt91jTnso5uL57QfYi1ePMQ7erjO2ExW49ywd0J8H9uqxGHj1bOXgmeIAgJ8Pp7w4sT8dvNPDVc2U54YDPe16MyuYHvtMDiIGSXeebSmYNrqbZuGHexgE3t-kJagn0Y1uJp1gtQmauOBJG6qrYPCoDpkdEjFOOWN4iMRr9VenV_PgQrbAp27ctCTAaKEXQhy596B81DHip_jvuS-hZT2P0UfM2z8TDM9cvNZ2sp_EIQD9U8ZBQvWWlKdgWFyx-CxSi6EyL-DMlkG9d_WQN8kiEh-sJSM2vBLTwuB7K6VgCKXZor35cL06DRMPiuaAzfmniXsQk_ZaBoU2perzRXxi35OnaVO6vRYjHuwTgTIDxi3wv9PUXEXEWHuutiKIWsImpEUQCY7moMFnctuYxlcHSf6CiTt0d7i3SEFYZd6kNW1WzQz5B5o-HV0LRKzoO4teC1DltyaLt2jr13BdZNd_k4OPmZFwwd8ShZ0uil2wWgM7nU70pUAPW0BjMT2IrggBUm56KxPXv_fltCaL2C0D06piJS8wYIgvxFPe8uwDuOaX5vCH-z5pKFrHHnHiz5Zj6ohdt_Swm74vBi-8vh7aCEL3AgQg1DSt4AhUJSusLbvDHSM3wpzDp7GjpUoUEBmOcjwXABu32bpwMFHTz7qM5eA9V93zXI5AU3g2DEjZ3pk7XioB-jS2A-30OpbbcbiHloVPODigOKnOGeI9C1EStOaNgSZhqvhwTZDkrqPdnamhukJf5V30qqY7XvKD-TLtgqGzp_]--></g></svg>