<?xml version="1.0" encoding="UTF-8" standalone="no"?><svg xmlns="http://www.w3.org/2000/svg" xmlns:xlink="http://www.w3.org/1999/xlink" contentStyleType="text/css" height="1287px" preserveAspectRatio="none" style="width:2117px;height:1287px;background:#FFFFFF;" version="1.1" viewBox="0 0 2117 1287" width="2117px" zoomAndPan="magnify"><defs/><g><rect fill="#FFFFFF" height="1079.0156" style="stroke:#181818;stroke-width:1.0;" width="10" x="492" y="136.625"/><rect fill="#FFFFFF" height="128.0547" style="stroke:#181818;stroke-width:1.0;" width="10" x="497" y="1018.2344"/><rect fill="#FFFFFF" height="41.3516" style="stroke:#181818;stroke-width:1.0;" width="10" x="502" y="1061.5859"/><rect fill="#FFFFFF" height="703.5" style="stroke:#181818;stroke-width:1.0;" width="10" x="1040.5" y="251.3828"/><rect fill="#FFFFFF" height="41.3516" style="stroke:#181818;stroke-width:1.0;" width="10" x="1045.5" y="851.1797"/><rect fill="#FFFFFF" height="94.0859" style="stroke:#181818;stroke-width:1.0;" width="10" x="1458.5" y="323.4375"/><rect fill="#FFFFFF" height="80.5703" style="stroke:#181818;stroke-width:1.0;" width="10" x="1547" y="522.9297"/><rect fill="#FFFFFF" height="80.5703" style="stroke:#181818;stroke-width:1.0;" width="10" x="1628.5" y="725.2578"/><rect fill="none" height="1034.6641" style="stroke:#000000;stroke-width:1.5;" width="1657" x="454.5" y="151.625"/><rect fill="none" height="169.1406" style="stroke:#000000;stroke-width:1.5;" width="1101.5" x="1000" y="256.3828"/><rect fill="none" height="171.9766" style="stroke:#000000;stroke-width:1.5;" width="1101.5" x="1000" y="439.5234"/><rect fill="none" height="188.3281" style="stroke:#000000;stroke-width:1.5;" width="1101.5" x="1000" y="625.5"/><line style="stroke:#181818;stroke-width:0.5;stroke-dasharray:5.0,5.0;" x1="496.5" x2="496.5" y1="55.2188" y2="1233.6406"/><line style="stroke:#181818;stroke-width:0.5;stroke-dasharray:5.0,5.0;" x1="1045" x2="1045" y1="219.6797" y2="1233.6406"/><line style="stroke:#181818;stroke-width:0.5;stroke-dasharray:5.0,5.0;" x1="1463.5" x2="1463.5" y1="314.8438" y2="1233.6406"/><line style="stroke:#181818;stroke-width:0.5;stroke-dasharray:5.0,5.0;" x1="1551.5" x2="1551.5" y1="499.4023" y2="1233.6406"/><line style="stroke:#181818;stroke-width:0.5;stroke-dasharray:5.0,5.0;" x1="1633.5" x2="1633.5" y1="693.5547" y2="1233.6406"/><line style="stroke:#181818;stroke-width:0.5;stroke-dasharray:5.0,5.0;" x1="2055.5" x2="2055.5" y1="763.3672" y2="1233.6406"/><rect fill="#E3E3E3" height="49.2188" rx="2.5" ry="2.5" style="stroke:#181818;stroke-width:0.5;" width="65" x="464.5" y="5"/><text fill="#000000" font-family="sans-serif" font-size="14" lengthAdjust="spacing" textLength="46" x="474" y="26.5332">agency</text><text fill="#000000" font-family="sans-serif" font-size="14" lengthAdjust="spacing" textLength="51" x="471.5" y="44.1426">:Agency</text><rect fill="#E3E3E3" height="49.2188" rx="2.5" ry="2.5" style="stroke:#181818;stroke-width:0.5;" width="65" x="464.5" y="1232.6406"/><text fill="#000000" font-family="sans-serif" font-size="14" lengthAdjust="spacing" textLength="46" x="474" y="1254.1738">agency</text><text fill="#000000" font-family="sans-serif" font-size="14" lengthAdjust="spacing" textLength="51" x="471.5" y="1271.7832">:Agency</text><rect fill="#E3E3E3" height="49.2188" rx="2.5" ry="2.5" style="stroke:#181818;stroke-width:0.5;" width="71" x="1010" y="1232.6406"/><text fill="#000000" font-family="sans-serif" font-size="14" lengthAdjust="spacing" textLength="48" x="1021.5" y="1254.1738">request</text><text fill="#000000" font-family="sans-serif" font-size="14" lengthAdjust="spacing" textLength="57" x="1017" y="1271.7832">:Request</text><rect fill="#E3E3E3" height="49.2188" rx="2.5" ry="2.5" style="stroke:#181818;stroke-width:0.5;" width="72" x="1427.5" y="1232.6406"/><text fill="#000000" font-family="sans-serif" font-size="14" lengthAdjust="spacing" textLength="53" x="1437" y="1254.1738">property</text><text fill="#000000" font-family="sans-serif" font-size="14" lengthAdjust="spacing" textLength="58" x="1434.5" y="1271.7832">:Property</text><rect fill="#E3E3E3" height="49.2188" rx="2.5" ry="2.5" style="stroke:#181818;stroke-width:0.5;" width="85" x="1509.5" y="1232.6406"/><text fill="#000000" font-family="sans-serif" font-size="14" lengthAdjust="spacing" textLength="62" x="1521" y="1254.1738">residence</text><text fill="#000000" font-family="sans-serif" font-size="14" lengthAdjust="spacing" textLength="71" x="1516.5" y="1271.7832">:Residence</text><rect fill="#E3E3E3" height="49.2188" rx="2.5" ry="2.5" style="stroke:#181818;stroke-width:0.5;" width="58" x="1604.5" y="1232.6406"/><text fill="#000000" font-family="sans-serif" font-size="14" lengthAdjust="spacing" textLength="39" x="1614" y="1254.1738">house</text><text fill="#000000" font-family="sans-serif" font-size="14" lengthAdjust="spacing" textLength="44" x="1611.5" y="1271.7832">:House</text><rect fill="#E3E3E3" height="49.2188" rx="2.5" ry="2.5" style="stroke:#181818;stroke-width:0.5;" width="72" x="2019.5" y="1232.6406"/><text fill="#000000" font-family="sans-serif" font-size="14" lengthAdjust="spacing" textLength="49" x="2031" y="1254.1738">location</text><text fill="#000000" font-family="sans-serif" font-size="14" lengthAdjust="spacing" textLength="58" x="2026.5" y="1271.7832">:Location</text><rect fill="#FFFFFF" height="1079.0156" style="stroke:#181818;stroke-width:1.0;" width="10" x="492" y="136.625"/><rect fill="#FFFFFF" height="128.0547" style="stroke:#181818;stroke-width:1.0;" width="10" x="497" y="1018.2344"/><rect fill="#FFFFFF" height="41.3516" style="stroke:#181818;stroke-width:1.0;" width="10" x="502" y="1061.5859"/><rect fill="#FFFFFF" height="703.5" style="stroke:#181818;stroke-width:1.0;" width="10" x="1040.5" y="251.3828"/><rect fill="#FFFFFF" height="41.3516" style="stroke:#181818;stroke-width:1.0;" width="10" x="1045.5" y="851.1797"/><rect fill="#FFFFFF" height="94.0859" style="stroke:#181818;stroke-width:1.0;" width="10" x="1458.5" y="323.4375"/><rect fill="#FFFFFF" height="80.5703" style="stroke:#181818;stroke-width:1.0;" width="10" x="1547" y="522.9297"/><rect fill="#FFFFFF" height="80.5703" style="stroke:#181818;stroke-width:1.0;" width="10" x="1628.5" y="725.2578"/><polygon fill="#181818" points="480,132.625,490,136.625,480,140.625,484,136.625" style="stroke:#181818;stroke-width:1.0;"/><line style="stroke:#181818;stroke-width:1.0;" x1="0" x2="486" y1="136.625" y2="136.625"/><text fill="#000000" font-family="sans-serif" font-size="13" font-weight="bold" lengthAdjust="spacing" textLength="14" x="7" y="107.2412">37</text><text fill="#000000" font-family="sans-serif" font-size="13" lengthAdjust="spacing" textLength="426" x="25" y="82.7139">createRequest(ownerEmail, propertyType,streetName, city, district, state,</text><text fill="#000000" font-family="sans-serif" font-size="13" lengthAdjust="spacing" textLength="383" x="25" y="99.0654">zipCode, distanceCityCenter, price, photograph,numberBedrooms,</text><text fill="#000000" font-family="sans-serif" font-size="13" lengthAdjust="spacing" textLength="455" x="25" y="115.417">numberParkingSpaces,existenceBasement,inhabitableLoft, numberBathrooms,</text><text fill="#000000" font-family="sans-serif" font-size="13" lengthAdjust="spacing" textLength="228" x="29" y="131.7686">availableEquipment, sunExposure,area)</text><path d="M454.5,151.625 L596.5,151.625 L596.5,159.9766 L586.5,169.9766 L454.5,169.9766 L454.5,151.625 " fill="#EEEEEE" style="stroke:#000000;stroke-width:1.5;"/><rect fill="none" height="1034.6641" style="stroke:#000000;stroke-width:1.5;" width="1657" x="454.5" y="151.625"/><text fill="#000000" font-family="sans-serif" font-size="13" font-weight="bold" lengthAdjust="spacing" textLength="97" x="469.5" y="166.1201">Create Request</text><polygon fill="#181818" points="998,237.3828,1008,241.3828,998,245.3828,1002,241.3828" style="stroke:#181818;stroke-width:1.0;"/><line style="stroke:#181818;stroke-width:1.0;" x1="502" x2="1004" y1="241.3828" y2="241.3828"/><text fill="#000000" font-family="sans-serif" font-size="13" font-weight="bold" lengthAdjust="spacing" textLength="25" x="509" y="211.999">37.1</text><text fill="#000000" font-family="sans-serif" font-size="13" lengthAdjust="spacing" textLength="426" x="538" y="187.4717">createRequest(ownerEmail, propertyType,streetName, city, district, state,</text><text fill="#000000" font-family="sans-serif" font-size="13" lengthAdjust="spacing" textLength="383" x="538" y="203.8232">zipCode, distanceCityCenter, price, photograph,numberBedrooms,</text><text fill="#000000" font-family="sans-serif" font-size="13" lengthAdjust="spacing" textLength="455" x="538" y="220.1748">numberParkingSpaces,existenceBasement,inhabitableLoft, numberBathrooms,</text><text fill="#000000" font-family="sans-serif" font-size="13" lengthAdjust="spacing" textLength="228" x="542" y="236.5264">availableEquipment, sunExposure,area)</text><rect fill="#E3E3E3" height="49.2188" rx="2.5" ry="2.5" style="stroke:#181818;stroke-width:0.5;" width="71" x="1010" y="189.1641"/><text fill="#000000" font-family="sans-serif" font-size="14" lengthAdjust="spacing" textLength="48" x="1021.5" y="210.6973">request</text><text fill="#000000" font-family="sans-serif" font-size="14" lengthAdjust="spacing" textLength="57" x="1017" y="228.3066">:Request</text><path d="M1000,256.3828 L1061,256.3828 L1061,264.7344 L1051,274.7344 L1000,274.7344 L1000,256.3828 " fill="#EEEEEE" style="stroke:#000000;stroke-width:1.5;"/><rect fill="none" height="169.1406" style="stroke:#000000;stroke-width:1.5;" width="1101.5" x="1000" y="256.3828"/><text fill="#000000" font-family="sans-serif" font-size="13" font-weight="bold" lengthAdjust="spacing" textLength="16" x="1015" y="270.8779">alt</text><text fill="#000000" font-family="sans-serif" font-size="11" font-weight="bold" lengthAdjust="spacing" textLength="118" x="1076" y="269.8018">[propertyType = land]</text><polygon fill="#181818" points="1415.5,309.4375,1425.5,313.4375,1415.5,317.4375,1419.5,313.4375" style="stroke:#181818;stroke-width:1.0;"/><line style="stroke:#181818;stroke-width:1.0;" x1="1050.5" x2="1421.5" y1="313.4375" y2="313.4375"/><text fill="#000000" font-family="sans-serif" font-size="13" font-weight="bold" lengthAdjust="spacing" textLength="25" x="1057.5" y="300.4053">37.2</text><text fill="#000000" font-family="sans-serif" font-size="13" lengthAdjust="spacing" textLength="324" x="1086.5" y="292.2295">createProperty(streetName, city, district, state,zipCode,</text><text fill="#000000" font-family="sans-serif" font-size="13" lengthAdjust="spacing" textLength="255" x="1090.5" y="308.5811">distanceCityCenter, area, price, photograph)</text><rect fill="#E3E3E3" height="49.2188" rx="2.5" ry="2.5" style="stroke:#181818;stroke-width:0.5;" width="72" x="1427.5" y="274.7344"/><text fill="#000000" font-family="sans-serif" font-size="14" lengthAdjust="spacing" textLength="53" x="1437" y="296.2676">property</text><text fill="#000000" font-family="sans-serif" font-size="14" lengthAdjust="spacing" textLength="58" x="1434.5" y="313.877">:Property</text><polygon fill="#181818" points="2007.5,353.3047,2017.5,357.3047,2007.5,361.3047,2011.5,357.3047" style="stroke:#181818;stroke-width:1.0;"/><line style="stroke:#181818;stroke-width:1.0;" x1="1468.5" x2="2013.5" y1="357.3047" y2="357.3047"/><text fill="#000000" font-family="sans-serif" font-size="13" font-weight="bold" lengthAdjust="spacing" textLength="25" x="1475.5" y="352.4482">37.3</text><text fill="#000000" font-family="sans-serif" font-size="13" lengthAdjust="spacing" textLength="328" x="1504.5" y="352.4482">createLocation(streetName, city, district, state, zipCode)</text><rect fill="#E3E3E3" height="49.2188" rx="2.5" ry="2.5" style="stroke:#181818;stroke-width:0.5;" width="72" x="2019.5" y="334.9531"/><text fill="#000000" font-family="sans-serif" font-size="14" lengthAdjust="spacing" textLength="49" x="2031" y="356.4863">location</text><text fill="#000000" font-family="sans-serif" font-size="14" lengthAdjust="spacing" textLength="58" x="2026.5" y="374.0957">:Location</text><polygon fill="#181818" points="1061.5,413.5234,1051.5,417.5234,1061.5,421.5234,1057.5,417.5234" style="stroke:#181818;stroke-width:1.0;"/><line style="stroke:#181818;stroke-width:1.0;stroke-dasharray:2.0,2.0;" x1="1055.5" x2="1462.5" y1="417.5234" y2="417.5234"/><text fill="#000000" font-family="sans-serif" font-size="13" font-weight="bold" lengthAdjust="spacing" textLength="25" x="1067.5" y="412.667">37.4</text><text fill="#000000" font-family="sans-serif" font-size="13" lengthAdjust="spacing" textLength="47" x="1096.5" y="412.667">property</text><path d="M1000,439.5234 L1061,439.5234 L1061,447.875 L1051,457.875 L1000,457.875 L1000,439.5234 " fill="#EEEEEE" style="stroke:#000000;stroke-width:1.5;"/><rect fill="none" height="171.9766" style="stroke:#000000;stroke-width:1.5;" width="1101.5" x="1000" y="439.5234"/><text fill="#000000" font-family="sans-serif" font-size="13" font-weight="bold" lengthAdjust="spacing" textLength="16" x="1015" y="454.0186">alt</text><text fill="#000000" font-family="sans-serif" font-size="11" font-weight="bold" lengthAdjust="spacing" textLength="152" x="1076" y="452.9424">[propertyType = apartment]</text><polygon fill="#181818" points="1497.5,508.9297,1507.5,512.9297,1497.5,516.9297,1501.5,512.9297" style="stroke:#181818;stroke-width:1.0;"/><line style="stroke:#181818;stroke-width:1.0;" x1="1050.5" x2="1503.5" y1="512.9297" y2="512.9297"/><text fill="#000000" font-family="sans-serif" font-size="13" font-weight="bold" lengthAdjust="spacing" textLength="25" x="1057.5" y="491.7217">37.5</text><text fill="#000000" font-family="sans-serif" font-size="13" lengthAdjust="spacing" textLength="336" x="1086.5" y="475.3701">createResidence(streetName, city, district, state,zipCode,</text><text fill="#000000" font-family="sans-serif" font-size="13" lengthAdjust="spacing" textLength="361" x="1086.5" y="491.7217">distanceCityCenter, area, price, photograph,numberBedrooms,</text><text fill="#000000" font-family="sans-serif" font-size="13" lengthAdjust="spacing" textLength="360" x="1086.5" y="508.0732">numberParkingSpaces,numberBathrooms,availableEquipment)</text><rect fill="#E3E3E3" height="49.2188" rx="2.5" ry="2.5" style="stroke:#181818;stroke-width:0.5;" width="85" x="1509.5" y="460.7109"/><text fill="#000000" font-family="sans-serif" font-size="14" lengthAdjust="spacing" textLength="62" x="1521" y="482.2441">residence</text><text fill="#000000" font-family="sans-serif" font-size="14" lengthAdjust="spacing" textLength="71" x="1516.5" y="499.8535">:Residence</text><polygon fill="#181818" points="2007.5,539.2813,2017.5,543.2813,2007.5,547.2813,2011.5,543.2813" style="stroke:#181818;stroke-width:1.0;"/><line style="stroke:#181818;stroke-width:1.0;" x1="1557" x2="2013.5" y1="543.2813" y2="543.2813"/><text fill="#000000" font-family="sans-serif" font-size="13" font-weight="bold" lengthAdjust="spacing" textLength="25" x="1564" y="538.4248">37.6</text><text fill="#000000" font-family="sans-serif" font-size="13" lengthAdjust="spacing" textLength="328" x="1593" y="538.4248">createLocation(streetName, city, district, state, zipCode)</text><rect fill="#E3E3E3" height="49.2188" rx="2.5" ry="2.5" style="stroke:#181818;stroke-width:0.5;" width="72" x="2019.5" y="520.9297"/><text fill="#000000" font-family="sans-serif" font-size="14" lengthAdjust="spacing" textLength="49" x="2031" y="542.4629">location</text><text fill="#000000" font-family="sans-serif" font-size="14" lengthAdjust="spacing" textLength="58" x="2026.5" y="560.0723">:Location</text><polygon fill="#181818" points="1061.5,599.5,1051.5,603.5,1061.5,607.5,1057.5,603.5" style="stroke:#181818;stroke-width:1.0;"/><line style="stroke:#181818;stroke-width:1.0;stroke-dasharray:2.0,2.0;" x1="1055.5" x2="1551" y1="603.5" y2="603.5"/><text fill="#000000" font-family="sans-serif" font-size="13" font-weight="bold" lengthAdjust="spacing" textLength="25" x="1067.5" y="598.6436">37.7</text><text fill="#000000" font-family="sans-serif" font-size="13" lengthAdjust="spacing" textLength="47" x="1096.5" y="598.6436">property</text><path d="M1000,625.5 L1061,625.5 L1061,633.8516 L1051,643.8516 L1000,643.8516 L1000,625.5 " fill="#EEEEEE" style="stroke:#000000;stroke-width:1.5;"/><rect fill="none" height="188.3281" style="stroke:#000000;stroke-width:1.5;" width="1101.5" x="1000" y="625.5"/><text fill="#000000" font-family="sans-serif" font-size="13" font-weight="bold" lengthAdjust="spacing" textLength="16" x="1015" y="639.9951">alt</text><text fill="#000000" font-family="sans-serif" font-size="11" font-weight="bold" lengthAdjust="spacing" textLength="130" x="1076" y="638.9189">[propertyType = house]</text><polygon fill="#181818" points="1592.5,711.2578,1602.5,715.2578,1592.5,719.2578,1596.5,715.2578" style="stroke:#181818;stroke-width:1.0;"/><line style="stroke:#181818;stroke-width:1.0;" x1="1050.5" x2="1598.5" y1="715.2578" y2="715.2578"/><text fill="#000000" font-family="sans-serif" font-size="13" font-weight="bold" lengthAdjust="spacing" textLength="25" x="1057.5" y="685.874">37.8</text><text fill="#000000" font-family="sans-serif" font-size="13" lengthAdjust="spacing" textLength="336" x="1086.5" y="661.3467">createResidence(streetName, city, district, state,zipCode,</text><text fill="#000000" font-family="sans-serif" font-size="13" lengthAdjust="spacing" textLength="361" x="1086.5" y="677.6982">distanceCityCenter, area, price, photograph,numberBedrooms,</text><text fill="#000000" font-family="sans-serif" font-size="13" lengthAdjust="spacing" textLength="360" x="1086.5" y="694.0498">numberParkingSpaces,numberBathrooms,availableEquipment,</text><text fill="#000000" font-family="sans-serif" font-size="13" lengthAdjust="spacing" textLength="286" x="1086.5" y="710.4014">existenceBasement,inhabitableLoft,sunExposure)</text><rect fill="#E3E3E3" height="49.2188" rx="2.5" ry="2.5" style="stroke:#181818;stroke-width:0.5;" width="58" x="1604.5" y="663.0391"/><text fill="#000000" font-family="sans-serif" font-size="14" lengthAdjust="spacing" textLength="39" x="1614" y="684.5723">house</text><text fill="#000000" font-family="sans-serif" font-size="14" lengthAdjust="spacing" textLength="44" x="1611.5" y="702.1816">:House</text><polygon fill="#181818" points="2007.5,741.6094,2017.5,745.6094,2007.5,749.6094,2011.5,745.6094" style="stroke:#181818;stroke-width:1.0;"/><line style="stroke:#181818;stroke-width:1.0;" x1="1638.5" x2="2013.5" y1="745.6094" y2="745.6094"/><text fill="#000000" font-family="sans-serif" font-size="13" font-weight="bold" lengthAdjust="spacing" textLength="25" x="1645.5" y="740.7529">37.9</text><text fill="#000000" font-family="sans-serif" font-size="13" lengthAdjust="spacing" textLength="328" x="1674.5" y="740.7529">createLocation(streetName, city, district, state, zipCode)</text><rect fill="#E3E3E3" height="49.2188" rx="2.5" ry="2.5" style="stroke:#181818;stroke-width:0.5;" width="72" x="2019.5" y="723.2578"/><text fill="#000000" font-family="sans-serif" font-size="14" lengthAdjust="spacing" textLength="49" x="2031" y="744.791">location</text><text fill="#000000" font-family="sans-serif" font-size="14" lengthAdjust="spacing" textLength="58" x="2026.5" y="762.4004">:Location</text><polygon fill="#181818" points="1061.5,801.8281,1051.5,805.8281,1061.5,809.8281,1057.5,805.8281" style="stroke:#181818;stroke-width:1.0;"/><line style="stroke:#181818;stroke-width:1.0;stroke-dasharray:2.0,2.0;" x1="1055.5" x2="1632.5" y1="805.8281" y2="805.8281"/><text fill="#000000" font-family="sans-serif" font-size="13" font-weight="bold" lengthAdjust="spacing" textLength="32" x="1067.5" y="800.9717">37.10</text><text fill="#000000" font-family="sans-serif" font-size="13" lengthAdjust="spacing" textLength="47" x="1103.5" y="800.9717">property</text><line style="stroke:#181818;stroke-width:1.0;" x1="1050.5" x2="1097.5" y1="838.1797" y2="838.1797"/><line style="stroke:#181818;stroke-width:1.0;" x1="1097.5" x2="1097.5" y1="838.1797" y2="851.1797"/><line style="stroke:#181818;stroke-width:1.0;" x1="1056.5" x2="1097.5" y1="851.1797" y2="851.1797"/><polygon fill="#181818" points="1066.5,847.1797,1056.5,851.1797,1066.5,855.1797,1062.5,851.1797" style="stroke:#181818;stroke-width:1.0;"/><text fill="#000000" font-family="sans-serif" font-size="13" font-weight="bold" lengthAdjust="spacing" textLength="32" x="1062.5" y="833.3232">37.11</text><text fill="#000000" font-family="sans-serif" font-size="13" lengthAdjust="spacing" textLength="95" x="1098.5" y="833.3232">getCurrentDate()</text><line style="stroke:#181818;stroke-width:1.0;stroke-dasharray:2.0,2.0;" x1="1055.5" x2="1097.5" y1="891.5313" y2="891.5313"/><line style="stroke:#181818;stroke-width:1.0;stroke-dasharray:2.0,2.0;" x1="1097.5" x2="1097.5" y1="891.5313" y2="904.5313"/><line style="stroke:#181818;stroke-width:1.0;stroke-dasharray:2.0,2.0;" x1="1050.5" x2="1097.5" y1="904.5313" y2="904.5313"/><polygon fill="#181818" points="1060.5,900.5313,1050.5,904.5313,1060.5,908.5313,1056.5,904.5313" style="stroke:#181818;stroke-width:1.0;"/><text fill="#000000" font-family="sans-serif" font-size="13" font-weight="bold" lengthAdjust="spacing" textLength="32" x="1062.5" y="886.6748">37.12</text><text fill="#000000" font-family="sans-serif" font-size="13" lengthAdjust="spacing" textLength="4" x="1098.5" y="886.6748"> </text><polygon fill="#181818" points="513,950.8828,503,954.8828,513,958.8828,509,954.8828" style="stroke:#181818;stroke-width:1.0;"/><line style="stroke:#181818;stroke-width:1.0;stroke-dasharray:2.0,2.0;" x1="507" x2="1044.5" y1="954.8828" y2="954.8828"/><text fill="#000000" font-family="sans-serif" font-size="13" font-weight="bold" lengthAdjust="spacing" textLength="32" x="519" y="950.0264">37.13</text><text fill="#000000" font-family="sans-serif" font-size="13" lengthAdjust="spacing" textLength="43" x="555" y="950.0264">request</text><line style="stroke:#181818;stroke-width:1.0;" x1="502" x2="549" y1="1005.2344" y2="1005.2344"/><line style="stroke:#181818;stroke-width:1.0;" x1="549" x2="549" y1="1005.2344" y2="1018.2344"/><line style="stroke:#181818;stroke-width:1.0;" x1="508" x2="549" y1="1018.2344" y2="1018.2344"/><polygon fill="#181818" points="518,1014.2344,508,1018.2344,518,1022.2344,514,1018.2344" style="stroke:#181818;stroke-width:1.0;"/><text fill="#000000" font-family="sans-serif" font-size="13" font-weight="bold" lengthAdjust="spacing" textLength="32" x="514" y="1000.3779">37.14</text><text fill="#000000" font-family="sans-serif" font-size="13" lengthAdjust="spacing" textLength="120" x="550" y="1000.3779">addRequest(request)</text><line style="stroke:#181818;stroke-width:1.0;" x1="507" x2="554" y1="1048.5859" y2="1048.5859"/><line style="stroke:#181818;stroke-width:1.0;" x1="554" x2="554" y1="1048.5859" y2="1061.5859"/><line style="stroke:#181818;stroke-width:1.0;" x1="513" x2="554" y1="1061.5859" y2="1061.5859"/><polygon fill="#181818" points="523,1057.5859,513,1061.5859,523,1065.5859,519,1061.5859" style="stroke:#181818;stroke-width:1.0;"/><text fill="#000000" font-family="sans-serif" font-size="13" font-weight="bold" lengthAdjust="spacing" textLength="32" x="519" y="1043.7295">37.15</text><text fill="#000000" font-family="sans-serif" font-size="13" lengthAdjust="spacing" textLength="142" x="555" y="1043.7295">validateRequest(request)</text><line style="stroke:#181818;stroke-width:1.0;stroke-dasharray:2.0,2.0;" x1="512" x2="554" y1="1101.9375" y2="1101.9375"/><line style="stroke:#181818;stroke-width:1.0;stroke-dasharray:2.0,2.0;" x1="554" x2="554" y1="1101.9375" y2="1114.9375"/><line style="stroke:#181818;stroke-width:1.0;stroke-dasharray:2.0,2.0;" x1="507" x2="554" y1="1114.9375" y2="1114.9375"/><polygon fill="#181818" points="517,1110.9375,507,1114.9375,517,1118.9375,513,1114.9375" style="stroke:#181818;stroke-width:1.0;"/><text fill="#000000" font-family="sans-serif" font-size="13" font-weight="bold" lengthAdjust="spacing" textLength="32" x="519" y="1097.0811">37.16</text><text fill="#000000" font-family="sans-serif" font-size="13" lengthAdjust="spacing" textLength="4" x="555" y="1097.0811"> </text><line style="stroke:#181818;stroke-width:1.0;stroke-dasharray:2.0,2.0;" x1="507" x2="549" y1="1145.2891" y2="1145.2891"/><line style="stroke:#181818;stroke-width:1.0;stroke-dasharray:2.0,2.0;" x1="549" x2="549" y1="1145.2891" y2="1158.2891"/><line style="stroke:#181818;stroke-width:1.0;stroke-dasharray:2.0,2.0;" x1="502" x2="549" y1="1158.2891" y2="1158.2891"/><polygon fill="#181818" points="512,1154.2891,502,1158.2891,512,1162.2891,508,1158.2891" style="stroke:#181818;stroke-width:1.0;"/><text fill="#000000" font-family="sans-serif" font-size="13" font-weight="bold" lengthAdjust="spacing" textLength="32" x="514" y="1140.4326">37.17</text><text fill="#000000" font-family="sans-serif" font-size="13" lengthAdjust="spacing" textLength="4" x="550" y="1140.4326"> </text><polygon fill="#181818" points="11,1211.6406,1,1215.6406,11,1219.6406,7,1215.6406" style="stroke:#181818;stroke-width:1.0;"/><line style="stroke:#181818;stroke-width:1.0;stroke-dasharray:2.0,2.0;" x1="5" x2="496" y1="1215.6406" y2="1215.6406"/><text fill="#000000" font-family="sans-serif" font-size="13" font-weight="bold" lengthAdjust="spacing" textLength="14" x="17" y="1210.7842">38</text><text fill="#000000" font-family="sans-serif" font-size="13" lengthAdjust="spacing" textLength="43" x="35" y="1210.7842">request</text><!--SRC=[xLP1Jzim5BxdLrYSe0gJfXqseMqIX6WW8TgrvJ29ooDvIomIEzWEq8aVFpknKuUafJrmc3HVwiQVl_VUzzwpBUyfgq10IKhEU98BNY9HeiP0TYiL9FUGuKAj2YG24mKiAto0p27bJvHbv3SK4eD0VrOqeHKmHGxqLfQiRjd9QJCv8239wO_uElhLnmbyg54g3PotimOvZt_Un8jb7re9Ng5GXdHcfmruDf_EulboG2nfgarZGstdbdnnUQuzYViRSbvB0xumlmtmOdgpU0KgU0AASgPnLtRQGA-cqUdoSdeT107KYhEwl4D1FdqE0cB7yNSR_mb918926-yXVs8euX9e4H8Nud9LOIYLG5JNK6984gfM8Kcf_aOJ5HAfD4Duo_xGAk8fjakW8umqC4AcK1WsckYbAkUAPmAgF6pzEiDKS5vAlR_zC0EXqvejTCvHXlYikOnQPo2nr5mXPJdSKGLt1LxntzgyvG6LEo82Zpe2WuWVQbersuYiMVnSSLaB3447VTIfGI1Hz577u8gYBzk7ZwrmcU1rHQ96Bs85MqlQRZNAsdeXayb_TNrnNHzr2uNggK2-aG9OkawB7KvFBQthhic4E6rTzns-hQ5JK8Smfg5nUqJ9eu53NKHTimyWRiKuxThHSzgrwmvE4-lrqJOZNjMTT9eEy2bkyHmzvKSo0-RaCQdUbfxkCFD2xOwxlHAqHtvsg_JNPJoiuIrvNX_I8z7RfNVDj6TbxrIFEFz6hflBPrkUcxleNyontlZsaUSTPIEfw7HjB-JNwytNTwq5Qs7lEcZz7Ik1GHSxsWnLL0kXHJhN38Vz3XcSw-DyFc6miKJxDuCPBoylcndTuyK-sFRbzV-lxsr72cdgBcpBl-Lei2y6CZA6p8zGqDHx3soatzM4RwQpCuhqL76FdDt8Dcdh6tEQcgBglPs-TBk_7XzlpDg8Rty1]--></g></svg>