<?xml version="1.0" encoding="UTF-8" standalone="no"?><svg xmlns="http://www.w3.org/2000/svg" xmlns:xlink="http://www.w3.org/1999/xlink" contentStyleType="text/css" height="1718px" preserveAspectRatio="none" style="width:2544px;height:1718px;background:#FFFFFF;" version="1.1" viewBox="0 0 2544 1718" width="2544px" zoomAndPan="magnify"><defs/><g><rect fill="#FFFFFF" height="1509.2813" style="stroke:#181818;stroke-width:1.0;" width="10" x="541" y="136.625"/><rect fill="#FFFFFF" height="128.0547" style="stroke:#181818;stroke-width:1.0;" width="10" x="546" y="1448.5"/><rect fill="#FFFFFF" height="41.3516" style="stroke:#181818;stroke-width:1.0;" width="10" x="551" y="1491.8516"/><rect fill="#FFFFFF" height="1133.7656" style="stroke:#181818;stroke-width:1.0;" width="10" x="1089.5" y="251.3828"/><rect fill="#FFFFFF" height="274.7422" style="stroke:#181818;stroke-width:1.0;" width="10" x="1539.5" y="323.4375"/><rect fill="#FFFFFF" height="261.2266" style="stroke:#181818;stroke-width:1.0;" width="10" x="1628" y="703.5859"/><rect fill="#FFFFFF" height="261.2266" style="stroke:#181818;stroke-width:1.0;" width="10" x="1709.5" y="1086.5703"/><rect fill="none" height="1464.9297" style="stroke:#000000;stroke-width:1.5;" width="2035" x="503.5" y="151.625"/><rect fill="none" height="349.7969" style="stroke:#000000;stroke-width:1.5;" width="1479.5" x="1049" y="256.3828"/><rect fill="none" height="352.6328" style="stroke:#000000;stroke-width:1.5;" width="1479.5" x="1049" y="620.1797"/><rect fill="none" height="368.9844" style="stroke:#000000;stroke-width:1.5;" width="1479.5" x="1049" y="986.8125"/><line style="stroke:#181818;stroke-width:0.5;stroke-dasharray:5.0,5.0;" x1="545.5" x2="545.5" y1="55.2188" y2="1663.9063"/><line style="stroke:#181818;stroke-width:0.5;stroke-dasharray:5.0,5.0;" x1="1094" x2="1094" y1="219.6797" y2="1663.9063"/><line style="stroke:#181818;stroke-width:0.5;stroke-dasharray:5.0,5.0;" x1="1544.5" x2="1544.5" y1="314.8438" y2="1663.9063"/><line style="stroke:#181818;stroke-width:0.5;stroke-dasharray:5.0,5.0;" x1="1632.5" x2="1632.5" y1="680.0586" y2="1663.9063"/><line style="stroke:#181818;stroke-width:0.5;stroke-dasharray:5.0,5.0;" x1="1714.5" x2="1714.5" y1="1054.8672" y2="1663.9063"/><line style="stroke:#181818;stroke-width:0.5;stroke-dasharray:5.0,5.0;" x1="2143.5" x2="2143.5" y1="1124.6797" y2="1663.9063"/><line style="stroke:#181818;stroke-width:0.5;stroke-dasharray:5.0,5.0;" x1="2260.5" x2="2260.5" y1="1305.3359" y2="1663.9063"/><line style="stroke:#181818;stroke-width:0.5;stroke-dasharray:5.0,5.0;" x1="2387.5" x2="2387.5" y1="1245.1172" y2="1663.9063"/><line style="stroke:#181818;stroke-width:0.5;stroke-dasharray:5.0,5.0;" x1="2480.5" x2="2480.5" y1="1184.8984" y2="1663.9063"/><rect fill="#E3E3E3" height="49.2188" rx="2.5" ry="2.5" style="stroke:#181818;stroke-width:0.5;" width="65" x="513.5" y="5"/><text fill="#000000" font-family="sans-serif" font-size="14" lengthAdjust="spacing" textLength="46" x="523" y="26.5332">agency</text><text fill="#000000" font-family="sans-serif" font-size="14" lengthAdjust="spacing" textLength="51" x="520.5" y="44.1426">:Agency</text><rect fill="#E3E3E3" height="49.2188" rx="2.5" ry="2.5" style="stroke:#181818;stroke-width:0.5;" width="65" x="513.5" y="1662.9063"/><text fill="#000000" font-family="sans-serif" font-size="14" lengthAdjust="spacing" textLength="46" x="523" y="1684.4395">agency</text><text fill="#000000" font-family="sans-serif" font-size="14" lengthAdjust="spacing" textLength="51" x="520.5" y="1702.0488">:Agency</text><rect fill="#E3E3E3" height="49.2188" rx="2.5" ry="2.5" style="stroke:#181818;stroke-width:0.5;" width="71" x="1059" y="1662.9063"/><text fill="#000000" font-family="sans-serif" font-size="14" lengthAdjust="spacing" textLength="48" x="1070.5" y="1684.4395">request</text><text fill="#000000" font-family="sans-serif" font-size="14" lengthAdjust="spacing" textLength="57" x="1066" y="1702.0488">:Request</text><rect fill="#E3E3E3" height="49.2188" rx="2.5" ry="2.5" style="stroke:#181818;stroke-width:0.5;" width="72" x="1508.5" y="1662.9063"/><text fill="#000000" font-family="sans-serif" font-size="14" lengthAdjust="spacing" textLength="53" x="1518" y="1684.4395">property</text><text fill="#000000" font-family="sans-serif" font-size="14" lengthAdjust="spacing" textLength="58" x="1515.5" y="1702.0488">:Property</text><rect fill="#E3E3E3" height="49.2188" rx="2.5" ry="2.5" style="stroke:#181818;stroke-width:0.5;" width="85" x="1590.5" y="1662.9063"/><text fill="#000000" font-family="sans-serif" font-size="14" lengthAdjust="spacing" textLength="62" x="1602" y="1684.4395">residence</text><text fill="#000000" font-family="sans-serif" font-size="14" lengthAdjust="spacing" textLength="71" x="1597.5" y="1702.0488">:Residence</text><rect fill="#E3E3E3" height="49.2188" rx="2.5" ry="2.5" style="stroke:#181818;stroke-width:0.5;" width="58" x="1685.5" y="1662.9063"/><text fill="#000000" font-family="sans-serif" font-size="14" lengthAdjust="spacing" textLength="39" x="1695" y="1684.4395">house</text><text fill="#000000" font-family="sans-serif" font-size="14" lengthAdjust="spacing" textLength="44" x="1692.5" y="1702.0488">:House</text><rect fill="#E3E3E3" height="49.2188" rx="2.5" ry="2.5" style="stroke:#181818;stroke-width:0.5;" width="72" x="2107.5" y="1662.9063"/><text fill="#000000" font-family="sans-serif" font-size="14" lengthAdjust="spacing" textLength="49" x="2119" y="1684.4395">location</text><text fill="#000000" font-family="sans-serif" font-size="14" lengthAdjust="spacing" textLength="58" x="2114.5" y="1702.0488">:Location</text><rect fill="#E3E3E3" height="49.2188" rx="2.5" ry="2.5" style="stroke:#181818;stroke-width:0.5;" width="142" x="2189.5" y="1662.9063"/><text fill="#000000" font-family="sans-serif" font-size="14" lengthAdjust="spacing" textLength="123" x="2199" y="1684.4395">availableEquipment</text><text fill="#000000" font-family="sans-serif" font-size="14" lengthAdjust="spacing" textLength="128" x="2196.5" y="1702.0488">:AvailableEquipment</text><rect fill="#E3E3E3" height="49.2188" rx="2.5" ry="2.5" style="stroke:#181818;stroke-width:0.5;" width="92" x="2341.5" y="1662.9063"/><text fill="#000000" font-family="sans-serif" font-size="14" lengthAdjust="spacing" textLength="73" x="2351" y="1684.4395">photograph</text><text fill="#000000" font-family="sans-serif" font-size="14" lengthAdjust="spacing" textLength="78" x="2348.5" y="1702.0488">:Photograph</text><rect fill="#E3E3E3" height="49.2188" rx="2.5" ry="2.5" style="stroke:#181818;stroke-width:0.5;" width="75" x="2443.5" y="1662.9063"/><text fill="#000000" font-family="sans-serif" font-size="14" lengthAdjust="spacing" textLength="56" x="2453" y="1684.4395">business</text><text fill="#000000" font-family="sans-serif" font-size="14" lengthAdjust="spacing" textLength="61" x="2450.5" y="1702.0488">:Business</text><rect fill="#FFFFFF" height="1509.2813" style="stroke:#181818;stroke-width:1.0;" width="10" x="541" y="136.625"/><rect fill="#FFFFFF" height="128.0547" style="stroke:#181818;stroke-width:1.0;" width="10" x="546" y="1448.5"/><rect fill="#FFFFFF" height="41.3516" style="stroke:#181818;stroke-width:1.0;" width="10" x="551" y="1491.8516"/><rect fill="#FFFFFF" height="1133.7656" style="stroke:#181818;stroke-width:1.0;" width="10" x="1089.5" y="251.3828"/><rect fill="#FFFFFF" height="274.7422" style="stroke:#181818;stroke-width:1.0;" width="10" x="1539.5" y="323.4375"/><rect fill="#FFFFFF" height="261.2266" style="stroke:#181818;stroke-width:1.0;" width="10" x="1628" y="703.5859"/><rect fill="#FFFFFF" height="261.2266" style="stroke:#181818;stroke-width:1.0;" width="10" x="1709.5" y="1086.5703"/><polygon fill="#181818" points="529,132.625,539,136.625,529,140.625,533,136.625" style="stroke:#181818;stroke-width:1.0;"/><line style="stroke:#181818;stroke-width:1.0;" x1="0" x2="535" y1="136.625" y2="136.625"/><text fill="#000000" font-family="sans-serif" font-size="13" font-weight="bold" lengthAdjust="spacing" textLength="14" x="7" y="107.2412">42</text><text fill="#000000" font-family="sans-serif" font-size="13" lengthAdjust="spacing" textLength="504" x="25" y="82.7139">createRequest(agent,agency,ownerEmail,propertyType,streetName, city, district, state,</text><text fill="#000000" font-family="sans-serif" font-size="13" lengthAdjust="spacing" textLength="315" x="25" y="99.0654">zipCode, distanceCityCenter, price, numberBedrooms,</text><text fill="#000000" font-family="sans-serif" font-size="13" lengthAdjust="spacing" textLength="455" x="25" y="115.417">numberParkingSpaces,existenceBasement,inhabitableLoft, numberBathrooms,</text><text fill="#000000" font-family="sans-serif" font-size="13" lengthAdjust="spacing" textLength="284" x="29" y="131.7686">availableEquipmentList,uriList,sunExposure,area)</text><path d="M503.5,151.625 L645.5,151.625 L645.5,159.9766 L635.5,169.9766 L503.5,169.9766 L503.5,151.625 " fill="#EEEEEE" style="stroke:#000000;stroke-width:1.5;"/><rect fill="none" height="1464.9297" style="stroke:#000000;stroke-width:1.5;" width="2035" x="503.5" y="151.625"/><text fill="#000000" font-family="sans-serif" font-size="13" font-weight="bold" lengthAdjust="spacing" textLength="97" x="518.5" y="166.1201">Create Request</text><polygon fill="#181818" points="1047,237.3828,1057,241.3828,1047,245.3828,1051,241.3828" style="stroke:#181818;stroke-width:1.0;"/><line style="stroke:#181818;stroke-width:1.0;" x1="551" x2="1053" y1="241.3828" y2="241.3828"/><text fill="#000000" font-family="sans-serif" font-size="13" font-weight="bold" lengthAdjust="spacing" textLength="25" x="558" y="211.999">42.1</text><text fill="#000000" font-family="sans-serif" font-size="13" lengthAdjust="spacing" textLength="426" x="587" y="187.4717">createRequest(ownerEmail, propertyType,streetName, city, district, state,</text><text fill="#000000" font-family="sans-serif" font-size="13" lengthAdjust="spacing" textLength="311" x="587" y="203.8232">zipCode, distanceCityCenter, price,numberBedrooms,</text><text fill="#000000" font-family="sans-serif" font-size="13" lengthAdjust="spacing" textLength="455" x="587" y="220.1748">numberParkingSpaces,existenceBasement,inhabitableLoft, numberBathrooms,</text><text fill="#000000" font-family="sans-serif" font-size="13" lengthAdjust="spacing" textLength="284" x="591" y="236.5264">availableEquipmentList,uriList,sunExposure,area)</text><rect fill="#E3E3E3" height="49.2188" rx="2.5" ry="2.5" style="stroke:#181818;stroke-width:0.5;" width="71" x="1059" y="189.1641"/><text fill="#000000" font-family="sans-serif" font-size="14" lengthAdjust="spacing" textLength="48" x="1070.5" y="210.6973">request</text><text fill="#000000" font-family="sans-serif" font-size="14" lengthAdjust="spacing" textLength="57" x="1066" y="228.3066">:Request</text><path d="M1049,256.3828 L1110,256.3828 L1110,264.7344 L1100,274.7344 L1049,274.7344 L1049,256.3828 " fill="#EEEEEE" style="stroke:#000000;stroke-width:1.5;"/><rect fill="none" height="349.7969" style="stroke:#000000;stroke-width:1.5;" width="1479.5" x="1049" y="256.3828"/><text fill="#000000" font-family="sans-serif" font-size="13" font-weight="bold" lengthAdjust="spacing" textLength="16" x="1064" y="270.8779">alt</text><text fill="#000000" font-family="sans-serif" font-size="11" font-weight="bold" lengthAdjust="spacing" textLength="118" x="1125" y="269.8018">[propertyType = land]</text><polygon fill="#181818" points="1496.5,309.4375,1506.5,313.4375,1496.5,317.4375,1500.5,313.4375" style="stroke:#181818;stroke-width:1.0;"/><line style="stroke:#181818;stroke-width:1.0;" x1="1099.5" x2="1502.5" y1="313.4375" y2="313.4375"/><text fill="#000000" font-family="sans-serif" font-size="13" font-weight="bold" lengthAdjust="spacing" textLength="25" x="1106.5" y="300.4053">42.2</text><text fill="#000000" font-family="sans-serif" font-size="13" lengthAdjust="spacing" textLength="356" x="1135.5" y="292.2295">createProperty(price,streetName, city, district, state,zipCode,</text><text fill="#000000" font-family="sans-serif" font-size="13" lengthAdjust="spacing" textLength="190" x="1139.5" y="308.5811">distanceCityCenter, area, uriList)</text><rect fill="#E3E3E3" height="49.2188" rx="2.5" ry="2.5" style="stroke:#181818;stroke-width:0.5;" width="72" x="1508.5" y="274.7344"/><text fill="#000000" font-family="sans-serif" font-size="14" lengthAdjust="spacing" textLength="53" x="1518" y="296.2676">property</text><text fill="#000000" font-family="sans-serif" font-size="14" lengthAdjust="spacing" textLength="58" x="1515.5" y="313.877">:Property</text><polygon fill="#181818" points="2095.5,353.3047,2105.5,357.3047,2095.5,361.3047,2099.5,357.3047" style="stroke:#181818;stroke-width:1.0;"/><line style="stroke:#181818;stroke-width:1.0;" x1="1549.5" x2="2101.5" y1="357.3047" y2="357.3047"/><text fill="#000000" font-family="sans-serif" font-size="13" font-weight="bold" lengthAdjust="spacing" textLength="25" x="1556.5" y="352.4482">42.3</text><text fill="#000000" font-family="sans-serif" font-size="13" lengthAdjust="spacing" textLength="328" x="1585.5" y="352.4482">createLocation(streetName, city, district, state, zipCode)</text><rect fill="#E3E3E3" height="49.2188" rx="2.5" ry="2.5" style="stroke:#181818;stroke-width:0.5;" width="72" x="2107.5" y="334.9531"/><text fill="#000000" font-family="sans-serif" font-size="14" lengthAdjust="spacing" textLength="49" x="2119" y="356.4863">location</text><text fill="#000000" font-family="sans-serif" font-size="14" lengthAdjust="spacing" textLength="58" x="2114.5" y="374.0957">:Location</text><polygon fill="#181818" points="2431.5,413.5234,2441.5,417.5234,2431.5,421.5234,2435.5,417.5234" style="stroke:#181818;stroke-width:1.0;"/><line style="stroke:#181818;stroke-width:1.0;" x1="1549.5" x2="2437.5" y1="417.5234" y2="417.5234"/><text fill="#000000" font-family="sans-serif" font-size="13" font-weight="bold" lengthAdjust="spacing" textLength="25" x="1556.5" y="412.667">42.4</text><text fill="#000000" font-family="sans-serif" font-size="13" lengthAdjust="spacing" textLength="126" x="1585.5" y="412.667">createBusiness(price)</text><rect fill="#E3E3E3" height="49.2188" rx="2.5" ry="2.5" style="stroke:#181818;stroke-width:0.5;" width="75" x="2443.5" y="395.1719"/><text fill="#000000" font-family="sans-serif" font-size="14" lengthAdjust="spacing" textLength="56" x="2453" y="416.7051">business</text><text fill="#000000" font-family="sans-serif" font-size="14" lengthAdjust="spacing" textLength="61" x="2450.5" y="434.3145">:Business</text><polygon fill="#181818" points="2329.5,473.7422,2339.5,477.7422,2329.5,481.7422,2333.5,477.7422" style="stroke:#181818;stroke-width:1.0;"/><line style="stroke:#181818;stroke-width:1.0;" x1="1549.5" x2="2335.5" y1="477.7422" y2="477.7422"/><text fill="#000000" font-family="sans-serif" font-size="13" font-weight="bold" lengthAdjust="spacing" textLength="25" x="1556.5" y="472.8857">42.5</text><text fill="#000000" font-family="sans-serif" font-size="13" lengthAdjust="spacing" textLength="145" x="1585.5" y="472.8857">createPhotograph(uriList)</text><rect fill="#E3E3E3" height="49.2188" rx="2.5" ry="2.5" style="stroke:#181818;stroke-width:0.5;" width="92" x="2341.5" y="455.3906"/><text fill="#000000" font-family="sans-serif" font-size="14" lengthAdjust="spacing" textLength="73" x="2351" y="476.9238">photograph</text><text fill="#000000" font-family="sans-serif" font-size="14" lengthAdjust="spacing" textLength="78" x="2348.5" y="494.5332">:Photograph</text><polygon fill="#181818" points="2177.5,533.9609,2187.5,537.9609,2177.5,541.9609,2181.5,537.9609" style="stroke:#181818;stroke-width:1.0;"/><line style="stroke:#181818;stroke-width:1.0;" x1="1549.5" x2="2183.5" y1="537.9609" y2="537.9609"/><text fill="#000000" font-family="sans-serif" font-size="13" font-weight="bold" lengthAdjust="spacing" textLength="25" x="1556.5" y="533.1045">42.6</text><text fill="#000000" font-family="sans-serif" font-size="13" lengthAdjust="spacing" textLength="289" x="1585.5" y="533.1045">createAvailableEquipment(availableEquipmentList)</text><rect fill="#E3E3E3" height="49.2188" rx="2.5" ry="2.5" style="stroke:#181818;stroke-width:0.5;" width="142" x="2189.5" y="515.6094"/><text fill="#000000" font-family="sans-serif" font-size="14" lengthAdjust="spacing" textLength="123" x="2199" y="537.1426">availableEquipment</text><text fill="#000000" font-family="sans-serif" font-size="14" lengthAdjust="spacing" textLength="128" x="2196.5" y="554.752">:AvailableEquipment</text><polygon fill="#181818" points="1110.5,594.1797,1100.5,598.1797,1110.5,602.1797,1106.5,598.1797" style="stroke:#181818;stroke-width:1.0;"/><line style="stroke:#181818;stroke-width:1.0;stroke-dasharray:2.0,2.0;" x1="1104.5" x2="1543.5" y1="598.1797" y2="598.1797"/><text fill="#000000" font-family="sans-serif" font-size="13" font-weight="bold" lengthAdjust="spacing" textLength="25" x="1116.5" y="593.3232">42.7</text><text fill="#000000" font-family="sans-serif" font-size="13" lengthAdjust="spacing" textLength="47" x="1145.5" y="593.3232">property</text><path d="M1049,620.1797 L1110,620.1797 L1110,628.5313 L1100,638.5313 L1049,638.5313 L1049,620.1797 " fill="#EEEEEE" style="stroke:#000000;stroke-width:1.5;"/><rect fill="none" height="352.6328" style="stroke:#000000;stroke-width:1.5;" width="1479.5" x="1049" y="620.1797"/><text fill="#000000" font-family="sans-serif" font-size="13" font-weight="bold" lengthAdjust="spacing" textLength="16" x="1064" y="634.6748">alt</text><text fill="#000000" font-family="sans-serif" font-size="11" font-weight="bold" lengthAdjust="spacing" textLength="152" x="1125" y="633.5986">[propertyType = apartment]</text><polygon fill="#181818" points="1578.5,689.5859,1588.5,693.5859,1578.5,697.5859,1582.5,693.5859" style="stroke:#181818;stroke-width:1.0;"/><line style="stroke:#181818;stroke-width:1.0;" x1="1099.5" x2="1584.5" y1="693.5859" y2="693.5859"/><text fill="#000000" font-family="sans-serif" font-size="13" font-weight="bold" lengthAdjust="spacing" textLength="25" x="1106.5" y="672.3779">42.8</text><text fill="#000000" font-family="sans-serif" font-size="13" lengthAdjust="spacing" textLength="368" x="1135.5" y="656.0264">createResidence(price,streetName, city, district, state,zipCode,</text><text fill="#000000" font-family="sans-serif" font-size="13" lengthAdjust="spacing" textLength="332" x="1135.5" y="672.3779">distanceCityCenter, area, price, uriList,numberBedrooms,</text><text fill="#000000" font-family="sans-serif" font-size="13" lengthAdjust="spacing" textLength="381" x="1135.5" y="688.7295">numberParkingSpaces,numberBathrooms,availableEquipmentList)</text><rect fill="#E3E3E3" height="49.2188" rx="2.5" ry="2.5" style="stroke:#181818;stroke-width:0.5;" width="85" x="1590.5" y="641.3672"/><text fill="#000000" font-family="sans-serif" font-size="14" lengthAdjust="spacing" textLength="62" x="1602" y="662.9004">residence</text><text fill="#000000" font-family="sans-serif" font-size="14" lengthAdjust="spacing" textLength="71" x="1597.5" y="680.5098">:Residence</text><polygon fill="#181818" points="2095.5,719.9375,2105.5,723.9375,2095.5,727.9375,2099.5,723.9375" style="stroke:#181818;stroke-width:1.0;"/><line style="stroke:#181818;stroke-width:1.0;" x1="1638" x2="2101.5" y1="723.9375" y2="723.9375"/><text fill="#000000" font-family="sans-serif" font-size="13" font-weight="bold" lengthAdjust="spacing" textLength="25" x="1645" y="719.0811">42.9</text><text fill="#000000" font-family="sans-serif" font-size="13" lengthAdjust="spacing" textLength="328" x="1674" y="719.0811">createLocation(streetName, city, district, state, zipCode)</text><rect fill="#E3E3E3" height="49.2188" rx="2.5" ry="2.5" style="stroke:#181818;stroke-width:0.5;" width="72" x="2107.5" y="701.5859"/><text fill="#000000" font-family="sans-serif" font-size="14" lengthAdjust="spacing" textLength="49" x="2119" y="723.1191">location</text><text fill="#000000" font-family="sans-serif" font-size="14" lengthAdjust="spacing" textLength="58" x="2114.5" y="740.7285">:Location</text><polygon fill="#181818" points="2431.5,780.1563,2441.5,784.1563,2431.5,788.1563,2435.5,784.1563" style="stroke:#181818;stroke-width:1.0;"/><line style="stroke:#181818;stroke-width:1.0;" x1="1638" x2="2437.5" y1="784.1563" y2="784.1563"/><text fill="#000000" font-family="sans-serif" font-size="13" font-weight="bold" lengthAdjust="spacing" textLength="32" x="1645" y="779.2998">42.10</text><text fill="#000000" font-family="sans-serif" font-size="13" lengthAdjust="spacing" textLength="126" x="1681" y="779.2998">createBusiness(price)</text><rect fill="#E3E3E3" height="49.2188" rx="2.5" ry="2.5" style="stroke:#181818;stroke-width:0.5;" width="75" x="2443.5" y="761.8047"/><text fill="#000000" font-family="sans-serif" font-size="14" lengthAdjust="spacing" textLength="56" x="2453" y="783.3379">business</text><text fill="#000000" font-family="sans-serif" font-size="14" lengthAdjust="spacing" textLength="61" x="2450.5" y="800.9473">:Business</text><polygon fill="#181818" points="2329.5,840.375,2339.5,844.375,2329.5,848.375,2333.5,844.375" style="stroke:#181818;stroke-width:1.0;"/><line style="stroke:#181818;stroke-width:1.0;" x1="1638" x2="2335.5" y1="844.375" y2="844.375"/><text fill="#000000" font-family="sans-serif" font-size="13" font-weight="bold" lengthAdjust="spacing" textLength="32" x="1645" y="839.5186">42.11</text><text fill="#000000" font-family="sans-serif" font-size="13" lengthAdjust="spacing" textLength="145" x="1681" y="839.5186">createPhotograph(uriList)</text><rect fill="#E3E3E3" height="49.2188" rx="2.5" ry="2.5" style="stroke:#181818;stroke-width:0.5;" width="92" x="2341.5" y="822.0234"/><text fill="#000000" font-family="sans-serif" font-size="14" lengthAdjust="spacing" textLength="73" x="2351" y="843.5566">photograph</text><text fill="#000000" font-family="sans-serif" font-size="14" lengthAdjust="spacing" textLength="78" x="2348.5" y="861.166">:Photograph</text><polygon fill="#181818" points="2177.5,900.5938,2187.5,904.5938,2177.5,908.5938,2181.5,904.5938" style="stroke:#181818;stroke-width:1.0;"/><line style="stroke:#181818;stroke-width:1.0;" x1="1638" x2="2183.5" y1="904.5938" y2="904.5938"/><text fill="#000000" font-family="sans-serif" font-size="13" font-weight="bold" lengthAdjust="spacing" textLength="32" x="1645" y="899.7373">42.12</text><text fill="#000000" font-family="sans-serif" font-size="13" lengthAdjust="spacing" textLength="289" x="1681" y="899.7373">createAvailableEquipment(availableEquipmentList)</text><rect fill="#E3E3E3" height="49.2188" rx="2.5" ry="2.5" style="stroke:#181818;stroke-width:0.5;" width="142" x="2189.5" y="882.2422"/><text fill="#000000" font-family="sans-serif" font-size="14" lengthAdjust="spacing" textLength="123" x="2199" y="903.7754">availableEquipment</text><text fill="#000000" font-family="sans-serif" font-size="14" lengthAdjust="spacing" textLength="128" x="2196.5" y="921.3848">:AvailableEquipment</text><polygon fill="#181818" points="1110.5,960.8125,1100.5,964.8125,1110.5,968.8125,1106.5,964.8125" style="stroke:#181818;stroke-width:1.0;"/><line style="stroke:#181818;stroke-width:1.0;stroke-dasharray:2.0,2.0;" x1="1104.5" x2="1632" y1="964.8125" y2="964.8125"/><text fill="#000000" font-family="sans-serif" font-size="13" font-weight="bold" lengthAdjust="spacing" textLength="32" x="1116.5" y="959.9561">42.13</text><text fill="#000000" font-family="sans-serif" font-size="13" lengthAdjust="spacing" textLength="47" x="1152.5" y="959.9561">property</text><path d="M1049,986.8125 L1110,986.8125 L1110,995.1641 L1100,1005.1641 L1049,1005.1641 L1049,986.8125 " fill="#EEEEEE" style="stroke:#000000;stroke-width:1.5;"/><rect fill="none" height="368.9844" style="stroke:#000000;stroke-width:1.5;" width="1479.5" x="1049" y="986.8125"/><text fill="#000000" font-family="sans-serif" font-size="13" font-weight="bold" lengthAdjust="spacing" textLength="16" x="1064" y="1001.3076">alt</text><text fill="#000000" font-family="sans-serif" font-size="11" font-weight="bold" lengthAdjust="spacing" textLength="130" x="1125" y="1000.2314">[propertyType = house]</text><polygon fill="#181818" points="1673.5,1072.5703,1683.5,1076.5703,1673.5,1080.5703,1677.5,1076.5703" style="stroke:#181818;stroke-width:1.0;"/><line style="stroke:#181818;stroke-width:1.0;" x1="1099.5" x2="1679.5" y1="1076.5703" y2="1076.5703"/><text fill="#000000" font-family="sans-serif" font-size="13" font-weight="bold" lengthAdjust="spacing" textLength="32" x="1106.5" y="1047.1865">42.14</text><text fill="#000000" font-family="sans-serif" font-size="13" lengthAdjust="spacing" textLength="368" x="1142.5" y="1022.6592">createResidence(price,streetName, city, district, state,zipCode,</text><text fill="#000000" font-family="sans-serif" font-size="13" lengthAdjust="spacing" textLength="332" x="1142.5" y="1039.0107">distanceCityCenter, area, price, uriList,numberBedrooms,</text><text fill="#000000" font-family="sans-serif" font-size="13" lengthAdjust="spacing" textLength="381" x="1142.5" y="1055.3623">numberParkingSpaces,numberBathrooms,availableEquipmentList,</text><text fill="#000000" font-family="sans-serif" font-size="13" lengthAdjust="spacing" textLength="286" x="1142.5" y="1071.7139">existenceBasement,inhabitableLoft,sunExposure)</text><rect fill="#E3E3E3" height="49.2188" rx="2.5" ry="2.5" style="stroke:#181818;stroke-width:0.5;" width="58" x="1685.5" y="1024.3516"/><text fill="#000000" font-family="sans-serif" font-size="14" lengthAdjust="spacing" textLength="39" x="1695" y="1045.8848">house</text><text fill="#000000" font-family="sans-serif" font-size="14" lengthAdjust="spacing" textLength="44" x="1692.5" y="1063.4941">:House</text><polygon fill="#181818" points="2095.5,1102.9219,2105.5,1106.9219,2095.5,1110.9219,2099.5,1106.9219" style="stroke:#181818;stroke-width:1.0;"/><line style="stroke:#181818;stroke-width:1.0;" x1="1719.5" x2="2101.5" y1="1106.9219" y2="1106.9219"/><text fill="#000000" font-family="sans-serif" font-size="13" font-weight="bold" lengthAdjust="spacing" textLength="32" x="1726.5" y="1102.0654">42.15</text><text fill="#000000" font-family="sans-serif" font-size="13" lengthAdjust="spacing" textLength="328" x="1762.5" y="1102.0654">createLocation(streetName, city, district, state, zipCode)</text><rect fill="#E3E3E3" height="49.2188" rx="2.5" ry="2.5" style="stroke:#181818;stroke-width:0.5;" width="72" x="2107.5" y="1084.5703"/><text fill="#000000" font-family="sans-serif" font-size="14" lengthAdjust="spacing" textLength="49" x="2119" y="1106.1035">location</text><text fill="#000000" font-family="sans-serif" font-size="14" lengthAdjust="spacing" textLength="58" x="2114.5" y="1123.7129">:Location</text><polygon fill="#181818" points="2431.5,1163.1406,2441.5,1167.1406,2431.5,1171.1406,2435.5,1167.1406" style="stroke:#181818;stroke-width:1.0;"/><line style="stroke:#181818;stroke-width:1.0;" x1="1719.5" x2="2437.5" y1="1167.1406" y2="1167.1406"/><text fill="#000000" font-family="sans-serif" font-size="13" font-weight="bold" lengthAdjust="spacing" textLength="32" x="1726.5" y="1162.2842">42.16</text><text fill="#000000" font-family="sans-serif" font-size="13" lengthAdjust="spacing" textLength="126" x="1762.5" y="1162.2842">createBusiness(price)</text><rect fill="#E3E3E3" height="49.2188" rx="2.5" ry="2.5" style="stroke:#181818;stroke-width:0.5;" width="75" x="2443.5" y="1144.7891"/><text fill="#000000" font-family="sans-serif" font-size="14" lengthAdjust="spacing" textLength="56" x="2453" y="1166.3223">business</text><text fill="#000000" font-family="sans-serif" font-size="14" lengthAdjust="spacing" textLength="61" x="2450.5" y="1183.9316">:Business</text><polygon fill="#181818" points="2329.5,1223.3594,2339.5,1227.3594,2329.5,1231.3594,2333.5,1227.3594" style="stroke:#181818;stroke-width:1.0;"/><line style="stroke:#181818;stroke-width:1.0;" x1="1719.5" x2="2335.5" y1="1227.3594" y2="1227.3594"/><text fill="#000000" font-family="sans-serif" font-size="13" font-weight="bold" lengthAdjust="spacing" textLength="32" x="1726.5" y="1222.5029">42.17</text><text fill="#000000" font-family="sans-serif" font-size="13" lengthAdjust="spacing" textLength="145" x="1762.5" y="1222.5029">createPhotograph(uriList)</text><rect fill="#E3E3E3" height="49.2188" rx="2.5" ry="2.5" style="stroke:#181818;stroke-width:0.5;" width="92" x="2341.5" y="1205.0078"/><text fill="#000000" font-family="sans-serif" font-size="14" lengthAdjust="spacing" textLength="73" x="2351" y="1226.541">photograph</text><text fill="#000000" font-family="sans-serif" font-size="14" lengthAdjust="spacing" textLength="78" x="2348.5" y="1244.1504">:Photograph</text><polygon fill="#181818" points="2177.5,1283.5781,2187.5,1287.5781,2177.5,1291.5781,2181.5,1287.5781" style="stroke:#181818;stroke-width:1.0;"/><line style="stroke:#181818;stroke-width:1.0;" x1="1719.5" x2="2183.5" y1="1287.5781" y2="1287.5781"/><text fill="#000000" font-family="sans-serif" font-size="13" font-weight="bold" lengthAdjust="spacing" textLength="32" x="1726.5" y="1282.7217">42.18</text><text fill="#000000" font-family="sans-serif" font-size="13" lengthAdjust="spacing" textLength="289" x="1762.5" y="1282.7217">createAvailableEquipment(availableEquipmentList)</text><rect fill="#E3E3E3" height="49.2188" rx="2.5" ry="2.5" style="stroke:#181818;stroke-width:0.5;" width="142" x="2189.5" y="1265.2266"/><text fill="#000000" font-family="sans-serif" font-size="14" lengthAdjust="spacing" textLength="123" x="2199" y="1286.7598">availableEquipment</text><text fill="#000000" font-family="sans-serif" font-size="14" lengthAdjust="spacing" textLength="128" x="2196.5" y="1304.3691">:AvailableEquipment</text><polygon fill="#181818" points="1110.5,1343.7969,1100.5,1347.7969,1110.5,1351.7969,1106.5,1347.7969" style="stroke:#181818;stroke-width:1.0;"/><line style="stroke:#181818;stroke-width:1.0;stroke-dasharray:2.0,2.0;" x1="1104.5" x2="1713.5" y1="1347.7969" y2="1347.7969"/><text fill="#000000" font-family="sans-serif" font-size="13" font-weight="bold" lengthAdjust="spacing" textLength="32" x="1116.5" y="1342.9404">42.19</text><text fill="#000000" font-family="sans-serif" font-size="13" lengthAdjust="spacing" textLength="47" x="1152.5" y="1342.9404">property</text><polygon fill="#181818" points="562,1381.1484,552,1385.1484,562,1389.1484,558,1385.1484" style="stroke:#181818;stroke-width:1.0;"/><line style="stroke:#181818;stroke-width:1.0;stroke-dasharray:2.0,2.0;" x1="556" x2="1093.5" y1="1385.1484" y2="1385.1484"/><text fill="#000000" font-family="sans-serif" font-size="13" font-weight="bold" lengthAdjust="spacing" textLength="32" x="568" y="1380.292">42.20</text><text fill="#000000" font-family="sans-serif" font-size="13" lengthAdjust="spacing" textLength="43" x="604" y="1380.292">request</text><line style="stroke:#181818;stroke-width:1.0;" x1="551" x2="598" y1="1435.5" y2="1435.5"/><line style="stroke:#181818;stroke-width:1.0;" x1="598" x2="598" y1="1435.5" y2="1448.5"/><line style="stroke:#181818;stroke-width:1.0;" x1="557" x2="598" y1="1448.5" y2="1448.5"/><polygon fill="#181818" points="567,1444.5,557,1448.5,567,1452.5,563,1448.5" style="stroke:#181818;stroke-width:1.0;"/><text fill="#000000" font-family="sans-serif" font-size="13" font-weight="bold" lengthAdjust="spacing" textLength="32" x="563" y="1430.6436">42.21</text><text fill="#000000" font-family="sans-serif" font-size="13" lengthAdjust="spacing" textLength="120" x="599" y="1430.6436">addRequest(request)</text><line style="stroke:#181818;stroke-width:1.0;" x1="556" x2="603" y1="1478.8516" y2="1478.8516"/><line style="stroke:#181818;stroke-width:1.0;" x1="603" x2="603" y1="1478.8516" y2="1491.8516"/><line style="stroke:#181818;stroke-width:1.0;" x1="562" x2="603" y1="1491.8516" y2="1491.8516"/><polygon fill="#181818" points="572,1487.8516,562,1491.8516,572,1495.8516,568,1491.8516" style="stroke:#181818;stroke-width:1.0;"/><text fill="#000000" font-family="sans-serif" font-size="13" font-weight="bold" lengthAdjust="spacing" textLength="32" x="568" y="1473.9951">42.22</text><text fill="#000000" font-family="sans-serif" font-size="13" lengthAdjust="spacing" textLength="142" x="604" y="1473.9951">validateRequest(request)</text><line style="stroke:#181818;stroke-width:1.0;stroke-dasharray:2.0,2.0;" x1="561" x2="603" y1="1532.2031" y2="1532.2031"/><line style="stroke:#181818;stroke-width:1.0;stroke-dasharray:2.0,2.0;" x1="603" x2="603" y1="1532.2031" y2="1545.2031"/><line style="stroke:#181818;stroke-width:1.0;stroke-dasharray:2.0,2.0;" x1="556" x2="603" y1="1545.2031" y2="1545.2031"/><polygon fill="#181818" points="566,1541.2031,556,1545.2031,566,1549.2031,562,1545.2031" style="stroke:#181818;stroke-width:1.0;"/><text fill="#000000" font-family="sans-serif" font-size="13" font-weight="bold" lengthAdjust="spacing" textLength="32" x="568" y="1527.3467">42.23</text><text fill="#000000" font-family="sans-serif" font-size="13" lengthAdjust="spacing" textLength="4" x="604" y="1527.3467"> </text><line style="stroke:#181818;stroke-width:1.0;stroke-dasharray:2.0,2.0;" x1="556" x2="598" y1="1575.5547" y2="1575.5547"/><line style="stroke:#181818;stroke-width:1.0;stroke-dasharray:2.0,2.0;" x1="598" x2="598" y1="1575.5547" y2="1588.5547"/><line style="stroke:#181818;stroke-width:1.0;stroke-dasharray:2.0,2.0;" x1="551" x2="598" y1="1588.5547" y2="1588.5547"/><polygon fill="#181818" points="561,1584.5547,551,1588.5547,561,1592.5547,557,1588.5547" style="stroke:#181818;stroke-width:1.0;"/><text fill="#000000" font-family="sans-serif" font-size="13" font-weight="bold" lengthAdjust="spacing" textLength="32" x="563" y="1570.6982">42.24</text><text fill="#000000" font-family="sans-serif" font-size="13" lengthAdjust="spacing" textLength="4" x="599" y="1570.6982"> </text><polygon fill="#181818" points="11,1641.9063,1,1645.9063,11,1649.9063,7,1645.9063" style="stroke:#181818;stroke-width:1.0;"/><line style="stroke:#181818;stroke-width:1.0;stroke-dasharray:2.0,2.0;" x1="5" x2="545" y1="1645.9063" y2="1645.9063"/><text fill="#000000" font-family="sans-serif" font-size="13" font-weight="bold" lengthAdjust="spacing" textLength="14" x="17" y="1641.0498">43</text><text fill="#000000" font-family="sans-serif" font-size="13" lengthAdjust="spacing" textLength="43" x="35" y="1641.0498">request</text><!--SRC=[rLVVRzem47xFNs7rYQ9qqduyLTiaOD6AX80H-Z2fBoQvWjN4JcsdBLF_-3c9RHmIKefQQSiBJdpt-VpTv_CXxWZDCCSfIXbbqOQp593aENZ2pcGukiDh2EKs0SGXafYk4zT0R73C7WbTerkS2F0yzLcIY6IOIdIcN6cqlQ6NWt9mXh10Wv_1TFIxRiVXFWSXbU6Y6fMMY-3NTH0kwwOPPnbmMO3EzR0qdYzcys2nR00B4gkbeOJMOmqUZd-eI8AwmuRbeZ2-AdvBmwlPTRXdbB08IyAeifleOMawcOq6o_5ikaV20oO9NYKGtESaIu4M-nmqFbRag2sFvtixtZ39rXndcsBFzgNQzTLiEQkRht91A0YXZ8TwM9eEhyFnD0X3p_DmBXdDqnLmzEMJvo7zN7pNoRb44GSiGIUZLwHH-bKoVVP8WGUf2jytkLXkC_25v01oYbFmKKJaraSnKTz897qaf4BpR-WVaerO3DKKLgaOASEH0WVkeqpPggagi274dB5KAAVgmnnp9Rfrg1G9meSd1L3aSeW55EpvX6xmYiY2qWcxbHO7ouq1GirCJ1ICdtDI_egS1ayP4pa77oi2pYqp24UIFAWz6FNMAVpmiI9npLcUeL797TBaxUYjN0kMjR1Hlx_Fj4CkUWzs_qLoBRVclEyemuciqO2-eGJJU9SN_HX25RUc3lJxo91hwaIluk1bAWsHQbTjL1RX-qXlxBmHZDsFBKaD4pDJ16oAXXEmAIgzbqD5EjRppZNCsNVMCBMX8gNRlQmoBg6s2FKEik3wLrND0MXMlrwxVBfmdODqQLNIi8-X8n_WQAb5QxWeh4KeNfVYx4tYRD3UDITexh3aT8KqH-gemxn_Ke_bsJcLvg9i8K5FlQUEQukS8EIQ_obAhW6yfPGTu5ThUPUL8xLSDZPTCYxxdFzOmihvvOlBkOKw95-rV8tvylDxIjqkS8BChUyf4hVERobl3VfgQLVikxBsMYNhjAlw_uDtyB1KZOKx_VpyN7lVTMS65CUnQSiqVeTaT5-8MfucyWDEIEnqVGVXZrt2NSQkqshfi69QsUF03d7hBcOuBNFcTiYVhVVNYuk3MMk9xIy0]--></g></svg>