<?xml version="1.0" encoding="UTF-8" standalone="no"?><svg xmlns="http://www.w3.org/2000/svg" xmlns:xlink="http://www.w3.org/1999/xlink" contentStyleType="text/css" height="2179px" preserveAspectRatio="none" style="width:1902px;height:2179px;background:#FFFFFF;" version="1.1" viewBox="0 0 1902 2179" width="1902px" zoomAndPan="magnify"><defs/><g><!--class ApplicationSession--><g id="elem_ApplicationSession"><rect codeLine="11" fill="#F1F1F1" height="83.2188" id="ApplicationSession" rx="2.5" ry="2.5" style="stroke:#181818;stroke-width:0.5;" width="177" x="969" y="104"/><ellipse cx="995.7" cy="120" fill="#ADD1B2" rx="11" ry="11" style="stroke:#181818;stroke-width:1.0;"/><path d="M998.4656,115.875 Q998.6219,115.6563 998.8094,115.5469 Q998.9969,115.4375 999.2156,115.4375 Q999.5906,115.4375 999.825,115.7031 Q1000.0594,115.9531 1000.0594,116.5625 L1000.0594,118.0156 Q1000.0594,118.625 999.825,118.8906 Q999.5906,119.1563 999.2156,119.1563 Q998.8719,119.1563 998.6688,118.9531 Q998.4656,118.7656 998.3563,118.25 Q998.3094,117.8906 998.1219,117.7031 Q997.7938,117.3281 997.1844,117.1094 Q996.575,116.8906 995.95,116.8906 Q995.1844,116.8906 994.5438,117.2188 Q993.9188,117.5469 993.4188,118.2969 Q992.9344,119.0469 992.9344,120.0781 L992.9344,121.1719 Q992.9344,122.4063 993.825,123.2344 Q994.7156,124.0469 996.3094,124.0469 Q997.2469,124.0469 997.9031,123.7969 Q998.2938,123.6406 998.7156,123.2031 Q998.9813,122.9375 999.1219,122.8594 Q999.2781,122.7813 999.4813,122.7813 Q999.8094,122.7813 1000.0594,123.0469 Q1000.325,123.2969 1000.325,123.6406 Q1000.325,123.9844 999.9813,124.3906 Q999.4813,124.9688 998.6844,125.2969 Q997.6063,125.75 996.3094,125.75 Q994.7938,125.75 993.5906,125.125 Q992.6063,124.625 991.9188,123.5625 Q991.2313,122.4844 991.2313,121.2031 L991.2313,120.0469 Q991.2313,118.7188 991.8406,117.5781 Q992.4656,116.4219 993.5594,115.8125 Q994.6531,115.1875 995.8875,115.1875 Q996.6219,115.1875 997.2625,115.3594 Q997.9188,115.5156 998.4656,115.875 Z " fill="#000000"/><text fill="#000000" font-family="sans-serif" font-size="14" lengthAdjust="spacing" textLength="119" x="1012.3" y="125.7285">ApplicationSession</text><line style="stroke:#181818;stroke-width:0.5;" x1="970" x2="1145" y1="136" y2="136"/><line style="stroke:#181818;stroke-width:0.5;" x1="970" x2="1145" y1="144" y2="144"/><text fill="#000000" font-family="sans-serif" font-size="14" lengthAdjust="spacing" textLength="128" x="975" y="162.5332">+static getInstance()</text><text fill="#000000" font-family="sans-serif" font-size="14" lengthAdjust="spacing" textLength="165" x="975" y="180.1426">+getCurrentUserSession()</text></g><!--class Property--><g id="elem_Property"><rect codeLine="16" fill="#F1F1F1" height="241.7031" id="Property" rx="2.5" ry="2.5" style="stroke:#181818;stroke-width:0.5;" width="492" x="385.5" y="1222"/><ellipse cx="600.25" cy="1238" fill="#ADD1B2" rx="11" ry="11" style="stroke:#181818;stroke-width:1.0;"/><path d="M603.0156,1233.875 Q603.1719,1233.6563 603.3594,1233.5469 Q603.5469,1233.4375 603.7656,1233.4375 Q604.1406,1233.4375 604.375,1233.7031 Q604.6094,1233.9531 604.6094,1234.5625 L604.6094,1236.0156 Q604.6094,1236.625 604.375,1236.8906 Q604.1406,1237.1563 603.7656,1237.1563 Q603.4219,1237.1563 603.2188,1236.9531 Q603.0156,1236.7656 602.9063,1236.25 Q602.8594,1235.8906 602.6719,1235.7031 Q602.3438,1235.3281 601.7344,1235.1094 Q601.125,1234.8906 600.5,1234.8906 Q599.7344,1234.8906 599.0938,1235.2188 Q598.4688,1235.5469 597.9688,1236.2969 Q597.4844,1237.0469 597.4844,1238.0781 L597.4844,1239.1719 Q597.4844,1240.4063 598.375,1241.2344 Q599.2656,1242.0469 600.8594,1242.0469 Q601.7969,1242.0469 602.4531,1241.7969 Q602.8438,1241.6406 603.2656,1241.2031 Q603.5313,1240.9375 603.6719,1240.8594 Q603.8281,1240.7813 604.0313,1240.7813 Q604.3594,1240.7813 604.6094,1241.0469 Q604.875,1241.2969 604.875,1241.6406 Q604.875,1241.9844 604.5313,1242.3906 Q604.0313,1242.9688 603.2344,1243.2969 Q602.1563,1243.75 600.8594,1243.75 Q599.3438,1243.75 598.1406,1243.125 Q597.1563,1242.625 596.4688,1241.5625 Q595.7813,1240.4844 595.7813,1239.2031 L595.7813,1238.0469 Q595.7813,1236.7188 596.3906,1235.5781 Q597.0156,1234.4219 598.1094,1233.8125 Q599.2031,1233.1875 600.4375,1233.1875 Q601.1719,1233.1875 601.8125,1233.3594 Q602.4688,1233.5156 603.0156,1233.875 Z " fill="#000000"/><text fill="#000000" font-family="sans-serif" font-size="14" lengthAdjust="spacing" textLength="54" x="620.75" y="1243.7285">Property</text><line style="stroke:#181818;stroke-width:0.5;" x1="386.5" x2="876.5" y1="1254" y2="1254"/><text fill="#000000" font-family="sans-serif" font-size="14" lengthAdjust="spacing" textLength="174" x="391.5" y="1272.5332">-Double distanceCityCentre</text><text fill="#000000" font-family="sans-serif" font-size="14" lengthAdjust="spacing" textLength="162" x="391.5" y="1290.1426">-Integer numberBathroom</text><text fill="#000000" font-family="sans-serif" font-size="14" lengthAdjust="spacing" textLength="158" x="391.5" y="1307.752">-Integer numberBedroom</text><text fill="#000000" font-family="sans-serif" font-size="14" lengthAdjust="spacing" textLength="189" x="391.5" y="1325.3613">-Integer numberParkingSpace</text><text fill="#000000" font-family="sans-serif" font-size="14" lengthAdjust="spacing" textLength="183" x="391.5" y="1342.9707">-Boolean existenceBasement</text><text fill="#000000" font-family="sans-serif" font-size="14" lengthAdjust="spacing" textLength="154" x="391.5" y="1360.5801">-Boolean inhabitableLoft</text><text fill="#000000" font-family="sans-serif" font-size="14" lengthAdjust="spacing" textLength="128" x="391.5" y="1378.1895">-String sunExposure</text><line style="stroke:#181818;stroke-width:0.5;" x1="386.5" x2="876.5" y1="1385.2656" y2="1385.2656"/><text fill="#000000" font-family="sans-serif" font-size="14" lengthAdjust="spacing" textLength="349" x="391.5" y="1403.7988">+Property(propertyType,streetName, city, district, state,</text><text fill="#000000" font-family="sans-serif" font-size="14" lengthAdjust="spacing" textLength="412" x="391.5" y="1421.4082">zipCode, distanceCityCentre, price, photograph,numberBedroom,</text><text fill="#000000" font-family="sans-serif" font-size="14" lengthAdjust="spacing" textLength="480" x="391.5" y="1439.0176">numberParkingSpace,existenceBasement,inhabitableLoft, numberBathroom,</text><text fill="#000000" font-family="sans-serif" font-size="14" lengthAdjust="spacing" textLength="218" x="395.5" y="1456.627">availableEquipment, sunExposure)</text></g><!--class Location--><g id="elem_Location"><rect codeLine="27" fill="#F1F1F1" height="153.6563" id="Location" rx="2.5" ry="2.5" style="stroke:#181818;stroke-width:0.5;" width="328" x="753.5" y="1625"/><ellipse cx="886.25" cy="1641" fill="#ADD1B2" rx="11" ry="11" style="stroke:#181818;stroke-width:1.0;"/><path d="M889.0156,1636.875 Q889.1719,1636.6563 889.3594,1636.5469 Q889.5469,1636.4375 889.7656,1636.4375 Q890.1406,1636.4375 890.375,1636.7031 Q890.6094,1636.9531 890.6094,1637.5625 L890.6094,1639.0156 Q890.6094,1639.625 890.375,1639.8906 Q890.1406,1640.1563 889.7656,1640.1563 Q889.4219,1640.1563 889.2188,1639.9531 Q889.0156,1639.7656 888.9063,1639.25 Q888.8594,1638.8906 888.6719,1638.7031 Q888.3438,1638.3281 887.7344,1638.1094 Q887.125,1637.8906 886.5,1637.8906 Q885.7344,1637.8906 885.0938,1638.2188 Q884.4688,1638.5469 883.9688,1639.2969 Q883.4844,1640.0469 883.4844,1641.0781 L883.4844,1642.1719 Q883.4844,1643.4063 884.375,1644.2344 Q885.2656,1645.0469 886.8594,1645.0469 Q887.7969,1645.0469 888.4531,1644.7969 Q888.8438,1644.6406 889.2656,1644.2031 Q889.5313,1643.9375 889.6719,1643.8594 Q889.8281,1643.7813 890.0313,1643.7813 Q890.3594,1643.7813 890.6094,1644.0469 Q890.875,1644.2969 890.875,1644.6406 Q890.875,1644.9844 890.5313,1645.3906 Q890.0313,1645.9688 889.2344,1646.2969 Q888.1563,1646.75 886.8594,1646.75 Q885.3438,1646.75 884.1406,1646.125 Q883.1563,1645.625 882.4688,1644.5625 Q881.7813,1643.4844 881.7813,1642.2031 L881.7813,1641.0469 Q881.7813,1639.7188 882.3906,1638.5781 Q883.0156,1637.4219 884.1094,1636.8125 Q885.2031,1636.1875 886.4375,1636.1875 Q887.1719,1636.1875 887.8125,1636.3594 Q888.4688,1636.5156 889.0156,1636.875 Z " fill="#000000"/><text fill="#000000" font-family="sans-serif" font-size="14" lengthAdjust="spacing" textLength="54" x="906.75" y="1646.7285">Location</text><line style="stroke:#181818;stroke-width:0.5;" x1="754.5" x2="1080.5" y1="1657" y2="1657"/><text fill="#000000" font-family="sans-serif" font-size="14" lengthAdjust="spacing" textLength="118" x="759.5" y="1675.5332">-String streetName</text><text fill="#000000" font-family="sans-serif" font-size="14" lengthAdjust="spacing" textLength="67" x="759.5" y="1693.1426">-String city</text><text fill="#000000" font-family="sans-serif" font-size="14" lengthAdjust="spacing" textLength="87" x="759.5" y="1710.752">-String district</text><text fill="#000000" font-family="sans-serif" font-size="14" lengthAdjust="spacing" textLength="77" x="759.5" y="1728.3613">-String state</text><text fill="#000000" font-family="sans-serif" font-size="14" lengthAdjust="spacing" textLength="104" x="759.5" y="1745.9707">-Integer zipCode</text><line style="stroke:#181818;stroke-width:0.5;" x1="754.5" x2="1080.5" y1="1753.0469" y2="1753.0469"/><text fill="#000000" font-family="sans-serif" font-size="14" lengthAdjust="spacing" textLength="316" x="759.5" y="1771.5801">+Location(streetName, city, district, state,zipCode)</text></g><!--class Photograph--><g id="elem_Photograph"><rect codeLine="36" fill="#F1F1F1" height="83.2188" id="Photograph" rx="2.5" ry="2.5" style="stroke:#181818;stroke-width:0.5;" width="158" x="281.5" y="1660.5"/><ellipse cx="319.9" cy="1676.5" fill="#ADD1B2" rx="11" ry="11" style="stroke:#181818;stroke-width:1.0;"/><path d="M322.6656,1672.375 Q322.8219,1672.1563 323.0094,1672.0469 Q323.1969,1671.9375 323.4156,1671.9375 Q323.7906,1671.9375 324.025,1672.2031 Q324.2594,1672.4531 324.2594,1673.0625 L324.2594,1674.5156 Q324.2594,1675.125 324.025,1675.3906 Q323.7906,1675.6563 323.4156,1675.6563 Q323.0719,1675.6563 322.8688,1675.4531 Q322.6656,1675.2656 322.5563,1674.75 Q322.5094,1674.3906 322.3219,1674.2031 Q321.9938,1673.8281 321.3844,1673.6094 Q320.775,1673.3906 320.15,1673.3906 Q319.3844,1673.3906 318.7438,1673.7188 Q318.1188,1674.0469 317.6188,1674.7969 Q317.1344,1675.5469 317.1344,1676.5781 L317.1344,1677.6719 Q317.1344,1678.9063 318.025,1679.7344 Q318.9156,1680.5469 320.5094,1680.5469 Q321.4469,1680.5469 322.1031,1680.2969 Q322.4938,1680.1406 322.9156,1679.7031 Q323.1813,1679.4375 323.3219,1679.3594 Q323.4781,1679.2813 323.6813,1679.2813 Q324.0094,1679.2813 324.2594,1679.5469 Q324.525,1679.7969 324.525,1680.1406 Q324.525,1680.4844 324.1813,1680.8906 Q323.6813,1681.4688 322.8844,1681.7969 Q321.8063,1682.25 320.5094,1682.25 Q318.9938,1682.25 317.7906,1681.625 Q316.8063,1681.125 316.1188,1680.0625 Q315.4313,1678.9844 315.4313,1677.7031 L315.4313,1676.5469 Q315.4313,1675.2188 316.0406,1674.0781 Q316.6656,1672.9219 317.7594,1672.3125 Q318.8531,1671.6875 320.0875,1671.6875 Q320.8219,1671.6875 321.4625,1671.8594 Q322.1188,1672.0156 322.6656,1672.375 Z " fill="#000000"/><text fill="#000000" font-family="sans-serif" font-size="14" lengthAdjust="spacing" textLength="74" x="339.1" y="1682.2285">Photograph</text><line style="stroke:#181818;stroke-width:0.5;" x1="282.5" x2="438.5" y1="1692.5" y2="1692.5"/><text fill="#000000" font-family="sans-serif" font-size="14" lengthAdjust="spacing" textLength="62" x="287.5" y="1711.0332">-String uri</text><line style="stroke:#181818;stroke-width:0.5;" x1="282.5" x2="438.5" y1="1718.1094" y2="1718.1094"/><text fill="#000000" font-family="sans-serif" font-size="14" lengthAdjust="spacing" textLength="146" x="287.5" y="1736.6426">-addPhotographUri(uri)</text></g><!--class AvailableEquipment--><g id="elem_AvailableEquipment"><rect codeLine="41" fill="#F1F1F1" height="83.2188" id="AvailableEquipment" rx="2.5" ry="2.5" style="stroke:#181818;stroke-width:0.5;" width="244" x="474.5" y="1660.5"/><ellipse cx="530.25" cy="1676.5" fill="#ADD1B2" rx="11" ry="11" style="stroke:#181818;stroke-width:1.0;"/><path d="M533.0156,1672.375 Q533.1719,1672.1563 533.3594,1672.0469 Q533.5469,1671.9375 533.7656,1671.9375 Q534.1406,1671.9375 534.375,1672.2031 Q534.6094,1672.4531 534.6094,1673.0625 L534.6094,1674.5156 Q534.6094,1675.125 534.375,1675.3906 Q534.1406,1675.6563 533.7656,1675.6563 Q533.4219,1675.6563 533.2188,1675.4531 Q533.0156,1675.2656 532.9063,1674.75 Q532.8594,1674.3906 532.6719,1674.2031 Q532.3438,1673.8281 531.7344,1673.6094 Q531.125,1673.3906 530.5,1673.3906 Q529.7344,1673.3906 529.0938,1673.7188 Q528.4688,1674.0469 527.9688,1674.7969 Q527.4844,1675.5469 527.4844,1676.5781 L527.4844,1677.6719 Q527.4844,1678.9063 528.375,1679.7344 Q529.2656,1680.5469 530.8594,1680.5469 Q531.7969,1680.5469 532.4531,1680.2969 Q532.8438,1680.1406 533.2656,1679.7031 Q533.5313,1679.4375 533.6719,1679.3594 Q533.8281,1679.2813 534.0313,1679.2813 Q534.3594,1679.2813 534.6094,1679.5469 Q534.875,1679.7969 534.875,1680.1406 Q534.875,1680.4844 534.5313,1680.8906 Q534.0313,1681.4688 533.2344,1681.7969 Q532.1563,1682.25 530.8594,1682.25 Q529.3438,1682.25 528.1406,1681.625 Q527.1563,1681.125 526.4688,1680.0625 Q525.7813,1678.9844 525.7813,1677.7031 L525.7813,1676.5469 Q525.7813,1675.2188 526.3906,1674.0781 Q527.0156,1672.9219 528.1094,1672.3125 Q529.2031,1671.6875 530.4375,1671.6875 Q531.1719,1671.6875 531.8125,1671.8594 Q532.4688,1672.0156 533.0156,1672.375 Z " fill="#000000"/><text fill="#000000" font-family="sans-serif" font-size="14" lengthAdjust="spacing" textLength="124" x="550.75" y="1682.2285">AvailableEquipment</text><line style="stroke:#181818;stroke-width:0.5;" x1="475.5" x2="717.5" y1="1692.5" y2="1692.5"/><text fill="#000000" font-family="sans-serif" font-size="14" lengthAdjust="spacing" textLength="115" x="480.5" y="1711.0332">-String description</text><line style="stroke:#181818;stroke-width:0.5;" x1="475.5" x2="717.5" y1="1718.1094" y2="1718.1094"/><text fill="#000000" font-family="sans-serif" font-size="14" lengthAdjust="spacing" textLength="232" x="480.5" y="1736.6426">-addAvailableEquipment(description)</text></g><!--class UserSession--><g id="elem_UserSession"><rect codeLine="47" fill="#F1F1F1" height="65.6094" id="UserSession" rx="2.5" ry="2.5" style="stroke:#181818;stroke-width:0.5;" width="113" x="307" y="489"/><ellipse cx="322.9" cy="505" fill="#ADD1B2" rx="11" ry="11" style="stroke:#181818;stroke-width:1.0;"/><path d="M325.6656,500.875 Q325.8219,500.6563 326.0094,500.5469 Q326.1969,500.4375 326.4156,500.4375 Q326.7906,500.4375 327.025,500.7031 Q327.2594,500.9531 327.2594,501.5625 L327.2594,503.0156 Q327.2594,503.625 327.025,503.8906 Q326.7906,504.1563 326.4156,504.1563 Q326.0719,504.1563 325.8688,503.9531 Q325.6656,503.7656 325.5563,503.25 Q325.5094,502.8906 325.3219,502.7031 Q324.9938,502.3281 324.3844,502.1094 Q323.775,501.8906 323.15,501.8906 Q322.3844,501.8906 321.7438,502.2188 Q321.1188,502.5469 320.6188,503.2969 Q320.1344,504.0469 320.1344,505.0781 L320.1344,506.1719 Q320.1344,507.4063 321.025,508.2344 Q321.9156,509.0469 323.5094,509.0469 Q324.4469,509.0469 325.1031,508.7969 Q325.4938,508.6406 325.9156,508.2031 Q326.1813,507.9375 326.3219,507.8594 Q326.4781,507.7813 326.6813,507.7813 Q327.0094,507.7813 327.2594,508.0469 Q327.525,508.2969 327.525,508.6406 Q327.525,508.9844 327.1813,509.3906 Q326.6813,509.9688 325.8844,510.2969 Q324.8063,510.75 323.5094,510.75 Q321.9938,510.75 320.7906,510.125 Q319.8063,509.625 319.1188,508.5625 Q318.4313,507.4844 318.4313,506.2031 L318.4313,505.0469 Q318.4313,503.7188 319.0406,502.5781 Q319.6656,501.4219 320.7594,500.8125 Q321.8531,500.1875 323.0875,500.1875 Q323.8219,500.1875 324.4625,500.3594 Q325.1188,500.5156 325.6656,500.875 Z " fill="#000000"/><text fill="#000000" font-family="sans-serif" font-size="14" lengthAdjust="spacing" textLength="79" x="337.1" y="510.7285">UserSession</text><line style="stroke:#181818;stroke-width:0.5;" x1="308" x2="419" y1="521" y2="521"/><line style="stroke:#181818;stroke-width:0.5;" x1="308" x2="419" y1="529" y2="529"/><text fill="#000000" font-family="sans-serif" font-size="14" lengthAdjust="spacing" textLength="101" x="313" y="547.5332">+getUserEmail()</text></g><!--class Agent--><g id="elem_Agent"><rect codeLine="52" fill="#F1F1F1" height="136.0469" id="Agent" rx="2.5" ry="2.5" style="stroke:#181818;stroke-width:0.5;" width="200" x="1295.5" y="2036"/><ellipse cx="1372.75" cy="2052" fill="#ADD1B2" rx="11" ry="11" style="stroke:#181818;stroke-width:1.0;"/><path d="M1375.5156,2047.875 Q1375.6719,2047.6563 1375.8594,2047.5469 Q1376.0469,2047.4375 1376.2656,2047.4375 Q1376.6406,2047.4375 1376.875,2047.7031 Q1377.1094,2047.9531 1377.1094,2048.5625 L1377.1094,2050.0156 Q1377.1094,2050.625 1376.875,2050.8906 Q1376.6406,2051.1563 1376.2656,2051.1563 Q1375.9219,2051.1563 1375.7188,2050.9531 Q1375.5156,2050.7656 1375.4063,2050.25 Q1375.3594,2049.8906 1375.1719,2049.7031 Q1374.8438,2049.3281 1374.2344,2049.1094 Q1373.625,2048.8906 1373,2048.8906 Q1372.2344,2048.8906 1371.5938,2049.2188 Q1370.9688,2049.5469 1370.4688,2050.2969 Q1369.9844,2051.0469 1369.9844,2052.0781 L1369.9844,2053.1719 Q1369.9844,2054.4063 1370.875,2055.2344 Q1371.7656,2056.0469 1373.3594,2056.0469 Q1374.2969,2056.0469 1374.9531,2055.7969 Q1375.3438,2055.6406 1375.7656,2055.2031 Q1376.0313,2054.9375 1376.1719,2054.8594 Q1376.3281,2054.7813 1376.5313,2054.7813 Q1376.8594,2054.7813 1377.1094,2055.0469 Q1377.375,2055.2969 1377.375,2055.6406 Q1377.375,2055.9844 1377.0313,2056.3906 Q1376.5313,2056.9688 1375.7344,2057.2969 Q1374.6563,2057.75 1373.3594,2057.75 Q1371.8438,2057.75 1370.6406,2057.125 Q1369.6563,2056.625 1368.9688,2055.5625 Q1368.2813,2054.4844 1368.2813,2053.2031 L1368.2813,2052.0469 Q1368.2813,2050.7188 1368.8906,2049.5781 Q1369.5156,2048.4219 1370.6094,2047.8125 Q1371.7031,2047.1875 1372.9375,2047.1875 Q1373.6719,2047.1875 1374.3125,2047.3594 Q1374.9688,2047.5156 1375.5156,2047.875 Z " fill="#000000"/><text fill="#000000" font-family="sans-serif" font-size="14" lengthAdjust="spacing" textLength="37" x="1393.25" y="2057.7285">Agent</text><line style="stroke:#181818;stroke-width:0.5;" x1="1296.5" x2="1494.5" y1="2068" y2="2068"/><text fill="#000000" font-family="sans-serif" font-size="14" lengthAdjust="spacing" textLength="81" x="1301.5" y="2086.5332">-String name</text><text fill="#000000" font-family="sans-serif" font-size="14" lengthAdjust="spacing" textLength="188" x="1301.5" y="2104.1426">-Integer passportCardNumber</text><text fill="#000000" font-family="sans-serif" font-size="14" lengthAdjust="spacing" textLength="120" x="1301.5" y="2121.752">-Integer taxNumber</text><text fill="#000000" font-family="sans-serif" font-size="14" lengthAdjust="spacing" textLength="131" x="1301.5" y="2139.3613">-String emailAddress</text><text fill="#000000" font-family="sans-serif" font-size="14" lengthAdjust="spacing" textLength="142" x="1301.5" y="2156.9707">-Integer phoneNumber</text><line style="stroke:#181818;stroke-width:0.5;" x1="1296.5" x2="1494.5" y1="2164.0469" y2="2164.0469"/></g><!--class Announcement--><g id="elem_Announcement"><rect codeLine="60" fill="#F1F1F1" height="100.8281" id="Announcement" rx="2.5" ry="2.5" style="stroke:#181818;stroke-width:0.5;" width="447" x="943" y="1857"/><ellipse cx="1114.75" cy="1873" fill="#ADD1B2" rx="11" ry="11" style="stroke:#181818;stroke-width:1.0;"/><path d="M1117.5156,1868.875 Q1117.6719,1868.6563 1117.8594,1868.5469 Q1118.0469,1868.4375 1118.2656,1868.4375 Q1118.6406,1868.4375 1118.875,1868.7031 Q1119.1094,1868.9531 1119.1094,1869.5625 L1119.1094,1871.0156 Q1119.1094,1871.625 1118.875,1871.8906 Q1118.6406,1872.1563 1118.2656,1872.1563 Q1117.9219,1872.1563 1117.7188,1871.9531 Q1117.5156,1871.7656 1117.4063,1871.25 Q1117.3594,1870.8906 1117.1719,1870.7031 Q1116.8438,1870.3281 1116.2344,1870.1094 Q1115.625,1869.8906 1115,1869.8906 Q1114.2344,1869.8906 1113.5938,1870.2188 Q1112.9688,1870.5469 1112.4688,1871.2969 Q1111.9844,1872.0469 1111.9844,1873.0781 L1111.9844,1874.1719 Q1111.9844,1875.4063 1112.875,1876.2344 Q1113.7656,1877.0469 1115.3594,1877.0469 Q1116.2969,1877.0469 1116.9531,1876.7969 Q1117.3438,1876.6406 1117.7656,1876.2031 Q1118.0313,1875.9375 1118.1719,1875.8594 Q1118.3281,1875.7813 1118.5313,1875.7813 Q1118.8594,1875.7813 1119.1094,1876.0469 Q1119.375,1876.2969 1119.375,1876.6406 Q1119.375,1876.9844 1119.0313,1877.3906 Q1118.5313,1877.9688 1117.7344,1878.2969 Q1116.6563,1878.75 1115.3594,1878.75 Q1113.8438,1878.75 1112.6406,1878.125 Q1111.6563,1877.625 1110.9688,1876.5625 Q1110.2813,1875.4844 1110.2813,1874.2031 L1110.2813,1873.0469 Q1110.2813,1871.7188 1110.8906,1870.5781 Q1111.5156,1869.4219 1112.6094,1868.8125 Q1113.7031,1868.1875 1114.9375,1868.1875 Q1115.6719,1868.1875 1116.3125,1868.3594 Q1116.9688,1868.5156 1117.5156,1868.875 Z " fill="#000000"/><text fill="#000000" font-family="sans-serif" font-size="14" lengthAdjust="spacing" textLength="95" x="1135.25" y="1878.7285">Announcement</text><line style="stroke:#181818;stroke-width:0.5;" x1="944" x2="1389" y1="1889" y2="1889"/><text fill="#000000" font-family="sans-serif" font-size="14" lengthAdjust="spacing" textLength="149" x="949" y="1907.5332">-String acceptanceDate</text><line style="stroke:#181818;stroke-width:0.5;" x1="944" x2="1389" y1="1914.6094" y2="1914.6094"/><text fill="#000000" font-family="sans-serif" font-size="14" lengthAdjust="spacing" textLength="113" x="949" y="1933.1426">-getCurrentDate()</text><text fill="#000000" font-family="sans-serif" font-size="14" lengthAdjust="spacing" textLength="435" x="949" y="1950.752">+Announcement(agent, commissionType, commissionValue, request)</text></g><!--class Commission--><g id="elem_Commission"><rect codeLine="65" fill="#F1F1F1" height="83.2188" id="Commission" rx="2.5" ry="2.5" style="stroke:#181818;stroke-width:0.5;" width="324" x="437.5" y="2062.5"/><ellipse cx="557.25" cy="2078.5" fill="#ADD1B2" rx="11" ry="11" style="stroke:#181818;stroke-width:1.0;"/><path d="M560.0156,2074.375 Q560.1719,2074.1563 560.3594,2074.0469 Q560.5469,2073.9375 560.7656,2073.9375 Q561.1406,2073.9375 561.375,2074.2031 Q561.6094,2074.4531 561.6094,2075.0625 L561.6094,2076.5156 Q561.6094,2077.125 561.375,2077.3906 Q561.1406,2077.6563 560.7656,2077.6563 Q560.4219,2077.6563 560.2188,2077.4531 Q560.0156,2077.2656 559.9063,2076.75 Q559.8594,2076.3906 559.6719,2076.2031 Q559.3438,2075.8281 558.7344,2075.6094 Q558.125,2075.3906 557.5,2075.3906 Q556.7344,2075.3906 556.0938,2075.7188 Q555.4688,2076.0469 554.9688,2076.7969 Q554.4844,2077.5469 554.4844,2078.5781 L554.4844,2079.6719 Q554.4844,2080.9063 555.375,2081.7344 Q556.2656,2082.5469 557.8594,2082.5469 Q558.7969,2082.5469 559.4531,2082.2969 Q559.8438,2082.1406 560.2656,2081.7031 Q560.5313,2081.4375 560.6719,2081.3594 Q560.8281,2081.2813 561.0313,2081.2813 Q561.3594,2081.2813 561.6094,2081.5469 Q561.875,2081.7969 561.875,2082.1406 Q561.875,2082.4844 561.5313,2082.8906 Q561.0313,2083.4688 560.2344,2083.7969 Q559.1563,2084.25 557.8594,2084.25 Q556.3438,2084.25 555.1406,2083.625 Q554.1563,2083.125 553.4688,2082.0625 Q552.7813,2080.9844 552.7813,2079.7031 L552.7813,2078.5469 Q552.7813,2077.2188 553.3906,2076.0781 Q554.0156,2074.9219 555.1094,2074.3125 Q556.2031,2073.6875 557.4375,2073.6875 Q558.1719,2073.6875 558.8125,2073.8594 Q559.4688,2074.0156 560.0156,2074.375 Z " fill="#000000"/><text fill="#000000" font-family="sans-serif" font-size="14" lengthAdjust="spacing" textLength="76" x="577.75" y="2084.2285">Commission</text><line style="stroke:#181818;stroke-width:0.5;" x1="438.5" x2="760.5" y1="2094.5" y2="2094.5"/><text fill="#000000" font-family="sans-serif" font-size="14" lengthAdjust="spacing" textLength="161" x="443.5" y="2113.0332">-double commissionValue</text><line style="stroke:#181818;stroke-width:0.5;" x1="438.5" x2="760.5" y1="2120.1094" y2="2120.1094"/><text fill="#000000" font-family="sans-serif" font-size="14" lengthAdjust="spacing" textLength="312" x="443.5" y="2138.6426">+Commission(commissionValue,commissionType)</text></g><!--class CommissionType--><g id="elem_CommissionType"><rect codeLine="133" fill="#F1F1F1" height="100.8281" id="CommissionType" rx="2.5" ry="2.5" style="stroke:#181818;stroke-width:0.5;" width="211" x="123" y="1494"/><ellipse cx="170.25" cy="1510" fill="#ADD1B2" rx="11" ry="11" style="stroke:#181818;stroke-width:1.0;"/><path d="M173.0156,1505.875 Q173.1719,1505.6563 173.3594,1505.5469 Q173.5469,1505.4375 173.7656,1505.4375 Q174.1406,1505.4375 174.375,1505.7031 Q174.6094,1505.9531 174.6094,1506.5625 L174.6094,1508.0156 Q174.6094,1508.625 174.375,1508.8906 Q174.1406,1509.1563 173.7656,1509.1563 Q173.4219,1509.1563 173.2188,1508.9531 Q173.0156,1508.7656 172.9063,1508.25 Q172.8594,1507.8906 172.6719,1507.7031 Q172.3438,1507.3281 171.7344,1507.1094 Q171.125,1506.8906 170.5,1506.8906 Q169.7344,1506.8906 169.0938,1507.2188 Q168.4688,1507.5469 167.9688,1508.2969 Q167.4844,1509.0469 167.4844,1510.0781 L167.4844,1511.1719 Q167.4844,1512.4063 168.375,1513.2344 Q169.2656,1514.0469 170.8594,1514.0469 Q171.7969,1514.0469 172.4531,1513.7969 Q172.8438,1513.6406 173.2656,1513.2031 Q173.5313,1512.9375 173.6719,1512.8594 Q173.8281,1512.7813 174.0313,1512.7813 Q174.3594,1512.7813 174.6094,1513.0469 Q174.875,1513.2969 174.875,1513.6406 Q174.875,1513.9844 174.5313,1514.3906 Q174.0313,1514.9688 173.2344,1515.2969 Q172.1563,1515.75 170.8594,1515.75 Q169.3438,1515.75 168.1406,1515.125 Q167.1563,1514.625 166.4688,1513.5625 Q165.7813,1512.4844 165.7813,1511.2031 L165.7813,1510.0469 Q165.7813,1508.7188 166.3906,1507.5781 Q167.0156,1506.4219 168.1094,1505.8125 Q169.2031,1505.1875 170.4375,1505.1875 Q171.1719,1505.1875 171.8125,1505.3594 Q172.4688,1505.5156 173.0156,1505.875 Z " fill="#000000"/><text fill="#000000" font-family="sans-serif" font-size="14" lengthAdjust="spacing" textLength="108" x="190.75" y="1515.7285">CommissionType</text><line style="stroke:#181818;stroke-width:0.5;" x1="124" x2="333" y1="1526" y2="1526"/><text fill="#000000" font-family="sans-serif" font-size="14" lengthAdjust="spacing" textLength="115" x="129" y="1544.5332">-String description</text><text fill="#000000" font-family="sans-serif" font-size="14" lengthAdjust="spacing" textLength="119" x="129" y="1562.1426">-String designation</text><line style="stroke:#181818;stroke-width:0.5;" x1="124" x2="333" y1="1569.2188" y2="1569.2188"/><text fill="#000000" font-family="sans-serif" font-size="14" lengthAdjust="spacing" textLength="199" x="129" y="1587.752">+CommissionType(designation)</text></g><!--class Request--><g id="elem_Request"><rect codeLine="73" fill="#F1F1F1" height="153.6563" id="Request" rx="2.5" ry="2.5" style="stroke:#181818;stroke-width:0.5;" width="492" x="816.5" y="651"/><ellipse cx="1031.75" cy="667" fill="#ADD1B2" rx="11" ry="11" style="stroke:#181818;stroke-width:1.0;"/><path d="M1034.5156,662.875 Q1034.6719,662.6563 1034.8594,662.5469 Q1035.0469,662.4375 1035.2656,662.4375 Q1035.6406,662.4375 1035.875,662.7031 Q1036.1094,662.9531 1036.1094,663.5625 L1036.1094,665.0156 Q1036.1094,665.625 1035.875,665.8906 Q1035.6406,666.1563 1035.2656,666.1563 Q1034.9219,666.1563 1034.7188,665.9531 Q1034.5156,665.7656 1034.4063,665.25 Q1034.3594,664.8906 1034.1719,664.7031 Q1033.8438,664.3281 1033.2344,664.1094 Q1032.625,663.8906 1032,663.8906 Q1031.2344,663.8906 1030.5938,664.2188 Q1029.9688,664.5469 1029.4688,665.2969 Q1028.9844,666.0469 1028.9844,667.0781 L1028.9844,668.1719 Q1028.9844,669.4063 1029.875,670.2344 Q1030.7656,671.0469 1032.3594,671.0469 Q1033.2969,671.0469 1033.9531,670.7969 Q1034.3438,670.6406 1034.7656,670.2031 Q1035.0313,669.9375 1035.1719,669.8594 Q1035.3281,669.7813 1035.5313,669.7813 Q1035.8594,669.7813 1036.1094,670.0469 Q1036.375,670.2969 1036.375,670.6406 Q1036.375,670.9844 1036.0313,671.3906 Q1035.5313,671.9688 1034.7344,672.2969 Q1033.6563,672.75 1032.3594,672.75 Q1030.8438,672.75 1029.6406,672.125 Q1028.6563,671.625 1027.9688,670.5625 Q1027.2813,669.4844 1027.2813,668.2031 L1027.2813,667.0469 Q1027.2813,665.7188 1027.8906,664.5781 Q1028.5156,663.4219 1029.6094,662.8125 Q1030.7031,662.1875 1031.9375,662.1875 Q1032.6719,662.1875 1033.3125,662.3594 Q1033.9688,662.5156 1034.5156,662.875 Z " fill="#000000"/><text fill="#000000" font-family="sans-serif" font-size="14" lengthAdjust="spacing" textLength="53" x="1052.25" y="672.7285">Request</text><line style="stroke:#181818;stroke-width:0.5;" x1="817.5" x2="1307.5" y1="683" y2="683"/><text fill="#000000" font-family="sans-serif" font-size="14" lengthAdjust="spacing" textLength="124" x="822.5" y="701.5332">-String requestDate</text><line style="stroke:#181818;stroke-width:0.5;" x1="817.5" x2="1307.5" y1="708.6094" y2="708.6094"/><text fill="#000000" font-family="sans-serif" font-size="14" lengthAdjust="spacing" textLength="428" x="822.5" y="727.1426">+Request(ownerEmail, propertyType,streetName, city, district, state,</text><text fill="#000000" font-family="sans-serif" font-size="14" lengthAdjust="spacing" textLength="412" x="822.5" y="744.752">zipCode, distanceCityCentre, price, photograph,numberBedroom,</text><text fill="#000000" font-family="sans-serif" font-size="14" lengthAdjust="spacing" textLength="480" x="822.5" y="762.3613">numberParkingSpace,existenceBasement,inhabitableLoft, numberBathroom,</text><text fill="#000000" font-family="sans-serif" font-size="14" lengthAdjust="spacing" textLength="218" x="826.5" y="779.9707">availableEquipment, sunExposure)</text><text fill="#000000" font-family="sans-serif" font-size="14" lengthAdjust="spacing" textLength="113" x="822.5" y="797.5801">-getCurrentDate()</text></g><!--class Agency--><g id="elem_Agency"><rect codeLine="79" fill="#F1F1F1" height="294.5313" id="Agency" rx="2.5" ry="2.5" style="stroke:#181818;stroke-width:0.5;" width="708" x="1187.5" y="866"/><ellipse cx="1513.75" cy="882" fill="#ADD1B2" rx="11" ry="11" style="stroke:#181818;stroke-width:1.0;"/><path d="M1516.5156,877.875 Q1516.6719,877.6563 1516.8594,877.5469 Q1517.0469,877.4375 1517.2656,877.4375 Q1517.6406,877.4375 1517.875,877.7031 Q1518.1094,877.9531 1518.1094,878.5625 L1518.1094,880.0156 Q1518.1094,880.625 1517.875,880.8906 Q1517.6406,881.1563 1517.2656,881.1563 Q1516.9219,881.1563 1516.7188,880.9531 Q1516.5156,880.7656 1516.4063,880.25 Q1516.3594,879.8906 1516.1719,879.7031 Q1515.8438,879.3281 1515.2344,879.1094 Q1514.625,878.8906 1514,878.8906 Q1513.2344,878.8906 1512.5938,879.2188 Q1511.9688,879.5469 1511.4688,880.2969 Q1510.9844,881.0469 1510.9844,882.0781 L1510.9844,883.1719 Q1510.9844,884.4063 1511.875,885.2344 Q1512.7656,886.0469 1514.3594,886.0469 Q1515.2969,886.0469 1515.9531,885.7969 Q1516.3438,885.6406 1516.7656,885.2031 Q1517.0313,884.9375 1517.1719,884.8594 Q1517.3281,884.7813 1517.5313,884.7813 Q1517.8594,884.7813 1518.1094,885.0469 Q1518.375,885.2969 1518.375,885.6406 Q1518.375,885.9844 1518.0313,886.3906 Q1517.5313,886.9688 1516.7344,887.2969 Q1515.6563,887.75 1514.3594,887.75 Q1512.8438,887.75 1511.6406,887.125 Q1510.6563,886.625 1509.9688,885.5625 Q1509.2813,884.4844 1509.2813,883.2031 L1509.2813,882.0469 Q1509.2813,880.7188 1509.8906,879.5781 Q1510.5156,878.4219 1511.6094,877.8125 Q1512.7031,877.1875 1513.9375,877.1875 Q1514.6719,877.1875 1515.3125,877.3594 Q1515.9688,877.5156 1516.5156,877.875 Z " fill="#000000"/><text fill="#000000" font-family="sans-serif" font-size="14" lengthAdjust="spacing" textLength="47" x="1534.25" y="887.7285">Agency</text><line style="stroke:#181818;stroke-width:0.5;" x1="1188.5" x2="1894.5" y1="898" y2="898"/><text fill="#000000" font-family="sans-serif" font-size="14" lengthAdjust="spacing" textLength="64" x="1193.5" y="916.5332">-integer id</text><text fill="#000000" font-family="sans-serif" font-size="14" lengthAdjust="spacing" textLength="119" x="1193.5" y="934.1426">-String designation</text><text fill="#000000" font-family="sans-serif" font-size="14" lengthAdjust="spacing" textLength="131" x="1193.5" y="951.752">-String emailAddress</text><text fill="#000000" font-family="sans-serif" font-size="14" lengthAdjust="spacing" textLength="135" x="1193.5" y="969.3613">-String phoneNumber</text><line style="stroke:#181818;stroke-width:0.5;" x1="1188.5" x2="1894.5" y1="976.4375" y2="976.4375"/><text fill="#000000" font-family="sans-serif" font-size="14" lengthAdjust="spacing" textLength="228" x="1193.5" y="994.9707">-addAnnouncement(announcement)</text><text fill="#000000" font-family="sans-serif" font-size="14" lengthAdjust="spacing" textLength="253" x="1193.5" y="1012.5801">-validateAnnouncement(announcement)</text><text fill="#000000" font-family="sans-serif" font-size="14" lengthAdjust="spacing" textLength="155" x="1193.5" y="1030.1895">-getAgentByEmail(email)</text><text fill="#000000" font-family="sans-serif" font-size="14" lengthAdjust="spacing" textLength="140" x="1193.5" y="1047.7988">-addRequest(request)</text><text fill="#000000" font-family="sans-serif" font-size="14" lengthAdjust="spacing" textLength="165" x="1193.5" y="1065.4082">-validateRequest(request)</text><text fill="#000000" font-family="sans-serif" font-size="14" lengthAdjust="spacing" textLength="169" x="1193.5" y="1083.0176">+anyAgentHasEmail(email)</text><text fill="#000000" font-family="sans-serif" font-size="14" lengthAdjust="spacing" textLength="480" x="1193.5" y="1100.627">+publishAnnouncement(agent, commissionType, commissionValue, request)</text><text fill="#000000" font-family="sans-serif" font-size="14" lengthAdjust="spacing" textLength="696" x="1193.5" y="1118.2363">+createRequest(ownerEmail, propertyType, streetName, city, district, state, zipCode, area, distanceCityCentre,</text><text fill="#000000" font-family="sans-serif" font-size="14" lengthAdjust="spacing" textLength="592" x="1197.5" y="1135.8457">price, photograph,numberBedroom,numberParkingSpace, existenceBasement,inhabitableLoft,</text><text fill="#000000" font-family="sans-serif" font-size="14" lengthAdjust="spacing" textLength="335" x="1193.5" y="1153.4551">numberBathroom, availableEquipment, sunExposure)</text></g><!--class CommissionTypeRepository--><g id="elem_CommissionTypeRepository"><rect codeLine="95" fill="#F1F1F1" height="83.2188" id="CommissionTypeRepository" rx="2.5" ry="2.5" style="stroke:#181818;stroke-width:0.5;" width="322" x="70.5" y="686.5"/><ellipse cx="139.25" cy="702.5" fill="#ADD1B2" rx="11" ry="11" style="stroke:#181818;stroke-width:1.0;"/><path d="M142.0156,698.375 Q142.1719,698.1563 142.3594,698.0469 Q142.5469,697.9375 142.7656,697.9375 Q143.1406,697.9375 143.375,698.2031 Q143.6094,698.4531 143.6094,699.0625 L143.6094,700.5156 Q143.6094,701.125 143.375,701.3906 Q143.1406,701.6563 142.7656,701.6563 Q142.4219,701.6563 142.2188,701.4531 Q142.0156,701.2656 141.9063,700.75 Q141.8594,700.3906 141.6719,700.2031 Q141.3438,699.8281 140.7344,699.6094 Q140.125,699.3906 139.5,699.3906 Q138.7344,699.3906 138.0938,699.7188 Q137.4688,700.0469 136.9688,700.7969 Q136.4844,701.5469 136.4844,702.5781 L136.4844,703.6719 Q136.4844,704.9063 137.375,705.7344 Q138.2656,706.5469 139.8594,706.5469 Q140.7969,706.5469 141.4531,706.2969 Q141.8438,706.1406 142.2656,705.7031 Q142.5313,705.4375 142.6719,705.3594 Q142.8281,705.2813 143.0313,705.2813 Q143.3594,705.2813 143.6094,705.5469 Q143.875,705.7969 143.875,706.1406 Q143.875,706.4844 143.5313,706.8906 Q143.0313,707.4688 142.2344,707.7969 Q141.1563,708.25 139.8594,708.25 Q138.3438,708.25 137.1406,707.625 Q136.1563,707.125 135.4688,706.0625 Q134.7813,704.9844 134.7813,703.7031 L134.7813,702.5469 Q134.7813,701.2188 135.3906,700.0781 Q136.0156,698.9219 137.1094,698.3125 Q138.2031,697.6875 139.4375,697.6875 Q140.1719,697.6875 140.8125,697.8594 Q141.4688,698.0156 142.0156,698.375 Z " fill="#000000"/><text fill="#000000" font-family="sans-serif" font-size="14" lengthAdjust="spacing" textLength="176" x="159.75" y="708.2285">CommissionTypeRepository</text><line style="stroke:#181818;stroke-width:0.5;" x1="71.5" x2="391.5" y1="718.5" y2="718.5"/><line style="stroke:#181818;stroke-width:0.5;" x1="71.5" x2="391.5" y1="726.5" y2="726.5"/><text fill="#000000" font-family="sans-serif" font-size="14" lengthAdjust="spacing" textLength="168" x="76.5" y="745.0332">+getCommissionTypeList()</text><text fill="#000000" font-family="sans-serif" font-size="14" lengthAdjust="spacing" textLength="310" x="76.5" y="762.6426">+getCommissionTypeByDesignation(designation)</text></g><!--class PropertyTypeRepository--><g id="elem_PropertyTypeRepository"><rect codeLine="99" fill="#F1F1F1" height="83.2188" id="PropertyTypeRepository" rx="2.5" ry="2.5" style="stroke:#181818;stroke-width:0.5;" width="300" x="481.5" y="686.5"/><ellipse cx="550.25" cy="702.5" fill="#ADD1B2" rx="11" ry="11" style="stroke:#181818;stroke-width:1.0;"/><path d="M553.0156,698.375 Q553.1719,698.1563 553.3594,698.0469 Q553.5469,697.9375 553.7656,697.9375 Q554.1406,697.9375 554.375,698.2031 Q554.6094,698.4531 554.6094,699.0625 L554.6094,700.5156 Q554.6094,701.125 554.375,701.3906 Q554.1406,701.6563 553.7656,701.6563 Q553.4219,701.6563 553.2188,701.4531 Q553.0156,701.2656 552.9063,700.75 Q552.8594,700.3906 552.6719,700.2031 Q552.3438,699.8281 551.7344,699.6094 Q551.125,699.3906 550.5,699.3906 Q549.7344,699.3906 549.0938,699.7188 Q548.4688,700.0469 547.9688,700.7969 Q547.4844,701.5469 547.4844,702.5781 L547.4844,703.6719 Q547.4844,704.9063 548.375,705.7344 Q549.2656,706.5469 550.8594,706.5469 Q551.7969,706.5469 552.4531,706.2969 Q552.8438,706.1406 553.2656,705.7031 Q553.5313,705.4375 553.6719,705.3594 Q553.8281,705.2813 554.0313,705.2813 Q554.3594,705.2813 554.6094,705.5469 Q554.875,705.7969 554.875,706.1406 Q554.875,706.4844 554.5313,706.8906 Q554.0313,707.4688 553.2344,707.7969 Q552.1563,708.25 550.8594,708.25 Q549.3438,708.25 548.1406,707.625 Q547.1563,707.125 546.4688,706.0625 Q545.7813,704.9844 545.7813,703.7031 L545.7813,702.5469 Q545.7813,701.2188 546.3906,700.0781 Q547.0156,698.9219 548.1094,698.3125 Q549.2031,697.6875 550.4375,697.6875 Q551.1719,697.6875 551.8125,697.8594 Q552.4688,698.0156 553.0156,698.375 Z " fill="#000000"/><text fill="#000000" font-family="sans-serif" font-size="14" lengthAdjust="spacing" textLength="154" x="570.75" y="708.2285">PropertyTypeRepository</text><line style="stroke:#181818;stroke-width:0.5;" x1="482.5" x2="780.5" y1="718.5" y2="718.5"/><line style="stroke:#181818;stroke-width:0.5;" x1="482.5" x2="780.5" y1="726.5" y2="726.5"/><text fill="#000000" font-family="sans-serif" font-size="14" lengthAdjust="spacing" textLength="146" x="487.5" y="745.0332">+getPropertyTypeList()</text><text fill="#000000" font-family="sans-serif" font-size="14" lengthAdjust="spacing" textLength="288" x="487.5" y="762.6426">+getPropertyTypeByDesignation(designation)</text></g><!--class AgencyRepository--><g id="elem_AgencyRepository"><rect codeLine="104" fill="#F1F1F1" height="65.6094" id="AgencyRepository" rx="2.5" ry="2.5" style="stroke:#181818;stroke-width:0.5;" width="217" x="1344" y="695"/><ellipse cx="1390.75" cy="711" fill="#ADD1B2" rx="11" ry="11" style="stroke:#181818;stroke-width:1.0;"/><path d="M1393.5156,706.875 Q1393.6719,706.6563 1393.8594,706.5469 Q1394.0469,706.4375 1394.2656,706.4375 Q1394.6406,706.4375 1394.875,706.7031 Q1395.1094,706.9531 1395.1094,707.5625 L1395.1094,709.0156 Q1395.1094,709.625 1394.875,709.8906 Q1394.6406,710.1563 1394.2656,710.1563 Q1393.9219,710.1563 1393.7188,709.9531 Q1393.5156,709.7656 1393.4063,709.25 Q1393.3594,708.8906 1393.1719,708.7031 Q1392.8438,708.3281 1392.2344,708.1094 Q1391.625,707.8906 1391,707.8906 Q1390.2344,707.8906 1389.5938,708.2188 Q1388.9688,708.5469 1388.4688,709.2969 Q1387.9844,710.0469 1387.9844,711.0781 L1387.9844,712.1719 Q1387.9844,713.4063 1388.875,714.2344 Q1389.7656,715.0469 1391.3594,715.0469 Q1392.2969,715.0469 1392.9531,714.7969 Q1393.3438,714.6406 1393.7656,714.2031 Q1394.0313,713.9375 1394.1719,713.8594 Q1394.3281,713.7813 1394.5313,713.7813 Q1394.8594,713.7813 1395.1094,714.0469 Q1395.375,714.2969 1395.375,714.6406 Q1395.375,714.9844 1395.0313,715.3906 Q1394.5313,715.9688 1393.7344,716.2969 Q1392.6563,716.75 1391.3594,716.75 Q1389.8438,716.75 1388.6406,716.125 Q1387.6563,715.625 1386.9688,714.5625 Q1386.2813,713.4844 1386.2813,712.2031 L1386.2813,711.0469 Q1386.2813,709.7188 1386.8906,708.5781 Q1387.5156,707.4219 1388.6094,706.8125 Q1389.7031,706.1875 1390.9375,706.1875 Q1391.6719,706.1875 1392.3125,706.3594 Q1392.9688,706.5156 1393.5156,706.875 Z " fill="#000000"/><text fill="#000000" font-family="sans-serif" font-size="14" lengthAdjust="spacing" textLength="115" x="1411.25" y="716.7285">AgencyRepository</text><line style="stroke:#181818;stroke-width:0.5;" x1="1345" x2="1560" y1="727" y2="727"/><line style="stroke:#181818;stroke-width:0.5;" x1="1345" x2="1560" y1="735" y2="735"/><text fill="#000000" font-family="sans-serif" font-size="14" lengthAdjust="spacing" textLength="205" x="1350" y="753.5332">+getAgencyByAgentEmail(email)</text></g><!--class Repositories--><g id="elem_Repositories"><rect codeLine="108" fill="#F1F1F1" height="136.0469" id="Repositories" rx="2.5" ry="2.5" style="stroke:#181818;stroke-width:0.5;" width="226" x="684.5" y="454"/><ellipse cx="753.75" cy="470" fill="#ADD1B2" rx="11" ry="11" style="stroke:#181818;stroke-width:1.0;"/><path d="M756.5156,465.875 Q756.6719,465.6563 756.8594,465.5469 Q757.0469,465.4375 757.2656,465.4375 Q757.6406,465.4375 757.875,465.7031 Q758.1094,465.9531 758.1094,466.5625 L758.1094,468.0156 Q758.1094,468.625 757.875,468.8906 Q757.6406,469.1563 757.2656,469.1563 Q756.9219,469.1563 756.7188,468.9531 Q756.5156,468.7656 756.4063,468.25 Q756.3594,467.8906 756.1719,467.7031 Q755.8438,467.3281 755.2344,467.1094 Q754.625,466.8906 754,466.8906 Q753.2344,466.8906 752.5938,467.2188 Q751.9688,467.5469 751.4688,468.2969 Q750.9844,469.0469 750.9844,470.0781 L750.9844,471.1719 Q750.9844,472.4063 751.875,473.2344 Q752.7656,474.0469 754.3594,474.0469 Q755.2969,474.0469 755.9531,473.7969 Q756.3438,473.6406 756.7656,473.2031 Q757.0313,472.9375 757.1719,472.8594 Q757.3281,472.7813 757.5313,472.7813 Q757.8594,472.7813 758.1094,473.0469 Q758.375,473.2969 758.375,473.6406 Q758.375,473.9844 758.0313,474.3906 Q757.5313,474.9688 756.7344,475.2969 Q755.6563,475.75 754.3594,475.75 Q752.8438,475.75 751.6406,475.125 Q750.6563,474.625 749.9688,473.5625 Q749.2813,472.4844 749.2813,471.2031 L749.2813,470.0469 Q749.2813,468.7188 749.8906,467.5781 Q750.5156,466.4219 751.6094,465.8125 Q752.7031,465.1875 753.9375,465.1875 Q754.6719,465.1875 755.3125,465.3594 Q755.9688,465.5156 756.5156,465.875 Z " fill="#000000"/><text fill="#000000" font-family="sans-serif" font-size="14" lengthAdjust="spacing" textLength="79" x="774.25" y="475.7285">Repositories</text><line style="stroke:#181818;stroke-width:0.5;" x1="685.5" x2="909.5" y1="486" y2="486"/><line style="stroke:#181818;stroke-width:0.5;" x1="685.5" x2="909.5" y1="494" y2="494"/><text fill="#000000" font-family="sans-serif" font-size="14" lengthAdjust="spacing" textLength="94" x="690.5" y="512.5332">-Repositories()</text><text fill="#000000" font-family="sans-serif" font-size="14" lengthAdjust="spacing" textLength="182" x="690.5" y="530.1426">+getInstance() : Repositories</text><text fill="#000000" font-family="sans-serif" font-size="14" lengthAdjust="spacing" textLength="214" x="690.5" y="547.752">+getCommissionTypeRepository()</text><text fill="#000000" font-family="sans-serif" font-size="14" lengthAdjust="spacing" textLength="192" x="690.5" y="565.3613">+getPropertyTypeRepository()</text><text fill="#000000" font-family="sans-serif" font-size="14" lengthAdjust="spacing" textLength="153" x="690.5" y="582.9707">+getAgencyRepository()</text></g><!--class PublishAnnouncementController--><g id="elem_PublishAnnouncementController"><rect codeLine="116" fill="#F1F1F1" height="276.9219" id="PublishAnnouncementController" rx="2.5" ry="2.5" style="stroke:#181818;stroke-width:0.5;" width="706" x="227.5" y="7"/><ellipse cx="474.75" cy="23" fill="#ADD1B2" rx="11" ry="11" style="stroke:#181818;stroke-width:1.0;"/><path d="M477.5156,18.875 Q477.6719,18.6563 477.8594,18.5469 Q478.0469,18.4375 478.2656,18.4375 Q478.6406,18.4375 478.875,18.7031 Q479.1094,18.9531 479.1094,19.5625 L479.1094,21.0156 Q479.1094,21.625 478.875,21.8906 Q478.6406,22.1563 478.2656,22.1563 Q477.9219,22.1563 477.7188,21.9531 Q477.5156,21.7656 477.4063,21.25 Q477.3594,20.8906 477.1719,20.7031 Q476.8438,20.3281 476.2344,20.1094 Q475.625,19.8906 475,19.8906 Q474.2344,19.8906 473.5938,20.2188 Q472.9688,20.5469 472.4688,21.2969 Q471.9844,22.0469 471.9844,23.0781 L471.9844,24.1719 Q471.9844,25.4063 472.875,26.2344 Q473.7656,27.0469 475.3594,27.0469 Q476.2969,27.0469 476.9531,26.7969 Q477.3438,26.6406 477.7656,26.2031 Q478.0313,25.9375 478.1719,25.8594 Q478.3281,25.7813 478.5313,25.7813 Q478.8594,25.7813 479.1094,26.0469 Q479.375,26.2969 479.375,26.6406 Q479.375,26.9844 479.0313,27.3906 Q478.5313,27.9688 477.7344,28.2969 Q476.6563,28.75 475.3594,28.75 Q473.8438,28.75 472.6406,28.125 Q471.6563,27.625 470.9688,26.5625 Q470.2813,25.4844 470.2813,24.2031 L470.2813,23.0469 Q470.2813,21.7188 470.8906,20.5781 Q471.5156,19.4219 472.6094,18.8125 Q473.7031,18.1875 474.9375,18.1875 Q475.6719,18.1875 476.3125,18.3594 Q476.9688,18.5156 477.5156,18.875 Z " fill="#000000"/><text fill="#000000" font-family="sans-serif" font-size="14" lengthAdjust="spacing" textLength="203" x="495.25" y="28.7285">PublishAnnouncementController</text><line style="stroke:#181818;stroke-width:0.5;" x1="228.5" x2="932.5" y1="39" y2="39"/><line style="stroke:#181818;stroke-width:0.5;" x1="228.5" x2="932.5" y1="47" y2="47"/><text fill="#000000" font-family="sans-serif" font-size="14" lengthAdjust="spacing" textLength="674" x="233.5" y="65.5332">+PublishAnnouncementController(PropertyTypeRepository,CommissionTypeRepository,AgencyRepository)</text><text fill="#000000" font-family="sans-serif" font-size="14" lengthAdjust="spacing" textLength="694" x="233.5" y="83.1426">+publishAnnouncement(commissionValue, commissionTypeDescription, ownerEmail, propertyTypeDescription,</text><text fill="#000000" font-family="sans-serif" font-size="14" lengthAdjust="spacing" textLength="417" x="233.5" y="100.752">streetName, city, district, state, zipCode, area, distanceCityCentre,</text><text fill="#000000" font-family="sans-serif" font-size="14" lengthAdjust="spacing" textLength="365" x="233.5" y="118.3613">price, photograph,numberBedroom,numberParkingSpace,</text><text fill="#000000" font-family="sans-serif" font-size="14" lengthAdjust="spacing" textLength="562" x="233.5" y="135.9707">existenceBasement,inhabitableLoft, numberBathroom, availableEquipment, sunExposure)</text><text fill="#000000" font-family="sans-serif" font-size="14" lengthAdjust="spacing" textLength="352" x="233.5" y="153.5801">+createCommission(commissionType,commissionValue)</text><text fill="#000000" font-family="sans-serif" font-size="14" lengthAdjust="spacing" textLength="168" x="233.5" y="171.1895">+getCommissionTypeList()</text><text fill="#000000" font-family="sans-serif" font-size="14" lengthAdjust="spacing" textLength="146" x="233.5" y="188.7988">+getPropertyTypeList()</text><text fill="#000000" font-family="sans-serif" font-size="14" lengthAdjust="spacing" textLength="133" x="233.5" y="206.4082">+addPhotographUri()</text><text fill="#000000" font-family="sans-serif" font-size="14" lengthAdjust="spacing" textLength="166" x="233.5" y="224.0176">+addAvailableEquipment()</text><text fill="#000000" font-family="sans-serif" font-size="14" lengthAdjust="spacing" textLength="155" x="233.5" y="241.627">-getAgentFromSession()</text><text fill="#000000" font-family="sans-serif" font-size="14" lengthAdjust="spacing" textLength="285" x="233.5" y="259.2363">-getPropertyTypeByDesignation(designation)</text><text fill="#000000" font-family="sans-serif" font-size="14" lengthAdjust="spacing" textLength="307" x="233.5" y="276.8457">-getCommissionTypeByDesignation(designation)</text></g><!--class PropertyType--><g id="elem_PropertyType"><rect codeLine="128" fill="#F1F1F1" height="83.2188" id="PropertyType" rx="2.5" ry="2.5" style="stroke:#181818;stroke-width:0.5;" width="189" x="537" y="972"/><ellipse cx="584.25" cy="988" fill="#ADD1B2" rx="11" ry="11" style="stroke:#181818;stroke-width:1.0;"/><path d="M587.0156,983.875 Q587.1719,983.6563 587.3594,983.5469 Q587.5469,983.4375 587.7656,983.4375 Q588.1406,983.4375 588.375,983.7031 Q588.6094,983.9531 588.6094,984.5625 L588.6094,986.0156 Q588.6094,986.625 588.375,986.8906 Q588.1406,987.1563 587.7656,987.1563 Q587.4219,987.1563 587.2188,986.9531 Q587.0156,986.7656 586.9063,986.25 Q586.8594,985.8906 586.6719,985.7031 Q586.3438,985.3281 585.7344,985.1094 Q585.125,984.8906 584.5,984.8906 Q583.7344,984.8906 583.0938,985.2188 Q582.4688,985.5469 581.9688,986.2969 Q581.4844,987.0469 581.4844,988.0781 L581.4844,989.1719 Q581.4844,990.4063 582.375,991.2344 Q583.2656,992.0469 584.8594,992.0469 Q585.7969,992.0469 586.4531,991.7969 Q586.8438,991.6406 587.2656,991.2031 Q587.5313,990.9375 587.6719,990.8594 Q587.8281,990.7813 588.0313,990.7813 Q588.3594,990.7813 588.6094,991.0469 Q588.875,991.2969 588.875,991.6406 Q588.875,991.9844 588.5313,992.3906 Q588.0313,992.9688 587.2344,993.2969 Q586.1563,993.75 584.8594,993.75 Q583.3438,993.75 582.1406,993.125 Q581.1563,992.625 580.4688,991.5625 Q579.7813,990.4844 579.7813,989.2031 L579.7813,988.0469 Q579.7813,986.7188 580.3906,985.5781 Q581.0156,984.4219 582.1094,983.8125 Q583.2031,983.1875 584.4375,983.1875 Q585.1719,983.1875 585.8125,983.3594 Q586.4688,983.5156 587.0156,983.875 Z " fill="#000000"/><text fill="#000000" font-family="sans-serif" font-size="14" lengthAdjust="spacing" textLength="86" x="604.75" y="993.7285">PropertyType</text><line style="stroke:#181818;stroke-width:0.5;" x1="538" x2="725" y1="1004" y2="1004"/><text fill="#000000" font-family="sans-serif" font-size="14" lengthAdjust="spacing" textLength="119" x="543" y="1022.5332">-String designation</text><line style="stroke:#181818;stroke-width:0.5;" x1="538" x2="725" y1="1029.6094" y2="1029.6094"/><text fill="#000000" font-family="sans-serif" font-size="14" lengthAdjust="spacing" textLength="177" x="543" y="1048.1426">+PropertyType(designation)</text></g><!--class PublishAnnouncementUI--><g id="elem_PublishAnnouncementUI"><rect codeLine="138" fill="#F1F1F1" height="48" id="PublishAnnouncementUI" rx="2.5" ry="2.5" style="stroke:#181818;stroke-width:0.5;" width="185" x="7" y="121.5"/><ellipse cx="22" cy="137.5" fill="#ADD1B2" rx="11" ry="11" style="stroke:#181818;stroke-width:1.0;"/><path d="M24.7656,133.375 Q24.9219,133.1563 25.1094,133.0469 Q25.2969,132.9375 25.5156,132.9375 Q25.8906,132.9375 26.125,133.2031 Q26.3594,133.4531 26.3594,134.0625 L26.3594,135.5156 Q26.3594,136.125 26.125,136.3906 Q25.8906,136.6563 25.5156,136.6563 Q25.1719,136.6563 24.9688,136.4531 Q24.7656,136.2656 24.6563,135.75 Q24.6094,135.3906 24.4219,135.2031 Q24.0938,134.8281 23.4844,134.6094 Q22.875,134.3906 22.25,134.3906 Q21.4844,134.3906 20.8438,134.7188 Q20.2188,135.0469 19.7188,135.7969 Q19.2344,136.5469 19.2344,137.5781 L19.2344,138.6719 Q19.2344,139.9063 20.125,140.7344 Q21.0156,141.5469 22.6094,141.5469 Q23.5469,141.5469 24.2031,141.2969 Q24.5938,141.1406 25.0156,140.7031 Q25.2813,140.4375 25.4219,140.3594 Q25.5781,140.2813 25.7813,140.2813 Q26.1094,140.2813 26.3594,140.5469 Q26.625,140.7969 26.625,141.1406 Q26.625,141.4844 26.2813,141.8906 Q25.7813,142.4688 24.9844,142.7969 Q23.9063,143.25 22.6094,143.25 Q21.0938,143.25 19.8906,142.625 Q18.9063,142.125 18.2188,141.0625 Q17.5313,139.9844 17.5313,138.7031 L17.5313,137.5469 Q17.5313,136.2188 18.1406,135.0781 Q18.7656,133.9219 19.8594,133.3125 Q20.9531,132.6875 22.1875,132.6875 Q22.9219,132.6875 23.5625,132.8594 Q24.2188,133.0156 24.7656,133.375 Z " fill="#000000"/><text fill="#000000" font-family="sans-serif" font-size="14" lengthAdjust="spacing" textLength="153" x="36" y="143.2285">PublishAnnouncementUI</text><line style="stroke:#181818;stroke-width:0.5;" x1="8" x2="191" y1="153.5" y2="153.5"/><line style="stroke:#181818;stroke-width:0.5;" x1="8" x2="191" y1="161.5" y2="161.5"/></g><!--class AplicationSession--><g id="elem_AplicationSession"><rect fill="#F1F1F1" height="48" id="AplicationSession" rx="2.5" ry="2.5" style="stroke:#181818;stroke-width:0.5;" width="143" x="356" y="345"/><ellipse cx="371" cy="361" fill="#ADD1B2" rx="11" ry="11" style="stroke:#181818;stroke-width:1.0;"/><path d="M373.7656,356.875 Q373.9219,356.6563 374.1094,356.5469 Q374.2969,356.4375 374.5156,356.4375 Q374.8906,356.4375 375.125,356.7031 Q375.3594,356.9531 375.3594,357.5625 L375.3594,359.0156 Q375.3594,359.625 375.125,359.8906 Q374.8906,360.1563 374.5156,360.1563 Q374.1719,360.1563 373.9688,359.9531 Q373.7656,359.7656 373.6563,359.25 Q373.6094,358.8906 373.4219,358.7031 Q373.0938,358.3281 372.4844,358.1094 Q371.875,357.8906 371.25,357.8906 Q370.4844,357.8906 369.8438,358.2188 Q369.2188,358.5469 368.7188,359.2969 Q368.2344,360.0469 368.2344,361.0781 L368.2344,362.1719 Q368.2344,363.4063 369.125,364.2344 Q370.0156,365.0469 371.6094,365.0469 Q372.5469,365.0469 373.2031,364.7969 Q373.5938,364.6406 374.0156,364.2031 Q374.2813,363.9375 374.4219,363.8594 Q374.5781,363.7813 374.7813,363.7813 Q375.1094,363.7813 375.3594,364.0469 Q375.625,364.2969 375.625,364.6406 Q375.625,364.9844 375.2813,365.3906 Q374.7813,365.9688 373.9844,366.2969 Q372.9063,366.75 371.6094,366.75 Q370.0938,366.75 368.8906,366.125 Q367.9063,365.625 367.2188,364.5625 Q366.5313,363.4844 366.5313,362.2031 L366.5313,361.0469 Q366.5313,359.7188 367.1406,358.5781 Q367.7656,357.4219 368.8594,356.8125 Q369.9531,356.1875 371.1875,356.1875 Q371.9219,356.1875 372.5625,356.3594 Q373.2188,356.5156 373.7656,356.875 Z " fill="#000000"/><text fill="#000000" font-family="sans-serif" font-size="14" lengthAdjust="spacing" textLength="111" x="385" y="366.7285">AplicationSession</text><line style="stroke:#181818;stroke-width:0.5;" x1="357" x2="498" y1="377" y2="377"/><line style="stroke:#181818;stroke-width:0.5;" x1="357" x2="498" y1="385" y2="385"/></g><!--link PublishAnnouncementUI to PublishAnnouncementController--><g id="link_PublishAnnouncementUI_PublishAnnouncementController"><path codeLine="143" d="M192.3,145.5 C202.72,145.5 212.85,145.5 221.96,145.5 " fill="none" id="PublishAnnouncementUI-to-PublishAnnouncementController" style="stroke:#181818;stroke-width:1.0;stroke-dasharray:7.0,7.0;"/><polygon fill="#181818" points="227.2,145.5,218.2,141.5,222.2,145.5,218.2,149.5,227.2,145.5" style="stroke:#181818;stroke-width:1.0;"/></g><!--link PublishAnnouncementController to UserSession--><g id="link_PublishAnnouncementController_UserSession"><path codeLine="144" d="M412.75,284.09 C371.3,318.09 338.5,345 338.5,345 C338.5,345 338.5,393 338.5,393 C338.5,393 348.84,445.92 356.22,483.71 " fill="none" id="PublishAnnouncementController-to-UserSession" style="stroke:#181818;stroke-width:1.0;stroke-dasharray:7.0,7.0;"/><polygon fill="#181818" points="357.19,488.7,359.3904,479.1001,356.2314,483.7927,351.5388,480.6338,357.19,488.7" style="stroke:#181818;stroke-width:1.0;"/></g><!--link PublishAnnouncementController to AplicationSession--><g id="link_PublishAnnouncementController_AplicationSession"><path codeLine="145" d="M485.34,284.26 C470.57,305.65 456.78,325.61 446.38,340.67 " fill="none" id="PublishAnnouncementController-to-AplicationSession" style="stroke:#181818;stroke-width:1.0;stroke-dasharray:7.0,7.0;"/><polygon fill="#181818" points="443.53,344.79,451.937,339.6595,446.3723,340.6765,445.3554,335.1118,443.53,344.79" style="stroke:#181818;stroke-width:1.0;"/></g><!--link AplicationSession to AplicationSession--><g id="link_AplicationSession_AplicationSession"><path codeLine="146" d="M499.18,358.94 C518.92,359.42 534,362.78 534,369 C534,374.64 521.61,377.92 504.6,378.85 " fill="none" id="AplicationSession-to-AplicationSession" style="stroke:#181818;stroke-width:1.0;"/><polygon fill="#181818" points="499.18,379.06,508.3327,382.6971,504.176,378.8602,508.0129,374.7035,499.18,379.06" style="stroke:#181818;stroke-width:1.0;"/><text fill="#000000" font-family="sans-serif" font-size="13" lengthAdjust="spacing" textLength="49" x="540" y="374.4951">instance</text></g><!--link AplicationSession to UserSession--><g id="link_AplicationSession_UserSession"><path codeLine="147" d="M417.64,393.26 C407.4,417.43 391.22,455.6 379.21,483.92 " fill="none" id="AplicationSession-to-UserSession" style="stroke:#181818;stroke-width:1.0;"/><polygon fill="#181818" points="377.17,488.74,384.3667,482.0164,379.1224,484.1369,377.0018,478.8926,377.17,488.74" style="stroke:#181818;stroke-width:1.0;"/><text fill="#000000" font-family="sans-serif" font-size="13" lengthAdjust="spacing" textLength="7" x="372.1722" y="478.1851">1</text></g><!--link PublishAnnouncementController to Repositories--><g id="link_PublishAnnouncementController_Repositories"><path codeLine="148" d="M660.22,284.09 C692.73,340.18 728.94,402.68 756.01,449.4 " fill="none" id="PublishAnnouncementController-to-Repositories" style="stroke:#181818;stroke-width:1.0;stroke-dasharray:7.0,7.0;"/><polygon fill="#181818" points="758.6,453.87,757.5626,444.0759,756.0993,449.5403,750.635,448.077,758.6,453.87" style="stroke:#181818;stroke-width:1.0;"/></g><!--link PublishAnnouncementController to PropertyTypeRepository--><g id="link_PublishAnnouncementController_PropertyTypeRepository"><path codeLine="149" d="M592.59,284.07 C603.87,412.48 620.04,596.61 627.48,681.26 " fill="none" id="PublishAnnouncementController-to-PropertyTypeRepository" style="stroke:#181818;stroke-width:1.0;stroke-dasharray:7.0,7.0;"/><polygon fill="#181818" points="627.94,686.44,631.1257,677.1206,627.4964,681.4597,623.1572,677.8304,627.94,686.44" style="stroke:#181818;stroke-width:1.0;"/></g><!--link PublishAnnouncementController to CommissionTypeRepository--><g id="link_PublishAnnouncementController_CommissionTypeRepository"><path codeLine="150" d="M405.58,284.05 C382.97,301.83 367.5,314 367.5,314 C367.5,314 330.5,345 330.5,345 C330.5,345 289.5,454 289.5,454 C289.5,454 257.69,603.73 241.19,681.41 " fill="none" id="PublishAnnouncementController-to-CommissionTypeRepository" style="stroke:#181818;stroke-width:1.0;stroke-dasharray:7.0,7.0;"/><polygon fill="#181818" points="240.12,686.42,245.9106,678.4533,241.1637,681.5302,238.0869,676.7833,240.12,686.42" style="stroke:#181818;stroke-width:1.0;"/></g><!--link PublishAnnouncementController to AgencyRepository--><g id="link_PublishAnnouncementController_AgencyRepository"><path codeLine="151" d="M787.15,284.07 C988.54,418.13 1281.18,612.95 1399.71,691.86 " fill="none" id="PublishAnnouncementController-to-AgencyRepository" style="stroke:#181818;stroke-width:1.0;stroke-dasharray:7.0,7.0;"/><polygon fill="#181818" points="1404.19,694.84,1398.9203,686.5195,1400.0297,692.0665,1394.4827,693.1759,1404.19,694.84" style="stroke:#181818;stroke-width:1.0;"/></g><!--link Repositories to Repositories--><g id="link_Repositories_Repositories"><path codeLine="153" d="M910.74,504.67 C931.19,506.89 945.5,512.67 945.5,522 C945.5,530.53 933.54,536.09 915.87,538.68 " fill="none" id="Repositories-to-Repositories" style="stroke:#181818;stroke-width:1.0;"/><polygon fill="#181818" points="910.74,539.33,920.1717,542.1661,915.7003,538.701,919.1653,534.2296,910.74,539.33" style="stroke:#181818;stroke-width:1.0;"/><text fill="#000000" font-family="sans-serif" font-size="13" lengthAdjust="spacing" textLength="49" x="951.5" y="527.4951">instance</text></g><!--link Repositories to CommissionTypeRepository--><g id="link_Repositories_CommissionTypeRepository"><path codeLine="154" d="M684.32,563.79 C587.09,598.84 447.4,649.18 348.95,684.67 " fill="none" id="Repositories-to-CommissionTypeRepository" style="stroke:#181818;stroke-width:1.0;"/><polygon fill="#181818" points="344,686.45,353.8239,687.1503,348.7019,684.7493,351.1028,679.6273,344,686.45" style="stroke:#181818;stroke-width:1.0;"/><text fill="#000000" font-family="sans-serif" font-size="13" lengthAdjust="spacing" textLength="7" x="355.0531" y="675.7494">1</text></g><!--link Repositories to PropertyTypeRepository--><g id="link_Repositories_PropertyTypeRepository"><path codeLine="155" d="M758.38,590.26 C748.43,607.36 740.5,621 740.5,621 C740.5,621 706.86,653.71 676.96,682.79 " fill="none" id="Repositories-to-PropertyTypeRepository" style="stroke:#181818;stroke-width:1.0;"/><polygon fill="#181818" points="673.33,686.32,682.5645,682.8959,676.908,682.8275,676.9765,677.171,673.33,686.32" style="stroke:#181818;stroke-width:1.0;"/><text fill="#000000" font-family="sans-serif" font-size="13" lengthAdjust="spacing" textLength="7" x="672.6784" y="675.5979">1</text></g><!--link Repositories to AgencyRepository--><g id="link_Repositories_AgencyRepository"><path codeLine="156" d="M910.66,550.38 C1066.06,587.98 1326.5,651 1326.5,651 C1326.5,651 1361.76,672.27 1394.97,692.3 " fill="none" id="Repositories-to-AgencyRepository" style="stroke:#181818;stroke-width:1.0;"/><polygon fill="#181818" points="1399.43,694.99,1393.7903,686.9157,1395.1488,692.407,1389.6575,693.7656,1399.43,694.99" style="stroke:#181818;stroke-width:1.0;"/><text fill="#000000" font-family="sans-serif" font-size="13" lengthAdjust="spacing" textLength="7" x="1380.7624" y="684.1033">1</text></g><!--link AgencyRepository to Agency--><g id="link_AgencyRepository_Agency"><path codeLine="157" d="M1462.62,761.25 C1470.49,786.31 1482.03,823.07 1493.87,860.77 " fill="none" id="AgencyRepository-to-Agency" style="stroke:#181818;stroke-width:1.0;"/><polygon fill="#181818" points="1495.46,865.85,1496.5684,856.0637,1493.9564,861.0814,1488.9387,858.4695,1495.46,865.85" style="stroke:#181818;stroke-width:1.0;"/><text fill="#000000" font-family="sans-serif" font-size="13" lengthAdjust="spacing" textLength="5" x="1487.9572" y="855.3406">*</text></g><!--link Agency to Announcement--><g id="link_Agency_Announcement"><path codeLine="158" d="M1479.79,1161.3 C1394.93,1363.15 1246.27,1716.76 1189.46,1851.88 " fill="none" id="Agency-to-Announcement" style="stroke:#181818;stroke-width:1.0;"/><polygon fill="#181818" points="1187.48,1856.6,1194.6591,1849.8575,1189.4203,1851.9918,1187.286,1846.7531,1187.48,1856.6" style="stroke:#181818;stroke-width:1.0;"/><text fill="#000000" font-family="sans-serif" font-size="13" lengthAdjust="spacing" textLength="7" x="1469.8352" y="1181.8734">1</text><text fill="#000000" font-family="sans-serif" font-size="13" lengthAdjust="spacing" textLength="5" x="1184.9633" y="1846.2156">*</text></g><!--link Announcement to Agent--><g id="link_Announcement_Agent"><path codeLine="160" d="M1224.88,1958.08 C1251.51,1980.7 1283.52,2007.89 1312.59,2032.58 " fill="none" id="Announcement-to-Agent" style="stroke:#181818;stroke-width:1.0;"/><polygon fill="#181818" points="1316.49,2035.89,1312.2241,2027.0129,1312.6807,2032.6513,1307.0423,2033.1079,1316.49,2035.89" style="stroke:#181818;stroke-width:1.0;"/><text fill="#000000" font-family="sans-serif" font-size="13" lengthAdjust="spacing" textLength="85" x="1281.5" y="2002.4951">responsibleFor</text><text fill="#000000" font-family="sans-serif" font-size="13" lengthAdjust="spacing" textLength="5" x="1227.3889" y="1979.482">*</text><text fill="#000000" font-family="sans-serif" font-size="13" lengthAdjust="spacing" textLength="7" x="1300.4655" y="2025.0772">1</text></g><!--link CommissionTypeRepository to CommissionType--><g id="link_CommissionTypeRepository_CommissionType"><path codeLine="161" d="M231.35,769.67 C230.85,904.19 229.27,1334.92 228.7,1488.48 " fill="none" id="CommissionTypeRepository-to-CommissionType" style="stroke:#181818;stroke-width:1.0;"/><polygon fill="#181818" points="228.68,1493.82,232.7314,1484.843,228.7086,1488.8201,224.7315,1484.7973,228.68,1493.82" style="stroke:#181818;stroke-width:1.0;"/><text fill="#000000" font-family="sans-serif" font-size="13" lengthAdjust="spacing" textLength="7" x="223.7683" y="791.0919">1</text><text fill="#000000" font-family="sans-serif" font-size="13" lengthAdjust="spacing" textLength="5" x="223.3538" y="1483.1">*</text></g><!--reverse link CommissionType to Commission--><g id="link_CommissionType_Commission"><path codeLine="162" d="M236.72,1600.33 C247.06,1669.35 263.5,1779 263.5,1779 C263.5,1779 467.04,1975.27 557.29,2062.29 " fill="none" id="CommissionType-backto-Commission" style="stroke:#181818;stroke-width:1.0;"/><polygon fill="#181818" points="235.92,1595.02,233.302,1604.5145,236.6631,1599.9645,241.2132,1603.3256,235.92,1595.02" style="stroke:#181818;stroke-width:1.0;"/><text fill="#000000" font-family="sans-serif" font-size="13" lengthAdjust="spacing" textLength="79" x="312.5" y="1823.4951">isCategorized</text><text fill="#000000" font-family="sans-serif" font-size="13" lengthAdjust="spacing" textLength="7" x="229.4467" y="1616.4139">1</text></g><!--link Announcement to Commission--><g id="link_Announcement_Commission"><path codeLine="163" d="M1021.95,1958.08 C929.54,1989.79 810.95,2030.47 722.95,2060.65 " fill="none" id="Announcement-to-Commission" style="stroke:#181818;stroke-width:1.0;"/><polygon fill="#181818" points="717.99,2062.35,727.802,2063.2012,722.7175,2060.7218,725.1969,2055.6373,717.99,2062.35" style="stroke:#181818;stroke-width:1.0;"/><text fill="#000000" font-family="sans-serif" font-size="13" lengthAdjust="spacing" textLength="7" x="995.0558" y="1979.482">1</text><text fill="#000000" font-family="sans-serif" font-size="13" lengthAdjust="spacing" textLength="7" x="730.0352" y="2051.6328">1</text></g><!--reverse link Request to Announcement--><g id="link_Request_Announcement"><path codeLine="164" d="M1083.15,810.31 C1104.42,894.08 1134.5,1012.5 1134.5,1012.5 C1134.5,1012.5 1134.5,1012.5 1134.5,1703 C1134.5,1703 1149.24,1796.74 1158.71,1856.98 " fill="none" id="Request-backto-Announcement" style="stroke:#181818;stroke-width:1.0;"/><polygon fill="#181818" points="1081.89,805.35,1080.2191,815.0561,1083.1161,810.1973,1087.9748,813.0943,1081.89,805.35" style="stroke:#181818;stroke-width:1.0;"/><text fill="#000000" font-family="sans-serif" font-size="13" lengthAdjust="spacing" textLength="64" x="1135.5" y="1348.4951">isBasedOn</text><text fill="#000000" font-family="sans-serif" font-size="13" lengthAdjust="spacing" textLength="7" x="1076.2555" y="826.2098">1</text><text fill="#000000" font-family="sans-serif" font-size="13" lengthAdjust="spacing" textLength="7" x="1150.1223" y="1846.2825">1</text></g><!--link Request to Property--><g id="link_Request_Property"><path codeLine="165" d="M1009,805.09 C936.48,908.23 806.07,1093.71 719.14,1217.35 " fill="none" id="Request-to-Property" style="stroke:#181818;stroke-width:1.0;"/><polygon fill="#181818" points="716.07,1221.72,724.5176,1216.6566,718.945,1217.6292,717.9724,1212.0566,716.07,1221.72" style="stroke:#181818;stroke-width:1.0;"/><text fill="#000000" font-family="sans-serif" font-size="13" lengthAdjust="spacing" textLength="7" x="996.9234" y="826.1944">1</text><text fill="#000000" font-family="sans-serif" font-size="13" lengthAdjust="spacing" textLength="7" x="714.2635" y="1210.9539">1</text></g><!--link Agency to Agent--><g id="link_Agency_Agent"><path codeLine="166" d="M1526.74,1161.01 C1517.95,1248.21 1508.5,1342 1508.5,1342 C1508.5,1342 1508.5,1342 1508.5,1908.5 C1508.5,1908.5 1469.44,1975.74 1437.24,2031.15 " fill="none" id="Agency-to-Agent" style="stroke:#181818;stroke-width:1.0;"/><polygon fill="#181818" points="1434.55,2035.79,1442.5376,2030.0282,1437.0676,2031.4701,1435.6257,2026.0001,1434.55,2035.79" style="stroke:#181818;stroke-width:1.0;"/></g><!--link PropertyTypeRepository to PropertyType--><g id="link_PropertyTypeRepository_PropertyType"><path codeLine="167" d="M631.5,769.62 C631.5,821.83 631.5,912.23 631.5,966.79 " fill="none" id="PropertyTypeRepository-to-PropertyType" style="stroke:#181818;stroke-width:1.0;"/><polygon fill="#181818" points="631.5,971.96,635.5,962.96,631.5,966.96,627.5,962.96,631.5,971.96" style="stroke:#181818;stroke-width:1.0;"/><text fill="#000000" font-family="sans-serif" font-size="13" lengthAdjust="spacing" textLength="7" x="623.9203" y="791.3444">1</text><text fill="#000000" font-family="sans-serif" font-size="13" lengthAdjust="spacing" textLength="5" x="626.0859" y="961.2611">*</text></g><!--reverse link PropertyType to Property--><g id="link_PropertyType_Property"><path codeLine="168" d="M631.5,1060.56 C631.5,1102.34 631.5,1165.8 631.5,1221.89 " fill="none" id="PropertyType-backto-Property" style="stroke:#181818;stroke-width:1.0;"/><polygon fill="#181818" points="631.5,1055.32,627.5,1064.32,631.5,1060.32,635.5,1064.32,631.5,1055.32" style="stroke:#181818;stroke-width:1.0;"/><text fill="#000000" font-family="sans-serif" font-size="13" lengthAdjust="spacing" textLength="7" x="623.9422" y="1076.7658">1</text><text fill="#000000" font-family="sans-serif" font-size="13" lengthAdjust="spacing" textLength="5" x="626.3398" y="1211.1348">*</text></g><!--link Property to Location--><g id="link_Property_Location"><path codeLine="169" d="M727.93,1464.37 C769.17,1515.85 816.22,1574.57 853.12,1620.64 " fill="none" id="Property-to-Location" style="stroke:#181818;stroke-width:1.0;"/><polygon fill="#181818" points="856.44,1624.78,853.9285,1615.2568,853.3113,1620.8798,847.6882,1620.2627,856.44,1624.78" style="stroke:#181818;stroke-width:1.0;"/><text fill="#000000" font-family="sans-serif" font-size="13" lengthAdjust="spacing" textLength="69" x="825.5" y="1549.9951">hasAddress</text><text fill="#000000" font-family="sans-serif" font-size="13" lengthAdjust="spacing" textLength="7" x="726.3025" y="1485.3631">1</text><text fill="#000000" font-family="sans-serif" font-size="13" lengthAdjust="spacing" textLength="7" x="843.2866" y="1614.1857">1</text></g><!--link Property to Photograph--><g id="link_Property_Photograph"><path codeLine="170" d="M540.13,1464.37 C490.01,1530.39 430.85,1608.32 394.51,1656.2 " fill="none" id="Property-to-Photograph" style="stroke:#181818;stroke-width:1.0;"/><polygon fill="#181818" points="391.28,1660.45,399.8991,1655.6845,394.296,1656.462,393.5184,1650.8589,391.28,1660.45" style="stroke:#181818;stroke-width:1.0;"/><text fill="#000000" font-family="sans-serif" font-size="13" lengthAdjust="spacing" textLength="70" x="512.5" y="1549.9951">isVisualized</text><text fill="#000000" font-family="sans-serif" font-size="13" lengthAdjust="spacing" textLength="7" x="527.6453" y="1485.3631">1</text><text fill="#000000" font-family="sans-serif" font-size="13" lengthAdjust="spacing" textLength="7" x="388.7983" y="1649.7494">1</text></g><!--link Property to AvailableEquipment--><g id="link_Property_AvailableEquipment"><path codeLine="171" d="M619.7,1464.37 C613.27,1529.99 605.68,1607.38 600.98,1655.33 " fill="none" id="Property-to-AvailableEquipment" style="stroke:#181818;stroke-width:1.0;"/><polygon fill="#181818" points="600.48,1660.45,605.3338,1651.8803,600.9648,1655.4736,597.3715,1651.1046,600.48,1660.45" style="stroke:#181818;stroke-width:1.0;"/><text fill="#000000" font-family="sans-serif" font-size="13" lengthAdjust="spacing" textLength="48" x="616.5" y="1549.9951">includes</text><text fill="#000000" font-family="sans-serif" font-size="13" lengthAdjust="spacing" textLength="7" x="611.8155" y="1485.3631">1</text><text fill="#000000" font-family="sans-serif" font-size="13" lengthAdjust="spacing" textLength="7" x="593.5595" y="1649.7494">1</text></g><!--SRC=[tLZFRzGu5Bxdhx1wQTh9eEMALaWpqwAjL475R3druYPknYAnW-r0fuZ_dHV7SMp7cHbWJyi5nk_tzxxtx70kFrFMO85hL7F6yvtWDK5Aj2GP9GtEF-EIRDM-8aYGN65MLgw2tE62VwEiH4-uagwaeeoeVKDGmwjzzoCvZmYvK3nnhF8AIxbIIj37Lf6RdBCjVI7ehoGvhyYJGeeZGSkTGWNjqg6S9OcsGQkcgMYEkwCjaRAJV4yG_5aWgU0uHoLHDmp-pNAINXWHd6rQ8GXJzv88OmZI7yRhdU0D4MflV2tH5MyV0Ok2zeusLEqtO2s8aTymHKeY46lhHoBMM06kl8uBIJ4hkyC2C2ctq831yvhpYc26o3F49X1xZIMf8NOWfso77wd2aEOjVngaMu0KkYHRTltSSDcQX1UsmhGn__WN-f99g8YezxWc6SgXnanNB6YkCWqdoHxO2sqsl21P18mCDQ3R_RNZYfS2DxlCAnhCfuLcazAoe9Wim1NS8FmLqwfJkFxIqaPRkMMElRpbFJriBmTCRAt-ULUtVp9W4De37a4N3JO6uo5oUXnMO-Wmq28OvjqAQWvmKOngzuAc81ezh2O0XPuA8dD16msEzJWrInszphtnxqoE7JcOg-xukWOVgQExAi4F2iAp4Ve1lmQK6rWE6ooAzxhbWOB2pzwvSKMwWAkY491Fw7B76J4sOpwCyHO8LqVImdbE6atigx71uyBe3kqUSVsakDGap7bTKmsB7YddzoTSjN0Wo9UMI3LsQcCrR2v5lsy2MnDrr4z3vtxmM8Zk_10H1ekFVPQXgadUGhCO55F-ZPdETslWVxfKPjZmm-5vlhTTf8Q3j9ZWJKk6dS6Rvx6Hk3HsXjNZd_DZoFGhhcW1EHvLX9BqaAxt_V3gJ2x6I4ENBNbz_r7n0c6srrx_mNBYTe4Qu3YLkpyRejvLBeYJnImLqN4k8aj533wZX0IY7ADaX93eE2C78bjAddBBHIVy8m45ghWOoDY_UJoTMqZ7Un5vqlN-QcHfwZ1s-agQ3-XgXE5SsS5Wtcp5u_IoTKysZsdMt1fI8ks0keTkRkE34RtnbERG6jEQAp6k4HRbNfftq_7OS20WhohOAKFr1xNIU0RPNF9PcC-XKPtCf3-qL-Ebag6vYNIL7jX_D9s_CPmFxDVlYzDkYs4tHIzjlPG272zEdTVPuPgy2nr1v7aNNW7lu9Dm_2IoiXFdTRmX_sITH5uetesvyBJZ_ew-UGAFllvCZjCvkB-1MOIXxQ_bkCAhjuVdTCxKcVTNoxVUa_iqYzNawxYpcvoYc2giFchsu9mLc9szFllblC1iibIFrnBVPISQpssyKt4CzcBVREzE2OeAqVDr3N07iufQ700XgZz9N7Sol4grzkMWxUXe7ykbbJi8zH1uNrATYXjO0GZmb6quanHMpZlU4ttsgMA2zR62yPqQQlM_bqlt-mb0bnlOjYMWy4AAI8glpoBe6_pqwz6wrLMujftpxdOeFamDbc63N11x03KYFT_Y3oURswNVvudDcE9b473uuTKv_3y45B33qlsyYAgFTuUk-1ELBRpo1pIZ9jDRHTC_hrhOeado4m00]--></g></svg>