<?xml version="1.0" encoding="UTF-8" standalone="no"?><svg xmlns="http://www.w3.org/2000/svg" xmlns:xlink="http://www.w3.org/1999/xlink" contentStyleType="text/css" height="700px" preserveAspectRatio="none" style="width:1470px;height:700px;background:#FFFFFF;" version="1.1" viewBox="0 0 1470 700" width="1470px" zoomAndPan="magnify"><defs/><g><!--class AuthFacade--><g id="elem_AuthFacade"><rect codeLine="11" fill="#F1F1F1" height="83.2188" id="AuthFacade" rx="2.5" ry="2.5" style="stroke:#181818;stroke-width:0.5;" width="177" x="80.5" y="60"/><ellipse cx="126.25" cy="76" fill="#ADD1B2" rx="11" ry="11" style="stroke:#181818;stroke-width:1.0;"/><path d="M129.0156,71.875 Q129.1719,71.6563 129.3594,71.5469 Q129.5469,71.4375 129.7656,71.4375 Q130.1406,71.4375 130.375,71.7031 Q130.6094,71.9531 130.6094,72.5625 L130.6094,74.0156 Q130.6094,74.625 130.375,74.8906 Q130.1406,75.1563 129.7656,75.1563 Q129.4219,75.1563 129.2188,74.9531 Q129.0156,74.7656 128.9063,74.25 Q128.8594,73.8906 128.6719,73.7031 Q128.3438,73.3281 127.7344,73.1094 Q127.125,72.8906 126.5,72.8906 Q125.7344,72.8906 125.0938,73.2188 Q124.4688,73.5469 123.9688,74.2969 Q123.4844,75.0469 123.4844,76.0781 L123.4844,77.1719 Q123.4844,78.4063 124.375,79.2344 Q125.2656,80.0469 126.8594,80.0469 Q127.7969,80.0469 128.4531,79.7969 Q128.8438,79.6406 129.2656,79.2031 Q129.5313,78.9375 129.6719,78.8594 Q129.8281,78.7813 130.0313,78.7813 Q130.3594,78.7813 130.6094,79.0469 Q130.875,79.2969 130.875,79.6406 Q130.875,79.9844 130.5313,80.3906 Q130.0313,80.9688 129.2344,81.2969 Q128.1563,81.75 126.8594,81.75 Q125.3438,81.75 124.1406,81.125 Q123.1563,80.625 122.4688,79.5625 Q121.7813,78.4844 121.7813,77.2031 L121.7813,76.0469 Q121.7813,74.7188 122.3906,73.5781 Q123.0156,72.4219 124.1094,71.8125 Q125.2031,71.1875 126.4375,71.1875 Q127.1719,71.1875 127.8125,71.3594 Q128.4688,71.5156 129.0156,71.875 Z " fill="#000000"/><text fill="#000000" font-family="sans-serif" font-size="14" lengthAdjust="spacing" textLength="77" x="146.75" y="81.7285">AuthFacade</text><line style="stroke:#181818;stroke-width:0.5;" x1="81.5" x2="256.5" y1="92" y2="92"/><line style="stroke:#181818;stroke-width:0.5;" x1="81.5" x2="256.5" y1="100" y2="100"/><text fill="#000000" font-family="sans-serif" font-size="14" lengthAdjust="spacing" textLength="128" x="86.5" y="118.5332">+static getInstance()</text><text fill="#000000" font-family="sans-serif" font-size="14" lengthAdjust="spacing" textLength="165" x="86.5" y="136.1426">+getCurrentUserSession()</text></g><!--class UserSession--><g id="elem_UserSession"><rect codeLine="17" fill="#F1F1F1" height="65.6094" id="UserSession" rx="2.5" ry="2.5" style="stroke:#181818;stroke-width:0.5;" width="128" x="293" y="68.5"/><ellipse cx="315.65" cy="84.5" fill="#ADD1B2" rx="11" ry="11" style="stroke:#181818;stroke-width:1.0;"/><path d="M318.4156,80.375 Q318.5719,80.1563 318.7594,80.0469 Q318.9469,79.9375 319.1656,79.9375 Q319.5406,79.9375 319.775,80.2031 Q320.0094,80.4531 320.0094,81.0625 L320.0094,82.5156 Q320.0094,83.125 319.775,83.3906 Q319.5406,83.6563 319.1656,83.6563 Q318.8219,83.6563 318.6188,83.4531 Q318.4156,83.2656 318.3063,82.75 Q318.2594,82.3906 318.0719,82.2031 Q317.7438,81.8281 317.1344,81.6094 Q316.525,81.3906 315.9,81.3906 Q315.1344,81.3906 314.4938,81.7188 Q313.8688,82.0469 313.3688,82.7969 Q312.8844,83.5469 312.8844,84.5781 L312.8844,85.6719 Q312.8844,86.9063 313.775,87.7344 Q314.6656,88.5469 316.2594,88.5469 Q317.1969,88.5469 317.8531,88.2969 Q318.2438,88.1406 318.6656,87.7031 Q318.9313,87.4375 319.0719,87.3594 Q319.2281,87.2813 319.4313,87.2813 Q319.7594,87.2813 320.0094,87.5469 Q320.275,87.7969 320.275,88.1406 Q320.275,88.4844 319.9313,88.8906 Q319.4313,89.4688 318.6344,89.7969 Q317.5563,90.25 316.2594,90.25 Q314.7438,90.25 313.5406,89.625 Q312.5563,89.125 311.8688,88.0625 Q311.1813,86.9844 311.1813,85.7031 L311.1813,84.5469 Q311.1813,83.2188 311.7906,82.0781 Q312.4156,80.9219 313.5094,80.3125 Q314.6031,79.6875 315.8375,79.6875 Q316.5719,79.6875 317.2125,79.8594 Q317.8688,80.0156 318.4156,80.375 Z " fill="#000000"/><text fill="#000000" font-family="sans-serif" font-size="14" lengthAdjust="spacing" textLength="79" x="331.35" y="90.2285">UserSession</text><line style="stroke:#181818;stroke-width:0.5;" x1="294" x2="420" y1="100.5" y2="100.5"/><line style="stroke:#181818;stroke-width:0.5;" x1="294" x2="420" y1="108.5" y2="108.5"/><text fill="#000000" font-family="sans-serif" font-size="14" lengthAdjust="spacing" textLength="116" x="299" y="127.0332">+Email getUserId()</text></g><!--class Agent--><g id="elem_Agent"><rect codeLine="22" fill="#F1F1F1" height="136.0469" id="Agent" rx="2.5" ry="2.5" style="stroke:#181818;stroke-width:0.5;" width="152" x="456" y="33.5"/><ellipse cx="509.25" cy="49.5" fill="#ADD1B2" rx="11" ry="11" style="stroke:#181818;stroke-width:1.0;"/><path d="M512.0156,45.375 Q512.1719,45.1563 512.3594,45.0469 Q512.5469,44.9375 512.7656,44.9375 Q513.1406,44.9375 513.375,45.2031 Q513.6094,45.4531 513.6094,46.0625 L513.6094,47.5156 Q513.6094,48.125 513.375,48.3906 Q513.1406,48.6563 512.7656,48.6563 Q512.4219,48.6563 512.2188,48.4531 Q512.0156,48.2656 511.9063,47.75 Q511.8594,47.3906 511.6719,47.2031 Q511.3438,46.8281 510.7344,46.6094 Q510.125,46.3906 509.5,46.3906 Q508.7344,46.3906 508.0938,46.7188 Q507.4688,47.0469 506.9688,47.7969 Q506.4844,48.5469 506.4844,49.5781 L506.4844,50.6719 Q506.4844,51.9063 507.375,52.7344 Q508.2656,53.5469 509.8594,53.5469 Q510.7969,53.5469 511.4531,53.2969 Q511.8438,53.1406 512.2656,52.7031 Q512.5313,52.4375 512.6719,52.3594 Q512.8281,52.2813 513.0313,52.2813 Q513.3594,52.2813 513.6094,52.5469 Q513.875,52.7969 513.875,53.1406 Q513.875,53.4844 513.5313,53.8906 Q513.0313,54.4688 512.2344,54.7969 Q511.1563,55.25 509.8594,55.25 Q508.3438,55.25 507.1406,54.625 Q506.1563,54.125 505.4688,53.0625 Q504.7813,51.9844 504.7813,50.7031 L504.7813,49.5469 Q504.7813,48.2188 505.3906,47.0781 Q506.0156,45.9219 507.1094,45.3125 Q508.2031,44.6875 509.4375,44.6875 Q510.1719,44.6875 510.8125,44.8594 Q511.4688,45.0156 512.0156,45.375 Z " fill="#000000"/><text fill="#000000" font-family="sans-serif" font-size="14" lengthAdjust="spacing" textLength="37" x="529.75" y="55.2285">Agent</text><line style="stroke:#181818;stroke-width:0.5;" x1="457" x2="607" y1="65.5" y2="65.5"/><text fill="#000000" font-family="sans-serif" font-size="14" lengthAdjust="spacing" textLength="40" x="462" y="84.0332">-name</text><text fill="#000000" font-family="sans-serif" font-size="14" lengthAdjust="spacing" textLength="140" x="462" y="101.6426">-passportCardNumber</text><text fill="#000000" font-family="sans-serif" font-size="14" lengthAdjust="spacing" textLength="72" x="462" y="119.252">-taxNumber</text><text fill="#000000" font-family="sans-serif" font-size="14" lengthAdjust="spacing" textLength="82" x="462" y="136.8613">-emailAdress</text><text fill="#000000" font-family="sans-serif" font-size="14" lengthAdjust="spacing" textLength="94" x="462" y="154.4707">-phoneNumber</text><line style="stroke:#181818;stroke-width:0.5;" x1="457" x2="607" y1="161.5469" y2="161.5469"/></g><!--class Announcement--><g id="elem_Announcement"><rect codeLine="30" fill="#F1F1F1" height="188.875" id="Announcement" rx="2.5" ry="2.5" style="stroke:#181818;stroke-width:0.5;" width="406" x="643" y="7"/><ellipse cx="794.25" cy="23" fill="#ADD1B2" rx="11" ry="11" style="stroke:#181818;stroke-width:1.0;"/><path d="M797.0156,18.875 Q797.1719,18.6563 797.3594,18.5469 Q797.5469,18.4375 797.7656,18.4375 Q798.1406,18.4375 798.375,18.7031 Q798.6094,18.9531 798.6094,19.5625 L798.6094,21.0156 Q798.6094,21.625 798.375,21.8906 Q798.1406,22.1563 797.7656,22.1563 Q797.4219,22.1563 797.2188,21.9531 Q797.0156,21.7656 796.9063,21.25 Q796.8594,20.8906 796.6719,20.7031 Q796.3438,20.3281 795.7344,20.1094 Q795.125,19.8906 794.5,19.8906 Q793.7344,19.8906 793.0938,20.2188 Q792.4688,20.5469 791.9688,21.2969 Q791.4844,22.0469 791.4844,23.0781 L791.4844,24.1719 Q791.4844,25.4063 792.375,26.2344 Q793.2656,27.0469 794.8594,27.0469 Q795.7969,27.0469 796.4531,26.7969 Q796.8438,26.6406 797.2656,26.2031 Q797.5313,25.9375 797.6719,25.8594 Q797.8281,25.7813 798.0313,25.7813 Q798.3594,25.7813 798.6094,26.0469 Q798.875,26.2969 798.875,26.6406 Q798.875,26.9844 798.5313,27.3906 Q798.0313,27.9688 797.2344,28.2969 Q796.1563,28.75 794.8594,28.75 Q793.3438,28.75 792.1406,28.125 Q791.1563,27.625 790.4688,26.5625 Q789.7813,25.4844 789.7813,24.2031 L789.7813,23.0469 Q789.7813,21.7188 790.3906,20.5781 Q791.0156,19.4219 792.1094,18.8125 Q793.2031,18.1875 794.4375,18.1875 Q795.1719,18.1875 795.8125,18.3594 Q796.4688,18.5156 797.0156,18.875 Z " fill="#000000"/><text fill="#000000" font-family="sans-serif" font-size="14" lengthAdjust="spacing" textLength="95" x="814.75" y="28.7285">Announcement</text><line style="stroke:#181818;stroke-width:0.5;" x1="644" x2="1048" y1="39" y2="39"/><text fill="#000000" font-family="sans-serif" font-size="14" lengthAdjust="spacing" textLength="394" x="649" y="57.5332">-String agent  ---QUAL É A INSTÂNCIA AGENT OU PERSON??</text><text fill="#000000" font-family="sans-serif" font-size="14" lengthAdjust="spacing" textLength="167" x="649" y="75.1426">-String informalDescription</text><text fill="#000000" font-family="sans-serif" font-size="14" lengthAdjust="spacing" textLength="173" x="649" y="92.752">-String technicalDescription</text><text fill="#000000" font-family="sans-serif" font-size="14" lengthAdjust="spacing" textLength="105" x="649" y="110.3613">-Integer duration</text><text fill="#000000" font-family="sans-serif" font-size="14" lengthAdjust="spacing" textLength="80" x="649" y="127.9707">-Double cost</text><line style="stroke:#181818;stroke-width:0.5;" x1="644" x2="1048" y1="135.0469" y2="135.0469"/><text fill="#000000" font-family="sans-serif" font-size="14" lengthAdjust="spacing" textLength="186" x="649" y="153.5801">+Task(reference, description,</text><text fill="#000000" font-family="sans-serif" font-size="14" lengthAdjust="spacing" textLength="260" x="649" y="171.1895">informalDescription, technicalDescription,</text><text fill="#000000" font-family="sans-serif" font-size="14" lengthAdjust="spacing" textLength="255" x="649" y="188.7988">duration, cost, createdBy, taskCategory)</text></g><!--class Commission--><g id="elem_Commission"><rect codeLine="39" fill="#F1F1F1" height="100.8281" id="Commission" rx="2.5" ry="2.5" style="stroke:#181818;stroke-width:0.5;" width="324" x="7" y="308.5"/><ellipse cx="126.75" cy="324.5" fill="#ADD1B2" rx="11" ry="11" style="stroke:#181818;stroke-width:1.0;"/><path d="M129.5156,320.375 Q129.6719,320.1563 129.8594,320.0469 Q130.0469,319.9375 130.2656,319.9375 Q130.6406,319.9375 130.875,320.2031 Q131.1094,320.4531 131.1094,321.0625 L131.1094,322.5156 Q131.1094,323.125 130.875,323.3906 Q130.6406,323.6563 130.2656,323.6563 Q129.9219,323.6563 129.7188,323.4531 Q129.5156,323.2656 129.4063,322.75 Q129.3594,322.3906 129.1719,322.2031 Q128.8438,321.8281 128.2344,321.6094 Q127.625,321.3906 127,321.3906 Q126.2344,321.3906 125.5938,321.7188 Q124.9688,322.0469 124.4688,322.7969 Q123.9844,323.5469 123.9844,324.5781 L123.9844,325.6719 Q123.9844,326.9063 124.875,327.7344 Q125.7656,328.5469 127.3594,328.5469 Q128.2969,328.5469 128.9531,328.2969 Q129.3438,328.1406 129.7656,327.7031 Q130.0313,327.4375 130.1719,327.3594 Q130.3281,327.2813 130.5313,327.2813 Q130.8594,327.2813 131.1094,327.5469 Q131.375,327.7969 131.375,328.1406 Q131.375,328.4844 131.0313,328.8906 Q130.5313,329.4688 129.7344,329.7969 Q128.6563,330.25 127.3594,330.25 Q125.8438,330.25 124.6406,329.625 Q123.6563,329.125 122.9688,328.0625 Q122.2813,326.9844 122.2813,325.7031 L122.2813,324.5469 Q122.2813,323.2188 122.8906,322.0781 Q123.5156,320.9219 124.6094,320.3125 Q125.7031,319.6875 126.9375,319.6875 Q127.6719,319.6875 128.3125,319.8594 Q128.9688,320.0156 129.5156,320.375 Z " fill="#000000"/><text fill="#000000" font-family="sans-serif" font-size="14" lengthAdjust="spacing" textLength="76" x="147.25" y="330.2285">Commission</text><line style="stroke:#181818;stroke-width:0.5;" x1="8" x2="330" y1="340.5" y2="340.5"/><text fill="#000000" font-family="sans-serif" font-size="14" lengthAdjust="spacing" textLength="151" x="13" y="359.0332">-String commissionType</text><text fill="#000000" font-family="sans-serif" font-size="14" lengthAdjust="spacing" textLength="161" x="13" y="376.6426">-double commissionValue</text><line style="stroke:#181818;stroke-width:0.5;" x1="8" x2="330" y1="383.7188" y2="383.7188"/><text fill="#000000" font-family="sans-serif" font-size="14" lengthAdjust="spacing" textLength="312" x="13" y="402.252">+Commission(commissionValue,commissionType)</text></g><!--class Agency--><g id="elem_Agency"><rect codeLine="46" fill="#F1F1F1" height="206.4844" id="Agency" rx="2.5" ry="2.5" style="stroke:#181818;stroke-width:0.5;" width="575" x="366.5" y="256"/><ellipse cx="626.25" cy="272" fill="#ADD1B2" rx="11" ry="11" style="stroke:#181818;stroke-width:1.0;"/><path d="M629.0156,267.875 Q629.1719,267.6563 629.3594,267.5469 Q629.5469,267.4375 629.7656,267.4375 Q630.1406,267.4375 630.375,267.7031 Q630.6094,267.9531 630.6094,268.5625 L630.6094,270.0156 Q630.6094,270.625 630.375,270.8906 Q630.1406,271.1563 629.7656,271.1563 Q629.4219,271.1563 629.2188,270.9531 Q629.0156,270.7656 628.9063,270.25 Q628.8594,269.8906 628.6719,269.7031 Q628.3438,269.3281 627.7344,269.1094 Q627.125,268.8906 626.5,268.8906 Q625.7344,268.8906 625.0938,269.2188 Q624.4688,269.5469 623.9688,270.2969 Q623.4844,271.0469 623.4844,272.0781 L623.4844,273.1719 Q623.4844,274.4063 624.375,275.2344 Q625.2656,276.0469 626.8594,276.0469 Q627.7969,276.0469 628.4531,275.7969 Q628.8438,275.6406 629.2656,275.2031 Q629.5313,274.9375 629.6719,274.8594 Q629.8281,274.7813 630.0313,274.7813 Q630.3594,274.7813 630.6094,275.0469 Q630.875,275.2969 630.875,275.6406 Q630.875,275.9844 630.5313,276.3906 Q630.0313,276.9688 629.2344,277.2969 Q628.1563,277.75 626.8594,277.75 Q625.3438,277.75 624.1406,277.125 Q623.1563,276.625 622.4688,275.5625 Q621.7813,274.4844 621.7813,273.2031 L621.7813,272.0469 Q621.7813,270.7188 622.3906,269.5781 Q623.0156,268.4219 624.1094,267.8125 Q625.2031,267.1875 626.4375,267.1875 Q627.1719,267.1875 627.8125,267.3594 Q628.4688,267.5156 629.0156,267.875 Z " fill="#000000"/><text fill="#000000" font-family="sans-serif" font-size="14" lengthAdjust="spacing" textLength="47" x="646.75" y="277.7285">Agency</text><line style="stroke:#181818;stroke-width:0.5;" x1="367.5" x2="940.5" y1="288" y2="288"/><text fill="#000000" font-family="sans-serif" font-size="14" lengthAdjust="spacing" textLength="64" x="372.5" y="306.5332">-integer id</text><text fill="#000000" font-family="sans-serif" font-size="14" lengthAdjust="spacing" textLength="119" x="372.5" y="324.1426">-String designation</text><text fill="#000000" font-family="sans-serif" font-size="14" lengthAdjust="spacing" textLength="123" x="372.5" y="341.752">-String emailAdress</text><text fill="#000000" font-family="sans-serif" font-size="14" lengthAdjust="spacing" textLength="135" x="372.5" y="359.3613">-String phoneNumber</text><line style="stroke:#181818;stroke-width:0.5;" x1="367.5" x2="940.5" y1="366.4375" y2="366.4375"/><text fill="#000000" font-family="sans-serif" font-size="14" lengthAdjust="spacing" textLength="228" x="372.5" y="384.9707">-addAnnouncement(announcement)</text><text fill="#000000" font-family="sans-serif" font-size="14" lengthAdjust="spacing" textLength="253" x="372.5" y="402.5801">-validateAnnouncement(announcement)</text><text fill="#000000" font-family="sans-serif" font-size="14" lengthAdjust="spacing" textLength="155" x="372.5" y="420.1895">-getAgentByEmail(email)</text><text fill="#000000" font-family="sans-serif" font-size="14" lengthAdjust="spacing" textLength="194" x="372.5" y="437.7988">+anyEmployeeHasEmail(email)</text><text fill="#000000" font-family="sans-serif" font-size="14" lengthAdjust="spacing" textLength="563" x="372.5" y="455.4082">+publishAnnouncement(agent, typeCommission, commissionValue, ownerEmail, property)</text></g><!--class CommissionTypeRepository--><g id="elem_CommissionTypeRepository"><rect codeLine="59" fill="#F1F1F1" height="65.6094" id="CommissionTypeRepository" rx="2.5" ry="2.5" style="stroke:#181818;stroke-width:0.5;" width="237" x="976.5" y="326"/><ellipse cx="1004.55" cy="342" fill="#ADD1B2" rx="11" ry="11" style="stroke:#181818;stroke-width:1.0;"/><path d="M1007.3156,337.875 Q1007.4719,337.6563 1007.6594,337.5469 Q1007.8469,337.4375 1008.0656,337.4375 Q1008.4406,337.4375 1008.675,337.7031 Q1008.9094,337.9531 1008.9094,338.5625 L1008.9094,340.0156 Q1008.9094,340.625 1008.675,340.8906 Q1008.4406,341.1563 1008.0656,341.1563 Q1007.7219,341.1563 1007.5188,340.9531 Q1007.3156,340.7656 1007.2063,340.25 Q1007.1594,339.8906 1006.9719,339.7031 Q1006.6438,339.3281 1006.0344,339.1094 Q1005.425,338.8906 1004.8,338.8906 Q1004.0344,338.8906 1003.3938,339.2188 Q1002.7688,339.5469 1002.2688,340.2969 Q1001.7844,341.0469 1001.7844,342.0781 L1001.7844,343.1719 Q1001.7844,344.4063 1002.675,345.2344 Q1003.5656,346.0469 1005.1594,346.0469 Q1006.0969,346.0469 1006.7531,345.7969 Q1007.1438,345.6406 1007.5656,345.2031 Q1007.8313,344.9375 1007.9719,344.8594 Q1008.1281,344.7813 1008.3313,344.7813 Q1008.6594,344.7813 1008.9094,345.0469 Q1009.175,345.2969 1009.175,345.6406 Q1009.175,345.9844 1008.8313,346.3906 Q1008.3313,346.9688 1007.5344,347.2969 Q1006.4563,347.75 1005.1594,347.75 Q1003.6438,347.75 1002.4406,347.125 Q1001.4563,346.625 1000.7688,345.5625 Q1000.0813,344.4844 1000.0813,343.2031 L1000.0813,342.0469 Q1000.0813,340.7188 1000.6906,339.5781 Q1001.3156,338.4219 1002.4094,337.8125 Q1003.5031,337.1875 1004.7375,337.1875 Q1005.4719,337.1875 1006.1125,337.3594 Q1006.7688,337.5156 1007.3156,337.875 Z " fill="#000000"/><text fill="#000000" font-family="sans-serif" font-size="14" lengthAdjust="spacing" textLength="176" x="1021.45" y="347.7285">CommissionTypeRepository</text><line style="stroke:#181818;stroke-width:0.5;" x1="977.5" x2="1212.5" y1="358" y2="358"/><line style="stroke:#181818;stroke-width:0.5;" x1="977.5" x2="1212.5" y1="366" y2="366"/><text fill="#000000" font-family="sans-serif" font-size="14" lengthAdjust="spacing" textLength="225" x="982.5" y="384.5332">+getCommissionTypeList() : String[]</text></g><!--class PropertyTypeRepository--><g id="elem_PropertyTypeRepository"><rect codeLine="62" fill="#F1F1F1" height="65.6094" id="PropertyTypeRepository" rx="2.5" ry="2.5" style="stroke:#181818;stroke-width:0.5;" width="215" x="1248.5" y="326"/><ellipse cx="1276.55" cy="342" fill="#ADD1B2" rx="11" ry="11" style="stroke:#181818;stroke-width:1.0;"/><path d="M1279.3156,337.875 Q1279.4719,337.6563 1279.6594,337.5469 Q1279.8469,337.4375 1280.0656,337.4375 Q1280.4406,337.4375 1280.675,337.7031 Q1280.9094,337.9531 1280.9094,338.5625 L1280.9094,340.0156 Q1280.9094,340.625 1280.675,340.8906 Q1280.4406,341.1563 1280.0656,341.1563 Q1279.7219,341.1563 1279.5188,340.9531 Q1279.3156,340.7656 1279.2063,340.25 Q1279.1594,339.8906 1278.9719,339.7031 Q1278.6438,339.3281 1278.0344,339.1094 Q1277.425,338.8906 1276.8,338.8906 Q1276.0344,338.8906 1275.3938,339.2188 Q1274.7688,339.5469 1274.2688,340.2969 Q1273.7844,341.0469 1273.7844,342.0781 L1273.7844,343.1719 Q1273.7844,344.4063 1274.675,345.2344 Q1275.5656,346.0469 1277.1594,346.0469 Q1278.0969,346.0469 1278.7531,345.7969 Q1279.1438,345.6406 1279.5656,345.2031 Q1279.8313,344.9375 1279.9719,344.8594 Q1280.1281,344.7813 1280.3313,344.7813 Q1280.6594,344.7813 1280.9094,345.0469 Q1281.175,345.2969 1281.175,345.6406 Q1281.175,345.9844 1280.8313,346.3906 Q1280.3313,346.9688 1279.5344,347.2969 Q1278.4563,347.75 1277.1594,347.75 Q1275.6438,347.75 1274.4406,347.125 Q1273.4563,346.625 1272.7688,345.5625 Q1272.0813,344.4844 1272.0813,343.2031 L1272.0813,342.0469 Q1272.0813,340.7188 1272.6906,339.5781 Q1273.3156,338.4219 1274.4094,337.8125 Q1275.5031,337.1875 1276.7375,337.1875 Q1277.4719,337.1875 1278.1125,337.3594 Q1278.7688,337.5156 1279.3156,337.875 Z " fill="#000000"/><text fill="#000000" font-family="sans-serif" font-size="14" lengthAdjust="spacing" textLength="154" x="1293.45" y="347.7285">PropertyTypeRepository</text><line style="stroke:#181818;stroke-width:0.5;" x1="1249.5" x2="1462.5" y1="358" y2="358"/><line style="stroke:#181818;stroke-width:0.5;" x1="1249.5" x2="1462.5" y1="366" y2="366"/><text fill="#000000" font-family="sans-serif" font-size="14" lengthAdjust="spacing" textLength="203" x="1254.5" y="384.5332">+getPropertyTypeList() : String[]</text></g><!--class AgencyRepository--><g id="elem_AgencyRepository"><rect codeLine="66" fill="#F1F1F1" height="65.6094" id="AgencyRepository" rx="2.5" ry="2.5" style="stroke:#181818;stroke-width:0.5;" width="242" x="48" y="574.5"/><ellipse cx="107.25" cy="590.5" fill="#ADD1B2" rx="11" ry="11" style="stroke:#181818;stroke-width:1.0;"/><path d="M110.0156,586.375 Q110.1719,586.1563 110.3594,586.0469 Q110.5469,585.9375 110.7656,585.9375 Q111.1406,585.9375 111.375,586.2031 Q111.6094,586.4531 111.6094,587.0625 L111.6094,588.5156 Q111.6094,589.125 111.375,589.3906 Q111.1406,589.6563 110.7656,589.6563 Q110.4219,589.6563 110.2188,589.4531 Q110.0156,589.2656 109.9063,588.75 Q109.8594,588.3906 109.6719,588.2031 Q109.3438,587.8281 108.7344,587.6094 Q108.125,587.3906 107.5,587.3906 Q106.7344,587.3906 106.0938,587.7188 Q105.4688,588.0469 104.9688,588.7969 Q104.4844,589.5469 104.4844,590.5781 L104.4844,591.6719 Q104.4844,592.9063 105.375,593.7344 Q106.2656,594.5469 107.8594,594.5469 Q108.7969,594.5469 109.4531,594.2969 Q109.8438,594.1406 110.2656,593.7031 Q110.5313,593.4375 110.6719,593.3594 Q110.8281,593.2813 111.0313,593.2813 Q111.3594,593.2813 111.6094,593.5469 Q111.875,593.7969 111.875,594.1406 Q111.875,594.4844 111.5313,594.8906 Q111.0313,595.4688 110.2344,595.7969 Q109.1563,596.25 107.8594,596.25 Q106.3438,596.25 105.1406,595.625 Q104.1563,595.125 103.4688,594.0625 Q102.7813,592.9844 102.7813,591.7031 L102.7813,590.5469 Q102.7813,589.2188 103.3906,588.0781 Q104.0156,586.9219 105.1094,586.3125 Q106.2031,585.6875 107.4375,585.6875 Q108.1719,585.6875 108.8125,585.8594 Q109.4688,586.0156 110.0156,586.375 Z " fill="#000000"/><text fill="#000000" font-family="sans-serif" font-size="14" lengthAdjust="spacing" textLength="115" x="127.75" y="596.2285">AgencyRepository</text><line style="stroke:#181818;stroke-width:0.5;" x1="49" x2="289" y1="606.5" y2="606.5"/><line style="stroke:#181818;stroke-width:0.5;" x1="49" x2="289" y1="614.5" y2="614.5"/><text fill="#000000" font-family="sans-serif" font-size="14" lengthAdjust="spacing" textLength="230" x="54" y="633.0332">+getAgencyByEmployeeEmail(email)</text></g><!--class Repositories--><g id="elem_Repositories"><rect codeLine="70" fill="#F1F1F1" height="136.0469" id="Repositories" rx="2.5" ry="2.5" style="stroke:#181818;stroke-width:0.5;" width="226" x="325" y="539.5"/><ellipse cx="394.25" cy="555.5" fill="#ADD1B2" rx="11" ry="11" style="stroke:#181818;stroke-width:1.0;"/><path d="M397.0156,551.375 Q397.1719,551.1563 397.3594,551.0469 Q397.5469,550.9375 397.7656,550.9375 Q398.1406,550.9375 398.375,551.2031 Q398.6094,551.4531 398.6094,552.0625 L398.6094,553.5156 Q398.6094,554.125 398.375,554.3906 Q398.1406,554.6563 397.7656,554.6563 Q397.4219,554.6563 397.2188,554.4531 Q397.0156,554.2656 396.9063,553.75 Q396.8594,553.3906 396.6719,553.2031 Q396.3438,552.8281 395.7344,552.6094 Q395.125,552.3906 394.5,552.3906 Q393.7344,552.3906 393.0938,552.7188 Q392.4688,553.0469 391.9688,553.7969 Q391.4844,554.5469 391.4844,555.5781 L391.4844,556.6719 Q391.4844,557.9063 392.375,558.7344 Q393.2656,559.5469 394.8594,559.5469 Q395.7969,559.5469 396.4531,559.2969 Q396.8438,559.1406 397.2656,558.7031 Q397.5313,558.4375 397.6719,558.3594 Q397.8281,558.2813 398.0313,558.2813 Q398.3594,558.2813 398.6094,558.5469 Q398.875,558.7969 398.875,559.1406 Q398.875,559.4844 398.5313,559.8906 Q398.0313,560.4688 397.2344,560.7969 Q396.1563,561.25 394.8594,561.25 Q393.3438,561.25 392.1406,560.625 Q391.1563,560.125 390.4688,559.0625 Q389.7813,557.9844 389.7813,556.7031 L389.7813,555.5469 Q389.7813,554.2188 390.3906,553.0781 Q391.0156,551.9219 392.1094,551.3125 Q393.2031,550.6875 394.4375,550.6875 Q395.1719,550.6875 395.8125,550.8594 Q396.4688,551.0156 397.0156,551.375 Z " fill="#000000"/><text fill="#000000" font-family="sans-serif" font-size="14" lengthAdjust="spacing" textLength="79" x="414.75" y="561.2285">Repositories</text><line style="stroke:#181818;stroke-width:0.5;" x1="326" x2="550" y1="571.5" y2="571.5"/><line style="stroke:#181818;stroke-width:0.5;" x1="326" x2="550" y1="579.5" y2="579.5"/><text fill="#000000" font-family="sans-serif" font-size="14" lengthAdjust="spacing" textLength="94" x="331" y="598.0332">-Repositories()</text><text fill="#000000" font-family="sans-serif" font-size="14" lengthAdjust="spacing" textLength="182" x="331" y="615.6426">+getInstance() : Repositories</text><text fill="#000000" font-family="sans-serif" font-size="14" lengthAdjust="spacing" textLength="214" x="331" y="633.252">+getCommissionTypeRepository()</text><text fill="#000000" font-family="sans-serif" font-size="14" lengthAdjust="spacing" textLength="192" x="331" y="650.8613">+getPropertyTypeRepository()</text><text fill="#000000" font-family="sans-serif" font-size="14" lengthAdjust="spacing" textLength="153" x="331" y="668.4707">+getAgencyRepository()</text></g><!--class PublishAnnouncementController--><g id="elem_PublishAnnouncementController"><rect codeLine="78" fill="#F1F1F1" height="171.2656" id="PublishAnnouncementController" rx="2.5" ry="2.5" style="stroke:#181818;stroke-width:0.5;" width="538" x="586" y="522"/><ellipse cx="749.25" cy="538" fill="#ADD1B2" rx="11" ry="11" style="stroke:#181818;stroke-width:1.0;"/><path d="M752.0156,533.875 Q752.1719,533.6563 752.3594,533.5469 Q752.5469,533.4375 752.7656,533.4375 Q753.1406,533.4375 753.375,533.7031 Q753.6094,533.9531 753.6094,534.5625 L753.6094,536.0156 Q753.6094,536.625 753.375,536.8906 Q753.1406,537.1563 752.7656,537.1563 Q752.4219,537.1563 752.2188,536.9531 Q752.0156,536.7656 751.9063,536.25 Q751.8594,535.8906 751.6719,535.7031 Q751.3438,535.3281 750.7344,535.1094 Q750.125,534.8906 749.5,534.8906 Q748.7344,534.8906 748.0938,535.2188 Q747.4688,535.5469 746.9688,536.2969 Q746.4844,537.0469 746.4844,538.0781 L746.4844,539.1719 Q746.4844,540.4063 747.375,541.2344 Q748.2656,542.0469 749.8594,542.0469 Q750.7969,542.0469 751.4531,541.7969 Q751.8438,541.6406 752.2656,541.2031 Q752.5313,540.9375 752.6719,540.8594 Q752.8281,540.7813 753.0313,540.7813 Q753.3594,540.7813 753.6094,541.0469 Q753.875,541.2969 753.875,541.6406 Q753.875,541.9844 753.5313,542.3906 Q753.0313,542.9688 752.2344,543.2969 Q751.1563,543.75 749.8594,543.75 Q748.3438,543.75 747.1406,543.125 Q746.1563,542.625 745.4688,541.5625 Q744.7813,540.4844 744.7813,539.2031 L744.7813,538.0469 Q744.7813,536.7188 745.3906,535.5781 Q746.0156,534.4219 747.1094,533.8125 Q748.2031,533.1875 749.4375,533.1875 Q750.1719,533.1875 750.8125,533.3594 Q751.4688,533.5156 752.0156,533.875 Z " fill="#000000"/><text fill="#000000" font-family="sans-serif" font-size="14" lengthAdjust="spacing" textLength="203" x="769.75" y="543.7285">PublishAnnouncementController</text><line style="stroke:#181818;stroke-width:0.5;" x1="587" x2="1123" y1="554" y2="554"/><line style="stroke:#181818;stroke-width:0.5;" x1="587" x2="1123" y1="562" y2="562"/><text fill="#000000" font-family="sans-serif" font-size="14" lengthAdjust="spacing" textLength="526" x="592" y="580.5332">+PublishAnnouncementController(organizationRepository, taskCategoryRepository)</text><text fill="#000000" font-family="sans-serif" font-size="14" lengthAdjust="spacing" textLength="168" x="592" y="598.1426">+getCommissionTypeList()</text><text fill="#000000" font-family="sans-serif" font-size="14" lengthAdjust="spacing" textLength="146" x="592" y="615.752">+getPropertyTypeList()</text><text fill="#000000" font-family="sans-serif" font-size="14" lengthAdjust="spacing" textLength="509" x="592" y="633.3613">+publishAnnouncement(commissionType,commissionValue,ownerEmail,property)</text><text fill="#000000" font-family="sans-serif" font-size="14" lengthAdjust="spacing" textLength="112" x="592" y="650.9707">+createProperty()</text><text fill="#000000" font-family="sans-serif" font-size="14" lengthAdjust="spacing" textLength="352" x="592" y="668.5801">+createCommission(commissionType,commissionValue)</text><text fill="#000000" font-family="sans-serif" font-size="14" lengthAdjust="spacing" textLength="155" x="592" y="686.1895">-getAgentFromSession()</text></g><!--class PublishAnnouncementUI--><g id="elem_PublishAnnouncementUI"><rect codeLine="90" fill="#F1F1F1" height="100.8281" id="PublishAnnouncementUI" rx="2.5" ry="2.5" style="stroke:#181818;stroke-width:0.5;" width="279" x="1159.5" y="557"/><ellipse cx="1218.25" cy="573" fill="#ADD1B2" rx="11" ry="11" style="stroke:#181818;stroke-width:1.0;"/><path d="M1221.0156,568.875 Q1221.1719,568.6563 1221.3594,568.5469 Q1221.5469,568.4375 1221.7656,568.4375 Q1222.1406,568.4375 1222.375,568.7031 Q1222.6094,568.9531 1222.6094,569.5625 L1222.6094,571.0156 Q1222.6094,571.625 1222.375,571.8906 Q1222.1406,572.1563 1221.7656,572.1563 Q1221.4219,572.1563 1221.2188,571.9531 Q1221.0156,571.7656 1220.9063,571.25 Q1220.8594,570.8906 1220.6719,570.7031 Q1220.3438,570.3281 1219.7344,570.1094 Q1219.125,569.8906 1218.5,569.8906 Q1217.7344,569.8906 1217.0938,570.2188 Q1216.4688,570.5469 1215.9688,571.2969 Q1215.4844,572.0469 1215.4844,573.0781 L1215.4844,574.1719 Q1215.4844,575.4063 1216.375,576.2344 Q1217.2656,577.0469 1218.8594,577.0469 Q1219.7969,577.0469 1220.4531,576.7969 Q1220.8438,576.6406 1221.2656,576.2031 Q1221.5313,575.9375 1221.6719,575.8594 Q1221.8281,575.7813 1222.0313,575.7813 Q1222.3594,575.7813 1222.6094,576.0469 Q1222.875,576.2969 1222.875,576.6406 Q1222.875,576.9844 1222.5313,577.3906 Q1222.0313,577.9688 1221.2344,578.2969 Q1220.1563,578.75 1218.8594,578.75 Q1217.3438,578.75 1216.1406,578.125 Q1215.1563,577.625 1214.4688,576.5625 Q1213.7813,575.4844 1213.7813,574.2031 L1213.7813,573.0469 Q1213.7813,571.7188 1214.3906,570.5781 Q1215.0156,569.4219 1216.1094,568.8125 Q1217.2031,568.1875 1218.4375,568.1875 Q1219.1719,568.1875 1219.8125,568.3594 Q1220.4688,568.5156 1221.0156,568.875 Z " fill="#000000"/><text fill="#000000" font-family="sans-serif" font-size="14" lengthAdjust="spacing" textLength="153" x="1238.75" y="578.7285">PublishAnnouncementUI</text><line style="stroke:#181818;stroke-width:0.5;" x1="1160.5" x2="1437.5" y1="589" y2="589"/><line style="stroke:#181818;stroke-width:0.5;" x1="1160.5" x2="1437.5" y1="597" y2="597"/><text fill="#000000" font-family="sans-serif" font-size="14" lengthAdjust="spacing" textLength="257" x="1165.5" y="615.5332">-keepCommissionType(typeCommission)</text><text fill="#000000" font-family="sans-serif" font-size="14" lengthAdjust="spacing" textLength="267" x="1165.5" y="633.1426">-keepCommissionValue(commissionValue)</text><text fill="#000000" font-family="sans-serif" font-size="14" lengthAdjust="spacing" textLength="217" x="1165.5" y="650.752">-keepPropertyType(propertyType)</text></g><!--SRC=[XLKzRzim4DtrAxX5HcIWSvT0KPnMGE2aiTsbxS2GPucmH0earLG9kdJhxyeVwrdM1sahhWV3l7jyTtptI5-OdP0LrRGafPAAvLgLGAok8HWp5MKxci7ADWKG3SnIcHKkmEIKgsSXCxAbXN4pXP1Wcmf8fOfclmWk9f9AMnKukrX1ZOcjrUAfjf0o9LVY1SY78BWeO6k9LKIBBBU4YtqxGiaWQFUGkBRvBMMKG_0Q4FnS4cEf5OnaO5E9loM3SDQbC9RKMeEq6mDw1SOW5MP_ztHEkETRb5GK-vtxNCfTT9mX4pdWvaJI4hgV5MOhF6H2DL_MvHFeBc7fBsyDU_AOQopPRysLX0up5f9IrNYGqgstGhbm0hHjWipdyo-R-8wy_IKnIPUhzTkVPPB69FwqMAx9_OOyB1vNzykhAt-ta5kbIrhSW65QLAsq7i02owLWKuXKMiX04rvhweHlLFs4lc7AsA3JVKtDBjIm1PIUGKJuo1LzbnCzH9Dr4TlNYbf-_DP0BV3h1dTWaGGNcTBDVaW7wH9Lbg8TA0etd8eDqJNw4UEyRxgFVwK5tedWqY48ZxAHpt9a3DOCanATK8Bxsg8C8fFqLFHJMtG9rnrTXdBksYEapcBMONxIGd2Kvhz0j7bhwkkcjNtODjBV7YenMXMg0VXCpGIWGWs5oVqgUpeS3WeqAXaT2nqHzIn1jvmHgRIgGDl6KJJnf7w4IXbXST3arRdQ7kPE61lEoCTEkcy_1aiyTFJlCxc8AHvlpDCKXzpre9Wdry0mx1LW1hkuGVVf6fypxCO5lIV1s9bBCtry5t5yBlVDUpYTSQAarQeeqE6z06THeT8PbUAbDVvOnR_1OtnsViBdfdR6b_xTZOxzwDXnTEE1xV3azCL2FppvManLEBvnj_X7xFqXdH5yaxPlsGwWyXK9_MisEm6rfSEJLWumLx-mSXPjF_y0]--></g></svg>