<?xml version="1.0" encoding="UTF-8" standalone="no"?><svg xmlns="http://www.w3.org/2000/svg" xmlns:xlink="http://www.w3.org/1999/xlink" contentStyleType="text/css" height="404px" preserveAspectRatio="none" style="width:783px;height:404px;background:#FFFFFF;" version="1.1" viewBox="0 0 783 404" width="783px" zoomAndPan="magnify"><defs/><g><rect fill="#FFFFFF" height="244.8125" style="stroke:#181818;stroke-width:1.0;" width="10" x="290" y="87.5703"/><rect fill="#FFFFFF" height="30.3516" style="stroke:#181818;stroke-width:1.0;" width="10" x="425.5" y="143.2734"/><rect fill="#FFFFFF" height="30.3516" style="stroke:#181818;stroke-width:1.0;" width="10" x="532.5" y="203.9766"/><rect fill="#FFFFFF" height="30.3516" style="stroke:#181818;stroke-width:1.0;" width="10" x="676.5" y="264.6797"/><rect fill="none" height="200.4609" style="stroke:#000000;stroke-width:1.5;" width="569" x="208" y="102.5703"/><line style="stroke:#181818;stroke-width:0.5;stroke-dasharray:5.0,5.0;" x1="295" x2="295" y1="55.2188" y2="350.3828"/><line style="stroke:#181818;stroke-width:0.5;stroke-dasharray:5.0,5.0;" x1="430" x2="430" y1="55.2188" y2="350.3828"/><line style="stroke:#181818;stroke-width:0.5;stroke-dasharray:5.0,5.0;" x1="537" x2="537" y1="55.2188" y2="350.3828"/><line style="stroke:#181818;stroke-width:0.5;stroke-dasharray:5.0,5.0;" x1="681" x2="681" y1="55.2188" y2="350.3828"/><rect fill="#E3E3E3" height="31.6094" rx="2.5" ry="2.5" style="stroke:#181818;stroke-width:0.5;" width="154" x="218" y="22.6094"/><text fill="#000000" font-family="sans-serif" font-size="14" lengthAdjust="spacing" textLength="140" x="225" y="44.1426">:CreateTaskController</text><rect fill="#E3E3E3" height="31.6094" rx="2.5" ry="2.5" style="stroke:#181818;stroke-width:0.5;" width="154" x="218" y="349.3828"/><text fill="#000000" font-family="sans-serif" font-size="14" lengthAdjust="spacing" textLength="140" x="225" y="370.916">:CreateTaskController</text><rect fill="#E3E3E3" height="31.6094" rx="2.5" ry="2.5" style="stroke:#181818;stroke-width:0.5;" width="97" x="382" y="22.6094"/><text fill="#000000" font-family="sans-serif" font-size="14" lengthAdjust="spacing" textLength="83" x="389" y="44.1426">:Repositories</text><rect fill="#E3E3E3" height="31.6094" rx="2.5" ry="2.5" style="stroke:#181818;stroke-width:0.5;" width="97" x="382" y="349.3828"/><text fill="#000000" font-family="sans-serif" font-size="14" lengthAdjust="spacing" textLength="83" x="389" y="370.916">:Repositories</text><rect fill="#E3E3E3" height="49.2188" rx="2.5" ry="2.5" style="stroke:#181818;stroke-width:0.5;" width="97" x="489" y="5"/><text fill="#000000" font-family="sans-serif" font-size="14" lengthAdjust="spacing" textLength="74" x="500.5" y="26.5332">repositories</text><text fill="#000000" font-family="sans-serif" font-size="14" lengthAdjust="spacing" textLength="83" x="496" y="44.1426">:Repositories</text><rect fill="#E3E3E3" height="49.2188" rx="2.5" ry="2.5" style="stroke:#181818;stroke-width:0.5;" width="97" x="489" y="349.3828"/><text fill="#000000" font-family="sans-serif" font-size="14" lengthAdjust="spacing" textLength="74" x="500.5" y="370.916">repositories</text><text fill="#000000" font-family="sans-serif" font-size="14" lengthAdjust="spacing" textLength="83" x="496" y="388.5254">:Repositories</text><rect fill="#E3E3E3" height="49.2188" rx="2.5" ry="2.5" style="stroke:#181818;stroke-width:0.5;" width="171" x="596" y="5"/><text fill="#000000" font-family="sans-serif" font-size="14" lengthAdjust="spacing" textLength="157" x="603" y="26.5332">propertyTypeRepository:</text><text fill="#000000" font-family="sans-serif" font-size="14" lengthAdjust="spacing" textLength="154" x="604.5" y="44.1426">PropertyTypeRepository</text><rect fill="#E3E3E3" height="49.2188" rx="2.5" ry="2.5" style="stroke:#181818;stroke-width:0.5;" width="171" x="596" y="349.3828"/><text fill="#000000" font-family="sans-serif" font-size="14" lengthAdjust="spacing" textLength="157" x="603" y="370.916">propertyTypeRepository:</text><text fill="#000000" font-family="sans-serif" font-size="14" lengthAdjust="spacing" textLength="154" x="604.5" y="388.5254">PropertyTypeRepository</text><rect fill="#FFFFFF" height="244.8125" style="stroke:#181818;stroke-width:1.0;" width="10" x="290" y="87.5703"/><rect fill="#FFFFFF" height="30.3516" style="stroke:#181818;stroke-width:1.0;" width="10" x="425.5" y="143.2734"/><rect fill="#FFFFFF" height="30.3516" style="stroke:#181818;stroke-width:1.0;" width="10" x="532.5" y="203.9766"/><rect fill="#FFFFFF" height="30.3516" style="stroke:#181818;stroke-width:1.0;" width="10" x="676.5" y="264.6797"/><polygon fill="#181818" points="278,83.5703,288,87.5703,278,91.5703,282,87.5703" style="stroke:#181818;stroke-width:1.0;"/><line style="stroke:#181818;stroke-width:1.0;" x1="0" x2="284" y1="87.5703" y2="87.5703"/><text fill="#000000" font-family="sans-serif" font-size="13" font-weight="bold" lengthAdjust="spacing" textLength="14" x="7" y="82.7139">12</text><text fill="#000000" font-family="sans-serif" font-size="13" lengthAdjust="spacing" textLength="253" x="25" y="82.7139">getPropertyTypeByDesignation(designation)</text><path d="M208,102.5703 L368,102.5703 L368,110.9219 L358,120.9219 L208,120.9219 L208,102.5703 " fill="#EEEEEE" style="stroke:#000000;stroke-width:1.5;"/><rect fill="none" height="200.4609" style="stroke:#000000;stroke-width:1.5;" width="569" x="208" y="102.5703"/><text fill="#000000" font-family="sans-serif" font-size="13" font-weight="bold" lengthAdjust="spacing" textLength="115" x="223" y="117.0654">Get Property Type</text><polygon fill="#181818" points="413.5,139.2734,423.5,143.2734,413.5,147.2734,417.5,143.2734" style="stroke:#181818;stroke-width:1.0;"/><line style="stroke:#181818;stroke-width:1.0;" x1="300" x2="419.5" y1="143.2734" y2="143.2734"/><text fill="#000000" font-family="sans-serif" font-size="13" font-weight="bold" lengthAdjust="spacing" textLength="25" x="307" y="138.417">12.1</text><text fill="#000000" font-family="sans-serif" font-size="13" lengthAdjust="spacing" textLength="75" x="336" y="138.417">getInstance()</text><polygon fill="#181818" points="311,169.625,301,173.625,311,177.625,307,173.625" style="stroke:#181818;stroke-width:1.0;"/><line style="stroke:#181818;stroke-width:1.0;stroke-dasharray:2.0,2.0;" x1="305" x2="429.5" y1="173.625" y2="173.625"/><text fill="#000000" font-family="sans-serif" font-size="13" font-weight="bold" lengthAdjust="spacing" textLength="25" x="317" y="168.7686">12.2</text><text fill="#000000" font-family="sans-serif" font-size="13" lengthAdjust="spacing" textLength="67" x="346" y="168.7686">repositories</text><polygon fill="#181818" points="520.5,199.9766,530.5,203.9766,520.5,207.9766,524.5,203.9766" style="stroke:#181818;stroke-width:1.0;"/><line style="stroke:#181818;stroke-width:1.0;" x1="300" x2="526.5" y1="203.9766" y2="203.9766"/><text fill="#000000" font-family="sans-serif" font-size="13" font-weight="bold" lengthAdjust="spacing" textLength="25" x="307" y="199.1201">12.3</text><text fill="#000000" font-family="sans-serif" font-size="13" lengthAdjust="spacing" textLength="165" x="336" y="199.1201">getPropertyTypeRepository()</text><polygon fill="#181818" points="311,230.3281,301,234.3281,311,238.3281,307,234.3281" style="stroke:#181818;stroke-width:1.0;"/><line style="stroke:#181818;stroke-width:1.0;" x1="305" x2="536.5" y1="234.3281" y2="234.3281"/><text fill="#000000" font-family="sans-serif" font-size="13" font-weight="bold" lengthAdjust="spacing" textLength="25" x="317" y="229.4717">12.4</text><text fill="#000000" font-family="sans-serif" font-size="13" lengthAdjust="spacing" textLength="137" x="346" y="229.4717">propertyTypeRepository</text><polygon fill="#181818" points="664.5,260.6797,674.5,264.6797,664.5,268.6797,668.5,264.6797" style="stroke:#181818;stroke-width:1.0;"/><line style="stroke:#181818;stroke-width:1.0;" x1="300" x2="670.5" y1="264.6797" y2="264.6797"/><text fill="#000000" font-family="sans-serif" font-size="13" font-weight="bold" lengthAdjust="spacing" textLength="25" x="307" y="259.8232">12.5</text><text fill="#000000" font-family="sans-serif" font-size="13" lengthAdjust="spacing" textLength="253" x="336" y="259.8232">getPropertyTypeByDesignation(designation)</text><polygon fill="#181818" points="311,291.0313,301,295.0313,311,299.0313,307,295.0313" style="stroke:#181818;stroke-width:1.0;"/><line style="stroke:#181818;stroke-width:1.0;stroke-dasharray:2.0,2.0;" x1="305" x2="680.5" y1="295.0313" y2="295.0313"/><text fill="#000000" font-family="sans-serif" font-size="13" font-weight="bold" lengthAdjust="spacing" textLength="25" x="317" y="290.1748">12.6</text><text fill="#000000" font-family="sans-serif" font-size="13" lengthAdjust="spacing" textLength="75" x="346" y="290.1748">propertyType</text><polygon fill="#181818" points="11,328.3828,1,332.3828,11,336.3828,7,332.3828" style="stroke:#181818;stroke-width:1.0;"/><line style="stroke:#181818;stroke-width:1.0;stroke-dasharray:2.0,2.0;" x1="5" x2="294" y1="332.3828" y2="332.3828"/><text fill="#000000" font-family="sans-serif" font-size="13" font-weight="bold" lengthAdjust="spacing" textLength="14" x="17" y="327.5264">13</text><text fill="#000000" font-family="sans-serif" font-size="13" lengthAdjust="spacing" textLength="75" x="35" y="327.5264">propertyType</text><!--SRC=[bL8xJyCm4DxzAqwTsY58XIr2I50aXDIXQZDsCScHMabioxw0ykzn772Irg3YARcxxt4FMmcfkU4DD4gg_6HKWq2cHMP3HlEyuYKUgAiH3ER4PLbF2-o95-fJo1BUUMsHCHScaGlD9S4YtHZaX1ctrKP9CggkqIo0MzXa- -rPxHwrieAK4MXzJGXq1z7Baf9pY9aWZlAIOBTzpEO8RPH6GrtMQHpfqwFSHHC3IpJ566-TeRPvGmFhMvOy-9uWXH9f2ddgdj6AKd8IIYwByNjrHd6pTe6Sn8URs30VSAyqgjNmWXHyGC_gS_tpeauyCgp1owkqRcivBbS14rHY4mvL_Okn9j-jfZ2TVu0LU1tzZ_5-IPTJ6w4nttwnCwEUPTn1VCynZtEgO2gA_zToBqt_SaUXXRXc4kygsiiV2YYBuPQ6t-dbtVd8VP94TTX4m5yb-m80]--></g></svg>