<?xml version="1.0" encoding="UTF-8" standalone="no"?><svg xmlns="http://www.w3.org/2000/svg" xmlns:xlink="http://www.w3.org/1999/xlink" contentStyleType="text/css" height="954px" preserveAspectRatio="none" style="width:1569px;height:954px;background:#FFFFFF;" version="1.1" viewBox="0 0 1569 954" width="1569px" zoomAndPan="magnify"><defs/><g><rect fill="#FFFFFF" height="735.8516" style="stroke:#181818;stroke-width:1.0;" width="10" x="492" y="146.625"/><rect fill="#FFFFFF" height="41.3516" style="stroke:#181818;stroke-width:1.0;" width="10" x="497" y="771.7734"/><rect fill="#FFFFFF" height="94.0859" style="stroke:#181818;stroke-width:1.0;" width="10" x="910" y="244.0313"/><rect fill="#FFFFFF" height="80.5703" style="stroke:#181818;stroke-width:1.0;" width="10" x="998.5" y="443.5234"/><rect fill="#FFFFFF" height="80.5703" style="stroke:#181818;stroke-width:1.0;" width="10" x="1080" y="645.8516"/><rect fill="none" height="701.5" style="stroke:#000000;stroke-width:1.5;" width="1121.5" x="441.5" y="151.625"/><rect fill="none" height="169.1406" style="stroke:#000000;stroke-width:1.5;" width="1101.5" x="451.5" y="176.9766"/><rect fill="none" height="171.9766" style="stroke:#000000;stroke-width:1.5;" width="1101.5" x="451.5" y="360.1172"/><rect fill="none" height="188.3281" style="stroke:#000000;stroke-width:1.5;" width="1101.5" x="451.5" y="546.0938"/><line style="stroke:#181818;stroke-width:0.5;stroke-dasharray:5.0,5.0;" x1="496.5" x2="496.5" y1="55.2188" y2="900.4766"/><line style="stroke:#181818;stroke-width:0.5;stroke-dasharray:5.0,5.0;" x1="915" x2="915" y1="235.4375" y2="900.4766"/><line style="stroke:#181818;stroke-width:0.5;stroke-dasharray:5.0,5.0;" x1="1003" x2="1003" y1="419.9961" y2="900.4766"/><line style="stroke:#181818;stroke-width:0.5;stroke-dasharray:5.0,5.0;" x1="1085" x2="1085" y1="614.1484" y2="900.4766"/><line style="stroke:#181818;stroke-width:0.5;stroke-dasharray:5.0,5.0;" x1="1507" x2="1507" y1="683.9609" y2="900.4766"/><rect fill="#E3E3E3" height="49.2188" rx="2.5" ry="2.5" style="stroke:#181818;stroke-width:0.5;" width="71" x="461.5" y="5"/><text fill="#000000" font-family="sans-serif" font-size="14" lengthAdjust="spacing" textLength="48" x="473" y="26.5332">request</text><text fill="#000000" font-family="sans-serif" font-size="14" lengthAdjust="spacing" textLength="57" x="468.5" y="44.1426">:Request</text><rect fill="#E3E3E3" height="49.2188" rx="2.5" ry="2.5" style="stroke:#181818;stroke-width:0.5;" width="71" x="461.5" y="899.4766"/><text fill="#000000" font-family="sans-serif" font-size="14" lengthAdjust="spacing" textLength="48" x="473" y="921.0098">request</text><text fill="#000000" font-family="sans-serif" font-size="14" lengthAdjust="spacing" textLength="57" x="468.5" y="938.6191">:Request</text><rect fill="#E3E3E3" height="49.2188" rx="2.5" ry="2.5" style="stroke:#181818;stroke-width:0.5;" width="72" x="879" y="899.4766"/><text fill="#000000" font-family="sans-serif" font-size="14" lengthAdjust="spacing" textLength="53" x="888.5" y="921.0098">property</text><text fill="#000000" font-family="sans-serif" font-size="14" lengthAdjust="spacing" textLength="58" x="886" y="938.6191">:Property</text><rect fill="#E3E3E3" height="49.2188" rx="2.5" ry="2.5" style="stroke:#181818;stroke-width:0.5;" width="85" x="961" y="899.4766"/><text fill="#000000" font-family="sans-serif" font-size="14" lengthAdjust="spacing" textLength="62" x="972.5" y="921.0098">residence</text><text fill="#000000" font-family="sans-serif" font-size="14" lengthAdjust="spacing" textLength="71" x="968" y="938.6191">:Residence</text><rect fill="#E3E3E3" height="49.2188" rx="2.5" ry="2.5" style="stroke:#181818;stroke-width:0.5;" width="58" x="1056" y="899.4766"/><text fill="#000000" font-family="sans-serif" font-size="14" lengthAdjust="spacing" textLength="39" x="1065.5" y="921.0098">house</text><text fill="#000000" font-family="sans-serif" font-size="14" lengthAdjust="spacing" textLength="44" x="1063" y="938.6191">:House</text><rect fill="#E3E3E3" height="49.2188" rx="2.5" ry="2.5" style="stroke:#181818;stroke-width:0.5;" width="72" x="1471" y="899.4766"/><text fill="#000000" font-family="sans-serif" font-size="14" lengthAdjust="spacing" textLength="49" x="1482.5" y="921.0098">location</text><text fill="#000000" font-family="sans-serif" font-size="14" lengthAdjust="spacing" textLength="58" x="1478" y="938.6191">:Location</text><rect fill="#FFFFFF" height="735.8516" style="stroke:#181818;stroke-width:1.0;" width="10" x="492" y="146.625"/><rect fill="#FFFFFF" height="41.3516" style="stroke:#181818;stroke-width:1.0;" width="10" x="497" y="771.7734"/><rect fill="#FFFFFF" height="94.0859" style="stroke:#181818;stroke-width:1.0;" width="10" x="910" y="244.0313"/><rect fill="#FFFFFF" height="80.5703" style="stroke:#181818;stroke-width:1.0;" width="10" x="998.5" y="443.5234"/><rect fill="#FFFFFF" height="80.5703" style="stroke:#181818;stroke-width:1.0;" width="10" x="1080" y="645.8516"/><polygon fill="#181818" points="485,132.625,495,136.625,485,140.625,489,136.625" style="stroke:#181818;stroke-width:1.0;"/><line style="stroke:#181818;stroke-width:1.0;" x1="0" x2="491" y1="136.625" y2="136.625"/><text fill="#000000" font-family="sans-serif" font-size="13" font-weight="bold" lengthAdjust="spacing" textLength="14" x="7" y="107.2412">37</text><text fill="#000000" font-family="sans-serif" font-size="13" lengthAdjust="spacing" textLength="426" x="25" y="82.7139">createRequest(ownerEmail, propertyType,streetName, city, district, state,</text><text fill="#000000" font-family="sans-serif" font-size="13" lengthAdjust="spacing" textLength="383" x="25" y="99.0654">zipCode, distanceCityCenter, price, photograph,numberBedrooms,</text><text fill="#000000" font-family="sans-serif" font-size="13" lengthAdjust="spacing" textLength="455" x="25" y="115.417">numberParkingSpaces,existenceBasement,inhabitableLoft, numberBathrooms,</text><text fill="#000000" font-family="sans-serif" font-size="13" lengthAdjust="spacing" textLength="228" x="29" y="131.7686">availableEquipment, sunExposure,area)</text><path d="M441.5,151.625 L583.5,151.625 L583.5,159.9766 L573.5,169.9766 L441.5,169.9766 L441.5,151.625 " fill="#EEEEEE" style="stroke:#000000;stroke-width:1.5;"/><rect fill="none" height="701.5" style="stroke:#000000;stroke-width:1.5;" width="1121.5" x="441.5" y="151.625"/><text fill="#000000" font-family="sans-serif" font-size="13" font-weight="bold" lengthAdjust="spacing" textLength="97" x="456.5" y="166.1201">Create Request</text><path d="M451.5,176.9766 L512.5,176.9766 L512.5,185.3281 L502.5,195.3281 L451.5,195.3281 L451.5,176.9766 " fill="#EEEEEE" style="stroke:#000000;stroke-width:1.5;"/><rect fill="none" height="169.1406" style="stroke:#000000;stroke-width:1.5;" width="1101.5" x="451.5" y="176.9766"/><text fill="#000000" font-family="sans-serif" font-size="13" font-weight="bold" lengthAdjust="spacing" textLength="16" x="466.5" y="191.4717">alt</text><text fill="#000000" font-family="sans-serif" font-size="11" font-weight="bold" lengthAdjust="spacing" textLength="118" x="527.5" y="190.3955">[propertyType = land]</text><polygon fill="#181818" points="867,230.0313,877,234.0313,867,238.0313,871,234.0313" style="stroke:#181818;stroke-width:1.0;"/><line style="stroke:#181818;stroke-width:1.0;" x1="502" x2="873" y1="234.0313" y2="234.0313"/><text fill="#000000" font-family="sans-serif" font-size="13" font-weight="bold" lengthAdjust="spacing" textLength="25" x="509" y="220.999">37.1</text><text fill="#000000" font-family="sans-serif" font-size="13" lengthAdjust="spacing" textLength="324" x="538" y="212.8232">createProperty(streetName, city, district, state,zipCode,</text><text fill="#000000" font-family="sans-serif" font-size="13" lengthAdjust="spacing" textLength="255" x="542" y="229.1748">distanceCityCenter, area, price, photograph)</text><rect fill="#E3E3E3" height="49.2188" rx="2.5" ry="2.5" style="stroke:#181818;stroke-width:0.5;" width="72" x="879" y="195.3281"/><text fill="#000000" font-family="sans-serif" font-size="14" lengthAdjust="spacing" textLength="53" x="888.5" y="216.8613">property</text><text fill="#000000" font-family="sans-serif" font-size="14" lengthAdjust="spacing" textLength="58" x="886" y="234.4707">:Property</text><polygon fill="#181818" points="1459,273.8984,1469,277.8984,1459,281.8984,1463,277.8984" style="stroke:#181818;stroke-width:1.0;"/><line style="stroke:#181818;stroke-width:1.0;" x1="920" x2="1465" y1="277.8984" y2="277.8984"/><text fill="#000000" font-family="sans-serif" font-size="13" font-weight="bold" lengthAdjust="spacing" textLength="25" x="927" y="273.042">37.2</text><text fill="#000000" font-family="sans-serif" font-size="13" lengthAdjust="spacing" textLength="328" x="956" y="273.042">createLocation(streetName, city, district, state, zipCode)</text><rect fill="#E3E3E3" height="49.2188" rx="2.5" ry="2.5" style="stroke:#181818;stroke-width:0.5;" width="72" x="1471" y="255.5469"/><text fill="#000000" font-family="sans-serif" font-size="14" lengthAdjust="spacing" textLength="49" x="1482.5" y="277.0801">location</text><text fill="#000000" font-family="sans-serif" font-size="14" lengthAdjust="spacing" textLength="58" x="1478" y="294.6895">:Location</text><polygon fill="#181818" points="513,334.1172,503,338.1172,513,342.1172,509,338.1172" style="stroke:#181818;stroke-width:1.0;"/><line style="stroke:#181818;stroke-width:1.0;stroke-dasharray:2.0,2.0;" x1="507" x2="914" y1="338.1172" y2="338.1172"/><text fill="#000000" font-family="sans-serif" font-size="13" font-weight="bold" lengthAdjust="spacing" textLength="25" x="519" y="333.2607">37.3</text><text fill="#000000" font-family="sans-serif" font-size="13" lengthAdjust="spacing" textLength="47" x="548" y="333.2607">property</text><path d="M451.5,360.1172 L512.5,360.1172 L512.5,368.4688 L502.5,378.4688 L451.5,378.4688 L451.5,360.1172 " fill="#EEEEEE" style="stroke:#000000;stroke-width:1.5;"/><rect fill="none" height="171.9766" style="stroke:#000000;stroke-width:1.5;" width="1101.5" x="451.5" y="360.1172"/><text fill="#000000" font-family="sans-serif" font-size="13" font-weight="bold" lengthAdjust="spacing" textLength="16" x="466.5" y="374.6123">alt</text><text fill="#000000" font-family="sans-serif" font-size="11" font-weight="bold" lengthAdjust="spacing" textLength="152" x="527.5" y="373.5361">[propertyType = apartment]</text><polygon fill="#181818" points="949,429.5234,959,433.5234,949,437.5234,953,433.5234" style="stroke:#181818;stroke-width:1.0;"/><line style="stroke:#181818;stroke-width:1.0;" x1="502" x2="955" y1="433.5234" y2="433.5234"/><text fill="#000000" font-family="sans-serif" font-size="13" font-weight="bold" lengthAdjust="spacing" textLength="25" x="509" y="412.3154">37.4</text><text fill="#000000" font-family="sans-serif" font-size="13" lengthAdjust="spacing" textLength="336" x="538" y="395.9639">createResidence(streetName, city, district, state,zipCode,</text><text fill="#000000" font-family="sans-serif" font-size="13" lengthAdjust="spacing" textLength="361" x="538" y="412.3154">distanceCityCenter, area, price, photograph,numberBedrooms,</text><text fill="#000000" font-family="sans-serif" font-size="13" lengthAdjust="spacing" textLength="360" x="538" y="428.667">numberParkingSpaces,numberBathrooms,availableEquipment)</text><rect fill="#E3E3E3" height="49.2188" rx="2.5" ry="2.5" style="stroke:#181818;stroke-width:0.5;" width="85" x="961" y="381.3047"/><text fill="#000000" font-family="sans-serif" font-size="14" lengthAdjust="spacing" textLength="62" x="972.5" y="402.8379">residence</text><text fill="#000000" font-family="sans-serif" font-size="14" lengthAdjust="spacing" textLength="71" x="968" y="420.4473">:Residence</text><polygon fill="#181818" points="1459,459.875,1469,463.875,1459,467.875,1463,463.875" style="stroke:#181818;stroke-width:1.0;"/><line style="stroke:#181818;stroke-width:1.0;" x1="1008.5" x2="1465" y1="463.875" y2="463.875"/><text fill="#000000" font-family="sans-serif" font-size="13" font-weight="bold" lengthAdjust="spacing" textLength="25" x="1015.5" y="459.0186">37.5</text><text fill="#000000" font-family="sans-serif" font-size="13" lengthAdjust="spacing" textLength="328" x="1044.5" y="459.0186">createLocation(streetName, city, district, state, zipCode)</text><rect fill="#E3E3E3" height="49.2188" rx="2.5" ry="2.5" style="stroke:#181818;stroke-width:0.5;" width="72" x="1471" y="441.5234"/><text fill="#000000" font-family="sans-serif" font-size="14" lengthAdjust="spacing" textLength="49" x="1482.5" y="463.0566">location</text><text fill="#000000" font-family="sans-serif" font-size="14" lengthAdjust="spacing" textLength="58" x="1478" y="480.666">:Location</text><polygon fill="#181818" points="513,520.0938,503,524.0938,513,528.0938,509,524.0938" style="stroke:#181818;stroke-width:1.0;"/><line style="stroke:#181818;stroke-width:1.0;stroke-dasharray:2.0,2.0;" x1="507" x2="1002.5" y1="524.0938" y2="524.0938"/><text fill="#000000" font-family="sans-serif" font-size="13" font-weight="bold" lengthAdjust="spacing" textLength="25" x="519" y="519.2373">37.6</text><text fill="#000000" font-family="sans-serif" font-size="13" lengthAdjust="spacing" textLength="47" x="548" y="519.2373">property</text><path d="M451.5,546.0938 L512.5,546.0938 L512.5,554.4453 L502.5,564.4453 L451.5,564.4453 L451.5,546.0938 " fill="#EEEEEE" style="stroke:#000000;stroke-width:1.5;"/><rect fill="none" height="188.3281" style="stroke:#000000;stroke-width:1.5;" width="1101.5" x="451.5" y="546.0938"/><text fill="#000000" font-family="sans-serif" font-size="13" font-weight="bold" lengthAdjust="spacing" textLength="16" x="466.5" y="560.5889">alt</text><text fill="#000000" font-family="sans-serif" font-size="11" font-weight="bold" lengthAdjust="spacing" textLength="130" x="527.5" y="559.5127">[propertyType = house]</text><polygon fill="#181818" points="1044,631.8516,1054,635.8516,1044,639.8516,1048,635.8516" style="stroke:#181818;stroke-width:1.0;"/><line style="stroke:#181818;stroke-width:1.0;" x1="502" x2="1050" y1="635.8516" y2="635.8516"/><text fill="#000000" font-family="sans-serif" font-size="13" font-weight="bold" lengthAdjust="spacing" textLength="25" x="509" y="606.4678">37.7</text><text fill="#000000" font-family="sans-serif" font-size="13" lengthAdjust="spacing" textLength="336" x="538" y="581.9404">createResidence(streetName, city, district, state,zipCode,</text><text fill="#000000" font-family="sans-serif" font-size="13" lengthAdjust="spacing" textLength="361" x="538" y="598.292">distanceCityCenter, area, price, photograph,numberBedrooms,</text><text fill="#000000" font-family="sans-serif" font-size="13" lengthAdjust="spacing" textLength="360" x="538" y="614.6436">numberParkingSpaces,numberBathrooms,availableEquipment,</text><text fill="#000000" font-family="sans-serif" font-size="13" lengthAdjust="spacing" textLength="286" x="538" y="630.9951">existenceBasement,inhabitableLoft,sunExposure)</text><rect fill="#E3E3E3" height="49.2188" rx="2.5" ry="2.5" style="stroke:#181818;stroke-width:0.5;" width="58" x="1056" y="583.6328"/><text fill="#000000" font-family="sans-serif" font-size="14" lengthAdjust="spacing" textLength="39" x="1065.5" y="605.166">house</text><text fill="#000000" font-family="sans-serif" font-size="14" lengthAdjust="spacing" textLength="44" x="1063" y="622.7754">:House</text><polygon fill="#181818" points="1459,662.2031,1469,666.2031,1459,670.2031,1463,666.2031" style="stroke:#181818;stroke-width:1.0;"/><line style="stroke:#181818;stroke-width:1.0;" x1="1090" x2="1465" y1="666.2031" y2="666.2031"/><text fill="#000000" font-family="sans-serif" font-size="13" font-weight="bold" lengthAdjust="spacing" textLength="25" x="1097" y="661.3467">37.8</text><text fill="#000000" font-family="sans-serif" font-size="13" lengthAdjust="spacing" textLength="328" x="1126" y="661.3467">createLocation(streetName, city, district, state, zipCode)</text><rect fill="#E3E3E3" height="49.2188" rx="2.5" ry="2.5" style="stroke:#181818;stroke-width:0.5;" width="72" x="1471" y="643.8516"/><text fill="#000000" font-family="sans-serif" font-size="14" lengthAdjust="spacing" textLength="49" x="1482.5" y="665.3848">location</text><text fill="#000000" font-family="sans-serif" font-size="14" lengthAdjust="spacing" textLength="58" x="1478" y="682.9941">:Location</text><polygon fill="#181818" points="513,722.4219,503,726.4219,513,730.4219,509,726.4219" style="stroke:#181818;stroke-width:1.0;"/><line style="stroke:#181818;stroke-width:1.0;stroke-dasharray:2.0,2.0;" x1="507" x2="1084" y1="726.4219" y2="726.4219"/><text fill="#000000" font-family="sans-serif" font-size="13" font-weight="bold" lengthAdjust="spacing" textLength="25" x="519" y="721.5654">37.9</text><text fill="#000000" font-family="sans-serif" font-size="13" lengthAdjust="spacing" textLength="47" x="548" y="721.5654">property</text><line style="stroke:#181818;stroke-width:1.0;" x1="502" x2="549" y1="758.7734" y2="758.7734"/><line style="stroke:#181818;stroke-width:1.0;" x1="549" x2="549" y1="758.7734" y2="771.7734"/><line style="stroke:#181818;stroke-width:1.0;" x1="508" x2="549" y1="771.7734" y2="771.7734"/><polygon fill="#181818" points="518,767.7734,508,771.7734,518,775.7734,514,771.7734" style="stroke:#181818;stroke-width:1.0;"/><text fill="#000000" font-family="sans-serif" font-size="13" font-weight="bold" lengthAdjust="spacing" textLength="32" x="514" y="753.917">37.10</text><text fill="#000000" font-family="sans-serif" font-size="13" lengthAdjust="spacing" textLength="95" x="550" y="753.917">getCurrentDate()</text><line style="stroke:#181818;stroke-width:1.0;stroke-dasharray:2.0,2.0;" x1="507" x2="549" y1="812.125" y2="812.125"/><line style="stroke:#181818;stroke-width:1.0;stroke-dasharray:2.0,2.0;" x1="549" x2="549" y1="812.125" y2="825.125"/><line style="stroke:#181818;stroke-width:1.0;stroke-dasharray:2.0,2.0;" x1="502" x2="549" y1="825.125" y2="825.125"/><polygon fill="#181818" points="512,821.125,502,825.125,512,829.125,508,825.125" style="stroke:#181818;stroke-width:1.0;"/><text fill="#000000" font-family="sans-serif" font-size="13" font-weight="bold" lengthAdjust="spacing" textLength="32" x="514" y="807.2686">37.11</text><text fill="#000000" font-family="sans-serif" font-size="13" lengthAdjust="spacing" textLength="4" x="550" y="807.2686"> </text><polygon fill="#181818" points="11,878.4766,1,882.4766,11,886.4766,7,882.4766" style="stroke:#181818;stroke-width:1.0;"/><line style="stroke:#181818;stroke-width:1.0;stroke-dasharray:2.0,2.0;" x1="5" x2="496" y1="882.4766" y2="882.4766"/><text fill="#000000" font-family="sans-serif" font-size="13" font-weight="bold" lengthAdjust="spacing" textLength="14" x="17" y="877.6201">38</text><text fill="#000000" font-family="sans-serif" font-size="13" lengthAdjust="spacing" textLength="43" x="35" y="877.6201">request</text><!--SRC=[rLR1RgCm4Btp5LPFIKKghVQmgsgxqfOYjLAKP9Fqi58l4vY2LR1TsxJDAX-_1Wo1m9Bcq4EvnFACtyoyDsD7FL4cG49AKivu44kU8j4oGqVL5W714qIuqji4YSH00ukIfeEA8UIlb4Na4HA5ZcEsDGse0AR9cSJd39L-O9VBSdL6G96b__lUNwtRha9oWL9lZU_2BWldnNA-y9VhFuV0YeR80YoWxTg2h-vk_9ddjm_4F5Evyst-MpZUpkzN1qu93q1JpepVr2uBr-dS-xM-cyySnu5CSvQb6vJawpV78VQR_AogEZydboIG21fjpIF-ob3wAT349LMPwwr0Lsc9g6UGeai2ghSk2QdPeu5sYT86mNrWVwdmU8Yb2KoLdd7qa6cKEHeDZ4d4NFD8WeZTChTh32NdgJBdouq5I2DPj39wedBnpM3bZ5s3mjHWkPJ5iA4QDWbE-QC9Rt50nnKGWHTJGUxXFsTK5CU8ofZ_9hZA9BfWYXxNZ108D7qnDTHojxcx-5Ao5qcU2U8LX17Bs9vNI7IBCd954c3XFehzR8nSXwfX6a9K3JKwJdX5jwctZ_2ynXxQnvs4wkhh_ksuL9OywQh36abN7VYEf8dDUZmKPD-Y9aJ5QSS_n87CiS5yZpAG3rFU5qForFFP6XGxmIS9T88-xnkBmvxlDlo0pljxfwTwQ_fGfHjHJfQw9_aZMXVtwP3EnVNw6JKs1u_VZurxhqUAcjVoZJcq5xiVsWismibzKERRrmATAQvW8zHU9gKXwSOWZDeJqdq3Ul6QWCv_MxH4Q9ftkrs9c6VQV5s-rsu_9fD6ilR_Y3E0x_m3]--></g></svg>