<?xml version="1.0" encoding="UTF-8" standalone="no"?><svg xmlns="http://www.w3.org/2000/svg" xmlns:xlink="http://www.w3.org/1999/xlink" contentStyleType="text/css" height="2083px" preserveAspectRatio="none" style="width:1589px;height:2083px;background:#FFFFFF;" version="1.1" viewBox="0 0 1589 2083" width="1589px" zoomAndPan="magnify"><defs/><g><!--class ApplicationSession--><g id="elem_ApplicationSession"><rect codeLine="11" fill="#F1F1F1" height="83.2188" id="ApplicationSession" rx="2.5" ry="2.5" style="stroke:#181818;stroke-width:0.5;" width="177" x="293.5" y="310"/><ellipse cx="320.2" cy="326" fill="#ADD1B2" rx="11" ry="11" style="stroke:#181818;stroke-width:1.0;"/><path d="M322.9656,321.875 Q323.1219,321.6563 323.3094,321.5469 Q323.4969,321.4375 323.7156,321.4375 Q324.0906,321.4375 324.325,321.7031 Q324.5594,321.9531 324.5594,322.5625 L324.5594,324.0156 Q324.5594,324.625 324.325,324.8906 Q324.0906,325.1563 323.7156,325.1563 Q323.3719,325.1563 323.1688,324.9531 Q322.9656,324.7656 322.8563,324.25 Q322.8094,323.8906 322.6219,323.7031 Q322.2938,323.3281 321.6844,323.1094 Q321.075,322.8906 320.45,322.8906 Q319.6844,322.8906 319.0438,323.2188 Q318.4188,323.5469 317.9188,324.2969 Q317.4344,325.0469 317.4344,326.0781 L317.4344,327.1719 Q317.4344,328.4063 318.325,329.2344 Q319.2156,330.0469 320.8094,330.0469 Q321.7469,330.0469 322.4031,329.7969 Q322.7938,329.6406 323.2156,329.2031 Q323.4813,328.9375 323.6219,328.8594 Q323.7781,328.7813 323.9813,328.7813 Q324.3094,328.7813 324.5594,329.0469 Q324.825,329.2969 324.825,329.6406 Q324.825,329.9844 324.4813,330.3906 Q323.9813,330.9688 323.1844,331.2969 Q322.1063,331.75 320.8094,331.75 Q319.2938,331.75 318.0906,331.125 Q317.1063,330.625 316.4188,329.5625 Q315.7313,328.4844 315.7313,327.2031 L315.7313,326.0469 Q315.7313,324.7188 316.3406,323.5781 Q316.9656,322.4219 318.0594,321.8125 Q319.1531,321.1875 320.3875,321.1875 Q321.1219,321.1875 321.7625,321.3594 Q322.4188,321.5156 322.9656,321.875 Z " fill="#000000"/><text fill="#000000" font-family="sans-serif" font-size="14" lengthAdjust="spacing" textLength="119" x="336.8" y="331.7285">ApplicationSession</text><line style="stroke:#181818;stroke-width:0.5;" x1="294.5" x2="469.5" y1="342" y2="342"/><line style="stroke:#181818;stroke-width:0.5;" x1="294.5" x2="469.5" y1="350" y2="350"/><text fill="#000000" font-family="sans-serif" font-size="14" lengthAdjust="spacing" textLength="128" x="299.5" y="368.5332">+static getInstance()</text><text fill="#000000" font-family="sans-serif" font-size="14" lengthAdjust="spacing" textLength="165" x="299.5" y="386.1426">+getCurrentUserSession()</text></g><!--class Property--><g id="elem_Property"><rect codeLine="16" fill="#F1F1F1" height="136.0469" id="Property" rx="2.5" ry="2.5" style="stroke:#181818;stroke-width:0.5;" width="492" x="970" y="1709"/><ellipse cx="1184.75" cy="1725" fill="#ADD1B2" rx="11" ry="11" style="stroke:#181818;stroke-width:1.0;"/><path d="M1187.5156,1720.875 Q1187.6719,1720.6563 1187.8594,1720.5469 Q1188.0469,1720.4375 1188.2656,1720.4375 Q1188.6406,1720.4375 1188.875,1720.7031 Q1189.1094,1720.9531 1189.1094,1721.5625 L1189.1094,1723.0156 Q1189.1094,1723.625 1188.875,1723.8906 Q1188.6406,1724.1563 1188.2656,1724.1563 Q1187.9219,1724.1563 1187.7188,1723.9531 Q1187.5156,1723.7656 1187.4063,1723.25 Q1187.3594,1722.8906 1187.1719,1722.7031 Q1186.8438,1722.3281 1186.2344,1722.1094 Q1185.625,1721.8906 1185,1721.8906 Q1184.2344,1721.8906 1183.5938,1722.2188 Q1182.9688,1722.5469 1182.4688,1723.2969 Q1181.9844,1724.0469 1181.9844,1725.0781 L1181.9844,1726.1719 Q1181.9844,1727.4063 1182.875,1728.2344 Q1183.7656,1729.0469 1185.3594,1729.0469 Q1186.2969,1729.0469 1186.9531,1728.7969 Q1187.3438,1728.6406 1187.7656,1728.2031 Q1188.0313,1727.9375 1188.1719,1727.8594 Q1188.3281,1727.7813 1188.5313,1727.7813 Q1188.8594,1727.7813 1189.1094,1728.0469 Q1189.375,1728.2969 1189.375,1728.6406 Q1189.375,1728.9844 1189.0313,1729.3906 Q1188.5313,1729.9688 1187.7344,1730.2969 Q1186.6563,1730.75 1185.3594,1730.75 Q1183.8438,1730.75 1182.6406,1730.125 Q1181.6563,1729.625 1180.9688,1728.5625 Q1180.2813,1727.4844 1180.2813,1726.2031 L1180.2813,1725.0469 Q1180.2813,1723.7188 1180.8906,1722.5781 Q1181.5156,1721.4219 1182.6094,1720.8125 Q1183.7031,1720.1875 1184.9375,1720.1875 Q1185.6719,1720.1875 1186.3125,1720.3594 Q1186.9688,1720.5156 1187.5156,1720.875 Z " fill="#000000"/><text fill="#000000" font-family="sans-serif" font-size="14" lengthAdjust="spacing" textLength="54" x="1205.25" y="1730.7285">Property</text><line style="stroke:#181818;stroke-width:0.5;" x1="971" x2="1461" y1="1741" y2="1741"/><text fill="#000000" font-family="sans-serif" font-size="14" lengthAdjust="spacing" textLength="174" x="976" y="1759.5332">-Double distanceCityCentre</text><line style="stroke:#181818;stroke-width:0.5;" x1="971" x2="1461" y1="1766.6094" y2="1766.6094"/><text fill="#000000" font-family="sans-serif" font-size="14" lengthAdjust="spacing" textLength="349" x="976" y="1785.1426">+Property(propertyType,streetName, city, district, state,</text><text fill="#000000" font-family="sans-serif" font-size="14" lengthAdjust="spacing" textLength="412" x="976" y="1802.752">zipCode, distanceCityCentre, price, photograph,numberBedroom,</text><text fill="#000000" font-family="sans-serif" font-size="14" lengthAdjust="spacing" textLength="480" x="976" y="1820.3613">numberParkingSpace,existenceBasement,inhabitableLoft, numberBathroom,</text><text fill="#000000" font-family="sans-serif" font-size="14" lengthAdjust="spacing" textLength="218" x="980" y="1837.9707">availableEquipment, sunExposure)</text></g><!--class Location--><g id="elem_Location"><rect codeLine="21" fill="#F1F1F1" height="153.6563" id="Location" rx="2.5" ry="2.5" style="stroke:#181818;stroke-width:0.5;" width="328" x="1077" y="1923"/><ellipse cx="1209.75" cy="1939" fill="#ADD1B2" rx="11" ry="11" style="stroke:#181818;stroke-width:1.0;"/><path d="M1212.5156,1934.875 Q1212.6719,1934.6563 1212.8594,1934.5469 Q1213.0469,1934.4375 1213.2656,1934.4375 Q1213.6406,1934.4375 1213.875,1934.7031 Q1214.1094,1934.9531 1214.1094,1935.5625 L1214.1094,1937.0156 Q1214.1094,1937.625 1213.875,1937.8906 Q1213.6406,1938.1563 1213.2656,1938.1563 Q1212.9219,1938.1563 1212.7188,1937.9531 Q1212.5156,1937.7656 1212.4063,1937.25 Q1212.3594,1936.8906 1212.1719,1936.7031 Q1211.8438,1936.3281 1211.2344,1936.1094 Q1210.625,1935.8906 1210,1935.8906 Q1209.2344,1935.8906 1208.5938,1936.2188 Q1207.9688,1936.5469 1207.4688,1937.2969 Q1206.9844,1938.0469 1206.9844,1939.0781 L1206.9844,1940.1719 Q1206.9844,1941.4063 1207.875,1942.2344 Q1208.7656,1943.0469 1210.3594,1943.0469 Q1211.2969,1943.0469 1211.9531,1942.7969 Q1212.3438,1942.6406 1212.7656,1942.2031 Q1213.0313,1941.9375 1213.1719,1941.8594 Q1213.3281,1941.7813 1213.5313,1941.7813 Q1213.8594,1941.7813 1214.1094,1942.0469 Q1214.375,1942.2969 1214.375,1942.6406 Q1214.375,1942.9844 1214.0313,1943.3906 Q1213.5313,1943.9688 1212.7344,1944.2969 Q1211.6563,1944.75 1210.3594,1944.75 Q1208.8438,1944.75 1207.6406,1944.125 Q1206.6563,1943.625 1205.9688,1942.5625 Q1205.2813,1941.4844 1205.2813,1940.2031 L1205.2813,1939.0469 Q1205.2813,1937.7188 1205.8906,1936.5781 Q1206.5156,1935.4219 1207.6094,1934.8125 Q1208.7031,1934.1875 1209.9375,1934.1875 Q1210.6719,1934.1875 1211.3125,1934.3594 Q1211.9688,1934.5156 1212.5156,1934.875 Z " fill="#000000"/><text fill="#000000" font-family="sans-serif" font-size="14" lengthAdjust="spacing" textLength="54" x="1230.25" y="1944.7285">Location</text><line style="stroke:#181818;stroke-width:0.5;" x1="1078" x2="1404" y1="1955" y2="1955"/><text fill="#000000" font-family="sans-serif" font-size="14" lengthAdjust="spacing" textLength="118" x="1083" y="1973.5332">-String streetName</text><text fill="#000000" font-family="sans-serif" font-size="14" lengthAdjust="spacing" textLength="67" x="1083" y="1991.1426">-String city</text><text fill="#000000" font-family="sans-serif" font-size="14" lengthAdjust="spacing" textLength="87" x="1083" y="2008.752">-String district</text><text fill="#000000" font-family="sans-serif" font-size="14" lengthAdjust="spacing" textLength="77" x="1083" y="2026.3613">-String state</text><text fill="#000000" font-family="sans-serif" font-size="14" lengthAdjust="spacing" textLength="104" x="1083" y="2043.9707">-Integer zipCode</text><line style="stroke:#181818;stroke-width:0.5;" x1="1078" x2="1404" y1="2051.0469" y2="2051.0469"/><text fill="#000000" font-family="sans-serif" font-size="14" lengthAdjust="spacing" textLength="316" x="1083" y="2069.5801">+Location(streetName, city, district, state,zipCode)</text></g><!--class Photograph--><g id="elem_Photograph"><rect codeLine="30" fill="#F1F1F1" height="83.2188" id="Photograph" rx="2.5" ry="2.5" style="stroke:#181818;stroke-width:0.5;" width="142" x="1440" y="1958.5"/><ellipse cx="1471.2" cy="1974.5" fill="#ADD1B2" rx="11" ry="11" style="stroke:#181818;stroke-width:1.0;"/><path d="M1473.9656,1970.375 Q1474.1219,1970.1563 1474.3094,1970.0469 Q1474.4969,1969.9375 1474.7156,1969.9375 Q1475.0906,1969.9375 1475.325,1970.2031 Q1475.5594,1970.4531 1475.5594,1971.0625 L1475.5594,1972.5156 Q1475.5594,1973.125 1475.325,1973.3906 Q1475.0906,1973.6563 1474.7156,1973.6563 Q1474.3719,1973.6563 1474.1688,1973.4531 Q1473.9656,1973.2656 1473.8563,1972.75 Q1473.8094,1972.3906 1473.6219,1972.2031 Q1473.2938,1971.8281 1472.6844,1971.6094 Q1472.075,1971.3906 1471.45,1971.3906 Q1470.6844,1971.3906 1470.0438,1971.7188 Q1469.4188,1972.0469 1468.9188,1972.7969 Q1468.4344,1973.5469 1468.4344,1974.5781 L1468.4344,1975.6719 Q1468.4344,1976.9063 1469.325,1977.7344 Q1470.2156,1978.5469 1471.8094,1978.5469 Q1472.7469,1978.5469 1473.4031,1978.2969 Q1473.7938,1978.1406 1474.2156,1977.7031 Q1474.4813,1977.4375 1474.6219,1977.3594 Q1474.7781,1977.2813 1474.9813,1977.2813 Q1475.3094,1977.2813 1475.5594,1977.5469 Q1475.825,1977.7969 1475.825,1978.1406 Q1475.825,1978.4844 1475.4813,1978.8906 Q1474.9813,1979.4688 1474.1844,1979.7969 Q1473.1063,1980.25 1471.8094,1980.25 Q1470.2938,1980.25 1469.0906,1979.625 Q1468.1063,1979.125 1467.4188,1978.0625 Q1466.7313,1976.9844 1466.7313,1975.7031 L1466.7313,1974.5469 Q1466.7313,1973.2188 1467.3406,1972.0781 Q1467.9656,1970.9219 1469.0594,1970.3125 Q1470.1531,1969.6875 1471.3875,1969.6875 Q1472.1219,1969.6875 1472.7625,1969.8594 Q1473.4188,1970.0156 1473.9656,1970.375 Z " fill="#000000"/><text fill="#000000" font-family="sans-serif" font-size="14" lengthAdjust="spacing" textLength="74" x="1488.8" y="1980.2285">Photograph</text><line style="stroke:#181818;stroke-width:0.5;" x1="1441" x2="1581" y1="1990.5" y2="1990.5"/><text fill="#000000" font-family="sans-serif" font-size="14" lengthAdjust="spacing" textLength="100" x="1446" y="2009.0332">-List&lt;String&gt; uri</text><line style="stroke:#181818;stroke-width:0.5;" x1="1441" x2="1581" y1="2016.1094" y2="2016.1094"/><text fill="#000000" font-family="sans-serif" font-size="14" lengthAdjust="spacing" textLength="130" x="1446" y="2034.6426">+Photograph(uriList)</text></g><!--class AvailableEquipment--><g id="elem_AvailableEquipment"><rect codeLine="35" fill="#F1F1F1" height="83.2188" id="AvailableEquipment" rx="2.5" ry="2.5" style="stroke:#181818;stroke-width:0.5;" width="320" x="722" y="1958.5"/><ellipse cx="815.75" cy="1974.5" fill="#ADD1B2" rx="11" ry="11" style="stroke:#181818;stroke-width:1.0;"/><path d="M818.5156,1970.375 Q818.6719,1970.1563 818.8594,1970.0469 Q819.0469,1969.9375 819.2656,1969.9375 Q819.6406,1969.9375 819.875,1970.2031 Q820.1094,1970.4531 820.1094,1971.0625 L820.1094,1972.5156 Q820.1094,1973.125 819.875,1973.3906 Q819.6406,1973.6563 819.2656,1973.6563 Q818.9219,1973.6563 818.7188,1973.4531 Q818.5156,1973.2656 818.4063,1972.75 Q818.3594,1972.3906 818.1719,1972.2031 Q817.8438,1971.8281 817.2344,1971.6094 Q816.625,1971.3906 816,1971.3906 Q815.2344,1971.3906 814.5938,1971.7188 Q813.9688,1972.0469 813.4688,1972.7969 Q812.9844,1973.5469 812.9844,1974.5781 L812.9844,1975.6719 Q812.9844,1976.9063 813.875,1977.7344 Q814.7656,1978.5469 816.3594,1978.5469 Q817.2969,1978.5469 817.9531,1978.2969 Q818.3438,1978.1406 818.7656,1977.7031 Q819.0313,1977.4375 819.1719,1977.3594 Q819.3281,1977.2813 819.5313,1977.2813 Q819.8594,1977.2813 820.1094,1977.5469 Q820.375,1977.7969 820.375,1978.1406 Q820.375,1978.4844 820.0313,1978.8906 Q819.5313,1979.4688 818.7344,1979.7969 Q817.6563,1980.25 816.3594,1980.25 Q814.8438,1980.25 813.6406,1979.625 Q812.6563,1979.125 811.9688,1978.0625 Q811.2813,1976.9844 811.2813,1975.7031 L811.2813,1974.5469 Q811.2813,1973.2188 811.8906,1972.0781 Q812.5156,1970.9219 813.6094,1970.3125 Q814.7031,1969.6875 815.9375,1969.6875 Q816.6719,1969.6875 817.3125,1969.8594 Q817.9688,1970.0156 818.5156,1970.375 Z " fill="#000000"/><text fill="#000000" font-family="sans-serif" font-size="14" lengthAdjust="spacing" textLength="124" x="836.25" y="1980.2285">AvailableEquipment</text><line style="stroke:#181818;stroke-width:0.5;" x1="723" x2="1041" y1="1990.5" y2="1990.5"/><text fill="#000000" font-family="sans-serif" font-size="14" lengthAdjust="spacing" textLength="153" x="728" y="2009.0332">-List&lt;String&gt; description</text><line style="stroke:#181818;stroke-width:0.5;" x1="723" x2="1041" y1="2016.1094" y2="2016.1094"/><text fill="#000000" font-family="sans-serif" font-size="14" lengthAdjust="spacing" textLength="308" x="728" y="2034.6426">-addAvailableEquipment(availableEquipmentList)</text></g><!--class UserSession--><g id="elem_UserSession"><rect codeLine="41" fill="#F1F1F1" height="65.6094" id="UserSession" rx="2.5" ry="2.5" style="stroke:#181818;stroke-width:0.5;" width="113" x="229.5" y="489"/><ellipse cx="245.4" cy="505" fill="#ADD1B2" rx="11" ry="11" style="stroke:#181818;stroke-width:1.0;"/><path d="M248.1656,500.875 Q248.3219,500.6563 248.5094,500.5469 Q248.6969,500.4375 248.9156,500.4375 Q249.2906,500.4375 249.525,500.7031 Q249.7594,500.9531 249.7594,501.5625 L249.7594,503.0156 Q249.7594,503.625 249.525,503.8906 Q249.2906,504.1563 248.9156,504.1563 Q248.5719,504.1563 248.3688,503.9531 Q248.1656,503.7656 248.0563,503.25 Q248.0094,502.8906 247.8219,502.7031 Q247.4938,502.3281 246.8844,502.1094 Q246.275,501.8906 245.65,501.8906 Q244.8844,501.8906 244.2438,502.2188 Q243.6188,502.5469 243.1188,503.2969 Q242.6344,504.0469 242.6344,505.0781 L242.6344,506.1719 Q242.6344,507.4063 243.525,508.2344 Q244.4156,509.0469 246.0094,509.0469 Q246.9469,509.0469 247.6031,508.7969 Q247.9938,508.6406 248.4156,508.2031 Q248.6813,507.9375 248.8219,507.8594 Q248.9781,507.7813 249.1813,507.7813 Q249.5094,507.7813 249.7594,508.0469 Q250.025,508.2969 250.025,508.6406 Q250.025,508.9844 249.6813,509.3906 Q249.1813,509.9688 248.3844,510.2969 Q247.3063,510.75 246.0094,510.75 Q244.4938,510.75 243.2906,510.125 Q242.3063,509.625 241.6188,508.5625 Q240.9313,507.4844 240.9313,506.2031 L240.9313,505.0469 Q240.9313,503.7188 241.5406,502.5781 Q242.1656,501.4219 243.2594,500.8125 Q244.3531,500.1875 245.5875,500.1875 Q246.3219,500.1875 246.9625,500.3594 Q247.6188,500.5156 248.1656,500.875 Z " fill="#000000"/><text fill="#000000" font-family="sans-serif" font-size="14" lengthAdjust="spacing" textLength="79" x="259.6" y="510.7285">UserSession</text><line style="stroke:#181818;stroke-width:0.5;" x1="230.5" x2="341.5" y1="521" y2="521"/><line style="stroke:#181818;stroke-width:0.5;" x1="230.5" x2="341.5" y1="529" y2="529"/><text fill="#000000" font-family="sans-serif" font-size="14" lengthAdjust="spacing" textLength="101" x="235.5" y="547.5332">+getUserEmail()</text></g><!--class Agent--><g id="elem_Agent"><rect codeLine="46" fill="#F1F1F1" height="136.0469" id="Agent" rx="2.5" ry="2.5" style="stroke:#181818;stroke-width:0.5;" width="200" x="128" y="1932"/><ellipse cx="205.25" cy="1948" fill="#ADD1B2" rx="11" ry="11" style="stroke:#181818;stroke-width:1.0;"/><path d="M208.0156,1943.875 Q208.1719,1943.6563 208.3594,1943.5469 Q208.5469,1943.4375 208.7656,1943.4375 Q209.1406,1943.4375 209.375,1943.7031 Q209.6094,1943.9531 209.6094,1944.5625 L209.6094,1946.0156 Q209.6094,1946.625 209.375,1946.8906 Q209.1406,1947.1563 208.7656,1947.1563 Q208.4219,1947.1563 208.2188,1946.9531 Q208.0156,1946.7656 207.9063,1946.25 Q207.8594,1945.8906 207.6719,1945.7031 Q207.3438,1945.3281 206.7344,1945.1094 Q206.125,1944.8906 205.5,1944.8906 Q204.7344,1944.8906 204.0938,1945.2188 Q203.4688,1945.5469 202.9688,1946.2969 Q202.4844,1947.0469 202.4844,1948.0781 L202.4844,1949.1719 Q202.4844,1950.4063 203.375,1951.2344 Q204.2656,1952.0469 205.8594,1952.0469 Q206.7969,1952.0469 207.4531,1951.7969 Q207.8438,1951.6406 208.2656,1951.2031 Q208.5313,1950.9375 208.6719,1950.8594 Q208.8281,1950.7813 209.0313,1950.7813 Q209.3594,1950.7813 209.6094,1951.0469 Q209.875,1951.2969 209.875,1951.6406 Q209.875,1951.9844 209.5313,1952.3906 Q209.0313,1952.9688 208.2344,1953.2969 Q207.1563,1953.75 205.8594,1953.75 Q204.3438,1953.75 203.1406,1953.125 Q202.1563,1952.625 201.4688,1951.5625 Q200.7813,1950.4844 200.7813,1949.2031 L200.7813,1948.0469 Q200.7813,1946.7188 201.3906,1945.5781 Q202.0156,1944.4219 203.1094,1943.8125 Q204.2031,1943.1875 205.4375,1943.1875 Q206.1719,1943.1875 206.8125,1943.3594 Q207.4688,1943.5156 208.0156,1943.875 Z " fill="#000000"/><text fill="#000000" font-family="sans-serif" font-size="14" lengthAdjust="spacing" textLength="37" x="225.75" y="1953.7285">Agent</text><line style="stroke:#181818;stroke-width:0.5;" x1="129" x2="327" y1="1964" y2="1964"/><text fill="#000000" font-family="sans-serif" font-size="14" lengthAdjust="spacing" textLength="81" x="134" y="1982.5332">-String name</text><text fill="#000000" font-family="sans-serif" font-size="14" lengthAdjust="spacing" textLength="188" x="134" y="2000.1426">-Integer passportCardNumber</text><text fill="#000000" font-family="sans-serif" font-size="14" lengthAdjust="spacing" textLength="120" x="134" y="2017.752">-Integer taxNumber</text><text fill="#000000" font-family="sans-serif" font-size="14" lengthAdjust="spacing" textLength="131" x="134" y="2035.3613">-String emailAddress</text><text fill="#000000" font-family="sans-serif" font-size="14" lengthAdjust="spacing" textLength="142" x="134" y="2052.9707">-Integer phoneNumber</text><line style="stroke:#181818;stroke-width:0.5;" x1="129" x2="327" y1="2060.0469" y2="2060.0469"/></g><!--class Announcement--><g id="elem_Announcement"><rect codeLine="54" fill="#F1F1F1" height="100.8281" id="Announcement" rx="2.5" ry="2.5" style="stroke:#181818;stroke-width:0.5;" width="447" x="286.5" y="1726.5"/><ellipse cx="458.25" cy="1742.5" fill="#ADD1B2" rx="11" ry="11" style="stroke:#181818;stroke-width:1.0;"/><path d="M461.0156,1738.375 Q461.1719,1738.1563 461.3594,1738.0469 Q461.5469,1737.9375 461.7656,1737.9375 Q462.1406,1737.9375 462.375,1738.2031 Q462.6094,1738.4531 462.6094,1739.0625 L462.6094,1740.5156 Q462.6094,1741.125 462.375,1741.3906 Q462.1406,1741.6563 461.7656,1741.6563 Q461.4219,1741.6563 461.2188,1741.4531 Q461.0156,1741.2656 460.9063,1740.75 Q460.8594,1740.3906 460.6719,1740.2031 Q460.3438,1739.8281 459.7344,1739.6094 Q459.125,1739.3906 458.5,1739.3906 Q457.7344,1739.3906 457.0938,1739.7188 Q456.4688,1740.0469 455.9688,1740.7969 Q455.4844,1741.5469 455.4844,1742.5781 L455.4844,1743.6719 Q455.4844,1744.9063 456.375,1745.7344 Q457.2656,1746.5469 458.8594,1746.5469 Q459.7969,1746.5469 460.4531,1746.2969 Q460.8438,1746.1406 461.2656,1745.7031 Q461.5313,1745.4375 461.6719,1745.3594 Q461.8281,1745.2813 462.0313,1745.2813 Q462.3594,1745.2813 462.6094,1745.5469 Q462.875,1745.7969 462.875,1746.1406 Q462.875,1746.4844 462.5313,1746.8906 Q462.0313,1747.4688 461.2344,1747.7969 Q460.1563,1748.25 458.8594,1748.25 Q457.3438,1748.25 456.1406,1747.625 Q455.1563,1747.125 454.4688,1746.0625 Q453.7813,1744.9844 453.7813,1743.7031 L453.7813,1742.5469 Q453.7813,1741.2188 454.3906,1740.0781 Q455.0156,1738.9219 456.1094,1738.3125 Q457.2031,1737.6875 458.4375,1737.6875 Q459.1719,1737.6875 459.8125,1737.8594 Q460.4688,1738.0156 461.0156,1738.375 Z " fill="#000000"/><text fill="#000000" font-family="sans-serif" font-size="14" lengthAdjust="spacing" textLength="95" x="478.75" y="1748.2285">Announcement</text><line style="stroke:#181818;stroke-width:0.5;" x1="287.5" x2="732.5" y1="1758.5" y2="1758.5"/><text fill="#000000" font-family="sans-serif" font-size="14" lengthAdjust="spacing" textLength="149" x="292.5" y="1777.0332">-String acceptanceDate</text><line style="stroke:#181818;stroke-width:0.5;" x1="287.5" x2="732.5" y1="1784.1094" y2="1784.1094"/><text fill="#000000" font-family="sans-serif" font-size="14" lengthAdjust="spacing" textLength="113" x="292.5" y="1802.6426">-getCurrentDate()</text><text fill="#000000" font-family="sans-serif" font-size="14" lengthAdjust="spacing" textLength="435" x="292.5" y="1820.252">+Announcement(agent, commissionType, commissionValue, request)</text></g><!--class Commission--><g id="elem_Commission"><rect codeLine="59" fill="#F1F1F1" height="83.2188" id="Commission" rx="2.5" ry="2.5" style="stroke:#181818;stroke-width:0.5;" width="324" x="363" y="1958.5"/><ellipse cx="482.75" cy="1974.5" fill="#ADD1B2" rx="11" ry="11" style="stroke:#181818;stroke-width:1.0;"/><path d="M485.5156,1970.375 Q485.6719,1970.1563 485.8594,1970.0469 Q486.0469,1969.9375 486.2656,1969.9375 Q486.6406,1969.9375 486.875,1970.2031 Q487.1094,1970.4531 487.1094,1971.0625 L487.1094,1972.5156 Q487.1094,1973.125 486.875,1973.3906 Q486.6406,1973.6563 486.2656,1973.6563 Q485.9219,1973.6563 485.7188,1973.4531 Q485.5156,1973.2656 485.4063,1972.75 Q485.3594,1972.3906 485.1719,1972.2031 Q484.8438,1971.8281 484.2344,1971.6094 Q483.625,1971.3906 483,1971.3906 Q482.2344,1971.3906 481.5938,1971.7188 Q480.9688,1972.0469 480.4688,1972.7969 Q479.9844,1973.5469 479.9844,1974.5781 L479.9844,1975.6719 Q479.9844,1976.9063 480.875,1977.7344 Q481.7656,1978.5469 483.3594,1978.5469 Q484.2969,1978.5469 484.9531,1978.2969 Q485.3438,1978.1406 485.7656,1977.7031 Q486.0313,1977.4375 486.1719,1977.3594 Q486.3281,1977.2813 486.5313,1977.2813 Q486.8594,1977.2813 487.1094,1977.5469 Q487.375,1977.7969 487.375,1978.1406 Q487.375,1978.4844 487.0313,1978.8906 Q486.5313,1979.4688 485.7344,1979.7969 Q484.6563,1980.25 483.3594,1980.25 Q481.8438,1980.25 480.6406,1979.625 Q479.6563,1979.125 478.9688,1978.0625 Q478.2813,1976.9844 478.2813,1975.7031 L478.2813,1974.5469 Q478.2813,1973.2188 478.8906,1972.0781 Q479.5156,1970.9219 480.6094,1970.3125 Q481.7031,1969.6875 482.9375,1969.6875 Q483.6719,1969.6875 484.3125,1969.8594 Q484.9688,1970.0156 485.5156,1970.375 Z " fill="#000000"/><text fill="#000000" font-family="sans-serif" font-size="14" lengthAdjust="spacing" textLength="76" x="503.25" y="1980.2285">Commission</text><line style="stroke:#181818;stroke-width:0.5;" x1="364" x2="686" y1="1990.5" y2="1990.5"/><text fill="#000000" font-family="sans-serif" font-size="14" lengthAdjust="spacing" textLength="161" x="369" y="2009.0332">-double commissionValue</text><line style="stroke:#181818;stroke-width:0.5;" x1="364" x2="686" y1="2016.1094" y2="2016.1094"/><text fill="#000000" font-family="sans-serif" font-size="14" lengthAdjust="spacing" textLength="312" x="369" y="2034.6426">+Commission(commissionValue,commissionType)</text></g><!--class Request--><g id="elem_Request"><rect codeLine="63" fill="#F1F1F1" height="153.6563" id="Request" rx="2.5" ry="2.5" style="stroke:#181818;stroke-width:0.5;" width="492" x="352" y="1233"/><ellipse cx="567.25" cy="1249" fill="#ADD1B2" rx="11" ry="11" style="stroke:#181818;stroke-width:1.0;"/><path d="M570.0156,1244.875 Q570.1719,1244.6563 570.3594,1244.5469 Q570.5469,1244.4375 570.7656,1244.4375 Q571.1406,1244.4375 571.375,1244.7031 Q571.6094,1244.9531 571.6094,1245.5625 L571.6094,1247.0156 Q571.6094,1247.625 571.375,1247.8906 Q571.1406,1248.1563 570.7656,1248.1563 Q570.4219,1248.1563 570.2188,1247.9531 Q570.0156,1247.7656 569.9063,1247.25 Q569.8594,1246.8906 569.6719,1246.7031 Q569.3438,1246.3281 568.7344,1246.1094 Q568.125,1245.8906 567.5,1245.8906 Q566.7344,1245.8906 566.0938,1246.2188 Q565.4688,1246.5469 564.9688,1247.2969 Q564.4844,1248.0469 564.4844,1249.0781 L564.4844,1250.1719 Q564.4844,1251.4063 565.375,1252.2344 Q566.2656,1253.0469 567.8594,1253.0469 Q568.7969,1253.0469 569.4531,1252.7969 Q569.8438,1252.6406 570.2656,1252.2031 Q570.5313,1251.9375 570.6719,1251.8594 Q570.8281,1251.7813 571.0313,1251.7813 Q571.3594,1251.7813 571.6094,1252.0469 Q571.875,1252.2969 571.875,1252.6406 Q571.875,1252.9844 571.5313,1253.3906 Q571.0313,1253.9688 570.2344,1254.2969 Q569.1563,1254.75 567.8594,1254.75 Q566.3438,1254.75 565.1406,1254.125 Q564.1563,1253.625 563.4688,1252.5625 Q562.7813,1251.4844 562.7813,1250.2031 L562.7813,1249.0469 Q562.7813,1247.7188 563.3906,1246.5781 Q564.0156,1245.4219 565.1094,1244.8125 Q566.2031,1244.1875 567.4375,1244.1875 Q568.1719,1244.1875 568.8125,1244.3594 Q569.4688,1244.5156 570.0156,1244.875 Z " fill="#000000"/><text fill="#000000" font-family="sans-serif" font-size="14" lengthAdjust="spacing" textLength="53" x="587.75" y="1254.7285">Request</text><line style="stroke:#181818;stroke-width:0.5;" x1="353" x2="843" y1="1265" y2="1265"/><text fill="#000000" font-family="sans-serif" font-size="14" lengthAdjust="spacing" textLength="124" x="358" y="1283.5332">-String requestDate</text><text fill="#000000" font-family="sans-serif" font-size="14" lengthAdjust="spacing" textLength="118" x="358" y="1301.1426">-String ownerEmail</text><line style="stroke:#181818;stroke-width:0.5;" x1="353" x2="843" y1="1308.2188" y2="1308.2188"/><text fill="#000000" font-family="sans-serif" font-size="14" lengthAdjust="spacing" textLength="428" x="358" y="1326.752">+Request(ownerEmail, propertyType,streetName, city, district, state,</text><text fill="#000000" font-family="sans-serif" font-size="14" lengthAdjust="spacing" textLength="412" x="358" y="1344.3613">zipCode, distanceCityCentre, price, photograph,numberBedroom,</text><text fill="#000000" font-family="sans-serif" font-size="14" lengthAdjust="spacing" textLength="480" x="358" y="1361.9707">numberParkingSpace,existenceBasement,inhabitableLoft, numberBathroom,</text><text fill="#000000" font-family="sans-serif" font-size="14" lengthAdjust="spacing" textLength="218" x="362" y="1379.5801">availableEquipment, sunExposure)</text></g><!--class Agency--><g id="elem_Agency"><rect codeLine="70" fill="#F1F1F1" height="294.5313" id="Agency" rx="2.5" ry="2.5" style="stroke:#181818;stroke-width:0.5;" width="708" x="7" y="795"/><ellipse cx="333.25" cy="811" fill="#ADD1B2" rx="11" ry="11" style="stroke:#181818;stroke-width:1.0;"/><path d="M336.0156,806.875 Q336.1719,806.6563 336.3594,806.5469 Q336.5469,806.4375 336.7656,806.4375 Q337.1406,806.4375 337.375,806.7031 Q337.6094,806.9531 337.6094,807.5625 L337.6094,809.0156 Q337.6094,809.625 337.375,809.8906 Q337.1406,810.1563 336.7656,810.1563 Q336.4219,810.1563 336.2188,809.9531 Q336.0156,809.7656 335.9063,809.25 Q335.8594,808.8906 335.6719,808.7031 Q335.3438,808.3281 334.7344,808.1094 Q334.125,807.8906 333.5,807.8906 Q332.7344,807.8906 332.0938,808.2188 Q331.4688,808.5469 330.9688,809.2969 Q330.4844,810.0469 330.4844,811.0781 L330.4844,812.1719 Q330.4844,813.4063 331.375,814.2344 Q332.2656,815.0469 333.8594,815.0469 Q334.7969,815.0469 335.4531,814.7969 Q335.8438,814.6406 336.2656,814.2031 Q336.5313,813.9375 336.6719,813.8594 Q336.8281,813.7813 337.0313,813.7813 Q337.3594,813.7813 337.6094,814.0469 Q337.875,814.2969 337.875,814.6406 Q337.875,814.9844 337.5313,815.3906 Q337.0313,815.9688 336.2344,816.2969 Q335.1563,816.75 333.8594,816.75 Q332.3438,816.75 331.1406,816.125 Q330.1563,815.625 329.4688,814.5625 Q328.7813,813.4844 328.7813,812.2031 L328.7813,811.0469 Q328.7813,809.7188 329.3906,808.5781 Q330.0156,807.4219 331.1094,806.8125 Q332.2031,806.1875 333.4375,806.1875 Q334.1719,806.1875 334.8125,806.3594 Q335.4688,806.5156 336.0156,806.875 Z " fill="#000000"/><text fill="#000000" font-family="sans-serif" font-size="14" lengthAdjust="spacing" textLength="47" x="353.75" y="816.7285">Agency</text><line style="stroke:#181818;stroke-width:0.5;" x1="8" x2="714" y1="827" y2="827"/><text fill="#000000" font-family="sans-serif" font-size="14" lengthAdjust="spacing" textLength="64" x="13" y="845.5332">-integer id</text><text fill="#000000" font-family="sans-serif" font-size="14" lengthAdjust="spacing" textLength="119" x="13" y="863.1426">-String designation</text><text fill="#000000" font-family="sans-serif" font-size="14" lengthAdjust="spacing" textLength="131" x="13" y="880.752">-String emailAddress</text><text fill="#000000" font-family="sans-serif" font-size="14" lengthAdjust="spacing" textLength="135" x="13" y="898.3613">-String phoneNumber</text><line style="stroke:#181818;stroke-width:0.5;" x1="8" x2="714" y1="905.4375" y2="905.4375"/><text fill="#000000" font-family="sans-serif" font-size="14" lengthAdjust="spacing" textLength="228" x="13" y="923.9707">-addAnnouncement(announcement)</text><text fill="#000000" font-family="sans-serif" font-size="14" lengthAdjust="spacing" textLength="253" x="13" y="941.5801">-validateAnnouncement(announcement)</text><text fill="#000000" font-family="sans-serif" font-size="14" lengthAdjust="spacing" textLength="155" x="13" y="959.1895">-getAgentByEmail(email)</text><text fill="#000000" font-family="sans-serif" font-size="14" lengthAdjust="spacing" textLength="140" x="13" y="976.7988">-addRequest(request)</text><text fill="#000000" font-family="sans-serif" font-size="14" lengthAdjust="spacing" textLength="165" x="13" y="994.4082">-validateRequest(request)</text><text fill="#000000" font-family="sans-serif" font-size="14" lengthAdjust="spacing" textLength="169" x="13" y="1012.0176">+anyAgentHasEmail(email)</text><text fill="#000000" font-family="sans-serif" font-size="14" lengthAdjust="spacing" textLength="480" x="13" y="1029.627">+publishAnnouncement(agent, commissionType, commissionValue, request)</text><text fill="#000000" font-family="sans-serif" font-size="14" lengthAdjust="spacing" textLength="696" x="13" y="1047.2363">+createRequest(ownerEmail, propertyType, streetName, city, district, state, zipCode, area, distanceCityCentre,</text><text fill="#000000" font-family="sans-serif" font-size="14" lengthAdjust="spacing" textLength="592" x="17" y="1064.8457">price, photograph,numberBedroom,numberParkingSpace, existenceBasement,inhabitableLoft,</text><text fill="#000000" font-family="sans-serif" font-size="14" lengthAdjust="spacing" textLength="335" x="13" y="1082.4551">numberBathroom, availableEquipment, sunExposure)</text></g><!--class CommissionTypeRepository--><g id="elem_CommissionTypeRepository"><rect codeLine="86" fill="#F1F1F1" height="83.2188" id="CommissionTypeRepository" rx="2.5" ry="2.5" style="stroke:#181818;stroke-width:0.5;" width="322" x="643" y="651"/><ellipse cx="711.75" cy="667" fill="#ADD1B2" rx="11" ry="11" style="stroke:#181818;stroke-width:1.0;"/><path d="M714.5156,662.875 Q714.6719,662.6563 714.8594,662.5469 Q715.0469,662.4375 715.2656,662.4375 Q715.6406,662.4375 715.875,662.7031 Q716.1094,662.9531 716.1094,663.5625 L716.1094,665.0156 Q716.1094,665.625 715.875,665.8906 Q715.6406,666.1563 715.2656,666.1563 Q714.9219,666.1563 714.7188,665.9531 Q714.5156,665.7656 714.4063,665.25 Q714.3594,664.8906 714.1719,664.7031 Q713.8438,664.3281 713.2344,664.1094 Q712.625,663.8906 712,663.8906 Q711.2344,663.8906 710.5938,664.2188 Q709.9688,664.5469 709.4688,665.2969 Q708.9844,666.0469 708.9844,667.0781 L708.9844,668.1719 Q708.9844,669.4063 709.875,670.2344 Q710.7656,671.0469 712.3594,671.0469 Q713.2969,671.0469 713.9531,670.7969 Q714.3438,670.6406 714.7656,670.2031 Q715.0313,669.9375 715.1719,669.8594 Q715.3281,669.7813 715.5313,669.7813 Q715.8594,669.7813 716.1094,670.0469 Q716.375,670.2969 716.375,670.6406 Q716.375,670.9844 716.0313,671.3906 Q715.5313,671.9688 714.7344,672.2969 Q713.6563,672.75 712.3594,672.75 Q710.8438,672.75 709.6406,672.125 Q708.6563,671.625 707.9688,670.5625 Q707.2813,669.4844 707.2813,668.2031 L707.2813,667.0469 Q707.2813,665.7188 707.8906,664.5781 Q708.5156,663.4219 709.6094,662.8125 Q710.7031,662.1875 711.9375,662.1875 Q712.6719,662.1875 713.3125,662.3594 Q713.9688,662.5156 714.5156,662.875 Z " fill="#000000"/><text fill="#000000" font-family="sans-serif" font-size="14" lengthAdjust="spacing" textLength="176" x="732.25" y="672.7285">CommissionTypeRepository</text><line style="stroke:#181818;stroke-width:0.5;" x1="644" x2="964" y1="683" y2="683"/><line style="stroke:#181818;stroke-width:0.5;" x1="644" x2="964" y1="691" y2="691"/><text fill="#000000" font-family="sans-serif" font-size="14" lengthAdjust="spacing" textLength="168" x="649" y="709.5332">+getCommissionTypeList()</text><text fill="#000000" font-family="sans-serif" font-size="14" lengthAdjust="spacing" textLength="310" x="649" y="727.1426">+getCommissionTypeByDesignation(designation)</text></g><!--class PropertyTypeRepository--><g id="elem_PropertyTypeRepository"><rect codeLine="90" fill="#F1F1F1" height="83.2188" id="PropertyTypeRepository" rx="2.5" ry="2.5" style="stroke:#181818;stroke-width:0.5;" width="300" x="1000" y="651"/><ellipse cx="1068.75" cy="667" fill="#ADD1B2" rx="11" ry="11" style="stroke:#181818;stroke-width:1.0;"/><path d="M1071.5156,662.875 Q1071.6719,662.6563 1071.8594,662.5469 Q1072.0469,662.4375 1072.2656,662.4375 Q1072.6406,662.4375 1072.875,662.7031 Q1073.1094,662.9531 1073.1094,663.5625 L1073.1094,665.0156 Q1073.1094,665.625 1072.875,665.8906 Q1072.6406,666.1563 1072.2656,666.1563 Q1071.9219,666.1563 1071.7188,665.9531 Q1071.5156,665.7656 1071.4063,665.25 Q1071.3594,664.8906 1071.1719,664.7031 Q1070.8438,664.3281 1070.2344,664.1094 Q1069.625,663.8906 1069,663.8906 Q1068.2344,663.8906 1067.5938,664.2188 Q1066.9688,664.5469 1066.4688,665.2969 Q1065.9844,666.0469 1065.9844,667.0781 L1065.9844,668.1719 Q1065.9844,669.4063 1066.875,670.2344 Q1067.7656,671.0469 1069.3594,671.0469 Q1070.2969,671.0469 1070.9531,670.7969 Q1071.3438,670.6406 1071.7656,670.2031 Q1072.0313,669.9375 1072.1719,669.8594 Q1072.3281,669.7813 1072.5313,669.7813 Q1072.8594,669.7813 1073.1094,670.0469 Q1073.375,670.2969 1073.375,670.6406 Q1073.375,670.9844 1073.0313,671.3906 Q1072.5313,671.9688 1071.7344,672.2969 Q1070.6563,672.75 1069.3594,672.75 Q1067.8438,672.75 1066.6406,672.125 Q1065.6563,671.625 1064.9688,670.5625 Q1064.2813,669.4844 1064.2813,668.2031 L1064.2813,667.0469 Q1064.2813,665.7188 1064.8906,664.5781 Q1065.5156,663.4219 1066.6094,662.8125 Q1067.7031,662.1875 1068.9375,662.1875 Q1069.6719,662.1875 1070.3125,662.3594 Q1070.9688,662.5156 1071.5156,662.875 Z " fill="#000000"/><text fill="#000000" font-family="sans-serif" font-size="14" lengthAdjust="spacing" textLength="154" x="1089.25" y="672.7285">PropertyTypeRepository</text><line style="stroke:#181818;stroke-width:0.5;" x1="1001" x2="1299" y1="683" y2="683"/><line style="stroke:#181818;stroke-width:0.5;" x1="1001" x2="1299" y1="691" y2="691"/><text fill="#000000" font-family="sans-serif" font-size="14" lengthAdjust="spacing" textLength="146" x="1006" y="709.5332">+getPropertyTypeList()</text><text fill="#000000" font-family="sans-serif" font-size="14" lengthAdjust="spacing" textLength="288" x="1006" y="727.1426">+getPropertyTypeByDesignation(designation)</text></g><!--class AgencyRepository--><g id="elem_AgencyRepository"><rect codeLine="95" fill="#F1F1F1" height="65.6094" id="AgencyRepository" rx="2.5" ry="2.5" style="stroke:#181818;stroke-width:0.5;" width="217" x="390.5" y="659.5"/><ellipse cx="437.25" cy="675.5" fill="#ADD1B2" rx="11" ry="11" style="stroke:#181818;stroke-width:1.0;"/><path d="M440.0156,671.375 Q440.1719,671.1563 440.3594,671.0469 Q440.5469,670.9375 440.7656,670.9375 Q441.1406,670.9375 441.375,671.2031 Q441.6094,671.4531 441.6094,672.0625 L441.6094,673.5156 Q441.6094,674.125 441.375,674.3906 Q441.1406,674.6563 440.7656,674.6563 Q440.4219,674.6563 440.2188,674.4531 Q440.0156,674.2656 439.9063,673.75 Q439.8594,673.3906 439.6719,673.2031 Q439.3438,672.8281 438.7344,672.6094 Q438.125,672.3906 437.5,672.3906 Q436.7344,672.3906 436.0938,672.7188 Q435.4688,673.0469 434.9688,673.7969 Q434.4844,674.5469 434.4844,675.5781 L434.4844,676.6719 Q434.4844,677.9063 435.375,678.7344 Q436.2656,679.5469 437.8594,679.5469 Q438.7969,679.5469 439.4531,679.2969 Q439.8438,679.1406 440.2656,678.7031 Q440.5313,678.4375 440.6719,678.3594 Q440.8281,678.2813 441.0313,678.2813 Q441.3594,678.2813 441.6094,678.5469 Q441.875,678.7969 441.875,679.1406 Q441.875,679.4844 441.5313,679.8906 Q441.0313,680.4688 440.2344,680.7969 Q439.1563,681.25 437.8594,681.25 Q436.3438,681.25 435.1406,680.625 Q434.1563,680.125 433.4688,679.0625 Q432.7813,677.9844 432.7813,676.7031 L432.7813,675.5469 Q432.7813,674.2188 433.3906,673.0781 Q434.0156,671.9219 435.1094,671.3125 Q436.2031,670.6875 437.4375,670.6875 Q438.1719,670.6875 438.8125,670.8594 Q439.4688,671.0156 440.0156,671.375 Z " fill="#000000"/><text fill="#000000" font-family="sans-serif" font-size="14" lengthAdjust="spacing" textLength="115" x="457.75" y="681.2285">AgencyRepository</text><line style="stroke:#181818;stroke-width:0.5;" x1="391.5" x2="606.5" y1="691.5" y2="691.5"/><line style="stroke:#181818;stroke-width:0.5;" x1="391.5" x2="606.5" y1="699.5" y2="699.5"/><text fill="#000000" font-family="sans-serif" font-size="14" lengthAdjust="spacing" textLength="205" x="396.5" y="718.0332">+getAgencyByAgentEmail(email)</text></g><!--class Repositories--><g id="elem_Repositories"><rect codeLine="99" fill="#F1F1F1" height="136.0469" id="Repositories" rx="2.5" ry="2.5" style="stroke:#181818;stroke-width:0.5;" width="226" x="727" y="454"/><ellipse cx="796.25" cy="470" fill="#ADD1B2" rx="11" ry="11" style="stroke:#181818;stroke-width:1.0;"/><path d="M799.0156,465.875 Q799.1719,465.6563 799.3594,465.5469 Q799.5469,465.4375 799.7656,465.4375 Q800.1406,465.4375 800.375,465.7031 Q800.6094,465.9531 800.6094,466.5625 L800.6094,468.0156 Q800.6094,468.625 800.375,468.8906 Q800.1406,469.1563 799.7656,469.1563 Q799.4219,469.1563 799.2188,468.9531 Q799.0156,468.7656 798.9063,468.25 Q798.8594,467.8906 798.6719,467.7031 Q798.3438,467.3281 797.7344,467.1094 Q797.125,466.8906 796.5,466.8906 Q795.7344,466.8906 795.0938,467.2188 Q794.4688,467.5469 793.9688,468.2969 Q793.4844,469.0469 793.4844,470.0781 L793.4844,471.1719 Q793.4844,472.4063 794.375,473.2344 Q795.2656,474.0469 796.8594,474.0469 Q797.7969,474.0469 798.4531,473.7969 Q798.8438,473.6406 799.2656,473.2031 Q799.5313,472.9375 799.6719,472.8594 Q799.8281,472.7813 800.0313,472.7813 Q800.3594,472.7813 800.6094,473.0469 Q800.875,473.2969 800.875,473.6406 Q800.875,473.9844 800.5313,474.3906 Q800.0313,474.9688 799.2344,475.2969 Q798.1563,475.75 796.8594,475.75 Q795.3438,475.75 794.1406,475.125 Q793.1563,474.625 792.4688,473.5625 Q791.7813,472.4844 791.7813,471.2031 L791.7813,470.0469 Q791.7813,468.7188 792.3906,467.5781 Q793.0156,466.4219 794.1094,465.8125 Q795.2031,465.1875 796.4375,465.1875 Q797.1719,465.1875 797.8125,465.3594 Q798.4688,465.5156 799.0156,465.875 Z " fill="#000000"/><text fill="#000000" font-family="sans-serif" font-size="14" lengthAdjust="spacing" textLength="79" x="816.75" y="475.7285">Repositories</text><line style="stroke:#181818;stroke-width:0.5;" x1="728" x2="952" y1="486" y2="486"/><line style="stroke:#181818;stroke-width:0.5;" x1="728" x2="952" y1="494" y2="494"/><text fill="#000000" font-family="sans-serif" font-size="14" lengthAdjust="spacing" textLength="94" x="733" y="512.5332">-Repositories()</text><text fill="#000000" font-family="sans-serif" font-size="14" lengthAdjust="spacing" textLength="182" x="733" y="530.1426">+getInstance() : Repositories</text><text fill="#000000" font-family="sans-serif" font-size="14" lengthAdjust="spacing" textLength="214" x="733" y="547.752">+getCommissionTypeRepository()</text><text fill="#000000" font-family="sans-serif" font-size="14" lengthAdjust="spacing" textLength="192" x="733" y="565.3613">+getPropertyTypeRepository()</text><text fill="#000000" font-family="sans-serif" font-size="14" lengthAdjust="spacing" textLength="153" x="733" y="582.9707">+getAgencyRepository()</text></g><!--class PublishAnnouncementController--><g id="elem_PublishAnnouncementController"><rect codeLine="107" fill="#F1F1F1" height="241.7031" id="PublishAnnouncementController" rx="2.5" ry="2.5" style="stroke:#181818;stroke-width:0.5;" width="706" x="285" y="7"/><ellipse cx="532.25" cy="23" fill="#ADD1B2" rx="11" ry="11" style="stroke:#181818;stroke-width:1.0;"/><path d="M535.0156,18.875 Q535.1719,18.6563 535.3594,18.5469 Q535.5469,18.4375 535.7656,18.4375 Q536.1406,18.4375 536.375,18.7031 Q536.6094,18.9531 536.6094,19.5625 L536.6094,21.0156 Q536.6094,21.625 536.375,21.8906 Q536.1406,22.1563 535.7656,22.1563 Q535.4219,22.1563 535.2188,21.9531 Q535.0156,21.7656 534.9063,21.25 Q534.8594,20.8906 534.6719,20.7031 Q534.3438,20.3281 533.7344,20.1094 Q533.125,19.8906 532.5,19.8906 Q531.7344,19.8906 531.0938,20.2188 Q530.4688,20.5469 529.9688,21.2969 Q529.4844,22.0469 529.4844,23.0781 L529.4844,24.1719 Q529.4844,25.4063 530.375,26.2344 Q531.2656,27.0469 532.8594,27.0469 Q533.7969,27.0469 534.4531,26.7969 Q534.8438,26.6406 535.2656,26.2031 Q535.5313,25.9375 535.6719,25.8594 Q535.8281,25.7813 536.0313,25.7813 Q536.3594,25.7813 536.6094,26.0469 Q536.875,26.2969 536.875,26.6406 Q536.875,26.9844 536.5313,27.3906 Q536.0313,27.9688 535.2344,28.2969 Q534.1563,28.75 532.8594,28.75 Q531.3438,28.75 530.1406,28.125 Q529.1563,27.625 528.4688,26.5625 Q527.7813,25.4844 527.7813,24.2031 L527.7813,23.0469 Q527.7813,21.7188 528.3906,20.5781 Q529.0156,19.4219 530.1094,18.8125 Q531.2031,18.1875 532.4375,18.1875 Q533.1719,18.1875 533.8125,18.3594 Q534.4688,18.5156 535.0156,18.875 Z " fill="#000000"/><text fill="#000000" font-family="sans-serif" font-size="14" lengthAdjust="spacing" textLength="203" x="552.75" y="28.7285">PublishAnnouncementController</text><line style="stroke:#181818;stroke-width:0.5;" x1="286" x2="990" y1="39" y2="39"/><line style="stroke:#181818;stroke-width:0.5;" x1="286" x2="990" y1="47" y2="47"/><text fill="#000000" font-family="sans-serif" font-size="14" lengthAdjust="spacing" textLength="674" x="291" y="65.5332">+PublishAnnouncementController(PropertyTypeRepository,CommissionTypeRepository,AgencyRepository)</text><text fill="#000000" font-family="sans-serif" font-size="14" lengthAdjust="spacing" textLength="694" x="291" y="83.1426">+publishAnnouncement(commissionValue, commissionTypeDescription, ownerEmail, propertyTypeDescription,</text><text fill="#000000" font-family="sans-serif" font-size="14" lengthAdjust="spacing" textLength="417" x="291" y="100.752">streetName, city, district, state, zipCode, area, distanceCityCentre,</text><text fill="#000000" font-family="sans-serif" font-size="14" lengthAdjust="spacing" textLength="365" x="291" y="118.3613">price, photograph,numberBedroom,numberParkingSpace,</text><text fill="#000000" font-family="sans-serif" font-size="14" lengthAdjust="spacing" textLength="562" x="291" y="135.9707">existenceBasement,inhabitableLoft, numberBathroom, availableEquipment, sunExposure)</text><text fill="#000000" font-family="sans-serif" font-size="14" lengthAdjust="spacing" textLength="352" x="291" y="153.5801">+createCommission(commissionType,commissionValue)</text><text fill="#000000" font-family="sans-serif" font-size="14" lengthAdjust="spacing" textLength="168" x="291" y="171.1895">+getCommissionTypeList()</text><text fill="#000000" font-family="sans-serif" font-size="14" lengthAdjust="spacing" textLength="146" x="291" y="188.7988">+getPropertyTypeList()</text><text fill="#000000" font-family="sans-serif" font-size="14" lengthAdjust="spacing" textLength="155" x="291" y="206.4082">-getAgentFromSession()</text><text fill="#000000" font-family="sans-serif" font-size="14" lengthAdjust="spacing" textLength="285" x="291" y="224.0176">-getPropertyTypeByDesignation(designation)</text><text fill="#000000" font-family="sans-serif" font-size="14" lengthAdjust="spacing" textLength="307" x="291" y="241.627">-getCommissionTypeByDesignation(designation)</text></g><!--class PropertyType--><g id="elem_PropertyType"><rect codeLine="117" fill="#F1F1F1" height="83.2188" id="PropertyType" rx="2.5" ry="2.5" style="stroke:#181818;stroke-width:0.5;" width="189" x="1055.5" y="1120"/><ellipse cx="1102.75" cy="1136" fill="#ADD1B2" rx="11" ry="11" style="stroke:#181818;stroke-width:1.0;"/><path d="M1105.5156,1131.875 Q1105.6719,1131.6563 1105.8594,1131.5469 Q1106.0469,1131.4375 1106.2656,1131.4375 Q1106.6406,1131.4375 1106.875,1131.7031 Q1107.1094,1131.9531 1107.1094,1132.5625 L1107.1094,1134.0156 Q1107.1094,1134.625 1106.875,1134.8906 Q1106.6406,1135.1563 1106.2656,1135.1563 Q1105.9219,1135.1563 1105.7188,1134.9531 Q1105.5156,1134.7656 1105.4063,1134.25 Q1105.3594,1133.8906 1105.1719,1133.7031 Q1104.8438,1133.3281 1104.2344,1133.1094 Q1103.625,1132.8906 1103,1132.8906 Q1102.2344,1132.8906 1101.5938,1133.2188 Q1100.9688,1133.5469 1100.4688,1134.2969 Q1099.9844,1135.0469 1099.9844,1136.0781 L1099.9844,1137.1719 Q1099.9844,1138.4063 1100.875,1139.2344 Q1101.7656,1140.0469 1103.3594,1140.0469 Q1104.2969,1140.0469 1104.9531,1139.7969 Q1105.3438,1139.6406 1105.7656,1139.2031 Q1106.0313,1138.9375 1106.1719,1138.8594 Q1106.3281,1138.7813 1106.5313,1138.7813 Q1106.8594,1138.7813 1107.1094,1139.0469 Q1107.375,1139.2969 1107.375,1139.6406 Q1107.375,1139.9844 1107.0313,1140.3906 Q1106.5313,1140.9688 1105.7344,1141.2969 Q1104.6563,1141.75 1103.3594,1141.75 Q1101.8438,1141.75 1100.6406,1141.125 Q1099.6563,1140.625 1098.9688,1139.5625 Q1098.2813,1138.4844 1098.2813,1137.2031 L1098.2813,1136.0469 Q1098.2813,1134.7188 1098.8906,1133.5781 Q1099.5156,1132.4219 1100.6094,1131.8125 Q1101.7031,1131.1875 1102.9375,1131.1875 Q1103.6719,1131.1875 1104.3125,1131.3594 Q1104.9688,1131.5156 1105.5156,1131.875 Z " fill="#000000"/><text fill="#000000" font-family="sans-serif" font-size="14" lengthAdjust="spacing" textLength="86" x="1123.25" y="1141.7285">PropertyType</text><line style="stroke:#181818;stroke-width:0.5;" x1="1056.5" x2="1243.5" y1="1152" y2="1152"/><text fill="#000000" font-family="sans-serif" font-size="14" lengthAdjust="spacing" textLength="119" x="1061.5" y="1170.5332">-String designation</text><line style="stroke:#181818;stroke-width:0.5;" x1="1056.5" x2="1243.5" y1="1177.6094" y2="1177.6094"/><text fill="#000000" font-family="sans-serif" font-size="14" lengthAdjust="spacing" textLength="177" x="1061.5" y="1196.1426">+PropertyType(designation)</text></g><!--class CommissionType--><g id="elem_CommissionType"><rect codeLine="122" fill="#F1F1F1" height="83.2188" id="CommissionType" rx="2.5" ry="2.5" style="stroke:#181818;stroke-width:0.5;" width="211" x="748.5" y="1417"/><ellipse cx="795.75" cy="1433" fill="#ADD1B2" rx="11" ry="11" style="stroke:#181818;stroke-width:1.0;"/><path d="M798.5156,1428.875 Q798.6719,1428.6563 798.8594,1428.5469 Q799.0469,1428.4375 799.2656,1428.4375 Q799.6406,1428.4375 799.875,1428.7031 Q800.1094,1428.9531 800.1094,1429.5625 L800.1094,1431.0156 Q800.1094,1431.625 799.875,1431.8906 Q799.6406,1432.1563 799.2656,1432.1563 Q798.9219,1432.1563 798.7188,1431.9531 Q798.5156,1431.7656 798.4063,1431.25 Q798.3594,1430.8906 798.1719,1430.7031 Q797.8438,1430.3281 797.2344,1430.1094 Q796.625,1429.8906 796,1429.8906 Q795.2344,1429.8906 794.5938,1430.2188 Q793.9688,1430.5469 793.4688,1431.2969 Q792.9844,1432.0469 792.9844,1433.0781 L792.9844,1434.1719 Q792.9844,1435.4063 793.875,1436.2344 Q794.7656,1437.0469 796.3594,1437.0469 Q797.2969,1437.0469 797.9531,1436.7969 Q798.3438,1436.6406 798.7656,1436.2031 Q799.0313,1435.9375 799.1719,1435.8594 Q799.3281,1435.7813 799.5313,1435.7813 Q799.8594,1435.7813 800.1094,1436.0469 Q800.375,1436.2969 800.375,1436.6406 Q800.375,1436.9844 800.0313,1437.3906 Q799.5313,1437.9688 798.7344,1438.2969 Q797.6563,1438.75 796.3594,1438.75 Q794.8438,1438.75 793.6406,1438.125 Q792.6563,1437.625 791.9688,1436.5625 Q791.2813,1435.4844 791.2813,1434.2031 L791.2813,1433.0469 Q791.2813,1431.7188 791.8906,1430.5781 Q792.5156,1429.4219 793.6094,1428.8125 Q794.7031,1428.1875 795.9375,1428.1875 Q796.6719,1428.1875 797.3125,1428.3594 Q797.9688,1428.5156 798.5156,1428.875 Z " fill="#000000"/><text fill="#000000" font-family="sans-serif" font-size="14" lengthAdjust="spacing" textLength="108" x="816.25" y="1438.7285">CommissionType</text><line style="stroke:#181818;stroke-width:0.5;" x1="749.5" x2="958.5" y1="1449" y2="1449"/><text fill="#000000" font-family="sans-serif" font-size="14" lengthAdjust="spacing" textLength="119" x="754.5" y="1467.5332">-String designation</text><line style="stroke:#181818;stroke-width:0.5;" x1="749.5" x2="958.5" y1="1474.6094" y2="1474.6094"/><text fill="#000000" font-family="sans-serif" font-size="14" lengthAdjust="spacing" textLength="199" x="754.5" y="1493.1426">+CommissionType(designation)</text></g><!--class PublishAnnouncementUI--><g id="elem_PublishAnnouncementUI"><rect codeLine="127" fill="#F1F1F1" height="48" id="PublishAnnouncementUI" rx="2.5" ry="2.5" style="stroke:#181818;stroke-width:0.5;" width="185" x="64.5" y="104"/><ellipse cx="79.5" cy="120" fill="#ADD1B2" rx="11" ry="11" style="stroke:#181818;stroke-width:1.0;"/><path d="M82.2656,115.875 Q82.4219,115.6563 82.6094,115.5469 Q82.7969,115.4375 83.0156,115.4375 Q83.3906,115.4375 83.625,115.7031 Q83.8594,115.9531 83.8594,116.5625 L83.8594,118.0156 Q83.8594,118.625 83.625,118.8906 Q83.3906,119.1563 83.0156,119.1563 Q82.6719,119.1563 82.4688,118.9531 Q82.2656,118.7656 82.1563,118.25 Q82.1094,117.8906 81.9219,117.7031 Q81.5938,117.3281 80.9844,117.1094 Q80.375,116.8906 79.75,116.8906 Q78.9844,116.8906 78.3438,117.2188 Q77.7188,117.5469 77.2188,118.2969 Q76.7344,119.0469 76.7344,120.0781 L76.7344,121.1719 Q76.7344,122.4063 77.625,123.2344 Q78.5156,124.0469 80.1094,124.0469 Q81.0469,124.0469 81.7031,123.7969 Q82.0938,123.6406 82.5156,123.2031 Q82.7813,122.9375 82.9219,122.8594 Q83.0781,122.7813 83.2813,122.7813 Q83.6094,122.7813 83.8594,123.0469 Q84.125,123.2969 84.125,123.6406 Q84.125,123.9844 83.7813,124.3906 Q83.2813,124.9688 82.4844,125.2969 Q81.4063,125.75 80.1094,125.75 Q78.5938,125.75 77.3906,125.125 Q76.4063,124.625 75.7188,123.5625 Q75.0313,122.4844 75.0313,121.2031 L75.0313,120.0469 Q75.0313,118.7188 75.6406,117.5781 Q76.2656,116.4219 77.3594,115.8125 Q78.4531,115.1875 79.6875,115.1875 Q80.4219,115.1875 81.0625,115.3594 Q81.7188,115.5156 82.2656,115.875 Z " fill="#000000"/><text fill="#000000" font-family="sans-serif" font-size="14" lengthAdjust="spacing" textLength="153" x="93.5" y="125.7285">PublishAnnouncementUI</text><line style="stroke:#181818;stroke-width:0.5;" x1="65.5" x2="248.5" y1="136" y2="136"/><line style="stroke:#181818;stroke-width:0.5;" x1="65.5" x2="248.5" y1="144" y2="144"/></g><!--class Business--><g id="elem_Business"><rect codeLine="129" fill="#F1F1F1" height="65.6094" id="Business" rx="2.5" ry="2.5" style="stroke:#181818;stroke-width:0.5;" width="97" x="950.5" y="1277"/><ellipse cx="969.1" cy="1293" fill="#ADD1B2" rx="11" ry="11" style="stroke:#181818;stroke-width:1.0;"/><path d="M971.8656,1288.875 Q972.0219,1288.6563 972.2094,1288.5469 Q972.3969,1288.4375 972.6156,1288.4375 Q972.9906,1288.4375 973.225,1288.7031 Q973.4594,1288.9531 973.4594,1289.5625 L973.4594,1291.0156 Q973.4594,1291.625 973.225,1291.8906 Q972.9906,1292.1563 972.6156,1292.1563 Q972.2719,1292.1563 972.0688,1291.9531 Q971.8656,1291.7656 971.7563,1291.25 Q971.7094,1290.8906 971.5219,1290.7031 Q971.1938,1290.3281 970.5844,1290.1094 Q969.975,1289.8906 969.35,1289.8906 Q968.5844,1289.8906 967.9438,1290.2188 Q967.3188,1290.5469 966.8188,1291.2969 Q966.3344,1292.0469 966.3344,1293.0781 L966.3344,1294.1719 Q966.3344,1295.4063 967.225,1296.2344 Q968.1156,1297.0469 969.7094,1297.0469 Q970.6469,1297.0469 971.3031,1296.7969 Q971.6938,1296.6406 972.1156,1296.2031 Q972.3813,1295.9375 972.5219,1295.8594 Q972.6781,1295.7813 972.8813,1295.7813 Q973.2094,1295.7813 973.4594,1296.0469 Q973.725,1296.2969 973.725,1296.6406 Q973.725,1296.9844 973.3813,1297.3906 Q972.8813,1297.9688 972.0844,1298.2969 Q971.0063,1298.75 969.7094,1298.75 Q968.1938,1298.75 966.9906,1298.125 Q966.0063,1297.625 965.3188,1296.5625 Q964.6313,1295.4844 964.6313,1294.2031 L964.6313,1293.0469 Q964.6313,1291.7188 965.2406,1290.5781 Q965.8656,1289.4219 966.9594,1288.8125 Q968.0531,1288.1875 969.2875,1288.1875 Q970.0219,1288.1875 970.6625,1288.3594 Q971.3188,1288.5156 971.8656,1288.875 Z " fill="#000000"/><text fill="#000000" font-family="sans-serif" font-size="14" lengthAdjust="spacing" textLength="57" x="983.9" y="1298.7285">Business</text><line style="stroke:#181818;stroke-width:0.5;" x1="951.5" x2="1046.5" y1="1309" y2="1309"/><text fill="#000000" font-family="sans-serif" font-size="14" lengthAdjust="spacing" textLength="85" x="956.5" y="1327.5332">-Double price</text><line style="stroke:#181818;stroke-width:0.5;" x1="951.5" x2="1046.5" y1="1334.6094" y2="1334.6094"/></g><!--class Residence--><g id="elem_Residence"><rect codeLine="133" fill="#F1F1F1" height="100.8281" id="Residence" rx="2.5" ry="2.5" style="stroke:#181818;stroke-width:0.5;" width="201" x="1203.5" y="1530"/><ellipse cx="1266.25" cy="1546" fill="#ADD1B2" rx="11" ry="11" style="stroke:#181818;stroke-width:1.0;"/><path d="M1269.0156,1541.875 Q1269.1719,1541.6563 1269.3594,1541.5469 Q1269.5469,1541.4375 1269.7656,1541.4375 Q1270.1406,1541.4375 1270.375,1541.7031 Q1270.6094,1541.9531 1270.6094,1542.5625 L1270.6094,1544.0156 Q1270.6094,1544.625 1270.375,1544.8906 Q1270.1406,1545.1563 1269.7656,1545.1563 Q1269.4219,1545.1563 1269.2188,1544.9531 Q1269.0156,1544.7656 1268.9063,1544.25 Q1268.8594,1543.8906 1268.6719,1543.7031 Q1268.3438,1543.3281 1267.7344,1543.1094 Q1267.125,1542.8906 1266.5,1542.8906 Q1265.7344,1542.8906 1265.0938,1543.2188 Q1264.4688,1543.5469 1263.9688,1544.2969 Q1263.4844,1545.0469 1263.4844,1546.0781 L1263.4844,1547.1719 Q1263.4844,1548.4063 1264.375,1549.2344 Q1265.2656,1550.0469 1266.8594,1550.0469 Q1267.7969,1550.0469 1268.4531,1549.7969 Q1268.8438,1549.6406 1269.2656,1549.2031 Q1269.5313,1548.9375 1269.6719,1548.8594 Q1269.8281,1548.7813 1270.0313,1548.7813 Q1270.3594,1548.7813 1270.6094,1549.0469 Q1270.875,1549.2969 1270.875,1549.6406 Q1270.875,1549.9844 1270.5313,1550.3906 Q1270.0313,1550.9688 1269.2344,1551.2969 Q1268.1563,1551.75 1266.8594,1551.75 Q1265.3438,1551.75 1264.1406,1551.125 Q1263.1563,1550.625 1262.4688,1549.5625 Q1261.7813,1548.4844 1261.7813,1547.2031 L1261.7813,1546.0469 Q1261.7813,1544.7188 1262.3906,1543.5781 Q1263.0156,1542.4219 1264.1094,1541.8125 Q1265.2031,1541.1875 1266.4375,1541.1875 Q1267.1719,1541.1875 1267.8125,1541.3594 Q1268.4688,1541.5156 1269.0156,1541.875 Z " fill="#000000"/><text fill="#000000" font-family="sans-serif" font-size="14" lengthAdjust="spacing" textLength="67" x="1286.75" y="1551.7285">Residence</text><line style="stroke:#181818;stroke-width:0.5;" x1="1204.5" x2="1403.5" y1="1562" y2="1562"/><text fill="#000000" font-family="sans-serif" font-size="14" lengthAdjust="spacing" textLength="162" x="1209.5" y="1580.5332">-Integer numberBathroom</text><text fill="#000000" font-family="sans-serif" font-size="14" lengthAdjust="spacing" textLength="158" x="1209.5" y="1598.1426">-Integer numberBedroom</text><text fill="#000000" font-family="sans-serif" font-size="14" lengthAdjust="spacing" textLength="189" x="1209.5" y="1615.752">-Integer numberParkingSpace</text><line style="stroke:#181818;stroke-width:0.5;" x1="1204.5" x2="1403.5" y1="1622.8281" y2="1622.8281"/></g><!--class House--><g id="elem_House"><rect codeLine="139" fill="#F1F1F1" height="83.2188" id="House" rx="2.5" ry="2.5" style="stroke:#181818;stroke-width:0.5;" width="195" x="1206.5" y="1268.5"/><ellipse cx="1279.75" cy="1284.5" fill="#ADD1B2" rx="11" ry="11" style="stroke:#181818;stroke-width:1.0;"/><path d="M1282.5156,1280.375 Q1282.6719,1280.1563 1282.8594,1280.0469 Q1283.0469,1279.9375 1283.2656,1279.9375 Q1283.6406,1279.9375 1283.875,1280.2031 Q1284.1094,1280.4531 1284.1094,1281.0625 L1284.1094,1282.5156 Q1284.1094,1283.125 1283.875,1283.3906 Q1283.6406,1283.6563 1283.2656,1283.6563 Q1282.9219,1283.6563 1282.7188,1283.4531 Q1282.5156,1283.2656 1282.4063,1282.75 Q1282.3594,1282.3906 1282.1719,1282.2031 Q1281.8438,1281.8281 1281.2344,1281.6094 Q1280.625,1281.3906 1280,1281.3906 Q1279.2344,1281.3906 1278.5938,1281.7188 Q1277.9688,1282.0469 1277.4688,1282.7969 Q1276.9844,1283.5469 1276.9844,1284.5781 L1276.9844,1285.6719 Q1276.9844,1286.9063 1277.875,1287.7344 Q1278.7656,1288.5469 1280.3594,1288.5469 Q1281.2969,1288.5469 1281.9531,1288.2969 Q1282.3438,1288.1406 1282.7656,1287.7031 Q1283.0313,1287.4375 1283.1719,1287.3594 Q1283.3281,1287.2813 1283.5313,1287.2813 Q1283.8594,1287.2813 1284.1094,1287.5469 Q1284.375,1287.7969 1284.375,1288.1406 Q1284.375,1288.4844 1284.0313,1288.8906 Q1283.5313,1289.4688 1282.7344,1289.7969 Q1281.6563,1290.25 1280.3594,1290.25 Q1278.8438,1290.25 1277.6406,1289.625 Q1276.6563,1289.125 1275.9688,1288.0625 Q1275.2813,1286.9844 1275.2813,1285.7031 L1275.2813,1284.5469 Q1275.2813,1283.2188 1275.8906,1282.0781 Q1276.5156,1280.9219 1277.6094,1280.3125 Q1278.7031,1279.6875 1279.9375,1279.6875 Q1280.6719,1279.6875 1281.3125,1279.8594 Q1281.9688,1280.0156 1282.5156,1280.375 Z " fill="#000000"/><text fill="#000000" font-family="sans-serif" font-size="14" lengthAdjust="spacing" textLength="40" x="1300.25" y="1290.2285">House</text><line style="stroke:#181818;stroke-width:0.5;" x1="1207.5" x2="1400.5" y1="1300.5" y2="1300.5"/><text fill="#000000" font-family="sans-serif" font-size="14" lengthAdjust="spacing" textLength="183" x="1212.5" y="1319.0332">-Boolean existenceBasement</text><text fill="#000000" font-family="sans-serif" font-size="14" lengthAdjust="spacing" textLength="154" x="1212.5" y="1336.6426">-Boolean inhabitableLoft</text><line style="stroke:#181818;stroke-width:0.5;" x1="1207.5" x2="1400.5" y1="1343.7188" y2="1343.7188"/></g><!--class SunExposure--><g id="elem_SunExposure"><rect codeLine="144" fill="#F1F1F1" height="118.4375" id="SunExposure" rx="2.5" ry="2.5" style="stroke:#181818;stroke-width:0.5;" width="116" x="1437" y="1251"/><ellipse cx="1452" cy="1267" fill="#EB937F" rx="11" ry="11" style="stroke:#181818;stroke-width:1.0;"/><path d="M1450.8594,1267.7969 L1450.8594,1270.2969 L1455.1875,1270.2969 L1455.1875,1269.375 Q1455.1875,1268.7656 1455.4219,1268.5 Q1455.6719,1268.2344 1456.0469,1268.2344 Q1456.4219,1268.2344 1456.6563,1268.5 Q1456.8906,1268.7656 1456.8906,1269.375 L1456.8906,1272 L1448.8906,1272 Q1448.2656,1272 1448,1271.7656 Q1447.75,1271.5313 1447.75,1271.1406 Q1447.75,1270.7656 1448.0156,1270.5313 Q1448.2813,1270.2969 1448.8906,1270.2969 L1449.1563,1270.2969 L1449.1563,1263.6406 L1448.8906,1263.6406 Q1448.2656,1263.6406 1448,1263.4063 Q1447.75,1263.1719 1447.75,1262.7813 Q1447.75,1262.4063 1448,1262.1719 Q1448.2656,1261.9375 1448.8906,1261.9375 L1456.5156,1261.9375 L1456.5156,1264.5313 Q1456.5156,1265.1406 1456.2813,1265.4063 Q1456.0625,1265.6563 1455.6719,1265.6563 Q1455.2969,1265.6563 1455.0625,1265.4063 Q1454.8281,1265.1406 1454.8281,1264.5313 L1454.8281,1263.6406 L1450.8594,1263.6406 L1450.8594,1266.0938 L1452.3438,1266.0938 Q1452.3438,1265.4375 1452.4688,1265.25 Q1452.7344,1264.8438 1453.2031,1264.8438 Q1453.5781,1264.8438 1453.8125,1265.1094 Q1454.0469,1265.3594 1454.0469,1265.9688 L1454.0469,1267.9375 Q1454.0469,1268.4844 1453.9219,1268.6719 Q1453.6563,1269.0625 1453.2031,1269.0625 Q1452.7344,1269.0625 1452.4688,1268.6563 Q1452.3438,1268.4688 1452.3438,1267.7969 L1450.8594,1267.7969 Z " fill="#000000"/><text fill="#000000" font-family="sans-serif" font-size="14" lengthAdjust="spacing" textLength="84" x="1466" y="1272.7285">SunExposure</text><line style="stroke:#181818;stroke-width:0.5;" x1="1438" x2="1552" y1="1283" y2="1283"/><text fill="#000000" font-family="sans-serif" font-size="14" lengthAdjust="spacing" textLength="48" x="1443" y="1301.5332">NORTH</text><text fill="#000000" font-family="sans-serif" font-size="14" lengthAdjust="spacing" textLength="47" x="1443" y="1319.1426">SOUTH</text><text fill="#000000" font-family="sans-serif" font-size="14" lengthAdjust="spacing" textLength="40" x="1443" y="1336.752">WEST</text><text fill="#000000" font-family="sans-serif" font-size="14" lengthAdjust="spacing" textLength="36" x="1443" y="1354.3613">EAST</text><line style="stroke:#181818;stroke-width:0.5;" x1="1438" x2="1552" y1="1361.4375" y2="1361.4375"/></g><!--link PublishAnnouncementUI to PublishAnnouncementController--><g id="link_PublishAnnouncementUI_PublishAnnouncementController"><path codeLine="151" d="M249.8,128 C260.22,128 270.35,128 279.46,128 " fill="none" id="PublishAnnouncementUI-to-PublishAnnouncementController" style="stroke:#181818;stroke-width:1.0;stroke-dasharray:7.0,7.0;"/><polygon fill="#181818" points="284.7,128,275.7,124,279.7,128,275.7,132,284.7,128" style="stroke:#181818;stroke-width:1.0;"/></g><!--link PublishAnnouncementController to UserSession--><g id="link_PublishAnnouncementController_UserSession"><path codeLine="152" d="M397.8,249.1 C330.82,282.59 276,310 276,310 C276,310 276,393 276,393 C276,393 280.13,445.92 283.09,483.71 " fill="none" id="PublishAnnouncementController-to-UserSession" style="stroke:#181818;stroke-width:1.0;stroke-dasharray:7.0,7.0;"/><polygon fill="#181818" points="283.48,488.7,286.7739,479.4183,283.0943,483.7149,278.7977,480.0353,283.48,488.7" style="stroke:#181818;stroke-width:1.0;"/></g><!--link PublishAnnouncementController to ApplicationSession--><g id="link_PublishAnnouncementController_ApplicationSession"><path codeLine="153" d="M499.14,249.15 C475.44,269.65 452.25,289.72 432.84,306.51 " fill="none" id="PublishAnnouncementController-to-ApplicationSession" style="stroke:#181818;stroke-width:1.0;stroke-dasharray:7.0,7.0;"/><polygon fill="#181818" points="429.01,309.83,438.435,306.9719,432.7932,306.5608,433.2043,300.9189,429.01,309.83" style="stroke:#181818;stroke-width:1.0;"/></g><!--link ApplicationSession to ApplicationSession--><g id="link_ApplicationSession_ApplicationSession"><path codeLine="154" d="M470.53,338.31 C490.71,339.48 505.5,343.87 505.5,351.5 C505.5,358.47 493.14,362.75 475.61,364.32 " fill="none" id="ApplicationSession-to-ApplicationSession" style="stroke:#181818;stroke-width:1.0;"/><polygon fill="#181818" points="470.53,364.69,479.8023,368.0103,475.5162,364.3185,479.208,360.0324,470.53,364.69" style="stroke:#181818;stroke-width:1.0;"/><text fill="#000000" font-family="sans-serif" font-size="13" lengthAdjust="spacing" textLength="49" x="511.5" y="356.9951">instance</text></g><!--link ApplicationSession to UserSession--><g id="link_ApplicationSession_UserSession"><path codeLine="155" d="M358.76,393.29 C342.97,421 322.26,457.36 306.97,484.19 " fill="none" id="ApplicationSession-to-UserSession" style="stroke:#181818;stroke-width:1.0;"/><polygon fill="#181818" points="304.38,488.75,312.3223,482.926,306.8638,484.4105,305.3792,478.952,304.38,488.75" style="stroke:#181818;stroke-width:1.0;"/><text fill="#000000" font-family="sans-serif" font-size="13" lengthAdjust="spacing" textLength="7" x="300.3095" y="478.1971">1</text></g><!--link PublishAnnouncementController to Repositories--><g id="link_PublishAnnouncementController_Repositories"><path codeLine="156" d="M699.84,249.01 C733.58,314.48 774.21,393.33 803.02,449.23 " fill="none" id="PublishAnnouncementController-to-Repositories" style="stroke:#181818;stroke-width:1.0;stroke-dasharray:7.0,7.0;"/><polygon fill="#181818" points="805.42,453.89,804.8596,444.0571,803.1326,449.4439,797.7458,447.7169,805.42,453.89" style="stroke:#181818;stroke-width:1.0;"/></g><!--link PublishAnnouncementController to PropertyTypeRepository--><g id="link_PublishAnnouncementController_PropertyTypeRepository"><path codeLine="157" d="M790.24,249.09 C907.61,341.67 1050,454 1050,454 C1050,454 1101.84,577.13 1130.87,646.07 " fill="none" id="PublishAnnouncementController-to-PropertyTypeRepository" style="stroke:#181818;stroke-width:1.0;stroke-dasharray:7.0,7.0;"/><polygon fill="#181818" points="1132.92,650.94,1133.114,641.0931,1130.9797,646.3318,1125.7409,644.1975,1132.92,650.94" style="stroke:#181818;stroke-width:1.0;"/></g><!--link PublishAnnouncementController to CommissionTypeRepository--><g id="link_PublishAnnouncementController_CommissionTypeRepository"><path codeLine="158" d="M656.78,249.22 C678.11,385.81 710,590 710,590 C710,590 737.4,619.58 762.61,646.81 " fill="none" id="PublishAnnouncementController-to-CommissionTypeRepository" style="stroke:#181818;stroke-width:1.0;stroke-dasharray:7.0,7.0;"/><polygon fill="#181818" points="766.31,650.8,763.1115,641.485,762.9056,647.1381,757.2524,646.9321,766.31,650.8" style="stroke:#181818;stroke-width:1.0;"/></g><!--link PublishAnnouncementController to AgencyRepository--><g id="link_PublishAnnouncementController_AgencyRepository"><path codeLine="159" d="M608.27,249.33 C576.58,377.54 528.28,573 508.23,654.16 " fill="none" id="PublishAnnouncementController-to-AgencyRepository" style="stroke:#181818;stroke-width:1.0;stroke-dasharray:7.0,7.0;"/><polygon fill="#181818" points="506.95,659.34,512.9919,651.5621,508.1492,654.4859,505.2254,649.6433,506.95,659.34" style="stroke:#181818;stroke-width:1.0;"/></g><!--link Repositories to Repositories--><g id="link_Repositories_Repositories"><path codeLine="161" d="M953.24,504.67 C973.69,506.89 988,512.67 988,522 C988,530.53 976.04,536.09 958.37,538.68 " fill="none" id="Repositories-to-Repositories" style="stroke:#181818;stroke-width:1.0;"/><polygon fill="#181818" points="953.24,539.33,962.6717,542.1661,958.2003,538.701,961.6653,534.2296,953.24,539.33" style="stroke:#181818;stroke-width:1.0;"/><text fill="#000000" font-family="sans-serif" font-size="13" lengthAdjust="spacing" textLength="49" x="994" y="527.4951">instance</text></g><!--link Repositories to CommissionTypeRepository--><g id="link_Repositories_CommissionTypeRepository"><path codeLine="162" d="M825.67,590.08 C821.69,608.71 817.46,628.51 813.8,645.62 " fill="none" id="Repositories-to-CommissionTypeRepository" style="stroke:#181818;stroke-width:1.0;"/><polygon fill="#181818" points="812.69,650.85,818.4806,642.8833,813.7337,645.9602,810.6569,641.2133,812.69,650.85" style="stroke:#181818;stroke-width:1.0;"/><text fill="#000000" font-family="sans-serif" font-size="13" lengthAdjust="spacing" textLength="7" x="806.5496" y="640.1328">1</text></g><!--link Repositories to PropertyTypeRepository--><g id="link_Repositories_PropertyTypeRepository"><path codeLine="163" d="M953.23,584.55 C992.13,605.69 1034.82,628.9 1070.47,648.27 " fill="none" id="Repositories-to-PropertyTypeRepository" style="stroke:#181818;stroke-width:1.0;"/><polygon fill="#181818" points="1075.23,650.86,1069.2248,643.0538,1070.8345,648.4767,1065.4116,650.0865,1075.23,650.86" style="stroke:#181818;stroke-width:1.0;"/><text fill="#000000" font-family="sans-serif" font-size="13" lengthAdjust="spacing" textLength="7" x="1055.2665" y="640.1445">1</text></g><!--link Repositories to AgencyRepository--><g id="link_Repositories_AgencyRepository"><path codeLine="164" d="M726.93,578.87 C674.63,604.71 614.18,634.59 568.67,657.07 " fill="none" id="Repositories-to-AgencyRepository" style="stroke:#181818;stroke-width:1.0;"/><polygon fill="#181818" points="564.04,659.36,573.8809,658.9631,568.5235,657.1468,570.3397,651.7895,564.04,659.36" style="stroke:#181818;stroke-width:1.0;"/><text fill="#000000" font-family="sans-serif" font-size="13" lengthAdjust="spacing" textLength="7" x="569.7326" y="648.4465">1</text></g><!--link AgencyRepository to Agency--><g id="link_AgencyRepository_Agency"><path codeLine="165" d="M481.1,725.67 C471.42,743.06 458.69,765.95 445.13,790.3 " fill="none" id="AgencyRepository-to-Agency" style="stroke:#181818;stroke-width:1.0;"/><polygon fill="#181818" points="442.59,794.87,450.4656,788.9561,445.0243,790.5026,443.4778,785.0612,442.59,794.87" style="stroke:#181818;stroke-width:1.0;"/><text fill="#000000" font-family="sans-serif" font-size="13" lengthAdjust="spacing" textLength="5" x="441.6681" y="784.3616">*</text></g><!--link Agency to Announcement--><g id="link_Agency_Announcement"><path codeLine="166" d="M347.3,1090.37 C340.62,1162.03 334,1233 334,1233 C334,1233 334,1387 334,1387 C334,1387 437,1614.65 485.41,1721.65 " fill="none" id="Agency-to-Announcement" style="stroke:#181818;stroke-width:1.0;"/><polygon fill="#181818" points="487.53,1726.34,487.4612,1716.4914,485.4675,1721.7852,480.1736,1719.7914,487.53,1726.34" style="stroke:#181818;stroke-width:1.0;"/><text fill="#000000" font-family="sans-serif" font-size="13" lengthAdjust="spacing" textLength="7" x="339.5206" y="1110.9466">1</text><text fill="#000000" font-family="sans-serif" font-size="13" lengthAdjust="spacing" textLength="5" x="479.0186" y="1715.6229">*</text></g><!--link Announcement to Agent--><g id="link_Announcement_Agent"><path codeLine="168" d="M446.71,1827.6 C408.64,1857.43 359.58,1895.88 317.58,1928.8 " fill="none" id="Announcement-to-Agent" style="stroke:#181818;stroke-width:1.0;"/><polygon fill="#181818" points="313.53,1931.97,323.0785,1929.5564,317.4621,1928.8815,318.137,1923.2651,313.53,1931.97" style="stroke:#181818;stroke-width:1.0;"/><text fill="#000000" font-family="sans-serif" font-size="13" lengthAdjust="spacing" textLength="85" x="387" y="1889.4951">responsibleFor</text><text fill="#000000" font-family="sans-serif" font-size="13" lengthAdjust="spacing" textLength="5" x="432.8695" y="1849.0047">*</text><text fill="#000000" font-family="sans-serif" font-size="13" lengthAdjust="spacing" textLength="7" x="315.502" y="1921.166">1</text></g><!--link CommissionTypeRepository to CommissionType--><g id="link_CommissionTypeRepository_CommissionType"><path codeLine="169" d="M808.36,734.05 C821.85,859.52 862,1233 862,1233 C862,1233 862,1387 862,1387 C862,1387 860.72,1398.28 859.18,1411.82 " fill="none" id="CommissionTypeRepository-to-CommissionType" style="stroke:#181818;stroke-width:1.0;"/><polygon fill="#181818" points="858.61,1416.9,863.6116,1408.4156,859.181,1411.9327,855.6639,1407.5021,858.61,1416.9" style="stroke:#181818;stroke-width:1.0;"/><text fill="#000000" font-family="sans-serif" font-size="13" lengthAdjust="spacing" textLength="5" x="853.9595" y="1406.1911">*</text></g><!--reverse link CommissionType to Commission--><g id="link_CommissionType_Commission"><path codeLine="170" d="M841.82,1505.08 C814.56,1607.1 751,1845 751,1845 C751,1845 651.63,1912.71 584.67,1958.34 " fill="none" id="CommissionType-backto-Commission" style="stroke:#181818;stroke-width:1.0;"/><polygon fill="#181818" points="843.17,1500.03,836.9889,1507.6977,841.8835,1504.8616,844.7196,1509.7562,843.17,1500.03" style="stroke:#181818;stroke-width:1.0;"/><text fill="#000000" font-family="sans-serif" font-size="13" lengthAdjust="spacing" textLength="79" x="800" y="1675.4951">isCategorized</text><text fill="#000000" font-family="sans-serif" font-size="13" lengthAdjust="spacing" textLength="7" x="833.7966" y="1521.7395">1</text></g><!--link Announcement to Commission--><g id="link_Announcement_Commission"><path codeLine="171" d="M513.37,1827.6 C515.92,1865.2 519.4,1916.48 521.89,1953.14 " fill="none" id="Announcement-to-Commission" style="stroke:#181818;stroke-width:1.0;"/><polygon fill="#181818" points="522.25,1958.44,525.6231,1949.1868,521.907,1953.4518,517.642,1949.7356,522.25,1958.44" style="stroke:#181818;stroke-width:1.0;"/><text fill="#000000" font-family="sans-serif" font-size="13" lengthAdjust="spacing" textLength="7" x="514.2148" y="1947.7377">1</text></g><!--reverse link Request to Announcement--><g id="link_Request_Announcement"><path codeLine="172" d="M582.65,1392.12 C564.39,1488.6 534.49,1646.6 519.37,1726.47 " fill="none" id="Request-backto-Announcement" style="stroke:#181818;stroke-width:1.0;"/><polygon fill="#181818" points="583.62,1387,578.0185,1395.1008,582.6917,1391.9131,585.8794,1396.5862,583.62,1387" style="stroke:#181818;stroke-width:1.0;"/><text fill="#000000" font-family="sans-serif" font-size="13" lengthAdjust="spacing" textLength="64" x="557" y="1585.9951">isBasedOn</text><text fill="#000000" font-family="sans-serif" font-size="13" lengthAdjust="spacing" textLength="7" x="575.0276" y="1408.0964">1</text></g><!--link Request to Property--><g id="link_Request_Property"><path codeLine="173" d="M633.64,1387.25 C684.02,1495.04 770,1679 770,1679 C770,1679 863.39,1699.31 964.71,1721.35 " fill="none" id="Request-to-Property" style="stroke:#181818;stroke-width:1.0;"/><polygon fill="#181818" points="969.84,1722.46,961.8895,1716.6471,964.9531,1721.4026,960.1976,1724.4662,969.84,1722.46" style="stroke:#181818;stroke-width:1.0;"/><text fill="#000000" font-family="sans-serif" font-size="13" lengthAdjust="spacing" textLength="7" x="954.648" y="1717.908">1</text></g><!--link Agency to Agent--><g id="link_Agency_Agent"><path codeLine="174" d="M307.67,1090.06 C270.67,1191.74 228,1309 228,1309 C228,1309 228,1309 228,1778 C228,1778 228,1861.98 228,1926.41 " fill="none" id="Agency-to-Agent" style="stroke:#181818;stroke-width:1.0;"/><polygon fill="#181818" points="228,1931.79,232,1922.79,228,1926.79,224,1922.79,228,1931.79" style="stroke:#181818;stroke-width:1.0;"/></g><!--link PropertyTypeRepository to PropertyType--><g id="link_PropertyTypeRepository_PropertyType"><path codeLine="175" d="M1150,734.13 C1150,820.92 1150,1023.91 1150,1114.93 " fill="none" id="PropertyTypeRepository-to-PropertyType" style="stroke:#181818;stroke-width:1.0;"/><polygon fill="#181818" points="1150,1119.97,1154,1110.97,1150,1114.97,1146,1110.97,1150,1119.97" style="stroke:#181818;stroke-width:1.0;"/><text fill="#000000" font-family="sans-serif" font-size="13" lengthAdjust="spacing" textLength="7" x="1142.4203" y="755.8561">1</text><text fill="#000000" font-family="sans-serif" font-size="13" lengthAdjust="spacing" textLength="5" x="1144.5859" y="1109.2727">*</text></g><!--reverse link PropertyType to Property--><g id="link_PropertyType_Property"><path codeLine="176" d="M1153.53,1208.39 C1162.59,1326.36 1186,1631 1186,1631 C1186,1631 1194.22,1670.73 1202.05,1708.59 " fill="none" id="PropertyType-backto-Property" style="stroke:#181818;stroke-width:1.0;"/><polygon fill="#181818" points="1153.13,1203.26,1149.8361,1212.5417,1153.5157,1208.2451,1157.8123,1211.9247,1153.13,1203.26" style="stroke:#181818;stroke-width:1.0;"/><text fill="#000000" font-family="sans-serif" font-size="13" lengthAdjust="spacing" textLength="7" x="1146.071" y="1224.6962">1</text><text fill="#000000" font-family="sans-serif" font-size="13" lengthAdjust="spacing" textLength="5" x="1195.3536" y="1698.221">*</text></g><!--link Property to Location--><g id="link_Property_Location"><path codeLine="177" d="M1223.6,1845.21 C1226.19,1868.09 1229.11,1893.91 1231.81,1917.77 " fill="none" id="Property-to-Location" style="stroke:#181818;stroke-width:1.0;"/><polygon fill="#181818" points="1232.38,1922.83,1235.3528,1913.4405,1231.8231,1917.8611,1227.4025,1914.3315,1232.38,1922.83" style="stroke:#181818;stroke-width:1.0;"/><text fill="#000000" font-family="sans-serif" font-size="13" lengthAdjust="spacing" textLength="69" x="1229" y="1889.4951">hasAddress</text><text fill="#000000" font-family="sans-serif" font-size="13" lengthAdjust="spacing" textLength="7" x="1224.2248" y="1912.2405">1</text></g><!--link Property to Photograph--><g id="link_Property_Photograph"><path codeLine="178" d="M1311.93,1845.19 C1366.07,1883.12 1423,1923 1423,1923 C1423,1923 1440.57,1938.17 1460,1954.96 " fill="none" id="Property-to-Photograph" style="stroke:#181818;stroke-width:1.0;"/><polygon fill="#181818" points="1463.91,1958.33,1459.7157,1949.4189,1460.1268,1955.0608,1454.485,1955.4719,1463.91,1958.33" style="stroke:#181818;stroke-width:1.0;"/><text fill="#000000" font-family="sans-serif" font-size="13" lengthAdjust="spacing" textLength="70" x="1379" y="1889.4951">isVisualized</text><text fill="#000000" font-family="sans-serif" font-size="13" lengthAdjust="spacing" textLength="7" x="1448.531" y="1947.6095">1</text></g><!--link Property to AvailableEquipment--><g id="link_Property_AvailableEquipment"><path codeLine="179" d="M1114.43,1845.21 C1060.22,1881.08 995.07,1924.18 947.57,1955.62 " fill="none" id="Property-to-AvailableEquipment" style="stroke:#181818;stroke-width:1.0;"/><polygon fill="#181818" points="943.31,1958.43,953.0238,1956.8044,947.4812,1955.673,948.6126,1950.1304,943.31,1958.43" style="stroke:#181818;stroke-width:1.0;"/><text fill="#000000" font-family="sans-serif" font-size="13" lengthAdjust="spacing" textLength="48" x="1069" y="1889.4951">includes</text><text fill="#000000" font-family="sans-serif" font-size="13" lengthAdjust="spacing" textLength="7" x="945.8848" y="1947.7261">1</text></g><!--link Agency to Request--><g id="link_Agency_Request"><path codeLine="180" d="M456.03,1090.06 C486.66,1137.29 519.47,1187.89 545.82,1228.53 " fill="none" id="Agency-to-Request" style="stroke:#181818;stroke-width:1.0;"/><polygon fill="#181818" points="548.67,1232.93,547.1061,1223.2061,545.9395,1228.7414,540.4043,1227.5749,548.67,1232.93" style="stroke:#181818;stroke-width:1.0;"/><text fill="#000000" font-family="sans-serif" font-size="13" lengthAdjust="spacing" textLength="78" x="529" y="1166.9951">isAssignedTo</text><text fill="#000000" font-family="sans-serif" font-size="13" lengthAdjust="spacing" textLength="5" x="538.568" y="1222.0853">*</text></g><!--link Request to Business--><g id="link_Request_Business"><path codeLine="181" d="M844.15,1310 C856.85,1310 865.33,1310 865.33,1310 C865.33,1310 907.86,1310 944.94,1310 " fill="none" id="Request-to-Business" style="stroke:#181818;stroke-width:1.0;"/><polygon fill="#181818" points="950.37,1310,941.37,1306,945.37,1310,941.37,1314,950.37,1310" style="stroke:#181818;stroke-width:1.0;"/><text fill="#000000" font-family="sans-serif" font-size="13" lengthAdjust="spacing" textLength="7" x="935.3876" y="1306.3269">1</text></g><!--link Residence to Property--><g id="link_Residence_Property"><path codeLine="182" d="M1281.57,1631.08 C1273.38,1649.18 1263.87,1670.2 1254.67,1690.53 " fill="none" id="Residence-to-Property" style="stroke:#181818;stroke-width:1.0;"/><polygon fill="none" points="1260.98,1693.56,1246.36,1708.89,1248.23,1687.78,1260.98,1693.56" style="stroke:#181818;stroke-width:1.0;"/></g><!--link House to Residence--><g id="link_House_Residence"><path codeLine="183" d="M1304,1351.78 C1304,1393.59 1304,1459.42 1304,1509.57 " fill="none" id="House-to-Residence" style="stroke:#181818;stroke-width:1.0;"/><polygon fill="none" points="1311,1509.64,1304,1529.64,1297,1509.64,1311,1509.64" style="stroke:#181818;stroke-width:1.0;"/></g><!--link House to SunExposure--><g id="link_House_SunExposure"><path codeLine="184" d="M1401.74,1310 C1416.87,1310 1431.33,1310 1431.33,1310 C1431.33,1310 1431.46,1310 1431.71,1310 " fill="none" id="House-to-SunExposure" style="stroke:#181818;stroke-width:1.0;"/><polygon fill="#181818" points="1436.76,1310,1427.76,1306,1431.76,1310,1427.76,1314,1436.76,1310" style="stroke:#181818;stroke-width:1.0;"/><text fill="#000000" font-family="sans-serif" font-size="13" lengthAdjust="spacing" textLength="7" x="1421.8496" y="1306.4646">1</text></g><!--SRC=[tLXDKziu6BxdLsXw8InEP_Uwqs4c2Ud030CCWUw5Yx25ewaZkPBS4dRxt_jQalLbEqctUreEGFH-FthULr9Ev6VAQYpm5cqvu_b6y2r1IZHauYKrpZ_ZagpLhY98a5nXLbQXWjpWWd-Zh4Glk9AXfAACg5rDKCshNVjXSZ8Wv4BnIM2LLrZAkLA2FZUANEMShUaRGRzF9YSLUL58SIHekL6ee6qwbBF9HDkWULrNDCVjqff8sKh-dY3uEKDImNAEIgAk6FpFSZ8zjI9OMpP24AOU9H7M4AJVhTSxmMiYrCxwcg4BtZm35WKrZfPKxPPWBOXrs1bCQ_lF0vIPIL0WwWPlIOPoCCcq0q5pbUdiIFR4tcYzv0N91dndg0RTzi-6AruAN6yorcoVYLYGGd2-1NFp-GuBmB9SmyQHZBo29mAU5bYIBNZAADlWPwemb73DNo2uzOBLnhf1-2kcLQkm-jBGMbiXsR3LQyrb8uY7vfeRj1qqQoW8YE1hZTVRkkEL3eFK7l2mIrTCaP88PB6n67UHfuTXjOR1XZe4NTxNOFF113z7ZQ3TJZhDAIosIjxBl0VIiBU2o5pGMiDanBWe-iRJFkXTF1imOAUZDN2tNLvjmNOQwCvBi4V9hZ2_7nseDIZNq81BB8eRpOD4GU7NQDsw8ct0UL48o2TrkU6CM1kV3sEy0HPk1zB2UKvgpVOBl-k-ATj5rwkXdoakDJDpljrI3Olki-3p9rmri238buQ4MxTq6YwNmlHqOckZUlrfwZmExaFScvXfOzXKWaAjW7zZTXjjJEjWwWNj1FYVpXFVLB2b-Sxj2hMSeaKoDOYa9SD1Jutpqaf2MWPz6F4f-71gTRxYYXO0va558AnkkiNEDAFEvDH7wlRJaJ7sFoW-GvZjjDTBB7jkpr0DdALoysjDOLpbWWHPZ98E7MOTSgJ3u7EGUa29G-GRe1uwpBsEievynnnblQ7GLdfFG84gBZeocdj2fDFEv-WM4KaNkmlFqcd0sFxDOZnWg9662sLxWqMzDHp7o1Q6R17JdBapf4Iw1WqNmzpy9Glz6IcDeUNJ6YjnM2CjAZm4x_hjiUH0G5vLC5EwwlTgJOSpoCQIpz9yzhLghoVZfhtm5uSCZNLagFJ4_gFk_1VD-SH-_cGut9pXR1eyXFLGId0yFRPVHvhBp_AFy1xoxm4dExBn_4NcL-P2UeD8ZxwpI7lONvp0OO-n_aYEVK8_Na5JTV958-611wTmychIt0gkIP8MBMcSMdUDZBaoB3Hq79I5v7JHBdaZVQG5vnN1h7-i9FA4nk2DG0oqzaG5bpUtzm-Na_Nj8_p-QxL-cApcyEkxTZKCrVlp_QDdp3GOOUzdvz6hu3YBWLToQzXVHeFACD2fdUwZTc3uxeztFvqRcFNEYiFr38_e8ut71lcnM2RZtbmjewCoAIg5BzQrmEtDQj1Y3mY3-ht4zLQcDmIj_Lkd7UXe7xEPamS86GYY1r-h4WPM00BSq6lE98Mk-iWDsKTlO2vECiZwHZh4XzaiVE81u7891qW92BoHef_U0EmME7qRTZuZezPhEp2AsrZP9XjiIGYRWKnZO1WsV0Cqw9gQeyCWjN6vXPgHbg-k-ye4KjzW6JwI-hh-YmzTw2Sg6tYeTEZrzVlVPsYUvrLJs3vs09YgEhXQxtFPdY-aUE0HajQrEqYCp9uNuEYVyxXYFTtDkZzM0e5n5uxj7m00]--></g></svg>