<?xml version="1.0" encoding="UTF-8" standalone="no"?><svg xmlns="http://www.w3.org/2000/svg" xmlns:xlink="http://www.w3.org/1999/xlink" contentStyleType="text/css" height="2213px" preserveAspectRatio="none" style="width:1709px;height:2213px;background:#FFFFFF;" version="1.1" viewBox="0 0 1709 2213" width="1709px" zoomAndPan="magnify"><defs/><g><!--class AplicationSession--><g id="elem_AplicationSession"><rect codeLine="11" fill="#F1F1F1" height="83.2188" id="AplicationSession" rx="2.5" ry="2.5" style="stroke:#181818;stroke-width:0.5;" width="177" x="327" y="345"/><ellipse cx="357.3" cy="361" fill="#ADD1B2" rx="11" ry="11" style="stroke:#181818;stroke-width:1.0;"/><path d="M360.0656,356.875 Q360.2219,356.6563 360.4094,356.5469 Q360.5969,356.4375 360.8156,356.4375 Q361.1906,356.4375 361.425,356.7031 Q361.6594,356.9531 361.6594,357.5625 L361.6594,359.0156 Q361.6594,359.625 361.425,359.8906 Q361.1906,360.1563 360.8156,360.1563 Q360.4719,360.1563 360.2688,359.9531 Q360.0656,359.7656 359.9563,359.25 Q359.9094,358.8906 359.7219,358.7031 Q359.3938,358.3281 358.7844,358.1094 Q358.175,357.8906 357.55,357.8906 Q356.7844,357.8906 356.1438,358.2188 Q355.5188,358.5469 355.0188,359.2969 Q354.5344,360.0469 354.5344,361.0781 L354.5344,362.1719 Q354.5344,363.4063 355.425,364.2344 Q356.3156,365.0469 357.9094,365.0469 Q358.8469,365.0469 359.5031,364.7969 Q359.8938,364.6406 360.3156,364.2031 Q360.5813,363.9375 360.7219,363.8594 Q360.8781,363.7813 361.0813,363.7813 Q361.4094,363.7813 361.6594,364.0469 Q361.925,364.2969 361.925,364.6406 Q361.925,364.9844 361.5813,365.3906 Q361.0813,365.9688 360.2844,366.2969 Q359.2063,366.75 357.9094,366.75 Q356.3938,366.75 355.1906,366.125 Q354.2063,365.625 353.5188,364.5625 Q352.8313,363.4844 352.8313,362.2031 L352.8313,361.0469 Q352.8313,359.7188 353.4406,358.5781 Q354.0656,357.4219 355.1594,356.8125 Q356.2531,356.1875 357.4875,356.1875 Q358.2219,356.1875 358.8625,356.3594 Q359.5188,356.5156 360.0656,356.875 Z " fill="#000000"/><text fill="#000000" font-family="sans-serif" font-size="14" lengthAdjust="spacing" textLength="111" x="374.7" y="366.7285">AplicationSession</text><line style="stroke:#181818;stroke-width:0.5;" x1="328" x2="503" y1="377" y2="377"/><line style="stroke:#181818;stroke-width:0.5;" x1="328" x2="503" y1="385" y2="385"/><text fill="#000000" font-family="sans-serif" font-size="14" lengthAdjust="spacing" textLength="128" x="333" y="403.5332">+static getInstance()</text><text fill="#000000" font-family="sans-serif" font-size="14" lengthAdjust="spacing" textLength="165" x="333" y="421.1426">+getCurrentUserSession()</text></g><!--class Property--><g id="elem_Property"><rect codeLine="16" fill="#F1F1F1" height="241.7031" id="Property" rx="2.5" ry="2.5" style="stroke:#181818;stroke-width:0.5;" width="506" x="369.5" y="1168"/><ellipse cx="591.25" cy="1184" fill="#ADD1B2" rx="11" ry="11" style="stroke:#181818;stroke-width:1.0;"/><path d="M594.0156,1179.875 Q594.1719,1179.6563 594.3594,1179.5469 Q594.5469,1179.4375 594.7656,1179.4375 Q595.1406,1179.4375 595.375,1179.7031 Q595.6094,1179.9531 595.6094,1180.5625 L595.6094,1182.0156 Q595.6094,1182.625 595.375,1182.8906 Q595.1406,1183.1563 594.7656,1183.1563 Q594.4219,1183.1563 594.2188,1182.9531 Q594.0156,1182.7656 593.9063,1182.25 Q593.8594,1181.8906 593.6719,1181.7031 Q593.3438,1181.3281 592.7344,1181.1094 Q592.125,1180.8906 591.5,1180.8906 Q590.7344,1180.8906 590.0938,1181.2188 Q589.4688,1181.5469 588.9688,1182.2969 Q588.4844,1183.0469 588.4844,1184.0781 L588.4844,1185.1719 Q588.4844,1186.4063 589.375,1187.2344 Q590.2656,1188.0469 591.8594,1188.0469 Q592.7969,1188.0469 593.4531,1187.7969 Q593.8438,1187.6406 594.2656,1187.2031 Q594.5313,1186.9375 594.6719,1186.8594 Q594.8281,1186.7813 595.0313,1186.7813 Q595.3594,1186.7813 595.6094,1187.0469 Q595.875,1187.2969 595.875,1187.6406 Q595.875,1187.9844 595.5313,1188.3906 Q595.0313,1188.9688 594.2344,1189.2969 Q593.1563,1189.75 591.8594,1189.75 Q590.3438,1189.75 589.1406,1189.125 Q588.1563,1188.625 587.4688,1187.5625 Q586.7813,1186.4844 586.7813,1185.2031 L586.7813,1184.0469 Q586.7813,1182.7188 587.3906,1181.5781 Q588.0156,1180.4219 589.1094,1179.8125 Q590.2031,1179.1875 591.4375,1179.1875 Q592.1719,1179.1875 592.8125,1179.3594 Q593.4688,1179.5156 594.0156,1179.875 Z " fill="#000000"/><text fill="#000000" font-family="sans-serif" font-size="14" lengthAdjust="spacing" textLength="54" x="611.75" y="1189.7285">Property</text><line style="stroke:#181818;stroke-width:0.5;" x1="370.5" x2="874.5" y1="1200" y2="1200"/><text fill="#000000" font-family="sans-serif" font-size="14" lengthAdjust="spacing" textLength="174" x="375.5" y="1218.5332">-Double distanceCityCentre</text><text fill="#000000" font-family="sans-serif" font-size="14" lengthAdjust="spacing" textLength="169" x="375.5" y="1236.1426">-Integer numberBathrooms</text><text fill="#000000" font-family="sans-serif" font-size="14" lengthAdjust="spacing" textLength="165" x="375.5" y="1253.752">-Integer numberBedrooms</text><text fill="#000000" font-family="sans-serif" font-size="14" lengthAdjust="spacing" textLength="196" x="375.5" y="1271.3613">-Integer numberParkingSpaces</text><text fill="#000000" font-family="sans-serif" font-size="14" lengthAdjust="spacing" textLength="183" x="375.5" y="1288.9707">-Boolean existenceBasement</text><text fill="#000000" font-family="sans-serif" font-size="14" lengthAdjust="spacing" textLength="154" x="375.5" y="1306.5801">-Boolean inhabitableLoft</text><text fill="#000000" font-family="sans-serif" font-size="14" lengthAdjust="spacing" textLength="128" x="375.5" y="1324.1895">-String sunExposure</text><line style="stroke:#181818;stroke-width:0.5;" x1="370.5" x2="874.5" y1="1331.2656" y2="1331.2656"/><text fill="#000000" font-family="sans-serif" font-size="14" lengthAdjust="spacing" textLength="349" x="375.5" y="1349.7988">+Property(propertyType,streetName, city, district, state,</text><text fill="#000000" font-family="sans-serif" font-size="14" lengthAdjust="spacing" textLength="419" x="375.5" y="1367.4082">zipCode, distanceCityCentre, price, photograph,numberBedrooms,</text><text fill="#000000" font-family="sans-serif" font-size="14" lengthAdjust="spacing" textLength="494" x="375.5" y="1385.0176">numberParkingSpaces,existenceBasement,inhabitableLoft, numberBathrooms,</text><text fill="#000000" font-family="sans-serif" font-size="14" lengthAdjust="spacing" textLength="218" x="379.5" y="1402.627">availableEquipment, sunExposure)</text></g><!--class Location--><g id="elem_Location"><rect codeLine="27" fill="#F1F1F1" height="153.6563" id="Location" rx="2.5" ry="2.5" style="stroke:#181818;stroke-width:0.5;" width="328" x="751.5" y="1571"/><ellipse cx="884.25" cy="1587" fill="#ADD1B2" rx="11" ry="11" style="stroke:#181818;stroke-width:1.0;"/><path d="M887.0156,1582.875 Q887.1719,1582.6563 887.3594,1582.5469 Q887.5469,1582.4375 887.7656,1582.4375 Q888.1406,1582.4375 888.375,1582.7031 Q888.6094,1582.9531 888.6094,1583.5625 L888.6094,1585.0156 Q888.6094,1585.625 888.375,1585.8906 Q888.1406,1586.1563 887.7656,1586.1563 Q887.4219,1586.1563 887.2188,1585.9531 Q887.0156,1585.7656 886.9063,1585.25 Q886.8594,1584.8906 886.6719,1584.7031 Q886.3438,1584.3281 885.7344,1584.1094 Q885.125,1583.8906 884.5,1583.8906 Q883.7344,1583.8906 883.0938,1584.2188 Q882.4688,1584.5469 881.9688,1585.2969 Q881.4844,1586.0469 881.4844,1587.0781 L881.4844,1588.1719 Q881.4844,1589.4063 882.375,1590.2344 Q883.2656,1591.0469 884.8594,1591.0469 Q885.7969,1591.0469 886.4531,1590.7969 Q886.8438,1590.6406 887.2656,1590.2031 Q887.5313,1589.9375 887.6719,1589.8594 Q887.8281,1589.7813 888.0313,1589.7813 Q888.3594,1589.7813 888.6094,1590.0469 Q888.875,1590.2969 888.875,1590.6406 Q888.875,1590.9844 888.5313,1591.3906 Q888.0313,1591.9688 887.2344,1592.2969 Q886.1563,1592.75 884.8594,1592.75 Q883.3438,1592.75 882.1406,1592.125 Q881.1563,1591.625 880.4688,1590.5625 Q879.7813,1589.4844 879.7813,1588.2031 L879.7813,1587.0469 Q879.7813,1585.7188 880.3906,1584.5781 Q881.0156,1583.4219 882.1094,1582.8125 Q883.2031,1582.1875 884.4375,1582.1875 Q885.1719,1582.1875 885.8125,1582.3594 Q886.4688,1582.5156 887.0156,1582.875 Z " fill="#000000"/><text fill="#000000" font-family="sans-serif" font-size="14" lengthAdjust="spacing" textLength="54" x="904.75" y="1592.7285">Location</text><line style="stroke:#181818;stroke-width:0.5;" x1="752.5" x2="1078.5" y1="1603" y2="1603"/><text fill="#000000" font-family="sans-serif" font-size="14" lengthAdjust="spacing" textLength="118" x="757.5" y="1621.5332">-String streetName</text><text fill="#000000" font-family="sans-serif" font-size="14" lengthAdjust="spacing" textLength="67" x="757.5" y="1639.1426">-String city</text><text fill="#000000" font-family="sans-serif" font-size="14" lengthAdjust="spacing" textLength="87" x="757.5" y="1656.752">-String district</text><text fill="#000000" font-family="sans-serif" font-size="14" lengthAdjust="spacing" textLength="77" x="757.5" y="1674.3613">-String state</text><text fill="#000000" font-family="sans-serif" font-size="14" lengthAdjust="spacing" textLength="104" x="757.5" y="1691.9707">-Integer zipCode</text><line style="stroke:#181818;stroke-width:0.5;" x1="752.5" x2="1078.5" y1="1699.0469" y2="1699.0469"/><text fill="#000000" font-family="sans-serif" font-size="14" lengthAdjust="spacing" textLength="316" x="757.5" y="1717.5801">+Location(streetName, city, district, state,zipCode)</text></g><!--class Photograph--><g id="elem_Photograph"><rect codeLine="36" fill="#F1F1F1" height="83.2188" id="Photograph" rx="2.5" ry="2.5" style="stroke:#181818;stroke-width:0.5;" width="158" x="279.5" y="1606.5"/><ellipse cx="317.9" cy="1622.5" fill="#ADD1B2" rx="11" ry="11" style="stroke:#181818;stroke-width:1.0;"/><path d="M320.6656,1618.375 Q320.8219,1618.1563 321.0094,1618.0469 Q321.1969,1617.9375 321.4156,1617.9375 Q321.7906,1617.9375 322.025,1618.2031 Q322.2594,1618.4531 322.2594,1619.0625 L322.2594,1620.5156 Q322.2594,1621.125 322.025,1621.3906 Q321.7906,1621.6563 321.4156,1621.6563 Q321.0719,1621.6563 320.8688,1621.4531 Q320.6656,1621.2656 320.5563,1620.75 Q320.5094,1620.3906 320.3219,1620.2031 Q319.9938,1619.8281 319.3844,1619.6094 Q318.775,1619.3906 318.15,1619.3906 Q317.3844,1619.3906 316.7438,1619.7188 Q316.1188,1620.0469 315.6188,1620.7969 Q315.1344,1621.5469 315.1344,1622.5781 L315.1344,1623.6719 Q315.1344,1624.9063 316.025,1625.7344 Q316.9156,1626.5469 318.5094,1626.5469 Q319.4469,1626.5469 320.1031,1626.2969 Q320.4938,1626.1406 320.9156,1625.7031 Q321.1813,1625.4375 321.3219,1625.3594 Q321.4781,1625.2813 321.6813,1625.2813 Q322.0094,1625.2813 322.2594,1625.5469 Q322.525,1625.7969 322.525,1626.1406 Q322.525,1626.4844 322.1813,1626.8906 Q321.6813,1627.4688 320.8844,1627.7969 Q319.8063,1628.25 318.5094,1628.25 Q316.9938,1628.25 315.7906,1627.625 Q314.8063,1627.125 314.1188,1626.0625 Q313.4313,1624.9844 313.4313,1623.7031 L313.4313,1622.5469 Q313.4313,1621.2188 314.0406,1620.0781 Q314.6656,1618.9219 315.7594,1618.3125 Q316.8531,1617.6875 318.0875,1617.6875 Q318.8219,1617.6875 319.4625,1617.8594 Q320.1188,1618.0156 320.6656,1618.375 Z " fill="#000000"/><text fill="#000000" font-family="sans-serif" font-size="14" lengthAdjust="spacing" textLength="74" x="337.1" y="1628.2285">Photograph</text><line style="stroke:#181818;stroke-width:0.5;" x1="280.5" x2="436.5" y1="1638.5" y2="1638.5"/><text fill="#000000" font-family="sans-serif" font-size="14" lengthAdjust="spacing" textLength="62" x="285.5" y="1657.0332">-String uri</text><line style="stroke:#181818;stroke-width:0.5;" x1="280.5" x2="436.5" y1="1664.1094" y2="1664.1094"/><text fill="#000000" font-family="sans-serif" font-size="14" lengthAdjust="spacing" textLength="146" x="285.5" y="1682.6426">-addPhotographUri(uri)</text></g><!--class AvailableEquipment--><g id="elem_AvailableEquipment"><rect codeLine="41" fill="#F1F1F1" height="83.2188" id="AvailableEquipment" rx="2.5" ry="2.5" style="stroke:#181818;stroke-width:0.5;" width="244" x="472.5" y="1606.5"/><ellipse cx="528.25" cy="1622.5" fill="#ADD1B2" rx="11" ry="11" style="stroke:#181818;stroke-width:1.0;"/><path d="M531.0156,1618.375 Q531.1719,1618.1563 531.3594,1618.0469 Q531.5469,1617.9375 531.7656,1617.9375 Q532.1406,1617.9375 532.375,1618.2031 Q532.6094,1618.4531 532.6094,1619.0625 L532.6094,1620.5156 Q532.6094,1621.125 532.375,1621.3906 Q532.1406,1621.6563 531.7656,1621.6563 Q531.4219,1621.6563 531.2188,1621.4531 Q531.0156,1621.2656 530.9063,1620.75 Q530.8594,1620.3906 530.6719,1620.2031 Q530.3438,1619.8281 529.7344,1619.6094 Q529.125,1619.3906 528.5,1619.3906 Q527.7344,1619.3906 527.0938,1619.7188 Q526.4688,1620.0469 525.9688,1620.7969 Q525.4844,1621.5469 525.4844,1622.5781 L525.4844,1623.6719 Q525.4844,1624.9063 526.375,1625.7344 Q527.2656,1626.5469 528.8594,1626.5469 Q529.7969,1626.5469 530.4531,1626.2969 Q530.8438,1626.1406 531.2656,1625.7031 Q531.5313,1625.4375 531.6719,1625.3594 Q531.8281,1625.2813 532.0313,1625.2813 Q532.3594,1625.2813 532.6094,1625.5469 Q532.875,1625.7969 532.875,1626.1406 Q532.875,1626.4844 532.5313,1626.8906 Q532.0313,1627.4688 531.2344,1627.7969 Q530.1563,1628.25 528.8594,1628.25 Q527.3438,1628.25 526.1406,1627.625 Q525.1563,1627.125 524.4688,1626.0625 Q523.7813,1624.9844 523.7813,1623.7031 L523.7813,1622.5469 Q523.7813,1621.2188 524.3906,1620.0781 Q525.0156,1618.9219 526.1094,1618.3125 Q527.2031,1617.6875 528.4375,1617.6875 Q529.1719,1617.6875 529.8125,1617.8594 Q530.4688,1618.0156 531.0156,1618.375 Z " fill="#000000"/><text fill="#000000" font-family="sans-serif" font-size="14" lengthAdjust="spacing" textLength="124" x="548.75" y="1628.2285">AvailableEquipment</text><line style="stroke:#181818;stroke-width:0.5;" x1="473.5" x2="715.5" y1="1638.5" y2="1638.5"/><text fill="#000000" font-family="sans-serif" font-size="14" lengthAdjust="spacing" textLength="115" x="478.5" y="1657.0332">-String description</text><line style="stroke:#181818;stroke-width:0.5;" x1="473.5" x2="715.5" y1="1664.1094" y2="1664.1094"/><text fill="#000000" font-family="sans-serif" font-size="14" lengthAdjust="spacing" textLength="232" x="478.5" y="1682.6426">-addAvailableEquipment(description)</text></g><!--class UserSession--><g id="elem_UserSession"><rect codeLine="47" fill="#F1F1F1" height="65.6094" id="UserSession" rx="2.5" ry="2.5" style="stroke:#181818;stroke-width:0.5;" width="113" x="282" y="524"/><ellipse cx="297.9" cy="540" fill="#ADD1B2" rx="11" ry="11" style="stroke:#181818;stroke-width:1.0;"/><path d="M300.6656,535.875 Q300.8219,535.6563 301.0094,535.5469 Q301.1969,535.4375 301.4156,535.4375 Q301.7906,535.4375 302.025,535.7031 Q302.2594,535.9531 302.2594,536.5625 L302.2594,538.0156 Q302.2594,538.625 302.025,538.8906 Q301.7906,539.1563 301.4156,539.1563 Q301.0719,539.1563 300.8688,538.9531 Q300.6656,538.7656 300.5563,538.25 Q300.5094,537.8906 300.3219,537.7031 Q299.9938,537.3281 299.3844,537.1094 Q298.775,536.8906 298.15,536.8906 Q297.3844,536.8906 296.7438,537.2188 Q296.1188,537.5469 295.6188,538.2969 Q295.1344,539.0469 295.1344,540.0781 L295.1344,541.1719 Q295.1344,542.4063 296.025,543.2344 Q296.9156,544.0469 298.5094,544.0469 Q299.4469,544.0469 300.1031,543.7969 Q300.4938,543.6406 300.9156,543.2031 Q301.1813,542.9375 301.3219,542.8594 Q301.4781,542.7813 301.6813,542.7813 Q302.0094,542.7813 302.2594,543.0469 Q302.525,543.2969 302.525,543.6406 Q302.525,543.9844 302.1813,544.3906 Q301.6813,544.9688 300.8844,545.2969 Q299.8063,545.75 298.5094,545.75 Q296.9938,545.75 295.7906,545.125 Q294.8063,544.625 294.1188,543.5625 Q293.4313,542.4844 293.4313,541.2031 L293.4313,540.0469 Q293.4313,538.7188 294.0406,537.5781 Q294.6656,536.4219 295.7594,535.8125 Q296.8531,535.1875 298.0875,535.1875 Q298.8219,535.1875 299.4625,535.3594 Q300.1188,535.5156 300.6656,535.875 Z " fill="#000000"/><text fill="#000000" font-family="sans-serif" font-size="14" lengthAdjust="spacing" textLength="79" x="312.1" y="545.7285">UserSession</text><line style="stroke:#181818;stroke-width:0.5;" x1="283" x2="394" y1="556" y2="556"/><line style="stroke:#181818;stroke-width:0.5;" x1="283" x2="394" y1="564" y2="564"/><text fill="#000000" font-family="sans-serif" font-size="14" lengthAdjust="spacing" textLength="101" x="288" y="582.5332">+getUserEmail()</text></g><!--class Agent--><g id="elem_Agent"><rect codeLine="52" fill="#F1F1F1" height="136.0469" id="Agent" rx="2.5" ry="2.5" style="stroke:#181818;stroke-width:0.5;" width="200" x="1269.5" y="2070"/><ellipse cx="1346.75" cy="2086" fill="#ADD1B2" rx="11" ry="11" style="stroke:#181818;stroke-width:1.0;"/><path d="M1349.5156,2081.875 Q1349.6719,2081.6563 1349.8594,2081.5469 Q1350.0469,2081.4375 1350.2656,2081.4375 Q1350.6406,2081.4375 1350.875,2081.7031 Q1351.1094,2081.9531 1351.1094,2082.5625 L1351.1094,2084.0156 Q1351.1094,2084.625 1350.875,2084.8906 Q1350.6406,2085.1563 1350.2656,2085.1563 Q1349.9219,2085.1563 1349.7188,2084.9531 Q1349.5156,2084.7656 1349.4063,2084.25 Q1349.3594,2083.8906 1349.1719,2083.7031 Q1348.8438,2083.3281 1348.2344,2083.1094 Q1347.625,2082.8906 1347,2082.8906 Q1346.2344,2082.8906 1345.5938,2083.2188 Q1344.9688,2083.5469 1344.4688,2084.2969 Q1343.9844,2085.0469 1343.9844,2086.0781 L1343.9844,2087.1719 Q1343.9844,2088.4063 1344.875,2089.2344 Q1345.7656,2090.0469 1347.3594,2090.0469 Q1348.2969,2090.0469 1348.9531,2089.7969 Q1349.3438,2089.6406 1349.7656,2089.2031 Q1350.0313,2088.9375 1350.1719,2088.8594 Q1350.3281,2088.7813 1350.5313,2088.7813 Q1350.8594,2088.7813 1351.1094,2089.0469 Q1351.375,2089.2969 1351.375,2089.6406 Q1351.375,2089.9844 1351.0313,2090.3906 Q1350.5313,2090.9688 1349.7344,2091.2969 Q1348.6563,2091.75 1347.3594,2091.75 Q1345.8438,2091.75 1344.6406,2091.125 Q1343.6563,2090.625 1342.9688,2089.5625 Q1342.2813,2088.4844 1342.2813,2087.2031 L1342.2813,2086.0469 Q1342.2813,2084.7188 1342.8906,2083.5781 Q1343.5156,2082.4219 1344.6094,2081.8125 Q1345.7031,2081.1875 1346.9375,2081.1875 Q1347.6719,2081.1875 1348.3125,2081.3594 Q1348.9688,2081.5156 1349.5156,2081.875 Z " fill="#000000"/><text fill="#000000" font-family="sans-serif" font-size="14" lengthAdjust="spacing" textLength="37" x="1367.25" y="2091.7285">Agent</text><line style="stroke:#181818;stroke-width:0.5;" x1="1270.5" x2="1468.5" y1="2102" y2="2102"/><text fill="#000000" font-family="sans-serif" font-size="14" lengthAdjust="spacing" textLength="81" x="1275.5" y="2120.5332">-String name</text><text fill="#000000" font-family="sans-serif" font-size="14" lengthAdjust="spacing" textLength="188" x="1275.5" y="2138.1426">-Integer passportCardNumber</text><text fill="#000000" font-family="sans-serif" font-size="14" lengthAdjust="spacing" textLength="120" x="1275.5" y="2155.752">-Integer taxNumber</text><text fill="#000000" font-family="sans-serif" font-size="14" lengthAdjust="spacing" textLength="123" x="1275.5" y="2173.3613">-String emailAdress</text><text fill="#000000" font-family="sans-serif" font-size="14" lengthAdjust="spacing" textLength="142" x="1275.5" y="2190.9707">-Integer phoneNumber</text><line style="stroke:#181818;stroke-width:0.5;" x1="1270.5" x2="1468.5" y1="2198.0469" y2="2198.0469"/></g><!--class Announcement--><g id="elem_Announcement"><rect codeLine="60" fill="#F1F1F1" height="188.875" id="Announcement" rx="2.5" ry="2.5" style="stroke:#181818;stroke-width:0.5;" width="708" x="737.5" y="1803"/><ellipse cx="1039.75" cy="1819" fill="#ADD1B2" rx="11" ry="11" style="stroke:#181818;stroke-width:1.0;"/><path d="M1042.5156,1814.875 Q1042.6719,1814.6563 1042.8594,1814.5469 Q1043.0469,1814.4375 1043.2656,1814.4375 Q1043.6406,1814.4375 1043.875,1814.7031 Q1044.1094,1814.9531 1044.1094,1815.5625 L1044.1094,1817.0156 Q1044.1094,1817.625 1043.875,1817.8906 Q1043.6406,1818.1563 1043.2656,1818.1563 Q1042.9219,1818.1563 1042.7188,1817.9531 Q1042.5156,1817.7656 1042.4063,1817.25 Q1042.3594,1816.8906 1042.1719,1816.7031 Q1041.8438,1816.3281 1041.2344,1816.1094 Q1040.625,1815.8906 1040,1815.8906 Q1039.2344,1815.8906 1038.5938,1816.2188 Q1037.9688,1816.5469 1037.4688,1817.2969 Q1036.9844,1818.0469 1036.9844,1819.0781 L1036.9844,1820.1719 Q1036.9844,1821.4063 1037.875,1822.2344 Q1038.7656,1823.0469 1040.3594,1823.0469 Q1041.2969,1823.0469 1041.9531,1822.7969 Q1042.3438,1822.6406 1042.7656,1822.2031 Q1043.0313,1821.9375 1043.1719,1821.8594 Q1043.3281,1821.7813 1043.5313,1821.7813 Q1043.8594,1821.7813 1044.1094,1822.0469 Q1044.375,1822.2969 1044.375,1822.6406 Q1044.375,1822.9844 1044.0313,1823.3906 Q1043.5313,1823.9688 1042.7344,1824.2969 Q1041.6563,1824.75 1040.3594,1824.75 Q1038.8438,1824.75 1037.6406,1824.125 Q1036.6563,1823.625 1035.9688,1822.5625 Q1035.2813,1821.4844 1035.2813,1820.2031 L1035.2813,1819.0469 Q1035.2813,1817.7188 1035.8906,1816.5781 Q1036.5156,1815.4219 1037.6094,1814.8125 Q1038.7031,1814.1875 1039.9375,1814.1875 Q1040.6719,1814.1875 1041.3125,1814.3594 Q1041.9688,1814.5156 1042.5156,1814.875 Z " fill="#000000"/><text fill="#000000" font-family="sans-serif" font-size="14" lengthAdjust="spacing" textLength="95" x="1060.25" y="1824.7285">Announcement</text><line style="stroke:#181818;stroke-width:0.5;" x1="738.5" x2="1444.5" y1="1835" y2="1835"/><text fill="#000000" font-family="sans-serif" font-size="14" lengthAdjust="spacing" textLength="149" x="743.5" y="1853.5332">-String acceptanceDate</text><line style="stroke:#181818;stroke-width:0.5;" x1="738.5" x2="1444.5" y1="1860.6094" y2="1860.6094"/><text fill="#000000" font-family="sans-serif" font-size="14" lengthAdjust="spacing" textLength="435" x="743.5" y="1879.1426">+Announcement(agent, commissionType, commissionValue, request)</text><text fill="#000000" font-family="sans-serif" font-size="14" lengthAdjust="spacing" textLength="696" x="743.5" y="1896.752">+createRequest(ownerEmail, propertyType, streetName, city, district, state, zipCode, area, distanceCityCentre,</text><text fill="#000000" font-family="sans-serif" font-size="14" lengthAdjust="spacing" textLength="606" x="747.5" y="1914.3613">price, photograph,numberBedrooms,numberParkingSpaces, existenceBasement,inhabitableLoft,</text><text fill="#000000" font-family="sans-serif" font-size="14" lengthAdjust="spacing" textLength="342" x="743.5" y="1931.9707">numberBathrooms, availableEquipment, sunExposure)</text><text fill="#000000" font-family="sans-serif" font-size="14" lengthAdjust="spacing" textLength="113" x="743.5" y="1949.5801">-getCurrentDate()</text><text fill="#000000" font-family="sans-serif" font-size="14" lengthAdjust="spacing" textLength="140" x="743.5" y="1967.1895">-addRequest(request)</text><text fill="#000000" font-family="sans-serif" font-size="14" lengthAdjust="spacing" textLength="165" x="743.5" y="1984.7988">-validateRequest(request)</text></g><!--class Commission--><g id="elem_Commission"><rect codeLine="69" fill="#F1F1F1" height="83.2188" id="Commission" rx="2.5" ry="2.5" style="stroke:#181818;stroke-width:0.5;" width="324" x="475.5" y="2096.5"/><ellipse cx="595.25" cy="2112.5" fill="#ADD1B2" rx="11" ry="11" style="stroke:#181818;stroke-width:1.0;"/><path d="M598.0156,2108.375 Q598.1719,2108.1563 598.3594,2108.0469 Q598.5469,2107.9375 598.7656,2107.9375 Q599.1406,2107.9375 599.375,2108.2031 Q599.6094,2108.4531 599.6094,2109.0625 L599.6094,2110.5156 Q599.6094,2111.125 599.375,2111.3906 Q599.1406,2111.6563 598.7656,2111.6563 Q598.4219,2111.6563 598.2188,2111.4531 Q598.0156,2111.2656 597.9063,2110.75 Q597.8594,2110.3906 597.6719,2110.2031 Q597.3438,2109.8281 596.7344,2109.6094 Q596.125,2109.3906 595.5,2109.3906 Q594.7344,2109.3906 594.0938,2109.7188 Q593.4688,2110.0469 592.9688,2110.7969 Q592.4844,2111.5469 592.4844,2112.5781 L592.4844,2113.6719 Q592.4844,2114.9063 593.375,2115.7344 Q594.2656,2116.5469 595.8594,2116.5469 Q596.7969,2116.5469 597.4531,2116.2969 Q597.8438,2116.1406 598.2656,2115.7031 Q598.5313,2115.4375 598.6719,2115.3594 Q598.8281,2115.2813 599.0313,2115.2813 Q599.3594,2115.2813 599.6094,2115.5469 Q599.875,2115.7969 599.875,2116.1406 Q599.875,2116.4844 599.5313,2116.8906 Q599.0313,2117.4688 598.2344,2117.7969 Q597.1563,2118.25 595.8594,2118.25 Q594.3438,2118.25 593.1406,2117.625 Q592.1563,2117.125 591.4688,2116.0625 Q590.7813,2114.9844 590.7813,2113.7031 L590.7813,2112.5469 Q590.7813,2111.2188 591.3906,2110.0781 Q592.0156,2108.9219 593.1094,2108.3125 Q594.2031,2107.6875 595.4375,2107.6875 Q596.1719,2107.6875 596.8125,2107.8594 Q597.4688,2108.0156 598.0156,2108.375 Z " fill="#000000"/><text fill="#000000" font-family="sans-serif" font-size="14" lengthAdjust="spacing" textLength="76" x="615.75" y="2118.2285">Commission</text><line style="stroke:#181818;stroke-width:0.5;" x1="476.5" x2="798.5" y1="2128.5" y2="2128.5"/><text fill="#000000" font-family="sans-serif" font-size="14" lengthAdjust="spacing" textLength="161" x="481.5" y="2147.0332">-double commissionValue</text><line style="stroke:#181818;stroke-width:0.5;" x1="476.5" x2="798.5" y1="2154.1094" y2="2154.1094"/><text fill="#000000" font-family="sans-serif" font-size="14" lengthAdjust="spacing" textLength="312" x="481.5" y="2172.6426">+Commission(commissionValue,commissionType)</text></g><!--class CommissionType--><g id="elem_CommissionType"><rect codeLine="134" fill="#F1F1F1" height="100.8281" id="CommissionType" rx="2.5" ry="2.5" style="stroke:#181818;stroke-width:0.5;" width="211" x="111" y="1440"/><ellipse cx="158.25" cy="1456" fill="#ADD1B2" rx="11" ry="11" style="stroke:#181818;stroke-width:1.0;"/><path d="M161.0156,1451.875 Q161.1719,1451.6563 161.3594,1451.5469 Q161.5469,1451.4375 161.7656,1451.4375 Q162.1406,1451.4375 162.375,1451.7031 Q162.6094,1451.9531 162.6094,1452.5625 L162.6094,1454.0156 Q162.6094,1454.625 162.375,1454.8906 Q162.1406,1455.1563 161.7656,1455.1563 Q161.4219,1455.1563 161.2188,1454.9531 Q161.0156,1454.7656 160.9063,1454.25 Q160.8594,1453.8906 160.6719,1453.7031 Q160.3438,1453.3281 159.7344,1453.1094 Q159.125,1452.8906 158.5,1452.8906 Q157.7344,1452.8906 157.0938,1453.2188 Q156.4688,1453.5469 155.9688,1454.2969 Q155.4844,1455.0469 155.4844,1456.0781 L155.4844,1457.1719 Q155.4844,1458.4063 156.375,1459.2344 Q157.2656,1460.0469 158.8594,1460.0469 Q159.7969,1460.0469 160.4531,1459.7969 Q160.8438,1459.6406 161.2656,1459.2031 Q161.5313,1458.9375 161.6719,1458.8594 Q161.8281,1458.7813 162.0313,1458.7813 Q162.3594,1458.7813 162.6094,1459.0469 Q162.875,1459.2969 162.875,1459.6406 Q162.875,1459.9844 162.5313,1460.3906 Q162.0313,1460.9688 161.2344,1461.2969 Q160.1563,1461.75 158.8594,1461.75 Q157.3438,1461.75 156.1406,1461.125 Q155.1563,1460.625 154.4688,1459.5625 Q153.7813,1458.4844 153.7813,1457.2031 L153.7813,1456.0469 Q153.7813,1454.7188 154.3906,1453.5781 Q155.0156,1452.4219 156.1094,1451.8125 Q157.2031,1451.1875 158.4375,1451.1875 Q159.1719,1451.1875 159.8125,1451.3594 Q160.4688,1451.5156 161.0156,1451.875 Z " fill="#000000"/><text fill="#000000" font-family="sans-serif" font-size="14" lengthAdjust="spacing" textLength="108" x="178.75" y="1461.7285">CommissionType</text><line style="stroke:#181818;stroke-width:0.5;" x1="112" x2="321" y1="1472" y2="1472"/><text fill="#000000" font-family="sans-serif" font-size="14" lengthAdjust="spacing" textLength="115" x="117" y="1490.5332">-String description</text><text fill="#000000" font-family="sans-serif" font-size="14" lengthAdjust="spacing" textLength="119" x="117" y="1508.1426">-String designation</text><line style="stroke:#181818;stroke-width:0.5;" x1="112" x2="321" y1="1515.2188" y2="1515.2188"/><text fill="#000000" font-family="sans-serif" font-size="14" lengthAdjust="spacing" textLength="199" x="117" y="1533.752">+CommissionType(designation)</text></g><!--class Request--><g id="elem_Request"><rect codeLine="77" fill="#F1F1F1" height="153.6563" id="Request" rx="2.5" ry="2.5" style="stroke:#181818;stroke-width:0.5;" width="506" x="807.5" y="686"/><ellipse cx="1029.75" cy="702" fill="#ADD1B2" rx="11" ry="11" style="stroke:#181818;stroke-width:1.0;"/><path d="M1032.5156,697.875 Q1032.6719,697.6563 1032.8594,697.5469 Q1033.0469,697.4375 1033.2656,697.4375 Q1033.6406,697.4375 1033.875,697.7031 Q1034.1094,697.9531 1034.1094,698.5625 L1034.1094,700.0156 Q1034.1094,700.625 1033.875,700.8906 Q1033.6406,701.1563 1033.2656,701.1563 Q1032.9219,701.1563 1032.7188,700.9531 Q1032.5156,700.7656 1032.4063,700.25 Q1032.3594,699.8906 1032.1719,699.7031 Q1031.8438,699.3281 1031.2344,699.1094 Q1030.625,698.8906 1030,698.8906 Q1029.2344,698.8906 1028.5938,699.2188 Q1027.9688,699.5469 1027.4688,700.2969 Q1026.9844,701.0469 1026.9844,702.0781 L1026.9844,703.1719 Q1026.9844,704.4063 1027.875,705.2344 Q1028.7656,706.0469 1030.3594,706.0469 Q1031.2969,706.0469 1031.9531,705.7969 Q1032.3438,705.6406 1032.7656,705.2031 Q1033.0313,704.9375 1033.1719,704.8594 Q1033.3281,704.7813 1033.5313,704.7813 Q1033.8594,704.7813 1034.1094,705.0469 Q1034.375,705.2969 1034.375,705.6406 Q1034.375,705.9844 1034.0313,706.3906 Q1033.5313,706.9688 1032.7344,707.2969 Q1031.6563,707.75 1030.3594,707.75 Q1028.8438,707.75 1027.6406,707.125 Q1026.6563,706.625 1025.9688,705.5625 Q1025.2813,704.4844 1025.2813,703.2031 L1025.2813,702.0469 Q1025.2813,700.7188 1025.8906,699.5781 Q1026.5156,698.4219 1027.6094,697.8125 Q1028.7031,697.1875 1029.9375,697.1875 Q1030.6719,697.1875 1031.3125,697.3594 Q1031.9688,697.5156 1032.5156,697.875 Z " fill="#000000"/><text fill="#000000" font-family="sans-serif" font-size="14" lengthAdjust="spacing" textLength="53" x="1050.25" y="707.7285">Request</text><line style="stroke:#181818;stroke-width:0.5;" x1="808.5" x2="1312.5" y1="718" y2="718"/><text fill="#000000" font-family="sans-serif" font-size="14" lengthAdjust="spacing" textLength="124" x="813.5" y="736.5332">-String requestDate</text><line style="stroke:#181818;stroke-width:0.5;" x1="808.5" x2="1312.5" y1="743.6094" y2="743.6094"/><text fill="#000000" font-family="sans-serif" font-size="14" lengthAdjust="spacing" textLength="428" x="813.5" y="762.1426">+Request(ownerEmail, propertyType,streetName, city, district, state,</text><text fill="#000000" font-family="sans-serif" font-size="14" lengthAdjust="spacing" textLength="419" x="813.5" y="779.752">zipCode, distanceCityCentre, price, photograph,numberBedrooms,</text><text fill="#000000" font-family="sans-serif" font-size="14" lengthAdjust="spacing" textLength="494" x="813.5" y="797.3613">numberParkingSpaces,existenceBasement,inhabitableLoft, numberBathrooms,</text><text fill="#000000" font-family="sans-serif" font-size="14" lengthAdjust="spacing" textLength="218" x="817.5" y="814.9707">availableEquipment, sunExposure)</text><text fill="#000000" font-family="sans-serif" font-size="14" lengthAdjust="spacing" textLength="113" x="813.5" y="832.5801">-getCurrentDate()</text></g><!--class Agency--><g id="elem_Agency"><rect codeLine="83" fill="#F1F1F1" height="206.4844" id="Agency" rx="2.5" ry="2.5" style="stroke:#181818;stroke-width:0.5;" width="490" x="1212.5" y="901"/><ellipse cx="1429.75" cy="917" fill="#ADD1B2" rx="11" ry="11" style="stroke:#181818;stroke-width:1.0;"/><path d="M1432.5156,912.875 Q1432.6719,912.6563 1432.8594,912.5469 Q1433.0469,912.4375 1433.2656,912.4375 Q1433.6406,912.4375 1433.875,912.7031 Q1434.1094,912.9531 1434.1094,913.5625 L1434.1094,915.0156 Q1434.1094,915.625 1433.875,915.8906 Q1433.6406,916.1563 1433.2656,916.1563 Q1432.9219,916.1563 1432.7188,915.9531 Q1432.5156,915.7656 1432.4063,915.25 Q1432.3594,914.8906 1432.1719,914.7031 Q1431.8438,914.3281 1431.2344,914.1094 Q1430.625,913.8906 1430,913.8906 Q1429.2344,913.8906 1428.5938,914.2188 Q1427.9688,914.5469 1427.4688,915.2969 Q1426.9844,916.0469 1426.9844,917.0781 L1426.9844,918.1719 Q1426.9844,919.4063 1427.875,920.2344 Q1428.7656,921.0469 1430.3594,921.0469 Q1431.2969,921.0469 1431.9531,920.7969 Q1432.3438,920.6406 1432.7656,920.2031 Q1433.0313,919.9375 1433.1719,919.8594 Q1433.3281,919.7813 1433.5313,919.7813 Q1433.8594,919.7813 1434.1094,920.0469 Q1434.375,920.2969 1434.375,920.6406 Q1434.375,920.9844 1434.0313,921.3906 Q1433.5313,921.9688 1432.7344,922.2969 Q1431.6563,922.75 1430.3594,922.75 Q1428.8438,922.75 1427.6406,922.125 Q1426.6563,921.625 1425.9688,920.5625 Q1425.2813,919.4844 1425.2813,918.2031 L1425.2813,917.0469 Q1425.2813,915.7188 1425.8906,914.5781 Q1426.5156,913.4219 1427.6094,912.8125 Q1428.7031,912.1875 1429.9375,912.1875 Q1430.6719,912.1875 1431.3125,912.3594 Q1431.9688,912.5156 1432.5156,912.875 Z " fill="#000000"/><text fill="#000000" font-family="sans-serif" font-size="14" lengthAdjust="spacing" textLength="47" x="1450.25" y="922.7285">Agency</text><line style="stroke:#181818;stroke-width:0.5;" x1="1213.5" x2="1701.5" y1="933" y2="933"/><text fill="#000000" font-family="sans-serif" font-size="14" lengthAdjust="spacing" textLength="64" x="1218.5" y="951.5332">-integer id</text><text fill="#000000" font-family="sans-serif" font-size="14" lengthAdjust="spacing" textLength="119" x="1218.5" y="969.1426">-String designation</text><text fill="#000000" font-family="sans-serif" font-size="14" lengthAdjust="spacing" textLength="131" x="1218.5" y="986.752">-String emailAddress</text><text fill="#000000" font-family="sans-serif" font-size="14" lengthAdjust="spacing" textLength="135" x="1218.5" y="1004.3613">-String phoneNumber</text><line style="stroke:#181818;stroke-width:0.5;" x1="1213.5" x2="1701.5" y1="1011.4375" y2="1011.4375"/><text fill="#000000" font-family="sans-serif" font-size="14" lengthAdjust="spacing" textLength="228" x="1218.5" y="1029.9707">-addAnnouncement(announcement)</text><text fill="#000000" font-family="sans-serif" font-size="14" lengthAdjust="spacing" textLength="253" x="1218.5" y="1047.5801">-validateAnnouncement(announcement)</text><text fill="#000000" font-family="sans-serif" font-size="14" lengthAdjust="spacing" textLength="155" x="1218.5" y="1065.1895">-getAgentByEmail(email)</text><text fill="#000000" font-family="sans-serif" font-size="14" lengthAdjust="spacing" textLength="169" x="1218.5" y="1082.7988">+anyAgentHasEmail(email)</text><text fill="#000000" font-family="sans-serif" font-size="14" lengthAdjust="spacing" textLength="478" x="1218.5" y="1100.4082">+publishAnnouncement(agent, typeCommission, commissionValue, request)</text></g><!--class CommissionTypeRepository--><g id="elem_CommissionTypeRepository"><rect codeLine="96" fill="#F1F1F1" height="83.2188" id="CommissionTypeRepository" rx="2.5" ry="2.5" style="stroke:#181818;stroke-width:0.5;" width="322" x="55.5" y="721.5"/><ellipse cx="124.25" cy="737.5" fill="#ADD1B2" rx="11" ry="11" style="stroke:#181818;stroke-width:1.0;"/><path d="M127.0156,733.375 Q127.1719,733.1563 127.3594,733.0469 Q127.5469,732.9375 127.7656,732.9375 Q128.1406,732.9375 128.375,733.2031 Q128.6094,733.4531 128.6094,734.0625 L128.6094,735.5156 Q128.6094,736.125 128.375,736.3906 Q128.1406,736.6563 127.7656,736.6563 Q127.4219,736.6563 127.2188,736.4531 Q127.0156,736.2656 126.9063,735.75 Q126.8594,735.3906 126.6719,735.2031 Q126.3438,734.8281 125.7344,734.6094 Q125.125,734.3906 124.5,734.3906 Q123.7344,734.3906 123.0938,734.7188 Q122.4688,735.0469 121.9688,735.7969 Q121.4844,736.5469 121.4844,737.5781 L121.4844,738.6719 Q121.4844,739.9063 122.375,740.7344 Q123.2656,741.5469 124.8594,741.5469 Q125.7969,741.5469 126.4531,741.2969 Q126.8438,741.1406 127.2656,740.7031 Q127.5313,740.4375 127.6719,740.3594 Q127.8281,740.2813 128.0313,740.2813 Q128.3594,740.2813 128.6094,740.5469 Q128.875,740.7969 128.875,741.1406 Q128.875,741.4844 128.5313,741.8906 Q128.0313,742.4688 127.2344,742.7969 Q126.1563,743.25 124.8594,743.25 Q123.3438,743.25 122.1406,742.625 Q121.1563,742.125 120.4688,741.0625 Q119.7813,739.9844 119.7813,738.7031 L119.7813,737.5469 Q119.7813,736.2188 120.3906,735.0781 Q121.0156,733.9219 122.1094,733.3125 Q123.2031,732.6875 124.4375,732.6875 Q125.1719,732.6875 125.8125,732.8594 Q126.4688,733.0156 127.0156,733.375 Z " fill="#000000"/><text fill="#000000" font-family="sans-serif" font-size="14" lengthAdjust="spacing" textLength="176" x="144.75" y="743.2285">CommissionTypeRepository</text><line style="stroke:#181818;stroke-width:0.5;" x1="56.5" x2="376.5" y1="753.5" y2="753.5"/><line style="stroke:#181818;stroke-width:0.5;" x1="56.5" x2="376.5" y1="761.5" y2="761.5"/><text fill="#000000" font-family="sans-serif" font-size="14" lengthAdjust="spacing" textLength="168" x="61.5" y="780.0332">+getCommissionTypeList()</text><text fill="#000000" font-family="sans-serif" font-size="14" lengthAdjust="spacing" textLength="310" x="61.5" y="797.6426">+getCommissionTypeByDesignation(designation)</text></g><!--class PropertyTypeRepository--><g id="elem_PropertyTypeRepository"><rect codeLine="100" fill="#F1F1F1" height="83.2188" id="PropertyTypeRepository" rx="2.5" ry="2.5" style="stroke:#181818;stroke-width:0.5;" width="300" x="472.5" y="721.5"/><ellipse cx="541.25" cy="737.5" fill="#ADD1B2" rx="11" ry="11" style="stroke:#181818;stroke-width:1.0;"/><path d="M544.0156,733.375 Q544.1719,733.1563 544.3594,733.0469 Q544.5469,732.9375 544.7656,732.9375 Q545.1406,732.9375 545.375,733.2031 Q545.6094,733.4531 545.6094,734.0625 L545.6094,735.5156 Q545.6094,736.125 545.375,736.3906 Q545.1406,736.6563 544.7656,736.6563 Q544.4219,736.6563 544.2188,736.4531 Q544.0156,736.2656 543.9063,735.75 Q543.8594,735.3906 543.6719,735.2031 Q543.3438,734.8281 542.7344,734.6094 Q542.125,734.3906 541.5,734.3906 Q540.7344,734.3906 540.0938,734.7188 Q539.4688,735.0469 538.9688,735.7969 Q538.4844,736.5469 538.4844,737.5781 L538.4844,738.6719 Q538.4844,739.9063 539.375,740.7344 Q540.2656,741.5469 541.8594,741.5469 Q542.7969,741.5469 543.4531,741.2969 Q543.8438,741.1406 544.2656,740.7031 Q544.5313,740.4375 544.6719,740.3594 Q544.8281,740.2813 545.0313,740.2813 Q545.3594,740.2813 545.6094,740.5469 Q545.875,740.7969 545.875,741.1406 Q545.875,741.4844 545.5313,741.8906 Q545.0313,742.4688 544.2344,742.7969 Q543.1563,743.25 541.8594,743.25 Q540.3438,743.25 539.1406,742.625 Q538.1563,742.125 537.4688,741.0625 Q536.7813,739.9844 536.7813,738.7031 L536.7813,737.5469 Q536.7813,736.2188 537.3906,735.0781 Q538.0156,733.9219 539.1094,733.3125 Q540.2031,732.6875 541.4375,732.6875 Q542.1719,732.6875 542.8125,732.8594 Q543.4688,733.0156 544.0156,733.375 Z " fill="#000000"/><text fill="#000000" font-family="sans-serif" font-size="14" lengthAdjust="spacing" textLength="154" x="561.75" y="743.2285">PropertyTypeRepository</text><line style="stroke:#181818;stroke-width:0.5;" x1="473.5" x2="771.5" y1="753.5" y2="753.5"/><line style="stroke:#181818;stroke-width:0.5;" x1="473.5" x2="771.5" y1="761.5" y2="761.5"/><text fill="#000000" font-family="sans-serif" font-size="14" lengthAdjust="spacing" textLength="146" x="478.5" y="780.0332">+getPropertyTypeList()</text><text fill="#000000" font-family="sans-serif" font-size="14" lengthAdjust="spacing" textLength="288" x="478.5" y="797.6426">+getPropertyTypeByDesignation(designation)</text></g><!--class AgencyRepository--><g id="elem_AgencyRepository"><rect codeLine="105" fill="#F1F1F1" height="65.6094" id="AgencyRepository" rx="2.5" ry="2.5" style="stroke:#181818;stroke-width:0.5;" width="217" x="1349" y="730"/><ellipse cx="1395.75" cy="746" fill="#ADD1B2" rx="11" ry="11" style="stroke:#181818;stroke-width:1.0;"/><path d="M1398.5156,741.875 Q1398.6719,741.6563 1398.8594,741.5469 Q1399.0469,741.4375 1399.2656,741.4375 Q1399.6406,741.4375 1399.875,741.7031 Q1400.1094,741.9531 1400.1094,742.5625 L1400.1094,744.0156 Q1400.1094,744.625 1399.875,744.8906 Q1399.6406,745.1563 1399.2656,745.1563 Q1398.9219,745.1563 1398.7188,744.9531 Q1398.5156,744.7656 1398.4063,744.25 Q1398.3594,743.8906 1398.1719,743.7031 Q1397.8438,743.3281 1397.2344,743.1094 Q1396.625,742.8906 1396,742.8906 Q1395.2344,742.8906 1394.5938,743.2188 Q1393.9688,743.5469 1393.4688,744.2969 Q1392.9844,745.0469 1392.9844,746.0781 L1392.9844,747.1719 Q1392.9844,748.4063 1393.875,749.2344 Q1394.7656,750.0469 1396.3594,750.0469 Q1397.2969,750.0469 1397.9531,749.7969 Q1398.3438,749.6406 1398.7656,749.2031 Q1399.0313,748.9375 1399.1719,748.8594 Q1399.3281,748.7813 1399.5313,748.7813 Q1399.8594,748.7813 1400.1094,749.0469 Q1400.375,749.2969 1400.375,749.6406 Q1400.375,749.9844 1400.0313,750.3906 Q1399.5313,750.9688 1398.7344,751.2969 Q1397.6563,751.75 1396.3594,751.75 Q1394.8438,751.75 1393.6406,751.125 Q1392.6563,750.625 1391.9688,749.5625 Q1391.2813,748.4844 1391.2813,747.2031 L1391.2813,746.0469 Q1391.2813,744.7188 1391.8906,743.5781 Q1392.5156,742.4219 1393.6094,741.8125 Q1394.7031,741.1875 1395.9375,741.1875 Q1396.6719,741.1875 1397.3125,741.3594 Q1397.9688,741.5156 1398.5156,741.875 Z " fill="#000000"/><text fill="#000000" font-family="sans-serif" font-size="14" lengthAdjust="spacing" textLength="115" x="1416.25" y="751.7285">AgencyRepository</text><line style="stroke:#181818;stroke-width:0.5;" x1="1350" x2="1565" y1="762" y2="762"/><line style="stroke:#181818;stroke-width:0.5;" x1="1350" x2="1565" y1="770" y2="770"/><text fill="#000000" font-family="sans-serif" font-size="14" lengthAdjust="spacing" textLength="205" x="1355" y="788.5332">+getAgencyByAgentEmail(email)</text></g><!--class Repositories--><g id="elem_Repositories"><rect codeLine="109" fill="#F1F1F1" height="136.0469" id="Repositories" rx="2.5" ry="2.5" style="stroke:#181818;stroke-width:0.5;" width="226" x="689.5" y="489"/><ellipse cx="758.75" cy="505" fill="#ADD1B2" rx="11" ry="11" style="stroke:#181818;stroke-width:1.0;"/><path d="M761.5156,500.875 Q761.6719,500.6563 761.8594,500.5469 Q762.0469,500.4375 762.2656,500.4375 Q762.6406,500.4375 762.875,500.7031 Q763.1094,500.9531 763.1094,501.5625 L763.1094,503.0156 Q763.1094,503.625 762.875,503.8906 Q762.6406,504.1563 762.2656,504.1563 Q761.9219,504.1563 761.7188,503.9531 Q761.5156,503.7656 761.4063,503.25 Q761.3594,502.8906 761.1719,502.7031 Q760.8438,502.3281 760.2344,502.1094 Q759.625,501.8906 759,501.8906 Q758.2344,501.8906 757.5938,502.2188 Q756.9688,502.5469 756.4688,503.2969 Q755.9844,504.0469 755.9844,505.0781 L755.9844,506.1719 Q755.9844,507.4063 756.875,508.2344 Q757.7656,509.0469 759.3594,509.0469 Q760.2969,509.0469 760.9531,508.7969 Q761.3438,508.6406 761.7656,508.2031 Q762.0313,507.9375 762.1719,507.8594 Q762.3281,507.7813 762.5313,507.7813 Q762.8594,507.7813 763.1094,508.0469 Q763.375,508.2969 763.375,508.6406 Q763.375,508.9844 763.0313,509.3906 Q762.5313,509.9688 761.7344,510.2969 Q760.6563,510.75 759.3594,510.75 Q757.8438,510.75 756.6406,510.125 Q755.6563,509.625 754.9688,508.5625 Q754.2813,507.4844 754.2813,506.2031 L754.2813,505.0469 Q754.2813,503.7188 754.8906,502.5781 Q755.5156,501.4219 756.6094,500.8125 Q757.7031,500.1875 758.9375,500.1875 Q759.6719,500.1875 760.3125,500.3594 Q760.9688,500.5156 761.5156,500.875 Z " fill="#000000"/><text fill="#000000" font-family="sans-serif" font-size="14" lengthAdjust="spacing" textLength="79" x="779.25" y="510.7285">Repositories</text><line style="stroke:#181818;stroke-width:0.5;" x1="690.5" x2="914.5" y1="521" y2="521"/><line style="stroke:#181818;stroke-width:0.5;" x1="690.5" x2="914.5" y1="529" y2="529"/><text fill="#000000" font-family="sans-serif" font-size="14" lengthAdjust="spacing" textLength="94" x="695.5" y="547.5332">-Repositories()</text><text fill="#000000" font-family="sans-serif" font-size="14" lengthAdjust="spacing" textLength="182" x="695.5" y="565.1426">+getInstance() : Repositories</text><text fill="#000000" font-family="sans-serif" font-size="14" lengthAdjust="spacing" textLength="214" x="695.5" y="582.752">+getCommissionTypeRepository()</text><text fill="#000000" font-family="sans-serif" font-size="14" lengthAdjust="spacing" textLength="192" x="695.5" y="600.3613">+getPropertyTypeRepository()</text><text fill="#000000" font-family="sans-serif" font-size="14" lengthAdjust="spacing" textLength="153" x="695.5" y="617.9707">+getAgencyRepository()</text></g><!--class PublishAnnouncementController--><g id="elem_PublishAnnouncementController"><rect codeLine="117" fill="#F1F1F1" height="276.9219" id="PublishAnnouncementController" rx="2.5" ry="2.5" style="stroke:#181818;stroke-width:0.5;" width="706" x="227.5" y="7"/><ellipse cx="474.75" cy="23" fill="#ADD1B2" rx="11" ry="11" style="stroke:#181818;stroke-width:1.0;"/><path d="M477.5156,18.875 Q477.6719,18.6563 477.8594,18.5469 Q478.0469,18.4375 478.2656,18.4375 Q478.6406,18.4375 478.875,18.7031 Q479.1094,18.9531 479.1094,19.5625 L479.1094,21.0156 Q479.1094,21.625 478.875,21.8906 Q478.6406,22.1563 478.2656,22.1563 Q477.9219,22.1563 477.7188,21.9531 Q477.5156,21.7656 477.4063,21.25 Q477.3594,20.8906 477.1719,20.7031 Q476.8438,20.3281 476.2344,20.1094 Q475.625,19.8906 475,19.8906 Q474.2344,19.8906 473.5938,20.2188 Q472.9688,20.5469 472.4688,21.2969 Q471.9844,22.0469 471.9844,23.0781 L471.9844,24.1719 Q471.9844,25.4063 472.875,26.2344 Q473.7656,27.0469 475.3594,27.0469 Q476.2969,27.0469 476.9531,26.7969 Q477.3438,26.6406 477.7656,26.2031 Q478.0313,25.9375 478.1719,25.8594 Q478.3281,25.7813 478.5313,25.7813 Q478.8594,25.7813 479.1094,26.0469 Q479.375,26.2969 479.375,26.6406 Q479.375,26.9844 479.0313,27.3906 Q478.5313,27.9688 477.7344,28.2969 Q476.6563,28.75 475.3594,28.75 Q473.8438,28.75 472.6406,28.125 Q471.6563,27.625 470.9688,26.5625 Q470.2813,25.4844 470.2813,24.2031 L470.2813,23.0469 Q470.2813,21.7188 470.8906,20.5781 Q471.5156,19.4219 472.6094,18.8125 Q473.7031,18.1875 474.9375,18.1875 Q475.6719,18.1875 476.3125,18.3594 Q476.9688,18.5156 477.5156,18.875 Z " fill="#000000"/><text fill="#000000" font-family="sans-serif" font-size="14" lengthAdjust="spacing" textLength="203" x="495.25" y="28.7285">PublishAnnouncementController</text><line style="stroke:#181818;stroke-width:0.5;" x1="228.5" x2="932.5" y1="39" y2="39"/><line style="stroke:#181818;stroke-width:0.5;" x1="228.5" x2="932.5" y1="47" y2="47"/><text fill="#000000" font-family="sans-serif" font-size="14" lengthAdjust="spacing" textLength="674" x="233.5" y="65.5332">+PublishAnnouncementController(PropertyTypeRepository,CommissionTypeRepository,AgencyRepository)</text><text fill="#000000" font-family="sans-serif" font-size="14" lengthAdjust="spacing" textLength="694" x="233.5" y="83.1426">+publishAnnouncement(commissionValue, commissionTypeDescription, ownerEmail, propertyTypeDescription,</text><text fill="#000000" font-family="sans-serif" font-size="14" lengthAdjust="spacing" textLength="417" x="233.5" y="100.752">streetName, city, district, state, zipCode, area, distanceCityCentre,</text><text fill="#000000" font-family="sans-serif" font-size="14" lengthAdjust="spacing" textLength="379" x="233.5" y="118.3613">price, photograph,numberBedrooms,numberParkingSpaces,</text><text fill="#000000" font-family="sans-serif" font-size="14" lengthAdjust="spacing" textLength="569" x="233.5" y="135.9707">existenceBasement,inhabitableLoft, numberBathrooms, availableEquipment, sunExposure)</text><text fill="#000000" font-family="sans-serif" font-size="14" lengthAdjust="spacing" textLength="352" x="233.5" y="153.5801">+createCommission(commissionType,commissionValue)</text><text fill="#000000" font-family="sans-serif" font-size="14" lengthAdjust="spacing" textLength="168" x="233.5" y="171.1895">+getCommissionTypeList()</text><text fill="#000000" font-family="sans-serif" font-size="14" lengthAdjust="spacing" textLength="146" x="233.5" y="188.7988">+getPropertyTypeList()</text><text fill="#000000" font-family="sans-serif" font-size="14" lengthAdjust="spacing" textLength="133" x="233.5" y="206.4082">+addPhotographUri()</text><text fill="#000000" font-family="sans-serif" font-size="14" lengthAdjust="spacing" textLength="166" x="233.5" y="224.0176">+addAvailableEquipment()</text><text fill="#000000" font-family="sans-serif" font-size="14" lengthAdjust="spacing" textLength="155" x="233.5" y="241.627">-getAgentFromSession()</text><text fill="#000000" font-family="sans-serif" font-size="14" lengthAdjust="spacing" textLength="285" x="233.5" y="259.2363">-getPropertyTypeByDesignation(designation)</text><text fill="#000000" font-family="sans-serif" font-size="14" lengthAdjust="spacing" textLength="307" x="233.5" y="276.8457">-getCommissionTypeByDesignation(designation)</text></g><!--class PropertyType--><g id="elem_PropertyType"><rect codeLine="129" fill="#F1F1F1" height="83.2188" id="PropertyType" rx="2.5" ry="2.5" style="stroke:#181818;stroke-width:0.5;" width="189" x="528" y="962.5"/><ellipse cx="575.25" cy="978.5" fill="#ADD1B2" rx="11" ry="11" style="stroke:#181818;stroke-width:1.0;"/><path d="M578.0156,974.375 Q578.1719,974.1563 578.3594,974.0469 Q578.5469,973.9375 578.7656,973.9375 Q579.1406,973.9375 579.375,974.2031 Q579.6094,974.4531 579.6094,975.0625 L579.6094,976.5156 Q579.6094,977.125 579.375,977.3906 Q579.1406,977.6563 578.7656,977.6563 Q578.4219,977.6563 578.2188,977.4531 Q578.0156,977.2656 577.9063,976.75 Q577.8594,976.3906 577.6719,976.2031 Q577.3438,975.8281 576.7344,975.6094 Q576.125,975.3906 575.5,975.3906 Q574.7344,975.3906 574.0938,975.7188 Q573.4688,976.0469 572.9688,976.7969 Q572.4844,977.5469 572.4844,978.5781 L572.4844,979.6719 Q572.4844,980.9063 573.375,981.7344 Q574.2656,982.5469 575.8594,982.5469 Q576.7969,982.5469 577.4531,982.2969 Q577.8438,982.1406 578.2656,981.7031 Q578.5313,981.4375 578.6719,981.3594 Q578.8281,981.2813 579.0313,981.2813 Q579.3594,981.2813 579.6094,981.5469 Q579.875,981.7969 579.875,982.1406 Q579.875,982.4844 579.5313,982.8906 Q579.0313,983.4688 578.2344,983.7969 Q577.1563,984.25 575.8594,984.25 Q574.3438,984.25 573.1406,983.625 Q572.1563,983.125 571.4688,982.0625 Q570.7813,980.9844 570.7813,979.7031 L570.7813,978.5469 Q570.7813,977.2188 571.3906,976.0781 Q572.0156,974.9219 573.1094,974.3125 Q574.2031,973.6875 575.4375,973.6875 Q576.1719,973.6875 576.8125,973.8594 Q577.4688,974.0156 578.0156,974.375 Z " fill="#000000"/><text fill="#000000" font-family="sans-serif" font-size="14" lengthAdjust="spacing" textLength="86" x="595.75" y="984.2285">PropertyType</text><line style="stroke:#181818;stroke-width:0.5;" x1="529" x2="716" y1="994.5" y2="994.5"/><text fill="#000000" font-family="sans-serif" font-size="14" lengthAdjust="spacing" textLength="119" x="534" y="1013.0332">-String designation</text><line style="stroke:#181818;stroke-width:0.5;" x1="529" x2="716" y1="1020.1094" y2="1020.1094"/><text fill="#000000" font-family="sans-serif" font-size="14" lengthAdjust="spacing" textLength="177" x="534" y="1038.6426">+PropertyType(designation)</text></g><!--class PublishAnnouncementUI--><g id="elem_PublishAnnouncementUI"><rect codeLine="139" fill="#F1F1F1" height="48" id="PublishAnnouncementUI" rx="2.5" ry="2.5" style="stroke:#181818;stroke-width:0.5;" width="185" x="7" y="121.5"/><ellipse cx="22" cy="137.5" fill="#ADD1B2" rx="11" ry="11" style="stroke:#181818;stroke-width:1.0;"/><path d="M24.7656,133.375 Q24.9219,133.1563 25.1094,133.0469 Q25.2969,132.9375 25.5156,132.9375 Q25.8906,132.9375 26.125,133.2031 Q26.3594,133.4531 26.3594,134.0625 L26.3594,135.5156 Q26.3594,136.125 26.125,136.3906 Q25.8906,136.6563 25.5156,136.6563 Q25.1719,136.6563 24.9688,136.4531 Q24.7656,136.2656 24.6563,135.75 Q24.6094,135.3906 24.4219,135.2031 Q24.0938,134.8281 23.4844,134.6094 Q22.875,134.3906 22.25,134.3906 Q21.4844,134.3906 20.8438,134.7188 Q20.2188,135.0469 19.7188,135.7969 Q19.2344,136.5469 19.2344,137.5781 L19.2344,138.6719 Q19.2344,139.9063 20.125,140.7344 Q21.0156,141.5469 22.6094,141.5469 Q23.5469,141.5469 24.2031,141.2969 Q24.5938,141.1406 25.0156,140.7031 Q25.2813,140.4375 25.4219,140.3594 Q25.5781,140.2813 25.7813,140.2813 Q26.1094,140.2813 26.3594,140.5469 Q26.625,140.7969 26.625,141.1406 Q26.625,141.4844 26.2813,141.8906 Q25.7813,142.4688 24.9844,142.7969 Q23.9063,143.25 22.6094,143.25 Q21.0938,143.25 19.8906,142.625 Q18.9063,142.125 18.2188,141.0625 Q17.5313,139.9844 17.5313,138.7031 L17.5313,137.5469 Q17.5313,136.2188 18.1406,135.0781 Q18.7656,133.9219 19.8594,133.3125 Q20.9531,132.6875 22.1875,132.6875 Q22.9219,132.6875 23.5625,132.8594 Q24.2188,133.0156 24.7656,133.375 Z " fill="#000000"/><text fill="#000000" font-family="sans-serif" font-size="14" lengthAdjust="spacing" textLength="153" x="36" y="143.2285">PublishAnnouncementUI</text><line style="stroke:#181818;stroke-width:0.5;" x1="8" x2="191" y1="153.5" y2="153.5"/><line style="stroke:#181818;stroke-width:0.5;" x1="8" x2="191" y1="161.5" y2="161.5"/></g><!--link PublishAnnouncementUI to PublishAnnouncementController--><g id="link_PublishAnnouncementUI_PublishAnnouncementController"><path codeLine="144" d="M192.3,145.5 C202.72,145.5 212.85,145.5 221.96,145.5 " fill="none" id="PublishAnnouncementUI-to-PublishAnnouncementController" style="stroke:#181818;stroke-width:1.0;stroke-dasharray:7.0,7.0;"/><polygon fill="#181818" points="227.2,145.5,218.2,141.5,222.2,145.5,218.2,149.5,227.2,145.5" style="stroke:#181818;stroke-width:1.0;"/></g><!--link PublishAnnouncementController to UserSession--><g id="link_PublishAnnouncementController_UserSession"><path codeLine="145" d="M392.65,284.09 C346.23,318.09 309.5,345 309.5,345 C309.5,345 309.5,428 309.5,428 C309.5,428 321.49,480.92 330.05,518.71 " fill="none" id="PublishAnnouncementController-to-UserSession" style="stroke:#181818;stroke-width:1.0;stroke-dasharray:7.0,7.0;"/><polygon fill="#181818" points="331.18,523.7,333.0994,514.04,330.0787,518.8228,325.2959,515.8021,331.18,523.7" style="stroke:#181818;stroke-width:1.0;"/></g><!--link PublishAnnouncementController to AplicationSession--><g id="link_PublishAnnouncementController_AplicationSession"><path codeLine="146" d="M485.47,284.14 C471.59,304.25 458.2,323.66 446.9,340.01 " fill="none" id="PublishAnnouncementController-to-AplicationSession" style="stroke:#181818;stroke-width:1.0;stroke-dasharray:7.0,7.0;"/><polygon fill="#181818" points="443.78,344.54,452.187,339.4095,446.6223,340.4265,445.6054,334.8618,443.78,344.54" style="stroke:#181818;stroke-width:1.0;"/></g><!--link AplicationSession to AplicationSession--><g id="link_AplicationSession_AplicationSession"><path codeLine="147" d="M504.03,373.31 C524.21,374.48 539,378.87 539,386.5 C539,393.47 526.64,397.75 509.11,399.32 " fill="none" id="AplicationSession-to-AplicationSession" style="stroke:#181818;stroke-width:1.0;"/><polygon fill="#181818" points="504.03,399.69,513.3023,403.0103,509.0162,399.3185,512.708,395.0324,504.03,399.69" style="stroke:#181818;stroke-width:1.0;"/><text fill="#000000" font-family="sans-serif" font-size="13" lengthAdjust="spacing" textLength="49" x="545" y="391.9951">instance</text></g><!--link AplicationSession to UserSession--><g id="link_AplicationSession_UserSession"><path codeLine="148" d="M396.86,428.29 C384.2,456 367.58,492.36 355.32,519.19 " fill="none" id="AplicationSession-to-UserSession" style="stroke:#181818;stroke-width:1.0;"/><polygon fill="#181818" points="353.24,523.75,360.6134,517.2206,355.3144,519.2006,353.3344,513.9016,353.24,523.75" style="stroke:#181818;stroke-width:1.0;"/><text fill="#000000" font-family="sans-serif" font-size="13" lengthAdjust="spacing" textLength="7" x="348.4529" y="513.1971">1</text></g><!--link PublishAnnouncementController to Repositories--><g id="link_PublishAnnouncementController_Repositories"><path codeLine="149" d="M655.19,284.28 C691.57,351.38 733.79,429.26 763.68,484.4 " fill="none" id="PublishAnnouncementController-to-Repositories" style="stroke:#181818;stroke-width:1.0;stroke-dasharray:7.0,7.0;"/><polygon fill="#181818" points="766.17,488.99,765.3965,479.1716,763.7867,484.5945,758.3638,482.9848,766.17,488.99" style="stroke:#181818;stroke-width:1.0;"/></g><!--link PublishAnnouncementController to PropertyTypeRepository--><g id="link_PublishAnnouncementController_PropertyTypeRepository"><path codeLine="150" d="M594.36,284.09 C597.79,318.09 600.5,345 600.5,345 C600.5,345 614.37,607.92 620.08,716.22 " fill="none" id="PublishAnnouncementController-to-PropertyTypeRepository" style="stroke:#181818;stroke-width:1.0;stroke-dasharray:7.0,7.0;"/><polygon fill="#181818" points="620.35,721.26,623.8548,712.0559,620.0782,716.2674,615.8667,712.4908,620.35,721.26" style="stroke:#181818;stroke-width:1.0;"/></g><!--link PublishAnnouncementController to CommissionTypeRepository--><g id="link_PublishAnnouncementController_CommissionTypeRepository"><path codeLine="151" d="M385.05,284.05 C359.79,301.83 342.5,314 342.5,314 C342.5,314 301.5,345 301.5,345 C301.5,345 264.5,489 264.5,489 C264.5,489 238.17,638.73 224.52,716.41 " fill="none" id="PublishAnnouncementController-to-CommissionTypeRepository" style="stroke:#181818;stroke-width:1.0;stroke-dasharray:7.0,7.0;"/><polygon fill="#181818" points="223.63,721.42,229.1169,713.2412,224.4891,716.4944,221.2359,711.8666,223.63,721.42" style="stroke:#181818;stroke-width:1.0;"/></g><!--link PublishAnnouncementController to AgencyRepository--><g id="link_PublishAnnouncementController_AgencyRepository"><path codeLine="152" d="M776.5,284.06 C981.07,427.63 1288.36,643.3 1407.67,727.03 " fill="none" id="PublishAnnouncementController-to-AgencyRepository" style="stroke:#181818;stroke-width:1.0;stroke-dasharray:7.0,7.0;"/><polygon fill="#181818" points="1411.83,729.95,1406.7527,721.5107,1407.7345,727.0817,1402.1635,728.0635,1411.83,729.95" style="stroke:#181818;stroke-width:1.0;"/></g><!--link Repositories to Repositories--><g id="link_Repositories_Repositories"><path codeLine="154" d="M915.74,539.67 C936.19,541.89 950.5,547.67 950.5,557 C950.5,565.53 938.54,571.09 920.87,573.68 " fill="none" id="Repositories-to-Repositories" style="stroke:#181818;stroke-width:1.0;"/><polygon fill="#181818" points="915.74,574.33,925.1717,577.1661,920.7003,573.701,924.1653,569.2296,915.74,574.33" style="stroke:#181818;stroke-width:1.0;"/><text fill="#000000" font-family="sans-serif" font-size="13" lengthAdjust="spacing" textLength="49" x="956.5" y="562.4951">instance</text></g><!--link Repositories to CommissionTypeRepository--><g id="link_Repositories_CommissionTypeRepository"><path codeLine="155" d="M689.17,597.45 C588.29,632.57 441.14,683.8 337.89,719.74 " fill="none" id="Repositories-to-CommissionTypeRepository" style="stroke:#181818;stroke-width:1.0;"/><polygon fill="#181818" points="333.01,721.44,342.8243,722.2648,337.7331,719.7991,340.1988,714.7079,333.01,721.44" style="stroke:#181818;stroke-width:1.0;"/><text fill="#000000" font-family="sans-serif" font-size="13" lengthAdjust="spacing" textLength="7" x="344.7273" y="710.7377">1</text></g><!--link Repositories to PropertyTypeRepository--><g id="link_Repositories_PropertyTypeRepository"><path codeLine="156" d="M748.97,625.26 C735.35,642.36 724.5,656 724.5,656 C724.5,656 693.28,688.45 665.38,717.44 " fill="none" id="Repositories-to-PropertyTypeRepository" style="stroke:#181818;stroke-width:1.0;"/><polygon fill="#181818" points="661.64,721.32,670.7666,717.6179,665.1107,717.7208,665.0078,712.0649,661.64,721.32" style="stroke:#181818;stroke-width:1.0;"/><text fill="#000000" font-family="sans-serif" font-size="13" lengthAdjust="spacing" textLength="7" x="660.5429" y="710.5979">1</text></g><!--link Repositories to AgencyRepository--><g id="link_Repositories_AgencyRepository"><path codeLine="157" d="M915.66,585.38 C1071.06,622.98 1331.5,686 1331.5,686 C1331.5,686 1366.76,707.27 1399.97,727.3 " fill="none" id="Repositories-to-AgencyRepository" style="stroke:#181818;stroke-width:1.0;"/><polygon fill="#181818" points="1404.43,729.99,1398.7903,721.9157,1400.1488,727.407,1394.6575,728.7656,1404.43,729.99" style="stroke:#181818;stroke-width:1.0;"/><text fill="#000000" font-family="sans-serif" font-size="13" lengthAdjust="spacing" textLength="7" x="1385.7624" y="719.1033">1</text></g><!--link AgencyRepository to Agency--><g id="link_AgencyRepository_Agency"><path codeLine="158" d="M1457.5,796.23 C1457.5,821.92 1457.5,859.43 1457.5,895.47 " fill="none" id="AgencyRepository-to-Agency" style="stroke:#181818;stroke-width:1.0;"/><polygon fill="#181818" points="1457.5,900.78,1461.5,891.78,1457.5,895.78,1453.5,891.78,1457.5,900.78" style="stroke:#181818;stroke-width:1.0;"/><text fill="#000000" font-family="sans-serif" font-size="13" lengthAdjust="spacing" textLength="5" x="1452.3164" y="890.1025">*</text></g><!--link Agency to Announcement--><g id="link_Agency_Announcement"><path codeLine="159" d="M1417.64,1107.38 C1336.24,1316.47 1158.5,1773 1158.5,1773 C1158.5,1773 1152.85,1783.41 1144.84,1798.18 " fill="none" id="Agency-to-Announcement" style="stroke:#181818;stroke-width:1.0;"/><polygon fill="#181818" points="1142.28,1802.9,1150.0944,1796.9054,1144.6692,1798.5078,1143.0669,1793.0826,1142.28,1802.9" style="stroke:#181818;stroke-width:1.0;"/><text fill="#000000" font-family="sans-serif" font-size="13" lengthAdjust="spacing" textLength="7" x="1407.4558" y="1129.0497">1</text><text fill="#000000" font-family="sans-serif" font-size="13" lengthAdjust="spacing" textLength="5" x="1141.1273" y="1792.2382">*</text></g><!--link Announcement to Agent--><g id="link_Announcement_Agent"><path codeLine="161" d="M1200.58,1992.08 C1229.43,2016.83 1260.09,2043.13 1287.25,2066.44 " fill="none" id="Announcement-to-Agent" style="stroke:#181818;stroke-width:1.0;"/><polygon fill="#181818" points="1291.23,2069.85,1286.9999,2060.9559,1287.4337,2066.596,1281.7935,2067.0299,1291.23,2069.85" style="stroke:#181818;stroke-width:1.0;"/><text fill="#000000" font-family="sans-serif" font-size="13" lengthAdjust="spacing" textLength="85" x="1255.5" y="2036.4951">responsibleFor</text><text fill="#000000" font-family="sans-serif" font-size="13" lengthAdjust="spacing" textLength="5" x="1203.74" y="2013.4471">*</text><text fill="#000000" font-family="sans-serif" font-size="13" lengthAdjust="spacing" textLength="7" x="1275.2864" y="2059.0329">1</text></g><!--link CommissionTypeRepository to CommissionType--><g id="link_CommissionTypeRepository_CommissionType"><path codeLine="162" d="M216.5,804.56 C216.5,927.27 216.5,1294.69 216.5,1434.59 " fill="none" id="CommissionTypeRepository-to-CommissionType" style="stroke:#181818;stroke-width:1.0;"/><polygon fill="#181818" points="216.5,1439.87,220.5,1430.87,216.5,1434.87,212.5,1430.87,216.5,1439.87" style="stroke:#181818;stroke-width:1.0;"/><text fill="#000000" font-family="sans-serif" font-size="13" lengthAdjust="spacing" textLength="7" x="208.9203" y="826.2745">1</text><text fill="#000000" font-family="sans-serif" font-size="13" lengthAdjust="spacing" textLength="5" x="211.1484" y="1429.1571">*</text></g><!--reverse link CommissionType to Commission--><g id="link_CommissionType_Commission"><path codeLine="163" d="M227.07,1546.33 C240.37,1615.35 261.5,1725 261.5,1725 C261.5,1725 505.56,1992.43 600.42,2096.37 " fill="none" id="CommissionType-backto-Commission" style="stroke:#181818;stroke-width:1.0;"/><polygon fill="#181818" points="226.04,1541.02,223.8075,1550.6125,226.9821,1545.9304,231.6642,1549.1051,226.04,1541.02" style="stroke:#181818;stroke-width:1.0;"/><text fill="#000000" font-family="sans-serif" font-size="13" lengthAdjust="spacing" textLength="79" x="305.5" y="1769.4951">isCategorized</text><text fill="#000000" font-family="sans-serif" font-size="13" lengthAdjust="spacing" textLength="7" x="219.8516" y="1562.4139">1</text></g><!--link Announcement to Commission--><g id="link_Announcement_Commission"><path codeLine="164" d="M913.37,1992.08 C846.32,2027.3 773.3,2065.66 719.23,2094.06 " fill="none" id="Announcement-to-Commission" style="stroke:#181818;stroke-width:1.0;"/><polygon fill="#181818" points="714.72,2096.44,724.5475,2095.7919,719.1455,2094.113,720.8244,2088.711,714.72,2096.44" style="stroke:#181818;stroke-width:1.0;"/><text fill="#000000" font-family="sans-serif" font-size="13" lengthAdjust="spacing" textLength="7" x="892.464" y="2013.4471">1</text><text fill="#000000" font-family="sans-serif" font-size="13" lengthAdjust="spacing" textLength="7" x="719.9299" y="2085.7377">1</text></g><!--link Request to Announcement--><g id="link_Request_Announcement"><path codeLine="165" d="M1083.48,840.28 C1104.55,910.22 1132.5,1003 1132.5,1003 C1132.5,1003 1132.5,1003 1132.5,1649 C1132.5,1649 1119.25,1728.96 1107.82,1797.98 " fill="none" id="Request-to-Announcement" style="stroke:#181818;stroke-width:1.0;"/><polygon fill="#181818" points="1107,1802.93,1112.4136,1794.7024,1107.815,1797.9969,1104.5206,1793.3983,1107,1802.93" style="stroke:#181818;stroke-width:1.0;"/><text fill="#000000" font-family="sans-serif" font-size="13" lengthAdjust="spacing" textLength="59" x="1133.5" y="1294.4951">createdBy</text><text fill="#000000" font-family="sans-serif" font-size="13" lengthAdjust="spacing" textLength="7" x="1078.1541" y="861.1337">1</text><text fill="#000000" font-family="sans-serif" font-size="13" lengthAdjust="spacing" textLength="7" x="1100.9563" y="1792.2706">1</text></g><!--link Request to Property--><g id="link_Request_Property"><path codeLine="166" d="M996.81,840.19 C925.95,924.97 810.39,1063.21 726.4,1163.7 " fill="none" id="Request-to-Property" style="stroke:#181818;stroke-width:1.0;"/><polygon fill="#181818" points="723.17,1167.56,732.0204,1163.2391,726.385,1163.7306,725.8934,1158.0952,723.17,1167.56" style="stroke:#181818;stroke-width:1.0;"/><text fill="#000000" font-family="sans-serif" font-size="13" lengthAdjust="spacing" textLength="7" x="984.0359" y="861.036">1</text><text fill="#000000" font-family="sans-serif" font-size="13" lengthAdjust="spacing" textLength="7" x="722.0913" y="1157.1871">1</text></g><!--link Agency to Agent--><g id="link_Agency_Agent"><path codeLine="167" d="M1472.3,1107.17 C1484.05,1188.23 1498.5,1288 1498.5,1288 C1498.5,1288 1498.5,1288 1498.5,1898.5 C1498.5,1898.5 1463.5,1992 1463.5,1992 C1463.5,1992 1439.72,2028.68 1416.08,2065.15 " fill="none" id="Agency-to-Agent" style="stroke:#181818;stroke-width:1.0;"/><polygon fill="#181818" points="1413.2,2069.59,1421.4445,2064.2022,1415.9139,2065.3906,1414.7255,2059.86,1413.2,2069.59" style="stroke:#181818;stroke-width:1.0;"/></g><!--link PropertyTypeRepository to PropertyType--><g id="link_PropertyTypeRepository_PropertyType"><path codeLine="168" d="M622.5,804.54 C622.5,846.86 622.5,913.09 622.5,957.25 " fill="none" id="PropertyTypeRepository-to-PropertyType" style="stroke:#181818;stroke-width:1.0;"/><polygon fill="#181818" points="622.5,962.26,626.5,953.26,622.5,957.26,618.5,953.26,622.5,962.26" style="stroke:#181818;stroke-width:1.0;"/><text fill="#000000" font-family="sans-serif" font-size="13" lengthAdjust="spacing" textLength="7" x="614.9203" y="826.2512">1</text><text fill="#000000" font-family="sans-serif" font-size="13" lengthAdjust="spacing" textLength="5" x="617.0859" y="951.5279">*</text></g><!--reverse link PropertyType to Property--><g id="link_PropertyType_Property"><path codeLine="169" d="M622.5,1050.94 C622.5,1082.73 622.5,1126.59 622.5,1167.95 " fill="none" id="PropertyType-backto-Property" style="stroke:#181818;stroke-width:1.0;"/><polygon fill="#181818" points="622.5,1045.55,618.5,1054.55,622.5,1050.55,626.5,1054.55,622.5,1045.55" style="stroke:#181818;stroke-width:1.0;"/><text fill="#000000" font-family="sans-serif" font-size="13" lengthAdjust="spacing" textLength="7" x="614.9203" y="1067.2628">1</text><text fill="#000000" font-family="sans-serif" font-size="13" lengthAdjust="spacing" textLength="5" x="617.3398" y="1157.1986">*</text></g><!--link Property to Location--><g id="link_Property_Location"><path codeLine="170" d="M721.29,1410.37 C763.54,1461.85 811.74,1520.57 849.55,1566.64 " fill="none" id="Property-to-Location" style="stroke:#181818;stroke-width:1.0;"/><polygon fill="#181818" points="852.94,1570.78,850.3138,1561.2877,849.7645,1566.9179,844.1343,1566.3686,852.94,1570.78" style="stroke:#181818;stroke-width:1.0;"/><text fill="#000000" font-family="sans-serif" font-size="13" lengthAdjust="spacing" textLength="69" x="821.5" y="1495.9951">hasAddress</text><text fill="#000000" font-family="sans-serif" font-size="13" lengthAdjust="spacing" textLength="7" x="719.799" y="1431.3631">1</text><text fill="#000000" font-family="sans-serif" font-size="13" lengthAdjust="spacing" textLength="7" x="839.6437" y="1560.1857">1</text></g><!--link Property to Photograph--><g id="link_Property_Photograph"><path codeLine="171" d="M533.49,1410.37 C484.67,1476.39 427.04,1554.32 391.63,1602.2 " fill="none" id="Property-to-Photograph" style="stroke:#181818;stroke-width:1.0;"/><polygon fill="#181818" points="388.49,1606.45,397.0514,1601.5814,391.4579,1602.4262,390.6132,1596.8327,388.49,1606.45" style="stroke:#181818;stroke-width:1.0;"/><text fill="#000000" font-family="sans-serif" font-size="13" lengthAdjust="spacing" textLength="70" x="506.5" y="1495.9951">isVisualized</text><text fill="#000000" font-family="sans-serif" font-size="13" lengthAdjust="spacing" textLength="7" x="521.1418" y="1431.3631">1</text><text fill="#000000" font-family="sans-serif" font-size="13" lengthAdjust="spacing" textLength="7" x="385.8774" y="1595.7494">1</text></g><!--link Property to AvailableEquipment--><g id="link_Property_AvailableEquipment"><path codeLine="172" d="M613.06,1410.37 C607.91,1475.99 601.84,1553.38 598.08,1601.33 " fill="none" id="Property-to-AvailableEquipment" style="stroke:#181818;stroke-width:1.0;"/><polygon fill="#181818" points="597.68,1606.45,602.3623,1597.7853,598.0657,1601.4649,594.3861,1597.1683,597.68,1606.45" style="stroke:#181818;stroke-width:1.0;"/><text fill="#000000" font-family="sans-serif" font-size="13" lengthAdjust="spacing" textLength="48" x="610.5" y="1495.9951">includes</text><text fill="#000000" font-family="sans-serif" font-size="13" lengthAdjust="spacing" textLength="7" x="605.3119" y="1431.3631">1</text><text fill="#000000" font-family="sans-serif" font-size="13" lengthAdjust="spacing" textLength="7" x="590.627" y="1595.7494">1</text></g><!--SRC=[tLV1Rjiu4BtpAuXSeZPoiRqMYmAsas8314NGR7hAXP4OcQX4gYJLnbdqttT8KHGfKRQtsrDxQSHvCvnvd3UapzKNnbiYIOCRmKMnawAXMCkEej7Iak8BgUYTtjSKIrfemgiw1AWTASLtnYlyH6eLMch6gTwt5BUYtfiFT9um2ga52hoAcYYrrbgonqxJwqBmE_P2yHy8dTVqIMCji6JLJkEIcNIOu0XP7xnkQrOGit97bJA6Vn26VnTOQLWkS4NrDOU_UK6pLyu4QzjEIihrlQBIEOBrXmjwAqLBfTv3h1M-5DqZq52oFiYMwVqMF2K5spNNjA8Iywvvf793DD0f6ZMtq39jk2KIIAZkW75gh1iXQaeufi-m7ONjDaJH1hOBR8plo2FJ1BAw4K_6SWV4mLceZbyzjq9raDk5Bo9htHz_0_EvWiIf_aWQckC2IibjOP8LEhUCqVo1lx1sAqgQ9shESGjOyzzEQ559qkxok4JmJvIMpmhA9sNaKn8X42RV2AiDukfhnrhh5bOvdjYDw9l0djX0XozrN3CbZrz3wQ4FK12SagC2w1nso8upw9o2Vl9aXVbrai47ASlHV2zP1ikZvtf6G1YXfAgGhBM5sqXpU1PWJ5WND-XxBnXGXLc-QY165c3N5SJ1FSflpGsj_Sh0LGlW5fIz9RByQCzo0j3aELfteQZPS5rAI6SQSISuTIvZEfoB3XgfIMH5YeAsjcKlpJcwmaAFZ5IsYmhHDCpMRsKHV7ycTGSBadxjgDB3o2WaXOYV-iLCVEUEA2E8G5xuU7TWBoy2CPCYWyu_AhEKoF1nbGtg76LsN6IMud5c6chTA5r1pmsSH8Ijlf6QbG5ZtZfqzjOJZar7b_sKdHm3w6x4PTCpYiym5TgiBmbcGBiCGvXBrlRG1JvwwB_PJ5tXsLd_24P1iVUgOqwdh8nb23IpYlS3EINrKElE4ahTMSmyYvGRVBWkmqER7GL2INQERVRzVBEP3E8cV6-DVn6LiBRGcKpjKbF4F6R6RZiqHVpuYflp4mNMcHPo8BL_d4IO6pZbwEaIMJVxov7jB61-_fnPtZ14JBSBRGStYtealKzls_HiHrHxT-_8gFAD5Yw6kOqlE_mk0YsnDQQrL68QCIqgl1zlv_sn5I1iKTUWZQ7wWwWidK6-b7m-pUTGhywQCfwRb-DCpF7IZ0j13_mNNN8_TSSzy9yOUwVTSSCjdxnoxAIVKFdgLCakwcls-WiCYSVST9fzW5zluyyNRpjHiXx_loRAv7xrW_yYGgNZ7BofWqWnRY6dUUlVNuFyGAS8fOrltX-M9JeixJUhzz53-ZXw_cjrje9JC9Xkp8swb0UudBqz-q-vW4iqBu_ddXvH9pWk3R5J-9gCEOIYws5IHCXIZ7C4BMQIH2yKdCJE4ftTWXRvUa0wk_LThRmjO0AXw8UECOURQIWMNb6ju8h1YFWW95fyMRXD-Zqcaei_BVJFrIfydGEfQWjJiOAANsWvIUljMO9Tv9xCaJdoU-T6RRdPJy0JyWUYUf9ivMZXFUCtUnsVNOJt5OOeZuWI7dxnGx8xeePNQn8wpd1BrsUcEdYO6hQIyFbajwrRr1rCDeJ-1G00]--></g></svg>