<?xml version="1.0" encoding="UTF-8" standalone="no"?><svg xmlns="http://www.w3.org/2000/svg" xmlns:xlink="http://www.w3.org/1999/xlink" contentStyleType="text/css" height="623px" preserveAspectRatio="none" style="width:498px;height:623px;background:#FFFFFF;" version="1.1" viewBox="0 0 498 623" width="498px" zoomAndPan="magnify"><defs/><g><text fill="#000000" font-family="sans-serif" font-size="14" font-weight="bold" lengthAdjust="spacing" textLength="284" x="108.5" y="29.5332">System Sequence Diagram (SSD) - US009</text><rect fill="#FFFFFF" height="401.5703" style="stroke:#181818;stroke-width:1.0;" width="10" x="66" y="131.2188"/><rect fill="#FFFFFF" height="30.3516" style="stroke:#181818;stroke-width:1.0;" width="10" x="429" y="153.5703"/><rect fill="#FFFFFF" height="30.3516" style="stroke:#181818;stroke-width:1.0;" width="10" x="429" y="239.625"/><rect fill="#FFFFFF" height="30.3516" style="stroke:#181818;stroke-width:1.0;" width="10" x="429" y="325.6797"/><rect fill="#FFFFFF" height="30.3516" style="stroke:#181818;stroke-width:1.0;" width="10" x="429" y="400.3828"/><rect fill="#FFFFFF" height="37.3516" style="stroke:#181818;stroke-width:1.0;" width="10" x="429" y="486.4375"/><rect fill="none" height="172.1094" style="stroke:#000000;stroke-width:1.5;" width="482" x="10" y="198.9219"/><rect fill="none" height="79.0547" style="stroke:#000000;stroke-width:1.5;" width="462" x="20" y="284.9766"/><rect fill="none" height="48.7031" style="stroke:#000000;stroke-width:1.5;" width="462" x="20" y="445.7344"/><line style="stroke:#181818;stroke-width:0.5;stroke-dasharray:5.0,5.0;" x1="71" x2="71" y1="121.2188" y2="541.7891"/><line style="stroke:#181818;stroke-width:0.5;stroke-dasharray:5.0,5.0;" x1="434" x2="434" y1="121.2188" y2="541.7891"/><text fill="#000000" font-family="sans-serif" font-size="14" font-weight="bold" lengthAdjust="spacing" textLength="68" x="34" y="118.1426">Customer</text><ellipse cx="71" cy="52.1094" fill="#E3E3E3" rx="8" ry="8" style="stroke:#181818;stroke-width:0.5;"/><path d="M71,60.1094 L71,87.1094 M58,68.1094 L84,68.1094 M71,87.1094 L58,102.1094 M71,87.1094 L84,102.1094 " fill="none" style="stroke:#181818;stroke-width:0.5;"/><text fill="#000000" font-family="sans-serif" font-size="14" font-weight="bold" lengthAdjust="spacing" textLength="68" x="34" y="555.3223">Customer</text><ellipse cx="71" cy="566.8984" fill="#E3E3E3" rx="8" ry="8" style="stroke:#181818;stroke-width:0.5;"/><path d="M71,574.8984 L71,601.8984 M58,582.8984 L84,582.8984 M71,601.8984 L58,616.8984 M71,601.8984 L84,616.8984 " fill="none" style="stroke:#181818;stroke-width:0.5;"/><rect fill="#E3E3E3" height="31.6094" rx="2.5" ry="2.5" style="stroke:#181818;stroke-width:0.5;" width="76" x="396" y="88.6094"/><text fill="#000000" font-family="sans-serif" font-size="14" font-weight="bold" lengthAdjust="spacing" textLength="54" x="407" y="110.1426">:System</text><rect fill="#E3E3E3" height="31.6094" rx="2.5" ry="2.5" style="stroke:#181818;stroke-width:0.5;" width="76" x="396" y="540.7891"/><text fill="#000000" font-family="sans-serif" font-size="14" font-weight="bold" lengthAdjust="spacing" textLength="54" x="407" y="562.3223">:System</text><rect fill="#FFFFFF" height="401.5703" style="stroke:#181818;stroke-width:1.0;" width="10" x="66" y="131.2188"/><rect fill="#FFFFFF" height="30.3516" style="stroke:#181818;stroke-width:1.0;" width="10" x="429" y="153.5703"/><rect fill="#FFFFFF" height="30.3516" style="stroke:#181818;stroke-width:1.0;" width="10" x="429" y="239.625"/><rect fill="#FFFFFF" height="30.3516" style="stroke:#181818;stroke-width:1.0;" width="10" x="429" y="325.6797"/><rect fill="#FFFFFF" height="30.3516" style="stroke:#181818;stroke-width:1.0;" width="10" x="429" y="400.3828"/><rect fill="#FFFFFF" height="37.3516" style="stroke:#181818;stroke-width:1.0;" width="10" x="429" y="486.4375"/><polygon fill="#181818" points="417,149.5703,427,153.5703,417,157.5703,421,153.5703" style="stroke:#181818;stroke-width:1.0;"/><line style="stroke:#181818;stroke-width:1.0;" x1="76" x2="423" y1="153.5703" y2="153.5703"/><text fill="#000000" font-family="sans-serif" font-size="13" font-weight="bold" lengthAdjust="spacing" textLength="7" x="83" y="148.7139">1</text><text fill="#000000" font-family="sans-serif" font-size="13" lengthAdjust="spacing" textLength="163" x="94" y="148.7139">asks to schedule a new visit</text><polygon fill="#181818" points="87,179.9219,77,183.9219,87,187.9219,83,183.9219" style="stroke:#181818;stroke-width:1.0;"/><line style="stroke:#181818;stroke-width:1.0;stroke-dasharray:2.0,2.0;" x1="81" x2="433" y1="183.9219" y2="183.9219"/><text fill="#000000" font-family="sans-serif" font-size="13" font-weight="bold" lengthAdjust="spacing" textLength="7" x="93" y="179.0654">2</text><text fill="#000000" font-family="sans-serif" font-size="13" lengthAdjust="spacing" textLength="243" x="104" y="179.0654">shows the list of announcements available</text><path d="M10,198.9219 L75,198.9219 L75,207.2734 L65,217.2734 L10,217.2734 L10,198.9219 " fill="#EEEEEE" style="stroke:#000000;stroke-width:1.5;"/><rect fill="none" height="172.1094" style="stroke:#000000;stroke-width:1.5;" width="482" x="10" y="198.9219"/><text fill="#000000" font-family="sans-serif" font-size="13" font-weight="bold" lengthAdjust="spacing" textLength="20" x="25" y="213.417">opt</text><text fill="#000000" font-family="sans-serif" font-size="11" font-weight="bold" lengthAdjust="spacing" textLength="115" x="90" y="212.3408">[Selection of criteria]</text><polygon fill="#181818" points="417,235.625,427,239.625,417,243.625,421,239.625" style="stroke:#181818;stroke-width:1.0;"/><line style="stroke:#181818;stroke-width:1.0;" x1="76" x2="423" y1="239.625" y2="239.625"/><text fill="#000000" font-family="sans-serif" font-size="13" font-weight="bold" lengthAdjust="spacing" textLength="7" x="83" y="234.7686">3</text><text fill="#000000" font-family="sans-serif" font-size="13" lengthAdjust="spacing" textLength="149" x="94" y="234.7686">asks to select filter for list</text><polygon fill="#181818" points="87,265.9766,77,269.9766,87,273.9766,83,269.9766" style="stroke:#181818;stroke-width:1.0;"/><line style="stroke:#181818;stroke-width:1.0;stroke-dasharray:2.0,2.0;" x1="81" x2="433" y1="269.9766" y2="269.9766"/><text fill="#000000" font-family="sans-serif" font-size="13" font-weight="bold" lengthAdjust="spacing" textLength="7" x="93" y="265.1201">4</text><text fill="#000000" font-family="sans-serif" font-size="13" lengthAdjust="spacing" textLength="60" x="104" y="265.1201">criteriaList</text><path d="M20,284.9766 L93,284.9766 L93,293.3281 L83,303.3281 L20,303.3281 L20,284.9766 " fill="#EEEEEE" style="stroke:#000000;stroke-width:1.5;"/><rect fill="none" height="79.0547" style="stroke:#000000;stroke-width:1.5;" width="462" x="20" y="284.9766"/><text fill="#000000" font-family="sans-serif" font-size="13" font-weight="bold" lengthAdjust="spacing" textLength="28" x="35" y="299.4717">loop</text><text fill="#000000" font-family="sans-serif" font-size="11" font-weight="bold" lengthAdjust="spacing" textLength="142" x="108" y="298.3955">[While Costumer intends]</text><polygon fill="#181818" points="417,321.6797,427,325.6797,417,329.6797,421,325.6797" style="stroke:#181818;stroke-width:1.0;"/><line style="stroke:#181818;stroke-width:1.0;" x1="76" x2="423" y1="325.6797" y2="325.6797"/><text fill="#000000" font-family="sans-serif" font-size="13" font-weight="bold" lengthAdjust="spacing" textLength="7" x="83" y="320.8232">5</text><text fill="#000000" font-family="sans-serif" font-size="13" lengthAdjust="spacing" textLength="91" x="94" y="320.8232">selects list filter</text><polygon fill="#181818" points="87,352.0313,77,356.0313,87,360.0313,83,356.0313" style="stroke:#181818;stroke-width:1.0;"/><line style="stroke:#181818;stroke-width:1.0;stroke-dasharray:2.0,2.0;" x1="81" x2="433" y1="356.0313" y2="356.0313"/><text fill="#000000" font-family="sans-serif" font-size="13" font-weight="bold" lengthAdjust="spacing" textLength="7" x="93" y="351.1748">6</text><text fill="#000000" font-family="sans-serif" font-size="13" lengthAdjust="spacing" textLength="196" x="104" y="351.1748">shows filtered announcements list</text><polygon fill="#181818" points="417,396.3828,427,400.3828,417,404.3828,421,400.3828" style="stroke:#181818;stroke-width:1.0;"/><line style="stroke:#181818;stroke-width:1.0;" x1="76" x2="423" y1="400.3828" y2="400.3828"/><text fill="#000000" font-family="sans-serif" font-size="13" font-weight="bold" lengthAdjust="spacing" textLength="7" x="83" y="395.5264">7</text><text fill="#000000" font-family="sans-serif" font-size="13" lengthAdjust="spacing" textLength="149" x="94" y="395.5264">selects an announcement</text><polygon fill="#181818" points="87,426.7344,77,430.7344,87,434.7344,83,430.7344" style="stroke:#181818;stroke-width:1.0;"/><line style="stroke:#181818;stroke-width:1.0;stroke-dasharray:2.0,2.0;" x1="81" x2="433" y1="430.7344" y2="430.7344"/><text fill="#000000" font-family="sans-serif" font-size="13" font-weight="bold" lengthAdjust="spacing" textLength="7" x="93" y="425.8779">8</text><text fill="#000000" font-family="sans-serif" font-size="13" lengthAdjust="spacing" textLength="79" x="104" y="425.8779">requests data</text><path d="M20,445.7344 L93,445.7344 L93,454.0859 L83,464.0859 L20,464.0859 L20,445.7344 " fill="#EEEEEE" style="stroke:#000000;stroke-width:1.5;"/><rect fill="none" height="48.7031" style="stroke:#000000;stroke-width:1.5;" width="462" x="20" y="445.7344"/><text fill="#000000" font-family="sans-serif" font-size="13" font-weight="bold" lengthAdjust="spacing" textLength="28" x="35" y="460.2295">loop</text><text fill="#000000" font-family="sans-serif" font-size="11" font-weight="bold" lengthAdjust="spacing" textLength="142" x="108" y="459.1533">[While Costumer intends]</text><polygon fill="#181818" points="417,482.4375,427,486.4375,417,490.4375,421,486.4375" style="stroke:#181818;stroke-width:1.0;"/><line style="stroke:#181818;stroke-width:1.0;" x1="76" x2="423" y1="486.4375" y2="486.4375"/><text fill="#000000" font-family="sans-serif" font-size="13" font-weight="bold" lengthAdjust="spacing" textLength="7" x="83" y="481.5811">9</text><text fill="#000000" font-family="sans-serif" font-size="13" lengthAdjust="spacing" textLength="323" x="94" y="481.5811">types requested data (visitDate, visitBeginning, visitEnd)</text><polygon fill="#181818" points="87,519.7891,77,523.7891,87,527.7891,83,523.7891" style="stroke:#181818;stroke-width:1.0;"/><line style="stroke:#181818;stroke-width:1.0;stroke-dasharray:2.0,2.0;" x1="81" x2="433" y1="523.7891" y2="523.7891"/><text fill="#000000" font-family="sans-serif" font-size="13" font-weight="bold" lengthAdjust="spacing" textLength="14" x="93" y="518.9326">10</text><text fill="#000000" font-family="sans-serif" font-size="13" lengthAdjust="spacing" textLength="158" x="111" y="518.9326">displays operation success</text><!--SRC=[bLFDRjim3BxxAOYUMc31UbrGvB1aj-ta3JipCcCJiILFf1FaxKTPSTPqJehg95dazoTQzknxZDX15tnmJGmTWSQ12hdSzEZsM5EffvOWabFqTVkwG1gimf5z3JjiXOf2MQsqF8bI1oNz6SWxWWrZdSeVotBp10luLJu_VoaA73JueTjIjBtJ4E7XPRk2zI1gOYAyVDwk7W05rZz_54QexBX7hxbiUMQvLENp2CK7L1hR2h1b6rYi9bbBAzuBQ01n3LM32KRmT8G32-lOaDO5Pi9D7yyG2qDBe4jB81mDgo5eMHJ23j3xC9ZhZhmAu06vnQsbDk5MD8iSUhN0MWkPWqyuBh9IP2mkdJTjZ6smuzOQO6Sv9YttZSoQcIY_lsw_eJUjDeGUVZTi2Qw3w90UZRsIh-HVqPpoh5XoPbdtLVrDnflIypjaAAhUFC9L7FEUfXlJFjhAbEba3pC_HPC9z5Tq7noWc7uICPWA5TyB_Tt0tshKKqyoSLWkYGGUnq7V6FYdFFDVgMRlxJS-dx_vwkc-ZUkO_ZDLiVGjdiJ2euZZHClW78dSSVWN]--></g></svg>