<?xml version="1.0" encoding="UTF-8" standalone="no"?><svg xmlns="http://www.w3.org/2000/svg" xmlns:xlink="http://www.w3.org/1999/xlink" contentStyleType="text/css" height="1553px" preserveAspectRatio="none" style="width:529px;height:1553px;background:#FFFFFF;" version="1.1" viewBox="0 0 529 1553" width="529px" zoomAndPan="magnify"><defs/><g><text fill="#000000" font-family="sans-serif" font-size="14" font-weight="bold" lengthAdjust="spacing" textLength="221" x="155.5" y="29.5332">Sequence Diagram (SD) - US009</text><rect fill="#FFFFFF" height="1331.1875" style="stroke:#181818;stroke-width:1.0;" width="10" x="66" y="131.2188"/><rect fill="#FFFFFF" height="46.7031" style="stroke:#181818;stroke-width:1.0;" width="10" x="462" y="153.5703"/><rect fill="#FFFFFF" height="30.3516" style="stroke:#181818;stroke-width:1.0;" width="10" x="462" y="255.9766"/><rect fill="#FFFFFF" height="55.7031" style="stroke:#181818;stroke-width:1.0;" width="10" x="462" y="316.6797"/><rect fill="#FFFFFF" height="30.3516" style="stroke:#181818;stroke-width:1.0;" width="10" x="462" y="402.7344"/><rect fill="#FFFFFF" height="30.3516" style="stroke:#181818;stroke-width:1.0;" width="10" x="462" y="504.2734"/><rect fill="#FFFFFF" height="30.3516" style="stroke:#181818;stroke-width:1.0;" width="10" x="462" y="564.9766"/><rect fill="#FFFFFF" height="30.3516" style="stroke:#181818;stroke-width:1.0;" width="10" x="462" y="666.5156"/><rect fill="#FFFFFF" height="30.3516" style="stroke:#181818;stroke-width:1.0;" width="10" x="462" y="727.2188"/><rect fill="#FFFFFF" height="30.3516" style="stroke:#181818;stroke-width:1.0;" width="10" x="462" y="828.7578"/><rect fill="#FFFFFF" height="30.3516" style="stroke:#181818;stroke-width:1.0;" width="10" x="462" y="889.4609"/><rect fill="#FFFFFF" height="30.3516" style="stroke:#181818;stroke-width:1.0;" width="10" x="462" y="991"/><rect fill="#FFFFFF" height="30.3516" style="stroke:#181818;stroke-width:1.0;" width="10" x="462" y="1051.7031"/><rect fill="#FFFFFF" height="30.3516" style="stroke:#181818;stroke-width:1.0;" width="10" x="462" y="1153.2422"/><rect fill="#FFFFFF" height="46.7031" style="stroke:#181818;stroke-width:1.0;" width="10" x="462" y="1252.9453"/><rect fill="#FFFFFF" height="30.3516" style="stroke:#181818;stroke-width:1.0;" width="10" x="462" y="1355.3516"/><rect fill="#FFFFFF" height="37.3516" style="stroke:#181818;stroke-width:1.0;" width="10" x="462" y="1416.0547"/><rect fill="none" height="1008.3203" style="stroke:#000000;stroke-width:1.5;" width="513" x="10" y="215.2734"/><rect fill="none" height="884.9141" style="stroke:#000000;stroke-width:1.5;" width="493" x="20" y="331.6797"/><rect fill="none" height="109.4063" style="stroke:#000000;stroke-width:1.5;" width="493" x="20" y="1314.6484"/><line style="stroke:#181818;stroke-width:0.5;stroke-dasharray:5.0,5.0;" x1="71" x2="71" y1="121.2188" y2="1471.4063"/><line style="stroke:#181818;stroke-width:0.5;stroke-dasharray:5.0,5.0;" x1="467" x2="467" y1="121.2188" y2="1471.4063"/><text fill="#000000" font-family="sans-serif" font-size="14" font-weight="bold" lengthAdjust="spacing" textLength="68" x="34" y="118.1426">Customer</text><ellipse cx="71" cy="52.1094" fill="#E3E3E3" rx="8" ry="8" style="stroke:#181818;stroke-width:0.5;"/><path d="M71,60.1094 L71,87.1094 M58,68.1094 L84,68.1094 M71,87.1094 L58,102.1094 M71,87.1094 L84,102.1094 " fill="none" style="stroke:#181818;stroke-width:0.5;"/><text fill="#000000" font-family="sans-serif" font-size="14" font-weight="bold" lengthAdjust="spacing" textLength="68" x="34" y="1484.9395">Customer</text><ellipse cx="71" cy="1496.5156" fill="#E3E3E3" rx="8" ry="8" style="stroke:#181818;stroke-width:0.5;"/><path d="M71,1504.5156 L71,1531.5156 M58,1512.5156 L84,1512.5156 M71,1531.5156 L58,1546.5156 M71,1531.5156 L84,1546.5156 " fill="none" style="stroke:#181818;stroke-width:0.5;"/><rect fill="#E3E3E3" height="31.6094" rx="2.5" ry="2.5" style="stroke:#181818;stroke-width:0.5;" width="72" x="431" y="88.6094"/><text fill="#000000" font-family="sans-serif" font-size="14" font-weight="bold" lengthAdjust="spacing" textLength="54" x="442" y="110.1426">:System</text><rect fill="#E3E3E3" height="31.6094" rx="2.5" ry="2.5" style="stroke:#181818;stroke-width:0.5;" width="72" x="431" y="1470.4063"/><text fill="#000000" font-family="sans-serif" font-size="14" font-weight="bold" lengthAdjust="spacing" textLength="54" x="442" y="1491.9395">:System</text><rect fill="#FFFFFF" height="1331.1875" style="stroke:#181818;stroke-width:1.0;" width="10" x="66" y="131.2188"/><rect fill="#FFFFFF" height="46.7031" style="stroke:#181818;stroke-width:1.0;" width="10" x="462" y="153.5703"/><rect fill="#FFFFFF" height="30.3516" style="stroke:#181818;stroke-width:1.0;" width="10" x="462" y="255.9766"/><rect fill="#FFFFFF" height="55.7031" style="stroke:#181818;stroke-width:1.0;" width="10" x="462" y="316.6797"/><rect fill="#FFFFFF" height="30.3516" style="stroke:#181818;stroke-width:1.0;" width="10" x="462" y="402.7344"/><rect fill="#FFFFFF" height="30.3516" style="stroke:#181818;stroke-width:1.0;" width="10" x="462" y="504.2734"/><rect fill="#FFFFFF" height="30.3516" style="stroke:#181818;stroke-width:1.0;" width="10" x="462" y="564.9766"/><rect fill="#FFFFFF" height="30.3516" style="stroke:#181818;stroke-width:1.0;" width="10" x="462" y="666.5156"/><rect fill="#FFFFFF" height="30.3516" style="stroke:#181818;stroke-width:1.0;" width="10" x="462" y="727.2188"/><rect fill="#FFFFFF" height="30.3516" style="stroke:#181818;stroke-width:1.0;" width="10" x="462" y="828.7578"/><rect fill="#FFFFFF" height="30.3516" style="stroke:#181818;stroke-width:1.0;" width="10" x="462" y="889.4609"/><rect fill="#FFFFFF" height="30.3516" style="stroke:#181818;stroke-width:1.0;" width="10" x="462" y="991"/><rect fill="#FFFFFF" height="30.3516" style="stroke:#181818;stroke-width:1.0;" width="10" x="462" y="1051.7031"/><rect fill="#FFFFFF" height="30.3516" style="stroke:#181818;stroke-width:1.0;" width="10" x="462" y="1153.2422"/><rect fill="#FFFFFF" height="46.7031" style="stroke:#181818;stroke-width:1.0;" width="10" x="462" y="1252.9453"/><rect fill="#FFFFFF" height="30.3516" style="stroke:#181818;stroke-width:1.0;" width="10" x="462" y="1355.3516"/><rect fill="#FFFFFF" height="37.3516" style="stroke:#181818;stroke-width:1.0;" width="10" x="462" y="1416.0547"/><polygon fill="#181818" points="450,149.5703,460,153.5703,450,157.5703,454,153.5703" style="stroke:#181818;stroke-width:1.0;"/><line style="stroke:#181818;stroke-width:1.0;" x1="76" x2="456" y1="153.5703" y2="153.5703"/><text fill="#000000" font-family="sans-serif" font-size="13" font-weight="bold" lengthAdjust="spacing" textLength="7" x="83" y="148.7139">1</text><text fill="#000000" font-family="sans-serif" font-size="13" lengthAdjust="spacing" textLength="163" x="94" y="148.7139">asks to schedule a new visit</text><polygon fill="#181818" points="87,196.2734,77,200.2734,87,204.2734,83,200.2734" style="stroke:#181818;stroke-width:1.0;"/><line style="stroke:#181818;stroke-width:1.0;stroke-dasharray:2.0,2.0;" x1="81" x2="466" y1="200.2734" y2="200.2734"/><text fill="#000000" font-family="sans-serif" font-size="13" font-weight="bold" lengthAdjust="spacing" textLength="7" x="93" y="187.2412">2</text><text fill="#000000" font-family="sans-serif" font-size="13" lengthAdjust="spacing" textLength="274" x="104" y="179.0654">shows non deals list and asks if the user wants</text><text fill="#000000" font-family="sans-serif" font-size="13" lengthAdjust="spacing" textLength="82" x="108" y="195.417">to filter the list</text><path d="M10,215.2734 L83,215.2734 L83,223.625 L73,233.625 L10,233.625 L10,215.2734 " fill="#EEEEEE" style="stroke:#000000;stroke-width:1.5;"/><rect fill="none" height="1008.3203" style="stroke:#000000;stroke-width:1.5;" width="513" x="10" y="215.2734"/><text fill="#000000" font-family="sans-serif" font-size="13" font-weight="bold" lengthAdjust="spacing" textLength="28" x="25" y="229.7686">loop</text><text fill="#000000" font-family="sans-serif" font-size="11" font-weight="bold" lengthAdjust="spacing" textLength="133" x="98" y="228.6924">[While the user intends]</text><polygon fill="#181818" points="450,251.9766,460,255.9766,450,259.9766,454,255.9766" style="stroke:#181818;stroke-width:1.0;"/><line style="stroke:#181818;stroke-width:1.0;" x1="76" x2="456" y1="255.9766" y2="255.9766"/><text fill="#000000" font-family="sans-serif" font-size="13" font-weight="bold" lengthAdjust="spacing" textLength="7" x="83" y="251.1201">3</text><text fill="#000000" font-family="sans-serif" font-size="13" lengthAdjust="spacing" textLength="211" x="94" y="251.1201">selects to see criteria to filter the list</text><polygon fill="#181818" points="87,282.3281,77,286.3281,87,290.3281,83,286.3281" style="stroke:#181818;stroke-width:1.0;"/><line style="stroke:#181818;stroke-width:1.0;stroke-dasharray:2.0,2.0;" x1="81" x2="466" y1="286.3281" y2="286.3281"/><text fill="#000000" font-family="sans-serif" font-size="13" font-weight="bold" lengthAdjust="spacing" textLength="7" x="93" y="281.4717">4</text><text fill="#000000" font-family="sans-serif" font-size="13" lengthAdjust="spacing" textLength="295" x="104" y="281.4717">shows criteria list and asks to select a criteria type</text><polygon fill="#181818" points="450,312.6797,460,316.6797,450,320.6797,454,316.6797" style="stroke:#181818;stroke-width:1.0;"/><line style="stroke:#181818;stroke-width:1.0;" x1="76" x2="456" y1="316.6797" y2="316.6797"/><text fill="#000000" font-family="sans-serif" font-size="13" font-weight="bold" lengthAdjust="spacing" textLength="7" x="83" y="311.8232">5</text><text fill="#000000" font-family="sans-serif" font-size="13" lengthAdjust="spacing" textLength="124" x="94" y="311.8232">selects criteria option</text><path d="M20,331.6797 L81,331.6797 L81,340.0313 L71,350.0313 L20,350.0313 L20,331.6797 " fill="#EEEEEE" style="stroke:#000000;stroke-width:1.5;"/><rect fill="none" height="884.9141" style="stroke:#000000;stroke-width:1.5;" width="493" x="20" y="331.6797"/><text fill="#000000" font-family="sans-serif" font-size="13" font-weight="bold" lengthAdjust="spacing" textLength="16" x="35" y="346.1748">alt</text><text fill="#000000" font-family="sans-serif" font-size="11" font-weight="bold" lengthAdjust="spacing" textLength="67" x="96" y="345.0986">[option == 1]</text><polygon fill="#181818" points="87,368.3828,77,372.3828,87,376.3828,83,372.3828" style="stroke:#181818;stroke-width:1.0;"/><line style="stroke:#181818;stroke-width:1.0;stroke-dasharray:2.0,2.0;" x1="81" x2="466" y1="372.3828" y2="372.3828"/><text fill="#000000" font-family="sans-serif" font-size="13" font-weight="bold" lengthAdjust="spacing" textLength="7" x="93" y="367.5264">6</text><text fill="#000000" font-family="sans-serif" font-size="13" lengthAdjust="spacing" textLength="279" x="104" y="367.5264">shows business type list and asks to select one</text><polygon fill="#181818" points="450,398.7344,460,402.7344,450,406.7344,454,402.7344" style="stroke:#181818;stroke-width:1.0;"/><line style="stroke:#181818;stroke-width:1.0;" x1="76" x2="456" y1="402.7344" y2="402.7344"/><text fill="#000000" font-family="sans-serif" font-size="13" font-weight="bold" lengthAdjust="spacing" textLength="7" x="83" y="397.8779">7</text><text fill="#000000" font-family="sans-serif" font-size="13" lengthAdjust="spacing" textLength="138" x="94" y="397.8779">selects a business type</text><polygon fill="#181818" points="87,429.0859,77,433.0859,87,437.0859,83,433.0859" style="stroke:#181818;stroke-width:1.0;"/><line style="stroke:#181818;stroke-width:1.0;stroke-dasharray:2.0,2.0;" x1="81" x2="466" y1="433.0859" y2="433.0859"/><text fill="#000000" font-family="sans-serif" font-size="13" font-weight="bold" lengthAdjust="spacing" textLength="7" x="93" y="428.2295">8</text><text fill="#000000" font-family="sans-serif" font-size="13" lengthAdjust="spacing" textLength="344" x="104" y="428.2295">shows sorted list and asks if it wants to select more criteria</text><line style="stroke:#000000;stroke-width:1.0;stroke-dasharray:2.0,2.0;" x1="20" x2="513" y1="467.0859" y2="467.0859"/><text fill="#000000" font-family="sans-serif" font-size="11" font-weight="bold" lengthAdjust="spacing" textLength="67" x="25" y="478.5049">[option == 2]</text><polygon fill="#181818" points="450,500.2734,460,504.2734,450,508.2734,454,504.2734" style="stroke:#181818;stroke-width:1.0;"/><line style="stroke:#181818;stroke-width:1.0;" x1="76" x2="456" y1="504.2734" y2="504.2734"/><text fill="#000000" font-family="sans-serif" font-size="13" font-weight="bold" lengthAdjust="spacing" textLength="7" x="83" y="499.417">9</text><text fill="#000000" font-family="sans-serif" font-size="13" lengthAdjust="spacing" textLength="85" x="94" y="499.417">selects criteria</text><polygon fill="#181818" points="87,530.625,77,534.625,87,538.625,83,534.625" style="stroke:#181818;stroke-width:1.0;"/><line style="stroke:#181818;stroke-width:1.0;stroke-dasharray:2.0,2.0;" x1="81" x2="466" y1="534.625" y2="534.625"/><text fill="#000000" font-family="sans-serif" font-size="13" font-weight="bold" lengthAdjust="spacing" textLength="14" x="93" y="529.7686">10</text><text fill="#000000" font-family="sans-serif" font-size="13" lengthAdjust="spacing" textLength="274" x="111" y="529.7686">shows property type list and asks to select one</text><polygon fill="#181818" points="450,560.9766,460,564.9766,450,568.9766,454,564.9766" style="stroke:#181818;stroke-width:1.0;"/><line style="stroke:#181818;stroke-width:1.0;" x1="76" x2="456" y1="564.9766" y2="564.9766"/><text fill="#000000" font-family="sans-serif" font-size="13" font-weight="bold" lengthAdjust="spacing" textLength="14" x="83" y="560.1201">11</text><text fill="#000000" font-family="sans-serif" font-size="13" lengthAdjust="spacing" textLength="133" x="101" y="560.1201">selects a property type</text><polygon fill="#181818" points="87,591.3281,77,595.3281,87,599.3281,83,595.3281" style="stroke:#181818;stroke-width:1.0;"/><line style="stroke:#181818;stroke-width:1.0;stroke-dasharray:2.0,2.0;" x1="81" x2="466" y1="595.3281" y2="595.3281"/><text fill="#000000" font-family="sans-serif" font-size="13" font-weight="bold" lengthAdjust="spacing" textLength="14" x="93" y="590.4717">12</text><text fill="#000000" font-family="sans-serif" font-size="13" lengthAdjust="spacing" textLength="344" x="111" y="590.4717">shows sorted list and asks if it wants to select more criteria</text><line style="stroke:#000000;stroke-width:1.0;stroke-dasharray:2.0,2.0;" x1="20" x2="513" y1="629.3281" y2="629.3281"/><text fill="#000000" font-family="sans-serif" font-size="11" font-weight="bold" lengthAdjust="spacing" textLength="216" x="25" y="640.7471">[option == 3 &amp;&amp; propertyType != "Land"]</text><polygon fill="#181818" points="450,662.5156,460,666.5156,450,670.5156,454,666.5156" style="stroke:#181818;stroke-width:1.0;"/><line style="stroke:#181818;stroke-width:1.0;" x1="76" x2="456" y1="666.5156" y2="666.5156"/><text fill="#000000" font-family="sans-serif" font-size="13" font-weight="bold" lengthAdjust="spacing" textLength="14" x="83" y="661.6592">13</text><text fill="#000000" font-family="sans-serif" font-size="13" lengthAdjust="spacing" textLength="85" x="101" y="661.6592">selects criteria</text><polygon fill="#181818" points="87,692.8672,77,696.8672,87,700.8672,83,696.8672" style="stroke:#181818;stroke-width:1.0;"/><line style="stroke:#181818;stroke-width:1.0;stroke-dasharray:2.0,2.0;" x1="81" x2="466" y1="696.8672" y2="696.8672"/><text fill="#000000" font-family="sans-serif" font-size="13" font-weight="bold" lengthAdjust="spacing" textLength="14" x="93" y="692.0107">14</text><text fill="#000000" font-family="sans-serif" font-size="13" lengthAdjust="spacing" textLength="193" x="111" y="692.0107">requests data (numberBedrooms)</text><polygon fill="#181818" points="450,723.2188,460,727.2188,450,731.2188,454,727.2188" style="stroke:#181818;stroke-width:1.0;"/><line style="stroke:#181818;stroke-width:1.0;" x1="76" x2="456" y1="727.2188" y2="727.2188"/><text fill="#000000" font-family="sans-serif" font-size="13" font-weight="bold" lengthAdjust="spacing" textLength="14" x="83" y="722.3623">15</text><text fill="#000000" font-family="sans-serif" font-size="13" lengthAdjust="spacing" textLength="154" x="101" y="722.3623">types number of bedrooms</text><polygon fill="#181818" points="87,753.5703,77,757.5703,87,761.5703,83,757.5703" style="stroke:#181818;stroke-width:1.0;"/><line style="stroke:#181818;stroke-width:1.0;stroke-dasharray:2.0,2.0;" x1="81" x2="466" y1="757.5703" y2="757.5703"/><text fill="#000000" font-family="sans-serif" font-size="13" font-weight="bold" lengthAdjust="spacing" textLength="14" x="93" y="752.7139">16</text><text fill="#000000" font-family="sans-serif" font-size="13" lengthAdjust="spacing" textLength="344" x="111" y="752.7139">shows sorted list and asks if it wants to select more criteria</text><line style="stroke:#000000;stroke-width:1.0;stroke-dasharray:2.0,2.0;" x1="20" x2="513" y1="791.5703" y2="791.5703"/><text fill="#000000" font-family="sans-serif" font-size="11" font-weight="bold" lengthAdjust="spacing" textLength="67" x="25" y="802.9893">[option == 4]</text><polygon fill="#181818" points="450,824.7578,460,828.7578,450,832.7578,454,828.7578" style="stroke:#181818;stroke-width:1.0;"/><line style="stroke:#181818;stroke-width:1.0;" x1="76" x2="456" y1="828.7578" y2="828.7578"/><text fill="#000000" font-family="sans-serif" font-size="13" font-weight="bold" lengthAdjust="spacing" textLength="14" x="83" y="823.9014">17</text><text fill="#000000" font-family="sans-serif" font-size="13" lengthAdjust="spacing" textLength="85" x="101" y="823.9014">selects criteria</text><polygon fill="#181818" points="87,855.1094,77,859.1094,87,863.1094,83,859.1094" style="stroke:#181818;stroke-width:1.0;"/><line style="stroke:#181818;stroke-width:1.0;stroke-dasharray:2.0,2.0;" x1="81" x2="466" y1="859.1094" y2="859.1094"/><text fill="#000000" font-family="sans-serif" font-size="13" font-weight="bold" lengthAdjust="spacing" textLength="14" x="93" y="854.2529">18</text><text fill="#000000" font-family="sans-serif" font-size="13" lengthAdjust="spacing" textLength="341" x="111" y="854.2529">shows price sorting orders available and asks to select one</text><polygon fill="#181818" points="450,885.4609,460,889.4609,450,893.4609,454,889.4609" style="stroke:#181818;stroke-width:1.0;"/><line style="stroke:#181818;stroke-width:1.0;" x1="76" x2="456" y1="889.4609" y2="889.4609"/><text fill="#000000" font-family="sans-serif" font-size="13" font-weight="bold" lengthAdjust="spacing" textLength="14" x="83" y="884.6045">19</text><text fill="#000000" font-family="sans-serif" font-size="13" lengthAdjust="spacing" textLength="129" x="101" y="884.6045">selects a sorting order</text><polygon fill="#181818" points="87,915.8125,77,919.8125,87,923.8125,83,919.8125" style="stroke:#181818;stroke-width:1.0;"/><line style="stroke:#181818;stroke-width:1.0;stroke-dasharray:2.0,2.0;" x1="81" x2="466" y1="919.8125" y2="919.8125"/><text fill="#000000" font-family="sans-serif" font-size="13" font-weight="bold" lengthAdjust="spacing" textLength="14" x="93" y="914.9561">20</text><text fill="#000000" font-family="sans-serif" font-size="13" lengthAdjust="spacing" textLength="344" x="111" y="914.9561">shows sorted list and asks if it wants to select more criteria</text><line style="stroke:#000000;stroke-width:1.0;stroke-dasharray:2.0,2.0;" x1="20" x2="513" y1="953.8125" y2="953.8125"/><text fill="#000000" font-family="sans-serif" font-size="11" font-weight="bold" lengthAdjust="spacing" textLength="67" x="25" y="965.2314">[option == 5]</text><polygon fill="#181818" points="450,987,460,991,450,995,454,991" style="stroke:#181818;stroke-width:1.0;"/><line style="stroke:#181818;stroke-width:1.0;" x1="76" x2="456" y1="991" y2="991"/><text fill="#000000" font-family="sans-serif" font-size="13" font-weight="bold" lengthAdjust="spacing" textLength="14" x="83" y="986.1436">21</text><text fill="#000000" font-family="sans-serif" font-size="13" lengthAdjust="spacing" textLength="85" x="101" y="986.1436">selects criteria</text><polygon fill="#181818" points="87,1017.3516,77,1021.3516,87,1025.3516,83,1021.3516" style="stroke:#181818;stroke-width:1.0;"/><line style="stroke:#181818;stroke-width:1.0;stroke-dasharray:2.0,2.0;" x1="81" x2="466" y1="1021.3516" y2="1021.3516"/><text fill="#000000" font-family="sans-serif" font-size="13" font-weight="bold" lengthAdjust="spacing" textLength="14" x="93" y="1016.4951">22</text><text fill="#000000" font-family="sans-serif" font-size="13" lengthAdjust="spacing" textLength="334" x="111" y="1016.4951">shows city sorting orders available and asks to select one</text><polygon fill="#181818" points="450,1047.7031,460,1051.7031,450,1055.7031,454,1051.7031" style="stroke:#181818;stroke-width:1.0;"/><line style="stroke:#181818;stroke-width:1.0;" x1="76" x2="456" y1="1051.7031" y2="1051.7031"/><text fill="#000000" font-family="sans-serif" font-size="13" font-weight="bold" lengthAdjust="spacing" textLength="14" x="83" y="1046.8467">23</text><text fill="#000000" font-family="sans-serif" font-size="13" lengthAdjust="spacing" textLength="129" x="101" y="1046.8467">selects a sorting order</text><polygon fill="#181818" points="87,1078.0547,77,1082.0547,87,1086.0547,83,1082.0547" style="stroke:#181818;stroke-width:1.0;"/><line style="stroke:#181818;stroke-width:1.0;stroke-dasharray:2.0,2.0;" x1="81" x2="466" y1="1082.0547" y2="1082.0547"/><text fill="#000000" font-family="sans-serif" font-size="13" font-weight="bold" lengthAdjust="spacing" textLength="14" x="93" y="1077.1982">24</text><text fill="#000000" font-family="sans-serif" font-size="13" lengthAdjust="spacing" textLength="344" x="111" y="1077.1982">shows sorted list and asks if it wants to select more criteria</text><line style="stroke:#000000;stroke-width:1.0;stroke-dasharray:2.0,2.0;" x1="20" x2="513" y1="1116.0547" y2="1116.0547"/><text fill="#000000" font-family="sans-serif" font-size="11" font-weight="bold" lengthAdjust="spacing" textLength="67" x="25" y="1127.4736">[option == 6]</text><polygon fill="#181818" points="450,1149.2422,460,1153.2422,450,1157.2422,454,1153.2422" style="stroke:#181818;stroke-width:1.0;"/><line style="stroke:#181818;stroke-width:1.0;" x1="76" x2="456" y1="1153.2422" y2="1153.2422"/><text fill="#000000" font-family="sans-serif" font-size="13" font-weight="bold" lengthAdjust="spacing" textLength="14" x="83" y="1148.3857">25</text><text fill="#000000" font-family="sans-serif" font-size="13" lengthAdjust="spacing" textLength="85" x="101" y="1148.3857">selects criteria</text><polygon fill="#181818" points="87,1179.5938,77,1183.5938,87,1187.5938,83,1183.5938" style="stroke:#181818;stroke-width:1.0;"/><line style="stroke:#181818;stroke-width:1.0;stroke-dasharray:2.0,2.0;" x1="81" x2="466" y1="1183.5938" y2="1183.5938"/><text fill="#000000" font-family="sans-serif" font-size="13" font-weight="bold" lengthAdjust="spacing" textLength="14" x="93" y="1178.7373">26</text><text fill="#000000" font-family="sans-serif" font-size="13" lengthAdjust="spacing" textLength="98" x="111" y="1178.7373">shows sorted list</text><polygon fill="#181818" points="450,1248.9453,460,1252.9453,450,1256.9453,454,1252.9453" style="stroke:#181818;stroke-width:1.0;"/><line style="stroke:#181818;stroke-width:1.0;" x1="76" x2="456" y1="1252.9453" y2="1252.9453"/><text fill="#000000" font-family="sans-serif" font-size="13" font-weight="bold" lengthAdjust="spacing" textLength="14" x="83" y="1248.0889">27</text><text fill="#000000" font-family="sans-serif" font-size="13" lengthAdjust="spacing" textLength="149" x="101" y="1248.0889">selects an announcement</text><polygon fill="#181818" points="87,1295.6484,77,1299.6484,87,1303.6484,83,1299.6484" style="stroke:#181818;stroke-width:1.0;"/><line style="stroke:#181818;stroke-width:1.0;stroke-dasharray:2.0,2.0;" x1="81" x2="466" y1="1299.6484" y2="1299.6484"/><text fill="#000000" font-family="sans-serif" font-size="13" font-weight="bold" lengthAdjust="spacing" textLength="14" x="93" y="1286.6162">28</text><text fill="#000000" font-family="sans-serif" font-size="13" lengthAdjust="spacing" textLength="320" x="111" y="1278.4404">requests data (visitDay, visitMonth, visitYear, startHour,</text><text fill="#000000" font-family="sans-serif" font-size="13" lengthAdjust="spacing" textLength="52" x="115" y="1294.792">endHour)</text><path d="M20,1314.6484 L93,1314.6484 L93,1323 L83,1333 L20,1333 L20,1314.6484 " fill="#EEEEEE" style="stroke:#000000;stroke-width:1.5;"/><rect fill="none" height="109.4063" style="stroke:#000000;stroke-width:1.5;" width="493" x="20" y="1314.6484"/><text fill="#000000" font-family="sans-serif" font-size="13" font-weight="bold" lengthAdjust="spacing" textLength="28" x="35" y="1329.1436">loop</text><text fill="#000000" font-family="sans-serif" font-size="11" font-weight="bold" lengthAdjust="spacing" textLength="133" x="108" y="1328.0674">[While the user intends]</text><polygon fill="#181818" points="450,1351.3516,460,1355.3516,450,1359.3516,454,1355.3516" style="stroke:#181818;stroke-width:1.0;"/><line style="stroke:#181818;stroke-width:1.0;" x1="76" x2="456" y1="1355.3516" y2="1355.3516"/><text fill="#000000" font-family="sans-serif" font-size="13" font-weight="bold" lengthAdjust="spacing" textLength="14" x="83" y="1350.4951">29</text><text fill="#000000" font-family="sans-serif" font-size="13" lengthAdjust="spacing" textLength="122" x="101" y="1350.4951">types requested data</text><polygon fill="#181818" points="87,1381.7031,77,1385.7031,87,1389.7031,83,1385.7031" style="stroke:#181818;stroke-width:1.0;"/><line style="stroke:#181818;stroke-width:1.0;stroke-dasharray:2.0,2.0;" x1="81" x2="466" y1="1385.7031" y2="1385.7031"/><text fill="#000000" font-family="sans-serif" font-size="13" font-weight="bold" lengthAdjust="spacing" textLength="14" x="93" y="1380.8467">30</text><text fill="#000000" font-family="sans-serif" font-size="13" lengthAdjust="spacing" textLength="198" x="111" y="1380.8467">shows all data and asks to submit</text><polygon fill="#181818" points="450,1412.0547,460,1416.0547,450,1420.0547,454,1416.0547" style="stroke:#181818;stroke-width:1.0;"/><line style="stroke:#181818;stroke-width:1.0;" x1="76" x2="456" y1="1416.0547" y2="1416.0547"/><text fill="#000000" font-family="sans-serif" font-size="13" font-weight="bold" lengthAdjust="spacing" textLength="14" x="83" y="1411.1982">31</text><text fill="#000000" font-family="sans-serif" font-size="13" lengthAdjust="spacing" textLength="75" x="101" y="1411.1982">submits data</text><polygon fill="#181818" points="87,1449.4063,77,1453.4063,87,1457.4063,83,1453.4063" style="stroke:#181818;stroke-width:1.0;"/><line style="stroke:#181818;stroke-width:1.0;stroke-dasharray:2.0,2.0;" x1="81" x2="466" y1="1453.4063" y2="1453.4063"/><text fill="#000000" font-family="sans-serif" font-size="13" font-weight="bold" lengthAdjust="spacing" textLength="14" x="93" y="1448.5498">32</text><text fill="#000000" font-family="sans-serif" font-size="13" lengthAdjust="spacing" textLength="158" x="111" y="1448.5498">displays operation success</text><!--SRC=[xLTDJzn03BtdLxXxG22nAlsKYe13eL8FvHIg2gaN9_7kZaXcqh73QYL-V3t9aYNQJHOG1Garoc4qOp_xsUCP3ryPMwB70WfdNJhphY0GNr74xKg9wHLEAPP5Jk0f5RJJ_Au0pp1pSsEdCC6SAOh4Y8h6zASYcnAS6Pm6kTtuR0_6y3C-EFWIHLY9irMHaDTnAix3w2WvWTEAHPtmSFGsEHa1CfnUd4TgI4ngIhJIY1t62nOgMg7uChxuTbuZcMiKghKYq4y7C3vP2i2X2bynY0DEPvHLwYU2fJbS6pPIAuIlXRd5lLrOmemLCG0VAdatPx3EGaRA7dB30cYpnewPWCm8AbP2StMUVzjWUs9oqPcm5EHhT5NVP3HtheHVCwEEjaZ62jcCD_DZoZL73KKYIBrHKmRxp3wKQOlN9LfR2uOrd2kJYvA6kDr-VHHQ85UASRQZCmY8kInruFWOtdKN1yWb5HjBpBNdlGoTfJN0BGo7M6BNx9hULk01GkoyKBQ-AOqqs_4EgyBvrMwv1x-RcvkE56dftmdw-yxYlOFHwy3MAFH4eFIk92-BPqvfn-mhIUa7sDbfYLs4SBuvXj4FTM8KlKI2VRXWM34p58JTvZBvIfbthk2zfyXdI9uUxZKmk0aaI_1Naj2FqKlMfT7M870FZOFp6NcjcsiqEIRXKdvqZJwWI3lMNqbEF_s3d0wUv7rzWj73xtzwdpgzdv-ZPE_7_15ajXp154APoseoJ8G6UBZJHQk_TPM-DGgoMvhuRRT8_GuumyL-yo8uTrPco_4beTy75dsBV7ULtzTUNXqCmzLbyuWkll_YMRgcyGw-FP1Nao_CyuPOf-Agf323huwrKDSQlF9ZerOtNMiUPORB71SCeOF0UaTpbQRQ-FQuyXS0]--></g></svg>