<?xml version="1.0" encoding="UTF-8" standalone="no"?><svg xmlns="http://www.w3.org/2000/svg" xmlns:xlink="http://www.w3.org/1999/xlink" contentStyleType="text/css" height="1066px" preserveAspectRatio="none" style="width:554px;height:1066px;background:#FFFFFF;" version="1.1" viewBox="0 0 554 1066" width="554px" zoomAndPan="magnify"><defs><filter height="300%" id="f1ovipc9csqsng" width="300%" x="-1" y="-1"><feGaussianBlur result="blurOut" stdDeviation="2.0"/><feColorMatrix in="blurOut" result="blurOut2" type="matrix" values="0 0 0 0 0 0 0 0 0 0 0 0 0 0 0 0 0 0 .4 0"/><feOffset dx="4.0" dy="4.0" in="blurOut2" result="blurOut3"/><feBlend in="SourceGraphic" in2="blurOut3" mode="normal"/></filter></defs><g><text fill="#000000" font-family="sans-serif" font-size="14" font-weight="bold" lengthAdjust="spacing" textLength="284" x="133.75" y="29.5332">System Sequence Diagram (SSD) - US004</text><rect fill="#FFFFFF" filter="url(#f1ovipc9csqsng)" height="670.2422" style="stroke:#FFFFFF;stroke-width:1.0;" width="10" x="41" y="134.2188"/><line style="stroke:#181818;stroke-width:1.0;" x1="41" x2="41" y1="134.2188" y2="804.4609"/><line style="stroke:#181818;stroke-width:1.0;" x1="51" x2="51" y1="134.2188" y2="804.4609"/><line style="stroke:#181818;stroke-width:1.0;" x1="41" x2="51" y1="134.2188" y2="134.2188"/><rect fill="#FFFFFF" filter="url(#f1ovipc9csqsng)" height="129.4063" style="stroke:#FFFFFF;stroke-width:1.0;" width="10" x="41" y="846.2969"/><line style="stroke:#181818;stroke-width:1.0;" x1="41" x2="41" y1="846.2969" y2="975.7031"/><line style="stroke:#181818;stroke-width:1.0;" x1="51" x2="51" y1="846.2969" y2="975.7031"/><rect fill="#FFFFFF" filter="url(#f1ovipc9csqsng)" height="30.3516" style="stroke:#181818;stroke-width:1.0;" width="10" x="492" y="156.5703"/><rect fill="#FFFFFF" filter="url(#f1ovipc9csqsng)" height="30.3516" style="stroke:#181818;stroke-width:1.0;" width="10" x="492" y="233.625"/><rect fill="#FFFFFF" filter="url(#f1ovipc9csqsng)" height="30.3516" style="stroke:#181818;stroke-width:1.0;" width="10" x="492" y="294.3281"/><rect fill="#FFFFFF" filter="url(#f1ovipc9csqsng)" height="30.3516" style="stroke:#181818;stroke-width:1.0;" width="10" x="492" y="410.7344"/><rect fill="#FFFFFF" filter="url(#f1ovipc9csqsng)" height="30.3516" style="stroke:#181818;stroke-width:1.0;" width="10" x="492" y="487.2734"/><rect fill="#FFFFFF" filter="url(#f1ovipc9csqsng)" height="30.3516" style="stroke:#181818;stroke-width:1.0;" width="10" x="492" y="554.9766"/><rect fill="#FFFFFF" filter="url(#f1ovipc9csqsng)" height="46.7031" style="stroke:#181818;stroke-width:1.0;" width="10" x="492" y="641.0313"/><rect fill="#FFFFFF" filter="url(#f1ovipc9csqsng)" height="46.7031" style="stroke:#181818;stroke-width:1.0;" width="10" x="492" y="733.9219"/><rect fill="#FFFFFF" filter="url(#f1ovipc9csqsng)" height="30.3516" style="stroke:#181818;stroke-width:1.0;" width="10" x="492" y="875.6484"/><rect fill="#FFFFFF" filter="url(#f1ovipc9csqsng)" height="30.3516" style="stroke:#181818;stroke-width:1.0;" width="10" x="492" y="936.3516"/><rect fill="none" filter="url(#f1ovipc9csqsng)" height="155.5938" style="stroke:#000000;stroke-width:1.5;" width="532.5" x="10" y="370.0313"/><rect fill="none" filter="url(#f1ovipc9csqsng)" height="245.9688" style="stroke:#000000;stroke-width:1.5;" width="532.5" x="10" y="600.3281"/><line style="stroke:#181818;stroke-width:0.5;stroke-dasharray:5.0,5.0;" x1="46" x2="46" y1="124.2188" y2="804.4609"/><line style="stroke:#383838;stroke-width:1.0;stroke-dasharray:1.0,4.0;" x1="46" x2="46" y1="804.4609" y2="846.2969"/><line style="stroke:#181818;stroke-width:0.5;stroke-dasharray:5.0,5.0;" x1="46" x2="46" y1="846.2969" y2="984.7031"/><line style="stroke:#181818;stroke-width:0.5;stroke-dasharray:5.0,5.0;" x1="496.5" x2="496.5" y1="124.2188" y2="804.4609"/><line style="stroke:#383838;stroke-width:1.0;stroke-dasharray:1.0,4.0;" x1="496.5" x2="496.5" y1="804.4609" y2="846.2969"/><line style="stroke:#181818;stroke-width:0.5;stroke-dasharray:5.0,5.0;" x1="496.5" x2="496.5" y1="846.2969" y2="984.7031"/><text fill="#000000" font-family="sans-serif" font-size="14" font-weight="bold" lengthAdjust="spacing" textLength="46" x="20" y="121.1426">Owner</text><ellipse cx="46" cy="52.1094" fill="#E3E3E3" filter="url(#f1ovipc9csqsng)" rx="8" ry="8" style="stroke:#181818;stroke-width:0.5;"/><path d="M46,60.1094 L46,87.1094 M33,68.1094 L59,68.1094 M46,87.1094 L33,102.1094 M46,87.1094 L59,102.1094 " fill="none" filter="url(#f1ovipc9csqsng)" style="stroke:#181818;stroke-width:0.5;"/><text fill="#000000" font-family="sans-serif" font-size="14" font-weight="bold" lengthAdjust="spacing" textLength="46" x="20" y="998.2363">Owner</text><ellipse cx="46" cy="1009.8125" fill="#E3E3E3" filter="url(#f1ovipc9csqsng)" rx="8" ry="8" style="stroke:#181818;stroke-width:0.5;"/><path d="M46,1017.8125 L46,1044.8125 M33,1025.8125 L59,1025.8125 M46,1044.8125 L33,1059.8125 M46,1044.8125 L59,1059.8125 " fill="none" filter="url(#f1ovipc9csqsng)" style="stroke:#181818;stroke-width:0.5;"/><rect fill="#E3E3E3" filter="url(#f1ovipc9csqsng)" height="31.6094" rx="2.5" ry="2.5" style="stroke:#181818;stroke-width:0.5;" width="68" x="461.5" y="88.6094"/><text fill="#000000" font-family="sans-serif" font-size="14" font-weight="bold" lengthAdjust="spacing" textLength="54" x="468.5" y="110.1426">:System</text><rect fill="#E3E3E3" filter="url(#f1ovipc9csqsng)" height="31.6094" rx="2.5" ry="2.5" style="stroke:#181818;stroke-width:0.5;" width="68" x="461.5" y="983.7031"/><text fill="#000000" font-family="sans-serif" font-size="14" font-weight="bold" lengthAdjust="spacing" textLength="54" x="468.5" y="1005.2363">:System</text><rect fill="#FFFFFF" filter="url(#f1ovipc9csqsng)" height="670.2422" style="stroke:#FFFFFF;stroke-width:1.0;" width="10" x="41" y="134.2188"/><line style="stroke:#181818;stroke-width:1.0;" x1="41" x2="41" y1="134.2188" y2="804.4609"/><line style="stroke:#181818;stroke-width:1.0;" x1="51" x2="51" y1="134.2188" y2="804.4609"/><line style="stroke:#181818;stroke-width:1.0;" x1="41" x2="51" y1="134.2188" y2="134.2188"/><rect fill="#FFFFFF" filter="url(#f1ovipc9csqsng)" height="129.4063" style="stroke:#FFFFFF;stroke-width:1.0;" width="10" x="41" y="846.2969"/><line style="stroke:#181818;stroke-width:1.0;" x1="41" x2="41" y1="846.2969" y2="975.7031"/><line style="stroke:#181818;stroke-width:1.0;" x1="51" x2="51" y1="846.2969" y2="975.7031"/><rect fill="#FFFFFF" filter="url(#f1ovipc9csqsng)" height="30.3516" style="stroke:#181818;stroke-width:1.0;" width="10" x="492" y="156.5703"/><rect fill="#FFFFFF" filter="url(#f1ovipc9csqsng)" height="30.3516" style="stroke:#181818;stroke-width:1.0;" width="10" x="492" y="233.625"/><rect fill="#FFFFFF" filter="url(#f1ovipc9csqsng)" height="30.3516" style="stroke:#181818;stroke-width:1.0;" width="10" x="492" y="294.3281"/><rect fill="#FFFFFF" filter="url(#f1ovipc9csqsng)" height="30.3516" style="stroke:#181818;stroke-width:1.0;" width="10" x="492" y="410.7344"/><rect fill="#FFFFFF" filter="url(#f1ovipc9csqsng)" height="30.3516" style="stroke:#181818;stroke-width:1.0;" width="10" x="492" y="487.2734"/><rect fill="#FFFFFF" filter="url(#f1ovipc9csqsng)" height="30.3516" style="stroke:#181818;stroke-width:1.0;" width="10" x="492" y="554.9766"/><rect fill="#FFFFFF" filter="url(#f1ovipc9csqsng)" height="46.7031" style="stroke:#181818;stroke-width:1.0;" width="10" x="492" y="641.0313"/><rect fill="#FFFFFF" filter="url(#f1ovipc9csqsng)" height="46.7031" style="stroke:#181818;stroke-width:1.0;" width="10" x="492" y="733.9219"/><rect fill="#FFFFFF" filter="url(#f1ovipc9csqsng)" height="30.3516" style="stroke:#181818;stroke-width:1.0;" width="10" x="492" y="875.6484"/><rect fill="#FFFFFF" filter="url(#f1ovipc9csqsng)" height="30.3516" style="stroke:#181818;stroke-width:1.0;" width="10" x="492" y="936.3516"/><polygon fill="#181818" points="480,152.5703,490,156.5703,480,160.5703,484,156.5703" style="stroke:#181818;stroke-width:1.0;"/><line style="stroke:#181818;stroke-width:1.0;" x1="51" x2="486" y1="156.5703" y2="156.5703"/><text fill="#000000" font-family="sans-serif" font-size="13" font-weight="bold" lengthAdjust="spacing" textLength="7" x="58" y="151.7139">1</text><text fill="#000000" font-family="sans-serif" font-size="13" lengthAdjust="spacing" textLength="168" x="69" y="151.7139">asks to create a new request</text><polygon fill="#181818" points="62,182.9219,52,186.9219,62,190.9219,58,186.9219" style="stroke:#181818;stroke-width:1.0;"/><line style="stroke:#181818;stroke-width:1.0;stroke-dasharray:2.0,2.0;" x1="56" x2="496" y1="186.9219" y2="186.9219"/><text fill="#000000" font-family="sans-serif" font-size="13" font-weight="bold" lengthAdjust="spacing" textLength="7" x="68" y="182.0654">2</text><text fill="#000000" font-family="sans-serif" font-size="13" lengthAdjust="spacing" textLength="79" x="79" y="182.0654">requests data</text><polygon fill="#181818" points="480,229.625,490,233.625,480,237.625,484,233.625" style="stroke:#181818;stroke-width:1.0;"/><line style="stroke:#181818;stroke-width:1.0;" x1="51" x2="486" y1="233.625" y2="233.625"/><text fill="#000000" font-family="sans-serif" font-size="13" font-weight="bold" lengthAdjust="spacing" textLength="7" x="58" y="220.5928">3</text><text fill="#000000" font-family="sans-serif" font-size="13" lengthAdjust="spacing" textLength="411" x="69" y="212.417">types requested data (property's name, reference, description, location,</text><text fill="#000000" font-family="sans-serif" font-size="13" lengthAdjust="spacing" textLength="184" x="73" y="228.7686">distance from City Center, area)</text><polygon fill="#181818" points="62,259.9766,52,263.9766,62,267.9766,58,263.9766" style="stroke:#181818;stroke-width:1.0;"/><line style="stroke:#181818;stroke-width:1.0;stroke-dasharray:2.0,2.0;" x1="56" x2="496" y1="263.9766" y2="263.9766"/><text fill="#000000" font-family="sans-serif" font-size="13" font-weight="bold" lengthAdjust="spacing" textLength="7" x="68" y="259.1201">4</text><text fill="#000000" font-family="sans-serif" font-size="13" lengthAdjust="spacing" textLength="261" x="79" y="259.1201">shows property's lists and asks to select one</text><polygon fill="#181818" points="62,290.3281,52,294.3281,62,298.3281,58,294.3281" style="stroke:#181818;stroke-width:1.0;"/><line style="stroke:#181818;stroke-width:1.0;stroke-dasharray:2.0,2.0;" x1="56" x2="491" y1="294.3281" y2="294.3281"/><text fill="#000000" font-family="sans-serif" font-size="13" font-weight="bold" lengthAdjust="spacing" textLength="7" x="68" y="289.4717">5</text><text fill="#000000" font-family="sans-serif" font-size="13" lengthAdjust="spacing" textLength="79" x="79" y="289.4717">requests data</text><polygon fill="#181818" points="485,320.6797,495,324.6797,485,328.6797,489,324.6797" style="stroke:#181818;stroke-width:1.0;"/><line style="stroke:#181818;stroke-width:1.0;" x1="51" x2="491" y1="324.6797" y2="324.6797"/><text fill="#000000" font-family="sans-serif" font-size="13" font-weight="bold" lengthAdjust="spacing" textLength="7" x="58" y="319.8232">6</text><text fill="#000000" font-family="sans-serif" font-size="13" lengthAdjust="spacing" textLength="266" x="69" y="319.8232">imports requested data (photographs/pictures)</text><polygon fill="#181818" points="485,351.0313,495,355.0313,485,359.0313,489,355.0313" style="stroke:#181818;stroke-width:1.0;"/><line style="stroke:#181818;stroke-width:1.0;" x1="51" x2="491" y1="355.0313" y2="355.0313"/><text fill="#000000" font-family="sans-serif" font-size="13" font-weight="bold" lengthAdjust="spacing" textLength="7" x="58" y="350.1748">7</text><text fill="#000000" font-family="sans-serif" font-size="13" lengthAdjust="spacing" textLength="134" x="69" y="350.1748">selects a property's list</text><path d="M10,370.0313 L71,370.0313 L71,378.3828 L61,388.3828 L10,388.3828 L10,370.0313 " fill="#EEEEEE" style="stroke:#000000;stroke-width:1.5;"/><rect fill="none" height="155.5938" style="stroke:#000000;stroke-width:1.5;" width="532.5" x="10" y="370.0313"/><text fill="#000000" font-family="sans-serif" font-size="13" font-weight="bold" lengthAdjust="spacing" textLength="16" x="25" y="384.5264">alt</text><text fill="#000000" font-family="sans-serif" font-size="11" font-weight="bold" lengthAdjust="spacing" textLength="42" x="86" y="383.4502">[Rental]</text><polygon fill="#181818" points="62,406.7344,52,410.7344,62,414.7344,58,410.7344" style="stroke:#181818;stroke-width:1.0;"/><line style="stroke:#181818;stroke-width:1.0;stroke-dasharray:2.0,2.0;" x1="56" x2="491" y1="410.7344" y2="410.7344"/><text fill="#000000" font-family="sans-serif" font-size="13" font-weight="bold" lengthAdjust="spacing" textLength="7" x="68" y="405.8779">8</text><text fill="#000000" font-family="sans-serif" font-size="13" lengthAdjust="spacing" textLength="79" x="79" y="405.8779">requests data</text><polygon fill="#181818" points="485,437.0859,495,441.0859,485,445.0859,489,441.0859" style="stroke:#181818;stroke-width:1.0;"/><line style="stroke:#181818;stroke-width:1.0;" x1="51" x2="491" y1="441.0859" y2="441.0859"/><text fill="#000000" font-family="sans-serif" font-size="13" font-weight="bold" lengthAdjust="spacing" textLength="7" x="58" y="436.2295">9</text><text fill="#000000" font-family="sans-serif" font-size="13" lengthAdjust="spacing" textLength="270" x="69" y="436.2295">types requested data (rent, contract's duration)</text><line style="stroke:#000000;stroke-width:1.0;stroke-dasharray:2.0,2.0;" x1="10" x2="542.5" y1="450.0859" y2="450.0859"/><text fill="#000000" font-family="sans-serif" font-size="11" font-weight="bold" lengthAdjust="spacing" textLength="31" x="15" y="461.5049">[Sale]</text><polygon fill="#181818" points="62,483.2734,52,487.2734,62,491.2734,58,487.2734" style="stroke:#181818;stroke-width:1.0;"/><line style="stroke:#181818;stroke-width:1.0;stroke-dasharray:2.0,2.0;" x1="56" x2="491" y1="487.2734" y2="487.2734"/><text fill="#000000" font-family="sans-serif" font-size="13" font-weight="bold" lengthAdjust="spacing" textLength="7" x="68" y="482.417">8</text><text fill="#000000" font-family="sans-serif" font-size="13" lengthAdjust="spacing" textLength="79" x="79" y="482.417">requests data</text><polygon fill="#181818" points="485,513.625,495,517.625,485,521.625,489,517.625" style="stroke:#181818;stroke-width:1.0;"/><line style="stroke:#181818;stroke-width:1.0;" x1="51" x2="491" y1="517.625" y2="517.625"/><text fill="#000000" font-family="sans-serif" font-size="13" font-weight="bold" lengthAdjust="spacing" textLength="7" x="58" y="512.7686">9</text><text fill="#000000" font-family="sans-serif" font-size="13" lengthAdjust="spacing" textLength="162" x="69" y="512.7686">types requested data (price)</text><polygon fill="#181818" points="62,550.9766,52,554.9766,62,558.9766,58,554.9766" style="stroke:#181818;stroke-width:1.0;"/><line style="stroke:#181818;stroke-width:1.0;stroke-dasharray:2.0,2.0;" x1="56" x2="491" y1="554.9766" y2="554.9766"/><text fill="#000000" font-family="sans-serif" font-size="13" font-weight="bold" lengthAdjust="spacing" textLength="14" x="68" y="550.1201">10</text><text fill="#000000" font-family="sans-serif" font-size="13" lengthAdjust="spacing" textLength="269" x="86" y="550.1201">shows property's types and asks to select one</text><polygon fill="#181818" points="485,581.3281,495,585.3281,485,589.3281,489,585.3281" style="stroke:#181818;stroke-width:1.0;"/><line style="stroke:#181818;stroke-width:1.0;" x1="51" x2="491" y1="585.3281" y2="585.3281"/><text fill="#000000" font-family="sans-serif" font-size="13" font-weight="bold" lengthAdjust="spacing" textLength="14" x="58" y="580.4717">11</text><text fill="#000000" font-family="sans-serif" font-size="13" lengthAdjust="spacing" textLength="131" x="76" y="580.4717">selects property's type</text><path d="M10,600.3281 L71,600.3281 L71,608.6797 L61,618.6797 L10,618.6797 L10,600.3281 " fill="#EEEEEE" style="stroke:#000000;stroke-width:1.5;"/><rect fill="none" height="245.9688" style="stroke:#000000;stroke-width:1.5;" width="532.5" x="10" y="600.3281"/><text fill="#000000" font-family="sans-serif" font-size="13" font-weight="bold" lengthAdjust="spacing" textLength="16" x="25" y="614.8232">alt</text><text fill="#000000" font-family="sans-serif" font-size="11" font-weight="bold" lengthAdjust="spacing" textLength="67" x="86" y="613.7471">[Apartment]</text><polygon fill="#181818" points="62,637.0313,52,641.0313,62,645.0313,58,641.0313" style="stroke:#181818;stroke-width:1.0;"/><line style="stroke:#181818;stroke-width:1.0;stroke-dasharray:2.0,2.0;" x1="56" x2="491" y1="641.0313" y2="641.0313"/><text fill="#000000" font-family="sans-serif" font-size="13" font-weight="bold" lengthAdjust="spacing" textLength="14" x="68" y="636.1748">12</text><text fill="#000000" font-family="sans-serif" font-size="13" lengthAdjust="spacing" textLength="79" x="86" y="636.1748">requests data</text><polygon fill="#181818" points="485,683.7344,495,687.7344,485,691.7344,489,687.7344" style="stroke:#181818;stroke-width:1.0;"/><line style="stroke:#181818;stroke-width:1.0;" x1="51" x2="491" y1="687.7344" y2="687.7344"/><text fill="#000000" font-family="sans-serif" font-size="13" font-weight="bold" lengthAdjust="spacing" textLength="14" x="58" y="674.7021">13</text><text fill="#000000" font-family="sans-serif" font-size="13" lengthAdjust="spacing" textLength="353" x="76" y="666.5264">types requested data (bedrooms, bathrooms, central heating,</text><text fill="#000000" font-family="sans-serif" font-size="13" lengthAdjust="spacing" textLength="91" x="80" y="682.8779">air conditioning)</text><line style="stroke:#000000;stroke-width:1.0;stroke-dasharray:2.0,2.0;" x1="10" x2="542.5" y1="696.7344" y2="696.7344"/><text fill="#000000" font-family="sans-serif" font-size="11" font-weight="bold" lengthAdjust="spacing" textLength="43" x="15" y="708.1533">[House]</text><polygon fill="#181818" points="62,729.9219,52,733.9219,62,737.9219,58,733.9219" style="stroke:#181818;stroke-width:1.0;"/><line style="stroke:#181818;stroke-width:1.0;stroke-dasharray:2.0,2.0;" x1="56" x2="491" y1="733.9219" y2="733.9219"/><text fill="#000000" font-family="sans-serif" font-size="13" font-weight="bold" lengthAdjust="spacing" textLength="14" x="68" y="729.0654">12</text><text fill="#000000" font-family="sans-serif" font-size="13" lengthAdjust="spacing" textLength="79" x="86" y="729.0654">requests data</text><polygon fill="#181818" points="485,776.625,495,780.625,485,784.625,489,780.625" style="stroke:#181818;stroke-width:1.0;"/><line style="stroke:#181818;stroke-width:1.0;" x1="51" x2="491" y1="780.625" y2="780.625"/><text fill="#000000" font-family="sans-serif" font-size="13" font-weight="bold" lengthAdjust="spacing" textLength="14" x="58" y="767.5928">13</text><text fill="#000000" font-family="sans-serif" font-size="13" lengthAdjust="spacing" textLength="353" x="76" y="759.417">types requested data (bedrooms, bathrooms, central heating,</text><text fill="#000000" font-family="sans-serif" font-size="13" lengthAdjust="spacing" textLength="333" x="80" y="775.7686">air conditioning, basement, inhabitable loft, sun exposure)</text><line style="stroke:#000000;stroke-width:1.0;stroke-dasharray:2.0,2.0;" x1="10" x2="542.5" y1="789.625" y2="789.625"/><text fill="#000000" font-family="sans-serif" font-size="11" font-weight="bold" lengthAdjust="spacing" textLength="35" x="15" y="801.0439">[Land]</text><text fill="#000000" font-family="sans-serif" font-size="11" lengthAdjust="spacing" textLength="200" x="171.5" y="829.8799">No extra steps when selecting this option</text><polygon fill="#181818" points="62,871.6484,52,875.6484,62,879.6484,58,875.6484" style="stroke:#181818;stroke-width:1.0;"/><line style="stroke:#181818;stroke-width:1.0;stroke-dasharray:2.0,2.0;" x1="56" x2="491" y1="875.6484" y2="875.6484"/><text fill="#000000" font-family="sans-serif" font-size="13" font-weight="bold" lengthAdjust="spacing" textLength="14" x="68" y="870.792">14</text><text fill="#000000" font-family="sans-serif" font-size="13" lengthAdjust="spacing" textLength="196" x="86" y="870.792">requests the selection of an agent</text><polygon fill="#181818" points="485,902,495,906,485,910,489,906" style="stroke:#181818;stroke-width:1.0;"/><line style="stroke:#181818;stroke-width:1.0;" x1="51" x2="491" y1="906" y2="906"/><text fill="#000000" font-family="sans-serif" font-size="13" font-weight="bold" lengthAdjust="spacing" textLength="14" x="58" y="901.1436">15</text><text fill="#000000" font-family="sans-serif" font-size="13" lengthAdjust="spacing" textLength="96" x="76" y="901.1436">selects an agent</text><polygon fill="#181818" points="480,932.3516,490,936.3516,480,940.3516,484,936.3516" style="stroke:#181818;stroke-width:1.0;"/><line style="stroke:#181818;stroke-width:1.0;" x1="51" x2="486" y1="936.3516" y2="936.3516"/><text fill="#000000" font-family="sans-serif" font-size="13" font-weight="bold" lengthAdjust="spacing" textLength="14" x="58" y="931.4951">16</text><text fill="#000000" font-family="sans-serif" font-size="13" lengthAdjust="spacing" textLength="119" x="76" y="931.4951">summits the request</text><polygon fill="#181818" points="62,962.7031,52,966.7031,62,970.7031,58,966.7031" style="stroke:#181818;stroke-width:1.0;"/><line style="stroke:#181818;stroke-width:1.0;stroke-dasharray:2.0,2.0;" x1="56" x2="496" y1="966.7031" y2="966.7031"/><text fill="#000000" font-family="sans-serif" font-size="13" font-weight="bold" lengthAdjust="spacing" textLength="14" x="68" y="961.8467">17</text><text fill="#000000" font-family="sans-serif" font-size="13" lengthAdjust="spacing" textLength="158" x="86" y="961.8467">displays operation success</text><!--SRC=[nLLDRzim3BtxLn2vj07IZmqx34LHO6WFEmmRi62tNMYPYONQaYRIo_BlHyjs5gIEa-sm-YJBv1FVqpF9pzO5Z5X3xPqtPVGrWSI6Cjvz2MYUSKrBsLO4aOoWMrVx0LnYuJVMhRlCJAnev7BBGZKiwKT3pX0yMLotqPVBvTCShk3RylRsNPPX8zurTKvHrqPyXDbz_l1buoZUt-GFCq26z9RfOMAD3UWanTnr9-oYkjU4Od-YK9-MWJvf2LSFGrLtcl3C81vCf3OMmT56sMcnB2bb1pFWGl_q45UAri7U3NaC1Ggcm896yr_M8Tj0F01GaH3WCaGVAChsWi5XJGiDM55iTLmeD9jeWrZl5b1vWsdrtK5XMUz6fLxfDSAZbIqyaXEA2q1bEVzhMbpw3SDUBPLjIQ8hTl8nLUe8y8wEqSuEm6S9VJQgsc7ok6Is3ZxAY6Yb5wyU2oNV16kaYSJpFmJFlfAEa_8yf9vTZ1LvCG6EbS1NlGEiTcNyCJoy7nE_rsTCdidx6tJTCJdcBRMHBC1u9r71b5hHnEIX-Icfg6BTm8gcoVnNDY5QGwShTyM44L_ul3jgmkVd6NKmqW7oH8De_VAXRNIrNbBsAlR8gOZUrxo07ANibuPQjrHGQhFKHjzs6xInDL5XM-letddk-UWR7hNFcxUluvz_fTl6CzNfNxAknDmAvZhsAh_I7MuSqA_WMNlGUS9ymi6YrzVNdxrcQmMWGO5XKvBhpPIcR6aPV1e06djWy5CJIaeQeBm3lrANWqvtDp7qNcYvtoFtiuzr_wCWJLtRlgQJetVqpzMH5ohSjd9GryGKr1XYFbBGRm00]--></g></svg>