<?xml version="1.0" encoding="UTF-8" standalone="no"?><svg xmlns="http://www.w3.org/2000/svg" xmlns:xlink="http://www.w3.org/1999/xlink" contentStyleType="text/css" height="1171px" preserveAspectRatio="none" style="width:554px;height:1171px;background:#FFFFFF;" version="1.1" viewBox="0 0 554 1171" width="554px" zoomAndPan="magnify"><defs><filter height="300%" id="fxqrnhuub08ok" width="300%" x="-1" y="-1"><feGaussianBlur result="blurOut" stdDeviation="2.0"/><feColorMatrix in="blurOut" result="blurOut2" type="matrix" values="0 0 0 0 0 0 0 0 0 0 0 0 0 0 0 0 0 0 .4 0"/><feOffset dx="4.0" dy="4.0" in="blurOut2" result="blurOut3"/><feBlend in="SourceGraphic" in2="blurOut3" mode="normal"/></filter></defs><g><text fill="#000000" font-family="sans-serif" font-size="14" font-weight="bold" lengthAdjust="spacing" textLength="284" x="133.75" y="29.5332">System Sequence Diagram (SSD) - US004</text><rect fill="#FFFFFF" filter="url(#fxqrnhuub08ok)" height="775.2969" style="stroke:#FFFFFF;stroke-width:1.0;" width="10" x="41" y="134.2188"/><line style="stroke:#181818;stroke-width:1.0;" x1="41" x2="41" y1="134.2188" y2="909.5156"/><line style="stroke:#181818;stroke-width:1.0;" x1="51" x2="51" y1="134.2188" y2="909.5156"/><line style="stroke:#181818;stroke-width:1.0;" x1="41" x2="51" y1="134.2188" y2="134.2188"/><rect fill="#FFFFFF" filter="url(#fxqrnhuub08ok)" height="129.4063" style="stroke:#FFFFFF;stroke-width:1.0;" width="10" x="41" y="951.3516"/><line style="stroke:#181818;stroke-width:1.0;" x1="41" x2="41" y1="951.3516" y2="1080.7578"/><line style="stroke:#181818;stroke-width:1.0;" x1="51" x2="51" y1="951.3516" y2="1080.7578"/><rect fill="#FFFFFF" filter="url(#fxqrnhuub08ok)" height="30.3516" style="stroke:#181818;stroke-width:1.0;" width="10" x="492" y="156.5703"/><rect fill="#FFFFFF" filter="url(#fxqrnhuub08ok)" height="30.3516" style="stroke:#181818;stroke-width:1.0;" width="10" x="492" y="233.625"/><rect fill="#FFFFFF" filter="url(#fxqrnhuub08ok)" height="30.3516" style="stroke:#181818;stroke-width:1.0;" width="10" x="492" y="294.3281"/><rect fill="#FFFFFF" filter="url(#fxqrnhuub08ok)" height="30.3516" style="stroke:#181818;stroke-width:1.0;" width="10" x="492" y="410.7344"/><rect fill="#FFFFFF" filter="url(#fxqrnhuub08ok)" height="30.3516" style="stroke:#181818;stroke-width:1.0;" width="10" x="492" y="487.2734"/><rect fill="#FFFFFF" filter="url(#fxqrnhuub08ok)" height="30.3516" style="stroke:#181818;stroke-width:1.0;" width="10" x="492" y="554.9766"/><rect fill="#FFFFFF" filter="url(#fxqrnhuub08ok)" height="30.3516" style="stroke:#181818;stroke-width:1.0;" width="10" x="492" y="641.0313"/><rect fill="#FFFFFF" filter="url(#fxqrnhuub08ok)" height="30.3516" style="stroke:#181818;stroke-width:1.0;" width="10" x="492" y="701.7344"/><rect fill="#FFFFFF" filter="url(#fxqrnhuub08ok)" height="30.3516" style="stroke:#181818;stroke-width:1.0;" width="10" x="492" y="778.2734"/><rect fill="#FFFFFF" filter="url(#fxqrnhuub08ok)" height="46.7031" style="stroke:#181818;stroke-width:1.0;" width="10" x="492" y="838.9766"/><rect fill="#FFFFFF" filter="url(#fxqrnhuub08ok)" height="30.3516" style="stroke:#181818;stroke-width:1.0;" width="10" x="492" y="980.7031"/><rect fill="#FFFFFF" filter="url(#fxqrnhuub08ok)" height="30.3516" style="stroke:#181818;stroke-width:1.0;" width="10" x="492" y="1041.4063"/><rect fill="none" filter="url(#fxqrnhuub08ok)" height="155.5938" style="stroke:#000000;stroke-width:1.5;" width="532.5" x="10" y="370.0313"/><rect fill="none" filter="url(#fxqrnhuub08ok)" height="351.0234" style="stroke:#000000;stroke-width:1.5;" width="532.5" x="10" y="600.3281"/><line style="stroke:#181818;stroke-width:0.5;stroke-dasharray:5.0,5.0;" x1="46" x2="46" y1="124.2188" y2="909.5156"/><line style="stroke:#383838;stroke-width:1.0;stroke-dasharray:1.0,4.0;" x1="46" x2="46" y1="909.5156" y2="951.3516"/><line style="stroke:#181818;stroke-width:0.5;stroke-dasharray:5.0,5.0;" x1="46" x2="46" y1="951.3516" y2="1089.7578"/><line style="stroke:#181818;stroke-width:0.5;stroke-dasharray:5.0,5.0;" x1="496.5" x2="496.5" y1="124.2188" y2="909.5156"/><line style="stroke:#383838;stroke-width:1.0;stroke-dasharray:1.0,4.0;" x1="496.5" x2="496.5" y1="909.5156" y2="951.3516"/><line style="stroke:#181818;stroke-width:0.5;stroke-dasharray:5.0,5.0;" x1="496.5" x2="496.5" y1="951.3516" y2="1089.7578"/><text fill="#000000" font-family="sans-serif" font-size="14" font-weight="bold" lengthAdjust="spacing" textLength="46" x="20" y="121.1426">Owner</text><ellipse cx="46" cy="52.1094" fill="#E3E3E3" filter="url(#fxqrnhuub08ok)" rx="8" ry="8" style="stroke:#181818;stroke-width:0.5;"/><path d="M46,60.1094 L46,87.1094 M33,68.1094 L59,68.1094 M46,87.1094 L33,102.1094 M46,87.1094 L59,102.1094 " fill="none" filter="url(#fxqrnhuub08ok)" style="stroke:#181818;stroke-width:0.5;"/><text fill="#000000" font-family="sans-serif" font-size="14" font-weight="bold" lengthAdjust="spacing" textLength="46" x="20" y="1103.291">Owner</text><ellipse cx="46" cy="1114.8672" fill="#E3E3E3" filter="url(#fxqrnhuub08ok)" rx="8" ry="8" style="stroke:#181818;stroke-width:0.5;"/><path d="M46,1122.8672 L46,1149.8672 M33,1130.8672 L59,1130.8672 M46,1149.8672 L33,1164.8672 M46,1149.8672 L59,1164.8672 " fill="none" filter="url(#fxqrnhuub08ok)" style="stroke:#181818;stroke-width:0.5;"/><rect fill="#E3E3E3" filter="url(#fxqrnhuub08ok)" height="31.6094" rx="2.5" ry="2.5" style="stroke:#181818;stroke-width:0.5;" width="68" x="461.5" y="88.6094"/><text fill="#000000" font-family="sans-serif" font-size="14" font-weight="bold" lengthAdjust="spacing" textLength="54" x="468.5" y="110.1426">:System</text><rect fill="#E3E3E3" filter="url(#fxqrnhuub08ok)" height="31.6094" rx="2.5" ry="2.5" style="stroke:#181818;stroke-width:0.5;" width="68" x="461.5" y="1088.7578"/><text fill="#000000" font-family="sans-serif" font-size="14" font-weight="bold" lengthAdjust="spacing" textLength="54" x="468.5" y="1110.291">:System</text><rect fill="#FFFFFF" filter="url(#fxqrnhuub08ok)" height="775.2969" style="stroke:#FFFFFF;stroke-width:1.0;" width="10" x="41" y="134.2188"/><line style="stroke:#181818;stroke-width:1.0;" x1="41" x2="41" y1="134.2188" y2="909.5156"/><line style="stroke:#181818;stroke-width:1.0;" x1="51" x2="51" y1="134.2188" y2="909.5156"/><line style="stroke:#181818;stroke-width:1.0;" x1="41" x2="51" y1="134.2188" y2="134.2188"/><rect fill="#FFFFFF" filter="url(#fxqrnhuub08ok)" height="129.4063" style="stroke:#FFFFFF;stroke-width:1.0;" width="10" x="41" y="951.3516"/><line style="stroke:#181818;stroke-width:1.0;" x1="41" x2="41" y1="951.3516" y2="1080.7578"/><line style="stroke:#181818;stroke-width:1.0;" x1="51" x2="51" y1="951.3516" y2="1080.7578"/><rect fill="#FFFFFF" filter="url(#fxqrnhuub08ok)" height="30.3516" style="stroke:#181818;stroke-width:1.0;" width="10" x="492" y="156.5703"/><rect fill="#FFFFFF" filter="url(#fxqrnhuub08ok)" height="30.3516" style="stroke:#181818;stroke-width:1.0;" width="10" x="492" y="233.625"/><rect fill="#FFFFFF" filter="url(#fxqrnhuub08ok)" height="30.3516" style="stroke:#181818;stroke-width:1.0;" width="10" x="492" y="294.3281"/><rect fill="#FFFFFF" filter="url(#fxqrnhuub08ok)" height="30.3516" style="stroke:#181818;stroke-width:1.0;" width="10" x="492" y="410.7344"/><rect fill="#FFFFFF" filter="url(#fxqrnhuub08ok)" height="30.3516" style="stroke:#181818;stroke-width:1.0;" width="10" x="492" y="487.2734"/><rect fill="#FFFFFF" filter="url(#fxqrnhuub08ok)" height="30.3516" style="stroke:#181818;stroke-width:1.0;" width="10" x="492" y="554.9766"/><rect fill="#FFFFFF" filter="url(#fxqrnhuub08ok)" height="30.3516" style="stroke:#181818;stroke-width:1.0;" width="10" x="492" y="641.0313"/><rect fill="#FFFFFF" filter="url(#fxqrnhuub08ok)" height="30.3516" style="stroke:#181818;stroke-width:1.0;" width="10" x="492" y="701.7344"/><rect fill="#FFFFFF" filter="url(#fxqrnhuub08ok)" height="30.3516" style="stroke:#181818;stroke-width:1.0;" width="10" x="492" y="778.2734"/><rect fill="#FFFFFF" filter="url(#fxqrnhuub08ok)" height="46.7031" style="stroke:#181818;stroke-width:1.0;" width="10" x="492" y="838.9766"/><rect fill="#FFFFFF" filter="url(#fxqrnhuub08ok)" height="30.3516" style="stroke:#181818;stroke-width:1.0;" width="10" x="492" y="980.7031"/><rect fill="#FFFFFF" filter="url(#fxqrnhuub08ok)" height="30.3516" style="stroke:#181818;stroke-width:1.0;" width="10" x="492" y="1041.4063"/><polygon fill="#181818" points="480,152.5703,490,156.5703,480,160.5703,484,156.5703" style="stroke:#181818;stroke-width:1.0;"/><line style="stroke:#181818;stroke-width:1.0;" x1="51" x2="486" y1="156.5703" y2="156.5703"/><text fill="#000000" font-family="sans-serif" font-size="13" font-weight="bold" lengthAdjust="spacing" textLength="7" x="58" y="151.7139">1</text><text fill="#000000" font-family="sans-serif" font-size="13" lengthAdjust="spacing" textLength="168" x="69" y="151.7139">asks to create a new request</text><polygon fill="#181818" points="62,182.9219,52,186.9219,62,190.9219,58,186.9219" style="stroke:#181818;stroke-width:1.0;"/><line style="stroke:#181818;stroke-width:1.0;stroke-dasharray:2.0,2.0;" x1="56" x2="496" y1="186.9219" y2="186.9219"/><text fill="#000000" font-family="sans-serif" font-size="13" font-weight="bold" lengthAdjust="spacing" textLength="7" x="68" y="182.0654">2</text><text fill="#000000" font-family="sans-serif" font-size="13" lengthAdjust="spacing" textLength="79" x="79" y="182.0654">requests data</text><polygon fill="#181818" points="480,229.625,490,233.625,480,237.625,484,233.625" style="stroke:#181818;stroke-width:1.0;"/><line style="stroke:#181818;stroke-width:1.0;" x1="51" x2="486" y1="233.625" y2="233.625"/><text fill="#000000" font-family="sans-serif" font-size="13" font-weight="bold" lengthAdjust="spacing" textLength="7" x="58" y="220.5928">3</text><text fill="#000000" font-family="sans-serif" font-size="13" lengthAdjust="spacing" textLength="411" x="69" y="212.417">types requested data (property's name, reference, description, location,</text><text fill="#000000" font-family="sans-serif" font-size="13" lengthAdjust="spacing" textLength="184" x="73" y="228.7686">distance from City Center, area)</text><polygon fill="#181818" points="62,259.9766,52,263.9766,62,267.9766,58,263.9766" style="stroke:#181818;stroke-width:1.0;"/><line style="stroke:#181818;stroke-width:1.0;stroke-dasharray:2.0,2.0;" x1="56" x2="496" y1="263.9766" y2="263.9766"/><text fill="#000000" font-family="sans-serif" font-size="13" font-weight="bold" lengthAdjust="spacing" textLength="7" x="68" y="259.1201">4</text><text fill="#000000" font-family="sans-serif" font-size="13" lengthAdjust="spacing" textLength="261" x="79" y="259.1201">shows property's lists and asks to select one</text><polygon fill="#181818" points="62,290.3281,52,294.3281,62,298.3281,58,294.3281" style="stroke:#181818;stroke-width:1.0;"/><line style="stroke:#181818;stroke-width:1.0;stroke-dasharray:2.0,2.0;" x1="56" x2="491" y1="294.3281" y2="294.3281"/><text fill="#000000" font-family="sans-serif" font-size="13" font-weight="bold" lengthAdjust="spacing" textLength="7" x="68" y="289.4717">5</text><text fill="#000000" font-family="sans-serif" font-size="13" lengthAdjust="spacing" textLength="79" x="79" y="289.4717">requests data</text><polygon fill="#181818" points="485,320.6797,495,324.6797,485,328.6797,489,324.6797" style="stroke:#181818;stroke-width:1.0;"/><line style="stroke:#181818;stroke-width:1.0;" x1="51" x2="491" y1="324.6797" y2="324.6797"/><text fill="#000000" font-family="sans-serif" font-size="13" font-weight="bold" lengthAdjust="spacing" textLength="7" x="58" y="319.8232">6</text><text fill="#000000" font-family="sans-serif" font-size="13" lengthAdjust="spacing" textLength="266" x="69" y="319.8232">imports requested data (photographs/pictures)</text><polygon fill="#181818" points="485,351.0313,495,355.0313,485,359.0313,489,355.0313" style="stroke:#181818;stroke-width:1.0;"/><line style="stroke:#181818;stroke-width:1.0;" x1="51" x2="491" y1="355.0313" y2="355.0313"/><text fill="#000000" font-family="sans-serif" font-size="13" font-weight="bold" lengthAdjust="spacing" textLength="7" x="58" y="350.1748">7</text><text fill="#000000" font-family="sans-serif" font-size="13" lengthAdjust="spacing" textLength="134" x="69" y="350.1748">selects a property's list</text><path d="M10,370.0313 L71,370.0313 L71,378.3828 L61,388.3828 L10,388.3828 L10,370.0313 " fill="#EEEEEE" style="stroke:#000000;stroke-width:1.5;"/><rect fill="none" height="155.5938" style="stroke:#000000;stroke-width:1.5;" width="532.5" x="10" y="370.0313"/><text fill="#000000" font-family="sans-serif" font-size="13" font-weight="bold" lengthAdjust="spacing" textLength="16" x="25" y="384.5264">alt</text><text fill="#000000" font-family="sans-serif" font-size="11" font-weight="bold" lengthAdjust="spacing" textLength="42" x="86" y="383.4502">[Rental]</text><polygon fill="#181818" points="62,406.7344,52,410.7344,62,414.7344,58,410.7344" style="stroke:#181818;stroke-width:1.0;"/><line style="stroke:#181818;stroke-width:1.0;stroke-dasharray:2.0,2.0;" x1="56" x2="491" y1="410.7344" y2="410.7344"/><text fill="#000000" font-family="sans-serif" font-size="13" font-weight="bold" lengthAdjust="spacing" textLength="7" x="68" y="405.8779">8</text><text fill="#000000" font-family="sans-serif" font-size="13" lengthAdjust="spacing" textLength="79" x="79" y="405.8779">requests data</text><polygon fill="#181818" points="485,437.0859,495,441.0859,485,445.0859,489,441.0859" style="stroke:#181818;stroke-width:1.0;"/><line style="stroke:#181818;stroke-width:1.0;" x1="51" x2="491" y1="441.0859" y2="441.0859"/><text fill="#000000" font-family="sans-serif" font-size="13" font-weight="bold" lengthAdjust="spacing" textLength="7" x="58" y="436.2295">9</text><text fill="#000000" font-family="sans-serif" font-size="13" lengthAdjust="spacing" textLength="270" x="69" y="436.2295">types requested data (rent, contract's duration)</text><line style="stroke:#000000;stroke-width:1.0;stroke-dasharray:2.0,2.0;" x1="10" x2="542.5" y1="450.0859" y2="450.0859"/><text fill="#000000" font-family="sans-serif" font-size="11" font-weight="bold" lengthAdjust="spacing" textLength="31" x="15" y="461.5049">[Sale]</text><polygon fill="#181818" points="62,483.2734,52,487.2734,62,491.2734,58,487.2734" style="stroke:#181818;stroke-width:1.0;"/><line style="stroke:#181818;stroke-width:1.0;stroke-dasharray:2.0,2.0;" x1="56" x2="491" y1="487.2734" y2="487.2734"/><text fill="#000000" font-family="sans-serif" font-size="13" font-weight="bold" lengthAdjust="spacing" textLength="7" x="68" y="482.417">8</text><text fill="#000000" font-family="sans-serif" font-size="13" lengthAdjust="spacing" textLength="79" x="79" y="482.417">requests data</text><polygon fill="#181818" points="485,513.625,495,517.625,485,521.625,489,517.625" style="stroke:#181818;stroke-width:1.0;"/><line style="stroke:#181818;stroke-width:1.0;" x1="51" x2="491" y1="517.625" y2="517.625"/><text fill="#000000" font-family="sans-serif" font-size="13" font-weight="bold" lengthAdjust="spacing" textLength="7" x="58" y="512.7686">9</text><text fill="#000000" font-family="sans-serif" font-size="13" lengthAdjust="spacing" textLength="162" x="69" y="512.7686">types requested data (price)</text><polygon fill="#181818" points="62,550.9766,52,554.9766,62,558.9766,58,554.9766" style="stroke:#181818;stroke-width:1.0;"/><line style="stroke:#181818;stroke-width:1.0;stroke-dasharray:2.0,2.0;" x1="56" x2="491" y1="554.9766" y2="554.9766"/><text fill="#000000" font-family="sans-serif" font-size="13" font-weight="bold" lengthAdjust="spacing" textLength="14" x="68" y="550.1201">10</text><text fill="#000000" font-family="sans-serif" font-size="13" lengthAdjust="spacing" textLength="269" x="86" y="550.1201">shows property's types and asks to select one</text><polygon fill="#181818" points="485,581.3281,495,585.3281,485,589.3281,489,585.3281" style="stroke:#181818;stroke-width:1.0;"/><line style="stroke:#181818;stroke-width:1.0;" x1="51" x2="491" y1="585.3281" y2="585.3281"/><text fill="#000000" font-family="sans-serif" font-size="13" font-weight="bold" lengthAdjust="spacing" textLength="14" x="58" y="580.4717">11</text><text fill="#000000" font-family="sans-serif" font-size="13" lengthAdjust="spacing" textLength="131" x="76" y="580.4717">selects property's type</text><path d="M10,600.3281 L71,600.3281 L71,608.6797 L61,618.6797 L10,618.6797 L10,600.3281 " fill="#EEEEEE" style="stroke:#000000;stroke-width:1.5;"/><rect fill="none" height="351.0234" style="stroke:#000000;stroke-width:1.5;" width="532.5" x="10" y="600.3281"/><text fill="#000000" font-family="sans-serif" font-size="13" font-weight="bold" lengthAdjust="spacing" textLength="16" x="25" y="614.8232">alt</text><text fill="#000000" font-family="sans-serif" font-size="11" font-weight="bold" lengthAdjust="spacing" textLength="67" x="86" y="613.7471">[Apartment]</text><polygon fill="#181818" points="62,637.0313,52,641.0313,62,645.0313,58,641.0313" style="stroke:#181818;stroke-width:1.0;"/><line style="stroke:#181818;stroke-width:1.0;stroke-dasharray:2.0,2.0;" x1="56" x2="491" y1="641.0313" y2="641.0313"/><text fill="#000000" font-family="sans-serif" font-size="13" font-weight="bold" lengthAdjust="spacing" textLength="14" x="68" y="636.1748">12</text><text fill="#000000" font-family="sans-serif" font-size="13" lengthAdjust="spacing" textLength="79" x="86" y="636.1748">requests data</text><polygon fill="#181818" points="485,667.3828,495,671.3828,485,675.3828,489,671.3828" style="stroke:#181818;stroke-width:1.0;"/><line style="stroke:#181818;stroke-width:1.0;" x1="51" x2="491" y1="671.3828" y2="671.3828"/><text fill="#000000" font-family="sans-serif" font-size="13" font-weight="bold" lengthAdjust="spacing" textLength="14" x="58" y="666.5264">13</text><text fill="#000000" font-family="sans-serif" font-size="13" lengthAdjust="spacing" textLength="260" x="76" y="666.5264">types requested data (bedrooms, bathrooms)</text><polygon fill="#181818" points="62,697.7344,52,701.7344,62,705.7344,58,701.7344" style="stroke:#181818;stroke-width:1.0;"/><line style="stroke:#181818;stroke-width:1.0;stroke-dasharray:2.0,2.0;" x1="56" x2="491" y1="701.7344" y2="701.7344"/><text fill="#000000" font-family="sans-serif" font-size="13" font-weight="bold" lengthAdjust="spacing" textLength="14" x="68" y="696.8779">14</text><text fill="#000000" font-family="sans-serif" font-size="13" lengthAdjust="spacing" textLength="79" x="86" y="696.8779">requests data</text><polygon fill="#181818" points="485,728.0859,495,732.0859,485,736.0859,489,732.0859" style="stroke:#181818;stroke-width:1.0;"/><line style="stroke:#181818;stroke-width:1.0;" x1="51" x2="491" y1="732.0859" y2="732.0859"/><text fill="#000000" font-family="sans-serif" font-size="13" font-weight="bold" lengthAdjust="spacing" textLength="14" x="58" y="727.2295">15</text><text fill="#000000" font-family="sans-serif" font-size="13" lengthAdjust="spacing" textLength="324" x="76" y="727.2295">selects requested data (central heating, air conditioning)</text><line style="stroke:#000000;stroke-width:1.0;stroke-dasharray:2.0,2.0;" x1="10" x2="542.5" y1="741.0859" y2="741.0859"/><text fill="#000000" font-family="sans-serif" font-size="11" font-weight="bold" lengthAdjust="spacing" textLength="43" x="15" y="752.5049">[House]</text><polygon fill="#181818" points="62,774.2734,52,778.2734,62,782.2734,58,778.2734" style="stroke:#181818;stroke-width:1.0;"/><line style="stroke:#181818;stroke-width:1.0;stroke-dasharray:2.0,2.0;" x1="56" x2="491" y1="778.2734" y2="778.2734"/><text fill="#000000" font-family="sans-serif" font-size="13" font-weight="bold" lengthAdjust="spacing" textLength="14" x="68" y="773.417">12</text><text fill="#000000" font-family="sans-serif" font-size="13" lengthAdjust="spacing" textLength="79" x="86" y="773.417">requests data</text><polygon fill="#181818" points="485,804.625,495,808.625,485,812.625,489,808.625" style="stroke:#181818;stroke-width:1.0;"/><line style="stroke:#181818;stroke-width:1.0;" x1="51" x2="491" y1="808.625" y2="808.625"/><text fill="#000000" font-family="sans-serif" font-size="13" font-weight="bold" lengthAdjust="spacing" textLength="14" x="58" y="803.7686">13</text><text fill="#000000" font-family="sans-serif" font-size="13" lengthAdjust="spacing" textLength="260" x="76" y="803.7686">types requested data (bedrooms, bathrooms)</text><polygon fill="#181818" points="62,834.9766,52,838.9766,62,842.9766,58,838.9766" style="stroke:#181818;stroke-width:1.0;"/><line style="stroke:#181818;stroke-width:1.0;stroke-dasharray:2.0,2.0;" x1="56" x2="491" y1="838.9766" y2="838.9766"/><text fill="#000000" font-family="sans-serif" font-size="13" font-weight="bold" lengthAdjust="spacing" textLength="14" x="68" y="834.1201">14</text><text fill="#000000" font-family="sans-serif" font-size="13" lengthAdjust="spacing" textLength="79" x="86" y="834.1201">requests data</text><polygon fill="#181818" points="485,881.6797,495,885.6797,485,889.6797,489,885.6797" style="stroke:#181818;stroke-width:1.0;"/><line style="stroke:#181818;stroke-width:1.0;" x1="51" x2="491" y1="885.6797" y2="885.6797"/><text fill="#000000" font-family="sans-serif" font-size="13" font-weight="bold" lengthAdjust="spacing" textLength="14" x="58" y="872.6475">15</text><text fill="#000000" font-family="sans-serif" font-size="13" lengthAdjust="spacing" textLength="389" x="76" y="864.4717">selects requested data (central heating, air conditioning, basement,</text><text fill="#000000" font-family="sans-serif" font-size="13" lengthAdjust="spacing" textLength="173" x="80" y="880.8232">inhabitable loft, sun exposure)</text><line style="stroke:#000000;stroke-width:1.0;stroke-dasharray:2.0,2.0;" x1="10" x2="542.5" y1="894.6797" y2="894.6797"/><text fill="#000000" font-family="sans-serif" font-size="11" font-weight="bold" lengthAdjust="spacing" textLength="35" x="15" y="906.0986">[Land]</text><text fill="#000000" font-family="sans-serif" font-size="11" lengthAdjust="spacing" textLength="200" x="171.5" y="934.9346">No extra steps when selecting this option</text><polygon fill="#181818" points="62,976.7031,52,980.7031,62,984.7031,58,980.7031" style="stroke:#181818;stroke-width:1.0;"/><line style="stroke:#181818;stroke-width:1.0;stroke-dasharray:2.0,2.0;" x1="56" x2="491" y1="980.7031" y2="980.7031"/><text fill="#000000" font-family="sans-serif" font-size="13" font-weight="bold" lengthAdjust="spacing" textLength="14" x="68" y="975.8467">16</text><text fill="#000000" font-family="sans-serif" font-size="13" lengthAdjust="spacing" textLength="196" x="86" y="975.8467">requests the selection of an agent</text><polygon fill="#181818" points="485,1007.0547,495,1011.0547,485,1015.0547,489,1011.0547" style="stroke:#181818;stroke-width:1.0;"/><line style="stroke:#181818;stroke-width:1.0;" x1="51" x2="491" y1="1011.0547" y2="1011.0547"/><text fill="#000000" font-family="sans-serif" font-size="13" font-weight="bold" lengthAdjust="spacing" textLength="14" x="58" y="1006.1982">17</text><text fill="#000000" font-family="sans-serif" font-size="13" lengthAdjust="spacing" textLength="96" x="76" y="1006.1982">selects an agent</text><polygon fill="#181818" points="480,1037.4063,490,1041.4063,480,1045.4063,484,1041.4063" style="stroke:#181818;stroke-width:1.0;"/><line style="stroke:#181818;stroke-width:1.0;" x1="51" x2="486" y1="1041.4063" y2="1041.4063"/><text fill="#000000" font-family="sans-serif" font-size="13" font-weight="bold" lengthAdjust="spacing" textLength="14" x="58" y="1036.5498">18</text><text fill="#000000" font-family="sans-serif" font-size="13" lengthAdjust="spacing" textLength="119" x="76" y="1036.5498">summits the request</text><polygon fill="#181818" points="62,1067.7578,52,1071.7578,62,1075.7578,58,1071.7578" style="stroke:#181818;stroke-width:1.0;"/><line style="stroke:#181818;stroke-width:1.0;stroke-dasharray:2.0,2.0;" x1="56" x2="496" y1="1071.7578" y2="1071.7578"/><text fill="#000000" font-family="sans-serif" font-size="13" font-weight="bold" lengthAdjust="spacing" textLength="14" x="68" y="1066.9014">19</text><text fill="#000000" font-family="sans-serif" font-size="13" lengthAdjust="spacing" textLength="158" x="86" y="1066.9014">displays operation success</text><!--SRC=[nLPDRzim3BtxLn2vj07IZmqx34LHO6WFEmmRi62tNMYPYONQaYRIo_BlHzbn6YIEqnR3wfFia4-FZo-K-D6wW15hgBtpfeo-9f3OKCRRNmAQHrpINDOLGIGZw9RLRW2NMFYLTSikCnCh6ZbVir0DS_hLa3C43nQNAVfyFd-OmWNyc5zVVyWoRCIxfiufwjg8Zp2vpU- -hHp5swlyRWB8qBvbkfbOOmCwQMDkkXssKTrhYs9_ez0cBGDzsYLStFMiRZJXaK4yc4Wf5i7HIgjJiYnjoXQcnuNDiu6uKBGEzgRFOoXGi0qiQ33_a8Ui0t4FG4MB0ESX-a1HrcSC3ckQQS22Oj9nfj1ieWrYlPj1vGssgvyE2ilQ6vLweMs4Uojhk2Sd56U0MkNqnMLnwLSCErmgcuf4LspbOwhK4U0T7IixsmEVjEYJGTNsauSbitNmKGP4AxruzLWe-IfO8qqadZuL-EoMT3LfdVkbPsT39Cz6mB4I-Auzm6fBuydmy758_8q-G_ACzg_NTLl9CM-fZMG6nZk92gQb5KriFJGz9HLLh1-mel5Y_cir8Lf3fvcxOiI81pxljXhn-VECsXjf3tbaG2I_V4g3hjOcPMzYZvoAw7tDCyXHodPvKjxdyzjzZdBTVGPuzxBkCpUKB5r1gHDTJoETUZOcdnSskLk_J0Tt63FxPz_meDlVlNyRkx-cE_2w5fripxziJQg7ARa-dMJMbPXRmLpl4PLVwBZYnW7z2Pvrg1-sSQo5Nx3_xrzUNdxrYg9CG8C2mweaj-7SNbzAo-3RarLZzoR7gQDVIkgXl0E_qF41Ucro8xU90m5t3v_Tx6F7wb6GfgxjXjF9EytWIDIxHAXmdUIWxdHGK6E8-GYXlm00]--></g></svg>