<?xml version="1.0" encoding="UTF-8" standalone="no"?><svg xmlns="http://www.w3.org/2000/svg" xmlns:xlink="http://www.w3.org/1999/xlink" contentStyleType="text/css" height="1006px" preserveAspectRatio="none" style="width:554px;height:1006px;background:#FFFFFF;" version="1.1" viewBox="0 0 554 1006" width="554px" zoomAndPan="magnify"><defs><filter height="300%" id="f6d20ltbcani1" width="300%" x="-1" y="-1"><feGaussianBlur result="blurOut" stdDeviation="2.0"/><feColorMatrix in="blurOut" result="blurOut2" type="matrix" values="0 0 0 0 0 0 0 0 0 0 0 0 0 0 0 0 0 0 .4 0"/><feOffset dx="4.0" dy="4.0" in="blurOut2" result="blurOut3"/><feBlend in="SourceGraphic" in2="blurOut3" mode="normal"/></filter></defs><g><text fill="#000000" font-family="sans-serif" font-size="14" font-weight="bold" lengthAdjust="spacing" textLength="284" x="133.75" y="29.5332">System Sequence Diagram (SSD) - US004</text><rect fill="#FFFFFF" filter="url(#f6d20ltbcani1)" height="609.5391" style="stroke:#FFFFFF;stroke-width:1.0;" width="10" x="41" y="134.2188"/><line style="stroke:#181818;stroke-width:1.0;" x1="41" x2="41" y1="134.2188" y2="743.7578"/><line style="stroke:#181818;stroke-width:1.0;" x1="51" x2="51" y1="134.2188" y2="743.7578"/><line style="stroke:#181818;stroke-width:1.0;" x1="41" x2="51" y1="134.2188" y2="134.2188"/><rect fill="#FFFFFF" filter="url(#f6d20ltbcani1)" height="129.4063" style="stroke:#FFFFFF;stroke-width:1.0;" width="10" x="41" y="785.5938"/><line style="stroke:#181818;stroke-width:1.0;" x1="41" x2="41" y1="785.5938" y2="915"/><line style="stroke:#181818;stroke-width:1.0;" x1="51" x2="51" y1="785.5938" y2="915"/><rect fill="#FFFFFF" filter="url(#f6d20ltbcani1)" height="30.3516" style="stroke:#181818;stroke-width:1.0;" width="10" x="492" y="156.5703"/><rect fill="#FFFFFF" filter="url(#f6d20ltbcani1)" height="30.3516" style="stroke:#181818;stroke-width:1.0;" width="10" x="492" y="233.625"/><rect fill="#FFFFFF" filter="url(#f6d20ltbcani1)" height="30.3516" style="stroke:#181818;stroke-width:1.0;" width="10" x="492" y="350.0313"/><rect fill="#FFFFFF" filter="url(#f6d20ltbcani1)" height="30.3516" style="stroke:#181818;stroke-width:1.0;" width="10" x="492" y="426.5703"/><rect fill="#FFFFFF" filter="url(#f6d20ltbcani1)" height="30.3516" style="stroke:#181818;stroke-width:1.0;" width="10" x="492" y="494.2734"/><rect fill="#FFFFFF" filter="url(#f6d20ltbcani1)" height="46.7031" style="stroke:#181818;stroke-width:1.0;" width="10" x="492" y="580.3281"/><rect fill="#FFFFFF" filter="url(#f6d20ltbcani1)" height="46.7031" style="stroke:#181818;stroke-width:1.0;" width="10" x="492" y="673.2188"/><rect fill="#FFFFFF" filter="url(#f6d20ltbcani1)" height="30.3516" style="stroke:#181818;stroke-width:1.0;" width="10" x="492" y="814.9453"/><rect fill="#FFFFFF" filter="url(#f6d20ltbcani1)" height="30.3516" style="stroke:#181818;stroke-width:1.0;" width="10" x="492" y="875.6484"/><rect fill="none" filter="url(#f6d20ltbcani1)" height="155.5938" style="stroke:#000000;stroke-width:1.5;" width="532.5" x="10" y="309.3281"/><rect fill="none" filter="url(#f6d20ltbcani1)" height="245.9688" style="stroke:#000000;stroke-width:1.5;" width="532.5" x="10" y="539.625"/><line style="stroke:#181818;stroke-width:0.5;stroke-dasharray:5.0,5.0;" x1="46" x2="46" y1="124.2188" y2="743.7578"/><line style="stroke:#383838;stroke-width:1.0;stroke-dasharray:1.0,4.0;" x1="46" x2="46" y1="743.7578" y2="785.5938"/><line style="stroke:#181818;stroke-width:0.5;stroke-dasharray:5.0,5.0;" x1="46" x2="46" y1="785.5938" y2="924"/><line style="stroke:#181818;stroke-width:0.5;stroke-dasharray:5.0,5.0;" x1="496.5" x2="496.5" y1="124.2188" y2="743.7578"/><line style="stroke:#383838;stroke-width:1.0;stroke-dasharray:1.0,4.0;" x1="496.5" x2="496.5" y1="743.7578" y2="785.5938"/><line style="stroke:#181818;stroke-width:0.5;stroke-dasharray:5.0,5.0;" x1="496.5" x2="496.5" y1="785.5938" y2="924"/><text fill="#000000" font-family="sans-serif" font-size="14" font-weight="bold" lengthAdjust="spacing" textLength="46" x="20" y="121.1426">Owner</text><ellipse cx="46" cy="52.1094" fill="#E3E3E3" filter="url(#f6d20ltbcani1)" rx="8" ry="8" style="stroke:#181818;stroke-width:0.5;"/><path d="M46,60.1094 L46,87.1094 M33,68.1094 L59,68.1094 M46,87.1094 L33,102.1094 M46,87.1094 L59,102.1094 " fill="none" filter="url(#f6d20ltbcani1)" style="stroke:#181818;stroke-width:0.5;"/><text fill="#000000" font-family="sans-serif" font-size="14" font-weight="bold" lengthAdjust="spacing" textLength="46" x="20" y="937.5332">Owner</text><ellipse cx="46" cy="949.1094" fill="#E3E3E3" filter="url(#f6d20ltbcani1)" rx="8" ry="8" style="stroke:#181818;stroke-width:0.5;"/><path d="M46,957.1094 L46,984.1094 M33,965.1094 L59,965.1094 M46,984.1094 L33,999.1094 M46,984.1094 L59,999.1094 " fill="none" filter="url(#f6d20ltbcani1)" style="stroke:#181818;stroke-width:0.5;"/><rect fill="#E3E3E3" filter="url(#f6d20ltbcani1)" height="31.6094" rx="2.5" ry="2.5" style="stroke:#181818;stroke-width:0.5;" width="68" x="461.5" y="88.6094"/><text fill="#000000" font-family="sans-serif" font-size="14" font-weight="bold" lengthAdjust="spacing" textLength="54" x="468.5" y="110.1426">:System</text><rect fill="#E3E3E3" filter="url(#f6d20ltbcani1)" height="31.6094" rx="2.5" ry="2.5" style="stroke:#181818;stroke-width:0.5;" width="68" x="461.5" y="923"/><text fill="#000000" font-family="sans-serif" font-size="14" font-weight="bold" lengthAdjust="spacing" textLength="54" x="468.5" y="944.5332">:System</text><rect fill="#FFFFFF" filter="url(#f6d20ltbcani1)" height="609.5391" style="stroke:#FFFFFF;stroke-width:1.0;" width="10" x="41" y="134.2188"/><line style="stroke:#181818;stroke-width:1.0;" x1="41" x2="41" y1="134.2188" y2="743.7578"/><line style="stroke:#181818;stroke-width:1.0;" x1="51" x2="51" y1="134.2188" y2="743.7578"/><line style="stroke:#181818;stroke-width:1.0;" x1="41" x2="51" y1="134.2188" y2="134.2188"/><rect fill="#FFFFFF" filter="url(#f6d20ltbcani1)" height="129.4063" style="stroke:#FFFFFF;stroke-width:1.0;" width="10" x="41" y="785.5938"/><line style="stroke:#181818;stroke-width:1.0;" x1="41" x2="41" y1="785.5938" y2="915"/><line style="stroke:#181818;stroke-width:1.0;" x1="51" x2="51" y1="785.5938" y2="915"/><rect fill="#FFFFFF" filter="url(#f6d20ltbcani1)" height="30.3516" style="stroke:#181818;stroke-width:1.0;" width="10" x="492" y="156.5703"/><rect fill="#FFFFFF" filter="url(#f6d20ltbcani1)" height="30.3516" style="stroke:#181818;stroke-width:1.0;" width="10" x="492" y="233.625"/><rect fill="#FFFFFF" filter="url(#f6d20ltbcani1)" height="30.3516" style="stroke:#181818;stroke-width:1.0;" width="10" x="492" y="350.0313"/><rect fill="#FFFFFF" filter="url(#f6d20ltbcani1)" height="30.3516" style="stroke:#181818;stroke-width:1.0;" width="10" x="492" y="426.5703"/><rect fill="#FFFFFF" filter="url(#f6d20ltbcani1)" height="30.3516" style="stroke:#181818;stroke-width:1.0;" width="10" x="492" y="494.2734"/><rect fill="#FFFFFF" filter="url(#f6d20ltbcani1)" height="46.7031" style="stroke:#181818;stroke-width:1.0;" width="10" x="492" y="580.3281"/><rect fill="#FFFFFF" filter="url(#f6d20ltbcani1)" height="46.7031" style="stroke:#181818;stroke-width:1.0;" width="10" x="492" y="673.2188"/><rect fill="#FFFFFF" filter="url(#f6d20ltbcani1)" height="30.3516" style="stroke:#181818;stroke-width:1.0;" width="10" x="492" y="814.9453"/><rect fill="#FFFFFF" filter="url(#f6d20ltbcani1)" height="30.3516" style="stroke:#181818;stroke-width:1.0;" width="10" x="492" y="875.6484"/><polygon fill="#181818" points="480,152.5703,490,156.5703,480,160.5703,484,156.5703" style="stroke:#181818;stroke-width:1.0;"/><line style="stroke:#181818;stroke-width:1.0;" x1="51" x2="486" y1="156.5703" y2="156.5703"/><text fill="#000000" font-family="sans-serif" font-size="13" font-weight="bold" lengthAdjust="spacing" textLength="7" x="58" y="151.7139">1</text><text fill="#000000" font-family="sans-serif" font-size="13" lengthAdjust="spacing" textLength="168" x="69" y="151.7139">asks to create a new request</text><polygon fill="#181818" points="62,182.9219,52,186.9219,62,190.9219,58,186.9219" style="stroke:#181818;stroke-width:1.0;"/><line style="stroke:#181818;stroke-width:1.0;stroke-dasharray:2.0,2.0;" x1="56" x2="496" y1="186.9219" y2="186.9219"/><text fill="#000000" font-family="sans-serif" font-size="13" font-weight="bold" lengthAdjust="spacing" textLength="7" x="68" y="182.0654">2</text><text fill="#000000" font-family="sans-serif" font-size="13" lengthAdjust="spacing" textLength="79" x="79" y="182.0654">requests data</text><polygon fill="#181818" points="480,229.625,490,233.625,480,237.625,484,233.625" style="stroke:#181818;stroke-width:1.0;"/><line style="stroke:#181818;stroke-width:1.0;" x1="51" x2="486" y1="233.625" y2="233.625"/><text fill="#000000" font-family="sans-serif" font-size="13" font-weight="bold" lengthAdjust="spacing" textLength="7" x="58" y="220.5928">3</text><text fill="#000000" font-family="sans-serif" font-size="13" lengthAdjust="spacing" textLength="411" x="69" y="212.417">types requested data (property's name, reference, description, location,</text><text fill="#000000" font-family="sans-serif" font-size="13" lengthAdjust="spacing" textLength="184" x="73" y="228.7686">distance from City Center, area)</text><polygon fill="#181818" points="62,259.9766,52,263.9766,62,267.9766,58,263.9766" style="stroke:#181818;stroke-width:1.0;"/><line style="stroke:#181818;stroke-width:1.0;stroke-dasharray:2.0,2.0;" x1="56" x2="496" y1="263.9766" y2="263.9766"/><text fill="#000000" font-family="sans-serif" font-size="13" font-weight="bold" lengthAdjust="spacing" textLength="7" x="68" y="259.1201">4</text><text fill="#000000" font-family="sans-serif" font-size="13" lengthAdjust="spacing" textLength="261" x="79" y="259.1201">shows property's lists and asks to select one</text><polygon fill="#181818" points="485,290.3281,495,294.3281,485,298.3281,489,294.3281" style="stroke:#181818;stroke-width:1.0;"/><line style="stroke:#181818;stroke-width:1.0;" x1="51" x2="491" y1="294.3281" y2="294.3281"/><text fill="#000000" font-family="sans-serif" font-size="13" font-weight="bold" lengthAdjust="spacing" textLength="7" x="58" y="289.4717">5</text><text fill="#000000" font-family="sans-serif" font-size="13" lengthAdjust="spacing" textLength="134" x="69" y="289.4717">selects a property's list</text><path d="M10,309.3281 L71,309.3281 L71,317.6797 L61,327.6797 L10,327.6797 L10,309.3281 " fill="#EEEEEE" style="stroke:#000000;stroke-width:1.5;"/><rect fill="none" height="155.5938" style="stroke:#000000;stroke-width:1.5;" width="532.5" x="10" y="309.3281"/><text fill="#000000" font-family="sans-serif" font-size="13" font-weight="bold" lengthAdjust="spacing" textLength="16" x="25" y="323.8232">alt</text><text fill="#000000" font-family="sans-serif" font-size="11" font-weight="bold" lengthAdjust="spacing" textLength="42" x="86" y="322.7471">[Rental]</text><polygon fill="#181818" points="62,346.0313,52,350.0313,62,354.0313,58,350.0313" style="stroke:#181818;stroke-width:1.0;"/><line style="stroke:#181818;stroke-width:1.0;stroke-dasharray:2.0,2.0;" x1="56" x2="491" y1="350.0313" y2="350.0313"/><text fill="#000000" font-family="sans-serif" font-size="13" font-weight="bold" lengthAdjust="spacing" textLength="7" x="68" y="345.1748">6</text><text fill="#000000" font-family="sans-serif" font-size="13" lengthAdjust="spacing" textLength="79" x="79" y="345.1748">requests data</text><polygon fill="#181818" points="485,376.3828,495,380.3828,485,384.3828,489,380.3828" style="stroke:#181818;stroke-width:1.0;"/><line style="stroke:#181818;stroke-width:1.0;" x1="51" x2="491" y1="380.3828" y2="380.3828"/><text fill="#000000" font-family="sans-serif" font-size="13" font-weight="bold" lengthAdjust="spacing" textLength="7" x="58" y="375.5264">7</text><text fill="#000000" font-family="sans-serif" font-size="13" lengthAdjust="spacing" textLength="270" x="69" y="375.5264">types requested data (rent, contract's duration)</text><line style="stroke:#000000;stroke-width:1.0;stroke-dasharray:2.0,2.0;" x1="10" x2="542.5" y1="389.3828" y2="389.3828"/><text fill="#000000" font-family="sans-serif" font-size="11" font-weight="bold" lengthAdjust="spacing" textLength="31" x="15" y="400.8018">[Sale]</text><polygon fill="#181818" points="62,422.5703,52,426.5703,62,430.5703,58,426.5703" style="stroke:#181818;stroke-width:1.0;"/><line style="stroke:#181818;stroke-width:1.0;stroke-dasharray:2.0,2.0;" x1="56" x2="491" y1="426.5703" y2="426.5703"/><text fill="#000000" font-family="sans-serif" font-size="13" font-weight="bold" lengthAdjust="spacing" textLength="7" x="68" y="421.7139">6</text><text fill="#000000" font-family="sans-serif" font-size="13" lengthAdjust="spacing" textLength="79" x="79" y="421.7139">requests data</text><polygon fill="#181818" points="485,452.9219,495,456.9219,485,460.9219,489,456.9219" style="stroke:#181818;stroke-width:1.0;"/><line style="stroke:#181818;stroke-width:1.0;" x1="51" x2="491" y1="456.9219" y2="456.9219"/><text fill="#000000" font-family="sans-serif" font-size="13" font-weight="bold" lengthAdjust="spacing" textLength="7" x="58" y="452.0654">7</text><text fill="#000000" font-family="sans-serif" font-size="13" lengthAdjust="spacing" textLength="162" x="69" y="452.0654">types requested data (price)</text><polygon fill="#181818" points="62,490.2734,52,494.2734,62,498.2734,58,494.2734" style="stroke:#181818;stroke-width:1.0;"/><line style="stroke:#181818;stroke-width:1.0;stroke-dasharray:2.0,2.0;" x1="56" x2="491" y1="494.2734" y2="494.2734"/><text fill="#000000" font-family="sans-serif" font-size="13" font-weight="bold" lengthAdjust="spacing" textLength="7" x="68" y="489.417">8</text><text fill="#000000" font-family="sans-serif" font-size="13" lengthAdjust="spacing" textLength="269" x="79" y="489.417">shows property's types and asks to select one</text><polygon fill="#181818" points="485,520.625,495,524.625,485,528.625,489,524.625" style="stroke:#181818;stroke-width:1.0;"/><line style="stroke:#181818;stroke-width:1.0;" x1="51" x2="491" y1="524.625" y2="524.625"/><text fill="#000000" font-family="sans-serif" font-size="13" font-weight="bold" lengthAdjust="spacing" textLength="7" x="58" y="519.7686">9</text><text fill="#000000" font-family="sans-serif" font-size="13" lengthAdjust="spacing" textLength="131" x="69" y="519.7686">selects property's type</text><path d="M10,539.625 L71,539.625 L71,547.9766 L61,557.9766 L10,557.9766 L10,539.625 " fill="#EEEEEE" style="stroke:#000000;stroke-width:1.5;"/><rect fill="none" height="245.9688" style="stroke:#000000;stroke-width:1.5;" width="532.5" x="10" y="539.625"/><text fill="#000000" font-family="sans-serif" font-size="13" font-weight="bold" lengthAdjust="spacing" textLength="16" x="25" y="554.1201">alt</text><text fill="#000000" font-family="sans-serif" font-size="11" font-weight="bold" lengthAdjust="spacing" textLength="67" x="86" y="553.0439">[Apartment]</text><polygon fill="#181818" points="62,576.3281,52,580.3281,62,584.3281,58,580.3281" style="stroke:#181818;stroke-width:1.0;"/><line style="stroke:#181818;stroke-width:1.0;stroke-dasharray:2.0,2.0;" x1="56" x2="491" y1="580.3281" y2="580.3281"/><text fill="#000000" font-family="sans-serif" font-size="13" font-weight="bold" lengthAdjust="spacing" textLength="14" x="68" y="575.4717">10</text><text fill="#000000" font-family="sans-serif" font-size="13" lengthAdjust="spacing" textLength="79" x="86" y="575.4717">requests data</text><polygon fill="#181818" points="485,623.0313,495,627.0313,485,631.0313,489,627.0313" style="stroke:#181818;stroke-width:1.0;"/><line style="stroke:#181818;stroke-width:1.0;" x1="51" x2="491" y1="627.0313" y2="627.0313"/><text fill="#000000" font-family="sans-serif" font-size="13" font-weight="bold" lengthAdjust="spacing" textLength="14" x="58" y="613.999">11</text><text fill="#000000" font-family="sans-serif" font-size="13" lengthAdjust="spacing" textLength="353" x="76" y="605.8232">types requested data (bedrooms, bathrooms, central heating,</text><text fill="#000000" font-family="sans-serif" font-size="13" lengthAdjust="spacing" textLength="91" x="80" y="622.1748">air conditioning)</text><line style="stroke:#000000;stroke-width:1.0;stroke-dasharray:2.0,2.0;" x1="10" x2="542.5" y1="636.0313" y2="636.0313"/><text fill="#000000" font-family="sans-serif" font-size="11" font-weight="bold" lengthAdjust="spacing" textLength="43" x="15" y="647.4502">[House]</text><polygon fill="#181818" points="62,669.2188,52,673.2188,62,677.2188,58,673.2188" style="stroke:#181818;stroke-width:1.0;"/><line style="stroke:#181818;stroke-width:1.0;stroke-dasharray:2.0,2.0;" x1="56" x2="491" y1="673.2188" y2="673.2188"/><text fill="#000000" font-family="sans-serif" font-size="13" font-weight="bold" lengthAdjust="spacing" textLength="14" x="68" y="668.3623">10</text><text fill="#000000" font-family="sans-serif" font-size="13" lengthAdjust="spacing" textLength="79" x="86" y="668.3623">requests data</text><polygon fill="#181818" points="485,715.9219,495,719.9219,485,723.9219,489,719.9219" style="stroke:#181818;stroke-width:1.0;"/><line style="stroke:#181818;stroke-width:1.0;" x1="51" x2="491" y1="719.9219" y2="719.9219"/><text fill="#000000" font-family="sans-serif" font-size="13" font-weight="bold" lengthAdjust="spacing" textLength="14" x="58" y="706.8896">11</text><text fill="#000000" font-family="sans-serif" font-size="13" lengthAdjust="spacing" textLength="353" x="76" y="698.7139">types requested data (bedrooms, bathrooms, central heating,</text><text fill="#000000" font-family="sans-serif" font-size="13" lengthAdjust="spacing" textLength="333" x="80" y="715.0654">air conditioning, basement, inhabitable loft, sun exposure)</text><line style="stroke:#000000;stroke-width:1.0;stroke-dasharray:2.0,2.0;" x1="10" x2="542.5" y1="728.9219" y2="728.9219"/><text fill="#000000" font-family="sans-serif" font-size="11" font-weight="bold" lengthAdjust="spacing" textLength="35" x="15" y="740.3408">[Land]</text><text fill="#000000" font-family="sans-serif" font-size="11" lengthAdjust="spacing" textLength="200" x="171.5" y="769.1768">No extra steps when selecting this option</text><polygon fill="#181818" points="62,810.9453,52,814.9453,62,818.9453,58,814.9453" style="stroke:#181818;stroke-width:1.0;"/><line style="stroke:#181818;stroke-width:1.0;stroke-dasharray:2.0,2.0;" x1="56" x2="491" y1="814.9453" y2="814.9453"/><text fill="#000000" font-family="sans-serif" font-size="13" font-weight="bold" lengthAdjust="spacing" textLength="14" x="68" y="810.0889">12</text><text fill="#000000" font-family="sans-serif" font-size="13" lengthAdjust="spacing" textLength="196" x="86" y="810.0889">requests the selection of an agent</text><polygon fill="#181818" points="485,841.2969,495,845.2969,485,849.2969,489,845.2969" style="stroke:#181818;stroke-width:1.0;"/><line style="stroke:#181818;stroke-width:1.0;" x1="51" x2="491" y1="845.2969" y2="845.2969"/><text fill="#000000" font-family="sans-serif" font-size="13" font-weight="bold" lengthAdjust="spacing" textLength="14" x="58" y="840.4404">13</text><text fill="#000000" font-family="sans-serif" font-size="13" lengthAdjust="spacing" textLength="96" x="76" y="840.4404">selects an agent</text><polygon fill="#181818" points="480,871.6484,490,875.6484,480,879.6484,484,875.6484" style="stroke:#181818;stroke-width:1.0;"/><line style="stroke:#181818;stroke-width:1.0;" x1="51" x2="486" y1="875.6484" y2="875.6484"/><text fill="#000000" font-family="sans-serif" font-size="13" font-weight="bold" lengthAdjust="spacing" textLength="14" x="58" y="870.792">14</text><text fill="#000000" font-family="sans-serif" font-size="13" lengthAdjust="spacing" textLength="119" x="76" y="870.792">summits the request</text><polygon fill="#181818" points="62,902,52,906,62,910,58,906" style="stroke:#181818;stroke-width:1.0;"/><line style="stroke:#181818;stroke-width:1.0;stroke-dasharray:2.0,2.0;" x1="56" x2="496" y1="906" y2="906"/><text fill="#000000" font-family="sans-serif" font-size="13" font-weight="bold" lengthAdjust="spacing" textLength="14" x="68" y="901.1436">15</text><text fill="#000000" font-family="sans-serif" font-size="13" lengthAdjust="spacing" textLength="158" x="86" y="901.1436">displays operation success</text><!--SRC=[nLN1Rjim3BtxAuXSsW1fbW733aKHO6WFEmmRi62tNMYPYONQaYVIo_BtesGd3HB7RNTOTP9byecFV2BvqRe60zPGU-TD6NnD8A6bZ0z_6ZIFkA6Lx2g2G4RGRQfZ0owny5lhDfrd9bRKShLZeHfMzAibPmWUB6wYzVLgzJ256_YnMYm-P1csubrRvnHqRyG7cDpboszRH-7kNRwS03Aahqml4sjiWqwIpMrtmy6g-qmezZSAzMuPw4fRk5dkexfLXqS6yM02HLi4Hrjbfy6o99S3p1uN-jL3t2XQ1tkxzsCeK30P5ZJeVnw7x1hYFG0L2G6kc-0R2hAxOd1OqqmDrXHY7cSApIROHgntCwYymRJxwQ2mhBNHLA-rZ71lPGVtv8J2351PJbzDYqk_PJYAfRAH9BhYa3wcIXK1tj7hQ7T-YdKAdrqDHNar0ewLm7VbYTM1ovEeuECGmKaAQ39KkD4SzNvFJ2xLJqibCp3UIL0mfLQq8TLfUi2wm8OgrWEiQ9pCVsNJ16le-SXTqMtEGnlIKdVLY9PEBnaNqWdoY1gZNZx5Pb9haR8taKTEHV2-vXdaA6M_DHJLKa6f3KcRQNpHQ4CKKM6ZTFJiPUhvx5iUbC_xnTlevr_fHdkcEhqbwqhChM2kewNoQptXrW7zQJotWLwMc2-ub-XyFl_grLiZ03Lg6BObkLvCQPALbi6d9gks9m9_RWf8INiexy2lLUMW4zID39QpN1xto6Fl0NwN2n91shgsVKpFZhV1bwjZfQbm5zD1NHDJK6E8-K90Vm40]--></g></svg>