<?xml version="1.0" encoding="UTF-8" standalone="no"?><svg xmlns="http://www.w3.org/2000/svg" xmlns:xlink="http://www.w3.org/1999/xlink" contentStyleType="text/css" height="1555px" preserveAspectRatio="none" style="width:476px;height:1555px;background:#FFFFFF;" version="1.1" viewBox="0 0 476 1555" width="476px" zoomAndPan="magnify"><defs/><g><text fill="#000000" font-family="sans-serif" font-size="14" font-weight="bold" lengthAdjust="spacing" textLength="127" x="167.9574" y="24.5332">Use Case Diagram</text><g id="elem_UC1"><ellipse cx="335.0691" cy="1430.0414" fill="#F1F1F1" rx="98.5691" ry="27.932" style="stroke:#181818;stroke-width:0.5;"/><text fill="#000000" font-family="sans-serif" font-size="14" lengthAdjust="spacing" textLength="123" x="270.5691" y="1425.7533">UC1 - Display listed</text><text fill="#000000" font-family="sans-serif" font-size="14" lengthAdjust="spacing" textLength="64" x="302.0691" y="1443.3627">properties</text></g><!--entity Unregistered User--><g id="elem_Unregistered User"><ellipse cx="72.5" cy="1444.6094" fill="#F1F1F1" rx="8" ry="8" style="stroke:#181818;stroke-width:0.5;"/><path d="M72.5,1452.6094 L72.5,1479.6094 M59.5,1460.6094 L85.5,1460.6094 M72.5,1479.6094 L59.5,1494.6094 M72.5,1479.6094 L85.5,1494.6094 " fill="none" style="stroke:#181818;stroke-width:0.5;"/><text fill="#000000" font-family="sans-serif" font-size="14" lengthAdjust="spacing" textLength="114" x="15.5" y="1510.6426">Unregistered User</text></g><g id="elem_UC2"><ellipse cx="334.9386" cy="975.0128" fill="#F1F1F1" rx="86.4386" ry="27.9034" style="stroke:#181818;stroke-width:0.5;"/><text fill="#000000" font-family="sans-serif" font-size="14" lengthAdjust="spacing" textLength="106" x="281.9386" y="969.9366">UC2 - Publish an</text><text fill="#000000" font-family="sans-serif" font-size="14" lengthAdjust="spacing" textLength="94" x="289.9386" y="987.546">announcement</text></g><!--entity Agent--><g id="elem_Agent"><ellipse cx="72.5" cy="1126.6094" fill="#F1F1F1" rx="8" ry="8" style="stroke:#181818;stroke-width:0.5;"/><path d="M72.5,1134.6094 L72.5,1161.6094 M59.5,1142.6094 L85.5,1142.6094 M72.5,1161.6094 L59.5,1176.6094 M72.5,1161.6094 L85.5,1176.6094 " fill="none" style="stroke:#181818;stroke-width:0.5;"/><text fill="#000000" font-family="sans-serif" font-size="14" lengthAdjust="spacing" textLength="37" x="54" y="1192.6426">Agent</text></g><g id="elem_UC3"><ellipse cx="335.0137" cy="715.0121" fill="#F1F1F1" rx="115.0137" ry="25.4027" style="stroke:#181818;stroke-width:0.5;"/><text fill="#000000" font-family="sans-serif" font-size="14" lengthAdjust="spacing" textLength="194" x="238.0137" y="718.7406">UC3 - Register new employees</text></g><!--entity System Administrator--><g id="elem_System Administrator"><ellipse cx="72.5" cy="768.6094" fill="#F1F1F1" rx="8" ry="8" style="stroke:#181818;stroke-width:0.5;"/><path d="M72.5,776.6094 L72.5,803.6094 M59.5,784.6094 L85.5,784.6094 M72.5,803.6094 L59.5,818.6094 M72.5,803.6094 L85.5,818.6094 " fill="none" style="stroke:#181818;stroke-width:0.5;"/><text fill="#000000" font-family="sans-serif" font-size="14" lengthAdjust="spacing" textLength="133" x="6" y="834.6426">System Administrator</text></g><g id="elem_UC4"><ellipse cx="335.1123" cy="625.9318" fill="#F1F1F1" rx="129.6123" ry="28.3225" style="stroke:#181818;stroke-width:0.5;"/><text fill="#000000" font-family="sans-serif" font-size="14" lengthAdjust="spacing" textLength="168" x="248.1123" y="621.6437">UC4 - Submit a request for</text><text fill="#000000" font-family="sans-serif" font-size="14" lengthAdjust="spacing" textLength="114" x="277.1123" y="639.2531">an announcement</text></g><!--entity Owner--><g id="elem_Owner"><ellipse cx="72.5" cy="595.6094" fill="#F1F1F1" rx="8" ry="8" style="stroke:#181818;stroke-width:0.5;"/><path d="M72.5,603.6094 L72.5,630.6094 M59.5,611.6094 L85.5,611.6094 M72.5,630.6094 L59.5,645.6094 M72.5,630.6094 L85.5,645.6094 " fill="none" style="stroke:#181818;stroke-width:0.5;"/><text fill="#000000" font-family="sans-serif" font-size="14" lengthAdjust="spacing" textLength="41" x="52" y="661.6426">Owner</text></g><g id="elem_UC5"><ellipse cx="334.9905" cy="799.0075" fill="#F1F1F1" rx="104.9905" ry="23.3981" style="stroke:#181818;stroke-width:0.5;"/><text fill="#000000" font-family="sans-serif" font-size="14" lengthAdjust="spacing" textLength="172" x="248.9905" y="802.736">UC5 - Register new agency</text></g><g id="elem_UC7"><ellipse cx="335.1901" cy="1521.0911" fill="#F1F1F1" rx="108.6901" ry="27.9817" style="stroke:#181818;stroke-width:0.5;"/><text fill="#000000" font-family="sans-serif" font-size="14" lengthAdjust="spacing" textLength="137" x="263.6901" y="1516.803">UC7 - Register a user</text><text fill="#000000" font-family="sans-serif" font-size="14" lengthAdjust="spacing" textLength="83" x="292.6901" y="1534.4124">in the system</text></g><g id="elem_UC8"><ellipse cx="335.001" cy="1066.0128" fill="#F1F1F1" rx="122.501" ry="27.9034" style="stroke:#181818;stroke-width:0.5;"/><text fill="#000000" font-family="sans-serif" font-size="14" lengthAdjust="spacing" textLength="119" x="275.501" y="1060.9366">UC8 - List property</text><text fill="#000000" font-family="sans-serif" font-size="14" lengthAdjust="spacing" textLength="153" x="260.501" y="1078.546">announcement requests</text></g><g id="elem_UC9"><ellipse cx="334.8883" cy="443.0128" fill="#F1F1F1" rx="91.3883" ry="27.9034" style="stroke:#181818;stroke-width:0.5;"/><text fill="#000000" font-family="sans-serif" font-size="14" lengthAdjust="spacing" textLength="111" x="279.3883" y="437.9366">UC9 - Schedule a</text><text fill="#000000" font-family="sans-serif" font-size="14" lengthAdjust="spacing" textLength="109" x="282.3883" y="455.546">visit to a property</text></g><!--entity Registered User--><g id="elem_Registered User"><ellipse cx="72.5" cy="447.6094" fill="#F1F1F1" rx="8" ry="8" style="stroke:#181818;stroke-width:0.5;"/><path d="M72.5,455.6094 L72.5,482.6094 M59.5,463.6094 L85.5,463.6094 M72.5,482.6094 L59.5,497.6094 M72.5,482.6094 L85.5,497.6094 " fill="none" style="stroke:#181818;stroke-width:0.5;"/><text fill="#000000" font-family="sans-serif" font-size="14" lengthAdjust="spacing" textLength="102" x="21.5" y="513.6426">Registered User</text></g><g id="elem_UC10"><ellipse cx="334.8461" cy="534.0375" fill="#F1F1F1" rx="97.8461" ry="27.9281" style="stroke:#181818;stroke-width:0.5;"/><text fill="#000000" font-family="sans-serif" font-size="14" lengthAdjust="spacing" textLength="122" x="270.8636" y="529.7452">UC10 - To submit a</text><text fill="#000000" font-family="sans-serif" font-size="14" lengthAdjust="spacing" textLength="97" x="285.3636" y="547.3545">purchase order</text></g><g id="elem_UC11"><ellipse cx="334.9806" cy="1157.1403" fill="#F1F1F1" rx="120.9806" ry="28.0309" style="stroke:#181818;stroke-width:0.5;"/><text fill="#000000" font-family="sans-serif" font-size="14" lengthAdjust="spacing" textLength="154" x="254.9806" y="1152.8522">UC11 - Accept purchase</text><text fill="#000000" font-family="sans-serif" font-size="14" lengthAdjust="spacing" textLength="41" x="313.4806" y="1170.4616">orders</text></g><g id="elem_UC12"><ellipse cx="334.8414" cy="885.1777" fill="#F1F1F1" rx="123.3414" ry="27.0683" style="stroke:#181818;stroke-width:0.5;"/><text fill="#000000" font-family="sans-serif" font-size="14" lengthAdjust="spacing" textLength="212" x="228.8414" y="888.9062">UC12 - Import legacy system's file</text></g><g id="elem_UC13"><ellipse cx="334.8185" cy="176.1553" fill="#F1F1F1" rx="125.3185" ry="28.046" style="stroke:#181818;stroke-width:0.5;"/><text fill="#000000" font-family="sans-serif" font-size="14" lengthAdjust="spacing" textLength="160" x="251.8185" y="171.8672">UC13 - List all employees</text><text fill="#000000" font-family="sans-serif" font-size="14" lengthAdjust="spacing" textLength="90" x="288.8185" y="189.4766">in all agencies</text></g><!--entity Network Manager--><g id="elem_Network Manager"><ellipse cx="72.5" cy="232.6094" fill="#F1F1F1" rx="8" ry="8" style="stroke:#181818;stroke-width:0.5;"/><path d="M72.5,240.6094 L72.5,267.6094 M59.5,248.6094 L85.5,248.6094 M72.5,267.6094 L59.5,282.6094 M72.5,267.6094 L85.5,282.6094 " fill="none" style="stroke:#181818;stroke-width:0.5;"/><text fill="#000000" font-family="sans-serif" font-size="14" lengthAdjust="spacing" textLength="110" x="17.5" y="298.6426">Network Manager</text></g><g id="elem_UC15"><ellipse cx="335.1371" cy="1248.0128" fill="#F1F1F1" rx="116.1371" ry="27.9034" style="stroke:#181818;stroke-width:0.5;"/><text fill="#000000" font-family="sans-serif" font-size="14" lengthAdjust="spacing" textLength="142" x="264.1371" y="1242.9366">UC15 - List all booking</text><text fill="#000000" font-family="sans-serif" font-size="14" lengthAdjust="spacing" textLength="144" x="265.1371" y="1260.546">requests for properties</text></g><g id="elem_UC16"><ellipse cx="335.124" cy="1339.0337" fill="#F1F1F1" rx="97.124" ry="27.9243" style="stroke:#181818;stroke-width:0.5;"/><text fill="#000000" font-family="sans-serif" font-size="14" lengthAdjust="spacing" textLength="121" x="271.9015" y="1334.6784">UC16 - Respond to</text><text fill="#000000" font-family="sans-serif" font-size="14" lengthAdjust="spacing" textLength="93" x="287.9015" y="1352.2878">scheduled visit</text></g><g id="elem_UC17"><ellipse cx="335.0675" cy="263.3229" fill="#F1F1F1" rx="109.0675" ry="24.2135" style="stroke:#181818;stroke-width:0.5;"/><text fill="#000000" font-family="sans-serif" font-size="14" lengthAdjust="spacing" textLength="181" x="244.5675" y="267.0514">UC17 - To list all deals made</text></g><g id="elem_UC18"><ellipse cx="334.9574" cy="83.2009" fill="#F1F1F1" rx="135.9574" ry="29.5915" style="stroke:#181818;stroke-width:0.5;"/><text fill="#000000" font-family="sans-serif" font-size="14" lengthAdjust="spacing" textLength="186" x="238.9574" y="78.9128">UC18 - To analyse sale deals</text><text fill="#000000" font-family="sans-serif" font-size="14" lengthAdjust="spacing" textLength="163" x="252.4574" y="96.5221">for house and apartments</text></g><!--entity Store Manager--><g id="elem_Store Manager"><ellipse cx="72.5" cy="52.6094" fill="#F1F1F1" rx="8" ry="8" style="stroke:#181818;stroke-width:0.5;"/><path d="M72.5,60.6094 L72.5,87.6094 M59.5,68.6094 L85.5,68.6094 M72.5,87.6094 L59.5,102.6094 M72.5,87.6094 L85.5,102.6094 " fill="none" style="stroke:#181818;stroke-width:0.5;"/><text fill="#000000" font-family="sans-serif" font-size="14" lengthAdjust="spacing" textLength="94" x="25.5" y="118.6426">Store Manager</text></g><g id="elem_UC19"><ellipse cx="335.001" cy="351.3096" fill="#F1F1F1" rx="134.001" ry="29.2002" style="stroke:#181818;stroke-width:0.5;"/><text fill="#000000" font-family="sans-serif" font-size="14" lengthAdjust="spacing" textLength="153" x="258.501" y="346.2334">UC19 - To divide the set</text><text fill="#000000" font-family="sans-serif" font-size="14" lengthAdjust="spacing" textLength="178" x="248.001" y="363.8428">of all stores into two subsets</text></g><!--link Unregistered User to UC1--><g id="link_Unregistered User_UC1"><path d="M129.7,1465.3994 C163.41,1459.5794 207.03,1452.0394 245.31,1445.4294 " fill="none" id="Unregistered User-to-UC1" style="stroke:#181818;stroke-width:1.0;"/><polygon fill="#181818" points="250.43,1444.5494,240.8777,1442.1506,245.5039,1445.4061,242.2485,1450.0323,250.43,1444.5494" style="stroke:#181818;stroke-width:1.0;"/></g><!--link Agent to UC2--><g id="link_Agent_UC2"><path d="M91.17,1131.1994 C113.14,1100.8094 153.36,1050.8194 199,1021.1094 C217.35,1009.1694 239.12,999.9894 259.77,993.0894 " fill="none" id="Agent-to-UC2" style="stroke:#181818;stroke-width:1.0;"/><polygon fill="#181818" points="264.71,991.4694,254.9122,990.4676,259.9581,993.0248,257.4009,998.0707,264.71,991.4694" style="stroke:#181818;stroke-width:1.0;"/></g><!--link System Administrator to UC3--><g id="link_System Administrator_UC3"><path d="M139.26,777.5294 C158.5,771.2394 179.59,764.3694 199,758.1094 C219.91,751.3594 242.67,744.0894 263.44,737.4794 " fill="none" id="System Administrator-to-UC3" style="stroke:#181818;stroke-width:1.0;"/><polygon fill="#181818" points="268.39,735.8994,258.6007,734.8177,263.6256,737.416,261.0273,742.4408,268.39,735.8994" style="stroke:#181818;stroke-width:1.0;"/></g><!--link Owner to UC4--><g id="link_Owner_UC4"><path d="M93.08,626.1094 C116.62,626.1094 158.23,626.1094 200.32,626.1094 " fill="none" id="Owner-to-UC4" style="stroke:#181818;stroke-width:1.0;"/><polygon fill="#181818" points="205.45,626.1094,196.45,622.1094,200.45,626.1094,196.45,630.1094,205.45,626.1094" style="stroke:#181818;stroke-width:1.0;"/></g><!--link System Administrator to UC5--><g id="link_System Administrator_UC5"><path d="M139.24,799.1094 C165.17,799.1094 195.66,799.1094 224.73,799.1094 " fill="none" id="System Administrator-to-UC5" style="stroke:#181818;stroke-width:1.0;"/><polygon fill="#181818" points="229.76,799.1094,220.76,795.1094,224.76,799.1094,220.76,803.1094,229.76,799.1094" style="stroke:#181818;stroke-width:1.0;"/></g><!--link Unregistered User to UC7--><g id="link_Unregistered User_UC7"><path d="M129.7,1485.0294 C161.91,1490.7194 203.16,1498.0094 240.16,1504.5394 " fill="none" id="Unregistered User-to-UC7" style="stroke:#181818;stroke-width:1.0;"/><polygon fill="#181818" points="245.11,1505.4094,236.9439,1499.9035,240.1864,1504.5388,235.551,1507.7813,245.11,1505.4094" style="stroke:#181818;stroke-width:1.0;"/></g><!--link Agent to UC8--><g id="link_Agent_UC8"><path d="M91.34,1150.6094 C115.65,1141.7794 160.54,1125.5594 199,1112.1094 C219.02,1105.1094 240.75,1097.6494 260.81,1090.8094 " fill="none" id="Agent-to-UC8" style="stroke:#181818;stroke-width:1.0;"/><polygon fill="#181818" points="265.6,1089.1794,255.7903,1088.3016,260.8681,1090.7948,258.375,1095.8726,265.6,1089.1794" style="stroke:#181818;stroke-width:1.0;"/></g><!--link Registered User to UC9--><g id="link_Registered User_UC9"><path d="M123.73,471.3594 C158.18,466.7294 204.83,460.4594 245.44,455.0094 " fill="none" id="Registered User-to-UC9" style="stroke:#181818;stroke-width:1.0;"/><polygon fill="#181818" points="250.87,454.2794,241.4146,451.5236,245.9152,454.9505,242.4883,459.4512,250.87,454.2794" style="stroke:#181818;stroke-width:1.0;"/></g><!--link Registered User to UC10--><g id="link_Registered User_UC10"><path d="M123.73,488.9094 C159.81,496.6594 209.28,507.2994 251.17,516.2994 " fill="none" id="Registered User-to-UC10" style="stroke:#181818;stroke-width:1.0;"/><polygon fill="#181818" points="256.24,517.3894,248.2895,511.5765,251.3531,516.332,246.5976,519.3956,256.24,517.3894" style="stroke:#181818;stroke-width:1.0;"/></g><!--link Agent to UC11--><g id="link_Agent_UC11"><path d="M91.41,1157.1094 C116.14,1157.1094 162.93,1157.1094 208.86,1157.1094 " fill="none" id="Agent-to-UC11" style="stroke:#181818;stroke-width:1.0;"/><polygon fill="#181818" points="213.88,1157.1094,204.88,1153.1094,208.88,1157.1094,204.88,1161.1094,213.88,1157.1094" style="stroke:#181818;stroke-width:1.0;"/></g><!--link System Administrator to UC12--><g id="link_System Administrator_UC12"><path d="M139.24,820.8094 C176.31,833.0494 222.71,848.3694 260.92,860.9794 " fill="none" id="System Administrator-to-UC12" style="stroke:#181818;stroke-width:1.0;"/><polygon fill="#181818" points="266.01,862.6694,258.7068,856.0616,261.2595,861.1097,256.2113,863.6624,266.01,862.6694" style="stroke:#181818;stroke-width:1.0;"/></g><!--link Network Manager to UC13--><g id="link_Network Manager_UC13"><path d="M127.79,244.9794 C165.98,232.2194 217.57,214.9894 259.59,200.9594 " fill="none" id="Network Manager-to-UC13" style="stroke:#181818;stroke-width:1.0;"/><polygon fill="#181818" points="264.4,199.3494,254.5961,198.4095,259.658,200.9348,257.1328,205.9967,264.4,199.3494" style="stroke:#181818;stroke-width:1.0;"/></g><!--link Agent to UC15--><g id="link_Agent_UC15"><path d="M91.31,1163.8294 C115.59,1172.9394 160.45,1189.6194 199,1203.1094 C218.86,1210.0594 240.45,1217.3594 260.42,1224.0194 " fill="none" id="Agent-to-UC15" style="stroke:#181818;stroke-width:1.0;"/><polygon fill="#181818" points="265.19,1225.6094,257.9228,1218.962,260.448,1224.024,255.3861,1226.5492,265.19,1225.6094" style="stroke:#181818;stroke-width:1.0;"/></g><!--link Agent to UC16--><g id="link_Agent_UC16"><path d="M91.09,1183.2694 C112.99,1213.9394 153.13,1264.3594 199,1294.1094 C215.72,1304.9594 235.3,1313.4294 254.29,1319.9594 " fill="none" id="Agent-to-UC16" style="stroke:#181818;stroke-width:1.0;"/><polygon fill="#181818" points="259.1,1321.5794,251.8388,1314.9254,254.3595,1319.9896,249.2952,1322.5103,259.1,1321.5794" style="stroke:#181818;stroke-width:1.0;"/></g><!--link Network Manager to UC17--><g id="link_Network Manager_UC17"><path d="M127.79,263.1094 C154.76,263.1094 188.39,263.1094 220.63,263.1094 " fill="none" id="Network Manager-to-UC17" style="stroke:#181818;stroke-width:1.0;"/><polygon fill="#181818" points="225.79,263.1094,216.79,259.1094,220.79,263.1094,216.79,267.1094,225.79,263.1094" style="stroke:#181818;stroke-width:1.0;"/></g><!--link Store Manager to UC18--><g id="link_Store Manager_UC18"><path d="M119.77,83.1094 C140.74,83.1094 166.78,83.1094 193.39,83.1094 " fill="none" id="Store Manager-to-UC18" style="stroke:#181818;stroke-width:1.0;"/><polygon fill="#181818" points="198.72,83.1094,189.72,79.1094,193.72,83.1094,189.72,87.1094,198.72,83.1094" style="stroke:#181818;stroke-width:1.0;"/></g><!--link Network Manager to UC19--><g id="link_Network Manager_UC19"><path d="M127.79,281.4494 C165.27,294.1094 215.63,311.1194 257.21,325.1694 " fill="none" id="Network Manager-to-UC19" style="stroke:#181818;stroke-width:1.0;"/><polygon fill="#181818" points="261.98,326.7794,254.7308,320.1124,257.2423,325.1811,252.1736,327.6927,261.98,326.7794" style="stroke:#181818;stroke-width:1.0;"/></g><!--SRC=[ZPIxZjim44LxVSN0ZIi3Ax_T172S9a1UM6UxDBGubWXJf49IQmX1_Zr3FIX3yiQhGWKvF3ESkPTJUn6gO8Rba6kbaype7C6P4gD-fs39XQLuT9L4C9WufbA9qRIFi1dZ-YfK2cScBKOtXqFydmZe-wWDHtFGKXkeK4fzZVv6aHEEq2yMuS3ezqcmbCv6aSIp0wV1Y3Hpm8M72QsY6bLQJ7pqvEKGmumEsKAo2gIm3lal1ONH1Hedq4w0MQ2e-fZ_9Y_AOEe33NAVrqnWDliGOcxGSqB_A4z4pO0fmZAbTAaIp56v5ZplmVkqNcvWyo5iGR3dDZ4el0BcXTGLXX8NFUbOKLGEUvuBHGSCSpfKkHY2bmG-bgTSE63KyjybMWTdRUfwxvMyx1Dzlwh-_iiXUJKicPIWagh5hDvNxsf8tTnIcT_nfGe5BaEmDQdDi7d7q3P3_9RmNoYoqq0rc5lNegxjs-Zk_BP3xiwtEScGboHNHj1NOKMjK1PIjSXTG3xVBtet4l4JqNzgiEqSlOHBasH-ktPD9-EdH-WsufRj7R9F4YnSW1A_nWPxnFUx48yy4NjJVCuBRHn8J5bIjJERMZWBYHqm-EA_ueX7DeaNtVoObBr76eNufLg3DyOEjfbyGtVLvW9VcQAWFiV8CV7gDiT9QtgnKihGASExvyuJidgZHoE5n-jQuhRGYfD0Y6nRuV16DHrn_GPnFI9k6dt8hcYEzDX2pdXe-EPX7qPMYRSDbU9aHKkMaRHhCfNiUv1fYgPj3enUTEVj4xhH- -P80yLHjf61ubsJZOjNmR5nEpgln7Dz9UinbiPCbg8BU2_GViYtUtY_NVGF]--></g></svg>