<?xml version="1.0" encoding="UTF-8" standalone="no"?><svg xmlns="http://www.w3.org/2000/svg" xmlns:xlink="http://www.w3.org/1999/xlink" contentStyleType="text/css" height="771px" preserveAspectRatio="none" style="width:854px;height:771px;background:#FFFFFF;" version="1.1" viewBox="0 0 854 771" width="854px" zoomAndPan="magnify"><defs/><g><text fill="#000000" font-family="sans-serif" font-size="14" font-weight="bold" lengthAdjust="spacing" textLength="156" x="342.25" y="24.5332">Domain Model - US002</text><!--class Announcement--><g id="elem_Announcement"><rect codeLine="19" fill="#F1F1F1" height="106.0469" id="Announcement" rx="2.5" ry="2.5" style="stroke:#181818;stroke-width:0.5;" width="135" x="170" y="176.6094"/><text fill="#000000" font-family="sans-serif" font-size="14" lengthAdjust="spacing" textLength="95" x="190" y="196.1426">Announcement</text><line style="stroke:#181818;stroke-width:0.5;" x1="171" x2="304" y1="204.2188" y2="204.2188"/><text fill="#000000" font-family="sans-serif" font-size="14" lengthAdjust="spacing" textLength="103" x="176" y="222.752">typeCommission</text><text fill="#000000" font-family="sans-serif" font-size="14" lengthAdjust="spacing" textLength="123" x="176" y="240.3613">amountCommission</text><text fill="#000000" font-family="sans-serif" font-size="14" lengthAdjust="spacing" textLength="78" x="176" y="257.9707">requestDate</text><text fill="#000000" font-family="sans-serif" font-size="14" lengthAdjust="spacing" textLength="103" x="176" y="275.5801">acceptanceDate</text></g><!--class Commission--><g id="elem_Commission"><rect codeLine="23" fill="#F1F1F1" height="70.8281" id="Commission" rx="2.5" ry="2.5" style="stroke:#181818;stroke-width:0.5;" width="135" x="137" y="387.1094"/><text fill="#000000" font-family="sans-serif" font-size="14" lengthAdjust="spacing" textLength="76" x="166.5" y="406.6426">Commission</text><line style="stroke:#181818;stroke-width:0.5;" x1="138" x2="271" y1="414.7188" y2="414.7188"/><text fill="#000000" font-family="sans-serif" font-size="14" lengthAdjust="spacing" textLength="103" x="143" y="433.252">typeCommission</text><text fill="#000000" font-family="sans-serif" font-size="14" lengthAdjust="spacing" textLength="123" x="143" y="450.8613">amountCommission</text></g><!--class Property--><g id="elem_Property"><rect codeLine="28" fill="#F1F1F1" height="70.8281" id="Property" rx="2.5" ry="2.5" style="stroke:#181818;stroke-width:0.5;" width="132" x="536.5" y="194.1094"/><text fill="#000000" font-family="sans-serif" font-size="14" lengthAdjust="spacing" textLength="54" x="575.5" y="213.6426">Property</text><line style="stroke:#181818;stroke-width:0.5;" x1="537.5" x2="667.5" y1="221.7188" y2="221.7188"/><text fill="#000000" font-family="sans-serif" font-size="14" lengthAdjust="spacing" textLength="29" x="542.5" y="240.252">area</text><text fill="#000000" font-family="sans-serif" font-size="14" lengthAdjust="spacing" textLength="120" x="542.5" y="257.8613">distanceCityCenter</text></g><!--class Residence--><g id="elem_Residence"><rect codeLine="33" fill="#F1F1F1" height="88.4375" id="Residence" rx="2.5" ry="2.5" style="stroke:#181818;stroke-width:0.5;" width="128" x="432.5" y="378.6094"/><text fill="#000000" font-family="sans-serif" font-size="14" lengthAdjust="spacing" textLength="67" x="463" y="398.1426">Residence</text><line style="stroke:#181818;stroke-width:0.5;" x1="433.5" x2="559.5" y1="406.2188" y2="406.2188"/><text fill="#000000" font-family="sans-serif" font-size="14" lengthAdjust="spacing" textLength="112" x="438.5" y="424.752">numberBedrooms</text><text fill="#000000" font-family="sans-serif" font-size="14" lengthAdjust="spacing" textLength="116" x="438.5" y="442.3613">numberBathrooms</text><text fill="#000000" font-family="sans-serif" font-size="14" lengthAdjust="spacing" textLength="87" x="438.5" y="459.9707">parkingSpace</text></g><!--class House--><g id="elem_House"><rect codeLine="38" fill="#F1F1F1" height="88.4375" id="House" rx="2.5" ry="2.5" style="stroke:#181818;stroke-width:0.5;" width="105" x="304" y="562.6094"/><text fill="#000000" font-family="sans-serif" font-size="14" lengthAdjust="spacing" textLength="40" x="336.5" y="582.1426">House</text><line style="stroke:#181818;stroke-width:0.5;" x1="305" x2="408" y1="590.2188" y2="590.2188"/><text fill="#000000" font-family="sans-serif" font-size="14" lengthAdjust="spacing" textLength="62" x="310" y="608.752">basement</text><text fill="#000000" font-family="sans-serif" font-size="14" lengthAdjust="spacing" textLength="93" x="310" y="626.3613">inhabitableLoft</text><text fill="#000000" font-family="sans-serif" font-size="14" lengthAdjust="spacing" textLength="82" x="310" y="643.9707">sunExposure</text></g><!--class TypeProperty--><g id="elem_TypeProperty"><rect codeLine="43" fill="#F1F1F1" height="53.2188" id="TypeProperty" rx="2.5" ry="2.5" style="stroke:#181818;stroke-width:0.5;" width="92" x="556.5" y="45.6094"/><text fill="#000000" font-family="sans-serif" font-size="14" lengthAdjust="spacing" textLength="86" x="559.5" y="65.1426">TypeProperty</text><line style="stroke:#181818;stroke-width:0.5;" x1="557.5" x2="647.5" y1="73.2188" y2="73.2188"/><text fill="#000000" font-family="sans-serif" font-size="14" lengthAdjust="spacing" textLength="73" x="562.5" y="91.752">designation</text></g><!--class TypeResidence--><g id="elem_TypeResidence"><rect codeLine="46" fill="#F1F1F1" height="53.2188" id="TypeResidence" rx="2.5" ry="2.5" style="stroke:#181818;stroke-width:0.5;" width="105" x="444" y="580.1094"/><text fill="#000000" font-family="sans-serif" font-size="14" lengthAdjust="spacing" textLength="99" x="447" y="599.6426">TypeResidence</text><line style="stroke:#181818;stroke-width:0.5;" x1="445" x2="548" y1="607.7188" y2="607.7188"/><text fill="#000000" font-family="sans-serif" font-size="14" lengthAdjust="spacing" textLength="73" x="450" y="626.252">designation</text></g><!--class Photograph--><g id="elem_Photograph"><rect codeLine="49" fill="#F1F1F1" height="53.2188" id="Photograph" rx="2.5" ry="2.5" style="stroke:#181818;stroke-width:0.5;" width="80" x="767.5" y="203.1094"/><text fill="#000000" font-family="sans-serif" font-size="14" lengthAdjust="spacing" textLength="74" x="770.5" y="222.6426">Photograph</text><line style="stroke:#181818;stroke-width:0.5;" x1="768.5" x2="846.5" y1="230.7188" y2="230.7188"/><text fill="#000000" font-family="sans-serif" font-size="14" lengthAdjust="spacing" textLength="16" x="773.5" y="249.252">uri</text></g><!--class Location--><g id="elem_Location"><rect codeLine="52" fill="#F1F1F1" height="123.6563" id="Location" rx="2.5" ry="2.5" style="stroke:#181818;stroke-width:0.5;" width="84" x="595.5" y="360.6094"/><text fill="#000000" font-family="sans-serif" font-size="14" lengthAdjust="spacing" textLength="54" x="610.5" y="380.1426">Location</text><line style="stroke:#181818;stroke-width:0.5;" x1="596.5" x2="678.5" y1="388.2188" y2="388.2188"/><text fill="#000000" font-family="sans-serif" font-size="14" lengthAdjust="spacing" textLength="72" x="601.5" y="406.752">streetName</text><text fill="#000000" font-family="sans-serif" font-size="14" lengthAdjust="spacing" textLength="21" x="601.5" y="424.3613">city</text><text fill="#000000" font-family="sans-serif" font-size="14" lengthAdjust="spacing" textLength="41" x="601.5" y="441.9707">district</text><text fill="#000000" font-family="sans-serif" font-size="14" lengthAdjust="spacing" textLength="31" x="601.5" y="459.5801">state</text><text fill="#000000" font-family="sans-serif" font-size="14" lengthAdjust="spacing" textLength="51" x="601.5" y="477.1895">zipCode</text></g><!--class Business--><g id="elem_Business"><rect codeLine="59" fill="#F1F1F1" height="53.2188" id="Business" rx="2.5" ry="2.5" style="stroke:#181818;stroke-width:0.5;" width="63" x="95" y="580.1094"/><text fill="#000000" font-family="sans-serif" font-size="14" lengthAdjust="spacing" textLength="57" x="98" y="599.6426">Business</text><line style="stroke:#181818;stroke-width:0.5;" x1="96" x2="157" y1="607.7188" y2="607.7188"/><text fill="#000000" font-family="sans-serif" font-size="14" lengthAdjust="spacing" textLength="31" x="101" y="626.252">price</text></g><!--class Lease--><g id="elem_Lease"><rect codeLine="62" fill="#F1F1F1" height="53.2188" id="Lease" rx="2.5" ry="2.5" style="stroke:#181818;stroke-width:0.5;" width="117" x="68" y="711.6094"/><text fill="#000000" font-family="sans-serif" font-size="14" lengthAdjust="spacing" textLength="39" x="107" y="731.1426">Lease</text><line style="stroke:#181818;stroke-width:0.5;" x1="69" x2="184" y1="739.2188" y2="739.2188"/><text fill="#000000" font-family="sans-serif" font-size="14" lengthAdjust="spacing" textLength="105" x="74" y="757.752">contractDuration</text></g><!--class Agent--><g id="elem_Agent"><rect codeLine="65" fill="#F1F1F1" height="35.6094" id="Agent" rx="2.5" ry="2.5" style="stroke:#181818;stroke-width:0.5;" width="43" x="216" y="54.1094"/><text fill="#000000" font-family="sans-serif" font-size="14" lengthAdjust="spacing" textLength="37" x="219" y="73.6426">Agent</text><line style="stroke:#181818;stroke-width:0.5;" x1="217" x2="258" y1="81.7188" y2="81.7188"/></g><!--class AvailableEquipment--><g id="elem_AvailableEquipment"><rect codeLine="67" fill="#F1F1F1" height="53.2188" id="AvailableEquipment" rx="2.5" ry="2.5" style="stroke:#181818;stroke-width:0.5;" width="130" x="588.5" y="580.1094"/><text fill="#000000" font-family="sans-serif" font-size="14" lengthAdjust="spacing" textLength="124" x="591.5" y="599.6426">AvailableEquipment</text><line style="stroke:#181818;stroke-width:0.5;" x1="589.5" x2="717.5" y1="607.7188" y2="607.7188"/><text fill="#000000" font-family="sans-serif" font-size="14" lengthAdjust="spacing" textLength="69" x="594.5" y="626.252">description</text></g><!--class Request--><g id="elem_Request"><rect codeLine="70" fill="#F1F1F1" height="53.2188" id="Request" rx="2.5" ry="2.5" style="stroke:#181818;stroke-width:0.5;" width="90" x="307.5" y="396.1094"/><text fill="#000000" font-family="sans-serif" font-size="14" lengthAdjust="spacing" textLength="53" x="326" y="415.6426">Request</text><line style="stroke:#181818;stroke-width:0.5;" x1="308.5" x2="396.5" y1="423.7188" y2="423.7188"/><text fill="#000000" font-family="sans-serif" font-size="14" lengthAdjust="spacing" textLength="78" x="313.5" y="442.252">requestDate</text></g><!--class TypeBusiness--><g id="elem_TypeBusiness"><rect codeLine="73" fill="#F1F1F1" height="53.2188" id="TypeBusiness" rx="2.5" ry="2.5" style="stroke:#181818;stroke-width:0.5;" width="95" x="7" y="396.1094"/><text fill="#000000" font-family="sans-serif" font-size="14" lengthAdjust="spacing" textLength="89" x="10" y="415.6426">TypeBusiness</text><line style="stroke:#181818;stroke-width:0.5;" x1="8" x2="101" y1="423.7188" y2="423.7188"/><text fill="#000000" font-family="sans-serif" font-size="14" lengthAdjust="spacing" textLength="69" x="13" y="442.252">description</text></g><!--class Price--><g id="elem_Price"><rect fill="#F1F1F1" height="35.6094" id="Price" rx="2.5" ry="2.5" style="stroke:#181818;stroke-width:0.5;" width="38" x="718.5" y="404.6094"/><text fill="#000000" font-family="sans-serif" font-size="14" lengthAdjust="spacing" textLength="32" x="721.5" y="424.1426">Price</text><line style="stroke:#181818;stroke-width:0.5;" x1="719.5" x2="755.5" y1="432.2188" y2="432.2188"/></g><!--link Agent to Announcement--><g id="link_Agent_Announcement"><path codeLine="77" d="M237.5,90.3494 C237.5,110.9794 237.5,146.5094 237.5,176.3794 " fill="none" id="Agent-Announcement" style="stroke:#181818;stroke-width:1.0;"/><polygon fill="#000000" points="242.5,142.7852,245.4389,133.7401,239.5611,133.7401,242.5,142.7852" style="stroke:#000000;stroke-width:1.0;"/><text fill="#000000" font-family="sans-serif" font-size="13" lengthAdjust="spacing" textLength="55" x="251.5" y="143.1045">publishes</text><text fill="#000000" font-family="sans-serif" font-size="13" lengthAdjust="spacing" textLength="7" x="229.5156" y="111.3289">1</text><text fill="#000000" font-family="sans-serif" font-size="13" lengthAdjust="spacing" textLength="5" x="232.1641" y="165.6672">*</text></g><!--link TypeProperty to Property--><g id="link_TypeProperty_Property"><path codeLine="78" d="M602.5,98.7894 C602.5,124.7494 602.5,165.0594 602.5,193.8694 " fill="none" id="TypeProperty-Property" style="stroke:#181818;stroke-width:1.0;"/><polygon fill="#000000" points="607.5,142.7852,610.4389,133.7401,604.5611,133.7401,607.5,142.7852" style="stroke:#000000;stroke-width:1.0;"/><text fill="#000000" font-family="sans-serif" font-size="13" lengthAdjust="spacing" textLength="102" x="616.5" y="143.1045">is a description of</text><text fill="#000000" font-family="sans-serif" font-size="13" lengthAdjust="spacing" textLength="7" x="594.6906" y="120.3196">1</text><text fill="#000000" font-family="sans-serif" font-size="13" lengthAdjust="spacing" textLength="7" x="594.8547" y="183.3482">1</text></g><!--reverse link Property to Residence--><g id="link_Property_Residence"><path codeLine="79" d="M575.95,283.0194 C567.94,298.4494 559.02,315.2894 550.5,330.6094 C541.75,346.3394 531.79,363.3694 522.82,378.3894 " fill="none" id="Property-backto-Residence" style="stroke:#181818;stroke-width:1.0;"/><polygon fill="none" points="569.79,279.6894,585.16,265.1094,582.24,286.0994,569.79,279.6894" style="stroke:#181818;stroke-width:1.0;"/></g><!--link Residence to TypeResidence--><g id="link_Residence_TypeResidence"><path codeLine="80" d="M494.36,466.8394 C493.61,486.8494 493.05,510.9394 493.5,532.6094 C493.82,548.3394 494.54,565.9494 495.19,579.9394 " fill="none" id="Residence-TypeResidence" style="stroke:#181818;stroke-width:1.0;"/><polygon fill="#000000" points="498.4633,518.7853,495.5908,527.8517,501.4685,527.8086,498.4633,518.7853" style="stroke:#000000;stroke-width:1.0;"/><text fill="#000000" font-family="sans-serif" font-size="13" lengthAdjust="spacing" textLength="102" x="507.5" y="529.1045">is a description of</text><text fill="#000000" font-family="sans-serif" font-size="13" lengthAdjust="spacing" textLength="7" x="486.4611" y="488.6518">1</text><text fill="#000000" font-family="sans-serif" font-size="13" lengthAdjust="spacing" textLength="7" x="487.0777" y="569.4324">1</text></g><!--reverse link Residence to House--><g id="link_Residence_House"><path codeLine="81" d="M451.03,482.7194 C431.05,508.6994 408.01,538.6494 389.68,562.4694 " fill="none" id="Residence-backto-House" style="stroke:#181818;stroke-width:1.0;"/><polygon fill="none" points="445.58,478.3294,463.32,466.7394,456.68,486.8594,445.58,478.3294" style="stroke:#181818;stroke-width:1.0;"/></g><!--link Property to Photograph--><g id="link_Property_Photograph"><path codeLine="82" d="M668.77,229.6094 C701.29,229.6094 739.4,229.6094 767.43,229.6094 " fill="none" id="Property-Photograph" style="stroke:#181818;stroke-width:1.0;"/><polygon fill="#000000" points="696,217.7852,686.9549,214.8462,686.9549,220.7241,696,217.7852" style="stroke:#000000;stroke-width:1.0;"/><text fill="#000000" font-family="sans-serif" font-size="13" lengthAdjust="spacing" textLength="49" x="700" y="223.1045">contains</text><text fill="#000000" font-family="sans-serif" font-size="13" lengthAdjust="spacing" textLength="7" x="676.4011" y="226.2581">1</text><text fill="#000000" font-family="sans-serif" font-size="13" lengthAdjust="spacing" textLength="5" x="754.5812" y="225.6417">*</text></g><!--link Property to Location--><g id="link_Property_Location"><path codeLine="83" d="M608.84,265.1994 C613.68,291.6394 620.49,328.7794 626.25,360.2394 " fill="none" id="Property-Location" style="stroke:#181818;stroke-width:1.0;"/><polygon fill="#000000" points="625.4009,326.7033,626.6619,317.2767,620.8803,318.3358,625.4009,326.7033" style="stroke:#000000;stroke-width:1.0;"/><text fill="#000000" font-family="sans-serif" font-size="13" lengthAdjust="spacing" textLength="49" x="633.5" y="327.1045">contains</text><text fill="#000000" font-family="sans-serif" font-size="13" lengthAdjust="spacing" textLength="7" x="602.3459" y="286.5056">1</text><text fill="#000000" font-family="sans-serif" font-size="13" lengthAdjust="spacing" textLength="7" x="617.5445" y="349.6382">1</text></g><!--link Property to Price--><g id="link_Property_Price"><path codeLine="84" d="M647.45,265.2994 C662.87,278.8294 679.29,295.2494 691.5,312.6094 C712.17,342.0094 726.08,382.1494 732.81,404.6094 " fill="none" id="Property-Price" style="stroke:#181818;stroke-width:1.0;"/><polygon fill="#000000" points="709.1123,326.0485,706.8925,316.8006,701.8807,319.8715,709.1123,326.0485" style="stroke:#000000;stroke-width:1.0;"/><text fill="#000000" font-family="sans-serif" font-size="13" lengthAdjust="spacing" textLength="49" x="715.5" y="327.1045">contains</text><text fill="#000000" font-family="sans-serif" font-size="13" lengthAdjust="spacing" textLength="7" x="647.5742" y="286.3487">1</text><text fill="#000000" font-family="sans-serif" font-size="13" lengthAdjust="spacing" textLength="7" x="723.0971" y="393.6149">1</text></g><!--reverse link Business to Lease--><g id="link_Business_Lease"><path codeLine="85" d="M126.5,653.3894 C126.5,672.9294 126.5,695.0094 126.5,711.5794 " fill="none" id="Business-backto-Lease" style="stroke:#181818;stroke-width:1.0;"/><polygon fill="none" points="119.5,653.1994,126.5,633.1994,133.5,653.1894,119.5,653.1994" style="stroke:#181818;stroke-width:1.0;"/></g><!--link Residence to AvailableEquipment--><g id="link_Residence_AvailableEquipment"><path codeLine="86" d="M553.6,466.6594 C582.46,488.5894 611.96,511.3394 614.5,514.6094 C629.66,534.1694 640.11,560.5194 646.34,579.8294 " fill="none" id="Residence-AvailableEquipment" style="stroke:#181818;stroke-width:1.0;"/><polygon fill="#000000" points="632.6692,527.6525,629.2092,518.7936,624.6629,522.5192,632.6692,527.6525" style="stroke:#000000;stroke-width:1.0;"/><text fill="#000000" font-family="sans-serif" font-size="13" lengthAdjust="spacing" textLength="49" x="638.5" y="529.1045">contains</text><text fill="#000000" font-family="sans-serif" font-size="13" lengthAdjust="spacing" textLength="7" x="555.1425" y="488.4431">1</text><text fill="#000000" font-family="sans-serif" font-size="13" lengthAdjust="spacing" textLength="5" x="639.1061" y="569.297">*</text></g><!--link Announcement to Commission--><g id="link_Announcement_Commission"><path codeLine="87" d="M228.48,282.7994 C222.76,315.9394 215.51,357.8994 210.49,386.9694 " fill="none" id="Announcement-Commission" style="stroke:#181818;stroke-width:1.0;"/><text fill="#000000" font-family="sans-serif" font-size="13" lengthAdjust="spacing" textLength="7" x="219.8759" y="304.154">1</text><text fill="#000000" font-family="sans-serif" font-size="13" lengthAdjust="spacing" textLength="7" x="203.9647" y="376.1955">1</text></g><!--link Property to Request--><g id="link_Property_Request"><path codeLine="88" d="M536.08,244.7794 C493.73,256.7294 440.13,277.6494 403.5,312.6094 C379.62,335.3994 365.79,371.5794 358.7,395.9394 " fill="none" id="Property-Request" style="stroke:#181818;stroke-width:1.0;"/><polygon fill="#000000" points="412.3056,318.5421,403.515,322.172,407.3274,326.6457,412.3056,318.5421" style="stroke:#000000;stroke-width:1.0;"/><text fill="#000000" font-family="sans-serif" font-size="13" lengthAdjust="spacing" textLength="124" x="417.5" y="327.1045">has information about</text><text fill="#000000" font-family="sans-serif" font-size="13" lengthAdjust="spacing" textLength="7" x="521.4325" y="243.0873">1</text><text fill="#000000" font-family="sans-serif" font-size="13" lengthAdjust="spacing" textLength="7" x="352.3244" y="385.4324">1</text></g><!--link Request to Business--><g id="link_Request_Business"><path codeLine="89" d="M327.46,449.3194 C316.18,460.5194 302.5,473.5694 289.5,484.6094 C245.71,521.7894 191.6,560.6794 158.07,584.0294 " fill="none" id="Request-Business" style="stroke:#181818;stroke-width:1.0;"/><polygon fill="#000000" points="252.5866,526.8973,261.4953,523.5676,257.8367,518.9671,252.5866,526.8973" style="stroke:#000000;stroke-width:1.0;"/><text fill="#000000" font-family="sans-serif" font-size="13" lengthAdjust="spacing" textLength="88" x="265.5" y="529.1045">is described by</text><text fill="#000000" font-family="sans-serif" font-size="13" lengthAdjust="spacing" textLength="7" x="313.8601" y="470.8565">1</text><text fill="#000000" font-family="sans-serif" font-size="13" lengthAdjust="spacing" textLength="7" x="166.1799" y="574.4682">1</text></g><!--link TypeBusiness to Business--><g id="link_TypeBusiness_Business"><path codeLine="90" d="M59.64,449.3294 C64.59,471.8094 73.01,505.0794 84.5,532.6094 C91.37,549.0694 101.23,566.4194 109.67,580.0794 " fill="none" id="TypeBusiness-Business" style="stroke:#181818;stroke-width:1.0;"/><polygon fill="#000000" points="91.2869,528.455,90.7993,518.9569,85.3096,521.0575,91.2869,528.455" style="stroke:#000000;stroke-width:1.0;"/><text fill="#000000" font-family="sans-serif" font-size="13" lengthAdjust="spacing" textLength="56" x="98.5" y="529.1045">describes</text><text fill="#000000" font-family="sans-serif" font-size="13" lengthAdjust="spacing" textLength="7" x="53.0193" y="470.8688">1</text><text fill="#000000" font-family="sans-serif" font-size="13" lengthAdjust="spacing" textLength="7" x="97.7146" y="569.174">1</text></g><!--link Announcement to Request--><g id="link_Announcement_Request"><path codeLine="91" d="M254.17,282.7194 C260.2,298.5994 267.73,315.7694 276.5,330.6094 C290.64,354.5294 311,378.5294 327.09,395.8694 " fill="none" id="Announcement-Request" style="stroke:#181818;stroke-width:1.0;"/><polygon fill="#000000" points="284.2085,325.988,281.7791,316.793,276.8384,319.977,284.2085,325.988" style="stroke:#000000;stroke-width:1.0;"/><text fill="#000000" font-family="sans-serif" font-size="13" lengthAdjust="spacing" textLength="71" x="290.5" y="327.1045">is  based on</text><text fill="#000000" font-family="sans-serif" font-size="13" lengthAdjust="spacing" textLength="7" x="248.8574" y="304.0637">1</text><text fill="#000000" font-family="sans-serif" font-size="13" lengthAdjust="spacing" textLength="7" x="313.4046" y="385.3462">1</text></g><!--SRC=[VLJBRjim4BplLonyAL10GDgZ4HX8x00ju1P1t7u0HQqb8XAfaCksZfD_xugsNgdJayNb37TcbdHuDBPLNZNOEEjqvLr3o3uIX66dLVfHbRJZGqteIREoPJq5X4eLxhUn9UvL7GZWGqrxHdReJLan5gPZ6MTXGjAr2k66sPiyCdtLpkxCC-4LG6KAGcsybYRfko6kN140sB18sBX66OlVN44rPlXpTtNr6G3IWNXZhOjMKqEMyGZ8XvRMhcbC29q0L8riywJo2dYHwUafKk2DOWAbDRLYMrDQukkvsNYC4Dvqkj3epBhthYNF1r6dF2cGV48wV6tui9Rkv4Vm0mM9G3O5RMEJax-bmZlNX66jk3eN95d9jzp9n0XwaLzS31qxLo5v0pIsKhbXbTUqTNifX6Zl_hGkH3_IVeYTKMaXCagh-6HaH4paNOBSLuvTwLLR7I5wCzItJYVW4G9x8lwk6W8jzg7BmXlDij55_MpQjSnv8Dx6O2o5S8HMK6DzIwepARU8lTAyYNukvAOyJNLO_rAcxWAuUugcxM991hGtxOptSBe5y-im3M0KDAV3gUFYqmAp31SV5xFxjSGsvhK95GLSmJJgWI4_VMs99g32IGDqU-4DuMCMs-nbDH1WDfhJaO987qFvlLFJVUbF7D0m5vWSZTDTOfUylChEpXIPPHsy7_UxiD6nwOHDK7s-UFqYc3HcUECiYVbteBDZPezxqd3oFY_fEOyVbtYDbGhoSlREDyaBgjn5XXun8VMIKy2dU7CgC3-SHprOki2HJZtZVx97NT8YlUm2HT9A_WR_0W00]--></g></svg>