<?xml version="1.0" encoding="UTF-8" standalone="no"?><svg xmlns="http://www.w3.org/2000/svg" xmlns:xlink="http://www.w3.org/1999/xlink" contentStyleType="text/css" height="633px" preserveAspectRatio="none" style="width:1013px;height:633px;background:#FFFFFF;" version="1.1" viewBox="0 0 1013 633" width="1013px" zoomAndPan="magnify"><defs/><g><rect fill="#FFFFFF" height="473.25" style="stroke:#181818;stroke-width:1.0;" width="10" x="213" y="87.5703"/><rect fill="#FFFFFF" height="187.2734" style="stroke:#181818;stroke-width:1.0;" width="10" x="218" y="236.8438"/><rect fill="#FFFFFF" height="30.3516" style="stroke:#181818;stroke-width:1.0;" width="10" x="480" y="272.1953"/><rect fill="#FFFFFF" height="30" style="stroke:#181818;stroke-width:1.0;" width="10" x="872" y="486.4688"/><rect fill="none" height="428.8984" style="stroke:#000000;stroke-width:1.5;" width="913" x="94" y="102.5703"/><rect fill="none" height="336.3281" style="stroke:#000000;stroke-width:1.5;" width="893" x="104" y="188.1406"/><line style="stroke:#181818;stroke-width:0.5;stroke-dasharray:5.0,5.0;" x1="218" x2="218" y1="55.2188" y2="578.8203"/><line style="stroke:#181818;stroke-width:0.5;stroke-dasharray:5.0,5.0;" x1="485" x2="485" y1="55.2188" y2="578.8203"/><line style="stroke:#181818;stroke-width:0.5;stroke-dasharray:5.0,5.0;" x1="666" x2="666" y1="375.6563" y2="578.8203"/><line style="stroke:#181818;stroke-width:0.5;stroke-dasharray:5.0,5.0;" x1="877" x2="877" y1="161.0313" y2="578.8203"/><rect fill="#E3E3E3" height="49.2188" rx="2.5" ry="2.5" style="stroke:#181818;stroke-width:0.5;" width="208" x="114" y="5"/><text fill="#000000" font-family="sans-serif" font-size="14" lengthAdjust="spacing" textLength="185" x="125.5" y="26.5332">regressionModelTypeMapper</text><text fill="#000000" font-family="sans-serif" font-size="14" lengthAdjust="spacing" textLength="194" x="121" y="44.1426">:RegressionModelTypeMapper</text><rect fill="#E3E3E3" height="49.2188" rx="2.5" ry="2.5" style="stroke:#181818;stroke-width:0.5;" width="208" x="114" y="577.8203"/><text fill="#000000" font-family="sans-serif" font-size="14" lengthAdjust="spacing" textLength="185" x="125.5" y="599.3535">regressionModelTypeMapper</text><text fill="#000000" font-family="sans-serif" font-size="14" lengthAdjust="spacing" textLength="194" x="121" y="616.9629">:RegressionModelTypeMapper</text><rect fill="#E3E3E3" height="49.2188" rx="2.5" ry="2.5" style="stroke:#181818;stroke-width:0.5;" width="160" x="405" y="5"/><text fill="#000000" font-family="sans-serif" font-size="14" lengthAdjust="spacing" textLength="137" x="416.5" y="26.5332">regressionModelType</text><text fill="#000000" font-family="sans-serif" font-size="14" lengthAdjust="spacing" textLength="146" x="412" y="44.1426">:RegressionModelType</text><rect fill="#E3E3E3" height="49.2188" rx="2.5" ry="2.5" style="stroke:#181818;stroke-width:0.5;" width="160" x="405" y="577.8203"/><text fill="#000000" font-family="sans-serif" font-size="14" lengthAdjust="spacing" textLength="137" x="416.5" y="599.3535">regressionModelType</text><text fill="#000000" font-family="sans-serif" font-size="14" lengthAdjust="spacing" textLength="146" x="412" y="616.9629">:RegressionModelType</text><rect fill="#E3E3E3" height="49.2188" rx="2.5" ry="2.5" style="stroke:#181818;stroke-width:0.5;" width="182" x="575" y="577.8203"/><text fill="#000000" font-family="sans-serif" font-size="14" lengthAdjust="spacing" textLength="159" x="586.5" y="599.3535">regressionModelTypeDto</text><text fill="#000000" font-family="sans-serif" font-size="14" lengthAdjust="spacing" textLength="168" x="582" y="616.9629">:RegressionModelTypeDto</text><rect fill="#E3E3E3" height="49.2188" rx="2.5" ry="2.5" style="stroke:#181818;stroke-width:0.5;" width="220" x="767" y="577.8203"/><text fill="#000000" font-family="sans-serif" font-size="14" lengthAdjust="spacing" textLength="181" x="786.5" y="599.3535">regressionModelTypeDtoList</text><text fill="#000000" font-family="sans-serif" font-size="14" lengthAdjust="spacing" textLength="206" x="774" y="616.9629">:List&lt;RegressionModelTypeDto&gt;</text><rect fill="#FFFFFF" height="473.25" style="stroke:#181818;stroke-width:1.0;" width="10" x="213" y="87.5703"/><rect fill="#FFFFFF" height="187.2734" style="stroke:#181818;stroke-width:1.0;" width="10" x="218" y="236.8438"/><rect fill="#FFFFFF" height="30.3516" style="stroke:#181818;stroke-width:1.0;" width="10" x="480" y="272.1953"/><rect fill="#FFFFFF" height="30" style="stroke:#181818;stroke-width:1.0;" width="10" x="872" y="486.4688"/><polygon fill="#181818" points="201,83.5703,211,87.5703,201,91.5703,205,87.5703" style="stroke:#181818;stroke-width:1.0;"/><line style="stroke:#181818;stroke-width:1.0;" x1="0" x2="207" y1="87.5703" y2="87.5703"/><text fill="#000000" font-family="sans-serif" font-size="13" font-weight="bold" lengthAdjust="spacing" textLength="7" x="7" y="82.7139">1</text><text fill="#000000" font-family="sans-serif" font-size="13" lengthAdjust="spacing" textLength="183" x="18" y="82.7139">toDto(regressionModelTypeList)</text><path d="M94,102.5703 L373,102.5703 L373,110.9219 L363,120.9219 L94,120.9219 L94,102.5703 " fill="#EEEEEE" style="stroke:#000000;stroke-width:1.5;"/><rect fill="none" height="428.8984" style="stroke:#000000;stroke-width:1.5;" width="913" x="94" y="102.5703"/><text fill="#000000" font-family="sans-serif" font-size="13" font-weight="bold" lengthAdjust="spacing" textLength="234" x="109" y="117.0654">Convert RegressionModelType to Dto</text><polygon fill="#181818" points="755,139.2734,765,143.2734,755,147.2734,759,143.2734" style="stroke:#181818;stroke-width:1.0;"/><line style="stroke:#181818;stroke-width:1.0;" x1="223" x2="761" y1="143.2734" y2="143.2734"/><text fill="#000000" font-family="sans-serif" font-size="13" font-weight="bold" lengthAdjust="spacing" textLength="7" x="230" y="138.417">2</text><text fill="#000000" font-family="sans-serif" font-size="13" lengthAdjust="spacing" textLength="44" x="241" y="138.417">create()</text><rect fill="#E3E3E3" height="49.2188" rx="2.5" ry="2.5" style="stroke:#181818;stroke-width:0.5;" width="220" x="767" y="120.9219"/><text fill="#000000" font-family="sans-serif" font-size="14" lengthAdjust="spacing" textLength="181" x="786.5" y="142.4551">regressionModelTypeDtoList</text><text fill="#000000" font-family="sans-serif" font-size="14" lengthAdjust="spacing" textLength="206" x="774" y="160.0645">:List&lt;RegressionModelTypeDto&gt;</text><path d="M104,188.1406 L177,188.1406 L177,196.4922 L167,206.4922 L104,206.4922 L104,188.1406 " fill="#EEEEEE" style="stroke:#000000;stroke-width:1.5;"/><rect fill="none" height="336.3281" style="stroke:#000000;stroke-width:1.5;" width="893" x="104" y="188.1406"/><text fill="#000000" font-family="sans-serif" font-size="13" font-weight="bold" lengthAdjust="spacing" textLength="28" x="119" y="202.6357">loop</text><text fill="#000000" font-family="sans-serif" font-size="11" font-weight="bold" lengthAdjust="spacing" textLength="179" x="192" y="201.5596">[for each regressionModelType]</text><line style="stroke:#181818;stroke-width:1.0;" x1="223" x2="270" y1="223.8438" y2="223.8438"/><line style="stroke:#181818;stroke-width:1.0;" x1="270" x2="270" y1="223.8438" y2="236.8438"/><line style="stroke:#181818;stroke-width:1.0;" x1="229" x2="270" y1="236.8438" y2="236.8438"/><polygon fill="#181818" points="239,232.8438,229,236.8438,239,240.8438,235,236.8438" style="stroke:#181818;stroke-width:1.0;"/><text fill="#000000" font-family="sans-serif" font-size="13" font-weight="bold" lengthAdjust="spacing" textLength="7" x="235" y="218.9873">3</text><text fill="#000000" font-family="sans-serif" font-size="13" lengthAdjust="spacing" textLength="162" x="246" y="218.9873">toDto(regressionModelType)</text><polygon fill="#181818" points="468,268.1953,478,272.1953,468,276.1953,472,272.1953" style="stroke:#181818;stroke-width:1.0;"/><line style="stroke:#181818;stroke-width:1.0;" x1="228" x2="474" y1="272.1953" y2="272.1953"/><text fill="#000000" font-family="sans-serif" font-size="13" font-weight="bold" lengthAdjust="spacing" textLength="7" x="235" y="267.3389">4</text><text fill="#000000" font-family="sans-serif" font-size="13" lengthAdjust="spacing" textLength="222" x="246" y="267.3389">getRegressionModelTypeDesignation()</text><polygon fill="#181818" points="239,298.5469,229,302.5469,239,306.5469,235,302.5469" style="stroke:#181818;stroke-width:1.0;"/><line style="stroke:#181818;stroke-width:1.0;stroke-dasharray:2.0,2.0;" x1="233" x2="484" y1="302.5469" y2="302.5469"/><text fill="#000000" font-family="sans-serif" font-size="13" font-weight="bold" lengthAdjust="spacing" textLength="7" x="245" y="297.6904">5</text><text fill="#000000" font-family="sans-serif" font-size="13" lengthAdjust="spacing" textLength="191" x="256" y="297.6904">regressionModelTypeDesignation</text><polygon fill="#181818" points="563,353.8984,573,357.8984,563,361.8984,567,357.8984" style="stroke:#181818;stroke-width:1.0;"/><line style="stroke:#181818;stroke-width:1.0;" x1="228" x2="569" y1="357.8984" y2="357.8984"/><text fill="#000000" font-family="sans-serif" font-size="13" font-weight="bold" lengthAdjust="spacing" textLength="7" x="235" y="353.042">6</text><text fill="#000000" font-family="sans-serif" font-size="13" lengthAdjust="spacing" textLength="235" x="246" y="353.042">create(regressionModelTypeDesignation)</text><rect fill="#E3E3E3" height="49.2188" rx="2.5" ry="2.5" style="stroke:#181818;stroke-width:0.5;" width="182" x="575" y="335.5469"/><text fill="#000000" font-family="sans-serif" font-size="14" lengthAdjust="spacing" textLength="159" x="586.5" y="357.0801">regressionModelTypeDto</text><text fill="#000000" font-family="sans-serif" font-size="14" lengthAdjust="spacing" textLength="168" x="582" y="374.6895">:RegressionModelTypeDto</text><line style="stroke:#181818;stroke-width:1.0;stroke-dasharray:2.0,2.0;" x1="228" x2="270" y1="423.1172" y2="423.1172"/><line style="stroke:#181818;stroke-width:1.0;stroke-dasharray:2.0,2.0;" x1="270" x2="270" y1="423.1172" y2="436.1172"/><line style="stroke:#181818;stroke-width:1.0;stroke-dasharray:2.0,2.0;" x1="223" x2="270" y1="436.1172" y2="436.1172"/><polygon fill="#181818" points="233,432.1172,223,436.1172,233,440.1172,229,436.1172" style="stroke:#181818;stroke-width:1.0;"/><text fill="#000000" font-family="sans-serif" font-size="13" font-weight="bold" lengthAdjust="spacing" textLength="7" x="235" y="418.2607">7</text><text fill="#000000" font-family="sans-serif" font-size="13" lengthAdjust="spacing" textLength="143" x="246" y="418.2607">regressionModelTypeDto</text><polygon fill="#181818" points="860,482.4688,870,486.4688,860,490.4688,864,486.4688" style="stroke:#181818;stroke-width:1.0;"/><line style="stroke:#181818;stroke-width:1.0;" x1="223" x2="866" y1="486.4688" y2="486.4688"/><text fill="#000000" font-family="sans-serif" font-size="13" font-weight="bold" lengthAdjust="spacing" textLength="7" x="230" y="481.6123">8</text><text fill="#000000" font-family="sans-serif" font-size="13" lengthAdjust="spacing" textLength="172" x="241" y="481.6123">add(regressionModelTypeDto)</text><polygon fill="#181818" points="11,556.8203,1,560.8203,11,564.8203,7,560.8203" style="stroke:#181818;stroke-width:1.0;"/><line style="stroke:#181818;stroke-width:1.0;stroke-dasharray:2.0,2.0;" x1="5" x2="217" y1="560.8203" y2="560.8203"/><text fill="#000000" font-family="sans-serif" font-size="13" font-weight="bold" lengthAdjust="spacing" textLength="7" x="17" y="555.9639">9</text><text fill="#000000" font-family="sans-serif" font-size="13" lengthAdjust="spacing" textLength="164" x="28" y="555.9639">regressionModelTypeDtoList</text><!--SRC=[ZPBFRi8m3CRlUGgBKq7g2rI8otOS5-2uYzUQ4D76KP8o8V7mIrlAEXhQzP8_TdwsltxkhBH1YnLKh3a_MQu8lAr9k4V4O7v6INj_BGaivHwrB8S9xeG5VoijuOYb8o6mzgphweki42BaU9KhWzh3mfAqv9nYlUM2oiFLq1QD8Vkfizshs0BGmMvxw4wpm3YgXym-V_SS9uH03mdR_t0-bFE1rIphE70p83PfGI-HRdw7pS1p22KHVfE-510-pBsweAU1Hk5UMguDlB6-aFKGAH_Gq0pICXvFeIj_xsUrWWnoIu6UBBlCajd0aIqGvYU8D1O7tWyJ0qqDC-O5aYGVKvMSaXfzk4l6o0SCqgU-x2IgVLRG67MxtLu9E1HlcXwaVORyTK7SNv6cxfBDTDRysWomA98uUAnRxyznnM64TD7wGuXcrpgm6soTfhDYlwpGsq287m00]--></g></svg>