<?xml version="1.0" encoding="UTF-8" standalone="no"?><svg xmlns="http://www.w3.org/2000/svg" xmlns:xlink="http://www.w3.org/1999/xlink" contentStyleType="text/css" height="473px" preserveAspectRatio="none" style="width:835px;height:473px;background:#FFFFFF;" version="1.1" viewBox="0 0 835 473" width="835px" zoomAndPan="magnify"><defs/><g><rect fill="#FFFFFF" height="313.3828" style="stroke:#181818;stroke-width:1.0;" width="10" x="321" y="87.5703"/><rect fill="#FFFFFF" height="30.3516" style="stroke:#181818;stroke-width:1.0;" width="10" x="548" y="272.5469"/><rect fill="#FFFFFF" height="30.3516" style="stroke:#181818;stroke-width:1.0;" width="10" x="548" y="333.25"/><rect fill="none" height="269.0313" style="stroke:#000000;stroke-width:1.5;" width="546.5" x="282.5" y="102.5703"/><line style="stroke:#181818;stroke-width:0.5;stroke-dasharray:5.0,5.0;" x1="325.5" x2="325.5" y1="55.2188" y2="418.9531"/><line style="stroke:#181818;stroke-width:0.5;stroke-dasharray:5.0,5.0;" x1="553" x2="553" y1="161.0313" y2="418.9531"/><rect fill="#E3E3E3" height="49.2188" rx="2.5" ry="2.5" style="stroke:#181818;stroke-width:0.5;" width="67" x="292.5" y="5"/><text fill="#000000" font-family="sans-serif" font-size="14" lengthAdjust="spacing" textLength="47" x="302.5" y="26.5332">statistic</text><text fill="#000000" font-family="sans-serif" font-size="14" lengthAdjust="spacing" textLength="53" x="299.5" y="44.1426">:Statistic</text><rect fill="#E3E3E3" height="49.2188" rx="2.5" ry="2.5" style="stroke:#181818;stroke-width:0.5;" width="67" x="292.5" y="417.9531"/><text fill="#000000" font-family="sans-serif" font-size="14" lengthAdjust="spacing" textLength="47" x="302.5" y="439.4863">statistic</text><text fill="#000000" font-family="sans-serif" font-size="14" lengthAdjust="spacing" textLength="53" x="299.5" y="457.0957">:Statistic</text><rect fill="#E3E3E3" height="49.2188" rx="2.5" ry="2.5" style="stroke:#181818;stroke-width:0.5;" width="128" x="489" y="417.9531"/><text fill="#000000" font-family="sans-serif" font-size="14" lengthAdjust="spacing" textLength="71" x="517.5" y="439.4863">&lt;interface&gt;</text><text fill="#000000" font-family="sans-serif" font-size="14" lengthAdjust="spacing" textLength="114" x="496" y="457.0957">:RegressionModel</text><rect fill="#FFFFFF" height="313.3828" style="stroke:#181818;stroke-width:1.0;" width="10" x="321" y="87.5703"/><rect fill="#FFFFFF" height="30.3516" style="stroke:#181818;stroke-width:1.0;" width="10" x="548" y="272.5469"/><rect fill="#FFFFFF" height="30.3516" style="stroke:#181818;stroke-width:1.0;" width="10" x="548" y="333.25"/><polygon fill="#181818" points="309,83.5703,319,87.5703,309,91.5703,313,87.5703" style="stroke:#181818;stroke-width:1.0;"/><line style="stroke:#181818;stroke-width:1.0;" x1="0" x2="315" y1="87.5703" y2="87.5703"/><text fill="#000000" font-family="sans-serif" font-size="13" font-weight="bold" lengthAdjust="spacing" textLength="7" x="7" y="82.7139">1</text><text fill="#000000" font-family="sans-serif" font-size="13" lengthAdjust="spacing" textLength="291" x="18" y="82.7139">getStatistics(regressionModelType, dealsDataList)</text><path d="M282.5,102.5703 L409.5,102.5703 L409.5,110.9219 L399.5,120.9219 L282.5,120.9219 L282.5,102.5703 " fill="#EEEEEE" style="stroke:#000000;stroke-width:1.5;"/><rect fill="none" height="269.0313" style="stroke:#000000;stroke-width:1.5;" width="546.5" x="282.5" y="102.5703"/><text fill="#000000" font-family="sans-serif" font-size="13" font-weight="bold" lengthAdjust="spacing" textLength="82" x="297.5" y="117.0654">Get Statistics</text><polygon fill="#181818" points="477,139.2734,487,143.2734,477,147.2734,481,143.2734" style="stroke:#181818;stroke-width:1.0;"/><line style="stroke:#181818;stroke-width:1.0;" x1="331" x2="483" y1="143.2734" y2="143.2734"/><text fill="#000000" font-family="sans-serif" font-size="13" font-weight="bold" lengthAdjust="spacing" textLength="7" x="338" y="138.417">2</text><text fill="#000000" font-family="sans-serif" font-size="13" lengthAdjust="spacing" textLength="123" x="349" y="138.417">create(dealsDataList)</text><rect fill="#E3E3E3" height="49.2188" rx="2.5" ry="2.5" style="stroke:#181818;stroke-width:0.5;" width="128" x="489" y="120.9219"/><text fill="#000000" font-family="sans-serif" font-size="14" lengthAdjust="spacing" textLength="71" x="517.5" y="142.4551">&lt;interface&gt;</text><text fill="#000000" font-family="sans-serif" font-size="14" lengthAdjust="spacing" textLength="114" x="496" y="160.0645">:RegressionModel</text><path d="M558,186.1406 L558,245.1406 L819,245.1406 L819,196.1406 L809,186.1406 L558,186.1406 " fill="#FAFAFA" style="stroke:#181818;stroke-width:0.5;"/><path d="M809,186.1406 L809,196.1406 L819,196.1406 L809,186.1406 " fill="#FAFAFA" style="stroke:#181818;stroke-width:0.5;"/><text fill="#000000" font-family="sans-serif" font-size="13" lengthAdjust="spacing" textLength="214" x="564" y="204.6357">RegressionModel implementation will</text><text fill="#000000" font-family="sans-serif" font-size="13" lengthAdjust="spacing" textLength="240" x="564" y="220.9873">depend on the regression model specified</text><text fill="#000000" font-family="sans-serif" font-size="13" lengthAdjust="spacing" textLength="194" x="564" y="237.3389">in regressionModelType instance.</text><polygon fill="#181818" points="536,268.5469,546,272.5469,536,276.5469,540,272.5469" style="stroke:#181818;stroke-width:1.0;"/><line style="stroke:#181818;stroke-width:1.0;" x1="331" x2="542" y1="272.5469" y2="272.5469"/><text fill="#000000" font-family="sans-serif" font-size="13" font-weight="bold" lengthAdjust="spacing" textLength="7" x="338" y="267.6904">3</text><text fill="#000000" font-family="sans-serif" font-size="13" lengthAdjust="spacing" textLength="129" x="349" y="267.6904">getRegressionReport()</text><polygon fill="#181818" points="342,298.8984,332,302.8984,342,306.8984,338,302.8984" style="stroke:#181818;stroke-width:1.0;"/><line style="stroke:#181818;stroke-width:1.0;stroke-dasharray:2.0,2.0;" x1="336" x2="552" y1="302.8984" y2="302.8984"/><text fill="#000000" font-family="sans-serif" font-size="13" font-weight="bold" lengthAdjust="spacing" textLength="7" x="348" y="298.042">4</text><text fill="#000000" font-family="sans-serif" font-size="13" lengthAdjust="spacing" textLength="33" x="359" y="298.042">report</text><polygon fill="#181818" points="536,329.25,546,333.25,536,337.25,540,333.25" style="stroke:#181818;stroke-width:1.0;"/><line style="stroke:#181818;stroke-width:1.0;" x1="331" x2="542" y1="333.25" y2="333.25"/><text fill="#000000" font-family="sans-serif" font-size="13" font-weight="bold" lengthAdjust="spacing" textLength="7" x="338" y="328.3936">5</text><text fill="#000000" font-family="sans-serif" font-size="13" lengthAdjust="spacing" textLength="117" x="349" y="328.3936">getForecastValues()</text><polygon fill="#181818" points="342,359.6016,332,363.6016,342,367.6016,338,363.6016" style="stroke:#181818;stroke-width:1.0;"/><line style="stroke:#181818;stroke-width:1.0;stroke-dasharray:2.0,2.0;" x1="336" x2="552" y1="363.6016" y2="363.6016"/><text fill="#000000" font-family="sans-serif" font-size="13" font-weight="bold" lengthAdjust="spacing" textLength="7" x="348" y="358.7451">6</text><text fill="#000000" font-family="sans-serif" font-size="13" lengthAdjust="spacing" textLength="86" x="359" y="358.7451">forecastValues</text><polygon fill="#181818" points="11,396.9531,1,400.9531,11,404.9531,7,400.9531" style="stroke:#181818;stroke-width:1.0;"/><line style="stroke:#181818;stroke-width:1.0;stroke-dasharray:2.0,2.0;" x1="5" x2="325" y1="400.9531" y2="400.9531"/><text fill="#000000" font-family="sans-serif" font-size="13" font-weight="bold" lengthAdjust="spacing" textLength="7" x="17" y="396.0967">7</text><text fill="#000000" font-family="sans-serif" font-size="13" lengthAdjust="spacing" textLength="46" x="28" y="396.0967">statistic</text><!--SRC=[TLBDReCm3BxdAQoTkchi0L3LqxHTneLME-tY1GDH8OaIiwflFmS4NLcN4p7Vd-t4ax4U0_RGE-jq6rnFm64W5PS_7lK96phmfIC8f1bjq_q6n1OhTpQsWHgxI4efgRFHngDbU8YCRABSFsr-cByV02CSZhV8dR5CeKPDUy6Mr0IAqJXRk8gwaL4MegvmO6U7_ek2KW3PNeG0ScY85_su2RVquyNJ4rGa2L-GyLrGZq86GCtc6vbI6jK4DtWflX73LKkf4IakubKMssqEEf1mDYkz4PQETI8OJDDoYZnNLns1wNr7FTbav2oSJTSjs8eysGgap6qQ-yoKHILgzAHDRQXQ2CR2dPQbBFEtcfuNO99D-LPTJGEyHYp9ky2RrP3I0iPM2iYcmUTYcv1gIlq7EUkFygzE7X16_i1keFY_-AITGts3lsUHkXctDb5tMJQ5MbxTcYHh_W40]--></g></svg>