<?xml version="1.0" encoding="UTF-8" standalone="no"?><svg xmlns="http://www.w3.org/2000/svg" xmlns:xlink="http://www.w3.org/1999/xlink" contentStyleType="text/css" height="2340px" preserveAspectRatio="none" style="width:2288px;height:2340px;background:#FFFFFF;" version="1.1" viewBox="0 0 2288 2340" width="2288px" zoomAndPan="magnify"><defs/><g><text fill="#000000" font-family="sans-serif" font-size="14" font-weight="bold" lengthAdjust="spacing" textLength="155" x="1059.75" y="24.5332">Class Diagram - US018</text><!--class Agency--><g id="elem_Agency"><rect codeLine="15" fill="#F1F1F1" height="65.6094" id="Agency" rx="2.5" ry="2.5" style="stroke:#181818;stroke-width:0.5;" width="417" x="1658" y="553.1094"/><ellipse cx="1838.75" cy="569.1094" fill="#ADD1B2" rx="11" ry="11" style="stroke:#181818;stroke-width:1.0;"/><path d="M1841.5156,564.9844 Q1841.6719,564.7656 1841.8594,564.6563 Q1842.0469,564.5469 1842.2656,564.5469 Q1842.6406,564.5469 1842.875,564.8125 Q1843.1094,565.0625 1843.1094,565.6719 L1843.1094,567.125 Q1843.1094,567.7344 1842.875,568 Q1842.6406,568.2656 1842.2656,568.2656 Q1841.9219,568.2656 1841.7188,568.0625 Q1841.5156,567.875 1841.4063,567.3594 Q1841.3594,567 1841.1719,566.8125 Q1840.8438,566.4375 1840.2344,566.2188 Q1839.625,566 1839,566 Q1838.2344,566 1837.5938,566.3281 Q1836.9688,566.6563 1836.4688,567.4063 Q1835.9844,568.1563 1835.9844,569.1875 L1835.9844,570.2813 Q1835.9844,571.5156 1836.875,572.3438 Q1837.7656,573.1563 1839.3594,573.1563 Q1840.2969,573.1563 1840.9531,572.9063 Q1841.3438,572.75 1841.7656,572.3125 Q1842.0313,572.0469 1842.1719,571.9688 Q1842.3281,571.8906 1842.5313,571.8906 Q1842.8594,571.8906 1843.1094,572.1563 Q1843.375,572.4063 1843.375,572.75 Q1843.375,573.0938 1843.0313,573.5 Q1842.5313,574.0781 1841.7344,574.4063 Q1840.6563,574.8594 1839.3594,574.8594 Q1837.8438,574.8594 1836.6406,574.2344 Q1835.6563,573.7344 1834.9688,572.6719 Q1834.2813,571.5938 1834.2813,570.3125 L1834.2813,569.1563 Q1834.2813,567.8281 1834.8906,566.6875 Q1835.5156,565.5313 1836.6094,564.9219 Q1837.7031,564.2969 1838.9375,564.2969 Q1839.6719,564.2969 1840.3125,564.4688 Q1840.9688,564.625 1841.5156,564.9844 Z " fill="#000000"/><text fill="#000000" font-family="sans-serif" font-size="14" lengthAdjust="spacing" textLength="47" x="1859.25" y="574.8379">Agency</text><line style="stroke:#181818;stroke-width:0.5;" x1="1659" x2="2074" y1="585.1094" y2="585.1094"/><line style="stroke:#181818;stroke-width:0.5;" x1="1659" x2="2074" y1="593.1094" y2="593.1094"/><text fill="#000000" font-family="sans-serif" font-size="14" lengthAdjust="spacing" textLength="405" x="1664" y="611.6426">+getAnnouncementListDealData(regressionModelType,variable)</text></g><!--class AnnouncementList--><g id="elem_AnnouncementList"><rect codeLine="19" fill="#F1F1F1" height="83.2188" id="AnnouncementList" rx="2.5" ry="2.5" style="stroke:#181818;stroke-width:0.5;" width="307" x="1854" y="996.6094"/><ellipse cx="1944.75" cy="1012.6094" fill="#ADD1B2" rx="11" ry="11" style="stroke:#181818;stroke-width:1.0;"/><path d="M1947.5156,1008.4844 Q1947.6719,1008.2656 1947.8594,1008.1563 Q1948.0469,1008.0469 1948.2656,1008.0469 Q1948.6406,1008.0469 1948.875,1008.3125 Q1949.1094,1008.5625 1949.1094,1009.1719 L1949.1094,1010.625 Q1949.1094,1011.2344 1948.875,1011.5 Q1948.6406,1011.7656 1948.2656,1011.7656 Q1947.9219,1011.7656 1947.7188,1011.5625 Q1947.5156,1011.375 1947.4063,1010.8594 Q1947.3594,1010.5 1947.1719,1010.3125 Q1946.8438,1009.9375 1946.2344,1009.7188 Q1945.625,1009.5 1945,1009.5 Q1944.2344,1009.5 1943.5938,1009.8281 Q1942.9688,1010.1563 1942.4688,1010.9063 Q1941.9844,1011.6563 1941.9844,1012.6875 L1941.9844,1013.7813 Q1941.9844,1015.0156 1942.875,1015.8438 Q1943.7656,1016.6563 1945.3594,1016.6563 Q1946.2969,1016.6563 1946.9531,1016.4063 Q1947.3438,1016.25 1947.7656,1015.8125 Q1948.0313,1015.5469 1948.1719,1015.4688 Q1948.3281,1015.3906 1948.5313,1015.3906 Q1948.8594,1015.3906 1949.1094,1015.6563 Q1949.375,1015.9063 1949.375,1016.25 Q1949.375,1016.5938 1949.0313,1017 Q1948.5313,1017.5781 1947.7344,1017.9063 Q1946.6563,1018.3594 1945.3594,1018.3594 Q1943.8438,1018.3594 1942.6406,1017.7344 Q1941.6563,1017.2344 1940.9688,1016.1719 Q1940.2813,1015.0938 1940.2813,1013.8125 L1940.2813,1012.6563 Q1940.2813,1011.3281 1940.8906,1010.1875 Q1941.5156,1009.0313 1942.6094,1008.4219 Q1943.7031,1007.7969 1944.9375,1007.7969 Q1945.6719,1007.7969 1946.3125,1007.9688 Q1946.9688,1008.125 1947.5156,1008.4844 Z " fill="#000000"/><text fill="#000000" font-family="sans-serif" font-size="14" lengthAdjust="spacing" textLength="117" x="1965.25" y="1018.3379">AnnouncementList</text><line style="stroke:#181818;stroke-width:0.5;" x1="1855" x2="2160" y1="1028.6094" y2="1028.6094"/><text fill="#000000" font-family="sans-serif" font-size="14" lengthAdjust="spacing" textLength="138" x="1860" y="1047.1426">-List&lt;Announcement&gt;</text><line style="stroke:#181818;stroke-width:0.5;" x1="1855" x2="2160" y1="1054.2188" y2="1054.2188"/><text fill="#000000" font-family="sans-serif" font-size="14" lengthAdjust="spacing" textLength="295" x="1860" y="1072.752">+getDealsData(regressionModelType,variable)</text></g><!--class Announcement--><g id="elem_Announcement"><rect codeLine="24" fill="#F1F1F1" height="118.4375" id="Announcement" rx="2.5" ry="2.5" style="stroke:#181818;stroke-width:0.5;" width="369" x="1682" y="1563.1094"/><ellipse cx="1814.75" cy="1579.1094" fill="#ADD1B2" rx="11" ry="11" style="stroke:#181818;stroke-width:1.0;"/><path d="M1817.5156,1574.9844 Q1817.6719,1574.7656 1817.8594,1574.6563 Q1818.0469,1574.5469 1818.2656,1574.5469 Q1818.6406,1574.5469 1818.875,1574.8125 Q1819.1094,1575.0625 1819.1094,1575.6719 L1819.1094,1577.125 Q1819.1094,1577.7344 1818.875,1578 Q1818.6406,1578.2656 1818.2656,1578.2656 Q1817.9219,1578.2656 1817.7188,1578.0625 Q1817.5156,1577.875 1817.4063,1577.3594 Q1817.3594,1577 1817.1719,1576.8125 Q1816.8438,1576.4375 1816.2344,1576.2188 Q1815.625,1576 1815,1576 Q1814.2344,1576 1813.5938,1576.3281 Q1812.9688,1576.6563 1812.4688,1577.4063 Q1811.9844,1578.1563 1811.9844,1579.1875 L1811.9844,1580.2813 Q1811.9844,1581.5156 1812.875,1582.3438 Q1813.7656,1583.1563 1815.3594,1583.1563 Q1816.2969,1583.1563 1816.9531,1582.9063 Q1817.3438,1582.75 1817.7656,1582.3125 Q1818.0313,1582.0469 1818.1719,1581.9688 Q1818.3281,1581.8906 1818.5313,1581.8906 Q1818.8594,1581.8906 1819.1094,1582.1563 Q1819.375,1582.4063 1819.375,1582.75 Q1819.375,1583.0938 1819.0313,1583.5 Q1818.5313,1584.0781 1817.7344,1584.4063 Q1816.6563,1584.8594 1815.3594,1584.8594 Q1813.8438,1584.8594 1812.6406,1584.2344 Q1811.6563,1583.7344 1810.9688,1582.6719 Q1810.2813,1581.5938 1810.2813,1580.3125 L1810.2813,1579.1563 Q1810.2813,1577.8281 1810.8906,1576.6875 Q1811.5156,1575.5313 1812.6094,1574.9219 Q1813.7031,1574.2969 1814.9375,1574.2969 Q1815.6719,1574.2969 1816.3125,1574.4688 Q1816.9688,1574.625 1817.5156,1574.9844 Z " fill="#000000"/><text fill="#000000" font-family="sans-serif" font-size="14" lengthAdjust="spacing" textLength="95" x="1835.25" y="1584.8379">Announcement</text><line style="stroke:#181818;stroke-width:0.5;" x1="1683" x2="2050" y1="1595.1094" y2="1595.1094"/><line style="stroke:#181818;stroke-width:0.5;" x1="1683" x2="2050" y1="1603.1094" y2="1603.1094"/><text fill="#000000" font-family="sans-serif" font-size="14" lengthAdjust="spacing" textLength="54" x="1688" y="1621.6426">-isDeal()</text><text fill="#000000" font-family="sans-serif" font-size="14" lengthAdjust="spacing" textLength="111" x="1688" y="1639.252">-getSaleAmount()</text><text fill="#000000" font-family="sans-serif" font-size="14" lengthAdjust="spacing" textLength="121" x="1688" y="1656.8613">+validForAnalysis()</text><text fill="#000000" font-family="sans-serif" font-size="14" lengthAdjust="spacing" textLength="357" x="1688" y="1674.4707">+getDataForRegression(regressionModelType, variable)</text></g><!--class Request--><g id="elem_Request"><rect codeLine="32" fill="#F1F1F1" height="100.8281" id="Request" rx="2.5" ry="2.5" style="stroke:#181818;stroke-width:0.5;" width="279" x="1727" y="1909.6094"/><ellipse cx="1835.75" cy="1925.6094" fill="#ADD1B2" rx="11" ry="11" style="stroke:#181818;stroke-width:1.0;"/><path d="M1838.5156,1921.4844 Q1838.6719,1921.2656 1838.8594,1921.1563 Q1839.0469,1921.0469 1839.2656,1921.0469 Q1839.6406,1921.0469 1839.875,1921.3125 Q1840.1094,1921.5625 1840.1094,1922.1719 L1840.1094,1923.625 Q1840.1094,1924.2344 1839.875,1924.5 Q1839.6406,1924.7656 1839.2656,1924.7656 Q1838.9219,1924.7656 1838.7188,1924.5625 Q1838.5156,1924.375 1838.4063,1923.8594 Q1838.3594,1923.5 1838.1719,1923.3125 Q1837.8438,1922.9375 1837.2344,1922.7188 Q1836.625,1922.5 1836,1922.5 Q1835.2344,1922.5 1834.5938,1922.8281 Q1833.9688,1923.1563 1833.4688,1923.9063 Q1832.9844,1924.6563 1832.9844,1925.6875 L1832.9844,1926.7813 Q1832.9844,1928.0156 1833.875,1928.8438 Q1834.7656,1929.6563 1836.3594,1929.6563 Q1837.2969,1929.6563 1837.9531,1929.4063 Q1838.3438,1929.25 1838.7656,1928.8125 Q1839.0313,1928.5469 1839.1719,1928.4688 Q1839.3281,1928.3906 1839.5313,1928.3906 Q1839.8594,1928.3906 1840.1094,1928.6563 Q1840.375,1928.9063 1840.375,1929.25 Q1840.375,1929.5938 1840.0313,1930 Q1839.5313,1930.5781 1838.7344,1930.9063 Q1837.6563,1931.3594 1836.3594,1931.3594 Q1834.8438,1931.3594 1833.6406,1930.7344 Q1832.6563,1930.2344 1831.9688,1929.1719 Q1831.2813,1928.0938 1831.2813,1926.8125 L1831.2813,1925.6563 Q1831.2813,1924.3281 1831.8906,1923.1875 Q1832.5156,1922.0313 1833.6094,1921.4219 Q1834.7031,1920.7969 1835.9375,1920.7969 Q1836.6719,1920.7969 1837.3125,1920.9688 Q1837.9688,1921.125 1838.5156,1921.4844 Z " fill="#000000"/><text fill="#000000" font-family="sans-serif" font-size="14" lengthAdjust="spacing" textLength="53" x="1856.25" y="1931.3379">Request</text><line style="stroke:#181818;stroke-width:0.5;" x1="1728" x2="2005" y1="1941.6094" y2="1941.6094"/><line style="stroke:#181818;stroke-width:0.5;" x1="1728" x2="2005" y1="1949.6094" y2="1949.6094"/><text fill="#000000" font-family="sans-serif" font-size="14" lengthAdjust="spacing" textLength="133" x="1733" y="1968.1426">+getVariablesValue()</text><text fill="#000000" font-family="sans-serif" font-size="14" lengthAdjust="spacing" textLength="267" x="1733" y="1985.752">+getVariableValueByDesignation(variable)</text><text fill="#000000" font-family="sans-serif" font-size="14" lengthAdjust="spacing" textLength="123" x="1733" y="2003.3613">+isSaleResidence()</text></g><!--class Residence--><g id="elem_Residence"><rect codeLine="38" fill="#F1F1F1" height="118.4375" id="Residence" rx="2.5" ry="2.5" style="stroke:#181818;stroke-width:0.5;" width="167" x="1887" y="2071.6094"/><ellipse cx="1932.75" cy="2087.6094" fill="#ADD1B2" rx="11" ry="11" style="stroke:#181818;stroke-width:1.0;"/><path d="M1935.5156,2083.4844 Q1935.6719,2083.2656 1935.8594,2083.1563 Q1936.0469,2083.0469 1936.2656,2083.0469 Q1936.6406,2083.0469 1936.875,2083.3125 Q1937.1094,2083.5625 1937.1094,2084.1719 L1937.1094,2085.625 Q1937.1094,2086.2344 1936.875,2086.5 Q1936.6406,2086.7656 1936.2656,2086.7656 Q1935.9219,2086.7656 1935.7188,2086.5625 Q1935.5156,2086.375 1935.4063,2085.8594 Q1935.3594,2085.5 1935.1719,2085.3125 Q1934.8438,2084.9375 1934.2344,2084.7188 Q1933.625,2084.5 1933,2084.5 Q1932.2344,2084.5 1931.5938,2084.8281 Q1930.9688,2085.1563 1930.4688,2085.9063 Q1929.9844,2086.6563 1929.9844,2087.6875 L1929.9844,2088.7813 Q1929.9844,2090.0156 1930.875,2090.8438 Q1931.7656,2091.6563 1933.3594,2091.6563 Q1934.2969,2091.6563 1934.9531,2091.4063 Q1935.3438,2091.25 1935.7656,2090.8125 Q1936.0313,2090.5469 1936.1719,2090.4688 Q1936.3281,2090.3906 1936.5313,2090.3906 Q1936.8594,2090.3906 1937.1094,2090.6563 Q1937.375,2090.9063 1937.375,2091.25 Q1937.375,2091.5938 1937.0313,2092 Q1936.5313,2092.5781 1935.7344,2092.9063 Q1934.6563,2093.3594 1933.3594,2093.3594 Q1931.8438,2093.3594 1930.6406,2092.7344 Q1929.6563,2092.2344 1928.9688,2091.1719 Q1928.2813,2090.0938 1928.2813,2088.8125 L1928.2813,2087.6563 Q1928.2813,2086.3281 1928.8906,2085.1875 Q1929.5156,2084.0313 1930.6094,2083.4219 Q1931.7031,2082.7969 1932.9375,2082.7969 Q1933.6719,2082.7969 1934.3125,2082.9688 Q1934.9688,2083.125 1935.5156,2083.4844 Z " fill="#000000"/><text fill="#000000" font-family="sans-serif" font-size="14" lengthAdjust="spacing" textLength="67" x="1953.25" y="2093.3379">Residence</text><line style="stroke:#181818;stroke-width:0.5;" x1="1888" x2="2053" y1="2103.6094" y2="2103.6094"/><line style="stroke:#181818;stroke-width:0.5;" x1="1888" x2="2053" y1="2111.6094" y2="2111.6094"/><text fill="#000000" font-family="sans-serif" font-size="14" lengthAdjust="spacing" textLength="151" x="1893" y="2130.1426">+getNumberBedrooms()</text><text fill="#000000" font-family="sans-serif" font-size="14" lengthAdjust="spacing" textLength="155" x="1893" y="2147.752">+getNumberBathrooms()</text><text fill="#000000" font-family="sans-serif" font-size="14" lengthAdjust="spacing" textLength="126" x="1893" y="2165.3613">+getParkingSpace()</text><text fill="#000000" font-family="sans-serif" font-size="14" lengthAdjust="spacing" textLength="140" x="1893" y="2182.9707">+getVariable(variable)</text></g><!--class Property--><g id="elem_Property"><rect codeLine="44" fill="#F1F1F1" height="83.2188" id="Property" rx="2.5" ry="2.5" style="stroke:#181818;stroke-width:0.5;" width="192" x="1805.5" y="2250.6094"/><ellipse cx="1870.25" cy="2266.6094" fill="#ADD1B2" rx="11" ry="11" style="stroke:#181818;stroke-width:1.0;"/><path d="M1873.0156,2262.4844 Q1873.1719,2262.2656 1873.3594,2262.1563 Q1873.5469,2262.0469 1873.7656,2262.0469 Q1874.1406,2262.0469 1874.375,2262.3125 Q1874.6094,2262.5625 1874.6094,2263.1719 L1874.6094,2264.625 Q1874.6094,2265.2344 1874.375,2265.5 Q1874.1406,2265.7656 1873.7656,2265.7656 Q1873.4219,2265.7656 1873.2188,2265.5625 Q1873.0156,2265.375 1872.9063,2264.8594 Q1872.8594,2264.5 1872.6719,2264.3125 Q1872.3438,2263.9375 1871.7344,2263.7188 Q1871.125,2263.5 1870.5,2263.5 Q1869.7344,2263.5 1869.0938,2263.8281 Q1868.4688,2264.1563 1867.9688,2264.9063 Q1867.4844,2265.6563 1867.4844,2266.6875 L1867.4844,2267.7813 Q1867.4844,2269.0156 1868.375,2269.8438 Q1869.2656,2270.6563 1870.8594,2270.6563 Q1871.7969,2270.6563 1872.4531,2270.4063 Q1872.8438,2270.25 1873.2656,2269.8125 Q1873.5313,2269.5469 1873.6719,2269.4688 Q1873.8281,2269.3906 1874.0313,2269.3906 Q1874.3594,2269.3906 1874.6094,2269.6563 Q1874.875,2269.9063 1874.875,2270.25 Q1874.875,2270.5938 1874.5313,2271 Q1874.0313,2271.5781 1873.2344,2271.9063 Q1872.1563,2272.3594 1870.8594,2272.3594 Q1869.3438,2272.3594 1868.1406,2271.7344 Q1867.1563,2271.2344 1866.4688,2270.1719 Q1865.7813,2269.0938 1865.7813,2267.8125 L1865.7813,2266.6563 Q1865.7813,2265.3281 1866.3906,2264.1875 Q1867.0156,2263.0313 1868.1094,2262.4219 Q1869.2031,2261.7969 1870.4375,2261.7969 Q1871.1719,2261.7969 1871.8125,2261.9688 Q1872.4688,2262.125 1873.0156,2262.4844 Z " fill="#000000"/><text fill="#000000" font-family="sans-serif" font-size="14" lengthAdjust="spacing" textLength="54" x="1890.75" y="2272.3379">Property</text><line style="stroke:#181818;stroke-width:0.5;" x1="1806.5" x2="1996.5" y1="2282.6094" y2="2282.6094"/><line style="stroke:#181818;stroke-width:0.5;" x1="1806.5" x2="1996.5" y1="2290.6094" y2="2290.6094"/><text fill="#000000" font-family="sans-serif" font-size="14" font-weight="bold" lengthAdjust="spacing" textLength="77" x="1811.5" y="2309.1426">+ getArea()</text><text fill="#000000" font-family="sans-serif" font-size="14" font-weight="bold" lengthAdjust="spacing" textLength="180" x="1811.5" y="2326.752">+ getDistanceCityCenter()</text></g><!--class AgencyRepository--><g id="elem_AgencyRepository"><rect codeLine="49" fill="#F1F1F1" height="83.2188" id="AgencyRepository" rx="2.5" ry="2.5" style="stroke:#181818;stroke-width:0.5;" width="351" x="1225" y="303.6094"/><ellipse cx="1338.75" cy="319.6094" fill="#ADD1B2" rx="11" ry="11" style="stroke:#181818;stroke-width:1.0;"/><path d="M1341.5156,315.4844 Q1341.6719,315.2656 1341.8594,315.1563 Q1342.0469,315.0469 1342.2656,315.0469 Q1342.6406,315.0469 1342.875,315.3125 Q1343.1094,315.5625 1343.1094,316.1719 L1343.1094,317.625 Q1343.1094,318.2344 1342.875,318.5 Q1342.6406,318.7656 1342.2656,318.7656 Q1341.9219,318.7656 1341.7188,318.5625 Q1341.5156,318.375 1341.4063,317.8594 Q1341.3594,317.5 1341.1719,317.3125 Q1340.8438,316.9375 1340.2344,316.7188 Q1339.625,316.5 1339,316.5 Q1338.2344,316.5 1337.5938,316.8281 Q1336.9688,317.1563 1336.4688,317.9063 Q1335.9844,318.6563 1335.9844,319.6875 L1335.9844,320.7813 Q1335.9844,322.0156 1336.875,322.8438 Q1337.7656,323.6563 1339.3594,323.6563 Q1340.2969,323.6563 1340.9531,323.4063 Q1341.3438,323.25 1341.7656,322.8125 Q1342.0313,322.5469 1342.1719,322.4688 Q1342.3281,322.3906 1342.5313,322.3906 Q1342.8594,322.3906 1343.1094,322.6563 Q1343.375,322.9063 1343.375,323.25 Q1343.375,323.5938 1343.0313,324 Q1342.5313,324.5781 1341.7344,324.9063 Q1340.6563,325.3594 1339.3594,325.3594 Q1337.8438,325.3594 1336.6406,324.7344 Q1335.6563,324.2344 1334.9688,323.1719 Q1334.2813,322.0938 1334.2813,320.8125 L1334.2813,319.6563 Q1334.2813,318.3281 1334.8906,317.1875 Q1335.5156,316.0313 1336.6094,315.4219 Q1337.7031,314.7969 1338.9375,314.7969 Q1339.6719,314.7969 1340.3125,314.9688 Q1340.9688,315.125 1341.5156,315.4844 Z " fill="#000000"/><text fill="#000000" font-family="sans-serif" font-size="14" lengthAdjust="spacing" textLength="115" x="1359.25" y="325.3379">AgencyRepository</text><line style="stroke:#181818;stroke-width:0.5;" x1="1226" x2="1575" y1="335.6094" y2="335.6094"/><text fill="#000000" font-family="sans-serif" font-size="14" lengthAdjust="spacing" textLength="151" x="1231" y="354.1426">-List&lt;Agency&gt; agencies</text><line style="stroke:#181818;stroke-width:0.5;" x1="1226" x2="1575" y1="361.2188" y2="361.2188"/><text fill="#000000" font-family="sans-serif" font-size="14" lengthAdjust="spacing" textLength="339" x="1231" y="379.752">+getAgenciesDataList(regressionModelType,variable)</text></g><!--class RegressionModelTypeRepository--><g id="elem_RegressionModelTypeRepository"><rect codeLine="53" fill="#F1F1F1" height="83.2188" id="RegressionModelTypeRepository" rx="2.5" ry="2.5" style="stroke:#181818;stroke-width:0.5;" width="345" x="410" y="303.6094"/><ellipse cx="473.25" cy="319.6094" fill="#ADD1B2" rx="11" ry="11" style="stroke:#181818;stroke-width:1.0;"/><path d="M476.0156,315.4844 Q476.1719,315.2656 476.3594,315.1563 Q476.5469,315.0469 476.7656,315.0469 Q477.1406,315.0469 477.375,315.3125 Q477.6094,315.5625 477.6094,316.1719 L477.6094,317.625 Q477.6094,318.2344 477.375,318.5 Q477.1406,318.7656 476.7656,318.7656 Q476.4219,318.7656 476.2188,318.5625 Q476.0156,318.375 475.9063,317.8594 Q475.8594,317.5 475.6719,317.3125 Q475.3438,316.9375 474.7344,316.7188 Q474.125,316.5 473.5,316.5 Q472.7344,316.5 472.0938,316.8281 Q471.4688,317.1563 470.9688,317.9063 Q470.4844,318.6563 470.4844,319.6875 L470.4844,320.7813 Q470.4844,322.0156 471.375,322.8438 Q472.2656,323.6563 473.8594,323.6563 Q474.7969,323.6563 475.4531,323.4063 Q475.8438,323.25 476.2656,322.8125 Q476.5313,322.5469 476.6719,322.4688 Q476.8281,322.3906 477.0313,322.3906 Q477.3594,322.3906 477.6094,322.6563 Q477.875,322.9063 477.875,323.25 Q477.875,323.5938 477.5313,324 Q477.0313,324.5781 476.2344,324.9063 Q475.1563,325.3594 473.8594,325.3594 Q472.3438,325.3594 471.1406,324.7344 Q470.1563,324.2344 469.4688,323.1719 Q468.7813,322.0938 468.7813,320.8125 L468.7813,319.6563 Q468.7813,318.3281 469.3906,317.1875 Q470.0156,316.0313 471.1094,315.4219 Q472.2031,314.7969 473.4375,314.7969 Q474.1719,314.7969 474.8125,314.9688 Q475.4688,315.125 476.0156,315.4844 Z " fill="#000000"/><text fill="#000000" font-family="sans-serif" font-size="14" lengthAdjust="spacing" textLength="210" x="493.75" y="325.3379">RegressionModelTypeRepository</text><line style="stroke:#181818;stroke-width:0.5;" x1="411" x2="754" y1="335.6094" y2="335.6094"/><text fill="#000000" font-family="sans-serif" font-size="14" lengthAdjust="spacing" textLength="333" x="416" y="354.1426">-List&lt;RegressionModelType&gt; regressionModelTypes</text><line style="stroke:#181818;stroke-width:0.5;" x1="411" x2="754" y1="361.2188" y2="361.2188"/><text fill="#000000" font-family="sans-serif" font-size="14" lengthAdjust="spacing" textLength="202" x="416" y="379.752">+getRegressionModelTypeList()</text></g><!--class RegressionModelType--><g id="elem_RegressionModelType"><rect codeLine="58" fill="#F1F1F1" height="100.8281" id="RegressionModelType" rx="2.5" ry="2.5" style="stroke:#181818;stroke-width:0.5;" width="267" x="334" y="535.6094"/><ellipse cx="392.25" cy="551.6094" fill="#ADD1B2" rx="11" ry="11" style="stroke:#181818;stroke-width:1.0;"/><path d="M395.0156,547.4844 Q395.1719,547.2656 395.3594,547.1563 Q395.5469,547.0469 395.7656,547.0469 Q396.1406,547.0469 396.375,547.3125 Q396.6094,547.5625 396.6094,548.1719 L396.6094,549.625 Q396.6094,550.2344 396.375,550.5 Q396.1406,550.7656 395.7656,550.7656 Q395.4219,550.7656 395.2188,550.5625 Q395.0156,550.375 394.9063,549.8594 Q394.8594,549.5 394.6719,549.3125 Q394.3438,548.9375 393.7344,548.7188 Q393.125,548.5 392.5,548.5 Q391.7344,548.5 391.0938,548.8281 Q390.4688,549.1563 389.9688,549.9063 Q389.4844,550.6563 389.4844,551.6875 L389.4844,552.7813 Q389.4844,554.0156 390.375,554.8438 Q391.2656,555.6563 392.8594,555.6563 Q393.7969,555.6563 394.4531,555.4063 Q394.8438,555.25 395.2656,554.8125 Q395.5313,554.5469 395.6719,554.4688 Q395.8281,554.3906 396.0313,554.3906 Q396.3594,554.3906 396.6094,554.6563 Q396.875,554.9063 396.875,555.25 Q396.875,555.5938 396.5313,556 Q396.0313,556.5781 395.2344,556.9063 Q394.1563,557.3594 392.8594,557.3594 Q391.3438,557.3594 390.1406,556.7344 Q389.1563,556.2344 388.4688,555.1719 Q387.7813,554.0938 387.7813,552.8125 L387.7813,551.6563 Q387.7813,550.3281 388.3906,549.1875 Q389.0156,548.0313 390.1094,547.4219 Q391.2031,546.7969 392.4375,546.7969 Q393.1719,546.7969 393.8125,546.9688 Q394.4688,547.125 395.0156,547.4844 Z " fill="#000000"/><text fill="#000000" font-family="sans-serif" font-size="14" lengthAdjust="spacing" textLength="142" x="412.75" y="557.3379">RegressionModelType</text><line style="stroke:#181818;stroke-width:0.5;" x1="335" x2="600" y1="567.6094" y2="567.6094"/><text fill="#000000" font-family="sans-serif" font-size="14" lengthAdjust="spacing" textLength="119" x="340" y="586.1426">-String designation</text><line style="stroke:#181818;stroke-width:0.5;" x1="335" x2="600" y1="593.2188" y2="593.2188"/><text fill="#000000" font-family="sans-serif" font-size="14" lengthAdjust="spacing" textLength="233" x="340" y="611.752">+RegressionModelType(designation)</text><text fill="#000000" font-family="sans-serif" font-size="14" lengthAdjust="spacing" textLength="255" x="340" y="629.3613">+getRegressionModelTypeDesignation()</text></g><!--class RegressionModelTypeMapper--><g id="elem_RegressionModelTypeMapper"><rect codeLine="64" fill="#F1F1F1" height="100.8281" id="RegressionModelTypeMapper" rx="2.5" ry="2.5" style="stroke:#181818;stroke-width:0.5;" width="239" x="136" y="294.6094"/><ellipse cx="158.65" cy="310.6094" fill="#ADD1B2" rx="11" ry="11" style="stroke:#181818;stroke-width:1.0;"/><path d="M161.4156,306.4844 Q161.5719,306.2656 161.7594,306.1563 Q161.9469,306.0469 162.1656,306.0469 Q162.5406,306.0469 162.775,306.3125 Q163.0094,306.5625 163.0094,307.1719 L163.0094,308.625 Q163.0094,309.2344 162.775,309.5 Q162.5406,309.7656 162.1656,309.7656 Q161.8219,309.7656 161.6188,309.5625 Q161.4156,309.375 161.3063,308.8594 Q161.2594,308.5 161.0719,308.3125 Q160.7438,307.9375 160.1344,307.7188 Q159.525,307.5 158.9,307.5 Q158.1344,307.5 157.4938,307.8281 Q156.8688,308.1563 156.3688,308.9063 Q155.8844,309.6563 155.8844,310.6875 L155.8844,311.7813 Q155.8844,313.0156 156.775,313.8438 Q157.6656,314.6563 159.2594,314.6563 Q160.1969,314.6563 160.8531,314.4063 Q161.2438,314.25 161.6656,313.8125 Q161.9313,313.5469 162.0719,313.4688 Q162.2281,313.3906 162.4313,313.3906 Q162.7594,313.3906 163.0094,313.6563 Q163.275,313.9063 163.275,314.25 Q163.275,314.5938 162.9313,315 Q162.4313,315.5781 161.6344,315.9063 Q160.5563,316.3594 159.2594,316.3594 Q157.7438,316.3594 156.5406,315.7344 Q155.5563,315.2344 154.8688,314.1719 Q154.1813,313.0938 154.1813,311.8125 L154.1813,310.6563 Q154.1813,309.3281 154.7906,308.1875 Q155.4156,307.0313 156.5094,306.4219 Q157.6031,305.7969 158.8375,305.7969 Q159.5719,305.7969 160.2125,305.9688 Q160.8688,306.125 161.4156,306.4844 Z " fill="#000000"/><text fill="#000000" font-family="sans-serif" font-size="14" lengthAdjust="spacing" textLength="190" x="174.35" y="316.3379">RegressionModelTypeMapper</text><line style="stroke:#181818;stroke-width:0.5;" x1="137" x2="374" y1="326.6094" y2="326.6094"/><line style="stroke:#181818;stroke-width:0.5;" x1="137" x2="374" y1="334.6094" y2="334.6094"/><text fill="#000000" font-family="sans-serif" font-size="14" lengthAdjust="spacing" textLength="211" x="142" y="353.1426">+toDto(regressionModelTypeList)</text><text fill="#000000" font-family="sans-serif" font-size="14" lengthAdjust="spacing" textLength="186" x="142" y="370.752">-toDto(regressionModelType)</text><text fill="#000000" font-family="sans-serif" font-size="14" lengthAdjust="spacing" textLength="227" x="142" y="388.3613">+toModel(regressionModelTypeDto)</text></g><!--class RegressionModelTypeDto--><g id="elem_RegressionModelTypeDto"><rect codeLine="70" fill="#F1F1F1" height="83.2188" id="RegressionModelTypeDto" rx="2.5" ry="2.5" style="stroke:#181818;stroke-width:0.5;" width="267" x="7" y="544.6094"/><ellipse cx="54.25" cy="560.6094" fill="#ADD1B2" rx="11" ry="11" style="stroke:#181818;stroke-width:1.0;"/><path d="M57.0156,556.4844 Q57.1719,556.2656 57.3594,556.1563 Q57.5469,556.0469 57.7656,556.0469 Q58.1406,556.0469 58.375,556.3125 Q58.6094,556.5625 58.6094,557.1719 L58.6094,558.625 Q58.6094,559.2344 58.375,559.5 Q58.1406,559.7656 57.7656,559.7656 Q57.4219,559.7656 57.2188,559.5625 Q57.0156,559.375 56.9063,558.8594 Q56.8594,558.5 56.6719,558.3125 Q56.3438,557.9375 55.7344,557.7188 Q55.125,557.5 54.5,557.5 Q53.7344,557.5 53.0938,557.8281 Q52.4688,558.1563 51.9688,558.9063 Q51.4844,559.6563 51.4844,560.6875 L51.4844,561.7813 Q51.4844,563.0156 52.375,563.8438 Q53.2656,564.6563 54.8594,564.6563 Q55.7969,564.6563 56.4531,564.4063 Q56.8438,564.25 57.2656,563.8125 Q57.5313,563.5469 57.6719,563.4688 Q57.8281,563.3906 58.0313,563.3906 Q58.3594,563.3906 58.6094,563.6563 Q58.875,563.9063 58.875,564.25 Q58.875,564.5938 58.5313,565 Q58.0313,565.5781 57.2344,565.9063 Q56.1563,566.3594 54.8594,566.3594 Q53.3438,566.3594 52.1406,565.7344 Q51.1563,565.2344 50.4688,564.1719 Q49.7813,563.0938 49.7813,561.8125 L49.7813,560.6563 Q49.7813,559.3281 50.3906,558.1875 Q51.0156,557.0313 52.1094,556.4219 Q53.2031,555.7969 54.4375,555.7969 Q55.1719,555.7969 55.8125,555.9688 Q56.4688,556.125 57.0156,556.4844 Z " fill="#000000"/><text fill="#000000" font-family="sans-serif" font-size="14" lengthAdjust="spacing" textLength="164" x="74.75" y="566.3379">RegressionModelTypeDto</text><line style="stroke:#181818;stroke-width:0.5;" x1="8" x2="273" y1="576.6094" y2="576.6094"/><text fill="#000000" font-family="sans-serif" font-size="14" lengthAdjust="spacing" textLength="119" x="13" y="595.1426">-String designation</text><line style="stroke:#181818;stroke-width:0.5;" x1="8" x2="273" y1="602.2188" y2="602.2188"/><text fill="#000000" font-family="sans-serif" font-size="14" lengthAdjust="spacing" textLength="255" x="13" y="620.752">+getRegressionModelTypeDesignation()</text></g><!--class Statistic--><g id="elem_Statistic"><rect codeLine="75" fill="#F1F1F1" height="171.2656" id="Statistic" rx="2.5" ry="2.5" style="stroke:#181818;stroke-width:0.5;" width="333" x="790" y="259.6094"/><ellipse cx="927.75" cy="275.6094" fill="#ADD1B2" rx="11" ry="11" style="stroke:#181818;stroke-width:1.0;"/><path d="M930.5156,271.4844 Q930.6719,271.2656 930.8594,271.1563 Q931.0469,271.0469 931.2656,271.0469 Q931.6406,271.0469 931.875,271.3125 Q932.1094,271.5625 932.1094,272.1719 L932.1094,273.625 Q932.1094,274.2344 931.875,274.5 Q931.6406,274.7656 931.2656,274.7656 Q930.9219,274.7656 930.7188,274.5625 Q930.5156,274.375 930.4063,273.8594 Q930.3594,273.5 930.1719,273.3125 Q929.8438,272.9375 929.2344,272.7188 Q928.625,272.5 928,272.5 Q927.2344,272.5 926.5938,272.8281 Q925.9688,273.1563 925.4688,273.9063 Q924.9844,274.6563 924.9844,275.6875 L924.9844,276.7813 Q924.9844,278.0156 925.875,278.8438 Q926.7656,279.6563 928.3594,279.6563 Q929.2969,279.6563 929.9531,279.4063 Q930.3438,279.25 930.7656,278.8125 Q931.0313,278.5469 931.1719,278.4688 Q931.3281,278.3906 931.5313,278.3906 Q931.8594,278.3906 932.1094,278.6563 Q932.375,278.9063 932.375,279.25 Q932.375,279.5938 932.0313,280 Q931.5313,280.5781 930.7344,280.9063 Q929.6563,281.3594 928.3594,281.3594 Q926.8438,281.3594 925.6406,280.7344 Q924.6563,280.2344 923.9688,279.1719 Q923.2813,278.0938 923.2813,276.8125 L923.2813,275.6563 Q923.2813,274.3281 923.8906,273.1875 Q924.5156,272.0313 925.6094,271.4219 Q926.7031,270.7969 927.9375,270.7969 Q928.6719,270.7969 929.3125,270.9688 Q929.9688,271.125 930.5156,271.4844 Z " fill="#000000"/><text fill="#000000" font-family="sans-serif" font-size="14" lengthAdjust="spacing" textLength="49" x="948.25" y="281.3379">Statistic</text><line style="stroke:#181818;stroke-width:0.5;" x1="791" x2="1122" y1="291.6094" y2="291.6094"/><text fill="#000000" font-family="sans-serif" font-size="14" lengthAdjust="spacing" textLength="84" x="796" y="310.1426">-String report</text><text fill="#000000" font-family="sans-serif" font-size="14" lengthAdjust="spacing" textLength="216" x="796" y="327.752">-List&lt;List&lt;Double&gt;&gt; dealsDataList</text><text fill="#000000" font-family="sans-serif" font-size="14" lengthAdjust="spacing" textLength="186" x="796" y="345.3613">-List&lt;Double&gt; forecastValues</text><line style="stroke:#181818;stroke-width:0.5;" x1="791" x2="1122" y1="352.4375" y2="352.4375"/><text fill="#000000" font-family="sans-serif" font-size="14" lengthAdjust="spacing" textLength="81" x="796" y="370.9707">+getReport()</text><text fill="#000000" font-family="sans-serif" font-size="14" lengthAdjust="spacing" textLength="240" x="796" y="388.5801">+getRegressionModelForecastValue()</text><text fill="#000000" font-family="sans-serif" font-size="14" lengthAdjust="spacing" textLength="214" x="796" y="406.1895">+getRegressionModelDealsData()</text><text fill="#000000" font-family="sans-serif" font-size="14" lengthAdjust="spacing" textLength="321" x="796" y="423.7988">+getStatistics(regressionModelType,dealsDataList)</text></g><!--class Business--><g id="elem_Business"><rect codeLine="85" fill="#F1F1F1" height="65.6094" id="Business" rx="2.5" ry="2.5" style="stroke:#181818;stroke-width:0.5;" width="97" x="2105" y="1927.1094"/><ellipse cx="2123.6" cy="1943.1094" fill="#ADD1B2" rx="11" ry="11" style="stroke:#181818;stroke-width:1.0;"/><path d="M2126.3656,1938.9844 Q2126.5219,1938.7656 2126.7094,1938.6563 Q2126.8969,1938.5469 2127.1156,1938.5469 Q2127.4906,1938.5469 2127.725,1938.8125 Q2127.9594,1939.0625 2127.9594,1939.6719 L2127.9594,1941.125 Q2127.9594,1941.7344 2127.725,1942 Q2127.4906,1942.2656 2127.1156,1942.2656 Q2126.7719,1942.2656 2126.5688,1942.0625 Q2126.3656,1941.875 2126.2563,1941.3594 Q2126.2094,1941 2126.0219,1940.8125 Q2125.6938,1940.4375 2125.0844,1940.2188 Q2124.475,1940 2123.85,1940 Q2123.0844,1940 2122.4438,1940.3281 Q2121.8188,1940.6563 2121.3188,1941.4063 Q2120.8344,1942.1563 2120.8344,1943.1875 L2120.8344,1944.2813 Q2120.8344,1945.5156 2121.725,1946.3438 Q2122.6156,1947.1563 2124.2094,1947.1563 Q2125.1469,1947.1563 2125.8031,1946.9063 Q2126.1938,1946.75 2126.6156,1946.3125 Q2126.8813,1946.0469 2127.0219,1945.9688 Q2127.1781,1945.8906 2127.3813,1945.8906 Q2127.7094,1945.8906 2127.9594,1946.1563 Q2128.225,1946.4063 2128.225,1946.75 Q2128.225,1947.0938 2127.8813,1947.5 Q2127.3813,1948.0781 2126.5844,1948.4063 Q2125.5063,1948.8594 2124.2094,1948.8594 Q2122.6938,1948.8594 2121.4906,1948.2344 Q2120.5063,1947.7344 2119.8188,1946.6719 Q2119.1313,1945.5938 2119.1313,1944.3125 L2119.1313,1943.1563 Q2119.1313,1941.8281 2119.7406,1940.6875 Q2120.3656,1939.5313 2121.4594,1938.9219 Q2122.5531,1938.2969 2123.7875,1938.2969 Q2124.5219,1938.2969 2125.1625,1938.4688 Q2125.8188,1938.625 2126.3656,1938.9844 Z " fill="#000000"/><text fill="#000000" font-family="sans-serif" font-size="14" lengthAdjust="spacing" textLength="57" x="2138.4" y="1948.8379">Business</text><line style="stroke:#181818;stroke-width:0.5;" x1="2106" x2="2201" y1="1959.1094" y2="1959.1094"/><text fill="#000000" font-family="sans-serif" font-size="14" lengthAdjust="spacing" textLength="85" x="2111" y="1977.6426">-Double price</text><line style="stroke:#181818;stroke-width:0.5;" x1="2106" x2="2201" y1="1984.7188" y2="1984.7188"/></g><!--class BusinessType--><g id="elem_BusinessType"><rect codeLine="89" fill="#F1F1F1" height="83.2188" id="BusinessType" rx="2.5" ry="2.5" style="stroke:#181818;stroke-width:0.5;" width="192" x="2089.5" y="2089.1094"/><ellipse cx="2136.75" cy="2105.1094" fill="#ADD1B2" rx="11" ry="11" style="stroke:#181818;stroke-width:1.0;"/><path d="M2139.5156,2100.9844 Q2139.6719,2100.7656 2139.8594,2100.6563 Q2140.0469,2100.5469 2140.2656,2100.5469 Q2140.6406,2100.5469 2140.875,2100.8125 Q2141.1094,2101.0625 2141.1094,2101.6719 L2141.1094,2103.125 Q2141.1094,2103.7344 2140.875,2104 Q2140.6406,2104.2656 2140.2656,2104.2656 Q2139.9219,2104.2656 2139.7188,2104.0625 Q2139.5156,2103.875 2139.4063,2103.3594 Q2139.3594,2103 2139.1719,2102.8125 Q2138.8438,2102.4375 2138.2344,2102.2188 Q2137.625,2102 2137,2102 Q2136.2344,2102 2135.5938,2102.3281 Q2134.9688,2102.6563 2134.4688,2103.4063 Q2133.9844,2104.1563 2133.9844,2105.1875 L2133.9844,2106.2813 Q2133.9844,2107.5156 2134.875,2108.3438 Q2135.7656,2109.1563 2137.3594,2109.1563 Q2138.2969,2109.1563 2138.9531,2108.9063 Q2139.3438,2108.75 2139.7656,2108.3125 Q2140.0313,2108.0469 2140.1719,2107.9688 Q2140.3281,2107.8906 2140.5313,2107.8906 Q2140.8594,2107.8906 2141.1094,2108.1563 Q2141.375,2108.4063 2141.375,2108.75 Q2141.375,2109.0938 2141.0313,2109.5 Q2140.5313,2110.0781 2139.7344,2110.4063 Q2138.6563,2110.8594 2137.3594,2110.8594 Q2135.8438,2110.8594 2134.6406,2110.2344 Q2133.6563,2109.7344 2132.9688,2108.6719 Q2132.2813,2107.5938 2132.2813,2106.3125 L2132.2813,2105.1563 Q2132.2813,2103.8281 2132.8906,2102.6875 Q2133.5156,2101.5313 2134.6094,2100.9219 Q2135.7031,2100.2969 2136.9375,2100.2969 Q2137.6719,2100.2969 2138.3125,2100.4688 Q2138.9688,2100.625 2139.5156,2100.9844 Z " fill="#000000"/><text fill="#000000" font-family="sans-serif" font-size="14" lengthAdjust="spacing" textLength="89" x="2157.25" y="2110.8379">BusinessType</text><line style="stroke:#181818;stroke-width:0.5;" x1="2090.5" x2="2280.5" y1="2121.1094" y2="2121.1094"/><text fill="#000000" font-family="sans-serif" font-size="14" lengthAdjust="spacing" textLength="119" x="2095.5" y="2139.6426">-String designation</text><line style="stroke:#181818;stroke-width:0.5;" x1="2090.5" x2="2280.5" y1="2146.7188" y2="2146.7188"/><text fill="#000000" font-family="sans-serif" font-size="14" lengthAdjust="spacing" textLength="180" x="2095.5" y="2165.252">+BusinessType(designation)</text></g><!--class Repositories--><g id="elem_Repositories"><rect codeLine="95" fill="#F1F1F1" height="118.4375" id="Repositories" rx="2.5" ry="2.5" style="stroke:#181818;stroke-width:0.5;" width="260" x="1270.5" y="54.6094"/><ellipse cx="1356.75" cy="70.6094" fill="#ADD1B2" rx="11" ry="11" style="stroke:#181818;stroke-width:1.0;"/><path d="M1359.5156,66.4844 Q1359.6719,66.2656 1359.8594,66.1563 Q1360.0469,66.0469 1360.2656,66.0469 Q1360.6406,66.0469 1360.875,66.3125 Q1361.1094,66.5625 1361.1094,67.1719 L1361.1094,68.625 Q1361.1094,69.2344 1360.875,69.5 Q1360.6406,69.7656 1360.2656,69.7656 Q1359.9219,69.7656 1359.7188,69.5625 Q1359.5156,69.375 1359.4063,68.8594 Q1359.3594,68.5 1359.1719,68.3125 Q1358.8438,67.9375 1358.2344,67.7188 Q1357.625,67.5 1357,67.5 Q1356.2344,67.5 1355.5938,67.8281 Q1354.9688,68.1563 1354.4688,68.9063 Q1353.9844,69.6563 1353.9844,70.6875 L1353.9844,71.7813 Q1353.9844,73.0156 1354.875,73.8438 Q1355.7656,74.6563 1357.3594,74.6563 Q1358.2969,74.6563 1358.9531,74.4063 Q1359.3438,74.25 1359.7656,73.8125 Q1360.0313,73.5469 1360.1719,73.4688 Q1360.3281,73.3906 1360.5313,73.3906 Q1360.8594,73.3906 1361.1094,73.6563 Q1361.375,73.9063 1361.375,74.25 Q1361.375,74.5938 1361.0313,75 Q1360.5313,75.5781 1359.7344,75.9063 Q1358.6563,76.3594 1357.3594,76.3594 Q1355.8438,76.3594 1354.6406,75.7344 Q1353.6563,75.2344 1352.9688,74.1719 Q1352.2813,73.0938 1352.2813,71.8125 L1352.2813,70.6563 Q1352.2813,69.3281 1352.8906,68.1875 Q1353.5156,67.0313 1354.6094,66.4219 Q1355.7031,65.7969 1356.9375,65.7969 Q1357.6719,65.7969 1358.3125,65.9688 Q1358.9688,66.125 1359.5156,66.4844 Z " fill="#000000"/><text fill="#000000" font-family="sans-serif" font-size="14" lengthAdjust="spacing" textLength="79" x="1377.25" y="76.3379">Repositories</text><line style="stroke:#181818;stroke-width:0.5;" x1="1271.5" x2="1529.5" y1="86.6094" y2="86.6094"/><line style="stroke:#181818;stroke-width:0.5;" x1="1271.5" x2="1529.5" y1="94.6094" y2="94.6094"/><text fill="#000000" font-family="sans-serif" font-size="14" lengthAdjust="spacing" textLength="94" x="1276.5" y="113.1426">-Repositories()</text><text fill="#000000" font-family="sans-serif" font-size="14" lengthAdjust="spacing" textLength="177" x="1276.5" y="130.752">+getInstance() : repositories</text><text fill="#000000" font-family="sans-serif" font-size="14" lengthAdjust="spacing" textLength="153" x="1276.5" y="148.3613">+getAgencyRepository()</text><text fill="#000000" font-family="sans-serif" font-size="14" lengthAdjust="spacing" textLength="248" x="1276.5" y="165.9707">+getRegressionModelTypeRepository()</text></g><!--class AnalyzeDealsController--><g id="elem_AnalyzeDealsController"><rect codeLine="102" fill="#F1F1F1" height="136.0469" id="AnalyzeDealsController" rx="2.5" ry="2.5" style="stroke:#181818;stroke-width:0.5;" width="557" x="610" y="45.6094"/><ellipse cx="810.75" cy="61.6094" fill="#ADD1B2" rx="11" ry="11" style="stroke:#181818;stroke-width:1.0;"/><path d="M813.5156,57.4844 Q813.6719,57.2656 813.8594,57.1563 Q814.0469,57.0469 814.2656,57.0469 Q814.6406,57.0469 814.875,57.3125 Q815.1094,57.5625 815.1094,58.1719 L815.1094,59.625 Q815.1094,60.2344 814.875,60.5 Q814.6406,60.7656 814.2656,60.7656 Q813.9219,60.7656 813.7188,60.5625 Q813.5156,60.375 813.4063,59.8594 Q813.3594,59.5 813.1719,59.3125 Q812.8438,58.9375 812.2344,58.7188 Q811.625,58.5 811,58.5 Q810.2344,58.5 809.5938,58.8281 Q808.9688,59.1563 808.4688,59.9063 Q807.9844,60.6563 807.9844,61.6875 L807.9844,62.7813 Q807.9844,64.0156 808.875,64.8438 Q809.7656,65.6563 811.3594,65.6563 Q812.2969,65.6563 812.9531,65.4063 Q813.3438,65.25 813.7656,64.8125 Q814.0313,64.5469 814.1719,64.4688 Q814.3281,64.3906 814.5313,64.3906 Q814.8594,64.3906 815.1094,64.6563 Q815.375,64.9063 815.375,65.25 Q815.375,65.5938 815.0313,66 Q814.5313,66.5781 813.7344,66.9063 Q812.6563,67.3594 811.3594,67.3594 Q809.8438,67.3594 808.6406,66.7344 Q807.6563,66.2344 806.9688,65.1719 Q806.2813,64.0938 806.2813,62.8125 L806.2813,61.6563 Q806.2813,60.3281 806.8906,59.1875 Q807.5156,58.0313 808.6094,57.4219 Q809.7031,56.7969 810.9375,56.7969 Q811.6719,56.7969 812.3125,56.9688 Q812.9688,57.125 813.5156,57.4844 Z " fill="#000000"/><text fill="#000000" font-family="sans-serif" font-size="14" lengthAdjust="spacing" textLength="147" x="831.25" y="67.3379">AnalyzeDealsController</text><line style="stroke:#181818;stroke-width:0.5;" x1="611" x2="1166" y1="77.6094" y2="77.6094"/><line style="stroke:#181818;stroke-width:0.5;" x1="611" x2="1166" y1="85.6094" y2="85.6094"/><text fill="#000000" font-family="sans-serif" font-size="14" lengthAdjust="spacing" textLength="470" x="616" y="104.1426">+AnalyzeDealsController(organizationRepository, taskCategoryRepository)</text><text fill="#000000" font-family="sans-serif" font-size="14" lengthAdjust="spacing" textLength="202" x="616" y="121.752">+getRegressionModelTypeList()</text><text fill="#000000" font-family="sans-serif" font-size="14" lengthAdjust="spacing" textLength="545" x="616" y="139.3613">+getRegressionModelStatisticsAndForecastValues(regressionModelTypeDto, variable)</text><text fill="#000000" font-family="sans-serif" font-size="14" lengthAdjust="spacing" textLength="334" x="616" y="156.9707">-getDataForAnalysis(regressionModelType, variable)</text><text fill="#000000" font-family="sans-serif" font-size="14" lengthAdjust="spacing" textLength="432" x="616" y="174.5801">-getRegressionModelStatistics(regressionModelType, dealsDataList)</text></g><!--class AnalyzeDealsUI--><g id="elem_AnalyzeDealsUI"><rect codeLine="111" fill="#F1F1F1" height="48" id="AnalyzeDealsUI" rx="2.5" ry="2.5" style="stroke:#181818;stroke-width:0.5;" width="129" x="266" y="89.6094"/><ellipse cx="281" cy="105.6094" fill="#ADD1B2" rx="11" ry="11" style="stroke:#181818;stroke-width:1.0;"/><path d="M283.7656,101.4844 Q283.9219,101.2656 284.1094,101.1563 Q284.2969,101.0469 284.5156,101.0469 Q284.8906,101.0469 285.125,101.3125 Q285.3594,101.5625 285.3594,102.1719 L285.3594,103.625 Q285.3594,104.2344 285.125,104.5 Q284.8906,104.7656 284.5156,104.7656 Q284.1719,104.7656 283.9688,104.5625 Q283.7656,104.375 283.6563,103.8594 Q283.6094,103.5 283.4219,103.3125 Q283.0938,102.9375 282.4844,102.7188 Q281.875,102.5 281.25,102.5 Q280.4844,102.5 279.8438,102.8281 Q279.2188,103.1563 278.7188,103.9063 Q278.2344,104.6563 278.2344,105.6875 L278.2344,106.7813 Q278.2344,108.0156 279.125,108.8438 Q280.0156,109.6563 281.6094,109.6563 Q282.5469,109.6563 283.2031,109.4063 Q283.5938,109.25 284.0156,108.8125 Q284.2813,108.5469 284.4219,108.4688 Q284.5781,108.3906 284.7813,108.3906 Q285.1094,108.3906 285.3594,108.6563 Q285.625,108.9063 285.625,109.25 Q285.625,109.5938 285.2813,110 Q284.7813,110.5781 283.9844,110.9063 Q282.9063,111.3594 281.6094,111.3594 Q280.0938,111.3594 278.8906,110.7344 Q277.9063,110.2344 277.2188,109.1719 Q276.5313,108.0938 276.5313,106.8125 L276.5313,105.6563 Q276.5313,104.3281 277.1406,103.1875 Q277.7656,102.0313 278.8594,101.4219 Q279.9531,100.7969 281.1875,100.7969 Q281.9219,100.7969 282.5625,100.9688 Q283.2188,101.125 283.7656,101.4844 Z " fill="#000000"/><text fill="#000000" font-family="sans-serif" font-size="14" lengthAdjust="spacing" textLength="97" x="295" y="111.3379">AnalyzeDealsUI</text><line style="stroke:#181818;stroke-width:0.5;" x1="267" x2="394" y1="121.6094" y2="121.6094"/><line style="stroke:#181818;stroke-width:0.5;" x1="267" x2="394" y1="129.6094" y2="129.6094"/></g><!--class SimpleLinear--><g id="elem_SimpleLinear"><rect codeLine="114" fill="#F1F1F1" height="558.6719" id="SimpleLinear" rx="2.5" ry="2.5" style="stroke:#181818;stroke-width:0.5;" width="265" x="954" y="758.6094"/><ellipse cx="1041.25" cy="774.6094" fill="#ADD1B2" rx="11" ry="11" style="stroke:#181818;stroke-width:1.0;"/><path d="M1044.0156,770.4844 Q1044.1719,770.2656 1044.3594,770.1563 Q1044.5469,770.0469 1044.7656,770.0469 Q1045.1406,770.0469 1045.375,770.3125 Q1045.6094,770.5625 1045.6094,771.1719 L1045.6094,772.625 Q1045.6094,773.2344 1045.375,773.5 Q1045.1406,773.7656 1044.7656,773.7656 Q1044.4219,773.7656 1044.2188,773.5625 Q1044.0156,773.375 1043.9063,772.8594 Q1043.8594,772.5 1043.6719,772.3125 Q1043.3438,771.9375 1042.7344,771.7188 Q1042.125,771.5 1041.5,771.5 Q1040.7344,771.5 1040.0938,771.8281 Q1039.4688,772.1563 1038.9688,772.9063 Q1038.4844,773.6563 1038.4844,774.6875 L1038.4844,775.7813 Q1038.4844,777.0156 1039.375,777.8438 Q1040.2656,778.6563 1041.8594,778.6563 Q1042.7969,778.6563 1043.4531,778.4063 Q1043.8438,778.25 1044.2656,777.8125 Q1044.5313,777.5469 1044.6719,777.4688 Q1044.8281,777.3906 1045.0313,777.3906 Q1045.3594,777.3906 1045.6094,777.6563 Q1045.875,777.9063 1045.875,778.25 Q1045.875,778.5938 1045.5313,779 Q1045.0313,779.5781 1044.2344,779.9063 Q1043.1563,780.3594 1041.8594,780.3594 Q1040.3438,780.3594 1039.1406,779.7344 Q1038.1563,779.2344 1037.4688,778.1719 Q1036.7813,777.0938 1036.7813,775.8125 L1036.7813,774.6563 Q1036.7813,773.3281 1037.3906,772.1875 Q1038.0156,771.0313 1039.1094,770.4219 Q1040.2031,769.7969 1041.4375,769.7969 Q1042.1719,769.7969 1042.8125,769.9688 Q1043.4688,770.125 1044.0156,770.4844 Z " fill="#000000"/><text fill="#000000" font-family="sans-serif" font-size="14" lengthAdjust="spacing" textLength="82" x="1061.75" y="780.3379">SimpleLinear</text><line style="stroke:#181818;stroke-width:0.5;" x1="955" x2="1218" y1="790.6094" y2="790.6094"/><text fill="#000000" font-family="sans-serif" font-size="14" lengthAdjust="spacing" textLength="44" x="960" y="809.1426">-long n</text><text fill="#000000" font-family="sans-serif" font-size="14" lengthAdjust="spacing" textLength="107" x="960" y="826.752">-double intercept</text><text fill="#000000" font-family="sans-serif" font-size="14" lengthAdjust="spacing" textLength="86" x="960" y="844.3613">-double slope</text><text fill="#000000" font-family="sans-serif" font-size="14" lengthAdjust="spacing" textLength="103" x="960" y="861.9707">-double rSquare</text><text fill="#000000" font-family="sans-serif" font-size="14" lengthAdjust="spacing" textLength="57" x="960" y="879.5801">-double r</text><text fill="#000000" font-family="sans-serif" font-size="14" lengthAdjust="spacing" textLength="111" x="960" y="897.1895">-double xAverage</text><text fill="#000000" font-family="sans-serif" font-size="14" lengthAdjust="spacing" textLength="112" x="960" y="914.7988">-double yAverage</text><text fill="#000000" font-family="sans-serif" font-size="14" lengthAdjust="spacing" textLength="73" x="960" y="932.4082">-double Sxx</text><text fill="#000000" font-family="sans-serif" font-size="14" lengthAdjust="spacing" textLength="75" x="960" y="950.0176">-double Syy</text><text fill="#000000" font-family="sans-serif" font-size="14" lengthAdjust="spacing" textLength="74" x="960" y="967.627">-double Sxy</text><text fill="#000000" font-family="sans-serif" font-size="14" lengthAdjust="spacing" textLength="70" x="960" y="985.2363">-double SE</text><text fill="#000000" font-family="sans-serif" font-size="14" lengthAdjust="spacing" textLength="71" x="960" y="1002.8457">-double SR</text><text fill="#000000" font-family="sans-serif" font-size="14" lengthAdjust="spacing" textLength="70" x="960" y="1020.4551">-double ST</text><text fill="#000000" font-family="sans-serif" font-size="14" lengthAdjust="spacing" textLength="81" x="960" y="1038.0645">-double MSE</text><text fill="#000000" font-family="sans-serif" font-size="14" lengthAdjust="spacing" textLength="82" x="960" y="1055.6738">-double MSR</text><text fill="#000000" font-family="sans-serif" font-size="14" lengthAdjust="spacing" textLength="82" x="960" y="1073.2832">-double fObs</text><text fill="#000000" font-family="sans-serif" font-size="14" lengthAdjust="spacing" textLength="117" x="960" y="1090.8926">-double fSnedecor</text><text fill="#000000" font-family="sans-serif" font-size="14" lengthAdjust="spacing" textLength="153" x="960" y="1108.502">-long degreeOfFreedom</text><text fill="#000000" font-family="sans-serif" font-size="14" lengthAdjust="spacing" textLength="126" x="960" y="1126.1113">-double slopeStdErr</text><text fill="#000000" font-family="sans-serif" font-size="14" lengthAdjust="spacing" textLength="124" x="960" y="1143.7207">-double slopeLower</text><text fill="#000000" font-family="sans-serif" font-size="14" lengthAdjust="spacing" textLength="124" x="960" y="1161.3301">-double slopeUpper</text><text fill="#000000" font-family="sans-serif" font-size="14" lengthAdjust="spacing" textLength="147" x="960" y="1178.9395">-double interceptStdErr</text><text fill="#000000" font-family="sans-serif" font-size="14" lengthAdjust="spacing" textLength="145" x="960" y="1196.5488">-double interceptLower</text><text fill="#000000" font-family="sans-serif" font-size="14" lengthAdjust="spacing" textLength="145" x="960" y="1214.1582">-double interceptUpper</text><text fill="#000000" font-family="sans-serif" font-size="14" lengthAdjust="spacing" textLength="194" x="960" y="1231.7676">-List&lt;List&lt;Double&gt;&gt; dealsData</text><text fill="#000000" font-family="sans-serif" font-size="14" lengthAdjust="spacing" textLength="190" x="960" y="1249.377">-SimpleRegression regression</text><line style="stroke:#181818;stroke-width:0.5;" x1="955" x2="1218" y1="1256.4531" y2="1256.4531"/><text fill="#000000" font-family="sans-serif" font-size="14" lengthAdjust="spacing" textLength="253" x="960" y="1274.9863">+SimpleLinear(List&lt;List&lt;Double&gt;&gt; data)</text><text fill="#000000" font-family="sans-serif" font-size="14" lengthAdjust="spacing" textLength="146" x="960" y="1292.5957">-slopeHypothesisTest()</text><text fill="#000000" font-family="sans-serif" font-size="14" lengthAdjust="spacing" textLength="167" x="960" y="1310.2051">-interceptHypothesisTest()</text></g><!--class RegressionModel--><g id="elem_RegressionModel"><rect codeLine="171" fill="#F1F1F1" height="188.875" id="RegressionModel" rx="2.5" ry="2.5" style="stroke:#181818;stroke-width:0.5;" width="613" x="1010" y="491.6094"/><ellipse cx="1256.75" cy="507.6094" fill="#B4A7E5" rx="11" ry="11" style="stroke:#181818;stroke-width:1.0;"/><path d="M1257.7031,504.25 L1257.7031,510.9063 L1259.4219,510.9063 Q1260.0313,510.9063 1260.2969,511.1406 Q1260.5625,511.375 1260.5625,511.7656 Q1260.5625,512.1406 1260.2969,512.375 Q1260.0313,512.6094 1259.4219,512.6094 L1254.2813,512.6094 Q1253.6719,512.6094 1253.4063,512.375 Q1253.1406,512.1406 1253.1406,511.75 Q1253.1406,511.375 1253.4063,511.1406 Q1253.6719,510.9063 1254.2813,510.9063 L1256,510.9063 L1256,504.25 L1254.2813,504.25 Q1253.6719,504.25 1253.4063,504.0156 Q1253.1406,503.7813 1253.1406,503.3906 Q1253.1406,503.0156 1253.4063,502.7813 Q1253.6719,502.5469 1254.2813,502.5469 L1259.4219,502.5469 Q1260.0313,502.5469 1260.2969,502.7813 Q1260.5625,503.0156 1260.5625,503.3906 Q1260.5625,503.7813 1260.2969,504.0156 Q1260.0313,504.25 1259.4219,504.25 L1257.7031,504.25 Z " fill="#000000"/><text fill="#000000" font-family="sans-serif" font-size="14" font-style="italic" lengthAdjust="spacing" textLength="111" x="1277.25" y="513.3379">RegressionModel</text><line style="stroke:#181818;stroke-width:0.5;" x1="1011" x2="1622" y1="523.6094" y2="523.6094"/><line style="stroke:#181818;stroke-width:0.5;" x1="1011" x2="1622" y1="531.6094" y2="531.6094"/><text fill="#000000" font-family="sans-serif" font-size="14" lengthAdjust="spacing" textLength="153" x="1016" y="550.1426">+getRegressionReport()</text><text fill="#000000" font-family="sans-serif" font-size="14" lengthAdjust="spacing" textLength="332" x="1016" y="567.752">+getHypothesisTestDecision(double tObs, double tc)</text><text fill="#000000" font-family="sans-serif" font-size="14" lengthAdjust="spacing" textLength="304" x="1016" y="585.3613">+tStudent(double alpha, int degreesOfFreedom)</text><text fill="#000000" font-family="sans-serif" font-size="14" lengthAdjust="spacing" textLength="601" x="1016" y="602.9707">+fSnedecor(double alpha, int numeratorDegreeOfFreedom, int denominatorDegreeOfFreedom)</text><text fill="#000000" font-family="sans-serif" font-size="14" lengthAdjust="spacing" textLength="72" x="1016" y="620.5801">+addData()</text><text fill="#000000" font-family="sans-serif" font-size="14" lengthAdjust="spacing" textLength="137" x="1016" y="638.1895">+getForecastValues()</text><text fill="#000000" font-family="sans-serif" font-size="14" lengthAdjust="spacing" textLength="186" x="1016" y="655.7988">+calculateVariablesAverage()</text><text fill="#000000" font-family="sans-serif" font-size="14" lengthAdjust="spacing" textLength="171" x="1016" y="673.4082">+compareAnovaSigModel()</text></g><!--class Multilinear--><g id="elem_Multilinear"><rect codeLine="145" fill="#F1F1F1" height="453.0156" id="Multilinear" rx="2.5" ry="2.5" style="stroke:#181818;stroke-width:0.5;" width="276" x="948.5" y="1395.6094"/><ellipse cx="1050.25" cy="1411.6094" fill="#ADD1B2" rx="11" ry="11" style="stroke:#181818;stroke-width:1.0;"/><path d="M1053.0156,1407.4844 Q1053.1719,1407.2656 1053.3594,1407.1563 Q1053.5469,1407.0469 1053.7656,1407.0469 Q1054.1406,1407.0469 1054.375,1407.3125 Q1054.6094,1407.5625 1054.6094,1408.1719 L1054.6094,1409.625 Q1054.6094,1410.2344 1054.375,1410.5 Q1054.1406,1410.7656 1053.7656,1410.7656 Q1053.4219,1410.7656 1053.2188,1410.5625 Q1053.0156,1410.375 1052.9063,1409.8594 Q1052.8594,1409.5 1052.6719,1409.3125 Q1052.3438,1408.9375 1051.7344,1408.7188 Q1051.125,1408.5 1050.5,1408.5 Q1049.7344,1408.5 1049.0938,1408.8281 Q1048.4688,1409.1563 1047.9688,1409.9063 Q1047.4844,1410.6563 1047.4844,1411.6875 L1047.4844,1412.7813 Q1047.4844,1414.0156 1048.375,1414.8438 Q1049.2656,1415.6563 1050.8594,1415.6563 Q1051.7969,1415.6563 1052.4531,1415.4063 Q1052.8438,1415.25 1053.2656,1414.8125 Q1053.5313,1414.5469 1053.6719,1414.4688 Q1053.8281,1414.3906 1054.0313,1414.3906 Q1054.3594,1414.3906 1054.6094,1414.6563 Q1054.875,1414.9063 1054.875,1415.25 Q1054.875,1415.5938 1054.5313,1416 Q1054.0313,1416.5781 1053.2344,1416.9063 Q1052.1563,1417.3594 1050.8594,1417.3594 Q1049.3438,1417.3594 1048.1406,1416.7344 Q1047.1563,1416.2344 1046.4688,1415.1719 Q1045.7813,1414.0938 1045.7813,1412.8125 L1045.7813,1411.6563 Q1045.7813,1410.3281 1046.3906,1409.1875 Q1047.0156,1408.0313 1048.1094,1407.4219 Q1049.2031,1406.7969 1050.4375,1406.7969 Q1051.1719,1406.7969 1051.8125,1406.9688 Q1052.4688,1407.125 1053.0156,1407.4844 Z " fill="#000000"/><text fill="#000000" font-family="sans-serif" font-size="14" lengthAdjust="spacing" textLength="64" x="1070.75" y="1417.3379">Multilinear</text><line style="stroke:#181818;stroke-width:0.5;" x1="949.5" x2="1223.5" y1="1427.6094" y2="1427.6094"/><text fill="#000000" font-family="sans-serif" font-size="14" lengthAdjust="spacing" textLength="44" x="954.5" y="1446.1426">-long n</text><text fill="#000000" font-family="sans-serif" font-size="14" lengthAdjust="spacing" textLength="43" x="954.5" y="1463.752">-long k</text><text fill="#000000" font-family="sans-serif" font-size="14" lengthAdjust="spacing" textLength="112" x="954.5" y="1481.3613">-double yAverage</text><text fill="#000000" font-family="sans-serif" font-size="14" lengthAdjust="spacing" textLength="119" x="954.5" y="1498.9707">-double[] xAverage</text><text fill="#000000" font-family="sans-serif" font-size="14" lengthAdjust="spacing" textLength="106" x="954.5" y="1516.5801">-double[] matrixY</text><text fill="#000000" font-family="sans-serif" font-size="14" lengthAdjust="spacing" textLength="113" x="954.5" y="1534.1895">-double[][] matrixX</text><text fill="#000000" font-family="sans-serif" font-size="14" lengthAdjust="spacing" textLength="88" x="954.5" y="1551.7988">-double[] beta</text><text fill="#000000" font-family="sans-serif" font-size="14" lengthAdjust="spacing" textLength="70" x="954.5" y="1569.4082">-double SE</text><text fill="#000000" font-family="sans-serif" font-size="14" lengthAdjust="spacing" textLength="71" x="954.5" y="1587.0176">-double SR</text><text fill="#000000" font-family="sans-serif" font-size="14" lengthAdjust="spacing" textLength="70" x="954.5" y="1604.627">-double ST</text><text fill="#000000" font-family="sans-serif" font-size="14" lengthAdjust="spacing" textLength="103" x="954.5" y="1622.2363">-double rSquare</text><text fill="#000000" font-family="sans-serif" font-size="14" lengthAdjust="spacing" textLength="158" x="954.5" y="1639.8457">-double rSquareAdjusted</text><text fill="#000000" font-family="sans-serif" font-size="14" lengthAdjust="spacing" textLength="83" x="954.5" y="1657.4551">-double MQE</text><text fill="#000000" font-family="sans-serif" font-size="14" lengthAdjust="spacing" textLength="84" x="954.5" y="1675.0645">-double MQR</text><text fill="#000000" font-family="sans-serif" font-size="14" lengthAdjust="spacing" textLength="82" x="954.5" y="1692.6738">-double fObs</text><text fill="#000000" font-family="sans-serif" font-size="14" lengthAdjust="spacing" textLength="117" x="954.5" y="1710.2832">-double fSnedecor</text><text fill="#000000" font-family="sans-serif" font-size="14" lengthAdjust="spacing" textLength="172" x="954.5" y="1727.8926">-double[] parametersStdErr</text><text fill="#000000" font-family="sans-serif" font-size="14" lengthAdjust="spacing" textLength="194" x="954.5" y="1745.502">-List&lt;List&lt;Double&gt;&gt; dealsData</text><text fill="#000000" font-family="sans-serif" font-size="14" lengthAdjust="spacing" textLength="264" x="954.5" y="1763.1113">-OLSMultipleLinearRegression regression</text><line style="stroke:#181818;stroke-width:0.5;" x1="949.5" x2="1223.5" y1="1770.1875" y2="1770.1875"/><text fill="#000000" font-family="sans-serif" font-size="14" lengthAdjust="spacing" textLength="235" x="954.5" y="1788.7207">+Multilinear(List&lt;List&lt;Double&gt;&gt; data)</text><text fill="#000000" font-family="sans-serif" font-size="14" lengthAdjust="spacing" textLength="190" x="954.5" y="1806.3301">-calculateAdjustedRSquared()</text><text fill="#000000" font-family="sans-serif" font-size="14" lengthAdjust="spacing" textLength="139" x="954.5" y="1823.9395">-getHypothesisTests()</text><text fill="#000000" font-family="sans-serif" font-size="14" lengthAdjust="spacing" textLength="160" x="954.5" y="1841.5488">-getConfidenceIntervals()</text></g><!--reverse link RegressionModel to SimpleLinear--><g id="link_RegressionModel_SimpleLinear"><path d="M1259.6,698.4394 C1247.06,722.9694 1233.28,749.9294 1219.14,777.6094 " fill="none" id="RegressionModel-backto-SimpleLinear" style="stroke:#181818;stroke-width:1.0;stroke-dasharray:7.0,7.0;"/><polygon fill="none" points="1253.37,695.2494,1268.7,680.6194,1265.83,701.6194,1253.37,695.2494" style="stroke:#181818;stroke-width:1.0;"/></g><!--reverse link RegressionModel to Multilinear--><g id="link_RegressionModel_Multilinear"><path d="M1304.04,700.8394 C1281.56,906.1594 1236.5,1317.6094 1236.5,1317.6094 C1236.5,1317.6094 1220.06,1350.8694 1198.07,1395.3694 " fill="none" id="RegressionModel-backto-Multilinear" style="stroke:#181818;stroke-width:1.0;stroke-dasharray:7.0,7.0;"/><polygon fill="none" points="1297.11,699.8594,1306.25,680.7394,1311.03,701.3894,1297.11,699.8594" style="stroke:#181818;stroke-width:1.0;"/></g><!--link Repositories to Repositories--><g id="link_Repositories_Repositories"><path codeLine="184" d="M1530.54,95.3094 C1551.29,97.9894 1565.5,104.0894 1565.5,113.6094 C1565.5,122.3194 1553.63,128.1594 1535.74,131.1494 " fill="none" id="Repositories-to-Repositories" style="stroke:#181818;stroke-width:1.0;"/><polygon fill="#181818" points="1530.54,131.9094,1540.026,134.5582,1535.4869,131.1823,1538.8627,126.6432,1530.54,131.9094" style="stroke:#181818;stroke-width:1.0;"/><text fill="#000000" font-family="sans-serif" font-size="13" lengthAdjust="spacing" textLength="49" x="1571.5" y="119.1045">instance</text></g><!--link AnalyzeDealsUI to AnalyzeDealsController--><g id="link_AnalyzeDealsUI_AnalyzeDealsController"><path codeLine="186" d="M395.03,113.6094 C448.75,113.6094 516.5,113.6094 516.5,113.6094 C516.5,113.6094 559.78,113.6094 604.59,113.6094 " fill="none" id="AnalyzeDealsUI-to-AnalyzeDealsController" style="stroke:#181818;stroke-width:1.0;stroke-dasharray:7.0,7.0;"/><polygon fill="#181818" points="609.77,113.6094,600.77,109.6094,604.77,113.6094,600.77,117.6094,609.77,113.6094" style="stroke:#181818;stroke-width:1.0;"/></g><!--link AnalyzeDealsUI to RegressionModelTypeDto--><g id="link_AnalyzeDealsUI_RegressionModelTypeDto"><path codeLine="187" d="M296.44,137.9094 C236.51,178.8894 118.5,259.6094 118.5,259.6094 C118.5,259.6094 118.5,430.6094 118.5,430.6094 C118.5,430.6094 127.49,493.7794 133.98,539.3294 " fill="none" id="AnalyzeDealsUI-to-RegressionModelTypeDto" style="stroke:#181818;stroke-width:1.0;stroke-dasharray:7.0,7.0;"/><polygon fill="#181818" points="134.72,544.5194,137.4223,535.0485,134.0209,539.5685,129.5009,536.1671,134.72,544.5194" style="stroke:#181818;stroke-width:1.0;"/></g><!--link RegressionModelTypeMapper to RegressionModelTypeDto--><g id="link_RegressionModelTypeMapper_RegressionModelTypeDto"><path codeLine="189" d="M231.67,395.6294 C211.27,438.0194 182.15,498.5594 162.34,539.7094 " fill="none" id="RegressionModelTypeMapper-to-RegressionModelTypeDto" style="stroke:#181818;stroke-width:1.0;stroke-dasharray:7.0,7.0;"/><polygon fill="#181818" points="160.1,544.3794,167.6138,538.0121,162.2729,539.8762,160.4088,534.5354,160.1,544.3794" style="stroke:#181818;stroke-width:1.0;"/></g><!--link RegressionModelTypeMapper to RegressionModelType--><g id="link_RegressionModelTypeMapper_RegressionModelType"><path codeLine="190" d="M299.43,395.6294 C334.56,435.2294 383.73,490.6694 419.82,531.3494 " fill="none" id="RegressionModelTypeMapper-to-RegressionModelType" style="stroke:#181818;stroke-width:1.0;stroke-dasharray:7.0,7.0;"/><polygon fill="#181818" points="423.27,535.2394,420.2982,525.8496,419.9553,531.496,414.3088,531.1531,423.27,535.2394" style="stroke:#181818;stroke-width:1.0;"/></g><!--link AnalyzeDealsController to Repositories--><g id="link_AnalyzeDealsController_Repositories"><path codeLine="192" d="M1167.35,113.6094 C1201.23,113.6094 1234.58,113.6094 1264.98,113.6094 " fill="none" id="AnalyzeDealsController-to-Repositories" style="stroke:#181818;stroke-width:1.0;stroke-dasharray:7.0,7.0;"/><polygon fill="#181818" points="1270.23,113.6094,1261.23,109.6094,1265.23,113.6094,1261.23,117.6094,1270.23,113.6094" style="stroke:#181818;stroke-width:1.0;"/><text fill="#000000" font-family="sans-serif" font-size="13" lengthAdjust="spacing" textLength="67" x="1185.25" y="107.1045">repositories</text></g><!--link Repositories to AgencyRepository--><g id="link_Repositories_AgencyRepository"><path codeLine="194" d="M1400.5,172.8194 C1400.5,211.6794 1400.5,262.0694 1400.5,298.1094 " fill="none" id="Repositories-to-AgencyRepository" style="stroke:#181818;stroke-width:1.0;"/><polygon fill="#181818" points="1400.5,303.3294,1404.5,294.3294,1400.5,298.3294,1396.5,294.3294,1400.5,303.3294" style="stroke:#181818;stroke-width:1.0;"/><text fill="#000000" font-family="sans-serif" font-size="13" lengthAdjust="spacing" textLength="7" x="1392.9422" y="292.9014">1</text></g><!--link AnalyzeDealsController to AgencyRepository--><g id="link_AnalyzeDealsController_AgencyRepository"><path codeLine="196" d="M1038.31,181.7594 C1124.51,220.3994 1230.24,267.7894 1305.15,301.3694 " fill="none" id="AnalyzeDealsController-to-AgencyRepository" style="stroke:#181818;stroke-width:1.0;stroke-dasharray:7.0,7.0;"/><polygon fill="#181818" points="1310.04,303.5594,1303.4828,296.2107,1305.4828,301.5022,1300.1913,303.5022,1310.04,303.5594" style="stroke:#181818;stroke-width:1.0;"/><text fill="#000000" font-family="sans-serif" font-size="13" lengthAdjust="spacing" textLength="106" x="1145.5" y="226.1045">AgencyRepository</text></g><!--link AnalyzeDealsController to RegressionModelTypeRepository--><g id="link_AnalyzeDealsController_RegressionModelTypeRepository"><path codeLine="197" d="M770.89,181.7194 C741.67,198.3894 718.5,211.6094 718.5,211.6094 C718.5,211.6094 667.7,261.0994 628.2,299.5894 " fill="none" id="AnalyzeDealsController-to-RegressionModelTypeRepository" style="stroke:#181818;stroke-width:1.0;stroke-dasharray:7.0,7.0;"/><polygon fill="#181818" points="624.41,303.2694,633.6445,299.8453,627.988,299.7769,628.0565,294.1204,624.41,303.2694" style="stroke:#181818;stroke-width:1.0;"/><text fill="#000000" font-family="sans-serif" font-size="13" lengthAdjust="spacing" textLength="190" x="719.5" y="226.1045">RegressionModelTypeRepository</text></g><!--link AnalyzeDealsController to Statistic--><g id="link_AnalyzeDealsController_Statistic"><path codeLine="198" d="M908.44,181.9194 C915.17,204.6094 922.78,230.2994 929.93,254.4394 " fill="none" id="AnalyzeDealsController-to-Statistic" style="stroke:#181818;stroke-width:1.0;stroke-dasharray:7.0,7.0;"/><polygon fill="#181818" points="931.36,259.2494,932.6453,249.4848,929.943,254.4544,924.9733,251.752,931.36,259.2494" style="stroke:#181818;stroke-width:1.0;"/></g><!--link Statistic to SimpleLinear--><g id="link_Statistic_SimpleLinear"><path codeLine="199" d="M965.63,430.9494 C976.3,530.0494 992.5,680.6094 992.5,680.6094 C992.5,680.6094 1000.44,710.7094 1011.7,753.4094 " fill="none" id="Statistic-to-SimpleLinear" style="stroke:#181818;stroke-width:1.0;stroke-dasharray:7.0,7.0;"/><polygon fill="#181818" points="1013.01,758.3994,1014.5596,748.6732,1011.7235,753.5677,1006.8289,750.7316,1013.01,758.3994" style="stroke:#181818;stroke-width:1.0;"/></g><!--link Statistic to Multilinear--><g id="link_Statistic_Multilinear"><path codeLine="200" d="M952.38,431.0794 C946.53,551.8294 936.5,758.6094 936.5,758.6094 C936.5,758.6094 936.5,1317.6094 936.5,1317.6094 C936.5,1317.6094 951.8,1348.5794 972.64,1390.7194 " fill="none" id="Statistic-to-Multilinear" style="stroke:#181818;stroke-width:1.0;stroke-dasharray:7.0,7.0;"/><polygon fill="#181818" points="974.93,1395.3694,974.5331,1385.5285,972.7168,1390.8859,967.3595,1389.0696,974.93,1395.3694" style="stroke:#181818;stroke-width:1.0;"/></g><!--link RegressionModelTypeRepository to RegressionModelType--><g id="link_RegressionModelTypeRepository_RegressionModelType"><path codeLine="202" d="M562.99,386.6494 C543.95,426.2294 514.84,486.7194 493.77,530.5194 " fill="none" id="RegressionModelTypeRepository-to-RegressionModelType" style="stroke:#181818;stroke-width:1.0;"/><polygon fill="#181818" points="491.5,535.2394,499.0138,528.8721,493.6729,530.7362,491.8088,525.3954,491.5,535.2394" style="stroke:#181818;stroke-width:1.0;"/><text fill="#000000" font-family="sans-serif" font-size="13" lengthAdjust="spacing" textLength="5" x="489.3891" y="524.859">*</text></g><!--link AgencyRepository to Agency--><g id="link_AgencyRepository_Agency"><path codeLine="204" d="M1479.55,386.6494 C1569.48,432.7694 1714.78,507.2994 1799.41,550.6994 " fill="none" id="AgencyRepository-to-Agency" style="stroke:#181818;stroke-width:1.0;"/><polygon fill="#181818" points="1803.89,552.9994,1797.7169,545.3252,1799.4439,550.712,1794.0571,552.439,1803.89,552.9994" style="stroke:#181818;stroke-width:1.0;"/><text fill="#000000" font-family="sans-serif" font-size="13" lengthAdjust="spacing" textLength="5" x="1785.4611" y="542.0921">*</text></g><!--link AnnouncementList to Announcement--><g id="link_AnnouncementList_Announcement"><path codeLine="206" d="M1997.59,1080.0394 C1973.32,1180.1994 1910.8,1438.2394 1881.76,1558.1394 " fill="none" id="AnnouncementList-to-Announcement" style="stroke:#181818;stroke-width:1.0;"/><polygon fill="#181818" points="1880.57,1563.0394,1886.5634,1555.224,1881.739,1558.178,1878.7851,1553.3536,1880.57,1563.0394" style="stroke:#181818;stroke-width:1.0;"/><text fill="#000000" font-family="sans-serif" font-size="13" lengthAdjust="spacing" textLength="92" x="1929.5" y="1362.1045">announcements</text><text fill="#000000" font-family="sans-serif" font-size="13" lengthAdjust="spacing" textLength="7" x="1988.5366" y="1101.1902">1</text><text fill="#000000" font-family="sans-serif" font-size="13" lengthAdjust="spacing" textLength="5" x="1876.9801" y="1552.3551">*</text></g><!--link Announcement to Request--><g id="link_Announcement_Request"><path codeLine="207" d="M1866.5,1681.2494 C1866.5,1744.0094 1866.5,1843.1794 1866.5,1904.5194 " fill="none" id="Announcement-to-Request" style="stroke:#181818;stroke-width:1.0;"/><polygon fill="#181818" points="1866.5,1909.5994,1870.5,1900.5994,1866.5,1904.5994,1862.5,1900.5994,1866.5,1909.5994" style="stroke:#181818;stroke-width:1.0;"/><text fill="#000000" font-family="sans-serif" font-size="13" lengthAdjust="spacing" textLength="7" x="1859.0078" y="1898.9033">1</text></g><!--link Request to Property--><g id="link_Request_Property"><path codeLine="208" d="M1867.15,2010.6894 C1868.03,2077.8894 1869.5,2189.6094 1869.5,2189.6094 C1869.5,2189.6094 1878.6,2218.4694 1887.09,2245.4094 " fill="none" id="Request-to-Property" style="stroke:#181818;stroke-width:1.0;"/><polygon fill="#181818" points="1888.67,2250.4094,1889.7784,2240.6231,1887.1664,2245.6408,1882.1487,2243.0288,1888.67,2250.4094" style="stroke:#181818;stroke-width:1.0;"/><text fill="#000000" font-family="sans-serif" font-size="13" lengthAdjust="spacing" textLength="7" x="1878.9653" y="2239.6839">1</text></g><!--link Request to Business--><g id="link_Request_Business"><path codeLine="209" d="M2006.08,1960.1094 C2031.23,1960.1094 2057.83,1960.1094 2057.83,1960.1094 C2057.83,1960.1094 2077.85,1960.1094 2099.58,1960.1094 " fill="none" id="Request-to-Business" style="stroke:#181818;stroke-width:1.0;"/><polygon fill="#181818" points="2104.83,1960.1094,2095.83,1956.1094,2099.83,1960.1094,2095.83,1964.1094,2104.83,1960.1094" style="stroke:#181818;stroke-width:1.0;"/><text fill="#000000" font-family="sans-serif" font-size="13" lengthAdjust="spacing" textLength="7" x="2089.8415" y="1956.4363">1</text></g><!--reverse link Business to BusinessType--><g id="link_Business_BusinessType"><path codeLine="210" d="M2160.59,1998.4394 C2165.69,2025.2694 2172.55,2061.4294 2177.79,2088.9894 " fill="none" id="Business-backto-BusinessType" style="stroke:#181818;stroke-width:1.0;"/><polygon fill="#181818" points="2159.59,1993.1994,2157.3306,2002.7856,2160.5183,1998.1124,2165.1915,2001.3002,2159.59,1993.1994" style="stroke:#181818;stroke-width:1.0;"/><text fill="#000000" font-family="sans-serif" font-size="13" lengthAdjust="spacing" textLength="7" x="2153.0675" y="2014.3389">1</text><text fill="#000000" font-family="sans-serif" font-size="13" lengthAdjust="spacing" textLength="7" x="2168.9333" y="2078.2772">1</text></g><!--link Residence to Property--><g id="link_Residence_Property"><path codeLine="211" d="M1945.39,2189.6394 C1939.48,2203.3294 1933.16,2217.9294 1927.21,2231.6794 " fill="none" id="Residence-to-Property" style="stroke:#181818;stroke-width:1.0;"/><polygon fill="none" points="1933.5,2234.7694,1919.14,2250.3394,1920.65,2229.2094,1933.5,2234.7694" style="stroke:#181818;stroke-width:1.0;"/></g><!--link Agency to Announcement--><g id="link_Agency_Announcement"><path codeLine="212" d="M1860.86,619.3694 C1852.17,669.0494 1836.5,758.6094 1836.5,758.6094 C1836.5,758.6094 1836.5,1317.6094 1836.5,1317.6094 C1836.5,1317.6094 1851.44,1468.7394 1860.23,1557.7094 " fill="none" id="Agency-to-Announcement" style="stroke:#181818;stroke-width:1.0;"/><polygon fill="#181818" points="1860.75,1562.9494,1863.8293,1553.5943,1860.2497,1557.9745,1855.8694,1554.3948,1860.75,1562.9494" style="stroke:#181818;stroke-width:1.0;"/><text fill="#000000" font-family="sans-serif" font-size="13" lengthAdjust="spacing" textLength="7" x="1852.2319" y="640.28">1</text><text fill="#000000" font-family="sans-serif" font-size="13" lengthAdjust="spacing" textLength="5" x="1854.7445" y="1552.2541">*</text></g><!--link Agency to AnnouncementList--><g id="link_Agency_AnnouncementList"><path codeLine="213" d="M1876.53,619.1094 C1901.16,697.7194 1964.7,900.5094 1993.24,991.6094 " fill="none" id="Agency-to-AnnouncementList" style="stroke:#181818;stroke-width:1.0;"/><polygon fill="#181818" points="1994.74,996.3894,1995.8835,986.6071,1993.2535,991.6155,1988.2452,988.9855,1994.74,996.3894" style="stroke:#181818;stroke-width:1.0;"/><text fill="#000000" font-family="sans-serif" font-size="13" lengthAdjust="spacing" textLength="92" x="1908.5" y="725.1045">announcements</text><text fill="#000000" font-family="sans-serif" font-size="13" lengthAdjust="spacing" textLength="7" x="1985.0469" y="985.6606">1</text></g><!--SRC=[dLXVJzmu47_Ffx1uOHTOrBwTKBNImXOT4Xpj1gexdUx19Dwi3yTEROSIsdxt6pknu_nRol40ySnuPZppcncRG_L8UO4bpb4kk4XsKkG4QLcIgEKKE7d46ObrnGYI9D6OPomKK3kSYc-KPsYBcGevZ7AYguAWGh3ABAB34QQGMaJ1heHXfLPQI_fGQdAL21xJ5uBUHT4X8rkDj42IPZkDKchSeO97KQIf1lSkp5QqfZWpYXReFdxt_ZVWMfLebH6ULEXxXE3d66L4hpWN9Kz8JhY-fagl2MPhhF5CaamIfK3tZKW9kmC_JvwmfFY1aNdqqslixMzqBv1PV0YvozQeCQB-hnLZOO6eCafcS_CD6cFCo2e76Mr8n-W9CvfU2hdYc5MAgffgJ8DLe6-ytL4NKEj3wyI6V2r9VKAhwaiZexvWLX9lmP4jzRnQ4qKpZasIPgrM4ANAEBq1TWf9CVi3ImtHs_gZp1-8F2Uf529lJzEGiTvrwP-m131bCI1twDWi371jy9CK1P7Q8kFeg0Q697WsFphoX3Ka58DF5rHN5v078YtxPnTR6r88HRMGLGy9bhj4sFobH0K8R2WcCqRqLKou60saEhONrko8r1AD60Zy6TbYtUhaPo1YBA8OAXQQGDgcF3eU4vu54Yux8s8XTFPRly45vAz6YnPhBSQ2Q4vXwsLIObxlj-inFcpRxmS8J0VYJOUCDP2KfaceJqA2fOuQIDbVQr42B9PBiDNq54Ds8WqNRGNqIQoqhKdb8swqpIOIS1bkcH9g6vaJy7whKHntl0oEUrug60PAHQveQizH8Mb2FEQTb54LJSOvbEeYBKXTKobGTxvEGw8vZok8AruN_coEpcmAd52lXeFQ3xVlBTHPfyb3htuXDgONWcif6Aj1RLMDisT2PfZJ5tl2Lky9qbWzNc1DCbYrzFclrFcKI9lR5Kyx-50JrH8EaZh8xGZoe-cL0UJtJNephc48jP4utrzz3sgEvWM387229RBVPjuE2jrM91E0EmuVQGrKQWP2GWhTaXI3eT8kPVorn38aj9_FgoSYOJIqb6f0YP-VWqLLXPnmyJ7utWJVT-ttJIXq4qfjRnzKi8evIKaYf3jmQY91RhUNy3iLUU-iiKu_IjaZNejlf4-xDzrw97Pz1PxHK-BfJj6-VcZQX4rccyPW0aA_2DC-6zC4IkQWnRh-UrK8lOEcekw8BPP5wys0v_hMJSaqPM_3bVrut0E8l_yPmWPeEOQU-FnNGFB4FqEv1s93ymRK305S4rRflwNI90qWzJd4r-TVmfTtp3u128HKUJYyajxRwzX6s6TnAjD17lObEi4iAHdqJdUoJNtGrAOREb4tqSgHeIjlwtlhbO44tC4D2r1W4RA5k-X8odkDrW_buw6XDKcelR8tuTCGp1CNIvsOFL129NYWdGXcnGwV68WsjQjyyHfndu0HULxc02uO6kjkqJjjNEIKZ_2DNfocpQt07gCtAmpLnzY_8XeirroH5mPPN3pXc6RrXQpkuL5dTY-MtLb-1ixLqpgAkdqUdIudHkX0S66rZiqpOttgydawkMdFdd5BNT-3ky3fuBYT-qWlDg3yuFt1u64ohTs4gF-AEHlktxDz_wlaR3z_ds8_xQFsPcmJ5NRlBW-OGS6FfYxmpKRhw60Y7VseEEcQOIBQ-pU02RmN2b_lPmW7IzNPwLFMFBKZz-H62yTnBrLxBNBiXkSlqORd5fRpOR7eIDXJjQ_inUB7ijNS_9DawWIEt-AhV_R-4Vy3]--></g></svg>