<?xml version="1.0" encoding="UTF-8" standalone="no"?><svg xmlns="http://www.w3.org/2000/svg" xmlns:xlink="http://www.w3.org/1999/xlink" contentStyleType="text/css" height="1512px" preserveAspectRatio="none" style="width:2372px;height:1512px;background:#FFFFFF;" version="1.1" viewBox="0 0 2372 1512" width="2372px" zoomAndPan="magnify"><defs/><g><rect fill="#FFFFFF" height="1319.5078" style="stroke:#181818;stroke-width:1.0;" width="10" x="65" y="92.6094"/><rect fill="#FFFFFF" height="196.4609" style="stroke:#181818;stroke-width:1.0;" width="10" x="362" y="114.9609"/><rect fill="#FFFFFF" height="72.0547" style="stroke:#181818;stroke-width:1.0;" width="10" x="362" y="341.7734"/><rect fill="#FFFFFF" height="967.9375" style="stroke:#181818;stroke-width:1.0;" width="10" x="362" y="444.1797"/><rect fill="#FFFFFF" height="76.7969" style="stroke:#181818;stroke-width:1.0;" width="10" x="891" y="187.9219"/><rect fill="#FFFFFF" height="842.5313" style="stroke:#181818;stroke-width:1.0;" width="10" x="891" y="506.5313"/><rect fill="#FFFFFF" height="209.2031" style="stroke:#181818;stroke-width:1.0;" width="10" x="896" y="751.5078"/><rect fill="#FFFFFF" height="280.6484" style="stroke:#181818;stroke-width:1.0;" width="10" x="896" y="1031.0625"/><rect fill="#FFFFFF" height="30.3516" style="stroke:#181818;stroke-width:1.0;" width="10" x="1324" y="786.8594"/><rect fill="#FFFFFF" height="76.7969" style="stroke:#181818;stroke-width:1.0;" width="10" x="1449" y="847.5625"/><rect fill="#FFFFFF" height="101.7969" style="stroke:#181818;stroke-width:1.0;" width="10" x="1559" y="1066.4141"/><rect fill="#FFFFFF" height="76.7969" style="stroke:#181818;stroke-width:1.0;" width="10" x="1660" y="1198.5625"/><rect fill="#FFFFFF" height="151.2734" style="stroke:#181818;stroke-width:1.0;" width="10" x="1831.5" y="536.8828"/><rect fill="#FFFFFF" height="30.3516" style="stroke:#181818;stroke-width:1.0;" width="10" x="2100.5" y="567.2344"/><rect fill="none" height="120.4063" style="stroke:#000000;stroke-width:1.5;" width="424.5" x="10" y="356.7734"/><line style="stroke:#181818;stroke-width:0.5;stroke-dasharray:5.0,5.0;" x1="70" x2="70" y1="82.6094" y2="1430.1172"/><line style="stroke:#181818;stroke-width:0.5;stroke-dasharray:5.0,5.0;" x1="366.5" x2="366.5" y1="82.6094" y2="1430.1172"/><line style="stroke:#181818;stroke-width:0.5;stroke-dasharray:5.0,5.0;" x1="895.5" x2="895.5" y1="154.2656" y2="1430.1172"/><line style="stroke:#181818;stroke-width:0.5;stroke-dasharray:5.0,5.0;" x1="1328.5" x2="1328.5" y1="82.6094" y2="1430.1172"/><line style="stroke:#181818;stroke-width:0.5;stroke-dasharray:5.0,5.0;" x1="1453.5" x2="1453.5" y1="82.6094" y2="1430.1172"/><line style="stroke:#181818;stroke-width:0.5;stroke-dasharray:5.0,5.0;" x1="1563.5" x2="1563.5" y1="82.6094" y2="1430.1172"/><line style="stroke:#181818;stroke-width:0.5;stroke-dasharray:5.0,5.0;" x1="1664.5" x2="1664.5" y1="82.6094" y2="1430.1172"/><line style="stroke:#181818;stroke-width:0.5;stroke-dasharray:5.0,5.0;" x1="1836.5" x2="1836.5" y1="82.6094" y2="1430.1172"/><line style="stroke:#181818;stroke-width:0.5;stroke-dasharray:5.0,5.0;" x1="2105.5" x2="2105.5" y1="82.6094" y2="1430.1172"/><line style="stroke:#181818;stroke-width:0.5;stroke-dasharray:5.0,5.0;" x1="2286.5" x2="2286.5" y1="645.6953" y2="1430.1172"/><text fill="#000000" font-family="sans-serif" font-size="14" lengthAdjust="spacing" textLength="94" x="20" y="79.5332">Store Manager</text><ellipse cx="70" cy="13.5" fill="#E3E3E3" rx="8" ry="8" style="stroke:#181818;stroke-width:0.5;"/><path d="M70,21.5 L70,48.5 M57,29.5 L83,29.5 M70,48.5 L57,63.5 M70,48.5 L83,63.5 " fill="none" style="stroke:#181818;stroke-width:0.5;"/><text fill="#000000" font-family="sans-serif" font-size="14" lengthAdjust="spacing" textLength="94" x="20" y="1443.6504">Store Manager</text><ellipse cx="70" cy="1455.2266" fill="#E3E3E3" rx="8" ry="8" style="stroke:#181818;stroke-width:0.5;"/><path d="M70,1463.2266 L70,1490.2266 M57,1471.2266 L83,1471.2266 M70,1490.2266 L57,1505.2266 M70,1490.2266 L83,1505.2266 " fill="none" style="stroke:#181818;stroke-width:0.5;"/><rect fill="#E3E3E3" height="31.6094" rx="2.5" ry="2.5" style="stroke:#181818;stroke-width:0.5;" width="115" x="309.5" y="50"/><text fill="#000000" font-family="sans-serif" font-size="14" lengthAdjust="spacing" textLength="101" x="316.5" y="71.5332">:AnalyzeDealsUI</text><rect fill="#E3E3E3" height="31.6094" rx="2.5" ry="2.5" style="stroke:#181818;stroke-width:0.5;" width="115" x="309.5" y="1429.1172"/><text fill="#000000" font-family="sans-serif" font-size="14" lengthAdjust="spacing" textLength="101" x="316.5" y="1450.6504">:AnalyzeDealsUI</text><rect fill="#E3E3E3" height="31.6094" rx="2.5" ry="2.5" style="stroke:#181818;stroke-width:0.5;" width="165" x="813.5" y="1429.1172"/><text fill="#000000" font-family="sans-serif" font-size="14" lengthAdjust="spacing" textLength="151" x="820.5" y="1450.6504">:AnalyzeDealsController</text><rect fill="#E3E3E3" height="49.2188" rx="2.5" ry="2.5" style="stroke:#181818;stroke-width:0.5;" width="97" x="1280.5" y="32.3906"/><text fill="#000000" font-family="sans-serif" font-size="14" lengthAdjust="spacing" textLength="74" x="1292" y="53.9238">repositories</text><text fill="#000000" font-family="sans-serif" font-size="14" lengthAdjust="spacing" textLength="83" x="1287.5" y="71.5332">:Repositories</text><rect fill="#E3E3E3" height="49.2188" rx="2.5" ry="2.5" style="stroke:#181818;stroke-width:0.5;" width="97" x="1280.5" y="1429.1172"/><text fill="#000000" font-family="sans-serif" font-size="14" lengthAdjust="spacing" textLength="74" x="1292" y="1450.6504">repositories</text><text fill="#000000" font-family="sans-serif" font-size="14" lengthAdjust="spacing" textLength="83" x="1287.5" y="1468.2598">:Repositories</text><rect fill="#E3E3E3" height="49.2188" rx="2.5" ry="2.5" style="stroke:#181818;stroke-width:0.5;" width="133" x="1387.5" y="32.3906"/><text fill="#000000" font-family="sans-serif" font-size="14" lengthAdjust="spacing" textLength="114" x="1397" y="53.9238">agencyRepository</text><text fill="#000000" font-family="sans-serif" font-size="14" lengthAdjust="spacing" textLength="119" x="1394.5" y="71.5332">:AgencyRepository</text><rect fill="#E3E3E3" height="49.2188" rx="2.5" ry="2.5" style="stroke:#181818;stroke-width:0.5;" width="133" x="1387.5" y="1429.1172"/><text fill="#000000" font-family="sans-serif" font-size="14" lengthAdjust="spacing" textLength="114" x="1397" y="1450.6504">agencyRepository</text><text fill="#000000" font-family="sans-serif" font-size="14" lengthAdjust="spacing" textLength="119" x="1394.5" y="1468.2598">:AgencyRepository</text><rect fill="#E3E3E3" height="49.2188" rx="2.5" ry="2.5" style="stroke:#181818;stroke-width:0.5;" width="67" x="1530.5" y="32.3906"/><text fill="#000000" font-family="sans-serif" font-size="14" lengthAdjust="spacing" textLength="47" x="1540.5" y="53.9238">statistic</text><text fill="#000000" font-family="sans-serif" font-size="14" lengthAdjust="spacing" textLength="53" x="1537.5" y="71.5332">:Statistic</text><rect fill="#E3E3E3" height="49.2188" rx="2.5" ry="2.5" style="stroke:#181818;stroke-width:0.5;" width="67" x="1530.5" y="1429.1172"/><text fill="#000000" font-family="sans-serif" font-size="14" lengthAdjust="spacing" textLength="47" x="1540.5" y="1450.6504">statistic</text><text fill="#000000" font-family="sans-serif" font-size="14" lengthAdjust="spacing" textLength="53" x="1537.5" y="1468.2598">:Statistic</text><rect fill="#E3E3E3" height="49.2188" rx="2.5" ry="2.5" style="stroke:#181818;stroke-width:0.5;" width="115" x="1607.5" y="32.3906"/><text fill="#000000" font-family="sans-serif" font-size="14" lengthAdjust="spacing" textLength="95" x="1617.5" y="53.9238">statisticMapper</text><text fill="#000000" font-family="sans-serif" font-size="14" lengthAdjust="spacing" textLength="101" x="1614.5" y="71.5332">:StatisticMapper</text><rect fill="#E3E3E3" height="49.2188" rx="2.5" ry="2.5" style="stroke:#181818;stroke-width:0.5;" width="115" x="1607.5" y="1429.1172"/><text fill="#000000" font-family="sans-serif" font-size="14" lengthAdjust="spacing" textLength="95" x="1617.5" y="1450.6504">statisticMapper</text><text fill="#000000" font-family="sans-serif" font-size="14" lengthAdjust="spacing" textLength="101" x="1614.5" y="1468.2598">:StatisticMapper</text><rect fill="#E3E3E3" height="49.2188" rx="2.5" ry="2.5" style="stroke:#181818;stroke-width:0.5;" width="208" x="1732.5" y="32.3906"/><text fill="#000000" font-family="sans-serif" font-size="14" lengthAdjust="spacing" textLength="185" x="1744" y="53.9238">regressionModelTypeMapper</text><text fill="#000000" font-family="sans-serif" font-size="14" lengthAdjust="spacing" textLength="194" x="1739.5" y="71.5332">:RegressionModelTypeMapper</text><rect fill="#E3E3E3" height="49.2188" rx="2.5" ry="2.5" style="stroke:#181818;stroke-width:0.5;" width="208" x="1732.5" y="1429.1172"/><text fill="#000000" font-family="sans-serif" font-size="14" lengthAdjust="spacing" textLength="185" x="1744" y="1450.6504">regressionModelTypeMapper</text><text fill="#000000" font-family="sans-serif" font-size="14" lengthAdjust="spacing" textLength="194" x="1739.5" y="1468.2598">:RegressionModelTypeMapper</text><rect fill="#E3E3E3" height="49.2188" rx="2.5" ry="2.5" style="stroke:#181818;stroke-width:0.5;" width="182" x="2014.5" y="32.3906"/><text fill="#000000" font-family="sans-serif" font-size="14" lengthAdjust="spacing" textLength="159" x="2026" y="53.9238">regressionModelTypeDto</text><text fill="#000000" font-family="sans-serif" font-size="14" lengthAdjust="spacing" textLength="168" x="2021.5" y="71.5332">:RegressionModelTypeDto</text><rect fill="#E3E3E3" height="49.2188" rx="2.5" ry="2.5" style="stroke:#181818;stroke-width:0.5;" width="182" x="2014.5" y="1429.1172"/><text fill="#000000" font-family="sans-serif" font-size="14" lengthAdjust="spacing" textLength="159" x="2026" y="1450.6504">regressionModelTypeDto</text><text fill="#000000" font-family="sans-serif" font-size="14" lengthAdjust="spacing" textLength="168" x="2021.5" y="1468.2598">:RegressionModelTypeDto</text><rect fill="#E3E3E3" height="49.2188" rx="2.5" ry="2.5" style="stroke:#181818;stroke-width:0.5;" width="160" x="2206.5" y="1429.1172"/><text fill="#000000" font-family="sans-serif" font-size="14" lengthAdjust="spacing" textLength="137" x="2218" y="1450.6504">regressionModelType</text><text fill="#000000" font-family="sans-serif" font-size="14" lengthAdjust="spacing" textLength="146" x="2213.5" y="1468.2598">:RegressionModelType</text><rect fill="#FFFFFF" height="1319.5078" style="stroke:#181818;stroke-width:1.0;" width="10" x="65" y="92.6094"/><rect fill="#FFFFFF" height="196.4609" style="stroke:#181818;stroke-width:1.0;" width="10" x="362" y="114.9609"/><rect fill="#FFFFFF" height="72.0547" style="stroke:#181818;stroke-width:1.0;" width="10" x="362" y="341.7734"/><rect fill="#FFFFFF" height="967.9375" style="stroke:#181818;stroke-width:1.0;" width="10" x="362" y="444.1797"/><rect fill="#FFFFFF" height="76.7969" style="stroke:#181818;stroke-width:1.0;" width="10" x="891" y="187.9219"/><rect fill="#FFFFFF" height="842.5313" style="stroke:#181818;stroke-width:1.0;" width="10" x="891" y="506.5313"/><rect fill="#FFFFFF" height="209.2031" style="stroke:#181818;stroke-width:1.0;" width="10" x="896" y="751.5078"/><rect fill="#FFFFFF" height="280.6484" style="stroke:#181818;stroke-width:1.0;" width="10" x="896" y="1031.0625"/><rect fill="#FFFFFF" height="30.3516" style="stroke:#181818;stroke-width:1.0;" width="10" x="1324" y="786.8594"/><rect fill="#FFFFFF" height="76.7969" style="stroke:#181818;stroke-width:1.0;" width="10" x="1449" y="847.5625"/><rect fill="#FFFFFF" height="101.7969" style="stroke:#181818;stroke-width:1.0;" width="10" x="1559" y="1066.4141"/><rect fill="#FFFFFF" height="76.7969" style="stroke:#181818;stroke-width:1.0;" width="10" x="1660" y="1198.5625"/><rect fill="#FFFFFF" height="151.2734" style="stroke:#181818;stroke-width:1.0;" width="10" x="1831.5" y="536.8828"/><rect fill="#FFFFFF" height="30.3516" style="stroke:#181818;stroke-width:1.0;" width="10" x="2100.5" y="567.2344"/><polygon fill="#181818" points="350,110.9609,360,114.9609,350,118.9609,354,114.9609" style="stroke:#181818;stroke-width:1.0;"/><line style="stroke:#181818;stroke-width:1.0;" x1="75" x2="356" y1="114.9609" y2="114.9609"/><text fill="#000000" font-family="sans-serif" font-size="13" font-weight="bold" lengthAdjust="spacing" textLength="7" x="82" y="110.1045">1</text><text fill="#000000" font-family="sans-serif" font-size="13" lengthAdjust="spacing" textLength="182" x="93" y="110.1045">asks to analyze property deals.</text><polygon fill="#181818" points="801.5,141.3125,811.5,145.3125,801.5,149.3125,805.5,145.3125" style="stroke:#181818;stroke-width:1.0;"/><line style="stroke:#181818;stroke-width:1.0;" x1="372" x2="807.5" y1="145.3125" y2="145.3125"/><text fill="#000000" font-family="sans-serif" font-size="13" font-weight="bold" lengthAdjust="spacing" textLength="7" x="379" y="140.4561">2</text><text fill="#000000" font-family="sans-serif" font-size="13" lengthAdjust="spacing" textLength="44" x="390" y="140.4561">create()</text><rect fill="#E3E3E3" height="31.6094" rx="2.5" ry="2.5" style="stroke:#181818;stroke-width:0.5;" width="165" x="813.5" y="122.9609"/><text fill="#000000" font-family="sans-serif" font-size="14" lengthAdjust="spacing" textLength="151" x="820.5" y="144.4941">:AnalyzeDealsController</text><polygon fill="#181818" points="879,183.9219,889,187.9219,879,191.9219,883,187.9219" style="stroke:#181818;stroke-width:1.0;"/><line style="stroke:#181818;stroke-width:1.0;" x1="372" x2="885" y1="187.9219" y2="187.9219"/><text fill="#000000" font-family="sans-serif" font-size="13" font-weight="bold" lengthAdjust="spacing" textLength="7" x="379" y="183.0654">3</text><text fill="#000000" font-family="sans-serif" font-size="13" lengthAdjust="spacing" textLength="175" x="390" y="183.0654">getRegressionModelTypeList()</text><rect fill="none" height="41.4453" style="stroke:#000000;stroke-width:1.5;" width="183" x="810.5" y="195.9219"/><path d="M810.5,195.9219 L872.5,195.9219 L872.5,203.9219 L862.5,213.9219 L810.5,213.9219 L810.5,195.9219 " fill="#EEEEEE" style="stroke:#000000;stroke-width:2.0;"/><text fill="#000000" font-family="sans-serif" font-size="13" font-weight="bold" lengthAdjust="spacing" textLength="17" x="823.5" y="211.417">ref</text><text fill="#000000" font-family="sans-serif" font-size="12" lengthAdjust="spacing" textLength="175" x="814.5" y="230.3789">Get Regression Model Type List</text><polygon fill="#181818" points="383,260.7188,373,264.7188,383,268.7188,379,264.7188" style="stroke:#181818;stroke-width:1.0;"/><line style="stroke:#181818;stroke-width:1.0;stroke-dasharray:2.0,2.0;" x1="377" x2="895" y1="264.7188" y2="264.7188"/><text fill="#000000" font-family="sans-serif" font-size="13" font-weight="bold" lengthAdjust="spacing" textLength="7" x="389" y="259.8623">4</text><text fill="#000000" font-family="sans-serif" font-size="13" lengthAdjust="spacing" textLength="164" x="400" y="259.8623">regressionModelTypeDtoList</text><polygon fill="#181818" points="86,307.4219,76,311.4219,86,315.4219,82,311.4219" style="stroke:#181818;stroke-width:1.0;"/><line style="stroke:#181818;stroke-width:1.0;stroke-dasharray:2.0,2.0;" x1="80" x2="366" y1="311.4219" y2="311.4219"/><text fill="#000000" font-family="sans-serif" font-size="13" font-weight="bold" lengthAdjust="spacing" textLength="7" x="92" y="298.3896">5</text><text fill="#000000" font-family="sans-serif" font-size="13" lengthAdjust="spacing" textLength="200" x="103" y="290.2139">shows regression models available</text><text fill="#000000" font-family="sans-serif" font-size="13" lengthAdjust="spacing" textLength="136" x="103" y="306.5654">and asks to select one.</text><polygon fill="#181818" points="350,337.7734,360,341.7734,350,345.7734,354,341.7734" style="stroke:#181818;stroke-width:1.0;"/><line style="stroke:#181818;stroke-width:1.0;" x1="75" x2="356" y1="341.7734" y2="341.7734"/><text fill="#000000" font-family="sans-serif" font-size="13" font-weight="bold" lengthAdjust="spacing" textLength="7" x="82" y="336.917">6</text><text fill="#000000" font-family="sans-serif" font-size="13" lengthAdjust="spacing" textLength="149" x="93" y="336.917">selects regression model.</text><path d="M10,356.7734 L71,356.7734 L71,365.125 L61,375.125 L10,375.125 L10,356.7734 " fill="#EEEEEE" style="stroke:#000000;stroke-width:1.5;"/><rect fill="none" height="120.4063" style="stroke:#000000;stroke-width:1.5;" width="424.5" x="10" y="356.7734"/><text fill="#000000" font-family="sans-serif" font-size="13" font-weight="bold" lengthAdjust="spacing" textLength="16" x="25" y="371.2686">alt</text><text fill="#000000" font-family="sans-serif" font-size="11" font-weight="bold" lengthAdjust="spacing" textLength="239" x="86" y="370.1924">[regressionModelTypeDto == simple linear]</text><polygon fill="#181818" points="86,409.8281,76,413.8281,86,417.8281,82,413.8281" style="stroke:#181818;stroke-width:1.0;"/><line style="stroke:#181818;stroke-width:1.0;stroke-dasharray:2.0,2.0;" x1="80" x2="366" y1="413.8281" y2="413.8281"/><text fill="#000000" font-family="sans-serif" font-size="13" font-weight="bold" lengthAdjust="spacing" textLength="7" x="92" y="400.7959">7</text><text fill="#000000" font-family="sans-serif" font-size="13" lengthAdjust="spacing" textLength="248" x="103" y="392.6201">shows the variables available for regression</text><text fill="#000000" font-family="sans-serif" font-size="13" lengthAdjust="spacing" textLength="182" x="103" y="408.9717">models and asks to select one.</text><polygon fill="#181818" points="350,440.1797,360,444.1797,350,448.1797,354,444.1797" style="stroke:#181818;stroke-width:1.0;"/><line style="stroke:#181818;stroke-width:1.0;" x1="75" x2="356" y1="444.1797" y2="444.1797"/><text fill="#000000" font-family="sans-serif" font-size="13" font-weight="bold" lengthAdjust="spacing" textLength="7" x="82" y="439.3232">8</text><text fill="#000000" font-family="sans-serif" font-size="13" lengthAdjust="spacing" textLength="93" x="93" y="439.3232">selects variable.</text><polygon fill="#181818" points="879,502.5313,889,506.5313,879,510.5313,883,506.5313" style="stroke:#181818;stroke-width:1.0;"/><line style="stroke:#181818;stroke-width:1.0;" x1="372" x2="885" y1="506.5313" y2="506.5313"/><text fill="#000000" font-family="sans-serif" font-size="13" font-weight="bold" lengthAdjust="spacing" textLength="7" x="379" y="501.6748">9</text><text fill="#000000" font-family="sans-serif" font-size="13" lengthAdjust="spacing" textLength="489" x="390" y="501.6748">getRegressionModelStatisticsAndForecastValues(regressionModelTypeDto, variable)</text><polygon fill="#181818" points="1819.5,532.8828,1829.5,536.8828,1819.5,540.8828,1823.5,536.8828" style="stroke:#181818;stroke-width:1.0;"/><line style="stroke:#181818;stroke-width:1.0;" x1="901" x2="1825.5" y1="536.8828" y2="536.8828"/><text fill="#000000" font-family="sans-serif" font-size="13" font-weight="bold" lengthAdjust="spacing" textLength="14" x="908" y="532.0264">10</text><text fill="#000000" font-family="sans-serif" font-size="13" lengthAdjust="spacing" textLength="197" x="926" y="532.0264">toModel(regressionModelTypeDto)</text><polygon fill="#181818" points="2088.5,563.2344,2098.5,567.2344,2088.5,571.2344,2092.5,567.2344" style="stroke:#181818;stroke-width:1.0;"/><line style="stroke:#181818;stroke-width:1.0;" x1="1841.5" x2="2094.5" y1="567.2344" y2="567.2344"/><text fill="#000000" font-family="sans-serif" font-size="13" font-weight="bold" lengthAdjust="spacing" textLength="14" x="1848.5" y="562.3779">11</text><text fill="#000000" font-family="sans-serif" font-size="13" lengthAdjust="spacing" textLength="222" x="1866.5" y="562.3779">getRegressionModelTypeDesignation()</text><polygon fill="#181818" points="1852.5,593.5859,1842.5,597.5859,1852.5,601.5859,1848.5,597.5859" style="stroke:#181818;stroke-width:1.0;"/><line style="stroke:#181818;stroke-width:1.0;stroke-dasharray:2.0,2.0;" x1="1846.5" x2="2104.5" y1="597.5859" y2="597.5859"/><text fill="#000000" font-family="sans-serif" font-size="13" font-weight="bold" lengthAdjust="spacing" textLength="14" x="1858.5" y="592.7295">12</text><text fill="#000000" font-family="sans-serif" font-size="13" lengthAdjust="spacing" textLength="191" x="1876.5" y="592.7295">regressionModelTypeDesignation</text><polygon fill="#181818" points="2194.5,623.9375,2204.5,627.9375,2194.5,631.9375,2198.5,627.9375" style="stroke:#181818;stroke-width:1.0;"/><line style="stroke:#181818;stroke-width:1.0;" x1="1841.5" x2="2200.5" y1="627.9375" y2="627.9375"/><text fill="#000000" font-family="sans-serif" font-size="13" font-weight="bold" lengthAdjust="spacing" textLength="14" x="1848.5" y="623.0811">13</text><text fill="#000000" font-family="sans-serif" font-size="13" lengthAdjust="spacing" textLength="235" x="1866.5" y="623.0811">create(regressionModelTypeDesignation)</text><rect fill="#E3E3E3" height="49.2188" rx="2.5" ry="2.5" style="stroke:#181818;stroke-width:0.5;" width="160" x="2206.5" y="605.5859"/><text fill="#000000" font-family="sans-serif" font-size="14" lengthAdjust="spacing" textLength="137" x="2218" y="627.1191">regressionModelType</text><text fill="#000000" font-family="sans-serif" font-size="14" lengthAdjust="spacing" textLength="146" x="2213.5" y="644.7285">:RegressionModelType</text><polygon fill="#181818" points="912,684.1563,902,688.1563,912,692.1563,908,688.1563" style="stroke:#181818;stroke-width:1.0;"/><line style="stroke:#181818;stroke-width:1.0;stroke-dasharray:2.0,2.0;" x1="906" x2="1835.5" y1="688.1563" y2="688.1563"/><text fill="#000000" font-family="sans-serif" font-size="13" font-weight="bold" lengthAdjust="spacing" textLength="14" x="918" y="683.2998">14</text><text fill="#000000" font-family="sans-serif" font-size="13" lengthAdjust="spacing" textLength="123" x="936" y="683.2998">regressionModelType</text><line style="stroke:#181818;stroke-width:1.0;" x1="901" x2="948" y1="738.5078" y2="738.5078"/><line style="stroke:#181818;stroke-width:1.0;" x1="948" x2="948" y1="738.5078" y2="751.5078"/><line style="stroke:#181818;stroke-width:1.0;" x1="907" x2="948" y1="751.5078" y2="751.5078"/><polygon fill="#181818" points="917,747.5078,907,751.5078,917,755.5078,913,751.5078" style="stroke:#181818;stroke-width:1.0;"/><text fill="#000000" font-family="sans-serif" font-size="13" font-weight="bold" lengthAdjust="spacing" textLength="14" x="913" y="733.6514">15</text><text fill="#000000" font-family="sans-serif" font-size="13" lengthAdjust="spacing" textLength="292" x="931" y="733.6514">getDataForAnalysis(regressionModelType,variable)</text><polygon fill="#181818" points="1312,782.8594,1322,786.8594,1312,790.8594,1316,786.8594" style="stroke:#181818;stroke-width:1.0;"/><line style="stroke:#181818;stroke-width:1.0;" x1="906" x2="1318" y1="786.8594" y2="786.8594"/><text fill="#000000" font-family="sans-serif" font-size="13" font-weight="bold" lengthAdjust="spacing" textLength="14" x="913" y="782.0029">16</text><text fill="#000000" font-family="sans-serif" font-size="13" lengthAdjust="spacing" textLength="132" x="931" y="782.0029">getAgencyRepository()</text><polygon fill="#181818" points="917,813.2109,907,817.2109,917,821.2109,913,817.2109" style="stroke:#181818;stroke-width:1.0;"/><line style="stroke:#181818;stroke-width:1.0;stroke-dasharray:2.0,2.0;" x1="911" x2="1328" y1="817.2109" y2="817.2109"/><text fill="#000000" font-family="sans-serif" font-size="13" font-weight="bold" lengthAdjust="spacing" textLength="14" x="923" y="812.3545">17</text><text fill="#000000" font-family="sans-serif" font-size="13" lengthAdjust="spacing" textLength="104" x="941" y="812.3545">agencyRepository</text><polygon fill="#181818" points="1437,843.5625,1447,847.5625,1437,851.5625,1441,847.5625" style="stroke:#181818;stroke-width:1.0;"/><line style="stroke:#181818;stroke-width:1.0;" x1="906" x2="1443" y1="847.5625" y2="847.5625"/><text fill="#000000" font-family="sans-serif" font-size="13" font-weight="bold" lengthAdjust="spacing" textLength="14" x="913" y="842.7061">18</text><text fill="#000000" font-family="sans-serif" font-size="13" lengthAdjust="spacing" textLength="298" x="931" y="842.7061">getAgenciesDataList(regressionModelType,variable)</text><rect fill="none" height="41.4453" style="stroke:#000000;stroke-width:1.5;" width="139" x="1384.5" y="855.5625"/><path d="M1384.5,855.5625 L1446.5,855.5625 L1446.5,863.5625 L1436.5,873.5625 L1384.5,873.5625 L1384.5,855.5625 " fill="#EEEEEE" style="stroke:#000000;stroke-width:2.0;"/><text fill="#000000" font-family="sans-serif" font-size="13" font-weight="bold" lengthAdjust="spacing" textLength="17" x="1397.5" y="871.0576">ref</text><text fill="#000000" font-family="sans-serif" font-size="12" lengthAdjust="spacing" textLength="128" x="1390" y="890.0195">Get all data for analysis</text><polygon fill="#181818" points="917,920.3594,907,924.3594,917,928.3594,913,924.3594" style="stroke:#181818;stroke-width:1.0;"/><line style="stroke:#181818;stroke-width:1.0;stroke-dasharray:2.0,2.0;" x1="911" x2="1453" y1="924.3594" y2="924.3594"/><text fill="#000000" font-family="sans-serif" font-size="13" font-weight="bold" lengthAdjust="spacing" textLength="14" x="923" y="919.5029">19</text><text fill="#000000" font-family="sans-serif" font-size="13" lengthAdjust="spacing" textLength="79" x="941" y="919.5029">dealsDataList</text><line style="stroke:#181818;stroke-width:1.0;stroke-dasharray:2.0,2.0;" x1="906" x2="948" y1="959.7109" y2="959.7109"/><line style="stroke:#181818;stroke-width:1.0;stroke-dasharray:2.0,2.0;" x1="948" x2="948" y1="959.7109" y2="972.7109"/><line style="stroke:#181818;stroke-width:1.0;stroke-dasharray:2.0,2.0;" x1="901" x2="948" y1="972.7109" y2="972.7109"/><polygon fill="#181818" points="911,968.7109,901,972.7109,911,976.7109,907,972.7109" style="stroke:#181818;stroke-width:1.0;"/><text fill="#000000" font-family="sans-serif" font-size="13" font-weight="bold" lengthAdjust="spacing" textLength="14" x="913" y="954.8545">20</text><text fill="#000000" font-family="sans-serif" font-size="13" lengthAdjust="spacing" textLength="79" x="931" y="954.8545">dealsDataList</text><line style="stroke:#181818;stroke-width:1.0;" x1="901" x2="948" y1="1018.0625" y2="1018.0625"/><line style="stroke:#181818;stroke-width:1.0;" x1="948" x2="948" y1="1018.0625" y2="1031.0625"/><line style="stroke:#181818;stroke-width:1.0;" x1="907" x2="948" y1="1031.0625" y2="1031.0625"/><polygon fill="#181818" points="917,1027.0625,907,1031.0625,917,1035.0625,913,1031.0625" style="stroke:#181818;stroke-width:1.0;"/><text fill="#000000" font-family="sans-serif" font-size="13" font-weight="bold" lengthAdjust="spacing" textLength="14" x="913" y="1013.2061">21</text><text fill="#000000" font-family="sans-serif" font-size="13" lengthAdjust="spacing" textLength="391" x="931" y="1013.2061">getRegressionModelStatistics(regressionModelType, dealsDataList)</text><polygon fill="#181818" points="1547,1062.4141,1557,1066.4141,1547,1070.4141,1551,1066.4141" style="stroke:#181818;stroke-width:1.0;"/><line style="stroke:#181818;stroke-width:1.0;" x1="906" x2="1553" y1="1066.4141" y2="1066.4141"/><text fill="#000000" font-family="sans-serif" font-size="13" font-weight="bold" lengthAdjust="spacing" textLength="14" x="913" y="1061.5576">22</text><text fill="#000000" font-family="sans-serif" font-size="13" lengthAdjust="spacing" textLength="291" x="931" y="1061.5576">getStatistics(regressionModelType, dealsDataList)</text><rect fill="none" height="41.4453" style="stroke:#000000;stroke-width:1.5;" width="80" x="1527.5" y="1099.4141"/><path d="M1527.5,1099.4141 L1589.5,1099.4141 L1589.5,1107.4141 L1579.5,1117.4141 L1527.5,1117.4141 L1527.5,1099.4141 " fill="#EEEEEE" style="stroke:#000000;stroke-width:2.0;"/><text fill="#000000" font-family="sans-serif" font-size="13" font-weight="bold" lengthAdjust="spacing" textLength="17" x="1540.5" y="1114.9092">ref</text><text fill="#000000" font-family="sans-serif" font-size="12" lengthAdjust="spacing" textLength="72" x="1531.5" y="1133.8711">Get Statistics</text><polygon fill="#181818" points="917,1164.2109,907,1168.2109,917,1172.2109,913,1168.2109" style="stroke:#181818;stroke-width:1.0;"/><line style="stroke:#181818;stroke-width:1.0;stroke-dasharray:2.0,2.0;" x1="911" x2="1563" y1="1168.2109" y2="1168.2109"/><text fill="#000000" font-family="sans-serif" font-size="13" font-weight="bold" lengthAdjust="spacing" textLength="14" x="923" y="1163.3545">23</text><text fill="#000000" font-family="sans-serif" font-size="13" lengthAdjust="spacing" textLength="95" x="941" y="1163.3545">regressionModel</text><polygon fill="#181818" points="1648,1194.5625,1658,1198.5625,1648,1202.5625,1652,1198.5625" style="stroke:#181818;stroke-width:1.0;"/><line style="stroke:#181818;stroke-width:1.0;" x1="906" x2="1654" y1="1198.5625" y2="1198.5625"/><text fill="#000000" font-family="sans-serif" font-size="13" font-weight="bold" lengthAdjust="spacing" textLength="14" x="913" y="1193.7061">24</text><text fill="#000000" font-family="sans-serif" font-size="13" lengthAdjust="spacing" textLength="85" x="931" y="1193.7061">toDto(statistic)</text><rect fill="none" height="41.4453" style="stroke:#000000;stroke-width:1.5;" width="135" x="1604.5" y="1206.5625"/><path d="M1604.5,1206.5625 L1666.5,1206.5625 L1666.5,1214.5625 L1656.5,1224.5625 L1604.5,1224.5625 L1604.5,1206.5625 " fill="#EEEEEE" style="stroke:#000000;stroke-width:2.0;"/><text fill="#000000" font-family="sans-serif" font-size="13" font-weight="bold" lengthAdjust="spacing" textLength="17" x="1617.5" y="1222.0576">ref</text><text fill="#000000" font-family="sans-serif" font-size="12" lengthAdjust="spacing" textLength="127" x="1608.5" y="1241.0195">Convert Statistic To Dto</text><polygon fill="#181818" points="917,1271.3594,907,1275.3594,917,1279.3594,913,1275.3594" style="stroke:#181818;stroke-width:1.0;"/><line style="stroke:#181818;stroke-width:1.0;stroke-dasharray:2.0,2.0;" x1="911" x2="1664" y1="1275.3594" y2="1275.3594"/><text fill="#000000" font-family="sans-serif" font-size="13" font-weight="bold" lengthAdjust="spacing" textLength="14" x="923" y="1270.5029">25</text><text fill="#000000" font-family="sans-serif" font-size="13" lengthAdjust="spacing" textLength="66" x="941" y="1270.5029">statisticDto</text><line style="stroke:#181818;stroke-width:1.0;stroke-dasharray:2.0,2.0;" x1="906" x2="948" y1="1310.7109" y2="1310.7109"/><line style="stroke:#181818;stroke-width:1.0;stroke-dasharray:2.0,2.0;" x1="948" x2="948" y1="1310.7109" y2="1323.7109"/><line style="stroke:#181818;stroke-width:1.0;stroke-dasharray:2.0,2.0;" x1="901" x2="948" y1="1323.7109" y2="1323.7109"/><polygon fill="#181818" points="911,1319.7109,901,1323.7109,911,1327.7109,907,1323.7109" style="stroke:#181818;stroke-width:1.0;"/><text fill="#000000" font-family="sans-serif" font-size="13" font-weight="bold" lengthAdjust="spacing" textLength="14" x="913" y="1305.8545">26</text><text fill="#000000" font-family="sans-serif" font-size="13" lengthAdjust="spacing" textLength="66" x="931" y="1305.8545">statisticDto</text><polygon fill="#181818" points="383,1345.0625,373,1349.0625,383,1353.0625,379,1349.0625" style="stroke:#181818;stroke-width:1.0;"/><line style="stroke:#181818;stroke-width:1.0;stroke-dasharray:2.0,2.0;" x1="377" x2="895" y1="1349.0625" y2="1349.0625"/><text fill="#000000" font-family="sans-serif" font-size="13" font-weight="bold" lengthAdjust="spacing" textLength="14" x="389" y="1344.2061">27</text><text fill="#000000" font-family="sans-serif" font-size="13" lengthAdjust="spacing" textLength="66" x="407" y="1344.2061">statisticDto</text><polygon fill="#181818" points="81,1408.1172,71,1412.1172,81,1416.1172,77,1412.1172" style="stroke:#181818;stroke-width:1.0;"/><line style="stroke:#181818;stroke-width:1.0;stroke-dasharray:2.0,2.0;" x1="75" x2="366" y1="1412.1172" y2="1412.1172"/><text fill="#000000" font-family="sans-serif" font-size="13" font-weight="bold" lengthAdjust="spacing" textLength="14" x="87" y="1390.9092">28</text><text fill="#000000" font-family="sans-serif" font-size="13" lengthAdjust="spacing" textLength="241" x="105" y="1374.5576">shows the estimated price for each house</text><text fill="#000000" font-family="sans-serif" font-size="13" lengthAdjust="spacing" textLength="215" x="105" y="1390.9092">and apartment deal, and the selected</text><text fill="#000000" font-family="sans-serif" font-size="13" lengthAdjust="spacing" textLength="140" x="105" y="1407.2607">regression model report.</text><!--SRC=[fLR1Rjim3BtxAuXUbWPfFo102mGDDXHeW25nTyf5jPb4g2CPaf8kGpz-b1pBicod6UQ3OKla4nz9aTJlN9HCiJtifP3PJiazWb47JBJVALdsphQuCgS2GM5ccDWMeO3UiLn-SB653Iiq9Wax62aE-pTKIV9jntE4ZPJcJVvEM6QaWfiLlH4MJ12kkW6cOJPV98HcUCPB9WpSJ6U25QS_E4V2V7rsGg_F5sIUf31A5iKPy2bTlhIb5PPISpgPerwBwJBuTHe_NsPfMuEi4zd92vv8QnOjLSP7YsqKRPZXclv9VLL_ExrLEY2vO6M9AfIlLivQrK_CRgjGQox5GkPOfASIFSfoQC_XBHVN0iwDx4UZZHgAFh_4wGUf4H9wA4_uaHbqUP40FVG1Tu-K0Z0bkNSDHWAhmW-bacI-EK5k4-7UoNi4IXgtG9gaRzDYF9v2ff0sHxVn7g5lqVHOzq9X8F4MjCinjwHm0_A8gbgoAp_GG0C33WSi45Wa9u8YjugMh_rrnzyvZbFezxvN9Q9j8pmDqhUkcjAjb1ywmA4RJa0Qs97nWhtHNLuBHXRKpjHOqDq6AV0-Fg9sOHY3Ihnxm83tMM46EC730sY-BycWWWjaoictwTHip0xXo1ItveTCDbHK0aFMekPwWHzqITQhdcT3ipwrqUrJ_Fpyz94bnbSbbx_YUYRoxrGNCwRDBrOSK8_wFJRnrWpcOvLBZytTfgEDT203e15KKnJSUeDJWTgu3TsKEMg-5KHAYb4NrTQ76jAYt4LMgek0SMP6W2qRnsFmz_mowcq7e0bOZsQF4RMlaZ0BwY0qePypmoZ4hcrftXlVoTMnjVsgWetxJ-nsrzdSajC9sCKTBgPMQRQEZGyBJA1EQXcwKlaFr6PzHhIgwg24AxEiA22dSrqPO6VVUX5VPTtDZettlY0QhdlK169FT4o8gxRz-0AZYM5VYbmk3hqERH_Ncp7juArIgEBrFy0qja3mr5mwKOlaRAYQOrjRhHYjqi2VaN6nHrTfp2yeTrGPHdwawd08orjazdahC926IzeAx8TKWgqy0mowTSGRKckrMBJgHvHIbpJZgk2xyrKwFVE2xR18YdkIp6cmubdLNKbz1pjvq7YU6koCjqSQy6ocJ5odjRfLloJLjOWd0x03k3AzqqKItZGQ-Vu2]--></g></svg>