<?xml version="1.0" encoding="UTF-8" standalone="no"?><svg xmlns="http://www.w3.org/2000/svg" xmlns:xlink="http://www.w3.org/1999/xlink" contentStyleType="text/css" height="593px" preserveAspectRatio="none" style="width:1123px;height:593px;background:#FFFFFF;" version="1.1" viewBox="0 0 1123 593" width="1123px" zoomAndPan="magnify"><defs/><g><rect fill="#FFFFFF" height="433.4766" style="stroke:#181818;stroke-width:1.0;" width="10" x="328" y="87.5703"/><rect fill="#FFFFFF" height="30" style="stroke:#181818;stroke-width:1.0;" width="10" x="483.5" y="421.6953"/><rect fill="#FFFFFF" height="137.5" style="stroke:#181818;stroke-width:1.0;" width="10" x="725" y="253.8438"/><rect fill="#FFFFFF" height="76.7969" style="stroke:#181818;stroke-width:1.0;" width="10" x="1021" y="284.1953"/><rect fill="none" height="389.125" style="stroke:#000000;stroke-width:1.5;" width="867" x="246.5" y="102.5703"/><rect fill="none" height="271.5547" style="stroke:#000000;stroke-width:1.5;" width="847" x="256.5" y="213.1406"/><line style="stroke:#181818;stroke-width:0.5;stroke-dasharray:5.0,5.0;" x1="332.5" x2="332.5" y1="55.2188" y2="539.0469"/><line style="stroke:#181818;stroke-width:0.5;stroke-dasharray:5.0,5.0;" x1="488" x2="488" y1="186.0313" y2="539.0469"/><line style="stroke:#181818;stroke-width:0.5;stroke-dasharray:5.0,5.0;" x1="729.5" x2="729.5" y1="55.2188" y2="539.0469"/><line style="stroke:#181818;stroke-width:0.5;stroke-dasharray:5.0,5.0;" x1="1025.5" x2="1025.5" y1="55.2188" y2="539.0469"/><rect fill="#E3E3E3" height="49.2188" rx="2.5" ry="2.5" style="stroke:#181818;stroke-width:0.5;" width="133" x="266.5" y="5"/><text fill="#000000" font-family="sans-serif" font-size="14" lengthAdjust="spacing" textLength="114" x="276" y="26.5332">agencyRepository</text><text fill="#000000" font-family="sans-serif" font-size="14" lengthAdjust="spacing" textLength="119" x="273.5" y="44.1426">:AgencyRepository</text><rect fill="#E3E3E3" height="49.2188" rx="2.5" ry="2.5" style="stroke:#181818;stroke-width:0.5;" width="133" x="266.5" y="538.0469"/><text fill="#000000" font-family="sans-serif" font-size="14" lengthAdjust="spacing" textLength="114" x="276" y="559.5801">agencyRepository</text><text fill="#000000" font-family="sans-serif" font-size="14" lengthAdjust="spacing" textLength="119" x="273.5" y="577.1895">:AgencyRepository</text><rect fill="#E3E3E3" height="49.2188" rx="2.5" ry="2.5" style="stroke:#181818;stroke-width:0.5;" width="143" x="417" y="538.0469"/><text fill="#000000" font-family="sans-serif" font-size="14" lengthAdjust="spacing" textLength="86" x="445.5" y="559.5801">dealsDataList</text><text fill="#000000" font-family="sans-serif" font-size="14" lengthAdjust="spacing" textLength="129" x="424" y="577.1895">: List&lt;List&lt;Double&gt;&gt;</text><rect fill="#E3E3E3" height="49.2188" rx="2.5" ry="2.5" style="stroke:#181818;stroke-width:0.5;" width="65" x="697.5" y="5"/><text fill="#000000" font-family="sans-serif" font-size="14" lengthAdjust="spacing" textLength="46" x="707" y="26.5332">agency</text><text fill="#000000" font-family="sans-serif" font-size="14" lengthAdjust="spacing" textLength="51" x="704.5" y="44.1426">:Agency</text><rect fill="#E3E3E3" height="49.2188" rx="2.5" ry="2.5" style="stroke:#181818;stroke-width:0.5;" width="65" x="697.5" y="538.0469"/><text fill="#000000" font-family="sans-serif" font-size="14" lengthAdjust="spacing" textLength="46" x="707" y="559.5801">agency</text><text fill="#000000" font-family="sans-serif" font-size="14" lengthAdjust="spacing" textLength="51" x="704.5" y="577.1895">:Agency</text><rect fill="#E3E3E3" height="49.2188" rx="2.5" ry="2.5" style="stroke:#181818;stroke-width:0.5;" width="135" x="958.5" y="5"/><text fill="#000000" font-family="sans-serif" font-size="14" lengthAdjust="spacing" textLength="116" x="968" y="26.5332">announcementList</text><text fill="#000000" font-family="sans-serif" font-size="14" lengthAdjust="spacing" textLength="121" x="965.5" y="44.1426">:AnnouncementList</text><rect fill="#E3E3E3" height="49.2188" rx="2.5" ry="2.5" style="stroke:#181818;stroke-width:0.5;" width="135" x="958.5" y="538.0469"/><text fill="#000000" font-family="sans-serif" font-size="14" lengthAdjust="spacing" textLength="116" x="968" y="559.5801">announcementList</text><text fill="#000000" font-family="sans-serif" font-size="14" lengthAdjust="spacing" textLength="121" x="965.5" y="577.1895">:AnnouncementList</text><rect fill="#FFFFFF" height="433.4766" style="stroke:#181818;stroke-width:1.0;" width="10" x="328" y="87.5703"/><rect fill="#FFFFFF" height="30" style="stroke:#181818;stroke-width:1.0;" width="10" x="483.5" y="421.6953"/><rect fill="#FFFFFF" height="137.5" style="stroke:#181818;stroke-width:1.0;" width="10" x="725" y="253.8438"/><rect fill="#FFFFFF" height="76.7969" style="stroke:#181818;stroke-width:1.0;" width="10" x="1021" y="284.1953"/><polygon fill="#181818" points="316,83.5703,326,87.5703,316,91.5703,320,87.5703" style="stroke:#181818;stroke-width:1.0;"/><line style="stroke:#181818;stroke-width:1.0;" x1="0" x2="322" y1="87.5703" y2="87.5703"/><text fill="#000000" font-family="sans-serif" font-size="13" font-weight="bold" lengthAdjust="spacing" textLength="7" x="7" y="82.7139">1</text><text fill="#000000" font-family="sans-serif" font-size="13" lengthAdjust="spacing" textLength="298" x="18" y="82.7139">getAgenciesDataList(regressionModelType,variable)</text><path d="M246.5,102.5703 L441.5,102.5703 L441.5,110.9219 L431.5,120.9219 L246.5,120.9219 L246.5,102.5703 " fill="#EEEEEE" style="stroke:#000000;stroke-width:1.5;"/><rect fill="none" height="389.125" style="stroke:#000000;stroke-width:1.5;" width="867" x="246.5" y="102.5703"/><text fill="#000000" font-family="sans-serif" font-size="13" font-weight="bold" lengthAdjust="spacing" textLength="150" x="261.5" y="117.0654">Get all data for analysis</text><polygon fill="#181818" points="405,164.2734,415,168.2734,405,172.2734,409,168.2734" style="stroke:#181818;stroke-width:1.0;"/><line style="stroke:#181818;stroke-width:1.0;" x1="338" x2="411" y1="168.2734" y2="168.2734"/><text fill="#000000" font-family="sans-serif" font-size="13" font-weight="bold" lengthAdjust="spacing" textLength="7" x="345" y="163.417">2</text><text fill="#000000" font-family="sans-serif" font-size="13" lengthAdjust="spacing" textLength="44" x="356" y="163.417">create()</text><rect fill="#E3E3E3" height="49.2188" rx="2.5" ry="2.5" style="stroke:#181818;stroke-width:0.5;" width="143" x="417" y="145.9219"/><text fill="#000000" font-family="sans-serif" font-size="14" lengthAdjust="spacing" textLength="86" x="445.5" y="167.4551">dealsDataList</text><text fill="#000000" font-family="sans-serif" font-size="14" lengthAdjust="spacing" textLength="129" x="424" y="185.0645">: List&lt;List&lt;Double&gt;&gt;</text><path d="M256.5,213.1406 L329.5,213.1406 L329.5,221.4922 L319.5,231.4922 L256.5,231.4922 L256.5,213.1406 " fill="#EEEEEE" style="stroke:#000000;stroke-width:1.5;"/><rect fill="none" height="271.5547" style="stroke:#000000;stroke-width:1.5;" width="847" x="256.5" y="213.1406"/><text fill="#000000" font-family="sans-serif" font-size="13" font-weight="bold" lengthAdjust="spacing" textLength="28" x="271.5" y="227.6357">loop</text><text fill="#000000" font-family="sans-serif" font-size="11" font-weight="bold" lengthAdjust="spacing" textLength="92" x="344.5" y="226.5596">[for all agencies]</text><polygon fill="#181818" points="713,249.8438,723,253.8438,713,257.8438,717,253.8438" style="stroke:#181818;stroke-width:1.0;"/><line style="stroke:#181818;stroke-width:1.0;" x1="338" x2="719" y1="253.8438" y2="253.8438"/><text fill="#000000" font-family="sans-serif" font-size="13" font-weight="bold" lengthAdjust="spacing" textLength="7" x="345" y="248.9873">3</text><text fill="#000000" font-family="sans-serif" font-size="13" lengthAdjust="spacing" textLength="357" x="356" y="248.9873">getAnnouncementListDealData(regressionModelType,variable)</text><polygon fill="#181818" points="1009,280.1953,1019,284.1953,1009,288.1953,1013,284.1953" style="stroke:#181818;stroke-width:1.0;"/><line style="stroke:#181818;stroke-width:1.0;" x1="735" x2="1015" y1="284.1953" y2="284.1953"/><text fill="#000000" font-family="sans-serif" font-size="13" font-weight="bold" lengthAdjust="spacing" textLength="7" x="742" y="279.3389">4</text><text fill="#000000" font-family="sans-serif" font-size="13" lengthAdjust="spacing" textLength="256" x="753" y="279.3389">getDealsData(regressionModelType,variable)</text><rect fill="none" height="41.4453" style="stroke:#000000;stroke-width:1.5;" width="162" x="955.5" y="292.1953"/><path d="M955.5,292.1953 L1017.5,292.1953 L1017.5,300.1953 L1007.5,310.1953 L955.5,310.1953 L955.5,292.1953 " fill="#EEEEEE" style="stroke:#000000;stroke-width:2.0;"/><text fill="#000000" font-family="sans-serif" font-size="13" font-weight="bold" lengthAdjust="spacing" textLength="17" x="968.5" y="307.6904">ref</text><text fill="#000000" font-family="sans-serif" font-size="12" lengthAdjust="spacing" textLength="154" x="959.5" y="326.6523">Get Data of Announcements</text><polygon fill="#181818" points="746,356.9922,736,360.9922,746,364.9922,742,360.9922" style="stroke:#181818;stroke-width:1.0;"/><line style="stroke:#181818;stroke-width:1.0;stroke-dasharray:2.0,2.0;" x1="740" x2="1025" y1="360.9922" y2="360.9922"/><text fill="#000000" font-family="sans-serif" font-size="13" font-weight="bold" lengthAdjust="spacing" textLength="7" x="752" y="356.1357">5</text><text fill="#000000" font-family="sans-serif" font-size="13" lengthAdjust="spacing" textLength="46" x="763" y="356.1357">dataList</text><polygon fill="#181818" points="349,387.3438,339,391.3438,349,395.3438,345,391.3438" style="stroke:#181818;stroke-width:1.0;"/><line style="stroke:#181818;stroke-width:1.0;stroke-dasharray:2.0,2.0;" x1="343" x2="729" y1="391.3438" y2="391.3438"/><text fill="#000000" font-family="sans-serif" font-size="13" font-weight="bold" lengthAdjust="spacing" textLength="7" x="355" y="386.4873">6</text><text fill="#000000" font-family="sans-serif" font-size="13" lengthAdjust="spacing" textLength="46" x="366" y="386.4873">dataList</text><polygon fill="#181818" points="471.5,417.6953,481.5,421.6953,471.5,425.6953,475.5,421.6953" style="stroke:#181818;stroke-width:1.0;"/><line style="stroke:#181818;stroke-width:1.0;" x1="338" x2="477.5" y1="421.6953" y2="421.6953"/><text fill="#000000" font-family="sans-serif" font-size="13" font-weight="bold" lengthAdjust="spacing" textLength="7" x="345" y="416.8389">7</text><text fill="#000000" font-family="sans-serif" font-size="13" lengthAdjust="spacing" textLength="90" x="356" y="416.8389">addAll(dataList)</text><polygon fill="#181818" points="11,517.0469,1,521.0469,11,525.0469,7,521.0469" style="stroke:#181818;stroke-width:1.0;"/><line style="stroke:#181818;stroke-width:1.0;stroke-dasharray:2.0,2.0;" x1="5" x2="332" y1="521.0469" y2="521.0469"/><text fill="#000000" font-family="sans-serif" font-size="13" font-weight="bold" lengthAdjust="spacing" textLength="7" x="17" y="516.1904">8</text><text fill="#000000" font-family="sans-serif" font-size="13" lengthAdjust="spacing" textLength="79" x="28" y="516.1904">dealsDataList</text><!--SRC=[dLJBJiCm4BpxArOz5KH_e4AL49LwWGjmvB8aszIguurifoXIFnxRQHuaLgdOGnAjrpEphzYZr1KQBA5apTd1S4dWJ4t2zYSLPaSiwDqrYi1Gvb0NQXnW3vZpjzG5x55P4iAxdSnaXTh1mb_LMVD65Llfs3IVUlqqSIq0BKoTlr5oyj1RTFWYhVCG4DwFyR7b-alHPjEYADL5fMJqv6tmxdaIf3NNEgEIjBiGFKrSxSMBCz88WRLZNPTVPCHgCqi4rb2GYrv9VGvBGuKXQoNhLyv9VJGLFPpGIFJ9t0dmXfcJ9tGqBuqe3DSLxCW1AWMvnuGz6q2Dgh7Inkldypc-Ptg2ng5Cz_TUO6R84otlHBmHJJ5NBQXdm8lwuRYr9FRk-PBof7HRtyF0UaFg8nkguBibPW8yMU0SDQGbttO3yr-sSOiXOORsm2SoVqT62xqASe3tC2wCJLuXdGU2URhZF5TziVDkv2VXVckI-IIhc1xTMw13OsuPZ67eF33ckNSiE_mhdHYjz1KHoQXk1uQgXh4M8dp57UfF7rUhkUYG__Z78rB4i-Ny0G00]--></g></svg>