<?xml version="1.0" encoding="UTF-8" standalone="no"?><svg xmlns="http://www.w3.org/2000/svg" xmlns:xlink="http://www.w3.org/1999/xlink" contentStyleType="text/css" height="498px" preserveAspectRatio="none" style="width:441px;height:498px;background:#FFFFFF;" version="1.1" viewBox="0 0 441 498" width="441px" zoomAndPan="magnify"><defs/><g><text fill="#000000" font-family="sans-serif" font-size="14" font-weight="bold" lengthAdjust="spacing" textLength="351" x="44" y="29.5332">System Sequence Diagram (SSD) - Alternative One</text><rect fill="#FFFFFF" height="276.5156" style="stroke:#181818;stroke-width:1.0;" width="10" x="76" y="131.2188"/><rect fill="#FFFFFF" height="30.3516" style="stroke:#181818;stroke-width:1.0;" width="10" x="398" y="153.5703"/><rect fill="#FFFFFF" height="30.3516" style="stroke:#181818;stroke-width:1.0;" width="10" x="398" y="246.9766"/><rect fill="#FFFFFF" height="30.3516" style="stroke:#181818;stroke-width:1.0;" width="10" x="398" y="307.6797"/><rect fill="#FFFFFF" height="30.3516" style="stroke:#181818;stroke-width:1.0;" width="10" x="398" y="368.3828"/><line style="stroke:#181818;stroke-width:0.5;stroke-dasharray:5.0,5.0;" x1="81" x2="81" y1="121.2188" y2="416.7344"/><line style="stroke:#181818;stroke-width:0.5;stroke-dasharray:5.0,5.0;" x1="403" x2="403" y1="121.2188" y2="416.7344"/><text fill="#000000" font-family="sans-serif" font-size="14" lengthAdjust="spacing" textLength="146" x="5" y="118.1426">Organization Employee</text><ellipse cx="81" cy="52.1094" fill="#E3E3E3" rx="8" ry="8" style="stroke:#181818;stroke-width:0.5;"/><path d="M81,60.1094 L81,87.1094 M68,68.1094 L94,68.1094 M81,87.1094 L68,102.1094 M81,87.1094 L94,102.1094 " fill="none" style="stroke:#181818;stroke-width:0.5;"/><text fill="#000000" font-family="sans-serif" font-size="14" lengthAdjust="spacing" textLength="146" x="5" y="430.2676">Organization Employee</text><ellipse cx="81" cy="441.8438" fill="#E3E3E3" rx="8" ry="8" style="stroke:#181818;stroke-width:0.5;"/><path d="M81,449.8438 L81,476.8438 M68,457.8438 L94,457.8438 M81,476.8438 L68,491.8438 M81,476.8438 L94,491.8438 " fill="none" style="stroke:#181818;stroke-width:0.5;"/><rect fill="#E3E3E3" height="31.6094" rx="2.5" ry="2.5" style="stroke:#181818;stroke-width:0.5;" width="64" x="371" y="88.6094"/><text fill="#000000" font-family="sans-serif" font-size="14" lengthAdjust="spacing" textLength="50" x="378" y="110.1426">:System</text><rect fill="#E3E3E3" height="31.6094" rx="2.5" ry="2.5" style="stroke:#181818;stroke-width:0.5;" width="64" x="371" y="415.7344"/><text fill="#000000" font-family="sans-serif" font-size="14" lengthAdjust="spacing" textLength="50" x="378" y="437.2676">:System</text><rect fill="#FFFFFF" height="276.5156" style="stroke:#181818;stroke-width:1.0;" width="10" x="76" y="131.2188"/><rect fill="#FFFFFF" height="30.3516" style="stroke:#181818;stroke-width:1.0;" width="10" x="398" y="153.5703"/><rect fill="#FFFFFF" height="30.3516" style="stroke:#181818;stroke-width:1.0;" width="10" x="398" y="246.9766"/><rect fill="#FFFFFF" height="30.3516" style="stroke:#181818;stroke-width:1.0;" width="10" x="398" y="307.6797"/><rect fill="#FFFFFF" height="30.3516" style="stroke:#181818;stroke-width:1.0;" width="10" x="398" y="368.3828"/><polygon fill="#181818" points="386,149.5703,396,153.5703,386,157.5703,390,153.5703" style="stroke:#181818;stroke-width:1.0;"/><line style="stroke:#181818;stroke-width:1.0;" x1="86" x2="392" y1="153.5703" y2="153.5703"/><text fill="#000000" font-family="sans-serif" font-size="13" font-weight="bold" lengthAdjust="spacing" textLength="7" x="93" y="148.7139">1</text><text fill="#000000" font-family="sans-serif" font-size="13" lengthAdjust="spacing" textLength="150" x="104" y="148.7139">asks to create a new task</text><polygon fill="#181818" points="97,179.9219,87,183.9219,97,187.9219,93,183.9219" style="stroke:#181818;stroke-width:1.0;"/><line style="stroke:#181818;stroke-width:1.0;stroke-dasharray:2.0,2.0;" x1="91" x2="402" y1="183.9219" y2="183.9219"/><text fill="#000000" font-family="sans-serif" font-size="13" font-weight="bold" lengthAdjust="spacing" textLength="7" x="103" y="179.0654">2</text><text fill="#000000" font-family="sans-serif" font-size="13" lengthAdjust="spacing" textLength="79" x="114" y="179.0654">requests data</text><polygon fill="#181818" points="386,242.9766,396,246.9766,386,250.9766,390,246.9766" style="stroke:#181818;stroke-width:1.0;"/><line style="stroke:#181818;stroke-width:1.0;" x1="86" x2="392" y1="246.9766" y2="246.9766"/><text fill="#000000" font-family="sans-serif" font-size="13" font-weight="bold" lengthAdjust="spacing" textLength="7" x="93" y="225.7686">3</text><text fill="#000000" font-family="sans-serif" font-size="13" lengthAdjust="spacing" textLength="258" x="104" y="209.417">types requested data (reference, description,</text><text fill="#000000" font-family="sans-serif" font-size="13" lengthAdjust="spacing" textLength="243" x="104" y="225.7686">informal description, technical description,</text><text fill="#000000" font-family="sans-serif" font-size="13" lengthAdjust="spacing" textLength="83" x="104" y="242.1201">duration, cost)</text><polygon fill="#181818" points="97,273.3281,87,277.3281,97,281.3281,93,277.3281" style="stroke:#181818;stroke-width:1.0;"/><line style="stroke:#181818;stroke-width:1.0;stroke-dasharray:2.0,2.0;" x1="91" x2="402" y1="277.3281" y2="277.3281"/><text fill="#000000" font-family="sans-serif" font-size="13" font-weight="bold" lengthAdjust="spacing" textLength="7" x="103" y="272.4717">4</text><text fill="#000000" font-family="sans-serif" font-size="13" lengthAdjust="spacing" textLength="277" x="114" y="272.4717">shows task category list and asks to select one</text><polygon fill="#181818" points="386,303.6797,396,307.6797,386,311.6797,390,307.6797" style="stroke:#181818;stroke-width:1.0;"/><line style="stroke:#181818;stroke-width:1.0;" x1="86" x2="392" y1="307.6797" y2="307.6797"/><text fill="#000000" font-family="sans-serif" font-size="13" font-weight="bold" lengthAdjust="spacing" textLength="7" x="93" y="302.8232">5</text><text fill="#000000" font-family="sans-serif" font-size="13" lengthAdjust="spacing" textLength="136" x="104" y="302.8232">selects a task category</text><polygon fill="#181818" points="97,334.0313,87,338.0313,97,342.0313,93,338.0313" style="stroke:#181818;stroke-width:1.0;"/><line style="stroke:#181818;stroke-width:1.0;stroke-dasharray:2.0,2.0;" x1="91" x2="402" y1="338.0313" y2="338.0313"/><text fill="#000000" font-family="sans-serif" font-size="13" font-weight="bold" lengthAdjust="spacing" textLength="7" x="103" y="333.1748">6</text><text fill="#000000" font-family="sans-serif" font-size="13" lengthAdjust="spacing" textLength="144" x="114" y="333.1748">shows selected category</text><polygon fill="#181818" points="386,364.3828,396,368.3828,386,372.3828,390,368.3828" style="stroke:#181818;stroke-width:1.0;"/><line style="stroke:#181818;stroke-width:1.0;" x1="86" x2="392" y1="368.3828" y2="368.3828"/><text fill="#000000" font-family="sans-serif" font-size="13" font-weight="bold" lengthAdjust="spacing" textLength="7" x="93" y="363.5264">7</text><text fill="#000000" font-family="sans-serif" font-size="13" lengthAdjust="spacing" textLength="75" x="104" y="363.5264">submits data</text><polygon fill="#181818" points="97,394.7344,87,398.7344,97,402.7344,93,398.7344" style="stroke:#181818;stroke-width:1.0;"/><line style="stroke:#181818;stroke-width:1.0;stroke-dasharray:2.0,2.0;" x1="91" x2="402" y1="398.7344" y2="398.7344"/><text fill="#000000" font-family="sans-serif" font-size="13" font-weight="bold" lengthAdjust="spacing" textLength="7" x="103" y="393.8779">8</text><text fill="#000000" font-family="sans-serif" font-size="13" lengthAdjust="spacing" textLength="158" x="114" y="393.8779">displays operation success</text><!--SRC=[dP8nRy8m48Nt_8eJ4qZm1nWgLQ8pGzOkXtCa5iuvzLr0wQ_l9I4fL7G0JxRptkVdvyZ9SuC9QwWZHrUbM1DeQYcJ-Kk3xeGbvTe5WaHEaSjmAv0AYtZnNC8HWr2MgLUJvfqerP3JLqli27OUorw-pFFT2ZRm7fGIe_epmPxDXgr6Rki39PixZGaM-rGY-syJHOQFkWcn8re0ohp8B8DwvnjaXSLsF7HGZDC1vS-ez6l9mCQqWitR57LhjfE0Hd29UWS2qmNKTWVBJ9hGS1rN_yPGCtPhNTdDHGKAL1oq1Jr4F8oYNKCoCQWO8B1CTAJKrxascBZacxwQDNoovsDCDORxVILNiNT_jZ-vQ1EE2XT5LwzSJwfuaQ4SSEOgO-eWU550BkOYXOBzCH3jVPyjOBIAFSBT6Qz77O5MvHtggKZjeVQt3_faZi9B4x0JY0sD_HlIEHBv9yeF]--></g></svg>