<?xml version="1.0" encoding="UTF-8" standalone="no"?><svg xmlns="http://www.w3.org/2000/svg" xmlns:xlink="http://www.w3.org/1999/xlink" contentStyleType="text/css" height="1512px" preserveAspectRatio="none" style="width:1099px;height:1512px;background:#FFFFFF;" version="1.1" viewBox="0 0 1099 1512" width="1099px" zoomAndPan="magnify"><defs/><g><!--class Agency--><g id="elem_Agency"><rect codeLine="10" fill="#F1F1F1" height="106.0469" id="Agency" rx="2.5" ry="2.5" style="stroke:#181818;stroke-width:0.5;" width="101" x="282.8326" y="935"/><text fill="#000000" font-family="sans-serif" font-size="14" lengthAdjust="spacing" textLength="47" x="309.8326" y="954.5332">Agency</text><line style="stroke:#181818;stroke-width:0.5;" x1="283.8326" x2="382.8326" y1="962.6094" y2="962.6094"/><text fill="#000000" font-family="sans-serif" font-size="14" lengthAdjust="spacing" textLength="11" x="288.8326" y="981.1426">id</text><text fill="#000000" font-family="sans-serif" font-size="14" lengthAdjust="spacing" textLength="73" x="288.8326" y="998.752">designation</text><text fill="#000000" font-family="sans-serif" font-size="14" lengthAdjust="spacing" textLength="85" x="288.8326" y="1016.3613">emailAddress</text><text fill="#000000" font-family="sans-serif" font-size="14" lengthAdjust="spacing" textLength="89" x="288.8326" y="1033.9707">phoneNumber</text></g><!--class Employee--><g id="elem_Employee"><rect codeLine="17" fill="#F1F1F1" height="35.6094" id="Employee" rx="2.5" ry="2.5" style="stroke:#181818;stroke-width:0.5;" width="68" x="299.3326" y="821"/><text fill="#000000" font-family="sans-serif" font-size="14" lengthAdjust="spacing" textLength="62" x="302.3326" y="840.5332">Employee</text><line style="stroke:#181818;stroke-width:0.5;" x1="300.3326" x2="366.3326" y1="848.6094" y2="848.6094"/></g><!--class Person--><g id="elem_Person"><rect codeLine="20" fill="#F1F1F1" height="123.6563" id="Person" rx="2.5" ry="2.5" style="stroke:#181818;stroke-width:0.5;" width="147" x="708.8326" y="619"/><text fill="#000000" font-family="sans-serif" font-size="14" lengthAdjust="spacing" textLength="45" x="759.8326" y="638.5332">Person</text><line style="stroke:#181818;stroke-width:0.5;" x1="709.8326" x2="854.8326" y1="646.6094" y2="646.6094"/><text fill="#000000" font-family="sans-serif" font-size="14" lengthAdjust="spacing" textLength="35" x="714.8326" y="665.1426">name</text><text fill="#000000" font-family="sans-serif" font-size="14" lengthAdjust="spacing" textLength="33" x="714.8326" y="682.752">email</text><text fill="#000000" font-family="sans-serif" font-size="14" lengthAdjust="spacing" textLength="135" x="714.8326" y="700.3613">passportCardNumber</text><text fill="#000000" font-family="sans-serif" font-size="14" lengthAdjust="spacing" textLength="67" x="714.8326" y="717.9707">taxNumber</text><text fill="#000000" font-family="sans-serif" font-size="14" lengthAdjust="spacing" textLength="89" x="714.8326" y="735.5801">phoneNumber</text></g><!--class Owner--><g id="elem_Owner"><rect codeLine="28" fill="#F1F1F1" height="35.6094" id="Owner" rx="2.5" ry="2.5" style="stroke:#181818;stroke-width:0.5;" width="47" x="644.8326" y="356.5"/><text fill="#000000" font-family="sans-serif" font-size="14" lengthAdjust="spacing" textLength="41" x="647.8326" y="376.0332">Owner</text><line style="stroke:#181818;stroke-width:0.5;" x1="645.8326" x2="690.8326" y1="384.1094" y2="384.1094"/></g><!--class Agent--><g id="elem_Agent"><rect codeLine="31" fill="#F1F1F1" height="35.6094" id="Agent" rx="2.5" ry="2.5" style="stroke:#181818;stroke-width:0.5;" width="43" x="116.8326" y="33"/><text fill="#000000" font-family="sans-serif" font-size="14" lengthAdjust="spacing" textLength="37" x="119.8326" y="52.5332">Agent</text><line style="stroke:#181818;stroke-width:0.5;" x1="117.8326" x2="158.8326" y1="60.6094" y2="60.6094"/></g><!--class Announcement--><g id="elem_Announcement"><rect codeLine="36" fill="#F1F1F1" height="88.4375" id="Announcement" rx="2.5" ry="2.5" style="stroke:#181818;stroke-width:0.5;" width="115" x="275.8326" y="1137"/><text fill="#000000" font-family="sans-serif" font-size="14" lengthAdjust="spacing" textLength="95" x="285.8326" y="1156.5332">Announcement</text><line style="stroke:#181818;stroke-width:0.5;" x1="276.8326" x2="389.8326" y1="1164.6094" y2="1164.6094"/><text fill="#000000" font-family="sans-serif" font-size="14" lengthAdjust="spacing" textLength="11" x="281.8326" y="1183.1426">id</text><text fill="#000000" font-family="sans-serif" font-size="14" lengthAdjust="spacing" textLength="103" x="281.8326" y="1200.752">acceptanceDate</text><text fill="#000000" font-family="sans-serif" font-size="14" lengthAdjust="spacing" textLength="56" x="281.8326" y="1218.3613">saleDate</text></g><!--class Property--><g id="elem_Property"><rect codeLine="43" fill="#F1F1F1" height="70.8281" id="Property" rx="2.5" ry="2.5" style="stroke:#181818;stroke-width:0.5;" width="132" x="843.3326" y="339"/><text fill="#000000" font-family="sans-serif" font-size="14" lengthAdjust="spacing" textLength="54" x="882.3326" y="358.5332">Property</text><line style="stroke:#181818;stroke-width:0.5;" x1="844.3326" x2="974.3326" y1="366.6094" y2="366.6094"/><text fill="#000000" font-family="sans-serif" font-size="14" lengthAdjust="spacing" textLength="29" x="849.3326" y="385.1426">area</text><text fill="#000000" font-family="sans-serif" font-size="14" lengthAdjust="spacing" textLength="120" x="849.3326" y="402.752">distanceCityCenter</text></g><!--class Residence--><g id="elem_Residence"><rect codeLine="48" fill="#F1F1F1" height="88.4375" id="Residence" rx="2.5" ry="2.5" style="stroke:#181818;stroke-width:0.5;" width="128" x="826.3326" y="173"/><text fill="#000000" font-family="sans-serif" font-size="14" lengthAdjust="spacing" textLength="67" x="856.8326" y="192.5332">Residence</text><line style="stroke:#181818;stroke-width:0.5;" x1="827.3326" x2="953.3326" y1="200.6094" y2="200.6094"/><text fill="#000000" font-family="sans-serif" font-size="14" lengthAdjust="spacing" textLength="112" x="832.3326" y="219.1426">numberBedrooms</text><text fill="#000000" font-family="sans-serif" font-size="14" lengthAdjust="spacing" textLength="116" x="832.3326" y="236.752">numberBathrooms</text><text fill="#000000" font-family="sans-serif" font-size="14" lengthAdjust="spacing" textLength="87" x="832.3326" y="254.3613">parkingSpace</text></g><!--class AvailableEquipment--><g id="elem_AvailableEquipment"><rect codeLine="54" fill="#F1F1F1" height="53.2188" id="AvailableEquipment" rx="2.5" ry="2.5" style="stroke:#181818;stroke-width:0.5;" width="130" x="598.3326" y="190.5"/><text fill="#000000" font-family="sans-serif" font-size="14" lengthAdjust="spacing" textLength="124" x="601.3326" y="210.0332">AvailableEquipment</text><line style="stroke:#181818;stroke-width:0.5;" x1="599.3326" x2="727.3326" y1="218.1094" y2="218.1094"/><text fill="#000000" font-family="sans-serif" font-size="14" lengthAdjust="spacing" textLength="69" x="604.3326" y="236.6426">description</text></g><!--class House--><g id="elem_House"><rect codeLine="58" fill="#F1F1F1" height="88.4375" id="House" rx="2.5" ry="2.5" style="stroke:#181818;stroke-width:0.5;" width="105" x="837.8326" y="7"/><text fill="#000000" font-family="sans-serif" font-size="14" lengthAdjust="spacing" textLength="40" x="870.3326" y="26.5332">House</text><line style="stroke:#181818;stroke-width:0.5;" x1="838.8326" x2="941.8326" y1="34.6094" y2="34.6094"/><text fill="#000000" font-family="sans-serif" font-size="14" lengthAdjust="spacing" textLength="62" x="843.8326" y="53.1426">basement</text><text fill="#000000" font-family="sans-serif" font-size="14" lengthAdjust="spacing" textLength="93" x="843.8326" y="70.752">inhabitableLoft</text><text fill="#000000" font-family="sans-serif" font-size="14" lengthAdjust="spacing" textLength="82" x="843.8326" y="88.3613">sunExposure</text></g><!--class PropertyType--><g id="elem_PropertyType"><rect codeLine="64" fill="#F1F1F1" height="53.2188" id="PropertyType" rx="2.5" ry="2.5" style="stroke:#181818;stroke-width:0.5;" width="92" x="989.3326" y="190.5"/><text fill="#000000" font-family="sans-serif" font-size="14" lengthAdjust="spacing" textLength="86" x="992.3326" y="210.0332">PropertyType</text><line style="stroke:#181818;stroke-width:0.5;" x1="990.3326" x2="1080.3326" y1="218.1094" y2="218.1094"/><text fill="#000000" font-family="sans-serif" font-size="14" lengthAdjust="spacing" textLength="73" x="995.3326" y="236.6426">designation</text></g><!--class Photograph--><g id="elem_Photograph"><rect codeLine="68" fill="#F1F1F1" height="53.2188" id="Photograph" rx="2.5" ry="2.5" style="stroke:#181818;stroke-width:0.5;" width="80" x="747.3326" y="488"/><text fill="#000000" font-family="sans-serif" font-size="14" lengthAdjust="spacing" textLength="74" x="750.3326" y="507.5332">Photograph</text><line style="stroke:#181818;stroke-width:0.5;" x1="748.3326" x2="826.3326" y1="515.6094" y2="515.6094"/><text fill="#000000" font-family="sans-serif" font-size="14" lengthAdjust="spacing" textLength="16" x="753.3326" y="534.1426">uri</text></g><!--class Location--><g id="elem_Location"><rect codeLine="72" fill="#F1F1F1" height="123.6563" id="Location" rx="2.5" ry="2.5" style="stroke:#181818;stroke-width:0.5;" width="84" x="740.3326" y="1119"/><text fill="#000000" font-family="sans-serif" font-size="14" lengthAdjust="spacing" textLength="54" x="755.3326" y="1138.5332">Location</text><line style="stroke:#181818;stroke-width:0.5;" x1="741.3326" x2="823.3326" y1="1146.6094" y2="1146.6094"/><text fill="#000000" font-family="sans-serif" font-size="14" lengthAdjust="spacing" textLength="72" x="746.3326" y="1165.1426">streetName</text><text fill="#000000" font-family="sans-serif" font-size="14" lengthAdjust="spacing" textLength="21" x="746.3326" y="1182.752">city</text><text fill="#000000" font-family="sans-serif" font-size="14" lengthAdjust="spacing" textLength="41" x="746.3326" y="1200.3613">district</text><text fill="#000000" font-family="sans-serif" font-size="14" lengthAdjust="spacing" textLength="31" x="746.3326" y="1217.9707">state</text><text fill="#000000" font-family="sans-serif" font-size="14" lengthAdjust="spacing" textLength="51" x="746.3326" y="1235.5801">zipCode</text></g><!--class Business--><g id="elem_Business"><rect codeLine="80" fill="#F1F1F1" height="53.2188" id="Business" rx="2.5" ry="2.5" style="stroke:#181818;stroke-width:0.5;" width="63" x="471.8326" y="348"/><text fill="#000000" font-family="sans-serif" font-size="14" lengthAdjust="spacing" textLength="57" x="474.8326" y="367.5332">Business</text><line style="stroke:#181818;stroke-width:0.5;" x1="472.8326" x2="533.8326" y1="375.6094" y2="375.6094"/><text fill="#000000" font-family="sans-serif" font-size="14" lengthAdjust="spacing" textLength="31" x="477.8326" y="394.1426">price</text></g><!--class BusinessType--><g id="elem_BusinessType"><rect codeLine="84" fill="#F1F1F1" height="53.2188" id="BusinessType" rx="2.5" ry="2.5" style="stroke:#181818;stroke-width:0.5;" width="95" x="270.8326" y="348"/><text fill="#000000" font-family="sans-serif" font-size="14" lengthAdjust="spacing" textLength="89" x="273.8326" y="367.5332">BusinessType</text><line style="stroke:#181818;stroke-width:0.5;" x1="271.8326" x2="364.8326" y1="375.6094" y2="375.6094"/><text fill="#000000" font-family="sans-serif" font-size="14" lengthAdjust="spacing" textLength="73" x="276.8326" y="394.1426">designation</text></g><!--class Lease--><g id="elem_Lease"><rect codeLine="88" fill="#F1F1F1" height="53.2188" id="Lease" rx="2.5" ry="2.5" style="stroke:#181818;stroke-width:0.5;" width="117" x="417.8326" y="488"/><text fill="#000000" font-family="sans-serif" font-size="14" lengthAdjust="spacing" textLength="39" x="456.8326" y="507.5332">Lease</text><line style="stroke:#181818;stroke-width:0.5;" x1="418.8326" x2="533.8326" y1="515.6094" y2="515.6094"/><text fill="#000000" font-family="sans-serif" font-size="14" lengthAdjust="spacing" textLength="105" x="423.8326" y="534.1426">contractDuration</text></g><!--class Commission--><g id="elem_Commission"><rect codeLine="92" fill="#F1F1F1" height="53.2188" id="Commission" rx="2.5" ry="2.5" style="stroke:#181818;stroke-width:0.5;" width="121" x="272.8326" y="1321"/><text fill="#000000" font-family="sans-serif" font-size="14" lengthAdjust="spacing" textLength="76" x="295.3326" y="1340.5332">Commission</text><line style="stroke:#181818;stroke-width:0.5;" x1="273.8326" x2="392.8326" y1="1348.6094" y2="1348.6094"/><text fill="#000000" font-family="sans-serif" font-size="14" lengthAdjust="spacing" textLength="109" x="278.8326" y="1367.1426">commissionValue</text></g><!--class CommissionType--><g id="elem_CommissionType"><rect codeLine="96" fill="#F1F1F1" height="53.2188" id="CommissionType" rx="2.5" ry="2.5" style="stroke:#181818;stroke-width:0.5;" width="114" x="276.3326" y="1452"/><text fill="#000000" font-family="sans-serif" font-size="14" lengthAdjust="spacing" textLength="108" x="279.3326" y="1471.5332">CommissionType</text><line style="stroke:#181818;stroke-width:0.5;" x1="277.3326" x2="389.3326" y1="1479.6094" y2="1479.6094"/><text fill="#000000" font-family="sans-serif" font-size="14" lengthAdjust="spacing" textLength="73" x="282.3326" y="1498.1426">designation</text></g><!--class Request--><g id="elem_Request"><rect codeLine="100" fill="#F1F1F1" height="70.8281" id="Request" rx="2.5" ry="2.5" style="stroke:#181818;stroke-width:0.5;" width="90" x="436.3326" y="181.5"/><text fill="#000000" font-family="sans-serif" font-size="14" lengthAdjust="spacing" textLength="53" x="454.8326" y="201.0332">Request</text><line style="stroke:#181818;stroke-width:0.5;" x1="437.3326" x2="525.3326" y1="209.1094" y2="209.1094"/><text fill="#000000" font-family="sans-serif" font-size="14" lengthAdjust="spacing" textLength="11" x="442.3326" y="227.6426">id</text><text fill="#000000" font-family="sans-serif" font-size="14" lengthAdjust="spacing" textLength="78" x="442.3326" y="245.252">requestDate</text></g><!--class Customer--><g id="elem_Customer"><rect fill="#F1F1F1" height="35.6094" id="Customer" rx="2.5" ry="2.5" style="stroke:#181818;stroke-width:0.5;" width="67" x="643.8326" y="496.5"/><text fill="#000000" font-family="sans-serif" font-size="14" lengthAdjust="spacing" textLength="61" x="646.8326" y="516.0332">Customer</text><line style="stroke:#181818;stroke-width:0.5;" x1="644.8326" x2="709.8326" y1="524.1094" y2="524.1094"/></g><!--link Person to Employee--><g id="link_Person_Employee"><path codeLine="106" d="M708.8326,729.55 C699.7626,734.47 690.4626,739.09 681.3326,743 C571.1026,790.25 431.0526,819.97 367.4826,831.94 " fill="none" id="Person-Employee" style="stroke:#181818;stroke-width:1.0;"/><polygon fill="#000000" points="607.1218,780.7392,597.6137,780.523,599.3024,786.153,607.1218,780.7392" style="stroke:#000000;stroke-width:1.0;"/><text fill="#000000" font-family="sans-serif" font-size="13" lengthAdjust="spacing" textLength="82" x="611.3326" y="787.4951">represented in</text><text fill="#000000" font-family="sans-serif" font-size="13" lengthAdjust="spacing" textLength="7" x="693.892" y="731.2627">1</text><text fill="#000000" font-family="sans-serif" font-size="13" lengthAdjust="spacing" textLength="7" x="375.2479" y="826.4055">1</text></g><!--link Agent to Employee--><g id="link_Agent_Employee"><path codeLine="107" d="M138.3326,69.24 C138.3326,99.12 138.3326,162.47 138.3326,216 C138.3326,216 138.3326,216 138.3326,682 C138.3326,763.29 242.9426,809.19 298.9226,827.93 " fill="none" id="Agent-Employee" style="stroke:#181818;stroke-width:1.0;"/><polygon fill="#000000" points="142.2972,444.2842,141.295,453.7418,147.0455,452.5246,142.2972,444.2842" style="stroke:#000000;stroke-width:1.0;"/><text fill="#000000" font-family="sans-serif" font-size="13" lengthAdjust="spacing" textLength="49" x="152.3326" y="454.4951">plays as</text><text fill="#000000" font-family="sans-serif" font-size="13" lengthAdjust="spacing" textLength="20" x="115.5201" y="90.2195">0..*</text><text fill="#000000" font-family="sans-serif" font-size="13" lengthAdjust="spacing" textLength="7" x="284.1036" y="821.5685">1</text></g><!--link Agent to Announcement--><g id="link_Agent_Announcement"><path codeLine="108" d="M116.5626,66.32 C80.7426,91.8 13.3326,148.7 13.3326,216 C13.3326,216 13.3326,216 13.3326,989 C13.3326,1109.83 183.6226,1156.01 275.7526,1172.16 " fill="none" id="Agent-Announcement" style="stroke:#181818;stroke-width:1.0;"/><polygon fill="#000000" points="17.6201,575.2268,16,584.5983,21.8179,583.7608,17.6201,575.2268" style="stroke:#000000;stroke-width:1.0;"/><text fill="#000000" font-family="sans-serif" font-size="13" lengthAdjust="spacing" textLength="87" x="27.3326" y="585.4951">is published by</text><text fill="#000000" font-family="sans-serif" font-size="13" lengthAdjust="spacing" textLength="7" x="101.8236" y="66.1705">1</text><text fill="#000000" font-family="sans-serif" font-size="13" lengthAdjust="spacing" textLength="5" x="262.6793" y="1167.3865">*</text></g><!--link Customer to Person--><g id="link_Customer_Person"><path codeLine="109" d="M688.3726,532.79 C701.3726,553.17 723.7026,588.14 743.3226,618.89 " fill="none" id="Customer-Person" style="stroke:#181818;stroke-width:1.0;"/><polygon fill="#000000" points="731.0225,584.3906,728.6338,575.1849,723.679,578.347,731.0225,584.3906" style="stroke:#000000;stroke-width:1.0;"/><text fill="#000000" font-family="sans-serif" font-size="13" lengthAdjust="spacing" textLength="82" x="737.3326" y="585.4951">represented in</text><text fill="#000000" font-family="sans-serif" font-size="13" lengthAdjust="spacing" textLength="7" x="683.399" y="553.4503">1</text><text fill="#000000" font-family="sans-serif" font-size="13" lengthAdjust="spacing" textLength="7" x="731.4074" y="608.3188">1</text></g><!--link Owner to Customer--><g id="link_Owner_Customer"><path codeLine="110" d="M669.4526,392.7 C671.1826,419.14 674.4626,469.51 676.1926,496.08 " fill="none" id="Owner-Customer" style="stroke:#181818;stroke-width:1.0;"/><polygon fill="#000000" points="678.0073,444.1864,675.663,453.4035,681.5284,453.0211,678.0073,444.1864" style="stroke:#000000;stroke-width:1.0;"/><text fill="#000000" font-family="sans-serif" font-size="13" lengthAdjust="spacing" textLength="49" x="687.3326" y="454.4951">plays as</text><text fill="#000000" font-family="sans-serif" font-size="13" lengthAdjust="spacing" textLength="20" x="646.9551" y="413.6682">0..*</text></g><!--link Request to Owner--><g id="link_Request_Owner"><path codeLine="111" d="M526.5426,238.47 C551.9526,251.32 583.3026,269.51 607.3326,291 C628.9726,310.35 647.7926,338.51 658.6026,356.41 " fill="none" id="Request-Owner" style="stroke:#181818;stroke-width:1.0;"/><polygon fill="#000000" points="623.6033,296.8452,628.392,305.0623,632.3073,300.6782,623.6033,296.8452" style="stroke:#000000;stroke-width:1.0;"/><text fill="#000000" font-family="sans-serif" font-size="13" lengthAdjust="spacing" textLength="46" x="636.3326" y="305.4951">submits</text><text fill="#000000" font-family="sans-serif" font-size="13" lengthAdjust="spacing" textLength="5" x="534.4445" y="238.2394">*</text><text fill="#000000" font-family="sans-serif" font-size="13" lengthAdjust="spacing" textLength="7" x="647.3855" y="345.7072">1</text></g><!--link Residence to Property--><g id="link_Residence_Property"><path codeLine="112" d="M895.6226,261.32 C897.7926,279.08 900.3326,299.84 902.6326,318.64 " fill="none" id="Residence-to-Property" style="stroke:#181818;stroke-width:1.0;"/><polygon fill="none" points="909.6126,318.07,905.0926,338.77,895.7126,319.77,909.6126,318.07" style="stroke:#181818;stroke-width:1.0;"/></g><!--link House to Residence--><g id="link_House_Residence"><path codeLine="113" d="M890.3326,95.09 C890.3326,112.72 890.3326,133.48 890.3326,152.77 " fill="none" id="House-to-Residence" style="stroke:#181818;stroke-width:1.0;"/><polygon fill="none" points="897.3326,152.91,890.3326,172.91,883.3326,152.91,897.3326,152.91" style="stroke:#181818;stroke-width:1.0;"/></g><!--link Employee to Agency--><g id="link_Employee_Agency"><path codeLine="114" d="M333.3326,857.15 C333.3326,876.16 333.3326,907.74 333.3326,934.99 " fill="none" id="Employee-Agency" style="stroke:#181818;stroke-width:1.0;"/><polygon fill="#000000" points="338.3326,901.1758,341.2715,892.1307,335.3936,892.1307,338.3326,901.1758" style="stroke:#000000;stroke-width:1.0;"/><text fill="#000000" font-family="sans-serif" font-size="13" lengthAdjust="spacing" textLength="48" x="347.3326" y="901.4951">works in</text><text fill="#000000" font-family="sans-serif" font-size="13" lengthAdjust="spacing" textLength="7" x="325.3482" y="878.1042">1</text><text fill="#000000" font-family="sans-serif" font-size="13" lengthAdjust="spacing" textLength="7" x="325.8623" y="924.3074">1</text></g><!--link PropertyType to Property--><g id="link_PropertyType_Property"><path codeLine="115" d="M1014.5226,243.68 C993.4826,269.64 960.8326,309.95 937.4826,338.76 " fill="none" id="PropertyType-Property" style="stroke:#181818;stroke-width:1.0;"/><polygon fill="#000000" points="977.1848,304.0606,985.1626,298.8831,980.5957,295.1827,977.1848,304.0606" style="stroke:#000000;stroke-width:1.0;"/><text fill="#000000" font-family="sans-serif" font-size="13" lengthAdjust="spacing" textLength="102" x="989.3326" y="305.4951">is a description of</text><text fill="#000000" font-family="sans-serif" font-size="13" lengthAdjust="spacing" textLength="7" x="1001.9009" y="265.2102">1</text><text fill="#000000" font-family="sans-serif" font-size="13" lengthAdjust="spacing" textLength="7" x="935.0274" y="328.2388">1</text></g><!--link Property to Photograph--><g id="link_Property_Photograph"><path codeLine="116" d="M843.1026,393.92 C820.4326,403.74 797.4826,418.42 784.3326,440 C775.6926,454.18 776.6026,472.91 779.5926,487.92 " fill="none" id="Property-Photograph" style="stroke:#181818;stroke-width:1.0;"/><polygon fill="#000000" points="786.5334,453.3188,794.0324,447.4693,789.162,444.1787,786.5334,453.3188" style="stroke:#000000;stroke-width:1.0;"/><text fill="#000000" font-family="sans-serif" font-size="13" lengthAdjust="spacing" textLength="84" x="798.3326" y="454.4951">is visualized in</text><text fill="#000000" font-family="sans-serif" font-size="13" lengthAdjust="spacing" textLength="7" x="828.4759" y="392.6928">1</text><text fill="#000000" font-family="sans-serif" font-size="13" lengthAdjust="spacing" textLength="20" x="755.2685" y="477.0024">1..*</text></g><!--link Property to Location--><g id="link_Property_Location"><path codeLine="117" d="M909.3326,410.1 C909.3326,438.01 909.3326,478.28 909.3326,513.5 C909.3326,513.5 909.3326,513.5 909.3326,989 C909.3326,1051.52 861.5626,1109.19 824.6226,1144.45 " fill="none" id="Property-Location" style="stroke:#181818;stroke-width:1.0;"/><polygon fill="#000000" points="913.7596,787.1428,917.7157,778.4941,911.8766,777.8206,913.7596,787.1428" style="stroke:#000000;stroke-width:1.0;"/><text fill="#000000" font-family="sans-serif" font-size="13" lengthAdjust="spacing" textLength="71" x="923.3326" y="787.4951">has address</text><text fill="#000000" font-family="sans-serif" font-size="13" lengthAdjust="spacing" textLength="7" x="901.7091" y="431.408">1</text><text fill="#000000" font-family="sans-serif" font-size="13" lengthAdjust="spacing" textLength="7" x="832.2065" y="1134.6241">1</text></g><!--link Person to Location--><g id="link_Person_Location"><path codeLine="118" d="M782.3326,743.06 C782.3326,838.77 782.3326,1023.05 782.3326,1118.83 " fill="none" id="Person-Location" style="stroke:#181818;stroke-width:1.0;"/><polygon fill="#000000" points="787.3326,901.1758,790.2715,892.1307,784.3936,892.1307,787.3326,901.1758" style="stroke:#000000;stroke-width:1.0;"/><text fill="#000000" font-family="sans-serif" font-size="13" lengthAdjust="spacing" textLength="71" x="796.3326" y="901.4951">has address</text><text fill="#000000" font-family="sans-serif" font-size="13" lengthAdjust="spacing" textLength="7" x="774.9498" y="764.256">1</text><text fill="#000000" font-family="sans-serif" font-size="13" lengthAdjust="spacing" textLength="7" x="774.9279" y="1108.2519">1</text></g><!--link Agency to Location--><g id="link_Agency_Location"><path codeLine="119" d="M383.9626,1010.54 C473.2926,1048.54 657.2626,1126.79 740.1726,1162.07 " fill="none" id="Agency-Location" style="stroke:#181818;stroke-width:1.0;"/><polygon fill="#000000" points="566.9336,1082.133,559.7607,1075.8879,557.4599,1081.2967,566.9336,1082.133" style="stroke:#000000;stroke-width:1.0;"/><text fill="#000000" font-family="sans-serif" font-size="13" lengthAdjust="spacing" textLength="71" x="571.3326" y="1085.4951">has address</text><text fill="#000000" font-family="sans-serif" font-size="13" lengthAdjust="spacing" textLength="7" x="391.9129" y="1010.1931">1</text><text fill="#000000" font-family="sans-serif" font-size="13" lengthAdjust="spacing" textLength="7" x="725.3248" y="1154.9963">1</text></g><!--link AvailableEquipment to Residence--><g id="link_AvailableEquipment_Residence"><path codeLine="120" d="M728.3826,217 C759.0426,217 795.5026,217 826.0626,217 " fill="none" id="AvailableEquipment-Residence" style="stroke:#181818;stroke-width:1.0;"/><polygon fill="#000000" points="745.8326,205.1758,754.8777,208.1147,754.8777,202.2369,745.8326,205.1758" style="stroke:#000000;stroke-width:1.0;"/><text fill="#000000" font-family="sans-serif" font-size="13" lengthAdjust="spacing" textLength="48" x="759.8326" y="210.4951">includes</text><text fill="#000000" font-family="sans-serif" font-size="13" lengthAdjust="spacing" textLength="5" x="736.193" y="213.5778">*</text><text fill="#000000" font-family="sans-serif" font-size="13" lengthAdjust="spacing" textLength="7" x="811.2267" y="213.5651">1</text></g><!--link Announcement to Commission--><g id="link_Announcement_Commission"><path codeLine="121" d="M333.3326,1225.22 C333.3326,1255.68 333.3326,1295.44 333.3326,1320.98 " fill="none" id="Announcement-Commission" style="stroke:#181818;stroke-width:1.0;"/><polygon fill="#000000" points="338.3326,1277.1758,335.3936,1286.2209,341.2715,1286.2209,338.3326,1277.1758" style="stroke:#000000;stroke-width:1.0;"/><text fill="#000000" font-family="sans-serif" font-size="13" lengthAdjust="spacing" textLength="81" x="347.3326" y="1287.4951">is assigned to</text><text fill="#000000" font-family="sans-serif" font-size="13" lengthAdjust="spacing" textLength="7" x="325.7748" y="1247.0308">1</text><text fill="#000000" font-family="sans-serif" font-size="13" lengthAdjust="spacing" textLength="7" x="325.4795" y="1310.0771">1</text></g><!--link Agency to Announcement--><g id="link_Agency_Announcement"><path codeLine="122" d="M333.3326,1041.19 C333.3326,1071.23 333.3326,1108.53 333.3326,1136.9 " fill="none" id="Agency-Announcement" style="stroke:#181818;stroke-width:1.0;"/><polygon fill="#000000" points="338.3326,1085.1758,341.2715,1076.1307,335.3936,1076.1307,338.3326,1085.1758" style="stroke:#000000;stroke-width:1.0;"/><text fill="#000000" font-family="sans-serif" font-size="13" lengthAdjust="spacing" textLength="30" x="347.3326" y="1085.4951">owns</text><text fill="#000000" font-family="sans-serif" font-size="13" lengthAdjust="spacing" textLength="7" x="325.8841" y="1062.5446">1</text><text fill="#000000" font-family="sans-serif" font-size="13" lengthAdjust="spacing" textLength="5" x="327.9341" y="1126.0848">*</text></g><!--link Request to Property--><g id="link_Request_Property"><path codeLine="123" d="M526.6026,239.06 C543.5626,246.52 563.1326,254.64 581.3326,261 C629.1726,277.72 643.1326,275.35 691.3326,291 C742.9026,307.75 800.2226,329.57 843.1326,346.56 " fill="none" id="Request-Property" style="stroke:#181818;stroke-width:1.0;"/><polygon fill="#000000" points="749.067,301.7837,741.4475,296.0921,739.5573,301.6578,749.067,301.7837" style="stroke:#000000;stroke-width:1.0;"/><text fill="#000000" font-family="sans-serif" font-size="13" lengthAdjust="spacing" textLength="124" x="753.3326" y="305.4951">has information about</text><text fill="#000000" font-family="sans-serif" font-size="13" lengthAdjust="spacing" textLength="7" x="534.3753" y="257.3876">1</text><text fill="#000000" font-family="sans-serif" font-size="13" lengthAdjust="spacing" textLength="7" x="828.5091" y="340.1528">1</text></g><!--link Request to Business--><g id="link_Request_Business"><path codeLine="124" d="M464.1126,252.84 C457.9126,269.91 453.6726,290.67 459.3326,309 C463.6526,322.99 472.1526,336.65 480.5426,347.78 " fill="none" id="Request-Business" style="stroke:#181818;stroke-width:1.0;"/><polygon fill="#000000" points="465.1852,305.1026,466.5387,295.6888,460.7469,296.6911,465.1852,305.1026" style="stroke:#000000;stroke-width:1.0;"/><text fill="#000000" font-family="sans-serif" font-size="13" lengthAdjust="spacing" textLength="88" x="473.3326" y="305.4951">is described by</text><text fill="#000000" font-family="sans-serif" font-size="13" lengthAdjust="spacing" textLength="7" x="453.5513" y="273.9151">1</text><text fill="#000000" font-family="sans-serif" font-size="13" lengthAdjust="spacing" textLength="7" x="467.463" y="337.2615">1</text></g><!--reverse link Business to Lease--><g id="link_Business_Lease"><path codeLine="125" d="M494.4626,420.86 C490.1326,442.98 485.0826,468.79 481.4126,487.54 " fill="none" id="Business-backto-Lease" style="stroke:#181818;stroke-width:1.0;"/><polygon fill="none" points="487.6026,419.42,498.3126,401.13,501.3426,422.11,487.6026,419.42" style="stroke:#181818;stroke-width:1.0;"/></g><!--link BusinessType to Business--><g id="link_BusinessType_Business"><path codeLine="126" d="M365.9726,374.5 C399.1626,374.5 442.5126,374.5 471.5626,374.5 " fill="none" id="BusinessType-Business" style="stroke:#181818;stroke-width:1.0;"/><polygon fill="#000000" points="393.3326,362.6758,384.2875,359.7369,384.2875,365.6147,393.3326,362.6758" style="stroke:#000000;stroke-width:1.0;"/><text fill="#000000" font-family="sans-serif" font-size="13" lengthAdjust="spacing" textLength="56" x="397.3326" y="367.9951">describes</text><text fill="#000000" font-family="sans-serif" font-size="13" lengthAdjust="spacing" textLength="7" x="373.8034" y="370.7803">1</text><text fill="#000000" font-family="sans-serif" font-size="13" lengthAdjust="spacing" textLength="7" x="456.8473" y="370.2596">1</text></g><!--link Announcement to Request--><g id="link_Announcement_Request"><path codeLine="127" d="M391.0526,1172.83 C444.2026,1163.11 521.2926,1140.57 565.3326,1089 C594.8826,1054.39 587.3326,1034.51 587.3326,989 C587.3326,781 587.3326,781 587.3326,781 C587.3326,563.02 661.5426,487.09 566.3326,291 C557.5826,272.98 542.1126,257.64 526.7526,245.74 " fill="none" id="Announcement-Request" style="stroke:#181818;stroke-width:1.0;"/><polygon fill="#000000" points="606.0567,676.2285,601.8388,684.7526,607.6547,685.6039,606.0567,676.2285" style="stroke:#000000;stroke-width:1.0;"/><text fill="#000000" font-family="sans-serif" font-size="13" lengthAdjust="spacing" textLength="71" x="614.3326" y="686.4951">is  based on</text><text fill="#000000" font-family="sans-serif" font-size="13" lengthAdjust="spacing" textLength="7" x="398.8964" y="1168.2478">1</text><text fill="#000000" font-family="sans-serif" font-size="13" lengthAdjust="spacing" textLength="7" x="534.1626" y="271.9545">1</text></g><!--link Commission to CommissionType--><g id="link_Commission_CommissionType"><path codeLine="128" d="M333.3326,1374.3 C333.3326,1396.79 333.3326,1429.26 333.3326,1451.75 " fill="none" id="Commission-CommissionType" style="stroke:#181818;stroke-width:1.0;"/><polygon fill="#000000" points="338.3326,1418.1758,341.2715,1409.1307,335.3936,1409.1307,338.3326,1418.1758" style="stroke:#000000;stroke-width:1.0;"/><text fill="#000000" font-family="sans-serif" font-size="13" lengthAdjust="spacing" textLength="95" x="347.3326" y="1418.4951">is categorized in</text><text fill="#000000" font-family="sans-serif" font-size="13" lengthAdjust="spacing" textLength="5" x="327.7545" y="1395.858">*</text><text fill="#000000" font-family="sans-serif" font-size="13" lengthAdjust="spacing" textLength="7" x="325.5232" y="1441.2245">1</text></g><!--link Agency to Request--><g id="link_Agency_Request"><path codeLine="129" d="M282.8126,947.28 C254.7026,920.44 225.3326,882.28 225.3326,840 C225.3326,513.5 225.3326,513.5 225.3326,513.5 C225.3326,434.95 207.6326,402.88 253.3326,339 C297.5326,277.22 383.1526,244.21 435.9726,228.95 " fill="none" id="Agency-Request" style="stroke:#181818;stroke-width:1.0;"/><polygon fill="#000000" points="231.3752,575.2857,226.6147,583.5191,232.3634,584.7448,231.3752,575.2857" style="stroke:#000000;stroke-width:1.0;"/><text fill="#000000" font-family="sans-serif" font-size="13" lengthAdjust="spacing" textLength="81" x="239.3326" y="585.4951">is assigned to</text><text fill="#000000" font-family="sans-serif" font-size="13" lengthAdjust="spacing" textLength="7" x="267.8784" y="937.6417">1</text><text fill="#000000" font-family="sans-serif" font-size="13" lengthAdjust="spacing" textLength="5" x="423.3449" y="227.1164">*</text></g><!--link Agent to Request--><g id="link_Agent_Request"><path codeLine="130" d="M160.0526,62.38 C215.2026,88.75 361.5626,158.73 436.1926,194.42 " fill="none" id="Agent-Request" style="stroke:#181818;stroke-width:1.0;"/><polygon fill="#000000" points="328.8434,136.3327,321.951,129.7794,319.4154,135.0822,328.8434,136.3327" style="stroke:#000000;stroke-width:1.0;"/><text fill="#000000" font-family="sans-serif" font-size="13" lengthAdjust="spacing" textLength="98" x="333.3326" y="139.4951">is responsible for</text><text fill="#000000" font-family="sans-serif" font-size="13" lengthAdjust="spacing" textLength="7" x="167.7762" y="61.0239">1</text><text fill="#000000" font-family="sans-serif" font-size="13" lengthAdjust="spacing" textLength="5" x="423.3022" y="186.8937">*</text></g><!--SRC=[ZLLDJnin4BtxLrWSAmNHQuIG822r4g88gjvdlPEinQvjF3OG0l-zO- -N8Q4g5xpscvatRvuTUj36WOTETjPOrNZReGm-eg3fn85wW0tUXssBqgCAO3Pj2Q06QlkipKQkeQNoHBL0T1w2rrKC-5DPSwzVKPw8HjSebVQA4-LrXw6nDGd-oq7oV8D6RULEw5hKI7fZ86Xh17QWs_EwzaWaN6CDtiIkGY_UnyYhphLsYyYnqzujUh9c9mnqsASGZlUTzM45lXvI17WPLWSJ_tesw8kaYMB8tzEECJOQXLq-OEQW53eMJE4b15O6sdxnFeNSUklGX-rEIF08GjQQSi1AX-sAyvGCxbY8cdL1HflCxW9hRsr7qpU4PjZW4V0WDlSyFon8Ft7pKBLuzHYrwucolifhb_MTW3zif5Id0ihz2AbD0vKEAVZQhdc3ehbwSPQYBmgC3VtUEjnz6DqCQMom6m-ksOdezNnmRLM6xWG5ZnXkqhWK2o6IAbwhm0T9lrVjLhOkgbv4qeOjiHEEOGSE_a7d6Y5rokuC7bIuZFuJO6MxJXFndaomyUCFj14FeL8j-KMnEtoCIBqxVB-U7D6xL1vzFvABHVutUdd95y-nvPCVQXw4F1NPVVBevFZusm6uQs5B4cW6fgJoYB6bIPTIatInQZKrdBZQCduLAV0pu7F8cBcdjaVZJEHBKT0OepzG69hEvOU4EMx95gew7NhCuErKy-rCJaOIsOdzvWGIqoqlrEhVZALyjlw14ZtcLzgnn8xxMG6GnHMGTbt4pJ6vmzcwEV19KuIMtxH1ZJ9giKYXewMNic4fe7-u4d9lrbyXXvVmFv2pX1dSuZfBld_bcRjHRUIcK_x23sMLsS-zHfJSp8q6EvYg8BLdA_jiQ4_5wFhCensMyZHteCtQ-Ywt9A6oCSo6cUcC5pcJwSTLzPOz4-EPF7rZTBxFehpue_kBD5nyJ79OX4zCkMX-2cjfqw2B9o6Rcdy0pMVPSkKSoUF2ZVMpJqhvSe8FXKgfpyhxUm3BetVMaERnIbQHyU8l]--></g></svg>