<?xml version="1.0" encoding="UTF-8" standalone="no"?><svg xmlns="http://www.w3.org/2000/svg" xmlns:xlink="http://www.w3.org/1999/xlink" contentStyleType="text/css" height="518px" preserveAspectRatio="none" style="width:509px;height:518px;background:#FFFFFF;" version="1.1" viewBox="0 0 509 518" width="509px" zoomAndPan="magnify"><defs/><g><text fill="#000000" font-family="sans-serif" font-size="14" font-weight="bold" lengthAdjust="spacing" textLength="284" x="114.25" y="29.5332">System Sequence Diagram (SSD) - US011</text><rect fill="#FFFFFF" height="295.5156" style="stroke:#181818;stroke-width:1.0;" width="10" x="56.5" y="131.2188"/><rect fill="#FFFFFF" height="72.0547" style="stroke:#181818;stroke-width:1.0;" width="10" x="436.5" y="153.5703"/><rect fill="#FFFFFF" height="30.3516" style="stroke:#181818;stroke-width:1.0;" width="10" x="436.5" y="306.6797"/><rect fill="#FFFFFF" height="30.3516" style="stroke:#181818;stroke-width:1.0;" width="10" x="436.5" y="367.3828"/><rect fill="none" height="251.1641" style="stroke:#000000;stroke-width:1.5;" width="493.5" x="10" y="168.5703"/><rect fill="none" height="172.1094" style="stroke:#000000;stroke-width:1.5;" width="473.5" x="20" y="240.625"/><rect fill="none" height="139.7578" style="stroke:#000000;stroke-width:1.5;" width="453.5" x="30" y="265.9766"/><line style="stroke:#181818;stroke-width:0.5;stroke-dasharray:5.0,5.0;" x1="61" x2="61" y1="121.2188" y2="436.7344"/><line style="stroke:#181818;stroke-width:0.5;stroke-dasharray:5.0,5.0;" x1="441.5" x2="441.5" y1="121.2188" y2="436.7344"/><text fill="#000000" font-family="sans-serif" font-size="14" lengthAdjust="spacing" textLength="37" x="40" y="118.1426">Agent</text><ellipse cx="61.5" cy="52.1094" fill="#E3E3E3" rx="8" ry="8" style="stroke:#181818;stroke-width:0.5;"/><path d="M61.5,60.1094 L61.5,87.1094 M48.5,68.1094 L74.5,68.1094 M61.5,87.1094 L48.5,102.1094 M61.5,87.1094 L74.5,102.1094 " fill="none" style="stroke:#181818;stroke-width:0.5;"/><text fill="#000000" font-family="sans-serif" font-size="14" lengthAdjust="spacing" textLength="37" x="40" y="450.2676">Agent</text><ellipse cx="61.5" cy="461.8438" fill="#E3E3E3" rx="8" ry="8" style="stroke:#181818;stroke-width:0.5;"/><path d="M61.5,469.8438 L61.5,496.8438 M48.5,477.8438 L74.5,477.8438 M61.5,496.8438 L48.5,511.8438 M61.5,496.8438 L74.5,511.8438 " fill="none" style="stroke:#181818;stroke-width:0.5;"/><rect fill="#E3E3E3" height="31.6094" rx="2.5" ry="2.5" style="stroke:#181818;stroke-width:0.5;" width="64" x="409.5" y="88.6094"/><text fill="#000000" font-family="sans-serif" font-size="14" lengthAdjust="spacing" textLength="50" x="416.5" y="110.1426">:System</text><rect fill="#E3E3E3" height="31.6094" rx="2.5" ry="2.5" style="stroke:#181818;stroke-width:0.5;" width="64" x="409.5" y="435.7344"/><text fill="#000000" font-family="sans-serif" font-size="14" lengthAdjust="spacing" textLength="50" x="416.5" y="457.2676">:System</text><rect fill="#FFFFFF" height="295.5156" style="stroke:#181818;stroke-width:1.0;" width="10" x="56.5" y="131.2188"/><rect fill="#FFFFFF" height="72.0547" style="stroke:#181818;stroke-width:1.0;" width="10" x="436.5" y="153.5703"/><rect fill="#FFFFFF" height="30.3516" style="stroke:#181818;stroke-width:1.0;" width="10" x="436.5" y="306.6797"/><rect fill="#FFFFFF" height="30.3516" style="stroke:#181818;stroke-width:1.0;" width="10" x="436.5" y="367.3828"/><polygon fill="#181818" points="424.5,149.5703,434.5,153.5703,424.5,157.5703,428.5,153.5703" style="stroke:#181818;stroke-width:1.0;"/><line style="stroke:#181818;stroke-width:1.0;" x1="66.5" x2="430.5" y1="153.5703" y2="153.5703"/><text fill="#000000" font-family="sans-serif" font-size="13" font-weight="bold" lengthAdjust="spacing" textLength="7" x="73.5" y="148.7139">1</text><text fill="#000000" font-family="sans-serif" font-size="13" lengthAdjust="spacing" textLength="183" x="84.5" y="148.7139">asks to accept purchase orders</text><path d="M10,168.5703 L83,168.5703 L83,176.9219 L73,186.9219 L10,186.9219 L10,168.5703 " fill="#EEEEEE" style="stroke:#000000;stroke-width:1.5;"/><rect fill="none" height="251.1641" style="stroke:#000000;stroke-width:1.5;" width="493.5" x="10" y="168.5703"/><text fill="#000000" font-family="sans-serif" font-size="13" font-weight="bold" lengthAdjust="spacing" textLength="28" x="25" y="183.0654">loop</text><text fill="#000000" font-family="sans-serif" font-size="11" font-weight="bold" lengthAdjust="spacing" textLength="228" x="98" y="181.9893">[for each property available for purchase]</text><polygon fill="#181818" points="77.5,221.625,67.5,225.625,77.5,229.625,73.5,225.625" style="stroke:#181818;stroke-width:1.0;"/><line style="stroke:#181818;stroke-width:1.0;stroke-dasharray:2.0,2.0;" x1="71.5" x2="440.5" y1="225.625" y2="225.625"/><text fill="#000000" font-family="sans-serif" font-size="13" font-weight="bold" lengthAdjust="spacing" textLength="7" x="83.5" y="212.5928">2</text><text fill="#000000" font-family="sans-serif" font-size="13" lengthAdjust="spacing" textLength="335" x="94.5" y="204.417">displays property by oldest and its orders by highest price</text><text fill="#000000" font-family="sans-serif" font-size="13" lengthAdjust="spacing" textLength="279" x="98.5" y="220.7686">and asks to select acceptanceAnswer for orders</text><path d="M20,240.625 L81,240.625 L81,248.9766 L71,258.9766 L20,258.9766 L20,240.625 " fill="#EEEEEE" style="stroke:#000000;stroke-width:1.5;"/><rect fill="none" height="172.1094" style="stroke:#000000;stroke-width:1.5;" width="473.5" x="20" y="240.625"/><text fill="#000000" font-family="sans-serif" font-size="13" font-weight="bold" lengthAdjust="spacing" textLength="16" x="35" y="255.1201">alt</text><text fill="#000000" font-family="sans-serif" font-size="11" font-weight="bold" lengthAdjust="spacing" textLength="163" x="96" y="254.0439">[purchaseOrderList != empty]</text><path d="M30,265.9766 L103,265.9766 L103,274.3281 L93,284.3281 L30,284.3281 L30,265.9766 " fill="#EEEEEE" style="stroke:#000000;stroke-width:1.5;"/><rect fill="none" height="139.7578" style="stroke:#000000;stroke-width:1.5;" width="453.5" x="30" y="265.9766"/><text fill="#000000" font-family="sans-serif" font-size="13" font-weight="bold" lengthAdjust="spacing" textLength="28" x="45" y="280.4717">loop</text><text fill="#000000" font-family="sans-serif" font-size="11" font-weight="bold" lengthAdjust="spacing" textLength="335" x="118" y="279.3955">[for each displayed offer &amp;&amp; while acceptanceAnswer != yes]</text><polygon fill="#181818" points="424.5,302.6797,434.5,306.6797,424.5,310.6797,428.5,306.6797" style="stroke:#181818;stroke-width:1.0;"/><line style="stroke:#181818;stroke-width:1.0;" x1="66.5" x2="430.5" y1="306.6797" y2="306.6797"/><text fill="#000000" font-family="sans-serif" font-size="13" font-weight="bold" lengthAdjust="spacing" textLength="7" x="73.5" y="301.8232">3</text><text fill="#000000" font-family="sans-serif" font-size="13" lengthAdjust="spacing" textLength="156" x="84.5" y="301.8232">selects acceptanceAnswer</text><polygon fill="#181818" points="77.5,333.0313,67.5,337.0313,77.5,341.0313,73.5,337.0313" style="stroke:#181818;stroke-width:1.0;"/><line style="stroke:#181818;stroke-width:1.0;stroke-dasharray:2.0,2.0;" x1="71.5" x2="440.5" y1="337.0313" y2="337.0313"/><text fill="#000000" font-family="sans-serif" font-size="13" font-weight="bold" lengthAdjust="spacing" textLength="7" x="83.5" y="332.1748">4</text><text fill="#000000" font-family="sans-serif" font-size="13" lengthAdjust="spacing" textLength="300" x="94.5" y="332.1748">asks to confirm acceptanceAnswer and submit data</text><polygon fill="#181818" points="424.5,363.3828,434.5,367.3828,424.5,371.3828,428.5,367.3828" style="stroke:#181818;stroke-width:1.0;"/><line style="stroke:#181818;stroke-width:1.0;" x1="66.5" x2="430.5" y1="367.3828" y2="367.3828"/><text fill="#000000" font-family="sans-serif" font-size="13" font-weight="bold" lengthAdjust="spacing" textLength="7" x="73.5" y="362.5264">5</text><text fill="#000000" font-family="sans-serif" font-size="13" lengthAdjust="spacing" textLength="75" x="84.5" y="362.5264">submits data</text><polygon fill="#181818" points="77.5,393.7344,67.5,397.7344,77.5,401.7344,73.5,397.7344" style="stroke:#181818;stroke-width:1.0;"/><line style="stroke:#181818;stroke-width:1.0;stroke-dasharray:2.0,2.0;" x1="71.5" x2="440.5" y1="397.7344" y2="397.7344"/><text fill="#000000" font-family="sans-serif" font-size="13" font-weight="bold" lengthAdjust="spacing" textLength="7" x="83.5" y="392.8779">6</text><text fill="#000000" font-family="sans-serif" font-size="13" lengthAdjust="spacing" textLength="158" x="94.5" y="392.8779">displays operation success</text><!--SRC=[XP6zRkim38LtFmMReMY70EqQe0KAT2pGmUZMXP5fMuWigIBTm6zVIdP-xarphoTQ90y_7lBE-eW91nY23wPFOI2GD5B5nqn4iyEEQfaSGI8Zw3jtNi0zDc5lVGSjEgQg4YjQMayiD41DNoDvG_1giSlbTtNzUWzh-AWV7X-h2aS9VXosb3Gs4XAiNZhoiW9aA56bOyGQ6z4Bh3QpRadFOUcptoYqr8D-9OBrym5Ze_Kx1Wc0nb0KY6CoFJ91I0qbBar7dODmVdGXH6YLYz3q45E8b6G2_4RhSAkBvjn1RMvPPgvr_ConWSPoT3ZnIM0xGN0DiG3w1gpmGf8JlUtwd8d96lhqfUB0p-Jq2CiQgCw-UDvJAXXdkpJqwpRe18wqxxdypUgWcoUW8ShqoyOBEJKGsbRdtDx2lhUwzmM1Yap4rHN_Psw-QBlk_9cDizxfY2RurgRXaY4xnUDsi08D2lxBYhyHCsFfv5Fh_xWkpfkFYsA3Lorbusl7oA-ahDdhuuyUvyz4TTPOHlq0]--></g></svg>