<?xml version="1.0" encoding="UTF-8" standalone="no"?><svg xmlns="http://www.w3.org/2000/svg" xmlns:xlink="http://www.w3.org/1999/xlink" contentStyleType="text/css" height="368px" preserveAspectRatio="none" style="width:420px;height:368px;background:#FFFFFF;" version="1.1" viewBox="0 0 420 368" width="420px" zoomAndPan="magnify"><defs/><g><text fill="#000000" font-family="sans-serif" font-size="14" font-weight="bold" lengthAdjust="spacing" textLength="156" x="125.25" y="24.5332">Domain Model - US011</text><!--class Order--><g id="elem_Order"><rect codeLine="14" fill="#F1F1F1" height="70.8281" id="Order" rx="2.5" ry="2.5" style="stroke:#181818;stroke-width:0.5;" width="131" x="282.5" y="159.6094"/><text fill="#000000" font-family="sans-serif" font-size="14" lengthAdjust="spacing" textLength="37" x="329.5" y="179.1426">Order</text><line style="stroke:#181818;stroke-width:0.5;" x1="283.5" x2="412.5" y1="187.2188" y2="187.2188"/><text fill="#000000" font-family="sans-serif" font-size="14" lengthAdjust="spacing" textLength="82" x="288.5" y="205.752">orderAmount</text><text fill="#000000" font-family="sans-serif" font-size="14" lengthAdjust="spacing" textLength="119" x="288.5" y="223.3613">acceptanceAnswer</text></g><!--class Agent--><g id="elem_Agent"><rect codeLine="19" fill="#F1F1F1" height="35.6094" id="Agent" rx="2.5" ry="2.5" style="stroke:#181818;stroke-width:0.5;" width="43" x="123.5" y="45.6094"/><text fill="#000000" font-family="sans-serif" font-size="14" lengthAdjust="spacing" textLength="37" x="126.5" y="65.1426">Agent</text><line style="stroke:#181818;stroke-width:0.5;" x1="124.5" x2="165.5" y1="73.2188" y2="73.2188"/></g><!--class Customer--><g id="elem_Customer"><rect codeLine="23" fill="#F1F1F1" height="35.6094" id="Customer" rx="2.5" ry="2.5" style="stroke:#181818;stroke-width:0.5;" width="67" x="314.5" y="45.6094"/><text fill="#000000" font-family="sans-serif" font-size="14" lengthAdjust="spacing" textLength="61" x="317.5" y="65.1426">Customer</text><line style="stroke:#181818;stroke-width:0.5;" x1="315.5" x2="380.5" y1="73.2188" y2="73.2188"/></g><!--class Employee--><g id="elem_Employee"><rect codeLine="27" fill="#F1F1F1" height="35.6094" id="Employee" rx="2.5" ry="2.5" style="stroke:#181818;stroke-width:0.5;" width="68" x="7" y="177.1094"/><text fill="#000000" font-family="sans-serif" font-size="14" lengthAdjust="spacing" textLength="62" x="10" y="196.6426">Employee</text><line style="stroke:#181818;stroke-width:0.5;" x1="8" x2="74" y1="204.7188" y2="204.7188"/></g><!--class Announcement--><g id="elem_Announcement"><rect codeLine="30" fill="#F1F1F1" height="53.2188" id="Announcement" rx="2.5" ry="2.5" style="stroke:#181818;stroke-width:0.5;" width="115" x="116.5" y="308.6094"/><text fill="#000000" font-family="sans-serif" font-size="14" lengthAdjust="spacing" textLength="95" x="126.5" y="328.1426">Announcement</text><line style="stroke:#181818;stroke-width:0.5;" x1="117.5" x2="230.5" y1="336.2188" y2="336.2188"/><text fill="#000000" font-family="sans-serif" font-size="14" lengthAdjust="spacing" textLength="103" x="122.5" y="354.752">acceptanceDate</text></g><!--link Agent to Announcement--><g id="link_Agent_Announcement"><path codeLine="34" d="M146.86,81.8794 C151.81,127.8794 165.34,253.6094 171.21,308.2194 " fill="none" id="Agent-Announcement" style="stroke:#181818;stroke-width:1.0;"/><polygon fill="#000000" points="167.4652,190.3138,165.5106,199.6214,171.3547,198.9927,167.4652,190.3138" style="stroke:#000000;stroke-width:1.0;"/><text fill="#000000" font-family="sans-serif" font-size="13" lengthAdjust="spacing" textLength="87" x="177" y="200.6045">is published by</text></g><!--link Agent to Employee--><g id="link_Agent_Employee"><path codeLine="35" d="M123.34,71.3994 C104.37,78.4494 77.48,91.3494 62,111.6094 C47.37,130.7494 42.86,158.9694 41.51,176.9394 " fill="none" id="Agent-Employee" style="stroke:#181818;stroke-width:1.0;"/><polygon fill="#000000" points="70.0637,116.8337,62.1988,122.1811,66.844,125.7827,70.0637,116.8337" style="stroke:#000000;stroke-width:1.0;"/><text fill="#000000" font-family="sans-serif" font-size="13" lengthAdjust="spacing" textLength="42" x="76" y="126.1045">plays a</text><text fill="#000000" font-family="sans-serif" font-size="13" lengthAdjust="spacing" textLength="5" x="110.639" y="68.9458">*</text><text fill="#000000" font-family="sans-serif" font-size="13" lengthAdjust="spacing" textLength="7" x="33.5569" y="166.2111">1</text></g><!--link Agent to Order--><g id="link_Agent_Order"><path codeLine="36" d="M166.63,79.9694 C185.72,93.3894 214.41,113.2394 240,129.6094 C255.54,139.5594 272.59,149.9594 288.46,159.4394 " fill="none" id="Agent-Order" style="stroke:#181818;stroke-width:1.0;"/><polygon fill="#000000" points="240.8122,118.0534,246.7823,125.4567,249.9937,120.5336,240.8122,118.0534" style="stroke:#000000;stroke-width:1.0;"/><text fill="#000000" font-family="sans-serif" font-size="13" lengthAdjust="spacing" textLength="85" x="254" y="126.1045">is accepted by</text><text fill="#000000" font-family="sans-serif" font-size="13" lengthAdjust="spacing" textLength="7" x="174.6402" y="80.2475">1</text><text fill="#000000" font-family="sans-serif" font-size="13" lengthAdjust="spacing" textLength="5" x="271.6336" y="148.6598">*</text></g><!--link Order to Announcement--><g id="link_Order_Announcement"><path codeLine="37" d="M304.09,230.9294 C273.69,255.0494 233.89,286.6094 206.36,308.4494 " fill="none" id="Order-Announcement" style="stroke:#181818;stroke-width:1.0;"/><polygon fill="#000000" points="268.0827,272.8924,276.9955,269.5739,273.3428,264.9688,268.0827,272.8924" style="stroke:#000000;stroke-width:1.0;"/><text fill="#000000" font-family="sans-serif" font-size="13" lengthAdjust="spacing" textLength="92" x="281" y="275.1045">is associated to</text><text fill="#000000" font-family="sans-serif" font-size="13" lengthAdjust="spacing" textLength="5" x="291.1133" y="252.001">*</text><text fill="#000000" font-family="sans-serif" font-size="13" lengthAdjust="spacing" textLength="7" x="206.0339" y="297.9447">1</text></g><!--link Customer to Order--><g id="link_Customer_Order"><path codeLine="38" d="M348,81.8094 C348,101.5494 348,134.4494 348,159.5494 " fill="none" id="Customer-Order" style="stroke:#181818;stroke-width:1.0;"/><polygon fill="#000000" points="353,125.7852,355.9389,116.7401,350.0611,116.7401,353,125.7852" style="stroke:#000000;stroke-width:1.0;"/><text fill="#000000" font-family="sans-serif" font-size="13" lengthAdjust="spacing" textLength="49" x="362" y="126.1045">places a</text><text fill="#000000" font-family="sans-serif" font-size="13" lengthAdjust="spacing" textLength="7" x="340.0156" y="102.7776">1</text><text fill="#000000" font-family="sans-serif" font-size="13" lengthAdjust="spacing" textLength="5" x="342.5234" y="148.7908">*</text></g><!--SRC=[RP7FQiCm3CRlUWgHos1GQAvb5CAwmmvZXx87S1qr4RMjO2kKhEpTvpJzaxATRAJVz-cJdGuSEXEDHoz1R1l54shi2TAjqnbxC0rjTN24aQoQqBWva5fJov53WtlZ4W4yETehgc3afbMiULIn19Y9h3CfLQgHTxtIkvMmvM_29K3BDQ7bQFEGyzsJjb8d06ND4JRY3GVya9eSBl1hkonBWBCVViQQ8fv0nhFoqWS5OorrERIbAgGZHVYvqbL3GJDzhxpsIVCJn8VYc- -S34HJyI8D8PjRyjdXD1knCKgZSh9UB1v0N24dxFgTuzHIZRi1NovayLoCT54Mzt4hx9mP4fexLKvKXgTDpuRJzAlVr9Zv_KsG5n3BPfJaJrh3RUj__7C4IsE6DG3y0W00]--></g></svg>