<?xml version="1.0" encoding="UTF-8" standalone="no"?><svg xmlns="http://www.w3.org/2000/svg" xmlns:xlink="http://www.w3.org/1999/xlink" contentStyleType="text/css" height="1804px" preserveAspectRatio="none" style="width:2064px;height:1804px;background:#FFFFFF;" version="1.1" viewBox="0 0 2064 1804" width="2064px" zoomAndPan="magnify"><defs/><g><rect fill="#FFFFFF" height="1595.4297" style="stroke:#181818;stroke-width:1.0;" width="10" x="508" y="136.625"/><rect fill="#FFFFFF" height="408.0625" style="stroke:#181818;stroke-width:1.0;" width="10" x="921" y="269.0313"/><rect fill="#FFFFFF" height="41.3516" style="stroke:#181818;stroke-width:1.0;" width="10" x="926" y="598.3906"/><rect fill="#FFFFFF" height="398.4141" style="stroke:#181818;stroke-width:1.0;" width="10" x="1121" y="790.9844"/><rect fill="#FFFFFF" height="318.0625" style="stroke:#181818;stroke-width:1.0;" width="10" x="1202.5" y="1319.6406"/><rect fill="#FFFFFF" height="136.9219" style="stroke:#181818;stroke-width:1.0;" width="10" x="1745.5" y="398.1172"/><rect fill="#FFFFFF" height="41.3516" style="stroke:#181818;stroke-width:1.0;" width="10" x="1750.5" y="456.3359"/><rect fill="#FFFFFF" height="136.9219" style="stroke:#181818;stroke-width:1.0;" width="10" x="1745.5" y="1022.125"/><rect fill="#FFFFFF" height="41.3516" style="stroke:#181818;stroke-width:1.0;" width="10" x="1750.5" y="1080.3438"/><rect fill="#FFFFFF" height="136.9219" style="stroke:#181818;stroke-width:1.0;" width="10" x="1745.5" y="1470.4297"/><rect fill="#FFFFFF" height="41.3516" style="stroke:#181818;stroke-width:1.0;" width="10" x="1750.5" y="1528.6484"/><rect fill="#FFFFFF" height="50.2188" style="stroke:#181818;stroke-width:1.0;" width="10" x="1943.5" y="821.3359"/><rect fill="none" height="1551.0781" style="stroke:#000000;stroke-width:1.5;" width="1601" x="457.5" y="151.625"/><rect fill="none" height="1468.7266" style="stroke:#000000;stroke-width:1.5;" width="1581" x="467.5" y="201.9766"/><line style="stroke:#181818;stroke-width:0.5;stroke-dasharray:5.0,5.0;" x1="512.5" x2="512.5" y1="55.2188" y2="1750.0547"/><line style="stroke:#181818;stroke-width:0.5;stroke-dasharray:5.0,5.0;" x1="926" x2="926" y1="260.4375" y2="1750.0547"/><line style="stroke:#181818;stroke-width:0.5;stroke-dasharray:5.0,5.0;" x1="1125.5" x2="1125.5" y1="767.457" y2="1750.0547"/><line style="stroke:#181818;stroke-width:0.5;stroke-dasharray:5.0,5.0;" x1="1207.5" x2="1207.5" y1="1287.9375" y2="1750.0547"/><line style="stroke:#181818;stroke-width:0.5;stroke-dasharray:5.0,5.0;" x1="1639.5" x2="1639.5" y1="1417.9688" y2="1750.0547"/><line style="stroke:#181818;stroke-width:0.5;stroke-dasharray:5.0,5.0;" x1="1750.5" x2="1750.5" y1="1478.1875" y2="1750.0547"/><line style="stroke:#181818;stroke-width:0.5;stroke-dasharray:5.0,5.0;" x1="1948.5" x2="1948.5" y1="1357.75" y2="1750.0547"/><rect fill="#E3E3E3" height="49.2188" rx="2.5" ry="2.5" style="stroke:#181818;stroke-width:0.5;" width="71" x="477.5" y="5"/><text fill="#000000" font-family="sans-serif" font-size="14" lengthAdjust="spacing" textLength="48" x="489" y="26.5332">request</text><text fill="#000000" font-family="sans-serif" font-size="14" lengthAdjust="spacing" textLength="57" x="484.5" y="44.1426">:Request</text><rect fill="#E3E3E3" height="49.2188" rx="2.5" ry="2.5" style="stroke:#181818;stroke-width:0.5;" width="71" x="477.5" y="1749.0547"/><text fill="#000000" font-family="sans-serif" font-size="14" lengthAdjust="spacing" textLength="48" x="489" y="1770.5879">request</text><text fill="#000000" font-family="sans-serif" font-size="14" lengthAdjust="spacing" textLength="57" x="484.5" y="1788.1973">:Request</text><rect fill="#E3E3E3" height="49.2188" rx="2.5" ry="2.5" style="stroke:#181818;stroke-width:0.5;" width="72" x="890" y="1749.0547"/><text fill="#000000" font-family="sans-serif" font-size="14" lengthAdjust="spacing" textLength="53" x="899.5" y="1770.5879">property</text><text fill="#000000" font-family="sans-serif" font-size="14" lengthAdjust="spacing" textLength="58" x="897" y="1788.1973">:Property</text><rect fill="#E3E3E3" height="49.2188" rx="2.5" ry="2.5" style="stroke:#181818;stroke-width:0.5;" width="85" x="1083.5" y="1749.0547"/><text fill="#000000" font-family="sans-serif" font-size="14" lengthAdjust="spacing" textLength="62" x="1095" y="1770.5879">residence</text><text fill="#000000" font-family="sans-serif" font-size="14" lengthAdjust="spacing" textLength="71" x="1090.5" y="1788.1973">:Residence</text><rect fill="#E3E3E3" height="49.2188" rx="2.5" ry="2.5" style="stroke:#181818;stroke-width:0.5;" width="58" x="1178.5" y="1749.0547"/><text fill="#000000" font-family="sans-serif" font-size="14" lengthAdjust="spacing" textLength="39" x="1188" y="1770.5879">house</text><text fill="#000000" font-family="sans-serif" font-size="14" lengthAdjust="spacing" textLength="44" x="1185.5" y="1788.1973">:House</text><rect fill="#E3E3E3" height="49.2188" rx="2.5" ry="2.5" style="stroke:#181818;stroke-width:0.5;" width="130" x="1574.5" y="1749.0547"/><text fill="#000000" font-family="sans-serif" font-size="14" lengthAdjust="spacing" textLength="73" x="1603" y="1770.5879">photograph</text><text fill="#000000" font-family="sans-serif" font-size="14" lengthAdjust="spacing" textLength="116" x="1581.5" y="1788.1973">:List&lt;Photograph&gt;</text><rect fill="#E3E3E3" height="49.2188" rx="2.5" ry="2.5" style="stroke:#181818;stroke-width:0.5;" width="72" x="1714.5" y="1749.0547"/><text fill="#000000" font-family="sans-serif" font-size="14" lengthAdjust="spacing" textLength="49" x="1726" y="1770.5879">location</text><text fill="#000000" font-family="sans-serif" font-size="14" lengthAdjust="spacing" textLength="58" x="1721.5" y="1788.1973">:Location</text><rect fill="#E3E3E3" height="49.2188" rx="2.5" ry="2.5" style="stroke:#181818;stroke-width:0.5;" width="180" x="1858.5" y="1749.0547"/><text fill="#000000" font-family="sans-serif" font-size="14" lengthAdjust="spacing" textLength="123" x="1887" y="1770.5879">availableEquipment</text><text fill="#000000" font-family="sans-serif" font-size="14" lengthAdjust="spacing" textLength="166" x="1865.5" y="1788.1973">:List&lt;AvailableEquipment&gt;</text><rect fill="#FFFFFF" height="1595.4297" style="stroke:#181818;stroke-width:1.0;" width="10" x="508" y="136.625"/><rect fill="#FFFFFF" height="408.0625" style="stroke:#181818;stroke-width:1.0;" width="10" x="921" y="269.0313"/><rect fill="#FFFFFF" height="41.3516" style="stroke:#181818;stroke-width:1.0;" width="10" x="926" y="598.3906"/><rect fill="#FFFFFF" height="398.4141" style="stroke:#181818;stroke-width:1.0;" width="10" x="1121" y="790.9844"/><rect fill="#FFFFFF" height="318.0625" style="stroke:#181818;stroke-width:1.0;" width="10" x="1202.5" y="1319.6406"/><rect fill="#FFFFFF" height="136.9219" style="stroke:#181818;stroke-width:1.0;" width="10" x="1745.5" y="398.1172"/><rect fill="#FFFFFF" height="41.3516" style="stroke:#181818;stroke-width:1.0;" width="10" x="1750.5" y="456.3359"/><rect fill="#FFFFFF" height="136.9219" style="stroke:#181818;stroke-width:1.0;" width="10" x="1745.5" y="1022.125"/><rect fill="#FFFFFF" height="41.3516" style="stroke:#181818;stroke-width:1.0;" width="10" x="1750.5" y="1080.3438"/><rect fill="#FFFFFF" height="136.9219" style="stroke:#181818;stroke-width:1.0;" width="10" x="1745.5" y="1470.4297"/><rect fill="#FFFFFF" height="41.3516" style="stroke:#181818;stroke-width:1.0;" width="10" x="1750.5" y="1528.6484"/><rect fill="#FFFFFF" height="50.2188" style="stroke:#181818;stroke-width:1.0;" width="10" x="1943.5" y="821.3359"/><polygon fill="#181818" points="496,132.625,506,136.625,496,140.625,500,136.625" style="stroke:#181818;stroke-width:1.0;"/><line style="stroke:#181818;stroke-width:1.0;" x1="0" x2="502" y1="136.625" y2="136.625"/><text fill="#000000" font-family="sans-serif" font-size="13" font-weight="bold" lengthAdjust="spacing" textLength="14" x="7" y="107.2412">35</text><text fill="#000000" font-family="sans-serif" font-size="13" lengthAdjust="spacing" textLength="471" x="25" y="82.7139">createRequest(ownerEmail, agent, agency, propertyType, businessType, amount,</text><text fill="#000000" font-family="sans-serif" font-size="13" lengthAdjust="spacing" textLength="440" x="29" y="99.0654">area, contractDuration, streetName, city, district, state, zipCode, basement,</text><text fill="#000000" font-family="sans-serif" font-size="13" lengthAdjust="spacing" textLength="466" x="29" y="115.417">availableEquipmentDesignationList, inhabitableLoft, parkingSpace, sunExposure,</text><text fill="#000000" font-family="sans-serif" font-size="13" lengthAdjust="spacing" textLength="433" x="29" y="131.7686">numberBedroom, numberBathroom, distanceCityCenter, photographUriList)</text><path d="M457.5,151.625 L599.5,151.625 L599.5,159.9766 L589.5,169.9766 L457.5,169.9766 L457.5,151.625 " fill="#EEEEEE" style="stroke:#000000;stroke-width:1.5;"/><rect fill="none" height="1551.0781" style="stroke:#000000;stroke-width:1.5;" width="1601" x="457.5" y="151.625"/><text fill="#000000" font-family="sans-serif" font-size="13" font-weight="bold" lengthAdjust="spacing" textLength="97" x="472.5" y="166.1201">Create Request</text><path d="M467.5,201.9766 L528.5,201.9766 L528.5,210.3281 L518.5,220.3281 L467.5,220.3281 L467.5,201.9766 " fill="#EEEEEE" style="stroke:#000000;stroke-width:1.5;"/><rect fill="none" height="1468.7266" style="stroke:#000000;stroke-width:1.5;" width="1581" x="467.5" y="201.9766"/><text fill="#000000" font-family="sans-serif" font-size="13" font-weight="bold" lengthAdjust="spacing" textLength="16" x="482.5" y="216.4717">alt</text><text fill="#000000" font-family="sans-serif" font-size="11" font-weight="bold" lengthAdjust="spacing" textLength="125" x="543.5" y="215.3955">[Property Type = Land]</text><polygon fill="#181818" points="878,255.0313,888,259.0313,878,263.0313,882,259.0313" style="stroke:#181818;stroke-width:1.0;"/><line style="stroke:#181818;stroke-width:1.0;" x1="518" x2="884" y1="259.0313" y2="259.0313"/><text fill="#000000" font-family="sans-serif" font-size="13" font-weight="bold" lengthAdjust="spacing" textLength="25" x="525" y="245.999">35.1</text><text fill="#000000" font-family="sans-serif" font-size="13" lengthAdjust="spacing" textLength="316" x="554" y="237.8232">Property(propertyType, area, streetName, city, district,</text><text fill="#000000" font-family="sans-serif" font-size="13" lengthAdjust="spacing" textLength="315" x="558" y="254.1748">state, zipCode, distanceCityCenter, photographUriList)</text><rect fill="#E3E3E3" height="49.2188" rx="2.5" ry="2.5" style="stroke:#181818;stroke-width:0.5;" width="72" x="890" y="220.3281"/><text fill="#000000" font-family="sans-serif" font-size="14" lengthAdjust="spacing" textLength="53" x="899.5" y="241.8613">property</text><text fill="#000000" font-family="sans-serif" font-size="14" lengthAdjust="spacing" textLength="58" x="897" y="259.4707">:Property</text><polygon fill="#181818" points="1562.5,298.8984,1572.5,302.8984,1562.5,306.8984,1566.5,302.8984" style="stroke:#181818;stroke-width:1.0;"/><line style="stroke:#181818;stroke-width:1.0;" x1="931" x2="1568.5" y1="302.8984" y2="302.8984"/><text fill="#000000" font-family="sans-serif" font-size="13" font-weight="bold" lengthAdjust="spacing" textLength="25" x="938" y="298.042">35.2</text><text fill="#000000" font-family="sans-serif" font-size="13" lengthAdjust="spacing" textLength="309" x="967" y="298.042">photographList = fillPhotographList(photographUriList)</text><rect fill="#E3E3E3" height="49.2188" rx="2.5" ry="2.5" style="stroke:#181818;stroke-width:0.5;" width="130" x="1574.5" y="280.5469"/><text fill="#000000" font-family="sans-serif" font-size="14" lengthAdjust="spacing" textLength="73" x="1603" y="302.0801">photograph</text><text fill="#000000" font-family="sans-serif" font-size="14" lengthAdjust="spacing" textLength="116" x="1581.5" y="319.6895">:List&lt;Photograph&gt;</text><polygon fill="#181818" points="1702.5,384.1172,1712.5,388.1172,1702.5,392.1172,1706.5,388.1172" style="stroke:#181818;stroke-width:1.0;"/><line style="stroke:#181818;stroke-width:1.0;" x1="931" x2="1708.5" y1="388.1172" y2="388.1172"/><text fill="#000000" font-family="sans-serif" font-size="13" font-weight="bold" lengthAdjust="spacing" textLength="25" x="938" y="383.2607">35.3</text><text fill="#000000" font-family="sans-serif" font-size="13" lengthAdjust="spacing" textLength="328" x="967" y="383.2607">createLocation(streetName, city, district, state, zipCode)</text><rect fill="#E3E3E3" height="49.2188" rx="2.5" ry="2.5" style="stroke:#181818;stroke-width:0.5;" width="72" x="1714.5" y="365.7656"/><text fill="#000000" font-family="sans-serif" font-size="14" lengthAdjust="spacing" textLength="49" x="1726" y="387.2988">location</text><text fill="#000000" font-family="sans-serif" font-size="14" lengthAdjust="spacing" textLength="58" x="1721.5" y="404.9082">:Location</text><line style="stroke:#181818;stroke-width:1.0;" x1="1755.5" x2="1802.5" y1="443.3359" y2="443.3359"/><line style="stroke:#181818;stroke-width:1.0;" x1="1802.5" x2="1802.5" y1="443.3359" y2="456.3359"/><line style="stroke:#181818;stroke-width:1.0;" x1="1761.5" x2="1802.5" y1="456.3359" y2="456.3359"/><polygon fill="#181818" points="1771.5,452.3359,1761.5,456.3359,1771.5,460.3359,1767.5,456.3359" style="stroke:#181818;stroke-width:1.0;"/><text fill="#000000" font-family="sans-serif" font-size="13" font-weight="bold" lengthAdjust="spacing" textLength="25" x="1767.5" y="438.4795">35.4</text><text fill="#000000" font-family="sans-serif" font-size="13" lengthAdjust="spacing" textLength="145" x="1796.5" y="438.4795">validateLocation(location)</text><line style="stroke:#181818;stroke-width:1.0;stroke-dasharray:2.0,2.0;" x1="1760.5" x2="1802.5" y1="496.6875" y2="496.6875"/><line style="stroke:#181818;stroke-width:1.0;stroke-dasharray:2.0,2.0;" x1="1802.5" x2="1802.5" y1="496.6875" y2="509.6875"/><line style="stroke:#181818;stroke-width:1.0;stroke-dasharray:2.0,2.0;" x1="1755.5" x2="1802.5" y1="509.6875" y2="509.6875"/><polygon fill="#181818" points="1765.5,505.6875,1755.5,509.6875,1765.5,513.6875,1761.5,509.6875" style="stroke:#181818;stroke-width:1.0;"/><text fill="#000000" font-family="sans-serif" font-size="13" font-weight="bold" lengthAdjust="spacing" textLength="25" x="1767.5" y="491.8311">35.5</text><text fill="#000000" font-family="sans-serif" font-size="13" lengthAdjust="spacing" textLength="4" x="1796.5" y="491.8311"> </text><polygon fill="#181818" points="942,531.0391,932,535.0391,942,539.0391,938,535.0391" style="stroke:#181818;stroke-width:1.0;"/><line style="stroke:#181818;stroke-width:1.0;stroke-dasharray:2.0,2.0;" x1="936" x2="1749.5" y1="535.0391" y2="535.0391"/><text fill="#000000" font-family="sans-serif" font-size="13" font-weight="bold" lengthAdjust="spacing" textLength="25" x="948" y="530.1826">35.6</text><text fill="#000000" font-family="sans-serif" font-size="13" lengthAdjust="spacing" textLength="45" x="977" y="530.1826">location</text><line style="stroke:#181818;stroke-width:1.0;" x1="931" x2="978" y1="585.3906" y2="585.3906"/><line style="stroke:#181818;stroke-width:1.0;" x1="978" x2="978" y1="585.3906" y2="598.3906"/><line style="stroke:#181818;stroke-width:1.0;" x1="937" x2="978" y1="598.3906" y2="598.3906"/><polygon fill="#181818" points="947,594.3906,937,598.3906,947,602.3906,943,598.3906" style="stroke:#181818;stroke-width:1.0;"/><text fill="#000000" font-family="sans-serif" font-size="13" font-weight="bold" lengthAdjust="spacing" textLength="25" x="943" y="580.5342">35.7</text><text fill="#000000" font-family="sans-serif" font-size="13" lengthAdjust="spacing" textLength="147" x="972" y="580.5342">validateProperty(property)</text><line style="stroke:#181818;stroke-width:1.0;stroke-dasharray:2.0,2.0;" x1="936" x2="978" y1="638.7422" y2="638.7422"/><line style="stroke:#181818;stroke-width:1.0;stroke-dasharray:2.0,2.0;" x1="978" x2="978" y1="638.7422" y2="651.7422"/><line style="stroke:#181818;stroke-width:1.0;stroke-dasharray:2.0,2.0;" x1="931" x2="978" y1="651.7422" y2="651.7422"/><polygon fill="#181818" points="941,647.7422,931,651.7422,941,655.7422,937,651.7422" style="stroke:#181818;stroke-width:1.0;"/><text fill="#000000" font-family="sans-serif" font-size="13" font-weight="bold" lengthAdjust="spacing" textLength="25" x="943" y="633.8857">35.8</text><text fill="#000000" font-family="sans-serif" font-size="13" lengthAdjust="spacing" textLength="4" x="972" y="633.8857"> </text><polygon fill="#181818" points="529,673.0938,519,677.0938,529,681.0938,525,677.0938" style="stroke:#181818;stroke-width:1.0;"/><line style="stroke:#181818;stroke-width:1.0;stroke-dasharray:2.0,2.0;" x1="523" x2="925" y1="677.0938" y2="677.0938"/><text fill="#000000" font-family="sans-serif" font-size="13" font-weight="bold" lengthAdjust="spacing" textLength="25" x="535" y="672.2373">35.9</text><text fill="#000000" font-family="sans-serif" font-size="13" lengthAdjust="spacing" textLength="47" x="564" y="672.2373">property</text><line style="stroke:#000000;stroke-width:1.0;stroke-dasharray:2.0,2.0;" x1="467.5" x2="2048.5" y1="711.0938" y2="711.0938"/><text fill="#000000" font-family="sans-serif" font-size="11" font-weight="bold" lengthAdjust="spacing" textLength="157" x="472.5" y="722.5127">[Property Type = Apartment]</text><polygon fill="#181818" points="1071.5,776.9844,1081.5,780.9844,1071.5,784.9844,1075.5,780.9844" style="stroke:#181818;stroke-width:1.0;"/><line style="stroke:#181818;stroke-width:1.0;" x1="518" x2="1077.5" y1="780.9844" y2="780.9844"/><text fill="#000000" font-family="sans-serif" font-size="13" font-weight="bold" lengthAdjust="spacing" textLength="25" x="525" y="759.7764">35.1</text><text fill="#000000" font-family="sans-serif" font-size="13" lengthAdjust="spacing" textLength="365" x="554" y="743.4248">Residence(propertyType, area, streetName, city, district, state,</text><text fill="#000000" font-family="sans-serif" font-size="13" lengthAdjust="spacing" textLength="346" x="558" y="759.7764">zipCode, availableEquipmentDesignationList, parkingSpace,</text><text fill="#000000" font-family="sans-serif" font-size="13" lengthAdjust="spacing" textLength="429" x="558" y="776.1279">numberBedroom, numberBathroom photographUriList, distanceCityCenter)</text><rect fill="#E3E3E3" height="49.2188" rx="2.5" ry="2.5" style="stroke:#181818;stroke-width:0.5;" width="85" x="1083.5" y="728.7656"/><text fill="#000000" font-family="sans-serif" font-size="14" lengthAdjust="spacing" textLength="62" x="1095" y="750.2988">residence</text><text fill="#000000" font-family="sans-serif" font-size="14" lengthAdjust="spacing" textLength="71" x="1090.5" y="767.9082">:Residence</text><polygon fill="#181818" points="1846.5,807.3359,1856.5,811.3359,1846.5,815.3359,1850.5,811.3359" style="stroke:#181818;stroke-width:1.0;"/><line style="stroke:#181818;stroke-width:1.0;" x1="1131" x2="1852.5" y1="811.3359" y2="811.3359"/><text fill="#000000" font-family="sans-serif" font-size="13" font-weight="bold" lengthAdjust="spacing" textLength="25" x="1138" y="806.4795">35.2</text><text fill="#000000" font-family="sans-serif" font-size="13" lengthAdjust="spacing" textLength="502" x="1167" y="806.4795">availableEquipmentList = fillAvailableEquipmentList(availableEquipmentDesignationList)</text><rect fill="#E3E3E3" height="49.2188" rx="2.5" ry="2.5" style="stroke:#181818;stroke-width:0.5;" width="180" x="1858.5" y="788.9844"/><text fill="#000000" font-family="sans-serif" font-size="14" lengthAdjust="spacing" textLength="123" x="1887" y="810.5176">availableEquipment</text><text fill="#000000" font-family="sans-serif" font-size="14" lengthAdjust="spacing" textLength="166" x="1865.5" y="828.127">:List&lt;AvailableEquipment&gt;</text><polygon fill="#181818" points="1142,867.5547,1132,871.5547,1142,875.5547,1138,871.5547" style="stroke:#181818;stroke-width:1.0;"/><line style="stroke:#181818;stroke-width:1.0;stroke-dasharray:2.0,2.0;" x1="1136" x2="1947.5" y1="871.5547" y2="871.5547"/><text fill="#000000" font-family="sans-serif" font-size="13" font-weight="bold" lengthAdjust="spacing" textLength="25" x="1148" y="866.6982">35.3</text><text fill="#000000" font-family="sans-serif" font-size="13" lengthAdjust="spacing" textLength="132" x="1177" y="866.6982">availableEquipmentList</text><polygon fill="#181818" points="1562.5,922.9063,1572.5,926.9063,1562.5,930.9063,1566.5,926.9063" style="stroke:#181818;stroke-width:1.0;"/><line style="stroke:#181818;stroke-width:1.0;" x1="1131" x2="1568.5" y1="926.9063" y2="926.9063"/><text fill="#000000" font-family="sans-serif" font-size="13" font-weight="bold" lengthAdjust="spacing" textLength="25" x="1138" y="922.0498">35.4</text><text fill="#000000" font-family="sans-serif" font-size="13" lengthAdjust="spacing" textLength="309" x="1167" y="922.0498">photographList = fillPhotographList(photographUriList)</text><rect fill="#E3E3E3" height="49.2188" rx="2.5" ry="2.5" style="stroke:#181818;stroke-width:0.5;" width="130" x="1574.5" y="904.5547"/><text fill="#000000" font-family="sans-serif" font-size="14" lengthAdjust="spacing" textLength="73" x="1603" y="926.0879">photograph</text><text fill="#000000" font-family="sans-serif" font-size="14" lengthAdjust="spacing" textLength="116" x="1581.5" y="943.6973">:List&lt;Photograph&gt;</text><polygon fill="#181818" points="1702.5,1008.125,1712.5,1012.125,1702.5,1016.125,1706.5,1012.125" style="stroke:#181818;stroke-width:1.0;"/><line style="stroke:#181818;stroke-width:1.0;" x1="1131" x2="1708.5" y1="1012.125" y2="1012.125"/><text fill="#000000" font-family="sans-serif" font-size="13" font-weight="bold" lengthAdjust="spacing" textLength="25" x="1138" y="1007.2686">35.5</text><text fill="#000000" font-family="sans-serif" font-size="13" lengthAdjust="spacing" textLength="328" x="1167" y="1007.2686">createLocation(streetName, city, district, state, zipCode)</text><rect fill="#E3E3E3" height="49.2188" rx="2.5" ry="2.5" style="stroke:#181818;stroke-width:0.5;" width="72" x="1714.5" y="989.7734"/><text fill="#000000" font-family="sans-serif" font-size="14" lengthAdjust="spacing" textLength="49" x="1726" y="1011.3066">location</text><text fill="#000000" font-family="sans-serif" font-size="14" lengthAdjust="spacing" textLength="58" x="1721.5" y="1028.916">:Location</text><line style="stroke:#181818;stroke-width:1.0;" x1="1755.5" x2="1802.5" y1="1067.3438" y2="1067.3438"/><line style="stroke:#181818;stroke-width:1.0;" x1="1802.5" x2="1802.5" y1="1067.3438" y2="1080.3438"/><line style="stroke:#181818;stroke-width:1.0;" x1="1761.5" x2="1802.5" y1="1080.3438" y2="1080.3438"/><polygon fill="#181818" points="1771.5,1076.3438,1761.5,1080.3438,1771.5,1084.3438,1767.5,1080.3438" style="stroke:#181818;stroke-width:1.0;"/><text fill="#000000" font-family="sans-serif" font-size="13" font-weight="bold" lengthAdjust="spacing" textLength="25" x="1767.5" y="1062.4873">35.6</text><text fill="#000000" font-family="sans-serif" font-size="13" lengthAdjust="spacing" textLength="145" x="1796.5" y="1062.4873">validateLocation(location)</text><line style="stroke:#181818;stroke-width:1.0;stroke-dasharray:2.0,2.0;" x1="1760.5" x2="1802.5" y1="1120.6953" y2="1120.6953"/><line style="stroke:#181818;stroke-width:1.0;stroke-dasharray:2.0,2.0;" x1="1802.5" x2="1802.5" y1="1120.6953" y2="1133.6953"/><line style="stroke:#181818;stroke-width:1.0;stroke-dasharray:2.0,2.0;" x1="1755.5" x2="1802.5" y1="1133.6953" y2="1133.6953"/><polygon fill="#181818" points="1765.5,1129.6953,1755.5,1133.6953,1765.5,1137.6953,1761.5,1133.6953" style="stroke:#181818;stroke-width:1.0;"/><text fill="#000000" font-family="sans-serif" font-size="13" font-weight="bold" lengthAdjust="spacing" textLength="25" x="1767.5" y="1115.8389">35.7</text><text fill="#000000" font-family="sans-serif" font-size="13" lengthAdjust="spacing" textLength="4" x="1796.5" y="1115.8389"> </text><polygon fill="#181818" points="1142,1155.0469,1132,1159.0469,1142,1163.0469,1138,1159.0469" style="stroke:#181818;stroke-width:1.0;"/><line style="stroke:#181818;stroke-width:1.0;stroke-dasharray:2.0,2.0;" x1="1136" x2="1749.5" y1="1159.0469" y2="1159.0469"/><text fill="#000000" font-family="sans-serif" font-size="13" font-weight="bold" lengthAdjust="spacing" textLength="25" x="1148" y="1154.1904">35.8</text><text fill="#000000" font-family="sans-serif" font-size="13" lengthAdjust="spacing" textLength="45" x="1177" y="1154.1904">location</text><polygon fill="#181818" points="529,1185.3984,519,1189.3984,529,1193.3984,525,1189.3984" style="stroke:#181818;stroke-width:1.0;"/><line style="stroke:#181818;stroke-width:1.0;stroke-dasharray:2.0,2.0;" x1="523" x2="1125" y1="1189.3984" y2="1189.3984"/><text fill="#000000" font-family="sans-serif" font-size="13" font-weight="bold" lengthAdjust="spacing" textLength="25" x="535" y="1184.542">35.9</text><text fill="#000000" font-family="sans-serif" font-size="13" lengthAdjust="spacing" textLength="47" x="564" y="1184.542">property</text><line style="stroke:#000000;stroke-width:1.0;stroke-dasharray:2.0,2.0;" x1="467.5" x2="2048.5" y1="1223.3984" y2="1223.3984"/><text fill="#000000" font-family="sans-serif" font-size="11" font-weight="bold" lengthAdjust="spacing" textLength="133" x="472.5" y="1234.8174">[Property Type = House]</text><polygon fill="#181818" points="1166.5,1305.6406,1176.5,1309.6406,1166.5,1313.6406,1170.5,1309.6406" style="stroke:#181818;stroke-width:1.0;"/><line style="stroke:#181818;stroke-width:1.0;" x1="518" x2="1172.5" y1="1309.6406" y2="1309.6406"/><text fill="#000000" font-family="sans-serif" font-size="13" font-weight="bold" lengthAdjust="spacing" textLength="25" x="525" y="1280.2568">35.1</text><text fill="#000000" font-family="sans-serif" font-size="13" lengthAdjust="spacing" textLength="436" x="554" y="1255.7295">House(propertyType, availableEquipmentDesignationList, area, streetName,</text><text fill="#000000" font-family="sans-serif" font-size="13" lengthAdjust="spacing" textLength="407" x="558" y="1272.0811">city, district, state, zipCode, basement, inhabitableLoft, parkingSpace,</text><text fill="#000000" font-family="sans-serif" font-size="13" lengthAdjust="spacing" textLength="408" x="558" y="1288.4326">sunExposure, numberBedroom, numberBathroom, distanceCityCenter,</text><text fill="#000000" font-family="sans-serif" font-size="13" lengthAdjust="spacing" textLength="105" x="558" y="1304.7842">photographUriList)</text><rect fill="#E3E3E3" height="49.2188" rx="2.5" ry="2.5" style="stroke:#181818;stroke-width:0.5;" width="58" x="1178.5" y="1257.4219"/><text fill="#000000" font-family="sans-serif" font-size="14" lengthAdjust="spacing" textLength="39" x="1188" y="1278.9551">house</text><text fill="#000000" font-family="sans-serif" font-size="14" lengthAdjust="spacing" textLength="44" x="1185.5" y="1296.5645">:House</text><polygon fill="#181818" points="1846.5,1335.9922,1856.5,1339.9922,1846.5,1343.9922,1850.5,1339.9922" style="stroke:#181818;stroke-width:1.0;"/><line style="stroke:#181818;stroke-width:1.0;" x1="1212.5" x2="1852.5" y1="1339.9922" y2="1339.9922"/><text fill="#000000" font-family="sans-serif" font-size="13" font-weight="bold" lengthAdjust="spacing" textLength="25" x="1219.5" y="1335.1357">35.2</text><text fill="#000000" font-family="sans-serif" font-size="13" lengthAdjust="spacing" textLength="502" x="1248.5" y="1335.1357">availableEquipmentList = fillAvailableEquipmentList(availableEquipmentDesignationList)</text><rect fill="#E3E3E3" height="49.2188" rx="2.5" ry="2.5" style="stroke:#181818;stroke-width:0.5;" width="180" x="1858.5" y="1317.6406"/><text fill="#000000" font-family="sans-serif" font-size="14" lengthAdjust="spacing" textLength="123" x="1887" y="1339.1738">availableEquipment</text><text fill="#000000" font-family="sans-serif" font-size="14" lengthAdjust="spacing" textLength="166" x="1865.5" y="1356.7832">:List&lt;AvailableEquipment&gt;</text><polygon fill="#181818" points="1562.5,1396.2109,1572.5,1400.2109,1562.5,1404.2109,1566.5,1400.2109" style="stroke:#181818;stroke-width:1.0;"/><line style="stroke:#181818;stroke-width:1.0;" x1="1212.5" x2="1568.5" y1="1400.2109" y2="1400.2109"/><text fill="#000000" font-family="sans-serif" font-size="13" font-weight="bold" lengthAdjust="spacing" textLength="25" x="1219.5" y="1395.3545">35.3</text><text fill="#000000" font-family="sans-serif" font-size="13" lengthAdjust="spacing" textLength="309" x="1248.5" y="1395.3545">photographList = fillPhotographList(photographUriList)</text><rect fill="#E3E3E3" height="49.2188" rx="2.5" ry="2.5" style="stroke:#181818;stroke-width:0.5;" width="130" x="1574.5" y="1377.8594"/><text fill="#000000" font-family="sans-serif" font-size="14" lengthAdjust="spacing" textLength="73" x="1603" y="1399.3926">photograph</text><text fill="#000000" font-family="sans-serif" font-size="14" lengthAdjust="spacing" textLength="116" x="1581.5" y="1417.002">:List&lt;Photograph&gt;</text><polygon fill="#181818" points="1702.5,1456.4297,1712.5,1460.4297,1702.5,1464.4297,1706.5,1460.4297" style="stroke:#181818;stroke-width:1.0;"/><line style="stroke:#181818;stroke-width:1.0;" x1="1212.5" x2="1708.5" y1="1460.4297" y2="1460.4297"/><text fill="#000000" font-family="sans-serif" font-size="13" font-weight="bold" lengthAdjust="spacing" textLength="25" x="1219.5" y="1455.5732">35.4</text><text fill="#000000" font-family="sans-serif" font-size="13" lengthAdjust="spacing" textLength="328" x="1248.5" y="1455.5732">createLocation(streetName, city, district, state, zipCode)</text><rect fill="#E3E3E3" height="49.2188" rx="2.5" ry="2.5" style="stroke:#181818;stroke-width:0.5;" width="72" x="1714.5" y="1438.0781"/><text fill="#000000" font-family="sans-serif" font-size="14" lengthAdjust="spacing" textLength="49" x="1726" y="1459.6113">location</text><text fill="#000000" font-family="sans-serif" font-size="14" lengthAdjust="spacing" textLength="58" x="1721.5" y="1477.2207">:Location</text><line style="stroke:#181818;stroke-width:1.0;" x1="1755.5" x2="1802.5" y1="1515.6484" y2="1515.6484"/><line style="stroke:#181818;stroke-width:1.0;" x1="1802.5" x2="1802.5" y1="1515.6484" y2="1528.6484"/><line style="stroke:#181818;stroke-width:1.0;" x1="1761.5" x2="1802.5" y1="1528.6484" y2="1528.6484"/><polygon fill="#181818" points="1771.5,1524.6484,1761.5,1528.6484,1771.5,1532.6484,1767.5,1528.6484" style="stroke:#181818;stroke-width:1.0;"/><text fill="#000000" font-family="sans-serif" font-size="13" font-weight="bold" lengthAdjust="spacing" textLength="25" x="1767.5" y="1510.792">35.5</text><text fill="#000000" font-family="sans-serif" font-size="13" lengthAdjust="spacing" textLength="145" x="1796.5" y="1510.792">validateLocation(location)</text><line style="stroke:#181818;stroke-width:1.0;stroke-dasharray:2.0,2.0;" x1="1760.5" x2="1802.5" y1="1569" y2="1569"/><line style="stroke:#181818;stroke-width:1.0;stroke-dasharray:2.0,2.0;" x1="1802.5" x2="1802.5" y1="1569" y2="1582"/><line style="stroke:#181818;stroke-width:1.0;stroke-dasharray:2.0,2.0;" x1="1755.5" x2="1802.5" y1="1582" y2="1582"/><polygon fill="#181818" points="1765.5,1578,1755.5,1582,1765.5,1586,1761.5,1582" style="stroke:#181818;stroke-width:1.0;"/><text fill="#000000" font-family="sans-serif" font-size="13" font-weight="bold" lengthAdjust="spacing" textLength="25" x="1767.5" y="1564.1436">35.6</text><text fill="#000000" font-family="sans-serif" font-size="13" lengthAdjust="spacing" textLength="4" x="1796.5" y="1564.1436"> </text><polygon fill="#181818" points="1223.5,1603.3516,1213.5,1607.3516,1223.5,1611.3516,1219.5,1607.3516" style="stroke:#181818;stroke-width:1.0;"/><line style="stroke:#181818;stroke-width:1.0;stroke-dasharray:2.0,2.0;" x1="1217.5" x2="1749.5" y1="1607.3516" y2="1607.3516"/><text fill="#000000" font-family="sans-serif" font-size="13" font-weight="bold" lengthAdjust="spacing" textLength="25" x="1229.5" y="1602.4951">35.7</text><text fill="#000000" font-family="sans-serif" font-size="13" lengthAdjust="spacing" textLength="45" x="1258.5" y="1602.4951">location</text><polygon fill="#181818" points="529,1633.7031,519,1637.7031,529,1641.7031,525,1637.7031" style="stroke:#181818;stroke-width:1.0;"/><line style="stroke:#181818;stroke-width:1.0;stroke-dasharray:2.0,2.0;" x1="523" x2="1206.5" y1="1637.7031" y2="1637.7031"/><text fill="#000000" font-family="sans-serif" font-size="13" font-weight="bold" lengthAdjust="spacing" textLength="25" x="535" y="1632.8467">35.8</text><text fill="#000000" font-family="sans-serif" font-size="13" lengthAdjust="spacing" textLength="47" x="564" y="1632.8467">property</text><polygon fill="#181818" points="11,1728.0547,1,1732.0547,11,1736.0547,7,1732.0547" style="stroke:#181818;stroke-width:1.0;"/><line style="stroke:#181818;stroke-width:1.0;stroke-dasharray:2.0,2.0;" x1="5" x2="512" y1="1732.0547" y2="1732.0547"/><text fill="#000000" font-family="sans-serif" font-size="13" font-weight="bold" lengthAdjust="spacing" textLength="14" x="17" y="1727.1982">36</text><text fill="#000000" font-family="sans-serif" font-size="13" lengthAdjust="spacing" textLength="43" x="35" y="1727.1982">request</text><!--SRC=[nLXHRzem47xFhx3wnAfqqZHj3rLNYL6aLaA50NsOr1UJk60riLF7QSVK7x-p4mURE11Qjl6InFvoT_xkxhD3_aXPXWLEKSePZrQ2fmH9KP0WhsSo73tY9Pd9TKAG8974R9dOW7o5O_v2sH8zu2GdGG33aaOqmqoY4q6U2fBBUtO-BUzE4CxHTFZZRZYRkz1Cy8m8kGRifBhLuCbqF1bEvp-t3USq9YmYsdHrNncVtLmDRmT3zuKLBt85lbPN3RmUtyssGDcAIxuKE5i1SaHpUJ6fHoxBQAx7yx7xKi8ZB2bdwfNgLaD7uq5_VZE-TT7u6TC4Bn8oV2febX8cZQj-OwPqsGUsRYP14E12SbQa2oBGvoz1WCplxD8mYivH90YMf6AxnryO4SCK38S8qiXaUOdM8J9ypzSP2T6Yo2aZULu-uPGNWBrd28Ev44MSIO4ZULK8lRuGvL8G8czn2kY8Ih0Nmne4ZQIQWmX2z9jc0nuhspWdQZdQNcEHLv2z9TDc5GqXeco55rGgq8W_m03m1-Msd44jWhMyOCDV6SyBGPJ1af3l91QSfw5vn79LFgkeC9J6068SW3SYm5wTqpj1bSyFDPUmHleCqTSbkc4PVal1YmmDDCEeejX5lBw-Ei_QPYAHgMYa-4NVq0YpE6WYxGH__DG4c3H3narRd9v2qetvdflKCdaxKWNyRIUh8s6Dq1pswfxrmioiNeRg9xs6ZHFb0JXwe4aoSGPxla2yBbGUWZskJNzgxsNRcFxjTIzlFnKr4xK8-51cqeu6Odd62OtjQ8p2jD3UsP_hqtBQYex9eIknIXEMOYBtljJLkA-fjijeuzAmr-Y9TlQw5gxhrNBR3hVMk1FicDsekObz7t_jjdta4TYe6vBKLzkK4kJtwLAz_UgsghVcGvMfwZ8Gg5gPEcmTpawnRtDeoffF_JnLOsqIvgZXOQIQKfoKExWcfBa8I-twtidUteNlYj6S7hO1vNXLRYRMjlYQhrkrr-R1LtaEBU_N_YwoxxZyMvg_NyYEe_LlKEETo2uIx5YpQwLLt3i9kvMNRf9dMMrflEsAy-gS_W0uME8iXTFV3Rg0jAbjPTklKWtn0wNgV8RUSpnM9phhWFo6up5OwD1gTIhAhwW6dthuFsbVxVle0bDRFfQE_0CPERAA74D4IXej0JdGO9K6lspuxPHbkbCiMAm-rJQER82Qr5z_csbRCRvkXY_Epgoegly_0g-6QT0V]--></g></svg>