<?xml version="1.0" encoding="UTF-8" standalone="no"?><svg xmlns="http://www.w3.org/2000/svg" xmlns:xlink="http://www.w3.org/1999/xlink" contentStyleType="text/css" height="1304px" preserveAspectRatio="none" style="width:554px;height:1304px;background:#FFFFFF;" version="1.1" viewBox="0 0 554 1304" width="554px" zoomAndPan="magnify"><defs/><g><text fill="#000000" font-family="sans-serif" font-size="14" font-weight="bold" lengthAdjust="spacing" textLength="284" x="136.75" y="29.5332">System Sequence Diagram (SSD) - US001</text><rect fill="#FFFFFF" height="1082.3594" style="stroke:#181818;stroke-width:1.0;" width="10" x="74.5" y="131.2188"/><rect fill="#FFFFFF" height="30.3516" style="stroke:#181818;stroke-width:1.0;" width="10" x="501.5" y="153.5703"/><rect fill="#FFFFFF" height="30.3516" style="stroke:#181818;stroke-width:1.0;" width="10" x="501.5" y="239.625"/><rect fill="#FFFFFF" height="46.7031" style="stroke:#181818;stroke-width:1.0;" width="10" x="501.5" y="300.3281"/><rect fill="#FFFFFF" height="30.3516" style="stroke:#181818;stroke-width:1.0;" width="10" x="501.5" y="409.7344"/><rect fill="#FFFFFF" height="46.7031" style="stroke:#181818;stroke-width:1.0;" width="10" x="501.5" y="470.4375"/><rect fill="#FFFFFF" height="30.3516" style="stroke:#181818;stroke-width:1.0;" width="10" x="501.5" y="579.8438"/><rect fill="#FFFFFF" height="46.7031" style="stroke:#181818;stroke-width:1.0;" width="10" x="501.5" y="640.5469"/><rect fill="#FFFFFF" height="30.3516" style="stroke:#181818;stroke-width:1.0;" width="10" x="501.5" y="749.9531"/><rect fill="#FFFFFF" height="46.7031" style="stroke:#181818;stroke-width:1.0;" width="10" x="501.5" y="810.6563"/><rect fill="#FFFFFF" height="30.3516" style="stroke:#181818;stroke-width:1.0;" width="10" x="501.5" y="920.0625"/><rect fill="#FFFFFF" height="46.7031" style="stroke:#181818;stroke-width:1.0;" width="10" x="501.5" y="980.7656"/><rect fill="#FFFFFF" height="30.3516" style="stroke:#181818;stroke-width:1.0;" width="10" x="501.5" y="1090.1719"/><rect fill="#FFFFFF" height="46.7031" style="stroke:#181818;stroke-width:1.0;" width="10" x="501.5" y="1150.875"/><rect fill="none" height="156.1094" style="stroke:#000000;stroke-width:1.5;" width="538.5" x="10" y="198.9219"/><rect fill="none" height="156.1094" style="stroke:#000000;stroke-width:1.5;" width="538.5" x="10" y="369.0313"/><rect fill="none" height="156.1094" style="stroke:#000000;stroke-width:1.5;" width="538.5" x="10" y="539.1406"/><rect fill="none" height="156.1094" style="stroke:#000000;stroke-width:1.5;" width="538.5" x="10" y="709.25"/><rect fill="none" height="156.1094" style="stroke:#000000;stroke-width:1.5;" width="538.5" x="10" y="879.3594"/><rect fill="none" height="156.1094" style="stroke:#000000;stroke-width:1.5;" width="538.5" x="10" y="1049.4688"/><line style="stroke:#181818;stroke-width:0.5;stroke-dasharray:5.0,5.0;" x1="79" x2="79" y1="121.2188" y2="1222.5781"/><line style="stroke:#181818;stroke-width:0.5;stroke-dasharray:5.0,5.0;" x1="506.5" x2="506.5" y1="121.2188" y2="1222.5781"/><text fill="#000000" font-family="sans-serif" font-size="14" lengthAdjust="spacing" textLength="113" x="20" y="118.1426">Unregistered user</text><ellipse cx="79.5" cy="52.1094" fill="#E3E3E3" rx="8" ry="8" style="stroke:#181818;stroke-width:0.5;"/><path d="M79.5,60.1094 L79.5,87.1094 M66.5,68.1094 L92.5,68.1094 M79.5,87.1094 L66.5,102.1094 M79.5,87.1094 L92.5,102.1094 " fill="none" style="stroke:#181818;stroke-width:0.5;"/><text fill="#000000" font-family="sans-serif" font-size="14" lengthAdjust="spacing" textLength="113" x="20" y="1236.1113">Unregistered user</text><ellipse cx="79.5" cy="1247.6875" fill="#E3E3E3" rx="8" ry="8" style="stroke:#181818;stroke-width:0.5;"/><path d="M79.5,1255.6875 L79.5,1282.6875 M66.5,1263.6875 L92.5,1263.6875 M79.5,1282.6875 L66.5,1297.6875 M79.5,1282.6875 L92.5,1297.6875 " fill="none" style="stroke:#181818;stroke-width:0.5;"/><rect fill="#E3E3E3" height="31.6094" rx="2.5" ry="2.5" style="stroke:#181818;stroke-width:0.5;" width="64" x="474.5" y="88.6094"/><text fill="#000000" font-family="sans-serif" font-size="14" lengthAdjust="spacing" textLength="50" x="481.5" y="110.1426">:System</text><rect fill="#E3E3E3" height="31.6094" rx="2.5" ry="2.5" style="stroke:#181818;stroke-width:0.5;" width="64" x="474.5" y="1221.5781"/><text fill="#000000" font-family="sans-serif" font-size="14" lengthAdjust="spacing" textLength="50" x="481.5" y="1243.1113">:System</text><rect fill="#FFFFFF" height="1082.3594" style="stroke:#181818;stroke-width:1.0;" width="10" x="74.5" y="131.2188"/><rect fill="#FFFFFF" height="30.3516" style="stroke:#181818;stroke-width:1.0;" width="10" x="501.5" y="153.5703"/><rect fill="#FFFFFF" height="30.3516" style="stroke:#181818;stroke-width:1.0;" width="10" x="501.5" y="239.625"/><rect fill="#FFFFFF" height="46.7031" style="stroke:#181818;stroke-width:1.0;" width="10" x="501.5" y="300.3281"/><rect fill="#FFFFFF" height="30.3516" style="stroke:#181818;stroke-width:1.0;" width="10" x="501.5" y="409.7344"/><rect fill="#FFFFFF" height="46.7031" style="stroke:#181818;stroke-width:1.0;" width="10" x="501.5" y="470.4375"/><rect fill="#FFFFFF" height="30.3516" style="stroke:#181818;stroke-width:1.0;" width="10" x="501.5" y="579.8438"/><rect fill="#FFFFFF" height="46.7031" style="stroke:#181818;stroke-width:1.0;" width="10" x="501.5" y="640.5469"/><rect fill="#FFFFFF" height="30.3516" style="stroke:#181818;stroke-width:1.0;" width="10" x="501.5" y="749.9531"/><rect fill="#FFFFFF" height="46.7031" style="stroke:#181818;stroke-width:1.0;" width="10" x="501.5" y="810.6563"/><rect fill="#FFFFFF" height="30.3516" style="stroke:#181818;stroke-width:1.0;" width="10" x="501.5" y="920.0625"/><rect fill="#FFFFFF" height="46.7031" style="stroke:#181818;stroke-width:1.0;" width="10" x="501.5" y="980.7656"/><rect fill="#FFFFFF" height="30.3516" style="stroke:#181818;stroke-width:1.0;" width="10" x="501.5" y="1090.1719"/><rect fill="#FFFFFF" height="46.7031" style="stroke:#181818;stroke-width:1.0;" width="10" x="501.5" y="1150.875"/><polygon fill="#181818" points="489.5,149.5703,499.5,153.5703,489.5,157.5703,493.5,153.5703" style="stroke:#181818;stroke-width:1.0;"/><line style="stroke:#181818;stroke-width:1.0;" x1="84.5" x2="495.5" y1="153.5703" y2="153.5703"/><text fill="#000000" font-family="sans-serif" font-size="13" font-weight="bold" lengthAdjust="spacing" textLength="7" x="91.5" y="148.7139">1</text><text fill="#000000" font-family="sans-serif" font-size="13" lengthAdjust="spacing" textLength="184" x="102.5" y="148.7139">asks to display listed properties</text><polygon fill="#181818" points="95.5,179.9219,85.5,183.9219,95.5,187.9219,91.5,183.9219" style="stroke:#181818;stroke-width:1.0;"/><line style="stroke:#181818;stroke-width:1.0;stroke-dasharray:2.0,2.0;" x1="89.5" x2="505.5" y1="183.9219" y2="183.9219"/><text fill="#000000" font-family="sans-serif" font-size="13" font-weight="bold" lengthAdjust="spacing" textLength="7" x="101.5" y="179.0654">2</text><text fill="#000000" font-family="sans-serif" font-size="13" lengthAdjust="spacing" textLength="267" x="112.5" y="179.0654">display listed properties by most recent added</text><path d="M10,198.9219 L75,198.9219 L75,207.2734 L65,217.2734 L10,217.2734 L10,198.9219 " fill="#EEEEEE" style="stroke:#000000;stroke-width:1.5;"/><rect fill="none" height="156.1094" style="stroke:#000000;stroke-width:1.5;" width="538.5" x="10" y="198.9219"/><text fill="#000000" font-family="sans-serif" font-size="13" font-weight="bold" lengthAdjust="spacing" textLength="20" x="25" y="213.417">opt</text><text fill="#000000" font-family="sans-serif" font-size="11" font-weight="bold" lengthAdjust="spacing" textLength="101" x="90" y="212.3408">[type of business]</text><polygon fill="#181818" points="489.5,235.625,499.5,239.625,489.5,243.625,493.5,239.625" style="stroke:#181818;stroke-width:1.0;"/><line style="stroke:#181818;stroke-width:1.0;" x1="84.5" x2="495.5" y1="239.625" y2="239.625"/><text fill="#000000" font-family="sans-serif" font-size="13" font-weight="bold" lengthAdjust="spacing" textLength="7" x="91.5" y="234.7686">3</text><text fill="#000000" font-family="sans-serif" font-size="13" lengthAdjust="spacing" textLength="181" x="102.5" y="234.7686">asks to select type of business</text><polygon fill="#181818" points="95.5,265.9766,85.5,269.9766,95.5,273.9766,91.5,269.9766" style="stroke:#181818;stroke-width:1.0;"/><line style="stroke:#181818;stroke-width:1.0;stroke-dasharray:2.0,2.0;" x1="89.5" x2="505.5" y1="269.9766" y2="269.9766"/><text fill="#000000" font-family="sans-serif" font-size="13" font-weight="bold" lengthAdjust="spacing" textLength="7" x="101.5" y="265.1201">4</text><text fill="#000000" font-family="sans-serif" font-size="13" lengthAdjust="spacing" textLength="244" x="112.5" y="265.1201">shows types of business and request data</text><polygon fill="#181818" points="489.5,296.3281,499.5,300.3281,489.5,304.3281,493.5,300.3281" style="stroke:#181818;stroke-width:1.0;"/><line style="stroke:#181818;stroke-width:1.0;" x1="84.5" x2="495.5" y1="300.3281" y2="300.3281"/><text fill="#000000" font-family="sans-serif" font-size="13" font-weight="bold" lengthAdjust="spacing" textLength="7" x="91.5" y="295.4717">5</text><text fill="#000000" font-family="sans-serif" font-size="13" lengthAdjust="spacing" textLength="163" x="102.5" y="295.4717">selects data (businessType)</text><polygon fill="#181818" points="95.5,343.0313,85.5,347.0313,95.5,351.0313,91.5,347.0313" style="stroke:#181818;stroke-width:1.0;"/><line style="stroke:#181818;stroke-width:1.0;stroke-dasharray:2.0,2.0;" x1="89.5" x2="505.5" y1="347.0313" y2="347.0313"/><text fill="#000000" font-family="sans-serif" font-size="13" font-weight="bold" lengthAdjust="spacing" textLength="7" x="101.5" y="333.999">6</text><text fill="#000000" font-family="sans-serif" font-size="13" lengthAdjust="spacing" textLength="277" x="112.5" y="325.8232">display all the listed properties, according to the</text><text fill="#000000" font-family="sans-serif" font-size="13" lengthAdjust="spacing" textLength="85" x="112.5" y="342.1748">criteria chosen</text><path d="M10,369.0313 L75,369.0313 L75,377.3828 L65,387.3828 L10,387.3828 L10,369.0313 " fill="#EEEEEE" style="stroke:#000000;stroke-width:1.5;"/><rect fill="none" height="156.1094" style="stroke:#000000;stroke-width:1.5;" width="538.5" x="10" y="369.0313"/><text fill="#000000" font-family="sans-serif" font-size="13" font-weight="bold" lengthAdjust="spacing" textLength="20" x="25" y="383.5264">opt</text><text fill="#000000" font-family="sans-serif" font-size="11" font-weight="bold" lengthAdjust="spacing" textLength="97" x="90" y="382.4502">[type of property]</text><polygon fill="#181818" points="489.5,405.7344,499.5,409.7344,489.5,413.7344,493.5,409.7344" style="stroke:#181818;stroke-width:1.0;"/><line style="stroke:#181818;stroke-width:1.0;" x1="84.5" x2="495.5" y1="409.7344" y2="409.7344"/><text fill="#000000" font-family="sans-serif" font-size="13" font-weight="bold" lengthAdjust="spacing" textLength="7" x="91.5" y="404.8779">7</text><text fill="#000000" font-family="sans-serif" font-size="13" lengthAdjust="spacing" textLength="176" x="102.5" y="404.8779">asks to select type of property</text><polygon fill="#181818" points="95.5,436.0859,85.5,440.0859,95.5,444.0859,91.5,440.0859" style="stroke:#181818;stroke-width:1.0;"/><line style="stroke:#181818;stroke-width:1.0;stroke-dasharray:2.0,2.0;" x1="89.5" x2="505.5" y1="440.0859" y2="440.0859"/><text fill="#000000" font-family="sans-serif" font-size="13" font-weight="bold" lengthAdjust="spacing" textLength="7" x="101.5" y="435.2295">8</text><text fill="#000000" font-family="sans-serif" font-size="13" lengthAdjust="spacing" textLength="249" x="112.5" y="435.2295">shows types of properties and request data</text><polygon fill="#181818" points="489.5,466.4375,499.5,470.4375,489.5,474.4375,493.5,470.4375" style="stroke:#181818;stroke-width:1.0;"/><line style="stroke:#181818;stroke-width:1.0;" x1="84.5" x2="495.5" y1="470.4375" y2="470.4375"/><text fill="#000000" font-family="sans-serif" font-size="13" font-weight="bold" lengthAdjust="spacing" textLength="7" x="91.5" y="465.5811">9</text><text fill="#000000" font-family="sans-serif" font-size="13" lengthAdjust="spacing" textLength="158" x="102.5" y="465.5811">selects data (propertyType)</text><polygon fill="#181818" points="95.5,513.1406,85.5,517.1406,95.5,521.1406,91.5,517.1406" style="stroke:#181818;stroke-width:1.0;"/><line style="stroke:#181818;stroke-width:1.0;stroke-dasharray:2.0,2.0;" x1="89.5" x2="505.5" y1="517.1406" y2="517.1406"/><text fill="#000000" font-family="sans-serif" font-size="13" font-weight="bold" lengthAdjust="spacing" textLength="14" x="101.5" y="504.1084">10</text><text fill="#000000" font-family="sans-serif" font-size="13" lengthAdjust="spacing" textLength="277" x="119.5" y="495.9326">display all the listed properties, according to the</text><text fill="#000000" font-family="sans-serif" font-size="13" lengthAdjust="spacing" textLength="85" x="119.5" y="512.2842">criteria chosen</text><path d="M10,539.1406 L75,539.1406 L75,547.4922 L65,557.4922 L10,557.4922 L10,539.1406 " fill="#EEEEEE" style="stroke:#000000;stroke-width:1.5;"/><rect fill="none" height="156.1094" style="stroke:#000000;stroke-width:1.5;" width="538.5" x="10" y="539.1406"/><text fill="#000000" font-family="sans-serif" font-size="13" font-weight="bold" lengthAdjust="spacing" textLength="20" x="25" y="553.6357">opt</text><text fill="#000000" font-family="sans-serif" font-size="11" font-weight="bold" lengthAdjust="spacing" textLength="244" x="90" y="552.5596">[number of bedrooms &amp; properType != land]</text><polygon fill="#181818" points="489.5,575.8438,499.5,579.8438,489.5,583.8438,493.5,579.8438" style="stroke:#181818;stroke-width:1.0;"/><line style="stroke:#181818;stroke-width:1.0;" x1="84.5" x2="495.5" y1="579.8438" y2="579.8438"/><text fill="#000000" font-family="sans-serif" font-size="13" font-weight="bold" lengthAdjust="spacing" textLength="14" x="91.5" y="574.9873">11</text><text fill="#000000" font-family="sans-serif" font-size="13" lengthAdjust="spacing" textLength="204" x="109.5" y="574.9873">asks to select number of bedrooms</text><polygon fill="#181818" points="95.5,606.1953,85.5,610.1953,95.5,614.1953,91.5,610.1953" style="stroke:#181818;stroke-width:1.0;"/><line style="stroke:#181818;stroke-width:1.0;stroke-dasharray:2.0,2.0;" x1="89.5" x2="505.5" y1="610.1953" y2="610.1953"/><text fill="#000000" font-family="sans-serif" font-size="13" font-weight="bold" lengthAdjust="spacing" textLength="14" x="101.5" y="605.3389">12</text><text fill="#000000" font-family="sans-serif" font-size="13" lengthAdjust="spacing" textLength="324" x="119.5" y="605.3389">shows options for number of bedrooms and request data</text><polygon fill="#181818" points="489.5,636.5469,499.5,640.5469,489.5,644.5469,493.5,640.5469" style="stroke:#181818;stroke-width:1.0;"/><line style="stroke:#181818;stroke-width:1.0;" x1="84.5" x2="495.5" y1="640.5469" y2="640.5469"/><text fill="#000000" font-family="sans-serif" font-size="13" font-weight="bold" lengthAdjust="spacing" textLength="14" x="91.5" y="635.6904">13</text><text fill="#000000" font-family="sans-serif" font-size="13" lengthAdjust="spacing" textLength="185" x="109.5" y="635.6904">selects data (numberBedrooms)</text><polygon fill="#181818" points="95.5,683.25,85.5,687.25,95.5,691.25,91.5,687.25" style="stroke:#181818;stroke-width:1.0;"/><line style="stroke:#181818;stroke-width:1.0;stroke-dasharray:2.0,2.0;" x1="89.5" x2="505.5" y1="687.25" y2="687.25"/><text fill="#000000" font-family="sans-serif" font-size="13" font-weight="bold" lengthAdjust="spacing" textLength="14" x="101.5" y="674.2178">14</text><text fill="#000000" font-family="sans-serif" font-size="13" lengthAdjust="spacing" textLength="277" x="119.5" y="666.042">display all the listed properties, according to the</text><text fill="#000000" font-family="sans-serif" font-size="13" lengthAdjust="spacing" textLength="85" x="119.5" y="682.3936">criteria chosen</text><path d="M10,709.25 L75,709.25 L75,717.6016 L65,727.6016 L10,727.6016 L10,709.25 " fill="#EEEEEE" style="stroke:#000000;stroke-width:1.5;"/><rect fill="none" height="156.1094" style="stroke:#000000;stroke-width:1.5;" width="538.5" x="10" y="709.25"/><text fill="#000000" font-family="sans-serif" font-size="13" font-weight="bold" lengthAdjust="spacing" textLength="20" x="25" y="723.7451">opt</text><text fill="#000000" font-family="sans-serif" font-size="11" font-weight="bold" lengthAdjust="spacing" textLength="36" x="90" y="722.6689">[price]</text><polygon fill="#181818" points="489.5,745.9531,499.5,749.9531,489.5,753.9531,493.5,749.9531" style="stroke:#181818;stroke-width:1.0;"/><line style="stroke:#181818;stroke-width:1.0;" x1="84.5" x2="495.5" y1="749.9531" y2="749.9531"/><text fill="#000000" font-family="sans-serif" font-size="13" font-weight="bold" lengthAdjust="spacing" textLength="14" x="91.5" y="745.0967">15</text><text fill="#000000" font-family="sans-serif" font-size="13" lengthAdjust="spacing" textLength="215" x="109.5" y="745.0967">asks to sort announcements by price</text><polygon fill="#181818" points="95.5,776.3047,85.5,780.3047,95.5,784.3047,91.5,780.3047" style="stroke:#181818;stroke-width:1.0;"/><line style="stroke:#181818;stroke-width:1.0;stroke-dasharray:2.0,2.0;" x1="89.5" x2="505.5" y1="780.3047" y2="780.3047"/><text fill="#000000" font-family="sans-serif" font-size="13" font-weight="bold" lengthAdjust="spacing" textLength="14" x="101.5" y="775.4482">16</text><text fill="#000000" font-family="sans-serif" font-size="13" lengthAdjust="spacing" textLength="374" x="119.5" y="775.4482">shows options for sort announcements by price and request data</text><polygon fill="#181818" points="489.5,806.6563,499.5,810.6563,489.5,814.6563,493.5,810.6563" style="stroke:#181818;stroke-width:1.0;"/><line style="stroke:#181818;stroke-width:1.0;" x1="84.5" x2="495.5" y1="810.6563" y2="810.6563"/><text fill="#000000" font-family="sans-serif" font-size="13" font-weight="bold" lengthAdjust="spacing" textLength="14" x="91.5" y="805.7998">17</text><text fill="#000000" font-family="sans-serif" font-size="13" lengthAdjust="spacing" textLength="143" x="109.5" y="805.7998">select data (sortingType)</text><polygon fill="#181818" points="95.5,853.3594,85.5,857.3594,95.5,861.3594,91.5,857.3594" style="stroke:#181818;stroke-width:1.0;"/><line style="stroke:#181818;stroke-width:1.0;stroke-dasharray:2.0,2.0;" x1="89.5" x2="505.5" y1="857.3594" y2="857.3594"/><text fill="#000000" font-family="sans-serif" font-size="13" font-weight="bold" lengthAdjust="spacing" textLength="14" x="101.5" y="844.3271">18</text><text fill="#000000" font-family="sans-serif" font-size="13" lengthAdjust="spacing" textLength="277" x="119.5" y="836.1514">display all the listed properties, according to the</text><text fill="#000000" font-family="sans-serif" font-size="13" lengthAdjust="spacing" textLength="85" x="119.5" y="852.5029">criteria chosen</text><path d="M10,879.3594 L75,879.3594 L75,887.7109 L65,897.7109 L10,897.7109 L10,879.3594 " fill="#EEEEEE" style="stroke:#000000;stroke-width:1.5;"/><rect fill="none" height="156.1094" style="stroke:#000000;stroke-width:1.5;" width="538.5" x="10" y="879.3594"/><text fill="#000000" font-family="sans-serif" font-size="13" font-weight="bold" lengthAdjust="spacing" textLength="20" x="25" y="893.8545">opt</text><text fill="#000000" font-family="sans-serif" font-size="11" font-weight="bold" lengthAdjust="spacing" textLength="27" x="90" y="892.7783">[city]</text><polygon fill="#181818" points="489.5,916.0625,499.5,920.0625,489.5,924.0625,493.5,920.0625" style="stroke:#181818;stroke-width:1.0;"/><line style="stroke:#181818;stroke-width:1.0;" x1="84.5" x2="495.5" y1="920.0625" y2="920.0625"/><text fill="#000000" font-family="sans-serif" font-size="13" font-weight="bold" lengthAdjust="spacing" textLength="14" x="91.5" y="915.2061">19</text><text fill="#000000" font-family="sans-serif" font-size="13" lengthAdjust="spacing" textLength="208" x="109.5" y="915.2061">asks to sort announcements by city</text><polygon fill="#181818" points="95.5,946.4141,85.5,950.4141,95.5,954.4141,91.5,950.4141" style="stroke:#181818;stroke-width:1.0;"/><line style="stroke:#181818;stroke-width:1.0;stroke-dasharray:2.0,2.0;" x1="89.5" x2="505.5" y1="950.4141" y2="950.4141"/><text fill="#000000" font-family="sans-serif" font-size="13" font-weight="bold" lengthAdjust="spacing" textLength="14" x="101.5" y="945.5576">20</text><text fill="#000000" font-family="sans-serif" font-size="13" lengthAdjust="spacing" textLength="367" x="119.5" y="945.5576">shows options for sort announcements by city and request data</text><polygon fill="#181818" points="489.5,976.7656,499.5,980.7656,489.5,984.7656,493.5,980.7656" style="stroke:#181818;stroke-width:1.0;"/><line style="stroke:#181818;stroke-width:1.0;" x1="84.5" x2="495.5" y1="980.7656" y2="980.7656"/><text fill="#000000" font-family="sans-serif" font-size="13" font-weight="bold" lengthAdjust="spacing" textLength="14" x="91.5" y="975.9092">21</text><text fill="#000000" font-family="sans-serif" font-size="13" lengthAdjust="spacing" textLength="143" x="109.5" y="975.9092">select data (sortingType)</text><polygon fill="#181818" points="95.5,1023.4688,85.5,1027.4688,95.5,1031.4688,91.5,1027.4688" style="stroke:#181818;stroke-width:1.0;"/><line style="stroke:#181818;stroke-width:1.0;stroke-dasharray:2.0,2.0;" x1="89.5" x2="505.5" y1="1027.4688" y2="1027.4688"/><text fill="#000000" font-family="sans-serif" font-size="13" font-weight="bold" lengthAdjust="spacing" textLength="14" x="101.5" y="1014.4365">22</text><text fill="#000000" font-family="sans-serif" font-size="13" lengthAdjust="spacing" textLength="277" x="119.5" y="1006.2607">display all the listed properties, according to the</text><text fill="#000000" font-family="sans-serif" font-size="13" lengthAdjust="spacing" textLength="85" x="119.5" y="1022.6123">criteria chosen</text><path d="M10,1049.4688 L75,1049.4688 L75,1057.8203 L65,1067.8203 L10,1067.8203 L10,1049.4688 " fill="#EEEEEE" style="stroke:#000000;stroke-width:1.5;"/><rect fill="none" height="156.1094" style="stroke:#000000;stroke-width:1.5;" width="538.5" x="10" y="1049.4688"/><text fill="#000000" font-family="sans-serif" font-size="13" font-weight="bold" lengthAdjust="spacing" textLength="20" x="25" y="1063.9639">opt</text><text fill="#000000" font-family="sans-serif" font-size="11" font-weight="bold" lengthAdjust="spacing" textLength="36" x="90" y="1062.8877">[state]</text><polygon fill="#181818" points="489.5,1086.1719,499.5,1090.1719,489.5,1094.1719,493.5,1090.1719" style="stroke:#181818;stroke-width:1.0;"/><line style="stroke:#181818;stroke-width:1.0;" x1="84.5" x2="495.5" y1="1090.1719" y2="1090.1719"/><text fill="#000000" font-family="sans-serif" font-size="13" font-weight="bold" lengthAdjust="spacing" textLength="14" x="91.5" y="1085.3154">23</text><text fill="#000000" font-family="sans-serif" font-size="13" lengthAdjust="spacing" textLength="216" x="109.5" y="1085.3154">asks to sort announcements by state</text><polygon fill="#181818" points="95.5,1116.5234,85.5,1120.5234,95.5,1124.5234,91.5,1120.5234" style="stroke:#181818;stroke-width:1.0;"/><line style="stroke:#181818;stroke-width:1.0;stroke-dasharray:2.0,2.0;" x1="89.5" x2="505.5" y1="1120.5234" y2="1120.5234"/><text fill="#000000" font-family="sans-serif" font-size="13" font-weight="bold" lengthAdjust="spacing" textLength="14" x="101.5" y="1115.667">24</text><text fill="#000000" font-family="sans-serif" font-size="13" lengthAdjust="spacing" textLength="375" x="119.5" y="1115.667">shows options for sort announcements by state and request data</text><polygon fill="#181818" points="489.5,1146.875,499.5,1150.875,489.5,1154.875,493.5,1150.875" style="stroke:#181818;stroke-width:1.0;"/><line style="stroke:#181818;stroke-width:1.0;" x1="84.5" x2="495.5" y1="1150.875" y2="1150.875"/><text fill="#000000" font-family="sans-serif" font-size="13" font-weight="bold" lengthAdjust="spacing" textLength="14" x="91.5" y="1146.0186">25</text><text fill="#000000" font-family="sans-serif" font-size="13" lengthAdjust="spacing" textLength="143" x="109.5" y="1146.0186">select data (sortingType)</text><polygon fill="#181818" points="95.5,1193.5781,85.5,1197.5781,95.5,1201.5781,91.5,1197.5781" style="stroke:#181818;stroke-width:1.0;"/><line style="stroke:#181818;stroke-width:1.0;stroke-dasharray:2.0,2.0;" x1="89.5" x2="505.5" y1="1197.5781" y2="1197.5781"/><text fill="#000000" font-family="sans-serif" font-size="13" font-weight="bold" lengthAdjust="spacing" textLength="14" x="101.5" y="1184.5459">26</text><text fill="#000000" font-family="sans-serif" font-size="13" lengthAdjust="spacing" textLength="277" x="119.5" y="1176.3701">display all the listed properties, according to the</text><text fill="#000000" font-family="sans-serif" font-size="13" lengthAdjust="spacing" textLength="85" x="119.5" y="1192.7217">criteria chosen</text><!--SRC=[xPMnZjim38PtFmMReRW36k2w1cY7ujx0pTQ5aHXRY2sfejo3txwKR0S9uWIvj1c2DfDWa_zFybDetXdhCM0BhRDErS6r135qLF3-ZKUrmuhAs3S4WLH4MpM70LoZTc_6Lh35XgaeeeaIMlOSgOMIVdPa5S6hmIg5FvNbwpCiOLs-l7mk2koYirsxeI1d5Ls0nTe6gena1zBGCOK58CDQ3eKuHgECHnjXiHeiyjlXc2NCBumqX1SWltI2vTUfe9M4xnYY0stODzX3axmq-E0yYJnnJjihJTBfuQYn5Baikpel0fjUfienpOoaNDIQT1RHDAljV8JOUmAtXKt7nX8FbLniWgaH9kSJPwtcM-7QlN5MuaCfGAkb2S4epMYCk9SuqyXilKETd0NWQTB-BcRFjzGwZHsR1c9Df-F_96hA1PtkfOmfnVomAXYvLGP1rOx9NcWaFIMhJycC3lsxoPmataxcu9BTWSrKwEEm6VP7lhEaWtCjmyVHBZK17xv08uEw6jcftktGf3xZBCDMDjjCdNVWDxXy6nqUWw0FHj4LV5oGHMgjw-IBqifMpLlsEFcF25qm-9keHbB9JIRuE7yqPQvQVBD3FCgz0wIa_vzH18xozbP8nydlQFDgJDdXN-Rq6m00]--></g></svg>