<?xml version="1.0" encoding="UTF-8" standalone="no"?><svg xmlns="http://www.w3.org/2000/svg" xmlns:xlink="http://www.w3.org/1999/xlink" contentStyleType="text/css" height="649px" preserveAspectRatio="none" style="width:457px;height:649px;background:#FFFFFF;" version="1.1" viewBox="0 0 457 649" width="457px" zoomAndPan="magnify"><defs/><g><text fill="#000000" font-family="sans-serif" font-size="14" font-weight="bold" lengthAdjust="spacing" textLength="228" x="121.25" y="29.5332">System Sequence Diagram (SSD)</text><rect fill="#FFFFFF" height="427.625" style="stroke:#181818;stroke-width:1.0;" width="10" x="94.5" y="131.2188"/><rect fill="#FFFFFF" height="63.0547" style="stroke:#181818;stroke-width:1.0;" width="10" x="404.5" y="153.5703"/><rect fill="#FFFFFF" height="46.7031" style="stroke:#181818;stroke-width:1.0;" width="10" x="404.5" y="246.9766"/><rect fill="#FFFFFF" height="165.1094" style="stroke:#181818;stroke-width:1.0;" width="10" x="404.5" y="324.0313"/><rect fill="#FFFFFF" height="30.3516" style="stroke:#181818;stroke-width:1.0;" width="10" x="404.5" y="519.4922"/><rect fill="none" height="48.7031" style="stroke:#000000;stroke-width:1.5;" width="431.5" x="20" y="394.7344"/><line style="stroke:#181818;stroke-width:0.5;stroke-dasharray:5.0,5.0;" x1="99" x2="99" y1="121.2188" y2="567.8438"/><line style="stroke:#181818;stroke-width:0.5;stroke-dasharray:5.0,5.0;" x1="409.5" x2="409.5" y1="121.2188" y2="567.8438"/><text fill="#000000" font-family="sans-serif" font-size="14" lengthAdjust="spacing" textLength="133" x="30" y="118.1426">System Administrator</text><ellipse cx="99.5" cy="52.1094" fill="#E3E3E3" rx="8" ry="8" style="stroke:#181818;stroke-width:0.5;"/><path d="M99.5,60.1094 L99.5,87.1094 M86.5,68.1094 L112.5,68.1094 M99.5,87.1094 L86.5,102.1094 M99.5,87.1094 L112.5,102.1094 " fill="none" style="stroke:#181818;stroke-width:0.5;"/><text fill="#000000" font-family="sans-serif" font-size="14" lengthAdjust="spacing" textLength="133" x="30" y="581.377">System Administrator</text><ellipse cx="99.5" cy="592.9531" fill="#E3E3E3" rx="8" ry="8" style="stroke:#181818;stroke-width:0.5;"/><path d="M99.5,600.9531 L99.5,627.9531 M86.5,608.9531 L112.5,608.9531 M99.5,627.9531 L86.5,642.9531 M99.5,627.9531 L112.5,642.9531 " fill="none" style="stroke:#181818;stroke-width:0.5;"/><rect fill="#E3E3E3" height="31.6094" rx="2.5" ry="2.5" style="stroke:#181818;stroke-width:0.5;" width="64" x="377.5" y="88.6094"/><text fill="#000000" font-family="sans-serif" font-size="14" lengthAdjust="spacing" textLength="50" x="384.5" y="110.1426">:System</text><rect fill="#E3E3E3" height="31.6094" rx="2.5" ry="2.5" style="stroke:#181818;stroke-width:0.5;" width="64" x="377.5" y="566.8438"/><text fill="#000000" font-family="sans-serif" font-size="14" lengthAdjust="spacing" textLength="50" x="384.5" y="588.377">:System</text><rect fill="#FFFFFF" height="427.625" style="stroke:#181818;stroke-width:1.0;" width="10" x="94.5" y="131.2188"/><rect fill="#FFFFFF" height="63.0547" style="stroke:#181818;stroke-width:1.0;" width="10" x="404.5" y="153.5703"/><rect fill="#FFFFFF" height="46.7031" style="stroke:#181818;stroke-width:1.0;" width="10" x="404.5" y="246.9766"/><rect fill="#FFFFFF" height="165.1094" style="stroke:#181818;stroke-width:1.0;" width="10" x="404.5" y="324.0313"/><rect fill="#FFFFFF" height="30.3516" style="stroke:#181818;stroke-width:1.0;" width="10" x="404.5" y="519.4922"/><polygon fill="#181818" points="392.5,149.5703,402.5,153.5703,392.5,157.5703,396.5,153.5703" style="stroke:#181818;stroke-width:1.0;"/><line style="stroke:#181818;stroke-width:1.0;" x1="104.5" x2="398.5" y1="153.5703" y2="153.5703"/><text fill="#000000" font-family="sans-serif" font-size="13" font-weight="bold" lengthAdjust="spacing" textLength="7" x="111.5" y="148.7139">1</text><text fill="#000000" font-family="sans-serif" font-size="13" lengthAdjust="spacing" textLength="188" x="122.5" y="148.7139">asks to register a new employee</text><polygon fill="#181818" points="115.5,212.625,105.5,216.625,115.5,220.625,111.5,216.625" style="stroke:#181818;stroke-width:1.0;"/><line style="stroke:#181818;stroke-width:1.0;stroke-dasharray:2.0,2.0;" x1="109.5" x2="408.5" y1="216.625" y2="216.625"/><text fill="#000000" font-family="sans-serif" font-size="13" font-weight="bold" lengthAdjust="spacing" textLength="7" x="121.5" y="195.417">2</text><text fill="#000000" font-family="sans-serif" font-size="13" lengthAdjust="spacing" textLength="257" x="132.5" y="179.0654">requests data (name, passport card number,</text><text fill="#000000" font-family="sans-serif" font-size="13" lengthAdjust="spacing" textLength="265" x="132.5" y="195.417">phone number, tax number, street name, city,</text><text fill="#000000" font-family="sans-serif" font-size="13" lengthAdjust="spacing" textLength="176" x="136.5" y="211.7686">district, state, zip code, email)</text><polygon fill="#181818" points="392.5,242.9766,402.5,246.9766,392.5,250.9766,396.5,246.9766" style="stroke:#181818;stroke-width:1.0;"/><line style="stroke:#181818;stroke-width:1.0;" x1="104.5" x2="398.5" y1="246.9766" y2="246.9766"/><text fill="#000000" font-family="sans-serif" font-size="13" font-weight="bold" lengthAdjust="spacing" textLength="7" x="111.5" y="242.1201">3</text><text fill="#000000" font-family="sans-serif" font-size="13" lengthAdjust="spacing" textLength="122" x="122.5" y="242.1201">types requested data</text><polygon fill="#181818" points="115.5,289.6797,105.5,293.6797,115.5,297.6797,111.5,293.6797" style="stroke:#181818;stroke-width:1.0;"/><line style="stroke:#181818;stroke-width:1.0;stroke-dasharray:2.0,2.0;" x1="109.5" x2="408.5" y1="293.6797" y2="293.6797"/><text fill="#000000" font-family="sans-serif" font-size="13" font-weight="bold" lengthAdjust="spacing" textLength="7" x="121.5" y="280.6475">4</text><text fill="#000000" font-family="sans-serif" font-size="13" lengthAdjust="spacing" textLength="230" x="132.5" y="272.4717">shows agencies partner list and asks to</text><text fill="#000000" font-family="sans-serif" font-size="13" lengthAdjust="spacing" textLength="60" x="136.5" y="288.8232">select one</text><polygon fill="#181818" points="392.5,320.0313,402.5,324.0313,392.5,328.0313,396.5,324.0313" style="stroke:#181818;stroke-width:1.0;"/><line style="stroke:#181818;stroke-width:1.0;" x1="104.5" x2="398.5" y1="324.0313" y2="324.0313"/><text fill="#000000" font-family="sans-serif" font-size="13" font-weight="bold" lengthAdjust="spacing" textLength="7" x="111.5" y="319.1748">5</text><text fill="#000000" font-family="sans-serif" font-size="13" lengthAdjust="spacing" textLength="106" x="122.5" y="319.1748">selects an agency</text><polygon fill="#181818" points="115.5,375.7344,105.5,379.7344,115.5,383.7344,111.5,379.7344" style="stroke:#181818;stroke-width:1.0;"/><line style="stroke:#181818;stroke-width:1.0;stroke-dasharray:2.0,2.0;" x1="109.5" x2="403.5" y1="379.7344" y2="379.7344"/><text fill="#000000" font-family="sans-serif" font-size="13" font-weight="bold" lengthAdjust="spacing" textLength="7" x="121.5" y="374.8779">6</text><text fill="#000000" font-family="sans-serif" font-size="13" lengthAdjust="spacing" textLength="198" x="132.5" y="374.8779">shows role and asks to select one</text><path d="M20,394.7344 L93,394.7344 L93,403.0859 L83,413.0859 L20,413.0859 L20,394.7344 " fill="#EEEEEE" style="stroke:#000000;stroke-width:1.5;"/><rect fill="none" height="48.7031" style="stroke:#000000;stroke-width:1.5;" width="431.5" x="20" y="394.7344"/><text fill="#000000" font-family="sans-serif" font-size="13" font-weight="bold" lengthAdjust="spacing" textLength="28" x="35" y="409.2295">loop</text><text fill="#000000" font-family="sans-serif" font-size="11" font-weight="bold" lengthAdjust="spacing" textLength="49" x="108" y="408.1533">[3 times]</text><polygon fill="#181818" points="392.5,431.4375,402.5,435.4375,392.5,439.4375,396.5,435.4375" style="stroke:#181818;stroke-width:1.0;"/><line style="stroke:#181818;stroke-width:1.0;" x1="104.5" x2="398.5" y1="435.4375" y2="435.4375"/><text fill="#000000" font-family="sans-serif" font-size="13" font-weight="bold" lengthAdjust="spacing" textLength="7" x="111.5" y="430.5811">7</text><text fill="#000000" font-family="sans-serif" font-size="13" lengthAdjust="spacing" textLength="78" x="122.5" y="430.5811">selects a role</text><polygon fill="#181818" points="115.5,485.1406,105.5,489.1406,115.5,493.1406,111.5,489.1406" style="stroke:#181818;stroke-width:1.0;"/><line style="stroke:#181818;stroke-width:1.0;stroke-dasharray:2.0,2.0;" x1="109.5" x2="408.5" y1="489.1406" y2="489.1406"/><text fill="#000000" font-family="sans-serif" font-size="13" font-weight="bold" lengthAdjust="spacing" textLength="7" x="121.5" y="476.1084">8</text><text fill="#000000" font-family="sans-serif" font-size="13" lengthAdjust="spacing" textLength="251" x="132.5" y="467.9326">shows selected role, agency and requested</text><text fill="#000000" font-family="sans-serif" font-size="13" lengthAdjust="spacing" textLength="25" x="136.5" y="484.2842">data</text><polygon fill="#181818" points="392.5,515.4922,402.5,519.4922,392.5,523.4922,396.5,519.4922" style="stroke:#181818;stroke-width:1.0;"/><line style="stroke:#181818;stroke-width:1.0;" x1="104.5" x2="398.5" y1="519.4922" y2="519.4922"/><text fill="#000000" font-family="sans-serif" font-size="13" font-weight="bold" lengthAdjust="spacing" textLength="7" x="111.5" y="514.6357">9</text><text fill="#000000" font-family="sans-serif" font-size="13" lengthAdjust="spacing" textLength="75" x="122.5" y="514.6357">submits data</text><polygon fill="#181818" points="115.5,545.8438,105.5,549.8438,115.5,553.8438,111.5,549.8438" style="stroke:#181818;stroke-width:1.0;"/><line style="stroke:#181818;stroke-width:1.0;stroke-dasharray:2.0,2.0;" x1="109.5" x2="408.5" y1="549.8438" y2="549.8438"/><text fill="#000000" font-family="sans-serif" font-size="13" font-weight="bold" lengthAdjust="spacing" textLength="14" x="121.5" y="544.9873">10</text><text fill="#000000" font-family="sans-serif" font-size="13" lengthAdjust="spacing" textLength="158" x="139.5" y="544.9873">displays operation success</text><!--SRC=[dLFBJYGn3BptLrXp0cauxMqEAo713z1NBfx4z4IJn25sxsplrw_xoIu21EJaT5pbAjijvv0BLaoGEBCxLKu4MdjgP7ifwCxOKQj39AZa57CN_qsG4tg-XDp14qQXfj6WbjeEefIWfUUUiYEu2zYDwLTjUtVTDDWhvpuTgLhib2li5iIjJo47qOhsTGSeS9zAv86eiO8QN2YO5NQ7EN_AcCE9AVn2fHT80tRM6zpyN7KT37OMK3PFdLMZ2WYPBa0hSWHkV6i1MCx2ScE46_d1gCoig817HRZAc6Xl3HGfN1KSLW-pv_rZBYVEj5v1yVSMctKYXHdjWWwM3NxiI70wFfkWFVm91HnxYoXXYDUJD4zlAdxJlmw5P9LCVjBy7TDouek0hKXsmGZ76MNhPZJ1WDblVJOJGj4M2CpubzNEKAkJvrB3-rAxods11uvpbOzKLqlwJ-GhXP6vm0_Ga4W-eMtYc_8e-y_rRSPQ-qVeVl4sINgPp3Z-TJXVwbb_J67PnkzCrdQkH1m4k93zZO5jWhrp9FAEbBy0]--></g></svg>