<?xml version="1.0" encoding="UTF-8" standalone="no"?><svg xmlns="http://www.w3.org/2000/svg" xmlns:xlink="http://www.w3.org/1999/xlink" contentStyleType="text/css" height="577px" preserveAspectRatio="none" style="width:549px;height:577px;background:#FFFFFF;" version="1.1" viewBox="0 0 549 577" width="549px" zoomAndPan="magnify"><defs/><g><text fill="#000000" font-family="sans-serif" font-size="14" font-weight="bold" lengthAdjust="spacing" textLength="284" x="133.75" y="29.5332">System Sequence Diagram (SSD) - US001</text><rect fill="#FFFFFF" height="355.0547" style="stroke:#181818;stroke-width:1.0;" width="10" x="74.5" y="131.2188"/><rect fill="#FFFFFF" height="30.3516" style="stroke:#181818;stroke-width:1.0;" width="10" x="495.5" y="153.5703"/><rect fill="#FFFFFF" height="46.7031" style="stroke:#181818;stroke-width:1.0;" width="10" x="495.5" y="239.625"/><rect fill="#FFFFFF" height="30.3516" style="stroke:#181818;stroke-width:1.0;" width="10" x="495.5" y="362.8672"/><rect fill="#FFFFFF" height="53.7031" style="stroke:#181818;stroke-width:1.0;" width="10" x="495.5" y="423.5703"/><rect fill="none" height="232.6484" style="stroke:#000000;stroke-width:1.5;" width="532.5" x="10" y="198.9219"/><line style="stroke:#181818;stroke-width:0.5;stroke-dasharray:5.0,5.0;" x1="79" x2="79" y1="121.2188" y2="495.2734"/><line style="stroke:#181818;stroke-width:0.5;stroke-dasharray:5.0,5.0;" x1="500.5" x2="500.5" y1="121.2188" y2="495.2734"/><text fill="#000000" font-family="sans-serif" font-size="14" lengthAdjust="spacing" textLength="113" x="20" y="118.1426">Unregistered user</text><ellipse cx="79.5" cy="52.1094" fill="#E3E3E3" rx="8" ry="8" style="stroke:#181818;stroke-width:0.5;"/><path d="M79.5,60.1094 L79.5,87.1094 M66.5,68.1094 L92.5,68.1094 M79.5,87.1094 L66.5,102.1094 M79.5,87.1094 L92.5,102.1094 " fill="none" style="stroke:#181818;stroke-width:0.5;"/><text fill="#000000" font-family="sans-serif" font-size="14" lengthAdjust="spacing" textLength="113" x="20" y="508.8066">Unregistered user</text><ellipse cx="79.5" cy="520.3828" fill="#E3E3E3" rx="8" ry="8" style="stroke:#181818;stroke-width:0.5;"/><path d="M79.5,528.3828 L79.5,555.3828 M66.5,536.3828 L92.5,536.3828 M79.5,555.3828 L66.5,570.3828 M79.5,555.3828 L92.5,570.3828 " fill="none" style="stroke:#181818;stroke-width:0.5;"/><rect fill="#E3E3E3" height="31.6094" rx="2.5" ry="2.5" style="stroke:#181818;stroke-width:0.5;" width="64" x="468.5" y="88.6094"/><text fill="#000000" font-family="sans-serif" font-size="14" lengthAdjust="spacing" textLength="50" x="475.5" y="110.1426">:System</text><rect fill="#E3E3E3" height="31.6094" rx="2.5" ry="2.5" style="stroke:#181818;stroke-width:0.5;" width="64" x="468.5" y="494.2734"/><text fill="#000000" font-family="sans-serif" font-size="14" lengthAdjust="spacing" textLength="50" x="475.5" y="515.8066">:System</text><rect fill="#FFFFFF" height="355.0547" style="stroke:#181818;stroke-width:1.0;" width="10" x="74.5" y="131.2188"/><rect fill="#FFFFFF" height="30.3516" style="stroke:#181818;stroke-width:1.0;" width="10" x="495.5" y="153.5703"/><rect fill="#FFFFFF" height="46.7031" style="stroke:#181818;stroke-width:1.0;" width="10" x="495.5" y="239.625"/><rect fill="#FFFFFF" height="30.3516" style="stroke:#181818;stroke-width:1.0;" width="10" x="495.5" y="362.8672"/><rect fill="#FFFFFF" height="53.7031" style="stroke:#181818;stroke-width:1.0;" width="10" x="495.5" y="423.5703"/><polygon fill="#181818" points="483.5,149.5703,493.5,153.5703,483.5,157.5703,487.5,153.5703" style="stroke:#181818;stroke-width:1.0;"/><line style="stroke:#181818;stroke-width:1.0;" x1="84.5" x2="489.5" y1="153.5703" y2="153.5703"/><text fill="#000000" font-family="sans-serif" font-size="13" font-weight="bold" lengthAdjust="spacing" textLength="7" x="91.5" y="148.7139">1</text><text fill="#000000" font-family="sans-serif" font-size="13" lengthAdjust="spacing" textLength="184" x="102.5" y="148.7139">asks to display listed properties</text><polygon fill="#181818" points="95.5,179.9219,85.5,183.9219,95.5,187.9219,91.5,183.9219" style="stroke:#181818;stroke-width:1.0;"/><line style="stroke:#181818;stroke-width:1.0;stroke-dasharray:2.0,2.0;" x1="89.5" x2="499.5" y1="183.9219" y2="183.9219"/><text fill="#000000" font-family="sans-serif" font-size="13" font-weight="bold" lengthAdjust="spacing" textLength="7" x="101.5" y="179.0654">2</text><text fill="#000000" font-family="sans-serif" font-size="13" lengthAdjust="spacing" textLength="312" x="112.5" y="179.0654">shows all the listed properties and asks to select data</text><path d="M10,198.9219 L71,198.9219 L71,207.2734 L61,217.2734 L10,217.2734 L10,198.9219 " fill="#EEEEEE" style="stroke:#000000;stroke-width:1.5;"/><rect fill="none" height="232.6484" style="stroke:#000000;stroke-width:1.5;" width="532.5" x="10" y="198.9219"/><text fill="#000000" font-family="sans-serif" font-size="13" font-weight="bold" lengthAdjust="spacing" textLength="16" x="25" y="213.417">alt</text><text fill="#000000" font-family="sans-serif" font-size="11" font-weight="bold" lengthAdjust="spacing" textLength="74" x="86" y="212.3408">[with criteria]</text><polygon fill="#181818" points="483.5,235.625,493.5,239.625,483.5,243.625,487.5,239.625" style="stroke:#181818;stroke-width:1.0;"/><line style="stroke:#181818;stroke-width:1.0;" x1="84.5" x2="489.5" y1="239.625" y2="239.625"/><text fill="#000000" font-family="sans-serif" font-size="13" font-weight="bold" lengthAdjust="spacing" textLength="7" x="91.5" y="234.7686">3</text><text fill="#000000" font-family="sans-serif" font-size="13" lengthAdjust="spacing" textLength="381" x="102.5" y="234.7686">selects data (type of business; type of property; number of rooms)</text><polygon fill="#181818" points="95.5,282.3281,85.5,286.3281,95.5,290.3281,91.5,286.3281" style="stroke:#181818;stroke-width:1.0;"/><line style="stroke:#181818;stroke-width:1.0;stroke-dasharray:2.0,2.0;" x1="89.5" x2="499.5" y1="286.3281" y2="286.3281"/><text fill="#000000" font-family="sans-serif" font-size="13" font-weight="bold" lengthAdjust="spacing" textLength="7" x="101.5" y="273.2959">4</text><text fill="#000000" font-family="sans-serif" font-size="13" lengthAdjust="spacing" textLength="277" x="112.5" y="265.1201">display all the listed properties, according to the</text><text fill="#000000" font-family="sans-serif" font-size="13" lengthAdjust="spacing" textLength="225" x="112.5" y="281.4717">criteria chosen and asks to select data</text><polygon fill="#181818" points="488.5,312.6797,498.5,316.6797,488.5,320.6797,492.5,316.6797" style="stroke:#181818;stroke-width:1.0;"/><line style="stroke:#181818;stroke-width:1.0;" x1="84.5" x2="494.5" y1="316.6797" y2="316.6797"/><text fill="#000000" font-family="sans-serif" font-size="13" font-weight="bold" lengthAdjust="spacing" textLength="7" x="91.5" y="311.8232">5</text><text fill="#000000" font-family="sans-serif" font-size="13" lengthAdjust="spacing" textLength="154" x="102.5" y="311.8232">selects data (price; parish)</text><line style="stroke:#000000;stroke-width:1.0;stroke-dasharray:2.0,2.0;" x1="10" x2="542.5" y1="325.6797" y2="325.6797"/><text fill="#000000" font-family="sans-serif" font-size="11" font-weight="bold" lengthAdjust="spacing" textLength="92" x="15" y="337.0986">[without criteria]</text><polygon fill="#181818" points="483.5,358.8672,493.5,362.8672,483.5,366.8672,487.5,362.8672" style="stroke:#181818;stroke-width:1.0;"/><line style="stroke:#181818;stroke-width:1.0;" x1="84.5" x2="489.5" y1="362.8672" y2="362.8672"/><text fill="#000000" font-family="sans-serif" font-size="13" font-weight="bold" lengthAdjust="spacing" textLength="7" x="91.5" y="358.0107">6</text><text fill="#000000" font-family="sans-serif" font-size="13" lengthAdjust="spacing" textLength="134" x="102.5" y="358.0107">doesn't select any data</text><polygon fill="#181818" points="95.5,389.2188,85.5,393.2188,95.5,397.2188,91.5,393.2188" style="stroke:#181818;stroke-width:1.0;"/><line style="stroke:#181818;stroke-width:1.0;stroke-dasharray:2.0,2.0;" x1="89.5" x2="499.5" y1="393.2188" y2="393.2188"/><text fill="#000000" font-family="sans-serif" font-size="13" font-weight="bold" lengthAdjust="spacing" textLength="7" x="101.5" y="388.3623">7</text><text fill="#000000" font-family="sans-serif" font-size="13" lengthAdjust="spacing" textLength="111" x="112.5" y="388.3623">asks to select data</text><polygon fill="#181818" points="483.5,419.5703,493.5,423.5703,483.5,427.5703,487.5,423.5703" style="stroke:#181818;stroke-width:1.0;"/><line style="stroke:#181818;stroke-width:1.0;" x1="84.5" x2="489.5" y1="423.5703" y2="423.5703"/><text fill="#000000" font-family="sans-serif" font-size="13" font-weight="bold" lengthAdjust="spacing" textLength="7" x="91.5" y="418.7139">8</text><text fill="#000000" font-family="sans-serif" font-size="13" lengthAdjust="spacing" textLength="137" x="102.5" y="418.7139">selects data (sale; rent)</text><polygon fill="#181818" points="95.5,473.2734,85.5,477.2734,95.5,481.2734,91.5,477.2734" style="stroke:#181818;stroke-width:1.0;"/><line style="stroke:#181818;stroke-width:1.0;stroke-dasharray:2.0,2.0;" x1="89.5" x2="499.5" y1="477.2734" y2="477.2734"/><text fill="#000000" font-family="sans-serif" font-size="13" font-weight="bold" lengthAdjust="spacing" textLength="7" x="101.5" y="464.2412">9</text><text fill="#000000" font-family="sans-serif" font-size="13" lengthAdjust="spacing" textLength="277" x="112.5" y="456.0654">display all the listed properties, according to the</text><text fill="#000000" font-family="sans-serif" font-size="13" lengthAdjust="spacing" textLength="85" x="112.5" y="472.417">criteria chosen</text><!--SRC=[jPB1Ri8m38RlVGgBoq0Q4hk2j1DlK77RnIIcZKYJBdQ7-lPpMyesZS8cRJrPoT_F_l-OZoxKcB22AePeoXGh0aaDPNovgT4SiQ1SMa-Go0Y6mdyMS8asdbmeu82UASl4YKhpbeKgoEcreM08jWwBJZxFy-q2bh3BLwkdBCD6OcYgFIMjZSG4irr8L3ZzEv65XYdD01bsMcJQKPnnDGQ1sNfeqTyEPOzmRoWqo3FGhwjW-JmEj5RvaK4YMCUrnnPyryj2dM9DYYVkVxkGHdHtU6Oi5TTZr-e-dXZGUv2IlgC0WxqqPFAQ7rWKx6cMhZP1Bt1oKe99JaDmW_YgbO78FHBcqjO4yG3xXbqWvWsC9-U1sWqCMNTdASQA5nVsrL6kUnw3ctJzg3GJa-sMGdrtcfSmkW5JHgPmCvaRwVmWXpevGnlTtEIuNDm3aYvjdtTiv2FowLus4eS76MV6q7wT-nT1_ezzHg_k4mMvyxeKxDHQ_yaJJotvEm00]--></g></svg>