<?xml version="1.0" encoding="UTF-8" standalone="no"?><svg xmlns="http://www.w3.org/2000/svg" xmlns:xlink="http://www.w3.org/1999/xlink" contentStyleType="text/css" height="624px" preserveAspectRatio="none" style="width:549px;height:624px;background:#FFFFFF;" version="1.1" viewBox="0 0 549 624" width="549px" zoomAndPan="magnify"><defs/><g><text fill="#000000" font-family="sans-serif" font-size="14" font-weight="bold" lengthAdjust="spacing" textLength="284" x="133.75" y="29.5332">System Sequence Diagram (SSD) - US001</text><rect fill="#FFFFFF" height="401.7578" style="stroke:#181818;stroke-width:1.0;" width="10" x="74.5" y="131.2188"/><rect fill="#FFFFFF" height="30.3516" style="stroke:#181818;stroke-width:1.0;" width="10" x="495.5" y="153.5703"/><rect fill="#FFFFFF" height="46.7031" style="stroke:#181818;stroke-width:1.0;" width="10" x="495.5" y="239.625"/><rect fill="#FFFFFF" height="46.7031" style="stroke:#181818;stroke-width:1.0;" width="10" x="495.5" y="316.6797"/><rect fill="#FFFFFF" height="30.3516" style="stroke:#181818;stroke-width:1.0;" width="10" x="495.5" y="409.5703"/><rect fill="#FFFFFF" height="46.7031" style="stroke:#181818;stroke-width:1.0;" width="10" x="495.5" y="470.2734"/><rect fill="none" height="326.0547" style="stroke:#000000;stroke-width:1.5;" width="532.5" x="10" y="198.9219"/><line style="stroke:#181818;stroke-width:0.5;stroke-dasharray:5.0,5.0;" x1="79" x2="79" y1="121.2188" y2="541.9766"/><line style="stroke:#181818;stroke-width:0.5;stroke-dasharray:5.0,5.0;" x1="500.5" x2="500.5" y1="121.2188" y2="541.9766"/><text fill="#000000" font-family="sans-serif" font-size="14" lengthAdjust="spacing" textLength="113" x="20" y="118.1426">Unregistered user</text><ellipse cx="79.5" cy="52.1094" fill="#E3E3E3" rx="8" ry="8" style="stroke:#181818;stroke-width:0.5;"/><path d="M79.5,60.1094 L79.5,87.1094 M66.5,68.1094 L92.5,68.1094 M79.5,87.1094 L66.5,102.1094 M79.5,87.1094 L92.5,102.1094 " fill="none" style="stroke:#181818;stroke-width:0.5;"/><text fill="#000000" font-family="sans-serif" font-size="14" lengthAdjust="spacing" textLength="113" x="20" y="555.5098">Unregistered user</text><ellipse cx="79.5" cy="567.0859" fill="#E3E3E3" rx="8" ry="8" style="stroke:#181818;stroke-width:0.5;"/><path d="M79.5,575.0859 L79.5,602.0859 M66.5,583.0859 L92.5,583.0859 M79.5,602.0859 L66.5,617.0859 M79.5,602.0859 L92.5,617.0859 " fill="none" style="stroke:#181818;stroke-width:0.5;"/><rect fill="#E3E3E3" height="31.6094" rx="2.5" ry="2.5" style="stroke:#181818;stroke-width:0.5;" width="64" x="468.5" y="88.6094"/><text fill="#000000" font-family="sans-serif" font-size="14" lengthAdjust="spacing" textLength="50" x="475.5" y="110.1426">:System</text><rect fill="#E3E3E3" height="31.6094" rx="2.5" ry="2.5" style="stroke:#181818;stroke-width:0.5;" width="64" x="468.5" y="540.9766"/><text fill="#000000" font-family="sans-serif" font-size="14" lengthAdjust="spacing" textLength="50" x="475.5" y="562.5098">:System</text><rect fill="#FFFFFF" height="401.7578" style="stroke:#181818;stroke-width:1.0;" width="10" x="74.5" y="131.2188"/><rect fill="#FFFFFF" height="30.3516" style="stroke:#181818;stroke-width:1.0;" width="10" x="495.5" y="153.5703"/><rect fill="#FFFFFF" height="46.7031" style="stroke:#181818;stroke-width:1.0;" width="10" x="495.5" y="239.625"/><rect fill="#FFFFFF" height="46.7031" style="stroke:#181818;stroke-width:1.0;" width="10" x="495.5" y="316.6797"/><rect fill="#FFFFFF" height="30.3516" style="stroke:#181818;stroke-width:1.0;" width="10" x="495.5" y="409.5703"/><rect fill="#FFFFFF" height="46.7031" style="stroke:#181818;stroke-width:1.0;" width="10" x="495.5" y="470.2734"/><polygon fill="#181818" points="483.5,149.5703,493.5,153.5703,483.5,157.5703,487.5,153.5703" style="stroke:#181818;stroke-width:1.0;"/><line style="stroke:#181818;stroke-width:1.0;" x1="84.5" x2="489.5" y1="153.5703" y2="153.5703"/><text fill="#000000" font-family="sans-serif" font-size="13" font-weight="bold" lengthAdjust="spacing" textLength="7" x="91.5" y="148.7139">1</text><text fill="#000000" font-family="sans-serif" font-size="13" lengthAdjust="spacing" textLength="184" x="102.5" y="148.7139">asks to display listed properties</text><polygon fill="#181818" points="95.5,179.9219,85.5,183.9219,95.5,187.9219,91.5,183.9219" style="stroke:#181818;stroke-width:1.0;"/><line style="stroke:#181818;stroke-width:1.0;stroke-dasharray:2.0,2.0;" x1="89.5" x2="499.5" y1="183.9219" y2="183.9219"/><text fill="#000000" font-family="sans-serif" font-size="13" font-weight="bold" lengthAdjust="spacing" textLength="7" x="101.5" y="179.0654">2</text><text fill="#000000" font-family="sans-serif" font-size="13" lengthAdjust="spacing" textLength="312" x="112.5" y="179.0654">shows all the listed properties and asks to select data</text><path d="M10,198.9219 L71,198.9219 L71,207.2734 L61,217.2734 L10,217.2734 L10,198.9219 " fill="#EEEEEE" style="stroke:#000000;stroke-width:1.5;"/><rect fill="none" height="326.0547" style="stroke:#000000;stroke-width:1.5;" width="532.5" x="10" y="198.9219"/><text fill="#000000" font-family="sans-serif" font-size="13" font-weight="bold" lengthAdjust="spacing" textLength="16" x="25" y="213.417">alt</text><text fill="#000000" font-family="sans-serif" font-size="11" font-weight="bold" lengthAdjust="spacing" textLength="306" x="86" y="212.3408">[type of business / type of property / number of rooms]</text><polygon fill="#181818" points="483.5,235.625,493.5,239.625,483.5,243.625,487.5,239.625" style="stroke:#181818;stroke-width:1.0;"/><line style="stroke:#181818;stroke-width:1.0;" x1="84.5" x2="489.5" y1="239.625" y2="239.625"/><text fill="#000000" font-family="sans-serif" font-size="13" font-weight="bold" lengthAdjust="spacing" textLength="7" x="91.5" y="234.7686">3</text><text fill="#000000" font-family="sans-serif" font-size="13" lengthAdjust="spacing" textLength="381" x="102.5" y="234.7686">selects data (type of business; type of property; number of rooms)</text><polygon fill="#181818" points="95.5,282.3281,85.5,286.3281,95.5,290.3281,91.5,286.3281" style="stroke:#181818;stroke-width:1.0;"/><line style="stroke:#181818;stroke-width:1.0;stroke-dasharray:2.0,2.0;" x1="89.5" x2="499.5" y1="286.3281" y2="286.3281"/><text fill="#000000" font-family="sans-serif" font-size="13" font-weight="bold" lengthAdjust="spacing" textLength="7" x="101.5" y="273.2959">4</text><text fill="#000000" font-family="sans-serif" font-size="13" lengthAdjust="spacing" textLength="277" x="112.5" y="265.1201">display all the listed properties, according to the</text><text fill="#000000" font-family="sans-serif" font-size="13" lengthAdjust="spacing" textLength="225" x="112.5" y="281.4717">criteria chosen and asks to select data</text><polygon fill="#181818" points="483.5,312.6797,493.5,316.6797,483.5,320.6797,487.5,316.6797" style="stroke:#181818;stroke-width:1.0;"/><line style="stroke:#181818;stroke-width:1.0;" x1="84.5" x2="489.5" y1="316.6797" y2="316.6797"/><text fill="#000000" font-family="sans-serif" font-size="13" font-weight="bold" lengthAdjust="spacing" textLength="7" x="91.5" y="311.8232">5</text><text fill="#000000" font-family="sans-serif" font-size="13" lengthAdjust="spacing" textLength="154" x="102.5" y="311.8232">selects data (price; parish)</text><polygon fill="#181818" points="95.5,359.3828,85.5,363.3828,95.5,367.3828,91.5,363.3828" style="stroke:#181818;stroke-width:1.0;"/><line style="stroke:#181818;stroke-width:1.0;stroke-dasharray:2.0,2.0;" x1="89.5" x2="499.5" y1="363.3828" y2="363.3828"/><text fill="#000000" font-family="sans-serif" font-size="13" font-weight="bold" lengthAdjust="spacing" textLength="7" x="101.5" y="350.3506">6</text><text fill="#000000" font-family="sans-serif" font-size="13" lengthAdjust="spacing" textLength="277" x="112.5" y="342.1748">display all the listed properties, according to the</text><text fill="#000000" font-family="sans-serif" font-size="13" lengthAdjust="spacing" textLength="85" x="112.5" y="358.5264">criteria chosen</text><line style="stroke:#000000;stroke-width:1.0;stroke-dasharray:2.0,2.0;" x1="10" x2="542.5" y1="372.3828" y2="372.3828"/><text fill="#000000" font-family="sans-serif" font-size="11" font-weight="bold" lengthAdjust="spacing" textLength="36" x="15" y="383.8018">[none]</text><polygon fill="#181818" points="483.5,405.5703,493.5,409.5703,483.5,413.5703,487.5,409.5703" style="stroke:#181818;stroke-width:1.0;"/><line style="stroke:#181818;stroke-width:1.0;" x1="84.5" x2="489.5" y1="409.5703" y2="409.5703"/><text fill="#000000" font-family="sans-serif" font-size="13" font-weight="bold" lengthAdjust="spacing" textLength="7" x="91.5" y="404.7139">7</text><text fill="#000000" font-family="sans-serif" font-size="13" lengthAdjust="spacing" textLength="134" x="102.5" y="404.7139">doesn't select any data</text><polygon fill="#181818" points="95.5,435.9219,85.5,439.9219,95.5,443.9219,91.5,439.9219" style="stroke:#181818;stroke-width:1.0;"/><line style="stroke:#181818;stroke-width:1.0;stroke-dasharray:2.0,2.0;" x1="89.5" x2="499.5" y1="439.9219" y2="439.9219"/><text fill="#000000" font-family="sans-serif" font-size="13" font-weight="bold" lengthAdjust="spacing" textLength="7" x="101.5" y="435.0654">8</text><text fill="#000000" font-family="sans-serif" font-size="13" lengthAdjust="spacing" textLength="111" x="112.5" y="435.0654">asks to select data</text><polygon fill="#181818" points="483.5,466.2734,493.5,470.2734,483.5,474.2734,487.5,470.2734" style="stroke:#181818;stroke-width:1.0;"/><line style="stroke:#181818;stroke-width:1.0;" x1="84.5" x2="489.5" y1="470.2734" y2="470.2734"/><text fill="#000000" font-family="sans-serif" font-size="13" font-weight="bold" lengthAdjust="spacing" textLength="7" x="91.5" y="465.417">9</text><text fill="#000000" font-family="sans-serif" font-size="13" lengthAdjust="spacing" textLength="137" x="102.5" y="465.417">selects data (sale; rent)</text><polygon fill="#181818" points="95.5,512.9766,85.5,516.9766,95.5,520.9766,91.5,516.9766" style="stroke:#181818;stroke-width:1.0;"/><line style="stroke:#181818;stroke-width:1.0;stroke-dasharray:2.0,2.0;" x1="89.5" x2="499.5" y1="516.9766" y2="516.9766"/><text fill="#000000" font-family="sans-serif" font-size="13" font-weight="bold" lengthAdjust="spacing" textLength="14" x="101.5" y="503.9443">10</text><text fill="#000000" font-family="sans-serif" font-size="13" lengthAdjust="spacing" textLength="277" x="119.5" y="495.7686">display all the listed properties, according to the</text><text fill="#000000" font-family="sans-serif" font-size="13" lengthAdjust="spacing" textLength="85" x="119.5" y="512.1201">criteria chosen</text><!--SRC=[jPF1JiCm38RlVGfh5vZ415mtYHDlKEt6nIIcZPOw9NQP-lQuxLOGsuH0a9ELED_l_sygky0jPcoWIPnSdLD3eBcZGkQJ5jqEAogrZmIPd29NyNE3rEZJFd05BnY5YaA3MclPYr839Rrsn8xWCM0rj5-NvUCILh0jx-xkYm8xJTmrpvIjTfeoBBQSgGfsEvE7JYWl00MsLXIcgC655bbXiPuanjEf717X3PMczW9i3HMi7eu3hQrz9w09V90sOWznqFBGvjIIuKd6QpFfY8R3Ed1MXXpHQqiWxGKmHj2QJd60x6THeMWPWaV5aUZfh1161UrRWlG2pvq49X6udRSEyDwsfl26pPnI8-SjJweooiBrL_3cXBlvYbt-D9DZk1TJkJ6QIzaF3yTo6NgUsELWdpqWk3e9yM-I-yPxcuEZZRtg7AHUpWOkEli_SxF41IDaFnDmOZflooSIlj9ZBCZzHpINt9mw-Tjm1QDbcubr-SCv_YxHCvCJ-yBMEm00]--></g></svg>