<?xml version="1.0" encoding="UTF-8" standalone="no"?><svg xmlns="http://www.w3.org/2000/svg" xmlns:xlink="http://www.w3.org/1999/xlink" contentStyleType="text/css" height="421px" preserveAspectRatio="none" style="width:411px;height:421px;background:#FFFFFF;" version="1.1" viewBox="0 0 411 421" width="411px" zoomAndPan="magnify"><defs/><g><text fill="#000000" font-family="sans-serif" font-size="14" font-weight="bold" lengthAdjust="spacing" textLength="351" x="29.25" y="29.5332">System Sequence Diagram (SSD) - Alternative One</text><rect fill="#FFFFFF" height="199.4609" style="stroke:#181818;stroke-width:1.0;" width="10" x="59.5" y="131.2188"/><rect fill="#FFFFFF" height="30.3516" style="stroke:#181818;stroke-width:1.0;" width="10" x="368.5" y="153.5703"/><rect fill="#FFFFFF" height="30.3516" style="stroke:#181818;stroke-width:1.0;" width="10" x="368.5" y="214.2734"/><rect fill="#FFFFFF" height="46.7031" style="stroke:#181818;stroke-width:1.0;" width="10" x="368.5" y="274.9766"/><line style="stroke:#181818;stroke-width:0.5;stroke-dasharray:5.0,5.0;" x1="64" x2="64" y1="121.2188" y2="339.6797"/><line style="stroke:#181818;stroke-width:0.5;stroke-dasharray:5.0,5.0;" x1="373.5" x2="373.5" y1="121.2188" y2="339.6797"/><text fill="#000000" font-family="sans-serif" font-size="14" lengthAdjust="spacing" textLength="113" x="5" y="118.1426">Unregistered user</text><ellipse cx="64.5" cy="52.1094" fill="#E3E3E3" rx="8" ry="8" style="stroke:#181818;stroke-width:0.5;"/><path d="M64.5,60.1094 L64.5,87.1094 M51.5,68.1094 L77.5,68.1094 M64.5,87.1094 L51.5,102.1094 M64.5,87.1094 L77.5,102.1094 " fill="none" style="stroke:#181818;stroke-width:0.5;"/><text fill="#000000" font-family="sans-serif" font-size="14" lengthAdjust="spacing" textLength="113" x="5" y="353.2129">Unregistered user</text><ellipse cx="64.5" cy="364.7891" fill="#E3E3E3" rx="8" ry="8" style="stroke:#181818;stroke-width:0.5;"/><path d="M64.5,372.7891 L64.5,399.7891 M51.5,380.7891 L77.5,380.7891 M64.5,399.7891 L51.5,414.7891 M64.5,399.7891 L77.5,414.7891 " fill="none" style="stroke:#181818;stroke-width:0.5;"/><rect fill="#E3E3E3" height="31.6094" rx="2.5" ry="2.5" style="stroke:#181818;stroke-width:0.5;" width="64" x="341.5" y="88.6094"/><text fill="#000000" font-family="sans-serif" font-size="14" lengthAdjust="spacing" textLength="50" x="348.5" y="110.1426">:System</text><rect fill="#E3E3E3" height="31.6094" rx="2.5" ry="2.5" style="stroke:#181818;stroke-width:0.5;" width="64" x="341.5" y="338.6797"/><text fill="#000000" font-family="sans-serif" font-size="14" lengthAdjust="spacing" textLength="50" x="348.5" y="360.2129">:System</text><rect fill="#FFFFFF" height="199.4609" style="stroke:#181818;stroke-width:1.0;" width="10" x="59.5" y="131.2188"/><rect fill="#FFFFFF" height="30.3516" style="stroke:#181818;stroke-width:1.0;" width="10" x="368.5" y="153.5703"/><rect fill="#FFFFFF" height="30.3516" style="stroke:#181818;stroke-width:1.0;" width="10" x="368.5" y="214.2734"/><rect fill="#FFFFFF" height="46.7031" style="stroke:#181818;stroke-width:1.0;" width="10" x="368.5" y="274.9766"/><polygon fill="#181818" points="356.5,149.5703,366.5,153.5703,356.5,157.5703,360.5,153.5703" style="stroke:#181818;stroke-width:1.0;"/><line style="stroke:#181818;stroke-width:1.0;" x1="69.5" x2="362.5" y1="153.5703" y2="153.5703"/><text fill="#000000" font-family="sans-serif" font-size="13" font-weight="bold" lengthAdjust="spacing" textLength="7" x="76.5" y="148.7139">1</text><text fill="#000000" font-family="sans-serif" font-size="13" lengthAdjust="spacing" textLength="184" x="87.5" y="148.7139">asks to display listed properties</text><polygon fill="#181818" points="80.5,179.9219,70.5,183.9219,80.5,187.9219,76.5,183.9219" style="stroke:#181818;stroke-width:1.0;"/><line style="stroke:#181818;stroke-width:1.0;stroke-dasharray:2.0,2.0;" x1="74.5" x2="372.5" y1="183.9219" y2="183.9219"/><text fill="#000000" font-family="sans-serif" font-size="13" font-weight="bold" lengthAdjust="spacing" textLength="7" x="86.5" y="179.0654">2</text><text fill="#000000" font-family="sans-serif" font-size="13" lengthAdjust="spacing" textLength="225" x="97.5" y="179.0654">requests data (name, email, password)</text><polygon fill="#181818" points="356.5,210.2734,366.5,214.2734,356.5,218.2734,360.5,214.2734" style="stroke:#181818;stroke-width:1.0;"/><line style="stroke:#181818;stroke-width:1.0;" x1="69.5" x2="362.5" y1="214.2734" y2="214.2734"/><text fill="#000000" font-family="sans-serif" font-size="13" font-weight="bold" lengthAdjust="spacing" textLength="7" x="76.5" y="209.417">3</text><text fill="#000000" font-family="sans-serif" font-size="13" lengthAdjust="spacing" textLength="122" x="87.5" y="209.417">types requested data</text><polygon fill="#181818" points="80.5,240.625,70.5,244.625,80.5,248.625,76.5,244.625" style="stroke:#181818;stroke-width:1.0;"/><line style="stroke:#181818;stroke-width:1.0;stroke-dasharray:2.0,2.0;" x1="74.5" x2="372.5" y1="244.625" y2="244.625"/><text fill="#000000" font-family="sans-serif" font-size="13" font-weight="bold" lengthAdjust="spacing" textLength="7" x="86.5" y="239.7686">4</text><text fill="#000000" font-family="sans-serif" font-size="13" lengthAdjust="spacing" textLength="172" x="97.5" y="239.7686">shows all the listed properties</text><polygon fill="#181818" points="356.5,270.9766,366.5,274.9766,356.5,278.9766,360.5,274.9766" style="stroke:#181818;stroke-width:1.0;"/><line style="stroke:#181818;stroke-width:1.0;" x1="69.5" x2="362.5" y1="274.9766" y2="274.9766"/><text fill="#000000" font-family="sans-serif" font-size="13" font-weight="bold" lengthAdjust="spacing" textLength="7" x="76.5" y="270.1201">5</text><text fill="#000000" font-family="sans-serif" font-size="13" lengthAdjust="spacing" textLength="215" x="87.5" y="270.1201">chooses the criteria for the properties</text><polygon fill="#181818" points="80.5,317.6797,70.5,321.6797,80.5,325.6797,76.5,321.6797" style="stroke:#181818;stroke-width:1.0;"/><line style="stroke:#181818;stroke-width:1.0;stroke-dasharray:2.0,2.0;" x1="74.5" x2="372.5" y1="321.6797" y2="321.6797"/><text fill="#000000" font-family="sans-serif" font-size="13" font-weight="bold" lengthAdjust="spacing" textLength="7" x="86.5" y="308.6475">6</text><text fill="#000000" font-family="sans-serif" font-size="13" lengthAdjust="spacing" textLength="260" x="97.5" y="300.4717">display the listed properties, according to the</text><text fill="#000000" font-family="sans-serif" font-size="13" lengthAdjust="spacing" textLength="85" x="97.5" y="316.8232">criteria chosen</text><!--SRC=[fP8zRiCm38LtduB8b0391J8KA93E7OnkNLY9iONehoATmBSlvSHkXsHegqcs7x_tI9fFBcOi622ac4nVKY2GCb33ovUCveGTjJ9wWa96C7R-fu1xjEdYOWT7z4nD8qvKseui5A2bpu6Y8JWuxAfytRQ73UpWsGkLYEBE1AzHot2G58VmGKNlHbA1rLiir3db5B8mC9KL8CDBo3wDH8twYpCkOnHOxQ-6a-9wdJ3kZ4BV9GtecPzWzpJ7t6lPYK4IMCVPumY- -bh89MLI6-AfT27E5d0xDyvEaGj-h_FIxbaOB0h2EcAWBL10vxSwMEPBAdOpCIpTHT-DAcCcdjcQiSB_aexxT650xq5wUj3mRtAPFYNMP9LcYjErEOIZBhA- -DyWvwtS3RfLcj59rdzGDrWrxt49eAcOugDclW00]--></g></svg>