<?xml version="1.0" encoding="UTF-8" standalone="no"?><svg xmlns="http://www.w3.org/2000/svg" xmlns:xlink="http://www.w3.org/1999/xlink" contentStyleType="text/css" height="658px" preserveAspectRatio="none" style="width:616px;height:658px;background:#FFFFFF;" version="1.1" viewBox="0 0 616 658" width="616px" zoomAndPan="magnify"><defs/><g><text fill="#000000" font-family="sans-serif" font-size="14" font-weight="bold" lengthAdjust="spacing" textLength="406" x="106.25" y="29.5332">System Sequence Diagram (SSD) - US001 - Alternative Two</text><rect fill="#FFFFFF" height="436.1094" style="stroke:#181818;stroke-width:1.0;" width="10" x="84.5" y="131.2188"/><rect fill="#FFFFFF" height="46.7031" style="stroke:#181818;stroke-width:1.0;" width="10" x="552.5" y="153.5703"/><rect fill="#FFFFFF" height="46.7031" style="stroke:#181818;stroke-width:1.0;" width="10" x="552.5" y="255.9766"/><rect fill="#FFFFFF" height="30.3516" style="stroke:#181818;stroke-width:1.0;" width="10" x="552.5" y="411.5703"/><rect fill="#FFFFFF" height="60.7031" style="stroke:#181818;stroke-width:1.0;" width="10" x="552.5" y="497.625"/><rect fill="none" height="297.3516" style="stroke:#000000;stroke-width:1.5;" width="599.5" x="10" y="215.2734"/><rect fill="none" height="48.7031" style="stroke:#000000;stroke-width:1.5;" width="579.5" x="20" y="317.6797"/><rect fill="none" height="48.7031" style="stroke:#000000;stroke-width:1.5;" width="579.5" x="20" y="456.9219"/><line style="stroke:#181818;stroke-width:0.5;stroke-dasharray:5.0,5.0;" x1="89" x2="89" y1="121.2188" y2="576.3281"/><line style="stroke:#181818;stroke-width:0.5;stroke-dasharray:5.0,5.0;" x1="557.5" x2="557.5" y1="121.2188" y2="576.3281"/><text fill="#000000" font-family="sans-serif" font-size="14" lengthAdjust="spacing" textLength="113" x="30" y="118.1426">Unregistered user</text><ellipse cx="89.5" cy="52.1094" fill="#E2E2F0" rx="8" ry="8" style="stroke:#181818;stroke-width:0.5;"/><path d="M89.5,60.1094 L89.5,87.1094 M76.5,68.1094 L102.5,68.1094 M89.5,87.1094 L76.5,102.1094 M89.5,87.1094 L102.5,102.1094 " fill="none" style="stroke:#181818;stroke-width:0.5;"/><text fill="#000000" font-family="sans-serif" font-size="14" lengthAdjust="spacing" textLength="113" x="30" y="589.8613">Unregistered user</text><ellipse cx="89.5" cy="601.4375" fill="#E2E2F0" rx="8" ry="8" style="stroke:#181818;stroke-width:0.5;"/><path d="M89.5,609.4375 L89.5,636.4375 M76.5,617.4375 L102.5,617.4375 M89.5,636.4375 L76.5,651.4375 M89.5,636.4375 L102.5,651.4375 " fill="none" style="stroke:#181818;stroke-width:0.5;"/><rect fill="#E2E2F0" height="31.6094" rx="2.5" ry="2.5" style="stroke:#181818;stroke-width:0.5;" width="64" x="525.5" y="88.6094"/><text fill="#000000" font-family="sans-serif" font-size="14" lengthAdjust="spacing" textLength="50" x="532.5" y="110.1426">:System</text><rect fill="#E2E2F0" height="31.6094" rx="2.5" ry="2.5" style="stroke:#181818;stroke-width:0.5;" width="64" x="525.5" y="575.3281"/><text fill="#000000" font-family="sans-serif" font-size="14" lengthAdjust="spacing" textLength="50" x="532.5" y="596.8613">:System</text><rect fill="#FFFFFF" height="436.1094" style="stroke:#181818;stroke-width:1.0;" width="10" x="84.5" y="131.2188"/><rect fill="#FFFFFF" height="46.7031" style="stroke:#181818;stroke-width:1.0;" width="10" x="552.5" y="153.5703"/><rect fill="#FFFFFF" height="46.7031" style="stroke:#181818;stroke-width:1.0;" width="10" x="552.5" y="255.9766"/><rect fill="#FFFFFF" height="30.3516" style="stroke:#181818;stroke-width:1.0;" width="10" x="552.5" y="411.5703"/><rect fill="#FFFFFF" height="60.7031" style="stroke:#181818;stroke-width:1.0;" width="10" x="552.5" y="497.625"/><polygon fill="#181818" points="540.5,149.5703,550.5,153.5703,540.5,157.5703,544.5,153.5703" style="stroke:#181818;stroke-width:1.0;"/><line style="stroke:#181818;stroke-width:1.0;" x1="94.5" x2="546.5" y1="153.5703" y2="153.5703"/><text fill="#000000" font-family="sans-serif" font-size="13" font-weight="bold" lengthAdjust="spacing" textLength="7" x="101.5" y="148.7139">1</text><text fill="#000000" font-family="sans-serif" font-size="13" lengthAdjust="spacing" textLength="184" x="112.5" y="148.7139">asks to display listed properties</text><polygon fill="#181818" points="105.5,196.2734,95.5,200.2734,105.5,204.2734,101.5,200.2734" style="stroke:#181818;stroke-width:1.0;"/><line style="stroke:#181818;stroke-width:1.0;stroke-dasharray:2.0,2.0;" x1="99.5" x2="556.5" y1="200.2734" y2="200.2734"/><text fill="#000000" font-family="sans-serif" font-size="13" font-weight="bold" lengthAdjust="spacing" textLength="7" x="111.5" y="187.2412">2</text><text fill="#000000" font-family="sans-serif" font-size="13" lengthAdjust="spacing" textLength="419" x="122.5" y="179.0654">shows all the listed properties and asks to select data (type of business;</text><text fill="#000000" font-family="sans-serif" font-size="13" lengthAdjust="spacing" textLength="220" x="122.5" y="195.417">type of property; number of bedrooms)</text><path d="M10,215.2734 L71,215.2734 L71,223.625 L61,233.625 L10,233.625 L10,215.2734 " fill="#EEEEEE" style="stroke:#000000;stroke-width:1.5;"/><rect fill="none" height="297.3516" style="stroke:#000000;stroke-width:1.5;" width="599.5" x="10" y="215.2734"/><text fill="#000000" font-family="sans-serif" font-size="13" font-weight="bold" lengthAdjust="spacing" textLength="16" x="25" y="229.7686">alt</text><text fill="#000000" font-family="sans-serif" font-size="11" font-weight="bold" lengthAdjust="spacing" textLength="74" x="86" y="228.6924">[with criteria]</text><polygon fill="#181818" points="540.5,251.9766,550.5,255.9766,540.5,259.9766,544.5,255.9766" style="stroke:#181818;stroke-width:1.0;"/><line style="stroke:#181818;stroke-width:1.0;" x1="94.5" x2="546.5" y1="255.9766" y2="255.9766"/><text fill="#000000" font-family="sans-serif" font-size="13" font-weight="bold" lengthAdjust="spacing" textLength="7" x="101.5" y="251.1201">3</text><text fill="#000000" font-family="sans-serif" font-size="13" lengthAdjust="spacing" textLength="402" x="112.5" y="251.1201">selects data (type of business; type of property; number of bedrooms)</text><polygon fill="#181818" points="105.5,298.6797,95.5,302.6797,105.5,306.6797,101.5,302.6797" style="stroke:#181818;stroke-width:1.0;"/><line style="stroke:#181818;stroke-width:1.0;stroke-dasharray:2.0,2.0;" x1="99.5" x2="556.5" y1="302.6797" y2="302.6797"/><text fill="#000000" font-family="sans-serif" font-size="13" font-weight="bold" lengthAdjust="spacing" textLength="7" x="111.5" y="289.6475">4</text><text fill="#000000" font-family="sans-serif" font-size="13" lengthAdjust="spacing" textLength="277" x="122.5" y="281.4717">display all the listed properties, according to the</text><text fill="#000000" font-family="sans-serif" font-size="13" lengthAdjust="spacing" textLength="331" x="122.5" y="297.8232">criteria chosen and asks to select data (price; city; state)</text><path d="M20,317.6797 L85,317.6797 L85,326.0313 L75,336.0313 L20,336.0313 L20,317.6797 " fill="#EEEEEE" style="stroke:#000000;stroke-width:1.5;"/><rect fill="none" height="48.7031" style="stroke:#000000;stroke-width:1.5;" width="579.5" x="20" y="317.6797"/><text fill="#000000" font-family="sans-serif" font-size="13" font-weight="bold" lengthAdjust="spacing" textLength="20" x="35" y="332.1748">opt</text><text fill="#000000" font-family="sans-serif" font-size="11" font-weight="bold" lengthAdjust="spacing" textLength="161" x="100" y="331.0986">[sort by price or city or state]</text><polygon fill="#181818" points="545.5,354.3828,555.5,358.3828,545.5,362.3828,549.5,358.3828" style="stroke:#181818;stroke-width:1.0;"/><line style="stroke:#181818;stroke-width:1.0;" x1="94.5" x2="551.5" y1="358.3828" y2="358.3828"/><text fill="#000000" font-family="sans-serif" font-size="13" font-weight="bold" lengthAdjust="spacing" textLength="7" x="101.5" y="353.5264">5</text><text fill="#000000" font-family="sans-serif" font-size="13" lengthAdjust="spacing" textLength="177" x="112.5" y="353.5264">selects data (price; city; state)</text><line style="stroke:#000000;stroke-width:1.0;stroke-dasharray:2.0,2.0;" x1="10" x2="609.5" y1="374.3828" y2="374.3828"/><text fill="#000000" font-family="sans-serif" font-size="11" font-weight="bold" lengthAdjust="spacing" textLength="92" x="15" y="385.8018">[without criteria]</text><polygon fill="#181818" points="540.5,407.5703,550.5,411.5703,540.5,415.5703,544.5,411.5703" style="stroke:#181818;stroke-width:1.0;"/><line style="stroke:#181818;stroke-width:1.0;" x1="94.5" x2="546.5" y1="411.5703" y2="411.5703"/><text fill="#000000" font-family="sans-serif" font-size="13" font-weight="bold" lengthAdjust="spacing" textLength="7" x="101.5" y="406.7139">3</text><text fill="#000000" font-family="sans-serif" font-size="13" lengthAdjust="spacing" textLength="134" x="112.5" y="406.7139">doesn't select any data</text><polygon fill="#181818" points="105.5,437.9219,95.5,441.9219,105.5,445.9219,101.5,441.9219" style="stroke:#181818;stroke-width:1.0;"/><line style="stroke:#181818;stroke-width:1.0;stroke-dasharray:2.0,2.0;" x1="99.5" x2="556.5" y1="441.9219" y2="441.9219"/><text fill="#000000" font-family="sans-serif" font-size="13" font-weight="bold" lengthAdjust="spacing" textLength="7" x="111.5" y="437.0654">4</text><text fill="#000000" font-family="sans-serif" font-size="13" lengthAdjust="spacing" textLength="177" x="122.5" y="437.0654">asks to select data (sale; rent)</text><path d="M20,456.9219 L85,456.9219 L85,465.2734 L75,475.2734 L20,475.2734 L20,456.9219 " fill="#EEEEEE" style="stroke:#000000;stroke-width:1.5;"/><rect fill="none" height="48.7031" style="stroke:#000000;stroke-width:1.5;" width="579.5" x="20" y="456.9219"/><text fill="#000000" font-family="sans-serif" font-size="13" font-weight="bold" lengthAdjust="spacing" textLength="20" x="35" y="471.417">opt</text><text fill="#000000" font-family="sans-serif" font-size="11" font-weight="bold" lengthAdjust="spacing" textLength="176" x="100" y="470.3408">[sort properties by sale or rent]</text><polygon fill="#181818" points="540.5,493.625,550.5,497.625,540.5,501.625,544.5,497.625" style="stroke:#181818;stroke-width:1.0;"/><line style="stroke:#181818;stroke-width:1.0;" x1="94.5" x2="546.5" y1="497.625" y2="497.625"/><text fill="#000000" font-family="sans-serif" font-size="13" font-weight="bold" lengthAdjust="spacing" textLength="7" x="101.5" y="492.7686">5</text><text fill="#000000" font-family="sans-serif" font-size="13" lengthAdjust="spacing" textLength="137" x="112.5" y="492.7686">selects data (sale; rent)</text><polygon fill="#181818" points="105.5,554.3281,95.5,558.3281,105.5,562.3281,101.5,558.3281" style="stroke:#181818;stroke-width:1.0;"/><line style="stroke:#181818;stroke-width:1.0;stroke-dasharray:2.0,2.0;" x1="99.5" x2="556.5" y1="558.3281" y2="558.3281"/><text fill="#000000" font-family="sans-serif" font-size="13" font-weight="bold" lengthAdjust="spacing" textLength="7" x="111.5" y="545.2959">6</text><text fill="#000000" font-family="sans-serif" font-size="13" lengthAdjust="spacing" textLength="277" x="122.5" y="537.1201">display all the listed properties, according to the</text><text fill="#000000" font-family="sans-serif" font-size="13" lengthAdjust="spacing" textLength="85" x="122.5" y="553.4717">criteria chosen</text><!--SRC=[jPExZjim44LxVSM56-y2SRn1EXj8462Rr8gxRMXoOXEXI8KpMaD_dw5aUVEmiauH5kA8Zpjt3idbKQJbpNhT1XEbQy9Rcverq_UEegMLy-QGJLDLuYKGwfw56jJdQJoEqxYhwyTxhB2h7nxUQVyf2ELen3yJlfnILPbEKkoQFMMDhQICnIvcEdZLo-JGCUK536EdGTMQBDxwLXrXiHcJ3hDZE4ZuPoCqBg-MAWBrPLCKezycmM3t6UeIHiL8hMfda623fwWRFsghAcWh4bXzc6hRQ9vl34bmdXLAZr1CEhGvjQI-Y8Tj5mkJfp9urbYft22x0H_JYM52W1pfJocOw2u9cG9PWJDQn9tqBI5znRvZ7ubvYwSuZPttzrkCJ8Trv79A3TyFHXnTzMU2uEJb29kzClFcEe7H2CywkTt7ZPGcrBEStgYIJTdvU2YaofgdE1K1UqnCSPvbcxsbBQmlLbdKpryfbPPQ0QSisFSOjaFlR14e_I3nilOLVdFPNt50qOq_59Y6KqkTl1pSYFVohF1-vZQxH1oNCW4niHzi_SlfN6NA9cXHMH_JxIn_klUAjIWKcaNZPfY_fvqjurU4K_2VhjuSWHy0]--></g></svg>