<?xml version="1.0" encoding="UTF-8" standalone="no"?><svg xmlns="http://www.w3.org/2000/svg" xmlns:xlink="http://www.w3.org/1999/xlink" contentStyleType="text/css" height="758px" preserveAspectRatio="none" style="width:1296px;height:758px;background:#FFFFFF;" version="1.1" viewBox="0 0 1296 758" width="1296px" zoomAndPan="magnify"><defs/><g><!--class ApplicationPOT--><g id="elem_ApplicationPOT"><rect codeLine="3" fill="#F1F1F1" height="83.2188" id="ApplicationPOT" rx="2.5" ry="2.5" style="stroke:#181818;stroke-width:0.5;" width="148" x="644.5" y="348.5"/><ellipse cx="667.6" cy="364.5" fill="#ADD1B2" rx="11" ry="11" style="stroke:#181818;stroke-width:1.0;"/><path d="M670.3656,360.375 Q670.5219,360.1563 670.7094,360.0469 Q670.8969,359.9375 671.1156,359.9375 Q671.4906,359.9375 671.725,360.2031 Q671.9594,360.4531 671.9594,361.0625 L671.9594,362.5156 Q671.9594,363.125 671.725,363.3906 Q671.4906,363.6563 671.1156,363.6563 Q670.7719,363.6563 670.5688,363.4531 Q670.3656,363.2656 670.2563,362.75 Q670.2094,362.3906 670.0219,362.2031 Q669.6938,361.8281 669.0844,361.6094 Q668.475,361.3906 667.85,361.3906 Q667.0844,361.3906 666.4438,361.7188 Q665.8188,362.0469 665.3188,362.7969 Q664.8344,363.5469 664.8344,364.5781 L664.8344,365.6719 Q664.8344,366.9063 665.725,367.7344 Q666.6156,368.5469 668.2094,368.5469 Q669.1469,368.5469 669.8031,368.2969 Q670.1938,368.1406 670.6156,367.7031 Q670.8813,367.4375 671.0219,367.3594 Q671.1781,367.2813 671.3813,367.2813 Q671.7094,367.2813 671.9594,367.5469 Q672.225,367.7969 672.225,368.1406 Q672.225,368.4844 671.8813,368.8906 Q671.3813,369.4688 670.5844,369.7969 Q669.5063,370.25 668.2094,370.25 Q666.6938,370.25 665.4906,369.625 Q664.5063,369.125 663.8188,368.0625 Q663.1313,366.9844 663.1313,365.7031 L663.1313,364.5469 Q663.1313,363.2188 663.7406,362.0781 Q664.3656,360.9219 665.4594,360.3125 Q666.5531,359.6875 667.7875,359.6875 Q668.5219,359.6875 669.1625,359.8594 Q669.8188,360.0156 670.3656,360.375 Z " fill="#000000"/><text fill="#000000" font-family="sans-serif" font-size="14" lengthAdjust="spacing" textLength="98" x="683.4" y="370.2285">ApplicationPOT</text><line style="stroke:#181818;stroke-width:0.5;" x1="645.5" x2="791.5" y1="380.5" y2="380.5"/><line style="stroke:#181818;stroke-width:0.5;" x1="645.5" x2="791.5" y1="388.5" y2="388.5"/><text fill="#000000" font-family="sans-serif" font-size="14" lengthAdjust="spacing" textLength="128" x="650.5" y="407.0332">+static getInstance()</text><text fill="#000000" font-family="sans-serif" font-size="14" lengthAdjust="spacing" textLength="136" x="650.5" y="424.6426">+getCurrentSession()</text></g><!--class UserSession--><g id="elem_UserSession"><rect codeLine="9" fill="#F1F1F1" height="65.6094" id="UserSession" rx="2.5" ry="2.5" style="stroke:#181818;stroke-width:0.5;" width="113" x="828" y="357"/><ellipse cx="843.9" cy="373" fill="#ADD1B2" rx="11" ry="11" style="stroke:#181818;stroke-width:1.0;"/><path d="M846.6656,368.875 Q846.8219,368.6563 847.0094,368.5469 Q847.1969,368.4375 847.4156,368.4375 Q847.7906,368.4375 848.025,368.7031 Q848.2594,368.9531 848.2594,369.5625 L848.2594,371.0156 Q848.2594,371.625 848.025,371.8906 Q847.7906,372.1563 847.4156,372.1563 Q847.0719,372.1563 846.8688,371.9531 Q846.6656,371.7656 846.5563,371.25 Q846.5094,370.8906 846.3219,370.7031 Q845.9938,370.3281 845.3844,370.1094 Q844.775,369.8906 844.15,369.8906 Q843.3844,369.8906 842.7438,370.2188 Q842.1188,370.5469 841.6188,371.2969 Q841.1344,372.0469 841.1344,373.0781 L841.1344,374.1719 Q841.1344,375.4063 842.025,376.2344 Q842.9156,377.0469 844.5094,377.0469 Q845.4469,377.0469 846.1031,376.7969 Q846.4938,376.6406 846.9156,376.2031 Q847.1813,375.9375 847.3219,375.8594 Q847.4781,375.7813 847.6813,375.7813 Q848.0094,375.7813 848.2594,376.0469 Q848.525,376.2969 848.525,376.6406 Q848.525,376.9844 848.1813,377.3906 Q847.6813,377.9688 846.8844,378.2969 Q845.8063,378.75 844.5094,378.75 Q842.9938,378.75 841.7906,378.125 Q840.8063,377.625 840.1188,376.5625 Q839.4313,375.4844 839.4313,374.2031 L839.4313,373.0469 Q839.4313,371.7188 840.0406,370.5781 Q840.6656,369.4219 841.7594,368.8125 Q842.8531,368.1875 844.0875,368.1875 Q844.8219,368.1875 845.4625,368.3594 Q846.1188,368.5156 846.6656,368.875 Z " fill="#000000"/><text fill="#000000" font-family="sans-serif" font-size="14" lengthAdjust="spacing" textLength="79" x="858.1" y="378.7285">UserSession</text><line style="stroke:#181818;stroke-width:0.5;" x1="829" x2="940" y1="389" y2="389"/><line style="stroke:#181818;stroke-width:0.5;" x1="829" x2="940" y1="397" y2="397"/><text fill="#000000" font-family="sans-serif" font-size="14" lengthAdjust="spacing" textLength="101" x="834" y="415.5332">+getUserEmail()</text></g><!--class Task--><g id="elem_Task"><rect codeLine="14" fill="#F1F1F1" height="171.2656" id="Task" rx="2.5" ry="2.5" style="stroke:#181818;stroke-width:0.5;" width="442" x="370.5" y="580"/><ellipse cx="571.75" cy="596" fill="#ADD1B2" rx="11" ry="11" style="stroke:#181818;stroke-width:1.0;"/><path d="M574.5156,591.875 Q574.6719,591.6563 574.8594,591.5469 Q575.0469,591.4375 575.2656,591.4375 Q575.6406,591.4375 575.875,591.7031 Q576.1094,591.9531 576.1094,592.5625 L576.1094,594.0156 Q576.1094,594.625 575.875,594.8906 Q575.6406,595.1563 575.2656,595.1563 Q574.9219,595.1563 574.7188,594.9531 Q574.5156,594.7656 574.4063,594.25 Q574.3594,593.8906 574.1719,593.7031 Q573.8438,593.3281 573.2344,593.1094 Q572.625,592.8906 572,592.8906 Q571.2344,592.8906 570.5938,593.2188 Q569.9688,593.5469 569.4688,594.2969 Q568.9844,595.0469 568.9844,596.0781 L568.9844,597.1719 Q568.9844,598.4063 569.875,599.2344 Q570.7656,600.0469 572.3594,600.0469 Q573.2969,600.0469 573.9531,599.7969 Q574.3438,599.6406 574.7656,599.2031 Q575.0313,598.9375 575.1719,598.8594 Q575.3281,598.7813 575.5313,598.7813 Q575.8594,598.7813 576.1094,599.0469 Q576.375,599.2969 576.375,599.6406 Q576.375,599.9844 576.0313,600.3906 Q575.5313,600.9688 574.7344,601.2969 Q573.6563,601.75 572.3594,601.75 Q570.8438,601.75 569.6406,601.125 Q568.6563,600.625 567.9688,599.5625 Q567.2813,598.4844 567.2813,597.2031 L567.2813,596.0469 Q567.2813,594.7188 567.8906,593.5781 Q568.5156,592.4219 569.6094,591.8125 Q570.7031,591.1875 571.9375,591.1875 Q572.6719,591.1875 573.3125,591.3594 Q573.9688,591.5156 574.5156,591.875 Z " fill="#000000"/><text fill="#000000" font-family="sans-serif" font-size="14" lengthAdjust="spacing" textLength="31" x="592.25" y="601.7285">Task</text><line style="stroke:#181818;stroke-width:0.5;" x1="371.5" x2="811.5" y1="612" y2="612"/><text fill="#000000" font-family="sans-serif" font-size="14" lengthAdjust="spacing" textLength="107" x="376.5" y="630.5332">-String reference</text><text fill="#000000" font-family="sans-serif" font-size="14" lengthAdjust="spacing" textLength="119" x="376.5" y="648.1426">-String designation</text><text fill="#000000" font-family="sans-serif" font-size="14" lengthAdjust="spacing" textLength="167" x="376.5" y="665.752">-String informalDescription</text><text fill="#000000" font-family="sans-serif" font-size="14" lengthAdjust="spacing" textLength="173" x="376.5" y="683.3613">-String technicalDescription</text><text fill="#000000" font-family="sans-serif" font-size="14" lengthAdjust="spacing" textLength="105" x="376.5" y="700.9707">-Integer duration</text><text fill="#000000" font-family="sans-serif" font-size="14" lengthAdjust="spacing" textLength="80" x="376.5" y="718.5801">-Double cost</text><line style="stroke:#181818;stroke-width:0.5;" x1="371.5" x2="811.5" y1="725.6563" y2="725.6563"/><text fill="#000000" font-family="sans-serif" font-size="14" lengthAdjust="spacing" textLength="430" x="376.5" y="744.1895">+Task(ref,designation,informalDesc,technicalDesc,duration,cost,cat)</text></g><!--class Category--><g id="elem_Category"><rect codeLine="24" fill="#F1F1F1" height="83.2188" id="Category" rx="2.5" ry="2.5" style="stroke:#181818;stroke-width:0.5;" width="127" x="931" y="624"/><ellipse cx="962.65" cy="640" fill="#ADD1B2" rx="11" ry="11" style="stroke:#181818;stroke-width:1.0;"/><path d="M965.4156,635.875 Q965.5719,635.6563 965.7594,635.5469 Q965.9469,635.4375 966.1656,635.4375 Q966.5406,635.4375 966.775,635.7031 Q967.0094,635.9531 967.0094,636.5625 L967.0094,638.0156 Q967.0094,638.625 966.775,638.8906 Q966.5406,639.1563 966.1656,639.1563 Q965.8219,639.1563 965.6188,638.9531 Q965.4156,638.7656 965.3063,638.25 Q965.2594,637.8906 965.0719,637.7031 Q964.7438,637.3281 964.1344,637.1094 Q963.525,636.8906 962.9,636.8906 Q962.1344,636.8906 961.4938,637.2188 Q960.8688,637.5469 960.3688,638.2969 Q959.8844,639.0469 959.8844,640.0781 L959.8844,641.1719 Q959.8844,642.4063 960.775,643.2344 Q961.6656,644.0469 963.2594,644.0469 Q964.1969,644.0469 964.8531,643.7969 Q965.2438,643.6406 965.6656,643.2031 Q965.9313,642.9375 966.0719,642.8594 Q966.2281,642.7813 966.4313,642.7813 Q966.7594,642.7813 967.0094,643.0469 Q967.275,643.2969 967.275,643.6406 Q967.275,643.9844 966.9313,644.3906 Q966.4313,644.9688 965.6344,645.2969 Q964.5563,645.75 963.2594,645.75 Q961.7438,645.75 960.5406,645.125 Q959.5563,644.625 958.8688,643.5625 Q958.1813,642.4844 958.1813,641.2031 L958.1813,640.0469 Q958.1813,638.7188 958.7906,637.5781 Q959.4156,636.4219 960.5094,635.8125 Q961.6031,635.1875 962.8375,635.1875 Q963.5719,635.1875 964.2125,635.3594 Q964.8688,635.5156 965.4156,635.875 Z " fill="#000000"/><text fill="#000000" font-family="sans-serif" font-size="14" lengthAdjust="spacing" textLength="58" x="980.35" y="645.7285">Category</text><line style="stroke:#181818;stroke-width:0.5;" x1="932" x2="1057" y1="656" y2="656"/><text fill="#000000" font-family="sans-serif" font-size="14" lengthAdjust="spacing" textLength="57" x="937" y="674.5332">-String id</text><text fill="#000000" font-family="sans-serif" font-size="14" lengthAdjust="spacing" textLength="115" x="937" y="692.1426">-String description</text><line style="stroke:#181818;stroke-width:0.5;" x1="932" x2="1057" y1="699.2188" y2="699.2188"/></g><!--class Organization--><g id="elem_Organization"><rect codeLine="29" fill="#F1F1F1" height="224.0938" id="Organization" rx="2.5" ry="2.5" style="stroke:#181818;stroke-width:0.5;" width="531" x="7" y="278"/><ellipse cx="228.25" cy="294" fill="#ADD1B2" rx="11" ry="11" style="stroke:#181818;stroke-width:1.0;"/><path d="M231.0156,289.875 Q231.1719,289.6563 231.3594,289.5469 Q231.5469,289.4375 231.7656,289.4375 Q232.1406,289.4375 232.375,289.7031 Q232.6094,289.9531 232.6094,290.5625 L232.6094,292.0156 Q232.6094,292.625 232.375,292.8906 Q232.1406,293.1563 231.7656,293.1563 Q231.4219,293.1563 231.2188,292.9531 Q231.0156,292.7656 230.9063,292.25 Q230.8594,291.8906 230.6719,291.7031 Q230.3438,291.3281 229.7344,291.1094 Q229.125,290.8906 228.5,290.8906 Q227.7344,290.8906 227.0938,291.2188 Q226.4688,291.5469 225.9688,292.2969 Q225.4844,293.0469 225.4844,294.0781 L225.4844,295.1719 Q225.4844,296.4063 226.375,297.2344 Q227.2656,298.0469 228.8594,298.0469 Q229.7969,298.0469 230.4531,297.7969 Q230.8438,297.6406 231.2656,297.2031 Q231.5313,296.9375 231.6719,296.8594 Q231.8281,296.7813 232.0313,296.7813 Q232.3594,296.7813 232.6094,297.0469 Q232.875,297.2969 232.875,297.6406 Q232.875,297.9844 232.5313,298.3906 Q232.0313,298.9688 231.2344,299.2969 Q230.1563,299.75 228.8594,299.75 Q227.3438,299.75 226.1406,299.125 Q225.1563,298.625 224.4688,297.5625 Q223.7813,296.4844 223.7813,295.2031 L223.7813,294.0469 Q223.7813,292.7188 224.3906,291.5781 Q225.0156,290.4219 226.1094,289.8125 Q227.2031,289.1875 228.4375,289.1875 Q229.1719,289.1875 229.8125,289.3594 Q230.4688,289.5156 231.0156,289.875 Z " fill="#000000"/><text fill="#000000" font-family="sans-serif" font-size="14" lengthAdjust="spacing" textLength="80" x="248.75" y="299.7285">Organization</text><line style="stroke:#181818;stroke-width:0.5;" x1="8" x2="537" y1="310" y2="310"/><text fill="#000000" font-family="sans-serif" font-size="14" lengthAdjust="spacing" textLength="81" x="13" y="328.5332">-String name</text><text fill="#000000" font-family="sans-serif" font-size="14" lengthAdjust="spacing" textLength="116" x="13" y="346.1426">-String VatNumber</text><text fill="#000000" font-family="sans-serif" font-size="14" lengthAdjust="spacing" textLength="93" x="13" y="363.752">-String website</text><text fill="#000000" font-family="sans-serif" font-size="14" lengthAdjust="spacing" textLength="86" x="13" y="381.3613">-String phone</text><text fill="#000000" font-family="sans-serif" font-size="14" lengthAdjust="spacing" textLength="79" x="13" y="398.9707">-String email</text><line style="stroke:#181818;stroke-width:0.5;" x1="8" x2="537" y1="406.0469" y2="406.0469"/><text fill="#000000" font-family="sans-serif" font-size="14" lengthAdjust="spacing" textLength="519" x="13" y="424.5801">+Organization(name, VatNumber, webSite, phone, email, postalAddress, manager)</text><text fill="#000000" font-family="sans-serif" font-size="14" lengthAdjust="spacing" textLength="470" x="13" y="442.1895">+createTask(ref,designation,informalDesc,technicalDesc,duration,cost,cat)</text><text fill="#000000" font-family="sans-serif" font-size="14" lengthAdjust="spacing" textLength="105" x="13" y="459.7988">+saveTask(task)</text><text fill="#000000" font-family="sans-serif" font-size="14" lengthAdjust="spacing" textLength="96" x="13" y="477.4082">-addTask(task)</text><text fill="#000000" font-family="sans-serif" font-size="14" lengthAdjust="spacing" textLength="121" x="13" y="495.0176">-validateTask(task)</text></g><!--class Platform--><g id="elem_Platform"><rect codeLine="42" fill="#F1F1F1" height="118.4375" id="Platform" rx="2.5" ry="2.5" style="stroke:#181818;stroke-width:0.5;" width="242" x="1047.5" y="331"/><ellipse cx="1138.25" cy="347" fill="#ADD1B2" rx="11" ry="11" style="stroke:#181818;stroke-width:1.0;"/><path d="M1141.0156,342.875 Q1141.1719,342.6563 1141.3594,342.5469 Q1141.5469,342.4375 1141.7656,342.4375 Q1142.1406,342.4375 1142.375,342.7031 Q1142.6094,342.9531 1142.6094,343.5625 L1142.6094,345.0156 Q1142.6094,345.625 1142.375,345.8906 Q1142.1406,346.1563 1141.7656,346.1563 Q1141.4219,346.1563 1141.2188,345.9531 Q1141.0156,345.7656 1140.9063,345.25 Q1140.8594,344.8906 1140.6719,344.7031 Q1140.3438,344.3281 1139.7344,344.1094 Q1139.125,343.8906 1138.5,343.8906 Q1137.7344,343.8906 1137.0938,344.2188 Q1136.4688,344.5469 1135.9688,345.2969 Q1135.4844,346.0469 1135.4844,347.0781 L1135.4844,348.1719 Q1135.4844,349.4063 1136.375,350.2344 Q1137.2656,351.0469 1138.8594,351.0469 Q1139.7969,351.0469 1140.4531,350.7969 Q1140.8438,350.6406 1141.2656,350.2031 Q1141.5313,349.9375 1141.6719,349.8594 Q1141.8281,349.7813 1142.0313,349.7813 Q1142.3594,349.7813 1142.6094,350.0469 Q1142.875,350.2969 1142.875,350.6406 Q1142.875,350.9844 1142.5313,351.3906 Q1142.0313,351.9688 1141.2344,352.2969 Q1140.1563,352.75 1138.8594,352.75 Q1137.3438,352.75 1136.1406,352.125 Q1135.1563,351.625 1134.4688,350.5625 Q1133.7813,349.4844 1133.7813,348.2031 L1133.7813,347.0469 Q1133.7813,345.7188 1134.3906,344.5781 Q1135.0156,343.4219 1136.1094,342.8125 Q1137.2031,342.1875 1138.4375,342.1875 Q1139.1719,342.1875 1139.8125,342.3594 Q1140.4688,342.5156 1141.0156,342.875 Z " fill="#000000"/><text fill="#000000" font-family="sans-serif" font-size="14" lengthAdjust="spacing" textLength="52" x="1158.75" y="352.7285">Platform</text><line style="stroke:#181818;stroke-width:0.5;" x1="1048.5" x2="1288.5" y1="363" y2="363"/><text fill="#000000" font-family="sans-serif" font-size="14" lengthAdjust="spacing" textLength="119" x="1053.5" y="381.5332">-String designation</text><line style="stroke:#181818;stroke-width:0.5;" x1="1048.5" x2="1288.5" y1="388.6094" y2="388.6094"/><text fill="#000000" font-family="sans-serif" font-size="14" lengthAdjust="spacing" textLength="107" x="1053.5" y="407.1426">+getCategories()</text><text fill="#000000" font-family="sans-serif" font-size="14" lengthAdjust="spacing" textLength="153" x="1053.5" y="424.752">+getCategoryById(catId)</text><text fill="#000000" font-family="sans-serif" font-size="14" lengthAdjust="spacing" textLength="230" x="1053.5" y="442.3613">+getOrganizationByUserEmail(email)</text></g><!--class CreateTaskController--><g id="elem_CreateTaskController"><rect codeLine="49" fill="#F1F1F1" height="100.8281" id="CreateTaskController" rx="2.5" ry="2.5" style="stroke:#181818;stroke-width:0.5;" width="529" x="537" y="116"/><ellipse cx="729.25" cy="132" fill="#ADD1B2" rx="11" ry="11" style="stroke:#181818;stroke-width:1.0;"/><path d="M732.0156,127.875 Q732.1719,127.6563 732.3594,127.5469 Q732.5469,127.4375 732.7656,127.4375 Q733.1406,127.4375 733.375,127.7031 Q733.6094,127.9531 733.6094,128.5625 L733.6094,130.0156 Q733.6094,130.625 733.375,130.8906 Q733.1406,131.1563 732.7656,131.1563 Q732.4219,131.1563 732.2188,130.9531 Q732.0156,130.7656 731.9063,130.25 Q731.8594,129.8906 731.6719,129.7031 Q731.3438,129.3281 730.7344,129.1094 Q730.125,128.8906 729.5,128.8906 Q728.7344,128.8906 728.0938,129.2188 Q727.4688,129.5469 726.9688,130.2969 Q726.4844,131.0469 726.4844,132.0781 L726.4844,133.1719 Q726.4844,134.4063 727.375,135.2344 Q728.2656,136.0469 729.8594,136.0469 Q730.7969,136.0469 731.4531,135.7969 Q731.8438,135.6406 732.2656,135.2031 Q732.5313,134.9375 732.6719,134.8594 Q732.8281,134.7813 733.0313,134.7813 Q733.3594,134.7813 733.6094,135.0469 Q733.875,135.2969 733.875,135.6406 Q733.875,135.9844 733.5313,136.3906 Q733.0313,136.9688 732.2344,137.2969 Q731.1563,137.75 729.8594,137.75 Q728.3438,137.75 727.1406,137.125 Q726.1563,136.625 725.4688,135.5625 Q724.7813,134.4844 724.7813,133.2031 L724.7813,132.0469 Q724.7813,130.7188 725.3906,129.5781 Q726.0156,128.4219 727.1094,127.8125 Q728.2031,127.1875 729.4375,127.1875 Q730.1719,127.1875 730.8125,127.3594 Q731.4688,127.5156 732.0156,127.875 Z " fill="#000000"/><text fill="#000000" font-family="sans-serif" font-size="14" lengthAdjust="spacing" textLength="136" x="749.75" y="137.7285">CreateTaskController</text><line style="stroke:#181818;stroke-width:0.5;" x1="538" x2="1065" y1="148" y2="148"/><line style="stroke:#181818;stroke-width:0.5;" x1="538" x2="1065" y1="156" y2="156"/><text fill="#000000" font-family="sans-serif" font-size="14" lengthAdjust="spacing" textLength="107" x="543" y="174.5332">+getCategories()</text><text fill="#000000" font-family="sans-serif" font-size="14" lengthAdjust="spacing" textLength="517" x="543" y="192.1426">+createTask(ref,designation,informalDesc,technicalDesc,duration,cost,categoryId)</text><text fill="#000000" font-family="sans-serif" font-size="14" lengthAdjust="spacing" textLength="79" x="543" y="209.752">+saveTask()</text></g><!--class CreateTaskUI--><g id="elem_CreateTaskUI"><rect codeLine="55" fill="#F1F1F1" height="48" id="CreateTaskUI" rx="2.5" ry="2.5" style="stroke:#181818;stroke-width:0.5;" width="118" x="742.5" y="7"/><ellipse cx="757.5" cy="23" fill="#ADD1B2" rx="11" ry="11" style="stroke:#181818;stroke-width:1.0;"/><path d="M760.2656,18.875 Q760.4219,18.6563 760.6094,18.5469 Q760.7969,18.4375 761.0156,18.4375 Q761.3906,18.4375 761.625,18.7031 Q761.8594,18.9531 761.8594,19.5625 L761.8594,21.0156 Q761.8594,21.625 761.625,21.8906 Q761.3906,22.1563 761.0156,22.1563 Q760.6719,22.1563 760.4688,21.9531 Q760.2656,21.7656 760.1563,21.25 Q760.1094,20.8906 759.9219,20.7031 Q759.5938,20.3281 758.9844,20.1094 Q758.375,19.8906 757.75,19.8906 Q756.9844,19.8906 756.3438,20.2188 Q755.7188,20.5469 755.2188,21.2969 Q754.7344,22.0469 754.7344,23.0781 L754.7344,24.1719 Q754.7344,25.4063 755.625,26.2344 Q756.5156,27.0469 758.1094,27.0469 Q759.0469,27.0469 759.7031,26.7969 Q760.0938,26.6406 760.5156,26.2031 Q760.7813,25.9375 760.9219,25.8594 Q761.0781,25.7813 761.2813,25.7813 Q761.6094,25.7813 761.8594,26.0469 Q762.125,26.2969 762.125,26.6406 Q762.125,26.9844 761.7813,27.3906 Q761.2813,27.9688 760.4844,28.2969 Q759.4063,28.75 758.1094,28.75 Q756.5938,28.75 755.3906,28.125 Q754.4063,27.625 753.7188,26.5625 Q753.0313,25.4844 753.0313,24.2031 L753.0313,23.0469 Q753.0313,21.7188 753.6406,20.5781 Q754.2656,19.4219 755.3594,18.8125 Q756.4531,18.1875 757.6875,18.1875 Q758.4219,18.1875 759.0625,18.3594 Q759.7188,18.5156 760.2656,18.875 Z " fill="#000000"/><text fill="#000000" font-family="sans-serif" font-size="14" lengthAdjust="spacing" textLength="86" x="771.5" y="28.7285">CreateTaskUI</text><line style="stroke:#181818;stroke-width:0.5;" x1="743.5" x2="859.5" y1="39" y2="39"/><line style="stroke:#181818;stroke-width:0.5;" x1="743.5" x2="859.5" y1="47" y2="47"/></g><!--link CreateTaskUI to CreateTaskController--><g id="link_CreateTaskUI_CreateTaskController"><path codeLine="59" d="M801.5,55.25 C801.5,70.55 801.5,91.24 801.5,110.57 " fill="none" id="CreateTaskUI-to-CreateTaskController" style="stroke:#181818;stroke-width:1.0;stroke-dasharray:7.0,7.0;"/><polygon fill="#181818" points="801.5,115.98,805.5,106.98,801.5,110.98,797.5,106.98,801.5,115.98" style="stroke:#181818;stroke-width:1.0;"/></g><!--link CreateTaskController to Platform--><g id="link_CreateTaskController_Platform"><path codeLine="60" d="M962.46,217.08 C982.62,225.82 1002.47,235.78 1020.5,247 C1055.37,268.69 1088.86,299.65 1115.13,327.14 " fill="none" id="CreateTaskController-to-Platform" style="stroke:#181818;stroke-width:1.0;stroke-dasharray:7.0,7.0;"/><polygon fill="#181818" points="1118.63,330.81,1115.337,321.528,1115.1885,327.1829,1109.5336,327.0344,1118.63,330.81" style="stroke:#181818;stroke-width:1.0;"/></g><!--link CreateTaskController to Category--><g id="link_CreateTaskController_Category"><path codeLine="61" d="M899.46,217.02 C922.47,233.31 944.38,253.63 958.5,278 C1021.52,386.76 1011.82,542.21 1001.91,618.58 " fill="none" id="CreateTaskController-to-Category" style="stroke:#181818;stroke-width:1.0;stroke-dasharray:7.0,7.0;"/><polygon fill="#181818" points="1001.2,623.94,1006.3718,615.5583,1001.8711,618.9852,998.4442,614.4846,1001.2,623.94" style="stroke:#181818;stroke-width:1.0;"/></g><!--link CreateTaskController to Task--><g id="link_CreateTaskController_Task"><path codeLine="62" d="M689.26,217.01 C664.78,232.99 641.69,253.17 626.5,278 C571.72,367.56 570.66,491.3 578.22,574.42 " fill="none" id="CreateTaskController-to-Task" style="stroke:#181818;stroke-width:1.0;stroke-dasharray:7.0,7.0;"/><polygon fill="#181818" points="578.73,579.83,581.8625,570.4926,578.258,574.8523,573.8982,571.2478,578.73,579.83" style="stroke:#181818;stroke-width:1.0;"/></g><!--link CreateTaskController to Organization--><g id="link_CreateTaskController_Organization"><path codeLine="63" d="M645.28,217.02 C618.45,226.4 591.01,236.57 565.5,247 C543.76,255.89 521.36,265.63 499.09,275.72 " fill="none" id="CreateTaskController-to-Organization" style="stroke:#181818;stroke-width:1.0;stroke-dasharray:7.0,7.0;"/><polygon fill="#181818" points="494.34,277.87,504.1885,277.7872,498.8918,275.801,500.8781,270.5043,494.34,277.87" style="stroke:#181818;stroke-width:1.0;"/></g><!--link CreateTaskController to ApplicationPOT--><g id="link_CreateTaskController_ApplicationPOT"><path codeLine="64" d="M782.87,217.21 C768.69,255.05 749.33,306.72 735.56,343.48 " fill="none" id="CreateTaskController-to-ApplicationPOT" style="stroke:#181818;stroke-width:1.0;stroke-dasharray:7.0,7.0;"/><polygon fill="#181818" points="733.73,348.34,740.6354,341.3175,735.4856,343.6584,733.1448,338.5085,733.73,348.34" style="stroke:#181818;stroke-width:1.0;"/></g><!--link CreateTaskController to UserSession--><g id="link_CreateTaskController_UserSession"><path codeLine="65" d="M820.13,217.21 C835.45,258.1 856.82,315.14 870.66,352.07 " fill="none" id="CreateTaskController-to-UserSession" style="stroke:#181818;stroke-width:1.0;stroke-dasharray:7.0,7.0;"/><polygon fill="#181818" points="872.48,356.92,873.0817,347.0895,870.7322,352.2354,865.5864,349.886,872.48,356.92" style="stroke:#181818;stroke-width:1.0;"/></g><!--link Task to Category--><g id="link_Task_Category"><path codeLine="66" d="M812.75,665.5 C853.77,665.5 893.69,665.5 925.61,665.5 " fill="none" id="Task-to-Category" style="stroke:#181818;stroke-width:1.0;"/><polygon fill="#181818" points="930.67,665.5,921.67,661.5,925.67,665.5,921.67,669.5,930.67,665.5" style="stroke:#181818;stroke-width:1.0;"/><text fill="#000000" font-family="sans-serif" font-size="13" lengthAdjust="spacing" textLength="68" x="837.75" y="658.9951">classified in</text><text fill="#000000" font-family="sans-serif" font-size="13" lengthAdjust="spacing" textLength="5" x="820.791" y="662.7092">*</text><text fill="#000000" font-family="sans-serif" font-size="13" lengthAdjust="spacing" textLength="7" x="915.885" y="662.0778">1</text></g><!--link Platform to Category--><g id="link_Platform_Category"><path codeLine="67" d="M1131.6,449 C1099.22,499.89 1052.81,572.85 1023.16,619.45 " fill="none" id="Platform-to-Category" style="stroke:#181818;stroke-width:1.0;"/><polygon fill="#181818" points="1020.34,623.88,1028.5501,618.4399,1023.0272,619.6635,1021.8036,614.1405,1020.34,623.88" style="stroke:#181818;stroke-width:1.0;"/><text fill="#000000" font-family="sans-serif" font-size="13" lengthAdjust="spacing" textLength="41" x="1076.5" y="546.4951">defines</text><text fill="#000000" font-family="sans-serif" font-size="13" lengthAdjust="spacing" textLength="7" x="1119.4238" y="471.074">1</text><text fill="#000000" font-family="sans-serif" font-size="13" lengthAdjust="spacing" textLength="5" x="1019.2057" y="613.1678">*</text></g><!--link Organization to Task--><g id="link_Organization_Task"><path codeLine="68" d="M402.25,502.24 C431.02,526.91 461.13,552.73 488.65,576.32 " fill="none" id="Organization-to-Task" style="stroke:#181818;stroke-width:1.0;"/><polygon fill="#181818" points="492.7,579.79,488.4864,570.888,488.9098,576.529,483.2688,576.9523,492.7,579.79" style="stroke:#181818;stroke-width:1.0;"/><text fill="#000000" font-family="sans-serif" font-size="13" lengthAdjust="spacing" textLength="30" x="452.5" y="546.4951">owns</text><text fill="#000000" font-family="sans-serif" font-size="13" lengthAdjust="spacing" textLength="7" x="403.3379" y="523.4463">1</text><text fill="#000000" font-family="sans-serif" font-size="13" lengthAdjust="spacing" textLength="5" x="478.9945" y="569.2356">*</text></g><!--SRC=[hLJ1RkCW4Btp5IYdR9TKkzSUAgLf3xviAwNT-mGcBYe62t2hjDf_ty6E7OZYMozHU3pUl7cC2M_Qjk2XuT902EiOlTvr4Ilfx5P_8l_5MB_3rsrhj8IedNrwV6PVZFEV8T9QyXfZPUc_bRZyaN02DfttQECMGw0J1FyRXLu2-YCyg10xOGyDQ9CJdo6yySHORScLhRd7FPAen0nJ67HjUriPgktU-GRCFGRfTNks6r6-MkhbVBko4MlqN7L-4hnttSuWbox4v3LvMf8FaTKLUJLHY8jHIYG1GV5b_Ms0oZb_A7hKgcnkyZSTU_GrMFtPonP7BJHvCdyX_kcQ7VeC-y1Tq35djQ_EvcjCjv0wpSiiaxGuAOeaj2KXCPmNmp5QKPTWrafvkc316x10WVOp8JrIlz-GNvexU1-K8lqaP0LAbS0x6At6WWCw9VXa8AQAHNhb8FKZFDoFnd2QwkELtHqgjIGtbHftyhZk3gTvxeF9BtsAOUDizCuO6hYlcOhVb5bl-MXrYkwYfvUAlAID0hg-lhtecrri9h77XESPOvBpZ0JDx-PvpxFE7grPNluczS_Euch1LxTyyNjn-anlXZTIxpKgUc7OD4Q9jKhiguAjSAyj1bPyi3cthtJ3tOSDZFq7]--></g></svg>