<?xml version="1.0" encoding="UTF-8" standalone="no"?><svg xmlns="http://www.w3.org/2000/svg" xmlns:xlink="http://www.w3.org/1999/xlink" contentStyleType="text/css" height="1988px" preserveAspectRatio="none" style="width:1957px;height:1988px;background:#FFFFFF;" version="1.1" viewBox="0 0 1957 1988" width="1957px" zoomAndPan="magnify"><defs/><g><rect fill="#FFFFFF" height="1804.1953" style="stroke:#181818;stroke-width:1.0;" width="10" x="56.5" y="92.6094"/><rect fill="#FFFFFF" height="1154.7344" style="stroke:#181818;stroke-width:1.0;" width="10" x="443.5" y="114.9609"/><rect fill="#FFFFFF" height="30.3516" style="stroke:#181818;stroke-width:1.0;" width="10" x="443.5" y="1400.75"/><rect fill="#FFFFFF" height="356.3516" style="stroke:#181818;stroke-width:1.0;" width="10" x="443.5" y="1461.4531"/><rect fill="#FFFFFF" height="1009.7188" style="stroke:#181818;stroke-width:1.0;" width="10" x="836.5" y="187.9219"/><rect fill="#FFFFFF" height="87.7969" style="stroke:#181818;stroke-width:1.0;" width="10" x="841.5" y="226.2734"/><rect fill="#FFFFFF" height="362.9609" style="stroke:#181818;stroke-width:1.0;" width="10" x="841.5" y="384.4219"/><rect fill="#FFFFFF" height="295.6484" style="stroke:#181818;stroke-width:1.0;" width="10" x="836.5" y="1491.8047"/><rect fill="#FFFFFF" height="87.7969" style="stroke:#181818;stroke-width:1.0;" width="10" x="841.5" y="1530.1563"/><rect fill="#FFFFFF" height="30.3516" style="stroke:#181818;stroke-width:1.0;" width="10" x="1153.5" y="419.7734"/><rect fill="#FFFFFF" height="123.4063" style="stroke:#181818;stroke-width:1.0;" width="10" x="1280.5" y="480.4766"/><rect fill="#FFFFFF" height="30.3516" style="stroke:#181818;stroke-width:1.0;" width="10" x="1511.5" y="536.1797"/><rect fill="#FFFFFF" height="76.7969" style="stroke:#181818;stroke-width:1.0;" width="10" x="1511.5" y="634.2344"/><rect fill="#FFFFFF" height="76.7969" style="stroke:#181818;stroke-width:1.0;" width="10" x="1614.5" y="1680.3047"/><rect fill="#FFFFFF" height="382.5547" style="stroke:#181818;stroke-width:1.0;" width="10" x="1765.5" y="784.7344"/><rect fill="#FFFFFF" height="137.7969" style="stroke:#181818;stroke-width:1.0;" width="10" x="1770.5" y="848.4375"/><rect fill="#FFFFFF" height="41.3516" style="stroke:#181818;stroke-width:1.0;" width="10" x="1770.5" y="1056.5859"/><rect fill="none" height="79.0547" style="stroke:#000000;stroke-width:1.5;" width="354" x="1207" y="495.4766"/><rect fill="none" height="338.2031" style="stroke:#000000;stroke-width:1.5;" width="273.5" x="1678" y="799.7344"/><rect fill="none" height="677.1641" style="stroke:#000000;stroke-width:1.5;" width="1698" x="10" y="1212.6406"/><rect fill="none" height="548.1094" style="stroke:#000000;stroke-width:1.5;" width="1678" x="20" y="1309.6953"/><rect fill="none" height="465.7578" style="stroke:#000000;stroke-width:1.5;" width="1658" x="30" y="1360.0469"/><line style="stroke:#181818;stroke-width:0.5;stroke-dasharray:5.0,5.0;" x1="61" x2="61" y1="82.6094" y2="1906.8047"/><line style="stroke:#181818;stroke-width:0.5;stroke-dasharray:5.0,5.0;" x1="448" x2="448" y1="82.6094" y2="1906.8047"/><line style="stroke:#181818;stroke-width:0.5;stroke-dasharray:5.0,5.0;" x1="841" x2="841" y1="154.2656" y2="1906.8047"/><line style="stroke:#181818;stroke-width:0.5;stroke-dasharray:5.0,5.0;" x1="1158" x2="1158" y1="82.6094" y2="1906.8047"/><line style="stroke:#181818;stroke-width:0.5;stroke-dasharray:5.0,5.0;" x1="1285" x2="1285" y1="82.6094" y2="1906.8047"/><line style="stroke:#181818;stroke-width:0.5;stroke-dasharray:5.0,5.0;" x1="1516" x2="1516" y1="82.6094" y2="1906.8047"/><line style="stroke:#181818;stroke-width:0.5;stroke-dasharray:5.0,5.0;" x1="1619" x2="1619" y1="82.6094" y2="1906.8047"/><line style="stroke:#181818;stroke-width:0.5;stroke-dasharray:5.0,5.0;" x1="1770" x2="1770" y1="82.6094" y2="1906.8047"/><text fill="#000000" font-family="sans-serif" font-size="14" lengthAdjust="spacing" textLength="37" x="40" y="79.5332">Agent</text><ellipse cx="61.5" cy="13.5" fill="#E3E3E3" rx="8" ry="8" style="stroke:#181818;stroke-width:0.5;"/><path d="M61.5,21.5 L61.5,48.5 M48.5,29.5 L74.5,29.5 M61.5,48.5 L48.5,63.5 M61.5,48.5 L74.5,63.5 " fill="none" style="stroke:#181818;stroke-width:0.5;"/><text fill="#000000" font-family="sans-serif" font-size="14" lengthAdjust="spacing" textLength="37" x="40" y="1920.3379">Agent</text><ellipse cx="61.5" cy="1931.9141" fill="#E3E3E3" rx="8" ry="8" style="stroke:#181818;stroke-width:0.5;"/><path d="M61.5,1939.9141 L61.5,1966.9141 M48.5,1947.9141 L74.5,1947.9141 M61.5,1966.9141 L48.5,1981.9141 M61.5,1966.9141 L74.5,1981.9141 " fill="none" style="stroke:#181818;stroke-width:0.5;"/><rect fill="#E3E3E3" height="31.6094" rx="2.5" ry="2.5" style="stroke:#181818;stroke-width:0.5;" width="117" x="390" y="50"/><text fill="#000000" font-family="sans-serif" font-size="14" lengthAdjust="spacing" textLength="103" x="397" y="71.5332">:AcceptOrdersUI</text><rect fill="#E3E3E3" height="31.6094" rx="2.5" ry="2.5" style="stroke:#181818;stroke-width:0.5;" width="117" x="390" y="1905.8047"/><text fill="#000000" font-family="sans-serif" font-size="14" lengthAdjust="spacing" textLength="103" x="397" y="1927.3379">:AcceptOrdersUI</text><rect fill="#E3E3E3" height="31.6094" rx="2.5" ry="2.5" style="stroke:#181818;stroke-width:0.5;" width="167" x="758" y="1905.8047"/><text fill="#000000" font-family="sans-serif" font-size="14" lengthAdjust="spacing" textLength="153" x="765" y="1927.3379">:AcceptOrdersController</text><rect fill="#E3E3E3" height="49.2188" rx="2.5" ry="2.5" style="stroke:#181818;stroke-width:0.5;" width="97" x="1110" y="32.3906"/><text fill="#000000" font-family="sans-serif" font-size="14" lengthAdjust="spacing" textLength="74" x="1121.5" y="53.9238">repositories</text><text fill="#000000" font-family="sans-serif" font-size="14" lengthAdjust="spacing" textLength="83" x="1117" y="71.5332">:Repositories</text><rect fill="#E3E3E3" height="49.2188" rx="2.5" ry="2.5" style="stroke:#181818;stroke-width:0.5;" width="97" x="1110" y="1905.8047"/><text fill="#000000" font-family="sans-serif" font-size="14" lengthAdjust="spacing" textLength="74" x="1121.5" y="1927.3379">repositories</text><text fill="#000000" font-family="sans-serif" font-size="14" lengthAdjust="spacing" textLength="83" x="1117" y="1944.9473">:Repositories</text><rect fill="#E3E3E3" height="49.2188" rx="2.5" ry="2.5" style="stroke:#181818;stroke-width:0.5;" width="137" x="1217" y="32.3906"/><text fill="#000000" font-family="sans-serif" font-size="14" lengthAdjust="spacing" textLength="114" x="1228.5" y="53.9238">agencyRepository</text><text fill="#000000" font-family="sans-serif" font-size="14" lengthAdjust="spacing" textLength="123" x="1224" y="71.5332">: AgencyRepository</text><rect fill="#E3E3E3" height="49.2188" rx="2.5" ry="2.5" style="stroke:#181818;stroke-width:0.5;" width="137" x="1217" y="1905.8047"/><text fill="#000000" font-family="sans-serif" font-size="14" lengthAdjust="spacing" textLength="114" x="1228.5" y="1927.3379">agencyRepository</text><text fill="#000000" font-family="sans-serif" font-size="14" lengthAdjust="spacing" textLength="123" x="1224" y="1944.9473">: AgencyRepository</text><rect fill="#E3E3E3" height="49.2188" rx="2.5" ry="2.5" style="stroke:#181818;stroke-width:0.5;" width="69" x="1482" y="32.3906"/><text fill="#000000" font-family="sans-serif" font-size="14" lengthAdjust="spacing" textLength="46" x="1493.5" y="53.9238">agency</text><text fill="#000000" font-family="sans-serif" font-size="14" lengthAdjust="spacing" textLength="55" x="1489" y="71.5332">: Agency</text><rect fill="#E3E3E3" height="49.2188" rx="2.5" ry="2.5" style="stroke:#181818;stroke-width:0.5;" width="69" x="1482" y="1905.8047"/><text fill="#000000" font-family="sans-serif" font-size="14" lengthAdjust="spacing" textLength="46" x="1493.5" y="1927.3379">agency</text><text fill="#000000" font-family="sans-serif" font-size="14" lengthAdjust="spacing" textLength="55" x="1489" y="1944.9473">: Agency</text><rect fill="#E3E3E3" height="49.2188" rx="2.5" ry="2.5" style="stroke:#181818;stroke-width:0.5;" width="117" x="1561" y="32.3906"/><text fill="#000000" font-family="sans-serif" font-size="14" lengthAdjust="spacing" textLength="94" x="1572.5" y="53.9238">announcement</text><text fill="#000000" font-family="sans-serif" font-size="14" lengthAdjust="spacing" textLength="103" x="1568" y="71.5332">: Announcement</text><rect fill="#E3E3E3" height="49.2188" rx="2.5" ry="2.5" style="stroke:#181818;stroke-width:0.5;" width="117" x="1561" y="1905.8047"/><text fill="#000000" font-family="sans-serif" font-size="14" lengthAdjust="spacing" textLength="94" x="1572.5" y="1927.3379">announcement</text><text fill="#000000" font-family="sans-serif" font-size="14" lengthAdjust="spacing" textLength="103" x="1568" y="1944.9473">: Announcement</text><rect fill="#E3E3E3" height="49.2188" rx="2.5" ry="2.5" style="stroke:#181818;stroke-width:0.5;" width="165" x="1688" y="32.3906"/><text fill="#000000" font-family="sans-serif" font-size="14" lengthAdjust="spacing" textLength="142" x="1699.5" y="53.9238">announcementMapper</text><text fill="#000000" font-family="sans-serif" font-size="14" lengthAdjust="spacing" textLength="151" x="1695" y="71.5332">: AnnouncementMapper</text><rect fill="#E3E3E3" height="49.2188" rx="2.5" ry="2.5" style="stroke:#181818;stroke-width:0.5;" width="165" x="1688" y="1905.8047"/><text fill="#000000" font-family="sans-serif" font-size="14" lengthAdjust="spacing" textLength="142" x="1699.5" y="1927.3379">announcementMapper</text><text fill="#000000" font-family="sans-serif" font-size="14" lengthAdjust="spacing" textLength="151" x="1695" y="1944.9473">: AnnouncementMapper</text><rect fill="#FFFFFF" height="1804.1953" style="stroke:#181818;stroke-width:1.0;" width="10" x="56.5" y="92.6094"/><rect fill="#FFFFFF" height="1154.7344" style="stroke:#181818;stroke-width:1.0;" width="10" x="443.5" y="114.9609"/><rect fill="#FFFFFF" height="30.3516" style="stroke:#181818;stroke-width:1.0;" width="10" x="443.5" y="1400.75"/><rect fill="#FFFFFF" height="356.3516" style="stroke:#181818;stroke-width:1.0;" width="10" x="443.5" y="1461.4531"/><rect fill="#FFFFFF" height="1009.7188" style="stroke:#181818;stroke-width:1.0;" width="10" x="836.5" y="187.9219"/><rect fill="#FFFFFF" height="87.7969" style="stroke:#181818;stroke-width:1.0;" width="10" x="841.5" y="226.2734"/><rect fill="#FFFFFF" height="362.9609" style="stroke:#181818;stroke-width:1.0;" width="10" x="841.5" y="384.4219"/><rect fill="#FFFFFF" height="295.6484" style="stroke:#181818;stroke-width:1.0;" width="10" x="836.5" y="1491.8047"/><rect fill="#FFFFFF" height="87.7969" style="stroke:#181818;stroke-width:1.0;" width="10" x="841.5" y="1530.1563"/><rect fill="#FFFFFF" height="30.3516" style="stroke:#181818;stroke-width:1.0;" width="10" x="1153.5" y="419.7734"/><rect fill="#FFFFFF" height="123.4063" style="stroke:#181818;stroke-width:1.0;" width="10" x="1280.5" y="480.4766"/><rect fill="#FFFFFF" height="30.3516" style="stroke:#181818;stroke-width:1.0;" width="10" x="1511.5" y="536.1797"/><rect fill="#FFFFFF" height="76.7969" style="stroke:#181818;stroke-width:1.0;" width="10" x="1511.5" y="634.2344"/><rect fill="#FFFFFF" height="76.7969" style="stroke:#181818;stroke-width:1.0;" width="10" x="1614.5" y="1680.3047"/><rect fill="#FFFFFF" height="382.5547" style="stroke:#181818;stroke-width:1.0;" width="10" x="1765.5" y="784.7344"/><rect fill="#FFFFFF" height="137.7969" style="stroke:#181818;stroke-width:1.0;" width="10" x="1770.5" y="848.4375"/><rect fill="#FFFFFF" height="41.3516" style="stroke:#181818;stroke-width:1.0;" width="10" x="1770.5" y="1056.5859"/><polygon fill="#181818" points="431.5,110.9609,441.5,114.9609,431.5,118.9609,435.5,114.9609" style="stroke:#181818;stroke-width:1.0;"/><line style="stroke:#181818;stroke-width:1.0;" x1="66.5" x2="437.5" y1="114.9609" y2="114.9609"/><text fill="#000000" font-family="sans-serif" font-size="13" font-weight="bold" lengthAdjust="spacing" textLength="7" x="73.5" y="110.1045">1</text><text fill="#000000" font-family="sans-serif" font-size="13" lengthAdjust="spacing" textLength="183" x="84.5" y="110.1045">asks to accept purchase orders</text><polygon fill="#181818" points="746,141.3125,756,145.3125,746,149.3125,750,145.3125" style="stroke:#181818;stroke-width:1.0;"/><line style="stroke:#181818;stroke-width:1.0;" x1="453.5" x2="752" y1="145.3125" y2="145.3125"/><text fill="#000000" font-family="sans-serif" font-size="13" font-weight="bold" lengthAdjust="spacing" textLength="7" x="460.5" y="140.4561">2</text><text fill="#000000" font-family="sans-serif" font-size="13" lengthAdjust="spacing" textLength="36" x="471.5" y="140.4561">create</text><rect fill="#E3E3E3" height="31.6094" rx="2.5" ry="2.5" style="stroke:#181818;stroke-width:0.5;" width="167" x="758" y="122.9609"/><text fill="#000000" font-family="sans-serif" font-size="14" lengthAdjust="spacing" textLength="153" x="765" y="144.4941">:AcceptOrdersController</text><polygon fill="#181818" points="824.5,183.9219,834.5,187.9219,824.5,191.9219,828.5,187.9219" style="stroke:#181818;stroke-width:1.0;"/><line style="stroke:#181818;stroke-width:1.0;" x1="453.5" x2="830.5" y1="187.9219" y2="187.9219"/><text fill="#000000" font-family="sans-serif" font-size="13" font-weight="bold" lengthAdjust="spacing" textLength="7" x="460.5" y="183.0654">3</text><text fill="#000000" font-family="sans-serif" font-size="13" lengthAdjust="spacing" textLength="134" x="471.5" y="183.0654">getAnnouncementList()</text><line style="stroke:#181818;stroke-width:1.0;" x1="846.5" x2="893.5" y1="213.2734" y2="213.2734"/><line style="stroke:#181818;stroke-width:1.0;" x1="893.5" x2="893.5" y1="213.2734" y2="226.2734"/><line style="stroke:#181818;stroke-width:1.0;" x1="852.5" x2="893.5" y1="226.2734" y2="226.2734"/><polygon fill="#181818" points="862.5,222.2734,852.5,226.2734,862.5,230.2734,858.5,226.2734" style="stroke:#181818;stroke-width:1.0;"/><text fill="#000000" font-family="sans-serif" font-size="13" font-weight="bold" lengthAdjust="spacing" textLength="7" x="858.5" y="208.417">4</text><text fill="#000000" font-family="sans-serif" font-size="13" lengthAdjust="spacing" textLength="93" x="869.5" y="208.417">getAgentEmail()</text><rect fill="none" height="41.4453" style="stroke:#000000;stroke-width:1.5;" width="173" x="755" y="239.2734"/><path d="M755,239.2734 L817,239.2734 L817,247.2734 L807,257.2734 L755,257.2734 L755,239.2734 " fill="#EEEEEE" style="stroke:#000000;stroke-width:2.0;"/><text fill="#000000" font-family="sans-serif" font-size="13" font-weight="bold" lengthAdjust="spacing" textLength="17" x="768" y="254.7686">ref</text><text fill="#000000" font-family="sans-serif" font-size="12" lengthAdjust="spacing" textLength="88" x="797.5" y="273.7305">Get Agent Email</text><line style="stroke:#181818;stroke-width:1.0;stroke-dasharray:2.0,2.0;" x1="851.5" x2="893.5" y1="313.0703" y2="313.0703"/><line style="stroke:#181818;stroke-width:1.0;stroke-dasharray:2.0,2.0;" x1="893.5" x2="893.5" y1="313.0703" y2="326.0703"/><line style="stroke:#181818;stroke-width:1.0;stroke-dasharray:2.0,2.0;" x1="846.5" x2="893.5" y1="326.0703" y2="326.0703"/><polygon fill="#181818" points="856.5,322.0703,846.5,326.0703,856.5,330.0703,852.5,326.0703" style="stroke:#181818;stroke-width:1.0;"/><text fill="#000000" font-family="sans-serif" font-size="13" font-weight="bold" lengthAdjust="spacing" textLength="7" x="858.5" y="308.2139">5</text><text fill="#000000" font-family="sans-serif" font-size="13" lengthAdjust="spacing" textLength="65" x="869.5" y="308.2139">agentEmail</text><line style="stroke:#181818;stroke-width:1.0;" x1="846.5" x2="893.5" y1="371.4219" y2="371.4219"/><line style="stroke:#181818;stroke-width:1.0;" x1="893.5" x2="893.5" y1="371.4219" y2="384.4219"/><line style="stroke:#181818;stroke-width:1.0;" x1="852.5" x2="893.5" y1="384.4219" y2="384.4219"/><polygon fill="#181818" points="862.5,380.4219,852.5,384.4219,862.5,388.4219,858.5,384.4219" style="stroke:#181818;stroke-width:1.0;"/><text fill="#000000" font-family="sans-serif" font-size="13" font-weight="bold" lengthAdjust="spacing" textLength="7" x="858.5" y="366.5654">6</text><text fill="#000000" font-family="sans-serif" font-size="13" lengthAdjust="spacing" textLength="282" x="869.5" y="366.5654">getAnnouncementListByAgentEmail(agentEmail)</text><polygon fill="#181818" points="1141.5,415.7734,1151.5,419.7734,1141.5,423.7734,1145.5,419.7734" style="stroke:#181818;stroke-width:1.0;"/><line style="stroke:#181818;stroke-width:1.0;" x1="851.5" x2="1147.5" y1="419.7734" y2="419.7734"/><text fill="#000000" font-family="sans-serif" font-size="13" font-weight="bold" lengthAdjust="spacing" textLength="7" x="858.5" y="414.917">7</text><text fill="#000000" font-family="sans-serif" font-size="13" lengthAdjust="spacing" textLength="132" x="869.5" y="414.917">getAgencyRepository()</text><polygon fill="#181818" points="862.5,446.125,852.5,450.125,862.5,454.125,858.5,450.125" style="stroke:#181818;stroke-width:1.0;"/><line style="stroke:#181818;stroke-width:1.0;" x1="856.5" x2="1157.5" y1="450.125" y2="450.125"/><text fill="#000000" font-family="sans-serif" font-size="13" font-weight="bold" lengthAdjust="spacing" textLength="7" x="868.5" y="445.2686">8</text><text fill="#000000" font-family="sans-serif" font-size="13" lengthAdjust="spacing" textLength="104" x="879.5" y="445.2686">agencyRepository</text><polygon fill="#181818" points="1268.5,476.4766,1278.5,480.4766,1268.5,484.4766,1272.5,480.4766" style="stroke:#181818;stroke-width:1.0;"/><line style="stroke:#181818;stroke-width:1.0;" x1="851.5" x2="1274.5" y1="480.4766" y2="480.4766"/><text fill="#000000" font-family="sans-serif" font-size="13" font-weight="bold" lengthAdjust="spacing" textLength="7" x="858.5" y="475.6201">9</text><text fill="#000000" font-family="sans-serif" font-size="13" lengthAdjust="spacing" textLength="242" x="869.5" y="475.6201">getAgencyByEmployeeEmail(agentEmail)</text><path d="M1207,495.4766 L1280,495.4766 L1280,503.8281 L1270,513.8281 L1207,513.8281 L1207,495.4766 " fill="#EEEEEE" style="stroke:#000000;stroke-width:1.5;"/><rect fill="none" height="79.0547" style="stroke:#000000;stroke-width:1.5;" width="354" x="1207" y="495.4766"/><text fill="#000000" font-family="sans-serif" font-size="13" font-weight="bold" lengthAdjust="spacing" textLength="28" x="1222" y="509.9717">loop</text><text fill="#000000" font-family="sans-serif" font-size="11" font-weight="bold" lengthAdjust="spacing" textLength="99" x="1295" y="508.8955">[[for each agency]</text><polygon fill="#181818" points="1499.5,532.1797,1509.5,536.1797,1499.5,540.1797,1503.5,536.1797" style="stroke:#181818;stroke-width:1.0;"/><line style="stroke:#181818;stroke-width:1.0;" x1="1290.5" x2="1505.5" y1="536.1797" y2="536.1797"/><text fill="#000000" font-family="sans-serif" font-size="13" font-weight="bold" lengthAdjust="spacing" textLength="14" x="1297.5" y="531.3232">10</text><text fill="#000000" font-family="sans-serif" font-size="13" lengthAdjust="spacing" textLength="184" x="1315.5" y="531.3232">anyAgentHasEmail(agentEmail)</text><polygon fill="#181818" points="1301.5,562.5313,1291.5,566.5313,1301.5,570.5313,1297.5,566.5313" style="stroke:#181818;stroke-width:1.0;"/><line style="stroke:#181818;stroke-width:1.0;stroke-dasharray:2.0,2.0;" x1="1295.5" x2="1515.5" y1="566.5313" y2="566.5313"/><text fill="#000000" font-family="sans-serif" font-size="13" font-weight="bold" lengthAdjust="spacing" textLength="14" x="1307.5" y="561.6748">11</text><text fill="#000000" font-family="sans-serif" font-size="13" lengthAdjust="spacing" textLength="53" x="1325.5" y="561.6748">true/false</text><polygon fill="#181818" points="862.5,599.8828,852.5,603.8828,862.5,607.8828,858.5,603.8828" style="stroke:#181818;stroke-width:1.0;"/><line style="stroke:#181818;stroke-width:1.0;stroke-dasharray:2.0,2.0;" x1="856.5" x2="1284.5" y1="603.8828" y2="603.8828"/><text fill="#000000" font-family="sans-serif" font-size="13" font-weight="bold" lengthAdjust="spacing" textLength="14" x="868.5" y="599.0264">12</text><text fill="#000000" font-family="sans-serif" font-size="13" lengthAdjust="spacing" textLength="42" x="886.5" y="599.0264">agency</text><polygon fill="#181818" points="1499.5,630.2344,1509.5,634.2344,1499.5,638.2344,1503.5,634.2344" style="stroke:#181818;stroke-width:1.0;"/><line style="stroke:#181818;stroke-width:1.0;" x1="851.5" x2="1505.5" y1="634.2344" y2="634.2344"/><text fill="#000000" font-family="sans-serif" font-size="13" font-weight="bold" lengthAdjust="spacing" textLength="14" x="858.5" y="629.3779">13</text><text fill="#000000" font-family="sans-serif" font-size="13" lengthAdjust="spacing" textLength="268" x="876.5" y="629.3779">getAnnouncementsByAgentEmail(agentEmail)</text><rect fill="none" height="41.4453" style="stroke:#000000;stroke-width:1.5;" width="143" x="1479" y="642.2344"/><path d="M1479,642.2344 L1541,642.2344 L1541,650.2344 L1531,660.2344 L1479,660.2344 L1479,642.2344 " fill="#EEEEEE" style="stroke:#000000;stroke-width:2.0;"/><text fill="#000000" font-family="sans-serif" font-size="13" font-weight="bold" lengthAdjust="spacing" textLength="17" x="1492" y="657.7295">ref</text><text fill="#000000" font-family="sans-serif" font-size="12" lengthAdjust="spacing" textLength="135" x="1483" y="676.6914">Get Announcements List</text><polygon fill="#181818" points="862.5,707.0313,852.5,711.0313,862.5,715.0313,858.5,711.0313" style="stroke:#181818;stroke-width:1.0;"/><line style="stroke:#181818;stroke-width:1.0;stroke-dasharray:2.0,2.0;" x1="856.5" x2="1515.5" y1="711.0313" y2="711.0313"/><text fill="#000000" font-family="sans-serif" font-size="13" font-weight="bold" lengthAdjust="spacing" textLength="14" x="868.5" y="706.1748">14</text><text fill="#000000" font-family="sans-serif" font-size="13" lengthAdjust="spacing" textLength="111" x="886.5" y="706.1748">listAnnouncements</text><line style="stroke:#181818;stroke-width:1.0;stroke-dasharray:2.0,2.0;" x1="851.5" x2="893.5" y1="746.3828" y2="746.3828"/><line style="stroke:#181818;stroke-width:1.0;stroke-dasharray:2.0,2.0;" x1="893.5" x2="893.5" y1="746.3828" y2="759.3828"/><line style="stroke:#181818;stroke-width:1.0;stroke-dasharray:2.0,2.0;" x1="846.5" x2="893.5" y1="759.3828" y2="759.3828"/><polygon fill="#181818" points="856.5,755.3828,846.5,759.3828,856.5,763.3828,852.5,759.3828" style="stroke:#181818;stroke-width:1.0;"/><text fill="#000000" font-family="sans-serif" font-size="13" font-weight="bold" lengthAdjust="spacing" textLength="14" x="858.5" y="741.5264">15</text><text fill="#000000" font-family="sans-serif" font-size="13" lengthAdjust="spacing" textLength="111" x="876.5" y="741.5264">listAnnouncements</text><polygon fill="#181818" points="1753.5,780.7344,1763.5,784.7344,1753.5,788.7344,1757.5,784.7344" style="stroke:#181818;stroke-width:1.0;"/><line style="stroke:#181818;stroke-width:1.0;" x1="846.5" x2="1759.5" y1="784.7344" y2="784.7344"/><text fill="#000000" font-family="sans-serif" font-size="13" font-weight="bold" lengthAdjust="spacing" textLength="14" x="853.5" y="779.8779">16</text><text fill="#000000" font-family="sans-serif" font-size="13" lengthAdjust="spacing" textLength="156" x="871.5" y="779.8779">toDTO(listAnnouncements)</text><path d="M1678,799.7344 L1751,799.7344 L1751,808.0859 L1741,818.0859 L1678,818.0859 L1678,799.7344 " fill="#EEEEEE" style="stroke:#000000;stroke-width:1.5;"/><rect fill="none" height="338.2031" style="stroke:#000000;stroke-width:1.5;" width="273.5" x="1678" y="799.7344"/><text fill="#000000" font-family="sans-serif" font-size="13" font-weight="bold" lengthAdjust="spacing" textLength="28" x="1693" y="814.2295">loop</text><text fill="#000000" font-family="sans-serif" font-size="11" font-weight="bold" lengthAdjust="spacing" textLength="139" x="1766" y="813.1533">[for each announcement]</text><line style="stroke:#181818;stroke-width:1.0;" x1="1775.5" x2="1822.5" y1="835.4375" y2="835.4375"/><line style="stroke:#181818;stroke-width:1.0;" x1="1822.5" x2="1822.5" y1="835.4375" y2="848.4375"/><line style="stroke:#181818;stroke-width:1.0;" x1="1781.5" x2="1822.5" y1="848.4375" y2="848.4375"/><polygon fill="#181818" points="1791.5,844.4375,1781.5,848.4375,1791.5,852.4375,1787.5,848.4375" style="stroke:#181818;stroke-width:1.0;"/><text fill="#000000" font-family="sans-serif" font-size="13" font-weight="bold" lengthAdjust="spacing" textLength="14" x="1787.5" y="830.5811">17</text><text fill="#000000" font-family="sans-serif" font-size="13" lengthAdjust="spacing" textLength="130" x="1805.5" y="830.5811">toDTO(announcement)</text><rect fill="none" height="41.4453" style="stroke:#000000;stroke-width:1.5;" width="171" x="1685" y="886.4375"/><path d="M1685,886.4375 L1747,886.4375 L1747,894.4375 L1737,904.4375 L1685,904.4375 L1685,886.4375 " fill="#EEEEEE" style="stroke:#000000;stroke-width:2.0;"/><text fill="#000000" font-family="sans-serif" font-size="13" font-weight="bold" lengthAdjust="spacing" textLength="17" x="1698" y="901.9326">ref</text><text fill="#000000" font-family="sans-serif" font-size="12" lengthAdjust="spacing" textLength="148" x="1696.5" y="920.8945">Create AnnouncementDTO</text><line style="stroke:#181818;stroke-width:1.0;stroke-dasharray:2.0,2.0;" x1="1780.5" x2="1822.5" y1="985.2344" y2="985.2344"/><line style="stroke:#181818;stroke-width:1.0;stroke-dasharray:2.0,2.0;" x1="1822.5" x2="1822.5" y1="985.2344" y2="998.2344"/><line style="stroke:#181818;stroke-width:1.0;stroke-dasharray:2.0,2.0;" x1="1775.5" x2="1822.5" y1="998.2344" y2="998.2344"/><polygon fill="#181818" points="1785.5,994.2344,1775.5,998.2344,1785.5,1002.2344,1781.5,998.2344" style="stroke:#181818;stroke-width:1.0;"/><text fill="#000000" font-family="sans-serif" font-size="13" font-weight="bold" lengthAdjust="spacing" textLength="14" x="1787.5" y="980.3779">18</text><text fill="#000000" font-family="sans-serif" font-size="13" lengthAdjust="spacing" textLength="105" x="1805.5" y="980.3779">announcementDto</text><line style="stroke:#181818;stroke-width:1.0;" x1="1775.5" x2="1822.5" y1="1043.5859" y2="1043.5859"/><line style="stroke:#181818;stroke-width:1.0;" x1="1822.5" x2="1822.5" y1="1043.5859" y2="1056.5859"/><line style="stroke:#181818;stroke-width:1.0;" x1="1781.5" x2="1822.5" y1="1056.5859" y2="1056.5859"/><polygon fill="#181818" points="1791.5,1052.5859,1781.5,1056.5859,1791.5,1060.5859,1787.5,1056.5859" style="stroke:#181818;stroke-width:1.0;"/><text fill="#000000" font-family="sans-serif" font-size="13" font-weight="bold" lengthAdjust="spacing" textLength="14" x="1787.5" y="1038.7295">19</text><text fill="#000000" font-family="sans-serif" font-size="13" lengthAdjust="spacing" textLength="134" x="1805.5" y="1038.7295">add(announcementDto)</text><line style="stroke:#181818;stroke-width:1.0;stroke-dasharray:2.0,2.0;" x1="1780.5" x2="1822.5" y1="1096.9375" y2="1096.9375"/><line style="stroke:#181818;stroke-width:1.0;stroke-dasharray:2.0,2.0;" x1="1822.5" x2="1822.5" y1="1096.9375" y2="1109.9375"/><line style="stroke:#181818;stroke-width:1.0;stroke-dasharray:2.0,2.0;" x1="1775.5" x2="1822.5" y1="1109.9375" y2="1109.9375"/><polygon fill="#181818" points="1785.5,1105.9375,1775.5,1109.9375,1785.5,1113.9375,1781.5,1109.9375" style="stroke:#181818;stroke-width:1.0;"/><text fill="#000000" font-family="sans-serif" font-size="13" font-weight="bold" lengthAdjust="spacing" textLength="14" x="1787.5" y="1092.0811">20</text><text fill="#000000" font-family="sans-serif" font-size="13" lengthAdjust="spacing" textLength="4" x="1805.5" y="1092.0811"> </text><polygon fill="#181818" points="857.5,1163.2891,847.5,1167.2891,857.5,1171.2891,853.5,1167.2891" style="stroke:#181818;stroke-width:1.0;"/><line style="stroke:#181818;stroke-width:1.0;stroke-dasharray:2.0,2.0;" x1="851.5" x2="1769.5" y1="1167.2891" y2="1167.2891"/><text fill="#000000" font-family="sans-serif" font-size="13" font-weight="bold" lengthAdjust="spacing" textLength="14" x="863.5" y="1162.4326">21</text><text fill="#000000" font-family="sans-serif" font-size="13" lengthAdjust="spacing" textLength="131" x="881.5" y="1162.4326">listAnnouncementsDto</text><polygon fill="#181818" points="464.5,1193.6406,454.5,1197.6406,464.5,1201.6406,460.5,1197.6406" style="stroke:#181818;stroke-width:1.0;"/><line style="stroke:#181818;stroke-width:1.0;stroke-dasharray:2.0,2.0;" x1="458.5" x2="840.5" y1="1197.6406" y2="1197.6406"/><text fill="#000000" font-family="sans-serif" font-size="13" font-weight="bold" lengthAdjust="spacing" textLength="14" x="470.5" y="1192.7842">22</text><text fill="#000000" font-family="sans-serif" font-size="13" lengthAdjust="spacing" textLength="131" x="488.5" y="1192.7842">listAnnouncementsDto</text><path d="M10,1212.6406 L83,1212.6406 L83,1220.9922 L73,1230.9922 L10,1230.9922 L10,1212.6406 " fill="#EEEEEE" style="stroke:#000000;stroke-width:1.5;"/><rect fill="none" height="677.1641" style="stroke:#000000;stroke-width:1.5;" width="1698" x="10" y="1212.6406"/><text fill="#000000" font-family="sans-serif" font-size="13" font-weight="bold" lengthAdjust="spacing" textLength="28" x="25" y="1227.1357">loop</text><text fill="#000000" font-family="sans-serif" font-size="11" font-weight="bold" lengthAdjust="spacing" textLength="228" x="98" y="1226.0596">[for each property available for purchase]</text><polygon fill="#181818" points="77.5,1265.6953,67.5,1269.6953,77.5,1273.6953,73.5,1269.6953" style="stroke:#181818;stroke-width:1.0;"/><line style="stroke:#181818;stroke-width:1.0;stroke-dasharray:2.0,2.0;" x1="71.5" x2="447.5" y1="1269.6953" y2="1269.6953"/><text fill="#000000" font-family="sans-serif" font-size="13" font-weight="bold" lengthAdjust="spacing" textLength="14" x="83.5" y="1256.6631">23</text><text fill="#000000" font-family="sans-serif" font-size="13" lengthAdjust="spacing" textLength="335" x="101.5" y="1248.4873">displays property by oldest and its orders by highest price</text><text fill="#000000" font-family="sans-serif" font-size="13" lengthAdjust="spacing" textLength="279" x="105.5" y="1264.8389">and asks to select acceptanceAnswer for orders</text><path d="M20,1309.6953 L81,1309.6953 L81,1318.0469 L71,1328.0469 L20,1328.0469 L20,1309.6953 " fill="#EEEEEE" style="stroke:#000000;stroke-width:1.5;"/><rect fill="none" height="548.1094" style="stroke:#000000;stroke-width:1.5;" width="1678" x="20" y="1309.6953"/><text fill="#000000" font-family="sans-serif" font-size="13" font-weight="bold" lengthAdjust="spacing" textLength="16" x="35" y="1324.1904">alt</text><text fill="#000000" font-family="sans-serif" font-size="11" font-weight="bold" lengthAdjust="spacing" textLength="163" x="96" y="1323.1143">[purchaseOrderList != empty]</text><path d="M30,1360.0469 L103,1360.0469 L103,1368.3984 L93,1378.3984 L30,1378.3984 L30,1360.0469 " fill="#EEEEEE" style="stroke:#000000;stroke-width:1.5;"/><rect fill="none" height="465.7578" style="stroke:#000000;stroke-width:1.5;" width="1658" x="30" y="1360.0469"/><text fill="#000000" font-family="sans-serif" font-size="13" font-weight="bold" lengthAdjust="spacing" textLength="28" x="45" y="1374.542">loop</text><text fill="#000000" font-family="sans-serif" font-size="11" font-weight="bold" lengthAdjust="spacing" textLength="335" x="118" y="1373.4658">[for each displayed offer &amp;&amp; while acceptanceAnswer != yes]</text><polygon fill="#181818" points="431.5,1396.75,441.5,1400.75,431.5,1404.75,435.5,1400.75" style="stroke:#181818;stroke-width:1.0;"/><line style="stroke:#181818;stroke-width:1.0;" x1="66.5" x2="437.5" y1="1400.75" y2="1400.75"/><text fill="#000000" font-family="sans-serif" font-size="13" font-weight="bold" lengthAdjust="spacing" textLength="14" x="73.5" y="1395.8936">24</text><text fill="#000000" font-family="sans-serif" font-size="13" lengthAdjust="spacing" textLength="156" x="91.5" y="1395.8936">selects acceptanceAnswer</text><polygon fill="#181818" points="77.5,1427.1016,67.5,1431.1016,77.5,1435.1016,73.5,1431.1016" style="stroke:#181818;stroke-width:1.0;"/><line style="stroke:#181818;stroke-width:1.0;stroke-dasharray:2.0,2.0;" x1="71.5" x2="447.5" y1="1431.1016" y2="1431.1016"/><text fill="#000000" font-family="sans-serif" font-size="13" font-weight="bold" lengthAdjust="spacing" textLength="14" x="83.5" y="1426.2451">25</text><text fill="#000000" font-family="sans-serif" font-size="13" lengthAdjust="spacing" textLength="300" x="101.5" y="1426.2451">asks to confirm acceptanceAnswer and submit data</text><polygon fill="#181818" points="431.5,1457.4531,441.5,1461.4531,431.5,1465.4531,435.5,1461.4531" style="stroke:#181818;stroke-width:1.0;"/><line style="stroke:#181818;stroke-width:1.0;" x1="66.5" x2="437.5" y1="1461.4531" y2="1461.4531"/><text fill="#000000" font-family="sans-serif" font-size="13" font-weight="bold" lengthAdjust="spacing" textLength="14" x="73.5" y="1456.5967">26</text><text fill="#000000" font-family="sans-serif" font-size="13" lengthAdjust="spacing" textLength="75" x="91.5" y="1456.5967">submits data</text><polygon fill="#181818" points="824.5,1487.8047,834.5,1491.8047,824.5,1495.8047,828.5,1491.8047" style="stroke:#181818;stroke-width:1.0;"/><line style="stroke:#181818;stroke-width:1.0;" x1="453.5" x2="830.5" y1="1491.8047" y2="1491.8047"/><text fill="#000000" font-family="sans-serif" font-size="13" font-weight="bold" lengthAdjust="spacing" textLength="14" x="460.5" y="1486.9482">27</text><text fill="#000000" font-family="sans-serif" font-size="13" lengthAdjust="spacing" textLength="346" x="478.5" y="1486.9482">defineOrderAcceptance(answer,orderDto,announcementDto)</text><line style="stroke:#181818;stroke-width:1.0;" x1="846.5" x2="893.5" y1="1517.1563" y2="1517.1563"/><line style="stroke:#181818;stroke-width:1.0;" x1="893.5" x2="893.5" y1="1517.1563" y2="1530.1563"/><line style="stroke:#181818;stroke-width:1.0;" x1="852.5" x2="893.5" y1="1530.1563" y2="1530.1563"/><polygon fill="#181818" points="862.5,1526.1563,852.5,1530.1563,862.5,1534.1563,858.5,1530.1563" style="stroke:#181818;stroke-width:1.0;"/><text fill="#000000" font-family="sans-serif" font-size="13" font-weight="bold" lengthAdjust="spacing" textLength="14" x="858.5" y="1512.2998">28</text><text fill="#000000" font-family="sans-serif" font-size="13" lengthAdjust="spacing" textLength="268" x="876.5" y="1512.2998">getAnnouncementFromDto(announcementDto)</text><rect fill="none" height="41.4453" style="stroke:#000000;stroke-width:1.5;" width="173" x="755" y="1543.1563"/><path d="M755,1543.1563 L817,1543.1563 L817,1551.1563 L807,1561.1563 L755,1561.1563 L755,1543.1563 " fill="#EEEEEE" style="stroke:#000000;stroke-width:2.0;"/><text fill="#000000" font-family="sans-serif" font-size="13" font-weight="bold" lengthAdjust="spacing" textLength="17" x="768" y="1558.6514">ref</text><text fill="#000000" font-family="sans-serif" font-size="12" lengthAdjust="spacing" textLength="105" x="789" y="1577.6133">Get Announcement</text><line style="stroke:#181818;stroke-width:1.0;stroke-dasharray:2.0,2.0;" x1="851.5" x2="893.5" y1="1616.9531" y2="1616.9531"/><line style="stroke:#181818;stroke-width:1.0;stroke-dasharray:2.0,2.0;" x1="893.5" x2="893.5" y1="1616.9531" y2="1629.9531"/><line style="stroke:#181818;stroke-width:1.0;stroke-dasharray:2.0,2.0;" x1="846.5" x2="893.5" y1="1629.9531" y2="1629.9531"/><polygon fill="#181818" points="856.5,1625.9531,846.5,1629.9531,856.5,1633.9531,852.5,1629.9531" style="stroke:#181818;stroke-width:1.0;"/><text fill="#000000" font-family="sans-serif" font-size="13" font-weight="bold" lengthAdjust="spacing" textLength="14" x="858.5" y="1612.0967">29</text><text fill="#000000" font-family="sans-serif" font-size="13" lengthAdjust="spacing" textLength="85" x="876.5" y="1612.0967">announcement</text><polygon fill="#181818" points="1602.5,1676.3047,1612.5,1680.3047,1602.5,1684.3047,1606.5,1680.3047" style="stroke:#181818;stroke-width:1.0;"/><line style="stroke:#181818;stroke-width:1.0;" x1="846.5" x2="1608.5" y1="1680.3047" y2="1680.3047"/><text fill="#000000" font-family="sans-serif" font-size="13" font-weight="bold" lengthAdjust="spacing" textLength="14" x="853.5" y="1675.4482">30</text><text fill="#000000" font-family="sans-serif" font-size="13" lengthAdjust="spacing" textLength="237" x="871.5" y="1675.4482">defineOrderAcceptance(answer,orderDto)</text><rect fill="none" height="41.4453" style="stroke:#000000;stroke-width:1.5;" width="155" x="1558" y="1688.3047"/><path d="M1558,1688.3047 L1620,1688.3047 L1620,1696.3047 L1610,1706.3047 L1558,1706.3047 L1558,1688.3047 " fill="#EEEEEE" style="stroke:#000000;stroke-width:2.0;"/><text fill="#000000" font-family="sans-serif" font-size="13" font-weight="bold" lengthAdjust="spacing" textLength="17" x="1571" y="1703.7998">ref</text><text fill="#000000" font-family="sans-serif" font-size="12" lengthAdjust="spacing" textLength="147" x="1562" y="1722.7617">Define Acceptance of order</text><polygon fill="#181818" points="857.5,1753.1016,847.5,1757.1016,857.5,1761.1016,853.5,1757.1016" style="stroke:#181818;stroke-width:1.0;"/><line style="stroke:#181818;stroke-width:1.0;stroke-dasharray:2.0,2.0;" x1="851.5" x2="1618.5" y1="1757.1016" y2="1757.1016"/><text fill="#000000" font-family="sans-serif" font-size="13" font-weight="bold" lengthAdjust="spacing" textLength="14" x="863.5" y="1752.2451">31</text><text fill="#000000" font-family="sans-serif" font-size="13" lengthAdjust="spacing" textLength="49" x="881.5" y="1752.2451">success</text><polygon fill="#181818" points="464.5,1783.4531,454.5,1787.4531,464.5,1791.4531,460.5,1787.4531" style="stroke:#181818;stroke-width:1.0;"/><line style="stroke:#181818;stroke-width:1.0;stroke-dasharray:2.0,2.0;" x1="458.5" x2="840.5" y1="1787.4531" y2="1787.4531"/><text fill="#000000" font-family="sans-serif" font-size="13" font-weight="bold" lengthAdjust="spacing" textLength="14" x="470.5" y="1782.5967">32</text><text fill="#000000" font-family="sans-serif" font-size="13" lengthAdjust="spacing" textLength="49" x="488.5" y="1782.5967">success</text><polygon fill="#181818" points="77.5,1813.8047,67.5,1817.8047,77.5,1821.8047,73.5,1817.8047" style="stroke:#181818;stroke-width:1.0;"/><line style="stroke:#181818;stroke-width:1.0;stroke-dasharray:2.0,2.0;" x1="71.5" x2="447.5" y1="1817.8047" y2="1817.8047"/><text fill="#000000" font-family="sans-serif" font-size="13" font-weight="bold" lengthAdjust="spacing" textLength="14" x="83.5" y="1812.9482">33</text><text fill="#000000" font-family="sans-serif" font-size="13" lengthAdjust="spacing" textLength="158" x="101.5" y="1812.9482">displays operation success</text><!--SRC=[dLTRRziW57xdLx0-T5dLQk-HDYczhAlKRbNNFaph2x5F4bGRB23jBFN7xm2n3JPsel4I1SvtBj-vWFKB5nLJhAIb53BRA5a2DMeBHBSd5SjUs1f-cRe0gY0pJAoBK41lM2xVk5ZJ5Iiq4CAsHefjkGH5oCSDpu6kf3HB-PUmp4X5ZnPh4EQ8CaqNbtS4BIZ3CrunOUZHV95bK9cVAWUbdswSrDFDbD2554R9eW3bX2yU7svxuWeggJcQvg2VnVmX-EiWzxUBnnu48nPPtKhM2AEBtfwFO8qRIN07yOBNLpykVlSbXP1RaK69X3ZvuBz7xJOcS7Uiga3rqNwtqN6tkB-_UY0s0VoL6V34uy9VUlOL6QPp57tHr4ZA7BcqsgfimpHGwMXsuYqUK-8s48Xmo_d92Qh85E1f_mWFrc12xswvDhDFiKgNEBVbC37MLinLoNWnZh9BmOhALr2xAWZMDHYN3KETclOCH6vHEnNUScUQjNRzUGufm-_lxo7SevCndzT199ro7rCog4QbhL5qg24ZhCDP7-xgsUyvM1nF21r4vLiXDEmAVDxPFQ-loggGDS2-A7nhT5aefApednLE0BItsVaI9Sb3d5NNBTPZuIdxplI8lMPrTdsdnQTUlTTwreI5-ksq- -m7LoGQSD9qRb0ofEznd-81iI4PBRLEyQ1Gz85L4iNPLdxFMrVteN9gwv0aQZyWPnTAWP8HbenGasYUGz33Zcz7bSsCl7pyEHje2RBUkT5Dk327hk2wUWkqn7ATrQGB8J2kkOG3WvfhXqEukcoD0psdRg166KINXi9DAgSi1s66SSuZPYwD96DzaFHrmafi9CzdFKDxoJp8_VtkJlfhcRE54aZ5biQQ8M9gmcxR5aytKrgIVH5NSAKatkccfkmLnm5R5k3EcekwktOjFtYnpsdETLMmMdVGPKrbaOCscFMSSfm7_dgt1nk-tjYJIl4CdeMJQ1u56Wfy- -tU1WozNmZzXWLi7GWU244KzjMMu9mLtTF2FU3iFA8Vlb0eArDFfYfcOnSRv5IkLkZ9yJ5zst3aPE0ZAgz1zwgfVVWWJJuuFK2cwxDv-pGhOhpXAvDYnLKvTCQIghVBaXkQCyF6ghTl9FRNuVLGmQIFRIddiEB2axzetSFcjFwTkcHYLPuUrgpn-sll8-WRVcAWijd_Afz-v8rTUcHiN2OS3sxoCGtfL-18qLe9Fw-SiaFf7v-D_dk0Z5qdky-5thfqDcbd3vl6zotPoqlhUi2Dtg8chITcRyBDO1BkLp5aDZtPx5nZXaknJs6_9Th1dygSFSH9HSBz-AO8eyMFAKB-0G00]--></g></svg>