<?xml version="1.0" encoding="UTF-8" standalone="no"?><svg xmlns="http://www.w3.org/2000/svg" xmlns:xlink="http://www.w3.org/1999/xlink" contentStyleType="text/css" height="1009px" preserveAspectRatio="none" style="width:1275px;height:1009px;background:#FFFFFF;" version="1.1" viewBox="0 0 1275 1009" width="1275px" zoomAndPan="magnify"><defs/><g><rect fill="#FFFFFF" height="849.4375" style="stroke:#181818;stroke-width:1.0;" width="10" x="246" y="87.5703"/><rect fill="#FFFFFF" height="30.3516" style="stroke:#181818;stroke-width:1.0;" width="10" x="388" y="117.9219"/><rect fill="#FFFFFF" height="30.3516" style="stroke:#181818;stroke-width:1.0;" width="10" x="495" y="178.625"/><rect fill="#FFFFFF" height="30.3516" style="stroke:#181818;stroke-width:1.0;" width="10" x="622" y="239.3281"/><rect fill="#FFFFFF" height="545.9219" style="stroke:#181818;stroke-width:1.0;" width="10" x="622" y="300.0313"/><rect fill="#FFFFFF" height="41.3516" style="stroke:#181818;stroke-width:1.0;" width="10" x="627" y="735.25"/><rect fill="#FFFFFF" height="341.1641" style="stroke:#181818;stroke-width:1.0;" width="10" x="799" y="355.7344"/><rect fill="#FFFFFF" height="280.4609" style="stroke:#181818;stroke-width:1.0;" width="10" x="957" y="386.0859"/><rect fill="#FFFFFF" height="30.3516" style="stroke:#181818;stroke-width:1.0;" width="10" x="957" y="876.3047"/><rect fill="#FFFFFF" height="30.3516" style="stroke:#181818;stroke-width:1.0;" width="10" x="1095" y="538.4922"/><rect fill="#FFFFFF" height="30" style="stroke:#181818;stroke-width:1.0;" width="10" x="1204" y="441.7891"/><rect fill="#FFFFFF" height="30" style="stroke:#181818;stroke-width:1.0;" width="10" x="1204" y="599.1953"/><rect fill="none" height="501.5703" style="stroke:#000000;stroke-width:1.5;" width="721" x="548.5" y="315.0313"/><rect fill="none" height="236.1094" style="stroke:#000000;stroke-width:1.5;" width="377" x="882.5" y="401.0859"/><line style="stroke:#181818;stroke-width:0.5;stroke-dasharray:5.0,5.0;" x1="250.5" x2="250.5" y1="55.2188" y2="955.0078"/><line style="stroke:#181818;stroke-width:0.5;stroke-dasharray:5.0,5.0;" x1="392.5" x2="392.5" y1="55.2188" y2="955.0078"/><line style="stroke:#181818;stroke-width:0.5;stroke-dasharray:5.0,5.0;" x1="499.5" x2="499.5" y1="55.2188" y2="955.0078"/><line style="stroke:#181818;stroke-width:0.5;stroke-dasharray:5.0,5.0;" x1="626.5" x2="626.5" y1="55.2188" y2="955.0078"/><line style="stroke:#181818;stroke-width:0.5;stroke-dasharray:5.0,5.0;" x1="803.5" x2="803.5" y1="55.2188" y2="955.0078"/><line style="stroke:#181818;stroke-width:0.5;stroke-dasharray:5.0,5.0;" x1="961.5" x2="961.5" y1="55.2188" y2="955.0078"/><line style="stroke:#181818;stroke-width:0.5;stroke-dasharray:5.0,5.0;" x1="1099.5" x2="1099.5" y1="55.2188" y2="955.0078"/><line style="stroke:#181818;stroke-width:0.5;stroke-dasharray:5.0,5.0;" x1="1208.5" x2="1208.5" y1="55.2188" y2="955.0078"/><rect fill="#E3E3E3" height="31.6094" rx="2.5" ry="2.5" style="stroke:#181818;stroke-width:0.5;" width="167" x="167.5" y="22.6094"/><text fill="#000000" font-family="sans-serif" font-size="14" lengthAdjust="spacing" textLength="153" x="174.5" y="44.1426">:AcceptOrdersController</text><rect fill="#E3E3E3" height="31.6094" rx="2.5" ry="2.5" style="stroke:#181818;stroke-width:0.5;" width="167" x="167.5" y="954.0078"/><text fill="#000000" font-family="sans-serif" font-size="14" lengthAdjust="spacing" textLength="153" x="174.5" y="975.541">:AcceptOrdersController</text><rect fill="#E3E3E3" height="31.6094" rx="2.5" ry="2.5" style="stroke:#181818;stroke-width:0.5;" width="97" x="344.5" y="22.6094"/><text fill="#000000" font-family="sans-serif" font-size="14" lengthAdjust="spacing" textLength="83" x="351.5" y="44.1426">:Repositories</text><rect fill="#E3E3E3" height="31.6094" rx="2.5" ry="2.5" style="stroke:#181818;stroke-width:0.5;" width="97" x="344.5" y="954.0078"/><text fill="#000000" font-family="sans-serif" font-size="14" lengthAdjust="spacing" textLength="83" x="351.5" y="975.541">:Repositories</text><rect fill="#E3E3E3" height="49.2188" rx="2.5" ry="2.5" style="stroke:#181818;stroke-width:0.5;" width="97" x="451.5" y="5"/><text fill="#000000" font-family="sans-serif" font-size="14" lengthAdjust="spacing" textLength="74" x="463" y="26.5332">repositories</text><text fill="#000000" font-family="sans-serif" font-size="14" lengthAdjust="spacing" textLength="83" x="458.5" y="44.1426">:Repositories</text><rect fill="#E3E3E3" height="49.2188" rx="2.5" ry="2.5" style="stroke:#181818;stroke-width:0.5;" width="97" x="451.5" y="954.0078"/><text fill="#000000" font-family="sans-serif" font-size="14" lengthAdjust="spacing" textLength="74" x="463" y="975.541">repositories</text><text fill="#000000" font-family="sans-serif" font-size="14" lengthAdjust="spacing" textLength="83" x="458.5" y="993.1504">:Repositories</text><rect fill="#E3E3E3" height="49.2188" rx="2.5" ry="2.5" style="stroke:#181818;stroke-width:0.5;" width="137" x="558.5" y="5"/><text fill="#000000" font-family="sans-serif" font-size="14" lengthAdjust="spacing" textLength="114" x="570" y="26.5332">agencyRepository</text><text fill="#000000" font-family="sans-serif" font-size="14" lengthAdjust="spacing" textLength="123" x="565.5" y="44.1426">: AgencyRepository</text><rect fill="#E3E3E3" height="49.2188" rx="2.5" ry="2.5" style="stroke:#181818;stroke-width:0.5;" width="137" x="558.5" y="954.0078"/><text fill="#000000" font-family="sans-serif" font-size="14" lengthAdjust="spacing" textLength="114" x="570" y="975.541">agencyRepository</text><text fill="#000000" font-family="sans-serif" font-size="14" lengthAdjust="spacing" textLength="123" x="565.5" y="993.1504">: AgencyRepository</text><rect fill="#E3E3E3" height="49.2188" rx="2.5" ry="2.5" style="stroke:#181818;stroke-width:0.5;" width="69" x="769.5" y="5"/><text fill="#000000" font-family="sans-serif" font-size="14" lengthAdjust="spacing" textLength="46" x="781" y="26.5332">agency</text><text fill="#000000" font-family="sans-serif" font-size="14" lengthAdjust="spacing" textLength="55" x="776.5" y="44.1426">: Agency</text><rect fill="#E3E3E3" height="49.2188" rx="2.5" ry="2.5" style="stroke:#181818;stroke-width:0.5;" width="69" x="769.5" y="954.0078"/><text fill="#000000" font-family="sans-serif" font-size="14" lengthAdjust="spacing" textLength="46" x="781" y="975.541">agency</text><text fill="#000000" font-family="sans-serif" font-size="14" lengthAdjust="spacing" textLength="55" x="776.5" y="993.1504">: Agency</text><rect fill="#E3E3E3" height="49.2188" rx="2.5" ry="2.5" style="stroke:#181818;stroke-width:0.5;" width="139" x="892.5" y="5"/><text fill="#000000" font-family="sans-serif" font-size="14" lengthAdjust="spacing" textLength="116" x="904" y="26.5332">announcementList</text><text fill="#000000" font-family="sans-serif" font-size="14" lengthAdjust="spacing" textLength="125" x="899.5" y="44.1426">: AnnouncementList</text><rect fill="#E3E3E3" height="49.2188" rx="2.5" ry="2.5" style="stroke:#181818;stroke-width:0.5;" width="139" x="892.5" y="954.0078"/><text fill="#000000" font-family="sans-serif" font-size="14" lengthAdjust="spacing" textLength="116" x="904" y="975.541">announcementList</text><text fill="#000000" font-family="sans-serif" font-size="14" lengthAdjust="spacing" textLength="125" x="899.5" y="993.1504">: AnnouncementList</text><rect fill="#E3E3E3" height="49.2188" rx="2.5" ry="2.5" style="stroke:#181818;stroke-width:0.5;" width="117" x="1041.5" y="5"/><text fill="#000000" font-family="sans-serif" font-size="14" lengthAdjust="spacing" textLength="94" x="1053" y="26.5332">announcement</text><text fill="#000000" font-family="sans-serif" font-size="14" lengthAdjust="spacing" textLength="103" x="1048.5" y="44.1426">: Announcement</text><rect fill="#E3E3E3" height="49.2188" rx="2.5" ry="2.5" style="stroke:#181818;stroke-width:0.5;" width="117" x="1041.5" y="954.0078"/><text fill="#000000" font-family="sans-serif" font-size="14" lengthAdjust="spacing" textLength="94" x="1053" y="975.541">announcement</text><text fill="#000000" font-family="sans-serif" font-size="14" lengthAdjust="spacing" textLength="103" x="1048.5" y="993.1504">: Announcement</text><rect fill="#E3E3E3" height="49.2188" rx="2.5" ry="2.5" style="stroke:#181818;stroke-width:0.5;" width="81" x="1168.5" y="5"/><text fill="#000000" font-family="sans-serif" font-size="14" lengthAdjust="spacing" textLength="56" x="1181" y="26.5332">orderList</text><text fill="#000000" font-family="sans-serif" font-size="14" lengthAdjust="spacing" textLength="67" x="1175.5" y="44.1426">: OrderList</text><rect fill="#E3E3E3" height="49.2188" rx="2.5" ry="2.5" style="stroke:#181818;stroke-width:0.5;" width="81" x="1168.5" y="954.0078"/><text fill="#000000" font-family="sans-serif" font-size="14" lengthAdjust="spacing" textLength="56" x="1181" y="975.541">orderList</text><text fill="#000000" font-family="sans-serif" font-size="14" lengthAdjust="spacing" textLength="67" x="1175.5" y="993.1504">: OrderList</text><rect fill="#FFFFFF" height="849.4375" style="stroke:#181818;stroke-width:1.0;" width="10" x="246" y="87.5703"/><rect fill="#FFFFFF" height="30.3516" style="stroke:#181818;stroke-width:1.0;" width="10" x="388" y="117.9219"/><rect fill="#FFFFFF" height="30.3516" style="stroke:#181818;stroke-width:1.0;" width="10" x="495" y="178.625"/><rect fill="#FFFFFF" height="30.3516" style="stroke:#181818;stroke-width:1.0;" width="10" x="622" y="239.3281"/><rect fill="#FFFFFF" height="545.9219" style="stroke:#181818;stroke-width:1.0;" width="10" x="622" y="300.0313"/><rect fill="#FFFFFF" height="41.3516" style="stroke:#181818;stroke-width:1.0;" width="10" x="627" y="735.25"/><rect fill="#FFFFFF" height="341.1641" style="stroke:#181818;stroke-width:1.0;" width="10" x="799" y="355.7344"/><rect fill="#FFFFFF" height="280.4609" style="stroke:#181818;stroke-width:1.0;" width="10" x="957" y="386.0859"/><rect fill="#FFFFFF" height="30.3516" style="stroke:#181818;stroke-width:1.0;" width="10" x="957" y="876.3047"/><rect fill="#FFFFFF" height="30.3516" style="stroke:#181818;stroke-width:1.0;" width="10" x="1095" y="538.4922"/><rect fill="#FFFFFF" height="30" style="stroke:#181818;stroke-width:1.0;" width="10" x="1204" y="441.7891"/><rect fill="#FFFFFF" height="30" style="stroke:#181818;stroke-width:1.0;" width="10" x="1204" y="599.1953"/><polygon fill="#181818" points="234,83.5703,244,87.5703,234,91.5703,238,87.5703" style="stroke:#181818;stroke-width:1.0;"/><line style="stroke:#181818;stroke-width:1.0;" x1="0" x2="240" y1="87.5703" y2="87.5703"/><text fill="#000000" font-family="sans-serif" font-size="13" font-weight="bold" lengthAdjust="spacing" textLength="7" x="7" y="82.7139">1</text><text fill="#000000" font-family="sans-serif" font-size="13" lengthAdjust="spacing" textLength="216" x="18" y="82.7139">getAnnouncementListOfAllAgencies()</text><polygon fill="#181818" points="376,113.9219,386,117.9219,376,121.9219,380,117.9219" style="stroke:#181818;stroke-width:1.0;"/><line style="stroke:#181818;stroke-width:1.0;" x1="256" x2="382" y1="117.9219" y2="117.9219"/><text fill="#000000" font-family="sans-serif" font-size="13" font-weight="bold" lengthAdjust="spacing" textLength="7" x="263" y="113.0654">2</text><text fill="#000000" font-family="sans-serif" font-size="13" lengthAdjust="spacing" textLength="75" x="274" y="113.0654">getInstance()</text><polygon fill="#181818" points="267,144.2734,257,148.2734,267,152.2734,263,148.2734" style="stroke:#181818;stroke-width:1.0;"/><line style="stroke:#181818;stroke-width:1.0;stroke-dasharray:2.0,2.0;" x1="261" x2="392" y1="148.2734" y2="148.2734"/><text fill="#000000" font-family="sans-serif" font-size="13" font-weight="bold" lengthAdjust="spacing" textLength="7" x="273" y="143.417">3</text><text fill="#000000" font-family="sans-serif" font-size="13" lengthAdjust="spacing" textLength="67" x="284" y="143.417">repositories</text><polygon fill="#181818" points="483,174.625,493,178.625,483,182.625,487,178.625" style="stroke:#181818;stroke-width:1.0;"/><line style="stroke:#181818;stroke-width:1.0;" x1="256" x2="489" y1="178.625" y2="178.625"/><text fill="#000000" font-family="sans-serif" font-size="13" font-weight="bold" lengthAdjust="spacing" textLength="7" x="263" y="173.7686">4</text><text fill="#000000" font-family="sans-serif" font-size="13" lengthAdjust="spacing" textLength="132" x="274" y="173.7686">getAgencyRepository()</text><polygon fill="#181818" points="267,204.9766,257,208.9766,267,212.9766,263,208.9766" style="stroke:#181818;stroke-width:1.0;"/><line style="stroke:#181818;stroke-width:1.0;" x1="261" x2="499" y1="208.9766" y2="208.9766"/><text fill="#000000" font-family="sans-serif" font-size="13" font-weight="bold" lengthAdjust="spacing" textLength="7" x="273" y="204.1201">5</text><text fill="#000000" font-family="sans-serif" font-size="13" lengthAdjust="spacing" textLength="104" x="284" y="204.1201">agencyRepository</text><polygon fill="#181818" points="610,235.3281,620,239.3281,610,243.3281,614,239.3281" style="stroke:#181818;stroke-width:1.0;"/><line style="stroke:#181818;stroke-width:1.0;" x1="256" x2="616" y1="239.3281" y2="239.3281"/><text fill="#000000" font-family="sans-serif" font-size="13" font-weight="bold" lengthAdjust="spacing" textLength="7" x="263" y="234.4717">6</text><text fill="#000000" font-family="sans-serif" font-size="13" lengthAdjust="spacing" textLength="101" x="274" y="234.4717">getAgenciesList()</text><polygon fill="#181818" points="267,265.6797,257,269.6797,267,273.6797,263,269.6797" style="stroke:#181818;stroke-width:1.0;"/><line style="stroke:#181818;stroke-width:1.0;stroke-dasharray:2.0,2.0;" x1="261" x2="626" y1="269.6797" y2="269.6797"/><text fill="#000000" font-family="sans-serif" font-size="13" font-weight="bold" lengthAdjust="spacing" textLength="7" x="273" y="264.8232">7</text><text fill="#000000" font-family="sans-serif" font-size="13" lengthAdjust="spacing" textLength="73" x="284" y="264.8232">agenciesList</text><polygon fill="#181818" points="610,296.0313,620,300.0313,610,304.0313,614,300.0313" style="stroke:#181818;stroke-width:1.0;"/><line style="stroke:#181818;stroke-width:1.0;" x1="256" x2="616" y1="300.0313" y2="300.0313"/><text fill="#000000" font-family="sans-serif" font-size="13" font-weight="bold" lengthAdjust="spacing" textLength="7" x="263" y="295.1748">8</text><text fill="#000000" font-family="sans-serif" font-size="13" lengthAdjust="spacing" textLength="233" x="274" y="295.1748">getAnnouncementListFromAllAgencies()</text><path d="M548.5,315.0313 L621.5,315.0313 L621.5,323.3828 L611.5,333.3828 L548.5,333.3828 L548.5,315.0313 " fill="#EEEEEE" style="stroke:#000000;stroke-width:1.5;"/><rect fill="none" height="501.5703" style="stroke:#000000;stroke-width:1.5;" width="721" x="548.5" y="315.0313"/><text fill="#000000" font-family="sans-serif" font-size="13" font-weight="bold" lengthAdjust="spacing" textLength="28" x="563.5" y="329.5264">loop</text><text fill="#000000" font-family="sans-serif" font-size="11" font-weight="bold" lengthAdjust="spacing" textLength="95" x="636.5" y="328.4502">[for each agency]</text><polygon fill="#181818" points="787,351.7344,797,355.7344,787,359.7344,791,355.7344" style="stroke:#181818;stroke-width:1.0;"/><line style="stroke:#181818;stroke-width:1.0;" x1="632" x2="793" y1="355.7344" y2="355.7344"/><text fill="#000000" font-family="sans-serif" font-size="13" font-weight="bold" lengthAdjust="spacing" textLength="7" x="639" y="350.8779">9</text><text fill="#000000" font-family="sans-serif" font-size="13" lengthAdjust="spacing" textLength="134" x="650" y="350.8779">getAnnouncementList()</text><polygon fill="#181818" points="945,382.0859,955,386.0859,945,390.0859,949,386.0859" style="stroke:#181818;stroke-width:1.0;"/><line style="stroke:#181818;stroke-width:1.0;" x1="809" x2="951" y1="386.0859" y2="386.0859"/><text fill="#000000" font-family="sans-serif" font-size="13" font-weight="bold" lengthAdjust="spacing" textLength="14" x="816" y="381.2295">10</text><text fill="#000000" font-family="sans-serif" font-size="13" lengthAdjust="spacing" textLength="47" x="834" y="381.2295">getList()</text><path d="M882.5,401.0859 L955.5,401.0859 L955.5,409.4375 L945.5,419.4375 L882.5,419.4375 L882.5,401.0859 " fill="#EEEEEE" style="stroke:#000000;stroke-width:1.5;"/><rect fill="none" height="236.1094" style="stroke:#000000;stroke-width:1.5;" width="377" x="882.5" y="401.0859"/><text fill="#000000" font-family="sans-serif" font-size="13" font-weight="bold" lengthAdjust="spacing" textLength="28" x="897.5" y="415.5811">loop</text><text fill="#000000" font-family="sans-serif" font-size="11" font-weight="bold" lengthAdjust="spacing" textLength="139" x="970.5" y="414.5049">[for each announcement]</text><polygon fill="#181818" points="1192,437.7891,1202,441.7891,1192,445.7891,1196,441.7891" style="stroke:#181818;stroke-width:1.0;"/><line style="stroke:#181818;stroke-width:1.0;" x1="967" x2="1198" y1="441.7891" y2="441.7891"/><text fill="#000000" font-family="sans-serif" font-size="13" font-weight="bold" lengthAdjust="spacing" textLength="14" x="974" y="436.9326">11</text><text fill="#000000" font-family="sans-serif" font-size="13" lengthAdjust="spacing" textLength="200" x="992" y="436.9326">sortOrdersByPrice(announcement)</text><path d="M972,484.7891 L972,510.7891 L1012,510.7891 L1012,494.7891 L1002,484.7891 L972,484.7891 " fill="#FAFAFA" style="stroke:#181818;stroke-width:0.5;"/><path d="M1002,484.7891 L1002,494.7891 L1012,494.7891 L1002,484.7891 " fill="#FAFAFA" style="stroke:#181818;stroke-width:0.5;"/><text fill="#000000" font-family="sans-serif" font-size="13" font-weight="bold" lengthAdjust="spacing" textLength="19" x="978" y="503.2842">OU</text><polygon fill="#181818" points="1083,534.4922,1093,538.4922,1083,542.4922,1087,538.4922" style="stroke:#181818;stroke-width:1.0;"/><line style="stroke:#181818;stroke-width:1.0;" x1="967" x2="1089" y1="538.4922" y2="538.4922"/><text fill="#000000" font-family="sans-serif" font-size="13" font-weight="bold" lengthAdjust="spacing" textLength="14" x="974" y="533.6357">12</text><text fill="#000000" font-family="sans-serif" font-size="13" lengthAdjust="spacing" textLength="79" x="992" y="533.6357">getOrderList()</text><polygon fill="#181818" points="978,564.8438,968,568.8438,978,572.8438,974,568.8438" style="stroke:#181818;stroke-width:1.0;"/><line style="stroke:#181818;stroke-width:1.0;stroke-dasharray:2.0,2.0;" x1="972" x2="1099" y1="568.8438" y2="568.8438"/><text fill="#000000" font-family="sans-serif" font-size="13" font-weight="bold" lengthAdjust="spacing" textLength="14" x="984" y="563.9873">13</text><text fill="#000000" font-family="sans-serif" font-size="13" lengthAdjust="spacing" textLength="50" x="1002" y="563.9873">orderList</text><polygon fill="#181818" points="1192,595.1953,1202,599.1953,1192,603.1953,1196,599.1953" style="stroke:#181818;stroke-width:1.0;"/><line style="stroke:#181818;stroke-width:1.0;" x1="967" x2="1198" y1="599.1953" y2="599.1953"/><text fill="#000000" font-family="sans-serif" font-size="13" font-weight="bold" lengthAdjust="spacing" textLength="14" x="974" y="594.3389">14</text><text fill="#000000" font-family="sans-serif" font-size="13" lengthAdjust="spacing" textLength="115" x="992" y="594.3389">sortOrdersByPrice()</text><polygon fill="#181818" points="820,662.5469,810,666.5469,820,670.5469,816,666.5469" style="stroke:#181818;stroke-width:1.0;"/><line style="stroke:#181818;stroke-width:1.0;stroke-dasharray:2.0,2.0;" x1="814" x2="961" y1="666.5469" y2="666.5469"/><text fill="#000000" font-family="sans-serif" font-size="13" font-weight="bold" lengthAdjust="spacing" textLength="14" x="826" y="661.6904">15</text><text fill="#000000" font-family="sans-serif" font-size="13" lengthAdjust="spacing" textLength="106" x="844" y="661.6904">announcementList</text><polygon fill="#181818" points="643,692.8984,633,696.8984,643,700.8984,639,696.8984" style="stroke:#181818;stroke-width:1.0;"/><line style="stroke:#181818;stroke-width:1.0;stroke-dasharray:2.0,2.0;" x1="637" x2="803" y1="696.8984" y2="696.8984"/><text fill="#000000" font-family="sans-serif" font-size="13" font-weight="bold" lengthAdjust="spacing" textLength="14" x="649" y="692.042">16</text><text fill="#000000" font-family="sans-serif" font-size="13" lengthAdjust="spacing" textLength="106" x="667" y="692.042">announcementList</text><line style="stroke:#181818;stroke-width:1.0;" x1="632" x2="679" y1="722.25" y2="722.25"/><line style="stroke:#181818;stroke-width:1.0;" x1="679" x2="679" y1="722.25" y2="735.25"/><line style="stroke:#181818;stroke-width:1.0;" x1="638" x2="679" y1="735.25" y2="735.25"/><polygon fill="#181818" points="648,731.25,638,735.25,648,739.25,644,735.25" style="stroke:#181818;stroke-width:1.0;"/><text fill="#000000" font-family="sans-serif" font-size="13" font-weight="bold" lengthAdjust="spacing" textLength="14" x="644" y="717.3936">17</text><text fill="#000000" font-family="sans-serif" font-size="13" lengthAdjust="spacing" textLength="135" x="662" y="717.3936">add(announcementList)</text><line style="stroke:#181818;stroke-width:1.0;stroke-dasharray:2.0,2.0;" x1="637" x2="679" y1="775.6016" y2="775.6016"/><line style="stroke:#181818;stroke-width:1.0;stroke-dasharray:2.0,2.0;" x1="679" x2="679" y1="775.6016" y2="788.6016"/><line style="stroke:#181818;stroke-width:1.0;stroke-dasharray:2.0,2.0;" x1="632" x2="679" y1="788.6016" y2="788.6016"/><polygon fill="#181818" points="642,784.6016,632,788.6016,642,792.6016,638,788.6016" style="stroke:#181818;stroke-width:1.0;"/><text fill="#000000" font-family="sans-serif" font-size="13" font-weight="bold" lengthAdjust="spacing" textLength="14" x="644" y="770.7451">18</text><text fill="#000000" font-family="sans-serif" font-size="13" lengthAdjust="spacing" textLength="4" x="662" y="770.7451"> </text><polygon fill="#181818" points="267,841.9531,257,845.9531,267,849.9531,263,845.9531" style="stroke:#181818;stroke-width:1.0;"/><line style="stroke:#181818;stroke-width:1.0;stroke-dasharray:2.0,2.0;" x1="261" x2="626" y1="845.9531" y2="845.9531"/><text fill="#000000" font-family="sans-serif" font-size="13" font-weight="bold" lengthAdjust="spacing" textLength="14" x="273" y="841.0967">19</text><text fill="#000000" font-family="sans-serif" font-size="13" lengthAdjust="spacing" textLength="175" x="291" y="841.0967">announcementListAllAgencies</text><polygon fill="#181818" points="945,872.3047,955,876.3047,945,880.3047,949,876.3047" style="stroke:#181818;stroke-width:1.0;"/><line style="stroke:#181818;stroke-width:1.0;" x1="256" x2="951" y1="876.3047" y2="876.3047"/><text fill="#000000" font-family="sans-serif" font-size="13" font-weight="bold" lengthAdjust="spacing" textLength="14" x="263" y="871.4482">20</text><text fill="#000000" font-family="sans-serif" font-size="13" lengthAdjust="spacing" textLength="353" x="281" y="871.4482">sortAnnouncementsByOldest(announcementListAllAgencies)</text><polygon fill="#181818" points="267,902.6563,257,906.6563,267,910.6563,263,906.6563" style="stroke:#181818;stroke-width:1.0;"/><line style="stroke:#181818;stroke-width:1.0;stroke-dasharray:2.0,2.0;" x1="261" x2="961" y1="906.6563" y2="906.6563"/><text fill="#000000" font-family="sans-serif" font-size="13" font-weight="bold" lengthAdjust="spacing" textLength="14" x="273" y="901.7998">21</text><text fill="#000000" font-family="sans-serif" font-size="13" lengthAdjust="spacing" textLength="175" x="291" y="901.7998">announcementListAllAgencies</text><polygon fill="#181818" points="11,933.0078,1,937.0078,11,941.0078,7,937.0078" style="stroke:#181818;stroke-width:1.0;"/><line style="stroke:#181818;stroke-width:1.0;stroke-dasharray:2.0,2.0;" x1="5" x2="250" y1="937.0078" y2="937.0078"/><text fill="#000000" font-family="sans-serif" font-size="13" font-weight="bold" lengthAdjust="spacing" textLength="14" x="17" y="932.1514">22</text><text fill="#000000" font-family="sans-serif" font-size="13" lengthAdjust="spacing" textLength="175" x="35" y="932.1514">announcementListAllAgencies</text><!--SRC=[hLLTQzim57tNhn1zIWF-0s4Kih2LGPXBspqCzgBPYYDgIqPIMWBvyRkIh0_BTbl2z9H8zvnxxgVL2-CzaQJ3dU2YEahHKQpbYI8LNdfIlP26FkbpIx6abIQyQLC3TIIrU6EymGVIAeeGEMd1JzrVAX5OQ5Qndd2DRpRRggAzBcLDfTe9hgLeMoflC55uz_ouHtXi_aXxePWMab5bZSB5-OaP4U0cmyW4yeTF6Hxss-SC0h7nwXof0OQtsPt5RXkuc0L7Y3Ey__Ppzpktv5oSU4KxolMUAMqnsPr3Ssv-lmFFeHvcBpASCCds_ah_noB2FuIAErk03MwepaMLXstRskWWYQjRH2hDNecchcG8mp6_C73Cr0TRpXzSGTjK5E36Fb3C5THQp34LWqgWJCjixMlwCMUGQPe0I6omMQ47WL6XRHXtPs5HGzutpYWHaa0D192sWrn6V49DXYTENQUvIuSfChy3Sk8pHVfmlTUvudw7YH-NTrc9EQqGFJu8YS7bSKX1V1sqtWqJiE3JEnaxSZEJS3aAG-O6mkLjcM0Oc_ZavIPw4oLZG-y3t8Mn08TAo65TVJq_I0ODd5BSZYY2aZXNwNDIf6JmS7QuW7V9cgEEUo0xwtNvQxsUN5DUM_HYNBuCBez1mseXYh1FSZv7KiJ2RB3uAEAudAx9-N_EiycKQOoqsRoKqBiRd2zij11Ovi3thH-ypn9D-Z_Cqi1IrwkSQNOEiecD-yCHpNjtdpP_BfSBMahNU1zDeqksoUUsasyYK_TqLK3voxQcqA7lk9Zigr4zqh9UeNR4zQKehk2mtyX_]--></g></svg>