<?xml version="1.0" encoding="UTF-8" standalone="no"?><svg xmlns="http://www.w3.org/2000/svg" xmlns:xlink="http://www.w3.org/1999/xlink" contentStyleType="text/css" height="1300px" preserveAspectRatio="none" style="width:1299px;height:1300px;background:#FFFFFF;" version="1.1" viewBox="0 0 1299 1300" width="1299px" zoomAndPan="magnify"><defs/><g><rect fill="#FFFFFF" height="1140.5" style="stroke:#181818;stroke-width:1.0;" width="10" x="161" y="87.5703"/><rect fill="#FFFFFF" height="30.3516" style="stroke:#181818;stroke-width:1.0;" width="10" x="373" y="143.2734"/><rect fill="#FFFFFF" height="30.3516" style="stroke:#181818;stroke-width:1.0;" width="10" x="373" y="203.9766"/><rect fill="#FFFFFF" height="30.3516" style="stroke:#181818;stroke-width:1.0;" width="10" x="373" y="264.6797"/><rect fill="#FFFFFF" height="30.3516" style="stroke:#181818;stroke-width:1.0;" width="10" x="373" y="325.3828"/><rect fill="#FFFFFF" height="91.0547" style="stroke:#181818;stroke-width:1.0;" width="10" x="373" y="386.0859"/><rect fill="#FFFFFF" height="30.3516" style="stroke:#181818;stroke-width:1.0;" width="10" x="567" y="416.4375"/><rect fill="#FFFFFF" height="623.0078" style="stroke:#181818;stroke-width:1.0;" width="10" x="820" y="507.4922"/><rect fill="#FFFFFF" height="369.3828" style="stroke:#181818;stroke-width:1.0;" width="10" x="825" y="631.4141"/><rect fill="#FFFFFF" height="30.3516" style="stroke:#181818;stroke-width:1.0;" width="10" x="993" y="666.7656"/><rect fill="#FFFFFF" height="30.3516" style="stroke:#181818;stroke-width:1.0;" width="10" x="993" y="727.4688"/><rect fill="#FFFFFF" height="30.3516" style="stroke:#181818;stroke-width:1.0;" width="10" x="993" y="788.1719"/><rect fill="#FFFFFF" height="30.3516" style="stroke:#181818;stroke-width:1.0;" width="10" x="993" y="848.875"/><rect fill="#FFFFFF" height="30" style="stroke:#181818;stroke-width:1.0;" width="10" x="1092" y="1038.1484"/><rect fill="none" height="1096.1484" style="stroke:#000000;stroke-width:1.5;" width="1219.5" x="73.5" y="102.5703"/><rect fill="none" height="518.4375" style="stroke:#000000;stroke-width:1.5;" width="521.5" x="761.5" y="582.7109"/><line style="stroke:#181818;stroke-width:0.5;stroke-dasharray:5.0,5.0;" x1="165.5" x2="165.5" y1="55.2188" y2="1246.0703"/><line style="stroke:#181818;stroke-width:0.5;stroke-dasharray:5.0,5.0;" x1="377.5" x2="377.5" y1="55.2188" y2="1246.0703"/><line style="stroke:#181818;stroke-width:0.5;stroke-dasharray:5.0,5.0;" x1="483.5" x2="483.5" y1="55.2188" y2="1246.0703"/><line style="stroke:#181818;stroke-width:0.5;stroke-dasharray:5.0,5.0;" x1="571.5" x2="571.5" y1="55.2188" y2="1246.0703"/><line style="stroke:#181818;stroke-width:0.5;stroke-dasharray:5.0,5.0;" x1="691.5" x2="691.5" y1="1178.6094" y2="1246.0703"/><line style="stroke:#181818;stroke-width:0.5;stroke-dasharray:5.0,5.0;" x1="824.5" x2="824.5" y1="55.2188" y2="1246.0703"/><line style="stroke:#181818;stroke-width:0.5;stroke-dasharray:5.0,5.0;" x1="997.5" x2="997.5" y1="55.2188" y2="1246.0703"/><line style="stroke:#181818;stroke-width:0.5;stroke-dasharray:5.0,5.0;" x1="1096.5" x2="1096.5" y1="555.6016" y2="1246.0703"/><line style="stroke:#181818;stroke-width:0.5;stroke-dasharray:5.0,5.0;" x1="1232" x2="1232" y1="952.3359" y2="1246.0703"/><rect fill="#E3E3E3" height="49.2188" rx="2.5" ry="2.5" style="stroke:#181818;stroke-width:0.5;" width="165" x="83.5" y="5"/><text fill="#000000" font-family="sans-serif" font-size="14" lengthAdjust="spacing" textLength="142" x="95" y="26.5332">announcementMapper</text><text fill="#000000" font-family="sans-serif" font-size="14" lengthAdjust="spacing" textLength="151" x="90.5" y="44.1426">: AnnouncementMapper</text><rect fill="#E3E3E3" height="49.2188" rx="2.5" ry="2.5" style="stroke:#181818;stroke-width:0.5;" width="165" x="83.5" y="1245.0703"/><text fill="#000000" font-family="sans-serif" font-size="14" lengthAdjust="spacing" textLength="142" x="95" y="1266.6035">announcementMapper</text><text fill="#000000" font-family="sans-serif" font-size="14" lengthAdjust="spacing" textLength="151" x="90.5" y="1284.2129">: AnnouncementMapper</text><rect fill="#E3E3E3" height="49.2188" rx="2.5" ry="2.5" style="stroke:#181818;stroke-width:0.5;" width="117" x="319.5" y="5"/><text fill="#000000" font-family="sans-serif" font-size="14" lengthAdjust="spacing" textLength="94" x="331" y="26.5332">announcement</text><text fill="#000000" font-family="sans-serif" font-size="14" lengthAdjust="spacing" textLength="103" x="326.5" y="44.1426">: Announcement</text><rect fill="#E3E3E3" height="49.2188" rx="2.5" ry="2.5" style="stroke:#181818;stroke-width:0.5;" width="117" x="319.5" y="1245.0703"/><text fill="#000000" font-family="sans-serif" font-size="14" lengthAdjust="spacing" textLength="94" x="331" y="1266.6035">announcement</text><text fill="#000000" font-family="sans-serif" font-size="14" lengthAdjust="spacing" textLength="103" x="326.5" y="1284.2129">: Announcement</text><rect fill="#E3E3E3" height="49.2188" rx="2.5" ry="2.5" style="stroke:#181818;stroke-width:0.5;" width="75" x="446.5" y="5"/><text fill="#000000" font-family="sans-serif" font-size="14" lengthAdjust="spacing" textLength="48" x="460" y="26.5332">request</text><text fill="#000000" font-family="sans-serif" font-size="14" lengthAdjust="spacing" textLength="61" x="453.5" y="44.1426">: Request</text><rect fill="#E3E3E3" height="49.2188" rx="2.5" ry="2.5" style="stroke:#181818;stroke-width:0.5;" width="75" x="446.5" y="1245.0703"/><text fill="#000000" font-family="sans-serif" font-size="14" lengthAdjust="spacing" textLength="48" x="460" y="1266.6035">request</text><text fill="#000000" font-family="sans-serif" font-size="14" lengthAdjust="spacing" textLength="61" x="453.5" y="1284.2129">: Request</text><rect fill="#E3E3E3" height="49.2188" rx="2.5" ry="2.5" style="stroke:#181818;stroke-width:0.5;" width="81" x="531.5" y="5"/><text fill="#000000" font-family="sans-serif" font-size="14" lengthAdjust="spacing" textLength="56" x="544" y="26.5332">orderList</text><text fill="#000000" font-family="sans-serif" font-size="14" lengthAdjust="spacing" textLength="67" x="538.5" y="44.1426">: OrderList</text><rect fill="#E3E3E3" height="49.2188" rx="2.5" ry="2.5" style="stroke:#181818;stroke-width:0.5;" width="81" x="531.5" y="1245.0703"/><text fill="#000000" font-family="sans-serif" font-size="14" lengthAdjust="spacing" textLength="56" x="544" y="1266.6035">orderList</text><text fill="#000000" font-family="sans-serif" font-size="14" lengthAdjust="spacing" textLength="67" x="538.5" y="1284.2129">: OrderList</text><rect fill="#E3E3E3" height="49.2188" rx="2.5" ry="2.5" style="stroke:#181818;stroke-width:0.5;" width="139" x="622.5" y="1245.0703"/><text fill="#000000" font-family="sans-serif" font-size="14" lengthAdjust="spacing" textLength="116" x="634" y="1266.6035">announcementDto</text><text fill="#000000" font-family="sans-serif" font-size="14" lengthAdjust="spacing" textLength="125" x="629.5" y="1284.2129">: AnnouncementDto</text><rect fill="#E3E3E3" height="49.2188" rx="2.5" ry="2.5" style="stroke:#181818;stroke-width:0.5;" width="107" x="771.5" y="5"/><text fill="#000000" font-family="sans-serif" font-size="14" lengthAdjust="spacing" textLength="82" x="784" y="26.5332">orderMapper</text><text fill="#000000" font-family="sans-serif" font-size="14" lengthAdjust="spacing" textLength="93" x="778.5" y="44.1426">: OrderMapper</text><rect fill="#E3E3E3" height="49.2188" rx="2.5" ry="2.5" style="stroke:#181818;stroke-width:0.5;" width="107" x="771.5" y="1245.0703"/><text fill="#000000" font-family="sans-serif" font-size="14" lengthAdjust="spacing" textLength="82" x="784" y="1266.6035">orderMapper</text><text fill="#000000" font-family="sans-serif" font-size="14" lengthAdjust="spacing" textLength="93" x="778.5" y="1284.2129">: OrderMapper</text><rect fill="#E3E3E3" height="49.2188" rx="2.5" ry="2.5" style="stroke:#181818;stroke-width:0.5;" width="59" x="968.5" y="5"/><text fill="#000000" font-family="sans-serif" font-size="14" lengthAdjust="spacing" textLength="34" x="981" y="26.5332">order</text><text fill="#000000" font-family="sans-serif" font-size="14" lengthAdjust="spacing" textLength="45" x="975.5" y="44.1426">: Order</text><rect fill="#E3E3E3" height="49.2188" rx="2.5" ry="2.5" style="stroke:#181818;stroke-width:0.5;" width="59" x="968.5" y="1245.0703"/><text fill="#000000" font-family="sans-serif" font-size="14" lengthAdjust="spacing" textLength="34" x="981" y="1266.6035">order</text><text fill="#000000" font-family="sans-serif" font-size="14" lengthAdjust="spacing" textLength="45" x="975.5" y="1284.2129">: Order</text><rect fill="#E3E3E3" height="49.2188" rx="2.5" ry="2.5" style="stroke:#181818;stroke-width:0.5;" width="119" x="1037.5" y="1245.0703"/><text fill="#000000" font-family="sans-serif" font-size="14" lengthAdjust="spacing" textLength="83" x="1055.5" y="1266.6035">listOrdersDto</text><text fill="#000000" font-family="sans-serif" font-size="14" lengthAdjust="spacing" textLength="105" x="1044.5" y="1284.2129">: List&lt;OrderDto&gt;</text><rect fill="#E3E3E3" height="49.2188" rx="2.5" ry="2.5" style="stroke:#181818;stroke-width:0.5;" width="81" x="1192" y="1245.0703"/><text fill="#000000" font-family="sans-serif" font-size="14" lengthAdjust="spacing" textLength="56" x="1204.5" y="1266.6035">orderDto</text><text fill="#000000" font-family="sans-serif" font-size="14" lengthAdjust="spacing" textLength="67" x="1199" y="1284.2129">: OrderDto</text><rect fill="#FFFFFF" height="1140.5" style="stroke:#181818;stroke-width:1.0;" width="10" x="161" y="87.5703"/><rect fill="#FFFFFF" height="30.3516" style="stroke:#181818;stroke-width:1.0;" width="10" x="373" y="143.2734"/><rect fill="#FFFFFF" height="30.3516" style="stroke:#181818;stroke-width:1.0;" width="10" x="373" y="203.9766"/><rect fill="#FFFFFF" height="30.3516" style="stroke:#181818;stroke-width:1.0;" width="10" x="373" y="264.6797"/><rect fill="#FFFFFF" height="30.3516" style="stroke:#181818;stroke-width:1.0;" width="10" x="373" y="325.3828"/><rect fill="#FFFFFF" height="91.0547" style="stroke:#181818;stroke-width:1.0;" width="10" x="373" y="386.0859"/><rect fill="#FFFFFF" height="30.3516" style="stroke:#181818;stroke-width:1.0;" width="10" x="567" y="416.4375"/><rect fill="#FFFFFF" height="623.0078" style="stroke:#181818;stroke-width:1.0;" width="10" x="820" y="507.4922"/><rect fill="#FFFFFF" height="369.3828" style="stroke:#181818;stroke-width:1.0;" width="10" x="825" y="631.4141"/><rect fill="#FFFFFF" height="30.3516" style="stroke:#181818;stroke-width:1.0;" width="10" x="993" y="666.7656"/><rect fill="#FFFFFF" height="30.3516" style="stroke:#181818;stroke-width:1.0;" width="10" x="993" y="727.4688"/><rect fill="#FFFFFF" height="30.3516" style="stroke:#181818;stroke-width:1.0;" width="10" x="993" y="788.1719"/><rect fill="#FFFFFF" height="30.3516" style="stroke:#181818;stroke-width:1.0;" width="10" x="993" y="848.875"/><rect fill="#FFFFFF" height="30" style="stroke:#181818;stroke-width:1.0;" width="10" x="1092" y="1038.1484"/><polygon fill="#181818" points="149,83.5703,159,87.5703,149,91.5703,153,87.5703" style="stroke:#181818;stroke-width:1.0;"/><line style="stroke:#181818;stroke-width:1.0;" x1="0" x2="155" y1="87.5703" y2="87.5703"/><text fill="#000000" font-family="sans-serif" font-size="13" font-weight="bold" lengthAdjust="spacing" textLength="14" x="7" y="82.7139">18</text><text fill="#000000" font-family="sans-serif" font-size="13" lengthAdjust="spacing" textLength="124" x="25" y="82.7139">toDto(announcement)</text><path d="M73.5,102.5703 L281.5,102.5703 L281.5,110.9219 L271.5,120.9219 L73.5,120.9219 L73.5,102.5703 " fill="#EEEEEE" style="stroke:#000000;stroke-width:1.5;"/><rect fill="none" height="1096.1484" style="stroke:#000000;stroke-width:1.5;" width="1219.5" x="73.5" y="102.5703"/><text fill="#000000" font-family="sans-serif" font-size="13" font-weight="bold" lengthAdjust="spacing" textLength="163" x="88.5" y="117.0654">Create AnnouncementDto</text><polygon fill="#181818" points="361,139.2734,371,143.2734,361,147.2734,365,143.2734" style="stroke:#181818;stroke-width:1.0;"/><line style="stroke:#181818;stroke-width:1.0;" x1="171" x2="367" y1="143.2734" y2="143.2734"/><text fill="#000000" font-family="sans-serif" font-size="13" font-weight="bold" lengthAdjust="spacing" textLength="25" x="178" y="138.417">18.1</text><text fill="#000000" font-family="sans-serif" font-size="13" lengthAdjust="spacing" textLength="130" x="207" y="138.417">getRequestAttributes()</text><polygon fill="#181818" points="182,169.625,172,173.625,182,177.625,178,173.625" style="stroke:#181818;stroke-width:1.0;"/><line style="stroke:#181818;stroke-width:1.0;stroke-dasharray:2.0,2.0;" x1="176" x2="377" y1="173.625" y2="173.625"/><text fill="#000000" font-family="sans-serif" font-size="13" font-weight="bold" lengthAdjust="spacing" textLength="25" x="188" y="168.7686">18.2</text><text fill="#000000" font-family="sans-serif" font-size="13" lengthAdjust="spacing" textLength="99" x="217" y="168.7686">requestAttributes</text><polygon fill="#181818" points="361,199.9766,371,203.9766,361,207.9766,365,203.9766" style="stroke:#181818;stroke-width:1.0;"/><line style="stroke:#181818;stroke-width:1.0;" x1="171" x2="367" y1="203.9766" y2="203.9766"/><text fill="#000000" font-family="sans-serif" font-size="13" font-weight="bold" lengthAdjust="spacing" textLength="25" x="178" y="199.1201">18.3</text><text fill="#000000" font-family="sans-serif" font-size="13" lengthAdjust="spacing" textLength="154" x="207" y="199.1201">getCommissionAttributes()</text><polygon fill="#181818" points="182,230.3281,172,234.3281,182,238.3281,178,234.3281" style="stroke:#181818;stroke-width:1.0;"/><line style="stroke:#181818;stroke-width:1.0;stroke-dasharray:2.0,2.0;" x1="176" x2="377" y1="234.3281" y2="234.3281"/><text fill="#000000" font-family="sans-serif" font-size="13" font-weight="bold" lengthAdjust="spacing" textLength="25" x="188" y="229.4717">18.4</text><text fill="#000000" font-family="sans-serif" font-size="13" lengthAdjust="spacing" textLength="126" x="217" y="229.4717">commissionAttributes</text><polygon fill="#181818" points="361,260.6797,371,264.6797,361,268.6797,365,264.6797" style="stroke:#181818;stroke-width:1.0;"/><line style="stroke:#181818;stroke-width:1.0;" x1="171" x2="367" y1="264.6797" y2="264.6797"/><text fill="#000000" font-family="sans-serif" font-size="13" font-weight="bold" lengthAdjust="spacing" textLength="25" x="178" y="259.8232">18.5</text><text fill="#000000" font-family="sans-serif" font-size="13" lengthAdjust="spacing" textLength="36" x="207" y="259.8232">getId()</text><polygon fill="#181818" points="182,291.0313,172,295.0313,182,299.0313,178,295.0313" style="stroke:#181818;stroke-width:1.0;"/><line style="stroke:#181818;stroke-width:1.0;stroke-dasharray:2.0,2.0;" x1="176" x2="377" y1="295.0313" y2="295.0313"/><text fill="#000000" font-family="sans-serif" font-size="13" font-weight="bold" lengthAdjust="spacing" textLength="25" x="188" y="290.1748">18.6</text><text fill="#000000" font-family="sans-serif" font-size="13" lengthAdjust="spacing" textLength="10" x="217" y="290.1748">id</text><polygon fill="#181818" points="361,321.3828,371,325.3828,361,329.3828,365,325.3828" style="stroke:#181818;stroke-width:1.0;"/><line style="stroke:#181818;stroke-width:1.0;" x1="171" x2="367" y1="325.3828" y2="325.3828"/><text fill="#000000" font-family="sans-serif" font-size="13" font-weight="bold" lengthAdjust="spacing" textLength="25" x="178" y="320.5264">18.7</text><text fill="#000000" font-family="sans-serif" font-size="13" lengthAdjust="spacing" textLength="122" x="207" y="320.5264">getAcceptanceDate()</text><polygon fill="#181818" points="182,351.7344,172,355.7344,182,359.7344,178,355.7344" style="stroke:#181818;stroke-width:1.0;"/><line style="stroke:#181818;stroke-width:1.0;stroke-dasharray:2.0,2.0;" x1="176" x2="377" y1="355.7344" y2="355.7344"/><text fill="#000000" font-family="sans-serif" font-size="13" font-weight="bold" lengthAdjust="spacing" textLength="25" x="188" y="350.8779">18.8</text><text fill="#000000" font-family="sans-serif" font-size="13" lengthAdjust="spacing" textLength="94" x="217" y="350.8779">acceptanceDate</text><polygon fill="#181818" points="361,382.0859,371,386.0859,361,390.0859,365,386.0859" style="stroke:#181818;stroke-width:1.0;"/><line style="stroke:#181818;stroke-width:1.0;" x1="171" x2="367" y1="386.0859" y2="386.0859"/><text fill="#000000" font-family="sans-serif" font-size="13" font-weight="bold" lengthAdjust="spacing" textLength="25" x="178" y="381.2295">18.9</text><text fill="#000000" font-family="sans-serif" font-size="13" lengthAdjust="spacing" textLength="86" x="207" y="381.2295">getListOrders()</text><polygon fill="#181818" points="555,412.4375,565,416.4375,555,420.4375,559,416.4375" style="stroke:#181818;stroke-width:1.0;"/><line style="stroke:#181818;stroke-width:1.0;" x1="383" x2="561" y1="416.4375" y2="416.4375"/><text fill="#000000" font-family="sans-serif" font-size="13" font-weight="bold" lengthAdjust="spacing" textLength="32" x="390" y="411.5811">18.10</text><text fill="#000000" font-family="sans-serif" font-size="13" lengthAdjust="spacing" textLength="47" x="426" y="411.5811">getList()</text><polygon fill="#181818" points="394,442.7891,384,446.7891,394,450.7891,390,446.7891" style="stroke:#181818;stroke-width:1.0;"/><line style="stroke:#181818;stroke-width:1.0;stroke-dasharray:2.0,2.0;" x1="388" x2="571" y1="446.7891" y2="446.7891"/><text fill="#000000" font-family="sans-serif" font-size="13" font-weight="bold" lengthAdjust="spacing" textLength="32" x="400" y="441.9326">18.11</text><text fill="#000000" font-family="sans-serif" font-size="13" lengthAdjust="spacing" textLength="56" x="436" y="441.9326">listOrders</text><polygon fill="#181818" points="182,473.1406,172,477.1406,182,481.1406,178,477.1406" style="stroke:#181818;stroke-width:1.0;"/><line style="stroke:#181818;stroke-width:1.0;stroke-dasharray:2.0,2.0;" x1="176" x2="377" y1="477.1406" y2="477.1406"/><text fill="#000000" font-family="sans-serif" font-size="13" font-weight="bold" lengthAdjust="spacing" textLength="32" x="188" y="472.2842">18.12</text><text fill="#000000" font-family="sans-serif" font-size="13" lengthAdjust="spacing" textLength="56" x="224" y="472.2842">listOrders</text><polygon fill="#181818" points="808,503.4922,818,507.4922,808,511.4922,812,507.4922" style="stroke:#181818;stroke-width:1.0;"/><line style="stroke:#181818;stroke-width:1.0;" x1="171" x2="814" y1="507.4922" y2="507.4922"/><text fill="#000000" font-family="sans-serif" font-size="13" font-weight="bold" lengthAdjust="spacing" textLength="32" x="178" y="502.6357">18.13</text><text fill="#000000" font-family="sans-serif" font-size="13" lengthAdjust="spacing" textLength="95" x="214" y="502.6357">toDto(listOrders)</text><polygon fill="#181818" points="1025.5,533.8438,1035.5,537.8438,1025.5,541.8438,1029.5,537.8438" style="stroke:#181818;stroke-width:1.0;"/><line style="stroke:#181818;stroke-width:1.0;" x1="830" x2="1031.5" y1="537.8438" y2="537.8438"/><text fill="#000000" font-family="sans-serif" font-size="13" font-weight="bold" lengthAdjust="spacing" textLength="32" x="837" y="532.9873">18.14</text><text fill="#000000" font-family="sans-serif" font-size="13" lengthAdjust="spacing" textLength="44" x="873" y="532.9873">create()</text><rect fill="#E3E3E3" height="49.2188" rx="2.5" ry="2.5" style="stroke:#181818;stroke-width:0.5;" width="119" x="1037.5" y="515.4922"/><text fill="#000000" font-family="sans-serif" font-size="14" lengthAdjust="spacing" textLength="83" x="1055.5" y="537.0254">listOrdersDto</text><text fill="#000000" font-family="sans-serif" font-size="14" lengthAdjust="spacing" textLength="105" x="1044.5" y="554.6348">: List&lt;OrderDto&gt;</text><path d="M761.5,582.7109 L834.5,582.7109 L834.5,591.0625 L824.5,601.0625 L761.5,601.0625 L761.5,582.7109 " fill="#EEEEEE" style="stroke:#000000;stroke-width:1.5;"/><rect fill="none" height="518.4375" style="stroke:#000000;stroke-width:1.5;" width="521.5" x="761.5" y="582.7109"/><text fill="#000000" font-family="sans-serif" font-size="13" font-weight="bold" lengthAdjust="spacing" textLength="28" x="776.5" y="597.2061">loop</text><text fill="#000000" font-family="sans-serif" font-size="11" font-weight="bold" lengthAdjust="spacing" textLength="87" x="849.5" y="596.1299">[for each order]</text><line style="stroke:#181818;stroke-width:1.0;" x1="830" x2="877" y1="618.4141" y2="618.4141"/><line style="stroke:#181818;stroke-width:1.0;" x1="877" x2="877" y1="618.4141" y2="631.4141"/><line style="stroke:#181818;stroke-width:1.0;" x1="836" x2="877" y1="631.4141" y2="631.4141"/><polygon fill="#181818" points="846,627.4141,836,631.4141,846,635.4141,842,631.4141" style="stroke:#181818;stroke-width:1.0;"/><text fill="#000000" font-family="sans-serif" font-size="13" font-weight="bold" lengthAdjust="spacing" textLength="32" x="842" y="613.5576">18.15</text><text fill="#000000" font-family="sans-serif" font-size="13" lengthAdjust="spacing" textLength="68" x="878" y="613.5576">toDto(order)</text><polygon fill="#181818" points="981,662.7656,991,666.7656,981,670.7656,985,666.7656" style="stroke:#181818;stroke-width:1.0;"/><line style="stroke:#181818;stroke-width:1.0;" x1="835" x2="987" y1="666.7656" y2="666.7656"/><text fill="#000000" font-family="sans-serif" font-size="13" font-weight="bold" lengthAdjust="spacing" textLength="32" x="842" y="661.9092">18.16</text><text fill="#000000" font-family="sans-serif" font-size="13" lengthAdjust="spacing" textLength="103" x="878" y="661.9092">getOrderAmount()</text><polygon fill="#181818" points="846,693.1172,836,697.1172,846,701.1172,842,697.1172" style="stroke:#181818;stroke-width:1.0;"/><line style="stroke:#181818;stroke-width:1.0;stroke-dasharray:2.0,2.0;" x1="840" x2="997" y1="697.1172" y2="697.1172"/><text fill="#000000" font-family="sans-serif" font-size="13" font-weight="bold" lengthAdjust="spacing" textLength="32" x="852" y="692.2607">18.17</text><text fill="#000000" font-family="sans-serif" font-size="13" lengthAdjust="spacing" textLength="74" x="888" y="692.2607">orderAmount</text><polygon fill="#181818" points="981,723.4688,991,727.4688,981,731.4688,985,727.4688" style="stroke:#181818;stroke-width:1.0;"/><line style="stroke:#181818;stroke-width:1.0;" x1="835" x2="987" y1="727.4688" y2="727.4688"/><text fill="#000000" font-family="sans-serif" font-size="13" font-weight="bold" lengthAdjust="spacing" textLength="32" x="842" y="722.6123">18.18</text><text fill="#000000" font-family="sans-serif" font-size="13" lengthAdjust="spacing" textLength="92" x="878" y="722.6123">getClientEmail()</text><polygon fill="#181818" points="846,753.8203,836,757.8203,846,761.8203,842,757.8203" style="stroke:#181818;stroke-width:1.0;"/><line style="stroke:#181818;stroke-width:1.0;stroke-dasharray:2.0,2.0;" x1="840" x2="997" y1="757.8203" y2="757.8203"/><text fill="#000000" font-family="sans-serif" font-size="13" font-weight="bold" lengthAdjust="spacing" textLength="32" x="852" y="752.9639">18.19</text><text fill="#000000" font-family="sans-serif" font-size="13" lengthAdjust="spacing" textLength="74" x="888" y="752.9639">orderAmount</text><polygon fill="#181818" points="981,784.1719,991,788.1719,981,792.1719,985,788.1719" style="stroke:#181818;stroke-width:1.0;"/><line style="stroke:#181818;stroke-width:1.0;" x1="835" x2="987" y1="788.1719" y2="788.1719"/><text fill="#000000" font-family="sans-serif" font-size="13" font-weight="bold" lengthAdjust="spacing" textLength="32" x="842" y="783.3154">18.20</text><text fill="#000000" font-family="sans-serif" font-size="13" lengthAdjust="spacing" textLength="85" x="878" y="783.3154">getOrderDate()</text><polygon fill="#181818" points="846,814.5234,836,818.5234,846,822.5234,842,818.5234" style="stroke:#181818;stroke-width:1.0;"/><line style="stroke:#181818;stroke-width:1.0;stroke-dasharray:2.0,2.0;" x1="840" x2="997" y1="818.5234" y2="818.5234"/><text fill="#000000" font-family="sans-serif" font-size="13" font-weight="bold" lengthAdjust="spacing" textLength="32" x="852" y="813.667">18.21</text><text fill="#000000" font-family="sans-serif" font-size="13" lengthAdjust="spacing" textLength="56" x="888" y="813.667">orderDate</text><polygon fill="#181818" points="981,844.875,991,848.875,981,852.875,985,848.875" style="stroke:#181818;stroke-width:1.0;"/><line style="stroke:#181818;stroke-width:1.0;" x1="835" x2="987" y1="848.875" y2="848.875"/><text fill="#000000" font-family="sans-serif" font-size="13" font-weight="bold" lengthAdjust="spacing" textLength="32" x="842" y="844.0186">18.22</text><text fill="#000000" font-family="sans-serif" font-size="13" lengthAdjust="spacing" textLength="36" x="878" y="844.0186">getId()</text><polygon fill="#181818" points="846,875.2266,836,879.2266,846,883.2266,842,879.2266" style="stroke:#181818;stroke-width:1.0;"/><line style="stroke:#181818;stroke-width:1.0;stroke-dasharray:2.0,2.0;" x1="840" x2="997" y1="879.2266" y2="879.2266"/><text fill="#000000" font-family="sans-serif" font-size="13" font-weight="bold" lengthAdjust="spacing" textLength="32" x="852" y="874.3701">18.23</text><text fill="#000000" font-family="sans-serif" font-size="13" lengthAdjust="spacing" textLength="39" x="888" y="874.3701">orderId</text><polygon fill="#181818" points="1180,930.5781,1190,934.5781,1180,938.5781,1184,934.5781" style="stroke:#181818;stroke-width:1.0;"/><line style="stroke:#181818;stroke-width:1.0;" x1="835" x2="1186" y1="934.5781" y2="934.5781"/><text fill="#000000" font-family="sans-serif" font-size="13" font-weight="bold" lengthAdjust="spacing" textLength="32" x="842" y="929.7217">18.24</text><text fill="#000000" font-family="sans-serif" font-size="13" lengthAdjust="spacing" textLength="297" x="878" y="929.7217">create(orderAmount, orderDate, clientEmail,orderId)</text><rect fill="#E3E3E3" height="49.2188" rx="2.5" ry="2.5" style="stroke:#181818;stroke-width:0.5;" width="81" x="1192" y="912.2266"/><text fill="#000000" font-family="sans-serif" font-size="14" lengthAdjust="spacing" textLength="56" x="1204.5" y="933.7598">orderDto</text><text fill="#000000" font-family="sans-serif" font-size="14" lengthAdjust="spacing" textLength="67" x="1199" y="951.3691">: OrderDto</text><line style="stroke:#181818;stroke-width:1.0;stroke-dasharray:2.0,2.0;" x1="835" x2="877" y1="999.7969" y2="999.7969"/><line style="stroke:#181818;stroke-width:1.0;stroke-dasharray:2.0,2.0;" x1="877" x2="877" y1="999.7969" y2="1012.7969"/><line style="stroke:#181818;stroke-width:1.0;stroke-dasharray:2.0,2.0;" x1="830" x2="877" y1="1012.7969" y2="1012.7969"/><polygon fill="#181818" points="840,1008.7969,830,1012.7969,840,1016.7969,836,1012.7969" style="stroke:#181818;stroke-width:1.0;"/><text fill="#000000" font-family="sans-serif" font-size="13" font-weight="bold" lengthAdjust="spacing" textLength="32" x="842" y="994.9404">18.25</text><text fill="#000000" font-family="sans-serif" font-size="13" lengthAdjust="spacing" textLength="49" x="878" y="994.9404">orderDto</text><polygon fill="#181818" points="1080,1034.1484,1090,1038.1484,1080,1042.1484,1084,1038.1484" style="stroke:#181818;stroke-width:1.0;"/><line style="stroke:#181818;stroke-width:1.0;" x1="830" x2="1086" y1="1038.1484" y2="1038.1484"/><text fill="#000000" font-family="sans-serif" font-size="13" font-weight="bold" lengthAdjust="spacing" textLength="32" x="837" y="1033.292">18.26</text><text fill="#000000" font-family="sans-serif" font-size="13" lengthAdjust="spacing" textLength="78" x="873" y="1033.292">add(orderDto)</text><polygon fill="#181818" points="182,1126.5,172,1130.5,182,1134.5,178,1130.5" style="stroke:#181818;stroke-width:1.0;"/><line style="stroke:#181818;stroke-width:1.0;stroke-dasharray:2.0,2.0;" x1="176" x2="824" y1="1130.5" y2="1130.5"/><text fill="#000000" font-family="sans-serif" font-size="13" font-weight="bold" lengthAdjust="spacing" textLength="32" x="188" y="1125.6436">18.27</text><text fill="#000000" font-family="sans-serif" font-size="13" lengthAdjust="spacing" textLength="76" x="224" y="1125.6436">listOrdersDto</text><polygon fill="#181818" points="610.5,1173.2031,620.5,1177.2031,610.5,1181.2031,614.5,1177.2031" style="stroke:#181818;stroke-width:1.0;"/><line style="stroke:#181818;stroke-width:1.0;" x1="171" x2="616.5" y1="1177.2031" y2="1177.2031"/><text fill="#000000" font-family="sans-serif" font-size="13" font-weight="bold" lengthAdjust="spacing" textLength="32" x="178" y="1164.1709">18.28</text><text fill="#000000" font-family="sans-serif" font-size="13" lengthAdjust="spacing" textLength="227" x="214" y="1155.9951">create(requestAttributes, listOrdersDto,</text><text fill="#000000" font-family="sans-serif" font-size="13" lengthAdjust="spacing" textLength="250" x="218" y="1172.3467">commissionAttributes, acceptanceDate, id)</text><rect fill="#E3E3E3" height="49.2188" rx="2.5" ry="2.5" style="stroke:#181818;stroke-width:0.5;" width="139" x="622.5" y="1138.5"/><text fill="#000000" font-family="sans-serif" font-size="14" lengthAdjust="spacing" textLength="116" x="634" y="1160.0332">announcementDto</text><text fill="#000000" font-family="sans-serif" font-size="14" lengthAdjust="spacing" textLength="125" x="629.5" y="1177.6426">: AnnouncementDto</text><polygon fill="#181818" points="11,1224.0703,1,1228.0703,11,1232.0703,7,1228.0703" style="stroke:#181818;stroke-width:1.0;"/><line style="stroke:#181818;stroke-width:1.0;stroke-dasharray:2.0,2.0;" x1="5" x2="165" y1="1228.0703" y2="1228.0703"/><text fill="#000000" font-family="sans-serif" font-size="13" font-weight="bold" lengthAdjust="spacing" textLength="14" x="17" y="1223.2139">19</text><text fill="#000000" font-family="sans-serif" font-size="13" lengthAdjust="spacing" textLength="105" x="35" y="1223.2139">announcementDto</text><!--SRC=[rLPDRwCm4BtpAwoUqefKwcqtgY95IG-LMgNgxh4NrqmJgs1JOtQrKdxy6cFm1wQXcroMap4pRzxCcEUftYahiS05AZZZP2zu0KYA6fAg_r9Yyevty4F-oG4981ApNUuQL7kSyT-KxT0RpYj8rAC-I4feYPb45vWnNZC21J3vYCiIn0jReDLWzmBXgjb-N3qztJsFOuJUdP_UyDq4VDHGQO_dTgcDpTgtvI83yK1Rwsttektxjt5I6yb3NcghexRvkOq4iyNOsbSRi7sF-FKUrjQtoXLLlLqPMWttMxsZDfRMJV4QfiMDNH-cIwHpKGt6jUIiBbv1e9jl2UgU-T8s42sGvCfrvfRfqjfY8kalBC5fkOTwVPFi1AzBj1PWpDpI9XR9XcpZQxC5se4qZLv9AUXhBQ6QZH1epuwBg7VGFCX8X83M9uCXu1IEQruKjAeeP-UZIIAO9p55ckfzTYencfrUi1KXK2eL8h1HlgSomXxQYUmQUW_zp_TbQakhD6t1crKKnIgI_MXzvtxdh1n4qxDOnwjr1EfOfHnTw-N1GeucQfGmyJ8rC1sgaRAhg-RuQyLm2sUUdFCIlN615EKzqa8ti8c11vIrun0zIXh5dbYCjkDwkIfK5MM4VoJC9m5qztp-tCB77SDpaNmrWNLEbK3V5PZc_sS2xMcAdv_pqFU5vgpaVON-9zO1QSFvFfl8E6frE1ocPwB-PFSlTZgUslgbYDY3bXgAbnE2HBDhveb9wOLAD2KP8-SuosPTi4azweQpISJ6Z6EL1vPf9Gpl3gT4lMgxakzLwMXbmYjIjxNlwc2GIlr0wGkBJZ5fS66dQgHmgjcafgT6VqJzRdZTpkV-vH_Cb97xp8ocVm40]--></g></svg>