<?xml version="1.0" encoding="UTF-8" standalone="no"?><svg xmlns="http://www.w3.org/2000/svg" xmlns:xlink="http://www.w3.org/1999/xlink" contentStyleType="text/css" height="1179px" preserveAspectRatio="none" style="width:1300px;height:1179px;background:#FFFFFF;" version="1.1" viewBox="0 0 1300 1179" width="1300px" zoomAndPan="magnify"><defs/><g><rect fill="#FFFFFF" height="1019.9297" style="stroke:#181818;stroke-width:1.0;" width="10" x="167" y="87.5703"/><rect fill="#FFFFFF" height="30.3516" style="stroke:#181818;stroke-width:1.0;" width="10" x="379" y="143.2734"/><rect fill="#FFFFFF" height="30.3516" style="stroke:#181818;stroke-width:1.0;" width="10" x="379" y="203.9766"/><rect fill="#FFFFFF" height="30.3516" style="stroke:#181818;stroke-width:1.0;" width="10" x="379" y="264.6797"/><rect fill="#FFFFFF" height="30.3516" style="stroke:#181818;stroke-width:1.0;" width="10" x="379" y="325.3828"/><rect fill="#FFFFFF" height="91.0547" style="stroke:#181818;stroke-width:1.0;" width="10" x="379" y="386.0859"/><rect fill="#FFFFFF" height="30.3516" style="stroke:#181818;stroke-width:1.0;" width="10" x="573" y="416.4375"/><rect fill="#FFFFFF" height="502.4375" style="stroke:#181818;stroke-width:1.0;" width="10" x="826" y="507.4922"/><rect fill="#FFFFFF" height="41.3516" style="stroke:#181818;stroke-width:1.0;" width="10" x="831" y="899.2266"/><rect fill="#FFFFFF" height="30.3516" style="stroke:#181818;stroke-width:1.0;" width="10" x="994" y="563.1953"/><rect fill="#FFFFFF" height="30.3516" style="stroke:#181818;stroke-width:1.0;" width="10" x="994" y="623.8984"/><rect fill="#FFFFFF" height="30.3516" style="stroke:#181818;stroke-width:1.0;" width="10" x="994" y="684.6016"/><rect fill="#FFFFFF" height="30.3516" style="stroke:#181818;stroke-width:1.0;" width="10" x="994" y="745.3047"/><rect fill="none" height="975.5781" style="stroke:#000000;stroke-width:1.5;" width="1214.5" x="79.5" y="102.5703"/><rect fill="none" height="458.0859" style="stroke:#000000;stroke-width:1.5;" width="516.5" x="767.5" y="522.4922"/><line style="stroke:#181818;stroke-width:0.5;stroke-dasharray:5.0,5.0;" x1="171.5" x2="171.5" y1="55.2188" y2="1125.5"/><line style="stroke:#181818;stroke-width:0.5;stroke-dasharray:5.0,5.0;" x1="383.5" x2="383.5" y1="55.2188" y2="1125.5"/><line style="stroke:#181818;stroke-width:0.5;stroke-dasharray:5.0,5.0;" x1="489.5" x2="489.5" y1="55.2188" y2="1125.5"/><line style="stroke:#181818;stroke-width:0.5;stroke-dasharray:5.0,5.0;" x1="577.5" x2="577.5" y1="55.2188" y2="1125.5"/><line style="stroke:#181818;stroke-width:0.5;stroke-dasharray:5.0,5.0;" x1="697.5" x2="697.5" y1="1058.0391" y2="1125.5"/><line style="stroke:#181818;stroke-width:0.5;stroke-dasharray:5.0,5.0;" x1="830.5" x2="830.5" y1="55.2188" y2="1125.5"/><line style="stroke:#181818;stroke-width:0.5;stroke-dasharray:5.0,5.0;" x1="998.5" x2="998.5" y1="55.2188" y2="1125.5"/><line style="stroke:#181818;stroke-width:0.5;stroke-dasharray:5.0,5.0;" x1="1233" x2="1233" y1="848.7656" y2="1125.5"/><rect fill="#E3E3E3" height="49.2188" rx="2.5" ry="2.5" style="stroke:#181818;stroke-width:0.5;" width="165" x="89.5" y="5"/><text fill="#000000" font-family="sans-serif" font-size="14" lengthAdjust="spacing" textLength="142" x="101" y="26.5332">announcementMapper</text><text fill="#000000" font-family="sans-serif" font-size="14" lengthAdjust="spacing" textLength="151" x="96.5" y="44.1426">: AnnouncementMapper</text><rect fill="#E3E3E3" height="49.2188" rx="2.5" ry="2.5" style="stroke:#181818;stroke-width:0.5;" width="165" x="89.5" y="1124.5"/><text fill="#000000" font-family="sans-serif" font-size="14" lengthAdjust="spacing" textLength="142" x="101" y="1146.0332">announcementMapper</text><text fill="#000000" font-family="sans-serif" font-size="14" lengthAdjust="spacing" textLength="151" x="96.5" y="1163.6426">: AnnouncementMapper</text><rect fill="#E3E3E3" height="49.2188" rx="2.5" ry="2.5" style="stroke:#181818;stroke-width:0.5;" width="117" x="325.5" y="5"/><text fill="#000000" font-family="sans-serif" font-size="14" lengthAdjust="spacing" textLength="94" x="337" y="26.5332">announcement</text><text fill="#000000" font-family="sans-serif" font-size="14" lengthAdjust="spacing" textLength="103" x="332.5" y="44.1426">: Announcement</text><rect fill="#E3E3E3" height="49.2188" rx="2.5" ry="2.5" style="stroke:#181818;stroke-width:0.5;" width="117" x="325.5" y="1124.5"/><text fill="#000000" font-family="sans-serif" font-size="14" lengthAdjust="spacing" textLength="94" x="337" y="1146.0332">announcement</text><text fill="#000000" font-family="sans-serif" font-size="14" lengthAdjust="spacing" textLength="103" x="332.5" y="1163.6426">: Announcement</text><rect fill="#E3E3E3" height="49.2188" rx="2.5" ry="2.5" style="stroke:#181818;stroke-width:0.5;" width="75" x="452.5" y="5"/><text fill="#000000" font-family="sans-serif" font-size="14" lengthAdjust="spacing" textLength="48" x="466" y="26.5332">request</text><text fill="#000000" font-family="sans-serif" font-size="14" lengthAdjust="spacing" textLength="61" x="459.5" y="44.1426">: Request</text><rect fill="#E3E3E3" height="49.2188" rx="2.5" ry="2.5" style="stroke:#181818;stroke-width:0.5;" width="75" x="452.5" y="1124.5"/><text fill="#000000" font-family="sans-serif" font-size="14" lengthAdjust="spacing" textLength="48" x="466" y="1146.0332">request</text><text fill="#000000" font-family="sans-serif" font-size="14" lengthAdjust="spacing" textLength="61" x="459.5" y="1163.6426">: Request</text><rect fill="#E3E3E3" height="49.2188" rx="2.5" ry="2.5" style="stroke:#181818;stroke-width:0.5;" width="81" x="537.5" y="5"/><text fill="#000000" font-family="sans-serif" font-size="14" lengthAdjust="spacing" textLength="56" x="550" y="26.5332">orderList</text><text fill="#000000" font-family="sans-serif" font-size="14" lengthAdjust="spacing" textLength="67" x="544.5" y="44.1426">: OrderList</text><rect fill="#E3E3E3" height="49.2188" rx="2.5" ry="2.5" style="stroke:#181818;stroke-width:0.5;" width="81" x="537.5" y="1124.5"/><text fill="#000000" font-family="sans-serif" font-size="14" lengthAdjust="spacing" textLength="56" x="550" y="1146.0332">orderList</text><text fill="#000000" font-family="sans-serif" font-size="14" lengthAdjust="spacing" textLength="67" x="544.5" y="1163.6426">: OrderList</text><rect fill="#E3E3E3" height="49.2188" rx="2.5" ry="2.5" style="stroke:#181818;stroke-width:0.5;" width="139" x="628.5" y="1124.5"/><text fill="#000000" font-family="sans-serif" font-size="14" lengthAdjust="spacing" textLength="116" x="640" y="1146.0332">announcementDto</text><text fill="#000000" font-family="sans-serif" font-size="14" lengthAdjust="spacing" textLength="125" x="635.5" y="1163.6426">: AnnouncementDto</text><rect fill="#E3E3E3" height="49.2188" rx="2.5" ry="2.5" style="stroke:#181818;stroke-width:0.5;" width="107" x="777.5" y="5"/><text fill="#000000" font-family="sans-serif" font-size="14" lengthAdjust="spacing" textLength="82" x="790" y="26.5332">orderMapper</text><text fill="#000000" font-family="sans-serif" font-size="14" lengthAdjust="spacing" textLength="93" x="784.5" y="44.1426">: OrderMapper</text><rect fill="#E3E3E3" height="49.2188" rx="2.5" ry="2.5" style="stroke:#181818;stroke-width:0.5;" width="107" x="777.5" y="1124.5"/><text fill="#000000" font-family="sans-serif" font-size="14" lengthAdjust="spacing" textLength="82" x="790" y="1146.0332">orderMapper</text><text fill="#000000" font-family="sans-serif" font-size="14" lengthAdjust="spacing" textLength="93" x="784.5" y="1163.6426">: OrderMapper</text><rect fill="#E3E3E3" height="49.2188" rx="2.5" ry="2.5" style="stroke:#181818;stroke-width:0.5;" width="59" x="969.5" y="5"/><text fill="#000000" font-family="sans-serif" font-size="14" lengthAdjust="spacing" textLength="34" x="982" y="26.5332">order</text><text fill="#000000" font-family="sans-serif" font-size="14" lengthAdjust="spacing" textLength="45" x="976.5" y="44.1426">: Order</text><rect fill="#E3E3E3" height="49.2188" rx="2.5" ry="2.5" style="stroke:#181818;stroke-width:0.5;" width="59" x="969.5" y="1124.5"/><text fill="#000000" font-family="sans-serif" font-size="14" lengthAdjust="spacing" textLength="34" x="982" y="1146.0332">order</text><text fill="#000000" font-family="sans-serif" font-size="14" lengthAdjust="spacing" textLength="45" x="976.5" y="1163.6426">: Order</text><rect fill="#E3E3E3" height="49.2188" rx="2.5" ry="2.5" style="stroke:#181818;stroke-width:0.5;" width="81" x="1193" y="1124.5"/><text fill="#000000" font-family="sans-serif" font-size="14" lengthAdjust="spacing" textLength="56" x="1205.5" y="1146.0332">orderDto</text><text fill="#000000" font-family="sans-serif" font-size="14" lengthAdjust="spacing" textLength="67" x="1200" y="1163.6426">: OrderDto</text><rect fill="#FFFFFF" height="1019.9297" style="stroke:#181818;stroke-width:1.0;" width="10" x="167" y="87.5703"/><rect fill="#FFFFFF" height="30.3516" style="stroke:#181818;stroke-width:1.0;" width="10" x="379" y="143.2734"/><rect fill="#FFFFFF" height="30.3516" style="stroke:#181818;stroke-width:1.0;" width="10" x="379" y="203.9766"/><rect fill="#FFFFFF" height="30.3516" style="stroke:#181818;stroke-width:1.0;" width="10" x="379" y="264.6797"/><rect fill="#FFFFFF" height="30.3516" style="stroke:#181818;stroke-width:1.0;" width="10" x="379" y="325.3828"/><rect fill="#FFFFFF" height="91.0547" style="stroke:#181818;stroke-width:1.0;" width="10" x="379" y="386.0859"/><rect fill="#FFFFFF" height="30.3516" style="stroke:#181818;stroke-width:1.0;" width="10" x="573" y="416.4375"/><rect fill="#FFFFFF" height="502.4375" style="stroke:#181818;stroke-width:1.0;" width="10" x="826" y="507.4922"/><rect fill="#FFFFFF" height="41.3516" style="stroke:#181818;stroke-width:1.0;" width="10" x="831" y="899.2266"/><rect fill="#FFFFFF" height="30.3516" style="stroke:#181818;stroke-width:1.0;" width="10" x="994" y="563.1953"/><rect fill="#FFFFFF" height="30.3516" style="stroke:#181818;stroke-width:1.0;" width="10" x="994" y="623.8984"/><rect fill="#FFFFFF" height="30.3516" style="stroke:#181818;stroke-width:1.0;" width="10" x="994" y="684.6016"/><rect fill="#FFFFFF" height="30.3516" style="stroke:#181818;stroke-width:1.0;" width="10" x="994" y="745.3047"/><polygon fill="#181818" points="155,83.5703,165,87.5703,155,91.5703,159,87.5703" style="stroke:#181818;stroke-width:1.0;"/><line style="stroke:#181818;stroke-width:1.0;" x1="0" x2="161" y1="87.5703" y2="87.5703"/><text fill="#000000" font-family="sans-serif" font-size="13" font-weight="bold" lengthAdjust="spacing" textLength="14" x="7" y="82.7139">17</text><text fill="#000000" font-family="sans-serif" font-size="13" lengthAdjust="spacing" textLength="130" x="25" y="82.7139">toDTO(announcement)</text><path d="M79.5,102.5703 L287.5,102.5703 L287.5,110.9219 L277.5,120.9219 L79.5,120.9219 L79.5,102.5703 " fill="#EEEEEE" style="stroke:#000000;stroke-width:1.5;"/><rect fill="none" height="975.5781" style="stroke:#000000;stroke-width:1.5;" width="1214.5" x="79.5" y="102.5703"/><text fill="#000000" font-family="sans-serif" font-size="13" font-weight="bold" lengthAdjust="spacing" textLength="163" x="94.5" y="117.0654">Create AnnouncementDto</text><polygon fill="#181818" points="367,139.2734,377,143.2734,367,147.2734,371,143.2734" style="stroke:#181818;stroke-width:1.0;"/><line style="stroke:#181818;stroke-width:1.0;" x1="177" x2="373" y1="143.2734" y2="143.2734"/><text fill="#000000" font-family="sans-serif" font-size="13" font-weight="bold" lengthAdjust="spacing" textLength="25" x="184" y="138.417">17.1</text><text fill="#000000" font-family="sans-serif" font-size="13" lengthAdjust="spacing" textLength="130" x="213" y="138.417">getRequestAttributes()</text><polygon fill="#181818" points="188,169.625,178,173.625,188,177.625,184,173.625" style="stroke:#181818;stroke-width:1.0;"/><line style="stroke:#181818;stroke-width:1.0;stroke-dasharray:2.0,2.0;" x1="182" x2="383" y1="173.625" y2="173.625"/><text fill="#000000" font-family="sans-serif" font-size="13" font-weight="bold" lengthAdjust="spacing" textLength="25" x="194" y="168.7686">17.2</text><text fill="#000000" font-family="sans-serif" font-size="13" lengthAdjust="spacing" textLength="99" x="223" y="168.7686">requestAttributes</text><polygon fill="#181818" points="367,199.9766,377,203.9766,367,207.9766,371,203.9766" style="stroke:#181818;stroke-width:1.0;"/><line style="stroke:#181818;stroke-width:1.0;" x1="177" x2="373" y1="203.9766" y2="203.9766"/><text fill="#000000" font-family="sans-serif" font-size="13" font-weight="bold" lengthAdjust="spacing" textLength="25" x="184" y="199.1201">17.3</text><text fill="#000000" font-family="sans-serif" font-size="13" lengthAdjust="spacing" textLength="154" x="213" y="199.1201">getCommissionAttributes()</text><polygon fill="#181818" points="188,230.3281,178,234.3281,188,238.3281,184,234.3281" style="stroke:#181818;stroke-width:1.0;"/><line style="stroke:#181818;stroke-width:1.0;stroke-dasharray:2.0,2.0;" x1="182" x2="383" y1="234.3281" y2="234.3281"/><text fill="#000000" font-family="sans-serif" font-size="13" font-weight="bold" lengthAdjust="spacing" textLength="25" x="194" y="229.4717">17.4</text><text fill="#000000" font-family="sans-serif" font-size="13" lengthAdjust="spacing" textLength="126" x="223" y="229.4717">commissionAttributes</text><polygon fill="#181818" points="367,260.6797,377,264.6797,367,268.6797,371,264.6797" style="stroke:#181818;stroke-width:1.0;"/><line style="stroke:#181818;stroke-width:1.0;" x1="177" x2="373" y1="264.6797" y2="264.6797"/><text fill="#000000" font-family="sans-serif" font-size="13" font-weight="bold" lengthAdjust="spacing" textLength="25" x="184" y="259.8232">17.5</text><text fill="#000000" font-family="sans-serif" font-size="13" lengthAdjust="spacing" textLength="36" x="213" y="259.8232">getId()</text><polygon fill="#181818" points="188,291.0313,178,295.0313,188,299.0313,184,295.0313" style="stroke:#181818;stroke-width:1.0;"/><line style="stroke:#181818;stroke-width:1.0;stroke-dasharray:2.0,2.0;" x1="182" x2="383" y1="295.0313" y2="295.0313"/><text fill="#000000" font-family="sans-serif" font-size="13" font-weight="bold" lengthAdjust="spacing" textLength="25" x="194" y="290.1748">17.6</text><text fill="#000000" font-family="sans-serif" font-size="13" lengthAdjust="spacing" textLength="10" x="223" y="290.1748">id</text><polygon fill="#181818" points="367,321.3828,377,325.3828,367,329.3828,371,325.3828" style="stroke:#181818;stroke-width:1.0;"/><line style="stroke:#181818;stroke-width:1.0;" x1="177" x2="373" y1="325.3828" y2="325.3828"/><text fill="#000000" font-family="sans-serif" font-size="13" font-weight="bold" lengthAdjust="spacing" textLength="25" x="184" y="320.5264">17.7</text><text fill="#000000" font-family="sans-serif" font-size="13" lengthAdjust="spacing" textLength="122" x="213" y="320.5264">getAcceptanceDate()</text><polygon fill="#181818" points="188,351.7344,178,355.7344,188,359.7344,184,355.7344" style="stroke:#181818;stroke-width:1.0;"/><line style="stroke:#181818;stroke-width:1.0;stroke-dasharray:2.0,2.0;" x1="182" x2="383" y1="355.7344" y2="355.7344"/><text fill="#000000" font-family="sans-serif" font-size="13" font-weight="bold" lengthAdjust="spacing" textLength="25" x="194" y="350.8779">17.8</text><text fill="#000000" font-family="sans-serif" font-size="13" lengthAdjust="spacing" textLength="94" x="223" y="350.8779">acceptanceDate</text><polygon fill="#181818" points="367,382.0859,377,386.0859,367,390.0859,371,386.0859" style="stroke:#181818;stroke-width:1.0;"/><line style="stroke:#181818;stroke-width:1.0;" x1="177" x2="373" y1="386.0859" y2="386.0859"/><text fill="#000000" font-family="sans-serif" font-size="13" font-weight="bold" lengthAdjust="spacing" textLength="25" x="184" y="381.2295">17.9</text><text fill="#000000" font-family="sans-serif" font-size="13" lengthAdjust="spacing" textLength="86" x="213" y="381.2295">getListOrders()</text><polygon fill="#181818" points="561,412.4375,571,416.4375,561,420.4375,565,416.4375" style="stroke:#181818;stroke-width:1.0;"/><line style="stroke:#181818;stroke-width:1.0;" x1="389" x2="567" y1="416.4375" y2="416.4375"/><text fill="#000000" font-family="sans-serif" font-size="13" font-weight="bold" lengthAdjust="spacing" textLength="32" x="396" y="411.5811">17.10</text><text fill="#000000" font-family="sans-serif" font-size="13" lengthAdjust="spacing" textLength="47" x="432" y="411.5811">getList()</text><polygon fill="#181818" points="400,442.7891,390,446.7891,400,450.7891,396,446.7891" style="stroke:#181818;stroke-width:1.0;"/><line style="stroke:#181818;stroke-width:1.0;stroke-dasharray:2.0,2.0;" x1="394" x2="577" y1="446.7891" y2="446.7891"/><text fill="#000000" font-family="sans-serif" font-size="13" font-weight="bold" lengthAdjust="spacing" textLength="32" x="406" y="441.9326">17.11</text><text fill="#000000" font-family="sans-serif" font-size="13" lengthAdjust="spacing" textLength="56" x="442" y="441.9326">listOrders</text><polygon fill="#181818" points="188,473.1406,178,477.1406,188,481.1406,184,477.1406" style="stroke:#181818;stroke-width:1.0;"/><line style="stroke:#181818;stroke-width:1.0;stroke-dasharray:2.0,2.0;" x1="182" x2="383" y1="477.1406" y2="477.1406"/><text fill="#000000" font-family="sans-serif" font-size="13" font-weight="bold" lengthAdjust="spacing" textLength="32" x="194" y="472.2842">17.12</text><text fill="#000000" font-family="sans-serif" font-size="13" lengthAdjust="spacing" textLength="56" x="230" y="472.2842">listOrders</text><polygon fill="#181818" points="814,503.4922,824,507.4922,814,511.4922,818,507.4922" style="stroke:#181818;stroke-width:1.0;"/><line style="stroke:#181818;stroke-width:1.0;" x1="177" x2="820" y1="507.4922" y2="507.4922"/><text fill="#000000" font-family="sans-serif" font-size="13" font-weight="bold" lengthAdjust="spacing" textLength="32" x="184" y="502.6357">17.13</text><text fill="#000000" font-family="sans-serif" font-size="13" lengthAdjust="spacing" textLength="101" x="220" y="502.6357">toDTO(listOrders)</text><path d="M767.5,522.4922 L840.5,522.4922 L840.5,530.8438 L830.5,540.8438 L767.5,540.8438 L767.5,522.4922 " fill="#EEEEEE" style="stroke:#000000;stroke-width:1.5;"/><rect fill="none" height="458.0859" style="stroke:#000000;stroke-width:1.5;" width="516.5" x="767.5" y="522.4922"/><text fill="#000000" font-family="sans-serif" font-size="13" font-weight="bold" lengthAdjust="spacing" textLength="28" x="782.5" y="536.9873">loop</text><text fill="#000000" font-family="sans-serif" font-size="11" font-weight="bold" lengthAdjust="spacing" textLength="87" x="855.5" y="535.9111">[for each order]</text><polygon fill="#181818" points="982,559.1953,992,563.1953,982,567.1953,986,563.1953" style="stroke:#181818;stroke-width:1.0;"/><line style="stroke:#181818;stroke-width:1.0;" x1="836" x2="988" y1="563.1953" y2="563.1953"/><text fill="#000000" font-family="sans-serif" font-size="13" font-weight="bold" lengthAdjust="spacing" textLength="32" x="843" y="558.3389">17.14</text><text fill="#000000" font-family="sans-serif" font-size="13" lengthAdjust="spacing" textLength="103" x="879" y="558.3389">getOrderAmount()</text><polygon fill="#181818" points="847,589.5469,837,593.5469,847,597.5469,843,593.5469" style="stroke:#181818;stroke-width:1.0;"/><line style="stroke:#181818;stroke-width:1.0;stroke-dasharray:2.0,2.0;" x1="841" x2="998" y1="593.5469" y2="593.5469"/><text fill="#000000" font-family="sans-serif" font-size="13" font-weight="bold" lengthAdjust="spacing" textLength="32" x="853" y="588.6904">17.15</text><text fill="#000000" font-family="sans-serif" font-size="13" lengthAdjust="spacing" textLength="74" x="889" y="588.6904">orderAmount</text><polygon fill="#181818" points="982,619.8984,992,623.8984,982,627.8984,986,623.8984" style="stroke:#181818;stroke-width:1.0;"/><line style="stroke:#181818;stroke-width:1.0;" x1="836" x2="988" y1="623.8984" y2="623.8984"/><text fill="#000000" font-family="sans-serif" font-size="13" font-weight="bold" lengthAdjust="spacing" textLength="32" x="843" y="619.042">17.16</text><text fill="#000000" font-family="sans-serif" font-size="13" lengthAdjust="spacing" textLength="92" x="879" y="619.042">getClientEmail()</text><polygon fill="#181818" points="847,650.25,837,654.25,847,658.25,843,654.25" style="stroke:#181818;stroke-width:1.0;"/><line style="stroke:#181818;stroke-width:1.0;stroke-dasharray:2.0,2.0;" x1="841" x2="998" y1="654.25" y2="654.25"/><text fill="#000000" font-family="sans-serif" font-size="13" font-weight="bold" lengthAdjust="spacing" textLength="32" x="853" y="649.3936">17.17</text><text fill="#000000" font-family="sans-serif" font-size="13" lengthAdjust="spacing" textLength="74" x="889" y="649.3936">orderAmount</text><polygon fill="#181818" points="982,680.6016,992,684.6016,982,688.6016,986,684.6016" style="stroke:#181818;stroke-width:1.0;"/><line style="stroke:#181818;stroke-width:1.0;" x1="836" x2="988" y1="684.6016" y2="684.6016"/><text fill="#000000" font-family="sans-serif" font-size="13" font-weight="bold" lengthAdjust="spacing" textLength="32" x="843" y="679.7451">17.18</text><text fill="#000000" font-family="sans-serif" font-size="13" lengthAdjust="spacing" textLength="85" x="879" y="679.7451">getOrderDate()</text><polygon fill="#181818" points="847,710.9531,837,714.9531,847,718.9531,843,714.9531" style="stroke:#181818;stroke-width:1.0;"/><line style="stroke:#181818;stroke-width:1.0;stroke-dasharray:2.0,2.0;" x1="841" x2="998" y1="714.9531" y2="714.9531"/><text fill="#000000" font-family="sans-serif" font-size="13" font-weight="bold" lengthAdjust="spacing" textLength="32" x="853" y="710.0967">17.19</text><text fill="#000000" font-family="sans-serif" font-size="13" lengthAdjust="spacing" textLength="56" x="889" y="710.0967">orderDate</text><polygon fill="#181818" points="982,741.3047,992,745.3047,982,749.3047,986,745.3047" style="stroke:#181818;stroke-width:1.0;"/><line style="stroke:#181818;stroke-width:1.0;" x1="836" x2="988" y1="745.3047" y2="745.3047"/><text fill="#000000" font-family="sans-serif" font-size="13" font-weight="bold" lengthAdjust="spacing" textLength="32" x="843" y="740.4482">17.20</text><text fill="#000000" font-family="sans-serif" font-size="13" lengthAdjust="spacing" textLength="36" x="879" y="740.4482">getId()</text><polygon fill="#181818" points="847,771.6563,837,775.6563,847,779.6563,843,775.6563" style="stroke:#181818;stroke-width:1.0;"/><line style="stroke:#181818;stroke-width:1.0;stroke-dasharray:2.0,2.0;" x1="841" x2="998" y1="775.6563" y2="775.6563"/><text fill="#000000" font-family="sans-serif" font-size="13" font-weight="bold" lengthAdjust="spacing" textLength="32" x="853" y="770.7998">17.21</text><text fill="#000000" font-family="sans-serif" font-size="13" lengthAdjust="spacing" textLength="39" x="889" y="770.7998">orderId</text><polygon fill="#181818" points="1181,827.0078,1191,831.0078,1181,835.0078,1185,831.0078" style="stroke:#181818;stroke-width:1.0;"/><line style="stroke:#181818;stroke-width:1.0;" x1="836" x2="1187" y1="831.0078" y2="831.0078"/><text fill="#000000" font-family="sans-serif" font-size="13" font-weight="bold" lengthAdjust="spacing" textLength="32" x="843" y="826.1514">17.22</text><text fill="#000000" font-family="sans-serif" font-size="13" lengthAdjust="spacing" textLength="297" x="879" y="826.1514">create(orderAmount, orderDate, clientEmail,orderId)</text><rect fill="#E3E3E3" height="49.2188" rx="2.5" ry="2.5" style="stroke:#181818;stroke-width:0.5;" width="81" x="1193" y="808.6563"/><text fill="#000000" font-family="sans-serif" font-size="14" lengthAdjust="spacing" textLength="56" x="1205.5" y="830.1895">orderDto</text><text fill="#000000" font-family="sans-serif" font-size="14" lengthAdjust="spacing" textLength="67" x="1200" y="847.7988">: OrderDto</text><line style="stroke:#181818;stroke-width:1.0;" x1="836" x2="883" y1="886.2266" y2="886.2266"/><line style="stroke:#181818;stroke-width:1.0;" x1="883" x2="883" y1="886.2266" y2="899.2266"/><line style="stroke:#181818;stroke-width:1.0;" x1="842" x2="883" y1="899.2266" y2="899.2266"/><polygon fill="#181818" points="852,895.2266,842,899.2266,852,903.2266,848,899.2266" style="stroke:#181818;stroke-width:1.0;"/><text fill="#000000" font-family="sans-serif" font-size="13" font-weight="bold" lengthAdjust="spacing" textLength="32" x="848" y="881.3701">17.23</text><text fill="#000000" font-family="sans-serif" font-size="13" lengthAdjust="spacing" textLength="78" x="884" y="881.3701">add(orderDto)</text><line style="stroke:#181818;stroke-width:1.0;stroke-dasharray:2.0,2.0;" x1="841" x2="883" y1="939.5781" y2="939.5781"/><line style="stroke:#181818;stroke-width:1.0;stroke-dasharray:2.0,2.0;" x1="883" x2="883" y1="939.5781" y2="952.5781"/><line style="stroke:#181818;stroke-width:1.0;stroke-dasharray:2.0,2.0;" x1="836" x2="883" y1="952.5781" y2="952.5781"/><polygon fill="#181818" points="846,948.5781,836,952.5781,846,956.5781,842,952.5781" style="stroke:#181818;stroke-width:1.0;"/><text fill="#000000" font-family="sans-serif" font-size="13" font-weight="bold" lengthAdjust="spacing" textLength="32" x="848" y="934.7217">17.24</text><text fill="#000000" font-family="sans-serif" font-size="13" lengthAdjust="spacing" textLength="4" x="884" y="934.7217"> </text><polygon fill="#181818" points="188,1005.9297,178,1009.9297,188,1013.9297,184,1009.9297" style="stroke:#181818;stroke-width:1.0;"/><line style="stroke:#181818;stroke-width:1.0;stroke-dasharray:2.0,2.0;" x1="182" x2="830" y1="1009.9297" y2="1009.9297"/><text fill="#000000" font-family="sans-serif" font-size="13" font-weight="bold" lengthAdjust="spacing" textLength="32" x="194" y="1005.0732">17.25</text><text fill="#000000" font-family="sans-serif" font-size="13" lengthAdjust="spacing" textLength="76" x="230" y="1005.0732">listOrdersDto</text><polygon fill="#181818" points="616.5,1052.6328,626.5,1056.6328,616.5,1060.6328,620.5,1056.6328" style="stroke:#181818;stroke-width:1.0;"/><line style="stroke:#181818;stroke-width:1.0;" x1="177" x2="622.5" y1="1056.6328" y2="1056.6328"/><text fill="#000000" font-family="sans-serif" font-size="13" font-weight="bold" lengthAdjust="spacing" textLength="32" x="184" y="1043.6006">17.26</text><text fill="#000000" font-family="sans-serif" font-size="13" lengthAdjust="spacing" textLength="227" x="220" y="1035.4248">create(requestAttributes, listOrdersDto,</text><text fill="#000000" font-family="sans-serif" font-size="13" lengthAdjust="spacing" textLength="250" x="224" y="1051.7764">commissionAttributes, acceptanceDate, id)</text><rect fill="#E3E3E3" height="49.2188" rx="2.5" ry="2.5" style="stroke:#181818;stroke-width:0.5;" width="139" x="628.5" y="1017.9297"/><text fill="#000000" font-family="sans-serif" font-size="14" lengthAdjust="spacing" textLength="116" x="640" y="1039.4629">announcementDto</text><text fill="#000000" font-family="sans-serif" font-size="14" lengthAdjust="spacing" textLength="125" x="635.5" y="1057.0723">: AnnouncementDto</text><polygon fill="#181818" points="11,1103.5,1,1107.5,11,1111.5,7,1107.5" style="stroke:#181818;stroke-width:1.0;"/><line style="stroke:#181818;stroke-width:1.0;stroke-dasharray:2.0,2.0;" x1="5" x2="171" y1="1107.5" y2="1107.5"/><text fill="#000000" font-family="sans-serif" font-size="13" font-weight="bold" lengthAdjust="spacing" textLength="14" x="17" y="1102.6436">18</text><text fill="#000000" font-family="sans-serif" font-size="13" lengthAdjust="spacing" textLength="105" x="35" y="1102.6436">announcementDto</text><!--SRC=[rLOxRzim4DxrAuXCJY0NoDJ2A088TeO03Hoa7RCmrCKc8f4gHRKeu1zVYg9qf4p5TksbclYuntVVYNTNltDHKKLBKaeXsLR94eXM3IJrS5DHzauty5t_AO0eO9gAJU4Br5kQozzSRCWRBMf8p6SkD6UyeaAJAog4R0I34eH-f5K5waKiIBPtUaLetHu_PazFzy_JDiRQlPuz2DKK_6oWjXhFtT8AktKeArKEwXllfDVznieFksbGAot7kCnH3strOnrnXcIiSOiEktr4Rz10sOYKGxHsQvHjmIG9RRGKJVaAYjn-JaZ_pUym1MH1j3JICp_GQvIbJFDVL8ENjC3gfzjaesHJaQK29-QJaw0bTDdvjs8BiW7jKfLfhVXhew6UJG3eikzRj2TaFef8ZGsYJWxx1e_1k9HboUkQIt4vc2nYyooan49zoCy5nlFp2SiOWyhK4GOhetik8XfOEnDT2wzzwVQbd9x5EwmL7U7jAce5QmfUekuyp5mn88g6XxOEitN0r26clCeqb0SqEHcegsLuxRv2oegyIKKCWYsnTMjF1gbnVdiO7SDscPK6TK2q_uLOFd1WsGf3b6W-hZZEGt9g0Ck2cu9uNr9U_9y1T5rbz98l2Zzys1S57rR4Vq8z0kqmF-H78evAxNQxuoCnZ_3cfcqQji_El8odo5zA6FvegODuVG9VGqfedi_w4UCexjphF-mfT7KSVnEoCG91vBRYZ4kkvtueTdwbR8ULG_wdEulDpf2SlVaZ3HsbBoBQ_DDHdqjD9_R8RqEpmrOusNrnkBxEvs7F78rYaJRW9hg_]--></g></svg>