<?xml version="1.0" encoding="UTF-8" standalone="no"?><svg xmlns="http://www.w3.org/2000/svg" xmlns:xlink="http://www.w3.org/1999/xlink" contentStyleType="text/css" height="1000px" preserveAspectRatio="none" style="width:1471px;height:1000px;background:#FFFFFF;" version="1.1" viewBox="0 0 1471 1000" width="1471px" zoomAndPan="magnify"><defs/><g><rect fill="#FFFFFF" height="840.8984" style="stroke:#181818;stroke-width:1.0;" width="10" x="274" y="87.5703"/><rect fill="#FFFFFF" height="445.8672" style="stroke:#181818;stroke-width:1.0;" width="10" x="553" y="445.25"/><rect fill="#FFFFFF" height="271.625" style="stroke:#181818;stroke-width:1.0;" width="10" x="657" y="143.2734"/><rect fill="#FFFFFF" height="30" style="stroke:#181818;stroke-width:1.0;" width="10" x="908" y="173.625"/><rect fill="#FFFFFF" height="30" style="stroke:#181818;stroke-width:1.0;" width="10" x="908" y="233.9766"/><rect fill="#FFFFFF" height="30" style="stroke:#181818;stroke-width:1.0;" width="10" x="908" y="294.3281"/><rect fill="#FFFFFF" height="60.7031" style="stroke:#181818;stroke-width:1.0;" width="10" x="998.5" y="475.6016"/><rect fill="#FFFFFF" height="212.4063" style="stroke:#181818;stroke-width:1.0;" width="10" x="998.5" y="617.3594"/><rect fill="#FFFFFF" height="101.7031" style="stroke:#181818;stroke-width:1.0;" width="10" x="1003.5" y="681.0625"/><rect fill="#FFFFFF" height="30.3516" style="stroke:#181818;stroke-width:1.0;" width="10" x="1378.5" y="505.9531"/><rect fill="#FFFFFF" height="30" style="stroke:#181818;stroke-width:1.0;" width="10" x="1378.5" y="716.4141"/><rect fill="none" height="796.5469" style="stroke:#000000;stroke-width:1.5;" width="1254.5" x="210.5" y="102.5703"/><rect fill="none" height="310.4609" style="stroke:#000000;stroke-width:1.5;" width="957.5" x="497.5" y="551.3047"/><rect fill="none" height="278.1094" style="stroke:#000000;stroke-width:1.5;" width="937.5" x="507.5" y="576.6563"/><rect fill="none" height="190.4063" style="stroke:#000000;stroke-width:1.5;" width="471" x="964" y="632.3594"/><line style="stroke:#181818;stroke-width:0.5;stroke-dasharray:5.0,5.0;" x1="278.5" x2="278.5" y1="55.2188" y2="946.4688"/><line style="stroke:#181818;stroke-width:0.5;stroke-dasharray:5.0,5.0;" x1="557.5" x2="557.5" y1="55.2188" y2="946.4688"/><line style="stroke:#181818;stroke-width:0.5;stroke-dasharray:5.0,5.0;" x1="661.5" x2="661.5" y1="55.2188" y2="946.4688"/><line style="stroke:#181818;stroke-width:0.5;stroke-dasharray:5.0,5.0;" x1="912.5" x2="912.5" y1="55.2188" y2="946.4688"/><line style="stroke:#181818;stroke-width:0.5;stroke-dasharray:5.0,5.0;" x1="1003" x2="1003" y1="372.4375" y2="946.4688"/><line style="stroke:#181818;stroke-width:0.5;stroke-dasharray:5.0,5.0;" x1="1383" x2="1383" y1="55.2188" y2="946.4688"/><rect fill="#E3E3E3" height="49.2188" rx="2.5" ry="2.5" style="stroke:#181818;stroke-width:0.5;" width="117" x="220.5" y="5"/><text fill="#000000" font-family="sans-serif" font-size="14" lengthAdjust="spacing" textLength="94" x="232" y="26.5332">announcement</text><text fill="#000000" font-family="sans-serif" font-size="14" lengthAdjust="spacing" textLength="103" x="227.5" y="44.1426">: Announcement</text><rect fill="#E3E3E3" height="49.2188" rx="2.5" ry="2.5" style="stroke:#181818;stroke-width:0.5;" width="117" x="220.5" y="945.4688"/><text fill="#000000" font-family="sans-serif" font-size="14" lengthAdjust="spacing" textLength="94" x="232" y="967.002">announcement</text><text fill="#000000" font-family="sans-serif" font-size="14" lengthAdjust="spacing" textLength="103" x="227.5" y="984.6113">: Announcement</text><rect fill="#E3E3E3" height="49.2188" rx="2.5" ry="2.5" style="stroke:#181818;stroke-width:0.5;" width="81" x="517.5" y="5"/><text fill="#000000" font-family="sans-serif" font-size="14" lengthAdjust="spacing" textLength="56" x="530" y="26.5332">orderList</text><text fill="#000000" font-family="sans-serif" font-size="14" lengthAdjust="spacing" textLength="67" x="524.5" y="44.1426">: OrderList</text><rect fill="#E3E3E3" height="49.2188" rx="2.5" ry="2.5" style="stroke:#181818;stroke-width:0.5;" width="81" x="517.5" y="945.4688"/><text fill="#000000" font-family="sans-serif" font-size="14" lengthAdjust="spacing" textLength="56" x="530" y="967.002">orderList</text><text fill="#000000" font-family="sans-serif" font-size="14" lengthAdjust="spacing" textLength="67" x="524.5" y="984.6113">: OrderList</text><rect fill="#E3E3E3" height="49.2188" rx="2.5" ry="2.5" style="stroke:#181818;stroke-width:0.5;" width="107" x="608.5" y="5"/><text fill="#000000" font-family="sans-serif" font-size="14" lengthAdjust="spacing" textLength="82" x="621" y="26.5332">orderMapper</text><text fill="#000000" font-family="sans-serif" font-size="14" lengthAdjust="spacing" textLength="93" x="615.5" y="44.1426">: OrderMapper</text><rect fill="#E3E3E3" height="49.2188" rx="2.5" ry="2.5" style="stroke:#181818;stroke-width:0.5;" width="107" x="608.5" y="945.4688"/><text fill="#000000" font-family="sans-serif" font-size="14" lengthAdjust="spacing" textLength="82" x="621" y="967.002">orderMapper</text><text fill="#000000" font-family="sans-serif" font-size="14" lengthAdjust="spacing" textLength="93" x="615.5" y="984.6113">: OrderMapper</text><rect fill="#E3E3E3" height="49.2188" rx="2.5" ry="2.5" style="stroke:#181818;stroke-width:0.5;" width="81" x="872.5" y="5"/><text fill="#000000" font-family="sans-serif" font-size="14" lengthAdjust="spacing" textLength="56" x="885" y="26.5332">orderDto</text><text fill="#000000" font-family="sans-serif" font-size="14" lengthAdjust="spacing" textLength="67" x="879.5" y="44.1426">: OrderDto</text><rect fill="#E3E3E3" height="49.2188" rx="2.5" ry="2.5" style="stroke:#181818;stroke-width:0.5;" width="81" x="872.5" y="945.4688"/><text fill="#000000" font-family="sans-serif" font-size="14" lengthAdjust="spacing" textLength="56" x="885" y="967.002">orderDto</text><text fill="#000000" font-family="sans-serif" font-size="14" lengthAdjust="spacing" textLength="67" x="879.5" y="984.6113">: OrderDto</text><rect fill="#E3E3E3" height="49.2188" rx="2.5" ry="2.5" style="stroke:#181818;stroke-width:0.5;" width="59" x="974" y="945.4688"/><text fill="#000000" font-family="sans-serif" font-size="14" lengthAdjust="spacing" textLength="34" x="986.5" y="967.002">order</text><text fill="#000000" font-family="sans-serif" font-size="14" lengthAdjust="spacing" textLength="45" x="981" y="984.6113">: Order</text><rect fill="#E3E3E3" height="31.6094" rx="2.5" ry="2.5" style="stroke:#181818;stroke-width:0.5;" width="83" x="1342" y="22.6094"/><text fill="#000000" font-family="sans-serif" font-size="14" lengthAdjust="spacing" textLength="69" x="1349" y="44.1426">Notification</text><rect fill="#E3E3E3" height="31.6094" rx="2.5" ry="2.5" style="stroke:#181818;stroke-width:0.5;" width="83" x="1342" y="945.4688"/><text fill="#000000" font-family="sans-serif" font-size="14" lengthAdjust="spacing" textLength="69" x="1349" y="967.002">Notification</text><rect fill="#FFFFFF" height="840.8984" style="stroke:#181818;stroke-width:1.0;" width="10" x="274" y="87.5703"/><rect fill="#FFFFFF" height="445.8672" style="stroke:#181818;stroke-width:1.0;" width="10" x="553" y="445.25"/><rect fill="#FFFFFF" height="271.625" style="stroke:#181818;stroke-width:1.0;" width="10" x="657" y="143.2734"/><rect fill="#FFFFFF" height="30" style="stroke:#181818;stroke-width:1.0;" width="10" x="908" y="173.625"/><rect fill="#FFFFFF" height="30" style="stroke:#181818;stroke-width:1.0;" width="10" x="908" y="233.9766"/><rect fill="#FFFFFF" height="30" style="stroke:#181818;stroke-width:1.0;" width="10" x="908" y="294.3281"/><rect fill="#FFFFFF" height="60.7031" style="stroke:#181818;stroke-width:1.0;" width="10" x="998.5" y="475.6016"/><rect fill="#FFFFFF" height="212.4063" style="stroke:#181818;stroke-width:1.0;" width="10" x="998.5" y="617.3594"/><rect fill="#FFFFFF" height="101.7031" style="stroke:#181818;stroke-width:1.0;" width="10" x="1003.5" y="681.0625"/><rect fill="#FFFFFF" height="30.3516" style="stroke:#181818;stroke-width:1.0;" width="10" x="1378.5" y="505.9531"/><rect fill="#FFFFFF" height="30" style="stroke:#181818;stroke-width:1.0;" width="10" x="1378.5" y="716.4141"/><polygon fill="#181818" points="262,83.5703,272,87.5703,262,91.5703,266,87.5703" style="stroke:#181818;stroke-width:1.0;"/><line style="stroke:#181818;stroke-width:1.0;" x1="0" x2="268" y1="87.5703" y2="87.5703"/><text fill="#000000" font-family="sans-serif" font-size="13" font-weight="bold" lengthAdjust="spacing" textLength="14" x="7" y="82.7139">30</text><text fill="#000000" font-family="sans-serif" font-size="13" lengthAdjust="spacing" textLength="237" x="25" y="82.7139">defineOrderAcceptance(answer,orderDto)</text><path d="M210.5,102.5703 L430.5,102.5703 L430.5,110.9219 L420.5,120.9219 L210.5,120.9219 L210.5,102.5703 " fill="#EEEEEE" style="stroke:#000000;stroke-width:1.5;"/><rect fill="none" height="796.5469" style="stroke:#000000;stroke-width:1.5;" width="1254.5" x="210.5" y="102.5703"/><text fill="#000000" font-family="sans-serif" font-size="13" font-weight="bold" lengthAdjust="spacing" textLength="175" x="225.5" y="117.0654">Define Acceptance of Order</text><polygon fill="#181818" points="645,139.2734,655,143.2734,645,147.2734,649,143.2734" style="stroke:#181818;stroke-width:1.0;"/><line style="stroke:#181818;stroke-width:1.0;" x1="284" x2="651" y1="143.2734" y2="143.2734"/><text fill="#000000" font-family="sans-serif" font-size="13" font-weight="bold" lengthAdjust="spacing" textLength="25" x="291" y="138.417">30.1</text><text fill="#000000" font-family="sans-serif" font-size="13" lengthAdjust="spacing" textLength="103" x="320" y="138.417">toModel(orderDto)</text><polygon fill="#181818" points="896,169.625,906,173.625,896,177.625,900,173.625" style="stroke:#181818;stroke-width:1.0;"/><line style="stroke:#181818;stroke-width:1.0;" x1="667" x2="902" y1="173.625" y2="173.625"/><text fill="#000000" font-family="sans-serif" font-size="13" font-weight="bold" lengthAdjust="spacing" textLength="25" x="674" y="168.7686">30.2</text><text fill="#000000" font-family="sans-serif" font-size="13" lengthAdjust="spacing" textLength="193" x="703" y="168.7686">orderAmount = getOrderAmount()</text><polygon fill="#181818" points="896,229.9766,906,233.9766,896,237.9766,900,233.9766" style="stroke:#181818;stroke-width:1.0;"/><line style="stroke:#181818;stroke-width:1.0;" x1="667" x2="902" y1="233.9766" y2="233.9766"/><text fill="#000000" font-family="sans-serif" font-size="13" font-weight="bold" lengthAdjust="spacing" textLength="25" x="674" y="229.1201">30.3</text><text fill="#000000" font-family="sans-serif" font-size="13" lengthAdjust="spacing" textLength="157" x="703" y="229.1201">orderDate = getOrderDate()</text><polygon fill="#181818" points="896,290.3281,906,294.3281,896,298.3281,900,294.3281" style="stroke:#181818;stroke-width:1.0;"/><line style="stroke:#181818;stroke-width:1.0;" x1="667" x2="902" y1="294.3281" y2="294.3281"/><text fill="#000000" font-family="sans-serif" font-size="13" font-weight="bold" lengthAdjust="spacing" textLength="25" x="674" y="289.4717">30.4</text><text fill="#000000" font-family="sans-serif" font-size="13" lengthAdjust="spacing" textLength="172" x="703" y="289.4717">clientEmail = getClientEmail()</text><polygon fill="#181818" points="962,350.6797,972,354.6797,962,358.6797,966,354.6797" style="stroke:#181818;stroke-width:1.0;"/><line style="stroke:#181818;stroke-width:1.0;" x1="667" x2="968" y1="354.6797" y2="354.6797"/><text fill="#000000" font-family="sans-serif" font-size="13" font-weight="bold" lengthAdjust="spacing" textLength="25" x="674" y="349.8232">30.5</text><text fill="#000000" font-family="sans-serif" font-size="13" lengthAdjust="spacing" textLength="254" x="703" y="349.8232">create(orderAmount, orderDate, clientEmail)</text><rect fill="#E3E3E3" height="49.2188" rx="2.5" ry="2.5" style="stroke:#181818;stroke-width:0.5;" width="59" x="974" y="332.3281"/><text fill="#000000" font-family="sans-serif" font-size="14" lengthAdjust="spacing" textLength="34" x="986.5" y="353.8613">order</text><text fill="#000000" font-family="sans-serif" font-size="14" lengthAdjust="spacing" textLength="45" x="981" y="371.4707">: Order</text><polygon fill="#181818" points="295,410.8984,285,414.8984,295,418.8984,291,414.8984" style="stroke:#181818;stroke-width:1.0;"/><line style="stroke:#181818;stroke-width:1.0;stroke-dasharray:2.0,2.0;" x1="289" x2="661" y1="414.8984" y2="414.8984"/><text fill="#000000" font-family="sans-serif" font-size="13" font-weight="bold" lengthAdjust="spacing" textLength="25" x="301" y="410.042">30.6</text><text fill="#000000" font-family="sans-serif" font-size="13" lengthAdjust="spacing" textLength="29" x="330" y="410.042">order</text><polygon fill="#181818" points="541,441.25,551,445.25,541,449.25,545,445.25" style="stroke:#181818;stroke-width:1.0;"/><line style="stroke:#181818;stroke-width:1.0;" x1="284" x2="547" y1="445.25" y2="445.25"/><text fill="#000000" font-family="sans-serif" font-size="13" font-weight="bold" lengthAdjust="spacing" textLength="25" x="291" y="440.3936">30.7</text><text fill="#000000" font-family="sans-serif" font-size="13" lengthAdjust="spacing" textLength="221" x="320" y="440.3936">defineOrderAcceptance(answer, order)</text><polygon fill="#181818" points="986.5,471.6016,996.5,475.6016,986.5,479.6016,990.5,475.6016" style="stroke:#181818;stroke-width:1.0;"/><line style="stroke:#181818;stroke-width:1.0;" x1="563" x2="992.5" y1="475.6016" y2="475.6016"/><text fill="#000000" font-family="sans-serif" font-size="13" font-weight="bold" lengthAdjust="spacing" textLength="25" x="570" y="470.7451">30.8</text><text fill="#000000" font-family="sans-serif" font-size="13" lengthAdjust="spacing" textLength="179" x="599" y="470.7451">setAcceptanceAnswer(answer)</text><polygon fill="#181818" points="1366.5,501.9531,1376.5,505.9531,1366.5,509.9531,1370.5,505.9531" style="stroke:#181818;stroke-width:1.0;"/><line style="stroke:#181818;stroke-width:1.0;" x1="1008.5" x2="1372.5" y1="505.9531" y2="505.9531"/><text fill="#000000" font-family="sans-serif" font-size="13" font-weight="bold" lengthAdjust="spacing" textLength="25" x="1015.5" y="501.0967">30.9</text><text fill="#000000" font-family="sans-serif" font-size="13" lengthAdjust="spacing" textLength="314" x="1044.5" y="501.0967">sendOrderAcceptanceNotification(clientEmail, answer)</text><polygon fill="#181818" points="1014.5,532.3047,1004.5,536.3047,1014.5,540.3047,1010.5,536.3047" style="stroke:#181818;stroke-width:1.0;"/><line style="stroke:#181818;stroke-width:1.0;stroke-dasharray:2.0,2.0;" x1="1008.5" x2="1382.5" y1="536.3047" y2="536.3047"/><text fill="#000000" font-family="sans-serif" font-size="13" font-weight="bold" lengthAdjust="spacing" textLength="32" x="1020.5" y="531.4482">30.10</text><text fill="#000000" font-family="sans-serif" font-size="13" lengthAdjust="spacing" textLength="49" x="1056.5" y="531.4482">success</text><path d="M497.5,551.3047 L558.5,551.3047 L558.5,559.6563 L548.5,569.6563 L497.5,569.6563 L497.5,551.3047 " fill="#EEEEEE" style="stroke:#000000;stroke-width:1.5;"/><rect fill="none" height="310.4609" style="stroke:#000000;stroke-width:1.5;" width="957.5" x="497.5" y="551.3047"/><text fill="#000000" font-family="sans-serif" font-size="13" font-weight="bold" lengthAdjust="spacing" textLength="16" x="512.5" y="565.7998">alt</text><text fill="#000000" font-family="sans-serif" font-size="11" font-weight="bold" lengthAdjust="spacing" textLength="104" x="573.5" y="564.7236">[answer == accept]</text><path d="M507.5,576.6563 L580.5,576.6563 L580.5,585.0078 L570.5,595.0078 L507.5,595.0078 L507.5,576.6563 " fill="#EEEEEE" style="stroke:#000000;stroke-width:1.5;"/><rect fill="none" height="278.1094" style="stroke:#000000;stroke-width:1.5;" width="937.5" x="507.5" y="576.6563"/><text fill="#000000" font-family="sans-serif" font-size="13" font-weight="bold" lengthAdjust="spacing" textLength="28" x="522.5" y="591.1514">loop</text><text fill="#000000" font-family="sans-serif" font-size="11" font-weight="bold" lengthAdjust="spacing" textLength="134" x="595.5" y="590.0752">[for all the other orders]</text><polygon fill="#181818" points="986.5,613.3594,996.5,617.3594,986.5,621.3594,990.5,617.3594" style="stroke:#181818;stroke-width:1.0;"/><line style="stroke:#181818;stroke-width:1.0;" x1="563" x2="992.5" y1="617.3594" y2="617.3594"/><text fill="#000000" font-family="sans-serif" font-size="13" font-weight="bold" lengthAdjust="spacing" textLength="32" x="570" y="612.5029">30.11</text><text fill="#000000" font-family="sans-serif" font-size="13" lengthAdjust="spacing" textLength="72" x="606" y="612.5029">rejectOrder()</text><path d="M964,632.3594 L1025,632.3594 L1025,640.7109 L1015,650.7109 L964,650.7109 L964,632.3594 " fill="#EEEEEE" style="stroke:#000000;stroke-width:1.5;"/><rect fill="none" height="190.4063" style="stroke:#000000;stroke-width:1.5;" width="471" x="964" y="632.3594"/><text fill="#000000" font-family="sans-serif" font-size="13" font-weight="bold" lengthAdjust="spacing" textLength="16" x="979" y="646.8545">alt</text><text fill="#000000" font-family="sans-serif" font-size="11" font-weight="bold" lengthAdjust="spacing" textLength="149" x="1040" y="645.7783">[acceptanceAnswer != null]</text><line style="stroke:#181818;stroke-width:1.0;" x1="1008.5" x2="1055.5" y1="668.0625" y2="668.0625"/><line style="stroke:#181818;stroke-width:1.0;" x1="1055.5" x2="1055.5" y1="668.0625" y2="681.0625"/><line style="stroke:#181818;stroke-width:1.0;" x1="1014.5" x2="1055.5" y1="681.0625" y2="681.0625"/><polygon fill="#181818" points="1024.5,677.0625,1014.5,681.0625,1024.5,685.0625,1020.5,681.0625" style="stroke:#181818;stroke-width:1.0;"/><text fill="#000000" font-family="sans-serif" font-size="13" font-weight="bold" lengthAdjust="spacing" textLength="32" x="1020.5" y="663.2061">30.12</text><text fill="#000000" font-family="sans-serif" font-size="13" lengthAdjust="spacing" textLength="179" x="1056.5" y="663.2061">setAcceptanceAnswer(answer)</text><polygon fill="#181818" points="1366.5,712.4141,1376.5,716.4141,1366.5,720.4141,1370.5,716.4141" style="stroke:#181818;stroke-width:1.0;"/><line style="stroke:#181818;stroke-width:1.0;" x1="1013.5" x2="1372.5" y1="716.4141" y2="716.4141"/><text fill="#000000" font-family="sans-serif" font-size="13" font-weight="bold" lengthAdjust="spacing" textLength="32" x="1020.5" y="711.5576">30.13</text><text fill="#000000" font-family="sans-serif" font-size="13" lengthAdjust="spacing" textLength="310" x="1056.5" y="711.5576">sendOrderAcceptanceNotification(clientEmail,answer)</text><line style="stroke:#181818;stroke-width:1.0;stroke-dasharray:2.0,2.0;" x1="1013.5" x2="1055.5" y1="781.7656" y2="781.7656"/><line style="stroke:#181818;stroke-width:1.0;stroke-dasharray:2.0,2.0;" x1="1055.5" x2="1055.5" y1="781.7656" y2="794.7656"/><line style="stroke:#181818;stroke-width:1.0;stroke-dasharray:2.0,2.0;" x1="1008.5" x2="1055.5" y1="794.7656" y2="794.7656"/><polygon fill="#181818" points="1018.5,790.7656,1008.5,794.7656,1018.5,798.7656,1014.5,794.7656" style="stroke:#181818;stroke-width:1.0;"/><text fill="#000000" font-family="sans-serif" font-size="13" font-weight="bold" lengthAdjust="spacing" textLength="32" x="1020.5" y="776.9092">30.14</text><text fill="#000000" font-family="sans-serif" font-size="13" lengthAdjust="spacing" textLength="4" x="1056.5" y="776.9092"> </text><polygon fill="#181818" points="295,887.1172,285,891.1172,295,895.1172,291,891.1172" style="stroke:#181818;stroke-width:1.0;"/><line style="stroke:#181818;stroke-width:1.0;stroke-dasharray:2.0,2.0;" x1="289" x2="557" y1="891.1172" y2="891.1172"/><text fill="#000000" font-family="sans-serif" font-size="13" font-weight="bold" lengthAdjust="spacing" textLength="32" x="301" y="886.2607">30.15</text><text fill="#000000" font-family="sans-serif" font-size="13" lengthAdjust="spacing" textLength="49" x="337" y="886.2607">success</text><polygon fill="#181818" points="11,924.4688,1,928.4688,11,932.4688,7,928.4688" style="stroke:#181818;stroke-width:1.0;"/><line style="stroke:#181818;stroke-width:1.0;stroke-dasharray:2.0,2.0;" x1="5" x2="278" y1="928.4688" y2="928.4688"/><text fill="#000000" font-family="sans-serif" font-size="13" font-weight="bold" lengthAdjust="spacing" textLength="14" x="17" y="923.6123">31</text><text fill="#000000" font-family="sans-serif" font-size="13" lengthAdjust="spacing" textLength="49" x="35" y="923.6123">success</text><!--SRC=[hLN1ZjiW4BtxAwPxogwIgbLlKLCfQdhhDeVss0l5OuSk1WjmLvNoyOLn0ZWXkwaK3b5cc7blvZ4O-oHKpmpheDDAyvtH7O8p0rOsxlICFx4Mlxk_4i4WTqorCW-mErRhPw5QQ9YqM5MLzpl1HS-KWpkcb1uKnmwL-wcMiCxiEs0sEgPfsjHelWfBETkZGGdHAcGyihv74tD6CsMDTY5lutHCylzJnkR7jX0UOrEWxviDJgkX-uK6FhohmA_5fzWUBA76HYYaw3Nds7ifESwOiizeviSoxYcHSIV-C8T9dQerUkXXGnYGya4tXm8cz6_V4qvazvLa2Yp1wKTTevnTeCtLeftC4R6yDhuhGbXtdiR12bfqs-IObM23fC5Ruxd_6gvDo4XCmRmr3vV2Z-UNZWavCdrEZjjnFJm4AeEXWKp5UMfpdbToNq2Q3XZb5Ul8Z_9i9i9TUcqyH-nIwtGJKsK4TaJsg1PTGbiJs06p19O11P1lseb6SEQ4LW5ArIVbvG6pJAiv53doSDh97QHcB7lm7DQUYZa1A2fDJYALxb04h5Q-X51o5NV3abhtq6ZZGoMudR_A_iUCIjjfQ55QWx_zzvYimr16xeAeaxfEJWJUh40DKfvp_izHNiD-WwDzaVBiX8_hnKCygUxOy_8ImlIaQUtt-ud3DnIalXwX110c95MOGsO3aNq3BivjTbC32hqbqmThV2y-BXQlWwKtgQh-0G00]--></g></svg>