<?xml version="1.0" encoding="UTF-8" standalone="no"?><svg xmlns="http://www.w3.org/2000/svg" xmlns:xlink="http://www.w3.org/1999/xlink" contentStyleType="text/css" height="772px" preserveAspectRatio="none" style="width:1810px;height:772px;background:#FFFFFF;" version="1.1" viewBox="0 0 1810 772" width="1810px" zoomAndPan="magnify"><defs/><g><rect fill="#FFFFFF" height="613.0313" style="stroke:#181818;stroke-width:1.0;" width="10" x="298" y="87.5703"/><rect fill="#FFFFFF" height="91.0547" style="stroke:#181818;stroke-width:1.0;" width="10" x="566" y="117.9219"/><rect fill="#FFFFFF" height="30.3516" style="stroke:#181818;stroke-width:1.0;" width="10" x="834" y="148.2734"/><rect fill="#FFFFFF" height="216.4609" style="stroke:#181818;stroke-width:1.0;" width="10" x="982" y="239.3281"/><rect fill="#FFFFFF" height="123.4063" style="stroke:#181818;stroke-width:1.0;" width="10" x="1266" y="295.0313"/><rect fill="#FFFFFF" height="184.1094" style="stroke:#181818;stroke-width:1.0;" width="10" x="1266" y="486.1406"/><rect fill="#FFFFFF" height="30.3516" style="stroke:#181818;stroke-width:1.0;" width="10" x="1550" y="350.7344"/><rect fill="#FFFFFF" height="123.4063" style="stroke:#181818;stroke-width:1.0;" width="10" x="1550" y="516.4922"/><rect fill="#FFFFFF" height="30.3516" style="stroke:#181818;stroke-width:1.0;" width="10" x="1731" y="572.1953"/><rect fill="none" height="172.1094" style="stroke:#000000;stroke-width:1.5;" width="736" x="908.5" y="254.3281"/><rect fill="none" height="79.0547" style="stroke:#000000;stroke-width:1.5;" width="408" x="1226.5" y="310.0313"/><rect fill="none" height="79.0547" style="stroke:#000000;stroke-width:1.5;" width="329" x="1475.5" y="531.4922"/><line style="stroke:#181818;stroke-width:0.5;stroke-dasharray:5.0,5.0;" x1="302.5" x2="302.5" y1="55.2188" y2="718.6016"/><line style="stroke:#181818;stroke-width:0.5;stroke-dasharray:5.0,5.0;" x1="570.5" x2="570.5" y1="55.2188" y2="718.6016"/><line style="stroke:#181818;stroke-width:0.5;stroke-dasharray:5.0,5.0;" x1="838.5" x2="838.5" y1="55.2188" y2="718.6016"/><line style="stroke:#181818;stroke-width:0.5;stroke-dasharray:5.0,5.0;" x1="986.5" x2="986.5" y1="55.2188" y2="718.6016"/><line style="stroke:#181818;stroke-width:0.5;stroke-dasharray:5.0,5.0;" x1="1270.5" x2="1270.5" y1="55.2188" y2="718.6016"/><line style="stroke:#181818;stroke-width:0.5;stroke-dasharray:5.0,5.0;" x1="1554.5" x2="1554.5" y1="55.2188" y2="718.6016"/><line style="stroke:#181818;stroke-width:0.5;stroke-dasharray:5.0,5.0;" x1="1735.5" x2="1735.5" y1="55.2188" y2="718.6016"/><rect fill="#E3E3E3" height="31.6094" rx="2.5" ry="2.5" style="stroke:#181818;stroke-width:0.5;" width="167" x="219.5" y="22.6094"/><text fill="#000000" font-family="sans-serif" font-size="14" lengthAdjust="spacing" textLength="153" x="226.5" y="44.1426">:AcceptOrdersController</text><rect fill="#E3E3E3" height="31.6094" rx="2.5" ry="2.5" style="stroke:#181818;stroke-width:0.5;" width="167" x="219.5" y="717.6016"/><text fill="#000000" font-family="sans-serif" font-size="14" lengthAdjust="spacing" textLength="153" x="226.5" y="739.1348">:AcceptOrdersController</text><rect fill="#E3E3E3" height="49.2188" rx="2.5" ry="2.5" style="stroke:#181818;stroke-width:0.5;" width="165" x="488.5" y="5"/><text fill="#000000" font-family="sans-serif" font-size="14" lengthAdjust="spacing" textLength="142" x="500" y="26.5332">announcementMapper</text><text fill="#000000" font-family="sans-serif" font-size="14" lengthAdjust="spacing" textLength="151" x="495.5" y="44.1426">: AnnouncementMapper</text><rect fill="#E3E3E3" height="49.2188" rx="2.5" ry="2.5" style="stroke:#181818;stroke-width:0.5;" width="165" x="488.5" y="717.6016"/><text fill="#000000" font-family="sans-serif" font-size="14" lengthAdjust="spacing" textLength="142" x="500" y="739.1348">announcementMapper</text><text fill="#000000" font-family="sans-serif" font-size="14" lengthAdjust="spacing" textLength="151" x="495.5" y="756.7441">: AnnouncementMapper</text><rect fill="#E3E3E3" height="49.2188" rx="2.5" ry="2.5" style="stroke:#181818;stroke-width:0.5;" width="139" x="769.5" y="5"/><text fill="#000000" font-family="sans-serif" font-size="14" lengthAdjust="spacing" textLength="116" x="781" y="26.5332">announcementDto</text><text fill="#000000" font-family="sans-serif" font-size="14" lengthAdjust="spacing" textLength="125" x="776.5" y="44.1426">: AnnouncementDto</text><rect fill="#E3E3E3" height="49.2188" rx="2.5" ry="2.5" style="stroke:#181818;stroke-width:0.5;" width="139" x="769.5" y="717.6016"/><text fill="#000000" font-family="sans-serif" font-size="14" lengthAdjust="spacing" textLength="116" x="781" y="739.1348">announcementDto</text><text fill="#000000" font-family="sans-serif" font-size="14" lengthAdjust="spacing" textLength="125" x="776.5" y="756.7441">: AnnouncementDto</text><rect fill="#E3E3E3" height="49.2188" rx="2.5" ry="2.5" style="stroke:#181818;stroke-width:0.5;" width="137" x="918.5" y="5"/><text fill="#000000" font-family="sans-serif" font-size="14" lengthAdjust="spacing" textLength="114" x="930" y="26.5332">agencyRepository</text><text fill="#000000" font-family="sans-serif" font-size="14" lengthAdjust="spacing" textLength="123" x="925.5" y="44.1426">: AgencyRepository</text><rect fill="#E3E3E3" height="49.2188" rx="2.5" ry="2.5" style="stroke:#181818;stroke-width:0.5;" width="137" x="918.5" y="717.6016"/><text fill="#000000" font-family="sans-serif" font-size="14" lengthAdjust="spacing" textLength="114" x="930" y="739.1348">agencyRepository</text><text fill="#000000" font-family="sans-serif" font-size="14" lengthAdjust="spacing" textLength="123" x="925.5" y="756.7441">: AgencyRepository</text><rect fill="#E3E3E3" height="49.2188" rx="2.5" ry="2.5" style="stroke:#181818;stroke-width:0.5;" width="69" x="1236.5" y="5"/><text fill="#000000" font-family="sans-serif" font-size="14" lengthAdjust="spacing" textLength="46" x="1248" y="26.5332">agency</text><text fill="#000000" font-family="sans-serif" font-size="14" lengthAdjust="spacing" textLength="55" x="1243.5" y="44.1426">: Agency</text><rect fill="#E3E3E3" height="49.2188" rx="2.5" ry="2.5" style="stroke:#181818;stroke-width:0.5;" width="69" x="1236.5" y="717.6016"/><text fill="#000000" font-family="sans-serif" font-size="14" lengthAdjust="spacing" textLength="46" x="1248" y="739.1348">agency</text><text fill="#000000" font-family="sans-serif" font-size="14" lengthAdjust="spacing" textLength="55" x="1243.5" y="756.7441">: Agency</text><rect fill="#E3E3E3" height="49.2188" rx="2.5" ry="2.5" style="stroke:#181818;stroke-width:0.5;" width="139" x="1485.5" y="5"/><text fill="#000000" font-family="sans-serif" font-size="14" lengthAdjust="spacing" textLength="116" x="1497" y="26.5332">announcementList</text><text fill="#000000" font-family="sans-serif" font-size="14" lengthAdjust="spacing" textLength="125" x="1492.5" y="44.1426">: AnnouncementList</text><rect fill="#E3E3E3" height="49.2188" rx="2.5" ry="2.5" style="stroke:#181818;stroke-width:0.5;" width="139" x="1485.5" y="717.6016"/><text fill="#000000" font-family="sans-serif" font-size="14" lengthAdjust="spacing" textLength="116" x="1497" y="739.1348">announcementList</text><text fill="#000000" font-family="sans-serif" font-size="14" lengthAdjust="spacing" textLength="125" x="1492.5" y="756.7441">: AnnouncementList</text><rect fill="#E3E3E3" height="49.2188" rx="2.5" ry="2.5" style="stroke:#181818;stroke-width:0.5;" width="117" x="1677.5" y="5"/><text fill="#000000" font-family="sans-serif" font-size="14" lengthAdjust="spacing" textLength="94" x="1689" y="26.5332">announcement</text><text fill="#000000" font-family="sans-serif" font-size="14" lengthAdjust="spacing" textLength="103" x="1684.5" y="44.1426">: Announcement</text><rect fill="#E3E3E3" height="49.2188" rx="2.5" ry="2.5" style="stroke:#181818;stroke-width:0.5;" width="117" x="1677.5" y="717.6016"/><text fill="#000000" font-family="sans-serif" font-size="14" lengthAdjust="spacing" textLength="94" x="1689" y="739.1348">announcement</text><text fill="#000000" font-family="sans-serif" font-size="14" lengthAdjust="spacing" textLength="103" x="1684.5" y="756.7441">: Announcement</text><rect fill="#FFFFFF" height="613.0313" style="stroke:#181818;stroke-width:1.0;" width="10" x="298" y="87.5703"/><rect fill="#FFFFFF" height="91.0547" style="stroke:#181818;stroke-width:1.0;" width="10" x="566" y="117.9219"/><rect fill="#FFFFFF" height="30.3516" style="stroke:#181818;stroke-width:1.0;" width="10" x="834" y="148.2734"/><rect fill="#FFFFFF" height="216.4609" style="stroke:#181818;stroke-width:1.0;" width="10" x="982" y="239.3281"/><rect fill="#FFFFFF" height="123.4063" style="stroke:#181818;stroke-width:1.0;" width="10" x="1266" y="295.0313"/><rect fill="#FFFFFF" height="184.1094" style="stroke:#181818;stroke-width:1.0;" width="10" x="1266" y="486.1406"/><rect fill="#FFFFFF" height="30.3516" style="stroke:#181818;stroke-width:1.0;" width="10" x="1550" y="350.7344"/><rect fill="#FFFFFF" height="123.4063" style="stroke:#181818;stroke-width:1.0;" width="10" x="1550" y="516.4922"/><rect fill="#FFFFFF" height="30.3516" style="stroke:#181818;stroke-width:1.0;" width="10" x="1731" y="572.1953"/><polygon fill="#181818" points="286,83.5703,296,87.5703,286,91.5703,290,87.5703" style="stroke:#181818;stroke-width:1.0;"/><line style="stroke:#181818;stroke-width:1.0;" x1="0" x2="292" y1="87.5703" y2="87.5703"/><text fill="#000000" font-family="sans-serif" font-size="13" font-weight="bold" lengthAdjust="spacing" textLength="7" x="7" y="82.7139">1</text><text fill="#000000" font-family="sans-serif" font-size="13" lengthAdjust="spacing" textLength="268" x="18" y="82.7139">getAnnouncementFromDto(announcementDto)</text><polygon fill="#181818" points="554,113.9219,564,117.9219,554,121.9219,558,117.9219" style="stroke:#181818;stroke-width:1.0;"/><line style="stroke:#181818;stroke-width:1.0;" x1="308" x2="560" y1="117.9219" y2="117.9219"/><text fill="#000000" font-family="sans-serif" font-size="13" font-weight="bold" lengthAdjust="spacing" textLength="7" x="315" y="113.0654">2</text><text fill="#000000" font-family="sans-serif" font-size="13" lengthAdjust="spacing" textLength="228" x="326" y="113.0654">getAnnouncementId(announcementDto)</text><polygon fill="#181818" points="822,144.2734,832,148.2734,822,152.2734,826,148.2734" style="stroke:#181818;stroke-width:1.0;"/><line style="stroke:#181818;stroke-width:1.0;" x1="576" x2="828" y1="148.2734" y2="148.2734"/><text fill="#000000" font-family="sans-serif" font-size="13" font-weight="bold" lengthAdjust="spacing" textLength="7" x="583" y="143.417">3</text><text fill="#000000" font-family="sans-serif" font-size="13" lengthAdjust="spacing" textLength="228" x="594" y="143.417">getAnnouncementId(announcementDto)</text><polygon fill="#181818" points="587,174.625,577,178.625,587,182.625,583,178.625" style="stroke:#181818;stroke-width:1.0;"/><line style="stroke:#181818;stroke-width:1.0;stroke-dasharray:2.0,2.0;" x1="581" x2="838" y1="178.625" y2="178.625"/><text fill="#000000" font-family="sans-serif" font-size="13" font-weight="bold" lengthAdjust="spacing" textLength="7" x="593" y="173.7686">4</text><text fill="#000000" font-family="sans-serif" font-size="13" lengthAdjust="spacing" textLength="95" x="604" y="173.7686">announcementId</text><polygon fill="#181818" points="319,204.9766,309,208.9766,319,212.9766,315,208.9766" style="stroke:#181818;stroke-width:1.0;"/><line style="stroke:#181818;stroke-width:1.0;stroke-dasharray:2.0,2.0;" x1="313" x2="570" y1="208.9766" y2="208.9766"/><text fill="#000000" font-family="sans-serif" font-size="13" font-weight="bold" lengthAdjust="spacing" textLength="7" x="325" y="204.1201">5</text><text fill="#000000" font-family="sans-serif" font-size="13" lengthAdjust="spacing" textLength="95" x="336" y="204.1201">announcementId</text><polygon fill="#181818" points="970,235.3281,980,239.3281,970,243.3281,974,239.3281" style="stroke:#181818;stroke-width:1.0;"/><line style="stroke:#181818;stroke-width:1.0;" x1="308" x2="976" y1="239.3281" y2="239.3281"/><text fill="#000000" font-family="sans-serif" font-size="13" font-weight="bold" lengthAdjust="spacing" textLength="7" x="315" y="234.4717">6</text><text fill="#000000" font-family="sans-serif" font-size="13" lengthAdjust="spacing" textLength="278" x="326" y="234.4717">getAgencyByAnnouncementId(announcementId)</text><path d="M908.5,254.3281 L981.5,254.3281 L981.5,262.6797 L971.5,272.6797 L908.5,272.6797 L908.5,254.3281 " fill="#EEEEEE" style="stroke:#000000;stroke-width:1.5;"/><rect fill="none" height="172.1094" style="stroke:#000000;stroke-width:1.5;" width="736" x="908.5" y="254.3281"/><text fill="#000000" font-family="sans-serif" font-size="13" font-weight="bold" lengthAdjust="spacing" textLength="28" x="923.5" y="268.8232">loop</text><text fill="#000000" font-family="sans-serif" font-size="11" font-weight="bold" lengthAdjust="spacing" textLength="95" x="996.5" y="267.7471">[for each agency]</text><polygon fill="#181818" points="1254,291.0313,1264,295.0313,1254,299.0313,1258,295.0313" style="stroke:#181818;stroke-width:1.0;"/><line style="stroke:#181818;stroke-width:1.0;" x1="992" x2="1260" y1="295.0313" y2="295.0313"/><text fill="#000000" font-family="sans-serif" font-size="13" font-weight="bold" lengthAdjust="spacing" textLength="7" x="999" y="290.1748">7</text><text fill="#000000" font-family="sans-serif" font-size="13" lengthAdjust="spacing" textLength="244" x="1010" y="290.1748">anyAnnouncementHasId(announcementId)</text><path d="M1226.5,310.0313 L1299.5,310.0313 L1299.5,318.3828 L1289.5,328.3828 L1226.5,328.3828 L1226.5,310.0313 " fill="#EEEEEE" style="stroke:#000000;stroke-width:1.5;"/><rect fill="none" height="79.0547" style="stroke:#000000;stroke-width:1.5;" width="408" x="1226.5" y="310.0313"/><text fill="#000000" font-family="sans-serif" font-size="13" font-weight="bold" lengthAdjust="spacing" textLength="28" x="1241.5" y="324.5264">loop</text><text fill="#000000" font-family="sans-serif" font-size="11" font-weight="bold" lengthAdjust="spacing" textLength="139" x="1314.5" y="323.4502">[for each announcement]</text><polygon fill="#181818" points="1538,346.7344,1548,350.7344,1538,354.7344,1542,350.7344" style="stroke:#181818;stroke-width:1.0;"/><line style="stroke:#181818;stroke-width:1.0;" x1="1276" x2="1544" y1="350.7344" y2="350.7344"/><text fill="#000000" font-family="sans-serif" font-size="13" font-weight="bold" lengthAdjust="spacing" textLength="7" x="1283" y="345.8779">8</text><text fill="#000000" font-family="sans-serif" font-size="13" lengthAdjust="spacing" textLength="244" x="1294" y="345.8779">anyAnnouncementHasId(announcementId)</text><polygon fill="#181818" points="1287,377.0859,1277,381.0859,1287,385.0859,1283,381.0859" style="stroke:#181818;stroke-width:1.0;"/><line style="stroke:#181818;stroke-width:1.0;stroke-dasharray:2.0,2.0;" x1="1281" x2="1554" y1="381.0859" y2="381.0859"/><text fill="#000000" font-family="sans-serif" font-size="13" font-weight="bold" lengthAdjust="spacing" textLength="7" x="1293" y="376.2295">9</text><text fill="#000000" font-family="sans-serif" font-size="13" lengthAdjust="spacing" textLength="53" x="1304" y="376.2295">true/false</text><polygon fill="#181818" points="1003,414.4375,993,418.4375,1003,422.4375,999,418.4375" style="stroke:#181818;stroke-width:1.0;"/><line style="stroke:#181818;stroke-width:1.0;stroke-dasharray:2.0,2.0;" x1="997" x2="1270" y1="418.4375" y2="418.4375"/><text fill="#000000" font-family="sans-serif" font-size="13" font-weight="bold" lengthAdjust="spacing" textLength="14" x="1009" y="413.5811">10</text><text fill="#000000" font-family="sans-serif" font-size="13" lengthAdjust="spacing" textLength="53" x="1027" y="413.5811">true/false</text><polygon fill="#181818" points="319,451.7891,309,455.7891,319,459.7891,315,455.7891" style="stroke:#181818;stroke-width:1.0;"/><line style="stroke:#181818;stroke-width:1.0;stroke-dasharray:2.0,2.0;" x1="313" x2="986" y1="455.7891" y2="455.7891"/><text fill="#000000" font-family="sans-serif" font-size="13" font-weight="bold" lengthAdjust="spacing" textLength="14" x="325" y="450.9326">11</text><text fill="#000000" font-family="sans-serif" font-size="13" lengthAdjust="spacing" textLength="42" x="343" y="450.9326">agency</text><polygon fill="#181818" points="1254,482.1406,1264,486.1406,1254,490.1406,1258,486.1406" style="stroke:#181818;stroke-width:1.0;"/><line style="stroke:#181818;stroke-width:1.0;" x1="308" x2="1260" y1="486.1406" y2="486.1406"/><text fill="#000000" font-family="sans-serif" font-size="13" font-weight="bold" lengthAdjust="spacing" textLength="14" x="315" y="481.2842">12</text><text fill="#000000" font-family="sans-serif" font-size="13" lengthAdjust="spacing" textLength="236" x="333" y="481.2842">getAnnouncementByID(announcementId)</text><polygon fill="#181818" points="1538,512.4922,1548,516.4922,1538,520.4922,1542,516.4922" style="stroke:#181818;stroke-width:1.0;"/><line style="stroke:#181818;stroke-width:1.0;" x1="1276" x2="1544" y1="516.4922" y2="516.4922"/><text fill="#000000" font-family="sans-serif" font-size="13" font-weight="bold" lengthAdjust="spacing" textLength="14" x="1283" y="511.6357">13</text><text fill="#000000" font-family="sans-serif" font-size="13" lengthAdjust="spacing" textLength="236" x="1301" y="511.6357">getAnnouncementByID(announcementId)</text><path d="M1475.5,531.4922 L1548.5,531.4922 L1548.5,539.8438 L1538.5,549.8438 L1475.5,549.8438 L1475.5,531.4922 " fill="#EEEEEE" style="stroke:#000000;stroke-width:1.5;"/><rect fill="none" height="79.0547" style="stroke:#000000;stroke-width:1.5;" width="329" x="1475.5" y="531.4922"/><text fill="#000000" font-family="sans-serif" font-size="13" font-weight="bold" lengthAdjust="spacing" textLength="28" x="1490.5" y="545.9873">loop</text><text fill="#000000" font-family="sans-serif" font-size="11" font-weight="bold" lengthAdjust="spacing" textLength="139" x="1563.5" y="544.9111">[for each announcement]</text><polygon fill="#181818" points="1719,568.1953,1729,572.1953,1719,576.1953,1723,572.1953" style="stroke:#181818;stroke-width:1.0;"/><line style="stroke:#181818;stroke-width:1.0;" x1="1560" x2="1725" y1="572.1953" y2="572.1953"/><text fill="#000000" font-family="sans-serif" font-size="13" font-weight="bold" lengthAdjust="spacing" textLength="14" x="1567" y="567.3389">14</text><text fill="#000000" font-family="sans-serif" font-size="13" lengthAdjust="spacing" textLength="134" x="1585" y="567.3389">hasId(announcementId)</text><polygon fill="#181818" points="1571,598.5469,1561,602.5469,1571,606.5469,1567,602.5469" style="stroke:#181818;stroke-width:1.0;"/><line style="stroke:#181818;stroke-width:1.0;stroke-dasharray:2.0,2.0;" x1="1565" x2="1735" y1="602.5469" y2="602.5469"/><text fill="#000000" font-family="sans-serif" font-size="13" font-weight="bold" lengthAdjust="spacing" textLength="14" x="1577" y="597.6904">15</text><text fill="#000000" font-family="sans-serif" font-size="13" lengthAdjust="spacing" textLength="53" x="1595" y="597.6904">true/false</text><polygon fill="#181818" points="1287,635.8984,1277,639.8984,1287,643.8984,1283,639.8984" style="stroke:#181818;stroke-width:1.0;"/><line style="stroke:#181818;stroke-width:1.0;stroke-dasharray:2.0,2.0;" x1="1281" x2="1554" y1="639.8984" y2="639.8984"/><text fill="#000000" font-family="sans-serif" font-size="13" font-weight="bold" lengthAdjust="spacing" textLength="14" x="1293" y="635.042">16</text><text fill="#000000" font-family="sans-serif" font-size="13" lengthAdjust="spacing" textLength="85" x="1311" y="635.042">announcement</text><polygon fill="#181818" points="319,666.25,309,670.25,319,674.25,315,670.25" style="stroke:#181818;stroke-width:1.0;"/><line style="stroke:#181818;stroke-width:1.0;stroke-dasharray:2.0,2.0;" x1="313" x2="1270" y1="670.25" y2="670.25"/><text fill="#000000" font-family="sans-serif" font-size="13" font-weight="bold" lengthAdjust="spacing" textLength="14" x="325" y="665.3936">17</text><text fill="#000000" font-family="sans-serif" font-size="13" lengthAdjust="spacing" textLength="85" x="343" y="665.3936">announcement</text><polygon fill="#181818" points="11,696.6016,1,700.6016,11,704.6016,7,700.6016" style="stroke:#181818;stroke-width:1.0;"/><line style="stroke:#181818;stroke-width:1.0;stroke-dasharray:2.0,2.0;" x1="5" x2="302" y1="700.6016" y2="700.6016"/><text fill="#000000" font-family="sans-serif" font-size="13" font-weight="bold" lengthAdjust="spacing" textLength="14" x="17" y="695.7451">18</text><text fill="#000000" font-family="sans-serif" font-size="13" lengthAdjust="spacing" textLength="85" x="35" y="695.7451">announcement</text><!--SRC=[dLJ1RjmW4Btp5IYdzB3gtOeYRNQJTgMaYRQvLEg5uedNYWqMi8dyzyM3ZG6lrqauuM7Ucs7UC_gr50rJhAQr598VbAo16dK4elr9m_WhA-2tQIkW2hXXegZ217rWkNmlHK5VMAM147OqKXphVw28pJ0bBnic3Bt8rfn3OnvL3aflf31ALXMe2yeqtJplx-Di9eGy2Wur2FF0cWRKNv7HzIIAS1j-M3yztUxdERP6fWGsDA2tpuy9j031spqqKfT6gXQnISo12niuXHqHBk_7xQ_Dd_d-xajjqWQxsD1Xjvz7fyW1XG52g5shQvnoHWimOUgTLTrEuZ8PrZS4CMxADsR02OIXRjUH-PbF67Vv0jae5yRzPqzhnVWIPoVYG6ZtT1LtoI8wJCnX3ZyqvAUsY0vlv6VKcSFT1PrmqvwvqovFhuJMmbYtAYaR-Y8LjMKFr9biFCLah8b6evab4b6vdqpFL8ohEgFIO2ML0mOIvVMbtTWxmtwsYLHHD7rKmSMSj5WjmmVhktjxmjHO7MIApa7aU36ITZ_gTe8vP7M38XD24kZH-yVAqGkMaemQUzDu0PD_uARTRHSS4xGq4ODcNo1C9uTMMFA2L-dQlq6s-E63_ejUhPxESTXf-hiiQ3CXITIP-8Z6lpWvPw70AOEuvw2zA5UhrOctX0IP-CZ-1m00]--></g></svg>