<?xml version="1.0" encoding="UTF-8" standalone="no"?><svg xmlns="http://www.w3.org/2000/svg" xmlns:xlink="http://www.w3.org/1999/xlink" contentStyleType="text/css" height="1041px" preserveAspectRatio="none" style="width:1329px;height:1041px;background:#FFFFFF;" version="1.1" viewBox="0 0 1329 1041" width="1329px" zoomAndPan="magnify"><defs/><g><rect fill="#FFFFFF" height="881.25" style="stroke:#181818;stroke-width:1.0;" width="10" x="236" y="87.5703"/><rect fill="#FFFFFF" height="518.5703" style="stroke:#181818;stroke-width:1.0;" width="10" x="486" y="419.8984"/><rect fill="#FFFFFF" height="271.625" style="stroke:#181818;stroke-width:1.0;" width="10" x="590" y="117.9219"/><rect fill="#FFFFFF" height="30" style="stroke:#181818;stroke-width:1.0;" width="10" x="812" y="148.2734"/><rect fill="#FFFFFF" height="30" style="stroke:#181818;stroke-width:1.0;" width="10" x="812" y="208.625"/><rect fill="#FFFFFF" height="30" style="stroke:#181818;stroke-width:1.0;" width="10" x="812" y="268.9766"/><rect fill="#FFFFFF" height="97.0547" style="stroke:#181818;stroke-width:1.0;" width="10" x="902.5" y="450.25"/><rect fill="#FFFFFF" height="196.0547" style="stroke:#181818;stroke-width:1.0;" width="10" x="902.5" y="681.0625"/><rect fill="#FFFFFF" height="85.3516" style="stroke:#181818;stroke-width:1.0;" width="10" x="907.5" y="744.7656"/><rect fill="#FFFFFF" height="30.3516" style="stroke:#181818;stroke-width:1.0;" width="10" x="1246.5" y="516.9531"/><rect fill="#FFFFFF" height="30" style="stroke:#181818;stroke-width:1.0;" width="10" x="1246.5" y="780.1172"/><rect fill="none" height="346.8125" style="stroke:#000000;stroke-width:1.5;" width="892.5" x="430.5" y="562.3047"/><rect fill="none" height="314.4609" style="stroke:#000000;stroke-width:1.5;" width="872.5" x="440.5" y="587.6563"/><rect fill="none" height="174.0547" style="stroke:#000000;stroke-width:1.5;" width="435" x="868" y="696.0625"/><line style="stroke:#181818;stroke-width:0.5;stroke-dasharray:5.0,5.0;" x1="240.5" x2="240.5" y1="55.2188" y2="986.8203"/><line style="stroke:#181818;stroke-width:0.5;stroke-dasharray:5.0,5.0;" x1="490.5" x2="490.5" y1="55.2188" y2="986.8203"/><line style="stroke:#181818;stroke-width:0.5;stroke-dasharray:5.0,5.0;" x1="594.5" x2="594.5" y1="55.2188" y2="986.8203"/><line style="stroke:#181818;stroke-width:0.5;stroke-dasharray:5.0,5.0;" x1="816.5" x2="816.5" y1="55.2188" y2="986.8203"/><line style="stroke:#181818;stroke-width:0.5;stroke-dasharray:5.0,5.0;" x1="907" x2="907" y1="347.0859" y2="986.8203"/><line style="stroke:#181818;stroke-width:0.5;stroke-dasharray:5.0,5.0;" x1="1251" x2="1251" y1="55.2188" y2="986.8203"/><rect fill="#E3E3E3" height="49.2188" rx="2.5" ry="2.5" style="stroke:#181818;stroke-width:0.5;" width="117" x="182.5" y="5"/><text fill="#000000" font-family="sans-serif" font-size="14" lengthAdjust="spacing" textLength="94" x="194" y="26.5332">announcement</text><text fill="#000000" font-family="sans-serif" font-size="14" lengthAdjust="spacing" textLength="103" x="189.5" y="44.1426">: Announcement</text><rect fill="#E3E3E3" height="49.2188" rx="2.5" ry="2.5" style="stroke:#181818;stroke-width:0.5;" width="117" x="182.5" y="985.8203"/><text fill="#000000" font-family="sans-serif" font-size="14" lengthAdjust="spacing" textLength="94" x="194" y="1007.3535">announcement</text><text fill="#000000" font-family="sans-serif" font-size="14" lengthAdjust="spacing" textLength="103" x="189.5" y="1024.9629">: Announcement</text><rect fill="#E3E3E3" height="49.2188" rx="2.5" ry="2.5" style="stroke:#181818;stroke-width:0.5;" width="81" x="450.5" y="5"/><text fill="#000000" font-family="sans-serif" font-size="14" lengthAdjust="spacing" textLength="56" x="463" y="26.5332">orderList</text><text fill="#000000" font-family="sans-serif" font-size="14" lengthAdjust="spacing" textLength="67" x="457.5" y="44.1426">: OrderList</text><rect fill="#E3E3E3" height="49.2188" rx="2.5" ry="2.5" style="stroke:#181818;stroke-width:0.5;" width="81" x="450.5" y="985.8203"/><text fill="#000000" font-family="sans-serif" font-size="14" lengthAdjust="spacing" textLength="56" x="463" y="1007.3535">orderList</text><text fill="#000000" font-family="sans-serif" font-size="14" lengthAdjust="spacing" textLength="67" x="457.5" y="1024.9629">: OrderList</text><rect fill="#E3E3E3" height="49.2188" rx="2.5" ry="2.5" style="stroke:#181818;stroke-width:0.5;" width="107" x="541.5" y="5"/><text fill="#000000" font-family="sans-serif" font-size="14" lengthAdjust="spacing" textLength="82" x="554" y="26.5332">orderMapper</text><text fill="#000000" font-family="sans-serif" font-size="14" lengthAdjust="spacing" textLength="93" x="548.5" y="44.1426">: OrderMapper</text><rect fill="#E3E3E3" height="49.2188" rx="2.5" ry="2.5" style="stroke:#181818;stroke-width:0.5;" width="107" x="541.5" y="985.8203"/><text fill="#000000" font-family="sans-serif" font-size="14" lengthAdjust="spacing" textLength="82" x="554" y="1007.3535">orderMapper</text><text fill="#000000" font-family="sans-serif" font-size="14" lengthAdjust="spacing" textLength="93" x="548.5" y="1024.9629">: OrderMapper</text><rect fill="#E3E3E3" height="49.2188" rx="2.5" ry="2.5" style="stroke:#181818;stroke-width:0.5;" width="81" x="776.5" y="5"/><text fill="#000000" font-family="sans-serif" font-size="14" lengthAdjust="spacing" textLength="56" x="789" y="26.5332">orderDto</text><text fill="#000000" font-family="sans-serif" font-size="14" lengthAdjust="spacing" textLength="67" x="783.5" y="44.1426">: OrderDto</text><rect fill="#E3E3E3" height="49.2188" rx="2.5" ry="2.5" style="stroke:#181818;stroke-width:0.5;" width="81" x="776.5" y="985.8203"/><text fill="#000000" font-family="sans-serif" font-size="14" lengthAdjust="spacing" textLength="56" x="789" y="1007.3535">orderDto</text><text fill="#000000" font-family="sans-serif" font-size="14" lengthAdjust="spacing" textLength="67" x="783.5" y="1024.9629">: OrderDto</text><rect fill="#E3E3E3" height="49.2188" rx="2.5" ry="2.5" style="stroke:#181818;stroke-width:0.5;" width="59" x="878" y="985.8203"/><text fill="#000000" font-family="sans-serif" font-size="14" lengthAdjust="spacing" textLength="34" x="890.5" y="1007.3535">order</text><text fill="#000000" font-family="sans-serif" font-size="14" lengthAdjust="spacing" textLength="45" x="885" y="1024.9629">: Order</text><rect fill="#E3E3E3" height="31.6094" rx="2.5" ry="2.5" style="stroke:#181818;stroke-width:0.5;" width="83" x="1210" y="22.6094"/><text fill="#000000" font-family="sans-serif" font-size="14" lengthAdjust="spacing" textLength="69" x="1217" y="44.1426">Notification</text><rect fill="#E3E3E3" height="31.6094" rx="2.5" ry="2.5" style="stroke:#181818;stroke-width:0.5;" width="83" x="1210" y="985.8203"/><text fill="#000000" font-family="sans-serif" font-size="14" lengthAdjust="spacing" textLength="69" x="1217" y="1007.3535">Notification</text><rect fill="#FFFFFF" height="881.25" style="stroke:#181818;stroke-width:1.0;" width="10" x="236" y="87.5703"/><rect fill="#FFFFFF" height="518.5703" style="stroke:#181818;stroke-width:1.0;" width="10" x="486" y="419.8984"/><rect fill="#FFFFFF" height="271.625" style="stroke:#181818;stroke-width:1.0;" width="10" x="590" y="117.9219"/><rect fill="#FFFFFF" height="30" style="stroke:#181818;stroke-width:1.0;" width="10" x="812" y="148.2734"/><rect fill="#FFFFFF" height="30" style="stroke:#181818;stroke-width:1.0;" width="10" x="812" y="208.625"/><rect fill="#FFFFFF" height="30" style="stroke:#181818;stroke-width:1.0;" width="10" x="812" y="268.9766"/><rect fill="#FFFFFF" height="97.0547" style="stroke:#181818;stroke-width:1.0;" width="10" x="902.5" y="450.25"/><rect fill="#FFFFFF" height="196.0547" style="stroke:#181818;stroke-width:1.0;" width="10" x="902.5" y="681.0625"/><rect fill="#FFFFFF" height="85.3516" style="stroke:#181818;stroke-width:1.0;" width="10" x="907.5" y="744.7656"/><rect fill="#FFFFFF" height="30.3516" style="stroke:#181818;stroke-width:1.0;" width="10" x="1246.5" y="516.9531"/><rect fill="#FFFFFF" height="30" style="stroke:#181818;stroke-width:1.0;" width="10" x="1246.5" y="780.1172"/><polygon fill="#181818" points="224,83.5703,234,87.5703,224,91.5703,228,87.5703" style="stroke:#181818;stroke-width:1.0;"/><line style="stroke:#181818;stroke-width:1.0;" x1="0" x2="230" y1="87.5703" y2="87.5703"/><text fill="#000000" font-family="sans-serif" font-size="13" lengthAdjust="spacing" textLength="217" x="7" y="82.7139">defineOrderAcceptance(answer,order)</text><polygon fill="#181818" points="578,113.9219,588,117.9219,578,121.9219,582,117.9219" style="stroke:#181818;stroke-width:1.0;"/><line style="stroke:#181818;stroke-width:1.0;" x1="246" x2="584" y1="117.9219" y2="117.9219"/><text fill="#000000" font-family="sans-serif" font-size="13" lengthAdjust="spacing" textLength="103" x="253" y="113.0654">toModel(orderDto)</text><polygon fill="#181818" points="800,144.2734,810,148.2734,800,152.2734,804,148.2734" style="stroke:#181818;stroke-width:1.0;"/><line style="stroke:#181818;stroke-width:1.0;" x1="600" x2="806" y1="148.2734" y2="148.2734"/><text fill="#000000" font-family="sans-serif" font-size="13" lengthAdjust="spacing" textLength="193" x="607" y="143.417">orderAmount = getOrderAmount()</text><polygon fill="#181818" points="800,204.625,810,208.625,800,212.625,804,208.625" style="stroke:#181818;stroke-width:1.0;"/><line style="stroke:#181818;stroke-width:1.0;" x1="600" x2="806" y1="208.625" y2="208.625"/><text fill="#000000" font-family="sans-serif" font-size="13" lengthAdjust="spacing" textLength="157" x="607" y="203.7686">orderDate = getOrderDate()</text><polygon fill="#181818" points="800,264.9766,810,268.9766,800,272.9766,804,268.9766" style="stroke:#181818;stroke-width:1.0;"/><line style="stroke:#181818;stroke-width:1.0;" x1="600" x2="806" y1="268.9766" y2="268.9766"/><text fill="#000000" font-family="sans-serif" font-size="13" lengthAdjust="spacing" textLength="172" x="607" y="264.1201">clientEmail = getClientEmail()</text><polygon fill="#181818" points="866,325.3281,876,329.3281,866,333.3281,870,329.3281" style="stroke:#181818;stroke-width:1.0;"/><line style="stroke:#181818;stroke-width:1.0;" x1="600" x2="872" y1="329.3281" y2="329.3281"/><text fill="#000000" font-family="sans-serif" font-size="13" lengthAdjust="spacing" textLength="254" x="607" y="324.4717">create(orderAmount, orderDate, clientEmail)</text><rect fill="#E3E3E3" height="49.2188" rx="2.5" ry="2.5" style="stroke:#181818;stroke-width:0.5;" width="59" x="878" y="306.9766"/><text fill="#000000" font-family="sans-serif" font-size="14" lengthAdjust="spacing" textLength="34" x="890.5" y="328.5098">order</text><text fill="#000000" font-family="sans-serif" font-size="14" lengthAdjust="spacing" textLength="45" x="885" y="346.1191">: Order</text><polygon fill="#181818" points="257,385.5469,247,389.5469,257,393.5469,253,389.5469" style="stroke:#181818;stroke-width:1.0;"/><line style="stroke:#181818;stroke-width:1.0;stroke-dasharray:2.0,2.0;" x1="251" x2="594" y1="389.5469" y2="389.5469"/><text fill="#000000" font-family="sans-serif" font-size="13" lengthAdjust="spacing" textLength="29" x="263" y="384.6904">order</text><polygon fill="#181818" points="474,415.8984,484,419.8984,474,423.8984,478,419.8984" style="stroke:#181818;stroke-width:1.0;"/><line style="stroke:#181818;stroke-width:1.0;" x1="246" x2="480" y1="419.8984" y2="419.8984"/><text fill="#000000" font-family="sans-serif" font-size="13" lengthAdjust="spacing" textLength="221" x="253" y="415.042">defineOrderAcceptance(answer, order)</text><polygon fill="#181818" points="890.5,446.25,900.5,450.25,890.5,454.25,894.5,450.25" style="stroke:#181818;stroke-width:1.0;"/><line style="stroke:#181818;stroke-width:1.0;" x1="496" x2="896.5" y1="450.25" y2="450.25"/><text fill="#000000" font-family="sans-serif" font-size="13" lengthAdjust="spacing" textLength="179" x="503" y="445.3936">setAcceptanceAnswer(answer)</text><path d="M917,463.25 L917,489.25 L1185,489.25 L1185,473.25 L1175,463.25 L917,463.25 " fill="#FAFAFA" style="stroke:#181818;stroke-width:0.5;"/><path d="M1175,463.25 L1175,473.25 L1185,473.25 L1175,463.25 " fill="#FAFAFA" style="stroke:#181818;stroke-width:0.5;"/><text fill="#000000" font-family="sans-serif" font-size="13" lengthAdjust="spacing" textLength="47" x="923" y="481.7451">Check if</text><text fill="#000000" font-family="sans-serif" font-size="13" font-weight="bold" lengthAdjust="spacing" textLength="20" x="974" y="481.7451">file</text><text fill="#000000" font-family="sans-serif" font-size="13" lengthAdjust="spacing" textLength="80" x="998" y="481.7451">needs to have</text><text fill="#000000" font-family="sans-serif" font-size="13" font-weight="bold" lengthAdjust="spacing" textLength="88" x="1082" y="481.7451">specific name</text><polygon fill="#181818" points="1234.5,512.9531,1244.5,516.9531,1234.5,520.9531,1238.5,516.9531" style="stroke:#181818;stroke-width:1.0;"/><line style="stroke:#181818;stroke-width:1.0;" x1="912.5" x2="1240.5" y1="516.9531" y2="516.9531"/><text fill="#000000" font-family="sans-serif" font-size="13" lengthAdjust="spacing" textLength="314" x="919.5" y="512.0967">sendOrderAcceptanceNotification(clientEmail, answer)</text><polygon fill="#181818" points="918.5,543.3047,908.5,547.3047,918.5,551.3047,914.5,547.3047" style="stroke:#181818;stroke-width:1.0;"/><line style="stroke:#181818;stroke-width:1.0;stroke-dasharray:2.0,2.0;" x1="912.5" x2="1250.5" y1="547.3047" y2="547.3047"/><text fill="#000000" font-family="sans-serif" font-size="13" lengthAdjust="spacing" textLength="49" x="924.5" y="542.4482">success</text><path d="M430.5,562.3047 L491.5,562.3047 L491.5,570.6563 L481.5,580.6563 L430.5,580.6563 L430.5,562.3047 " fill="#EEEEEE" style="stroke:#000000;stroke-width:1.5;"/><rect fill="none" height="346.8125" style="stroke:#000000;stroke-width:1.5;" width="892.5" x="430.5" y="562.3047"/><text fill="#000000" font-family="sans-serif" font-size="13" font-weight="bold" lengthAdjust="spacing" textLength="16" x="445.5" y="576.7998">alt</text><text fill="#000000" font-family="sans-serif" font-size="11" font-weight="bold" lengthAdjust="spacing" textLength="104" x="506.5" y="575.7236">[answer == accept]</text><path d="M440.5,587.6563 L513.5,587.6563 L513.5,596.0078 L503.5,606.0078 L440.5,606.0078 L440.5,587.6563 " fill="#EEEEEE" style="stroke:#000000;stroke-width:1.5;"/><rect fill="none" height="314.4609" style="stroke:#000000;stroke-width:1.5;" width="872.5" x="440.5" y="587.6563"/><text fill="#000000" font-family="sans-serif" font-size="13" font-weight="bold" lengthAdjust="spacing" textLength="28" x="455.5" y="602.1514">loop</text><text fill="#000000" font-family="sans-serif" font-size="11" font-weight="bold" lengthAdjust="spacing" textLength="148" x="528.5" y="601.0752">[for all of the other orders]</text><path d="M501,611.0078 L501,653.0078 L996,653.0078 L996,621.0078 L986,611.0078 L501,611.0078 " fill="#FAFAFA" style="stroke:#181818;stroke-width:0.5;"/><path d="M986,611.0078 L986,621.0078 L996,621.0078 L986,611.0078 " fill="#FAFAFA" style="stroke:#181818;stroke-width:0.5;"/><text fill="#000000" font-family="sans-serif" font-size="13" font-weight="bold" lengthAdjust="spacing" textLength="60" x="507" y="629.5029">NEED TO:</text><ellipse cx="512.5" cy="641.2109" fill="#000000" rx="2.5" ry="2.5" style="stroke:#000000;stroke-width:0.0;"/><text fill="#000000" font-family="sans-serif" font-size="13" lengthAdjust="spacing" textLength="462" x="519" y="645.8545">Check which orders don't have a acceptanceAnswer, so that I only update those</text><polygon fill="#181818" points="890.5,677.0625,900.5,681.0625,890.5,685.0625,894.5,681.0625" style="stroke:#181818;stroke-width:1.0;"/><line style="stroke:#181818;stroke-width:1.0;" x1="496" x2="896.5" y1="681.0625" y2="681.0625"/><text fill="#000000" font-family="sans-serif" font-size="13" lengthAdjust="spacing" textLength="72" x="503" y="676.2061">rejectOrder()</text><path d="M868,696.0625 L929,696.0625 L929,704.4141 L919,714.4141 L868,714.4141 L868,696.0625 " fill="#EEEEEE" style="stroke:#000000;stroke-width:1.5;"/><rect fill="none" height="174.0547" style="stroke:#000000;stroke-width:1.5;" width="435" x="868" y="696.0625"/><text fill="#000000" font-family="sans-serif" font-size="13" font-weight="bold" lengthAdjust="spacing" textLength="16" x="883" y="710.5576">alt</text><text fill="#000000" font-family="sans-serif" font-size="11" font-weight="bold" lengthAdjust="spacing" textLength="149" x="944" y="709.4814">[acceptanceAnswer != null]</text><line style="stroke:#181818;stroke-width:1.0;" x1="912.5" x2="959.5" y1="731.7656" y2="731.7656"/><line style="stroke:#181818;stroke-width:1.0;" x1="959.5" x2="959.5" y1="731.7656" y2="744.7656"/><line style="stroke:#181818;stroke-width:1.0;" x1="918.5" x2="959.5" y1="744.7656" y2="744.7656"/><polygon fill="#181818" points="928.5,740.7656,918.5,744.7656,928.5,748.7656,924.5,744.7656" style="stroke:#181818;stroke-width:1.0;"/><text fill="#000000" font-family="sans-serif" font-size="13" lengthAdjust="spacing" textLength="179" x="924.5" y="726.9092">setAcceptanceAnswer(answer)</text><polygon fill="#181818" points="1234.5,776.1172,1244.5,780.1172,1234.5,784.1172,1238.5,780.1172" style="stroke:#181818;stroke-width:1.0;"/><line style="stroke:#181818;stroke-width:1.0;" x1="917.5" x2="1240.5" y1="780.1172" y2="780.1172"/><text fill="#000000" font-family="sans-serif" font-size="13" lengthAdjust="spacing" textLength="310" x="924.5" y="775.2607">sendOrderAcceptanceNotification(clientEmail,answer)</text><line style="stroke:#181818;stroke-width:1.0;stroke-dasharray:2.0,2.0;" x1="917.5" x2="959.5" y1="829.1172" y2="829.1172"/><line style="stroke:#181818;stroke-width:1.0;stroke-dasharray:2.0,2.0;" x1="959.5" x2="959.5" y1="829.1172" y2="842.1172"/><line style="stroke:#181818;stroke-width:1.0;stroke-dasharray:2.0,2.0;" x1="912.5" x2="959.5" y1="842.1172" y2="842.1172"/><polygon fill="#181818" points="922.5,838.1172,912.5,842.1172,922.5,846.1172,918.5,842.1172" style="stroke:#181818;stroke-width:1.0;"/><polygon fill="#181818" points="257,934.4688,247,938.4688,257,942.4688,253,938.4688" style="stroke:#181818;stroke-width:1.0;"/><line style="stroke:#181818;stroke-width:1.0;stroke-dasharray:2.0,2.0;" x1="251" x2="490" y1="938.4688" y2="938.4688"/><text fill="#000000" font-family="sans-serif" font-size="13" lengthAdjust="spacing" textLength="49" x="263" y="933.6123">success</text><polygon fill="#181818" points="11,964.8203,1,968.8203,11,972.8203,7,968.8203" style="stroke:#181818;stroke-width:1.0;"/><line style="stroke:#181818;stroke-width:1.0;stroke-dasharray:2.0,2.0;" x1="5" x2="240" y1="968.8203" y2="968.8203"/><text fill="#000000" font-family="sans-serif" font-size="13" lengthAdjust="spacing" textLength="49" x="17" y="963.9639">success</text><!--SRC=[hLLDR-CW4BtxLypsigcL_85eirBKvB3IjZbiZtj1U1opmM01QLIfFtu1Vu0TabHLE4HXc7apR-PXz869XYXIGos5f9MIDO9HHypqSD8GUY1x_6FUEO92QeZOyzX1LwIG9oRsK1AkCSioQpUCieO80mz427aK56iKvgzOmZhQFm3HWs4S9bM1wZVJFcRNRtp0i4j4F9EcGJN4jDiGrUuJSHiZXo3xFqHiNdS9zy4tE5hU6TYr-3amWYKKM3A1tc5DAJQsUnHdHEWJghc7UlHHX1hsHWo6RdZpW6HH8m9BCF9P5iXdVV4Jb9YiFuaC0vQbPYlq2ElQfZ6mWZsQNJ3CKh2k8yvQuBdzCxasBY9aSjjxvw6SMNLjQy9uc-af6EwNAyzTAeMEGDJ5UQ0vZojvJ22DnUBZadN4eppJXBiAjwG6AQs5YnGgys0ziaNLQ0BQseDrc2rOlCR0sTcvMqBQSyNsbUcyuC9wgf0UW9MGvoNZQ9ij40jjbGyLUKDhrWrILZ8AWjJsF8c4el0f8uQEtOiqBf8O9eNZA8f9tsA7MJJ4ESJa1yAnkp-93NxCGp-FDeVMqocF098I6EWHRheYOBMo9RYInxtcKZPGIcLTESWIJ8KWxOzgLQ2pMqFncaYrCyzVjjiDlEwM5_gTTtCxLOnMNJeefFXksgcHhk2WfZbeQIia1dw15FmTZatXI9jAsiVa-ZpxbLIkmd_sjVAxsLYhrtJgkpif4RwjG1mvFy_vbPjoBViT17ervPbE-tLLYfFgUixBImY9Y_tnyP5DvsXR_Nc4583JUQWmXem44NrYBzw-oOVmns9nEoOyr5ds7m00]--></g></svg>