<?xml version="1.0" encoding="UTF-8" standalone="no"?><svg xmlns="http://www.w3.org/2000/svg" xmlns:xlink="http://www.w3.org/1999/xlink" contentStyleType="text/css" height="1585px" preserveAspectRatio="none" style="width:1648px;height:1585px;background:#FFFFFF;" version="1.1" viewBox="0 0 1648 1585" width="1648px" zoomAndPan="magnify"><defs/><g><!--class Order--><g id="elem_Order"><rect codeLine="10" fill="#F1F1F1" height="224.0938" id="Order" rx="2.5" ry="2.5" style="stroke:#181818;stroke-width:0.5;" width="296" x="1200.5" y="1354"/><ellipse cx="1325.75" cy="1370" fill="#ADD1B2" rx="11" ry="11" style="stroke:#181818;stroke-width:1.0;"/><path d="M1328.5156,1365.875 Q1328.6719,1365.6563 1328.8594,1365.5469 Q1329.0469,1365.4375 1329.2656,1365.4375 Q1329.6406,1365.4375 1329.875,1365.7031 Q1330.1094,1365.9531 1330.1094,1366.5625 L1330.1094,1368.0156 Q1330.1094,1368.625 1329.875,1368.8906 Q1329.6406,1369.1563 1329.2656,1369.1563 Q1328.9219,1369.1563 1328.7188,1368.9531 Q1328.5156,1368.7656 1328.4063,1368.25 Q1328.3594,1367.8906 1328.1719,1367.7031 Q1327.8438,1367.3281 1327.2344,1367.1094 Q1326.625,1366.8906 1326,1366.8906 Q1325.2344,1366.8906 1324.5938,1367.2188 Q1323.9688,1367.5469 1323.4688,1368.2969 Q1322.9844,1369.0469 1322.9844,1370.0781 L1322.9844,1371.1719 Q1322.9844,1372.4063 1323.875,1373.2344 Q1324.7656,1374.0469 1326.3594,1374.0469 Q1327.2969,1374.0469 1327.9531,1373.7969 Q1328.3438,1373.6406 1328.7656,1373.2031 Q1329.0313,1372.9375 1329.1719,1372.8594 Q1329.3281,1372.7813 1329.5313,1372.7813 Q1329.8594,1372.7813 1330.1094,1373.0469 Q1330.375,1373.2969 1330.375,1373.6406 Q1330.375,1373.9844 1330.0313,1374.3906 Q1329.5313,1374.9688 1328.7344,1375.2969 Q1327.6563,1375.75 1326.3594,1375.75 Q1324.8438,1375.75 1323.6406,1375.125 Q1322.6563,1374.625 1321.9688,1373.5625 Q1321.2813,1372.4844 1321.2813,1371.2031 L1321.2813,1370.0469 Q1321.2813,1368.7188 1321.8906,1367.5781 Q1322.5156,1366.4219 1323.6094,1365.8125 Q1324.7031,1365.1875 1325.9375,1365.1875 Q1326.6719,1365.1875 1327.3125,1365.3594 Q1327.9688,1365.5156 1328.5156,1365.875 Z " fill="#000000"/><text fill="#000000" font-family="sans-serif" font-size="14" lengthAdjust="spacing" textLength="37" x="1346.25" y="1375.7285">Order</text><line style="stroke:#181818;stroke-width:0.5;" x1="1201.5" x2="1495.5" y1="1386" y2="1386"/><text fill="#000000" font-family="sans-serif" font-size="14" lengthAdjust="spacing" textLength="136" x="1206.5" y="1404.5332">-Double orderAmount</text><text fill="#000000" font-family="sans-serif" font-size="14" lengthAdjust="spacing" textLength="137" x="1206.5" y="1422.1426">-LocalDate orderDate</text><text fill="#000000" font-family="sans-serif" font-size="14" lengthAdjust="spacing" textLength="110" x="1206.5" y="1439.752">-Email clientEmail</text><text fill="#000000" font-family="sans-serif" font-size="14" lengthAdjust="spacing" textLength="165" x="1206.5" y="1457.3613">-String acceptanceAnswer</text><line style="stroke:#181818;stroke-width:0.5;" x1="1201.5" x2="1495.5" y1="1464.4375" y2="1464.4375"/><text fill="#000000" font-family="sans-serif" font-size="14" lengthAdjust="spacing" textLength="284" x="1206.5" y="1482.9707">+Order(orderAmount, orderDate, clientEmail)</text><text fill="#000000" font-family="sans-serif" font-size="14" lengthAdjust="spacing" textLength="123" x="1206.5" y="1500.5801">+getOrderAmount()</text><text fill="#000000" font-family="sans-serif" font-size="14" lengthAdjust="spacing" textLength="108" x="1206.5" y="1518.1895">+getClientEmail()</text><text fill="#000000" font-family="sans-serif" font-size="14" lengthAdjust="spacing" textLength="105" x="1206.5" y="1535.7988">+getOrderDate()</text><text fill="#000000" font-family="sans-serif" font-size="14" lengthAdjust="spacing" textLength="202" x="1206.5" y="1553.4082">+setAcceptanceAnswer(answer)</text><text fill="#000000" font-family="sans-serif" font-size="14" lengthAdjust="spacing" textLength="90" x="1206.5" y="1571.0176">+rejectOrder()</text></g><!--class OrderMapper--><g id="elem_OrderMapper"><rect codeLine="23" fill="#F1F1F1" height="83.2188" id="OrderMapper" rx="2.5" ry="2.5" style="stroke:#181818;stroke-width:0.5;" width="125" x="898" y="248"/><ellipse cx="916.6" cy="264" fill="#ADD1B2" rx="11" ry="11" style="stroke:#181818;stroke-width:1.0;"/><path d="M919.3656,259.875 Q919.5219,259.6563 919.7094,259.5469 Q919.8969,259.4375 920.1156,259.4375 Q920.4906,259.4375 920.725,259.7031 Q920.9594,259.9531 920.9594,260.5625 L920.9594,262.0156 Q920.9594,262.625 920.725,262.8906 Q920.4906,263.1563 920.1156,263.1563 Q919.7719,263.1563 919.5688,262.9531 Q919.3656,262.7656 919.2563,262.25 Q919.2094,261.8906 919.0219,261.7031 Q918.6938,261.3281 918.0844,261.1094 Q917.475,260.8906 916.85,260.8906 Q916.0844,260.8906 915.4438,261.2188 Q914.8188,261.5469 914.3188,262.2969 Q913.8344,263.0469 913.8344,264.0781 L913.8344,265.1719 Q913.8344,266.4063 914.725,267.2344 Q915.6156,268.0469 917.2094,268.0469 Q918.1469,268.0469 918.8031,267.7969 Q919.1938,267.6406 919.6156,267.2031 Q919.8813,266.9375 920.0219,266.8594 Q920.1781,266.7813 920.3813,266.7813 Q920.7094,266.7813 920.9594,267.0469 Q921.225,267.2969 921.225,267.6406 Q921.225,267.9844 920.8813,268.3906 Q920.3813,268.9688 919.5844,269.2969 Q918.5063,269.75 917.2094,269.75 Q915.6938,269.75 914.4906,269.125 Q913.5063,268.625 912.8188,267.5625 Q912.1313,266.4844 912.1313,265.2031 L912.1313,264.0469 Q912.1313,262.7188 912.7406,261.5781 Q913.3656,260.4219 914.4594,259.8125 Q915.5531,259.1875 916.7875,259.1875 Q917.5219,259.1875 918.1625,259.3594 Q918.8188,259.5156 919.3656,259.875 Z " fill="#000000"/><text fill="#000000" font-family="sans-serif" font-size="14" lengthAdjust="spacing" textLength="85" x="931.4" y="269.7285">OrderMapper</text><line style="stroke:#181818;stroke-width:0.5;" x1="899" x2="1022" y1="280" y2="280"/><line style="stroke:#181818;stroke-width:0.5;" x1="899" x2="1022" y1="288" y2="288"/><text fill="#000000" font-family="sans-serif" font-size="14" lengthAdjust="spacing" textLength="113" x="904" y="306.5332">+toDto(listOrders)</text><text fill="#000000" font-family="sans-serif" font-size="14" lengthAdjust="spacing" textLength="86" x="904" y="324.1426">+toDto(order)</text></g><!--class OrderList--><g id="elem_OrderList"><rect codeLine="28" fill="#F1F1F1" height="136.0469" id="OrderList" rx="2.5" ry="2.5" style="stroke:#181818;stroke-width:0.5;" width="267" x="1122" y="1077.5"/><ellipse cx="1221.75" cy="1093.5" fill="#ADD1B2" rx="11" ry="11" style="stroke:#181818;stroke-width:1.0;"/><path d="M1224.5156,1089.375 Q1224.6719,1089.1563 1224.8594,1089.0469 Q1225.0469,1088.9375 1225.2656,1088.9375 Q1225.6406,1088.9375 1225.875,1089.2031 Q1226.1094,1089.4531 1226.1094,1090.0625 L1226.1094,1091.5156 Q1226.1094,1092.125 1225.875,1092.3906 Q1225.6406,1092.6563 1225.2656,1092.6563 Q1224.9219,1092.6563 1224.7188,1092.4531 Q1224.5156,1092.2656 1224.4063,1091.75 Q1224.3594,1091.3906 1224.1719,1091.2031 Q1223.8438,1090.8281 1223.2344,1090.6094 Q1222.625,1090.3906 1222,1090.3906 Q1221.2344,1090.3906 1220.5938,1090.7188 Q1219.9688,1091.0469 1219.4688,1091.7969 Q1218.9844,1092.5469 1218.9844,1093.5781 L1218.9844,1094.6719 Q1218.9844,1095.9063 1219.875,1096.7344 Q1220.7656,1097.5469 1222.3594,1097.5469 Q1223.2969,1097.5469 1223.9531,1097.2969 Q1224.3438,1097.1406 1224.7656,1096.7031 Q1225.0313,1096.4375 1225.1719,1096.3594 Q1225.3281,1096.2813 1225.5313,1096.2813 Q1225.8594,1096.2813 1226.1094,1096.5469 Q1226.375,1096.7969 1226.375,1097.1406 Q1226.375,1097.4844 1226.0313,1097.8906 Q1225.5313,1098.4688 1224.7344,1098.7969 Q1223.6563,1099.25 1222.3594,1099.25 Q1220.8438,1099.25 1219.6406,1098.625 Q1218.6563,1098.125 1217.9688,1097.0625 Q1217.2813,1095.9844 1217.2813,1094.7031 L1217.2813,1093.5469 Q1217.2813,1092.2188 1217.8906,1091.0781 Q1218.5156,1089.9219 1219.6094,1089.3125 Q1220.7031,1088.6875 1221.9375,1088.6875 Q1222.6719,1088.6875 1223.3125,1088.8594 Q1223.9688,1089.0156 1224.5156,1089.375 Z " fill="#000000"/><text fill="#000000" font-family="sans-serif" font-size="14" lengthAdjust="spacing" textLength="59" x="1242.25" y="1099.2285">OrderList</text><line style="stroke:#181818;stroke-width:0.5;" x1="1123" x2="1388" y1="1109.5" y2="1109.5"/><text fill="#000000" font-family="sans-serif" font-size="14" lengthAdjust="spacing" textLength="125" x="1128" y="1128.0332">-List&lt;Order&gt; orders</text><line style="stroke:#181818;stroke-width:0.5;" x1="1123" x2="1388" y1="1135.1094" y2="1135.1094"/><text fill="#000000" font-family="sans-serif" font-size="14" lengthAdjust="spacing" textLength="234" x="1128" y="1153.6426">+sortOrdersByHighestOrderAmount()</text><text fill="#000000" font-family="sans-serif" font-size="14" lengthAdjust="spacing" textLength="60" x="1128" y="1171.252">+getList()</text><text fill="#000000" font-family="sans-serif" font-size="14" lengthAdjust="spacing" textLength="147" x="1128" y="1188.8613">+getOrderById(orderId)</text><text fill="#000000" font-family="sans-serif" font-size="14" lengthAdjust="spacing" textLength="255" x="1128" y="1206.4707">+defineOrderAcceptance(answer, order)</text></g><!--class OrderDto--><g id="elem_OrderDto"><rect codeLine="36" fill="#F1F1F1" height="153.6563" id="OrderDto" rx="2.5" ry="2.5" style="stroke:#181818;stroke-width:0.5;" width="318" x="726.5" y="462.5"/><ellipse cx="851.75" cy="478.5" fill="#ADD1B2" rx="11" ry="11" style="stroke:#181818;stroke-width:1.0;"/><path d="M854.5156,474.375 Q854.6719,474.1563 854.8594,474.0469 Q855.0469,473.9375 855.2656,473.9375 Q855.6406,473.9375 855.875,474.2031 Q856.1094,474.4531 856.1094,475.0625 L856.1094,476.5156 Q856.1094,477.125 855.875,477.3906 Q855.6406,477.6563 855.2656,477.6563 Q854.9219,477.6563 854.7188,477.4531 Q854.5156,477.2656 854.4063,476.75 Q854.3594,476.3906 854.1719,476.2031 Q853.8438,475.8281 853.2344,475.6094 Q852.625,475.3906 852,475.3906 Q851.2344,475.3906 850.5938,475.7188 Q849.9688,476.0469 849.4688,476.7969 Q848.9844,477.5469 848.9844,478.5781 L848.9844,479.6719 Q848.9844,480.9063 849.875,481.7344 Q850.7656,482.5469 852.3594,482.5469 Q853.2969,482.5469 853.9531,482.2969 Q854.3438,482.1406 854.7656,481.7031 Q855.0313,481.4375 855.1719,481.3594 Q855.3281,481.2813 855.5313,481.2813 Q855.8594,481.2813 856.1094,481.5469 Q856.375,481.7969 856.375,482.1406 Q856.375,482.4844 856.0313,482.8906 Q855.5313,483.4688 854.7344,483.7969 Q853.6563,484.25 852.3594,484.25 Q850.8438,484.25 849.6406,483.625 Q848.6563,483.125 847.9688,482.0625 Q847.2813,480.9844 847.2813,479.7031 L847.2813,478.5469 Q847.2813,477.2188 847.8906,476.0781 Q848.5156,474.9219 849.6094,474.3125 Q850.7031,473.6875 851.9375,473.6875 Q852.6719,473.6875 853.3125,473.8594 Q853.9688,474.0156 854.5156,474.375 Z " fill="#000000"/><text fill="#000000" font-family="sans-serif" font-size="14" lengthAdjust="spacing" textLength="59" x="872.25" y="484.2285">OrderDto</text><line style="stroke:#181818;stroke-width:0.5;" x1="727.5" x2="1043.5" y1="494.5" y2="494.5"/><text fill="#000000" font-family="sans-serif" font-size="14" lengthAdjust="spacing" textLength="35" x="732.5" y="513.0332">-int id</text><text fill="#000000" font-family="sans-serif" font-size="14" lengthAdjust="spacing" textLength="110" x="732.5" y="530.6426">-String orderDate</text><text fill="#000000" font-family="sans-serif" font-size="14" lengthAdjust="spacing" textLength="134" x="732.5" y="548.252">-double orderAmount</text><text fill="#000000" font-family="sans-serif" font-size="14" lengthAdjust="spacing" textLength="113" x="732.5" y="565.8613">-String clientEmail</text><line style="stroke:#181818;stroke-width:0.5;" x1="727.5" x2="1043.5" y1="572.9375" y2="572.9375"/><text fill="#000000" font-family="sans-serif" font-size="14" lengthAdjust="spacing" textLength="306" x="732.5" y="591.4707">+OrderDto(orderAmount, orderDate, clientEmail)</text><text fill="#000000" font-family="sans-serif" font-size="14" lengthAdjust="spacing" textLength="86" x="732.5" y="609.0801">+getOrderId()</text></g><!--class Announcement--><g id="elem_Announcement"><rect codeLine="45" fill="#F1F1F1" height="294.5313" id="Announcement" rx="2.5" ry="2.5" style="stroke:#181818;stroke-width:0.5;" width="289" x="798" y="998"/><ellipse cx="890.75" cy="1014" fill="#ADD1B2" rx="11" ry="11" style="stroke:#181818;stroke-width:1.0;"/><path d="M893.5156,1009.875 Q893.6719,1009.6563 893.8594,1009.5469 Q894.0469,1009.4375 894.2656,1009.4375 Q894.6406,1009.4375 894.875,1009.7031 Q895.1094,1009.9531 895.1094,1010.5625 L895.1094,1012.0156 Q895.1094,1012.625 894.875,1012.8906 Q894.6406,1013.1563 894.2656,1013.1563 Q893.9219,1013.1563 893.7188,1012.9531 Q893.5156,1012.7656 893.4063,1012.25 Q893.3594,1011.8906 893.1719,1011.7031 Q892.8438,1011.3281 892.2344,1011.1094 Q891.625,1010.8906 891,1010.8906 Q890.2344,1010.8906 889.5938,1011.2188 Q888.9688,1011.5469 888.4688,1012.2969 Q887.9844,1013.0469 887.9844,1014.0781 L887.9844,1015.1719 Q887.9844,1016.4063 888.875,1017.2344 Q889.7656,1018.0469 891.3594,1018.0469 Q892.2969,1018.0469 892.9531,1017.7969 Q893.3438,1017.6406 893.7656,1017.2031 Q894.0313,1016.9375 894.1719,1016.8594 Q894.3281,1016.7813 894.5313,1016.7813 Q894.8594,1016.7813 895.1094,1017.0469 Q895.375,1017.2969 895.375,1017.6406 Q895.375,1017.9844 895.0313,1018.3906 Q894.5313,1018.9688 893.7344,1019.2969 Q892.6563,1019.75 891.3594,1019.75 Q889.8438,1019.75 888.6406,1019.125 Q887.6563,1018.625 886.9688,1017.5625 Q886.2813,1016.4844 886.2813,1015.2031 L886.2813,1014.0469 Q886.2813,1012.7188 886.8906,1011.5781 Q887.5156,1010.4219 888.6094,1009.8125 Q889.7031,1009.1875 890.9375,1009.1875 Q891.6719,1009.1875 892.3125,1009.3594 Q892.9688,1009.5156 893.5156,1009.875 Z " fill="#000000"/><text fill="#000000" font-family="sans-serif" font-size="14" lengthAdjust="spacing" textLength="95" x="911.25" y="1019.7285">Announcement</text><line style="stroke:#181818;stroke-width:0.5;" x1="799" x2="1086" y1="1030" y2="1030"/><text fill="#000000" font-family="sans-serif" font-size="14" lengthAdjust="spacing" textLength="110" x="804" y="1048.5332">-Request request</text><text fill="#000000" font-family="sans-serif" font-size="14" lengthAdjust="spacing" textLength="158" x="804" y="1066.1426">-Commission commission</text><text fill="#000000" font-family="sans-serif" font-size="14" lengthAdjust="spacing" textLength="64" x="804" y="1083.752">-Integer id</text><text fill="#000000" font-family="sans-serif" font-size="14" lengthAdjust="spacing" textLength="107" x="804" y="1101.3613">-Employee agent</text><text fill="#000000" font-family="sans-serif" font-size="14" lengthAdjust="spacing" textLength="176" x="804" y="1118.9707">-LocalDate acceptanceDate</text><line style="stroke:#181818;stroke-width:0.5;" x1="799" x2="1086" y1="1126.0469" y2="1126.0469"/><text fill="#000000" font-family="sans-serif" font-size="14" lengthAdjust="spacing" textLength="277" x="804" y="1144.5801">+defineOrderAcceptance(answer, orderDto)</text><text fill="#000000" font-family="sans-serif" font-size="14" lengthAdjust="spacing" textLength="210" x="804" y="1162.1895">+hasAgentWithEmail(agentEmail)</text><text fill="#000000" font-family="sans-serif" font-size="14" lengthAdjust="spacing" textLength="157" x="804" y="1179.7988">+hasId(announcementId)</text><text fill="#000000" font-family="sans-serif" font-size="14" lengthAdjust="spacing" textLength="119" x="804" y="1197.4082">+getListOfOrders()</text><text fill="#000000" font-family="sans-serif" font-size="14" lengthAdjust="spacing" textLength="97" x="804" y="1215.0176">+getOrderList()</text><text fill="#000000" font-family="sans-serif" font-size="14" lengthAdjust="spacing" textLength="151" x="804" y="1232.627">+getRequestAttributes()</text><text fill="#000000" font-family="sans-serif" font-size="14" lengthAdjust="spacing" textLength="174" x="804" y="1250.2363">+getCommissionAttributes()</text><text fill="#000000" font-family="sans-serif" font-size="14" lengthAdjust="spacing" textLength="49" x="804" y="1267.8457">+getId()</text><text fill="#000000" font-family="sans-serif" font-size="14" lengthAdjust="spacing" textLength="142" x="804" y="1285.4551">+getAcceptanceDate()</text></g><!--class AnnouncementDto--><g id="elem_AnnouncementDto"><rect codeLine="62" fill="#F1F1F1" height="153.6563" id="AnnouncementDto" rx="2.5" ry="2.5" style="stroke:#181818;stroke-width:0.5;" width="613" x="7" y="462.5"/><ellipse cx="250.75" cy="478.5" fill="#ADD1B2" rx="11" ry="11" style="stroke:#181818;stroke-width:1.0;"/><path d="M253.5156,474.375 Q253.6719,474.1563 253.8594,474.0469 Q254.0469,473.9375 254.2656,473.9375 Q254.6406,473.9375 254.875,474.2031 Q255.1094,474.4531 255.1094,475.0625 L255.1094,476.5156 Q255.1094,477.125 254.875,477.3906 Q254.6406,477.6563 254.2656,477.6563 Q253.9219,477.6563 253.7188,477.4531 Q253.5156,477.2656 253.4063,476.75 Q253.3594,476.3906 253.1719,476.2031 Q252.8438,475.8281 252.2344,475.6094 Q251.625,475.3906 251,475.3906 Q250.2344,475.3906 249.5938,475.7188 Q248.9688,476.0469 248.4688,476.7969 Q247.9844,477.5469 247.9844,478.5781 L247.9844,479.6719 Q247.9844,480.9063 248.875,481.7344 Q249.7656,482.5469 251.3594,482.5469 Q252.2969,482.5469 252.9531,482.2969 Q253.3438,482.1406 253.7656,481.7031 Q254.0313,481.4375 254.1719,481.3594 Q254.3281,481.2813 254.5313,481.2813 Q254.8594,481.2813 255.1094,481.5469 Q255.375,481.7969 255.375,482.1406 Q255.375,482.4844 255.0313,482.8906 Q254.5313,483.4688 253.7344,483.7969 Q252.6563,484.25 251.3594,484.25 Q249.8438,484.25 248.6406,483.625 Q247.6563,483.125 246.9688,482.0625 Q246.2813,480.9844 246.2813,479.7031 L246.2813,478.5469 Q246.2813,477.2188 246.8906,476.0781 Q247.5156,474.9219 248.6094,474.3125 Q249.7031,473.6875 250.9375,473.6875 Q251.6719,473.6875 252.3125,473.8594 Q252.9688,474.0156 253.5156,474.375 Z " fill="#000000"/><text fill="#000000" font-family="sans-serif" font-size="14" lengthAdjust="spacing" textLength="117" x="271.25" y="484.2285">AnnouncementDto</text><line style="stroke:#181818;stroke-width:0.5;" x1="8" x2="619" y1="494.5" y2="494.5"/><text fill="#000000" font-family="sans-serif" font-size="14" lengthAdjust="spacing" textLength="35" x="13" y="513.0332">-int id</text><text fill="#000000" font-family="sans-serif" font-size="14" lengthAdjust="spacing" textLength="154" x="13" y="530.6426">-String requestAtributtes</text><text fill="#000000" font-family="sans-serif" font-size="14" lengthAdjust="spacing" textLength="179" x="13" y="548.252">-String commissionAtributtes</text><text fill="#000000" font-family="sans-serif" font-size="14" lengthAdjust="spacing" textLength="149" x="13" y="565.8613">-String acceptanceDate</text><text fill="#000000" font-family="sans-serif" font-size="14" lengthAdjust="spacing" textLength="189" x="13" y="583.4707">-List&lt;OrderDto&gt; listOrdersDto</text><line style="stroke:#181818;stroke-width:0.5;" x1="8" x2="619" y1="590.5469" y2="590.5469"/><text fill="#000000" font-family="sans-serif" font-size="14" lengthAdjust="spacing" textLength="601" x="13" y="609.0801">+AnnouncementDto(requestAtributtes, listOrdersDto, commissionAtributtes, acceptanceDate,id)</text></g><!--class AnnouncementList--><g id="elem_AnnouncementList"><rect codeLine="71" fill="#F1F1F1" height="136.0469" id="AnnouncementList" rx="2.5" ry="2.5" style="stroke:#181818;stroke-width:0.5;" width="433" x="899" y="801"/><ellipse cx="1052.75" cy="817" fill="#ADD1B2" rx="11" ry="11" style="stroke:#181818;stroke-width:1.0;"/><path d="M1055.5156,812.875 Q1055.6719,812.6563 1055.8594,812.5469 Q1056.0469,812.4375 1056.2656,812.4375 Q1056.6406,812.4375 1056.875,812.7031 Q1057.1094,812.9531 1057.1094,813.5625 L1057.1094,815.0156 Q1057.1094,815.625 1056.875,815.8906 Q1056.6406,816.1563 1056.2656,816.1563 Q1055.9219,816.1563 1055.7188,815.9531 Q1055.5156,815.7656 1055.4063,815.25 Q1055.3594,814.8906 1055.1719,814.7031 Q1054.8438,814.3281 1054.2344,814.1094 Q1053.625,813.8906 1053,813.8906 Q1052.2344,813.8906 1051.5938,814.2188 Q1050.9688,814.5469 1050.4688,815.2969 Q1049.9844,816.0469 1049.9844,817.0781 L1049.9844,818.1719 Q1049.9844,819.4063 1050.875,820.2344 Q1051.7656,821.0469 1053.3594,821.0469 Q1054.2969,821.0469 1054.9531,820.7969 Q1055.3438,820.6406 1055.7656,820.2031 Q1056.0313,819.9375 1056.1719,819.8594 Q1056.3281,819.7813 1056.5313,819.7813 Q1056.8594,819.7813 1057.1094,820.0469 Q1057.375,820.2969 1057.375,820.6406 Q1057.375,820.9844 1057.0313,821.3906 Q1056.5313,821.9688 1055.7344,822.2969 Q1054.6563,822.75 1053.3594,822.75 Q1051.8438,822.75 1050.6406,822.125 Q1049.6563,821.625 1048.9688,820.5625 Q1048.2813,819.4844 1048.2813,818.2031 L1048.2813,817.0469 Q1048.2813,815.7188 1048.8906,814.5781 Q1049.5156,813.4219 1050.6094,812.8125 Q1051.7031,812.1875 1052.9375,812.1875 Q1053.6719,812.1875 1054.3125,812.3594 Q1054.9688,812.5156 1055.5156,812.875 Z " fill="#000000"/><text fill="#000000" font-family="sans-serif" font-size="14" lengthAdjust="spacing" textLength="117" x="1073.25" y="822.7285">AnnouncementList</text><line style="stroke:#181818;stroke-width:0.5;" x1="900" x2="1331" y1="833" y2="833"/><text fill="#000000" font-family="sans-serif" font-size="14" lengthAdjust="spacing" textLength="243" x="905" y="851.5332">-List&lt;Announcement&gt; announcements</text><line style="stroke:#181818;stroke-width:0.5;" x1="900" x2="1331" y1="858.6094" y2="858.6094"/><text fill="#000000" font-family="sans-serif" font-size="14" lengthAdjust="spacing" textLength="297" x="905" y="877.1426">+getAnnouncementsByAgentEmail(agentEmail)</text><text fill="#000000" font-family="sans-serif" font-size="14" lengthAdjust="spacing" textLength="265" x="905" y="894.752">+getAnnouncementById(announcementId)</text><text fill="#000000" font-family="sans-serif" font-size="14" lengthAdjust="spacing" textLength="276" x="905" y="912.3613">+anyAnnouncementHasId(announcementId)</text><text fill="#000000" font-family="sans-serif" font-size="14" lengthAdjust="spacing" textLength="421" x="905" y="929.9707">-sortAnnouncementsByOldestAcceptanceDate(listAnnouncements)</text></g><!--class AnnouncementMapper--><g id="elem_AnnouncementMapper"><rect codeLine="79" fill="#F1F1F1" height="83.2188" id="AnnouncementMapper" rx="2.5" ry="2.5" style="stroke:#181818;stroke-width:0.5;" width="183" x="582" y="248"/><ellipse cx="600.6" cy="264" fill="#ADD1B2" rx="11" ry="11" style="stroke:#181818;stroke-width:1.0;"/><path d="M603.3656,259.875 Q603.5219,259.6563 603.7094,259.5469 Q603.8969,259.4375 604.1156,259.4375 Q604.4906,259.4375 604.725,259.7031 Q604.9594,259.9531 604.9594,260.5625 L604.9594,262.0156 Q604.9594,262.625 604.725,262.8906 Q604.4906,263.1563 604.1156,263.1563 Q603.7719,263.1563 603.5688,262.9531 Q603.3656,262.7656 603.2563,262.25 Q603.2094,261.8906 603.0219,261.7031 Q602.6938,261.3281 602.0844,261.1094 Q601.475,260.8906 600.85,260.8906 Q600.0844,260.8906 599.4438,261.2188 Q598.8188,261.5469 598.3188,262.2969 Q597.8344,263.0469 597.8344,264.0781 L597.8344,265.1719 Q597.8344,266.4063 598.725,267.2344 Q599.6156,268.0469 601.2094,268.0469 Q602.1469,268.0469 602.8031,267.7969 Q603.1938,267.6406 603.6156,267.2031 Q603.8813,266.9375 604.0219,266.8594 Q604.1781,266.7813 604.3813,266.7813 Q604.7094,266.7813 604.9594,267.0469 Q605.225,267.2969 605.225,267.6406 Q605.225,267.9844 604.8813,268.3906 Q604.3813,268.9688 603.5844,269.2969 Q602.5063,269.75 601.2094,269.75 Q599.6938,269.75 598.4906,269.125 Q597.5063,268.625 596.8188,267.5625 Q596.1313,266.4844 596.1313,265.2031 L596.1313,264.0469 Q596.1313,262.7188 596.7406,261.5781 Q597.3656,260.4219 598.4594,259.8125 Q599.5531,259.1875 600.7875,259.1875 Q601.5219,259.1875 602.1625,259.3594 Q602.8188,259.5156 603.3656,259.875 Z " fill="#000000"/><text fill="#000000" font-family="sans-serif" font-size="14" lengthAdjust="spacing" textLength="143" x="615.4" y="269.7285">AnnouncementMapper</text><line style="stroke:#181818;stroke-width:0.5;" x1="583" x2="764" y1="280" y2="280"/><line style="stroke:#181818;stroke-width:0.5;" x1="583" x2="764" y1="288" y2="288"/><text fill="#000000" font-family="sans-serif" font-size="14" lengthAdjust="spacing" textLength="171" x="588" y="306.5332">+toDto(listAnnouncements)</text><text fill="#000000" font-family="sans-serif" font-size="14" lengthAdjust="spacing" textLength="146" x="588" y="324.1426">+toDto(announcement)</text></g><!--class Agency--><g id="elem_Agency"><rect codeLine="84" fill="#F1F1F1" height="276.9219" id="Agency" rx="2.5" ry="2.5" style="stroke:#181818;stroke-width:0.5;" width="309" x="1080" y="401"/><ellipse cx="1206.75" cy="417" fill="#ADD1B2" rx="11" ry="11" style="stroke:#181818;stroke-width:1.0;"/><path d="M1209.5156,412.875 Q1209.6719,412.6563 1209.8594,412.5469 Q1210.0469,412.4375 1210.2656,412.4375 Q1210.6406,412.4375 1210.875,412.7031 Q1211.1094,412.9531 1211.1094,413.5625 L1211.1094,415.0156 Q1211.1094,415.625 1210.875,415.8906 Q1210.6406,416.1563 1210.2656,416.1563 Q1209.9219,416.1563 1209.7188,415.9531 Q1209.5156,415.7656 1209.4063,415.25 Q1209.3594,414.8906 1209.1719,414.7031 Q1208.8438,414.3281 1208.2344,414.1094 Q1207.625,413.8906 1207,413.8906 Q1206.2344,413.8906 1205.5938,414.2188 Q1204.9688,414.5469 1204.4688,415.2969 Q1203.9844,416.0469 1203.9844,417.0781 L1203.9844,418.1719 Q1203.9844,419.4063 1204.875,420.2344 Q1205.7656,421.0469 1207.3594,421.0469 Q1208.2969,421.0469 1208.9531,420.7969 Q1209.3438,420.6406 1209.7656,420.2031 Q1210.0313,419.9375 1210.1719,419.8594 Q1210.3281,419.7813 1210.5313,419.7813 Q1210.8594,419.7813 1211.1094,420.0469 Q1211.375,420.2969 1211.375,420.6406 Q1211.375,420.9844 1211.0313,421.3906 Q1210.5313,421.9688 1209.7344,422.2969 Q1208.6563,422.75 1207.3594,422.75 Q1205.8438,422.75 1204.6406,422.125 Q1203.6563,421.625 1202.9688,420.5625 Q1202.2813,419.4844 1202.2813,418.2031 L1202.2813,417.0469 Q1202.2813,415.7188 1202.8906,414.5781 Q1203.5156,413.4219 1204.6094,412.8125 Q1205.7031,412.1875 1206.9375,412.1875 Q1207.6719,412.1875 1208.3125,412.3594 Q1208.9688,412.5156 1209.5156,412.875 Z " fill="#000000"/><text fill="#000000" font-family="sans-serif" font-size="14" lengthAdjust="spacing" textLength="47" x="1227.25" y="422.7285">Agency</text><line style="stroke:#181818;stroke-width:0.5;" x1="1081" x2="1388" y1="433" y2="433"/><text fill="#000000" font-family="sans-serif" font-size="14" lengthAdjust="spacing" textLength="227" x="1086" y="451.5332">-AnnouncementList announcements</text><text fill="#000000" font-family="sans-serif" font-size="14" lengthAdjust="spacing" textLength="139" x="1086" y="469.1426">-RequestList requests</text><text fill="#000000" font-family="sans-serif" font-size="14" lengthAdjust="spacing" textLength="115" x="1086" y="486.752">-String description</text><text fill="#000000" font-family="sans-serif" font-size="14" lengthAdjust="spacing" textLength="120" x="1086" y="504.3613">-Email emailAdress</text><text fill="#000000" font-family="sans-serif" font-size="14" lengthAdjust="spacing" textLength="177" x="1086" y="521.9707">-List&lt;Employee&gt; employees</text><text fill="#000000" font-family="sans-serif" font-size="14" lengthAdjust="spacing" textLength="64" x="1086" y="539.5801">-Integer id</text><text fill="#000000" font-family="sans-serif" font-size="14" lengthAdjust="spacing" textLength="112" x="1086" y="557.1895">-Location location</text><text fill="#000000" font-family="sans-serif" font-size="14" lengthAdjust="spacing" textLength="135" x="1086" y="574.7988">-String phoneNumber</text><line style="stroke:#181818;stroke-width:0.5;" x1="1081" x2="1388" y1="581.875" y2="581.875"/><text fill="#000000" font-family="sans-serif" font-size="14" lengthAdjust="spacing" textLength="65" x="1086" y="600.4082">+Agency()</text><text fill="#000000" font-family="sans-serif" font-size="14" lengthAdjust="spacing" textLength="206" x="1086" y="618.0176">+anyAgentHasEmail(agentEmail)</text><text fill="#000000" font-family="sans-serif" font-size="14" lengthAdjust="spacing" textLength="297" x="1086" y="635.627">+getAnnouncementsByAgentEmail(agentEmail)</text><text fill="#000000" font-family="sans-serif" font-size="14" lengthAdjust="spacing" textLength="265" x="1086" y="653.2363">+getAnnouncementById(announcementId)</text><text fill="#000000" font-family="sans-serif" font-size="14" lengthAdjust="spacing" textLength="276" x="1086" y="670.8457">+anyAnnouncementHasId(announcementId)</text></g><!--class AgencyRepository--><g id="elem_AgencyRepository"><rect codeLine="100" fill="#F1F1F1" height="100.8281" id="AgencyRepository" rx="2.5" ry="2.5" style="stroke:#181818;stroke-width:0.5;" width="324" x="1058.5" y="239"/><ellipse cx="1158.75" cy="255" fill="#ADD1B2" rx="11" ry="11" style="stroke:#181818;stroke-width:1.0;"/><path d="M1161.5156,250.875 Q1161.6719,250.6563 1161.8594,250.5469 Q1162.0469,250.4375 1162.2656,250.4375 Q1162.6406,250.4375 1162.875,250.7031 Q1163.1094,250.9531 1163.1094,251.5625 L1163.1094,253.0156 Q1163.1094,253.625 1162.875,253.8906 Q1162.6406,254.1563 1162.2656,254.1563 Q1161.9219,254.1563 1161.7188,253.9531 Q1161.5156,253.7656 1161.4063,253.25 Q1161.3594,252.8906 1161.1719,252.7031 Q1160.8438,252.3281 1160.2344,252.1094 Q1159.625,251.8906 1159,251.8906 Q1158.2344,251.8906 1157.5938,252.2188 Q1156.9688,252.5469 1156.4688,253.2969 Q1155.9844,254.0469 1155.9844,255.0781 L1155.9844,256.1719 Q1155.9844,257.4063 1156.875,258.2344 Q1157.7656,259.0469 1159.3594,259.0469 Q1160.2969,259.0469 1160.9531,258.7969 Q1161.3438,258.6406 1161.7656,258.2031 Q1162.0313,257.9375 1162.1719,257.8594 Q1162.3281,257.7813 1162.5313,257.7813 Q1162.8594,257.7813 1163.1094,258.0469 Q1163.375,258.2969 1163.375,258.6406 Q1163.375,258.9844 1163.0313,259.3906 Q1162.5313,259.9688 1161.7344,260.2969 Q1160.6563,260.75 1159.3594,260.75 Q1157.8438,260.75 1156.6406,260.125 Q1155.6563,259.625 1154.9688,258.5625 Q1154.2813,257.4844 1154.2813,256.2031 L1154.2813,255.0469 Q1154.2813,253.7188 1154.8906,252.5781 Q1155.5156,251.4219 1156.6094,250.8125 Q1157.7031,250.1875 1158.9375,250.1875 Q1159.6719,250.1875 1160.3125,250.3594 Q1160.9688,250.5156 1161.5156,250.875 Z " fill="#000000"/><text fill="#000000" font-family="sans-serif" font-size="14" lengthAdjust="spacing" textLength="115" x="1179.25" y="260.7285">AgencyRepository</text><line style="stroke:#181818;stroke-width:0.5;" x1="1059.5" x2="1381.5" y1="271" y2="271"/><text fill="#000000" font-family="sans-serif" font-size="14" lengthAdjust="spacing" textLength="151" x="1064.5" y="289.5332">-List&lt;Agency&gt; agencies</text><line style="stroke:#181818;stroke-width:0.5;" x1="1059.5" x2="1381.5" y1="296.6094" y2="296.6094"/><text fill="#000000" font-family="sans-serif" font-size="14" lengthAdjust="spacing" textLength="267" x="1064.5" y="315.1426">+getAgencyByEmployeeEmail(agentEmail)</text><text fill="#000000" font-family="sans-serif" font-size="14" lengthAdjust="spacing" textLength="312" x="1064.5" y="332.752">+getAgencyByAnnouncementId(announcementId)</text></g><!--class AuthenticationRepository--><g id="elem_AuthenticationRepository"><rect codeLine="105" fill="#F1F1F1" height="65.6094" id="AuthenticationRepository" rx="2.5" ry="2.5" style="stroke:#181818;stroke-width:0.5;" width="190" x="1417.5" y="256.5"/><ellipse cx="1432.5" cy="272.5" fill="#ADD1B2" rx="11" ry="11" style="stroke:#181818;stroke-width:1.0;"/><path d="M1435.2656,268.375 Q1435.4219,268.1563 1435.6094,268.0469 Q1435.7969,267.9375 1436.0156,267.9375 Q1436.3906,267.9375 1436.625,268.2031 Q1436.8594,268.4531 1436.8594,269.0625 L1436.8594,270.5156 Q1436.8594,271.125 1436.625,271.3906 Q1436.3906,271.6563 1436.0156,271.6563 Q1435.6719,271.6563 1435.4688,271.4531 Q1435.2656,271.2656 1435.1563,270.75 Q1435.1094,270.3906 1434.9219,270.2031 Q1434.5938,269.8281 1433.9844,269.6094 Q1433.375,269.3906 1432.75,269.3906 Q1431.9844,269.3906 1431.3438,269.7188 Q1430.7188,270.0469 1430.2188,270.7969 Q1429.7344,271.5469 1429.7344,272.5781 L1429.7344,273.6719 Q1429.7344,274.9063 1430.625,275.7344 Q1431.5156,276.5469 1433.1094,276.5469 Q1434.0469,276.5469 1434.7031,276.2969 Q1435.0938,276.1406 1435.5156,275.7031 Q1435.7813,275.4375 1435.9219,275.3594 Q1436.0781,275.2813 1436.2813,275.2813 Q1436.6094,275.2813 1436.8594,275.5469 Q1437.125,275.7969 1437.125,276.1406 Q1437.125,276.4844 1436.7813,276.8906 Q1436.2813,277.4688 1435.4844,277.7969 Q1434.4063,278.25 1433.1094,278.25 Q1431.5938,278.25 1430.3906,277.625 Q1429.4063,277.125 1428.7188,276.0625 Q1428.0313,274.9844 1428.0313,273.7031 L1428.0313,272.5469 Q1428.0313,271.2188 1428.6406,270.0781 Q1429.2656,268.9219 1430.3594,268.3125 Q1431.4531,267.6875 1432.6875,267.6875 Q1433.4219,267.6875 1434.0625,267.8594 Q1434.7188,268.0156 1435.2656,268.375 Z " fill="#000000"/><text fill="#000000" font-family="sans-serif" font-size="14" lengthAdjust="spacing" textLength="158" x="1446.5" y="278.2285">AuthenticationRepository</text><line style="stroke:#181818;stroke-width:0.5;" x1="1418.5" x2="1606.5" y1="288.5" y2="288.5"/><line style="stroke:#181818;stroke-width:0.5;" x1="1418.5" x2="1606.5" y1="296.5" y2="296.5"/><text fill="#000000" font-family="sans-serif" font-size="14" lengthAdjust="spacing" textLength="136" x="1423.5" y="315.0332">+getCurrentSession()</text></g><!--class Repositories--><g id="elem_Repositories"><rect codeLine="109" fill="#F1F1F1" height="118.4375" id="Repositories" rx="2.5" ry="2.5" style="stroke:#181818;stroke-width:0.5;" width="208" x="1337.5" y="25"/><ellipse cx="1397.75" cy="41" fill="#ADD1B2" rx="11" ry="11" style="stroke:#181818;stroke-width:1.0;"/><path d="M1400.5156,36.875 Q1400.6719,36.6563 1400.8594,36.5469 Q1401.0469,36.4375 1401.2656,36.4375 Q1401.6406,36.4375 1401.875,36.7031 Q1402.1094,36.9531 1402.1094,37.5625 L1402.1094,39.0156 Q1402.1094,39.625 1401.875,39.8906 Q1401.6406,40.1563 1401.2656,40.1563 Q1400.9219,40.1563 1400.7188,39.9531 Q1400.5156,39.7656 1400.4063,39.25 Q1400.3594,38.8906 1400.1719,38.7031 Q1399.8438,38.3281 1399.2344,38.1094 Q1398.625,37.8906 1398,37.8906 Q1397.2344,37.8906 1396.5938,38.2188 Q1395.9688,38.5469 1395.4688,39.2969 Q1394.9844,40.0469 1394.9844,41.0781 L1394.9844,42.1719 Q1394.9844,43.4063 1395.875,44.2344 Q1396.7656,45.0469 1398.3594,45.0469 Q1399.2969,45.0469 1399.9531,44.7969 Q1400.3438,44.6406 1400.7656,44.2031 Q1401.0313,43.9375 1401.1719,43.8594 Q1401.3281,43.7813 1401.5313,43.7813 Q1401.8594,43.7813 1402.1094,44.0469 Q1402.375,44.2969 1402.375,44.6406 Q1402.375,44.9844 1402.0313,45.3906 Q1401.5313,45.9688 1400.7344,46.2969 Q1399.6563,46.75 1398.3594,46.75 Q1396.8438,46.75 1395.6406,46.125 Q1394.6563,45.625 1393.9688,44.5625 Q1393.2813,43.4844 1393.2813,42.2031 L1393.2813,41.0469 Q1393.2813,39.7188 1393.8906,38.5781 Q1394.5156,37.4219 1395.6094,36.8125 Q1396.7031,36.1875 1397.9375,36.1875 Q1398.6719,36.1875 1399.3125,36.3594 Q1399.9688,36.5156 1400.5156,36.875 Z " fill="#000000"/><text fill="#000000" font-family="sans-serif" font-size="14" lengthAdjust="spacing" textLength="79" x="1418.25" y="46.7285">Repositories</text><line style="stroke:#181818;stroke-width:0.5;" x1="1338.5" x2="1544.5" y1="57" y2="57"/><line style="stroke:#181818;stroke-width:0.5;" x1="1338.5" x2="1544.5" y1="65" y2="65"/><text fill="#000000" font-family="sans-serif" font-size="14" lengthAdjust="spacing" textLength="94" x="1343.5" y="83.5332">-Repositories()</text><text fill="#000000" font-family="sans-serif" font-size="14" lengthAdjust="spacing" textLength="177" x="1343.5" y="101.1426">+getInstance() : repositories</text><text fill="#000000" font-family="sans-serif" font-size="14" lengthAdjust="spacing" textLength="153" x="1343.5" y="118.752">+getAgencyRepository()</text><text fill="#000000" font-family="sans-serif" font-size="14" lengthAdjust="spacing" textLength="196" x="1343.5" y="136.3613">+getAuthenticationRepository()</text></g><!--class AcceptOrdersController--><g id="elem_AcceptOrdersController"><rect codeLine="117" fill="#F1F1F1" height="153.6563" id="AcceptOrdersController" rx="2.5" ry="2.5" style="stroke:#181818;stroke-width:0.5;" width="406" x="827.5" y="7"/><ellipse cx="951.75" cy="23" fill="#ADD1B2" rx="11" ry="11" style="stroke:#181818;stroke-width:1.0;"/><path d="M954.5156,18.875 Q954.6719,18.6563 954.8594,18.5469 Q955.0469,18.4375 955.2656,18.4375 Q955.6406,18.4375 955.875,18.7031 Q956.1094,18.9531 956.1094,19.5625 L956.1094,21.0156 Q956.1094,21.625 955.875,21.8906 Q955.6406,22.1563 955.2656,22.1563 Q954.9219,22.1563 954.7188,21.9531 Q954.5156,21.7656 954.4063,21.25 Q954.3594,20.8906 954.1719,20.7031 Q953.8438,20.3281 953.2344,20.1094 Q952.625,19.8906 952,19.8906 Q951.2344,19.8906 950.5938,20.2188 Q949.9688,20.5469 949.4688,21.2969 Q948.9844,22.0469 948.9844,23.0781 L948.9844,24.1719 Q948.9844,25.4063 949.875,26.2344 Q950.7656,27.0469 952.3594,27.0469 Q953.2969,27.0469 953.9531,26.7969 Q954.3438,26.6406 954.7656,26.2031 Q955.0313,25.9375 955.1719,25.8594 Q955.3281,25.7813 955.5313,25.7813 Q955.8594,25.7813 956.1094,26.0469 Q956.375,26.2969 956.375,26.6406 Q956.375,26.9844 956.0313,27.3906 Q955.5313,27.9688 954.7344,28.2969 Q953.6563,28.75 952.3594,28.75 Q950.8438,28.75 949.6406,28.125 Q948.6563,27.625 947.9688,26.5625 Q947.2813,25.4844 947.2813,24.2031 L947.2813,23.0469 Q947.2813,21.7188 947.8906,20.5781 Q948.5156,19.4219 949.6094,18.8125 Q950.7031,18.1875 951.9375,18.1875 Q952.6719,18.1875 953.3125,18.3594 Q953.9688,18.5156 954.5156,18.875 Z " fill="#000000"/><text fill="#000000" font-family="sans-serif" font-size="14" lengthAdjust="spacing" textLength="149" x="972.25" y="28.7285">AcceptOrdersController</text><line style="stroke:#181818;stroke-width:0.5;" x1="828.5" x2="1232.5" y1="39" y2="39"/><line style="stroke:#181818;stroke-width:0.5;" x1="828.5" x2="1232.5" y1="47" y2="47"/><text fill="#000000" font-family="sans-serif" font-size="14" lengthAdjust="spacing" textLength="281" x="833.5" y="65.5332">+AcceptOrdersController(agencyRepository)</text><text fill="#000000" font-family="sans-serif" font-size="14" lengthAdjust="spacing" textLength="155" x="833.5" y="83.1426">+getAnnouncementList()</text><text fill="#000000" font-family="sans-serif" font-size="14" lengthAdjust="spacing" textLength="394" x="833.5" y="100.752">+defineOrderAcceptance (answer, orderId, announcementDto)</text><text fill="#000000" font-family="sans-serif" font-size="14" lengthAdjust="spacing" textLength="106" x="833.5" y="118.3613">-getAgentEmail()</text><text fill="#000000" font-family="sans-serif" font-size="14" lengthAdjust="spacing" textLength="309" x="833.5" y="135.9707">-getAnnouncementListByAgentEmail(agentEmail)</text><text fill="#000000" font-family="sans-serif" font-size="14" lengthAdjust="spacing" textLength="279" x="833.5" y="153.5801">-getAnnouncementFromId(announcementId)</text></g><!--class AcceptOrdersUI--><g id="elem_AcceptOrdersUI"><rect codeLine="127" fill="#F1F1F1" height="48" id="AcceptOrdersUI" rx="2.5" ry="2.5" style="stroke:#181818;stroke-width:0.5;" width="131" x="661" y="60"/><ellipse cx="676" cy="76" fill="#ADD1B2" rx="11" ry="11" style="stroke:#181818;stroke-width:1.0;"/><path d="M678.7656,71.875 Q678.9219,71.6563 679.1094,71.5469 Q679.2969,71.4375 679.5156,71.4375 Q679.8906,71.4375 680.125,71.7031 Q680.3594,71.9531 680.3594,72.5625 L680.3594,74.0156 Q680.3594,74.625 680.125,74.8906 Q679.8906,75.1563 679.5156,75.1563 Q679.1719,75.1563 678.9688,74.9531 Q678.7656,74.7656 678.6563,74.25 Q678.6094,73.8906 678.4219,73.7031 Q678.0938,73.3281 677.4844,73.1094 Q676.875,72.8906 676.25,72.8906 Q675.4844,72.8906 674.8438,73.2188 Q674.2188,73.5469 673.7188,74.2969 Q673.2344,75.0469 673.2344,76.0781 L673.2344,77.1719 Q673.2344,78.4063 674.125,79.2344 Q675.0156,80.0469 676.6094,80.0469 Q677.5469,80.0469 678.2031,79.7969 Q678.5938,79.6406 679.0156,79.2031 Q679.2813,78.9375 679.4219,78.8594 Q679.5781,78.7813 679.7813,78.7813 Q680.1094,78.7813 680.3594,79.0469 Q680.625,79.2969 680.625,79.6406 Q680.625,79.9844 680.2813,80.3906 Q679.7813,80.9688 678.9844,81.2969 Q677.9063,81.75 676.6094,81.75 Q675.0938,81.75 673.8906,81.125 Q672.9063,80.625 672.2188,79.5625 Q671.5313,78.4844 671.5313,77.2031 L671.5313,76.0469 Q671.5313,74.7188 672.1406,73.5781 Q672.7656,72.4219 673.8594,71.8125 Q674.9531,71.1875 676.1875,71.1875 Q676.9219,71.1875 677.5625,71.3594 Q678.2188,71.5156 678.7656,71.875 Z " fill="#000000"/><text fill="#000000" font-family="sans-serif" font-size="14" lengthAdjust="spacing" textLength="99" x="690" y="81.7285">AcceptOrdersUI</text><line style="stroke:#181818;stroke-width:0.5;" x1="662" x2="791" y1="92" y2="92"/><line style="stroke:#181818;stroke-width:0.5;" x1="662" x2="791" y1="100" y2="100"/></g><!--link Repositories to Repositories--><g id="link_Repositories_Repositories"><path codeLine="130" d="M1545.76,63.22 C1566.08,65.63 1580.5,72.56 1580.5,84 C1580.5,94.46 1568.45,101.14 1550.86,104.06 " fill="none" id="Repositories-to-Repositories" style="stroke:#181818;stroke-width:1.0;"/><polygon fill="#181818" points="1545.76,104.78,1555.232,107.4785,1550.7106,104.0789,1554.1102,99.5575,1545.76,104.78" style="stroke:#181818;stroke-width:1.0;"/><text fill="#000000" font-family="sans-serif" font-size="13" lengthAdjust="spacing" textLength="49" x="1586.5" y="89.4951">instance</text></g><!--link AcceptOrdersUI to AcceptOrdersController--><g id="link_AcceptOrdersUI_AcceptOrdersController"><path codeLine="132" d="M792.11,84 C804.52,84 815.62,84 822.04,84 " fill="none" id="AcceptOrdersUI-to-AcceptOrdersController" style="stroke:#181818;stroke-width:1.0;stroke-dasharray:7.0,7.0;"/><polygon fill="#181818" points="827.42,84,818.42,80,822.42,84,818.42,88,827.42,84" style="stroke:#181818;stroke-width:1.0;"/></g><!--link AcceptOrdersController to Repositories--><g id="link_AcceptOrdersController_Repositories"><path codeLine="133" d="M1233.59,84 C1267.62,84 1301.74,84 1332.21,84 " fill="none" id="AcceptOrdersController-to-Repositories" style="stroke:#181818;stroke-width:1.0;stroke-dasharray:7.0,7.0;"/><polygon fill="#181818" points="1337.46,84,1328.46,80,1332.46,84,1328.46,88,1337.46,84" style="stroke:#181818;stroke-width:1.0;"/><text fill="#000000" font-family="sans-serif" font-size="13" lengthAdjust="spacing" textLength="67" x="1252" y="77.4951">repositories</text></g><!--link AcceptOrdersController to AgencyRepository--><g id="link_AcceptOrdersController_AgencyRepository"><path codeLine="134" d="M1079.57,161.06 C1096.13,186.73 1110.5,209 1110.5,209 C1110.5,209 1127.23,221.09 1147.65,235.85 " fill="none" id="AcceptOrdersController-to-AgencyRepository" style="stroke:#181818;stroke-width:1.0;stroke-dasharray:7.0,7.0;"/><polygon fill="#181818" points="1151.77,238.83,1146.8137,230.3191,1147.7159,235.9036,1142.1314,236.8058,1151.77,238.83" style="stroke:#181818;stroke-width:1.0;"/><text fill="#000000" font-family="sans-serif" font-size="13" lengthAdjust="spacing" textLength="104" x="1111.5" y="205.4951">agencyRepository</text></g><!--link AcceptOrdersController to AuthenticationRepository--><g id="link_AcceptOrdersController_AuthenticationRepository"><path codeLine="135" d="M1211.45,161.06 C1272.51,186.73 1325.5,209 1325.5,209 C1325.5,209 1400.5,239 1400.5,239 C1400.5,239 1415.76,245.74 1435.01,254.25 " fill="none" id="AcceptOrdersController-to-AuthenticationRepository" style="stroke:#181818;stroke-width:1.0;stroke-dasharray:7.0,7.0;"/><polygon fill="#181818" points="1439.99,256.45,1433.3669,249.1606,1435.4145,254.4339,1430.1412,256.4815,1439.99,256.45" style="stroke:#181818;stroke-width:1.0;"/><text fill="#000000" font-family="sans-serif" font-size="13" lengthAdjust="spacing" textLength="143" x="1326.5" y="205.4951">authenticationRepository</text></g><!--link AcceptOrdersController to AnnouncementMapper--><g id="link_AcceptOrdersController_AnnouncementMapper"><path codeLine="136" d="M897.06,161.07 C847.08,189.55 792.07,220.91 749.12,245.4 " fill="none" id="AcceptOrdersController-to-AnnouncementMapper" style="stroke:#181818;stroke-width:1.0;stroke-dasharray:7.0,7.0;"/><polygon fill="#181818" points="744.74,247.89,754.538,246.8908,749.0795,245.4062,750.564,239.9477,744.74,247.89" style="stroke:#181818;stroke-width:1.0;"/></g><!--link AnnouncementMapper to AnnouncementDto--><g id="link_AnnouncementMapper_AnnouncementDto"><path codeLine="137" d="M614.46,331.17 C564.1,365.86 490.24,416.75 428.29,459.42 " fill="none" id="AnnouncementMapper-to-AnnouncementDto" style="stroke:#181818;stroke-width:1.0;stroke-dasharray:7.0,7.0;"/><polygon fill="#181818" points="423.85,462.48,433.5325,460.6774,427.9702,459.6474,429.0003,454.0851,423.85,462.48" style="stroke:#181818;stroke-width:1.0;"/></g><!--link AnnouncementMapper to Announcement--><g id="link_AnnouncementMapper_Announcement"><path codeLine="138" d="M673.5,331.17 C673.5,401.53 673.5,538.5 673.5,538.5 C673.5,538.5 673.5,538.5 673.5,870 C673.5,870 732.23,929.93 794.81,993.79 " fill="none" id="AnnouncementMapper-to-Announcement" style="stroke:#181818;stroke-width:1.0;stroke-dasharray:7.0,7.0;"/><polygon fill="#181818" points="798.55,997.61,795.1075,988.3824,795.0504,994.0389,789.3938,993.9818,798.55,997.61" style="stroke:#181818;stroke-width:1.0;"/></g><!--link AcceptOrdersController to OrderMapper--><g id="link_AcceptOrdersController_OrderMapper"><path codeLine="139" d="M1004.34,161.07 C994.83,188.69 984.4,219.01 976.1,243.15 " fill="none" id="AcceptOrdersController-to-OrderMapper" style="stroke:#181818;stroke-width:1.0;stroke-dasharray:7.0,7.0;"/><polygon fill="#181818" points="974.47,247.89,981.1632,240.665,976.0854,243.1581,973.5922,238.0803,974.47,247.89" style="stroke:#181818;stroke-width:1.0;"/></g><!--link OrderMapper to OrderDto--><g id="link_OrderMapper_OrderDto"><path codeLine="140" d="M948.2,331.17 C937.86,365.38 922.75,415.32 909.96,457.62 " fill="none" id="OrderMapper-to-OrderDto" style="stroke:#181818;stroke-width:1.0;stroke-dasharray:7.0,7.0;"/><polygon fill="#181818" points="908.49,462.48,914.9177,455.0177,909.9333,457.6928,907.2582,452.7085,908.49,462.48" style="stroke:#181818;stroke-width:1.0;"/></g><!--link OrderMapper to Order--><g id="link_OrderMapper_Order"><path codeLine="141" d="M1023.14,329.26 C1033.26,335.52 1040.5,340 1040.5,340 C1040.5,340 1406.5,401 1406.5,401 C1406.5,401 1442.5,538.5 1442.5,538.5 C1442.5,538.5 1442.5,538.5 1442.5,1146.5 C1442.5,1146.5 1406.5,1293 1406.5,1293 C1406.5,1293 1398.12,1317.84 1387.73,1348.65 " fill="none" id="OrderMapper-to-Order" style="stroke:#181818;stroke-width:1.0;stroke-dasharray:7.0,7.0;"/><polygon fill="#181818" points="1386.05,1353.64,1392.717,1346.3908,1387.6483,1348.9023,1385.1367,1343.8336,1386.05,1353.64" style="stroke:#181818;stroke-width:1.0;"/></g><!--link AcceptOrdersUI to AnnouncementDto--><g id="link_AcceptOrdersUI_AnnouncementDto"><path codeLine="142" d="M702.25,108.06 C657.05,151.02 564.5,239 564.5,239 C564.5,239 455.13,369.51 380.78,458.22 " fill="none" id="AcceptOrdersUI-to-AnnouncementDto" style="stroke:#181818;stroke-width:1.0;stroke-dasharray:7.0,7.0;"/><polygon fill="#181818" points="377.49,462.15,386.3404,457.8291,380.705,458.3206,380.2134,452.6852,377.49,462.15" style="stroke:#181818;stroke-width:1.0;"/></g><!--link AcceptOrdersUI to OrderDto--><g id="link_AcceptOrdersUI_OrderDto"><path codeLine="143" d="M734.88,108.06 C750.51,151.02 782.5,239 782.5,239 C782.5,239 827.03,368.47 857.53,457.16 " fill="none" id="AcceptOrdersUI-to-OrderDto" style="stroke:#181818;stroke-width:1.0;stroke-dasharray:7.0,7.0;"/><polygon fill="#181818" points="859.24,462.15,860.0912,452.338,857.6118,457.4225,852.5273,454.9431,859.24,462.15" style="stroke:#181818;stroke-width:1.0;"/></g><!--link Repositories to AuthenticationRepository--><g id="link_Repositories_AuthenticationRepository"><path codeLine="144" d="M1461.75,143.04 C1473.93,177.95 1489.06,221.32 1499.62,251.58 " fill="none" id="Repositories-to-AuthenticationRepository" style="stroke:#181818;stroke-width:1.0;"/><polygon fill="#181818" points="1501.27,256.32,1502.0948,246.5057,1499.6291,251.5969,1494.5379,249.1312,1501.27,256.32" style="stroke:#181818;stroke-width:1.0;"/><text fill="#000000" font-family="sans-serif" font-size="13" lengthAdjust="spacing" textLength="7" x="1491.2319" y="245.3983">1</text></g><!--link Repositories to AgencyRepository--><g id="link_Repositories_AgencyRepository"><path codeLine="145" d="M1348.05,143.27 C1308.54,167.9 1271.5,191 1271.5,191 C1271.5,191 1260.56,211.92 1248.81,234.39 " fill="none" id="Repositories-to-AgencyRepository" style="stroke:#181818;stroke-width:1.0;"/><polygon fill="#181818" points="1246.45,238.89,1254.1635,232.7661,1248.7658,234.4586,1247.0733,229.0609,1246.45,238.89" style="stroke:#181818;stroke-width:1.0;"/><text fill="#000000" font-family="sans-serif" font-size="13" lengthAdjust="spacing" textLength="7" x="1242.607" y="228.1799">1</text></g><!--link AgencyRepository to Agency--><g id="link_AgencyRepository_Agency"><path codeLine="146" d="M1223.3,340.09 C1224.23,356.57 1225.32,375.84 1226.44,395.77 " fill="none" id="AgencyRepository-to-Agency" style="stroke:#181818;stroke-width:1.0;"/><polygon fill="#181818" points="1226.73,400.85,1230.2085,391.6359,1226.4439,395.8582,1222.2216,392.0936,1226.73,400.85" style="stroke:#181818;stroke-width:1.0;"/><text fill="#000000" font-family="sans-serif" font-size="13" lengthAdjust="spacing" textLength="5" x="1221.1684" y="390.3369">*</text></g><!--link Agency to AnnouncementList--><g id="link_Agency_AnnouncementList"><path codeLine="147" d="M1184.38,678.44 C1169.73,718.76 1154.3,761.22 1141.76,795.72 " fill="none" id="Agency-to-AnnouncementList" style="stroke:#181818;stroke-width:1.0;"/><polygon fill="#181818" points="1139.94,800.75,1146.7627,793.6472,1141.6407,796.0481,1139.2397,790.9261,1139.94,800.75" style="stroke:#181818;stroke-width:1.0;"/><text fill="#000000" font-family="sans-serif" font-size="13" lengthAdjust="spacing" textLength="7" x="1135.2303" y="789.9219">1</text></g><!--link AnnouncementList to Announcement--><g id="link_AnnouncementList_Announcement"><path codeLine="148" d="M1073.18,937.15 C1062.3,954.41 1050.14,973.7 1037.75,993.37 " fill="none" id="AnnouncementList-to-Announcement" style="stroke:#181818;stroke-width:1.0;"/><polygon fill="#181818" points="1034.93,997.84,1043.1186,992.3676,1037.6005,993.6129,1036.3552,988.0948,1034.93,997.84" style="stroke:#181818;stroke-width:1.0;"/><text fill="#000000" font-family="sans-serif" font-size="13" lengthAdjust="spacing" textLength="7" x="1061.4548" y="958.5138">1</text><text fill="#000000" font-family="sans-serif" font-size="13" lengthAdjust="spacing" textLength="5" x="1034.567" y="987.33">*</text></g><!--link Announcement to OrderList--><g id="link_Announcement_OrderList"><path codeLine="149" d="M1087.17,1145.5 C1096.94,1145.5 1107.3,1145.5 1116.77,1145.5 " fill="none" id="Announcement-to-OrderList" style="stroke:#181818;stroke-width:1.0;"/><polygon fill="#181818" points="1121.93,1145.5,1112.93,1141.5,1116.93,1145.5,1112.93,1149.5,1121.93,1145.5" style="stroke:#181818;stroke-width:1.0;"/><text fill="#000000" font-family="sans-serif" font-size="13" lengthAdjust="spacing" textLength="7" x="1107.0056" y="1142.5414">1</text></g><!--link OrderList to Order--><g id="link_OrderList_Order"><path codeLine="150" d="M1275.11,1213.66 C1286.55,1252.84 1301.3,1303.35 1314.57,1348.8 " fill="none" id="OrderList-to-Order" style="stroke:#181818;stroke-width:1.0;"/><polygon fill="#181818" points="1316.02,1353.75,1317.34,1343.99,1314.62,1348.95,1309.66,1346.23,1316.02,1353.75" style="stroke:#181818;stroke-width:1.0;"/><text fill="#000000" font-family="sans-serif" font-size="13" lengthAdjust="spacing" textLength="7" x="1269.7713" y="1235.0248">1</text><text fill="#000000" font-family="sans-serif" font-size="13" lengthAdjust="spacing" textLength="5" x="1308.6698" y="1343.1745">*</text></g><!--SRC=[lLTDJzmm4BtdLrXSMCekQg-eMYaBLAn4YmIgUZQ9sNL9xDJs2gLL_tidjkFOZhr5FPG399xd-NZpF0wdyeMo3WlSefOpNkq5RmbIua2AoTBXwWNloAFg6u84gHHckyO7o3sk-IjbE_IC6-bR6ig8wZk2EjxqmqjncZ1oeNZXxQeQB6MfbA1F1qMs5MUFz2T1xukYq2PqBseYqAy2mSyANVF3KpDuWSMovGUchE6ELxYvnihQXYThkManRI0E9KpfPxl-236X35nLf8CoAr8o-Kg4jfwRi0ilpd9olFIzdTaDEwBk9_J2MxwQm8iOFRXpYvAeCifcWVMV4I78T-Y9oUsi-1rmz1btdMFg72b-hVYYeTB0vLcmhck9FTm1s34zl7pKosjJkHopX1OQbvl-bkxsHEOA7rpCAjxqszg4tzQZhIRFe0_ZnH5WIxUynxb24IvLoXIYTTZMM0LrJZWM7-lZt8Nv5n50YLx29MEmkI8jm5tI3-J70QY3bkg_TlMAjosLadA6AlTeRLkco0uwx4gzQRk6zuGWEB69Wp0fs_7m9ggXvh6UFPRbuFiRLNiZO1qgg1amK2xsQfmQQqLm_sm4CnD3h11BYfi7mOw9cxHTa-xUog3wN3l-9YCn9gJZGS18DLvAQKIY2VxPWlXhD1rIUBKLH4akPeaimstBP2xBAFwIrXaYvcVVjwwHtr_fiUmlR_hIgICXb0Yk1q5QDfZrFl8sgx2LdaPH4lTDFJ0LzdyWAy1bUCXEqMYpR_Opyzq20rNlI9snFQVKJGLjjosF10MrLO9sQfeBve8Zm- -o5aHAlulZZ5W3m3p9t3WP9iVW5ZNs8GpSxJaZNmxjaxiZJO4BlsixqwutIk0_AoRgp0FfkAIAYpuIlhQkzLIjAF7LhYsRVYJrMDuMMWOv95Ao6HtK7fQe8NxA318pi-yW1DWVYJxW_ZHpMCZKkrocnM14Cca6_Xcw17rDe3ZnAODWfcQo18n7hZvuPZ1TSQO4RnhlHANDcaG_R4O2mOMHlCjGU9bjwsLmqDpbjXgB3RxCLgc0HrKws_49lglJuaiGz7KBn80fwE9g7NRr4gucqxUYY3PVh3E45fasNCny1pB8xOAKPeVc4iLDExezenrmWt36TjJVR6WNYJaU8uSBDWKBKSVYUj_QXV_TxMn32CzmOPTJdOiJco6Smr0V4EhamqcMqWnwrgoueHhvRaHQEwoE3g9ZKSnkj07bd0Hy-b_0rftx02ocVpvy1uQruWy0]--></g></svg>