<?xml version="1.0" encoding="UTF-8" standalone="no"?><svg xmlns="http://www.w3.org/2000/svg" xmlns:xlink="http://www.w3.org/1999/xlink" contentStyleType="text/css" height="805px" preserveAspectRatio="none" style="width:1812px;height:805px;background:#FFFFFF;" version="1.1" viewBox="0 0 1812 805" width="1812px" zoomAndPan="magnify"><defs/><g><rect fill="#FFFFFF" height="645.3828" style="stroke:#181818;stroke-width:1.0;" width="10" x="305" y="87.5703"/><rect fill="#FFFFFF" height="91.0547" style="stroke:#181818;stroke-width:1.0;" width="10" x="591" y="143.2734"/><rect fill="#FFFFFF" height="30.3516" style="stroke:#181818;stroke-width:1.0;" width="10" x="772" y="173.625"/><rect fill="#FFFFFF" height="216.4609" style="stroke:#181818;stroke-width:1.0;" width="10" x="920" y="264.6797"/><rect fill="#FFFFFF" height="123.4063" style="stroke:#181818;stroke-width:1.0;" width="10" x="1222" y="320.3828"/><rect fill="#FFFFFF" height="184.1094" style="stroke:#181818;stroke-width:1.0;" width="10" x="1222" y="511.4922"/><rect fill="#FFFFFF" height="30.3516" style="stroke:#181818;stroke-width:1.0;" width="10" x="1524" y="376.0859"/><rect fill="#FFFFFF" height="123.4063" style="stroke:#181818;stroke-width:1.0;" width="10" x="1524" y="541.8438"/><rect fill="#FFFFFF" height="30.3516" style="stroke:#181818;stroke-width:1.0;" width="10" x="1723" y="597.5469"/><rect fill="none" height="601.0313" style="stroke:#000000;stroke-width:1.5;" width="1590" x="216.5" y="102.5703"/><rect fill="none" height="172.1094" style="stroke:#000000;stroke-width:1.5;" width="772" x="846.5" y="279.6797"/><rect fill="none" height="79.0547" style="stroke:#000000;stroke-width:1.5;" width="426" x="1182.5" y="335.3828"/><rect fill="none" height="79.0547" style="stroke:#000000;stroke-width:1.5;" width="347" x="1449.5" y="556.8438"/><line style="stroke:#181818;stroke-width:0.5;stroke-dasharray:5.0,5.0;" x1="309.5" x2="309.5" y1="55.2188" y2="750.9531"/><line style="stroke:#181818;stroke-width:0.5;stroke-dasharray:5.0,5.0;" x1="595.5" x2="595.5" y1="55.2188" y2="750.9531"/><line style="stroke:#181818;stroke-width:0.5;stroke-dasharray:5.0,5.0;" x1="776.5" x2="776.5" y1="55.2188" y2="750.9531"/><line style="stroke:#181818;stroke-width:0.5;stroke-dasharray:5.0,5.0;" x1="924.5" x2="924.5" y1="55.2188" y2="750.9531"/><line style="stroke:#181818;stroke-width:0.5;stroke-dasharray:5.0,5.0;" x1="1226.5" x2="1226.5" y1="55.2188" y2="750.9531"/><line style="stroke:#181818;stroke-width:0.5;stroke-dasharray:5.0,5.0;" x1="1528.5" x2="1528.5" y1="55.2188" y2="750.9531"/><line style="stroke:#181818;stroke-width:0.5;stroke-dasharray:5.0,5.0;" x1="1727.5" x2="1727.5" y1="55.2188" y2="750.9531"/><rect fill="#E3E3E3" height="31.6094" rx="2.5" ry="2.5" style="stroke:#181818;stroke-width:0.5;" width="167" x="226.5" y="22.6094"/><text fill="#000000" font-family="sans-serif" font-size="14" lengthAdjust="spacing" textLength="153" x="233.5" y="44.1426">:AcceptOrdersController</text><rect fill="#E3E3E3" height="31.6094" rx="2.5" ry="2.5" style="stroke:#181818;stroke-width:0.5;" width="167" x="226.5" y="749.9531"/><text fill="#000000" font-family="sans-serif" font-size="14" lengthAdjust="spacing" textLength="153" x="233.5" y="771.4863">:AcceptOrdersController</text><rect fill="#E3E3E3" height="49.2188" rx="2.5" ry="2.5" style="stroke:#181818;stroke-width:0.5;" width="165" x="513.5" y="5"/><text fill="#000000" font-family="sans-serif" font-size="14" lengthAdjust="spacing" textLength="142" x="525" y="26.5332">announcementMapper</text><text fill="#000000" font-family="sans-serif" font-size="14" lengthAdjust="spacing" textLength="151" x="520.5" y="44.1426">: AnnouncementMapper</text><rect fill="#E3E3E3" height="49.2188" rx="2.5" ry="2.5" style="stroke:#181818;stroke-width:0.5;" width="165" x="513.5" y="749.9531"/><text fill="#000000" font-family="sans-serif" font-size="14" lengthAdjust="spacing" textLength="142" x="525" y="771.4863">announcementMapper</text><text fill="#000000" font-family="sans-serif" font-size="14" lengthAdjust="spacing" textLength="151" x="520.5" y="789.0957">: AnnouncementMapper</text><rect fill="#E3E3E3" height="49.2188" rx="2.5" ry="2.5" style="stroke:#181818;stroke-width:0.5;" width="139" x="707.5" y="5"/><text fill="#000000" font-family="sans-serif" font-size="14" lengthAdjust="spacing" textLength="116" x="719" y="26.5332">announcementDto</text><text fill="#000000" font-family="sans-serif" font-size="14" lengthAdjust="spacing" textLength="125" x="714.5" y="44.1426">: AnnouncementDto</text><rect fill="#E3E3E3" height="49.2188" rx="2.5" ry="2.5" style="stroke:#181818;stroke-width:0.5;" width="139" x="707.5" y="749.9531"/><text fill="#000000" font-family="sans-serif" font-size="14" lengthAdjust="spacing" textLength="116" x="719" y="771.4863">announcementDto</text><text fill="#000000" font-family="sans-serif" font-size="14" lengthAdjust="spacing" textLength="125" x="714.5" y="789.0957">: AnnouncementDto</text><rect fill="#E3E3E3" height="49.2188" rx="2.5" ry="2.5" style="stroke:#181818;stroke-width:0.5;" width="137" x="856.5" y="5"/><text fill="#000000" font-family="sans-serif" font-size="14" lengthAdjust="spacing" textLength="114" x="868" y="26.5332">agencyRepository</text><text fill="#000000" font-family="sans-serif" font-size="14" lengthAdjust="spacing" textLength="123" x="863.5" y="44.1426">: AgencyRepository</text><rect fill="#E3E3E3" height="49.2188" rx="2.5" ry="2.5" style="stroke:#181818;stroke-width:0.5;" width="137" x="856.5" y="749.9531"/><text fill="#000000" font-family="sans-serif" font-size="14" lengthAdjust="spacing" textLength="114" x="868" y="771.4863">agencyRepository</text><text fill="#000000" font-family="sans-serif" font-size="14" lengthAdjust="spacing" textLength="123" x="863.5" y="789.0957">: AgencyRepository</text><rect fill="#E3E3E3" height="49.2188" rx="2.5" ry="2.5" style="stroke:#181818;stroke-width:0.5;" width="69" x="1192.5" y="5"/><text fill="#000000" font-family="sans-serif" font-size="14" lengthAdjust="spacing" textLength="46" x="1204" y="26.5332">agency</text><text fill="#000000" font-family="sans-serif" font-size="14" lengthAdjust="spacing" textLength="55" x="1199.5" y="44.1426">: Agency</text><rect fill="#E3E3E3" height="49.2188" rx="2.5" ry="2.5" style="stroke:#181818;stroke-width:0.5;" width="69" x="1192.5" y="749.9531"/><text fill="#000000" font-family="sans-serif" font-size="14" lengthAdjust="spacing" textLength="46" x="1204" y="771.4863">agency</text><text fill="#000000" font-family="sans-serif" font-size="14" lengthAdjust="spacing" textLength="55" x="1199.5" y="789.0957">: Agency</text><rect fill="#E3E3E3" height="49.2188" rx="2.5" ry="2.5" style="stroke:#181818;stroke-width:0.5;" width="139" x="1459.5" y="5"/><text fill="#000000" font-family="sans-serif" font-size="14" lengthAdjust="spacing" textLength="116" x="1471" y="26.5332">announcementList</text><text fill="#000000" font-family="sans-serif" font-size="14" lengthAdjust="spacing" textLength="125" x="1466.5" y="44.1426">: AnnouncementList</text><rect fill="#E3E3E3" height="49.2188" rx="2.5" ry="2.5" style="stroke:#181818;stroke-width:0.5;" width="139" x="1459.5" y="749.9531"/><text fill="#000000" font-family="sans-serif" font-size="14" lengthAdjust="spacing" textLength="116" x="1471" y="771.4863">announcementList</text><text fill="#000000" font-family="sans-serif" font-size="14" lengthAdjust="spacing" textLength="125" x="1466.5" y="789.0957">: AnnouncementList</text><rect fill="#E3E3E3" height="49.2188" rx="2.5" ry="2.5" style="stroke:#181818;stroke-width:0.5;" width="117" x="1669.5" y="5"/><text fill="#000000" font-family="sans-serif" font-size="14" lengthAdjust="spacing" textLength="94" x="1681" y="26.5332">announcement</text><text fill="#000000" font-family="sans-serif" font-size="14" lengthAdjust="spacing" textLength="103" x="1676.5" y="44.1426">: Announcement</text><rect fill="#E3E3E3" height="49.2188" rx="2.5" ry="2.5" style="stroke:#181818;stroke-width:0.5;" width="117" x="1669.5" y="749.9531"/><text fill="#000000" font-family="sans-serif" font-size="14" lengthAdjust="spacing" textLength="94" x="1681" y="771.4863">announcement</text><text fill="#000000" font-family="sans-serif" font-size="14" lengthAdjust="spacing" textLength="103" x="1676.5" y="789.0957">: Announcement</text><rect fill="#FFFFFF" height="645.3828" style="stroke:#181818;stroke-width:1.0;" width="10" x="305" y="87.5703"/><rect fill="#FFFFFF" height="91.0547" style="stroke:#181818;stroke-width:1.0;" width="10" x="591" y="143.2734"/><rect fill="#FFFFFF" height="30.3516" style="stroke:#181818;stroke-width:1.0;" width="10" x="772" y="173.625"/><rect fill="#FFFFFF" height="216.4609" style="stroke:#181818;stroke-width:1.0;" width="10" x="920" y="264.6797"/><rect fill="#FFFFFF" height="123.4063" style="stroke:#181818;stroke-width:1.0;" width="10" x="1222" y="320.3828"/><rect fill="#FFFFFF" height="184.1094" style="stroke:#181818;stroke-width:1.0;" width="10" x="1222" y="511.4922"/><rect fill="#FFFFFF" height="30.3516" style="stroke:#181818;stroke-width:1.0;" width="10" x="1524" y="376.0859"/><rect fill="#FFFFFF" height="123.4063" style="stroke:#181818;stroke-width:1.0;" width="10" x="1524" y="541.8438"/><rect fill="#FFFFFF" height="30.3516" style="stroke:#181818;stroke-width:1.0;" width="10" x="1723" y="597.5469"/><polygon fill="#181818" points="293,83.5703,303,87.5703,293,91.5703,297,87.5703" style="stroke:#181818;stroke-width:1.0;"/><line style="stroke:#181818;stroke-width:1.0;" x1="0" x2="299" y1="87.5703" y2="87.5703"/><text fill="#000000" font-family="sans-serif" font-size="13" font-weight="bold" lengthAdjust="spacing" textLength="14" x="7" y="82.7139">28</text><text fill="#000000" font-family="sans-serif" font-size="13" lengthAdjust="spacing" textLength="268" x="25" y="82.7139">getAnnouncementFromDto(announcementDto)</text><path d="M216.5,102.5703 L383.5,102.5703 L383.5,110.9219 L373.5,120.9219 L216.5,120.9219 L216.5,102.5703 " fill="#EEEEEE" style="stroke:#000000;stroke-width:1.5;"/><rect fill="none" height="601.0313" style="stroke:#000000;stroke-width:1.5;" width="1590" x="216.5" y="102.5703"/><text fill="#000000" font-family="sans-serif" font-size="13" font-weight="bold" lengthAdjust="spacing" textLength="122" x="231.5" y="117.0654">Get Announcement</text><polygon fill="#181818" points="579,139.2734,589,143.2734,579,147.2734,583,143.2734" style="stroke:#181818;stroke-width:1.0;"/><line style="stroke:#181818;stroke-width:1.0;" x1="315" x2="585" y1="143.2734" y2="143.2734"/><text fill="#000000" font-family="sans-serif" font-size="13" font-weight="bold" lengthAdjust="spacing" textLength="25" x="322" y="138.417">28.1</text><text fill="#000000" font-family="sans-serif" font-size="13" lengthAdjust="spacing" textLength="228" x="351" y="138.417">getAnnouncementId(announcementDto)</text><polygon fill="#181818" points="760,169.625,770,173.625,760,177.625,764,173.625" style="stroke:#181818;stroke-width:1.0;"/><line style="stroke:#181818;stroke-width:1.0;" x1="601" x2="766" y1="173.625" y2="173.625"/><text fill="#000000" font-family="sans-serif" font-size="13" font-weight="bold" lengthAdjust="spacing" textLength="25" x="608" y="168.7686">28.2</text><text fill="#000000" font-family="sans-serif" font-size="13" lengthAdjust="spacing" textLength="123" x="637" y="168.7686">getAnnouncementId()</text><polygon fill="#181818" points="612,199.9766,602,203.9766,612,207.9766,608,203.9766" style="stroke:#181818;stroke-width:1.0;"/><line style="stroke:#181818;stroke-width:1.0;stroke-dasharray:2.0,2.0;" x1="606" x2="776" y1="203.9766" y2="203.9766"/><text fill="#000000" font-family="sans-serif" font-size="13" font-weight="bold" lengthAdjust="spacing" textLength="25" x="618" y="199.1201">28.3</text><text fill="#000000" font-family="sans-serif" font-size="13" lengthAdjust="spacing" textLength="95" x="647" y="199.1201">announcementId</text><polygon fill="#181818" points="326,230.3281,316,234.3281,326,238.3281,322,234.3281" style="stroke:#181818;stroke-width:1.0;"/><line style="stroke:#181818;stroke-width:1.0;stroke-dasharray:2.0,2.0;" x1="320" x2="595" y1="234.3281" y2="234.3281"/><text fill="#000000" font-family="sans-serif" font-size="13" font-weight="bold" lengthAdjust="spacing" textLength="25" x="332" y="229.4717">28.4</text><text fill="#000000" font-family="sans-serif" font-size="13" lengthAdjust="spacing" textLength="95" x="361" y="229.4717">announcementId</text><polygon fill="#181818" points="908,260.6797,918,264.6797,908,268.6797,912,264.6797" style="stroke:#181818;stroke-width:1.0;"/><line style="stroke:#181818;stroke-width:1.0;" x1="315" x2="914" y1="264.6797" y2="264.6797"/><text fill="#000000" font-family="sans-serif" font-size="13" font-weight="bold" lengthAdjust="spacing" textLength="25" x="322" y="259.8232">28.5</text><text fill="#000000" font-family="sans-serif" font-size="13" lengthAdjust="spacing" textLength="278" x="351" y="259.8232">getAgencyByAnnouncementId(announcementId)</text><path d="M846.5,279.6797 L919.5,279.6797 L919.5,288.0313 L909.5,298.0313 L846.5,298.0313 L846.5,279.6797 " fill="#EEEEEE" style="stroke:#000000;stroke-width:1.5;"/><rect fill="none" height="172.1094" style="stroke:#000000;stroke-width:1.5;" width="772" x="846.5" y="279.6797"/><text fill="#000000" font-family="sans-serif" font-size="13" font-weight="bold" lengthAdjust="spacing" textLength="28" x="861.5" y="294.1748">loop</text><text fill="#000000" font-family="sans-serif" font-size="11" font-weight="bold" lengthAdjust="spacing" textLength="95" x="934.5" y="293.0986">[for each agency]</text><polygon fill="#181818" points="1210,316.3828,1220,320.3828,1210,324.3828,1214,320.3828" style="stroke:#181818;stroke-width:1.0;"/><line style="stroke:#181818;stroke-width:1.0;" x1="930" x2="1216" y1="320.3828" y2="320.3828"/><text fill="#000000" font-family="sans-serif" font-size="13" font-weight="bold" lengthAdjust="spacing" textLength="25" x="937" y="315.5264">28.6</text><text fill="#000000" font-family="sans-serif" font-size="13" lengthAdjust="spacing" textLength="244" x="966" y="315.5264">anyAnnouncementHasId(announcementId)</text><path d="M1182.5,335.3828 L1255.5,335.3828 L1255.5,343.7344 L1245.5,353.7344 L1182.5,353.7344 L1182.5,335.3828 " fill="#EEEEEE" style="stroke:#000000;stroke-width:1.5;"/><rect fill="none" height="79.0547" style="stroke:#000000;stroke-width:1.5;" width="426" x="1182.5" y="335.3828"/><text fill="#000000" font-family="sans-serif" font-size="13" font-weight="bold" lengthAdjust="spacing" textLength="28" x="1197.5" y="349.8779">loop</text><text fill="#000000" font-family="sans-serif" font-size="11" font-weight="bold" lengthAdjust="spacing" textLength="139" x="1270.5" y="348.8018">[for each announcement]</text><polygon fill="#181818" points="1512,372.0859,1522,376.0859,1512,380.0859,1516,376.0859" style="stroke:#181818;stroke-width:1.0;"/><line style="stroke:#181818;stroke-width:1.0;" x1="1232" x2="1518" y1="376.0859" y2="376.0859"/><text fill="#000000" font-family="sans-serif" font-size="13" font-weight="bold" lengthAdjust="spacing" textLength="25" x="1239" y="371.2295">28.7</text><text fill="#000000" font-family="sans-serif" font-size="13" lengthAdjust="spacing" textLength="244" x="1268" y="371.2295">anyAnnouncementHasId(announcementId)</text><polygon fill="#181818" points="1243,402.4375,1233,406.4375,1243,410.4375,1239,406.4375" style="stroke:#181818;stroke-width:1.0;"/><line style="stroke:#181818;stroke-width:1.0;stroke-dasharray:2.0,2.0;" x1="1237" x2="1528" y1="406.4375" y2="406.4375"/><text fill="#000000" font-family="sans-serif" font-size="13" font-weight="bold" lengthAdjust="spacing" textLength="25" x="1249" y="401.5811">28.8</text><text fill="#000000" font-family="sans-serif" font-size="13" lengthAdjust="spacing" textLength="53" x="1278" y="401.5811">true/false</text><polygon fill="#181818" points="941,439.7891,931,443.7891,941,447.7891,937,443.7891" style="stroke:#181818;stroke-width:1.0;"/><line style="stroke:#181818;stroke-width:1.0;stroke-dasharray:2.0,2.0;" x1="935" x2="1226" y1="443.7891" y2="443.7891"/><text fill="#000000" font-family="sans-serif" font-size="13" font-weight="bold" lengthAdjust="spacing" textLength="25" x="947" y="438.9326">28.9</text><text fill="#000000" font-family="sans-serif" font-size="13" lengthAdjust="spacing" textLength="53" x="976" y="438.9326">true/false</text><polygon fill="#181818" points="326,477.1406,316,481.1406,326,485.1406,322,481.1406" style="stroke:#181818;stroke-width:1.0;"/><line style="stroke:#181818;stroke-width:1.0;stroke-dasharray:2.0,2.0;" x1="320" x2="924" y1="481.1406" y2="481.1406"/><text fill="#000000" font-family="sans-serif" font-size="13" font-weight="bold" lengthAdjust="spacing" textLength="32" x="332" y="476.2842">28.10</text><text fill="#000000" font-family="sans-serif" font-size="13" lengthAdjust="spacing" textLength="42" x="368" y="476.2842">agency</text><polygon fill="#181818" points="1210,507.4922,1220,511.4922,1210,515.4922,1214,511.4922" style="stroke:#181818;stroke-width:1.0;"/><line style="stroke:#181818;stroke-width:1.0;" x1="315" x2="1216" y1="511.4922" y2="511.4922"/><text fill="#000000" font-family="sans-serif" font-size="13" font-weight="bold" lengthAdjust="spacing" textLength="32" x="322" y="506.6357">28.11</text><text fill="#000000" font-family="sans-serif" font-size="13" lengthAdjust="spacing" textLength="236" x="358" y="506.6357">getAnnouncementByID(announcementId)</text><polygon fill="#181818" points="1512,537.8438,1522,541.8438,1512,545.8438,1516,541.8438" style="stroke:#181818;stroke-width:1.0;"/><line style="stroke:#181818;stroke-width:1.0;" x1="1232" x2="1518" y1="541.8438" y2="541.8438"/><text fill="#000000" font-family="sans-serif" font-size="13" font-weight="bold" lengthAdjust="spacing" textLength="32" x="1239" y="536.9873">28.12</text><text fill="#000000" font-family="sans-serif" font-size="13" lengthAdjust="spacing" textLength="236" x="1275" y="536.9873">getAnnouncementByID(announcementId)</text><path d="M1449.5,556.8438 L1522.5,556.8438 L1522.5,565.1953 L1512.5,575.1953 L1449.5,575.1953 L1449.5,556.8438 " fill="#EEEEEE" style="stroke:#000000;stroke-width:1.5;"/><rect fill="none" height="79.0547" style="stroke:#000000;stroke-width:1.5;" width="347" x="1449.5" y="556.8438"/><text fill="#000000" font-family="sans-serif" font-size="13" font-weight="bold" lengthAdjust="spacing" textLength="28" x="1464.5" y="571.3389">loop</text><text fill="#000000" font-family="sans-serif" font-size="11" font-weight="bold" lengthAdjust="spacing" textLength="139" x="1537.5" y="570.2627">[for each announcement]</text><polygon fill="#181818" points="1711,593.5469,1721,597.5469,1711,601.5469,1715,597.5469" style="stroke:#181818;stroke-width:1.0;"/><line style="stroke:#181818;stroke-width:1.0;" x1="1534" x2="1717" y1="597.5469" y2="597.5469"/><text fill="#000000" font-family="sans-serif" font-size="13" font-weight="bold" lengthAdjust="spacing" textLength="32" x="1541" y="592.6904">28.13</text><text fill="#000000" font-family="sans-serif" font-size="13" lengthAdjust="spacing" textLength="134" x="1577" y="592.6904">hasId(announcementId)</text><polygon fill="#181818" points="1545,623.8984,1535,627.8984,1545,631.8984,1541,627.8984" style="stroke:#181818;stroke-width:1.0;"/><line style="stroke:#181818;stroke-width:1.0;stroke-dasharray:2.0,2.0;" x1="1539" x2="1727" y1="627.8984" y2="627.8984"/><text fill="#000000" font-family="sans-serif" font-size="13" font-weight="bold" lengthAdjust="spacing" textLength="32" x="1551" y="623.042">28.14</text><text fill="#000000" font-family="sans-serif" font-size="13" lengthAdjust="spacing" textLength="53" x="1587" y="623.042">true/false</text><polygon fill="#181818" points="1243,661.25,1233,665.25,1243,669.25,1239,665.25" style="stroke:#181818;stroke-width:1.0;"/><line style="stroke:#181818;stroke-width:1.0;stroke-dasharray:2.0,2.0;" x1="1237" x2="1528" y1="665.25" y2="665.25"/><text fill="#000000" font-family="sans-serif" font-size="13" font-weight="bold" lengthAdjust="spacing" textLength="32" x="1249" y="660.3936">28.15</text><text fill="#000000" font-family="sans-serif" font-size="13" lengthAdjust="spacing" textLength="85" x="1285" y="660.3936">announcement</text><polygon fill="#181818" points="326,691.6016,316,695.6016,326,699.6016,322,695.6016" style="stroke:#181818;stroke-width:1.0;"/><line style="stroke:#181818;stroke-width:1.0;stroke-dasharray:2.0,2.0;" x1="320" x2="1226" y1="695.6016" y2="695.6016"/><text fill="#000000" font-family="sans-serif" font-size="13" font-weight="bold" lengthAdjust="spacing" textLength="32" x="332" y="690.7451">28.16</text><text fill="#000000" font-family="sans-serif" font-size="13" lengthAdjust="spacing" textLength="85" x="368" y="690.7451">announcement</text><polygon fill="#181818" points="11,728.9531,1,732.9531,11,736.9531,7,732.9531" style="stroke:#181818;stroke-width:1.0;"/><line style="stroke:#181818;stroke-width:1.0;stroke-dasharray:2.0,2.0;" x1="5" x2="309" y1="732.9531" y2="732.9531"/><text fill="#000000" font-family="sans-serif" font-size="13" font-weight="bold" lengthAdjust="spacing" textLength="14" x="17" y="728.0967">29</text><text fill="#000000" font-family="sans-serif" font-size="13" lengthAdjust="spacing" textLength="85" x="35" y="728.0967">announcement</text><!--SRC=[dLJ1RjGm4BtxAqOzmM51S888LThkbh9IIwkb5oGk9fbceoPsv3YW_3tEE75iPxFRabDsCk-zyRotRfuBKNF5AwYaaEb1oGf1gnPPuxxKF7tcEVxGNOcWCDLSvANVq1nu9lyM8eSdNZR863DrNQH5pOM6YsITfbZhUvMXQZPIQ2NB4jK5y0OsZ_lRi9iB8LkHOeL2t_6wHlLB9B2ULGbkodVhXuVh_JB7LikOm9H6zFRnFeBcAD9kZxLi2YrLHzYePi6vAHp3JWZRTtFzVVDpURxRej7nW7rjdB1_NqR7o1551SPugwLegz-euECd1kPPNTBE4yXH-y2lndcpbpVHwjuIYAUw-CCrMhjo9TiQRb07og7Mkmy4xFjxIUVJJ7UNdP6SBAQw-pdG6WEFSSv9UgT71lCEgt0i7k2fCSCb_3Y1M-PPj7y4jvG-GNPuYijLTs8nkom-4kMFQlrJIbd3arHWP0zWapXzfMRIf3H2OeX48FUDDmkAeQfDCtXFfEn78kWRfEtQ-rI_TeZOKVfd10gsPgqbjOJkilVsMl9RGtU8AVYE8gE3iNZwoRSZp3whNHIR4JBFZo4_nex1i9XayjY5nXaOXVwgsstF9CORQMO69Fz166-Eed0k2ywbItT_6F732_FdhZQFpdAORRgpdF5cHXAvCyiHX7znTYf2Nb96Sqz11rFw2UXY3I_jpzJ_PRKwSj74L7Gv_mC0]--></g></svg>