<?xml version="1.0" encoding="UTF-8" standalone="no"?><svg xmlns="http://www.w3.org/2000/svg" xmlns:xlink="http://www.w3.org/1999/xlink" contentStyleType="text/css" height="1482px" preserveAspectRatio="none" style="width:1932px;height:1482px;background:#FFFFFF;" version="1.1" viewBox="0 0 1932 1482" width="1932px" zoomAndPan="magnify"><defs/><g><rect fill="#FFFFFF" height="1322.6406" style="stroke:#181818;stroke-width:1.0;" width="10" x="250" y="87.5703"/><rect fill="#FFFFFF" height="399.5703" style="stroke:#181818;stroke-width:1.0;" width="10" x="255" y="203.9766"/><rect fill="#FFFFFF" height="41.3516" style="stroke:#181818;stroke-width:1.0;" width="10" x="255" y="1299.5078"/><rect fill="#FFFFFF" height="30.3516" style="stroke:#181818;stroke-width:1.0;" width="10" x="426" y="239.3281"/><rect fill="#FFFFFF" height="91.0547" style="stroke:#181818;stroke-width:1.0;" width="10" x="426" y="300.0313"/><rect fill="#FFFFFF" height="30.3516" style="stroke:#181818;stroke-width:1.0;" width="10" x="426" y="421.4375"/><rect fill="#FFFFFF" height="30.3516" style="stroke:#181818;stroke-width:1.0;" width="10" x="426" y="482.1406"/><rect fill="#FFFFFF" height="30.3516" style="stroke:#181818;stroke-width:1.0;" width="10" x="426" y="542.8438"/><rect fill="#FFFFFF" height="30.3516" style="stroke:#181818;stroke-width:1.0;" width="10" x="544" y="330.3828"/><rect fill="#FFFFFF" height="647.6094" style="stroke:#181818;stroke-width:1.0;" width="10" x="750.5" y="613.5469"/><rect fill="#FFFFFF" height="90.5703" style="stroke:#181818;stroke-width:1.0;" width="10" x="891.5" y="663.7656"/><rect fill="#FFFFFF" height="234.625" style="stroke:#181818;stroke-width:1.0;" width="10" x="1143" y="784.6875"/><rect fill="#FFFFFF" height="41.3516" style="stroke:#181818;stroke-width:1.0;" width="10" x="1148" y="908.6094"/><rect fill="#FFFFFF" height="90.5703" style="stroke:#181818;stroke-width:1.0;" width="10" x="1420" y="1049.6641"/><rect fill="#FFFFFF" height="90.5703" style="stroke:#181818;stroke-width:1.0;" width="10" x="1700" y="1170.5859"/><rect fill="none" height="1225.5859" style="stroke:#000000;stroke-width:1.5;" width="1763.5" x="162.5" y="155.2734"/><rect fill="none" height="190.2734" style="stroke:#000000;stroke-width:1.5;" width="274.5" x="1084.5" y="799.6875"/><line style="stroke:#181818;stroke-width:0.5;stroke-dasharray:5.0,5.0;" x1="254.5" x2="254.5" y1="55.2188" y2="1428.2109"/><line style="stroke:#181818;stroke-width:0.5;stroke-dasharray:5.0,5.0;" x1="430.5" x2="430.5" y1="55.2188" y2="1428.2109"/><line style="stroke:#181818;stroke-width:0.5;stroke-dasharray:5.0,5.0;" x1="548.5" x2="548.5" y1="55.2188" y2="1428.2109"/><line style="stroke:#181818;stroke-width:0.5;stroke-dasharray:5.0,5.0;" x1="755" x2="755" y1="621.3047" y2="1428.2109"/><line style="stroke:#181818;stroke-width:0.5;stroke-dasharray:5.0,5.0;" x1="896" x2="896" y1="55.2188" y2="1428.2109"/><line style="stroke:#181818;stroke-width:0.5;stroke-dasharray:5.0,5.0;" x1="1035.5" x2="1035.5" y1="711.875" y2="1428.2109"/><line style="stroke:#181818;stroke-width:0.5;stroke-dasharray:5.0,5.0;" x1="1147.5" x2="1147.5" y1="55.2188" y2="1428.2109"/><line style="stroke:#181818;stroke-width:0.5;stroke-dasharray:5.0,5.0;" x1="1308" x2="1308" y1="858.1484" y2="1428.2109"/><line style="stroke:#181818;stroke-width:0.5;stroke-dasharray:5.0,5.0;" x1="1425" x2="1425" y1="55.2188" y2="1428.2109"/><line style="stroke:#181818;stroke-width:0.5;stroke-dasharray:5.0,5.0;" x1="1569" x2="1569" y1="1097.7734" y2="1428.2109"/><line style="stroke:#181818;stroke-width:0.5;stroke-dasharray:5.0,5.0;" x1="1705" x2="1705" y1="55.2188" y2="1428.2109"/><line style="stroke:#181818;stroke-width:0.5;stroke-dasharray:5.0,5.0;" x1="1856" x2="1856" y1="1218.6953" y2="1428.2109"/><rect fill="#E3E3E3" height="49.2188" rx="2.5" ry="2.5" style="stroke:#181818;stroke-width:0.5;" width="165" x="172.5" y="5"/><text fill="#000000" font-family="sans-serif" font-size="14" lengthAdjust="spacing" textLength="142" x="184" y="26.5332">announcementMapper</text><text fill="#000000" font-family="sans-serif" font-size="14" lengthAdjust="spacing" textLength="151" x="179.5" y="44.1426">: AnnouncementMapper</text><rect fill="#E3E3E3" height="49.2188" rx="2.5" ry="2.5" style="stroke:#181818;stroke-width:0.5;" width="165" x="172.5" y="1427.2109"/><text fill="#000000" font-family="sans-serif" font-size="14" lengthAdjust="spacing" textLength="142" x="184" y="1448.7441">announcementMapper</text><text fill="#000000" font-family="sans-serif" font-size="14" lengthAdjust="spacing" textLength="151" x="179.5" y="1466.3535">: AnnouncementMapper</text><rect fill="#E3E3E3" height="49.2188" rx="2.5" ry="2.5" style="stroke:#181818;stroke-width:0.5;" width="117" x="372.5" y="5"/><text fill="#000000" font-family="sans-serif" font-size="14" lengthAdjust="spacing" textLength="94" x="384" y="26.5332">announcement</text><text fill="#000000" font-family="sans-serif" font-size="14" lengthAdjust="spacing" textLength="103" x="379.5" y="44.1426">: Announcement</text><rect fill="#E3E3E3" height="49.2188" rx="2.5" ry="2.5" style="stroke:#181818;stroke-width:0.5;" width="117" x="372.5" y="1427.2109"/><text fill="#000000" font-family="sans-serif" font-size="14" lengthAdjust="spacing" textLength="94" x="384" y="1448.7441">announcement</text><text fill="#000000" font-family="sans-serif" font-size="14" lengthAdjust="spacing" textLength="103" x="379.5" y="1466.3535">: Announcement</text><rect fill="#E3E3E3" height="49.2188" rx="2.5" ry="2.5" style="stroke:#181818;stroke-width:0.5;" width="81" x="508.5" y="5"/><text fill="#000000" font-family="sans-serif" font-size="14" lengthAdjust="spacing" textLength="56" x="521" y="26.5332">orderList</text><text fill="#000000" font-family="sans-serif" font-size="14" lengthAdjust="spacing" textLength="67" x="515.5" y="44.1426">: OrderList</text><rect fill="#E3E3E3" height="49.2188" rx="2.5" ry="2.5" style="stroke:#181818;stroke-width:0.5;" width="81" x="508.5" y="1427.2109"/><text fill="#000000" font-family="sans-serif" font-size="14" lengthAdjust="spacing" textLength="56" x="521" y="1448.7441">orderList</text><text fill="#000000" font-family="sans-serif" font-size="14" lengthAdjust="spacing" textLength="67" x="515.5" y="1466.3535">: OrderList</text><rect fill="#E3E3E3" height="49.2188" rx="2.5" ry="2.5" style="stroke:#181818;stroke-width:0.5;" width="139" x="686" y="1427.2109"/><text fill="#000000" font-family="sans-serif" font-size="14" lengthAdjust="spacing" textLength="116" x="697.5" y="1448.7441">announcementDto</text><text fill="#000000" font-family="sans-serif" font-size="14" lengthAdjust="spacing" textLength="125" x="693" y="1466.3535">: AnnouncementDto</text><rect fill="#E3E3E3" height="49.2188" rx="2.5" ry="2.5" style="stroke:#181818;stroke-width:0.5;" width="123" x="835" y="5"/><text fill="#000000" font-family="sans-serif" font-size="14" lengthAdjust="spacing" textLength="96" x="848.5" y="26.5332">requestMapper</text><text fill="#000000" font-family="sans-serif" font-size="14" lengthAdjust="spacing" textLength="109" x="842" y="44.1426">: RequestMapper</text><rect fill="#E3E3E3" height="49.2188" rx="2.5" ry="2.5" style="stroke:#181818;stroke-width:0.5;" width="123" x="835" y="1427.2109"/><text fill="#000000" font-family="sans-serif" font-size="14" lengthAdjust="spacing" textLength="96" x="848.5" y="1448.7441">requestMapper</text><text fill="#000000" font-family="sans-serif" font-size="14" lengthAdjust="spacing" textLength="109" x="842" y="1466.3535">: RequestMapper</text><rect fill="#E3E3E3" height="49.2188" rx="2.5" ry="2.5" style="stroke:#181818;stroke-width:0.5;" width="97" x="987.5" y="1427.2109"/><text fill="#000000" font-family="sans-serif" font-size="14" lengthAdjust="spacing" textLength="70" x="1001" y="1448.7441">requestDto</text><text fill="#000000" font-family="sans-serif" font-size="14" lengthAdjust="spacing" textLength="83" x="994.5" y="1466.3535">: RequestDto</text><rect fill="#E3E3E3" height="49.2188" rx="2.5" ry="2.5" style="stroke:#181818;stroke-width:0.5;" width="107" x="1094.5" y="5"/><text fill="#000000" font-family="sans-serif" font-size="14" lengthAdjust="spacing" textLength="82" x="1107" y="26.5332">orderMapper</text><text fill="#000000" font-family="sans-serif" font-size="14" lengthAdjust="spacing" textLength="93" x="1101.5" y="44.1426">: OrderMapper</text><rect fill="#E3E3E3" height="49.2188" rx="2.5" ry="2.5" style="stroke:#181818;stroke-width:0.5;" width="107" x="1094.5" y="1427.2109"/><text fill="#000000" font-family="sans-serif" font-size="14" lengthAdjust="spacing" textLength="82" x="1107" y="1448.7441">orderMapper</text><text fill="#000000" font-family="sans-serif" font-size="14" lengthAdjust="spacing" textLength="93" x="1101.5" y="1466.3535">: OrderMapper</text><rect fill="#E3E3E3" height="49.2188" rx="2.5" ry="2.5" style="stroke:#181818;stroke-width:0.5;" width="81" x="1268" y="1427.2109"/><text fill="#000000" font-family="sans-serif" font-size="14" lengthAdjust="spacing" textLength="56" x="1280.5" y="1448.7441">orderDto</text><text fill="#000000" font-family="sans-serif" font-size="14" lengthAdjust="spacing" textLength="67" x="1275" y="1466.3535">: OrderDto</text><rect fill="#E3E3E3" height="49.2188" rx="2.5" ry="2.5" style="stroke:#181818;stroke-width:0.5;" width="132" x="1359" y="5"/><text fill="#000000" font-family="sans-serif" font-size="14" lengthAdjust="spacing" textLength="109" x="1370.5" y="26.5332">employeeMapper</text><text fill="#000000" font-family="sans-serif" font-size="14" lengthAdjust="spacing" textLength="118" x="1366" y="44.1426">: EmployeeMapper</text><rect fill="#E3E3E3" height="49.2188" rx="2.5" ry="2.5" style="stroke:#181818;stroke-width:0.5;" width="132" x="1359" y="1427.2109"/><text fill="#000000" font-family="sans-serif" font-size="14" lengthAdjust="spacing" textLength="109" x="1370.5" y="1448.7441">employeeMapper</text><text fill="#000000" font-family="sans-serif" font-size="14" lengthAdjust="spacing" textLength="118" x="1366" y="1466.3535">: EmployeeMapper</text><rect fill="#E3E3E3" height="49.2188" rx="2.5" ry="2.5" style="stroke:#181818;stroke-width:0.5;" width="106" x="1516" y="1427.2109"/><text fill="#000000" font-family="sans-serif" font-size="14" lengthAdjust="spacing" textLength="83" x="1527.5" y="1448.7441">employeeDto</text><text fill="#000000" font-family="sans-serif" font-size="14" lengthAdjust="spacing" textLength="92" x="1523" y="1466.3535">: EmployeeDto</text><rect fill="#E3E3E3" height="49.2188" rx="2.5" ry="2.5" style="stroke:#181818;stroke-width:0.5;" width="146" x="1632" y="5"/><text fill="#000000" font-family="sans-serif" font-size="14" lengthAdjust="spacing" textLength="121" x="1644.5" y="26.5332">commissionMapper</text><text fill="#000000" font-family="sans-serif" font-size="14" lengthAdjust="spacing" textLength="132" x="1639" y="44.1426">: CommissionMapper</text><rect fill="#E3E3E3" height="49.2188" rx="2.5" ry="2.5" style="stroke:#181818;stroke-width:0.5;" width="146" x="1632" y="1427.2109"/><text fill="#000000" font-family="sans-serif" font-size="14" lengthAdjust="spacing" textLength="121" x="1644.5" y="1448.7441">commissionMapper</text><text fill="#000000" font-family="sans-serif" font-size="14" lengthAdjust="spacing" textLength="132" x="1639" y="1466.3535">: CommissionMapper</text><rect fill="#E3E3E3" height="49.2188" rx="2.5" ry="2.5" style="stroke:#181818;stroke-width:0.5;" width="120" x="1796" y="1427.2109"/><text fill="#000000" font-family="sans-serif" font-size="14" lengthAdjust="spacing" textLength="95" x="1808.5" y="1448.7441">commissionDto</text><text fill="#000000" font-family="sans-serif" font-size="14" lengthAdjust="spacing" textLength="106" x="1803" y="1466.3535">: CommissionDto</text><rect fill="#FFFFFF" height="1322.6406" style="stroke:#181818;stroke-width:1.0;" width="10" x="250" y="87.5703"/><rect fill="#FFFFFF" height="399.5703" style="stroke:#181818;stroke-width:1.0;" width="10" x="255" y="203.9766"/><rect fill="#FFFFFF" height="41.3516" style="stroke:#181818;stroke-width:1.0;" width="10" x="255" y="1299.5078"/><rect fill="#FFFFFF" height="30.3516" style="stroke:#181818;stroke-width:1.0;" width="10" x="426" y="239.3281"/><rect fill="#FFFFFF" height="91.0547" style="stroke:#181818;stroke-width:1.0;" width="10" x="426" y="300.0313"/><rect fill="#FFFFFF" height="30.3516" style="stroke:#181818;stroke-width:1.0;" width="10" x="426" y="421.4375"/><rect fill="#FFFFFF" height="30.3516" style="stroke:#181818;stroke-width:1.0;" width="10" x="426" y="482.1406"/><rect fill="#FFFFFF" height="30.3516" style="stroke:#181818;stroke-width:1.0;" width="10" x="426" y="542.8438"/><rect fill="#FFFFFF" height="30.3516" style="stroke:#181818;stroke-width:1.0;" width="10" x="544" y="330.3828"/><rect fill="#FFFFFF" height="647.6094" style="stroke:#181818;stroke-width:1.0;" width="10" x="750.5" y="613.5469"/><rect fill="#FFFFFF" height="90.5703" style="stroke:#181818;stroke-width:1.0;" width="10" x="891.5" y="663.7656"/><rect fill="#FFFFFF" height="234.625" style="stroke:#181818;stroke-width:1.0;" width="10" x="1143" y="784.6875"/><rect fill="#FFFFFF" height="41.3516" style="stroke:#181818;stroke-width:1.0;" width="10" x="1148" y="908.6094"/><rect fill="#FFFFFF" height="90.5703" style="stroke:#181818;stroke-width:1.0;" width="10" x="1420" y="1049.6641"/><rect fill="#FFFFFF" height="90.5703" style="stroke:#181818;stroke-width:1.0;" width="10" x="1700" y="1170.5859"/><polygon fill="#181818" points="238,83.5703,248,87.5703,238,91.5703,242,87.5703" style="stroke:#181818;stroke-width:1.0;"/><line style="stroke:#181818;stroke-width:1.0;" x1="0" x2="244" y1="87.5703" y2="87.5703"/><text fill="#000000" font-family="sans-serif" font-size="13" font-weight="bold" lengthAdjust="spacing" textLength="7" x="7" y="82.7139">1</text><text fill="#000000" font-family="sans-serif" font-size="13" lengthAdjust="spacing" textLength="220" x="18" y="82.7139">toDTO(announcementListAllAgencies)</text><path d="M265,100.5703 L265,142.5703 L669,142.5703 L669,110.5703 L659,100.5703 L265,100.5703 " fill="#FAFAFA" style="stroke:#181818;stroke-width:0.5;"/><path d="M659,100.5703 L659,110.5703 L669,110.5703 L659,100.5703 " fill="#FAFAFA" style="stroke:#181818;stroke-width:0.5;"/><text fill="#000000" font-family="sans-serif" font-size="13" font-weight="bold" lengthAdjust="spacing" textLength="160" x="271" y="119.0654">DÚVIDAS | FALTA FAZER:</text><ellipse cx="276.5" cy="130.7734" fill="#000000" rx="2.5" ry="2.5" style="stroke:#000000;stroke-width:0.0;"/><text fill="#000000" font-family="sans-serif" font-size="13" lengthAdjust="spacing" textLength="371" x="283" y="135.417">Será necessário colocar os mappers do requestDto; orderList....</text><path d="M162.5,155.2734 L235.5,155.2734 L235.5,163.625 L225.5,173.625 L162.5,173.625 L162.5,155.2734 " fill="#EEEEEE" style="stroke:#000000;stroke-width:1.5;"/><rect fill="none" height="1225.5859" style="stroke:#000000;stroke-width:1.5;" width="1763.5" x="162.5" y="155.2734"/><text fill="#000000" font-family="sans-serif" font-size="13" font-weight="bold" lengthAdjust="spacing" textLength="28" x="177.5" y="169.7686">loop</text><text fill="#000000" font-family="sans-serif" font-size="11" font-weight="bold" lengthAdjust="spacing" textLength="139" x="250.5" y="168.6924">[for each announcement]</text><line style="stroke:#181818;stroke-width:1.0;" x1="260" x2="307" y1="190.9766" y2="190.9766"/><line style="stroke:#181818;stroke-width:1.0;" x1="307" x2="307" y1="190.9766" y2="203.9766"/><line style="stroke:#181818;stroke-width:1.0;" x1="266" x2="307" y1="203.9766" y2="203.9766"/><polygon fill="#181818" points="276,199.9766,266,203.9766,276,207.9766,272,203.9766" style="stroke:#181818;stroke-width:1.0;"/><text fill="#000000" font-family="sans-serif" font-size="13" font-weight="bold" lengthAdjust="spacing" textLength="7" x="272" y="186.1201">2</text><text fill="#000000" font-family="sans-serif" font-size="13" lengthAdjust="spacing" textLength="130" x="283" y="186.1201">toDTO(announcement)</text><polygon fill="#181818" points="414,235.3281,424,239.3281,414,243.3281,418,239.3281" style="stroke:#181818;stroke-width:1.0;"/><line style="stroke:#181818;stroke-width:1.0;" x1="265" x2="420" y1="239.3281" y2="239.3281"/><text fill="#000000" font-family="sans-serif" font-size="13" font-weight="bold" lengthAdjust="spacing" textLength="7" x="272" y="234.4717">3</text><text fill="#000000" font-family="sans-serif" font-size="13" lengthAdjust="spacing" textLength="74" x="283" y="234.4717">getRequest()</text><polygon fill="#181818" points="276,265.6797,266,269.6797,276,273.6797,272,269.6797" style="stroke:#181818;stroke-width:1.0;"/><line style="stroke:#181818;stroke-width:1.0;stroke-dasharray:2.0,2.0;" x1="270" x2="430" y1="269.6797" y2="269.6797"/><text fill="#000000" font-family="sans-serif" font-size="13" font-weight="bold" lengthAdjust="spacing" textLength="7" x="282" y="264.8232">4</text><text fill="#000000" font-family="sans-serif" font-size="13" lengthAdjust="spacing" textLength="43" x="293" y="264.8232">request</text><polygon fill="#181818" points="414,296.0313,424,300.0313,414,304.0313,418,300.0313" style="stroke:#181818;stroke-width:1.0;"/><line style="stroke:#181818;stroke-width:1.0;" x1="265" x2="420" y1="300.0313" y2="300.0313"/><text fill="#000000" font-family="sans-serif" font-size="13" font-weight="bold" lengthAdjust="spacing" textLength="7" x="272" y="295.1748">5</text><text fill="#000000" font-family="sans-serif" font-size="13" lengthAdjust="spacing" textLength="86" x="283" y="295.1748">getListOrders()</text><polygon fill="#181818" points="532,326.3828,542,330.3828,532,334.3828,536,330.3828" style="stroke:#181818;stroke-width:1.0;"/><line style="stroke:#181818;stroke-width:1.0;" x1="436" x2="538" y1="330.3828" y2="330.3828"/><text fill="#000000" font-family="sans-serif" font-size="13" font-weight="bold" lengthAdjust="spacing" textLength="7" x="443" y="325.5264">6</text><text fill="#000000" font-family="sans-serif" font-size="13" lengthAdjust="spacing" textLength="78" x="454" y="325.5264">getListOrders</text><polygon fill="#181818" points="447,356.7344,437,360.7344,447,364.7344,443,360.7344" style="stroke:#181818;stroke-width:1.0;"/><line style="stroke:#181818;stroke-width:1.0;stroke-dasharray:2.0,2.0;" x1="441" x2="548" y1="360.7344" y2="360.7344"/><text fill="#000000" font-family="sans-serif" font-size="13" font-weight="bold" lengthAdjust="spacing" textLength="7" x="453" y="355.8779">7</text><text fill="#000000" font-family="sans-serif" font-size="13" lengthAdjust="spacing" textLength="56" x="464" y="355.8779">listOrders</text><polygon fill="#181818" points="276,387.0859,266,391.0859,276,395.0859,272,391.0859" style="stroke:#181818;stroke-width:1.0;"/><line style="stroke:#181818;stroke-width:1.0;stroke-dasharray:2.0,2.0;" x1="270" x2="430" y1="391.0859" y2="391.0859"/><text fill="#000000" font-family="sans-serif" font-size="13" font-weight="bold" lengthAdjust="spacing" textLength="7" x="282" y="386.2295">8</text><text fill="#000000" font-family="sans-serif" font-size="13" lengthAdjust="spacing" textLength="56" x="293" y="386.2295">listOrders</text><polygon fill="#181818" points="414,417.4375,424,421.4375,414,425.4375,418,421.4375" style="stroke:#181818;stroke-width:1.0;"/><line style="stroke:#181818;stroke-width:1.0;" x1="265" x2="420" y1="421.4375" y2="421.4375"/><text fill="#000000" font-family="sans-serif" font-size="13" font-weight="bold" lengthAdjust="spacing" textLength="7" x="272" y="416.5811">9</text><text fill="#000000" font-family="sans-serif" font-size="13" lengthAdjust="spacing" textLength="98" x="283" y="416.5811">getCommission()</text><polygon fill="#181818" points="276,447.7891,266,451.7891,276,455.7891,272,451.7891" style="stroke:#181818;stroke-width:1.0;"/><line style="stroke:#181818;stroke-width:1.0;stroke-dasharray:2.0,2.0;" x1="270" x2="430" y1="451.7891" y2="451.7891"/><text fill="#000000" font-family="sans-serif" font-size="13" font-weight="bold" lengthAdjust="spacing" textLength="14" x="282" y="446.9326">10</text><text fill="#000000" font-family="sans-serif" font-size="13" lengthAdjust="spacing" textLength="70" x="300" y="446.9326">commission</text><polygon fill="#181818" points="414,478.1406,424,482.1406,414,486.1406,418,482.1406" style="stroke:#181818;stroke-width:1.0;"/><line style="stroke:#181818;stroke-width:1.0;" x1="265" x2="420" y1="482.1406" y2="482.1406"/><text fill="#000000" font-family="sans-serif" font-size="13" font-weight="bold" lengthAdjust="spacing" textLength="14" x="272" y="477.2842">11</text><text fill="#000000" font-family="sans-serif" font-size="13" lengthAdjust="spacing" textLength="84" x="290" y="477.2842">getEmployee()</text><polygon fill="#181818" points="276,508.4922,266,512.4922,276,516.4922,272,512.4922" style="stroke:#181818;stroke-width:1.0;"/><line style="stroke:#181818;stroke-width:1.0;stroke-dasharray:2.0,2.0;" x1="270" x2="430" y1="512.4922" y2="512.4922"/><text fill="#000000" font-family="sans-serif" font-size="13" font-weight="bold" lengthAdjust="spacing" textLength="14" x="282" y="507.6357">12</text><text fill="#000000" font-family="sans-serif" font-size="13" lengthAdjust="spacing" textLength="56" x="300" y="507.6357">employee</text><polygon fill="#181818" points="414,538.8438,424,542.8438,414,546.8438,418,542.8438" style="stroke:#181818;stroke-width:1.0;"/><line style="stroke:#181818;stroke-width:1.0;" x1="265" x2="420" y1="542.8438" y2="542.8438"/><text fill="#000000" font-family="sans-serif" font-size="13" font-weight="bold" lengthAdjust="spacing" textLength="14" x="272" y="537.9873">13</text><text fill="#000000" font-family="sans-serif" font-size="13" lengthAdjust="spacing" textLength="122" x="290" y="537.9873">getAcceptanceDate()</text><polygon fill="#181818" points="276,569.1953,266,573.1953,276,577.1953,272,573.1953" style="stroke:#181818;stroke-width:1.0;"/><line style="stroke:#181818;stroke-width:1.0;stroke-dasharray:2.0,2.0;" x1="270" x2="430" y1="573.1953" y2="573.1953"/><text fill="#000000" font-family="sans-serif" font-size="13" font-weight="bold" lengthAdjust="spacing" textLength="14" x="282" y="568.3389">14</text><text fill="#000000" font-family="sans-serif" font-size="13" lengthAdjust="spacing" textLength="94" x="300" y="568.3389">acceptanceDate</text><polygon fill="#181818" points="674,599.5469,684,603.5469,674,607.5469,678,603.5469" style="stroke:#181818;stroke-width:1.0;"/><line style="stroke:#181818;stroke-width:1.0;" x1="260" x2="680" y1="603.5469" y2="603.5469"/><text fill="#000000" font-family="sans-serif" font-size="13" font-weight="bold" lengthAdjust="spacing" textLength="14" x="267" y="598.6904">15</text><text fill="#000000" font-family="sans-serif" font-size="13" lengthAdjust="spacing" textLength="379" x="285" y="598.6904">create(request,listOrders,commission,employee,acceptanceDate)</text><rect fill="#E3E3E3" height="49.2188" rx="2.5" ry="2.5" style="stroke:#181818;stroke-width:0.5;" width="139" x="686" y="581.1953"/><text fill="#000000" font-family="sans-serif" font-size="14" lengthAdjust="spacing" textLength="116" x="697.5" y="602.7285">announcementDto</text><text fill="#000000" font-family="sans-serif" font-size="14" lengthAdjust="spacing" textLength="125" x="693" y="620.3379">: AnnouncementDto</text><polygon fill="#181818" points="879.5,659.7656,889.5,663.7656,879.5,667.7656,883.5,663.7656" style="stroke:#181818;stroke-width:1.0;"/><line style="stroke:#181818;stroke-width:1.0;" x1="760.5" x2="885.5" y1="663.7656" y2="663.7656"/><text fill="#000000" font-family="sans-serif" font-size="13" font-weight="bold" lengthAdjust="spacing" textLength="14" x="767.5" y="658.9092">16</text><text fill="#000000" font-family="sans-serif" font-size="13" lengthAdjust="spacing" textLength="88" x="785.5" y="658.9092">toDTO(request)</text><polygon fill="#181818" points="975.5,690.1172,985.5,694.1172,975.5,698.1172,979.5,694.1172" style="stroke:#181818;stroke-width:1.0;"/><line style="stroke:#181818;stroke-width:1.0;" x1="901.5" x2="981.5" y1="694.1172" y2="694.1172"/><text fill="#000000" font-family="sans-serif" font-size="13" font-weight="bold" lengthAdjust="spacing" textLength="14" x="908.5" y="689.2607">17</text><text fill="#000000" font-family="sans-serif" font-size="13" lengthAdjust="spacing" textLength="44" x="926.5" y="689.2607">create()</text><rect fill="#E3E3E3" height="49.2188" rx="2.5" ry="2.5" style="stroke:#181818;stroke-width:0.5;" width="97" x="987.5" y="671.7656"/><text fill="#000000" font-family="sans-serif" font-size="14" lengthAdjust="spacing" textLength="70" x="1001" y="693.2988">requestDto</text><text fill="#000000" font-family="sans-serif" font-size="14" lengthAdjust="spacing" textLength="83" x="994.5" y="710.9082">: RequestDto</text><polygon fill="#181818" points="771.5,750.3359,761.5,754.3359,771.5,758.3359,767.5,754.3359" style="stroke:#181818;stroke-width:1.0;"/><line style="stroke:#181818;stroke-width:1.0;stroke-dasharray:2.0,2.0;" x1="765.5" x2="895.5" y1="754.3359" y2="754.3359"/><text fill="#000000" font-family="sans-serif" font-size="13" font-weight="bold" lengthAdjust="spacing" textLength="14" x="777.5" y="749.4795">18</text><text fill="#000000" font-family="sans-serif" font-size="13" lengthAdjust="spacing" textLength="63" x="795.5" y="749.4795">requestDto</text><polygon fill="#181818" points="1131,780.6875,1141,784.6875,1131,788.6875,1135,784.6875" style="stroke:#181818;stroke-width:1.0;"/><line style="stroke:#181818;stroke-width:1.0;" x1="760.5" x2="1137" y1="784.6875" y2="784.6875"/><text fill="#000000" font-family="sans-serif" font-size="13" font-weight="bold" lengthAdjust="spacing" textLength="14" x="767.5" y="779.8311">19</text><text fill="#000000" font-family="sans-serif" font-size="13" lengthAdjust="spacing" textLength="101" x="785.5" y="779.8311">toDTO(listOrders)</text><path d="M1084.5,799.6875 L1157.5,799.6875 L1157.5,808.0391 L1147.5,818.0391 L1084.5,818.0391 L1084.5,799.6875 " fill="#EEEEEE" style="stroke:#000000;stroke-width:1.5;"/><rect fill="none" height="190.2734" style="stroke:#000000;stroke-width:1.5;" width="274.5" x="1084.5" y="799.6875"/><text fill="#000000" font-family="sans-serif" font-size="13" font-weight="bold" lengthAdjust="spacing" textLength="28" x="1099.5" y="814.1826">loop</text><text fill="#000000" font-family="sans-serif" font-size="11" font-weight="bold" lengthAdjust="spacing" textLength="87" x="1172.5" y="813.1064">[for each order]</text><polygon fill="#181818" points="1256,836.3906,1266,840.3906,1256,844.3906,1260,840.3906" style="stroke:#181818;stroke-width:1.0;"/><line style="stroke:#181818;stroke-width:1.0;" x1="1153" x2="1262" y1="840.3906" y2="840.3906"/><text fill="#000000" font-family="sans-serif" font-size="13" font-weight="bold" lengthAdjust="spacing" textLength="14" x="1160" y="835.5342">20</text><text fill="#000000" font-family="sans-serif" font-size="13" lengthAdjust="spacing" textLength="73" x="1178" y="835.5342">create(order)</text><rect fill="#E3E3E3" height="49.2188" rx="2.5" ry="2.5" style="stroke:#181818;stroke-width:0.5;" width="81" x="1268" y="818.0391"/><text fill="#000000" font-family="sans-serif" font-size="14" lengthAdjust="spacing" textLength="56" x="1280.5" y="839.5723">orderDto</text><text fill="#000000" font-family="sans-serif" font-size="14" lengthAdjust="spacing" textLength="67" x="1275" y="857.1816">: OrderDto</text><line style="stroke:#181818;stroke-width:1.0;" x1="1153" x2="1200" y1="895.6094" y2="895.6094"/><line style="stroke:#181818;stroke-width:1.0;" x1="1200" x2="1200" y1="895.6094" y2="908.6094"/><line style="stroke:#181818;stroke-width:1.0;" x1="1159" x2="1200" y1="908.6094" y2="908.6094"/><polygon fill="#181818" points="1169,904.6094,1159,908.6094,1169,912.6094,1165,908.6094" style="stroke:#181818;stroke-width:1.0;"/><text fill="#000000" font-family="sans-serif" font-size="13" font-weight="bold" lengthAdjust="spacing" textLength="14" x="1165" y="890.7529">21</text><text fill="#000000" font-family="sans-serif" font-size="13" lengthAdjust="spacing" textLength="78" x="1183" y="890.7529">add(orderDto)</text><line style="stroke:#181818;stroke-width:1.0;stroke-dasharray:2.0,2.0;" x1="1158" x2="1200" y1="948.9609" y2="948.9609"/><line style="stroke:#181818;stroke-width:1.0;stroke-dasharray:2.0,2.0;" x1="1200" x2="1200" y1="948.9609" y2="961.9609"/><line style="stroke:#181818;stroke-width:1.0;stroke-dasharray:2.0,2.0;" x1="1153" x2="1200" y1="961.9609" y2="961.9609"/><polygon fill="#181818" points="1163,957.9609,1153,961.9609,1163,965.9609,1159,961.9609" style="stroke:#181818;stroke-width:1.0;"/><text fill="#000000" font-family="sans-serif" font-size="13" font-weight="bold" lengthAdjust="spacing" textLength="14" x="1165" y="944.1045">22</text><text fill="#000000" font-family="sans-serif" font-size="13" lengthAdjust="spacing" textLength="4" x="1183" y="944.1045"> </text><polygon fill="#181818" points="771.5,1015.3125,761.5,1019.3125,771.5,1023.3125,767.5,1019.3125" style="stroke:#181818;stroke-width:1.0;"/><line style="stroke:#181818;stroke-width:1.0;stroke-dasharray:2.0,2.0;" x1="765.5" x2="1147" y1="1019.3125" y2="1019.3125"/><text fill="#000000" font-family="sans-serif" font-size="13" font-weight="bold" lengthAdjust="spacing" textLength="14" x="777.5" y="1014.4561">23</text><text fill="#000000" font-family="sans-serif" font-size="13" lengthAdjust="spacing" textLength="69" x="795.5" y="1014.4561">listOrderDto</text><polygon fill="#181818" points="1408,1045.6641,1418,1049.6641,1408,1053.6641,1412,1049.6641" style="stroke:#181818;stroke-width:1.0;"/><line style="stroke:#181818;stroke-width:1.0;" x1="760.5" x2="1414" y1="1049.6641" y2="1049.6641"/><text fill="#000000" font-family="sans-serif" font-size="13" font-weight="bold" lengthAdjust="spacing" textLength="14" x="767.5" y="1044.8076">24</text><text fill="#000000" font-family="sans-serif" font-size="13" lengthAdjust="spacing" textLength="101" x="785.5" y="1044.8076">toDTO(employee)</text><polygon fill="#181818" points="1504,1076.0156,1514,1080.0156,1504,1084.0156,1508,1080.0156" style="stroke:#181818;stroke-width:1.0;"/><line style="stroke:#181818;stroke-width:1.0;" x1="1430" x2="1510" y1="1080.0156" y2="1080.0156"/><text fill="#000000" font-family="sans-serif" font-size="13" font-weight="bold" lengthAdjust="spacing" textLength="14" x="1437" y="1075.1592">25</text><text fill="#000000" font-family="sans-serif" font-size="13" lengthAdjust="spacing" textLength="44" x="1455" y="1075.1592">create()</text><rect fill="#E3E3E3" height="49.2188" rx="2.5" ry="2.5" style="stroke:#181818;stroke-width:0.5;" width="106" x="1516" y="1057.6641"/><text fill="#000000" font-family="sans-serif" font-size="14" lengthAdjust="spacing" textLength="83" x="1527.5" y="1079.1973">employeeDto</text><text fill="#000000" font-family="sans-serif" font-size="14" lengthAdjust="spacing" textLength="92" x="1523" y="1096.8066">: EmployeeDto</text><polygon fill="#181818" points="771.5,1136.2344,761.5,1140.2344,771.5,1144.2344,767.5,1140.2344" style="stroke:#181818;stroke-width:1.0;"/><line style="stroke:#181818;stroke-width:1.0;stroke-dasharray:2.0,2.0;" x1="765.5" x2="1424" y1="1140.2344" y2="1140.2344"/><text fill="#000000" font-family="sans-serif" font-size="13" font-weight="bold" lengthAdjust="spacing" textLength="14" x="777.5" y="1135.3779">26</text><text fill="#000000" font-family="sans-serif" font-size="13" lengthAdjust="spacing" textLength="76" x="795.5" y="1135.3779">employeeDto</text><polygon fill="#181818" points="1688,1166.5859,1698,1170.5859,1688,1174.5859,1692,1170.5859" style="stroke:#181818;stroke-width:1.0;"/><line style="stroke:#181818;stroke-width:1.0;" x1="760.5" x2="1694" y1="1170.5859" y2="1170.5859"/><text fill="#000000" font-family="sans-serif" font-size="13" font-weight="bold" lengthAdjust="spacing" textLength="14" x="767.5" y="1165.7295">27</text><text fill="#000000" font-family="sans-serif" font-size="13" lengthAdjust="spacing" textLength="115" x="785.5" y="1165.7295">toDTO(commission)</text><polygon fill="#181818" points="1784,1196.9375,1794,1200.9375,1784,1204.9375,1788,1200.9375" style="stroke:#181818;stroke-width:1.0;"/><line style="stroke:#181818;stroke-width:1.0;" x1="1710" x2="1790" y1="1200.9375" y2="1200.9375"/><text fill="#000000" font-family="sans-serif" font-size="13" font-weight="bold" lengthAdjust="spacing" textLength="14" x="1717" y="1196.0811">28</text><text fill="#000000" font-family="sans-serif" font-size="13" lengthAdjust="spacing" textLength="44" x="1735" y="1196.0811">create()</text><rect fill="#E3E3E3" height="49.2188" rx="2.5" ry="2.5" style="stroke:#181818;stroke-width:0.5;" width="120" x="1796" y="1178.5859"/><text fill="#000000" font-family="sans-serif" font-size="14" lengthAdjust="spacing" textLength="95" x="1808.5" y="1200.1191">commissionDto</text><text fill="#000000" font-family="sans-serif" font-size="14" lengthAdjust="spacing" textLength="106" x="1803" y="1217.7285">: CommissionDto</text><polygon fill="#181818" points="766.5,1257.1563,756.5,1261.1563,766.5,1265.1563,762.5,1261.1563" style="stroke:#181818;stroke-width:1.0;"/><line style="stroke:#181818;stroke-width:1.0;stroke-dasharray:2.0,2.0;" x1="760.5" x2="1704" y1="1261.1563" y2="1261.1563"/><text fill="#000000" font-family="sans-serif" font-size="13" font-weight="bold" lengthAdjust="spacing" textLength="14" x="772.5" y="1256.2998">29</text><text fill="#000000" font-family="sans-serif" font-size="13" lengthAdjust="spacing" textLength="90" x="790.5" y="1256.2998">commissionDto</text><line style="stroke:#181818;stroke-width:1.0;" x1="260" x2="307" y1="1286.5078" y2="1286.5078"/><line style="stroke:#181818;stroke-width:1.0;" x1="307" x2="307" y1="1286.5078" y2="1299.5078"/><line style="stroke:#181818;stroke-width:1.0;" x1="266" x2="307" y1="1299.5078" y2="1299.5078"/><polygon fill="#181818" points="276,1295.5078,266,1299.5078,276,1303.5078,272,1299.5078" style="stroke:#181818;stroke-width:1.0;"/><text fill="#000000" font-family="sans-serif" font-size="13" font-weight="bold" lengthAdjust="spacing" textLength="14" x="272" y="1281.6514">30</text><text fill="#000000" font-family="sans-serif" font-size="13" lengthAdjust="spacing" textLength="134" x="290" y="1281.6514">add(announcementDto)</text><line style="stroke:#181818;stroke-width:1.0;stroke-dasharray:2.0,2.0;" x1="265" x2="307" y1="1339.8594" y2="1339.8594"/><line style="stroke:#181818;stroke-width:1.0;stroke-dasharray:2.0,2.0;" x1="307" x2="307" y1="1339.8594" y2="1352.8594"/><line style="stroke:#181818;stroke-width:1.0;stroke-dasharray:2.0,2.0;" x1="260" x2="307" y1="1352.8594" y2="1352.8594"/><polygon fill="#181818" points="270,1348.8594,260,1352.8594,270,1356.8594,266,1352.8594" style="stroke:#181818;stroke-width:1.0;"/><text fill="#000000" font-family="sans-serif" font-size="13" font-weight="bold" lengthAdjust="spacing" textLength="14" x="272" y="1335.0029">31</text><text fill="#000000" font-family="sans-serif" font-size="13" lengthAdjust="spacing" textLength="4" x="290" y="1335.0029"> </text><polygon fill="#181818" points="11,1406.2109,1,1410.2109,11,1414.2109,7,1410.2109" style="stroke:#181818;stroke-width:1.0;"/><line style="stroke:#181818;stroke-width:1.0;stroke-dasharray:2.0,2.0;" x1="5" x2="254" y1="1410.2109" y2="1410.2109"/><text fill="#000000" font-family="sans-serif" font-size="13" font-weight="bold" lengthAdjust="spacing" textLength="14" x="17" y="1405.3545">32</text><text fill="#000000" font-family="sans-serif" font-size="13" lengthAdjust="spacing" textLength="126" x="35" y="1405.3545">announcementDtoList</text><!--SRC=[fLTBRjim4Dtp58EiOiFk0TmYW12xG8443foWYw8RbfhOGYHI9UKM0NoIxdAMNAmIBOeVaJ4ISn648xutRuR38QsU2bvJIIke11Ti9qM5qCWz4ZLygIbxebkyRvvB18cieNnRkWlKZkRYRy6ty4XBXOJGVIFullg5ahGhce8LDUKDN53EnPuph90tjxIkKVxa2yX6rWkWgZFVPdTtgms194a8Dq1j8E03XSnHtXHAezPceY73x0rVoqQ4xbgJyRXyM8V-9FxUet82tRW63VGi90hltMw6cGlil8vZj1xNTchZZ7hJmDxNkl_VGexH-GYiwb8y8rflAy-YqRw992XwloixzS0nxqnKLQ5K8RZrVntOD4be92cUNiIrQmWOEY64pAziRS826j6QBzrAwGefAyjiYvmLg2QTU03Ack8FRT0fxEE7Rd3HVf35TjUuTM_6TBfy_VVzspAxXmDypMuUilRlZzLcCPqwY-0UvUiBS6IerEkBB0GmKGf69GW5bOvUGIx0LjPd60x5ftPOCkIvrkH8B8MeuL58GCfsuCRhBBA9EPcbYKMzcPgGKXCiO8jDVmWk4qoc2LWURO5v8ArFXrsPuvZcf9vEK9T7VLxKkpLTsHu42vyhmkJqApCiVExeQhdA294JOOGgcQaJLEzBbZrMvswWFSDdocfLcPvphYRJsivNb366TNldCboss7DrKO_je-hQipoTjecNs4dg3z3CbiVCRidCP6BckvwaV8VDp_sc6x2hgZLqahnxTEWslQvOneABrmoVnnBhU648U9943EcnVQLjiz5GVGdHi9phUWZA9dcIQWo64jpXjs_Tzlq5hZFZEuXReoQdOODackUNvcKHuAAIqym-jRymx6QnDOV3mJTqDroN4qAI3eyRuRIzr5R6isxtqNy53LjfJaPi8qSFftu4L0vvkaP3Z5kapXCi6bgW8nPT-C8QuhDD81RX-65cneZGSvAESunp8_LUUj5OHufIBMhKXY9ldcFn1pyWFl3cyJXFz4mIB_UWrB_Cv_wLu6kqRu6eZ_y0]--></g></svg>