<?xml version="1.0" encoding="UTF-8" standalone="no"?><svg xmlns="http://www.w3.org/2000/svg" xmlns:xlink="http://www.w3.org/1999/xlink" contentStyleType="text/css" height="1728px" preserveAspectRatio="none" style="width:1661px;height:1728px;background:#FFFFFF;" version="1.1" viewBox="0 0 1661 1728" width="1661px" zoomAndPan="magnify"><defs/><g><!--class Notification--><g id="elem_Notification"><rect codeLine="9" fill="#F1F1F1" height="65.6094" id="Notification" rx="2.5" ry="2.5" style="stroke:#181818;stroke-width:0.5;" width="361" x="1168" y="1656"/><ellipse cx="1309.75" cy="1672" fill="#ADD1B2" rx="11" ry="11" style="stroke:#181818;stroke-width:1.0;"/><path d="M1312.5156,1667.875 Q1312.6719,1667.6563 1312.8594,1667.5469 Q1313.0469,1667.4375 1313.2656,1667.4375 Q1313.6406,1667.4375 1313.875,1667.7031 Q1314.1094,1667.9531 1314.1094,1668.5625 L1314.1094,1670.0156 Q1314.1094,1670.625 1313.875,1670.8906 Q1313.6406,1671.1563 1313.2656,1671.1563 Q1312.9219,1671.1563 1312.7188,1670.9531 Q1312.5156,1670.7656 1312.4063,1670.25 Q1312.3594,1669.8906 1312.1719,1669.7031 Q1311.8438,1669.3281 1311.2344,1669.1094 Q1310.625,1668.8906 1310,1668.8906 Q1309.2344,1668.8906 1308.5938,1669.2188 Q1307.9688,1669.5469 1307.4688,1670.2969 Q1306.9844,1671.0469 1306.9844,1672.0781 L1306.9844,1673.1719 Q1306.9844,1674.4063 1307.875,1675.2344 Q1308.7656,1676.0469 1310.3594,1676.0469 Q1311.2969,1676.0469 1311.9531,1675.7969 Q1312.3438,1675.6406 1312.7656,1675.2031 Q1313.0313,1674.9375 1313.1719,1674.8594 Q1313.3281,1674.7813 1313.5313,1674.7813 Q1313.8594,1674.7813 1314.1094,1675.0469 Q1314.375,1675.2969 1314.375,1675.6406 Q1314.375,1675.9844 1314.0313,1676.3906 Q1313.5313,1676.9688 1312.7344,1677.2969 Q1311.6563,1677.75 1310.3594,1677.75 Q1308.8438,1677.75 1307.6406,1677.125 Q1306.6563,1676.625 1305.9688,1675.5625 Q1305.2813,1674.4844 1305.2813,1673.2031 L1305.2813,1672.0469 Q1305.2813,1670.7188 1305.8906,1669.5781 Q1306.5156,1668.4219 1307.6094,1667.8125 Q1308.7031,1667.1875 1309.9375,1667.1875 Q1310.6719,1667.1875 1311.3125,1667.3594 Q1311.9688,1667.5156 1312.5156,1667.875 Z " fill="#000000"/><text fill="#000000" font-family="sans-serif" font-size="14" lengthAdjust="spacing" textLength="69" x="1330.25" y="1677.7285">Notification</text><line style="stroke:#181818;stroke-width:0.5;" x1="1169" x2="1528" y1="1688" y2="1688"/><line style="stroke:#181818;stroke-width:0.5;" x1="1169" x2="1528" y1="1696" y2="1696"/><text fill="#000000" font-family="sans-serif" font-size="14" lengthAdjust="spacing" textLength="349" x="1174" y="1714.5332">+sendOrderAcceptanceNotification(clientEmail, answer)</text></g><!--class Order--><g id="elem_Order"><rect codeLine="13" fill="#F1F1F1" height="224.0938" id="Order" rx="2.5" ry="2.5" style="stroke:#181818;stroke-width:0.5;" width="296" x="1200.5" y="1371"/><ellipse cx="1325.75" cy="1387" fill="#ADD1B2" rx="11" ry="11" style="stroke:#181818;stroke-width:1.0;"/><path d="M1328.5156,1382.875 Q1328.6719,1382.6563 1328.8594,1382.5469 Q1329.0469,1382.4375 1329.2656,1382.4375 Q1329.6406,1382.4375 1329.875,1382.7031 Q1330.1094,1382.9531 1330.1094,1383.5625 L1330.1094,1385.0156 Q1330.1094,1385.625 1329.875,1385.8906 Q1329.6406,1386.1563 1329.2656,1386.1563 Q1328.9219,1386.1563 1328.7188,1385.9531 Q1328.5156,1385.7656 1328.4063,1385.25 Q1328.3594,1384.8906 1328.1719,1384.7031 Q1327.8438,1384.3281 1327.2344,1384.1094 Q1326.625,1383.8906 1326,1383.8906 Q1325.2344,1383.8906 1324.5938,1384.2188 Q1323.9688,1384.5469 1323.4688,1385.2969 Q1322.9844,1386.0469 1322.9844,1387.0781 L1322.9844,1388.1719 Q1322.9844,1389.4063 1323.875,1390.2344 Q1324.7656,1391.0469 1326.3594,1391.0469 Q1327.2969,1391.0469 1327.9531,1390.7969 Q1328.3438,1390.6406 1328.7656,1390.2031 Q1329.0313,1389.9375 1329.1719,1389.8594 Q1329.3281,1389.7813 1329.5313,1389.7813 Q1329.8594,1389.7813 1330.1094,1390.0469 Q1330.375,1390.2969 1330.375,1390.6406 Q1330.375,1390.9844 1330.0313,1391.3906 Q1329.5313,1391.9688 1328.7344,1392.2969 Q1327.6563,1392.75 1326.3594,1392.75 Q1324.8438,1392.75 1323.6406,1392.125 Q1322.6563,1391.625 1321.9688,1390.5625 Q1321.2813,1389.4844 1321.2813,1388.2031 L1321.2813,1387.0469 Q1321.2813,1385.7188 1321.8906,1384.5781 Q1322.5156,1383.4219 1323.6094,1382.8125 Q1324.7031,1382.1875 1325.9375,1382.1875 Q1326.6719,1382.1875 1327.3125,1382.3594 Q1327.9688,1382.5156 1328.5156,1382.875 Z " fill="#000000"/><text fill="#000000" font-family="sans-serif" font-size="14" lengthAdjust="spacing" textLength="37" x="1346.25" y="1392.7285">Order</text><line style="stroke:#181818;stroke-width:0.5;" x1="1201.5" x2="1495.5" y1="1403" y2="1403"/><text fill="#000000" font-family="sans-serif" font-size="14" lengthAdjust="spacing" textLength="136" x="1206.5" y="1421.5332">-Double orderAmount</text><text fill="#000000" font-family="sans-serif" font-size="14" lengthAdjust="spacing" textLength="137" x="1206.5" y="1439.1426">-LocalDate orderDate</text><text fill="#000000" font-family="sans-serif" font-size="14" lengthAdjust="spacing" textLength="110" x="1206.5" y="1456.752">-Email clientEmail</text><text fill="#000000" font-family="sans-serif" font-size="14" lengthAdjust="spacing" textLength="165" x="1206.5" y="1474.3613">-String acceptanceAnswer</text><line style="stroke:#181818;stroke-width:0.5;" x1="1201.5" x2="1495.5" y1="1481.4375" y2="1481.4375"/><text fill="#000000" font-family="sans-serif" font-size="14" lengthAdjust="spacing" textLength="284" x="1206.5" y="1499.9707">+Order(orderAmount, orderDate, clientEmail)</text><text fill="#000000" font-family="sans-serif" font-size="14" lengthAdjust="spacing" textLength="123" x="1206.5" y="1517.5801">+getOrderAmount()</text><text fill="#000000" font-family="sans-serif" font-size="14" lengthAdjust="spacing" textLength="108" x="1206.5" y="1535.1895">+getClientEmail()</text><text fill="#000000" font-family="sans-serif" font-size="14" lengthAdjust="spacing" textLength="105" x="1206.5" y="1552.7988">+getOrderDate()</text><text fill="#000000" font-family="sans-serif" font-size="14" lengthAdjust="spacing" textLength="202" x="1206.5" y="1570.4082">+setAcceptanceAnswer(answer)</text><text fill="#000000" font-family="sans-serif" font-size="14" lengthAdjust="spacing" textLength="90" x="1206.5" y="1588.0176">+rejectOrder()</text></g><!--class OrderMapper--><g id="elem_OrderMapper"><rect codeLine="26" fill="#F1F1F1" height="118.4375" id="OrderMapper" rx="2.5" ry="2.5" style="stroke:#181818;stroke-width:0.5;" width="265" x="805" y="239"/><ellipse cx="890.75" cy="255" fill="#ADD1B2" rx="11" ry="11" style="stroke:#181818;stroke-width:1.0;"/><path d="M893.5156,250.875 Q893.6719,250.6563 893.8594,250.5469 Q894.0469,250.4375 894.2656,250.4375 Q894.6406,250.4375 894.875,250.7031 Q895.1094,250.9531 895.1094,251.5625 L895.1094,253.0156 Q895.1094,253.625 894.875,253.8906 Q894.6406,254.1563 894.2656,254.1563 Q893.9219,254.1563 893.7188,253.9531 Q893.5156,253.7656 893.4063,253.25 Q893.3594,252.8906 893.1719,252.7031 Q892.8438,252.3281 892.2344,252.1094 Q891.625,251.8906 891,251.8906 Q890.2344,251.8906 889.5938,252.2188 Q888.9688,252.5469 888.4688,253.2969 Q887.9844,254.0469 887.9844,255.0781 L887.9844,256.1719 Q887.9844,257.4063 888.875,258.2344 Q889.7656,259.0469 891.3594,259.0469 Q892.2969,259.0469 892.9531,258.7969 Q893.3438,258.6406 893.7656,258.2031 Q894.0313,257.9375 894.1719,257.8594 Q894.3281,257.7813 894.5313,257.7813 Q894.8594,257.7813 895.1094,258.0469 Q895.375,258.2969 895.375,258.6406 Q895.375,258.9844 895.0313,259.3906 Q894.5313,259.9688 893.7344,260.2969 Q892.6563,260.75 891.3594,260.75 Q889.8438,260.75 888.6406,260.125 Q887.6563,259.625 886.9688,258.5625 Q886.2813,257.4844 886.2813,256.2031 L886.2813,255.0469 Q886.2813,253.7188 886.8906,252.5781 Q887.5156,251.4219 888.6094,250.8125 Q889.7031,250.1875 890.9375,250.1875 Q891.6719,250.1875 892.3125,250.3594 Q892.9688,250.5156 893.5156,250.875 Z " fill="#000000"/><text fill="#000000" font-family="sans-serif" font-size="14" lengthAdjust="spacing" textLength="85" x="911.25" y="260.7285">OrderMapper</text><line style="stroke:#181818;stroke-width:0.5;" x1="806" x2="1069" y1="271" y2="271"/><line style="stroke:#181818;stroke-width:0.5;" x1="806" x2="1069" y1="279" y2="279"/><text fill="#000000" font-family="sans-serif" font-size="14" lengthAdjust="spacing" textLength="113" x="811" y="297.5332">+toDto(listOrders)</text><text fill="#000000" font-family="sans-serif" font-size="14" lengthAdjust="spacing" textLength="86" x="811" y="315.1426">+toDto(order)</text><text fill="#000000" font-family="sans-serif" font-size="14" lengthAdjust="spacing" textLength="124" x="811" y="332.752">+toModel(orderDto)</text><text fill="#000000" font-family="sans-serif" font-size="14" font-weight="bold" lengthAdjust="spacing" textLength="249" x="815" y="350.3613">- add(orderDto) : VER ISTO MELHOR</text></g><!--class OrderList--><g id="elem_OrderList"><rect codeLine="33" fill="#F1F1F1" height="118.4375" id="OrderList" rx="2.5" ry="2.5" style="stroke:#181818;stroke-width:0.5;" width="267" x="1122" y="1112.5"/><ellipse cx="1221.75" cy="1128.5" fill="#ADD1B2" rx="11" ry="11" style="stroke:#181818;stroke-width:1.0;"/><path d="M1224.5156,1124.375 Q1224.6719,1124.1563 1224.8594,1124.0469 Q1225.0469,1123.9375 1225.2656,1123.9375 Q1225.6406,1123.9375 1225.875,1124.2031 Q1226.1094,1124.4531 1226.1094,1125.0625 L1226.1094,1126.5156 Q1226.1094,1127.125 1225.875,1127.3906 Q1225.6406,1127.6563 1225.2656,1127.6563 Q1224.9219,1127.6563 1224.7188,1127.4531 Q1224.5156,1127.2656 1224.4063,1126.75 Q1224.3594,1126.3906 1224.1719,1126.2031 Q1223.8438,1125.8281 1223.2344,1125.6094 Q1222.625,1125.3906 1222,1125.3906 Q1221.2344,1125.3906 1220.5938,1125.7188 Q1219.9688,1126.0469 1219.4688,1126.7969 Q1218.9844,1127.5469 1218.9844,1128.5781 L1218.9844,1129.6719 Q1218.9844,1130.9063 1219.875,1131.7344 Q1220.7656,1132.5469 1222.3594,1132.5469 Q1223.2969,1132.5469 1223.9531,1132.2969 Q1224.3438,1132.1406 1224.7656,1131.7031 Q1225.0313,1131.4375 1225.1719,1131.3594 Q1225.3281,1131.2813 1225.5313,1131.2813 Q1225.8594,1131.2813 1226.1094,1131.5469 Q1226.375,1131.7969 1226.375,1132.1406 Q1226.375,1132.4844 1226.0313,1132.8906 Q1225.5313,1133.4688 1224.7344,1133.7969 Q1223.6563,1134.25 1222.3594,1134.25 Q1220.8438,1134.25 1219.6406,1133.625 Q1218.6563,1133.125 1217.9688,1132.0625 Q1217.2813,1130.9844 1217.2813,1129.7031 L1217.2813,1128.5469 Q1217.2813,1127.2188 1217.8906,1126.0781 Q1218.5156,1124.9219 1219.6094,1124.3125 Q1220.7031,1123.6875 1221.9375,1123.6875 Q1222.6719,1123.6875 1223.3125,1123.8594 Q1223.9688,1124.0156 1224.5156,1124.375 Z " fill="#000000"/><text fill="#000000" font-family="sans-serif" font-size="14" lengthAdjust="spacing" textLength="59" x="1242.25" y="1134.2285">OrderList</text><line style="stroke:#181818;stroke-width:0.5;" x1="1123" x2="1388" y1="1144.5" y2="1144.5"/><text fill="#000000" font-family="sans-serif" font-size="14" lengthAdjust="spacing" textLength="125" x="1128" y="1163.0332">-List&lt;Order&gt; orders</text><line style="stroke:#181818;stroke-width:0.5;" x1="1123" x2="1388" y1="1170.1094" y2="1170.1094"/><text fill="#000000" font-family="sans-serif" font-size="14" lengthAdjust="spacing" textLength="234" x="1128" y="1188.6426">+sortOrdersByHighestOrderAmount()</text><text fill="#000000" font-family="sans-serif" font-size="14" lengthAdjust="spacing" textLength="60" x="1128" y="1206.252">+getList()</text><text fill="#000000" font-family="sans-serif" font-size="14" lengthAdjust="spacing" textLength="255" x="1128" y="1223.8613">+defineOrderAcceptance(answer, order)</text></g><!--class OrderDto--><g id="elem_OrderDto"><rect codeLine="40" fill="#F1F1F1" height="171.2656" id="OrderDto" rx="2.5" ry="2.5" style="stroke:#181818;stroke-width:0.5;" width="318" x="726.5" y="471"/><ellipse cx="851.75" cy="487" fill="#ADD1B2" rx="11" ry="11" style="stroke:#181818;stroke-width:1.0;"/><path d="M854.5156,482.875 Q854.6719,482.6563 854.8594,482.5469 Q855.0469,482.4375 855.2656,482.4375 Q855.6406,482.4375 855.875,482.7031 Q856.1094,482.9531 856.1094,483.5625 L856.1094,485.0156 Q856.1094,485.625 855.875,485.8906 Q855.6406,486.1563 855.2656,486.1563 Q854.9219,486.1563 854.7188,485.9531 Q854.5156,485.7656 854.4063,485.25 Q854.3594,484.8906 854.1719,484.7031 Q853.8438,484.3281 853.2344,484.1094 Q852.625,483.8906 852,483.8906 Q851.2344,483.8906 850.5938,484.2188 Q849.9688,484.5469 849.4688,485.2969 Q848.9844,486.0469 848.9844,487.0781 L848.9844,488.1719 Q848.9844,489.4063 849.875,490.2344 Q850.7656,491.0469 852.3594,491.0469 Q853.2969,491.0469 853.9531,490.7969 Q854.3438,490.6406 854.7656,490.2031 Q855.0313,489.9375 855.1719,489.8594 Q855.3281,489.7813 855.5313,489.7813 Q855.8594,489.7813 856.1094,490.0469 Q856.375,490.2969 856.375,490.6406 Q856.375,490.9844 856.0313,491.3906 Q855.5313,491.9688 854.7344,492.2969 Q853.6563,492.75 852.3594,492.75 Q850.8438,492.75 849.6406,492.125 Q848.6563,491.625 847.9688,490.5625 Q847.2813,489.4844 847.2813,488.2031 L847.2813,487.0469 Q847.2813,485.7188 847.8906,484.5781 Q848.5156,483.4219 849.6094,482.8125 Q850.7031,482.1875 851.9375,482.1875 Q852.6719,482.1875 853.3125,482.3594 Q853.9688,482.5156 854.5156,482.875 Z " fill="#000000"/><text fill="#000000" font-family="sans-serif" font-size="14" lengthAdjust="spacing" textLength="59" x="872.25" y="492.7285">OrderDto</text><line style="stroke:#181818;stroke-width:0.5;" x1="727.5" x2="1043.5" y1="503" y2="503"/><text fill="#000000" font-family="sans-serif" font-size="14" lengthAdjust="spacing" textLength="110" x="732.5" y="521.5332">-String orderDate</text><text fill="#000000" font-family="sans-serif" font-size="14" lengthAdjust="spacing" textLength="134" x="732.5" y="539.1426">-double orderAmount</text><text fill="#000000" font-family="sans-serif" font-size="14" lengthAdjust="spacing" textLength="113" x="732.5" y="556.752">-String clientEmail</text><line style="stroke:#181818;stroke-width:0.5;" x1="727.5" x2="1043.5" y1="563.8281" y2="563.8281"/><text fill="#000000" font-family="sans-serif" font-size="14" lengthAdjust="spacing" textLength="306" x="732.5" y="582.3613">+OrderDto(orderAmount, orderDate, clientEmail)</text><text fill="#000000" font-family="sans-serif" font-size="14" lengthAdjust="spacing" textLength="123" x="732.5" y="599.9707">+getOrderAmount()</text><text fill="#000000" font-family="sans-serif" font-size="14" lengthAdjust="spacing" textLength="105" x="732.5" y="617.5801">+getOrderDate()</text><text fill="#000000" font-family="sans-serif" font-size="14" lengthAdjust="spacing" textLength="108" x="732.5" y="635.1895">+getClientEmail()</text></g><!--class Announcement--><g id="elem_Announcement"><rect codeLine="50" fill="#F1F1F1" height="276.9219" id="Announcement" rx="2.5" ry="2.5" style="stroke:#181818;stroke-width:0.5;" width="289" x="798" y="1033"/><ellipse cx="890.75" cy="1049" fill="#ADD1B2" rx="11" ry="11" style="stroke:#181818;stroke-width:1.0;"/><path d="M893.5156,1044.875 Q893.6719,1044.6563 893.8594,1044.5469 Q894.0469,1044.4375 894.2656,1044.4375 Q894.6406,1044.4375 894.875,1044.7031 Q895.1094,1044.9531 895.1094,1045.5625 L895.1094,1047.0156 Q895.1094,1047.625 894.875,1047.8906 Q894.6406,1048.1563 894.2656,1048.1563 Q893.9219,1048.1563 893.7188,1047.9531 Q893.5156,1047.7656 893.4063,1047.25 Q893.3594,1046.8906 893.1719,1046.7031 Q892.8438,1046.3281 892.2344,1046.1094 Q891.625,1045.8906 891,1045.8906 Q890.2344,1045.8906 889.5938,1046.2188 Q888.9688,1046.5469 888.4688,1047.2969 Q887.9844,1048.0469 887.9844,1049.0781 L887.9844,1050.1719 Q887.9844,1051.4063 888.875,1052.2344 Q889.7656,1053.0469 891.3594,1053.0469 Q892.2969,1053.0469 892.9531,1052.7969 Q893.3438,1052.6406 893.7656,1052.2031 Q894.0313,1051.9375 894.1719,1051.8594 Q894.3281,1051.7813 894.5313,1051.7813 Q894.8594,1051.7813 895.1094,1052.0469 Q895.375,1052.2969 895.375,1052.6406 Q895.375,1052.9844 895.0313,1053.3906 Q894.5313,1053.9688 893.7344,1054.2969 Q892.6563,1054.75 891.3594,1054.75 Q889.8438,1054.75 888.6406,1054.125 Q887.6563,1053.625 886.9688,1052.5625 Q886.2813,1051.4844 886.2813,1050.2031 L886.2813,1049.0469 Q886.2813,1047.7188 886.8906,1046.5781 Q887.5156,1045.4219 888.6094,1044.8125 Q889.7031,1044.1875 890.9375,1044.1875 Q891.6719,1044.1875 892.3125,1044.3594 Q892.9688,1044.5156 893.5156,1044.875 Z " fill="#000000"/><text fill="#000000" font-family="sans-serif" font-size="14" lengthAdjust="spacing" textLength="95" x="911.25" y="1054.7285">Announcement</text><line style="stroke:#181818;stroke-width:0.5;" x1="799" x2="1086" y1="1065" y2="1065"/><text fill="#000000" font-family="sans-serif" font-size="14" lengthAdjust="spacing" textLength="110" x="804" y="1083.5332">-Request request</text><text fill="#000000" font-family="sans-serif" font-size="14" lengthAdjust="spacing" textLength="158" x="804" y="1101.1426">-Commission commission</text><text fill="#000000" font-family="sans-serif" font-size="14" lengthAdjust="spacing" textLength="64" x="804" y="1118.752">-Integer id</text><text fill="#000000" font-family="sans-serif" font-size="14" lengthAdjust="spacing" textLength="107" x="804" y="1136.3613">-Employee agent</text><text fill="#000000" font-family="sans-serif" font-size="14" lengthAdjust="spacing" textLength="176" x="804" y="1153.9707">-LocalDate acceptanceDate</text><line style="stroke:#181818;stroke-width:0.5;" x1="799" x2="1086" y1="1161.0469" y2="1161.0469"/><text fill="#000000" font-family="sans-serif" font-size="14" lengthAdjust="spacing" textLength="277" x="804" y="1179.5801">+defineOrderAcceptance(answer, orderDto)</text><text fill="#000000" font-family="sans-serif" font-size="14" lengthAdjust="spacing" textLength="210" x="804" y="1197.1895">+hasAgentWithEmail(agentEmail)</text><text fill="#000000" font-family="sans-serif" font-size="14" lengthAdjust="spacing" textLength="157" x="804" y="1214.7988">+hasId(announcementId)</text><text fill="#000000" font-family="sans-serif" font-size="14" lengthAdjust="spacing" textLength="104" x="804" y="1232.4082">+getListOrders()</text><text fill="#000000" font-family="sans-serif" font-size="14" lengthAdjust="spacing" textLength="151" x="804" y="1250.0176">+getRequestAttributes()</text><text fill="#000000" font-family="sans-serif" font-size="14" lengthAdjust="spacing" textLength="174" x="804" y="1267.627">+getCommissionAttributes()</text><text fill="#000000" font-family="sans-serif" font-size="14" lengthAdjust="spacing" textLength="49" x="804" y="1285.2363">+getId()</text><text fill="#000000" font-family="sans-serif" font-size="14" lengthAdjust="spacing" textLength="142" x="804" y="1302.8457">+getAcceptanceDate()</text></g><!--class AnnouncementDto--><g id="elem_AnnouncementDto"><rect codeLine="66" fill="#F1F1F1" height="171.2656" id="AnnouncementDto" rx="2.5" ry="2.5" style="stroke:#181818;stroke-width:0.5;" width="613" x="7" y="471"/><ellipse cx="250.75" cy="487" fill="#ADD1B2" rx="11" ry="11" style="stroke:#181818;stroke-width:1.0;"/><path d="M253.5156,482.875 Q253.6719,482.6563 253.8594,482.5469 Q254.0469,482.4375 254.2656,482.4375 Q254.6406,482.4375 254.875,482.7031 Q255.1094,482.9531 255.1094,483.5625 L255.1094,485.0156 Q255.1094,485.625 254.875,485.8906 Q254.6406,486.1563 254.2656,486.1563 Q253.9219,486.1563 253.7188,485.9531 Q253.5156,485.7656 253.4063,485.25 Q253.3594,484.8906 253.1719,484.7031 Q252.8438,484.3281 252.2344,484.1094 Q251.625,483.8906 251,483.8906 Q250.2344,483.8906 249.5938,484.2188 Q248.9688,484.5469 248.4688,485.2969 Q247.9844,486.0469 247.9844,487.0781 L247.9844,488.1719 Q247.9844,489.4063 248.875,490.2344 Q249.7656,491.0469 251.3594,491.0469 Q252.2969,491.0469 252.9531,490.7969 Q253.3438,490.6406 253.7656,490.2031 Q254.0313,489.9375 254.1719,489.8594 Q254.3281,489.7813 254.5313,489.7813 Q254.8594,489.7813 255.1094,490.0469 Q255.375,490.2969 255.375,490.6406 Q255.375,490.9844 255.0313,491.3906 Q254.5313,491.9688 253.7344,492.2969 Q252.6563,492.75 251.3594,492.75 Q249.8438,492.75 248.6406,492.125 Q247.6563,491.625 246.9688,490.5625 Q246.2813,489.4844 246.2813,488.2031 L246.2813,487.0469 Q246.2813,485.7188 246.8906,484.5781 Q247.5156,483.4219 248.6094,482.8125 Q249.7031,482.1875 250.9375,482.1875 Q251.6719,482.1875 252.3125,482.3594 Q252.9688,482.5156 253.5156,482.875 Z " fill="#000000"/><text fill="#000000" font-family="sans-serif" font-size="14" lengthAdjust="spacing" textLength="117" x="271.25" y="492.7285">AnnouncementDto</text><line style="stroke:#181818;stroke-width:0.5;" x1="8" x2="619" y1="503" y2="503"/><text fill="#000000" font-family="sans-serif" font-size="14" lengthAdjust="spacing" textLength="35" x="13" y="521.5332">-int id</text><text fill="#000000" font-family="sans-serif" font-size="14" lengthAdjust="spacing" textLength="154" x="13" y="539.1426">-String requestAtributtes</text><text fill="#000000" font-family="sans-serif" font-size="14" lengthAdjust="spacing" textLength="179" x="13" y="556.752">-String commissionAtributtes</text><text fill="#000000" font-family="sans-serif" font-size="14" lengthAdjust="spacing" textLength="149" x="13" y="574.3613">-String acceptanceDate</text><text fill="#000000" font-family="sans-serif" font-size="14" lengthAdjust="spacing" textLength="189" x="13" y="591.9707">-List&lt;OrderDto&gt; listOrdersDto</text><line style="stroke:#181818;stroke-width:0.5;" x1="8" x2="619" y1="599.0469" y2="599.0469"/><text fill="#000000" font-family="sans-serif" font-size="14" lengthAdjust="spacing" textLength="144" x="13" y="617.5801">+getAnnouncementId()</text><text fill="#000000" font-family="sans-serif" font-size="14" lengthAdjust="spacing" textLength="601" x="13" y="635.1895">+AnnouncementDto(requestAtributtes, listOrdersDto, commissionAtributtes, acceptanceDate,id)</text></g><!--class AnnouncementList--><g id="elem_AnnouncementList"><rect codeLine="76" fill="#F1F1F1" height="153.6563" id="AnnouncementList" rx="2.5" ry="2.5" style="stroke:#181818;stroke-width:0.5;" width="433" x="899" y="818"/><ellipse cx="1052.75" cy="834" fill="#ADD1B2" rx="11" ry="11" style="stroke:#181818;stroke-width:1.0;"/><path d="M1055.5156,829.875 Q1055.6719,829.6563 1055.8594,829.5469 Q1056.0469,829.4375 1056.2656,829.4375 Q1056.6406,829.4375 1056.875,829.7031 Q1057.1094,829.9531 1057.1094,830.5625 L1057.1094,832.0156 Q1057.1094,832.625 1056.875,832.8906 Q1056.6406,833.1563 1056.2656,833.1563 Q1055.9219,833.1563 1055.7188,832.9531 Q1055.5156,832.7656 1055.4063,832.25 Q1055.3594,831.8906 1055.1719,831.7031 Q1054.8438,831.3281 1054.2344,831.1094 Q1053.625,830.8906 1053,830.8906 Q1052.2344,830.8906 1051.5938,831.2188 Q1050.9688,831.5469 1050.4688,832.2969 Q1049.9844,833.0469 1049.9844,834.0781 L1049.9844,835.1719 Q1049.9844,836.4063 1050.875,837.2344 Q1051.7656,838.0469 1053.3594,838.0469 Q1054.2969,838.0469 1054.9531,837.7969 Q1055.3438,837.6406 1055.7656,837.2031 Q1056.0313,836.9375 1056.1719,836.8594 Q1056.3281,836.7813 1056.5313,836.7813 Q1056.8594,836.7813 1057.1094,837.0469 Q1057.375,837.2969 1057.375,837.6406 Q1057.375,837.9844 1057.0313,838.3906 Q1056.5313,838.9688 1055.7344,839.2969 Q1054.6563,839.75 1053.3594,839.75 Q1051.8438,839.75 1050.6406,839.125 Q1049.6563,838.625 1048.9688,837.5625 Q1048.2813,836.4844 1048.2813,835.2031 L1048.2813,834.0469 Q1048.2813,832.7188 1048.8906,831.5781 Q1049.5156,830.4219 1050.6094,829.8125 Q1051.7031,829.1875 1052.9375,829.1875 Q1053.6719,829.1875 1054.3125,829.3594 Q1054.9688,829.5156 1055.5156,829.875 Z " fill="#000000"/><text fill="#000000" font-family="sans-serif" font-size="14" lengthAdjust="spacing" textLength="117" x="1073.25" y="839.7285">AnnouncementList</text><line style="stroke:#181818;stroke-width:0.5;" x1="900" x2="1331" y1="850" y2="850"/><text fill="#000000" font-family="sans-serif" font-size="14" lengthAdjust="spacing" textLength="243" x="905" y="868.5332">-List&lt;Announcement&gt; announcements</text><line style="stroke:#181818;stroke-width:0.5;" x1="900" x2="1331" y1="875.6094" y2="875.6094"/><text fill="#000000" font-family="sans-serif" font-size="14" lengthAdjust="spacing" textLength="297" x="905" y="894.1426">+getAnnouncementsByAgentEmail(agentEmail)</text><text fill="#000000" font-family="sans-serif" font-size="14" lengthAdjust="spacing" textLength="265" x="905" y="911.752">+getAnnouncementById(announcementId)</text><text fill="#000000" font-family="sans-serif" font-size="14" lengthAdjust="spacing" textLength="276" x="905" y="929.3613">+anyAnnouncementHasId(announcementId)</text><text fill="#000000" font-family="sans-serif" font-size="14" lengthAdjust="spacing" textLength="421" x="905" y="946.9707">-sortAnnouncementsByOldestAcceptanceDate(listAnnouncements)</text><text fill="#000000" font-family="sans-serif" font-size="14" font-weight="bold" lengthAdjust="spacing" textLength="291" x="909" y="964.5801">- add(announcement) : VER ISTO MELHOR</text></g><!--class AnnouncementMapper--><g id="elem_AnnouncementMapper"><rect codeLine="85" fill="#F1F1F1" height="100.8281" id="AnnouncementMapper" rx="2.5" ry="2.5" style="stroke:#181818;stroke-width:0.5;" width="331" x="367" y="247.5"/><ellipse cx="456.75" cy="263.5" fill="#ADD1B2" rx="11" ry="11" style="stroke:#181818;stroke-width:1.0;"/><path d="M459.5156,259.375 Q459.6719,259.1563 459.8594,259.0469 Q460.0469,258.9375 460.2656,258.9375 Q460.6406,258.9375 460.875,259.2031 Q461.1094,259.4531 461.1094,260.0625 L461.1094,261.5156 Q461.1094,262.125 460.875,262.3906 Q460.6406,262.6563 460.2656,262.6563 Q459.9219,262.6563 459.7188,262.4531 Q459.5156,262.2656 459.4063,261.75 Q459.3594,261.3906 459.1719,261.2031 Q458.8438,260.8281 458.2344,260.6094 Q457.625,260.3906 457,260.3906 Q456.2344,260.3906 455.5938,260.7188 Q454.9688,261.0469 454.4688,261.7969 Q453.9844,262.5469 453.9844,263.5781 L453.9844,264.6719 Q453.9844,265.9063 454.875,266.7344 Q455.7656,267.5469 457.3594,267.5469 Q458.2969,267.5469 458.9531,267.2969 Q459.3438,267.1406 459.7656,266.7031 Q460.0313,266.4375 460.1719,266.3594 Q460.3281,266.2813 460.5313,266.2813 Q460.8594,266.2813 461.1094,266.5469 Q461.375,266.7969 461.375,267.1406 Q461.375,267.4844 461.0313,267.8906 Q460.5313,268.4688 459.7344,268.7969 Q458.6563,269.25 457.3594,269.25 Q455.8438,269.25 454.6406,268.625 Q453.6563,268.125 452.9688,267.0625 Q452.2813,265.9844 452.2813,264.7031 L452.2813,263.5469 Q452.2813,262.2188 452.8906,261.0781 Q453.5156,259.9219 454.6094,259.3125 Q455.7031,258.6875 456.9375,258.6875 Q457.6719,258.6875 458.3125,258.8594 Q458.9688,259.0156 459.5156,259.375 Z " fill="#000000"/><text fill="#000000" font-family="sans-serif" font-size="14" lengthAdjust="spacing" textLength="143" x="477.25" y="269.2285">AnnouncementMapper</text><line style="stroke:#181818;stroke-width:0.5;" x1="368" x2="697" y1="279.5" y2="279.5"/><line style="stroke:#181818;stroke-width:0.5;" x1="368" x2="697" y1="287.5" y2="287.5"/><text fill="#000000" font-family="sans-serif" font-size="14" lengthAdjust="spacing" textLength="171" x="373" y="306.0332">+toDto(listAnnouncements)</text><text fill="#000000" font-family="sans-serif" font-size="14" lengthAdjust="spacing" textLength="146" x="373" y="323.6426">+toDto(announcement)</text><text fill="#000000" font-family="sans-serif" font-size="14" font-weight="bold" lengthAdjust="spacing" textLength="315" x="377" y="341.252">- add(announcementDto) : VER ISTO MELHOR</text></g><!--class Agency--><g id="elem_Agency"><rect codeLine="91" fill="#F1F1F1" height="276.9219" id="Agency" rx="2.5" ry="2.5" style="stroke:#181818;stroke-width:0.5;" width="309" x="1080" y="418"/><ellipse cx="1206.75" cy="434" fill="#ADD1B2" rx="11" ry="11" style="stroke:#181818;stroke-width:1.0;"/><path d="M1209.5156,429.875 Q1209.6719,429.6563 1209.8594,429.5469 Q1210.0469,429.4375 1210.2656,429.4375 Q1210.6406,429.4375 1210.875,429.7031 Q1211.1094,429.9531 1211.1094,430.5625 L1211.1094,432.0156 Q1211.1094,432.625 1210.875,432.8906 Q1210.6406,433.1563 1210.2656,433.1563 Q1209.9219,433.1563 1209.7188,432.9531 Q1209.5156,432.7656 1209.4063,432.25 Q1209.3594,431.8906 1209.1719,431.7031 Q1208.8438,431.3281 1208.2344,431.1094 Q1207.625,430.8906 1207,430.8906 Q1206.2344,430.8906 1205.5938,431.2188 Q1204.9688,431.5469 1204.4688,432.2969 Q1203.9844,433.0469 1203.9844,434.0781 L1203.9844,435.1719 Q1203.9844,436.4063 1204.875,437.2344 Q1205.7656,438.0469 1207.3594,438.0469 Q1208.2969,438.0469 1208.9531,437.7969 Q1209.3438,437.6406 1209.7656,437.2031 Q1210.0313,436.9375 1210.1719,436.8594 Q1210.3281,436.7813 1210.5313,436.7813 Q1210.8594,436.7813 1211.1094,437.0469 Q1211.375,437.2969 1211.375,437.6406 Q1211.375,437.9844 1211.0313,438.3906 Q1210.5313,438.9688 1209.7344,439.2969 Q1208.6563,439.75 1207.3594,439.75 Q1205.8438,439.75 1204.6406,439.125 Q1203.6563,438.625 1202.9688,437.5625 Q1202.2813,436.4844 1202.2813,435.2031 L1202.2813,434.0469 Q1202.2813,432.7188 1202.8906,431.5781 Q1203.5156,430.4219 1204.6094,429.8125 Q1205.7031,429.1875 1206.9375,429.1875 Q1207.6719,429.1875 1208.3125,429.3594 Q1208.9688,429.5156 1209.5156,429.875 Z " fill="#000000"/><text fill="#000000" font-family="sans-serif" font-size="14" lengthAdjust="spacing" textLength="47" x="1227.25" y="439.7285">Agency</text><line style="stroke:#181818;stroke-width:0.5;" x1="1081" x2="1388" y1="450" y2="450"/><text fill="#000000" font-family="sans-serif" font-size="14" lengthAdjust="spacing" textLength="227" x="1086" y="468.5332">-AnnouncementList announcements</text><text fill="#000000" font-family="sans-serif" font-size="14" lengthAdjust="spacing" textLength="139" x="1086" y="486.1426">-RequestList requests</text><text fill="#000000" font-family="sans-serif" font-size="14" lengthAdjust="spacing" textLength="115" x="1086" y="503.752">-String description</text><text fill="#000000" font-family="sans-serif" font-size="14" lengthAdjust="spacing" textLength="120" x="1086" y="521.3613">-Email emailAdress</text><text fill="#000000" font-family="sans-serif" font-size="14" lengthAdjust="spacing" textLength="177" x="1086" y="538.9707">-List&lt;Employee&gt; employees</text><text fill="#000000" font-family="sans-serif" font-size="14" lengthAdjust="spacing" textLength="64" x="1086" y="556.5801">-Integer id</text><text fill="#000000" font-family="sans-serif" font-size="14" lengthAdjust="spacing" textLength="112" x="1086" y="574.1895">-Location location</text><text fill="#000000" font-family="sans-serif" font-size="14" lengthAdjust="spacing" textLength="135" x="1086" y="591.7988">-String phoneNumber</text><line style="stroke:#181818;stroke-width:0.5;" x1="1081" x2="1388" y1="598.875" y2="598.875"/><text fill="#000000" font-family="sans-serif" font-size="14" lengthAdjust="spacing" textLength="65" x="1086" y="617.4082">+Agency()</text><text fill="#000000" font-family="sans-serif" font-size="14" lengthAdjust="spacing" textLength="206" x="1086" y="635.0176">+anyAgentHasEmail(agentEmail)</text><text fill="#000000" font-family="sans-serif" font-size="14" lengthAdjust="spacing" textLength="297" x="1086" y="652.627">+getAnnouncementsByAgentEmail(agentEmail)</text><text fill="#000000" font-family="sans-serif" font-size="14" lengthAdjust="spacing" textLength="265" x="1086" y="670.2363">+getAnnouncementById(announcementId)</text><text fill="#000000" font-family="sans-serif" font-size="14" lengthAdjust="spacing" textLength="276" x="1086" y="687.8457">+anyAnnouncementHasId(announcementId)</text></g><!--class AgencyRepository--><g id="elem_AgencyRepository"><rect codeLine="107" fill="#F1F1F1" height="100.8281" id="AgencyRepository" rx="2.5" ry="2.5" style="stroke:#181818;stroke-width:0.5;" width="324" x="1105.5" y="247.5"/><ellipse cx="1205.75" cy="263.5" fill="#ADD1B2" rx="11" ry="11" style="stroke:#181818;stroke-width:1.0;"/><path d="M1208.5156,259.375 Q1208.6719,259.1563 1208.8594,259.0469 Q1209.0469,258.9375 1209.2656,258.9375 Q1209.6406,258.9375 1209.875,259.2031 Q1210.1094,259.4531 1210.1094,260.0625 L1210.1094,261.5156 Q1210.1094,262.125 1209.875,262.3906 Q1209.6406,262.6563 1209.2656,262.6563 Q1208.9219,262.6563 1208.7188,262.4531 Q1208.5156,262.2656 1208.4063,261.75 Q1208.3594,261.3906 1208.1719,261.2031 Q1207.8438,260.8281 1207.2344,260.6094 Q1206.625,260.3906 1206,260.3906 Q1205.2344,260.3906 1204.5938,260.7188 Q1203.9688,261.0469 1203.4688,261.7969 Q1202.9844,262.5469 1202.9844,263.5781 L1202.9844,264.6719 Q1202.9844,265.9063 1203.875,266.7344 Q1204.7656,267.5469 1206.3594,267.5469 Q1207.2969,267.5469 1207.9531,267.2969 Q1208.3438,267.1406 1208.7656,266.7031 Q1209.0313,266.4375 1209.1719,266.3594 Q1209.3281,266.2813 1209.5313,266.2813 Q1209.8594,266.2813 1210.1094,266.5469 Q1210.375,266.7969 1210.375,267.1406 Q1210.375,267.4844 1210.0313,267.8906 Q1209.5313,268.4688 1208.7344,268.7969 Q1207.6563,269.25 1206.3594,269.25 Q1204.8438,269.25 1203.6406,268.625 Q1202.6563,268.125 1201.9688,267.0625 Q1201.2813,265.9844 1201.2813,264.7031 L1201.2813,263.5469 Q1201.2813,262.2188 1201.8906,261.0781 Q1202.5156,259.9219 1203.6094,259.3125 Q1204.7031,258.6875 1205.9375,258.6875 Q1206.6719,258.6875 1207.3125,258.8594 Q1207.9688,259.0156 1208.5156,259.375 Z " fill="#000000"/><text fill="#000000" font-family="sans-serif" font-size="14" lengthAdjust="spacing" textLength="115" x="1226.25" y="269.2285">AgencyRepository</text><line style="stroke:#181818;stroke-width:0.5;" x1="1106.5" x2="1428.5" y1="279.5" y2="279.5"/><text fill="#000000" font-family="sans-serif" font-size="14" lengthAdjust="spacing" textLength="151" x="1111.5" y="298.0332">-List&lt;Agency&gt; agencies</text><line style="stroke:#181818;stroke-width:0.5;" x1="1106.5" x2="1428.5" y1="305.1094" y2="305.1094"/><text fill="#000000" font-family="sans-serif" font-size="14" lengthAdjust="spacing" textLength="267" x="1111.5" y="323.6426">+getAgencyByEmployeeEmail(agentEmail)</text><text fill="#000000" font-family="sans-serif" font-size="14" lengthAdjust="spacing" textLength="312" x="1111.5" y="341.252">+getAgencyByAnnouncementId(announcementId)</text></g><!--class AuthenticationRepository--><g id="elem_AuthenticationRepository"><rect codeLine="112" fill="#F1F1F1" height="65.6094" id="AuthenticationRepository" rx="2.5" ry="2.5" style="stroke:#181818;stroke-width:0.5;" width="190" x="1464.5" y="265"/><ellipse cx="1479.5" cy="281" fill="#ADD1B2" rx="11" ry="11" style="stroke:#181818;stroke-width:1.0;"/><path d="M1482.2656,276.875 Q1482.4219,276.6563 1482.6094,276.5469 Q1482.7969,276.4375 1483.0156,276.4375 Q1483.3906,276.4375 1483.625,276.7031 Q1483.8594,276.9531 1483.8594,277.5625 L1483.8594,279.0156 Q1483.8594,279.625 1483.625,279.8906 Q1483.3906,280.1563 1483.0156,280.1563 Q1482.6719,280.1563 1482.4688,279.9531 Q1482.2656,279.7656 1482.1563,279.25 Q1482.1094,278.8906 1481.9219,278.7031 Q1481.5938,278.3281 1480.9844,278.1094 Q1480.375,277.8906 1479.75,277.8906 Q1478.9844,277.8906 1478.3438,278.2188 Q1477.7188,278.5469 1477.2188,279.2969 Q1476.7344,280.0469 1476.7344,281.0781 L1476.7344,282.1719 Q1476.7344,283.4063 1477.625,284.2344 Q1478.5156,285.0469 1480.1094,285.0469 Q1481.0469,285.0469 1481.7031,284.7969 Q1482.0938,284.6406 1482.5156,284.2031 Q1482.7813,283.9375 1482.9219,283.8594 Q1483.0781,283.7813 1483.2813,283.7813 Q1483.6094,283.7813 1483.8594,284.0469 Q1484.125,284.2969 1484.125,284.6406 Q1484.125,284.9844 1483.7813,285.3906 Q1483.2813,285.9688 1482.4844,286.2969 Q1481.4063,286.75 1480.1094,286.75 Q1478.5938,286.75 1477.3906,286.125 Q1476.4063,285.625 1475.7188,284.5625 Q1475.0313,283.4844 1475.0313,282.2031 L1475.0313,281.0469 Q1475.0313,279.7188 1475.6406,278.5781 Q1476.2656,277.4219 1477.3594,276.8125 Q1478.4531,276.1875 1479.6875,276.1875 Q1480.4219,276.1875 1481.0625,276.3594 Q1481.7188,276.5156 1482.2656,276.875 Z " fill="#000000"/><text fill="#000000" font-family="sans-serif" font-size="14" lengthAdjust="spacing" textLength="158" x="1493.5" y="286.7285">AuthenticationRepository</text><line style="stroke:#181818;stroke-width:0.5;" x1="1465.5" x2="1653.5" y1="297" y2="297"/><line style="stroke:#181818;stroke-width:0.5;" x1="1465.5" x2="1653.5" y1="305" y2="305"/><text fill="#000000" font-family="sans-serif" font-size="14" lengthAdjust="spacing" textLength="136" x="1470.5" y="323.5332">+getCurrentSession()</text></g><!--class Repositories--><g id="elem_Repositories"><rect codeLine="116" fill="#F1F1F1" height="118.4375" id="Repositories" rx="2.5" ry="2.5" style="stroke:#181818;stroke-width:0.5;" width="208" x="1311.5" y="25"/><ellipse cx="1371.75" cy="41" fill="#ADD1B2" rx="11" ry="11" style="stroke:#181818;stroke-width:1.0;"/><path d="M1374.5156,36.875 Q1374.6719,36.6563 1374.8594,36.5469 Q1375.0469,36.4375 1375.2656,36.4375 Q1375.6406,36.4375 1375.875,36.7031 Q1376.1094,36.9531 1376.1094,37.5625 L1376.1094,39.0156 Q1376.1094,39.625 1375.875,39.8906 Q1375.6406,40.1563 1375.2656,40.1563 Q1374.9219,40.1563 1374.7188,39.9531 Q1374.5156,39.7656 1374.4063,39.25 Q1374.3594,38.8906 1374.1719,38.7031 Q1373.8438,38.3281 1373.2344,38.1094 Q1372.625,37.8906 1372,37.8906 Q1371.2344,37.8906 1370.5938,38.2188 Q1369.9688,38.5469 1369.4688,39.2969 Q1368.9844,40.0469 1368.9844,41.0781 L1368.9844,42.1719 Q1368.9844,43.4063 1369.875,44.2344 Q1370.7656,45.0469 1372.3594,45.0469 Q1373.2969,45.0469 1373.9531,44.7969 Q1374.3438,44.6406 1374.7656,44.2031 Q1375.0313,43.9375 1375.1719,43.8594 Q1375.3281,43.7813 1375.5313,43.7813 Q1375.8594,43.7813 1376.1094,44.0469 Q1376.375,44.2969 1376.375,44.6406 Q1376.375,44.9844 1376.0313,45.3906 Q1375.5313,45.9688 1374.7344,46.2969 Q1373.6563,46.75 1372.3594,46.75 Q1370.8438,46.75 1369.6406,46.125 Q1368.6563,45.625 1367.9688,44.5625 Q1367.2813,43.4844 1367.2813,42.2031 L1367.2813,41.0469 Q1367.2813,39.7188 1367.8906,38.5781 Q1368.5156,37.4219 1369.6094,36.8125 Q1370.7031,36.1875 1371.9375,36.1875 Q1372.6719,36.1875 1373.3125,36.3594 Q1373.9688,36.5156 1374.5156,36.875 Z " fill="#000000"/><text fill="#000000" font-family="sans-serif" font-size="14" lengthAdjust="spacing" textLength="79" x="1392.25" y="46.7285">Repositories</text><line style="stroke:#181818;stroke-width:0.5;" x1="1312.5" x2="1518.5" y1="57" y2="57"/><line style="stroke:#181818;stroke-width:0.5;" x1="1312.5" x2="1518.5" y1="65" y2="65"/><text fill="#000000" font-family="sans-serif" font-size="14" lengthAdjust="spacing" textLength="94" x="1317.5" y="83.5332">-Repositories()</text><text fill="#000000" font-family="sans-serif" font-size="14" lengthAdjust="spacing" textLength="177" x="1317.5" y="101.1426">+getInstance() : repositories</text><text fill="#000000" font-family="sans-serif" font-size="14" lengthAdjust="spacing" textLength="153" x="1317.5" y="118.752">+getAgencyRepository()</text><text fill="#000000" font-family="sans-serif" font-size="14" lengthAdjust="spacing" textLength="196" x="1317.5" y="136.3613">+getAuthenticationRepository()</text></g><!--class AcceptOrdersController--><g id="elem_AcceptOrdersController"><rect codeLine="124" fill="#F1F1F1" height="153.6563" id="AcceptOrdersController" rx="2.5" ry="2.5" style="stroke:#181818;stroke-width:0.5;" width="417" x="791" y="7"/><ellipse cx="920.75" cy="23" fill="#ADD1B2" rx="11" ry="11" style="stroke:#181818;stroke-width:1.0;"/><path d="M923.5156,18.875 Q923.6719,18.6563 923.8594,18.5469 Q924.0469,18.4375 924.2656,18.4375 Q924.6406,18.4375 924.875,18.7031 Q925.1094,18.9531 925.1094,19.5625 L925.1094,21.0156 Q925.1094,21.625 924.875,21.8906 Q924.6406,22.1563 924.2656,22.1563 Q923.9219,22.1563 923.7188,21.9531 Q923.5156,21.7656 923.4063,21.25 Q923.3594,20.8906 923.1719,20.7031 Q922.8438,20.3281 922.2344,20.1094 Q921.625,19.8906 921,19.8906 Q920.2344,19.8906 919.5938,20.2188 Q918.9688,20.5469 918.4688,21.2969 Q917.9844,22.0469 917.9844,23.0781 L917.9844,24.1719 Q917.9844,25.4063 918.875,26.2344 Q919.7656,27.0469 921.3594,27.0469 Q922.2969,27.0469 922.9531,26.7969 Q923.3438,26.6406 923.7656,26.2031 Q924.0313,25.9375 924.1719,25.8594 Q924.3281,25.7813 924.5313,25.7813 Q924.8594,25.7813 925.1094,26.0469 Q925.375,26.2969 925.375,26.6406 Q925.375,26.9844 925.0313,27.3906 Q924.5313,27.9688 923.7344,28.2969 Q922.6563,28.75 921.3594,28.75 Q919.8438,28.75 918.6406,28.125 Q917.6563,27.625 916.9688,26.5625 Q916.2813,25.4844 916.2813,24.2031 L916.2813,23.0469 Q916.2813,21.7188 916.8906,20.5781 Q917.5156,19.4219 918.6094,18.8125 Q919.7031,18.1875 920.9375,18.1875 Q921.6719,18.1875 922.3125,18.3594 Q922.9688,18.5156 923.5156,18.875 Z " fill="#000000"/><text fill="#000000" font-family="sans-serif" font-size="14" lengthAdjust="spacing" textLength="149" x="941.25" y="28.7285">AcceptOrdersController</text><line style="stroke:#181818;stroke-width:0.5;" x1="792" x2="1207" y1="39" y2="39"/><line style="stroke:#181818;stroke-width:0.5;" x1="792" x2="1207" y1="47" y2="47"/><text fill="#000000" font-family="sans-serif" font-size="14" lengthAdjust="spacing" textLength="281" x="797" y="65.5332">+AcceptOrdersController(agencyRepository)</text><text fill="#000000" font-family="sans-serif" font-size="14" lengthAdjust="spacing" textLength="155" x="797" y="83.1426">+getAnnouncementList()</text><text fill="#000000" font-family="sans-serif" font-size="14" lengthAdjust="spacing" textLength="405" x="797" y="100.752">+defineOrderAcceptance (answer, orderDto, announcementDto)</text><text fill="#000000" font-family="sans-serif" font-size="14" lengthAdjust="spacing" textLength="106" x="797" y="118.3613">-getAgentEmail()</text><text fill="#000000" font-family="sans-serif" font-size="14" lengthAdjust="spacing" textLength="239" x="797" y="135.9707">-getAnnouncementListByAgentEmail()</text><text fill="#000000" font-family="sans-serif" font-size="14" lengthAdjust="spacing" textLength="301" x="797" y="153.5801">-getAnnouncementFromDto(announcementDto)</text></g><!--class AcceptOrdersUI--><g id="elem_AcceptOrdersUI"><rect codeLine="134" fill="#F1F1F1" height="48" id="AcceptOrdersUI" rx="2.5" ry="2.5" style="stroke:#181818;stroke-width:0.5;" width="131" x="625" y="60"/><ellipse cx="640" cy="76" fill="#ADD1B2" rx="11" ry="11" style="stroke:#181818;stroke-width:1.0;"/><path d="M642.7656,71.875 Q642.9219,71.6563 643.1094,71.5469 Q643.2969,71.4375 643.5156,71.4375 Q643.8906,71.4375 644.125,71.7031 Q644.3594,71.9531 644.3594,72.5625 L644.3594,74.0156 Q644.3594,74.625 644.125,74.8906 Q643.8906,75.1563 643.5156,75.1563 Q643.1719,75.1563 642.9688,74.9531 Q642.7656,74.7656 642.6563,74.25 Q642.6094,73.8906 642.4219,73.7031 Q642.0938,73.3281 641.4844,73.1094 Q640.875,72.8906 640.25,72.8906 Q639.4844,72.8906 638.8438,73.2188 Q638.2188,73.5469 637.7188,74.2969 Q637.2344,75.0469 637.2344,76.0781 L637.2344,77.1719 Q637.2344,78.4063 638.125,79.2344 Q639.0156,80.0469 640.6094,80.0469 Q641.5469,80.0469 642.2031,79.7969 Q642.5938,79.6406 643.0156,79.2031 Q643.2813,78.9375 643.4219,78.8594 Q643.5781,78.7813 643.7813,78.7813 Q644.1094,78.7813 644.3594,79.0469 Q644.625,79.2969 644.625,79.6406 Q644.625,79.9844 644.2813,80.3906 Q643.7813,80.9688 642.9844,81.2969 Q641.9063,81.75 640.6094,81.75 Q639.0938,81.75 637.8906,81.125 Q636.9063,80.625 636.2188,79.5625 Q635.5313,78.4844 635.5313,77.2031 L635.5313,76.0469 Q635.5313,74.7188 636.1406,73.5781 Q636.7656,72.4219 637.8594,71.8125 Q638.9531,71.1875 640.1875,71.1875 Q640.9219,71.1875 641.5625,71.3594 Q642.2188,71.5156 642.7656,71.875 Z " fill="#000000"/><text fill="#000000" font-family="sans-serif" font-size="14" lengthAdjust="spacing" textLength="99" x="654" y="81.7285">AcceptOrdersUI</text><line style="stroke:#181818;stroke-width:0.5;" x1="626" x2="755" y1="92" y2="92"/><line style="stroke:#181818;stroke-width:0.5;" x1="626" x2="755" y1="100" y2="100"/></g><!--link Repositories to Repositories--><g id="link_Repositories_Repositories"><path codeLine="137" d="M1519.76,63.22 C1540.08,65.63 1554.5,72.56 1554.5,84 C1554.5,94.46 1542.45,101.14 1524.86,104.06 " fill="none" id="Repositories-to-Repositories" style="stroke:#181818;stroke-width:1.0;"/><polygon fill="#181818" points="1519.76,104.78,1529.232,107.4785,1524.7106,104.0789,1528.1102,99.5575,1519.76,104.78" style="stroke:#181818;stroke-width:1.0;"/><text fill="#000000" font-family="sans-serif" font-size="13" lengthAdjust="spacing" textLength="49" x="1560.5" y="89.4951">instance</text></g><!--link AcceptOrdersUI to AcceptOrdersController--><g id="link_AcceptOrdersUI_AcceptOrdersController"><path codeLine="139" d="M756.02,84 C767.93,84 778.76,84 785.68,84 " fill="none" id="AcceptOrdersUI-to-AcceptOrdersController" style="stroke:#181818;stroke-width:1.0;stroke-dasharray:7.0,7.0;"/><polygon fill="#181818" points="790.85,84,781.85,80,785.85,84,781.85,88,790.85,84" style="stroke:#181818;stroke-width:1.0;"/></g><!--link AcceptOrdersController to Repositories--><g id="link_AcceptOrdersController_Repositories"><path codeLine="140" d="M1208.11,84 C1242.03,84 1275.93,84 1306.2,84 " fill="none" id="AcceptOrdersController-to-Repositories" style="stroke:#181818;stroke-width:1.0;stroke-dasharray:7.0,7.0;"/><polygon fill="#181818" points="1311.41,84,1302.41,80,1306.41,84,1302.41,88,1311.41,84" style="stroke:#181818;stroke-width:1.0;"/><text fill="#000000" font-family="sans-serif" font-size="13" lengthAdjust="spacing" textLength="67" x="1226.25" y="77.4951">repositories</text></g><!--link AcceptOrdersController to AgencyRepository--><g id="link_AcceptOrdersController_AgencyRepository"><path codeLine="141" d="M1095.88,161.24 C1130.49,188.62 1168.74,218.88 1200.34,243.87 " fill="none" id="AcceptOrdersController-to-AgencyRepository" style="stroke:#181818;stroke-width:1.0;stroke-dasharray:7.0,7.0;"/><polygon fill="#181818" points="1204.55,247.2,1199.978,238.4766,1200.6304,244.0958,1195.0112,244.7481,1204.55,247.2" style="stroke:#181818;stroke-width:1.0;"/><text fill="#000000" font-family="sans-serif" font-size="13" lengthAdjust="spacing" textLength="104" x="1151.5" y="205.4951">agencyRepository</text></g><!--link AcceptOrdersController to AuthenticationRepository--><g id="link_AcceptOrdersController_AuthenticationRepository"><path codeLine="142" d="M1208.09,156.7 C1324.98,196.88 1447.5,239 1447.5,239 C1447.5,239 1468.95,250.11 1493.07,262.6 " fill="none" id="AcceptOrdersController-to-AuthenticationRepository" style="stroke:#181818;stroke-width:1.0;stroke-dasharray:7.0,7.0;"/><polygon fill="#181818" points="1497.6,264.95,1491.4464,257.2602,1493.1597,262.6513,1487.7686,264.3646,1497.6,264.95" style="stroke:#181818;stroke-width:1.0;"/><text fill="#000000" font-family="sans-serif" font-size="13" lengthAdjust="spacing" textLength="143" x="1352.5" y="205.4951">authenticationRepository</text></g><!--link AcceptOrdersController to AnnouncementMapper--><g id="link_AcceptOrdersController_AnnouncementMapper"><path codeLine="143" d="M831.89,161.09 C770.31,189.04 702.08,220.02 646.32,245.33 " fill="none" id="AcceptOrdersController-to-AnnouncementMapper" style="stroke:#181818;stroke-width:1.0;stroke-dasharray:7.0,7.0;"/><polygon fill="#181818" points="641.65,247.45,651.4987,247.3929,646.2072,245.3928,648.2072,240.1013,641.65,247.45" style="stroke:#181818;stroke-width:1.0;"/></g><!--link AnnouncementMapper to AnnouncementDto--><g id="link_AnnouncementMapper_AnnouncementDto"><path codeLine="144" d="M490.01,348.76 C461.4,382.28 422.85,427.42 389.09,466.97 " fill="none" id="AnnouncementMapper-to-AnnouncementDto" style="stroke:#181818;stroke-width:1.0;stroke-dasharray:7.0,7.0;"/><polygon fill="#181818" points="385.83,470.78,394.7149,466.5306,389.0757,466.9767,388.6296,461.3374,385.83,470.78" style="stroke:#181818;stroke-width:1.0;"/></g><!--link AnnouncementMapper to Announcement--><g id="link_AnnouncementMapper_Announcement"><path codeLine="145" d="M576.42,348.78 C605.19,381.39 637.5,418 637.5,418 C637.5,418 673.5,555.5 673.5,555.5 C673.5,555.5 673.5,555.5 673.5,896 C673.5,896 738.15,961.98 804.07,1029.24 " fill="none" id="AnnouncementMapper-to-Announcement" style="stroke:#181818;stroke-width:1.0;stroke-dasharray:7.0,7.0;"/><polygon fill="#181818" points="807.61,1032.85,804.1675,1023.6224,804.1104,1029.2789,798.4538,1029.2218,807.61,1032.85" style="stroke:#181818;stroke-width:1.0;"/></g><!--link AcceptOrdersController to OrderMapper--><g id="link_AcceptOrdersController_OrderMapper"><path codeLine="146" d="M977.2,161.24 C970.24,185.06 962.63,211.08 955.96,233.9 " fill="none" id="AcceptOrdersController-to-OrderMapper" style="stroke:#181818;stroke-width:1.0;stroke-dasharray:7.0,7.0;"/><polygon fill="#181818" points="954.55,238.71,960.9306,231.2075,955.9631,233.9139,953.2568,228.9464,954.55,238.71" style="stroke:#181818;stroke-width:1.0;"/></g><!--link OrderMapper to OrderDto--><g id="link_OrderMapper_OrderDto"><path codeLine="147" d="M925.7,357.2 C919.22,389.18 911.03,429.55 903.75,465.49 " fill="none" id="OrderMapper-to-OrderDto" style="stroke:#181818;stroke-width:1.0;stroke-dasharray:7.0,7.0;"/><polygon fill="#181818" points="902.68,470.77,908.3764,462.7356,903.6661,465.8682,900.5335,461.1579,902.68,470.77" style="stroke:#181818;stroke-width:1.0;"/></g><!--link OrderMapper to Order--><g id="link_OrderMapper_Order"><path codeLine="148" d="M1070.29,350.35 C1080.83,354.42 1087.5,357 1087.5,357 C1087.5,357 1406.5,418 1406.5,418 C1406.5,418 1442.5,555.5 1442.5,555.5 C1442.5,555.5 1442.5,555.5 1442.5,1172.5 C1442.5,1172.5 1406.5,1310 1406.5,1310 C1406.5,1310 1398.12,1334.84 1387.73,1365.65 " fill="none" id="OrderMapper-to-Order" style="stroke:#181818;stroke-width:1.0;stroke-dasharray:7.0,7.0;"/><polygon fill="#181818" points="1386.05,1370.64,1392.717,1363.3908,1387.6483,1365.9023,1385.1367,1360.8336,1386.05,1370.64" style="stroke:#181818;stroke-width:1.0;"/></g><!--link AcceptOrdersUI to AnnouncementDto--><g id="link_AcceptOrdersUI_AnnouncementDto"><path codeLine="149" d="M639.45,108.06 C544.32,151.02 349.5,239 349.5,239 C349.5,239 334.36,372.13 323.71,465.7 " fill="none" id="AcceptOrdersUI-to-AnnouncementDto" style="stroke:#181818;stroke-width:1.0;stroke-dasharray:7.0,7.0;"/><polygon fill="#181818" points="323.15,470.68,328.1275,462.1815,323.7069,465.7111,320.1772,461.2905,323.15,470.68" style="stroke:#181818;stroke-width:1.0;"/></g><!--link AcceptOrdersUI to OrderDto--><g id="link_AcceptOrdersUI_OrderDto"><path codeLine="150" d="M698.77,108.19 C722.23,173.97 787.5,357 787.5,357 C787.5,357 815.31,413.34 841.31,465.99 " fill="none" id="AcceptOrdersUI-to-OrderDto" style="stroke:#181818;stroke-width:1.0;stroke-dasharray:7.0,7.0;"/><polygon fill="#181818" points="843.65,470.74,843.2531,460.8991,841.4368,466.2565,836.0795,464.4403,843.65,470.74" style="stroke:#181818;stroke-width:1.0;"/></g><!--link Repositories to AuthenticationRepository--><g id="link_Repositories_AuthenticationRepository"><path codeLine="151" d="M1472.67,143.27 C1496.84,167.9 1519.5,191 1519.5,191 C1519.5,191 1534.02,229.48 1545.57,260.07 " fill="none" id="Repositories-to-AuthenticationRepository" style="stroke:#181818;stroke-width:1.0;"/><polygon fill="#181818" points="1547.39,264.91,1547.939,255.0765,1545.6172,260.2348,1540.4588,257.913,1547.39,264.91" style="stroke:#181818;stroke-width:1.0;"/><text fill="#000000" font-family="sans-serif" font-size="13" lengthAdjust="spacing" textLength="7" x="1537.1704" y="254.0068">1</text></g><!--link Repositories to AgencyRepository--><g id="link_Repositories_AgencyRepository"><path codeLine="152" d="M1364.92,143.27 C1343.55,167.9 1323.5,191 1323.5,191 C1323.5,191 1309.89,216.76 1296.09,242.88 " fill="none" id="Repositories-to-AgencyRepository" style="stroke:#181818;stroke-width:1.0;"/><polygon fill="#181818" points="1293.7,247.41,1301.429,241.3056,1296.027,242.9845,1294.3481,237.5825,1293.7,247.41" style="stroke:#181818;stroke-width:1.0;"/><text fill="#000000" font-family="sans-serif" font-size="13" lengthAdjust="spacing" textLength="7" x="1289.8922" y="236.7027">1</text></g><!--link AgencyRepository to Agency--><g id="link_AgencyRepository_Agency"><path codeLine="153" d="M1261.1,348.76 C1258.69,367.45 1255.82,389.76 1252.87,412.69 " fill="none" id="AgencyRepository-to-Agency" style="stroke:#181818;stroke-width:1.0;"/><polygon fill="#181818" points="1252.2,417.9,1257.3212,409.4873,1252.8412,412.9413,1249.3872,408.4613,1252.2,417.9" style="stroke:#181818;stroke-width:1.0;"/><text fill="#000000" font-family="sans-serif" font-size="13" lengthAdjust="spacing" textLength="5" x="1248.0788" y="406.9322">*</text></g><!--link Agency to AnnouncementList--><g id="link_Agency_AnnouncementList"><path codeLine="154" d="M1185.75,695.34 C1171.68,735.13 1156.78,777.26 1144.34,812.44 " fill="none" id="Agency-to-AnnouncementList" style="stroke:#181818;stroke-width:1.0;"/><polygon fill="#181818" points="1142.53,817.58,1149.3075,810.434,1144.2008,812.8674,1141.7674,807.7607,1142.53,817.58" style="stroke:#181818;stroke-width:1.0;"/><text fill="#000000" font-family="sans-serif" font-size="13" lengthAdjust="spacing" textLength="7" x="1137.6992" y="807.2325">1</text></g><!--link AnnouncementList to Announcement--><g id="link_AnnouncementList_Announcement"><path codeLine="155" d="M1067.54,972.1 C1056.43,989.73 1044.25,1009.05 1032,1028.49 " fill="none" id="AnnouncementList-to-Announcement" style="stroke:#181818;stroke-width:1.0;"/><polygon fill="#181818" points="1029.22,1032.91,1037.4086,1027.4376,1031.8905,1028.6829,1030.6452,1023.1648,1029.22,1032.91" style="stroke:#181818;stroke-width:1.0;"/><text fill="#000000" font-family="sans-serif" font-size="13" lengthAdjust="spacing" textLength="7" x="1055.9568" y="993.2053">1</text><text fill="#000000" font-family="sans-serif" font-size="13" lengthAdjust="spacing" textLength="5" x="1029.089" y="1021.9428">*</text></g><!--link Announcement to OrderList--><g id="link_Announcement_OrderList"><path codeLine="156" d="M1087.17,1171.5 C1096.94,1171.5 1107.3,1171.5 1116.77,1171.5 " fill="none" id="Announcement-to-OrderList" style="stroke:#181818;stroke-width:1.0;"/><polygon fill="#181818" points="1121.93,1171.5,1112.93,1167.5,1116.93,1171.5,1112.93,1175.5,1121.93,1171.5" style="stroke:#181818;stroke-width:1.0;"/><text fill="#000000" font-family="sans-serif" font-size="13" lengthAdjust="spacing" textLength="7" x="1107.0056" y="1168.5301">1</text></g><!--link OrderList to Order--><g id="link_OrderList_Order"><path codeLine="157" d="M1272.99,1230.71 C1284.42,1268.73 1299.73,1319.68 1313.57,1365.77 " fill="none" id="OrderList-to-Order" style="stroke:#181818;stroke-width:1.0;"/><polygon fill="#181818" points="1315.08,1370.79,1316.3118,1361.0185,1313.6367,1366.0028,1308.6523,1363.3277,1315.08,1370.79" style="stroke:#181818;stroke-width:1.0;"/><text fill="#000000" font-family="sans-serif" font-size="13" lengthAdjust="spacing" textLength="7" x="1267.695" y="1252.3911">1</text><text fill="#000000" font-family="sans-serif" font-size="13" lengthAdjust="spacing" textLength="5" x="1307.6666" y="1360.2172">*</text></g><!--link Order to Notification--><g id="link_Order_Notification"><path codeLine="158" d="M1348.5,1595.25 C1348.5,1615.19 1348.5,1634.65 1348.5,1650.56 " fill="none" id="Order-to-Notification" style="stroke:#181818;stroke-width:1.0;stroke-dasharray:7.0,7.0;"/><polygon fill="#181818" points="1348.5,1655.81,1352.5,1646.81,1348.5,1650.81,1344.5,1646.81,1348.5,1655.81" style="stroke:#181818;stroke-width:1.0;"/></g><!--SRC=[lLVBRjiw4DthAuXkwjXESEysk32WF8eOI6eWlctNZCJOR2LI9MaKQj5_x_0XYgJ4f8kYMJWIPpXpUEPmABwLNoZhiC0jQZdZrL7mbY0bJgGOBHsklk03sQk-8KYGIc5sQ487USGr_qRP0JtZHeQMXZAY-ewWZZUzVYdUpXYvKBm8PbKDbh9KIj2daoBRYhCz_KxGFqLXBEWzL_IPLbXHpj2FOeKaOVLEr4IKLKKwm5UHq6THDPGmTTjYsgmHPl8R4MV5po6ScGbn4FoTenj-Uceq9XskvIUcdE6ULxYvmShPz9EpcC0eIEB6zx0280LxKAL9RQmhctOHv5cFWTTXj3CtuK3KRlHU1CFNe_CYzTRX_A0agapGB0O-h8SWdw725blAqGFkEi_K2Yb-e_YYeTAwoxDetAnb77hWDMdi85Zj-7899E6w7eVH9Vfu-uYs-_ztwE7s_cxtk5mc8EuXdo-MVldF36yiUN9OA6ZAehhgx-ZXI6IEEnt2lzVa6KIPICanvCgJaWAmFHnNy5GVTKvIpZzLpif7_ZFocEfWeXc_ff8nc5wH5en-NO_awmaO176O_sxqchSjbL9lmie_EjkMAN80hT3Qxv6kuJqX23h9p9OQzuZdxRUguRMqGaSiIntx4rL7kooJAk88VBOrH1ZNkAqJBLZLX4ovrVk651b74kRja2vuAwDbvdWF9KMX39v4fnSn03Bv864Yfm3IlCSCs-5UWlmRDEvhU0rM477drvR0NqmWhkE0wrcKwmJPcjOPYgPT8BHkK5XYEOyUEaFf1JAZbSJzgiyg1xC-zBpBYkpSzAK4nAwfDLEnCZHPaL_ICSFehtJDC4osWy_a6inHgZoArzktPhlgVTKcvPpMp7SUOtUQIhGCv5M2TchiFVOu9lgth0MHCfJ9q8Ssu62VPAvbwUvaFZ4Qzn0dxewSaVUdzicVw7Q1Yr0M1wk7tzJONvPaKfb7qd595HTzihECTMCwTqL9k9sCvQeVI7q9jtDD-iSKaaDqKaSOSXzm8p80PjlkIGYmxudf864ZzRw0D3Z0ni6eEpDf3nKjNH4ufS17154xpw04du1SixDjvxlcJ0dUDC4Ud3SR4iEq6Gcy_lM29WVc6gNxrh7aLXjzI9xFPOnacl5x1rU9j7sON43C33CVji08cABodM_YSbx2SMWBLXJ9v8jDXiaYm__597PK_zmiW3JPBPSehTQBqpEYWJ08PsmlnflqzsAcvQUU-b2VSukzNieRN0cAy7hWRJf5OBXmmtELIu5DF7p0M1-Gwis_RxAKPhmdnKeBQZoNWwUpm-WG8DaEnUGeqru-ICHd-7djmlbhJJ5USC80bZLxIzNaXbVRelW5]--></g></svg>