<?xml version="1.0" encoding="UTF-8" standalone="no"?><svg xmlns="http://www.w3.org/2000/svg" xmlns:xlink="http://www.w3.org/1999/xlink" contentStyleType="text/css" height="1520px" preserveAspectRatio="none" style="width:1839px;height:1520px;background:#FFFFFF;" version="1.1" viewBox="0 0 1839 1520" width="1839px" zoomAndPan="magnify"><defs/><g><rect fill="#FFFFFF" height="1335.6406" style="stroke:#181818;stroke-width:1.0;" width="10" x="56.5" y="92.6094"/><rect fill="#FFFFFF" height="711.1797" style="stroke:#181818;stroke-width:1.0;" width="10" x="443.5" y="114.9609"/><rect fill="#FFFFFF" height="30.3516" style="stroke:#181818;stroke-width:1.0;" width="10" x="443.5" y="932.1953"/><rect fill="#FFFFFF" height="356.3516" style="stroke:#181818;stroke-width:1.0;" width="10" x="443.5" y="992.8984"/><rect fill="#FFFFFF" height="270.6484" style="stroke:#181818;stroke-width:1.0;" width="10" x="836.5" y="187.9219"/><rect fill="#FFFFFF" height="87.7969" style="stroke:#181818;stroke-width:1.0;" width="10" x="841.5" y="226.2734"/><rect fill="#FFFFFF" height="212.4609" style="stroke:#181818;stroke-width:1.0;" width="10" x="836.5" y="566.9766"/><rect fill="#FFFFFF" height="295.6484" style="stroke:#181818;stroke-width:1.0;" width="10" x="836.5" y="1023.25"/><rect fill="#FFFFFF" height="87.7969" style="stroke:#181818;stroke-width:1.0;" width="10" x="841.5" y="1061.6016"/><rect fill="#FFFFFF" height="76.7969" style="stroke:#181818;stroke-width:1.0;" width="10" x="1146.5" y="1211.75"/><rect fill="#FFFFFF" height="76.7969" style="stroke:#181818;stroke-width:1.0;" width="10" x="1297.5" y="351.4219"/><rect fill="#FFFFFF" height="151.7578" style="stroke:#181818;stroke-width:1.0;" width="10" x="1459.5" y="597.3281"/><rect fill="#FFFFFF" height="91.0547" style="stroke:#181818;stroke-width:1.0;" width="10" x="1640.5" y="627.6797"/><rect fill="#FFFFFF" height="30.3516" style="stroke:#181818;stroke-width:1.0;" width="10" x="1766.5" y="658.0313"/><rect fill="none" height="947.6797" style="stroke:#000000;stroke-width:1.5;" width="1823" x="10" y="473.5703"/><rect fill="none" height="548.1094" style="stroke:#000000;stroke-width:1.5;" width="1210" x="20" y="841.1406"/><rect fill="none" height="465.7578" style="stroke:#000000;stroke-width:1.5;" width="1190" x="30" y="891.4922"/><line style="stroke:#181818;stroke-width:0.5;stroke-dasharray:5.0,5.0;" x1="61" x2="61" y1="82.6094" y2="1438.25"/><line style="stroke:#181818;stroke-width:0.5;stroke-dasharray:5.0,5.0;" x1="448" x2="448" y1="82.6094" y2="1438.25"/><line style="stroke:#181818;stroke-width:0.5;stroke-dasharray:5.0,5.0;" x1="841" x2="841" y1="154.2656" y2="1438.25"/><line style="stroke:#181818;stroke-width:0.5;stroke-dasharray:5.0,5.0;" x1="1151" x2="1151" y1="82.6094" y2="1438.25"/><line style="stroke:#181818;stroke-width:0.5;stroke-dasharray:5.0,5.0;" x1="1302" x2="1302" y1="82.6094" y2="1438.25"/><line style="stroke:#181818;stroke-width:0.5;stroke-dasharray:5.0,5.0;" x1="1464" x2="1464" y1="82.6094" y2="1438.25"/><line style="stroke:#181818;stroke-width:0.5;stroke-dasharray:5.0,5.0;" x1="1645" x2="1645" y1="82.6094" y2="1438.25"/><line style="stroke:#181818;stroke-width:0.5;stroke-dasharray:5.0,5.0;" x1="1771" x2="1771" y1="82.6094" y2="1438.25"/><text fill="#000000" font-family="sans-serif" font-size="14" lengthAdjust="spacing" textLength="37" x="40" y="79.5332">Agent</text><ellipse cx="61.5" cy="13.5" fill="#E3E3E3" rx="8" ry="8" style="stroke:#181818;stroke-width:0.5;"/><path d="M61.5,21.5 L61.5,48.5 M48.5,29.5 L74.5,29.5 M61.5,48.5 L48.5,63.5 M61.5,48.5 L74.5,63.5 " fill="none" style="stroke:#181818;stroke-width:0.5;"/><text fill="#000000" font-family="sans-serif" font-size="14" lengthAdjust="spacing" textLength="37" x="40" y="1451.7832">Agent</text><ellipse cx="61.5" cy="1463.3594" fill="#E3E3E3" rx="8" ry="8" style="stroke:#181818;stroke-width:0.5;"/><path d="M61.5,1471.3594 L61.5,1498.3594 M48.5,1479.3594 L74.5,1479.3594 M61.5,1498.3594 L48.5,1513.3594 M61.5,1498.3594 L74.5,1513.3594 " fill="none" style="stroke:#181818;stroke-width:0.5;"/><rect fill="#E3E3E3" height="31.6094" rx="2.5" ry="2.5" style="stroke:#181818;stroke-width:0.5;" width="117" x="390" y="50"/><text fill="#000000" font-family="sans-serif" font-size="14" lengthAdjust="spacing" textLength="103" x="397" y="71.5332">:AcceptOrdersUI</text><rect fill="#E3E3E3" height="31.6094" rx="2.5" ry="2.5" style="stroke:#181818;stroke-width:0.5;" width="117" x="390" y="1437.25"/><text fill="#000000" font-family="sans-serif" font-size="14" lengthAdjust="spacing" textLength="103" x="397" y="1458.7832">:AcceptOrdersUI</text><rect fill="#E3E3E3" height="31.6094" rx="2.5" ry="2.5" style="stroke:#181818;stroke-width:0.5;" width="167" x="758" y="1437.25"/><text fill="#000000" font-family="sans-serif" font-size="14" lengthAdjust="spacing" textLength="153" x="765" y="1458.7832">:AcceptOrdersController</text><rect fill="#E3E3E3" height="49.2188" rx="2.5" ry="2.5" style="stroke:#181818;stroke-width:0.5;" width="117" x="1093" y="32.3906"/><text fill="#000000" font-family="sans-serif" font-size="14" lengthAdjust="spacing" textLength="94" x="1104.5" y="53.9238">announcement</text><text fill="#000000" font-family="sans-serif" font-size="14" lengthAdjust="spacing" textLength="103" x="1100" y="71.5332">: Announcement</text><rect fill="#E3E3E3" height="49.2188" rx="2.5" ry="2.5" style="stroke:#181818;stroke-width:0.5;" width="117" x="1093" y="1437.25"/><text fill="#000000" font-family="sans-serif" font-size="14" lengthAdjust="spacing" textLength="94" x="1104.5" y="1458.7832">announcement</text><text fill="#000000" font-family="sans-serif" font-size="14" lengthAdjust="spacing" textLength="103" x="1100" y="1476.3926">: Announcement</text><rect fill="#E3E3E3" height="49.2188" rx="2.5" ry="2.5" style="stroke:#181818;stroke-width:0.5;" width="165" x="1220" y="32.3906"/><text fill="#000000" font-family="sans-serif" font-size="14" lengthAdjust="spacing" textLength="142" x="1231.5" y="53.9238">announcementMapper</text><text fill="#000000" font-family="sans-serif" font-size="14" lengthAdjust="spacing" textLength="151" x="1227" y="71.5332">: AnnouncementMapper</text><rect fill="#E3E3E3" height="49.2188" rx="2.5" ry="2.5" style="stroke:#181818;stroke-width:0.5;" width="165" x="1220" y="1437.25"/><text fill="#000000" font-family="sans-serif" font-size="14" lengthAdjust="spacing" textLength="142" x="1231.5" y="1458.7832">announcementMapper</text><text fill="#000000" font-family="sans-serif" font-size="14" lengthAdjust="spacing" textLength="151" x="1227" y="1476.3926">: AnnouncementMapper</text><rect fill="#E3E3E3" height="49.2188" rx="2.5" ry="2.5" style="stroke:#181818;stroke-width:0.5;" width="139" x="1395" y="32.3906"/><text fill="#000000" font-family="sans-serif" font-size="14" lengthAdjust="spacing" textLength="116" x="1406.5" y="53.9238">announcementDto</text><text fill="#000000" font-family="sans-serif" font-size="14" lengthAdjust="spacing" textLength="125" x="1402" y="71.5332">: AnnouncementDto</text><rect fill="#E3E3E3" height="49.2188" rx="2.5" ry="2.5" style="stroke:#181818;stroke-width:0.5;" width="139" x="1395" y="1437.25"/><text fill="#000000" font-family="sans-serif" font-size="14" lengthAdjust="spacing" textLength="116" x="1406.5" y="1458.7832">announcementDto</text><text fill="#000000" font-family="sans-serif" font-size="14" lengthAdjust="spacing" textLength="125" x="1402" y="1476.3926">: AnnouncementDto</text><rect fill="#E3E3E3" height="49.2188" rx="2.5" ry="2.5" style="stroke:#181818;stroke-width:0.5;" width="129" x="1581" y="32.3906"/><text fill="#000000" font-family="sans-serif" font-size="14" lengthAdjust="spacing" textLength="104" x="1593.5" y="53.9238">orderListMapper</text><text fill="#000000" font-family="sans-serif" font-size="14" lengthAdjust="spacing" textLength="115" x="1588" y="71.5332">: OrderListMapper</text><rect fill="#E3E3E3" height="49.2188" rx="2.5" ry="2.5" style="stroke:#181818;stroke-width:0.5;" width="129" x="1581" y="1437.25"/><text fill="#000000" font-family="sans-serif" font-size="14" lengthAdjust="spacing" textLength="104" x="1593.5" y="1458.7832">orderListMapper</text><text fill="#000000" font-family="sans-serif" font-size="14" lengthAdjust="spacing" textLength="115" x="1588" y="1476.3926">: OrderListMapper</text><rect fill="#E3E3E3" height="49.2188" rx="2.5" ry="2.5" style="stroke:#181818;stroke-width:0.5;" width="103" x="1720" y="32.3906"/><text fill="#000000" font-family="sans-serif" font-size="14" lengthAdjust="spacing" textLength="78" x="1732.5" y="53.9238">orderListDto</text><text fill="#000000" font-family="sans-serif" font-size="14" lengthAdjust="spacing" textLength="89" x="1727" y="71.5332">: OrderListDto</text><rect fill="#E3E3E3" height="49.2188" rx="2.5" ry="2.5" style="stroke:#181818;stroke-width:0.5;" width="103" x="1720" y="1437.25"/><text fill="#000000" font-family="sans-serif" font-size="14" lengthAdjust="spacing" textLength="78" x="1732.5" y="1458.7832">orderListDto</text><text fill="#000000" font-family="sans-serif" font-size="14" lengthAdjust="spacing" textLength="89" x="1727" y="1476.3926">: OrderListDto</text><rect fill="#FFFFFF" height="1335.6406" style="stroke:#181818;stroke-width:1.0;" width="10" x="56.5" y="92.6094"/><rect fill="#FFFFFF" height="711.1797" style="stroke:#181818;stroke-width:1.0;" width="10" x="443.5" y="114.9609"/><rect fill="#FFFFFF" height="30.3516" style="stroke:#181818;stroke-width:1.0;" width="10" x="443.5" y="932.1953"/><rect fill="#FFFFFF" height="356.3516" style="stroke:#181818;stroke-width:1.0;" width="10" x="443.5" y="992.8984"/><rect fill="#FFFFFF" height="270.6484" style="stroke:#181818;stroke-width:1.0;" width="10" x="836.5" y="187.9219"/><rect fill="#FFFFFF" height="87.7969" style="stroke:#181818;stroke-width:1.0;" width="10" x="841.5" y="226.2734"/><rect fill="#FFFFFF" height="212.4609" style="stroke:#181818;stroke-width:1.0;" width="10" x="836.5" y="566.9766"/><rect fill="#FFFFFF" height="295.6484" style="stroke:#181818;stroke-width:1.0;" width="10" x="836.5" y="1023.25"/><rect fill="#FFFFFF" height="87.7969" style="stroke:#181818;stroke-width:1.0;" width="10" x="841.5" y="1061.6016"/><rect fill="#FFFFFF" height="76.7969" style="stroke:#181818;stroke-width:1.0;" width="10" x="1146.5" y="1211.75"/><rect fill="#FFFFFF" height="76.7969" style="stroke:#181818;stroke-width:1.0;" width="10" x="1297.5" y="351.4219"/><rect fill="#FFFFFF" height="151.7578" style="stroke:#181818;stroke-width:1.0;" width="10" x="1459.5" y="597.3281"/><rect fill="#FFFFFF" height="91.0547" style="stroke:#181818;stroke-width:1.0;" width="10" x="1640.5" y="627.6797"/><rect fill="#FFFFFF" height="30.3516" style="stroke:#181818;stroke-width:1.0;" width="10" x="1766.5" y="658.0313"/><polygon fill="#181818" points="431.5,110.9609,441.5,114.9609,431.5,118.9609,435.5,114.9609" style="stroke:#181818;stroke-width:1.0;"/><line style="stroke:#181818;stroke-width:1.0;" x1="66.5" x2="437.5" y1="114.9609" y2="114.9609"/><text fill="#000000" font-family="sans-serif" font-size="13" font-weight="bold" lengthAdjust="spacing" textLength="7" x="73.5" y="110.1045">1</text><text fill="#000000" font-family="sans-serif" font-size="13" lengthAdjust="spacing" textLength="183" x="84.5" y="110.1045">asks to accept purchase orders</text><polygon fill="#181818" points="746,141.3125,756,145.3125,746,149.3125,750,145.3125" style="stroke:#181818;stroke-width:1.0;"/><line style="stroke:#181818;stroke-width:1.0;" x1="453.5" x2="752" y1="145.3125" y2="145.3125"/><text fill="#000000" font-family="sans-serif" font-size="13" font-weight="bold" lengthAdjust="spacing" textLength="7" x="460.5" y="140.4561">2</text><text fill="#000000" font-family="sans-serif" font-size="13" lengthAdjust="spacing" textLength="36" x="471.5" y="140.4561">create</text><rect fill="#E3E3E3" height="31.6094" rx="2.5" ry="2.5" style="stroke:#181818;stroke-width:0.5;" width="167" x="758" y="122.9609"/><text fill="#000000" font-family="sans-serif" font-size="14" lengthAdjust="spacing" textLength="153" x="765" y="144.4941">:AcceptOrdersController</text><polygon fill="#181818" points="824.5,183.9219,834.5,187.9219,824.5,191.9219,828.5,187.9219" style="stroke:#181818;stroke-width:1.0;"/><line style="stroke:#181818;stroke-width:1.0;" x1="453.5" x2="830.5" y1="187.9219" y2="187.9219"/><text fill="#000000" font-family="sans-serif" font-size="13" font-weight="bold" lengthAdjust="spacing" textLength="7" x="460.5" y="183.0654">3</text><text fill="#000000" font-family="sans-serif" font-size="13" lengthAdjust="spacing" textLength="134" x="471.5" y="183.0654">getAnnouncementList()</text><line style="stroke:#181818;stroke-width:1.0;" x1="846.5" x2="893.5" y1="213.2734" y2="213.2734"/><line style="stroke:#181818;stroke-width:1.0;" x1="893.5" x2="893.5" y1="213.2734" y2="226.2734"/><line style="stroke:#181818;stroke-width:1.0;" x1="852.5" x2="893.5" y1="226.2734" y2="226.2734"/><polygon fill="#181818" points="862.5,222.2734,852.5,226.2734,862.5,230.2734,858.5,226.2734" style="stroke:#181818;stroke-width:1.0;"/><text fill="#000000" font-family="sans-serif" font-size="13" font-weight="bold" lengthAdjust="spacing" textLength="7" x="858.5" y="208.417">4</text><text fill="#000000" font-family="sans-serif" font-size="13" lengthAdjust="spacing" textLength="216" x="869.5" y="208.417">getAnnouncementListOfAllAgencies()</text><rect fill="none" height="41.4453" style="stroke:#000000;stroke-width:1.5;" width="250" x="755" y="239.2734"/><path d="M755,239.2734 L817,239.2734 L817,247.2734 L807,257.2734 L755,257.2734 L755,239.2734 " fill="#EEEEEE" style="stroke:#000000;stroke-width:2.0;"/><text fill="#000000" font-family="sans-serif" font-size="13" font-weight="bold" lengthAdjust="spacing" textLength="17" x="768" y="254.7686">ref</text><text fill="#000000" font-family="sans-serif" font-size="12" lengthAdjust="spacing" textLength="242" x="759" y="273.7305">Get list of announcements from all agencies</text><line style="stroke:#181818;stroke-width:1.0;stroke-dasharray:2.0,2.0;" x1="851.5" x2="893.5" y1="313.0703" y2="313.0703"/><line style="stroke:#181818;stroke-width:1.0;stroke-dasharray:2.0,2.0;" x1="893.5" x2="893.5" y1="313.0703" y2="326.0703"/><line style="stroke:#181818;stroke-width:1.0;stroke-dasharray:2.0,2.0;" x1="846.5" x2="893.5" y1="326.0703" y2="326.0703"/><polygon fill="#181818" points="856.5,322.0703,846.5,326.0703,856.5,330.0703,852.5,326.0703" style="stroke:#181818;stroke-width:1.0;"/><text fill="#000000" font-family="sans-serif" font-size="13" font-weight="bold" lengthAdjust="spacing" textLength="7" x="858.5" y="308.2139">5</text><text fill="#000000" font-family="sans-serif" font-size="13" lengthAdjust="spacing" textLength="175" x="869.5" y="308.2139">announcementListAllAgencies</text><polygon fill="#181818" points="1285.5,347.4219,1295.5,351.4219,1285.5,355.4219,1289.5,351.4219" style="stroke:#181818;stroke-width:1.0;"/><line style="stroke:#181818;stroke-width:1.0;" x1="846.5" x2="1291.5" y1="351.4219" y2="351.4219"/><text fill="#000000" font-family="sans-serif" font-size="13" font-weight="bold" lengthAdjust="spacing" textLength="7" x="853.5" y="346.5654">6</text><text fill="#000000" font-family="sans-serif" font-size="13" lengthAdjust="spacing" textLength="220" x="864.5" y="346.5654">toDTO(announcementListAllAgencies)</text><rect fill="none" height="41.4453" style="stroke:#000000;stroke-width:1.5;" width="185" x="1217" y="359.4219"/><path d="M1217,359.4219 L1279,359.4219 L1279,367.4219 L1269,377.4219 L1217,377.4219 L1217,359.4219 " fill="#EEEEEE" style="stroke:#000000;stroke-width:2.0;"/><text fill="#000000" font-family="sans-serif" font-size="13" font-weight="bold" lengthAdjust="spacing" textLength="17" x="1230" y="374.917">ref</text><text fill="#000000" font-family="sans-serif" font-size="12" lengthAdjust="spacing" textLength="177" x="1221" y="393.8789">Convert announcements to dto's</text><polygon fill="#181818" points="857.5,424.2188,847.5,428.2188,857.5,432.2188,853.5,428.2188" style="stroke:#181818;stroke-width:1.0;"/><line style="stroke:#181818;stroke-width:1.0;stroke-dasharray:2.0,2.0;" x1="851.5" x2="1301.5" y1="428.2188" y2="428.2188"/><text fill="#000000" font-family="sans-serif" font-size="13" font-weight="bold" lengthAdjust="spacing" textLength="7" x="863.5" y="423.3623">7</text><text fill="#000000" font-family="sans-serif" font-size="13" lengthAdjust="spacing" textLength="126" x="874.5" y="423.3623">announcementDtoList</text><polygon fill="#181818" points="464.5,454.5703,454.5,458.5703,464.5,462.5703,460.5,458.5703" style="stroke:#181818;stroke-width:1.0;"/><line style="stroke:#181818;stroke-width:1.0;stroke-dasharray:2.0,2.0;" x1="458.5" x2="840.5" y1="458.5703" y2="458.5703"/><text fill="#000000" font-family="sans-serif" font-size="13" font-weight="bold" lengthAdjust="spacing" textLength="7" x="470.5" y="453.7139">8</text><text fill="#000000" font-family="sans-serif" font-size="13" lengthAdjust="spacing" textLength="126" x="481.5" y="453.7139">announcementDtoList</text><path d="M10,473.5703 L83,473.5703 L83,481.9219 L73,491.9219 L10,491.9219 L10,473.5703 " fill="#EEEEEE" style="stroke:#000000;stroke-width:1.5;"/><rect fill="none" height="947.6797" style="stroke:#000000;stroke-width:1.5;" width="1823" x="10" y="473.5703"/><text fill="#000000" font-family="sans-serif" font-size="13" font-weight="bold" lengthAdjust="spacing" textLength="28" x="25" y="488.0654">loop</text><text fill="#000000" font-family="sans-serif" font-size="11" font-weight="bold" lengthAdjust="spacing" textLength="228" x="98" y="486.9893">[for each property available for purchase]</text><path d="M458,496.9219 L458,538.9219 L812,538.9219 L812,506.9219 L802,496.9219 L458,496.9219 " fill="#FAFAFA" style="stroke:#181818;stroke-width:0.5;"/><path d="M802,496.9219 L802,506.9219 L812,506.9219 L802,496.9219 " fill="#FAFAFA" style="stroke:#181818;stroke-width:0.5;"/><text fill="#000000" font-family="sans-serif" font-size="13" font-weight="bold" lengthAdjust="spacing" textLength="333" x="464" y="515.417">QUESTION : Será mesmo necessário fazer isto tendo</text><text fill="#000000" font-family="sans-serif" font-size="13" lengthAdjust="spacing" textLength="4" x="464" y="531.7686"> </text><text fill="#000000" font-family="sans-serif" font-size="13" font-weight="bold" lengthAdjust="spacing" textLength="273" x="468" y="531.7686">em conta que já temos announcementDto?</text><polygon fill="#181818" points="824.5,562.9766,834.5,566.9766,824.5,570.9766,828.5,566.9766" style="stroke:#181818;stroke-width:1.0;"/><line style="stroke:#181818;stroke-width:1.0;" x1="453.5" x2="830.5" y1="566.9766" y2="566.9766"/><text fill="#000000" font-family="sans-serif" font-size="13" font-weight="bold" lengthAdjust="spacing" textLength="7" x="460.5" y="562.1201">9</text><text fill="#000000" font-family="sans-serif" font-size="13" lengthAdjust="spacing" textLength="239" x="471.5" y="562.1201">getPurchaseOrderList(announcementDto)</text><polygon fill="#181818" points="1447.5,593.3281,1457.5,597.3281,1447.5,601.3281,1451.5,597.3281" style="stroke:#181818;stroke-width:1.0;"/><line style="stroke:#181818;stroke-width:1.0;" x1="846.5" x2="1453.5" y1="597.3281" y2="597.3281"/><text fill="#000000" font-family="sans-serif" font-size="13" font-weight="bold" lengthAdjust="spacing" textLength="14" x="853.5" y="592.4717">10</text><text fill="#000000" font-family="sans-serif" font-size="13" lengthAdjust="spacing" textLength="134" x="871.5" y="592.4717">getPurchaseOrderList()</text><polygon fill="#181818" points="1628.5,623.6797,1638.5,627.6797,1628.5,631.6797,1632.5,627.6797" style="stroke:#181818;stroke-width:1.0;"/><line style="stroke:#181818;stroke-width:1.0;" x1="1469.5" x2="1634.5" y1="627.6797" y2="627.6797"/><text fill="#000000" font-family="sans-serif" font-size="13" font-weight="bold" lengthAdjust="spacing" textLength="14" x="1476.5" y="622.8232">11</text><text fill="#000000" font-family="sans-serif" font-size="13" lengthAdjust="spacing" textLength="134" x="1494.5" y="622.8232">getPurchaseOrderList()</text><polygon fill="#181818" points="1754.5,654.0313,1764.5,658.0313,1754.5,662.0313,1758.5,658.0313" style="stroke:#181818;stroke-width:1.0;"/><line style="stroke:#181818;stroke-width:1.0;" x1="1650.5" x2="1760.5" y1="658.0313" y2="658.0313"/><text fill="#000000" font-family="sans-serif" font-size="13" font-weight="bold" lengthAdjust="spacing" textLength="14" x="1657.5" y="653.1748">12</text><text fill="#000000" font-family="sans-serif" font-size="13" lengthAdjust="spacing" textLength="47" x="1675.5" y="653.1748">getList()</text><polygon fill="#181818" points="1661.5,684.3828,1651.5,688.3828,1661.5,692.3828,1657.5,688.3828" style="stroke:#181818;stroke-width:1.0;"/><line style="stroke:#181818;stroke-width:1.0;stroke-dasharray:2.0,2.0;" x1="1655.5" x2="1770.5" y1="688.3828" y2="688.3828"/><text fill="#000000" font-family="sans-serif" font-size="13" font-weight="bold" lengthAdjust="spacing" textLength="14" x="1667.5" y="683.5264">13</text><text fill="#000000" font-family="sans-serif" font-size="13" lengthAdjust="spacing" textLength="70" x="1685.5" y="683.5264">orderDtoList</text><polygon fill="#181818" points="1480.5,714.7344,1470.5,718.7344,1480.5,722.7344,1476.5,718.7344" style="stroke:#181818;stroke-width:1.0;"/><line style="stroke:#181818;stroke-width:1.0;stroke-dasharray:2.0,2.0;" x1="1474.5" x2="1644.5" y1="718.7344" y2="718.7344"/><text fill="#000000" font-family="sans-serif" font-size="13" font-weight="bold" lengthAdjust="spacing" textLength="14" x="1486.5" y="713.8779">14</text><text fill="#000000" font-family="sans-serif" font-size="13" lengthAdjust="spacing" textLength="70" x="1504.5" y="713.8779">orderDtoList</text><polygon fill="#181818" points="857.5,745.0859,847.5,749.0859,857.5,753.0859,853.5,749.0859" style="stroke:#181818;stroke-width:1.0;"/><line style="stroke:#181818;stroke-width:1.0;stroke-dasharray:2.0,2.0;" x1="851.5" x2="1463.5" y1="749.0859" y2="749.0859"/><text fill="#000000" font-family="sans-serif" font-size="13" font-weight="bold" lengthAdjust="spacing" textLength="14" x="863.5" y="744.2295">15</text><text fill="#000000" font-family="sans-serif" font-size="13" lengthAdjust="spacing" textLength="70" x="881.5" y="744.2295">orderDtoList</text><polygon fill="#181818" points="464.5,775.4375,454.5,779.4375,464.5,783.4375,460.5,779.4375" style="stroke:#181818;stroke-width:1.0;"/><line style="stroke:#181818;stroke-width:1.0;stroke-dasharray:2.0,2.0;" x1="458.5" x2="840.5" y1="779.4375" y2="779.4375"/><text fill="#000000" font-family="sans-serif" font-size="13" font-weight="bold" lengthAdjust="spacing" textLength="14" x="470.5" y="774.5811">16</text><text fill="#000000" font-family="sans-serif" font-size="13" lengthAdjust="spacing" textLength="70" x="488.5" y="774.5811">orderDtoList</text><polygon fill="#181818" points="77.5,822.1406,67.5,826.1406,77.5,830.1406,73.5,826.1406" style="stroke:#181818;stroke-width:1.0;"/><line style="stroke:#181818;stroke-width:1.0;stroke-dasharray:2.0,2.0;" x1="71.5" x2="447.5" y1="826.1406" y2="826.1406"/><text fill="#000000" font-family="sans-serif" font-size="13" font-weight="bold" lengthAdjust="spacing" textLength="14" x="83.5" y="813.1084">17</text><text fill="#000000" font-family="sans-serif" font-size="13" lengthAdjust="spacing" textLength="335" x="101.5" y="804.9326">displays property by oldest and its orders by highest price</text><text fill="#000000" font-family="sans-serif" font-size="13" lengthAdjust="spacing" textLength="279" x="105.5" y="821.2842">and asks to select acceptanceAnswer for orders</text><path d="M20,841.1406 L81,841.1406 L81,849.4922 L71,859.4922 L20,859.4922 L20,841.1406 " fill="#EEEEEE" style="stroke:#000000;stroke-width:1.5;"/><rect fill="none" height="548.1094" style="stroke:#000000;stroke-width:1.5;" width="1210" x="20" y="841.1406"/><text fill="#000000" font-family="sans-serif" font-size="13" font-weight="bold" lengthAdjust="spacing" textLength="16" x="35" y="855.6357">alt</text><text fill="#000000" font-family="sans-serif" font-size="11" font-weight="bold" lengthAdjust="spacing" textLength="163" x="96" y="854.5596">[purchaseOrderList != empty]</text><path d="M30,891.4922 L103,891.4922 L103,899.8438 L93,909.8438 L30,909.8438 L30,891.4922 " fill="#EEEEEE" style="stroke:#000000;stroke-width:1.5;"/><rect fill="none" height="465.7578" style="stroke:#000000;stroke-width:1.5;" width="1190" x="30" y="891.4922"/><text fill="#000000" font-family="sans-serif" font-size="13" font-weight="bold" lengthAdjust="spacing" textLength="28" x="45" y="905.9873">loop</text><text fill="#000000" font-family="sans-serif" font-size="11" font-weight="bold" lengthAdjust="spacing" textLength="335" x="118" y="904.9111">[for each displayed offer &amp;&amp; while acceptanceAnswer != yes]</text><polygon fill="#181818" points="431.5,928.1953,441.5,932.1953,431.5,936.1953,435.5,932.1953" style="stroke:#181818;stroke-width:1.0;"/><line style="stroke:#181818;stroke-width:1.0;" x1="66.5" x2="437.5" y1="932.1953" y2="932.1953"/><text fill="#000000" font-family="sans-serif" font-size="13" font-weight="bold" lengthAdjust="spacing" textLength="14" x="73.5" y="927.3389">18</text><text fill="#000000" font-family="sans-serif" font-size="13" lengthAdjust="spacing" textLength="156" x="91.5" y="927.3389">selects acceptanceAnswer</text><polygon fill="#181818" points="77.5,958.5469,67.5,962.5469,77.5,966.5469,73.5,962.5469" style="stroke:#181818;stroke-width:1.0;"/><line style="stroke:#181818;stroke-width:1.0;stroke-dasharray:2.0,2.0;" x1="71.5" x2="447.5" y1="962.5469" y2="962.5469"/><text fill="#000000" font-family="sans-serif" font-size="13" font-weight="bold" lengthAdjust="spacing" textLength="14" x="83.5" y="957.6904">19</text><text fill="#000000" font-family="sans-serif" font-size="13" lengthAdjust="spacing" textLength="300" x="101.5" y="957.6904">asks to confirm acceptanceAnswer and submit data</text><polygon fill="#181818" points="431.5,988.8984,441.5,992.8984,431.5,996.8984,435.5,992.8984" style="stroke:#181818;stroke-width:1.0;"/><line style="stroke:#181818;stroke-width:1.0;" x1="66.5" x2="437.5" y1="992.8984" y2="992.8984"/><text fill="#000000" font-family="sans-serif" font-size="13" font-weight="bold" lengthAdjust="spacing" textLength="14" x="73.5" y="988.042">20</text><text fill="#000000" font-family="sans-serif" font-size="13" lengthAdjust="spacing" textLength="75" x="91.5" y="988.042">submits data</text><polygon fill="#181818" points="824.5,1019.25,834.5,1023.25,824.5,1027.25,828.5,1023.25" style="stroke:#181818;stroke-width:1.0;"/><line style="stroke:#181818;stroke-width:1.0;" x1="453.5" x2="830.5" y1="1023.25" y2="1023.25"/><text fill="#000000" font-family="sans-serif" font-size="13" font-weight="bold" lengthAdjust="spacing" textLength="14" x="460.5" y="1018.3936">21</text><text fill="#000000" font-family="sans-serif" font-size="13" lengthAdjust="spacing" textLength="346" x="478.5" y="1018.3936">defineOrderAcceptance(answer,orderDto,announcementDto)</text><line style="stroke:#181818;stroke-width:1.0;" x1="846.5" x2="893.5" y1="1048.6016" y2="1048.6016"/><line style="stroke:#181818;stroke-width:1.0;" x1="893.5" x2="893.5" y1="1048.6016" y2="1061.6016"/><line style="stroke:#181818;stroke-width:1.0;" x1="852.5" x2="893.5" y1="1061.6016" y2="1061.6016"/><polygon fill="#181818" points="862.5,1057.6016,852.5,1061.6016,862.5,1065.6016,858.5,1061.6016" style="stroke:#181818;stroke-width:1.0;"/><text fill="#000000" font-family="sans-serif" font-size="13" font-weight="bold" lengthAdjust="spacing" textLength="14" x="858.5" y="1043.7451">22</text><text fill="#000000" font-family="sans-serif" font-size="13" lengthAdjust="spacing" textLength="268" x="876.5" y="1043.7451">getAnnouncementFromDto(announcementDto)</text><rect fill="none" height="41.4453" style="stroke:#000000;stroke-width:1.5;" width="173" x="755" y="1074.6016"/><path d="M755,1074.6016 L817,1074.6016 L817,1082.6016 L807,1092.6016 L755,1092.6016 L755,1074.6016 " fill="#EEEEEE" style="stroke:#000000;stroke-width:2.0;"/><text fill="#000000" font-family="sans-serif" font-size="13" font-weight="bold" lengthAdjust="spacing" textLength="17" x="768" y="1090.0967">ref</text><text fill="#000000" font-family="sans-serif" font-size="12" lengthAdjust="spacing" textLength="153" x="765" y="1109.0586">Get announcement from dto</text><line style="stroke:#181818;stroke-width:1.0;stroke-dasharray:2.0,2.0;" x1="851.5" x2="893.5" y1="1148.3984" y2="1148.3984"/><line style="stroke:#181818;stroke-width:1.0;stroke-dasharray:2.0,2.0;" x1="893.5" x2="893.5" y1="1148.3984" y2="1161.3984"/><line style="stroke:#181818;stroke-width:1.0;stroke-dasharray:2.0,2.0;" x1="846.5" x2="893.5" y1="1161.3984" y2="1161.3984"/><polygon fill="#181818" points="856.5,1157.3984,846.5,1161.3984,856.5,1165.3984,852.5,1161.3984" style="stroke:#181818;stroke-width:1.0;"/><text fill="#000000" font-family="sans-serif" font-size="13" font-weight="bold" lengthAdjust="spacing" textLength="14" x="858.5" y="1143.542">23</text><text fill="#000000" font-family="sans-serif" font-size="13" lengthAdjust="spacing" textLength="85" x="876.5" y="1143.542">announcement</text><polygon fill="#181818" points="1134.5,1207.75,1144.5,1211.75,1134.5,1215.75,1138.5,1211.75" style="stroke:#181818;stroke-width:1.0;"/><line style="stroke:#181818;stroke-width:1.0;" x1="846.5" x2="1140.5" y1="1211.75" y2="1211.75"/><text fill="#000000" font-family="sans-serif" font-size="13" font-weight="bold" lengthAdjust="spacing" textLength="14" x="853.5" y="1206.8936">24</text><text fill="#000000" font-family="sans-serif" font-size="13" lengthAdjust="spacing" textLength="217" x="871.5" y="1206.8936">defineOrderAcceptance(answer,order)</text><rect fill="none" height="41.4453" style="stroke:#000000;stroke-width:1.5;" width="142" x="1090" y="1219.75"/><path d="M1090,1219.75 L1152,1219.75 L1152,1227.75 L1142,1237.75 L1090,1237.75 L1090,1219.75 " fill="#EEEEEE" style="stroke:#000000;stroke-width:2.0;"/><text fill="#000000" font-family="sans-serif" font-size="13" font-weight="bold" lengthAdjust="spacing" textLength="17" x="1103" y="1235.2451">ref</text><text fill="#000000" font-family="sans-serif" font-size="12" lengthAdjust="spacing" textLength="134" x="1094" y="1254.207">Define order acceptance</text><polygon fill="#181818" points="857.5,1284.5469,847.5,1288.5469,857.5,1292.5469,853.5,1288.5469" style="stroke:#181818;stroke-width:1.0;"/><line style="stroke:#181818;stroke-width:1.0;stroke-dasharray:2.0,2.0;" x1="851.5" x2="1150.5" y1="1288.5469" y2="1288.5469"/><text fill="#000000" font-family="sans-serif" font-size="13" font-weight="bold" lengthAdjust="spacing" textLength="14" x="863.5" y="1283.6904">25</text><text fill="#000000" font-family="sans-serif" font-size="13" lengthAdjust="spacing" textLength="49" x="881.5" y="1283.6904">success</text><polygon fill="#181818" points="464.5,1314.8984,454.5,1318.8984,464.5,1322.8984,460.5,1318.8984" style="stroke:#181818;stroke-width:1.0;"/><line style="stroke:#181818;stroke-width:1.0;stroke-dasharray:2.0,2.0;" x1="458.5" x2="840.5" y1="1318.8984" y2="1318.8984"/><text fill="#000000" font-family="sans-serif" font-size="13" font-weight="bold" lengthAdjust="spacing" textLength="14" x="470.5" y="1314.042">26</text><text fill="#000000" font-family="sans-serif" font-size="13" lengthAdjust="spacing" textLength="49" x="488.5" y="1314.042">success</text><polygon fill="#181818" points="77.5,1345.25,67.5,1349.25,77.5,1353.25,73.5,1349.25" style="stroke:#181818;stroke-width:1.0;"/><line style="stroke:#181818;stroke-width:1.0;stroke-dasharray:2.0,2.0;" x1="71.5" x2="447.5" y1="1349.25" y2="1349.25"/><text fill="#000000" font-family="sans-serif" font-size="13" font-weight="bold" lengthAdjust="spacing" textLength="14" x="83.5" y="1344.3936">27</text><text fill="#000000" font-family="sans-serif" font-size="13" lengthAdjust="spacing" textLength="158" x="101.5" y="1344.3936">displays operation success</text><!--SRC=[bLRRSjCm47ttLonzW9A17-WCC1aAJ6SeARHzuqMnruceB1b9QGdJd-5R-35MiYrBlgJ1BvrAkqTdpzvYxhYicMOLL4ggVAjLXM3r3ZCJRcgMtx4DNjkzGD2OMoOt8ZOmMrQe1outK39XCClOpYgvgzQei-p5bXS8fL9shNvbBBTAmyboWzAU03EmFB_C2CNodDTCMZWvM-OvrdQb2zJczi8RtLuSi7clfDLA2DJUzltDjy-fDPDIxMIE5RtvNPx1Clg_uT0UpBjTihf6FNHkJZk8o-NLrOTlynZdLWq1wAZpFhzPfQxA1VUPc-ZjLNhaNGTdCnZjswle_zJRFU-Im- -PHPyKe8_-mkkt93-SaVMT0Qk0UUcXtkbyomo2VyDuy-1F-V87v4ZkBYEB1K7a6kbsU4KN6xInB8xGwSiKqgVL7tcVWxwhSYc4Ax6Seva7qbY2kaVT747xVK8BWa10bH2dpq19pG5C260jjFT1MJYac5jFZWsOHRoyVO4Jl4A4eQW8oIfAqUa1l2RCFiw-8aDe8U3-3gAF6eakxI1gIdbXrGkJc8QWczEUw4piL6-ERcCT1Jqa6VIxlJWEe5TDA5NJcD50brkejQ9ki7jWzumBjXRexxggxJMHYb0qtsojgzeuniNYw-s7wvkBrHSAvXhrtpzGeQaKICpHcBz_D5Sqy7wJdiHCWILHr6AHO108Lf3JX6BmSuVmWq0iLieCWtiNEJfn7QrXe_XQlseZ29rxEa1wic-QOGCpQ0FtTZ9bRPQT8q4CXiwHMCDHvM-7K35we7aGBV1B_5vFqlJ3Agwbg9GE07RSOlMEWeeZxUJhE-GGH2nyqXM7dFfakwfnR6c0dq71JItOtlHTiTw34WKQr-m5S6hpPeoxYoqrWxkfDS_nk_GMtV0tA6Z_jpk0KT4jfNaWPLnlHOiWejIj0fyxqU-D814yUmDOrNQVDCxZusFoVzhTRK1Oq90kwVddp-5Xowd7HyG8V4-pDi7gjnffqqHaHfw9nsGq8vaxaQZTIwwhCHcdfDcjAswXO9ObI3EIZVbwVpC6ECWnb5o19PUD-Cj0ZqQ8u_UgAwrNaoDbz52qiReD4gtcqMR-IEkJm4x_0nm6t_J6ZZ-tlUC7cgLD2snadUpjD83f7JQNhh4Cm-9r5itey617fM56bl1JTLQQMGltdVjtcrQDwlCuSGB_I22pozqodDCca9bMsV-mV09YBE_qR7EJZLckv5E0m_vmiRhnaasbprtIsChYy-0mcjdqipdB_W40]--></g></svg>