<?xml version="1.0" encoding="UTF-8" standalone="no"?><svg xmlns="http://www.w3.org/2000/svg" xmlns:xlink="http://www.w3.org/1999/xlink" contentStyleType="text/css" height="468px" preserveAspectRatio="none" style="width:532px;height:468px;background:#FFFFFF;" version="1.1" viewBox="0 0 532 468" width="532px" zoomAndPan="magnify"><defs/><g><text fill="#000000" font-family="sans-serif" font-size="14" font-weight="bold" lengthAdjust="spacing" textLength="284" x="125.5" y="29.5332">System Sequence Diagram (SSD) - US017</text><rect fill="#FFFFFF" height="245.8125" style="stroke:#181818;stroke-width:1.0;" width="10" x="84" y="131.2188"/><rect fill="#FFFFFF" height="55.7031" style="stroke:#181818;stroke-width:1.0;" width="10" x="473" y="153.5703"/><rect fill="#FFFFFF" height="30.3516" style="stroke:#181818;stroke-width:1.0;" width="10" x="473" y="239.625"/><rect fill="#FFFFFF" height="67.7031" style="stroke:#181818;stroke-width:1.0;" width="10" x="473" y="300.3281"/><rect fill="none" height="170.1094" style="stroke:#000000;stroke-width:1.5;" width="516" x="10" y="168.5703"/><line style="stroke:#181818;stroke-width:0.5;stroke-dasharray:5.0,5.0;" x1="89" x2="89" y1="121.2188" y2="386.0313"/><line style="stroke:#181818;stroke-width:0.5;stroke-dasharray:5.0,5.0;" x1="478" x2="478" y1="121.2188" y2="386.0313"/><text fill="#000000" font-family="sans-serif" font-size="14" font-weight="bold" lengthAdjust="spacing" textLength="124" x="24" y="118.1426">Network Manager</text><ellipse cx="89" cy="52.1094" fill="#E3E3E3" rx="8" ry="8" style="stroke:#181818;stroke-width:0.5;"/><path d="M89,60.1094 L89,87.1094 M76,68.1094 L102,68.1094 M89,87.1094 L76,102.1094 M89,87.1094 L102,102.1094 " fill="none" style="stroke:#181818;stroke-width:0.5;"/><text fill="#000000" font-family="sans-serif" font-size="14" font-weight="bold" lengthAdjust="spacing" textLength="124" x="24" y="399.5645">Network Manager</text><ellipse cx="89" cy="411.1406" fill="#E3E3E3" rx="8" ry="8" style="stroke:#181818;stroke-width:0.5;"/><path d="M89,419.1406 L89,446.1406 M76,427.1406 L102,427.1406 M89,446.1406 L76,461.1406 M89,446.1406 L102,461.1406 " fill="none" style="stroke:#181818;stroke-width:0.5;"/><rect fill="#E3E3E3" height="31.6094" rx="2.5" ry="2.5" style="stroke:#181818;stroke-width:0.5;" width="76" x="440" y="88.6094"/><text fill="#000000" font-family="sans-serif" font-size="14" font-weight="bold" lengthAdjust="spacing" textLength="54" x="451" y="110.1426">:System</text><rect fill="#E3E3E3" height="31.6094" rx="2.5" ry="2.5" style="stroke:#181818;stroke-width:0.5;" width="76" x="440" y="385.0313"/><text fill="#000000" font-family="sans-serif" font-size="14" font-weight="bold" lengthAdjust="spacing" textLength="54" x="451" y="406.5645">:System</text><rect fill="#FFFFFF" height="245.8125" style="stroke:#181818;stroke-width:1.0;" width="10" x="84" y="131.2188"/><rect fill="#FFFFFF" height="55.7031" style="stroke:#181818;stroke-width:1.0;" width="10" x="473" y="153.5703"/><rect fill="#FFFFFF" height="30.3516" style="stroke:#181818;stroke-width:1.0;" width="10" x="473" y="239.625"/><rect fill="#FFFFFF" height="67.7031" style="stroke:#181818;stroke-width:1.0;" width="10" x="473" y="300.3281"/><polygon fill="#181818" points="461,149.5703,471,153.5703,461,157.5703,465,153.5703" style="stroke:#181818;stroke-width:1.0;"/><line style="stroke:#181818;stroke-width:1.0;" x1="94" x2="467" y1="153.5703" y2="153.5703"/><text fill="#000000" font-family="sans-serif" font-size="13" font-weight="bold" lengthAdjust="spacing" textLength="7" x="101" y="148.7139">1</text><text fill="#000000" font-family="sans-serif" font-size="13" lengthAdjust="spacing" textLength="252" x="112" y="148.7139">asks to analyse the performance of network</text><path d="M10,168.5703 L83,168.5703 L83,176.9219 L73,186.9219 L10,186.9219 L10,168.5703 " fill="#EEEEEE" style="stroke:#000000;stroke-width:1.5;"/><rect fill="none" height="170.1094" style="stroke:#000000;stroke-width:1.5;" width="516" x="10" y="168.5703"/><text fill="#000000" font-family="sans-serif" font-size="13" font-weight="bold" lengthAdjust="spacing" textLength="28" x="25" y="183.0654">loop</text><text fill="#000000" font-family="sans-serif" font-size="11" font-weight="bold" lengthAdjust="spacing" textLength="236" x="98" y="181.9893">[At least once until when the user intends]</text><polygon fill="#181818" points="105,205.2734,95,209.2734,105,213.2734,101,209.2734" style="stroke:#181818;stroke-width:1.0;"/><line style="stroke:#181818;stroke-width:1.0;stroke-dasharray:2.0,2.0;" x1="99" x2="477" y1="209.2734" y2="209.2734"/><text fill="#000000" font-family="sans-serif" font-size="13" font-weight="bold" lengthAdjust="spacing" textLength="7" x="111" y="204.417">2</text><text fill="#000000" font-family="sans-serif" font-size="13" lengthAdjust="spacing" textLength="299" x="122" y="204.417">shows types of sorting order and asks to select one</text><polygon fill="#181818" points="461,235.625,471,239.625,461,243.625,465,239.625" style="stroke:#181818;stroke-width:1.0;"/><line style="stroke:#181818;stroke-width:1.0;" x1="94" x2="467" y1="239.625" y2="239.625"/><text fill="#000000" font-family="sans-serif" font-size="13" font-weight="bold" lengthAdjust="spacing" textLength="7" x="101" y="234.7686">3</text><text fill="#000000" font-family="sans-serif" font-size="13" lengthAdjust="spacing" textLength="129" x="112" y="234.7686">selects a sorting order</text><polygon fill="#181818" points="105,265.9766,95,269.9766,105,273.9766,101,269.9766" style="stroke:#181818;stroke-width:1.0;"/><line style="stroke:#181818;stroke-width:1.0;stroke-dasharray:2.0,2.0;" x1="99" x2="477" y1="269.9766" y2="269.9766"/><text fill="#000000" font-family="sans-serif" font-size="13" font-weight="bold" lengthAdjust="spacing" textLength="7" x="111" y="265.1201">4</text><text fill="#000000" font-family="sans-serif" font-size="13" lengthAdjust="spacing" textLength="330" x="122" y="265.1201">shows types of sorting algorithms and asks to select one</text><polygon fill="#181818" points="461,296.3281,471,300.3281,461,304.3281,465,300.3281" style="stroke:#181818;stroke-width:1.0;"/><line style="stroke:#181818;stroke-width:1.0;" x1="94" x2="467" y1="300.3281" y2="300.3281"/><text fill="#000000" font-family="sans-serif" font-size="13" font-weight="bold" lengthAdjust="spacing" textLength="7" x="101" y="295.4717">5</text><text fill="#000000" font-family="sans-serif" font-size="13" lengthAdjust="spacing" textLength="153" x="112" y="295.4717">selects a sorting algorithm</text><polygon fill="#181818" points="105,326.6797,95,330.6797,105,334.6797,101,330.6797" style="stroke:#181818;stroke-width:1.0;"/><line style="stroke:#181818;stroke-width:1.0;stroke-dasharray:2.0,2.0;" x1="99" x2="472" y1="330.6797" y2="330.6797"/><text fill="#000000" font-family="sans-serif" font-size="13" font-weight="bold" lengthAdjust="spacing" textLength="7" x="111" y="325.8232">6</text><text fill="#000000" font-family="sans-serif" font-size="13" lengthAdjust="spacing" textLength="344" x="122" y="325.8232">displays results and asks if the user wants to sort list again</text><polygon fill="#181818" points="105,364.0313,95,368.0313,105,372.0313,101,368.0313" style="stroke:#181818;stroke-width:1.0;"/><line style="stroke:#181818;stroke-width:1.0;stroke-dasharray:2.0,2.0;" x1="99" x2="477" y1="368.0313" y2="368.0313"/><text fill="#000000" font-family="sans-serif" font-size="13" font-weight="bold" lengthAdjust="spacing" textLength="7" x="111" y="363.1748">7</text><text fill="#000000" font-family="sans-serif" font-size="13" lengthAdjust="spacing" textLength="158" x="122" y="363.1748">displays operation success</text><!--SRC=[jP9FJyCm3CNl-HGM9pXCm0bfGfEGkCAbGfozrckZfN697Qf-UznsAtyqmIxabARl-VqSH_O-TfYmXPOZbqtYba1J9YVBdmxBFTPKw1084fMAiGvV1T9WnRsFDUmm23cdNarQ3ABKGa5lcM99yEYn7kMNHV5u1IjuAMvkxvp3h1npkwLa-r8vmSNzTWFFf3sdFJnXjF04zzVRpGMWmFFhaxDSzQNlCEgiNX_25jNyFLNqxwWqsHpOiWsiDaUwjOdt0ifWEM4GwxuXw2ZjEBKuOlCEuimosSUr53scZ8U1kOC7XK0e2ZnQSrGVe6yeJbMpM1y-AiLAPiy1OcKy8zRQhf9xenawaZ5OsFgqU-LKcHLZjT0A1Pk4nT12LT59hf_zpau1_5xzz-RE1SLGS_BQjF9lj4k4Ev-syj857CIUh-IWN-3yxdCqlJsd6TUY87WR8zReurJJXZQD-Ay4jhU3wZc2vB8a4NUwsmy0]--></g></svg>