<?xml version="1.0" encoding="UTF-8" standalone="no"?><svg xmlns="http://www.w3.org/2000/svg" xmlns:xlink="http://www.w3.org/1999/xlink" contentStyleType="text/css" height="454px" preserveAspectRatio="none" style="width:518px;height:454px;background:#FFFFFF;" version="1.1" viewBox="0 0 518 454" width="518px" zoomAndPan="magnify"><defs/><g><text fill="#000000" font-family="sans-serif" font-size="14" font-weight="bold" lengthAdjust="spacing" textLength="284" x="118.5" y="29.5332">System Sequence Diagram (SSD) - US017</text><rect fill="#FFFFFF" height="231.8125" style="stroke:#181818;stroke-width:1.0;" width="10" x="84" y="131.2188"/><rect fill="#FFFFFF" height="55.7031" style="stroke:#181818;stroke-width:1.0;" width="10" x="459" y="153.5703"/><rect fill="#FFFFFF" height="30.3516" style="stroke:#181818;stroke-width:1.0;" width="10" x="459" y="239.625"/><rect fill="#FFFFFF" height="61.7031" style="stroke:#181818;stroke-width:1.0;" width="10" x="459" y="300.3281"/><rect fill="none" height="186.4609" style="stroke:#000000;stroke-width:1.5;" width="502" x="10" y="168.5703"/><line style="stroke:#181818;stroke-width:0.5;stroke-dasharray:5.0,5.0;" x1="89" x2="89" y1="121.2188" y2="372.0313"/><line style="stroke:#181818;stroke-width:0.5;stroke-dasharray:5.0,5.0;" x1="464" x2="464" y1="121.2188" y2="372.0313"/><text fill="#000000" font-family="sans-serif" font-size="14" font-weight="bold" lengthAdjust="spacing" textLength="124" x="24" y="118.1426">Network Manager</text><ellipse cx="89" cy="52.1094" fill="#E3E3E3" rx="8" ry="8" style="stroke:#181818;stroke-width:0.5;"/><path d="M89,60.1094 L89,87.1094 M76,68.1094 L102,68.1094 M89,87.1094 L76,102.1094 M89,87.1094 L102,102.1094 " fill="none" style="stroke:#181818;stroke-width:0.5;"/><text fill="#000000" font-family="sans-serif" font-size="14" font-weight="bold" lengthAdjust="spacing" textLength="124" x="24" y="385.5645">Network Manager</text><ellipse cx="89" cy="397.1406" fill="#E3E3E3" rx="8" ry="8" style="stroke:#181818;stroke-width:0.5;"/><path d="M89,405.1406 L89,432.1406 M76,413.1406 L102,413.1406 M89,432.1406 L76,447.1406 M89,432.1406 L102,447.1406 " fill="none" style="stroke:#181818;stroke-width:0.5;"/><rect fill="#E3E3E3" height="31.6094" rx="2.5" ry="2.5" style="stroke:#181818;stroke-width:0.5;" width="76" x="426" y="88.6094"/><text fill="#000000" font-family="sans-serif" font-size="14" font-weight="bold" lengthAdjust="spacing" textLength="54" x="437" y="110.1426">:System</text><rect fill="#E3E3E3" height="31.6094" rx="2.5" ry="2.5" style="stroke:#181818;stroke-width:0.5;" width="76" x="426" y="371.0313"/><text fill="#000000" font-family="sans-serif" font-size="14" font-weight="bold" lengthAdjust="spacing" textLength="54" x="437" y="392.5645">:System</text><rect fill="#FFFFFF" height="231.8125" style="stroke:#181818;stroke-width:1.0;" width="10" x="84" y="131.2188"/><rect fill="#FFFFFF" height="55.7031" style="stroke:#181818;stroke-width:1.0;" width="10" x="459" y="153.5703"/><rect fill="#FFFFFF" height="30.3516" style="stroke:#181818;stroke-width:1.0;" width="10" x="459" y="239.625"/><rect fill="#FFFFFF" height="61.7031" style="stroke:#181818;stroke-width:1.0;" width="10" x="459" y="300.3281"/><polygon fill="#181818" points="447,149.5703,457,153.5703,447,157.5703,451,153.5703" style="stroke:#181818;stroke-width:1.0;"/><line style="stroke:#181818;stroke-width:1.0;" x1="94" x2="453" y1="153.5703" y2="153.5703"/><text fill="#000000" font-family="sans-serif" font-size="13" font-weight="bold" lengthAdjust="spacing" textLength="7" x="101" y="148.7139">1</text><text fill="#000000" font-family="sans-serif" font-size="13" lengthAdjust="spacing" textLength="252" x="112" y="148.7139">asks to analyse the performance of network</text><path d="M10,168.5703 L83,168.5703 L83,176.9219 L73,186.9219 L10,186.9219 L10,168.5703 " fill="#EEEEEE" style="stroke:#000000;stroke-width:1.5;"/><rect fill="none" height="186.4609" style="stroke:#000000;stroke-width:1.5;" width="502" x="10" y="168.5703"/><text fill="#000000" font-family="sans-serif" font-size="13" font-weight="bold" lengthAdjust="spacing" textLength="28" x="25" y="183.0654">loop</text><text fill="#000000" font-family="sans-serif" font-size="11" font-weight="bold" lengthAdjust="spacing" textLength="236" x="98" y="181.9893">[At least once until when the user intends]</text><polygon fill="#181818" points="105,205.2734,95,209.2734,105,213.2734,101,209.2734" style="stroke:#181818;stroke-width:1.0;"/><line style="stroke:#181818;stroke-width:1.0;stroke-dasharray:2.0,2.0;" x1="99" x2="463" y1="209.2734" y2="209.2734"/><text fill="#000000" font-family="sans-serif" font-size="13" font-weight="bold" lengthAdjust="spacing" textLength="7" x="111" y="204.417">2</text><text fill="#000000" font-family="sans-serif" font-size="13" lengthAdjust="spacing" textLength="299" x="122" y="204.417">shows types of sorting order and asks to select one</text><polygon fill="#181818" points="447,235.625,457,239.625,447,243.625,451,239.625" style="stroke:#181818;stroke-width:1.0;"/><line style="stroke:#181818;stroke-width:1.0;" x1="94" x2="453" y1="239.625" y2="239.625"/><text fill="#000000" font-family="sans-serif" font-size="13" font-weight="bold" lengthAdjust="spacing" textLength="7" x="101" y="234.7686">3</text><text fill="#000000" font-family="sans-serif" font-size="13" lengthAdjust="spacing" textLength="129" x="112" y="234.7686">selects a sorting order</text><polygon fill="#181818" points="105,265.9766,95,269.9766,105,273.9766,101,269.9766" style="stroke:#181818;stroke-width:1.0;"/><line style="stroke:#181818;stroke-width:1.0;stroke-dasharray:2.0,2.0;" x1="99" x2="463" y1="269.9766" y2="269.9766"/><text fill="#000000" font-family="sans-serif" font-size="13" font-weight="bold" lengthAdjust="spacing" textLength="7" x="111" y="265.1201">4</text><text fill="#000000" font-family="sans-serif" font-size="13" lengthAdjust="spacing" textLength="330" x="122" y="265.1201">shows types of sorting algorithms and asks to select one</text><polygon fill="#181818" points="447,296.3281,457,300.3281,447,304.3281,451,300.3281" style="stroke:#181818;stroke-width:1.0;"/><line style="stroke:#181818;stroke-width:1.0;" x1="94" x2="453" y1="300.3281" y2="300.3281"/><text fill="#000000" font-family="sans-serif" font-size="13" font-weight="bold" lengthAdjust="spacing" textLength="7" x="101" y="295.4717">5</text><text fill="#000000" font-family="sans-serif" font-size="13" lengthAdjust="spacing" textLength="153" x="112" y="295.4717">selects a sorting algorithm</text><polygon fill="#181818" points="105,343.0313,95,347.0313,105,351.0313,101,347.0313" style="stroke:#181818;stroke-width:1.0;"/><line style="stroke:#181818;stroke-width:1.0;stroke-dasharray:2.0,2.0;" x1="99" x2="458" y1="347.0313" y2="347.0313"/><text fill="#000000" font-family="sans-serif" font-size="13" font-weight="bold" lengthAdjust="spacing" textLength="7" x="111" y="333.999">6</text><text fill="#000000" font-family="sans-serif" font-size="13" lengthAdjust="spacing" textLength="323" x="122" y="325.8232">displays results, asks if the user wants to sort list again</text><text fill="#000000" font-family="sans-serif" font-size="13" lengthAdjust="spacing" textLength="131" x="126" y="342.1748">and operation success</text><!--SRC=[jP91J-Gm38Nl-HKM9v0O0IUa4HfffRd2fK9Sk7XQJnjDQfVOfUg_nssXm0gjk6nEQUhdzxquUehSOSOMMc4fcomjWUMUWgv_EYnFM5DXOoB8L1fodRuMQ8EL395hE69I2i6YUMangb4B1Rtqn2N1Fc8zbPyNnVu2Dl1OND_SXe2z2VVjWRBlIvCCPtU77JoG3P9FS8_ivXdkhWwxCq25XwVxuBuMozWXsrAzVJTRgvRlkMDyHQDP5i2NRs2p-w3RUl59mGJS9utgwHk2Zl9HSeiJjXo15vPPFgsrwOVBT9X4ElXZa0ZLG2PfpnOJ30tntBLNpn7PY2jTDEyG6-UPiBP-bJ8upTYHJiOgdjFlLNBbKkHgfLLAFWctePMgeX-v_iwxA1NmU_T_X_ijAAPQShIcrVz6krg4tzDMKRk4e_hprJwPNYvayVWvby7VqiBgFf2Ypn1hZFpCSnBn9u4MXK7xiYJLsSWdESyz_9pe3G00]--></g></svg>