<?xml version="1.0" encoding="UTF-8" standalone="no"?><svg xmlns="http://www.w3.org/2000/svg" xmlns:xlink="http://www.w3.org/1999/xlink" contentStyleType="text/css" height="421px" preserveAspectRatio="none" style="width:527px;height:421px;background:#FFFFFF;" version="1.1" viewBox="0 0 527 421" width="527px" zoomAndPan="magnify"><defs/><g><text fill="#000000" font-family="sans-serif" font-size="14" font-weight="bold" lengthAdjust="spacing" textLength="156" x="178.75" y="24.5332">Domain Model - US011</text><!--class Order--><g id="elem_Order"><rect codeLine="14" fill="#F1F1F1" height="88.4375" id="Order" rx="2.5" ry="2.5" style="stroke:#181818;stroke-width:0.5;" width="131" x="370" y="177.6094"/><text fill="#000000" font-family="sans-serif" font-size="14" lengthAdjust="spacing" textLength="37" x="417" y="197.1426">Order</text><line style="stroke:#181818;stroke-width:0.5;" x1="371" x2="500" y1="205.2188" y2="205.2188"/><text fill="#000000" font-family="sans-serif" font-size="14" lengthAdjust="spacing" textLength="82" x="376" y="223.752">orderAmount</text><text fill="#000000" font-family="sans-serif" font-size="14" lengthAdjust="spacing" textLength="64" x="376" y="241.3613">orderDate</text><text fill="#000000" font-family="sans-serif" font-size="14" lengthAdjust="spacing" textLength="119" x="376" y="258.9707">acceptanceAnswer</text></g><!--class Agent--><g id="elem_Agent"><rect codeLine="20" fill="#F1F1F1" height="35.6094" id="Agent" rx="2.5" ry="2.5" style="stroke:#181818;stroke-width:0.5;" width="43" x="192" y="203.6094"/><text fill="#000000" font-family="sans-serif" font-size="14" lengthAdjust="spacing" textLength="37" x="195" y="223.1426">Agent</text><line style="stroke:#181818;stroke-width:0.5;" x1="193" x2="234" y1="231.2188" y2="231.2188"/></g><!--class Customer--><g id="elem_Customer"><rect codeLine="24" fill="#F1F1F1" height="35.6094" id="Customer" rx="2.5" ry="2.5" style="stroke:#181818;stroke-width:0.5;" width="67" x="222" y="45.6094"/><text fill="#000000" font-family="sans-serif" font-size="14" lengthAdjust="spacing" textLength="61" x="225" y="65.1426">Customer</text><line style="stroke:#181818;stroke-width:0.5;" x1="223" x2="288" y1="73.2188" y2="73.2188"/></g><!--class Employee--><g id="elem_Employee"><rect codeLine="28" fill="#F1F1F1" height="35.6094" id="Employee" rx="2.5" ry="2.5" style="stroke:#181818;stroke-width:0.5;" width="68" x="129.5" y="370.1094"/><text fill="#000000" font-family="sans-serif" font-size="14" lengthAdjust="spacing" textLength="62" x="132.5" y="389.6426">Employee</text><line style="stroke:#181818;stroke-width:0.5;" x1="130.5" x2="196.5" y1="397.7188" y2="397.7188"/></g><!--class Announcement--><g id="elem_Announcement"><rect codeLine="31" fill="#F1F1F1" height="53.2188" id="Announcement" rx="2.5" ry="2.5" style="stroke:#181818;stroke-width:0.5;" width="115" x="286" y="361.6094"/><text fill="#000000" font-family="sans-serif" font-size="14" lengthAdjust="spacing" textLength="95" x="296" y="381.1426">Announcement</text><line style="stroke:#181818;stroke-width:0.5;" x1="287" x2="400" y1="389.2188" y2="389.2188"/><text fill="#000000" font-family="sans-serif" font-size="14" lengthAdjust="spacing" textLength="103" x="292" y="407.752">acceptanceDate</text></g><!--class Person--><g id="elem_Person"><rect codeLine="34" fill="#F1F1F1" height="123.6563" id="Person" rx="2.5" ry="2.5" style="stroke:#181818;stroke-width:0.5;" width="147" x="7" y="159.6094"/><text fill="#000000" font-family="sans-serif" font-size="14" lengthAdjust="spacing" textLength="45" x="58" y="179.1426">Person</text><line style="stroke:#181818;stroke-width:0.5;" x1="8" x2="153" y1="187.2188" y2="187.2188"/><text fill="#000000" font-family="sans-serif" font-size="14" lengthAdjust="spacing" textLength="35" x="13" y="205.752">name</text><text fill="#000000" font-family="sans-serif" font-size="14" lengthAdjust="spacing" textLength="33" x="13" y="223.3613">email</text><text fill="#000000" font-family="sans-serif" font-size="14" lengthAdjust="spacing" textLength="135" x="13" y="240.9707">passportCardNumber</text><text fill="#000000" font-family="sans-serif" font-size="14" lengthAdjust="spacing" textLength="67" x="13" y="258.5801">taxNumber</text><text fill="#000000" font-family="sans-serif" font-size="14" lengthAdjust="spacing" textLength="89" x="13" y="276.1895">phoneNumber</text></g><!--link Person to Employee--><g id="link_Person_Employee"><path codeLine="44" d="M67.21,283.7994 C66.53,300.1494 68.63,317.2494 76.5,331.6094 C87.7,352.0294 109.96,366.0294 129.16,374.8494 " fill="none" id="Person-Employee" style="stroke:#181818;stroke-width:1.0;"/><polygon fill="#000000" points="78.6873,318.6513,81.3457,327.7828,86.2053,324.4763,78.6873,318.6513" style="stroke:#000000;stroke-width:1.0;"/><text fill="#000000" font-family="sans-serif" font-size="13" lengthAdjust="spacing" textLength="82" x="90.5" y="328.1045">represented in</text><text fill="#000000" font-family="sans-serif" font-size="13" lengthAdjust="spacing" textLength="7" x="58.4785" y="304.5687">1</text><text fill="#000000" font-family="sans-serif" font-size="13" lengthAdjust="spacing" textLength="7" x="114.3555" y="368.0362">1</text></g><!--link Customer to Person--><g id="link_Customer_Person"><path codeLine="45" d="M236.1,81.8994 C215.1,100.6194 180.4,131.5594 149.09,159.4694 " fill="none" id="Customer-Person" style="stroke:#181818;stroke-width:1.0;"/><polygon fill="#000000" points="200.7678,124.1124,209.4751,120.2871,205.5637,115.8996,200.7678,124.1124" style="stroke:#000000;stroke-width:1.0;"/><text fill="#000000" font-family="sans-serif" font-size="13" lengthAdjust="spacing" textLength="82" x="213.5" y="126.1045">represented in</text><text fill="#000000" font-family="sans-serif" font-size="13" lengthAdjust="spacing" textLength="7" x="222.9456" y="102.5597">1</text><text fill="#000000" font-family="sans-serif" font-size="13" lengthAdjust="spacing" textLength="7" x="149.616" y="148.8948">1</text></g><!--link Agent to Announcement--><g id="link_Agent_Announcement"><path codeLine="46" d="M225.93,239.8794 C241.7,261.5994 269.92,299.9094 295.5,331.6094 C303.5,341.5194 312.57,352.1594 320.66,361.4394 " fill="none" id="Agent-Announcement" style="stroke:#181818;stroke-width:1.0;"/><polygon fill="#000000" points="297.4266,318.8413,300.6683,327.7823,305.3046,324.1693,297.4266,318.8413" style="stroke:#000000;stroke-width:1.0;"/><text fill="#000000" font-family="sans-serif" font-size="13" lengthAdjust="spacing" textLength="87" x="309.5" y="328.1045">is published by</text></g><!--link Agent to Employee--><g id="link_Agent_Employee"><path codeLine="47" d="M208.24,239.8994 C198.62,271.5794 178.26,338.5494 168.69,370.0494 " fill="none" id="Agent-Employee" style="stroke:#181818;stroke-width:1.0;"/><polygon fill="#000000" points="192.9538,318.0012,187.5119,325.801,193.1358,327.51,192.9538,318.0012" style="stroke:#000000;stroke-width:1.0;"/><text fill="#000000" font-family="sans-serif" font-size="13" lengthAdjust="spacing" textLength="42" x="200.5" y="328.1045">plays a</text><text fill="#000000" font-family="sans-serif" font-size="13" lengthAdjust="spacing" textLength="5" x="201.1545" y="260.5597">*</text><text fill="#000000" font-family="sans-serif" font-size="13" lengthAdjust="spacing" textLength="7" x="162.2287" y="359.3562">1</text></g><!--link Agent to Order--><g id="link_Agent_Order"><path codeLine="48" d="M235.19,221.6094 C266.07,221.6094 324.01,221.6094 369.66,221.6094 " fill="none" id="Agent-Order" style="stroke:#181818;stroke-width:1.0;"/><polygon fill="#000000" points="252.5,209.7852,261.5451,212.7241,261.5451,206.8462,252.5,209.7852" style="stroke:#000000;stroke-width:1.0;"/><text fill="#000000" font-family="sans-serif" font-size="13" lengthAdjust="spacing" textLength="85" x="266.5" y="215.1045">is accepted by</text><text fill="#000000" font-family="sans-serif" font-size="13" lengthAdjust="spacing" textLength="7" x="242.9044" y="216.7681">1</text><text fill="#000000" font-family="sans-serif" font-size="13" lengthAdjust="spacing" textLength="5" x="357.1853" y="218.2248">*</text></g><!--link Order to Announcement--><g id="link_Order_Announcement"><path codeLine="49" d="M429.49,265.7894 C425.15,286.8094 417.8,311.7494 405.5,331.6094 C398.58,342.7894 388.74,353.0294 378.94,361.5894 " fill="none" id="Order-Announcement" style="stroke:#181818;stroke-width:1.0;"/><polygon fill="#000000" points="416.1666,327.2073,422.987,320.5791,417.7885,317.836,416.1666,327.2073" style="stroke:#000000;stroke-width:1.0;"/><text fill="#000000" font-family="sans-serif" font-size="13" lengthAdjust="spacing" textLength="92" x="427.5" y="328.1045">is associated to</text><text fill="#000000" font-family="sans-serif" font-size="13" lengthAdjust="spacing" textLength="5" x="423.1337" y="287.5938">*</text><text fill="#000000" font-family="sans-serif" font-size="13" lengthAdjust="spacing" textLength="7" x="379.7254" y="350.6864">1</text></g><!--link Customer to Order--><g id="link_Customer_Order"><path codeLine="50" d="M275.45,81.8994 C301.81,104.7494 349.16,145.7794 385.54,177.3094 " fill="none" id="Customer-Order" style="stroke:#181818;stroke-width:1.0;"/><polygon fill="#000000" points="337.2785,124.0598,332.3679,115.915,328.5184,120.3569,337.2785,124.0598" style="stroke:#000000;stroke-width:1.0;"/><text fill="#000000" font-family="sans-serif" font-size="13" lengthAdjust="spacing" textLength="49" x="342.5" y="126.1045">places a</text><text fill="#000000" font-family="sans-serif" font-size="13" lengthAdjust="spacing" textLength="7" x="272.8709" y="102.5597">1</text><text fill="#000000" font-family="sans-serif" font-size="13" lengthAdjust="spacing" textLength="5" x="372.5071" y="166.7895">*</text></g><!--SRC=[PLBDQYCn3BxhAKGkXOL0Soqb4DezzD3TGjW7K3pgZ8bj6Lj3cmtxxgiP9qr2JnRozoVPTUzJfa8HeoHnGv78g6Lag5ytcToUUjxg8J0MTagf3zU0Eb0d7pxr-4wXCi1Tu7T55Io-7nGxFx6y9BWYkK2rRbIBtutABqxIrlzbl0SOVCVeV75cCjUHTP2k0gXNY_0iaNp2L-auu1B_REzNAu1P3t-NZWiUGQPp4sLCskfdKWPoZhF5Txn9zOCB_3lpDZqdDTwbypHMjMMKc-RFc8CSc5lpH4t9R1n7KpXUMSoEPz0Rbohf28aY0rl-0DdwMOe-KUb-ZN5dSPG-JrKU9F6fDdU09e2BrGANIvpFSvW7UvHSk9e_TsYRUOIly1Dk8anda_Y6NaCRtb3Ne-03-efvt0LV1qFk3gRRa8iV5k8cWe5pe4D5ke1MCyYWxKrckRQTirgxkAXzjxSLYVCqCUmthM_dMjxAMm37KuArhUi_]--></g></svg>