<?xml version="1.0" encoding="UTF-8" standalone="no"?><svg xmlns="http://www.w3.org/2000/svg" xmlns:xlink="http://www.w3.org/1999/xlink" contentStyleType="text/css" height="477px" preserveAspectRatio="none" style="width:450px;height:477px;background:#FFFFFF;" version="1.1" viewBox="0 0 450 477" width="450px" zoomAndPan="magnify"><defs/><g><!--class Customer--><g id="elem_Customer"><rect codeLine="18" fill="#F1F1F1" height="35.6094" id="Customer" rx="2.5" ry="2.5" style="stroke:#181818;stroke-width:0.5;" width="67" x="157" y="66.28"/><text fill="#000000" font-family="sans-serif" font-size="14" lengthAdjust="spacing" textLength="61" x="160" y="85.8132">Customer</text><line style="stroke:#181818;stroke-width:0.5;" x1="158" x2="223" y1="93.8894" y2="93.8894"/></g><!--class Property--><g id="elem_Property"><rect codeLine="21" fill="#F1F1F1" height="70.8281" id="Property" rx="2.5" ry="2.5" style="stroke:#181818;stroke-width:0.5;" width="132" x="238.5" y="399.78"/><text fill="#000000" font-family="sans-serif" font-size="14" lengthAdjust="spacing" textLength="54" x="277.5" y="419.3132">Property</text><line style="stroke:#181818;stroke-width:0.5;" x1="239.5" x2="369.5" y1="427.3894" y2="427.3894"/><text fill="#000000" font-family="sans-serif" font-size="14" lengthAdjust="spacing" textLength="29" x="244.5" y="445.9226">area</text><text fill="#000000" font-family="sans-serif" font-size="14" lengthAdjust="spacing" textLength="120" x="244.5" y="463.532">distanceCityCenter</text></g><!--class Order--><g id="elem_Order"><rect codeLine="26" fill="#F1F1F1" height="70.8281" id="Order" rx="2.5" ry="2.5" style="stroke:#181818;stroke-width:0.5;" width="131" x="49" y="188.78"/><text fill="#000000" font-family="sans-serif" font-size="14" lengthAdjust="spacing" textLength="37" x="96" y="208.3132">Order</text><line style="stroke:#181818;stroke-width:0.5;" x1="50" x2="179" y1="216.3894" y2="216.3894"/><text fill="#000000" font-family="sans-serif" font-size="14" lengthAdjust="spacing" textLength="82" x="55" y="234.9226">orderAmount</text><text fill="#000000" font-family="sans-serif" font-size="14" lengthAdjust="spacing" textLength="119" x="55" y="252.532">acceptanceAnswer</text></g><!--class Announcement--><g id="elem_Announcement"><rect codeLine="31" fill="#F1F1F1" height="53.2188" id="Announcement" rx="2.5" ry="2.5" style="stroke:#181818;stroke-width:0.5;" width="115" x="7" y="57.78"/><text fill="#000000" font-family="sans-serif" font-size="14" lengthAdjust="spacing" textLength="95" x="17" y="77.3132">Announcement</text><line style="stroke:#181818;stroke-width:0.5;" x1="8" x2="121" y1="85.3894" y2="85.3894"/><text fill="#000000" font-family="sans-serif" font-size="14" lengthAdjust="spacing" textLength="103" x="13" y="103.9226">acceptanceDate</text></g><!--class Request--><g id="elem_Request"><rect codeLine="35" fill="#F1F1F1" height="53.2188" id="Request" rx="2.5" ry="2.5" style="stroke:#181818;stroke-width:0.5;" width="90" x="259.5" y="57.78"/><text fill="#000000" font-family="sans-serif" font-size="14" lengthAdjust="spacing" textLength="53" x="278" y="77.3132">Request</text><line style="stroke:#181818;stroke-width:0.5;" x1="260.5" x2="348.5" y1="85.3894" y2="85.3894"/><text fill="#000000" font-family="sans-serif" font-size="14" lengthAdjust="spacing" textLength="78" x="265.5" y="103.9226">requestDate</text></g><!--link Customer to Order--><g id="link_Customer_Order"><path codeLine="40" d="M181.67,102.3 C173.87,117.25 162.11,139.56 151.5,158.78 C146.14,168.5 140.2,178.97 134.68,188.59 " fill="none" id="Customer-Order" style="stroke:#181818;stroke-width:1.0;"/><polygon fill="#000000" points="162.1088,154.3469,169.0156,147.8088,163.8535,144.9978,162.1088,154.3469" style="stroke:#000000;stroke-width:1.0;"/><text fill="#000000" font-family="sans-serif" font-size="13" lengthAdjust="spacing" textLength="49" x="173.5" y="155.2751">places a</text><text fill="#000000" font-family="sans-serif" font-size="13" lengthAdjust="spacing" textLength="7" x="171.0481" y="123.5475">1</text><text fill="#000000" font-family="sans-serif" font-size="13" lengthAdjust="spacing" textLength="5" x="133.0503" y="177.8066">*</text></g><!--link Announcement to Order--><g id="link_Announcement_Order"><path codeLine="41" d="M46.8,110.98 C39.2,125.34 33.5,143.38 40.5,158.78 C45.58,169.95 53.66,179.94 62.64,188.53 " fill="none" id="Announcement-Order" style="stroke:#181818;stroke-width:1.0;"/><polygon fill="#000000" points="44.4994,145.0569,43.43,154.5072,49.189,153.3309,44.4994,145.0569" style="stroke:#000000;stroke-width:1.0;"/><text fill="#000000" font-family="sans-serif" font-size="13" lengthAdjust="spacing" textLength="92" x="54.5" y="155.2751">is associated to</text><text fill="#000000" font-family="sans-serif" font-size="13" lengthAdjust="spacing" textLength="7" x="34.8975" y="132.5148">1</text><text fill="#000000" font-family="sans-serif" font-size="13" lengthAdjust="spacing" textLength="5" x="47.6174" y="178.007">*</text></g><!--link Announcement to Request--><g id="link_Announcement_Request"><path codeLine="42" d="M89.43,57.71 C104.65,43.48 125.4,27.36 147.5,19.78 C183.66,7.38 197.85,6 233.5,19.78 C253.23,27.4 270.86,43.34 283.61,57.46 " fill="none" id="Announcement-Request" style="stroke:#181818;stroke-width:1.0;"/><polygon fill="#000000" points="157.5,18.9493,148.4511,16.0221,148.4587,21.8999,157.5,18.9493" style="stroke:#000000;stroke-width:1.0;"/><text fill="#000000" font-family="sans-serif" font-size="13" lengthAdjust="spacing" textLength="71" x="161.5" y="24.2751">is  based on</text><text fill="#000000" font-family="sans-serif" font-size="13" lengthAdjust="spacing" textLength="7" x="87.6536" y="46.7949">1</text><text fill="#000000" font-family="sans-serif" font-size="13" lengthAdjust="spacing" textLength="7" x="270.9698" y="46.9183">1</text></g><!--link Request to Property--><g id="link_Request_Property"><path codeLine="43" d="M304.5,110.94 C304.5,172.73 304.5,329.8 304.5,399.76 " fill="none" id="Request-Property" style="stroke:#181818;stroke-width:1.0;"/><polygon fill="#000000" points="309.5,303.9558,312.4389,294.9107,306.5611,294.9107,309.5,303.9558" style="stroke:#000000;stroke-width:1.0;"/><text fill="#000000" font-family="sans-serif" font-size="13" lengthAdjust="spacing" textLength="124" x="318.5" y="304.2751">has information about</text><text fill="#000000" font-family="sans-serif" font-size="13" lengthAdjust="spacing" textLength="7" x="296.6906" y="132.4656">1</text><text fill="#000000" font-family="sans-serif" font-size="13" lengthAdjust="spacing" textLength="7" x="296.8328" y="389.009">1</text></g><!--SRC=[NP71JiCm38RlVWfhbqb8bU2A4D8qBXmG29x0IxqreesBxGgDYNV7RHaKBabaVx__FuczvjAJKeUT54cDIiVeEZ3OJwUdz4e7Vl5ZowYSdCgXNGBMK2tlkHnmJwqnmBhblQCBQZuqZdKULLaAB4If9REDk-RTu7oVfBpa3yPBW2RNZ2bh2fFftB4tKblCzUoHuKuwoWKVfEOsYjCaV6h9zw8Tdc2DMDLiINC_kQu_0MPeEvZ73VK4FwKdbPxLZoT0KYQ8j1OtJBpDVjnoSTPV-55hrd2GSTzqCXG7IedxIR4fzhwaDwK4aRYBAQS5TqVElzGplmri0UXyE7VX71PNLokiAbnThBu3N6FVKc93mbkOIsEp6lfgWfV60US0pIJbc5oFtt8BVuXf_hH-Pvark2CBNahmvrUQsV2f_Wjki273NCO_eF7PaNOoE7m1]--></g></svg>