<?xml version="1.0" encoding="UTF-8" standalone="no"?><svg xmlns="http://www.w3.org/2000/svg" xmlns:xlink="http://www.w3.org/1999/xlink" contentStyleType="text/css" height="595px" preserveAspectRatio="none" style="width:467px;height:595px;background:#FFFFFF;" version="1.1" viewBox="0 0 467 595" width="467px" zoomAndPan="magnify"><defs/><g><text fill="#000000" font-family="sans-serif" font-size="14" font-weight="bold" lengthAdjust="spacing" textLength="127" x="163.343" y="24.5332">Use Case Diagram</text><g id="elem_UC1"><ellipse cx="330.6359" cy="473.2366" fill="#F1F1F1" rx="113.6359" ry="25.1272" style="stroke:#181818;stroke-width:0.5;"/><text fill="#000000" font-family="sans-serif" font-size="14" lengthAdjust="spacing" textLength="191" x="235.1359" y="476.9651">UC1 - Display listed properties</text></g><!--entity Unregistered User--><g id="elem_Unregistered User"><ellipse cx="72.5" cy="471.6094" fill="#F1F1F1" rx="8" ry="8" style="stroke:#181818;stroke-width:0.5;"/><path d="M72.5,479.6094 L72.5,506.6094 M59.5,487.6094 L85.5,487.6094 M72.5,506.6094 L59.5,521.6094 M72.5,506.6094 L85.5,521.6094 " fill="none" style="stroke:#181818;stroke-width:0.5;"/><text fill="#000000" font-family="sans-serif" font-size="14" lengthAdjust="spacing" textLength="114" x="15.5" y="537.6426">Unregistered User</text></g><g id="elem_UC2"><ellipse cx="330.6279" cy="357.935" fill="#F1F1F1" rx="119.6279" ry="26.3256" style="stroke:#181818;stroke-width:0.5;"/><text fill="#000000" font-family="sans-serif" font-size="14" lengthAdjust="spacing" textLength="204" x="228.6279" y="361.6635">UC2 - Publish an announcement</text></g><!--entity Agent--><g id="elem_Agent"><ellipse cx="72.5" cy="327.6094" fill="#F1F1F1" rx="8" ry="8" style="stroke:#181818;stroke-width:0.5;"/><path d="M72.5,335.6094 L72.5,362.6094 M59.5,343.6094 L85.5,343.6094 M72.5,362.6094 L59.5,377.6094 M72.5,362.6094 L85.5,377.6094 " fill="none" style="stroke:#181818;stroke-width:0.5;"/><text fill="#000000" font-family="sans-serif" font-size="14" lengthAdjust="spacing" textLength="37" x="54" y="393.6426">Agent</text></g><g id="elem_UC3"><ellipse cx="330.5137" cy="191.0121" fill="#F1F1F1" rx="115.0137" ry="25.4027" style="stroke:#181818;stroke-width:0.5;"/><text fill="#000000" font-family="sans-serif" font-size="14" lengthAdjust="spacing" textLength="194" x="233.5137" y="194.7406">UC3 - Register new employees</text></g><!--entity System Administrator--><g id="elem_System Administrator"><ellipse cx="72.5" cy="180.6094" fill="#F1F1F1" rx="8" ry="8" style="stroke:#181818;stroke-width:0.5;"/><path d="M72.5,188.6094 L72.5,215.6094 M59.5,196.6094 L85.5,196.6094 M72.5,215.6094 L59.5,230.6094 M72.5,215.6094 L85.5,230.6094 " fill="none" style="stroke:#181818;stroke-width:0.5;"/><text fill="#000000" font-family="sans-serif" font-size="14" lengthAdjust="spacing" textLength="133" x="6" y="246.6426">System Administrator</text></g><g id="elem_UC5"><ellipse cx="330.7239" cy="274.2542" fill="#F1F1F1" rx="98.7239" ry="22.1448" style="stroke:#181818;stroke-width:0.5;"/><text fill="#000000" font-family="sans-serif" font-size="14" lengthAdjust="spacing" textLength="158" x="251.7239" y="277.9827">UC5 - Register new store</text></g><g id="elem_UC4"><ellipse cx="330.343" cy="83.278" fill="#F1F1F1" rx="131.343" ry="28.6686" style="stroke:#181818;stroke-width:0.5;"/><text fill="#000000" font-family="sans-serif" font-size="14" lengthAdjust="spacing" textLength="173" x="240.843" y="78.9899">UC4 - Submit a Request for</text><text fill="#000000" font-family="sans-serif" font-size="14" lengthAdjust="spacing" textLength="115" x="271.843" y="96.5993">an Announcement</text></g><!--entity Owner--><g id="elem_Owner"><ellipse cx="72.5" cy="52.6094" fill="#F1F1F1" rx="8" ry="8" style="stroke:#181818;stroke-width:0.5;"/><path d="M72.5,60.6094 L72.5,87.6094 M59.5,68.6094 L85.5,68.6094 M72.5,87.6094 L59.5,102.6094 M72.5,87.6094 L85.5,102.6094 " fill="none" style="stroke:#181818;stroke-width:0.5;"/><text fill="#000000" font-family="sans-serif" font-size="14" lengthAdjust="spacing" textLength="41" x="52" y="118.6426">Owner</text></g><g id="elem_UC7"><ellipse cx="330.4447" cy="561.2983" fill="#F1F1F1" rx="128.9447" ry="28.1889" style="stroke:#181818;stroke-width:0.5;"/><text fill="#000000" font-family="sans-serif" font-size="14" lengthAdjust="spacing" textLength="224" x="218.4447" y="565.0268">UC7 - Register a user in the system</text></g><!--link Unregistered User to UC1--><g id="link_Unregistered User_UC1"><path d="M129.68,495.7494 C157.41,492.5994 191.79,488.7094 224.18,485.0394 " fill="none" id="Unregistered User-to-UC1" style="stroke:#181818;stroke-width:1.0;"/><polygon fill="#181818" points="229.36,484.4494,219.9705,481.4766,224.3911,485.0062,220.8615,489.4268,229.36,484.4494" style="stroke:#181818;stroke-width:1.0;"/></g><!--link Agent to UC2--><g id="link_Agent_UC2"><path d="M91.1,358.1094 C115.24,358.1094 160.78,358.1094 205.64,358.1094 " fill="none" id="Agent-to-UC2" style="stroke:#181818;stroke-width:1.0;"/><polygon fill="#181818" points="210.83,358.1094,201.83,354.1094,205.83,358.1094,201.83,362.1094,210.83,358.1094" style="stroke:#181818;stroke-width:1.0;"/></g><!--link System Administrator to UC3--><g id="link_System Administrator_UC3"><path d="M139.09,205.9894 C162.7,204.1394 190.07,201.9994 216.55,199.9294 " fill="none" id="System Administrator-to-UC3" style="stroke:#181818;stroke-width:1.0;"/><polygon fill="#181818" points="221.84,199.5194,212.5583,196.2255,216.8549,199.905,213.1753,204.2017,221.84,199.5194" style="stroke:#181818;stroke-width:1.0;"/></g><!--link System Administrator to UC5--><g id="link_System Administrator_UC5"><path d="M139.09,227.2494 C175.67,236.2494 221.25,247.4694 258.65,256.6694 " fill="none" id="System Administrator-to-UC5" style="stroke:#181818;stroke-width:1.0;"/><polygon fill="#181818" points="263.63,257.8994,255.8562,251.8522,258.7768,256.6968,253.9321,259.6173,263.63,257.8994" style="stroke:#181818;stroke-width:1.0;"/></g><!--link Owner to UC4--><g id="link_Owner_UC4"><path d="M93.16,83.1094 C115.52,83.1094 154.06,83.1094 193.62,83.1094 " fill="none" id="Owner-to-UC4" style="stroke:#181818;stroke-width:1.0;"/><polygon fill="#181818" points="198.95,83.1094,189.95,79.1094,193.95,83.1094,189.95,87.1094,198.95,83.1094" style="stroke:#181818;stroke-width:1.0;"/></g><!--link Unregistered User to UC7--><g id="link_Unregistered User_UC7"><path d="M129.68,515.0594 C160.82,522.2394 200.35,531.3494 236.02,539.5694 " fill="none" id="Unregistered User-to-UC7" style="stroke:#181818;stroke-width:1.0;"/><polygon fill="#181818" points="241.25,540.7694,233.3685,534.8633,236.3759,539.6545,231.5847,542.6618,241.25,540.7694" style="stroke:#181818;stroke-width:1.0;"/></g><!--SRC=[ZP4zRuCm48Pt_ueJIwOCpOUoLKhJlLMZR5qSk1Whje-UZH2g-jzxK0I8Bh4G0txUvruTgtYteTAiFNWAb9TC7Y5nZMgwgNH-rmRFgNK8Z7dImJXKguc8fIweiS70JRk8QXOU-My5Sbw82-GJEM9eqJbgr8zIoIPHNoB2ISlhrMeZMQKStX8a0hQcJ53OJcOfg5vLHymxEhkSdc0jeLWvtOApCM415LE5d2p637G4OVfGTx9BO3GTnWBALCvWlNuUcPbu8-Bt-YhE4dIG9r0TSlGOqg3TJDgZwJ__gJPBrLPK7yDO2DW0-ifHYsF1xMGwjq9vE1RU1WcmJZHst2x5-wKu2es3TF-OTC1crfrOp_NLsmHQz5yrnWGtuizk2t3yluZTDEcj2TDETyk-XtbVtTqms02fH8XznK5uUE277Nu1]--></g></svg>