<?xml version="1.0" encoding="UTF-8" standalone="no"?><svg xmlns="http://www.w3.org/2000/svg" xmlns:xlink="http://www.w3.org/1999/xlink" contentStyleType="text/css" height="1112px" preserveAspectRatio="none" style="width:469px;height:1112px;background:#FFFFFF;" version="1.1" viewBox="0 0 469 1112" width="469px" zoomAndPan="magnify"><defs/><g><text fill="#000000" font-family="sans-serif" font-size="14" font-weight="bold" lengthAdjust="spacing" textLength="127" x="164.0423" y="24.5332">Use Case Diagram</text><g id="elem_UC1"><ellipse cx="331.1359" cy="990.2366" fill="#F1F1F1" rx="113.6359" ry="25.1272" style="stroke:#181818;stroke-width:0.5;"/><text fill="#000000" font-family="sans-serif" font-size="14" lengthAdjust="spacing" textLength="191" x="235.6359" y="993.9651">UC1 - Display listed properties</text></g><!--entity Unregistered User--><g id="elem_Unregistered User"><ellipse cx="72.5" cy="1003.6094" fill="#F1F1F1" rx="8" ry="8" style="stroke:#181818;stroke-width:0.5;"/><path d="M72.5,1011.6094 L72.5,1038.6094 M59.5,1019.6094 L85.5,1019.6094 M72.5,1038.6094 L59.5,1053.6094 M72.5,1038.6094 L85.5,1053.6094 " fill="none" style="stroke:#181818;stroke-width:0.5;"/><text fill="#000000" font-family="sans-serif" font-size="14" lengthAdjust="spacing" textLength="114" x="15.5" y="1069.6426">Unregistered User</text></g><g id="elem_UC2"><ellipse cx="331.1279" cy="724.935" fill="#F1F1F1" rx="119.6279" ry="26.3256" style="stroke:#181818;stroke-width:0.5;"/><text fill="#000000" font-family="sans-serif" font-size="14" lengthAdjust="spacing" textLength="204" x="229.1279" y="728.6635">UC2 - Publish an announcement</text></g><!--entity Agent--><g id="elem_Agent"><ellipse cx="72.5" cy="784.6094" fill="#F1F1F1" rx="8" ry="8" style="stroke:#181818;stroke-width:0.5;"/><path d="M72.5,792.6094 L72.5,819.6094 M59.5,800.6094 L85.5,800.6094 M72.5,819.6094 L59.5,834.6094 M72.5,819.6094 L85.5,834.6094 " fill="none" style="stroke:#181818;stroke-width:0.5;"/><text fill="#000000" font-family="sans-serif" font-size="14" lengthAdjust="spacing" textLength="37" x="54" y="850.6426">Agent</text></g><g id="elem_UC3"><ellipse cx="331.0137" cy="469.0121" fill="#F1F1F1" rx="115.0137" ry="25.4027" style="stroke:#181818;stroke-width:0.5;"/><text fill="#000000" font-family="sans-serif" font-size="14" lengthAdjust="spacing" textLength="194" x="234.0137" y="472.7406">UC3 - Register new employees</text></g><!--entity System Administrator--><g id="elem_System Administrator"><ellipse cx="72.5" cy="521.6094" fill="#F1F1F1" rx="8" ry="8" style="stroke:#181818;stroke-width:0.5;"/><path d="M72.5,529.6094 L72.5,556.6094 M59.5,537.6094 L85.5,537.6094 M72.5,556.6094 L59.5,571.6094 M72.5,556.6094 L85.5,571.6094 " fill="none" style="stroke:#181818;stroke-width:0.5;"/><text fill="#000000" font-family="sans-serif" font-size="14" lengthAdjust="spacing" textLength="133" x="6" y="587.6426">System Administrator</text></g><g id="elem_UC4"><ellipse cx="331.1123" cy="379.9318" fill="#F1F1F1" rx="129.6123" ry="28.3225" style="stroke:#181818;stroke-width:0.5;"/><text fill="#000000" font-family="sans-serif" font-size="14" lengthAdjust="spacing" textLength="168" x="244.1123" y="375.6437">UC4 - Submit a request for</text><text fill="#000000" font-family="sans-serif" font-size="14" lengthAdjust="spacing" textLength="114" x="273.1123" y="393.2531">an announcement</text></g><!--entity Owner--><g id="elem_Owner"><ellipse cx="72.5" cy="349.6094" fill="#F1F1F1" rx="8" ry="8" style="stroke:#181818;stroke-width:0.5;"/><path d="M72.5,357.6094 L72.5,384.6094 M59.5,365.6094 L85.5,365.6094 M72.5,384.6094 L59.5,399.6094 M72.5,384.6094 L85.5,399.6094 " fill="none" style="stroke:#181818;stroke-width:0.5;"/><text fill="#000000" font-family="sans-serif" font-size="14" lengthAdjust="spacing" textLength="41" x="52" y="415.6426">Owner</text></g><g id="elem_UC5"><ellipse cx="331.2239" cy="552.2542" fill="#F1F1F1" rx="98.7239" ry="22.1448" style="stroke:#181818;stroke-width:0.5;"/><text fill="#000000" font-family="sans-serif" font-size="14" lengthAdjust="spacing" textLength="158" x="252.2239" y="555.9827">UC5 - Register new store</text></g><g id="elem_UC7"><ellipse cx="330.9447" cy="1078.2983" fill="#F1F1F1" rx="128.9447" ry="28.1889" style="stroke:#181818;stroke-width:0.5;"/><text fill="#000000" font-family="sans-serif" font-size="14" lengthAdjust="spacing" textLength="224" x="218.9447" y="1082.0268">UC7 - Register a user in the system</text></g><g id="elem_UC8"><ellipse cx="331.001" cy="815.0128" fill="#F1F1F1" rx="122.501" ry="27.9034" style="stroke:#181818;stroke-width:0.5;"/><text fill="#000000" font-family="sans-serif" font-size="14" lengthAdjust="spacing" textLength="119" x="271.501" y="809.9366">UC8 - List property</text><text fill="#000000" font-family="sans-serif" font-size="14" lengthAdjust="spacing" textLength="153" x="256.501" y="827.546">announcement requests</text></g><g id="elem_UC9"><ellipse cx="330.9447" cy="197.2983" fill="#F1F1F1" rx="128.9447" ry="28.1889" style="stroke:#181818;stroke-width:0.5;"/><text fill="#000000" font-family="sans-serif" font-size="14" lengthAdjust="spacing" textLength="224" x="218.9447" y="201.0268">UC9 - Schedule a visit to a property</text></g><!--entity Registered User--><g id="elem_Registered User"><ellipse cx="72.5" cy="189.6094" fill="#F1F1F1" rx="8" ry="8" style="stroke:#181818;stroke-width:0.5;"/><path d="M72.5,197.6094 L72.5,224.6094 M59.5,205.6094 L85.5,205.6094 M72.5,224.6094 L59.5,239.6094 M72.5,224.6094 L85.5,239.6094 " fill="none" style="stroke:#181818;stroke-width:0.5;"/><text fill="#000000" font-family="sans-serif" font-size="14" lengthAdjust="spacing" textLength="102" x="21.5" y="255.6426">Registered User</text></g><g id="elem_UC10"><ellipse cx="330.9763" cy="288.2046" fill="#F1F1F1" rx="128.4763" ry="28.0953" style="stroke:#181818;stroke-width:0.5;"/><text fill="#000000" font-family="sans-serif" font-size="14" lengthAdjust="spacing" textLength="223" x="219.4763" y="291.9332">UC10 - To submit a purchase order</text></g><g id="elem_UC11"><ellipse cx="330.8167" cy="903.9727" fill="#F1F1F1" rx="117.3167" ry="25.8633" style="stroke:#181818;stroke-width:0.5;"/><text fill="#000000" font-family="sans-serif" font-size="14" lengthAdjust="spacing" textLength="199" x="231.3167" y="907.7012">UC11 - Accept purchase orders</text></g><g id="elem_UC12"><ellipse cx="330.8414" cy="636.1777" fill="#F1F1F1" rx="123.3414" ry="27.0683" style="stroke:#181818;stroke-width:0.5;"/><text fill="#000000" font-family="sans-serif" font-size="14" lengthAdjust="spacing" textLength="212" x="224.8414" y="639.9062">UC12 - Import legacy system's file</text></g><g id="elem_UC13"><ellipse cx="331.0423" cy="82.9178" fill="#F1F1F1" rx="132.0423" ry="28.8085" style="stroke:#181818;stroke-width:0.5;"/><text fill="#000000" font-family="sans-serif" font-size="14" lengthAdjust="spacing" textLength="175" x="240.5423" y="78.6297">UC13 - List all employees in</text><text fill="#000000" font-family="sans-serif" font-size="14" lengthAdjust="spacing" textLength="75" x="292.5423" y="96.2391">all agencies</text></g><!--entity Network Manager--><g id="elem_Network Manager"><ellipse cx="72.5" cy="52.6094" fill="#F1F1F1" rx="8" ry="8" style="stroke:#181818;stroke-width:0.5;"/><path d="M72.5,60.6094 L72.5,87.6094 M59.5,68.6094 L85.5,68.6094 M72.5,87.6094 L59.5,102.6094 M72.5,87.6094 L85.5,102.6094 " fill="none" style="stroke:#181818;stroke-width:0.5;"/><text fill="#000000" font-family="sans-serif" font-size="14" lengthAdjust="spacing" textLength="110" x="17.5" y="118.6426">Network Manager</text></g><!--link Unregistered User to UC1--><g id="link_Unregistered User_UC1"><path d="M129.79,1024.4494 C160.78,1019.1394 200.07,1012.3994 235.61,1006.2994 " fill="none" id="Unregistered User-to-UC1" style="stroke:#181818;stroke-width:1.0;"/><polygon fill="#181818" points="240.83,1005.4094,231.2845,1002.9837,235.9015,1006.2522,232.6331,1010.8692,240.83,1005.4094" style="stroke:#181818;stroke-width:1.0;"/></g><!--link Agent to UC2--><g id="link_Agent_UC2"><path d="M91.35,808.6294 C115.66,799.8094 160.56,783.5994 199,770.1094 C218.77,763.1694 240.25,755.7394 259.99,748.9594 " fill="none" id="Agent-to-UC2" style="stroke:#181818;stroke-width:1.0;"/><polygon fill="#181818" points="264.97,747.2494,255.1603,746.3716,260.2381,748.8648,257.745,753.9426,264.97,747.2494" style="stroke:#181818;stroke-width:1.0;"/></g><!--link System Administrator to UC3--><g id="link_System Administrator_UC3"><path d="M139.22,530.8394 C176.16,518.8894 222.25,503.9794 259.88,491.7994 " fill="none" id="System Administrator-to-UC3" style="stroke:#181818;stroke-width:1.0;"/><polygon fill="#181818" points="264.89,490.1794,255.095,489.151,260.1339,491.7219,257.563,496.7608,264.89,490.1794" style="stroke:#181818;stroke-width:1.0;"/></g><!--link Owner to UC4--><g id="link_Owner_UC4"><path d="M93.2,380.1094 C115.99,380.1094 155.58,380.1094 195.94,380.1094 " fill="none" id="Owner-to-UC4" style="stroke:#181818;stroke-width:1.0;"/><polygon fill="#181818" points="201.38,380.1094,192.38,376.1094,196.38,380.1094,192.38,384.1094,201.38,380.1094" style="stroke:#181818;stroke-width:1.0;"/></g><!--link System Administrator to UC5--><g id="link_System Administrator_UC5"><path d="M139.22,552.1094 C166.02,552.1094 197.65,552.1094 227.36,552.1094 " fill="none" id="System Administrator-to-UC5" style="stroke:#181818;stroke-width:1.0;"/><polygon fill="#181818" points="232.49,552.1094,223.49,548.1094,227.49,552.1094,223.49,556.1094,232.49,552.1094" style="stroke:#181818;stroke-width:1.0;"/></g><!--link Unregistered User to UC7--><g id="link_Unregistered User_UC7"><path d="M129.79,1043.7694 C157.51,1048.5194 191.85,1054.4094 224.23,1059.9694 " fill="none" id="Unregistered User-to-UC7" style="stroke:#181818;stroke-width:1.0;"/><polygon fill="#181818" points="229.4,1060.8494,221.2031,1055.3895,224.4715,1060.0065,219.8545,1063.275,229.4,1060.8494" style="stroke:#181818;stroke-width:1.0;"/></g><!--link Agent to UC8--><g id="link_Agent_UC8"><path d="M91.13,815.1094 C114.83,815.1094 159.11,815.1094 203.17,815.1094 " fill="none" id="Agent-to-UC8" style="stroke:#181818;stroke-width:1.0;"/><polygon fill="#181818" points="208.26,815.1094,199.26,811.1094,203.26,815.1094,199.26,819.1094,208.26,815.1094" style="stroke:#181818;stroke-width:1.0;"/></g><!--link Registered User to UC9--><g id="link_Registered User_UC9"><path d="M123.56,215.6194 C147.41,213.4794 177.08,210.8194 206.43,208.1894 " fill="none" id="Registered User-to-UC9" style="stroke:#181818;stroke-width:1.0;"/><polygon fill="#181818" points="211.52,207.7294,202.2006,204.5437,206.5397,208.173,202.9104,212.5122,211.52,207.7294" style="stroke:#181818;stroke-width:1.0;"/></g><!--link Registered User to UC10--><g id="link_Registered User_UC10"><path d="M123.56,233.3794 C157.75,242.4394 203.92,254.6794 243.92,265.2894 " fill="none" id="Registered User-to-UC10" style="stroke:#181818;stroke-width:1.0;"/><polygon fill="#181818" points="248.77,266.5794,241.0977,260.4039,243.9374,265.2964,239.0449,268.1361,248.77,266.5794" style="stroke:#181818;stroke-width:1.0;"/></g><!--link Agent to UC11--><g id="link_Agent_UC11"><path d="M91.3,821.8494 C115.57,830.9894 160.42,847.7094 199,861.1094 C218.28,867.8094 239.25,874.8094 258.65,881.1794 " fill="none" id="Agent-to-UC11" style="stroke:#181818;stroke-width:1.0;"/><polygon fill="#181818" points="263.55,882.7794,256.2409,876.1781,258.7981,881.2239,253.7522,883.7811,263.55,882.7794" style="stroke:#181818;stroke-width:1.0;"/></g><!--link System Administrator to UC12--><g id="link_System Administrator_UC12"><path d="M139.22,573.6294 C175.02,585.3594 219.42,599.8994 256.38,611.9994 " fill="none" id="System Administrator-to-UC12" style="stroke:#181818;stroke-width:1.0;"/><polygon fill="#181818" points="261.31,613.6194,254.0068,607.0116,256.5595,612.0597,251.5113,614.6124,261.31,613.6194" style="stroke:#181818;stroke-width:1.0;"/></g><!--link Network Manager to UC13--><g id="link_Network Manager_UC13"><path d="M127.58,83.1094 C147.21,83.1094 170.36,83.1094 193.86,83.1094 " fill="none" id="Network Manager-to-UC13" style="stroke:#181818;stroke-width:1.0;"/><polygon fill="#181818" points="198.88,83.1094,189.88,79.1094,193.88,83.1094,189.88,87.1094,198.88,83.1094" style="stroke:#181818;stroke-width:1.0;"/></g><!--SRC=[ZPHDZvim48Rl_XKZBZb5MaAY99TAQVPIgL_QDBUzUCq4h1YRsgO8LVtl7LE-IjBk8iG1l_FCC3Cl2tULkkIM5r0ORKHkJO7WROLiF2cvkF8CJxvH21Q5vpfJo1QZmkKyDRNK6LouSiWcmOF-9mEwtXkReZqQPImqg9IfsI_6lFI4FZk48wV7e-GPnJAcyEB16x0oopsaCi2aqQn5LGv5K4VdOmnB2dAbuWqewJocK5fJelKINGJS0MdQe715Psqn2p9BGifg8rWktmsQ2NX5uA_L2p5pu9fkRIeji43jE-ngn1wozlKVr6gEIWZrrAK5ZJLWKIhJu51WCf9E3QaAEAI5r1HWkJT3ZSaSl2RmgNeff0TExVvUeVDmCVPP_wFazPZeIwt7hr_FoPjvoOxgm8woULkvcpbqEuNoS691Ql0vWciv7N_xXdbjv_0TmJ-IiXz_y_nt1_h-z3tViRl3sysv-z1ZaMDQqPvo-26TR1UJ3uawu7u0FjqlUN-pkm_4_cR0zICiAoloSDXQfT_UXzV0dM9A3hOu286bdq47JyJtlp- -CK8SdF2XA8tre33ZekccjN1maQfVYdYmmt-N8hvnHvpqa-DAZTQWpGWJf5Vq0z9YukR1BT5dzBMnL_Z4DOd670dx3G00]--></g></svg>