<?xml version="1.0" encoding="UTF-8" standalone="no"?><svg xmlns="http://www.w3.org/2000/svg" xmlns:xlink="http://www.w3.org/1999/xlink" contentStyleType="text/css" height="1137px" preserveAspectRatio="none" style="width:1266px;height:1137px;background:#FFFFFF;" version="1.1" viewBox="0 0 1266 1137" width="1266px" zoomAndPan="magnify"><defs/><g><rect fill="#FFFFFF" height="944.5" style="stroke:#181818;stroke-width:1.0;" width="10" x="76" y="92.6094"/><rect fill="#FFFFFF" height="195.2031" style="stroke:#181818;stroke-width:1.0;" width="10" x="398" y="114.9609"/><rect fill="#FFFFFF" height="30.3516" style="stroke:#181818;stroke-width:1.0;" width="10" x="398" y="340.5156"/><rect fill="#FFFFFF" height="30.3516" style="stroke:#181818;stroke-width:1.0;" width="10" x="398" y="433.9219"/><rect fill="#FFFFFF" height="542.4844" style="stroke:#181818;stroke-width:1.0;" width="10" x="398" y="494.625"/><rect fill="#FFFFFF" height="91.8906" style="stroke:#181818;stroke-width:1.0;" width="10" x="799" y="187.9219"/><rect fill="#FFFFFF" height="465.4297" style="stroke:#181818;stroke-width:1.0;" width="10" x="799" y="541.3281"/><rect fill="#FFFFFF" height="102.8906" style="stroke:#181818;stroke-width:1.0;" width="10" x="804" y="579.6797"/><rect fill="#FFFFFF" height="102.8906" style="stroke:#181818;stroke-width:1.0;" width="10" x="804" y="727.9219"/><rect fill="#FFFFFF" height="91.8906" style="stroke:#181818;stroke-width:1.0;" width="10" x="1203" y="884.5156"/><line style="stroke:#181818;stroke-width:0.5;stroke-dasharray:5.0,5.0;" x1="81" x2="81" y1="82.6094" y2="1055.1094"/><line style="stroke:#181818;stroke-width:0.5;stroke-dasharray:5.0,5.0;" x1="403" x2="403" y1="82.6094" y2="1055.1094"/><line style="stroke:#181818;stroke-width:0.5;stroke-dasharray:5.0,5.0;" x1="804" x2="804" y1="154.2656" y2="1055.1094"/><line style="stroke:#181818;stroke-width:0.5;stroke-dasharray:5.0,5.0;" x1="1208" x2="1208" y1="82.6094" y2="1055.1094"/><text fill="#000000" font-family="sans-serif" font-size="14" lengthAdjust="spacing" textLength="146" x="5" y="79.5332">Organization Employee</text><ellipse cx="81" cy="13.5" fill="#E3E3E3" rx="8" ry="8" style="stroke:#181818;stroke-width:0.5;"/><path d="M81,21.5 L81,48.5 M68,29.5 L94,29.5 M81,48.5 L68,63.5 M81,48.5 L94,63.5 " fill="none" style="stroke:#181818;stroke-width:0.5;"/><text fill="#000000" font-family="sans-serif" font-size="14" lengthAdjust="spacing" textLength="146" x="5" y="1068.6426">Organization Employee</text><ellipse cx="81" cy="1080.2188" fill="#E3E3E3" rx="8" ry="8" style="stroke:#181818;stroke-width:0.5;"/><path d="M81,1088.2188 L81,1115.2188 M68,1096.2188 L94,1096.2188 M81,1115.2188 L68,1130.2188 M81,1115.2188 L94,1130.2188 " fill="none" style="stroke:#181818;stroke-width:0.5;"/><rect fill="#E3E3E3" height="31.6094" rx="2.5" ry="2.5" style="stroke:#181818;stroke-width:0.5;" width="104" x="351" y="50"/><text fill="#000000" font-family="sans-serif" font-size="14" lengthAdjust="spacing" textLength="90" x="358" y="71.5332">:CreateTaskUI</text><rect fill="#E3E3E3" height="31.6094" rx="2.5" ry="2.5" style="stroke:#181818;stroke-width:0.5;" width="104" x="351" y="1054.1094"/><text fill="#000000" font-family="sans-serif" font-size="14" lengthAdjust="spacing" textLength="90" x="358" y="1075.6426">:CreateTaskUI</text><rect fill="#E3E3E3" height="31.6094" rx="2.5" ry="2.5" style="stroke:#181818;stroke-width:0.5;" width="154" x="727" y="1054.1094"/><text fill="#000000" font-family="sans-serif" font-size="14" lengthAdjust="spacing" textLength="140" x="734" y="1075.6426">:CreateTaskController</text><rect fill="#E3E3E3" height="49.2188" rx="2.5" ry="2.5" style="stroke:#181818;stroke-width:0.5;" width="98" x="1159" y="32.3906"/><text fill="#000000" font-family="sans-serif" font-size="14" lengthAdjust="spacing" textLength="77" x="1169.5" y="53.9238">organization</text><text fill="#000000" font-family="sans-serif" font-size="14" lengthAdjust="spacing" textLength="84" x="1166" y="71.5332">:Organization</text><rect fill="#E3E3E3" height="49.2188" rx="2.5" ry="2.5" style="stroke:#181818;stroke-width:0.5;" width="98" x="1159" y="1054.1094"/><text fill="#000000" font-family="sans-serif" font-size="14" lengthAdjust="spacing" textLength="77" x="1169.5" y="1075.6426">organization</text><text fill="#000000" font-family="sans-serif" font-size="14" lengthAdjust="spacing" textLength="84" x="1166" y="1093.252">:Organization</text><rect fill="#FFFFFF" height="944.5" style="stroke:#181818;stroke-width:1.0;" width="10" x="76" y="92.6094"/><rect fill="#FFFFFF" height="195.2031" style="stroke:#181818;stroke-width:1.0;" width="10" x="398" y="114.9609"/><rect fill="#FFFFFF" height="30.3516" style="stroke:#181818;stroke-width:1.0;" width="10" x="398" y="340.5156"/><rect fill="#FFFFFF" height="30.3516" style="stroke:#181818;stroke-width:1.0;" width="10" x="398" y="433.9219"/><rect fill="#FFFFFF" height="542.4844" style="stroke:#181818;stroke-width:1.0;" width="10" x="398" y="494.625"/><rect fill="#FFFFFF" height="91.8906" style="stroke:#181818;stroke-width:1.0;" width="10" x="799" y="187.9219"/><rect fill="#FFFFFF" height="465.4297" style="stroke:#181818;stroke-width:1.0;" width="10" x="799" y="541.3281"/><rect fill="#FFFFFF" height="102.8906" style="stroke:#181818;stroke-width:1.0;" width="10" x="804" y="579.6797"/><rect fill="#FFFFFF" height="102.8906" style="stroke:#181818;stroke-width:1.0;" width="10" x="804" y="727.9219"/><rect fill="#FFFFFF" height="91.8906" style="stroke:#181818;stroke-width:1.0;" width="10" x="1203" y="884.5156"/><polygon fill="#181818" points="386,110.9609,396,114.9609,386,118.9609,390,114.9609" style="stroke:#181818;stroke-width:1.0;"/><line style="stroke:#181818;stroke-width:1.0;" x1="86" x2="392" y1="114.9609" y2="114.9609"/><text fill="#000000" font-family="sans-serif" font-size="13" font-weight="bold" lengthAdjust="spacing" textLength="7" x="93" y="110.1045">1</text><text fill="#000000" font-family="sans-serif" font-size="13" lengthAdjust="spacing" textLength="150" x="104" y="110.1045">asks to create a new task</text><polygon fill="#181818" points="715,141.3125,725,145.3125,715,149.3125,719,145.3125" style="stroke:#181818;stroke-width:1.0;"/><line style="stroke:#181818;stroke-width:1.0;" x1="408" x2="721" y1="145.3125" y2="145.3125"/><text fill="#000000" font-family="sans-serif" font-size="13" font-weight="bold" lengthAdjust="spacing" textLength="7" x="415" y="140.4561">2</text><text fill="#000000" font-family="sans-serif" font-size="13" lengthAdjust="spacing" textLength="36" x="426" y="140.4561">create</text><rect fill="#E3E3E3" height="31.6094" rx="2.5" ry="2.5" style="stroke:#181818;stroke-width:0.5;" width="154" x="727" y="122.9609"/><text fill="#000000" font-family="sans-serif" font-size="14" lengthAdjust="spacing" textLength="140" x="734" y="144.4941">:CreateTaskController</text><polygon fill="#181818" points="787,183.9219,797,187.9219,787,191.9219,791,187.9219" style="stroke:#181818;stroke-width:1.0;"/><line style="stroke:#181818;stroke-width:1.0;" x1="408" x2="793" y1="187.9219" y2="187.9219"/><text fill="#000000" font-family="sans-serif" font-size="13" font-weight="bold" lengthAdjust="spacing" textLength="7" x="415" y="183.0654">3</text><text fill="#000000" font-family="sans-serif" font-size="13" lengthAdjust="spacing" textLength="116" x="426" y="183.0654">getTaskCategories()</text><rect fill="none" height="56.5391" style="stroke:#000000;stroke-width:1.5;" width="160" x="724" y="195.9219"/><path d="M724,195.9219 L786,195.9219 L786,203.9219 L776,213.9219 L724,213.9219 L724,195.9219 " fill="#EEEEEE" style="stroke:#000000;stroke-width:2.0;"/><text fill="#000000" font-family="sans-serif" font-size="13" font-weight="bold" lengthAdjust="spacing" textLength="17" x="737" y="211.417">ref</text><text fill="#000000" font-family="sans-serif" font-size="12" lengthAdjust="spacing" textLength="124" x="742" y="230.3789">Get Task Category List</text><text fill="#000000" font-family="sans-serif" font-size="12" lengthAdjust="spacing" textLength="3" x="802.5" y="245.4727"> </text><polygon fill="#181818" points="419,275.8125,409,279.8125,419,283.8125,415,279.8125" style="stroke:#181818;stroke-width:1.0;"/><line style="stroke:#181818;stroke-width:1.0;stroke-dasharray:2.0,2.0;" x1="413" x2="803" y1="279.8125" y2="279.8125"/><text fill="#000000" font-family="sans-serif" font-size="13" font-weight="bold" lengthAdjust="spacing" textLength="7" x="425" y="274.9561">4</text><text fill="#000000" font-family="sans-serif" font-size="13" lengthAdjust="spacing" textLength="98" x="436" y="274.9561">taskCategoryList</text><polygon fill="#181818" points="97,306.1641,87,310.1641,97,314.1641,93,310.1641" style="stroke:#181818;stroke-width:1.0;"/><line style="stroke:#181818;stroke-width:1.0;stroke-dasharray:2.0,2.0;" x1="91" x2="402" y1="310.1641" y2="310.1641"/><text fill="#000000" font-family="sans-serif" font-size="13" font-weight="bold" lengthAdjust="spacing" textLength="7" x="103" y="305.3076">5</text><text fill="#000000" font-family="sans-serif" font-size="13" lengthAdjust="spacing" textLength="277" x="114" y="305.3076">shows task category list and asks to sleect one</text><polygon fill="#181818" points="386,336.5156,396,340.5156,386,344.5156,390,340.5156" style="stroke:#181818;stroke-width:1.0;"/><line style="stroke:#181818;stroke-width:1.0;" x1="86" x2="392" y1="340.5156" y2="340.5156"/><text fill="#000000" font-family="sans-serif" font-size="13" font-weight="bold" lengthAdjust="spacing" textLength="7" x="93" y="335.6592">6</text><text fill="#000000" font-family="sans-serif" font-size="13" lengthAdjust="spacing" textLength="136" x="104" y="335.6592">selects a task category</text><polygon fill="#181818" points="97,366.8672,87,370.8672,97,374.8672,93,370.8672" style="stroke:#181818;stroke-width:1.0;"/><line style="stroke:#181818;stroke-width:1.0;stroke-dasharray:2.0,2.0;" x1="91" x2="402" y1="370.8672" y2="370.8672"/><text fill="#000000" font-family="sans-serif" font-size="13" font-weight="bold" lengthAdjust="spacing" textLength="7" x="103" y="366.0107">7</text><text fill="#000000" font-family="sans-serif" font-size="13" lengthAdjust="spacing" textLength="79" x="114" y="366.0107">requests data</text><polygon fill="#181818" points="386,429.9219,396,433.9219,386,437.9219,390,433.9219" style="stroke:#181818;stroke-width:1.0;"/><line style="stroke:#181818;stroke-width:1.0;" x1="86" x2="392" y1="433.9219" y2="433.9219"/><text fill="#000000" font-family="sans-serif" font-size="13" font-weight="bold" lengthAdjust="spacing" textLength="7" x="93" y="412.7139">8</text><text fill="#000000" font-family="sans-serif" font-size="13" lengthAdjust="spacing" textLength="258" x="104" y="396.3623">types requested data (reference, description,</text><text fill="#000000" font-family="sans-serif" font-size="13" lengthAdjust="spacing" textLength="243" x="104" y="412.7139">informal description, technical description,</text><text fill="#000000" font-family="sans-serif" font-size="13" lengthAdjust="spacing" textLength="83" x="104" y="429.0654">duration, cost)</text><polygon fill="#181818" points="97,460.2734,87,464.2734,97,468.2734,93,464.2734" style="stroke:#181818;stroke-width:1.0;"/><line style="stroke:#181818;stroke-width:1.0;stroke-dasharray:2.0,2.0;" x1="91" x2="402" y1="464.2734" y2="464.2734"/><text fill="#000000" font-family="sans-serif" font-size="13" font-weight="bold" lengthAdjust="spacing" textLength="7" x="103" y="459.417">9</text><text fill="#000000" font-family="sans-serif" font-size="13" lengthAdjust="spacing" textLength="259" x="114" y="459.417">shows selected category and requested data</text><polygon fill="#181818" points="386,490.625,396,494.625,386,498.625,390,494.625" style="stroke:#181818;stroke-width:1.0;"/><line style="stroke:#181818;stroke-width:1.0;" x1="86" x2="392" y1="494.625" y2="494.625"/><text fill="#000000" font-family="sans-serif" font-size="13" font-weight="bold" lengthAdjust="spacing" textLength="14" x="93" y="489.7686">10</text><text fill="#000000" font-family="sans-serif" font-size="13" lengthAdjust="spacing" textLength="75" x="111" y="489.7686">submits data</text><polygon fill="#181818" points="787,537.3281,797,541.3281,787,545.3281,791,541.3281" style="stroke:#181818;stroke-width:1.0;"/><line style="stroke:#181818;stroke-width:1.0;" x1="408" x2="793" y1="541.3281" y2="541.3281"/><text fill="#000000" font-family="sans-serif" font-size="13" font-weight="bold" lengthAdjust="spacing" textLength="14" x="415" y="528.2959">11</text><text fill="#000000" font-family="sans-serif" font-size="13" lengthAdjust="spacing" textLength="314" x="433" y="520.1201">createTask(reference, description, informalDescription,</text><text fill="#000000" font-family="sans-serif" font-size="13" lengthAdjust="spacing" textLength="354" x="433" y="536.4717">technicalDescription,duration, cost, taskCategoryDescription)</text><line style="stroke:#181818;stroke-width:1.0;" x1="809" x2="856" y1="566.6797" y2="566.6797"/><line style="stroke:#181818;stroke-width:1.0;" x1="856" x2="856" y1="566.6797" y2="579.6797"/><line style="stroke:#181818;stroke-width:1.0;" x1="815" x2="856" y1="579.6797" y2="579.6797"/><polygon fill="#181818" points="825,575.6797,815,579.6797,825,583.6797,821,579.6797" style="stroke:#181818;stroke-width:1.0;"/><text fill="#000000" font-family="sans-serif" font-size="13" font-weight="bold" lengthAdjust="spacing" textLength="14" x="821" y="561.8232">12</text><text fill="#000000" font-family="sans-serif" font-size="13" lengthAdjust="spacing" textLength="329" x="839" y="561.8232">getTaskCategoryByDescription(taskCategoryDescription)</text><rect fill="none" height="56.5391" style="stroke:#000000;stroke-width:1.5;" width="160" x="724" y="592.6797"/><path d="M724,592.6797 L786,592.6797 L786,600.6797 L776,610.6797 L724,610.6797 L724,592.6797 " fill="#EEEEEE" style="stroke:#000000;stroke-width:2.0;"/><text fill="#000000" font-family="sans-serif" font-size="13" font-weight="bold" lengthAdjust="spacing" textLength="17" x="737" y="608.1748">ref</text><text fill="#000000" font-family="sans-serif" font-size="12" lengthAdjust="spacing" textLength="139" x="734.5" y="627.1367">Get Task Category Object</text><text fill="#000000" font-family="sans-serif" font-size="12" lengthAdjust="spacing" textLength="3" x="802.5" y="642.2305"> </text><line style="stroke:#181818;stroke-width:1.0;stroke-dasharray:2.0,2.0;" x1="814" x2="856" y1="681.5703" y2="681.5703"/><line style="stroke:#181818;stroke-width:1.0;stroke-dasharray:2.0,2.0;" x1="856" x2="856" y1="681.5703" y2="694.5703"/><line style="stroke:#181818;stroke-width:1.0;stroke-dasharray:2.0,2.0;" x1="809" x2="856" y1="694.5703" y2="694.5703"/><polygon fill="#181818" points="819,690.5703,809,694.5703,819,698.5703,815,694.5703" style="stroke:#181818;stroke-width:1.0;"/><text fill="#000000" font-family="sans-serif" font-size="13" font-weight="bold" lengthAdjust="spacing" textLength="14" x="821" y="676.7139">13</text><text fill="#000000" font-family="sans-serif" font-size="13" lengthAdjust="spacing" textLength="77" x="839" y="676.7139">taskCategory</text><line style="stroke:#181818;stroke-width:1.0;" x1="809" x2="856" y1="714.9219" y2="714.9219"/><line style="stroke:#181818;stroke-width:1.0;" x1="856" x2="856" y1="714.9219" y2="727.9219"/><line style="stroke:#181818;stroke-width:1.0;" x1="815" x2="856" y1="727.9219" y2="727.9219"/><polygon fill="#181818" points="825,723.9219,815,727.9219,825,731.9219,821,727.9219" style="stroke:#181818;stroke-width:1.0;"/><text fill="#000000" font-family="sans-serif" font-size="13" font-weight="bold" lengthAdjust="spacing" textLength="14" x="821" y="710.0654">14</text><text fill="#000000" font-family="sans-serif" font-size="13" lengthAdjust="spacing" textLength="161" x="839" y="710.0654">getEmployeeFromSession()</text><rect fill="none" height="56.5391" style="stroke:#000000;stroke-width:1.5;" width="160" x="724" y="740.9219"/><path d="M724,740.9219 L786,740.9219 L786,748.9219 L776,758.9219 L724,758.9219 L724,740.9219 " fill="#EEEEEE" style="stroke:#000000;stroke-width:2.0;"/><text fill="#000000" font-family="sans-serif" font-size="13" font-weight="bold" lengthAdjust="spacing" textLength="17" x="737" y="756.417">ref</text><text fill="#000000" font-family="sans-serif" font-size="12" lengthAdjust="spacing" textLength="77" x="765.5" y="775.3789">Get Employee</text><text fill="#000000" font-family="sans-serif" font-size="12" lengthAdjust="spacing" textLength="3" x="802.5" y="790.4727"> </text><line style="stroke:#181818;stroke-width:1.0;" x1="814" x2="856" y1="829.8125" y2="829.8125"/><line style="stroke:#181818;stroke-width:1.0;" x1="856" x2="856" y1="829.8125" y2="842.8125"/><line style="stroke:#181818;stroke-width:1.0;" x1="809" x2="856" y1="842.8125" y2="842.8125"/><polygon fill="#181818" points="819,838.8125,809,842.8125,819,846.8125,815,842.8125" style="stroke:#181818;stroke-width:1.0;"/><text fill="#000000" font-family="sans-serif" font-size="13" font-weight="bold" lengthAdjust="spacing" textLength="14" x="821" y="824.9561">15</text><text fill="#000000" font-family="sans-serif" font-size="13" lengthAdjust="spacing" textLength="56" x="839" y="824.9561">employee</text><polygon fill="#181818" points="1191,880.5156,1201,884.5156,1191,888.5156,1195,884.5156" style="stroke:#181818;stroke-width:1.0;"/><line style="stroke:#181818;stroke-width:1.0;" x1="809" x2="1197" y1="884.5156" y2="884.5156"/><text fill="#000000" font-family="sans-serif" font-size="13" font-weight="bold" lengthAdjust="spacing" textLength="14" x="816" y="871.4834">16</text><text fill="#000000" font-family="sans-serif" font-size="13" lengthAdjust="spacing" textLength="314" x="834" y="863.3076">createTask(reference, description, informalDescription,</text><text fill="#000000" font-family="sans-serif" font-size="13" lengthAdjust="spacing" textLength="357" x="834" y="879.6592">technicalDescription, duration, cost, taskCategory, employee)</text><rect fill="none" height="56.5391" style="stroke:#000000;stroke-width:1.5;" width="104" x="1156" y="892.5156"/><path d="M1156,892.5156 L1218,892.5156 L1218,900.5156 L1208,910.5156 L1156,910.5156 L1156,892.5156 " fill="#EEEEEE" style="stroke:#000000;stroke-width:2.0;"/><text fill="#000000" font-family="sans-serif" font-size="13" font-weight="bold" lengthAdjust="spacing" textLength="17" x="1169" y="908.0107">ref</text><text fill="#000000" font-family="sans-serif" font-size="12" lengthAdjust="spacing" textLength="67" x="1174.5" y="926.9727">Create Task</text><text fill="#000000" font-family="sans-serif" font-size="12" lengthAdjust="spacing" textLength="3" x="1206.5" y="942.0664"> </text><polygon fill="#181818" points="820,972.4063,810,976.4063,820,980.4063,816,976.4063" style="stroke:#181818;stroke-width:1.0;"/><line style="stroke:#181818;stroke-width:1.0;stroke-dasharray:2.0,2.0;" x1="814" x2="1207" y1="976.4063" y2="976.4063"/><text fill="#000000" font-family="sans-serif" font-size="13" font-weight="bold" lengthAdjust="spacing" textLength="14" x="826" y="971.5498">17</text><text fill="#000000" font-family="sans-serif" font-size="13" lengthAdjust="spacing" textLength="25" x="844" y="971.5498">task</text><polygon fill="#181818" points="419,1002.7578,409,1006.7578,419,1010.7578,415,1006.7578" style="stroke:#181818;stroke-width:1.0;"/><line style="stroke:#181818;stroke-width:1.0;stroke-dasharray:2.0,2.0;" x1="413" x2="803" y1="1006.7578" y2="1006.7578"/><text fill="#000000" font-family="sans-serif" font-size="13" font-weight="bold" lengthAdjust="spacing" textLength="14" x="425" y="1001.9014">18</text><text fill="#000000" font-family="sans-serif" font-size="13" lengthAdjust="spacing" textLength="25" x="443" y="1001.9014">task</text><polygon fill="#181818" points="92,1033.1094,82,1037.1094,92,1041.1094,88,1037.1094" style="stroke:#181818;stroke-width:1.0;"/><line style="stroke:#181818;stroke-width:1.0;stroke-dasharray:2.0,2.0;" x1="86" x2="402" y1="1037.1094" y2="1037.1094"/><text fill="#000000" font-family="sans-serif" font-size="13" font-weight="bold" lengthAdjust="spacing" textLength="14" x="98" y="1032.2529">19</text><text fill="#000000" font-family="sans-serif" font-size="13" lengthAdjust="spacing" textLength="158" x="116" y="1032.2529">displays operation success</text><!--SRC=[jLLDRzim3BtxLn2vB2dIFv33WAtjYW8T0lJZbWiZCuuMM_8akPdtwqV9jICtTf81cqy9nVVu-4H9TYTLYGOBABJIOcjqGU1CHOdjLaeKEypesTKvWI7XK6Lvd62tcEgzL1biCBUK95WvhQfYJIP9FcrbIh3HsgtrhmI5qmOcIvEXah_HIQtWhYXpNHDD02rykVsUCAkJGfQe74mMDuRGqGlQtUj3I7bz6CsuqSePdUTaGkRDozDZFrT7XLTg4Ui8YENJVU95oZTc368Iu8z_mFLdhWmBpjfPS1f4g0e8YlRWEDgaTc2M6GB-Oo33lPohAwPee0Ehl9QH2vrmGgQD93kTTOc6Dg3Vo3IDGVJTamCFWtTS3O_IkeC0Kgb77mATp43Lumf2hjjstK5C7JZRj9H6E7mxZFQUBNWszDu64X2jj9nf05bHQwNDYSSAj6eyYPXR4-CDi9HpjcNdUxIdtUy46VfPaMLuYWulAUVgacmBepJWOCfcaY4bQCvuAumi_GpDLqggZJO5vhqmE19R9SM7y4gbbS4cGsZhPXVsq9ZQ-C2AEcCnx78iz28_gtKXOqFEZ70tm7xWneo0reVRNh-T3t6uRyAyDt9HtkpouHqvJVNNc6zwjiwPMgUFvFZHNAv_yCOTSnqTqgCJ-TvLBBoNF7ecXwrfRzvlVEq_axNUbF_GVLjclEFXXZkfr1ByTQzyd__hQOLJuphlj8xu61wOKHlzwf2BpGiNncZGnECWCtsSc37tZYH53y1fvD6k7swf1QJIbZdM5dH9ZM5yqmZ1OpPqAKL__Qlx1m00]--></g></svg>