<?xml version="1.0" encoding="UTF-8" standalone="no"?><svg xmlns="http://www.w3.org/2000/svg" xmlns:xlink="http://www.w3.org/1999/xlink" contentStyleType="text/css" height="797px" preserveAspectRatio="none" style="width:1861px;height:797px;background:#FFFFFF;" version="1.1" viewBox="0 0 1861 797" width="1861px" zoomAndPan="magnify"><defs/><g><rect fill="#FFFFFF" height="638.0313" style="stroke:#181818;stroke-width:1.0;" width="10" x="196" y="87.5703"/><rect fill="#FFFFFF" height="91.0547" style="stroke:#181818;stroke-width:1.0;" width="10" x="643" y="143.2734"/><rect fill="#FFFFFF" height="30.3516" style="stroke:#181818;stroke-width:1.0;" width="10" x="824" y="173.625"/><rect fill="#FFFFFF" height="277.1641" style="stroke:#181818;stroke-width:1.0;" width="10" x="968" y="264.6797"/><rect fill="#FFFFFF" height="184.1094" style="stroke:#181818;stroke-width:1.0;" width="10" x="1270" y="320.3828"/><rect fill="#FFFFFF" height="91.0547" style="stroke:#181818;stroke-width:1.0;" width="10" x="1270" y="597.1953"/><rect fill="#FFFFFF" height="123.4063" style="stroke:#181818;stroke-width:1.0;" width="10" x="1572" y="350.7344"/><rect fill="#FFFFFF" height="30.3516" style="stroke:#181818;stroke-width:1.0;" width="10" x="1572" y="627.5469"/><rect fill="#FFFFFF" height="30.3516" style="stroke:#181818;stroke-width:1.0;" width="10" x="1764" y="406.4375"/><rect height="593.6797" style="stroke:#000000;stroke-width:1.5;fill:none;" width="1749.5" x="106" y="102.5703"/><rect height="232.8125" style="stroke:#000000;stroke-width:1.5;fill:none;" width="949" x="896.5" y="279.6797"/><rect height="79.0547" style="stroke:#000000;stroke-width:1.5;fill:none;" width="336" x="1499.5" y="365.7344"/><line style="stroke:#181818;stroke-width:0.5;fill:none;stroke-dasharray:5.0,5.0;" x1="201" x2="201" y1="55.2188" y2="743.6016"/><line style="stroke:#181818;stroke-width:0.5;fill:none;stroke-dasharray:5.0,5.0;" x1="647.5" x2="647.5" y1="55.2188" y2="743.6016"/><line style="stroke:#181818;stroke-width:0.5;fill:none;stroke-dasharray:5.0,5.0;" x1="828.5" x2="828.5" y1="55.2188" y2="743.6016"/><line style="stroke:#181818;stroke-width:0.5;fill:none;stroke-dasharray:5.0,5.0;" x1="972.5" x2="972.5" y1="55.2188" y2="743.6016"/><line style="stroke:#181818;stroke-width:0.5;fill:none;stroke-dasharray:5.0,5.0;" x1="1274.5" x2="1274.5" y1="55.2188" y2="743.6016"/><line style="stroke:#181818;stroke-width:0.5;fill:none;stroke-dasharray:5.0,5.0;" x1="1576.5" x2="1576.5" y1="55.2188" y2="743.6016"/><line style="stroke:#181818;stroke-width:0.5;fill:none;stroke-dasharray:5.0,5.0;" x1="1768.5" x2="1768.5" y1="55.2188" y2="743.6016"/><rect fill="#E3E3E3" height="31.6094" rx="2.5" ry="2.5" style="stroke:#181818;stroke-width:0.5;" width="170" x="116" y="22.6094"/><text fill="#000000" font-family="sans-serif" font-size="14" lengthAdjust="spacing" textLength="156" x="123" y="44.1426">:OrderRequestController</text><rect fill="#E3E3E3" height="31.6094" rx="2.5" ry="2.5" style="stroke:#181818;stroke-width:0.5;" width="170" x="116" y="742.6016"/><text fill="#000000" font-family="sans-serif" font-size="14" lengthAdjust="spacing" textLength="156" x="123" y="764.1348">:OrderRequestController</text><rect fill="#E3E3E3" height="31.6094" rx="2.5" ry="2.5" style="stroke:#181818;stroke-width:0.5;" width="161" x="567.5" y="22.6094"/><text fill="#000000" font-family="sans-serif" font-size="14" lengthAdjust="spacing" textLength="147" x="574.5" y="44.1426">:AnnouncementMapper</text><rect fill="#E3E3E3" height="31.6094" rx="2.5" ry="2.5" style="stroke:#181818;stroke-width:0.5;" width="161" x="567.5" y="742.6016"/><text fill="#000000" font-family="sans-serif" font-size="14" lengthAdjust="spacing" textLength="147" x="574.5" y="764.1348">:AnnouncementMapper</text><rect fill="#E3E3E3" height="49.2188" rx="2.5" ry="2.5" style="stroke:#181818;stroke-width:0.5;" width="135" x="761.5" y="5"/><text fill="#000000" font-family="sans-serif" font-size="14" lengthAdjust="spacing" textLength="116" x="771" y="26.5332">announcementDto</text><text fill="#000000" font-family="sans-serif" font-size="14" lengthAdjust="spacing" textLength="121" x="768.5" y="44.1426">:AnnouncementDto</text><rect fill="#E3E3E3" height="49.2188" rx="2.5" ry="2.5" style="stroke:#181818;stroke-width:0.5;" width="135" x="761.5" y="742.6016"/><text fill="#000000" font-family="sans-serif" font-size="14" lengthAdjust="spacing" textLength="116" x="771" y="764.1348">announcementDto</text><text fill="#000000" font-family="sans-serif" font-size="14" lengthAdjust="spacing" textLength="121" x="768.5" y="781.7441">:AnnouncementDto</text><rect fill="#E3E3E3" height="49.2188" rx="2.5" ry="2.5" style="stroke:#181818;stroke-width:0.5;" width="133" x="906.5" y="5"/><text fill="#000000" font-family="sans-serif" font-size="14" lengthAdjust="spacing" textLength="114" x="916" y="26.5332">agencyRepository</text><text fill="#000000" font-family="sans-serif" font-size="14" lengthAdjust="spacing" textLength="119" x="913.5" y="44.1426">:AgencyRepository</text><rect fill="#E3E3E3" height="49.2188" rx="2.5" ry="2.5" style="stroke:#181818;stroke-width:0.5;" width="133" x="906.5" y="742.6016"/><text fill="#000000" font-family="sans-serif" font-size="14" lengthAdjust="spacing" textLength="114" x="916" y="764.1348">agencyRepository</text><text fill="#000000" font-family="sans-serif" font-size="14" lengthAdjust="spacing" textLength="119" x="913.5" y="781.7441">:AgencyRepository</text><rect fill="#E3E3E3" height="49.2188" rx="2.5" ry="2.5" style="stroke:#181818;stroke-width:0.5;" width="65" x="1242.5" y="5"/><text fill="#000000" font-family="sans-serif" font-size="14" lengthAdjust="spacing" textLength="46" x="1252" y="26.5332">agency</text><text fill="#000000" font-family="sans-serif" font-size="14" lengthAdjust="spacing" textLength="51" x="1249.5" y="44.1426">:Agency</text><rect fill="#E3E3E3" height="49.2188" rx="2.5" ry="2.5" style="stroke:#181818;stroke-width:0.5;" width="65" x="1242.5" y="742.6016"/><text fill="#000000" font-family="sans-serif" font-size="14" lengthAdjust="spacing" textLength="46" x="1252" y="764.1348">agency</text><text fill="#000000" font-family="sans-serif" font-size="14" lengthAdjust="spacing" textLength="51" x="1249.5" y="781.7441">:Agency</text><rect fill="#E3E3E3" height="49.2188" rx="2.5" ry="2.5" style="stroke:#181818;stroke-width:0.5;" width="135" x="1509.5" y="5"/><text fill="#000000" font-family="sans-serif" font-size="14" lengthAdjust="spacing" textLength="116" x="1519" y="26.5332">announcementList</text><text fill="#000000" font-family="sans-serif" font-size="14" lengthAdjust="spacing" textLength="121" x="1516.5" y="44.1426">:AnnouncementList</text><rect fill="#E3E3E3" height="49.2188" rx="2.5" ry="2.5" style="stroke:#181818;stroke-width:0.5;" width="135" x="1509.5" y="742.6016"/><text fill="#000000" font-family="sans-serif" font-size="14" lengthAdjust="spacing" textLength="116" x="1519" y="764.1348">announcementList</text><text fill="#000000" font-family="sans-serif" font-size="14" lengthAdjust="spacing" textLength="121" x="1516.5" y="781.7441">:AnnouncementList</text><rect fill="#E3E3E3" height="49.2188" rx="2.5" ry="2.5" style="stroke:#181818;stroke-width:0.5;" width="113" x="1712.5" y="5"/><text fill="#000000" font-family="sans-serif" font-size="14" lengthAdjust="spacing" textLength="94" x="1722" y="26.5332">announcement</text><text fill="#000000" font-family="sans-serif" font-size="14" lengthAdjust="spacing" textLength="99" x="1719.5" y="44.1426">:Announcement</text><rect fill="#E3E3E3" height="49.2188" rx="2.5" ry="2.5" style="stroke:#181818;stroke-width:0.5;" width="113" x="1712.5" y="742.6016"/><text fill="#000000" font-family="sans-serif" font-size="14" lengthAdjust="spacing" textLength="94" x="1722" y="764.1348">announcement</text><text fill="#000000" font-family="sans-serif" font-size="14" lengthAdjust="spacing" textLength="99" x="1719.5" y="781.7441">:Announcement</text><rect fill="#FFFFFF" height="638.0313" style="stroke:#181818;stroke-width:1.0;" width="10" x="196" y="87.5703"/><rect fill="#FFFFFF" height="91.0547" style="stroke:#181818;stroke-width:1.0;" width="10" x="643" y="143.2734"/><rect fill="#FFFFFF" height="30.3516" style="stroke:#181818;stroke-width:1.0;" width="10" x="824" y="173.625"/><rect fill="#FFFFFF" height="277.1641" style="stroke:#181818;stroke-width:1.0;" width="10" x="968" y="264.6797"/><rect fill="#FFFFFF" height="184.1094" style="stroke:#181818;stroke-width:1.0;" width="10" x="1270" y="320.3828"/><rect fill="#FFFFFF" height="91.0547" style="stroke:#181818;stroke-width:1.0;" width="10" x="1270" y="597.1953"/><rect fill="#FFFFFF" height="123.4063" style="stroke:#181818;stroke-width:1.0;" width="10" x="1572" y="350.7344"/><rect fill="#FFFFFF" height="30.3516" style="stroke:#181818;stroke-width:1.0;" width="10" x="1572" y="627.5469"/><rect fill="#FFFFFF" height="30.3516" style="stroke:#181818;stroke-width:1.0;" width="10" x="1764" y="406.4375"/><polygon fill="#181818" points="184,83.5703,194,87.5703,184,91.5703,188,87.5703" style="stroke:#181818;stroke-width:1.0;"/><line style="stroke:#181818;stroke-width:1.0;" x1="0" x2="190" y1="87.5703" y2="87.5703"/><text fill="#000000" font-family="sans-serif" font-size="13" font-weight="bold" lengthAdjust="spacing" textLength="14" x="7" y="82.7139">26</text><text fill="#000000" font-family="sans-serif" font-size="13" lengthAdjust="spacing" textLength="159" x="25" y="82.7139">toModel(announcementDto)</text><path d="M106,102.5703 L390,102.5703 L390,110.9219 L380,120.9219 L106,120.9219 L106,102.5703 " fill="#EEEEEE" style="stroke:#000000;stroke-width:1.5;"/><rect fill="none" height="593.6797" style="stroke:#000000;stroke-width:1.5;" width="1749.5" x="106" y="102.5703"/><text fill="#000000" font-family="sans-serif" font-size="13" font-weight="bold" lengthAdjust="spacing" textLength="239" x="121" y="117.0654">Convert Announcement DTO to Model</text><polygon fill="#181818" points="631,139.2734,641,143.2734,631,147.2734,635,143.2734" style="stroke:#181818;stroke-width:1.0;"/><line style="stroke:#181818;stroke-width:1.0;" x1="206" x2="637" y1="143.2734" y2="143.2734"/><text fill="#000000" font-family="sans-serif" font-size="13" font-weight="bold" lengthAdjust="spacing" textLength="25" x="213" y="138.417">26.1</text><text fill="#000000" font-family="sans-serif" font-size="13" lengthAdjust="spacing" textLength="389" x="242" y="138.417">announcementId = getAnnouncementIdFromDto(announcementDto)</text><polygon fill="#181818" points="812,169.625,822,173.625,812,177.625,816,173.625" style="stroke:#181818;stroke-width:1.0;"/><line style="stroke:#181818;stroke-width:1.0;" x1="653" x2="818" y1="173.625" y2="173.625"/><text fill="#000000" font-family="sans-serif" font-size="13" font-weight="bold" lengthAdjust="spacing" textLength="25" x="660" y="168.7686">26.2</text><text fill="#000000" font-family="sans-serif" font-size="13" lengthAdjust="spacing" textLength="123" x="689" y="168.7686">getAnnouncementId()</text><polygon fill="#181818" points="664,199.9766,654,203.9766,664,207.9766,660,203.9766" style="stroke:#181818;stroke-width:1.0;"/><line style="stroke:#181818;stroke-width:1.0;stroke-dasharray:2.0,2.0;" x1="658" x2="828" y1="203.9766" y2="203.9766"/><text fill="#000000" font-family="sans-serif" font-size="13" font-weight="bold" lengthAdjust="spacing" textLength="25" x="670" y="199.1201">26.3</text><text fill="#000000" font-family="sans-serif" font-size="13" lengthAdjust="spacing" textLength="95" x="699" y="199.1201">announcementId</text><polygon fill="#181818" points="217,230.3281,207,234.3281,217,238.3281,213,234.3281" style="stroke:#181818;stroke-width:1.0;"/><line style="stroke:#181818;stroke-width:1.0;stroke-dasharray:2.0,2.0;" x1="211" x2="647" y1="234.3281" y2="234.3281"/><text fill="#000000" font-family="sans-serif" font-size="13" font-weight="bold" lengthAdjust="spacing" textLength="25" x="223" y="229.4717">26.4</text><text fill="#000000" font-family="sans-serif" font-size="13" lengthAdjust="spacing" textLength="95" x="252" y="229.4717">announcementId</text><polygon fill="#181818" points="956,260.6797,966,264.6797,956,268.6797,960,264.6797" style="stroke:#181818;stroke-width:1.0;"/><line style="stroke:#181818;stroke-width:1.0;" x1="206" x2="962" y1="264.6797" y2="264.6797"/><text fill="#000000" font-family="sans-serif" font-size="13" font-weight="bold" lengthAdjust="spacing" textLength="25" x="213" y="259.8232">26.5</text><text fill="#000000" font-family="sans-serif" font-size="13" lengthAdjust="spacing" textLength="278" x="242" y="259.8232">getAgencyByAnnouncementId(announcementId)</text><path d="M896.5,279.6797 L969.5,279.6797 L969.5,288.0313 L959.5,298.0313 L896.5,298.0313 L896.5,279.6797 " fill="#EEEEEE" style="stroke:#000000;stroke-width:1.5;"/><rect fill="none" height="232.8125" style="stroke:#000000;stroke-width:1.5;" width="949" x="896.5" y="279.6797"/><text fill="#000000" font-family="sans-serif" font-size="13" font-weight="bold" lengthAdjust="spacing" textLength="28" x="911.5" y="294.1748">loop</text><text fill="#000000" font-family="sans-serif" font-size="11" font-weight="bold" lengthAdjust="spacing" textLength="92" x="984.5" y="293.0986">[for all agencies]</text><polygon fill="#181818" points="1258,316.3828,1268,320.3828,1258,324.3828,1262,320.3828" style="stroke:#181818;stroke-width:1.0;"/><line style="stroke:#181818;stroke-width:1.0;" x1="978" x2="1264" y1="320.3828" y2="320.3828"/><text fill="#000000" font-family="sans-serif" font-size="13" font-weight="bold" lengthAdjust="spacing" textLength="25" x="985" y="315.5264">26.6</text><text fill="#000000" font-family="sans-serif" font-size="13" lengthAdjust="spacing" textLength="244" x="1014" y="315.5264">anyAnnouncementHasId(announcementId)</text><polygon fill="#181818" points="1560,346.7344,1570,350.7344,1560,354.7344,1564,350.7344" style="stroke:#181818;stroke-width:1.0;"/><line style="stroke:#181818;stroke-width:1.0;" x1="1280" x2="1566" y1="350.7344" y2="350.7344"/><text fill="#000000" font-family="sans-serif" font-size="13" font-weight="bold" lengthAdjust="spacing" textLength="25" x="1287" y="345.8779">26.7</text><text fill="#000000" font-family="sans-serif" font-size="13" lengthAdjust="spacing" textLength="244" x="1316" y="345.8779">anyAnnouncementHasId(announcementId)</text><path d="M1499.5,365.7344 L1572.5,365.7344 L1572.5,374.0859 L1562.5,384.0859 L1499.5,384.0859 L1499.5,365.7344 " fill="#EEEEEE" style="stroke:#000000;stroke-width:1.5;"/><rect fill="none" height="79.0547" style="stroke:#000000;stroke-width:1.5;" width="336" x="1499.5" y="365.7344"/><text fill="#000000" font-family="sans-serif" font-size="13" font-weight="bold" lengthAdjust="spacing" textLength="28" x="1514.5" y="380.2295">loop</text><text fill="#000000" font-family="sans-serif" font-size="11" font-weight="bold" lengthAdjust="spacing" textLength="132" x="1587.5" y="379.1533">[for all announcements]</text><polygon fill="#181818" points="1752,402.4375,1762,406.4375,1752,410.4375,1756,406.4375" style="stroke:#181818;stroke-width:1.0;"/><line style="stroke:#181818;stroke-width:1.0;stroke-dasharray:2.0,2.0;" x1="1582" x2="1758" y1="406.4375" y2="406.4375"/><text fill="#000000" font-family="sans-serif" font-size="13" font-weight="bold" lengthAdjust="spacing" textLength="25" x="1589" y="401.5811">26.8</text><text fill="#000000" font-family="sans-serif" font-size="13" lengthAdjust="spacing" textLength="134" x="1618" y="401.5811">hasId(announcementId)</text><polygon fill="#181818" points="1593,432.7891,1583,436.7891,1593,440.7891,1589,436.7891" style="stroke:#181818;stroke-width:1.0;"/><line style="stroke:#181818;stroke-width:1.0;stroke-dasharray:2.0,2.0;" x1="1587" x2="1768" y1="436.7891" y2="436.7891"/><text fill="#000000" font-family="sans-serif" font-size="13" font-weight="bold" lengthAdjust="spacing" textLength="25" x="1599" y="431.9326">26.9</text><text fill="#000000" font-family="sans-serif" font-size="13" lengthAdjust="spacing" textLength="53" x="1628" y="431.9326">true/false</text><polygon fill="#181818" points="1291,470.1406,1281,474.1406,1291,478.1406,1287,474.1406" style="stroke:#181818;stroke-width:1.0;"/><line style="stroke:#181818;stroke-width:1.0;stroke-dasharray:2.0,2.0;" x1="1285" x2="1576" y1="474.1406" y2="474.1406"/><text fill="#000000" font-family="sans-serif" font-size="13" font-weight="bold" lengthAdjust="spacing" textLength="32" x="1297" y="469.2842">26.10</text><text fill="#000000" font-family="sans-serif" font-size="13" lengthAdjust="spacing" textLength="53" x="1333" y="469.2842">true/false</text><polygon fill="#181818" points="989,500.4922,979,504.4922,989,508.4922,985,504.4922" style="stroke:#181818;stroke-width:1.0;"/><line style="stroke:#181818;stroke-width:1.0;stroke-dasharray:2.0,2.0;" x1="983" x2="1274" y1="504.4922" y2="504.4922"/><text fill="#000000" font-family="sans-serif" font-size="13" font-weight="bold" lengthAdjust="spacing" textLength="32" x="995" y="499.6357">26.11</text><text fill="#000000" font-family="sans-serif" font-size="13" lengthAdjust="spacing" textLength="53" x="1031" y="499.6357">true/false</text><polygon fill="#181818" points="217,537.8438,207,541.8438,217,545.8438,213,541.8438" style="stroke:#181818;stroke-width:1.0;"/><line style="stroke:#181818;stroke-width:1.0;stroke-dasharray:2.0,2.0;" x1="211" x2="972" y1="541.8438" y2="541.8438"/><text fill="#000000" font-family="sans-serif" font-size="13" font-weight="bold" lengthAdjust="spacing" textLength="32" x="223" y="536.9873">26.12</text><text fill="#000000" font-family="sans-serif" font-size="13" lengthAdjust="spacing" textLength="42" x="259" y="536.9873">agency</text><polygon fill="#181818" points="1258,593.1953,1268,597.1953,1258,601.1953,1262,597.1953" style="stroke:#181818;stroke-width:1.0;"/><line style="stroke:#181818;stroke-width:1.0;" x1="206" x2="1264" y1="597.1953" y2="597.1953"/><text fill="#000000" font-family="sans-serif" font-size="13" font-weight="bold" lengthAdjust="spacing" textLength="32" x="213" y="592.3389">26.13</text><text fill="#000000" font-family="sans-serif" font-size="13" lengthAdjust="spacing" textLength="234" x="249" y="592.3389">getAnnouncementById(announcementId)</text><polygon fill="#181818" points="1560,623.5469,1570,627.5469,1560,631.5469,1564,627.5469" style="stroke:#181818;stroke-width:1.0;"/><line style="stroke:#181818;stroke-width:1.0;" x1="1280" x2="1566" y1="627.5469" y2="627.5469"/><text fill="#000000" font-family="sans-serif" font-size="13" font-weight="bold" lengthAdjust="spacing" textLength="32" x="1287" y="622.6904">26.14</text><text fill="#000000" font-family="sans-serif" font-size="13" lengthAdjust="spacing" textLength="234" x="1323" y="622.6904">getAnnouncementById(announcementId)</text><polygon fill="#181818" points="1291,653.8984,1281,657.8984,1291,661.8984,1287,657.8984" style="stroke:#181818;stroke-width:1.0;"/><line style="stroke:#181818;stroke-width:1.0;stroke-dasharray:2.0,2.0;" x1="1285" x2="1576" y1="657.8984" y2="657.8984"/><text fill="#000000" font-family="sans-serif" font-size="13" font-weight="bold" lengthAdjust="spacing" textLength="32" x="1297" y="653.042">26.15</text><text fill="#000000" font-family="sans-serif" font-size="13" lengthAdjust="spacing" textLength="85" x="1333" y="653.042">announcement</text><polygon fill="#181818" points="217,684.25,207,688.25,217,692.25,213,688.25" style="stroke:#181818;stroke-width:1.0;"/><line style="stroke:#181818;stroke-width:1.0;stroke-dasharray:2.0,2.0;" x1="211" x2="1274" y1="688.25" y2="688.25"/><text fill="#000000" font-family="sans-serif" font-size="13" font-weight="bold" lengthAdjust="spacing" textLength="32" x="223" y="683.3936">26.16</text><text fill="#000000" font-family="sans-serif" font-size="13" lengthAdjust="spacing" textLength="85" x="259" y="683.3936">announcement</text><polygon fill="#181818" points="11,721.6016,1,725.6016,11,729.6016,7,725.6016" style="stroke:#181818;stroke-width:1.0;"/><line style="stroke:#181818;stroke-width:1.0;stroke-dasharray:2.0,2.0;" x1="5" x2="200" y1="725.6016" y2="725.6016"/><text fill="#000000" font-family="sans-serif" font-size="13" font-weight="bold" lengthAdjust="spacing" textLength="14" x="17" y="720.7451">27</text><text fill="#000000" font-family="sans-serif" font-size="13" lengthAdjust="spacing" textLength="85" x="35" y="720.7451">announcement</text><!--MD5=[7bb710d61d34ce4b74517a0a344dbd11]
@startuml
skinparam monochrome true
skinparam packageStyle rectangle
skinparam shadowing false


participant ":OrderRequestController" as CTRL
participant ":AnnouncementMapper" as MAPPER
participant "announcementDto\n:AnnouncementDto" as ANCDTO
participant "agencyRepository\n:AgencyRepository" as AgencyRepository
participant "agency\n:Agency" as AGC
participant "announcementList\n:AnnouncementList" as LISTCLASS
participant "announcement\n:Announcement" as ANNOUNCE


autonumber 26

 -> CTRL : toModel(announcementDto)

activate CTRL

    autonumber 26.1

    group Convert Announcement DTO to Model

        CTRL -> MAPPER : announcementId = getAnnouncementIdFromDto(announcementDto)
        activate MAPPER

        MAPPER -> ANCDTO : getAnnouncementId()
        activate ANCDTO

            ANCDTO - -> MAPPER : announcementId
        deactivate ANCDTO

            MAPPER - -> CTRL : announcementId
        deactivate MAPPER


        CTRL -> AgencyRepository : getAgencyByAnnouncementId(announcementId)
         activate AgencyRepository

            loop for all agencies

                AgencyRepository -> AGC : anyAnnouncementHasId(announcementId)
                activate AGC

                    AGC -> LISTCLASS : anyAnnouncementHasId(announcementId)

                    loop for all announcements

                        activate LISTCLASS

                        LISTCLASS - -> ANNOUNCE : hasId(announcementId)

                        activate ANNOUNCE

                            ANNOUNCE - -> LISTCLASS : true/false
                        deactivate ANNOUNCE

                    end loop

                LISTCLASS - -> AGC : true/false
                deactivate LISTCLASS

            AGC - -> AgencyRepository : true/false
            deactivate AGC

        end loop

        AgencyRepository - -> CTRL : agency
        deactivate AgencyRepository
|||

        CTRL -> AGC : getAnnouncementById(announcementId)
        activate AGC

        AGC -> LISTCLASS : getAnnouncementById(announcementId)
        activate LISTCLASS

            LISTCLASS - -> AGC : announcement
        deactivate LISTCLASS

            AGC - -> CTRL : announcement
        deactivate AGC


    end group

    autonumber 27

    <- - CTRL  : announcement
deactivate CTRL

@enduml

PlantUML version 1.2022.4(Sat Apr 09 14:29:17 BST 2022)
(GPL source distribution)
Java Runtime: OpenJDK Runtime Environment
JVM: OpenJDK 64-Bit Server VM
Default Encoding: Cp1252
Language: pt
Country: PT
--></g></svg>