<?xml version="1.0" encoding="UTF-8" standalone="no"?><svg xmlns="http://www.w3.org/2000/svg" xmlns:xlink="http://www.w3.org/1999/xlink" contentStyleType="text/css" height="1769px" preserveAspectRatio="none" style="width:1147px;height:1769px;background:#FFFFFF;" version="1.1" viewBox="0 0 1147 1769" width="1147px" zoomAndPan="magnify"><defs/><g><rect fill="#FFFFFF" height="1576.6797" style="stroke:#181818;stroke-width:1.0;" width="10" x="46" y="92.6094"/><rect fill="#FFFFFF" height="424.9609" style="stroke:#181818;stroke-width:1.0;" width="10" x="349" y="114.9609"/><rect fill="#FFFFFF" height="224.2031" style="stroke:#181818;stroke-width:1.0;" width="10" x="349" y="595.625"/><rect fill="#FFFFFF" height="309.9063" style="stroke:#181818;stroke-width:1.0;" width="10" x="349" y="875.5313"/><rect fill="#FFFFFF" height="152.5938" style="stroke:#181818;stroke-width:1.0;" width="10" x="349" y="1229.7891"/><rect fill="#FFFFFF" height="231.2031" style="stroke:#181818;stroke-width:1.0;" width="10" x="349" y="1438.0859"/><rect fill="#FFFFFF" height="321.6484" style="stroke:#181818;stroke-width:1.0;" width="10" x="765" y="187.9219"/><rect fill="#FFFFFF" height="87.7969" style="stroke:#181818;stroke-width:1.0;" width="10" x="770" y="226.2734"/><rect fill="#FFFFFF" height="87.7969" style="stroke:#181818;stroke-width:1.0;" width="10" x="770" y="384.4219"/><rect fill="#FFFFFF" height="163.5" style="stroke:#181818;stroke-width:1.0;" width="10" x="765" y="625.9766"/><rect fill="#FFFFFF" height="87.7969" style="stroke:#181818;stroke-width:1.0;" width="10" x="770" y="664.3281"/><rect fill="#FFFFFF" height="249.2031" style="stroke:#181818;stroke-width:1.0;" width="10" x="765" y="905.8828"/><rect fill="#FFFFFF" height="87.7969" style="stroke:#181818;stroke-width:1.0;" width="10" x="770" y="1029.9375"/><rect fill="#FFFFFF" height="91.8906" style="stroke:#181818;stroke-width:1.0;" width="10" x="765" y="1260.1406"/><rect fill="#FFFFFF" height="170.5" style="stroke:#181818;stroke-width:1.0;" width="10" x="765" y="1468.4375"/><rect fill="#FFFFFF" height="30.3516" style="stroke:#181818;stroke-width:1.0;" width="10" x="1049" y="936.2344"/><rect height="645.5156" style="stroke:#000000;stroke-width:1.5;fill:none;" width="1131.5" x="10" y="554.9219"/><rect height="358.6094" style="stroke:#000000;stroke-width:1.5;fill:none;" width="1111.5" x="20" y="834.8281"/><rect height="212.2031" style="stroke:#000000;stroke-width:1.5;fill:none;" width="951" x="20" y="1397.3828"/><line style="stroke:#181818;stroke-width:0.5;fill:none;stroke-dasharray:5.0,5.0;" x1="51" x2="51" y1="82.6094" y2="1687.2891"/><line style="stroke:#181818;stroke-width:0.5;fill:none;stroke-dasharray:5.0,5.0;" x1="354" x2="354" y1="82.6094" y2="1687.2891"/><line style="stroke:#181818;stroke-width:0.5;fill:none;stroke-dasharray:5.0,5.0;" x1="770" x2="770" y1="154.2656" y2="1687.2891"/><line style="stroke:#181818;stroke-width:0.5;fill:none;stroke-dasharray:5.0,5.0;" x1="1053.5" x2="1053.5" y1="82.6094" y2="1687.2891"/><text fill="#000000" font-family="sans-serif" font-size="14" lengthAdjust="spacing" textLength="36" x="30" y="79.5332">Client</text><ellipse cx="51" cy="13.5" fill="#E3E3E3" rx="8" ry="8" style="stroke:#181818;stroke-width:0.5;"/><path d="M51,21.5 L51,48.5 M38,29.5 L64,29.5 M51,48.5 L38,63.5 M51,48.5 L64,63.5 " fill="none" style="stroke:#181818;stroke-width:0.5;"/><text fill="#000000" font-family="sans-serif" font-size="14" lengthAdjust="spacing" textLength="36" x="30" y="1700.8223">Client</text><ellipse cx="51" cy="1712.3984" fill="#E3E3E3" rx="8" ry="8" style="stroke:#181818;stroke-width:0.5;"/><path d="M51,1720.3984 L51,1747.3984 M38,1728.3984 L64,1728.3984 M51,1747.3984 L38,1762.3984 M51,1747.3984 L64,1762.3984 " fill="none" style="stroke:#181818;stroke-width:0.5;"/><rect fill="#E3E3E3" height="31.6094" rx="2.5" ry="2.5" style="stroke:#181818;stroke-width:0.5;" width="120" x="294" y="50"/><text fill="#000000" font-family="sans-serif" font-size="14" lengthAdjust="spacing" textLength="106" x="301" y="71.5332">:OrderRequestUI</text><rect fill="#E3E3E3" height="31.6094" rx="2.5" ry="2.5" style="stroke:#181818;stroke-width:0.5;" width="120" x="294" y="1686.2891"/><text fill="#000000" font-family="sans-serif" font-size="14" lengthAdjust="spacing" textLength="106" x="301" y="1707.8223">:OrderRequestUI</text><rect fill="#E3E3E3" height="31.6094" rx="2.5" ry="2.5" style="stroke:#181818;stroke-width:0.5;" width="170" x="685" y="1686.2891"/><text fill="#000000" font-family="sans-serif" font-size="14" lengthAdjust="spacing" textLength="156" x="692" y="1707.8223">:OrderRequestController</text><rect fill="#E3E3E3" height="49.2188" rx="2.5" ry="2.5" style="stroke:#181818;stroke-width:0.5;" width="135" x="986.5" y="32.3906"/><text fill="#000000" font-family="sans-serif" font-size="14" lengthAdjust="spacing" textLength="116" x="996" y="53.9238">announcementList</text><text fill="#000000" font-family="sans-serif" font-size="14" lengthAdjust="spacing" textLength="121" x="993.5" y="71.5332">:AnnouncementList</text><rect fill="#E3E3E3" height="49.2188" rx="2.5" ry="2.5" style="stroke:#181818;stroke-width:0.5;" width="135" x="986.5" y="1686.2891"/><text fill="#000000" font-family="sans-serif" font-size="14" lengthAdjust="spacing" textLength="116" x="996" y="1707.8223">announcementList</text><text fill="#000000" font-family="sans-serif" font-size="14" lengthAdjust="spacing" textLength="121" x="993.5" y="1725.4316">:AnnouncementList</text><rect fill="#FFFFFF" height="1576.6797" style="stroke:#181818;stroke-width:1.0;" width="10" x="46" y="92.6094"/><rect fill="#FFFFFF" height="424.9609" style="stroke:#181818;stroke-width:1.0;" width="10" x="349" y="114.9609"/><rect fill="#FFFFFF" height="224.2031" style="stroke:#181818;stroke-width:1.0;" width="10" x="349" y="595.625"/><rect fill="#FFFFFF" height="309.9063" style="stroke:#181818;stroke-width:1.0;" width="10" x="349" y="875.5313"/><rect fill="#FFFFFF" height="152.5938" style="stroke:#181818;stroke-width:1.0;" width="10" x="349" y="1229.7891"/><rect fill="#FFFFFF" height="231.2031" style="stroke:#181818;stroke-width:1.0;" width="10" x="349" y="1438.0859"/><rect fill="#FFFFFF" height="321.6484" style="stroke:#181818;stroke-width:1.0;" width="10" x="765" y="187.9219"/><rect fill="#FFFFFF" height="87.7969" style="stroke:#181818;stroke-width:1.0;" width="10" x="770" y="226.2734"/><rect fill="#FFFFFF" height="87.7969" style="stroke:#181818;stroke-width:1.0;" width="10" x="770" y="384.4219"/><rect fill="#FFFFFF" height="163.5" style="stroke:#181818;stroke-width:1.0;" width="10" x="765" y="625.9766"/><rect fill="#FFFFFF" height="87.7969" style="stroke:#181818;stroke-width:1.0;" width="10" x="770" y="664.3281"/><rect fill="#FFFFFF" height="249.2031" style="stroke:#181818;stroke-width:1.0;" width="10" x="765" y="905.8828"/><rect fill="#FFFFFF" height="87.7969" style="stroke:#181818;stroke-width:1.0;" width="10" x="770" y="1029.9375"/><rect fill="#FFFFFF" height="91.8906" style="stroke:#181818;stroke-width:1.0;" width="10" x="765" y="1260.1406"/><rect fill="#FFFFFF" height="170.5" style="stroke:#181818;stroke-width:1.0;" width="10" x="765" y="1468.4375"/><rect fill="#FFFFFF" height="30.3516" style="stroke:#181818;stroke-width:1.0;" width="10" x="1049" y="936.2344"/><polygon fill="#181818" points="337,110.9609,347,114.9609,337,118.9609,341,114.9609" style="stroke:#181818;stroke-width:1.0;"/><line style="stroke:#181818;stroke-width:1.0;" x1="56" x2="343" y1="114.9609" y2="114.9609"/><text fill="#000000" font-family="sans-serif" font-size="13" font-weight="bold" lengthAdjust="spacing" textLength="7" x="63" y="110.1045">1</text><text fill="#000000" font-family="sans-serif" font-size="13" lengthAdjust="spacing" textLength="263" x="74" y="110.1045">asks to initiate an order request for a property</text><polygon fill="#181818" points="673,141.3125,683,145.3125,673,149.3125,677,145.3125" style="stroke:#181818;stroke-width:1.0;"/><line style="stroke:#181818;stroke-width:1.0;" x1="359" x2="679" y1="145.3125" y2="145.3125"/><text fill="#000000" font-family="sans-serif" font-size="13" font-weight="bold" lengthAdjust="spacing" textLength="7" x="366" y="140.4561">2</text><text fill="#000000" font-family="sans-serif" font-size="13" lengthAdjust="spacing" textLength="36" x="377" y="140.4561">create</text><rect fill="#E3E3E3" height="31.6094" rx="2.5" ry="2.5" style="stroke:#181818;stroke-width:0.5;" width="170" x="685" y="122.9609"/><text fill="#000000" font-family="sans-serif" font-size="14" lengthAdjust="spacing" textLength="156" x="692" y="144.4941">:OrderRequestController</text><polygon fill="#181818" points="753,183.9219,763,187.9219,753,191.9219,757,187.9219" style="stroke:#181818;stroke-width:1.0;"/><line style="stroke:#181818;stroke-width:1.0;" x1="359" x2="759" y1="187.9219" y2="187.9219"/><text fill="#000000" font-family="sans-serif" font-size="13" font-weight="bold" lengthAdjust="spacing" textLength="7" x="366" y="183.0654">3</text><text fill="#000000" font-family="sans-serif" font-size="13" lengthAdjust="spacing" textLength="154" x="377" y="183.0654">getAnnouncementListDto()</text><line style="stroke:#181818;stroke-width:1.0;" x1="775" x2="822" y1="213.2734" y2="213.2734"/><line style="stroke:#181818;stroke-width:1.0;" x1="822" x2="822" y1="213.2734" y2="226.2734"/><line style="stroke:#181818;stroke-width:1.0;" x1="781" x2="822" y1="226.2734" y2="226.2734"/><polygon fill="#181818" points="791,222.2734,781,226.2734,791,230.2734,787,226.2734" style="stroke:#181818;stroke-width:1.0;"/><text fill="#000000" font-family="sans-serif" font-size="13" font-weight="bold" lengthAdjust="spacing" textLength="7" x="787" y="208.417">4</text><text fill="#000000" font-family="sans-serif" font-size="13" lengthAdjust="spacing" textLength="134" x="798" y="208.417">getAnnouncementList()</text><rect height="41.4453" style="stroke:#000000;stroke-width:1.5;fill:none;" width="176" x="682" y="239.2734"/><path d="M682,239.2734 L744,239.2734 L744,247.2734 L734,257.2734 L682,257.2734 L682,239.2734 " fill="#EEEEEE" style="stroke:#000000;stroke-width:2.0;"/><text fill="#000000" font-family="sans-serif" font-size="13" font-weight="bold" lengthAdjust="spacing" textLength="17" x="695" y="254.7686">ref</text><text fill="#000000" font-family="sans-serif" font-size="12" lengthAdjust="spacing" textLength="135" x="702.5" y="273.7305">Get Announcements List</text><line style="stroke:#181818;stroke-width:1.0;stroke-dasharray:2.0,2.0;" x1="780" x2="822" y1="313.0703" y2="313.0703"/><line style="stroke:#181818;stroke-width:1.0;stroke-dasharray:2.0,2.0;" x1="822" x2="822" y1="313.0703" y2="326.0703"/><line style="stroke:#181818;stroke-width:1.0;stroke-dasharray:2.0,2.0;" x1="775" x2="822" y1="326.0703" y2="326.0703"/><polygon fill="#181818" points="785,322.0703,775,326.0703,785,330.0703,781,326.0703" style="stroke:#181818;stroke-width:1.0;"/><text fill="#000000" font-family="sans-serif" font-size="13" font-weight="bold" lengthAdjust="spacing" textLength="7" x="787" y="308.2139">5</text><text fill="#000000" font-family="sans-serif" font-size="13" lengthAdjust="spacing" textLength="74" x="798" y="308.2139">listToDisplay</text><line style="stroke:#181818;stroke-width:1.0;" x1="775" x2="822" y1="371.4219" y2="371.4219"/><line style="stroke:#181818;stroke-width:1.0;" x1="822" x2="822" y1="371.4219" y2="384.4219"/><line style="stroke:#181818;stroke-width:1.0;" x1="781" x2="822" y1="384.4219" y2="384.4219"/><polygon fill="#181818" points="791,380.4219,781,384.4219,791,388.4219,787,384.4219" style="stroke:#181818;stroke-width:1.0;"/><text fill="#000000" font-family="sans-serif" font-size="13" font-weight="bold" lengthAdjust="spacing" textLength="7" x="787" y="366.5654">6</text><text fill="#000000" font-family="sans-serif" font-size="13" lengthAdjust="spacing" textLength="113" x="798" y="366.5654">toDto(listToDisplay)</text><rect height="41.4453" style="stroke:#000000;stroke-width:1.5;fill:none;" width="176" x="682" y="397.4219"/><path d="M682,397.4219 L744,397.4219 L744,405.4219 L734,415.4219 L682,415.4219 L682,397.4219 " fill="#EEEEEE" style="stroke:#000000;stroke-width:2.0;"/><text fill="#000000" font-family="sans-serif" font-size="13" font-weight="bold" lengthAdjust="spacing" textLength="17" x="695" y="412.917">ref</text><text fill="#000000" font-family="sans-serif" font-size="12" lengthAdjust="spacing" textLength="150" x="695" y="431.8789">Convert Display List to DTO</text><line style="stroke:#181818;stroke-width:1.0;stroke-dasharray:2.0,2.0;" x1="780" x2="822" y1="471.2188" y2="471.2188"/><line style="stroke:#181818;stroke-width:1.0;stroke-dasharray:2.0,2.0;" x1="822" x2="822" y1="471.2188" y2="484.2188"/><line style="stroke:#181818;stroke-width:1.0;stroke-dasharray:2.0,2.0;" x1="775" x2="822" y1="484.2188" y2="484.2188"/><polygon fill="#181818" points="785,480.2188,775,484.2188,785,488.2188,781,484.2188" style="stroke:#181818;stroke-width:1.0;"/><text fill="#000000" font-family="sans-serif" font-size="13" font-weight="bold" lengthAdjust="spacing" textLength="7" x="787" y="466.3623">7</text><text fill="#000000" font-family="sans-serif" font-size="13" lengthAdjust="spacing" textLength="94" x="798" y="466.3623">listToDisplayDto</text><polygon fill="#181818" points="370,505.5703,360,509.5703,370,513.5703,366,509.5703" style="stroke:#181818;stroke-width:1.0;"/><line style="stroke:#181818;stroke-width:1.0;stroke-dasharray:2.0,2.0;" x1="364" x2="769" y1="509.5703" y2="509.5703"/><text fill="#000000" font-family="sans-serif" font-size="13" font-weight="bold" lengthAdjust="spacing" textLength="7" x="376" y="504.7139">8</text><text fill="#000000" font-family="sans-serif" font-size="13" lengthAdjust="spacing" textLength="94" x="387" y="504.7139">listToDisplayDto</text><polygon fill="#181818" points="67,535.9219,57,539.9219,67,543.9219,63,539.9219" style="stroke:#181818;stroke-width:1.0;"/><line style="stroke:#181818;stroke-width:1.0;stroke-dasharray:2.0,2.0;" x1="61" x2="353" y1="539.9219" y2="539.9219"/><text fill="#000000" font-family="sans-serif" font-size="13" font-weight="bold" lengthAdjust="spacing" textLength="7" x="73" y="535.0654">9</text><text fill="#000000" font-family="sans-serif" font-size="13" lengthAdjust="spacing" textLength="154" x="84" y="535.0654">shows announcements list</text><path d="M10,554.9219 L75,554.9219 L75,563.2734 L65,573.2734 L10,573.2734 L10,554.9219 " fill="#EEEEEE" style="stroke:#000000;stroke-width:1.5;"/><rect fill="none" height="645.5156" style="stroke:#000000;stroke-width:1.5;" width="1131.5" x="10" y="554.9219"/><text fill="#000000" font-family="sans-serif" font-size="13" font-weight="bold" lengthAdjust="spacing" textLength="20" x="25" y="569.417">opt</text><text fill="#000000" font-family="sans-serif" font-size="11" font-weight="bold" lengthAdjust="spacing" textLength="122" x="90" y="568.3408">[Selection of criterias]</text><polygon fill="#181818" points="337,591.625,347,595.625,337,599.625,341,595.625" style="stroke:#181818;stroke-width:1.0;"/><line style="stroke:#181818;stroke-width:1.0;" x1="56" x2="343" y1="595.625" y2="595.625"/><text fill="#000000" font-family="sans-serif" font-size="13" font-weight="bold" lengthAdjust="spacing" textLength="14" x="63" y="590.7686">10</text><text fill="#000000" font-family="sans-serif" font-size="13" lengthAdjust="spacing" textLength="149" x="81" y="590.7686">asks to select filter for list</text><polygon fill="#181818" points="753,621.9766,763,625.9766,753,629.9766,757,625.9766" style="stroke:#181818;stroke-width:1.0;"/><line style="stroke:#181818;stroke-width:1.0;" x1="359" x2="759" y1="625.9766" y2="625.9766"/><text fill="#000000" font-family="sans-serif" font-size="13" font-weight="bold" lengthAdjust="spacing" textLength="14" x="366" y="621.1201">11</text><text fill="#000000" font-family="sans-serif" font-size="13" lengthAdjust="spacing" textLength="88" x="384" y="621.1201">getCriteriaList()</text><line style="stroke:#181818;stroke-width:1.0;" x1="775" x2="822" y1="651.3281" y2="651.3281"/><line style="stroke:#181818;stroke-width:1.0;" x1="822" x2="822" y1="651.3281" y2="664.3281"/><line style="stroke:#181818;stroke-width:1.0;" x1="781" x2="822" y1="664.3281" y2="664.3281"/><polygon fill="#181818" points="791,660.3281,781,664.3281,791,668.3281,787,664.3281" style="stroke:#181818;stroke-width:1.0;"/><text fill="#000000" font-family="sans-serif" font-size="13" font-weight="bold" lengthAdjust="spacing" textLength="14" x="787" y="646.4717">12</text><text fill="#000000" font-family="sans-serif" font-size="13" lengthAdjust="spacing" textLength="88" x="805" y="646.4717">getCriteriaList()</text><rect height="41.4453" style="stroke:#000000;stroke-width:1.5;fill:none;" width="176" x="682" y="677.3281"/><path d="M682,677.3281 L744,677.3281 L744,685.3281 L734,695.3281 L682,695.3281 L682,677.3281 " fill="#EEEEEE" style="stroke:#000000;stroke-width:2.0;"/><text fill="#000000" font-family="sans-serif" font-size="13" font-weight="bold" lengthAdjust="spacing" textLength="17" x="695" y="692.8232">ref</text><text fill="#000000" font-family="sans-serif" font-size="12" lengthAdjust="spacing" textLength="85" x="727.5" y="711.7852">Get Criteria List</text><line style="stroke:#181818;stroke-width:1.0;stroke-dasharray:2.0,2.0;" x1="780" x2="822" y1="751.125" y2="751.125"/><line style="stroke:#181818;stroke-width:1.0;stroke-dasharray:2.0,2.0;" x1="822" x2="822" y1="751.125" y2="764.125"/><line style="stroke:#181818;stroke-width:1.0;stroke-dasharray:2.0,2.0;" x1="775" x2="822" y1="764.125" y2="764.125"/><polygon fill="#181818" points="785,760.125,775,764.125,785,768.125,781,764.125" style="stroke:#181818;stroke-width:1.0;"/><text fill="#000000" font-family="sans-serif" font-size="13" font-weight="bold" lengthAdjust="spacing" textLength="14" x="787" y="746.2686">13</text><text fill="#000000" font-family="sans-serif" font-size="13" lengthAdjust="spacing" textLength="60" x="805" y="746.2686">criteriaList</text><polygon fill="#181818" points="370,785.4766,360,789.4766,370,793.4766,366,789.4766" style="stroke:#181818;stroke-width:1.0;"/><line style="stroke:#181818;stroke-width:1.0;stroke-dasharray:2.0,2.0;" x1="364" x2="769" y1="789.4766" y2="789.4766"/><text fill="#000000" font-family="sans-serif" font-size="13" font-weight="bold" lengthAdjust="spacing" textLength="14" x="376" y="784.6201">14</text><text fill="#000000" font-family="sans-serif" font-size="13" lengthAdjust="spacing" textLength="60" x="394" y="784.6201">criteriaList</text><polygon fill="#181818" points="67,815.8281,57,819.8281,67,823.8281,63,819.8281" style="stroke:#181818;stroke-width:1.0;"/><line style="stroke:#181818;stroke-width:1.0;stroke-dasharray:2.0,2.0;" x1="61" x2="353" y1="819.8281" y2="819.8281"/><text fill="#000000" font-family="sans-serif" font-size="13" font-weight="bold" lengthAdjust="spacing" textLength="14" x="73" y="814.9717">15</text><text fill="#000000" font-family="sans-serif" font-size="13" lengthAdjust="spacing" textLength="101" x="91" y="814.9717">shows criteria list</text><path d="M20,834.8281 L93,834.8281 L93,843.1797 L83,853.1797 L20,853.1797 L20,834.8281 " fill="#EEEEEE" style="stroke:#000000;stroke-width:1.5;"/><rect fill="none" height="358.6094" style="stroke:#000000;stroke-width:1.5;" width="1111.5" x="20" y="834.8281"/><text fill="#000000" font-family="sans-serif" font-size="13" font-weight="bold" lengthAdjust="spacing" textLength="28" x="35" y="849.3232">loop</text><text fill="#000000" font-family="sans-serif" font-size="11" font-weight="bold" lengthAdjust="spacing" textLength="105" x="108" y="848.2471">[For each criterion]</text><polygon fill="#181818" points="337,871.5313,347,875.5313,337,879.5313,341,875.5313" style="stroke:#181818;stroke-width:1.0;"/><line style="stroke:#181818;stroke-width:1.0;" x1="56" x2="343" y1="875.5313" y2="875.5313"/><text fill="#000000" font-family="sans-serif" font-size="13" font-weight="bold" lengthAdjust="spacing" textLength="14" x="63" y="870.6748">16</text><text fill="#000000" font-family="sans-serif" font-size="13" lengthAdjust="spacing" textLength="85" x="81" y="870.6748">selects criteria</text><polygon fill="#181818" points="753,901.8828,763,905.8828,753,909.8828,757,905.8828" style="stroke:#181818;stroke-width:1.0;"/><line style="stroke:#181818;stroke-width:1.0;" x1="359" x2="759" y1="905.8828" y2="905.8828"/><text fill="#000000" font-family="sans-serif" font-size="13" font-weight="bold" lengthAdjust="spacing" textLength="14" x="366" y="901.0264">17</text><text fill="#000000" font-family="sans-serif" font-size="13" lengthAdjust="spacing" textLength="129" x="384" y="901.0264">getFilteredList(criteria)</text><polygon fill="#181818" points="1037,932.2344,1047,936.2344,1037,940.2344,1041,936.2344" style="stroke:#181818;stroke-width:1.0;"/><line style="stroke:#181818;stroke-width:1.0;" x1="775" x2="1043" y1="936.2344" y2="936.2344"/><text fill="#000000" font-family="sans-serif" font-size="13" font-weight="bold" lengthAdjust="spacing" textLength="14" x="782" y="931.3779">18</text><text fill="#000000" font-family="sans-serif" font-size="13" lengthAdjust="spacing" textLength="237" x="800" y="931.3779">listToDisplay = sortListByCriteria(criteria)</text><polygon fill="#181818" points="786,962.5859,776,966.5859,786,970.5859,782,966.5859" style="stroke:#181818;stroke-width:1.0;"/><line style="stroke:#181818;stroke-width:1.0;stroke-dasharray:2.0,2.0;" x1="780" x2="1053" y1="966.5859" y2="966.5859"/><text fill="#000000" font-family="sans-serif" font-size="13" font-weight="bold" lengthAdjust="spacing" textLength="14" x="792" y="961.7295">19</text><text fill="#000000" font-family="sans-serif" font-size="13" lengthAdjust="spacing" textLength="74" x="810" y="961.7295">listToDisplay</text><line style="stroke:#181818;stroke-width:1.0;" x1="775" x2="822" y1="1016.9375" y2="1016.9375"/><line style="stroke:#181818;stroke-width:1.0;" x1="822" x2="822" y1="1016.9375" y2="1029.9375"/><line style="stroke:#181818;stroke-width:1.0;" x1="781" x2="822" y1="1029.9375" y2="1029.9375"/><polygon fill="#181818" points="791,1025.9375,781,1029.9375,791,1033.9375,787,1029.9375" style="stroke:#181818;stroke-width:1.0;"/><text fill="#000000" font-family="sans-serif" font-size="13" font-weight="bold" lengthAdjust="spacing" textLength="14" x="787" y="1012.0811">20</text><text fill="#000000" font-family="sans-serif" font-size="13" lengthAdjust="spacing" textLength="113" x="805" y="1012.0811">toDto(listToDisplay)</text><rect height="41.4453" style="stroke:#000000;stroke-width:1.5;fill:none;" width="176" x="682" y="1042.9375"/><path d="M682,1042.9375 L744,1042.9375 L744,1050.9375 L734,1060.9375 L682,1060.9375 L682,1042.9375 " fill="#EEEEEE" style="stroke:#000000;stroke-width:2.0;"/><text fill="#000000" font-family="sans-serif" font-size="13" font-weight="bold" lengthAdjust="spacing" textLength="17" x="695" y="1058.4326">ref</text><text fill="#000000" font-family="sans-serif" font-size="12" lengthAdjust="spacing" textLength="150" x="695" y="1077.3945">Convert Display List to DTO</text><line style="stroke:#181818;stroke-width:1.0;stroke-dasharray:2.0,2.0;" x1="780" x2="822" y1="1116.7344" y2="1116.7344"/><line style="stroke:#181818;stroke-width:1.0;stroke-dasharray:2.0,2.0;" x1="822" x2="822" y1="1116.7344" y2="1129.7344"/><line style="stroke:#181818;stroke-width:1.0;stroke-dasharray:2.0,2.0;" x1="775" x2="822" y1="1129.7344" y2="1129.7344"/><polygon fill="#181818" points="785,1125.7344,775,1129.7344,785,1133.7344,781,1129.7344" style="stroke:#181818;stroke-width:1.0;"/><text fill="#000000" font-family="sans-serif" font-size="13" font-weight="bold" lengthAdjust="spacing" textLength="14" x="787" y="1111.8779">21</text><text fill="#000000" font-family="sans-serif" font-size="13" lengthAdjust="spacing" textLength="94" x="805" y="1111.8779">listToDisplayDto</text><polygon fill="#181818" points="370,1151.0859,360,1155.0859,370,1159.0859,366,1155.0859" style="stroke:#181818;stroke-width:1.0;"/><line style="stroke:#181818;stroke-width:1.0;stroke-dasharray:2.0,2.0;" x1="364" x2="769" y1="1155.0859" y2="1155.0859"/><text fill="#000000" font-family="sans-serif" font-size="13" font-weight="bold" lengthAdjust="spacing" textLength="14" x="376" y="1150.2295">22</text><text fill="#000000" font-family="sans-serif" font-size="13" lengthAdjust="spacing" textLength="94" x="394" y="1150.2295">listToDisplayDto</text><polygon fill="#181818" points="67,1181.4375,57,1185.4375,67,1189.4375,63,1185.4375" style="stroke:#181818;stroke-width:1.0;"/><line style="stroke:#181818;stroke-width:1.0;stroke-dasharray:2.0,2.0;" x1="61" x2="353" y1="1185.4375" y2="1185.4375"/><text fill="#000000" font-family="sans-serif" font-size="13" font-weight="bold" lengthAdjust="spacing" textLength="14" x="73" y="1180.5811">23</text><text fill="#000000" font-family="sans-serif" font-size="13" lengthAdjust="spacing" textLength="154" x="91" y="1180.5811">shows announcements list</text><polygon fill="#181818" points="337,1225.7891,347,1229.7891,337,1233.7891,341,1229.7891" style="stroke:#181818;stroke-width:1.0;"/><line style="stroke:#181818;stroke-width:1.0;" x1="56" x2="343" y1="1229.7891" y2="1229.7891"/><text fill="#000000" font-family="sans-serif" font-size="13" font-weight="bold" lengthAdjust="spacing" textLength="14" x="63" y="1224.9326">24</text><text fill="#000000" font-family="sans-serif" font-size="13" lengthAdjust="spacing" textLength="149" x="81" y="1224.9326">selects an announcement</text><polygon fill="#181818" points="753,1256.1406,763,1260.1406,753,1264.1406,757,1260.1406" style="stroke:#181818;stroke-width:1.0;"/><line style="stroke:#181818;stroke-width:1.0;" x1="359" x2="759" y1="1260.1406" y2="1260.1406"/><text fill="#000000" font-family="sans-serif" font-size="13" font-weight="bold" lengthAdjust="spacing" textLength="14" x="366" y="1255.2842">25</text><text fill="#000000" font-family="sans-serif" font-size="13" lengthAdjust="spacing" textLength="159" x="384" y="1255.2842">toModel(announcementDto)</text><rect height="56.5391" style="stroke:#000000;stroke-width:1.5;fill:none;" width="176" x="682" y="1268.1406"/><path d="M682,1268.1406 L744,1268.1406 L744,1276.1406 L734,1286.1406 L682,1286.1406 L682,1268.1406 " fill="#EEEEEE" style="stroke:#000000;stroke-width:2.0;"/><text fill="#000000" font-family="sans-serif" font-size="13" font-weight="bold" lengthAdjust="spacing" textLength="17" x="695" y="1283.6357">ref</text><text fill="#000000" font-family="sans-serif" font-size="12" lengthAdjust="spacing" textLength="156" x="692" y="1302.5977">Convert Announcement DTO</text><text fill="#000000" font-family="sans-serif" font-size="12" lengthAdjust="spacing" textLength="46" x="748.5" y="1317.6914">to Model</text><polygon fill="#181818" points="370,1348.0313,360,1352.0313,370,1356.0313,366,1352.0313" style="stroke:#181818;stroke-width:1.0;"/><line style="stroke:#181818;stroke-width:1.0;stroke-dasharray:2.0,2.0;" x1="364" x2="769" y1="1352.0313" y2="1352.0313"/><text fill="#000000" font-family="sans-serif" font-size="13" font-weight="bold" lengthAdjust="spacing" textLength="14" x="376" y="1347.1748">26</text><text fill="#000000" font-family="sans-serif" font-size="13" lengthAdjust="spacing" textLength="85" x="394" y="1347.1748">announcement</text><polygon fill="#181818" points="67,1378.3828,57,1382.3828,67,1386.3828,63,1382.3828" style="stroke:#181818;stroke-width:1.0;"/><line style="stroke:#181818;stroke-width:1.0;stroke-dasharray:2.0,2.0;" x1="61" x2="353" y1="1382.3828" y2="1382.3828"/><text fill="#000000" font-family="sans-serif" font-size="13" font-weight="bold" lengthAdjust="spacing" textLength="14" x="73" y="1377.5264">27</text><text fill="#000000" font-family="sans-serif" font-size="13" lengthAdjust="spacing" textLength="84" x="91" y="1377.5264">Requests data</text><path d="M20,1397.3828 L93,1397.3828 L93,1405.7344 L83,1415.7344 L20,1415.7344 L20,1397.3828 " fill="#EEEEEE" style="stroke:#000000;stroke-width:1.5;"/><rect fill="none" height="212.2031" style="stroke:#000000;stroke-width:1.5;" width="951" x="20" y="1397.3828"/><text fill="#000000" font-family="sans-serif" font-size="13" font-weight="bold" lengthAdjust="spacing" textLength="28" x="35" y="1411.8779">loop</text><text fill="#000000" font-family="sans-serif" font-size="11" font-weight="bold" lengthAdjust="spacing" textLength="170" x="108" y="1410.8018">[While orderAmount &gt; amount]</text><polygon fill="#181818" points="337,1434.0859,347,1438.0859,337,1442.0859,341,1438.0859" style="stroke:#181818;stroke-width:1.0;"/><line style="stroke:#181818;stroke-width:1.0;stroke-dasharray:2.0,2.0;" x1="56" x2="343" y1="1438.0859" y2="1438.0859"/><text fill="#000000" font-family="sans-serif" font-size="13" font-weight="bold" lengthAdjust="spacing" textLength="14" x="63" y="1433.2295">28</text><text fill="#000000" font-family="sans-serif" font-size="13" lengthAdjust="spacing" textLength="211" x="81" y="1433.2295">Types requested data (orderAmount)</text><polygon fill="#181818" points="753,1464.4375,763,1468.4375,753,1472.4375,757,1468.4375" style="stroke:#181818;stroke-width:1.0;"/><line style="stroke:#181818;stroke-width:1.0;stroke-dasharray:2.0,2.0;" x1="359" x2="759" y1="1468.4375" y2="1468.4375"/><text fill="#000000" font-family="sans-serif" font-size="13" font-weight="bold" lengthAdjust="spacing" textLength="14" x="366" y="1463.5811">29</text><text fill="#000000" font-family="sans-serif" font-size="13" lengthAdjust="spacing" textLength="369" x="384" y="1463.5811">orderRequestFromAnnouncement(announcement, orderAmount)</text><line style="stroke:#181818;stroke-width:1.0;stroke-dasharray:2.0,2.0;" x1="775" x2="817" y1="1498.7891" y2="1498.7891"/><line style="stroke:#181818;stroke-width:1.0;stroke-dasharray:2.0,2.0;" x1="817" x2="817" y1="1498.7891" y2="1511.7891"/><line style="stroke:#181818;stroke-width:1.0;stroke-dasharray:2.0,2.0;" x1="776" x2="817" y1="1511.7891" y2="1511.7891"/><polygon fill="#181818" points="786,1507.7891,776,1511.7891,786,1515.7891,782,1511.7891" style="stroke:#181818;stroke-width:1.0;"/><text fill="#000000" font-family="sans-serif" font-size="13" font-weight="bold" lengthAdjust="spacing" textLength="14" x="782" y="1493.9326">30</text><text fill="#000000" font-family="sans-serif" font-size="13" lengthAdjust="spacing" textLength="159" x="800" y="1493.9326">orderRequest(orderAmount)</text><rect height="41.4453" style="stroke:#000000;stroke-width:1.5;fill:none;" width="176" x="682" y="1519.7891"/><path d="M682,1519.7891 L744,1519.7891 L744,1527.7891 L734,1537.7891 L682,1537.7891 L682,1519.7891 " fill="#EEEEEE" style="stroke:#000000;stroke-width:2.0;"/><text fill="#000000" font-family="sans-serif" font-size="13" font-weight="bold" lengthAdjust="spacing" textLength="17" x="695" y="1535.2842">ref</text><text fill="#000000" font-family="sans-serif" font-size="12" lengthAdjust="spacing" textLength="115" x="712.5" y="1554.2461">Place Order Request</text><line style="stroke:#181818;stroke-width:1.0;stroke-dasharray:2.0,2.0;" x1="775" x2="817" y1="1588.5859" y2="1588.5859"/><line style="stroke:#181818;stroke-width:1.0;stroke-dasharray:2.0,2.0;" x1="817" x2="817" y1="1588.5859" y2="1601.5859"/><line style="stroke:#181818;stroke-width:1.0;stroke-dasharray:2.0,2.0;" x1="776" x2="817" y1="1601.5859" y2="1601.5859"/><polygon fill="#181818" points="786,1597.5859,776,1601.5859,786,1605.5859,782,1601.5859" style="stroke:#181818;stroke-width:1.0;"/><text fill="#000000" font-family="sans-serif" font-size="13" font-weight="bold" lengthAdjust="spacing" textLength="14" x="782" y="1583.7295">31</text><text fill="#000000" font-family="sans-serif" font-size="13" lengthAdjust="spacing" textLength="70" x="800" y="1583.7295">confirmation</text><polygon fill="#181818" points="370,1634.9375,360,1638.9375,370,1642.9375,366,1638.9375" style="stroke:#181818;stroke-width:1.0;"/><line style="stroke:#181818;stroke-width:1.0;stroke-dasharray:2.0,2.0;" x1="364" x2="769" y1="1638.9375" y2="1638.9375"/><text fill="#000000" font-family="sans-serif" font-size="13" font-weight="bold" lengthAdjust="spacing" textLength="14" x="376" y="1634.0811">32</text><text fill="#000000" font-family="sans-serif" font-size="13" lengthAdjust="spacing" textLength="72" x="394" y="1634.0811">Confirmation</text><polygon fill="#181818" points="62,1665.2891,52,1669.2891,62,1673.2891,58,1669.2891" style="stroke:#181818;stroke-width:1.0;"/><line style="stroke:#181818;stroke-width:1.0;stroke-dasharray:2.0,2.0;" x1="56" x2="353" y1="1669.2891" y2="1669.2891"/><text fill="#000000" font-family="sans-serif" font-size="13" font-weight="bold" lengthAdjust="spacing" textLength="14" x="68" y="1664.4326">33</text><text fill="#000000" font-family="sans-serif" font-size="13" lengthAdjust="spacing" textLength="153" x="86" y="1664.4326">Display operation success</text><!--MD5=[374b0789fd4d026cd43564739b82270a]
@startuml
skinparam monochrome true
skinparam packageStyle rectangle
skinparam shadowing false

autonumber

'hide footbox
actor "Client" as Costumer
participant ":OrderRequestUI" as UI
participant ":OrderRequestController" as CTRL
participant "announcementList\n:AnnouncementList" as LISTCLASS


activate Costumer

    Costumer -> UI : asks to initiate an order request for a property
            activate UI

        UI -> CTRL** : create

        UI -> CTRL : getAnnouncementListDto()
            activate CTRL

        CTRL -> CTRL : getAnnouncementList()
        activate CTRL
                ref over CTRL
                    Get Announcements List
                end ref
            CTRL - -> CTRL : listToDisplay
        deactivate CTRL
    |||
        CTRL -> CTRL : toDto(listToDisplay)
        activate CTRL
                ref over CTRL
                    Convert Display List to DTO
                end ref
            CTRL - -> CTRL : listToDisplayDto
        deactivate CTRL

            CTRL - -> UI : listToDisplayDto
        deactivate CTRL

            UI - -> Costumer : shows announcements list
        deactivate UI

            opt Selection of criterias

            Costumer -> UI : asks to select filter for list
            activate UI

            UI -> CTRL : getCriteriaList()
            activate CTRL
               CTRL -> CTRL : getCriteriaList()
                activate CTRL
                        ref over CTRL
                            Get Criteria List
                        end ref
                    CTRL - -> CTRL : criteriaList
                deactivate CTRL

            CTRL - -> UI : criteriaList
            deactivate CTRL

            UI - -> Costumer : shows criteria list

            deactivate UI

                loop For each criterion

                    Costumer -> UI : selects criteria
                    activate UI

                    UI -> CTRL : getFilteredList(criteria)

                    activate CTRL

                        CTRL -> LISTCLASS : listToDisplay = sortListByCriteria(criteria)
                        activate LISTCLASS

                            LISTCLASS - -> CTRL : listToDisplay
                        deactivate LISTCLASS

                        |||
                            CTRL -> CTRL : toDto(listToDisplay)
                            activate CTRL
                                    ref over CTRL
                                        Convert Display List to DTO
                                    end ref
                                CTRL - -> CTRL : listToDisplayDto
                            deactivate CTRL

                                CTRL - -> UI : listToDisplayDto
                            deactivate CTRL

                                UI - -> Costumer : shows announcements list
                            deactivate UI

                    deactivate CTRL

                    deactivate UI

                end loop
            end opt

    Costumer -> UI : selects an announcement
            activate UI

        UI -> CTRL : toModel(announcementDto)
        activate CTRL
            ref over CTRL
                Convert Announcement DTO
                 to Model
            end ref

            CTRL - -> UI : announcement
        deactivate CTRL


    UI - -> Costumer : Requests data
    deactivate UI

    loop While orderAmount > amount

        Costumer - -> UI : Types requested data (orderAmount)
        activate UI

        UI - -> CTRL : orderRequestFromAnnouncement(announcement, orderAmount)
        activate CTRL

        CTRL - -> CTRL : orderRequest(orderAmount)

        ref over CTRL
            Place Order Request
        end ref

        CTRL - -> CTRL : confirmation
    end loop

    CTRL - -> UI : Confirmation
    deactivate CTRL

    UI - -> Costumer : Display operation success
    deactivate UI







deactivate Costumer

@enduml

@startuml
skinparam monochrome true
skinparam packageStyle rectangle
skinparam shadowing false

autonumber

actor "Client" as Costumer
participant ":OrderRequestUI" as UI
participant ":OrderRequestController" as CTRL
participant "announcementList\n:AnnouncementList" as LISTCLASS


activate Costumer

    Costumer -> UI : asks to initiate an order request for a property
            activate UI

        UI -> CTRL** : create

        UI -> CTRL : getAnnouncementListDto()
            activate CTRL

        CTRL -> CTRL : getAnnouncementList()
        activate CTRL
                ref over CTRL
                    Get Announcements List
                end ref
            CTRL - -> CTRL : listToDisplay
        deactivate CTRL
    |||
        CTRL -> CTRL : toDto(listToDisplay)
        activate CTRL
                ref over CTRL
                    Convert Display List to DTO
                end ref
            CTRL - -> CTRL : listToDisplayDto
        deactivate CTRL

            CTRL - -> UI : listToDisplayDto
        deactivate CTRL

            UI - -> Costumer : shows announcements list
        deactivate UI

            opt Selection of criterias

            Costumer -> UI : asks to select filter for list
            activate UI

            UI -> CTRL : getCriteriaList()
            activate CTRL
               CTRL -> CTRL : getCriteriaList()
                activate CTRL
                        ref over CTRL
                            Get Criteria List
                        end ref
                    CTRL - -> CTRL : criteriaList
                deactivate CTRL

            CTRL - -> UI : criteriaList
            deactivate CTRL

            UI - -> Costumer : shows criteria list

            deactivate UI

                loop For each criterion

                    Costumer -> UI : selects criteria
                    activate UI

                    UI -> CTRL : getFilteredList(criteria)

                    activate CTRL

                        CTRL -> LISTCLASS : listToDisplay = sortListByCriteria(criteria)
                        activate LISTCLASS

                            LISTCLASS - -> CTRL : listToDisplay
                        deactivate LISTCLASS

                        |||
                            CTRL -> CTRL : toDto(listToDisplay)
                            activate CTRL
                                    ref over CTRL
                                        Convert Display List to DTO
                                    end ref
                                CTRL - -> CTRL : listToDisplayDto
                            deactivate CTRL

                                CTRL - -> UI : listToDisplayDto
                            deactivate CTRL

                                UI - -> Costumer : shows announcements list
                            deactivate UI

                    deactivate CTRL

                    deactivate UI

                end loop
            end opt

    Costumer -> UI : selects an announcement
            activate UI

        UI -> CTRL : toModel(announcementDto)
        activate CTRL
            ref over CTRL
                Convert Announcement DTO
                 to Model
            end ref

            CTRL - -> UI : announcement
        deactivate CTRL


    UI - -> Costumer : Requests data
    deactivate UI

    loop While orderAmount > amount

        Costumer - -> UI : Types requested data (orderAmount)
        activate UI

        UI - -> CTRL : orderRequestFromAnnouncement(announcement, orderAmount)
        activate CTRL

        CTRL - -> CTRL : orderRequest(orderAmount)

        ref over CTRL
            Place Order Request
        end ref

        CTRL - -> CTRL : confirmation
    end loop

    CTRL - -> UI : Confirmation
    deactivate CTRL

    UI - -> Costumer : Display operation success
    deactivate UI







deactivate Costumer

@enduml

PlantUML version 1.2022.4(Sat Apr 09 14:29:17 BST 2022)
(GPL source distribution)
Java Runtime: OpenJDK Runtime Environment
JVM: OpenJDK 64-Bit Server VM
Default Encoding: Cp1252
Language: pt
Country: PT
--></g></svg>