<?xml version="1.0" encoding="UTF-8" standalone="no"?><svg xmlns="http://www.w3.org/2000/svg" xmlns:xlink="http://www.w3.org/1999/xlink" contentStyleType="text/css" height="548px" preserveAspectRatio="none" style="width:537px;height:548px;background:#FFFFFF;" version="1.1" viewBox="0 0 537 548" width="537px" zoomAndPan="magnify"><defs/><g><!--class SystemAdministrator--><g id="elem_SystemAdministrator"><rect codeLine="12" fill="#F1F1F1" height="35.6094" id="SystemAdministrator" rx="2.5" ry="2.5" style="stroke:#181818;stroke-width:0.5;" width="135" x="283" y="506"/><text fill="#000000" font-family="sans-serif" font-size="14" lengthAdjust="spacing" textLength="129" x="286" y="525.5332">SystemAdministrator</text><line style="stroke:#181818;stroke-width:0.5;" x1="284" x2="417" y1="533.6094" y2="533.6094"/></g><!--class Employee--><g id="elem_Employee"><rect codeLine="15" fill="#F1F1F1" height="35.6094" id="Employee" rx="2.5" ry="2.5" style="stroke:#181818;stroke-width:0.5;" width="68" x="248.5" y="173"/><text fill="#000000" font-family="sans-serif" font-size="14" lengthAdjust="spacing" textLength="62" x="251.5" y="192.5332">Employee</text><line style="stroke:#181818;stroke-width:0.5;" x1="249.5" x2="315.5" y1="200.6094" y2="200.6094"/></g><!--class Role--><g id="elem_Role"><rect codeLine="17" fill="#F1F1F1" height="88.4375" id="Role" rx="2.5" ry="2.5" style="stroke:#181818;stroke-width:0.5;" width="118" x="55.5" y="7"/><text fill="#000000" font-family="sans-serif" font-size="14" lengthAdjust="spacing" textLength="29" x="100" y="26.5332">Role</text><line style="stroke:#181818;stroke-width:0.5;" x1="56.5" x2="172.5" y1="34.6094" y2="34.6094"/><text fill="#000000" font-family="sans-serif" font-size="14" lengthAdjust="spacing" textLength="37" x="61.5" y="53.1426">Agent</text><text fill="#000000" font-family="sans-serif" font-size="14" lengthAdjust="spacing" textLength="90" x="61.5" y="70.752">StoreManager</text><text fill="#000000" font-family="sans-serif" font-size="14" lengthAdjust="spacing" textLength="106" x="61.5" y="88.3613">NetworkManager</text></g><!--class Agent--><g id="elem_Agent"><rect codeLine="23" fill="#F1F1F1" height="35.6094" id="Agent" rx="2.5" ry="2.5" style="stroke:#181818;stroke-width:0.5;" width="43" x="209" y="33"/><text fill="#000000" font-family="sans-serif" font-size="14" lengthAdjust="spacing" textLength="37" x="212" y="52.5332">Agent</text><line style="stroke:#181818;stroke-width:0.5;" x1="210" x2="251" y1="60.6094" y2="60.6094"/></g><!--class StoreManager--><g id="elem_StoreManager"><rect codeLine="26" fill="#F1F1F1" height="35.6094" id="StoreManager" rx="2.5" ry="2.5" style="stroke:#181818;stroke-width:0.5;" width="96" x="287.5" y="33"/><text fill="#000000" font-family="sans-serif" font-size="14" lengthAdjust="spacing" textLength="90" x="290.5" y="52.5332">StoreManager</text><line style="stroke:#181818;stroke-width:0.5;" x1="288.5" x2="382.5" y1="60.6094" y2="60.6094"/></g><!--class NetworkManager--><g id="elem_NetworkManager"><rect codeLine="28" fill="#F1F1F1" height="35.6094" id="NetworkManager" rx="2.5" ry="2.5" style="stroke:#181818;stroke-width:0.5;" width="112" x="418.5" y="33"/><text fill="#000000" font-family="sans-serif" font-size="14" lengthAdjust="spacing" textLength="106" x="421.5" y="52.5332">NetworkManager</text><line style="stroke:#181818;stroke-width:0.5;" x1="419.5" x2="529.5" y1="60.6094" y2="60.6094"/></g><!--class Data--><g id="elem_Data"><rect codeLine="31" fill="#F1F1F1" height="141.2656" id="Data" rx="2.5" ry="2.5" style="stroke:#181818;stroke-width:0.5;" width="131" x="149" y="287"/><text fill="#000000" font-family="sans-serif" font-size="14" lengthAdjust="spacing" textLength="30" x="199.5" y="306.5332">Data</text><line style="stroke:#181818;stroke-width:0.5;" x1="150" x2="279" y1="314.6094" y2="314.6094"/><text fill="#000000" font-family="sans-serif" font-size="14" lengthAdjust="spacing" textLength="35" x="155" y="333.1426">name</text><text fill="#000000" font-family="sans-serif" font-size="14" lengthAdjust="spacing" textLength="119" x="155" y="350.752">citizenCardNumber</text><text fill="#000000" font-family="sans-serif" font-size="14" lengthAdjust="spacing" textLength="67" x="155" y="368.3613">taxNumber</text><text fill="#000000" font-family="sans-serif" font-size="14" lengthAdjust="spacing" textLength="51" x="155" y="385.9707">address</text><text fill="#000000" font-family="sans-serif" font-size="14" lengthAdjust="spacing" textLength="85" x="155" y="403.5801">emailAddress</text><text fill="#000000" font-family="sans-serif" font-size="14" lengthAdjust="spacing" textLength="95" x="155" y="421.1895">contactNumber</text></g><!--class Agency--><g id="elem_Agency"><rect codeLine="41" fill="#F1F1F1" height="88.4375" id="Agency" rx="2.5" ry="2.5" style="stroke:#181818;stroke-width:0.5;" width="107" x="7" y="313.5"/><text fill="#000000" font-family="sans-serif" font-size="14" lengthAdjust="spacing" textLength="47" x="37" y="333.0332">Agency</text><line style="stroke:#181818;stroke-width:0.5;" x1="8" x2="113" y1="341.1094" y2="341.1094"/><text fill="#000000" font-family="sans-serif" font-size="14" lengthAdjust="spacing" textLength="73" x="13" y="359.6426">designation</text><text fill="#000000" font-family="sans-serif" font-size="14" lengthAdjust="spacing" textLength="85" x="13" y="377.252">emailAddress</text><text fill="#000000" font-family="sans-serif" font-size="14" lengthAdjust="spacing" textLength="95" x="13" y="394.8613">contactNumber</text></g><!--link SystemAdministrator to Employee--><g id="link_SystemAdministrator_Employee"><path codeLine="49" d="M363.57,505.96 C376.62,487.79 395.8,457.61 403.5,428 C419.27,367.35 430.9,343.36 403.5,287 C389,257.19 360.12,233.95 334.21,217.92 " fill="none" id="SystemAdministrator-to-Employee" style="stroke:#181818;stroke-width:1.0;"/><polygon fill="none" points="330.39,223.8,316.54,207.76,337.37,211.66,330.39,223.8" style="stroke:#181818;stroke-width:1.0;"/></g><!--link SystemAdministrator to Employee--><g id="link_SystemAdministrator_Employee"><path codeLine="50" d="M346.98,505.84 C335.28,448.89 297.81,266.53 286.06,209.33 " fill="none" id="SystemAdministrator-Employee" style="stroke:#181818;stroke-width:1.0;"/><polygon fill="#000000" points="334.4937,352.7781,333.4353,362.2296,339.1929,361.0466,334.4937,352.7781" style="stroke:#000000;stroke-width:1.0;"/><text fill="#000000" font-family="sans-serif" font-size="13" lengthAdjust="spacing" textLength="50" x="344.5" y="362.9951">registers</text><text fill="#000000" font-family="sans-serif" font-size="13" lengthAdjust="spacing" textLength="7" x="337.7424" y="495.1149">1</text><text fill="#000000" font-family="sans-serif" font-size="13" lengthAdjust="spacing" textLength="5" x="281.3449" y="230.001">*</text></g><!--link Agency to SystemAdministrator--><g id="link_Agency_SystemAdministrator"><path codeLine="51" d="M99.55,401.69 C109.38,411.11 120.34,420.49 131.5,428 C183.6,463.04 250.74,489.88 296.86,505.95 " fill="none" id="Agency-SystemAdministrator" style="stroke:#181818;stroke-width:1.0;"/><polygon fill="#000000" points="219.0792,464.8398,225.7034,471.6641,228.4495,466.4672,219.0792,464.8398" style="stroke:#000000;stroke-width:1.0;"/><text fill="#000000" font-family="sans-serif" font-size="13" lengthAdjust="spacing" textLength="50" x="232.5" y="472.4951">registers</text><text fill="#000000" font-family="sans-serif" font-size="13" lengthAdjust="spacing" textLength="5" x="100.3752" y="423.4961">*</text><text fill="#000000" font-family="sans-serif" font-size="13" lengthAdjust="spacing" textLength="7" x="271.6466" y="495.26">1</text></g><!--link Employee to Agency--><g id="link_Employee_Agency"><path codeLine="53" d="M248.44,206.04 C229.54,214.47 205.98,226.06 186.5,239 C154.74,260.1 123.36,289.33 99.86,313.36 " fill="none" id="Employee-Agency" style="stroke:#181818;stroke-width:1.0;"/><polygon fill="#000000" points="187.4468,251.1035,196.5,248.1897,193.0583,243.4248,187.4468,251.1035" style="stroke:#000000;stroke-width:1.0;"/><text fill="#000000" font-family="sans-serif" font-size="13" lengthAdjust="spacing" textLength="48" x="200.5" y="253.4951">works in</text><text fill="#000000" font-family="sans-serif" font-size="13" lengthAdjust="spacing" textLength="7" x="233.6933" y="205.0637">1</text><text fill="#000000" font-family="sans-serif" font-size="13" lengthAdjust="spacing" textLength="7" x="98.5752" y="302.5385">1</text></g><!--link Role to Employee--><g id="link_Role_Employee"><path codeLine="54" d="M149.2,95.04 C163.46,111.2 180.77,129.02 198.5,143 C213.72,155 232.4,165.78 248.27,173.97 " fill="none" id="Role-Employee" style="stroke:#181818;stroke-width:1.0;"/><polygon fill="#000000" points="207.4106,137.2914,202.1676,129.3566,198.5049,133.9538,207.4106,137.2914" style="stroke:#000000;stroke-width:1.0;"/><text fill="#000000" font-family="sans-serif" font-size="13" lengthAdjust="spacing" textLength="37" x="212.5" y="139.4951">knows</text><text fill="#000000" font-family="sans-serif" font-size="13" lengthAdjust="spacing" textLength="7" x="147.1725" y="116.8221">1</text><text fill="#000000" font-family="sans-serif" font-size="13" lengthAdjust="spacing" textLength="7" x="233.4882" y="166.3792">1</text></g><!--link Employee to Data--><g id="link_Employee_Data"><path codeLine="55" d="M275.35,209.29 C269.38,223.73 260.39,245.49 251.13,267.89 " fill="none" id="Employee-to-Data" style="stroke:#181818;stroke-width:1.0;"/><polygon fill="none" points="257.46,270.9,243.35,286.71,244.52,265.55,257.46,270.9" style="stroke:#181818;stroke-width:1.0;"/></g><!--link Agent to Employee--><g id="link_Agent_Employee"><path codeLine="56" d="M236.98,69.2 C244.92,90.27 258.59,126.54 268.88,153.85 " fill="none" id="Agent-to-Employee" style="stroke:#181818;stroke-width:1.0;"/><polygon fill="none" points="275.44,151.4,275.94,172.58,262.33,156.34,275.44,151.4" style="stroke:#181818;stroke-width:1.0;"/></g><!--link StoreManager to Employee--><g id="link_StoreManager_Employee"><path codeLine="57" d="M328.89,69.2 C320.8,90.27 306.87,126.54 296.39,153.85 " fill="none" id="StoreManager-to-Employee" style="stroke:#181818;stroke-width:1.0;"/><polygon fill="none" points="302.89,156.42,289.19,172.58,289.82,151.4,302.89,156.42" style="stroke:#181818;stroke-width:1.0;"/></g><!--link NetworkManager to Employee--><g id="link_NetworkManager_Employee"><path codeLine="58" d="M450.57,69.2 C418.58,92.19 361.42,133.28 322.74,161.08 " fill="none" id="NetworkManager-to-Employee" style="stroke:#181818;stroke-width:1.0;"/><polygon fill="none" points="326.75,166.81,306.43,172.8,318.58,155.44,326.75,166.81" style="stroke:#181818;stroke-width:1.0;"/></g><!--SRC=[XP71JiCm38RlVWfh5oIaIUoAqAG9E71W1_e4NkArqPgaIboDql7kfEtMTXE8Msn_Vsp_ZWVZAWfaqNhdLH6yPPHGCyInKf4wKCwPD2LZO2Nayd8En8AqFngNuvxAo01t9Uy5nMCmUI6eJQSoti5Cf4gASICIpAuMVbFUPUQByG6WC9fHcQ1Ia_vjMGgl8q2lmQo9mdQZhN4cIY3n0Tjlk9HVRLNwXhdF3QaFNt8BcvoTG9PmVYUNDWgmPJdwSBY4ew17socUYxhqaBrMp_0N4ch1aMLGHj9Qxfc2tjPsbve8VPvVf7NW684jcN9p3f8HGahEoBHMDv9gi0NDqUIEUZ__KS9lLYrFwz6ZNu75Qe7B9Ixk5oFtcEwU9u13nFNVeheQPCEiro8OxtBvVpM1dOqHZSC4TiUQCzCC1-UFiKCwVn6VJdt3QPd-QfXqLnlEJdTJkhxVJH5-0000]--></g></svg>