<?xml version="1.0" encoding="UTF-8" standalone="no"?><svg xmlns="http://www.w3.org/2000/svg" xmlns:xlink="http://www.w3.org/1999/xlink" contentStyleType="text/css" height="404px" preserveAspectRatio="none" style="width:888px;height:404px;background:#FFFFFF;" version="1.1" viewBox="0 0 888 404" width="888px" zoomAndPan="magnify"><defs/><g><rect fill="#FFFFFF" height="244.8125" style="stroke:#181818;stroke-width:1.0;" width="10" x="370" y="87.5703"/><rect fill="#FFFFFF" height="30.3516" style="stroke:#181818;stroke-width:1.0;" width="10" x="517" y="143.2734"/><rect fill="#FFFFFF" height="30.3516" style="stroke:#181818;stroke-width:1.0;" width="10" x="624" y="203.9766"/><rect fill="#FFFFFF" height="30.3516" style="stroke:#181818;stroke-width:1.0;" width="10" x="775" y="264.6797"/><rect fill="none" height="200.4609" style="stroke:#000000;stroke-width:1.5;" width="606" x="276.5" y="102.5703"/><line style="stroke:#181818;stroke-width:0.5;stroke-dasharray:5.0,5.0;" x1="374.5" x2="374.5" y1="55.2188" y2="350.3828"/><line style="stroke:#181818;stroke-width:0.5;stroke-dasharray:5.0,5.0;" x1="521.5" x2="521.5" y1="55.2188" y2="350.3828"/><line style="stroke:#181818;stroke-width:0.5;stroke-dasharray:5.0,5.0;" x1="628.5" x2="628.5" y1="55.2188" y2="350.3828"/><line style="stroke:#181818;stroke-width:0.5;stroke-dasharray:5.0,5.0;" x1="779.5" x2="779.5" y1="55.2188" y2="350.3828"/><rect fill="#E3E3E3" height="31.6094" rx="2.5" ry="2.5" style="stroke:#181818;stroke-width:0.5;" width="177" x="286.5" y="22.6094"/><text fill="#000000" font-family="sans-serif" font-size="14" lengthAdjust="spacing" textLength="163" x="293.5" y="44.1426">:CreatePropertyController</text><rect fill="#E3E3E3" height="31.6094" rx="2.5" ry="2.5" style="stroke:#181818;stroke-width:0.5;" width="177" x="286.5" y="349.3828"/><text fill="#000000" font-family="sans-serif" font-size="14" lengthAdjust="spacing" textLength="163" x="293.5" y="370.916">:CreatePropertyController</text><rect fill="#E3E3E3" height="31.6094" rx="2.5" ry="2.5" style="stroke:#181818;stroke-width:0.5;" width="97" x="473.5" y="22.6094"/><text fill="#000000" font-family="sans-serif" font-size="14" lengthAdjust="spacing" textLength="83" x="480.5" y="44.1426">:Repositories</text><rect fill="#E3E3E3" height="31.6094" rx="2.5" ry="2.5" style="stroke:#181818;stroke-width:0.5;" width="97" x="473.5" y="349.3828"/><text fill="#000000" font-family="sans-serif" font-size="14" lengthAdjust="spacing" textLength="83" x="480.5" y="370.916">:Repositories</text><rect fill="#E3E3E3" height="49.2188" rx="2.5" ry="2.5" style="stroke:#181818;stroke-width:0.5;" width="97" x="580.5" y="5"/><text fill="#000000" font-family="sans-serif" font-size="14" lengthAdjust="spacing" textLength="74" x="592" y="26.5332">repositories</text><text fill="#000000" font-family="sans-serif" font-size="14" lengthAdjust="spacing" textLength="83" x="587.5" y="44.1426">:Repositories</text><rect fill="#E3E3E3" height="49.2188" rx="2.5" ry="2.5" style="stroke:#181818;stroke-width:0.5;" width="97" x="580.5" y="349.3828"/><text fill="#000000" font-family="sans-serif" font-size="14" lengthAdjust="spacing" textLength="74" x="592" y="370.916">repositories</text><text fill="#000000" font-family="sans-serif" font-size="14" lengthAdjust="spacing" textLength="83" x="587.5" y="388.5254">:Repositories</text><rect fill="#E3E3E3" height="49.2188" rx="2.5" ry="2.5" style="stroke:#181818;stroke-width:0.5;" width="185" x="687.5" y="5"/><text fill="#000000" font-family="sans-serif" font-size="14" lengthAdjust="spacing" textLength="162" x="699" y="26.5332">residenceTypeRepository</text><text fill="#000000" font-family="sans-serif" font-size="14" lengthAdjust="spacing" textLength="171" x="694.5" y="44.1426">:ResidenceTypeRepository</text><rect fill="#E3E3E3" height="49.2188" rx="2.5" ry="2.5" style="stroke:#181818;stroke-width:0.5;" width="185" x="687.5" y="349.3828"/><text fill="#000000" font-family="sans-serif" font-size="14" lengthAdjust="spacing" textLength="162" x="699" y="370.916">residenceTypeRepository</text><text fill="#000000" font-family="sans-serif" font-size="14" lengthAdjust="spacing" textLength="171" x="694.5" y="388.5254">:ResidenceTypeRepository</text><rect fill="#FFFFFF" height="244.8125" style="stroke:#181818;stroke-width:1.0;" width="10" x="370" y="87.5703"/><rect fill="#FFFFFF" height="30.3516" style="stroke:#181818;stroke-width:1.0;" width="10" x="517" y="143.2734"/><rect fill="#FFFFFF" height="30.3516" style="stroke:#181818;stroke-width:1.0;" width="10" x="624" y="203.9766"/><rect fill="#FFFFFF" height="30.3516" style="stroke:#181818;stroke-width:1.0;" width="10" x="775" y="264.6797"/><polygon fill="#181818" points="358,83.5703,368,87.5703,358,91.5703,362,87.5703" style="stroke:#181818;stroke-width:1.0;"/><line style="stroke:#181818;stroke-width:1.0;" x1="0" x2="364" y1="87.5703" y2="87.5703"/><text fill="#000000" font-family="sans-serif" font-size="13" lengthAdjust="spacing" textLength="351" x="7" y="82.7139">getResidenceTypeByDesignation(residenceTypeDesignation)</text><path d="M276.5,102.5703 L493.5,102.5703 L493.5,110.9219 L483.5,120.9219 L276.5,120.9219 L276.5,102.5703 " fill="#EEEEEE" style="stroke:#000000;stroke-width:1.5;"/><rect fill="none" height="200.4609" style="stroke:#000000;stroke-width:1.5;" width="606" x="276.5" y="102.5703"/><text fill="#000000" font-family="sans-serif" font-size="13" font-weight="bold" lengthAdjust="spacing" textLength="172" x="291.5" y="117.0654">Get Residence Type Object</text><polygon fill="#181818" points="505,139.2734,515,143.2734,505,147.2734,509,143.2734" style="stroke:#181818;stroke-width:1.0;"/><line style="stroke:#181818;stroke-width:1.0;" x1="380" x2="511" y1="143.2734" y2="143.2734"/><text fill="#000000" font-family="sans-serif" font-size="13" lengthAdjust="spacing" textLength="82" x="387" y="138.417">getInstances()</text><polygon fill="#181818" points="391,169.625,381,173.625,391,177.625,387,173.625" style="stroke:#181818;stroke-width:1.0;"/><line style="stroke:#181818;stroke-width:1.0;stroke-dasharray:2.0,2.0;" x1="385" x2="521" y1="173.625" y2="173.625"/><text fill="#000000" font-family="sans-serif" font-size="13" lengthAdjust="spacing" textLength="67" x="397" y="168.7686">repositories</text><polygon fill="#181818" points="612,199.9766,622,203.9766,612,207.9766,616,203.9766" style="stroke:#181818;stroke-width:1.0;"/><line style="stroke:#181818;stroke-width:1.0;" x1="380" x2="618" y1="203.9766" y2="203.9766"/><text fill="#000000" font-family="sans-serif" font-size="13" lengthAdjust="spacing" textLength="177" x="387" y="199.1201">getResidenceTypeRepository()</text><polygon fill="#181818" points="391,230.3281,381,234.3281,391,238.3281,387,234.3281" style="stroke:#181818;stroke-width:1.0;"/><line style="stroke:#181818;stroke-width:1.0;stroke-dasharray:2.0,2.0;" x1="385" x2="628" y1="234.3281" y2="234.3281"/><text fill="#000000" font-family="sans-serif" font-size="13" lengthAdjust="spacing" textLength="146" x="397" y="229.4717">residenceTypeRepository</text><polygon fill="#181818" points="763,260.6797,773,264.6797,763,268.6797,767,264.6797" style="stroke:#181818;stroke-width:1.0;"/><line style="stroke:#181818;stroke-width:1.0;" x1="380" x2="769" y1="264.6797" y2="264.6797"/><text fill="#000000" font-family="sans-serif" font-size="13" lengthAdjust="spacing" textLength="351" x="387" y="259.8232">getResidenceTypeByDesignation(residenceTypeDesignation)</text><polygon fill="#181818" points="391,291.0313,381,295.0313,391,299.0313,387,295.0313" style="stroke:#181818;stroke-width:1.0;"/><line style="stroke:#181818;stroke-width:1.0;stroke-dasharray:2.0,2.0;" x1="385" x2="779" y1="295.0313" y2="295.0313"/><text fill="#000000" font-family="sans-serif" font-size="13" lengthAdjust="spacing" textLength="84" x="397" y="290.1748">residenceType</text><polygon fill="#181818" points="11,328.3828,1,332.3828,11,336.3828,7,332.3828" style="stroke:#181818;stroke-width:1.0;"/><line style="stroke:#181818;stroke-width:1.0;stroke-dasharray:2.0,2.0;" x1="5" x2="374" y1="332.3828" y2="332.3828"/><text fill="#000000" font-family="sans-serif" font-size="13" lengthAdjust="spacing" textLength="84" x="17" y="327.5264">residenceType</text><!--SRC=[fL91JiCm4Bpd5QkUsaC-K24aA192gaJLviZ5E4jgcgmjUmlAxt4SS9BM1QJwvjsTsV6CtK6H4LOqq6ZISczrWy3sY9cB7IFaGLIuuxP6i2XPK5MF1znUbFfJKGLledQOPRxCIYeZY66sN5aKZ1kh3LfkLvhOwhf6EmFXO5LiroVpMpJQATPMeGipiT3kLBUQDKqXTeHueNE2pVgkE4KuLI99B5g30ty09plVGfAzB0D_yjlm65X2XJoPl6yV_BKYmKhJVB9wr5W45Y5PVNYxUcD2gJkLrKS3ZyY31kZmyFpwxXCP1eC4BoNXMQ_iYPmFKAARBo8eBaqv7QTIbFdmwd484LFY_xX_P7T99HmSi5xrkUoGRom7ZecmT6e9ZLEYmSiamHL9fvp_vMlrxgT5N7feEe8_bY2L_LVhIpTvVfbxn1l-wXS0]--></g></svg>