<?xml version="1.0" encoding="UTF-8" standalone="no"?><svg xmlns="http://www.w3.org/2000/svg" xmlns:xlink="http://www.w3.org/1999/xlink" contentStyleType="text/css" height="405px" preserveAspectRatio="none" style="width:554px;height:405px;background:#FFFFFF;" version="1.1" viewBox="0 0 554 405" width="554px" zoomAndPan="magnify"><defs/><g><text fill="#000000" font-family="sans-serif" font-size="14" font-weight="bold" lengthAdjust="spacing" textLength="228" x="162.25" y="29.5332">System Sequence Diagram (SSD)</text><rect fill="#FFFFFF" height="183.1094" style="stroke:#181818;stroke-width:1.0;" width="10" x="69.5" y="131.2188"/><rect fill="#FFFFFF" height="30.3516" style="stroke:#181818;stroke-width:1.0;" width="10" x="511.5" y="153.5703"/><rect fill="#FFFFFF" height="30.3516" style="stroke:#181818;stroke-width:1.0;" width="10" x="511.5" y="214.2734"/><rect fill="#FFFFFF" height="30.3516" style="stroke:#181818;stroke-width:1.0;" width="10" x="511.5" y="274.9766"/><line style="stroke:#181818;stroke-width:0.5;stroke-dasharray:5.0,5.0;" x1="74" x2="74" y1="121.2188" y2="323.3281"/><line style="stroke:#181818;stroke-width:0.5;stroke-dasharray:5.0,5.0;" x1="516.5" x2="516.5" y1="121.2188" y2="323.3281"/><text fill="#000000" font-family="sans-serif" font-size="14" lengthAdjust="spacing" textLength="133" x="5" y="118.1426">System Administrator</text><ellipse cx="74.5" cy="52.1094" fill="#E3E3E3" rx="8" ry="8" style="stroke:#181818;stroke-width:0.5;"/><path d="M74.5,60.1094 L74.5,87.1094 M61.5,68.1094 L87.5,68.1094 M74.5,87.1094 L61.5,102.1094 M74.5,87.1094 L87.5,102.1094 " fill="none" style="stroke:#181818;stroke-width:0.5;"/><text fill="#000000" font-family="sans-serif" font-size="14" lengthAdjust="spacing" textLength="133" x="5" y="336.8613">System Administrator</text><ellipse cx="74.5" cy="348.4375" fill="#E3E3E3" rx="8" ry="8" style="stroke:#181818;stroke-width:0.5;"/><path d="M74.5,356.4375 L74.5,383.4375 M61.5,364.4375 L87.5,364.4375 M74.5,383.4375 L61.5,398.4375 M74.5,383.4375 L87.5,398.4375 " fill="none" style="stroke:#181818;stroke-width:0.5;"/><rect fill="#E3E3E3" height="31.6094" rx="2.5" ry="2.5" style="stroke:#181818;stroke-width:0.5;" width="64" x="484.5" y="88.6094"/><text fill="#000000" font-family="sans-serif" font-size="14" lengthAdjust="spacing" textLength="50" x="491.5" y="110.1426">:System</text><rect fill="#E3E3E3" height="31.6094" rx="2.5" ry="2.5" style="stroke:#181818;stroke-width:0.5;" width="64" x="484.5" y="322.3281"/><text fill="#000000" font-family="sans-serif" font-size="14" lengthAdjust="spacing" textLength="50" x="491.5" y="343.8613">:System</text><rect fill="#FFFFFF" height="183.1094" style="stroke:#181818;stroke-width:1.0;" width="10" x="69.5" y="131.2188"/><rect fill="#FFFFFF" height="30.3516" style="stroke:#181818;stroke-width:1.0;" width="10" x="511.5" y="153.5703"/><rect fill="#FFFFFF" height="30.3516" style="stroke:#181818;stroke-width:1.0;" width="10" x="511.5" y="214.2734"/><rect fill="#FFFFFF" height="30.3516" style="stroke:#181818;stroke-width:1.0;" width="10" x="511.5" y="274.9766"/><polygon fill="#181818" points="499.5,149.5703,509.5,153.5703,499.5,157.5703,503.5,153.5703" style="stroke:#181818;stroke-width:1.0;"/><line style="stroke:#181818;stroke-width:1.0;" x1="79.5" x2="505.5" y1="153.5703" y2="153.5703"/><text fill="#000000" font-family="sans-serif" font-size="13" font-weight="bold" lengthAdjust="spacing" textLength="7" x="86.5" y="148.7139">1</text><text fill="#000000" font-family="sans-serif" font-size="13" lengthAdjust="spacing" textLength="161" x="97.5" y="148.7139">asks to register a new store</text><polygon fill="#181818" points="90.5,179.9219,80.5,183.9219,90.5,187.9219,86.5,183.9219" style="stroke:#181818;stroke-width:1.0;"/><line style="stroke:#181818;stroke-width:1.0;stroke-dasharray:2.0,2.0;" x1="84.5" x2="515.5" y1="183.9219" y2="183.9219"/><text fill="#000000" font-family="sans-serif" font-size="13" font-weight="bold" lengthAdjust="spacing" textLength="7" x="96.5" y="179.0654">2</text><text fill="#000000" font-family="sans-serif" font-size="13" lengthAdjust="spacing" textLength="79" x="107.5" y="179.0654">requests data</text><polygon fill="#181818" points="499.5,210.2734,509.5,214.2734,499.5,218.2734,503.5,214.2734" style="stroke:#181818;stroke-width:1.0;"/><line style="stroke:#181818;stroke-width:1.0;" x1="79.5" x2="505.5" y1="214.2734" y2="214.2734"/><text fill="#000000" font-family="sans-serif" font-size="13" font-weight="bold" lengthAdjust="spacing" textLength="7" x="86.5" y="209.417">3</text><text fill="#000000" font-family="sans-serif" font-size="13" lengthAdjust="spacing" textLength="402" x="97.5" y="209.417">types requested data (ID, designation, location, phone number, email)</text><polygon fill="#181818" points="90.5,240.625,80.5,244.625,90.5,248.625,86.5,244.625" style="stroke:#181818;stroke-width:1.0;"/><line style="stroke:#181818;stroke-width:1.0;stroke-dasharray:2.0,2.0;" x1="84.5" x2="515.5" y1="244.625" y2="244.625"/><text fill="#000000" font-family="sans-serif" font-size="13" font-weight="bold" lengthAdjust="spacing" textLength="7" x="96.5" y="239.7686">4</text><text fill="#000000" font-family="sans-serif" font-size="13" lengthAdjust="spacing" textLength="215" x="107.5" y="239.7686">shows data and asks for confirmation</text><polygon fill="#181818" points="499.5,270.9766,509.5,274.9766,499.5,278.9766,503.5,274.9766" style="stroke:#181818;stroke-width:1.0;"/><line style="stroke:#181818;stroke-width:1.0;" x1="79.5" x2="505.5" y1="274.9766" y2="274.9766"/><text fill="#000000" font-family="sans-serif" font-size="13" font-weight="bold" lengthAdjust="spacing" textLength="7" x="86.5" y="270.1201">5</text><text fill="#000000" font-family="sans-serif" font-size="13" lengthAdjust="spacing" textLength="78" x="97.5" y="270.1201">confirms data</text><polygon fill="#181818" points="90.5,301.3281,80.5,305.3281,90.5,309.3281,86.5,305.3281" style="stroke:#181818;stroke-width:1.0;"/><line style="stroke:#181818;stroke-width:1.0;stroke-dasharray:2.0,2.0;" x1="84.5" x2="515.5" y1="305.3281" y2="305.3281"/><text fill="#000000" font-family="sans-serif" font-size="13" font-weight="bold" lengthAdjust="spacing" textLength="7" x="96.5" y="300.4717">6</text><text fill="#000000" font-family="sans-serif" font-size="13" lengthAdjust="spacing" textLength="158" x="107.5" y="300.4717">displays operation success</text><!--SRC=[dP4zRiCm38LtdOB8b0391J8KA90EdNq2Lc9i8VghI3VmxSlATfeX6LfDbFtUnqUABpuLh1WXvfJjK7Caa3gIuTkVWlQ2FNKo1O9ALZ3ruLx00xfyzQc7CmOcOyIBIhk9XI9qz3bIiWGdZ_sFVDjrfvqnE4fEO_oWghMLN66pE5vTzCcpLDIl6q26jrX2deYCDXHlVS4ai3dE-gQOoqRoNoZqQp6WPxt1uMNDTLJRXK6opjHhDwg0aEWAh5sfkMwmbGxBMH07fTt8H-Nef2mC3WMRrj53nCCqCXNYbK6kGM3xVjehXNsVK7nEUmZPBbKPSYAOLxW7YkZ3xZ-nUSZNEJDWSlDMpleSDgUphx5rUpRDyt4Mzzqo_XZBUIu19uPSgBOGmAErnFmap3S0]--></g></svg>