<?xml version="1.0" encoding="UTF-8" standalone="no"?><svg xmlns="http://www.w3.org/2000/svg" xmlns:xlink="http://www.w3.org/1999/xlink" contentStyleType="text/css" height="531px" preserveAspectRatio="none" style="width:531px;height:531px;background:#FFFFFF;" version="1.1" viewBox="0 0 531 531" width="531px" zoomAndPan="magnify"><defs/><g><text fill="#000000" font-family="sans-serif" font-size="14" font-weight="bold" lengthAdjust="spacing" textLength="284" x="125" y="29.5332">System Sequence Diagram (SSD) - US007</text><rect fill="#FFFFFF" height="308.8672" style="stroke:#181818;stroke-width:1.0;" width="10" x="75" y="131.2188"/><rect fill="#FFFFFF" height="46.7031" style="stroke:#181818;stroke-width:1.0;" width="10" x="478" y="153.5703"/><rect fill="#FFFFFF" height="30.3516" style="stroke:#181818;stroke-width:1.0;" width="10" x="478" y="246.9766"/><rect fill="#FFFFFF" height="37.3516" style="stroke:#181818;stroke-width:1.0;" width="10" x="478" y="333.0313"/><rect fill="#FFFFFF" height="30.3516" style="stroke:#181818;stroke-width:1.0;" width="10" x="478" y="400.7344"/><rect fill="none" height="48.7031" style="stroke:#000000;stroke-width:1.5;" width="515" x="10" y="292.3281"/><line style="stroke:#181818;stroke-width:0.5;stroke-dasharray:5.0,5.0;" x1="80" x2="80" y1="121.2188" y2="449.0859"/><line style="stroke:#181818;stroke-width:0.5;stroke-dasharray:5.0,5.0;" x1="483" x2="483" y1="121.2188" y2="449.0859"/><text fill="#000000" font-family="sans-serif" font-size="14" lengthAdjust="spacing" textLength="114" x="20" y="118.1426">Unregistered User</text><ellipse cx="80" cy="52.1094" fill="#E3E3E3" rx="8" ry="8" style="stroke:#181818;stroke-width:0.5;"/><path d="M80,60.1094 L80,87.1094 M67,68.1094 L93,68.1094 M80,87.1094 L67,102.1094 M80,87.1094 L93,102.1094 " fill="none" style="stroke:#181818;stroke-width:0.5;"/><text fill="#000000" font-family="sans-serif" font-size="14" lengthAdjust="spacing" textLength="114" x="20" y="462.6191">Unregistered User</text><ellipse cx="80" cy="474.1953" fill="#E3E3E3" rx="8" ry="8" style="stroke:#181818;stroke-width:0.5;"/><path d="M80,482.1953 L80,509.1953 M67,490.1953 L93,490.1953 M80,509.1953 L67,524.1953 M80,509.1953 L93,524.1953 " fill="none" style="stroke:#181818;stroke-width:0.5;"/><rect fill="#E3E3E3" height="31.6094" rx="2.5" ry="2.5" style="stroke:#181818;stroke-width:0.5;" width="64" x="451" y="88.6094"/><text fill="#000000" font-family="sans-serif" font-size="14" lengthAdjust="spacing" textLength="50" x="458" y="110.1426">:System</text><rect fill="#E3E3E3" height="31.6094" rx="2.5" ry="2.5" style="stroke:#181818;stroke-width:0.5;" width="64" x="451" y="448.0859"/><text fill="#000000" font-family="sans-serif" font-size="14" lengthAdjust="spacing" textLength="50" x="458" y="469.6191">:System</text><rect fill="#FFFFFF" height="308.8672" style="stroke:#181818;stroke-width:1.0;" width="10" x="75" y="131.2188"/><rect fill="#FFFFFF" height="46.7031" style="stroke:#181818;stroke-width:1.0;" width="10" x="478" y="153.5703"/><rect fill="#FFFFFF" height="30.3516" style="stroke:#181818;stroke-width:1.0;" width="10" x="478" y="246.9766"/><rect fill="#FFFFFF" height="37.3516" style="stroke:#181818;stroke-width:1.0;" width="10" x="478" y="333.0313"/><rect fill="#FFFFFF" height="30.3516" style="stroke:#181818;stroke-width:1.0;" width="10" x="478" y="400.7344"/><polygon fill="#181818" points="466,149.5703,476,153.5703,466,157.5703,470,153.5703" style="stroke:#181818;stroke-width:1.0;"/><line style="stroke:#181818;stroke-width:1.0;" x1="85" x2="472" y1="153.5703" y2="153.5703"/><text fill="#000000" font-family="sans-serif" font-size="13" font-weight="bold" lengthAdjust="spacing" textLength="7" x="92" y="148.7139">1</text><text fill="#000000" font-family="sans-serif" font-size="13" lengthAdjust="spacing" textLength="173" x="103" y="148.7139">asks to register in the system</text><polygon fill="#181818" points="96,196.2734,86,200.2734,96,204.2734,92,200.2734" style="stroke:#181818;stroke-width:1.0;"/><line style="stroke:#181818;stroke-width:1.0;stroke-dasharray:2.0,2.0;" x1="90" x2="482" y1="200.2734" y2="200.2734"/><text fill="#000000" font-family="sans-serif" font-size="13" font-weight="bold" lengthAdjust="spacing" textLength="7" x="102" y="187.2412">2</text><text fill="#000000" font-family="sans-serif" font-size="13" lengthAdjust="spacing" textLength="326" x="113" y="179.0654">requests data (name, passportCardNumber, tax number,</text><text fill="#000000" font-family="sans-serif" font-size="13" lengthAdjust="spacing" textLength="234" x="117" y="195.417">emailAddress, phoneNumber, password)</text><polygon fill="#181818" points="466,242.9766,476,246.9766,466,250.9766,470,246.9766" style="stroke:#181818;stroke-width:1.0;"/><line style="stroke:#181818;stroke-width:1.0;" x1="85" x2="472" y1="246.9766" y2="246.9766"/><text fill="#000000" font-family="sans-serif" font-size="13" font-weight="bold" lengthAdjust="spacing" textLength="7" x="92" y="233.9443">3</text><text fill="#000000" font-family="sans-serif" font-size="13" lengthAdjust="spacing" textLength="363" x="103" y="225.7686">types requested data (name, passportCardNumber,taxNumber,</text><text fill="#000000" font-family="sans-serif" font-size="13" lengthAdjust="spacing" textLength="234" x="107" y="242.1201">emailAddress, phoneNumber, password)</text><polygon fill="#181818" points="96,273.3281,86,277.3281,96,281.3281,92,277.3281" style="stroke:#181818;stroke-width:1.0;"/><line style="stroke:#181818;stroke-width:1.0;stroke-dasharray:2.0,2.0;" x1="90" x2="482" y1="277.3281" y2="277.3281"/><text fill="#000000" font-family="sans-serif" font-size="13" font-weight="bold" lengthAdjust="spacing" textLength="7" x="102" y="272.4717">4</text><text fill="#000000" font-family="sans-serif" font-size="13" lengthAdjust="spacing" textLength="136" x="113" y="272.4717">requests data (location)</text><path d="M10,292.3281 L75,292.3281 L75,300.6797 L65,310.6797 L10,310.6797 L10,292.3281 " fill="#EEEEEE" style="stroke:#000000;stroke-width:1.5;"/><rect fill="none" height="48.7031" style="stroke:#000000;stroke-width:1.5;" width="515" x="10" y="292.3281"/><text fill="#000000" font-family="sans-serif" font-size="13" font-weight="bold" lengthAdjust="spacing" textLength="20" x="25" y="306.8232">opt</text><polygon fill="#181818" points="466,329.0313,476,333.0313,466,337.0313,470,333.0313" style="stroke:#181818;stroke-width:1.0;"/><line style="stroke:#181818;stroke-width:1.0;" x1="85" x2="472" y1="333.0313" y2="333.0313"/><text fill="#000000" font-family="sans-serif" font-size="13" font-weight="bold" lengthAdjust="spacing" textLength="7" x="92" y="328.1748">5</text><text fill="#000000" font-family="sans-serif" font-size="13" lengthAdjust="spacing" textLength="179" x="103" y="328.1748">types requested data (location)</text><polygon fill="#181818" points="96,366.3828,86,370.3828,96,374.3828,92,370.3828" style="stroke:#181818;stroke-width:1.0;"/><line style="stroke:#181818;stroke-width:1.0;stroke-dasharray:2.0,2.0;" x1="90" x2="482" y1="370.3828" y2="370.3828"/><text fill="#000000" font-family="sans-serif" font-size="13" font-weight="bold" lengthAdjust="spacing" textLength="7" x="102" y="365.5264">6</text><text fill="#000000" font-family="sans-serif" font-size="13" lengthAdjust="spacing" textLength="236" x="113" y="365.5264">shows all data and asks for confirmation.</text><polygon fill="#181818" points="466,396.7344,476,400.7344,466,404.7344,470,400.7344" style="stroke:#181818;stroke-width:1.0;"/><line style="stroke:#181818;stroke-width:1.0;" x1="85" x2="472" y1="400.7344" y2="400.7344"/><text fill="#000000" font-family="sans-serif" font-size="13" font-weight="bold" lengthAdjust="spacing" textLength="7" x="92" y="395.8779">7</text><text fill="#000000" font-family="sans-serif" font-size="13" lengthAdjust="spacing" textLength="75" x="103" y="395.8779">submits data</text><polygon fill="#181818" points="96,427.0859,86,431.0859,96,435.0859,92,431.0859" style="stroke:#181818;stroke-width:1.0;"/><line style="stroke:#181818;stroke-width:1.0;stroke-dasharray:2.0,2.0;" x1="90" x2="482" y1="431.0859" y2="431.0859"/><text fill="#000000" font-family="sans-serif" font-size="13" font-weight="bold" lengthAdjust="spacing" textLength="7" x="102" y="426.2295">8</text><text fill="#000000" font-family="sans-serif" font-size="13" lengthAdjust="spacing" textLength="158" x="113" y="426.2295">displays operation success</text><!--SRC=[dP9FRy8m3CNl_HGM9v1WuZQ9mwHfdBbKt7OnYMaZcgIBtJ6-_ToKelrZ4yl9Ibv-xza97rneCQ477qCqTOgUG5971LzEMZG7hAYKKqEGo0Y6glaeu1fjFBfGmHuRfg8G9oejJopaeQINZe8XM3kiUlcqBDSpMC2sN2xlYm8xYQ7pEqfQ6ua99jkGg79wEv65BLEQ078k2dKKProBGM2o6YpowL1cX7j5eK5UWAw-WiN366YbyWE3H1XTm0MGce07Hd_dWXcv_UOPi51MPgwKeCsnC5WKX6b0JtCT67CRapnXiflSsHm4ts3eSluSW3owvj7QHCoghsEWKTXVFiPaPzdHqez1ldKafvPuJAD3-oEEfjdS7kP_CscYGN4n_DfGREMMnZuplnBxFGesGwzav3eU6R1f1Y2gEd-AlNu_4yFU9PyDxcvw1UvstfqRlsLYrd7Ru8arCQNigoXZz3sksBy3]--></g></svg>