<?xml version="1.0" encoding="UTF-8" standalone="no"?><svg xmlns="http://www.w3.org/2000/svg" xmlns:xlink="http://www.w3.org/1999/xlink" contentStyleType="text/css" height="1659px" preserveAspectRatio="none" style="width:2000px;height:1659px;background:#FFFFFF;" version="1.1" viewBox="0 0 2000 1659" width="2000px" zoomAndPan="magnify"><defs/><g><rect fill="#FFFFFF" height="1475.9688" style="stroke:#181818;stroke-width:1.0;" width="10" x="69.5" y="92.6094"/><rect fill="#FFFFFF" height="72.9609" style="stroke:#181818;stroke-width:1.0;" width="10" x="388.5" y="114.9609"/><rect fill="#FFFFFF" height="30.3516" style="stroke:#181818;stroke-width:1.0;" width="10" x="388.5" y="218.2734"/><rect fill="#FFFFFF" height="1280.6016" style="stroke:#181818;stroke-width:1.0;" width="10" x="388.5" y="278.9766"/><rect fill="#FFFFFF" height="1219.8984" style="stroke:#181818;stroke-width:1.0;" width="10" x="608.5" y="309.3281"/><rect fill="#FFFFFF" height="87.7969" style="stroke:#181818;stroke-width:1.0;" width="10" x="613.5" y="843.9297"/><rect fill="#FFFFFF" height="87.7969" style="stroke:#181818;stroke-width:1.0;" width="10" x="613.5" y="1002.0781"/><rect fill="#FFFFFF" height="87.7969" style="stroke:#181818;stroke-width:1.0;" width="10" x="613.5" y="1160.2266"/><rect fill="#FFFFFF" height="87.7969" style="stroke:#181818;stroke-width:1.0;" width="10" x="613.5" y="1404.0781"/><rect fill="#FFFFFF" height="30.3516" style="stroke:#181818;stroke-width:1.0;" width="10" x="1054.5" y="1310.375"/><rect fill="#FFFFFF" height="440.8984" style="stroke:#181818;stroke-width:1.0;" width="10" x="1151" y="339.6797"/><rect fill="#FFFFFF" height="41.3516" style="stroke:#181818;stroke-width:1.0;" width="10" x="1156" y="463.6016"/><rect fill="#FFFFFF" height="90.5703" style="stroke:#181818;stroke-width:1.0;" width="10" x="1405" y="567.3047"/><rect fill="#FFFFFF" height="30" style="stroke:#181818;stroke-width:1.0;" width="10" x="1892" y="688.2266"/><rect fill="none" height="336.3281" style="stroke:#000000;stroke-width:1.5;" width="903" x="1091" y="414.8984"/><line style="stroke:#181818;stroke-width:0.5;stroke-dasharray:5.0,5.0;" x1="74" x2="74" y1="82.6094" y2="1577.5781"/><line style="stroke:#181818;stroke-width:0.5;stroke-dasharray:5.0,5.0;" x1="393" x2="393" y1="82.6094" y2="1577.5781"/><line style="stroke:#181818;stroke-width:0.5;stroke-dasharray:5.0,5.0;" x1="613" x2="613" y1="154.2656" y2="1577.5781"/><line style="stroke:#181818;stroke-width:0.5;stroke-dasharray:5.0,5.0;" x1="1059" x2="1059" y1="82.6094" y2="1577.5781"/><line style="stroke:#181818;stroke-width:0.5;stroke-dasharray:5.0,5.0;" x1="1156" x2="1156" y1="82.6094" y2="1577.5781"/><line style="stroke:#181818;stroke-width:0.5;stroke-dasharray:5.0,5.0;" x1="1410" x2="1410" y1="82.6094" y2="1577.5781"/><line style="stroke:#181818;stroke-width:0.5;stroke-dasharray:5.0,5.0;" x1="1734" x2="1734" y1="615.4141" y2="1577.5781"/><line style="stroke:#181818;stroke-width:0.5;stroke-dasharray:5.0,5.0;" x1="1897" x2="1897" y1="387.7891" y2="1577.5781"/><text fill="#000000" font-family="sans-serif" font-size="14" lengthAdjust="spacing" textLength="133" x="5" y="79.5332">System Administrator</text><ellipse cx="74.5" cy="13.5" fill="#E3E3E3" rx="8" ry="8" style="stroke:#181818;stroke-width:0.5;"/><path d="M74.5,21.5 L74.5,48.5 M61.5,29.5 L87.5,29.5 M74.5,48.5 L61.5,63.5 M74.5,48.5 L87.5,63.5 " fill="none" style="stroke:#181818;stroke-width:0.5;"/><text fill="#000000" font-family="sans-serif" font-size="14" lengthAdjust="spacing" textLength="133" x="5" y="1591.1113">System Administrator</text><ellipse cx="74.5" cy="1602.6875" fill="#E3E3E3" rx="8" ry="8" style="stroke:#181818;stroke-width:0.5;"/><path d="M74.5,1610.6875 L74.5,1637.6875 M61.5,1618.6875 L87.5,1618.6875 M74.5,1637.6875 L61.5,1652.6875 M74.5,1637.6875 L87.5,1652.6875 " fill="none" style="stroke:#181818;stroke-width:0.5;"/><rect fill="#E3E3E3" height="31.6094" rx="2.5" ry="2.5" style="stroke:#181818;stroke-width:0.5;" width="185" x="301" y="50"/><text fill="#000000" font-family="sans-serif" font-size="14" lengthAdjust="spacing" textLength="171" x="308" y="71.5332">:ImportLegacyInformationUI</text><rect fill="#E3E3E3" height="31.6094" rx="2.5" ry="2.5" style="stroke:#181818;stroke-width:0.5;" width="185" x="301" y="1576.5781"/><text fill="#000000" font-family="sans-serif" font-size="14" lengthAdjust="spacing" textLength="171" x="308" y="1598.1113">:ImportLegacyInformationUI</text><rect fill="#E3E3E3" height="31.6094" rx="2.5" ry="2.5" style="stroke:#181818;stroke-width:0.5;" width="235" x="496" y="1576.5781"/><text fill="#000000" font-family="sans-serif" font-size="14" lengthAdjust="spacing" textLength="221" x="503" y="1598.1113">:ImportLegacyInformationController</text><rect fill="#E3E3E3" height="49.2188" rx="2.5" ry="2.5" style="stroke:#181818;stroke-width:0.5;" width="63" x="1028" y="32.3906"/><text fill="#000000" font-family="sans-serif" font-size="14" lengthAdjust="spacing" textLength="44" x="1037.5" y="53.9238">person</text><text fill="#000000" font-family="sans-serif" font-size="14" lengthAdjust="spacing" textLength="49" x="1035" y="71.5332">:Person</text><rect fill="#E3E3E3" height="49.2188" rx="2.5" ry="2.5" style="stroke:#181818;stroke-width:0.5;" width="63" x="1028" y="1576.5781"/><text fill="#000000" font-family="sans-serif" font-size="14" lengthAdjust="spacing" textLength="44" x="1037.5" y="1598.1113">person</text><text fill="#000000" font-family="sans-serif" font-size="14" lengthAdjust="spacing" textLength="49" x="1035" y="1615.7207">:Person</text><rect fill="#E3E3E3" height="49.2188" rx="2.5" ry="2.5" style="stroke:#181818;stroke-width:0.5;" width="110" x="1101" y="32.3906"/><text fill="#000000" font-family="sans-serif" font-size="14" lengthAdjust="spacing" textLength="87" x="1112.5" y="53.9238">legacySystem</text><text fill="#000000" font-family="sans-serif" font-size="14" lengthAdjust="spacing" textLength="96" x="1108" y="71.5332">:LegacySystem</text><rect fill="#E3E3E3" height="49.2188" rx="2.5" ry="2.5" style="stroke:#181818;stroke-width:0.5;" width="110" x="1101" y="1576.5781"/><text fill="#000000" font-family="sans-serif" font-size="14" lengthAdjust="spacing" textLength="87" x="1112.5" y="1598.1113">legacySystem</text><text fill="#000000" font-family="sans-serif" font-size="14" lengthAdjust="spacing" textLength="96" x="1108" y="1615.7207">:LegacySystem</text><rect fill="#E3E3E3" height="49.2188" rx="2.5" ry="2.5" style="stroke:#181818;stroke-width:0.5;" width="158" x="1331" y="32.3906"/><text fill="#000000" font-family="sans-serif" font-size="14" lengthAdjust="spacing" textLength="135" x="1342.5" y="53.9238">legacySystemMapper</text><text fill="#000000" font-family="sans-serif" font-size="14" lengthAdjust="spacing" textLength="144" x="1338" y="71.5332">:LegacySystemMapper</text><rect fill="#E3E3E3" height="49.2188" rx="2.5" ry="2.5" style="stroke:#181818;stroke-width:0.5;" width="158" x="1331" y="1576.5781"/><text fill="#000000" font-family="sans-serif" font-size="14" lengthAdjust="spacing" textLength="135" x="1342.5" y="1598.1113">legacySystemMapper</text><text fill="#000000" font-family="sans-serif" font-size="14" lengthAdjust="spacing" textLength="144" x="1338" y="1615.7207">:LegacySystemMapper</text><rect fill="#E3E3E3" height="49.2188" rx="2.5" ry="2.5" style="stroke:#181818;stroke-width:0.5;" width="132" x="1668" y="1576.5781"/><text fill="#000000" font-family="sans-serif" font-size="14" lengthAdjust="spacing" textLength="109" x="1679.5" y="1598.1113">legacySystemDto</text><text fill="#000000" font-family="sans-serif" font-size="14" lengthAdjust="spacing" textLength="118" x="1675" y="1615.7207">:LegacySystemDto</text><rect fill="#E3E3E3" height="49.2188" rx="2.5" ry="2.5" style="stroke:#181818;stroke-width:0.5;" width="174" x="1810" y="1576.5781"/><text fill="#000000" font-family="sans-serif" font-size="14" lengthAdjust="spacing" textLength="131" x="1831.5" y="1598.1113">legacySystemDtoList</text><text fill="#000000" font-family="sans-serif" font-size="14" lengthAdjust="spacing" textLength="160" x="1817" y="1615.7207">: List&lt;LegacySystemDto&gt;</text><rect fill="#FFFFFF" height="1475.9688" style="stroke:#181818;stroke-width:1.0;" width="10" x="69.5" y="92.6094"/><rect fill="#FFFFFF" height="72.9609" style="stroke:#181818;stroke-width:1.0;" width="10" x="388.5" y="114.9609"/><rect fill="#FFFFFF" height="30.3516" style="stroke:#181818;stroke-width:1.0;" width="10" x="388.5" y="218.2734"/><rect fill="#FFFFFF" height="1280.6016" style="stroke:#181818;stroke-width:1.0;" width="10" x="388.5" y="278.9766"/><rect fill="#FFFFFF" height="1219.8984" style="stroke:#181818;stroke-width:1.0;" width="10" x="608.5" y="309.3281"/><rect fill="#FFFFFF" height="87.7969" style="stroke:#181818;stroke-width:1.0;" width="10" x="613.5" y="843.9297"/><rect fill="#FFFFFF" height="87.7969" style="stroke:#181818;stroke-width:1.0;" width="10" x="613.5" y="1002.0781"/><rect fill="#FFFFFF" height="87.7969" style="stroke:#181818;stroke-width:1.0;" width="10" x="613.5" y="1160.2266"/><rect fill="#FFFFFF" height="87.7969" style="stroke:#181818;stroke-width:1.0;" width="10" x="613.5" y="1404.0781"/><rect fill="#FFFFFF" height="30.3516" style="stroke:#181818;stroke-width:1.0;" width="10" x="1054.5" y="1310.375"/><rect fill="#FFFFFF" height="440.8984" style="stroke:#181818;stroke-width:1.0;" width="10" x="1151" y="339.6797"/><rect fill="#FFFFFF" height="41.3516" style="stroke:#181818;stroke-width:1.0;" width="10" x="1156" y="463.6016"/><rect fill="#FFFFFF" height="90.5703" style="stroke:#181818;stroke-width:1.0;" width="10" x="1405" y="567.3047"/><rect fill="#FFFFFF" height="30" style="stroke:#181818;stroke-width:1.0;" width="10" x="1892" y="688.2266"/><polygon fill="#181818" points="376.5,110.9609,386.5,114.9609,376.5,118.9609,380.5,114.9609" style="stroke:#181818;stroke-width:1.0;"/><line style="stroke:#181818;stroke-width:1.0;" x1="79.5" x2="382.5" y1="114.9609" y2="114.9609"/><text fill="#000000" font-family="sans-serif" font-size="13" font-weight="bold" lengthAdjust="spacing" textLength="7" x="86.5" y="110.1045">1</text><text fill="#000000" font-family="sans-serif" font-size="13" lengthAdjust="spacing" textLength="279" x="97.5" y="110.1045">asks to import information from a legacy system</text><polygon fill="#181818" points="484,141.3125,494,145.3125,484,149.3125,488,145.3125" style="stroke:#181818;stroke-width:1.0;"/><line style="stroke:#181818;stroke-width:1.0;" x1="398.5" x2="490" y1="145.3125" y2="145.3125"/><text fill="#000000" font-family="sans-serif" font-size="13" font-weight="bold" lengthAdjust="spacing" textLength="7" x="405.5" y="140.4561">2</text><text fill="#000000" font-family="sans-serif" font-size="13" lengthAdjust="spacing" textLength="36" x="416.5" y="140.4561">create</text><rect fill="#E3E3E3" height="31.6094" rx="2.5" ry="2.5" style="stroke:#181818;stroke-width:0.5;" width="235" x="496" y="122.9609"/><text fill="#000000" font-family="sans-serif" font-size="14" lengthAdjust="spacing" textLength="221" x="503" y="144.4941">:ImportLegacyInformationController</text><polygon fill="#181818" points="90.5,183.9219,80.5,187.9219,90.5,191.9219,86.5,187.9219" style="stroke:#181818;stroke-width:1.0;"/><line style="stroke:#181818;stroke-width:1.0;stroke-dasharray:2.0,2.0;" x1="84.5" x2="392.5" y1="187.9219" y2="187.9219"/><text fill="#000000" font-family="sans-serif" font-size="13" font-weight="bold" lengthAdjust="spacing" textLength="7" x="96.5" y="183.0654">3</text><text fill="#000000" font-family="sans-serif" font-size="13" lengthAdjust="spacing" textLength="99" x="107.5" y="183.0654">requests file path</text><polygon fill="#181818" points="376.5,214.2734,386.5,218.2734,376.5,222.2734,380.5,218.2734" style="stroke:#181818;stroke-width:1.0;"/><line style="stroke:#181818;stroke-width:1.0;" x1="79.5" x2="382.5" y1="218.2734" y2="218.2734"/><text fill="#000000" font-family="sans-serif" font-size="13" font-weight="bold" lengthAdjust="spacing" textLength="7" x="86.5" y="213.417">4</text><text fill="#000000" font-family="sans-serif" font-size="13" lengthAdjust="spacing" textLength="81" x="97.5" y="213.417">types file path</text><polygon fill="#181818" points="90.5,244.625,80.5,248.625,90.5,252.625,86.5,248.625" style="stroke:#181818;stroke-width:1.0;"/><line style="stroke:#181818;stroke-width:1.0;stroke-dasharray:2.0,2.0;" x1="84.5" x2="392.5" y1="248.625" y2="248.625"/><text fill="#000000" font-family="sans-serif" font-size="13" font-weight="bold" lengthAdjust="spacing" textLength="7" x="96.5" y="243.7686">5</text><text fill="#000000" font-family="sans-serif" font-size="13" lengthAdjust="spacing" textLength="186" x="107.5" y="243.7686">asks to confirm and submit data</text><polygon fill="#181818" points="376.5,274.9766,386.5,278.9766,376.5,282.9766,380.5,278.9766" style="stroke:#181818;stroke-width:1.0;"/><line style="stroke:#181818;stroke-width:1.0;" x1="79.5" x2="382.5" y1="278.9766" y2="278.9766"/><text fill="#000000" font-family="sans-serif" font-size="13" font-weight="bold" lengthAdjust="spacing" textLength="7" x="86.5" y="274.1201">6</text><text fill="#000000" font-family="sans-serif" font-size="13" lengthAdjust="spacing" textLength="75" x="97.5" y="274.1201">submits data</text><polygon fill="#181818" points="596.5,305.3281,606.5,309.3281,596.5,313.3281,600.5,309.3281" style="stroke:#181818;stroke-width:1.0;"/><line style="stroke:#181818;stroke-width:1.0;" x1="398.5" x2="602.5" y1="309.3281" y2="309.3281"/><text fill="#000000" font-family="sans-serif" font-size="13" font-weight="bold" lengthAdjust="spacing" textLength="7" x="405.5" y="304.4717">7</text><text fill="#000000" font-family="sans-serif" font-size="13" lengthAdjust="spacing" textLength="150" x="416.5" y="304.4717">importInformation(filePath)</text><polygon fill="#181818" points="1139,335.6797,1149,339.6797,1139,343.6797,1143,339.6797" style="stroke:#181818;stroke-width:1.0;"/><line style="stroke:#181818;stroke-width:1.0;" x1="618.5" x2="1145" y1="339.6797" y2="339.6797"/><text fill="#000000" font-family="sans-serif" font-size="13" font-weight="bold" lengthAdjust="spacing" textLength="7" x="625.5" y="334.8232">8</text><text fill="#000000" font-family="sans-serif" font-size="13" lengthAdjust="spacing" textLength="148" x="636.5" y="334.8232">importInformation(filepath)</text><polygon fill="#181818" points="1798,366.0313,1808,370.0313,1798,374.0313,1802,370.0313" style="stroke:#181818;stroke-width:1.0;"/><line style="stroke:#181818;stroke-width:1.0;" x1="1161" x2="1804" y1="370.0313" y2="370.0313"/><text fill="#000000" font-family="sans-serif" font-size="13" font-weight="bold" lengthAdjust="spacing" textLength="7" x="1168" y="365.1748">9</text><text fill="#000000" font-family="sans-serif" font-size="13" lengthAdjust="spacing" textLength="44" x="1179" y="365.1748">create()</text><rect fill="#E3E3E3" height="49.2188" rx="2.5" ry="2.5" style="stroke:#181818;stroke-width:0.5;" width="174" x="1810" y="347.6797"/><text fill="#000000" font-family="sans-serif" font-size="14" lengthAdjust="spacing" textLength="131" x="1831.5" y="369.2129">legacySystemDtoList</text><text fill="#000000" font-family="sans-serif" font-size="14" lengthAdjust="spacing" textLength="160" x="1817" y="386.8223">: List&lt;LegacySystemDto&gt;</text><path d="M1091,414.8984 L1164,414.8984 L1164,423.25 L1154,433.25 L1091,433.25 L1091,414.8984 " fill="#EEEEEE" style="stroke:#000000;stroke-width:1.5;"/><rect fill="none" height="336.3281" style="stroke:#000000;stroke-width:1.5;" width="903" x="1091" y="414.8984"/><text fill="#000000" font-family="sans-serif" font-size="13" font-weight="bold" lengthAdjust="spacing" textLength="28" x="1106" y="429.3936">loop</text><text fill="#000000" font-family="sans-serif" font-size="11" font-weight="bold" lengthAdjust="spacing" textLength="131" x="1179" y="428.3174">[while file has next line]</text><line style="stroke:#181818;stroke-width:1.0;" x1="1161" x2="1208" y1="450.6016" y2="450.6016"/><line style="stroke:#181818;stroke-width:1.0;" x1="1208" x2="1208" y1="450.6016" y2="463.6016"/><line style="stroke:#181818;stroke-width:1.0;" x1="1167" x2="1208" y1="463.6016" y2="463.6016"/><polygon fill="#181818" points="1177,459.6016,1167,463.6016,1177,467.6016,1173,463.6016" style="stroke:#181818;stroke-width:1.0;"/><text fill="#000000" font-family="sans-serif" font-size="13" font-weight="bold" lengthAdjust="spacing" textLength="14" x="1173" y="445.7451">10</text><text fill="#000000" font-family="sans-serif" font-size="13" lengthAdjust="spacing" textLength="212" x="1191" y="445.7451">readLineInformationFromFile(filepath)</text><line style="stroke:#181818;stroke-width:1.0;stroke-dasharray:2.0,2.0;" x1="1166" x2="1208" y1="503.9531" y2="503.9531"/><line style="stroke:#181818;stroke-width:1.0;stroke-dasharray:2.0,2.0;" x1="1208" x2="1208" y1="503.9531" y2="516.9531"/><line style="stroke:#181818;stroke-width:1.0;stroke-dasharray:2.0,2.0;" x1="1161" x2="1208" y1="516.9531" y2="516.9531"/><polygon fill="#181818" points="1171,512.9531,1161,516.9531,1171,520.9531,1167,516.9531" style="stroke:#181818;stroke-width:1.0;"/><text fill="#000000" font-family="sans-serif" font-size="13" font-weight="bold" lengthAdjust="spacing" textLength="14" x="1173" y="499.0967">11</text><text fill="#000000" font-family="sans-serif" font-size="13" lengthAdjust="spacing" textLength="167" x="1191" y="499.0967">legacySystemInformationList</text><polygon fill="#181818" points="1393,563.3047,1403,567.3047,1393,571.3047,1397,567.3047" style="stroke:#181818;stroke-width:1.0;"/><line style="stroke:#181818;stroke-width:1.0;" x1="1161" x2="1399" y1="567.3047" y2="567.3047"/><text fill="#000000" font-family="sans-serif" font-size="13" font-weight="bold" lengthAdjust="spacing" textLength="14" x="1168" y="562.4482">12</text><text fill="#000000" font-family="sans-serif" font-size="13" lengthAdjust="spacing" textLength="206" x="1186" y="562.4482">toDto(legacySystemInformationList)</text><polygon fill="#181818" points="1656,593.6563,1666,597.6563,1656,601.6563,1660,597.6563" style="stroke:#181818;stroke-width:1.0;"/><line style="stroke:#181818;stroke-width:1.0;" x1="1415" x2="1662" y1="597.6563" y2="597.6563"/><text fill="#000000" font-family="sans-serif" font-size="13" font-weight="bold" lengthAdjust="spacing" textLength="14" x="1422" y="592.7998">13</text><text fill="#000000" font-family="sans-serif" font-size="13" lengthAdjust="spacing" textLength="211" x="1440" y="592.7998">create(legacySystemInformationList)</text><rect fill="#E3E3E3" height="49.2188" rx="2.5" ry="2.5" style="stroke:#181818;stroke-width:0.5;" width="132" x="1668" y="575.3047"/><text fill="#000000" font-family="sans-serif" font-size="14" lengthAdjust="spacing" textLength="109" x="1679.5" y="596.8379">legacySystemDto</text><text fill="#000000" font-family="sans-serif" font-size="14" lengthAdjust="spacing" textLength="118" x="1675" y="614.4473">:LegacySystemDto</text><polygon fill="#181818" points="1172,653.875,1162,657.875,1172,661.875,1168,657.875" style="stroke:#181818;stroke-width:1.0;"/><line style="stroke:#181818;stroke-width:1.0;stroke-dasharray:2.0,2.0;" x1="1166" x2="1409" y1="657.875" y2="657.875"/><text fill="#000000" font-family="sans-serif" font-size="13" font-weight="bold" lengthAdjust="spacing" textLength="14" x="1178" y="653.0186">14</text><text fill="#000000" font-family="sans-serif" font-size="13" lengthAdjust="spacing" textLength="103" x="1196" y="653.0186">legacySystemDto</text><polygon fill="#181818" points="1880,684.2266,1890,688.2266,1880,692.2266,1884,688.2266" style="stroke:#181818;stroke-width:1.0;"/><line style="stroke:#181818;stroke-width:1.0;" x1="1161" x2="1886" y1="688.2266" y2="688.2266"/><text fill="#000000" font-family="sans-serif" font-size="13" font-weight="bold" lengthAdjust="spacing" textLength="14" x="1168" y="683.3701">15</text><text fill="#000000" font-family="sans-serif" font-size="13" lengthAdjust="spacing" textLength="132" x="1186" y="683.3701">add(legacySystemDto)</text><polygon fill="#181818" points="629.5,776.5781,619.5,780.5781,629.5,784.5781,625.5,780.5781" style="stroke:#181818;stroke-width:1.0;"/><line style="stroke:#181818;stroke-width:1.0;stroke-dasharray:2.0,2.0;" x1="623.5" x2="1155" y1="780.5781" y2="780.5781"/><text fill="#000000" font-family="sans-serif" font-size="13" font-weight="bold" lengthAdjust="spacing" textLength="14" x="635.5" y="775.7217">16</text><text fill="#000000" font-family="sans-serif" font-size="13" lengthAdjust="spacing" textLength="124" x="653.5" y="775.7217">legacySystemDtoList</text><line style="stroke:#181818;stroke-width:1.0;" x1="618.5" x2="665.5" y1="830.9297" y2="830.9297"/><line style="stroke:#181818;stroke-width:1.0;" x1="665.5" x2="665.5" y1="830.9297" y2="843.9297"/><line style="stroke:#181818;stroke-width:1.0;" x1="624.5" x2="665.5" y1="843.9297" y2="843.9297"/><polygon fill="#181818" points="634.5,839.9297,624.5,843.9297,634.5,847.9297,630.5,843.9297" style="stroke:#181818;stroke-width:1.0;"/><text fill="#000000" font-family="sans-serif" font-size="13" font-weight="bold" lengthAdjust="spacing" textLength="14" x="630.5" y="826.0732">17</text><text fill="#000000" font-family="sans-serif" font-size="13" lengthAdjust="spacing" textLength="198" x="648.5" y="826.0732">registerAgency(legacySystemDto)</text><rect fill="none" height="41.4453" style="stroke:#000000;stroke-width:1.5;" width="241" x="493" y="856.9297"/><path d="M493,856.9297 L555,856.9297 L555,864.9297 L545,874.9297 L493,874.9297 L493,856.9297 " fill="#EEEEEE" style="stroke:#000000;stroke-width:2.0;"/><text fill="#000000" font-family="sans-serif" font-size="13" font-weight="bold" lengthAdjust="spacing" textLength="17" x="506" y="872.4248">ref</text><text fill="#000000" font-family="sans-serif" font-size="12" lengthAdjust="spacing" textLength="89" x="569" y="891.3867">Register Agency</text><line style="stroke:#181818;stroke-width:1.0;stroke-dasharray:2.0,2.0;" x1="623.5" x2="665.5" y1="930.7266" y2="930.7266"/><line style="stroke:#181818;stroke-width:1.0;stroke-dasharray:2.0,2.0;" x1="665.5" x2="665.5" y1="930.7266" y2="943.7266"/><line style="stroke:#181818;stroke-width:1.0;stroke-dasharray:2.0,2.0;" x1="618.5" x2="665.5" y1="943.7266" y2="943.7266"/><polygon fill="#181818" points="628.5,939.7266,618.5,943.7266,628.5,947.7266,624.5,943.7266" style="stroke:#181818;stroke-width:1.0;"/><text fill="#000000" font-family="sans-serif" font-size="13" font-weight="bold" lengthAdjust="spacing" textLength="14" x="630.5" y="925.8701">18</text><text fill="#000000" font-family="sans-serif" font-size="13" lengthAdjust="spacing" textLength="42" x="648.5" y="925.8701">agency</text><line style="stroke:#181818;stroke-width:1.0;" x1="618.5" x2="665.5" y1="989.0781" y2="989.0781"/><line style="stroke:#181818;stroke-width:1.0;" x1="665.5" x2="665.5" y1="989.0781" y2="1002.0781"/><line style="stroke:#181818;stroke-width:1.0;" x1="624.5" x2="665.5" y1="1002.0781" y2="1002.0781"/><polygon fill="#181818" points="634.5,998.0781,624.5,1002.0781,634.5,1006.0781,630.5,1002.0781" style="stroke:#181818;stroke-width:1.0;"/><text fill="#000000" font-family="sans-serif" font-size="13" font-weight="bold" lengthAdjust="spacing" textLength="14" x="630.5" y="984.2217">19</text><text fill="#000000" font-family="sans-serif" font-size="13" lengthAdjust="spacing" textLength="127" x="648.5" y="984.2217">registerAgent(agency)</text><rect fill="none" height="41.4453" style="stroke:#000000;stroke-width:1.5;" width="241" x="493" y="1015.0781"/><path d="M493,1015.0781 L555,1015.0781 L555,1023.0781 L545,1033.0781 L493,1033.0781 L493,1015.0781 " fill="#EEEEEE" style="stroke:#000000;stroke-width:2.0;"/><text fill="#000000" font-family="sans-serif" font-size="13" font-weight="bold" lengthAdjust="spacing" textLength="17" x="506" y="1030.5732">ref</text><text fill="#000000" font-family="sans-serif" font-size="12" lengthAdjust="spacing" textLength="81" x="573" y="1049.5352">Register Agent</text><line style="stroke:#181818;stroke-width:1.0;stroke-dasharray:2.0,2.0;" x1="623.5" x2="665.5" y1="1088.875" y2="1088.875"/><line style="stroke:#181818;stroke-width:1.0;stroke-dasharray:2.0,2.0;" x1="665.5" x2="665.5" y1="1088.875" y2="1101.875"/><line style="stroke:#181818;stroke-width:1.0;stroke-dasharray:2.0,2.0;" x1="618.5" x2="665.5" y1="1101.875" y2="1101.875"/><polygon fill="#181818" points="628.5,1097.875,618.5,1101.875,628.5,1105.875,624.5,1101.875" style="stroke:#181818;stroke-width:1.0;"/><text fill="#000000" font-family="sans-serif" font-size="13" font-weight="bold" lengthAdjust="spacing" textLength="14" x="630.5" y="1084.0186">20</text><text fill="#000000" font-family="sans-serif" font-size="13" lengthAdjust="spacing" textLength="32" x="648.5" y="1084.0186">agent</text><line style="stroke:#181818;stroke-width:1.0;" x1="618.5" x2="665.5" y1="1147.2266" y2="1147.2266"/><line style="stroke:#181818;stroke-width:1.0;" x1="665.5" x2="665.5" y1="1147.2266" y2="1160.2266"/><line style="stroke:#181818;stroke-width:1.0;" x1="624.5" x2="665.5" y1="1160.2266" y2="1160.2266"/><polygon fill="#181818" points="634.5,1156.2266,624.5,1160.2266,634.5,1164.2266,630.5,1160.2266" style="stroke:#181818;stroke-width:1.0;"/><text fill="#000000" font-family="sans-serif" font-size="13" font-weight="bold" lengthAdjust="spacing" textLength="14" x="630.5" y="1142.3701">21</text><text fill="#000000" font-family="sans-serif" font-size="13" lengthAdjust="spacing" textLength="191" x="648.5" y="1142.3701">registerOwner(legacySystemDto)</text><rect fill="none" height="41.4453" style="stroke:#000000;stroke-width:1.5;" width="241" x="493" y="1173.2266"/><path d="M493,1173.2266 L555,1173.2266 L555,1181.2266 L545,1191.2266 L493,1191.2266 L493,1173.2266 " fill="#EEEEEE" style="stroke:#000000;stroke-width:2.0;"/><text fill="#000000" font-family="sans-serif" font-size="13" font-weight="bold" lengthAdjust="spacing" textLength="17" x="506" y="1188.7217">ref</text><text fill="#000000" font-family="sans-serif" font-size="12" lengthAdjust="spacing" textLength="86" x="570.5" y="1207.6836">Register Owner</text><line style="stroke:#181818;stroke-width:1.0;stroke-dasharray:2.0,2.0;" x1="623.5" x2="665.5" y1="1247.0234" y2="1247.0234"/><line style="stroke:#181818;stroke-width:1.0;stroke-dasharray:2.0,2.0;" x1="665.5" x2="665.5" y1="1247.0234" y2="1260.0234"/><line style="stroke:#181818;stroke-width:1.0;stroke-dasharray:2.0,2.0;" x1="618.5" x2="665.5" y1="1260.0234" y2="1260.0234"/><polygon fill="#181818" points="628.5,1256.0234,618.5,1260.0234,628.5,1264.0234,624.5,1260.0234" style="stroke:#181818;stroke-width:1.0;"/><text fill="#000000" font-family="sans-serif" font-size="13" font-weight="bold" lengthAdjust="spacing" textLength="14" x="630.5" y="1242.167">22</text><text fill="#000000" font-family="sans-serif" font-size="13" lengthAdjust="spacing" textLength="39" x="648.5" y="1242.167">person</text><polygon fill="#181818" points="1042.5,1306.375,1052.5,1310.375,1042.5,1314.375,1046.5,1310.375" style="stroke:#181818;stroke-width:1.0;"/><line style="stroke:#181818;stroke-width:1.0;" x1="618.5" x2="1048.5" y1="1310.375" y2="1310.375"/><text fill="#000000" font-family="sans-serif" font-size="13" font-weight="bold" lengthAdjust="spacing" textLength="14" x="625.5" y="1305.5186">23</text><text fill="#000000" font-family="sans-serif" font-size="13" lengthAdjust="spacing" textLength="107" x="643.5" y="1305.5186">getEmailAddress()</text><polygon fill="#181818" points="629.5,1336.7266,619.5,1340.7266,629.5,1344.7266,625.5,1340.7266" style="stroke:#181818;stroke-width:1.0;"/><line style="stroke:#181818;stroke-width:1.0;stroke-dasharray:2.0,2.0;" x1="623.5" x2="1058.5" y1="1340.7266" y2="1340.7266"/><text fill="#000000" font-family="sans-serif" font-size="13" font-weight="bold" lengthAdjust="spacing" textLength="14" x="635.5" y="1335.8701">24</text><text fill="#000000" font-family="sans-serif" font-size="13" lengthAdjust="spacing" textLength="67" x="653.5" y="1335.8701">ownerEmail</text><line style="stroke:#181818;stroke-width:1.0;" x1="618.5" x2="665.5" y1="1391.0781" y2="1391.0781"/><line style="stroke:#181818;stroke-width:1.0;" x1="665.5" x2="665.5" y1="1391.0781" y2="1404.0781"/><line style="stroke:#181818;stroke-width:1.0;" x1="624.5" x2="665.5" y1="1404.0781" y2="1404.0781"/><polygon fill="#181818" points="634.5,1400.0781,624.5,1404.0781,634.5,1408.0781,630.5,1404.0781" style="stroke:#181818;stroke-width:1.0;"/><text fill="#000000" font-family="sans-serif" font-size="13" font-weight="bold" lengthAdjust="spacing" textLength="14" x="630.5" y="1386.2217">25</text><text fill="#000000" font-family="sans-serif" font-size="13" lengthAdjust="spacing" textLength="404" x="648.5" y="1386.2217">publishAnnouncement(legacySystemDto, agency, agent, ownerEmail)</text><rect fill="none" height="41.4453" style="stroke:#000000;stroke-width:1.5;" width="241" x="493" y="1417.0781"/><path d="M493,1417.0781 L555,1417.0781 L555,1425.0781 L545,1435.0781 L493,1435.0781 L493,1417.0781 " fill="#EEEEEE" style="stroke:#000000;stroke-width:2.0;"/><text fill="#000000" font-family="sans-serif" font-size="13" font-weight="bold" lengthAdjust="spacing" textLength="17" x="506" y="1432.5732">ref</text><text fill="#000000" font-family="sans-serif" font-size="12" lengthAdjust="spacing" textLength="128" x="549.5" y="1451.5352">Publish Announcement</text><line style="stroke:#181818;stroke-width:1.0;stroke-dasharray:2.0,2.0;" x1="623.5" x2="665.5" y1="1490.875" y2="1490.875"/><line style="stroke:#181818;stroke-width:1.0;stroke-dasharray:2.0,2.0;" x1="665.5" x2="665.5" y1="1490.875" y2="1503.875"/><line style="stroke:#181818;stroke-width:1.0;stroke-dasharray:2.0,2.0;" x1="618.5" x2="665.5" y1="1503.875" y2="1503.875"/><polygon fill="#181818" points="628.5,1499.875,618.5,1503.875,628.5,1507.875,624.5,1503.875" style="stroke:#181818;stroke-width:1.0;"/><text fill="#000000" font-family="sans-serif" font-size="13" font-weight="bold" lengthAdjust="spacing" textLength="14" x="630.5" y="1486.0186">26</text><text fill="#000000" font-family="sans-serif" font-size="13" lengthAdjust="spacing" textLength="104" x="648.5" y="1486.0186">operationSuccess</text><polygon fill="#181818" points="409.5,1525.2266,399.5,1529.2266,409.5,1533.2266,405.5,1529.2266" style="stroke:#181818;stroke-width:1.0;"/><line style="stroke:#181818;stroke-width:1.0;stroke-dasharray:2.0,2.0;" x1="403.5" x2="612.5" y1="1529.2266" y2="1529.2266"/><text fill="#000000" font-family="sans-serif" font-size="13" font-weight="bold" lengthAdjust="spacing" textLength="14" x="415.5" y="1524.3701">27</text><text fill="#000000" font-family="sans-serif" font-size="13" lengthAdjust="spacing" textLength="104" x="433.5" y="1524.3701">operationSuccess</text><polygon fill="#181818" points="90.5,1555.5781,80.5,1559.5781,90.5,1563.5781,86.5,1559.5781" style="stroke:#181818;stroke-width:1.0;"/><line style="stroke:#181818;stroke-width:1.0;stroke-dasharray:2.0,2.0;" x1="84.5" x2="392.5" y1="1559.5781" y2="1559.5781"/><text fill="#000000" font-family="sans-serif" font-size="13" font-weight="bold" lengthAdjust="spacing" textLength="14" x="96.5" y="1554.7217">28</text><text fill="#000000" font-family="sans-serif" font-size="13" lengthAdjust="spacing" textLength="158" x="114.5" y="1554.7217">displays operation success</text><!--SRC=[hLNBRgCm5Dtp5LVTJ1frVW2DAaLzI97eD2hJtMmSSC0gs8njsaRgny_r0t20f9b7DY7sFUSUdtk8rGlZ3P6aXbfmaPLIr1IqR6ca-fs6P2-aeAdULnGapJJXHHKMg9Bauetn0dQaKZIAIAi5R-ijbL7qfMGvXPqGUYlU8v9f8U4YtIjDQrZbDUDCQKbmzGA8WjNjGuIaccMi8Lp3HRok6o5rGWkIxTTy9sHDD1FyUMthdzVdbTy8hgMeAkhQtFnuIWw13PLAy9yytjW7MxMvUqeVln_MLPRPwSVg9FXfCKbwlFw1DDXcX7AB7kj-76UurM84nnMFnQUJm0IDHZ2OxsyZYcl7eNoP6HDx9PhQUKI07to0hzVeDyHO-g902s3MQs23pR330041rngKvRVudX4dPXUG2VdC89RB6399SNFOmItJCSQy_MgfqWfs3DFN45tQcfnE24E5Uj_GCMHMGT-dErCc-8v9F0FFGRNRccd8YIRdD7NbQgW_SUROcnT4T67aRb3jvI7OPjKkWNqs54bwZA3f2G8A3ALVIb8BxmOzMB-ux4eg8HfuAurtri0Iay7fkuQASJhYIUs4I9xWLg3a7bDmZzXp5VaJXO4Ds6mYNN4mWO7Xu-DZfCgzHYO70W-wEC4x8yo_Wpsb9xF4oBPSGk_PIU89GMVOwBsSEzfOmy7GJ5hpV36YcPwaVvkd3VgjYOL0CVWc0f7Ry-EnmPj8xzbdvj9HTf7r398M2A9oLL2UxUSFSHXzioBf3iGhcjYlcC-Jvm975dNoiJfeFVGcGraWkASqYZ-Jh1UEv1-4whDqwh-M-VZ6gVnFnbgkqtfZS5VdIRsXN7Uhek22whkQi6gLvv8gjHXfzBUlNVIOm2DXb5dukB777SbVqsuhfieLvwBb6QtDI4TUNVcWk6zz5VJwCnithXU4pIPcpWL0eANsdoHjimojcVKsEfp5y_fStEJkovbgAh9N0nxliba2lCX-0m00]--></g></svg>