<?xml version="1.0" encoding="UTF-8" standalone="no"?><svg xmlns="http://www.w3.org/2000/svg" xmlns:xlink="http://www.w3.org/1999/xlink" contentStyleType="text/css" height="1591px" preserveAspectRatio="none" style="width:1931px;height:1591px;background:#FFFFFF;" version="1.1" viewBox="0 0 1931 1591" width="1931px" zoomAndPan="magnify"><defs/><g><rect fill="#FFFFFF" height="1431.8359" style="stroke:#181818;stroke-width:1.0;" width="10" x="235" y="87.5703"/><rect fill="#FFFFFF" height="30.3516" style="stroke:#181818;stroke-width:1.0;" width="10" x="411" y="143.2734"/><rect fill="#FFFFFF" height="30.3516" style="stroke:#181818;stroke-width:1.0;" width="10" x="518" y="203.9766"/><rect fill="#FFFFFF" height="1192.375" style="stroke:#181818;stroke-width:1.0;" width="10" x="643" y="264.6797"/><rect fill="#FFFFFF" height="87.7969" style="stroke:#181818;stroke-width:1.0;" width="10" x="648" y="449.4375"/><rect fill="#FFFFFF" height="128.0547" style="stroke:#181818;stroke-width:1.0;" width="10" x="648" y="1259.6484"/><rect fill="#FFFFFF" height="41.3516" style="stroke:#181818;stroke-width:1.0;" width="10" x="653" y="1303"/><rect fill="#FFFFFF" height="91.0547" style="stroke:#181818;stroke-width:1.0;" width="10" x="909" y="295.0313"/><rect fill="#FFFFFF" height="571.3594" style="stroke:#181818;stroke-width:1.0;" width="10" x="909" y="624.9375"/><rect fill="#FFFFFF" height="30.3516" style="stroke:#181818;stroke-width:1.0;" width="10" x="1126" y="325.3828"/><rect fill="#FFFFFF" height="30.3516" style="stroke:#181818;stroke-width:1.0;" width="10" x="1126" y="655.2891"/><rect fill="#FFFFFF" height="30.3516" style="stroke:#181818;stroke-width:1.0;" width="10" x="1126" y="715.9922"/><rect fill="#FFFFFF" height="30.3516" style="stroke:#181818;stroke-width:1.0;" width="10" x="1126" y="776.6953"/><rect fill="#FFFFFF" height="30.3516" style="stroke:#181818;stroke-width:1.0;" width="10" x="1126" y="837.3984"/><rect fill="#FFFFFF" height="30.3516" style="stroke:#181818;stroke-width:1.0;" width="10" x="1126" y="898.1016"/><rect fill="#FFFFFF" height="197.1406" style="stroke:#181818;stroke-width:1.0;" width="10" x="1509.5" y="968.8047"/><rect fill="#FFFFFF" height="136.9219" style="stroke:#181818;stroke-width:1.0;" width="10" x="1745.5" y="1029.0234"/><rect fill="#FFFFFF" height="41.3516" style="stroke:#181818;stroke-width:1.0;" width="10" x="1750.5" y="1087.2422"/><rect fill="none" height="1387.4844" style="stroke:#000000;stroke-width:1.5;" width="1813" x="112.5" y="102.5703"/><rect fill="none" height="843.4688" style="stroke:#000000;stroke-width:1.5;" width="1344" x="571.5" y="584.2344"/><line style="stroke:#181818;stroke-width:0.5;stroke-dasharray:5.0,5.0;" x1="239.5" x2="239.5" y1="55.2188" y2="1537.4063"/><line style="stroke:#181818;stroke-width:0.5;stroke-dasharray:5.0,5.0;" x1="415.5" x2="415.5" y1="55.2188" y2="1537.4063"/><line style="stroke:#181818;stroke-width:0.5;stroke-dasharray:5.0,5.0;" x1="522.5" x2="522.5" y1="55.2188" y2="1537.4063"/><line style="stroke:#181818;stroke-width:0.5;stroke-dasharray:5.0,5.0;" x1="647.5" x2="647.5" y1="55.2188" y2="1537.4063"/><line style="stroke:#181818;stroke-width:0.5;stroke-dasharray:5.0,5.0;" x1="914" x2="914" y1="55.2188" y2="1537.4063"/><line style="stroke:#181818;stroke-width:0.5;stroke-dasharray:5.0,5.0;" x1="1130.5" x2="1130.5" y1="55.2188" y2="1537.4063"/><line style="stroke:#181818;stroke-width:0.5;stroke-dasharray:5.0,5.0;" x1="1514" x2="1514" y1="976.5625" y2="1537.4063"/><line style="stroke:#181818;stroke-width:0.5;stroke-dasharray:5.0,5.0;" x1="1750.5" x2="1750.5" y1="1036.7813" y2="1537.4063"/><rect fill="#E3E3E3" height="31.6094" rx="2.5" ry="2.5" style="stroke:#181818;stroke-width:0.5;" width="235" x="122.5" y="22.6094"/><text fill="#000000" font-family="sans-serif" font-size="14" lengthAdjust="spacing" textLength="221" x="129.5" y="44.1426">:ImportLegacyInformationController</text><rect fill="#E3E3E3" height="31.6094" rx="2.5" ry="2.5" style="stroke:#181818;stroke-width:0.5;" width="235" x="122.5" y="1536.4063"/><text fill="#000000" font-family="sans-serif" font-size="14" lengthAdjust="spacing" textLength="221" x="129.5" y="1557.9395">:ImportLegacyInformationController</text><rect fill="#E3E3E3" height="31.6094" rx="2.5" ry="2.5" style="stroke:#181818;stroke-width:0.5;" width="97" x="367.5" y="22.6094"/><text fill="#000000" font-family="sans-serif" font-size="14" lengthAdjust="spacing" textLength="83" x="374.5" y="44.1426">:Repositories</text><rect fill="#E3E3E3" height="31.6094" rx="2.5" ry="2.5" style="stroke:#181818;stroke-width:0.5;" width="97" x="367.5" y="1536.4063"/><text fill="#000000" font-family="sans-serif" font-size="14" lengthAdjust="spacing" textLength="83" x="374.5" y="1557.9395">:Repositories</text><rect fill="#E3E3E3" height="49.2188" rx="2.5" ry="2.5" style="stroke:#181818;stroke-width:0.5;" width="97" x="474.5" y="5"/><text fill="#000000" font-family="sans-serif" font-size="14" lengthAdjust="spacing" textLength="74" x="486" y="26.5332">repositories</text><text fill="#000000" font-family="sans-serif" font-size="14" lengthAdjust="spacing" textLength="83" x="481.5" y="44.1426">:Repositories</text><rect fill="#E3E3E3" height="49.2188" rx="2.5" ry="2.5" style="stroke:#181818;stroke-width:0.5;" width="97" x="474.5" y="1536.4063"/><text fill="#000000" font-family="sans-serif" font-size="14" lengthAdjust="spacing" textLength="74" x="486" y="1557.9395">repositories</text><text fill="#000000" font-family="sans-serif" font-size="14" lengthAdjust="spacing" textLength="83" x="481.5" y="1575.5488">:Repositories</text><rect fill="#E3E3E3" height="49.2188" rx="2.5" ry="2.5" style="stroke:#181818;stroke-width:0.5;" width="133" x="581.5" y="5"/><text fill="#000000" font-family="sans-serif" font-size="14" lengthAdjust="spacing" textLength="114" x="591" y="26.5332">agencyRepository</text><text fill="#000000" font-family="sans-serif" font-size="14" lengthAdjust="spacing" textLength="119" x="588.5" y="44.1426">:AgencyRepository</text><rect fill="#E3E3E3" height="49.2188" rx="2.5" ry="2.5" style="stroke:#181818;stroke-width:0.5;" width="133" x="581.5" y="1536.4063"/><text fill="#000000" font-family="sans-serif" font-size="14" lengthAdjust="spacing" textLength="114" x="591" y="1557.9395">agencyRepository</text><text fill="#000000" font-family="sans-serif" font-size="14" lengthAdjust="spacing" textLength="119" x="588.5" y="1575.5488">:AgencyRepository</text><rect fill="#E3E3E3" height="31.6094" rx="2.5" ry="2.5" style="stroke:#181818;stroke-width:0.5;" width="158" x="835" y="22.6094"/><text fill="#000000" font-family="sans-serif" font-size="14" lengthAdjust="spacing" textLength="144" x="842" y="44.1426">:LegacySystemMapper</text><rect fill="#E3E3E3" height="31.6094" rx="2.5" ry="2.5" style="stroke:#181818;stroke-width:0.5;" width="158" x="835" y="1536.4063"/><text fill="#000000" font-family="sans-serif" font-size="14" lengthAdjust="spacing" textLength="144" x="842" y="1557.9395">:LegacySystemMapper</text><rect fill="#E3E3E3" height="31.6094" rx="2.5" ry="2.5" style="stroke:#181818;stroke-width:0.5;" width="245" x="1008.5" y="22.6094"/><text fill="#000000" font-family="sans-serif" font-size="14" lengthAdjust="spacing" textLength="231" x="1015.5" y="44.1426">legacySystemDto: LegacySystemDto</text><rect fill="#E3E3E3" height="31.6094" rx="2.5" ry="2.5" style="stroke:#181818;stroke-width:0.5;" width="245" x="1008.5" y="1536.4063"/><text fill="#000000" font-family="sans-serif" font-size="14" lengthAdjust="spacing" textLength="231" x="1015.5" y="1557.9395">legacySystemDto: LegacySystemDto</text><rect fill="#E3E3E3" height="49.2188" rx="2.5" ry="2.5" style="stroke:#181818;stroke-width:0.5;" width="65" x="1482" y="1536.4063"/><text fill="#000000" font-family="sans-serif" font-size="14" lengthAdjust="spacing" textLength="46" x="1491.5" y="1557.9395">agency</text><text fill="#000000" font-family="sans-serif" font-size="14" lengthAdjust="spacing" textLength="51" x="1489" y="1575.5488">:Agency</text><rect fill="#E3E3E3" height="49.2188" rx="2.5" ry="2.5" style="stroke:#181818;stroke-width:0.5;" width="72" x="1714.5" y="1536.4063"/><text fill="#000000" font-family="sans-serif" font-size="14" lengthAdjust="spacing" textLength="49" x="1726" y="1557.9395">location</text><text fill="#000000" font-family="sans-serif" font-size="14" lengthAdjust="spacing" textLength="58" x="1721.5" y="1575.5488">:Location</text><rect fill="#FFFFFF" height="1431.8359" style="stroke:#181818;stroke-width:1.0;" width="10" x="235" y="87.5703"/><rect fill="#FFFFFF" height="30.3516" style="stroke:#181818;stroke-width:1.0;" width="10" x="411" y="143.2734"/><rect fill="#FFFFFF" height="30.3516" style="stroke:#181818;stroke-width:1.0;" width="10" x="518" y="203.9766"/><rect fill="#FFFFFF" height="1192.375" style="stroke:#181818;stroke-width:1.0;" width="10" x="643" y="264.6797"/><rect fill="#FFFFFF" height="87.7969" style="stroke:#181818;stroke-width:1.0;" width="10" x="648" y="449.4375"/><rect fill="#FFFFFF" height="128.0547" style="stroke:#181818;stroke-width:1.0;" width="10" x="648" y="1259.6484"/><rect fill="#FFFFFF" height="41.3516" style="stroke:#181818;stroke-width:1.0;" width="10" x="653" y="1303"/><rect fill="#FFFFFF" height="91.0547" style="stroke:#181818;stroke-width:1.0;" width="10" x="909" y="295.0313"/><rect fill="#FFFFFF" height="571.3594" style="stroke:#181818;stroke-width:1.0;" width="10" x="909" y="624.9375"/><rect fill="#FFFFFF" height="30.3516" style="stroke:#181818;stroke-width:1.0;" width="10" x="1126" y="325.3828"/><rect fill="#FFFFFF" height="30.3516" style="stroke:#181818;stroke-width:1.0;" width="10" x="1126" y="655.2891"/><rect fill="#FFFFFF" height="30.3516" style="stroke:#181818;stroke-width:1.0;" width="10" x="1126" y="715.9922"/><rect fill="#FFFFFF" height="30.3516" style="stroke:#181818;stroke-width:1.0;" width="10" x="1126" y="776.6953"/><rect fill="#FFFFFF" height="30.3516" style="stroke:#181818;stroke-width:1.0;" width="10" x="1126" y="837.3984"/><rect fill="#FFFFFF" height="30.3516" style="stroke:#181818;stroke-width:1.0;" width="10" x="1126" y="898.1016"/><rect fill="#FFFFFF" height="197.1406" style="stroke:#181818;stroke-width:1.0;" width="10" x="1509.5" y="968.8047"/><rect fill="#FFFFFF" height="136.9219" style="stroke:#181818;stroke-width:1.0;" width="10" x="1745.5" y="1029.0234"/><rect fill="#FFFFFF" height="41.3516" style="stroke:#181818;stroke-width:1.0;" width="10" x="1750.5" y="1087.2422"/><polygon fill="#181818" points="223,83.5703,233,87.5703,223,91.5703,227,87.5703" style="stroke:#181818;stroke-width:1.0;"/><line style="stroke:#181818;stroke-width:1.0;" x1="0" x2="229" y1="87.5703" y2="87.5703"/><text fill="#000000" font-family="sans-serif" font-size="13" font-weight="bold" lengthAdjust="spacing" textLength="14" x="7" y="82.7139">15</text><text fill="#000000" font-family="sans-serif" font-size="13" lengthAdjust="spacing" textLength="198" x="25" y="82.7139">registerAgency(legacySystemDto)</text><path d="M112.5,102.5703 L260.5,102.5703 L260.5,110.9219 L250.5,120.9219 L112.5,120.9219 L112.5,102.5703 " fill="#EEEEEE" style="stroke:#000000;stroke-width:1.5;"/><rect fill="none" height="1387.4844" style="stroke:#000000;stroke-width:1.5;" width="1813" x="112.5" y="102.5703"/><text fill="#000000" font-family="sans-serif" font-size="13" font-weight="bold" lengthAdjust="spacing" textLength="103" x="127.5" y="117.0654">Register Agency</text><polygon fill="#181818" points="399,139.2734,409,143.2734,399,147.2734,403,143.2734" style="stroke:#181818;stroke-width:1.0;"/><line style="stroke:#181818;stroke-width:1.0;" x1="245" x2="405" y1="143.2734" y2="143.2734"/><text fill="#000000" font-family="sans-serif" font-size="13" font-weight="bold" lengthAdjust="spacing" textLength="25" x="252" y="138.417">15.1</text><text fill="#000000" font-family="sans-serif" font-size="13" lengthAdjust="spacing" textLength="75" x="281" y="138.417">getInstance()</text><polygon fill="#181818" points="256,169.625,246,173.625,256,177.625,252,173.625" style="stroke:#181818;stroke-width:1.0;"/><line style="stroke:#181818;stroke-width:1.0;stroke-dasharray:2.0,2.0;" x1="250" x2="415" y1="173.625" y2="173.625"/><text fill="#000000" font-family="sans-serif" font-size="13" font-weight="bold" lengthAdjust="spacing" textLength="25" x="262" y="168.7686">15.2</text><text fill="#000000" font-family="sans-serif" font-size="13" lengthAdjust="spacing" textLength="67" x="291" y="168.7686">repositories</text><polygon fill="#181818" points="506,199.9766,516,203.9766,506,207.9766,510,203.9766" style="stroke:#181818;stroke-width:1.0;"/><line style="stroke:#181818;stroke-width:1.0;" x1="245" x2="512" y1="203.9766" y2="203.9766"/><text fill="#000000" font-family="sans-serif" font-size="13" font-weight="bold" lengthAdjust="spacing" textLength="25" x="252" y="199.1201">15.3</text><text fill="#000000" font-family="sans-serif" font-size="13" lengthAdjust="spacing" textLength="132" x="281" y="199.1201">getAgencyRepository()</text><polygon fill="#181818" points="256,230.3281,246,234.3281,256,238.3281,252,234.3281" style="stroke:#181818;stroke-width:1.0;"/><line style="stroke:#181818;stroke-width:1.0;stroke-dasharray:2.0,2.0;" x1="250" x2="522" y1="234.3281" y2="234.3281"/><text fill="#000000" font-family="sans-serif" font-size="13" font-weight="bold" lengthAdjust="spacing" textLength="25" x="262" y="229.4717">15.4</text><text fill="#000000" font-family="sans-serif" font-size="13" lengthAdjust="spacing" textLength="104" x="291" y="229.4717">agencyRepository</text><polygon fill="#181818" points="631,260.6797,641,264.6797,631,268.6797,635,264.6797" style="stroke:#181818;stroke-width:1.0;"/><line style="stroke:#181818;stroke-width:1.0;" x1="245" x2="637" y1="264.6797" y2="264.6797"/><text fill="#000000" font-family="sans-serif" font-size="13" font-weight="bold" lengthAdjust="spacing" textLength="25" x="252" y="259.8232">15.5</text><text fill="#000000" font-family="sans-serif" font-size="13" lengthAdjust="spacing" textLength="216" x="281" y="259.8232">registerAgency(legacyInformationDto)</text><polygon fill="#181818" points="897,291.0313,907,295.0313,897,299.0313,901,295.0313" style="stroke:#181818;stroke-width:1.0;"/><line style="stroke:#181818;stroke-width:1.0;" x1="653" x2="903" y1="295.0313" y2="295.0313"/><text fill="#000000" font-family="sans-serif" font-size="13" font-weight="bold" lengthAdjust="spacing" textLength="25" x="660" y="290.1748">15.6</text><text fill="#000000" font-family="sans-serif" font-size="13" lengthAdjust="spacing" textLength="80" x="689" y="290.1748">getAgencyId()</text><polygon fill="#181818" points="1114,321.3828,1124,325.3828,1114,329.3828,1118,325.3828" style="stroke:#181818;stroke-width:1.0;"/><line style="stroke:#181818;stroke-width:1.0;" x1="919" x2="1120" y1="325.3828" y2="325.3828"/><text fill="#000000" font-family="sans-serif" font-size="13" font-weight="bold" lengthAdjust="spacing" textLength="25" x="926" y="320.5264">15.7</text><text fill="#000000" font-family="sans-serif" font-size="13" lengthAdjust="spacing" textLength="80" x="955" y="320.5264">getAgencyId()</text><polygon fill="#181818" points="930,351.7344,920,355.7344,930,359.7344,926,355.7344" style="stroke:#181818;stroke-width:1.0;"/><line style="stroke:#181818;stroke-width:1.0;stroke-dasharray:2.0,2.0;" x1="924" x2="1130" y1="355.7344" y2="355.7344"/><text fill="#000000" font-family="sans-serif" font-size="13" font-weight="bold" lengthAdjust="spacing" textLength="25" x="936" y="350.8779">15.8</text><text fill="#000000" font-family="sans-serif" font-size="13" lengthAdjust="spacing" textLength="52" x="965" y="350.8779">agencyId</text><polygon fill="#181818" points="664,382.0859,654,386.0859,664,390.0859,660,386.0859" style="stroke:#181818;stroke-width:1.0;"/><line style="stroke:#181818;stroke-width:1.0;stroke-dasharray:2.0,2.0;" x1="658" x2="913" y1="386.0859" y2="386.0859"/><text fill="#000000" font-family="sans-serif" font-size="13" font-weight="bold" lengthAdjust="spacing" textLength="25" x="670" y="381.2295">15.9</text><text fill="#000000" font-family="sans-serif" font-size="13" lengthAdjust="spacing" textLength="52" x="699" y="381.2295">agencyId</text><line style="stroke:#181818;stroke-width:1.0;" x1="653" x2="700" y1="436.4375" y2="436.4375"/><line style="stroke:#181818;stroke-width:1.0;" x1="700" x2="700" y1="436.4375" y2="449.4375"/><line style="stroke:#181818;stroke-width:1.0;" x1="659" x2="700" y1="449.4375" y2="449.4375"/><polygon fill="#181818" points="669,445.4375,659,449.4375,669,453.4375,665,449.4375" style="stroke:#181818;stroke-width:1.0;"/><text fill="#000000" font-family="sans-serif" font-size="13" font-weight="bold" lengthAdjust="spacing" textLength="32" x="665" y="431.5811">15.10</text><text fill="#000000" font-family="sans-serif" font-size="13" lengthAdjust="spacing" textLength="202" x="701" y="431.5811">anyAgencyHasAgencyId(agencyId)</text><rect fill="none" height="41.4453" style="stroke:#000000;stroke-width:1.5;" width="139" x="578.5" y="462.4375"/><path d="M578.5,462.4375 L640.5,462.4375 L640.5,470.4375 L630.5,480.4375 L578.5,480.4375 L578.5,462.4375 " fill="#EEEEEE" style="stroke:#000000;stroke-width:2.0;"/><text fill="#000000" font-family="sans-serif" font-size="13" font-weight="bold" lengthAdjust="spacing" textLength="17" x="591.5" y="477.9326">ref</text><text fill="#000000" font-family="sans-serif" font-size="12" lengthAdjust="spacing" textLength="113" x="591.5" y="496.8945">Check Agency Exists</text><line style="stroke:#181818;stroke-width:1.0;stroke-dasharray:2.0,2.0;" x1="658" x2="700" y1="536.2344" y2="536.2344"/><line style="stroke:#181818;stroke-width:1.0;stroke-dasharray:2.0,2.0;" x1="700" x2="700" y1="536.2344" y2="549.2344"/><line style="stroke:#181818;stroke-width:1.0;stroke-dasharray:2.0,2.0;" x1="653" x2="700" y1="549.2344" y2="549.2344"/><polygon fill="#181818" points="663,545.2344,653,549.2344,663,553.2344,659,549.2344" style="stroke:#181818;stroke-width:1.0;"/><text fill="#000000" font-family="sans-serif" font-size="13" font-weight="bold" lengthAdjust="spacing" textLength="32" x="665" y="531.3779">15.11</text><text fill="#000000" font-family="sans-serif" font-size="13" lengthAdjust="spacing" textLength="53" x="701" y="531.3779">true/false</text><path d="M571.5,584.2344 L632.5,584.2344 L632.5,592.5859 L622.5,602.5859 L571.5,602.5859 L571.5,584.2344 " fill="#EEEEEE" style="stroke:#000000;stroke-width:1.5;"/><rect fill="none" height="843.4688" style="stroke:#000000;stroke-width:1.5;" width="1344" x="571.5" y="584.2344"/><text fill="#000000" font-family="sans-serif" font-size="13" font-weight="bold" lengthAdjust="spacing" textLength="16" x="586.5" y="598.7295">alt</text><text fill="#000000" font-family="sans-serif" font-size="11" font-weight="bold" lengthAdjust="spacing" textLength="124" x="647.5" y="597.6533">[Agency doesn't exist]</text><polygon fill="#181818" points="897,620.9375,907,624.9375,897,628.9375,901,624.9375" style="stroke:#181818;stroke-width:1.0;"/><line style="stroke:#181818;stroke-width:1.0;" x1="653" x2="903" y1="624.9375" y2="624.9375"/><text fill="#000000" font-family="sans-serif" font-size="13" font-weight="bold" lengthAdjust="spacing" textLength="32" x="660" y="620.0811">15.12</text><text fill="#000000" font-family="sans-serif" font-size="13" lengthAdjust="spacing" textLength="201" x="696" y="620.0811">toModelAgency(legacySystemDto)</text><polygon fill="#181818" points="1114,651.2891,1124,655.2891,1114,659.2891,1118,655.2891" style="stroke:#181818;stroke-width:1.0;"/><line style="stroke:#181818;stroke-width:1.0;" x1="919" x2="1120" y1="655.2891" y2="655.2891"/><text fill="#000000" font-family="sans-serif" font-size="13" font-weight="bold" lengthAdjust="spacing" textLength="32" x="926" y="650.4326">15.13</text><text fill="#000000" font-family="sans-serif" font-size="13" lengthAdjust="spacing" textLength="80" x="962" y="650.4326">getAgencyId()</text><polygon fill="#181818" points="930,681.6406,920,685.6406,930,689.6406,926,685.6406" style="stroke:#181818;stroke-width:1.0;"/><line style="stroke:#181818;stroke-width:1.0;stroke-dasharray:2.0,2.0;" x1="924" x2="1130" y1="685.6406" y2="685.6406"/><text fill="#000000" font-family="sans-serif" font-size="13" font-weight="bold" lengthAdjust="spacing" textLength="32" x="936" y="680.7842">15.14</text><text fill="#000000" font-family="sans-serif" font-size="13" lengthAdjust="spacing" textLength="52" x="972" y="680.7842">agencyId</text><polygon fill="#181818" points="1114,711.9922,1124,715.9922,1114,719.9922,1118,715.9922" style="stroke:#181818;stroke-width:1.0;"/><line style="stroke:#181818;stroke-width:1.0;" x1="919" x2="1120" y1="715.9922" y2="715.9922"/><text fill="#000000" font-family="sans-serif" font-size="13" font-weight="bold" lengthAdjust="spacing" textLength="32" x="926" y="711.1357">15.15</text><text fill="#000000" font-family="sans-serif" font-size="13" lengthAdjust="spacing" textLength="104" x="962" y="711.1357">getAgencyName()</text><polygon fill="#181818" points="930,742.3438,920,746.3438,930,750.3438,926,746.3438" style="stroke:#181818;stroke-width:1.0;"/><line style="stroke:#181818;stroke-width:1.0;stroke-dasharray:2.0,2.0;" x1="924" x2="1130" y1="746.3438" y2="746.3438"/><text fill="#000000" font-family="sans-serif" font-size="13" font-weight="bold" lengthAdjust="spacing" textLength="32" x="936" y="741.4873">15.16</text><text fill="#000000" font-family="sans-serif" font-size="13" lengthAdjust="spacing" textLength="76" x="972" y="741.4873">agencyName</text><polygon fill="#181818" points="1114,772.6953,1124,776.6953,1114,780.6953,1118,776.6953" style="stroke:#181818;stroke-width:1.0;"/><line style="stroke:#181818;stroke-width:1.0;" x1="919" x2="1120" y1="776.6953" y2="776.6953"/><text fill="#000000" font-family="sans-serif" font-size="13" font-weight="bold" lengthAdjust="spacing" textLength="32" x="926" y="771.8389">15.17</text><text fill="#000000" font-family="sans-serif" font-size="13" lengthAdjust="spacing" textLength="119" x="962" y="771.8389">getAgencyLocation()</text><polygon fill="#181818" points="930,803.0469,920,807.0469,930,811.0469,926,807.0469" style="stroke:#181818;stroke-width:1.0;"/><line style="stroke:#181818;stroke-width:1.0;stroke-dasharray:2.0,2.0;" x1="924" x2="1130" y1="807.0469" y2="807.0469"/><text fill="#000000" font-family="sans-serif" font-size="13" font-weight="bold" lengthAdjust="spacing" textLength="32" x="936" y="802.1904">15.18</text><text fill="#000000" font-family="sans-serif" font-size="13" lengthAdjust="spacing" textLength="91" x="972" y="802.1904">agencyLocation</text><polygon fill="#181818" points="1114,833.3984,1124,837.3984,1114,841.3984,1118,837.3984" style="stroke:#181818;stroke-width:1.0;"/><line style="stroke:#181818;stroke-width:1.0;" x1="919" x2="1120" y1="837.3984" y2="837.3984"/><text fill="#000000" font-family="sans-serif" font-size="13" font-weight="bold" lengthAdjust="spacing" textLength="32" x="926" y="832.542">15.19</text><text fill="#000000" font-family="sans-serif" font-size="13" lengthAdjust="spacing" textLength="152" x="962" y="832.542">getAgencyPhoneNumber()</text><polygon fill="#181818" points="930,863.75,920,867.75,930,871.75,926,867.75" style="stroke:#181818;stroke-width:1.0;"/><line style="stroke:#181818;stroke-width:1.0;stroke-dasharray:2.0,2.0;" x1="924" x2="1130" y1="867.75" y2="867.75"/><text fill="#000000" font-family="sans-serif" font-size="13" font-weight="bold" lengthAdjust="spacing" textLength="32" x="936" y="862.8936">15.20</text><text fill="#000000" font-family="sans-serif" font-size="13" lengthAdjust="spacing" textLength="124" x="972" y="862.8936">agencyPhoneNumber</text><polygon fill="#181818" points="1114,894.1016,1124,898.1016,1114,902.1016,1118,898.1016" style="stroke:#181818;stroke-width:1.0;"/><line style="stroke:#181818;stroke-width:1.0;" x1="919" x2="1120" y1="898.1016" y2="898.1016"/><text fill="#000000" font-family="sans-serif" font-size="13" font-weight="bold" lengthAdjust="spacing" textLength="32" x="926" y="893.2451">15.21</text><text fill="#000000" font-family="sans-serif" font-size="13" lengthAdjust="spacing" textLength="151" x="962" y="893.2451">getAgencyEmailAddress()</text><polygon fill="#181818" points="930,924.4531,920,928.4531,930,932.4531,926,928.4531" style="stroke:#181818;stroke-width:1.0;"/><line style="stroke:#181818;stroke-width:1.0;stroke-dasharray:2.0,2.0;" x1="924" x2="1130" y1="928.4531" y2="928.4531"/><text fill="#000000" font-family="sans-serif" font-size="13" font-weight="bold" lengthAdjust="spacing" textLength="32" x="936" y="923.5967">15.22</text><text fill="#000000" font-family="sans-serif" font-size="13" lengthAdjust="spacing" textLength="123" x="972" y="923.5967">agencyEmailAddress</text><polygon fill="#181818" points="1470,954.8047,1480,958.8047,1470,962.8047,1474,958.8047" style="stroke:#181818;stroke-width:1.0;"/><line style="stroke:#181818;stroke-width:1.0;" x1="919" x2="1476" y1="958.8047" y2="958.8047"/><text fill="#000000" font-family="sans-serif" font-size="13" font-weight="bold" lengthAdjust="spacing" textLength="32" x="926" y="953.9482">15.23</text><text fill="#000000" font-family="sans-serif" font-size="13" lengthAdjust="spacing" textLength="503" x="962" y="953.9482">create(agencyId, agencyName, agencyPhoneNumber, agencyEmailAddress, agencyId)</text><rect fill="#E3E3E3" height="49.2188" rx="2.5" ry="2.5" style="stroke:#181818;stroke-width:0.5;" width="65" x="1482" y="936.4531"/><text fill="#000000" font-family="sans-serif" font-size="14" lengthAdjust="spacing" textLength="46" x="1491.5" y="957.9863">agency</text><text fill="#000000" font-family="sans-serif" font-size="14" lengthAdjust="spacing" textLength="51" x="1489" y="975.5957">:Agency</text><polygon fill="#181818" points="1702.5,1015.0234,1712.5,1019.0234,1702.5,1023.0234,1706.5,1019.0234" style="stroke:#181818;stroke-width:1.0;"/><line style="stroke:#181818;stroke-width:1.0;" x1="1519.5" x2="1708.5" y1="1019.0234" y2="1019.0234"/><text fill="#000000" font-family="sans-serif" font-size="13" font-weight="bold" lengthAdjust="spacing" textLength="32" x="1526.5" y="1014.167">15.24</text><text fill="#000000" font-family="sans-serif" font-size="13" lengthAdjust="spacing" textLength="135" x="1562.5" y="1014.167">create(agencyLocation)</text><rect fill="#E3E3E3" height="49.2188" rx="2.5" ry="2.5" style="stroke:#181818;stroke-width:0.5;" width="72" x="1714.5" y="996.6719"/><text fill="#000000" font-family="sans-serif" font-size="14" lengthAdjust="spacing" textLength="49" x="1726" y="1018.2051">location</text><text fill="#000000" font-family="sans-serif" font-size="14" lengthAdjust="spacing" textLength="58" x="1721.5" y="1035.8145">:Location</text><line style="stroke:#181818;stroke-width:1.0;" x1="1755.5" x2="1802.5" y1="1074.2422" y2="1074.2422"/><line style="stroke:#181818;stroke-width:1.0;" x1="1802.5" x2="1802.5" y1="1074.2422" y2="1087.2422"/><line style="stroke:#181818;stroke-width:1.0;" x1="1761.5" x2="1802.5" y1="1087.2422" y2="1087.2422"/><polygon fill="#181818" points="1771.5,1083.2422,1761.5,1087.2422,1771.5,1091.2422,1767.5,1087.2422" style="stroke:#181818;stroke-width:1.0;"/><text fill="#000000" font-family="sans-serif" font-size="13" font-weight="bold" lengthAdjust="spacing" textLength="32" x="1767.5" y="1069.3857">15.25</text><text fill="#000000" font-family="sans-serif" font-size="13" lengthAdjust="spacing" textLength="100" x="1803.5" y="1069.3857">validateLocation()</text><line style="stroke:#181818;stroke-width:1.0;stroke-dasharray:2.0,2.0;" x1="1760.5" x2="1802.5" y1="1127.5938" y2="1127.5938"/><line style="stroke:#181818;stroke-width:1.0;stroke-dasharray:2.0,2.0;" x1="1802.5" x2="1802.5" y1="1127.5938" y2="1140.5938"/><line style="stroke:#181818;stroke-width:1.0;stroke-dasharray:2.0,2.0;" x1="1755.5" x2="1802.5" y1="1140.5938" y2="1140.5938"/><polygon fill="#181818" points="1765.5,1136.5938,1755.5,1140.5938,1765.5,1144.5938,1761.5,1140.5938" style="stroke:#181818;stroke-width:1.0;"/><text fill="#000000" font-family="sans-serif" font-size="13" font-weight="bold" lengthAdjust="spacing" textLength="32" x="1767.5" y="1122.7373">15.26</text><text fill="#000000" font-family="sans-serif" font-size="13" lengthAdjust="spacing" textLength="4" x="1803.5" y="1122.7373"> </text><polygon fill="#181818" points="1525.5,1161.9453,1515.5,1165.9453,1525.5,1169.9453,1521.5,1165.9453" style="stroke:#181818;stroke-width:1.0;"/><line style="stroke:#181818;stroke-width:1.0;stroke-dasharray:2.0,2.0;" x1="1519.5" x2="1749.5" y1="1165.9453" y2="1165.9453"/><text fill="#000000" font-family="sans-serif" font-size="13" font-weight="bold" lengthAdjust="spacing" textLength="32" x="1531.5" y="1161.0889">15.27</text><text fill="#000000" font-family="sans-serif" font-size="13" lengthAdjust="spacing" textLength="45" x="1567.5" y="1161.0889">location</text><polygon fill="#181818" points="664,1192.2969,654,1196.2969,664,1200.2969,660,1196.2969" style="stroke:#181818;stroke-width:1.0;"/><line style="stroke:#181818;stroke-width:1.0;stroke-dasharray:2.0,2.0;" x1="658" x2="913" y1="1196.2969" y2="1196.2969"/><text fill="#000000" font-family="sans-serif" font-size="13" font-weight="bold" lengthAdjust="spacing" textLength="32" x="670" y="1191.4404">15.28</text><text fill="#000000" font-family="sans-serif" font-size="13" lengthAdjust="spacing" textLength="42" x="706" y="1191.4404">agency</text><line style="stroke:#181818;stroke-width:1.0;" x1="653" x2="700" y1="1246.6484" y2="1246.6484"/><line style="stroke:#181818;stroke-width:1.0;" x1="700" x2="700" y1="1246.6484" y2="1259.6484"/><line style="stroke:#181818;stroke-width:1.0;" x1="659" x2="700" y1="1259.6484" y2="1259.6484"/><polygon fill="#181818" points="669,1255.6484,659,1259.6484,669,1263.6484,665,1259.6484" style="stroke:#181818;stroke-width:1.0;"/><text fill="#000000" font-family="sans-serif" font-size="13" font-weight="bold" lengthAdjust="spacing" textLength="32" x="665" y="1241.792">15.29</text><text fill="#000000" font-family="sans-serif" font-size="13" lengthAdjust="spacing" textLength="71" x="701" y="1241.792">add(agency)</text><line style="stroke:#181818;stroke-width:1.0;" x1="658" x2="705" y1="1290" y2="1290"/><line style="stroke:#181818;stroke-width:1.0;" x1="705" x2="705" y1="1290" y2="1303"/><line style="stroke:#181818;stroke-width:1.0;" x1="664" x2="705" y1="1303" y2="1303"/><polygon fill="#181818" points="674,1299,664,1303,674,1307,670,1303" style="stroke:#181818;stroke-width:1.0;"/><text fill="#000000" font-family="sans-serif" font-size="13" font-weight="bold" lengthAdjust="spacing" textLength="32" x="670" y="1285.1436">15.30</text><text fill="#000000" font-family="sans-serif" font-size="13" lengthAdjust="spacing" textLength="137" x="706" y="1285.1436">validateAgency(agency)</text><line style="stroke:#181818;stroke-width:1.0;stroke-dasharray:2.0,2.0;" x1="663" x2="705" y1="1343.3516" y2="1343.3516"/><line style="stroke:#181818;stroke-width:1.0;stroke-dasharray:2.0,2.0;" x1="705" x2="705" y1="1343.3516" y2="1356.3516"/><line style="stroke:#181818;stroke-width:1.0;stroke-dasharray:2.0,2.0;" x1="658" x2="705" y1="1356.3516" y2="1356.3516"/><polygon fill="#181818" points="668,1352.3516,658,1356.3516,668,1360.3516,664,1356.3516" style="stroke:#181818;stroke-width:1.0;"/><text fill="#000000" font-family="sans-serif" font-size="13" font-weight="bold" lengthAdjust="spacing" textLength="32" x="670" y="1338.4951">15.31</text><text fill="#000000" font-family="sans-serif" font-size="13" lengthAdjust="spacing" textLength="4" x="706" y="1338.4951"> </text><line style="stroke:#181818;stroke-width:1.0;stroke-dasharray:2.0,2.0;" x1="658" x2="700" y1="1386.7031" y2="1386.7031"/><line style="stroke:#181818;stroke-width:1.0;stroke-dasharray:2.0,2.0;" x1="700" x2="700" y1="1386.7031" y2="1399.7031"/><line style="stroke:#181818;stroke-width:1.0;stroke-dasharray:2.0,2.0;" x1="653" x2="700" y1="1399.7031" y2="1399.7031"/><polygon fill="#181818" points="663,1395.7031,653,1399.7031,663,1403.7031,659,1399.7031" style="stroke:#181818;stroke-width:1.0;"/><text fill="#000000" font-family="sans-serif" font-size="13" font-weight="bold" lengthAdjust="spacing" textLength="32" x="665" y="1381.8467">15.32</text><text fill="#000000" font-family="sans-serif" font-size="13" lengthAdjust="spacing" textLength="4" x="701" y="1381.8467"> </text><polygon fill="#181818" points="256,1453.0547,246,1457.0547,256,1461.0547,252,1457.0547" style="stroke:#181818;stroke-width:1.0;"/><line style="stroke:#181818;stroke-width:1.0;stroke-dasharray:2.0,2.0;" x1="250" x2="647" y1="1457.0547" y2="1457.0547"/><text fill="#000000" font-family="sans-serif" font-size="13" font-weight="bold" lengthAdjust="spacing" textLength="32" x="262" y="1452.1982">15.33</text><text fill="#000000" font-family="sans-serif" font-size="13" lengthAdjust="spacing" textLength="42" x="298" y="1452.1982">agency</text><polygon fill="#181818" points="11,1515.4063,1,1519.4063,11,1523.4063,7,1519.4063" style="stroke:#181818;stroke-width:1.0;"/><line style="stroke:#181818;stroke-width:1.0;stroke-dasharray:2.0,2.0;" x1="5" x2="239" y1="1519.4063" y2="1519.4063"/><text fill="#000000" font-family="sans-serif" font-size="13" font-weight="bold" lengthAdjust="spacing" textLength="14" x="17" y="1514.5498">16</text><text fill="#000000" font-family="sans-serif" font-size="13" lengthAdjust="spacing" textLength="42" x="35" y="1514.5498">agency</text><!--SRC=[hLRBRjim4BphAnQv90ti5Zcq1wCeO3X6Qy1nZCIN0hqmqbeM8f42IQSna8ylHOeoIJsQ5lB99ZcpiylnBiLpHal2IG45eom-S5OWI7x4I3Gx9OcVIOgFyfGZS8mbeMdk7X07ah3V6KrXJtA1KKIEaj5ZyOGyYYuFMOAmPqm-iTT80MGMPoMX4Yvcgw9aNAun9V5fHVUC5qHcZ2uObPpbEV8B808MkuTr07p0aebCCfwXq6VKmcDMoLA1_RFSEVgBjf7RzNpd8rIkD3ur1qyADG-MD7AUgeL0cCdbyIGa5dUaBEiKrB9Qkvjljyi77v4xW5l9Ph3s5npuxUw-IsWZpuZwljmiVWOnMAphgawkww-6zduntwtkD-w5mStd263wJLSTPkg-qqn9uIR4LI3tWpeBG6APlH29vgQYbBDZgMx40C4W_H0VRoADr45KCFVwPf2YN56XR1RZLH31ksUzvQx0r1L-lcXzCC415YkaSWDe1U6LXqgqR_IInZYHG_-4qSz86rKxgQ_OpX-ZNN7ZmMh9S2WorsjkAgiaJC5pfTxoi0sNCjvxY2f_EYmLQjhMGsgEi2gT75Q9KwDXl9lCszkRNvc6WfvC9Z-8Q5Aol9q5rclLX-CUs8jsjIsy_ImE63_NReVbgxf8qUmZJIfevEgnWcQwttuohJD8oebkio6v11ibOIZefGIieZN1-fm0ajsn1FEXl_9V_F7l7kdnYK_s7giCs-NTmZQamD6aLMHZYhFTUJI1bd1CaTi3exZHdNmqdGxdc5AN1SdoUP9m568qhIxfVuerG_hwMd7671MewJuJnrcJTd4c7HecuBSkltsPvy2vD-ZVkc3ry6-hiARfAbZpOcXIgrTSoXcya3nB563Gq9QhJULmmQopnWCwclgglF8X_uVntRvRbwtd1blZgDy7TVUq-xQBTy-bn8wXhflq1r6Ru5prki67L3qFXu2jeVCsksVI8Am5SVEl1gAQPE50z5vGFSEmegZW-fdfFIk_cDXVfzCE8fT9lrF_0000]--></g></svg>