<?xml version="1.0" encoding="UTF-8" standalone="no"?><svg xmlns="http://www.w3.org/2000/svg" xmlns:xlink="http://www.w3.org/1999/xlink" contentStyleType="text/css" height="1715px" preserveAspectRatio="none" style="width:1208px;height:1715px;background:#FFFFFF;" version="1.1" viewBox="0 0 1208 1715" width="1208px" zoomAndPan="magnify"><defs/><g><!--class SystemAdministrator--><g id="elem_SystemAdministrator"><rect codeLine="13" fill="#F1F1F1" height="35.6094" id="SystemAdministrator" rx="2.5" ry="2.5" style="stroke:#181818;stroke-width:0.5;" width="135" x="527.47" y="129.5"/><text fill="#000000" font-family="sans-serif" font-size="14" lengthAdjust="spacing" textLength="129" x="530.47" y="149.0332">SystemAdministrator</text><line style="stroke:#181818;stroke-width:0.5;" x1="528.47" x2="661.47" y1="157.1094" y2="157.1094"/></g><!--class Agency--><g id="elem_Agency"><rect codeLine="16" fill="#F1F1F1" height="106.0469" id="Agency" rx="2.5" ry="2.5" style="stroke:#181818;stroke-width:0.5;" width="101" x="314.47" y="822"/><text fill="#000000" font-family="sans-serif" font-size="14" lengthAdjust="spacing" textLength="47" x="341.47" y="841.5332">Agency</text><line style="stroke:#181818;stroke-width:0.5;" x1="315.47" x2="414.47" y1="849.6094" y2="849.6094"/><text fill="#000000" font-family="sans-serif" font-size="14" lengthAdjust="spacing" textLength="13" x="320.47" y="868.1426">ID</text><text fill="#000000" font-family="sans-serif" font-size="14" lengthAdjust="spacing" textLength="73" x="320.47" y="885.752">designation</text><text fill="#000000" font-family="sans-serif" font-size="14" lengthAdjust="spacing" textLength="85" x="320.47" y="903.3613">emailAddress</text><text fill="#000000" font-family="sans-serif" font-size="14" lengthAdjust="spacing" textLength="89" x="320.47" y="920.9707">phoneNumber</text></g><!--class Employee--><g id="elem_Employee"><rect codeLine="23" fill="#F1F1F1" height="35.6094" id="Employee" rx="2.5" ry="2.5" style="stroke:#181818;stroke-width:0.5;" width="68" x="376.97" y="437"/><text fill="#000000" font-family="sans-serif" font-size="14" lengthAdjust="spacing" textLength="62" x="379.97" y="456.5332">Employee</text><line style="stroke:#181818;stroke-width:0.5;" x1="377.97" x2="443.97" y1="464.6094" y2="464.6094"/></g><!--class Person--><g id="elem_Person"><rect codeLine="26" fill="#F1F1F1" height="123.6563" id="Person" rx="2.5" ry="2.5" style="stroke:#181818;stroke-width:0.5;" width="131" x="73.47" y="252"/><text fill="#000000" font-family="sans-serif" font-size="14" lengthAdjust="spacing" textLength="45" x="116.47" y="271.5332">Person</text><line style="stroke:#181818;stroke-width:0.5;" x1="74.47" x2="203.47" y1="279.6094" y2="279.6094"/><text fill="#000000" font-family="sans-serif" font-size="14" lengthAdjust="spacing" textLength="35" x="79.47" y="298.1426">name</text><text fill="#000000" font-family="sans-serif" font-size="14" lengthAdjust="spacing" textLength="119" x="79.47" y="315.752">citizenCardNumber</text><text fill="#000000" font-family="sans-serif" font-size="14" lengthAdjust="spacing" textLength="67" x="79.47" y="333.3613">taxNumber</text><text fill="#000000" font-family="sans-serif" font-size="14" lengthAdjust="spacing" textLength="85" x="79.47" y="350.9707">emailAddress</text><text fill="#000000" font-family="sans-serif" font-size="14" lengthAdjust="spacing" textLength="89" x="79.47" y="368.5801">phoneNumber</text></g><!--class Owner--><g id="elem_Owner"><rect codeLine="35" fill="#F1F1F1" height="35.6094" id="Owner" rx="2.5" ry="2.5" style="stroke:#181818;stroke-width:0.5;" width="47" x="373.47" y="1338.5"/><text fill="#000000" font-family="sans-serif" font-size="14" lengthAdjust="spacing" textLength="41" x="376.47" y="1358.0332">Owner</text><line style="stroke:#181818;stroke-width:0.5;" x1="374.47" x2="419.47" y1="1366.1094" y2="1366.1094"/></g><!--class Customer--><g id="elem_Customer"><rect codeLine="38" fill="#F1F1F1" height="35.6094" id="Customer" rx="2.5" ry="2.5" style="stroke:#181818;stroke-width:0.5;" width="67" x="217.47" y="7"/><text fill="#000000" font-family="sans-serif" font-size="14" lengthAdjust="spacing" textLength="61" x="220.47" y="26.5332">Customer</text><line style="stroke:#181818;stroke-width:0.5;" x1="218.47" x2="283.47" y1="34.6094" y2="34.6094"/></g><!--class Agent--><g id="elem_Agent"><rect codeLine="41" fill="#F1F1F1" height="35.6094" id="Agent" rx="2.5" ry="2.5" style="stroke:#181818;stroke-width:0.5;" width="43" x="832.47" y="7"/><text fill="#000000" font-family="sans-serif" font-size="14" lengthAdjust="spacing" textLength="37" x="835.47" y="26.5332">Agent</text><line style="stroke:#181818;stroke-width:0.5;" x1="833.47" x2="874.47" y1="34.6094" y2="34.6094"/></g><!--class StoreManager--><g id="elem_StoreManager"><rect codeLine="44" fill="#F1F1F1" height="35.6094" id="StoreManager" rx="2.5" ry="2.5" style="stroke:#181818;stroke-width:0.5;" width="96" x="239.97" y="296"/><text fill="#000000" font-family="sans-serif" font-size="14" lengthAdjust="spacing" textLength="90" x="242.97" y="315.5332">StoreManager</text><line style="stroke:#181818;stroke-width:0.5;" x1="240.97" x2="334.97" y1="323.6094" y2="323.6094"/></g><!--class NetworkManager--><g id="elem_NetworkManager"><rect codeLine="46" fill="#F1F1F1" height="35.6094" id="NetworkManager" rx="2.5" ry="2.5" style="stroke:#181818;stroke-width:0.5;" width="112" x="298.97" y="129.5"/><text fill="#000000" font-family="sans-serif" font-size="14" lengthAdjust="spacing" textLength="106" x="301.97" y="149.0332">NetworkManager</text><line style="stroke:#181818;stroke-width:0.5;" x1="299.97" x2="409.97" y1="157.1094" y2="157.1094"/></g><!--class Announcement--><g id="elem_Announcement"><rect codeLine="48" fill="#F1F1F1" height="70.8281" id="Announcement" rx="2.5" ry="2.5" style="stroke:#181818;stroke-width:0.5;" width="115" x="494.47" y="1163.5"/><text fill="#000000" font-family="sans-serif" font-size="14" lengthAdjust="spacing" textLength="95" x="504.47" y="1183.0332">Announcement</text><line style="stroke:#181818;stroke-width:0.5;" x1="495.47" x2="608.47" y1="1191.1094" y2="1191.1094"/><text fill="#000000" font-family="sans-serif" font-size="14" lengthAdjust="spacing" textLength="78" x="500.47" y="1209.6426">requestDate</text><text fill="#000000" font-family="sans-serif" font-size="14" lengthAdjust="spacing" textLength="103" x="500.47" y="1227.252">acceptanceDate</text></g><!--class Visit--><g id="elem_Visit"><rect codeLine="53" fill="#F1F1F1" height="53.2188" id="Visit" rx="2.5" ry="2.5" style="stroke:#181818;stroke-width:0.5;" width="40" x="789.97" y="121"/><text fill="#000000" font-family="sans-serif" font-size="14" lengthAdjust="spacing" textLength="26" x="796.97" y="140.5332">Visit</text><line style="stroke:#181818;stroke-width:0.5;" x1="790.97" x2="828.97" y1="148.6094" y2="148.6094"/><text fill="#000000" font-family="sans-serif" font-size="14" lengthAdjust="spacing" textLength="28" x="795.97" y="167.1426">date</text></g><!--class VisitReport--><g id="elem_VisitReport"><rect codeLine="56" fill="#F1F1F1" height="70.8281" id="VisitReport" rx="2.5" ry="2.5" style="stroke:#181818;stroke-width:0.5;" width="95" x="864.47" y="278.5"/><text fill="#000000" font-family="sans-serif" font-size="14" lengthAdjust="spacing" textLength="69" x="877.47" y="298.0332">VisitReport</text><line style="stroke:#181818;stroke-width:0.5;" x1="865.47" x2="958.47" y1="306.1094" y2="306.1094"/><text fill="#000000" font-family="sans-serif" font-size="14" lengthAdjust="spacing" textLength="83" x="870.47" y="324.6426">dealProspect</text><text fill="#000000" font-family="sans-serif" font-size="14" lengthAdjust="spacing" textLength="69" x="870.47" y="342.252">description</text></g><!--class Property--><g id="elem_Property"><rect codeLine="60" fill="#F1F1F1" height="70.8281" id="Property" rx="2.5" ry="2.5" style="stroke:#181818;stroke-width:0.5;" width="132" x="741.97" y="1321"/><text fill="#000000" font-family="sans-serif" font-size="14" lengthAdjust="spacing" textLength="54" x="780.97" y="1340.5332">Property</text><line style="stroke:#181818;stroke-width:0.5;" x1="742.97" x2="872.97" y1="1348.6094" y2="1348.6094"/><text fill="#000000" font-family="sans-serif" font-size="14" lengthAdjust="spacing" textLength="29" x="747.97" y="1367.1426">area</text><text fill="#000000" font-family="sans-serif" font-size="14" lengthAdjust="spacing" textLength="120" x="747.97" y="1384.752">distanceCityCenter</text></g><!--class Residence--><g id="elem_Residence"><rect codeLine="65" fill="#F1F1F1" height="88.4375" id="Residence" rx="2.5" ry="2.5" style="stroke:#181818;stroke-width:0.5;" width="128" x="1014.97" y="1155"/><text fill="#000000" font-family="sans-serif" font-size="14" lengthAdjust="spacing" textLength="67" x="1045.47" y="1174.5332">Residence</text><line style="stroke:#181818;stroke-width:0.5;" x1="1015.97" x2="1141.97" y1="1182.6094" y2="1182.6094"/><text fill="#000000" font-family="sans-serif" font-size="14" lengthAdjust="spacing" textLength="112" x="1020.97" y="1201.1426">numberBedrooms</text><text fill="#000000" font-family="sans-serif" font-size="14" lengthAdjust="spacing" textLength="116" x="1020.97" y="1218.752">numberBathrooms</text><text fill="#000000" font-family="sans-serif" font-size="14" lengthAdjust="spacing" textLength="87" x="1020.97" y="1236.3613">parkingSpace</text></g><!--class AvailableEquipment--><g id="elem_AvailableEquipment"><rect codeLine="70" fill="#F1F1F1" height="53.2188" id="AvailableEquipment" rx="2.5" ry="2.5" style="stroke:#181818;stroke-width:0.5;" width="130" x="1018.97" y="1330"/><text fill="#000000" font-family="sans-serif" font-size="14" lengthAdjust="spacing" textLength="124" x="1021.97" y="1349.5332">AvailableEquipment</text><line style="stroke:#181818;stroke-width:0.5;" x1="1019.97" x2="1147.97" y1="1357.6094" y2="1357.6094"/><text fill="#000000" font-family="sans-serif" font-size="14" lengthAdjust="spacing" textLength="69" x="1024.97" y="1376.1426">description</text></g><!--class House--><g id="elem_House"><rect codeLine="73" fill="#F1F1F1" height="88.4375" id="House" rx="2.5" ry="2.5" style="stroke:#181818;stroke-width:0.5;" width="105" x="1096.47" y="989"/><text fill="#000000" font-family="sans-serif" font-size="14" lengthAdjust="spacing" textLength="40" x="1128.97" y="1008.5332">House</text><line style="stroke:#181818;stroke-width:0.5;" x1="1097.47" x2="1200.47" y1="1016.6094" y2="1016.6094"/><text fill="#000000" font-family="sans-serif" font-size="14" lengthAdjust="spacing" textLength="62" x="1102.47" y="1035.1426">basement</text><text fill="#000000" font-family="sans-serif" font-size="14" lengthAdjust="spacing" textLength="93" x="1102.47" y="1052.752">inhabitableLoft</text><text fill="#000000" font-family="sans-serif" font-size="14" lengthAdjust="spacing" textLength="82" x="1102.47" y="1070.3613">sunExposure</text></g><!--class Network--><g id="elem_Network"><rect codeLine="78" fill="#F1F1F1" height="35.6094" id="Network" rx="2.5" ry="2.5" style="stroke:#181818;stroke-width:0.5;" width="56" x="44.97" y="7"/><text fill="#000000" font-family="sans-serif" font-size="14" lengthAdjust="spacing" textLength="50" x="47.97" y="26.5332">Network</text><line style="stroke:#181818;stroke-width:0.5;" x1="45.97" x2="99.97" y1="34.6094" y2="34.6094"/></g><!--class TypeProperty--><g id="elem_TypeProperty"><rect codeLine="80" fill="#F1F1F1" height="53.2188" id="TypeProperty" rx="2.5" ry="2.5" style="stroke:#181818;stroke-width:0.5;" width="92" x="860.97" y="1172.5"/><text fill="#000000" font-family="sans-serif" font-size="14" lengthAdjust="spacing" textLength="86" x="863.97" y="1192.0332">TypeProperty</text><line style="stroke:#181818;stroke-width:0.5;" x1="861.97" x2="951.97" y1="1200.1094" y2="1200.1094"/><text fill="#000000" font-family="sans-serif" font-size="14" lengthAdjust="spacing" textLength="73" x="866.97" y="1218.6426">designation</text></g><!--class TypeResidence--><g id="elem_TypeResidence"><rect codeLine="83" fill="#F1F1F1" height="53.2188" id="TypeResidence" rx="2.5" ry="2.5" style="stroke:#181818;stroke-width:0.5;" width="105" x="956.47" y="1006.5"/><text fill="#000000" font-family="sans-serif" font-size="14" lengthAdjust="spacing" textLength="99" x="959.47" y="1026.0332">TypeResidence</text><line style="stroke:#181818;stroke-width:0.5;" x1="957.47" x2="1060.47" y1="1034.1094" y2="1034.1094"/><text fill="#000000" font-family="sans-serif" font-size="14" lengthAdjust="spacing" textLength="73" x="962.47" y="1052.6426">designation</text></g><!--class Photograph--><g id="elem_Photograph"><rect codeLine="86" fill="#F1F1F1" height="53.2188" id="Photograph" rx="2.5" ry="2.5" style="stroke:#181818;stroke-width:0.5;" width="80" x="834.97" y="1505.5"/><text fill="#000000" font-family="sans-serif" font-size="14" lengthAdjust="spacing" textLength="74" x="837.97" y="1525.0332">Photograph</text><line style="stroke:#181818;stroke-width:0.5;" x1="835.97" x2="913.97" y1="1533.1094" y2="1533.1094"/><text fill="#000000" font-family="sans-serif" font-size="14" lengthAdjust="spacing" textLength="16" x="840.97" y="1551.6426">url</text></g><!--class Location--><g id="elem_Location"><rect codeLine="89" fill="#F1F1F1" height="123.6563" id="Location" rx="2.5" ry="2.5" style="stroke:#181818;stroke-width:0.5;" width="84" x="200.97" y="1470"/><text fill="#000000" font-family="sans-serif" font-size="14" lengthAdjust="spacing" textLength="54" x="215.97" y="1489.5332">Location</text><line style="stroke:#181818;stroke-width:0.5;" x1="201.97" x2="283.97" y1="1497.6094" y2="1497.6094"/><text fill="#000000" font-family="sans-serif" font-size="14" lengthAdjust="spacing" textLength="72" x="206.97" y="1516.1426">streetName</text><text fill="#000000" font-family="sans-serif" font-size="14" lengthAdjust="spacing" textLength="21" x="206.97" y="1533.752">city</text><text fill="#000000" font-family="sans-serif" font-size="14" lengthAdjust="spacing" textLength="41" x="206.97" y="1551.3613">district</text><text fill="#000000" font-family="sans-serif" font-size="14" lengthAdjust="spacing" textLength="31" x="206.97" y="1568.9707">state</text><text fill="#000000" font-family="sans-serif" font-size="14" lengthAdjust="spacing" textLength="51" x="206.97" y="1586.5801">zipCode</text></g><!--class Transaction--><g id="elem_Transaction"><rect codeLine="96" fill="#F1F1F1" height="53.2188" id="Transaction" rx="2.5" ry="2.5" style="stroke:#181818;stroke-width:0.5;" width="81" x="700.47" y="1505.5"/><text fill="#000000" font-family="sans-serif" font-size="14" lengthAdjust="spacing" textLength="75" x="703.47" y="1525.0332">Transaction</text><line style="stroke:#181818;stroke-width:0.5;" x1="701.47" x2="780.47" y1="1533.1094" y2="1533.1094"/><text fill="#000000" font-family="sans-serif" font-size="14" lengthAdjust="spacing" textLength="47" x="706.47" y="1551.6426">amount</text></g><!--class Lease--><g id="elem_Lease"><rect codeLine="99" fill="#F1F1F1" height="53.2188" id="Lease" rx="2.5" ry="2.5" style="stroke:#181818;stroke-width:0.5;" width="117" x="682.47" y="1655"/><text fill="#000000" font-family="sans-serif" font-size="14" lengthAdjust="spacing" textLength="39" x="721.47" y="1674.5332">Lease</text><line style="stroke:#181818;stroke-width:0.5;" x1="683.47" x2="798.47" y1="1682.6094" y2="1682.6094"/><text fill="#000000" font-family="sans-serif" font-size="14" lengthAdjust="spacing" textLength="105" x="688.47" y="1701.1426">contractDuration</text></g><!--class Commission--><g id="elem_Commission"><rect codeLine="102" fill="#F1F1F1" height="70.8281" id="Commission" rx="2.5" ry="2.5" style="stroke:#181818;stroke-width:0.5;" width="135" x="484.47" y="1321"/><text fill="#000000" font-family="sans-serif" font-size="14" lengthAdjust="spacing" textLength="76" x="513.97" y="1340.5332">Commission</text><line style="stroke:#181818;stroke-width:0.5;" x1="485.47" x2="618.47" y1="1348.6094" y2="1348.6094"/><text fill="#000000" font-family="sans-serif" font-size="14" lengthAdjust="spacing" textLength="103" x="490.47" y="1367.1426">typeCommission</text><text fill="#000000" font-family="sans-serif" font-size="14" lengthAdjust="spacing" textLength="123" x="490.47" y="1384.752">amountCommission</text></g><!--link SystemAdministrator to Employee--><g id="link_SystemAdministrator_Employee"><path codeLine="109" d="M595.86,165.59 C597.12,205.87 595.32,308.49 549.97,376 C529.85,405.96 494.15,425.64 463.97,437.74 " fill="none" id="SystemAdministrator-to-Employee" style="stroke:#181818;stroke-width:1.0;"/><polygon fill="none" points="466.34,444.32,445.15,444.62,461.53,431.17,466.34,444.32" style="stroke:#181818;stroke-width:1.0;"/></g><!--link SystemAdministrator to Employee--><g id="link_SystemAdministrator_Employee"><path codeLine="110" d="M568.19,165.5 C541.45,183.8 500.96,215.27 476.97,252 C437.47,312.49 451.15,338.57 427.97,407 C424.63,416.86 420.69,427.81 417.44,436.65 " fill="none" id="SystemAdministrator-Employee" style="stroke:#181818;stroke-width:1.0;"/><polygon fill="#000000" points="479.5404,318.5458,486.5042,312.0684,481.3669,309.2123,479.5404,318.5458" style="stroke:#000000;stroke-width:1.0;"/><text fill="#000000" font-family="sans-serif" font-size="13" lengthAdjust="spacing" textLength="50" x="490.97" y="319.4951">registers</text><text fill="#000000" font-family="sans-serif" font-size="13" lengthAdjust="spacing" textLength="7" x="552.2953" y="186.7416">1</text><text fill="#000000" font-family="sans-serif" font-size="13" lengthAdjust="spacing" textLength="5" x="413.6558" y="426.1891">*</text></g><!--link SystemAdministrator to Agency--><g id="link_SystemAdministrator_Agency"><path codeLine="111" d="M608,165.69 C628.49,194.52 665.97,255.14 665.97,313 C665.97,313 665.97,313 665.97,744 C665.97,851.73 501.48,871.22 415.69,874.07 " fill="none" id="SystemAdministrator-Agency" style="stroke:#181818;stroke-width:1.0;"/><polygon fill="#000000" points="669.66,565.0011,674.8661,557.042,669.1935,555.502,669.66,565.0011" style="stroke:#000000;stroke-width:1.0;"/><text fill="#000000" font-family="sans-serif" font-size="13" lengthAdjust="spacing" textLength="50" x="679.97" y="565.4951">registers</text><text fill="#000000" font-family="sans-serif" font-size="13" lengthAdjust="spacing" textLength="7" x="603.6803" y="186.6554">1</text><text fill="#000000" font-family="sans-serif" font-size="13" lengthAdjust="spacing" textLength="5" x="423.5067" y="870.2759">*</text></g><!--reverse link Person to Employee--><g id="link_Person_Employee"><path codeLine="112" d="M221.7,375.85 C221.79,375.9 221.88,375.95 221.97,376 C273.48,404.99 337.94,429.26 376.71,442.69 " fill="none" id="Person-backto-Employee" style="stroke:#181818;stroke-width:1.0;"/><polygon fill="none" points="218.04,381.81,204.61,365.42,225.33,369.86,218.04,381.81" style="stroke:#181818;stroke-width:1.0;"/></g><!--reverse link Person to Owner--><g id="link_Person_Owner"><path codeLine="113" d="M170.34,395.64 C175.37,414.5 178.97,434.72 178.97,454 C178.97,454 178.97,454 178.97,705 C178.97,773.34 354.18,1241.94 390.45,1338.23 " fill="none" id="Person-backto-Owner" style="stroke:#181818;stroke-width:1.0;"/><polygon fill="none" points="163.55,397.36,164.53,376.2,176.96,393.36,163.55,397.36" style="stroke:#181818;stroke-width:1.0;"/></g><!--link Customer to Person--><g id="link_Customer_Person"><path codeLine="114" d="M244.3,43.09 C230.03,79.67 195.75,167.52 170.14,233.13 " fill="none" id="Customer-to-Person" style="stroke:#181818;stroke-width:1.0;"/><polygon fill="none" points="176.64,235.75,162.84,251.83,163.59,230.66,176.64,235.75" style="stroke:#181818;stroke-width:1.0;"/></g><!--link Agent to Employee--><g id="link_Agent_Employee"><path codeLine="115" d="M832.24,39.06 C819.05,47.65 802.42,59.73 789.97,73 C680.57,189.63 709.86,263.75 595.97,376 C559.95,411.5 505.33,431.82 464.77,442.76 " fill="none" id="Agent-to-Employee" style="stroke:#181818;stroke-width:1.0;"/><polygon fill="none" points="466.39,449.57,445.29,447.59,463.02,435.98,466.39,449.57" style="stroke:#181818;stroke-width:1.0;"/></g><!--link StoreManager to Employee--><g id="link_StoreManager_Employee"><path codeLine="116" d="M303.06,332.04 C322.7,354.24 357.44,393.5 382.2,421.48 " fill="none" id="StoreManager-to-Employee" style="stroke:#181818;stroke-width:1.0;"/><polygon fill="none" points="387.76,417.2,395.77,436.82,377.27,426.48,387.76,417.2" style="stroke:#181818;stroke-width:1.0;"/></g><!--link NetworkManager to Employee--><g id="link_NetworkManager_Employee"><path codeLine="117" d="M358.14,165.8 C366.98,214.01 392.03,350.64 404.19,416.97 " fill="none" id="NetworkManager-to-Employee" style="stroke:#181818;stroke-width:1.0;"/><polygon fill="none" points="411.12,415.96,407.84,436.89,397.35,418.48,411.12,415.96" style="stroke:#181818;stroke-width:1.0;"/></g><!--link Agent to Announcement--><g id="link_Agent_Announcement"><path codeLine="118" d="M875.68,32.76 C909.26,44.52 972.65,72.28 998.97,121 C1017.59,155.46 1016.47,183.69 976.97,376 C945.47,529.42 940.88,571.39 873.97,713 C788.17,894.63 641.51,1086.57 580.21,1163.33 " fill="none" id="Agent-Announcement" style="stroke:#181818;stroke-width:1.0;"/><polygon fill="#000000" points="925.7057,613.0133,930.8362,605.0053,925.1494,603.519,925.7057,613.0133" style="stroke:#000000;stroke-width:1.0;"/><text fill="#000000" font-family="sans-serif" font-size="13" lengthAdjust="spacing" textLength="55" x="935.97" y="613.4951">publishes</text><text fill="#000000" font-family="sans-serif" font-size="13" lengthAdjust="spacing" textLength="7" x="883.4006" y="30.2953">1</text><text fill="#000000" font-family="sans-serif" font-size="13" lengthAdjust="spacing" textLength="5" x="580.1167" y="1152.5504">*</text></g><!--link Agent to Visit--><g id="link_Agent_Visit"><path codeLine="119" d="M832.32,39.5 C821.32,47.69 809.02,59.22 802.97,73 C796.44,87.91 798.11,106.12 801.45,120.68 " fill="none" id="Agent-Visit" style="stroke:#181818;stroke-width:1.0;"/><polygon fill="#000000" points="806.1928,86.8493,812.1548,79.4394,806.6607,77.3502,806.1928,86.8493" style="stroke:#000000;stroke-width:1.0;"/><text fill="#000000" font-family="sans-serif" font-size="13" lengthAdjust="spacing" textLength="59" x="816.97" y="87.4951">schedules</text><text fill="#000000" font-family="sans-serif" font-size="13" lengthAdjust="spacing" textLength="7" x="817.6178" y="39.0994">1</text><text fill="#000000" font-family="sans-serif" font-size="13" lengthAdjust="spacing" textLength="5" x="793.9016" y="110.1383">*</text></g><!--link Customer to Visit--><g id="link_Customer_Visit"><path codeLine="120" d="M284.68,33.27 C389.37,55.83 706.83,124.27 789.9,142.17 " fill="none" id="Customer-Visit" style="stroke:#181818;stroke-width:1.0;"/><polygon fill="#000000" points="556.8577,83.2293,548.635,78.4505,547.3965,84.1964,556.8577,83.2293" style="stroke:#000000;stroke-width:1.0;"/><text fill="#000000" font-family="sans-serif" font-size="13" lengthAdjust="spacing" textLength="50" x="560.97" y="87.4951">requests</text><text fill="#000000" font-family="sans-serif" font-size="13" lengthAdjust="spacing" textLength="7" x="292.3546" y="30.8973">1</text><text fill="#000000" font-family="sans-serif" font-size="13" lengthAdjust="spacing" textLength="5" x="776.8594" y="134.94">*</text></g><!--link StoreManager to Agency--><g id="link_StoreManager_Agency"><path codeLine="121" d="M288.98,332.1 C291.83,378.23 300.72,509.08 315.97,617 C326.05,688.28 342.43,769.82 353.45,821.58 " fill="none" id="StoreManager-Agency" style="stroke:#181818;stroke-width:1.0;"/><polygon fill="#000000" points="321.6229,613.133,323.3555,603.7816,317.528,604.5491,321.6229,613.133" style="stroke:#000000;stroke-width:1.0;"/><text fill="#000000" font-family="sans-serif" font-size="13" lengthAdjust="spacing" textLength="53" x="329.97" y="613.4951">manages</text><text fill="#000000" font-family="sans-serif" font-size="13" lengthAdjust="spacing" textLength="7" x="281.2797" y="353.0401">1</text><text fill="#000000" font-family="sans-serif" font-size="13" lengthAdjust="spacing" textLength="7" x="344.5256" y="811.2252">1</text></g><!--link Network to NetworkManager--><g id="link_Network_NetworkManager"><path codeLine="122" d="M101.04,37.99 C151.34,59.48 256.95,104.61 314.86,129.36 " fill="none" id="Network-NetworkManager" style="stroke:#181818;stroke-width:1.0;"/><polygon fill="#000000" points="223.3722,80.211,230.5349,86.4678,232.8445,81.0628,223.3722,80.211" style="stroke:#000000;stroke-width:1.0;"/><text fill="#000000" font-family="sans-serif" font-size="13" lengthAdjust="spacing" textLength="53" x="236.97" y="87.4951">manages</text><text fill="#000000" font-family="sans-serif" font-size="13" lengthAdjust="spacing" textLength="7" x="109.1298" y="36.8589">1</text><text fill="#000000" font-family="sans-serif" font-size="13" lengthAdjust="spacing" textLength="7" x="293.9593" y="118.6413">1</text></g><!--link Agency to Network--><g id="link_Agency_Network"><path codeLine="123" d="M314.39,831.39 C225.59,755.28 48.07,596.84 16.97,521 C6,494.24 19.97,484.92 19.97,456 C19.97,146.5 19.97,146.5 19.97,146.5 C19.97,106.96 44.18,65.83 59.87,43.32 " fill="none" id="Agency-Network" style="stroke:#181818;stroke-width:1.0;"/><polygon fill="#000000" points="20.4333,507.4178,20.4165,516.9283,26.0099,515.1219,20.4333,507.4178" style="stroke:#000000;stroke-width:1.0;"/><text fill="#000000" font-family="sans-serif" font-size="13" lengthAdjust="spacing" textLength="50" x="30.97" y="517.4951">is part of</text><text fill="#000000" font-family="sans-serif" font-size="13" lengthAdjust="spacing" textLength="20" x="286.6282" y="822.2921">1..*</text><text fill="#000000" font-family="sans-serif" font-size="13" lengthAdjust="spacing" textLength="7" x="48.4088" y="63.9883">1</text></g><!--link Announcement to Property--><g id="link_Announcement_Property"><path codeLine="124" d="M608.79,1234.51 C651.06,1260.19 708.53,1295.1 750.88,1320.82 " fill="none" id="Announcement-Property" style="stroke:#181818;stroke-width:1.0;"/><polygon fill="#000000" points="704.2434,1284.7716,698.0385,1277.5639,694.987,1282.5876,704.2434,1284.7716" style="stroke:#000000;stroke-width:1.0;"/><text fill="#000000" font-family="sans-serif" font-size="13" lengthAdjust="spacing" textLength="49" x="708.97" y="1287.4951">contains</text><text fill="#000000" font-family="sans-serif" font-size="13" lengthAdjust="spacing" textLength="7" x="611.2876" y="1255.802">1</text><text fill="#000000" font-family="sans-serif" font-size="13" lengthAdjust="spacing" textLength="7" x="732.33" y="1310.0385">1</text></g><!--link Announcement to Owner--><g id="link_Announcement_Owner"><path codeLine="125" d="M517.42,1234.51 C505.26,1246.67 491.5,1260.43 478.97,1273 C456.45,1295.6 430.49,1321.73 413.92,1338.42 " fill="none" id="Announcement-Owner" style="stroke:#181818;stroke-width:1.0;"/><polygon fill="#000000" points="487.4985,1278.6333,479.0331,1282.9677,483.1976,1287.1158,487.4985,1278.6333" style="stroke:#000000;stroke-width:1.0;"/><text fill="#000000" font-family="sans-serif" font-size="13" lengthAdjust="spacing" textLength="50" x="492.97" y="1287.4951">requests</text><text fill="#000000" font-family="sans-serif" font-size="13" lengthAdjust="spacing" textLength="5" x="505.8205" y="1255.802">*</text><text fill="#000000" font-family="sans-serif" font-size="13" lengthAdjust="spacing" textLength="7" x="411.2072" y="1327.7204">1</text></g><!--link Visit to Property--><g id="link_Visit_Property"><path codeLine="126" d="M809.64,174.08 C809.07,220.36 807.97,321.06 807.97,406 C807.97,406 807.97,406 807.97,1200 C807.97,1241.57 807.97,1289.4 807.97,1320.91 " fill="none" id="Visit-Property" style="stroke:#181818;stroke-width:1.0;"/><polygon fill="#000000" points="812.9627,709.1758,815.9148,700.135,810.037,700.1264,812.9627,709.1758" style="stroke:#000000;stroke-width:1.0;"/><text fill="#000000" font-family="sans-serif" font-size="13" lengthAdjust="spacing" textLength="43" x="821.97" y="709.4951">done to</text><text fill="#000000" font-family="sans-serif" font-size="13" lengthAdjust="spacing" textLength="7" x="801.7543" y="195.5871">1</text><text fill="#000000" font-family="sans-serif" font-size="13" lengthAdjust="spacing" textLength="7" x="800.3028" y="1310.1457">1</text></g><!--link Residence to Property--><g id="link_Residence_Property"><path codeLine="127" d="M1041.9,1243.03 C1025.74,1259.75 1005.77,1277.98 984.97,1291 C957,1308.51 923.58,1322.24 893.36,1332.44 " fill="none" id="Residence-to-Property" style="stroke:#181818;stroke-width:1.0;"/><polygon fill="none" points="895.23,1339.19,874.05,1338.65,890.95,1325.86,895.23,1339.19" style="stroke:#181818;stroke-width:1.0;"/></g><!--link House to Residence--><g id="link_House_Residence"><path codeLine="128" d="M1141.73,1077.12 C1138.31,1092.6 1133.51,1109.94 1126.97,1125 C1125.18,1129.13 1123.16,1133.28 1120.99,1137.39 " fill="none" id="House-to-Residence" style="stroke:#181818;stroke-width:1.0;"/><polygon fill="none" points="1126.85,1141.24,1110.73,1154.99,1114.75,1134.19,1126.85,1141.24" style="stroke:#181818;stroke-width:1.0;"/></g><!--link Visit to VisitReport--><g id="link_Visit_VisitReport"><path codeLine="129" d="M816.2,174.33 C820.32,188.9 826.54,207.1 834.97,222 C846.39,242.17 862.56,262.11 877.13,278.16 " fill="none" id="Visit-VisitReport" style="stroke:#181818;stroke-width:1.0;"/><polygon fill="#000000" points="837.4394,208.8635,839.4826,218.152,844.552,215.1771,837.4394,208.8635" style="stroke:#000000;stroke-width:1.0;"/><text fill="#000000" font-family="sans-serif" font-size="13" lengthAdjust="spacing" textLength="102" x="848.97" y="218.4951">is a description of</text><text fill="#000000" font-family="sans-serif" font-size="13" lengthAdjust="spacing" textLength="7" x="809.8313" y="195.8949">1</text><text fill="#000000" font-family="sans-serif" font-size="13" lengthAdjust="spacing" textLength="7" x="863.0611" y="267.6204">1</text></g><!--link Agent to VisitReport--><g id="link_Agent_VisitReport"><path codeLine="130" d="M864.27,43.25 C869.43,52.07 875.69,63.02 880.97,73 C904.3,117.1 902.51,132.35 929.97,174 C939.68,188.73 949.81,187.47 955.97,204 C965.32,229.05 953.58,257 939.88,278.33 " fill="none" id="Agent-VisitReport" style="stroke:#181818;stroke-width:1.0;"/><polygon fill="#000000" points="936.5009,152.4356,936.5292,142.9251,930.9337,144.7248,936.5009,152.4356" style="stroke:#000000;stroke-width:1.0;"/><text fill="#000000" font-family="sans-serif" font-size="13" lengthAdjust="spacing" textLength="50" x="943.97" y="152.9951">registers</text><text fill="#000000" font-family="sans-serif" font-size="13" lengthAdjust="spacing" textLength="7" x="859.1825" y="64.2323">1</text><text fill="#000000" font-family="sans-serif" font-size="13" lengthAdjust="spacing" textLength="5" x="939.7238" y="267.5504">*</text></g><!--link Employee to Agency--><g id="link_Employee_Agency"><path codeLine="131" d="M410.71,473.13 C410.41,493.57 409.97,528.78 409.97,559 C409.97,559 409.97,559 409.97,744 C409.97,770.63 401.44,798.72 391.8,821.95 " fill="none" id="Employee-Agency" style="stroke:#181818;stroke-width:1.0;"/><polygon fill="#000000" points="414.6993,661.1685,418.1236,652.2957,412.2544,651.9775,414.6993,661.1685" style="stroke:#000000;stroke-width:1.0;"/><text fill="#000000" font-family="sans-serif" font-size="13" lengthAdjust="spacing" textLength="48" x="423.97" y="661.4951">works in</text><text fill="#000000" font-family="sans-serif" font-size="13" lengthAdjust="spacing" textLength="7" x="402.6525" y="494.0785">1</text><text fill="#000000" font-family="sans-serif" font-size="13" lengthAdjust="spacing" textLength="7" x="387.935" y="811.262">1</text></g><!--link TypeProperty to Property--><g id="link_TypeProperty_Property"><path codeLine="132" d="M890.63,1225.68 C874.09,1251.64 848.43,1291.95 830.09,1320.76 " fill="none" id="TypeProperty-Property" style="stroke:#181818;stroke-width:1.0;"/><polygon fill="#000000" points="862.2845,1286.3934,869.6216,1280.3421,864.6635,1277.1852,862.2845,1286.3934" style="stroke:#000000;stroke-width:1.0;"/><text fill="#000000" font-family="sans-serif" font-size="13" lengthAdjust="spacing" textLength="102" x="873.97" y="1287.4951">is a description of</text><text fill="#000000" font-family="sans-serif" font-size="13" lengthAdjust="spacing" textLength="7" x="879.042" y="1247.2102">1</text><text fill="#000000" font-family="sans-serif" font-size="13" lengthAdjust="spacing" textLength="7" x="826.5231" y="1310.2388">1</text></g><!--link TypeResidence to Residence--><g id="link_TypeResidence_Residence"><path codeLine="133" d="M1000.76,1059.77 C996.21,1078.59 993.09,1104.33 1001.97,1125 C1006.63,1135.83 1013.77,1145.81 1021.86,1154.68 " fill="none" id="TypeResidence-Residence" style="stroke:#181818;stroke-width:1.0;"/><polygon fill="#000000" points="1008.0551,1121.0566,1008.961,1111.5893,1003.2233,1112.8649,1008.0551,1121.0566" style="stroke:#000000;stroke-width:1.0;"/><text fill="#000000" font-family="sans-serif" font-size="13" lengthAdjust="spacing" textLength="102" x="1015.97" y="1121.4951">is a description of</text><text fill="#000000" font-family="sans-serif" font-size="13" lengthAdjust="spacing" textLength="7" x="991.0521" y="1081.321">1</text><text fill="#000000" font-family="sans-serif" font-size="13" lengthAdjust="spacing" textLength="7" x="1005.5791" y="1144.157">1</text></g><!--link Property to Photograph--><g id="link_Property_Photograph"><path codeLine="134" d="M823.51,1392.14 C827.69,1401.75 832.11,1412.24 835.97,1422 C847.13,1450.22 858.7,1483.07 866.3,1505.27 " fill="none" id="Property-Photograph" style="stroke:#181818;stroke-width:1.0;"/><polygon fill="#000000" points="848.7389,1435.8524,848.2878,1426.3526,842.7901,1428.432,848.7389,1435.8524" style="stroke:#000000;stroke-width:1.0;"/><text fill="#000000" font-family="sans-serif" font-size="13" lengthAdjust="spacing" textLength="49" x="855.97" y="1436.4951">contains</text><text fill="#000000" font-family="sans-serif" font-size="13" lengthAdjust="spacing" textLength="7" x="818.6546" y="1413.4551">1</text><text fill="#000000" font-family="sans-serif" font-size="13" lengthAdjust="spacing" textLength="20" x="841.9826" y="1494.7492">1..*</text></g><!--link Property to Location--><g id="link_Property_Location"><path codeLine="135" d="M741.78,1377.83 C624.34,1413.89 382.75,1488.08 285.2,1518.03 " fill="none" id="Property-Location" style="stroke:#181818;stroke-width:1.0;"/><polygon fill="#000000" points="592.1903,1432.6435,601.6996,1432.7979,599.9742,1427.1789,592.1903,1432.6435" style="stroke:#000000;stroke-width:1.0;"/><text fill="#000000" font-family="sans-serif" font-size="13" lengthAdjust="spacing" textLength="56" x="605.97" y="1436.4951">is located</text><text fill="#000000" font-family="sans-serif" font-size="13" lengthAdjust="spacing" textLength="7" x="727.1577" y="1376.8117">1</text><text fill="#000000" font-family="sans-serif" font-size="13" lengthAdjust="spacing" textLength="7" x="293.0598" y="1511.8088">1</text></g><!--link Property to Transaction--><g id="link_Property_Transaction"><path codeLine="136" d="M756.12,1392.25 C747.13,1400.84 739.05,1410.83 733.97,1422 C721.96,1448.41 726.81,1482.18 732.65,1505.09 " fill="none" id="Property-Transaction" style="stroke:#181818;stroke-width:1.0;"/><polygon fill="#000000" points="737.9518,1436.071,742.6711,1427.8139,736.9164,1426.617,737.9518,1436.071" style="stroke:#000000;stroke-width:1.0;"/><text fill="#000000" font-family="sans-serif" font-size="13" lengthAdjust="spacing" textLength="79" x="747.97" y="1436.4951">!!!!!contains!!!!!</text><text fill="#000000" font-family="sans-serif" font-size="13" lengthAdjust="spacing" textLength="7" x="739.6067" y="1413.3096">1</text><text fill="#000000" font-family="sans-serif" font-size="13" lengthAdjust="spacing" textLength="7" x="722.9166" y="1494.5275">1</text></g><!--reverse link Transaction to Lease--><g id="link_Transaction_Lease"><path codeLine="137" d="M740.97,1578.96 C740.97,1603.87 740.97,1633.74 740.97,1654.61 " fill="none" id="Transaction-backto-Lease" style="stroke:#181818;stroke-width:1.0;"/><polygon fill="none" points="733.97,1578.69,740.97,1558.69,747.97,1578.69,733.97,1578.69" style="stroke:#181818;stroke-width:1.0;"/></g><!--link Person to Location--><g id="link_Person_Location"><path codeLine="138" d="M119.25,376.28 C113.14,400.26 107.97,428.16 107.97,454 C107.97,454 107.97,454 107.97,1357.5 C107.97,1418.76 161.04,1471.4 200.63,1502.15 " fill="none" id="Person-Location" style="stroke:#181818;stroke-width:1.0;"/><polygon fill="#000000" points="113.3305,788.1628,115.6097,778.9293,109.7471,779.3531,113.3305,788.1628" style="stroke:#000000;stroke-width:1.0;"/><text fill="#000000" font-family="sans-serif" font-size="13" lengthAdjust="spacing" textLength="56" x="121.97" y="788.4951">is located</text><text fill="#000000" font-family="sans-serif" font-size="13" lengthAdjust="spacing" textLength="7" x="109.8554" y="397.0586">1</text><text fill="#000000" font-family="sans-serif" font-size="13" lengthAdjust="spacing" textLength="7" x="186.0378" y="1493.4338">1</text></g><!--link Agency to Location--><g id="link_Agency_Location"><path codeLine="139" d="M314.29,911.91 C280.77,940.22 242.97,983.01 242.97,1032 C242.97,1032 242.97,1032 242.97,1357.5 C242.97,1394.85 242.97,1436.72 242.97,1469.98 " fill="none" id="Agency-Location" style="stroke:#181818;stroke-width:1.0;"/><polygon fill="#000000" points="247.3362,1204.1354,251.398,1195.5359,245.5676,1194.7908,247.3362,1204.1354" style="stroke:#000000;stroke-width:1.0;"/><text fill="#000000" font-family="sans-serif" font-size="13" lengthAdjust="spacing" textLength="56" x="256.97" y="1204.4951">is located</text><text fill="#000000" font-family="sans-serif" font-size="13" lengthAdjust="spacing" textLength="7" x="299.3323" y="913.6736">1</text><text fill="#000000" font-family="sans-serif" font-size="13" lengthAdjust="spacing" textLength="7" x="235.5434" y="1458.9838">1</text></g><!--link Residence to AvailableEquipment--><g id="link_Residence_AvailableEquipment"><path codeLine="140" d="M1080.37,1243.32 C1081.26,1271.17 1082.39,1306.42 1083.15,1329.9 " fill="none" id="Residence-AvailableEquipment" style="stroke:#181818;stroke-width:1.0;"/><polygon fill="#000000" points="1086.1305,1287.1732,1088.7776,1278.0385,1082.9028,1278.2271,1086.1305,1287.1732" style="stroke:#000000;stroke-width:1.0;"/><text fill="#000000" font-family="sans-serif" font-size="13" lengthAdjust="spacing" textLength="49" x="1094.97" y="1287.4951">contains</text><text fill="#000000" font-family="sans-serif" font-size="13" lengthAdjust="spacing" textLength="7" x="1073.0484" y="1264.82">1</text><text fill="#000000" font-family="sans-serif" font-size="13" lengthAdjust="spacing" textLength="5" x="1077.3407" y="1318.9776">*</text></g><!--link Announcement to Commission--><g id="link_Announcement_Commission"><path codeLine="141" d="M551.97,1234.51 C551.97,1260.19 551.97,1295.1 551.97,1320.82 " fill="none" id="Announcement-Commission" style="stroke:#181818;stroke-width:1.0;"/><polygon fill="#000000" points="556.97,1277.1758,554.0311,1286.2209,559.9089,1286.2209,556.97,1277.1758" style="stroke:#000000;stroke-width:1.0;"/><text fill="#000000" font-family="sans-serif" font-size="13" lengthAdjust="spacing" textLength="81" x="565.97" y="1287.4951">is assigned to</text><text fill="#000000" font-family="sans-serif" font-size="13" lengthAdjust="spacing" textLength="7" x="544.3466" y="1255.802">1</text><text fill="#000000" font-family="sans-serif" font-size="13" lengthAdjust="spacing" textLength="7" x="544.3028" y="1310.0385">1</text></g><!--link Agency to Announcement--><g id="link_Agency_Announcement"><path codeLine="142" d="M395.23,928.09 C433.68,994.31 499,1106.79 531.85,1163.35 " fill="none" id="Agency-Announcement" style="stroke:#181818;stroke-width:1.0;"/><polygon fill="#000000" points="488.4809,1037.4996,486.4801,1028.2019,481.3972,1031.1536,488.4809,1037.4996" style="stroke:#000000;stroke-width:1.0;"/><text fill="#000000" font-family="sans-serif" font-size="13" lengthAdjust="spacing" textLength="98" x="494.97" y="1038.4951">is responsible for</text><text fill="#000000" font-family="sans-serif" font-size="13" lengthAdjust="spacing" textLength="7" x="391.6586" y="949.4318">1</text><text fill="#000000" font-family="sans-serif" font-size="13" lengthAdjust="spacing" textLength="7" x="520.3474" y="1152.5742">1</text></g><!--SRC=[XLRRJXin47ttLxXvGK8AAgyHGae3Kf608bBrtR4dknQxjl5u2o7mxnrxRyu5obCyFdCyjpCBFcdZX1SrhwsnilIs1Xvy0mo76oVaaoXW6JOLS0yo25DKEG1BeUoBDWLVYmg1dOnNbJOGDWwuzQ6qxAI2TU31Sg-BCd2b8vss9YEJbK2SX-3rgWbm8wrPwZVWtrcf5N2flQItq-yQY58XOoT11mhjojP26tvd5LICiKJ4bniCKCzLhOt6u4Mmdc_PHtyzBy383LbkhfW2r8KHAHuWgcgkb0T4vafhuBwfL-17p-lQLNO3aBCzW4Thjio86fZKWG8t2-5Lvnl4Q_VhA_gEwzUB0PznBneCr1o_5tp8pajA3kw4eMObM6kzX_1Y_TE1VMwCROo4Ef5uU6u0mvK8m8IKuAZB4j9nuF-ZKHDKjSRCzWYE-hjbN86e7hn5HssD9vHUkrJG7a-t3dpO45Xu40IYjiId5Zfi5XHANkD7weYY1W6XJIhG3r3UsXg7imXbPw3neI4gbZIkOtZplrHeiQhW-hdHhatrM5W_ROFnbPN0L136jId5IeVeUslNPC36NBywYus7_TfkXuX_qwoFAUOJzP4XihoEGHvA6spXXIkthF7LOB-rCW6tZ2OP8DntOxPXiOXUKysfbjISD-qMf8BnJIyC2jdwYfhQ7aPI435pqXcfGuQhnky6ix1rhH79H9CUfJmQEghC4CUN7PFSTFf-EKZcA69oFY7Kb4zE9mDmHkkc80J9Ybz-uPMSMYdlkhI2vFpYdK3Z-vqvMPFEMAyk7cEWK5i4ImfBjjtuCw7jfRQhDhxdsFBbGMSYd77Nh2gD9SJGCsX29g7DECeIL5Cbo11qHjZ1UAVdLBSysXvwFXQiJbSHkHTymZQkHNTtERnRdfFpixFJhdavK6FKPE1s7R5PedaGlLXcF4uWxMyy09yEuDIhsPZR1Klf7kTJj5NZf-QI3NBZRRC644koRuq3w90pNt8fBP6ljfZVnM5dTtpocHm-7Dt4xtKZrWvf-t22vjlaU9B7WcdzngGpny7ucUVXQwctuqRQwLEEdawZIx-Y4dyL3w3uKTv9lfLc_5lywwdJ8UOn8bgnfcNLoxUl7__quMn4_myzBDZfvF3pySMSZfcD6x6jCyOTJu_GD5xiXTJsVcSBa0VzN-2iGKqlypMjkKl6_W40]--></g></svg>