<?xml version="1.0" encoding="UTF-8" standalone="no"?><svg xmlns="http://www.w3.org/2000/svg" xmlns:xlink="http://www.w3.org/1999/xlink" contentStyleType="text/css" height="1715px" preserveAspectRatio="none" style="width:1463px;height:1715px;background:#FFFFFF;" version="1.1" viewBox="0 0 1463 1715" width="1463px" zoomAndPan="magnify"><defs/><g><!--class SystemAdministrator--><g id="elem_SystemAdministrator"><rect codeLine="13" fill="#F1F1F1" height="35.6094" id="SystemAdministrator" rx="2.5" ry="2.5" style="stroke:#181818;stroke-width:0.5;" width="135" x="213.5844" y="129.5"/><text fill="#000000" font-family="sans-serif" font-size="14" lengthAdjust="spacing" textLength="129" x="216.5844" y="149.0332">SystemAdministrator</text><line style="stroke:#181818;stroke-width:0.5;" x1="214.5844" x2="347.5844" y1="157.1094" y2="157.1094"/></g><!--class Agency--><g id="elem_Agency"><rect codeLine="16" fill="#F1F1F1" height="106.0469" id="Agency" rx="2.5" ry="2.5" style="stroke:#181818;stroke-width:0.5;" width="101" x="433.5844" y="822"/><text fill="#000000" font-family="sans-serif" font-size="14" lengthAdjust="spacing" textLength="47" x="460.5844" y="841.5332">Agency</text><line style="stroke:#181818;stroke-width:0.5;" x1="434.5844" x2="533.5844" y1="849.6094" y2="849.6094"/><text fill="#000000" font-family="sans-serif" font-size="14" lengthAdjust="spacing" textLength="11" x="439.5844" y="868.1426">id</text><text fill="#000000" font-family="sans-serif" font-size="14" lengthAdjust="spacing" textLength="73" x="439.5844" y="885.752">designation</text><text fill="#000000" font-family="sans-serif" font-size="14" lengthAdjust="spacing" textLength="85" x="439.5844" y="903.3613">emailAddress</text><text fill="#000000" font-family="sans-serif" font-size="14" lengthAdjust="spacing" textLength="89" x="439.5844" y="920.9707">phoneNumber</text></g><!--class Employee--><g id="elem_Employee"><rect codeLine="23" fill="#F1F1F1" height="35.6094" id="Employee" rx="2.5" ry="2.5" style="stroke:#181818;stroke-width:0.5;" width="68" x="352.0844" y="437"/><text fill="#000000" font-family="sans-serif" font-size="14" lengthAdjust="spacing" textLength="62" x="355.0844" y="456.5332">Employee</text><line style="stroke:#181818;stroke-width:0.5;" x1="353.0844" x2="419.0844" y1="464.6094" y2="464.6094"/></g><!--class Person--><g id="elem_Person"><rect codeLine="26" fill="#F1F1F1" height="123.6563" id="Person" rx="2.5" ry="2.5" style="stroke:#181818;stroke-width:0.5;" width="147" x="904.5844" y="252"/><text fill="#000000" font-family="sans-serif" font-size="14" lengthAdjust="spacing" textLength="45" x="955.5844" y="271.5332">Person</text><line style="stroke:#181818;stroke-width:0.5;" x1="905.5844" x2="1050.5844" y1="279.6094" y2="279.6094"/><text fill="#000000" font-family="sans-serif" font-size="14" lengthAdjust="spacing" textLength="35" x="910.5844" y="298.1426">name</text><text fill="#000000" font-family="sans-serif" font-size="14" lengthAdjust="spacing" textLength="135" x="910.5844" y="315.752">passportCardNumber</text><text fill="#000000" font-family="sans-serif" font-size="14" lengthAdjust="spacing" textLength="67" x="910.5844" y="333.3613">taxNumber</text><text fill="#000000" font-family="sans-serif" font-size="14" lengthAdjust="spacing" textLength="85" x="910.5844" y="350.9707">emailAddress</text><text fill="#000000" font-family="sans-serif" font-size="14" lengthAdjust="spacing" textLength="89" x="910.5844" y="368.5801">phoneNumber</text></g><!--class Owner--><g id="elem_Owner"><rect codeLine="35" fill="#F1F1F1" height="35.6094" id="Owner" rx="2.5" ry="2.5" style="stroke:#181818;stroke-width:0.5;" width="47" x="877.5844" y="1338.5"/><text fill="#000000" font-family="sans-serif" font-size="14" lengthAdjust="spacing" textLength="41" x="880.5844" y="1358.0332">Owner</text><line style="stroke:#181818;stroke-width:0.5;" x1="878.5844" x2="923.5844" y1="1366.1094" y2="1366.1094"/></g><!--class Customer--><g id="elem_Customer"><rect codeLine="38" fill="#F1F1F1" height="35.6094" id="Customer" rx="2.5" ry="2.5" style="stroke:#181818;stroke-width:0.5;" width="67" x="1058.5844" y="7"/><text fill="#000000" font-family="sans-serif" font-size="14" lengthAdjust="spacing" textLength="61" x="1061.5844" y="26.5332">Customer</text><line style="stroke:#181818;stroke-width:0.5;" x1="1059.5844" x2="1124.5844" y1="34.6094" y2="34.6094"/></g><!--class Agent--><g id="elem_Agent"><rect codeLine="41" fill="#F1F1F1" height="35.6094" id="Agent" rx="2.5" ry="2.5" style="stroke:#181818;stroke-width:0.5;" width="43" x="746.5844" y="7"/><text fill="#000000" font-family="sans-serif" font-size="14" lengthAdjust="spacing" textLength="37" x="749.5844" y="26.5332">Agent</text><line style="stroke:#181818;stroke-width:0.5;" x1="747.5844" x2="788.5844" y1="34.6094" y2="34.6094"/></g><!--class StoreManager--><g id="elem_StoreManager"><rect codeLine="44" fill="#F1F1F1" height="35.6094" id="StoreManager" rx="2.5" ry="2.5" style="stroke:#181818;stroke-width:0.5;" width="96" x="454.0844" y="296"/><text fill="#000000" font-family="sans-serif" font-size="14" lengthAdjust="spacing" textLength="90" x="457.0844" y="315.5332">StoreManager</text><line style="stroke:#181818;stroke-width:0.5;" x1="455.0844" x2="549.0844" y1="323.6094" y2="323.6094"/></g><!--class NetworkManager--><g id="elem_NetworkManager"><rect codeLine="46" fill="#F1F1F1" height="35.6094" id="NetworkManager" rx="2.5" ry="2.5" style="stroke:#181818;stroke-width:0.5;" width="112" x="66.0844" y="129.5"/><text fill="#000000" font-family="sans-serif" font-size="14" lengthAdjust="spacing" textLength="106" x="69.0844" y="149.0332">NetworkManager</text><line style="stroke:#181818;stroke-width:0.5;" x1="67.0844" x2="177.0844" y1="157.1094" y2="157.1094"/></g><!--class Announcement--><g id="elem_Announcement"><rect codeLine="48" fill="#F1F1F1" height="53.2188" id="Announcement" rx="2.5" ry="2.5" style="stroke:#181818;stroke-width:0.5;" width="101" x="651.5844" y="1172.5"/><text fill="#000000" font-family="sans-serif" font-size="14" lengthAdjust="spacing" textLength="95" x="654.5844" y="1192.0332">Announcement</text><line style="stroke:#181818;stroke-width:0.5;" x1="652.5844" x2="751.5844" y1="1200.1094" y2="1200.1094"/><text fill="#000000" font-family="sans-serif" font-size="14" lengthAdjust="spacing" textLength="72" x="657.5844" y="1218.6426">ownerEmail</text></g><!--class Date--><g id="elem_Date"><rect codeLine="52" fill="#F1F1F1" height="106.0469" id="Date" rx="2.5" ry="2.5" style="stroke:#181818;stroke-width:0.5;" width="115" x="496.5844" y="1479"/><text fill="#000000" font-family="sans-serif" font-size="14" lengthAdjust="spacing" textLength="30" x="539.0844" y="1498.5332">Date</text><line style="stroke:#181818;stroke-width:0.5;" x1="497.5844" x2="610.5844" y1="1506.6094" y2="1506.6094"/><text fill="#000000" font-family="sans-serif" font-size="14" lengthAdjust="spacing" textLength="78" x="502.5844" y="1525.1426">requestDate</text><text fill="#000000" font-family="sans-serif" font-size="14" lengthAdjust="spacing" textLength="103" x="502.5844" y="1542.752">acceptanceDate</text><text fill="#000000" font-family="sans-serif" font-size="14" lengthAdjust="spacing" textLength="84" x="502.5844" y="1560.3613">rejectionDate</text><text fill="#000000" font-family="sans-serif" font-size="14" lengthAdjust="spacing" textLength="56" x="502.5844" y="1577.9707">saleDate</text></g><!--class Visit--><g id="elem_Visit"><rect codeLine="58" fill="#F1F1F1" height="53.2188" id="Visit" rx="2.5" ry="2.5" style="stroke:#181818;stroke-width:0.5;" width="40" x="967.0844" y="121"/><text fill="#000000" font-family="sans-serif" font-size="14" lengthAdjust="spacing" textLength="26" x="974.0844" y="140.5332">Visit</text><line style="stroke:#181818;stroke-width:0.5;" x1="968.0844" x2="1006.0844" y1="148.6094" y2="148.6094"/><text fill="#000000" font-family="sans-serif" font-size="14" lengthAdjust="spacing" textLength="28" x="973.0844" y="167.1426">date</text></g><!--class VisitReport--><g id="elem_VisitReport"><rect codeLine="61" fill="#F1F1F1" height="70.8281" id="VisitReport" rx="2.5" ry="2.5" style="stroke:#181818;stroke-width:0.5;" width="95" x="774.5844" y="278.5"/><text fill="#000000" font-family="sans-serif" font-size="14" lengthAdjust="spacing" textLength="69" x="787.5844" y="298.0332">VisitReport</text><line style="stroke:#181818;stroke-width:0.5;" x1="775.5844" x2="868.5844" y1="306.1094" y2="306.1094"/><text fill="#000000" font-family="sans-serif" font-size="14" lengthAdjust="spacing" textLength="83" x="780.5844" y="324.6426">dealProspect</text><text fill="#000000" font-family="sans-serif" font-size="14" lengthAdjust="spacing" textLength="69" x="780.5844" y="342.252">description</text></g><!--class Property--><g id="elem_Property"><rect codeLine="65" fill="#F1F1F1" height="70.8281" id="Property" rx="2.5" ry="2.5" style="stroke:#181818;stroke-width:0.5;" width="132" x="1081.0844" y="1321"/><text fill="#000000" font-family="sans-serif" font-size="14" lengthAdjust="spacing" textLength="54" x="1120.0844" y="1340.5332">Property</text><line style="stroke:#181818;stroke-width:0.5;" x1="1082.0844" x2="1212.0844" y1="1348.6094" y2="1348.6094"/><text fill="#000000" font-family="sans-serif" font-size="14" lengthAdjust="spacing" textLength="29" x="1087.0844" y="1367.1426">area</text><text fill="#000000" font-family="sans-serif" font-size="14" lengthAdjust="spacing" textLength="120" x="1087.0844" y="1384.752">distanceCityCenter</text></g><!--class Residence--><g id="elem_Residence"><rect codeLine="70" fill="#F1F1F1" height="88.4375" id="Residence" rx="2.5" ry="2.5" style="stroke:#181818;stroke-width:0.5;" width="128" x="1299.0844" y="1155"/><text fill="#000000" font-family="sans-serif" font-size="14" lengthAdjust="spacing" textLength="67" x="1329.5844" y="1174.5332">Residence</text><line style="stroke:#181818;stroke-width:0.5;" x1="1300.0844" x2="1426.0844" y1="1182.6094" y2="1182.6094"/><text fill="#000000" font-family="sans-serif" font-size="14" lengthAdjust="spacing" textLength="112" x="1305.0844" y="1201.1426">numberBedrooms</text><text fill="#000000" font-family="sans-serif" font-size="14" lengthAdjust="spacing" textLength="116" x="1305.0844" y="1218.752">numberBathrooms</text><text fill="#000000" font-family="sans-serif" font-size="14" lengthAdjust="spacing" textLength="87" x="1305.0844" y="1236.3613">parkingSpace</text></g><!--class AvailableEquipment--><g id="elem_AvailableEquipment"><rect codeLine="75" fill="#F1F1F1" height="53.2188" id="AvailableEquipment" rx="2.5" ry="2.5" style="stroke:#181818;stroke-width:0.5;" width="130" x="1326.0844" y="1330"/><text fill="#000000" font-family="sans-serif" font-size="14" lengthAdjust="spacing" textLength="124" x="1329.0844" y="1349.5332">AvailableEquipment</text><line style="stroke:#181818;stroke-width:0.5;" x1="1327.0844" x2="1455.0844" y1="1357.6094" y2="1357.6094"/><text fill="#000000" font-family="sans-serif" font-size="14" lengthAdjust="spacing" textLength="69" x="1332.0844" y="1376.1426">description</text></g><!--class House--><g id="elem_House"><rect codeLine="78" fill="#F1F1F1" height="88.4375" id="House" rx="2.5" ry="2.5" style="stroke:#181818;stroke-width:0.5;" width="105" x="1323.5844" y="989"/><text fill="#000000" font-family="sans-serif" font-size="14" lengthAdjust="spacing" textLength="40" x="1356.0844" y="1008.5332">House</text><line style="stroke:#181818;stroke-width:0.5;" x1="1324.5844" x2="1427.5844" y1="1016.6094" y2="1016.6094"/><text fill="#000000" font-family="sans-serif" font-size="14" lengthAdjust="spacing" textLength="62" x="1329.5844" y="1035.1426">basement</text><text fill="#000000" font-family="sans-serif" font-size="14" lengthAdjust="spacing" textLength="93" x="1329.5844" y="1052.752">inhabitableLoft</text><text fill="#000000" font-family="sans-serif" font-size="14" lengthAdjust="spacing" textLength="82" x="1329.5844" y="1070.3613">sunExposure</text></g><!--class Network--><g id="elem_Network"><rect codeLine="83" fill="#F1F1F1" height="35.6094" id="Network" rx="2.5" ry="2.5" style="stroke:#181818;stroke-width:0.5;" width="56" x="39.0844" y="7"/><text fill="#000000" font-family="sans-serif" font-size="14" lengthAdjust="spacing" textLength="50" x="42.0844" y="26.5332">Network</text><line style="stroke:#181818;stroke-width:0.5;" x1="40.0844" x2="94.0844" y1="34.6094" y2="34.6094"/></g><!--class TypeProperty--><g id="elem_TypeProperty"><rect codeLine="85" fill="#F1F1F1" height="53.2188" id="TypeProperty" rx="2.5" ry="2.5" style="stroke:#181818;stroke-width:0.5;" width="92" x="1158.0844" y="1172.5"/><text fill="#000000" font-family="sans-serif" font-size="14" lengthAdjust="spacing" textLength="86" x="1161.0844" y="1192.0332">TypeProperty</text><line style="stroke:#181818;stroke-width:0.5;" x1="1159.0844" x2="1249.0844" y1="1200.1094" y2="1200.1094"/><text fill="#000000" font-family="sans-serif" font-size="14" lengthAdjust="spacing" textLength="73" x="1164.0844" y="1218.6426">designation</text></g><!--class TypeResidence--><g id="elem_TypeResidence"><rect codeLine="88" fill="#F1F1F1" height="53.2188" id="TypeResidence" rx="2.5" ry="2.5" style="stroke:#181818;stroke-width:0.5;" width="105" x="1183.5844" y="1006.5"/><text fill="#000000" font-family="sans-serif" font-size="14" lengthAdjust="spacing" textLength="99" x="1186.5844" y="1026.0332">TypeResidence</text><line style="stroke:#181818;stroke-width:0.5;" x1="1184.5844" x2="1287.5844" y1="1034.1094" y2="1034.1094"/><text fill="#000000" font-family="sans-serif" font-size="14" lengthAdjust="spacing" textLength="73" x="1189.5844" y="1052.6426">designation</text></g><!--class Photograph--><g id="elem_Photograph"><rect codeLine="91" fill="#F1F1F1" height="53.2188" id="Photograph" rx="2.5" ry="2.5" style="stroke:#181818;stroke-width:0.5;" width="80" x="1335.0844" y="1505.5"/><text fill="#000000" font-family="sans-serif" font-size="14" lengthAdjust="spacing" textLength="74" x="1338.0844" y="1525.0332">Photograph</text><line style="stroke:#181818;stroke-width:0.5;" x1="1336.0844" x2="1414.0844" y1="1533.1094" y2="1533.1094"/><text fill="#000000" font-family="sans-serif" font-size="14" lengthAdjust="spacing" textLength="16" x="1341.0844" y="1551.6426">url</text></g><!--class Location--><g id="elem_Location"><rect codeLine="94" fill="#F1F1F1" height="123.6563" id="Location" rx="2.5" ry="2.5" style="stroke:#181818;stroke-width:0.5;" width="84" x="936.0844" y="1470"/><text fill="#000000" font-family="sans-serif" font-size="14" lengthAdjust="spacing" textLength="54" x="951.0844" y="1489.5332">Location</text><line style="stroke:#181818;stroke-width:0.5;" x1="937.0844" x2="1019.0844" y1="1497.6094" y2="1497.6094"/><text fill="#000000" font-family="sans-serif" font-size="14" lengthAdjust="spacing" textLength="72" x="942.0844" y="1516.1426">streetName</text><text fill="#000000" font-family="sans-serif" font-size="14" lengthAdjust="spacing" textLength="21" x="942.0844" y="1533.752">city</text><text fill="#000000" font-family="sans-serif" font-size="14" lengthAdjust="spacing" textLength="41" x="942.0844" y="1551.3613">district</text><text fill="#000000" font-family="sans-serif" font-size="14" lengthAdjust="spacing" textLength="31" x="942.0844" y="1568.9707">state</text><text fill="#000000" font-family="sans-serif" font-size="14" lengthAdjust="spacing" textLength="51" x="942.0844" y="1586.5801">zipCode</text></g><!--class Transaction--><g id="elem_Transaction"><rect codeLine="101" fill="#F1F1F1" height="53.2188" id="Transaction" rx="2.5" ry="2.5" style="stroke:#181818;stroke-width:0.5;" width="81" x="1106.5844" y="1505.5"/><text fill="#000000" font-family="sans-serif" font-size="14" lengthAdjust="spacing" textLength="75" x="1109.5844" y="1525.0332">Transaction</text><line style="stroke:#181818;stroke-width:0.5;" x1="1107.5844" x2="1186.5844" y1="1533.1094" y2="1533.1094"/><text fill="#000000" font-family="sans-serif" font-size="14" lengthAdjust="spacing" textLength="47" x="1112.5844" y="1551.6426">amount</text></g><!--class Lease--><g id="elem_Lease"><rect codeLine="104" fill="#F1F1F1" height="53.2188" id="Lease" rx="2.5" ry="2.5" style="stroke:#181818;stroke-width:0.5;" width="117" x="1088.5844" y="1655"/><text fill="#000000" font-family="sans-serif" font-size="14" lengthAdjust="spacing" textLength="39" x="1127.5844" y="1674.5332">Lease</text><line style="stroke:#181818;stroke-width:0.5;" x1="1089.5844" x2="1204.5844" y1="1682.6094" y2="1682.6094"/><text fill="#000000" font-family="sans-serif" font-size="14" lengthAdjust="spacing" textLength="105" x="1094.5844" y="1701.1426">contractDuration</text></g><!--class Commission--><g id="elem_Commission"><rect codeLine="107" fill="#F1F1F1" height="70.8281" id="Commission" rx="2.5" ry="2.5" style="stroke:#181818;stroke-width:0.5;" width="135" x="707.5844" y="1321"/><text fill="#000000" font-family="sans-serif" font-size="14" lengthAdjust="spacing" textLength="76" x="737.0844" y="1340.5332">Commission</text><line style="stroke:#181818;stroke-width:0.5;" x1="708.5844" x2="841.5844" y1="1348.6094" y2="1348.6094"/><text fill="#000000" font-family="sans-serif" font-size="14" lengthAdjust="spacing" textLength="103" x="713.5844" y="1367.1426">typeCommission</text><text fill="#000000" font-family="sans-serif" font-size="14" lengthAdjust="spacing" textLength="123" x="713.5844" y="1384.752">amountCommission</text></g><!--link SystemAdministrator to Employee--><g id="link_SystemAdministrator_Employee"><path codeLine="114" d="M287.0344,165.8 C303.6744,214.22 350.9744,351.84 373.6544,417.83 " fill="none" id="SystemAdministrator-to-Employee" style="stroke:#181818;stroke-width:1.0;"/><polygon fill="none" points="380.3244,415.7,380.2044,436.89,367.0844,420.25,380.3244,415.7" style="stroke:#181818;stroke-width:1.0;"/></g><!--link SystemAdministrator to Employee--><g id="link_SystemAdministrator_Employee"><path codeLine="115" d="M271.3244,165.61 C249.9644,205.5 204.1644,306.59 245.0844,376 C268.0344,414.92 318.1444,435.78 352.0144,445.87 " fill="none" id="SystemAdministrator-Employee" style="stroke:#181818;stroke-width:1.0;"/><polygon fill="#000000" points="251.4677,318.9806,251.7894,309.4755,246.141,311.1017,251.4677,318.9806" style="stroke:#000000;stroke-width:1.0;"/><text fill="#000000" font-family="sans-serif" font-size="13" lengthAdjust="spacing" textLength="50" x="259.0844" y="319.4951">registers</text><text fill="#000000" font-family="sans-serif" font-size="13" lengthAdjust="spacing" textLength="7" x="260.595" y="186.5529">1</text><text fill="#000000" font-family="sans-serif" font-size="13" lengthAdjust="spacing" textLength="5" x="339.0147" y="439.6991">*</text></g><!--link SystemAdministrator to Agency--><g id="link_SystemAdministrator_Agency"><path codeLine="116" d="M348.5844,153.42 C443.0044,164.39 603.0844,199.69 603.0844,313 C603.0844,313 603.0844,313 603.0844,744 C603.0844,786.99 567.2444,821.95 534.8944,844.74 " fill="none" id="SystemAdministrator-Agency" style="stroke:#181818;stroke-width:1.0;"/><polygon fill="#000000" points="609.3854,565.0035,609.8694,555.5053,604.1941,557.0348,609.3854,565.0035" style="stroke:#000000;stroke-width:1.0;"/><text fill="#000000" font-family="sans-serif" font-size="13" lengthAdjust="spacing" textLength="50" x="617.0844" y="565.4951">registers</text><text fill="#000000" font-family="sans-serif" font-size="13" lengthAdjust="spacing" textLength="7" x="356.7937" y="150.7175">1</text><text fill="#000000" font-family="sans-serif" font-size="13" lengthAdjust="spacing" textLength="5" x="542.7243" y="836.6381">*</text></g><!--reverse link Person to Employee--><g id="link_Person_Employee"><path codeLine="117" d="M885.8444,375.19 C706.1444,441.76 500.3444,452.03 420.2144,453.72 " fill="none" id="Person-backto-Employee" style="stroke:#181818;stroke-width:1.0;"/><polygon fill="none" points="883.3544,368.65,904.5344,368.02,888.3744,381.72,883.3544,368.65" style="stroke:#181818;stroke-width:1.0;"/></g><!--reverse link Person to Owner--><g id="link_Person_Owner"><path codeLine="118" d="M922.1944,393.87 C913.3644,412.71 907.0844,433.37 907.0844,454 C907.0844,454 907.0844,454 907.0844,1200 C907.0844,1250.25 903.9144,1309.57 902.1844,1338.25 " fill="none" id="Person-backto-Owner" style="stroke:#181818;stroke-width:1.0;"/><polygon fill="none" points="916.0344,390.53,931.5144,376.06,928.4344,397.03,916.0344,390.53" style="stroke:#181818;stroke-width:1.0;"/></g><!--link Customer to Person--><g id="link_Customer_Person"><path codeLine="119" d="M1105.8944,43.19 C1111.8144,51.65 1118.0444,62.3 1121.0844,73 C1123.2644,80.7 1122.9844,83.23 1121.0844,91 C1108.1344,144.04 1076.2944,195.78 1045.9244,235.94 " fill="none" id="Customer-to-Person" style="stroke:#181818;stroke-width:1.0;"/><polygon fill="none" points="1051.3344,240.39,1033.5144,251.86,1040.2944,231.78,1051.3344,240.39" style="stroke:#181818;stroke-width:1.0;"/></g><!--link Agent to Employee--><g id="link_Agent_Employee"><path codeLine="120" d="M746.5644,34.1 C686.9644,57.69 518.6944,132.37 436.0844,252 C401.5444,302.02 390.8044,373.55 387.5044,416.71 " fill="none" id="Agent-to-Employee" style="stroke:#181818;stroke-width:1.0;"/><polygon fill="none" points="394.4844,417.37,386.3544,436.94,380.5044,416.57,394.4844,417.37" style="stroke:#181818;stroke-width:1.0;"/></g><!--link StoreManager to Employee--><g id="link_StoreManager_Employee"><path codeLine="121" d="M488.4344,332.1 C473.5244,350.67 448.8744,381.17 427.0844,407 C423.1544,411.66 418.9744,416.54 414.8444,421.31 " fill="none" id="StoreManager-to-Employee" style="stroke:#181818;stroke-width:1.0;"/><polygon fill="none" points="419.8344,426.24,401.4144,436.71,409.2844,417.04,419.8344,426.24" style="stroke:#181818;stroke-width:1.0;"/></g><!--link NetworkManager to Employee--><g id="link_NetworkManager_Employee"><path codeLine="122" d="M126.1544,165.55 C136.4144,205.77 166.4844,308.25 221.0844,376 C248.9544,410.58 295.7644,430.68 332.4244,441.78 " fill="none" id="NetworkManager-to-Employee" style="stroke:#181818;stroke-width:1.0;"/><polygon fill="none" points="334.4044,435.07,351.8244,447.13,330.6844,448.56,334.4044,435.07" style="stroke:#181818;stroke-width:1.0;"/></g><!--link Agent to Announcement--><g id="link_Agent_Announcement"><path codeLine="123" d="M756.7044,43.14 C742.7944,65.8 721.0844,107.43 721.0844,146.5 C721.0844,146.5 721.0844,146.5 721.0844,1034 C721.0844,1083.16 712.5544,1140.05 706.9244,1172.26 " fill="none" id="Agent-Announcement" style="stroke:#181818;stroke-width:1.0;"/><polygon fill="#000000" points="725.8641,613.1709,729.1986,604.2641,723.3264,604.0052,725.8641,613.1709" style="stroke:#000000;stroke-width:1.0;"/><text fill="#000000" font-family="sans-serif" font-size="13" lengthAdjust="spacing" textLength="55" x="735.0844" y="613.4951">publishes</text><text fill="#000000" font-family="sans-serif" font-size="13" lengthAdjust="spacing" textLength="7" x="745.5194" y="64.0914">1</text><text fill="#000000" font-family="sans-serif" font-size="13" lengthAdjust="spacing" textLength="5" x="702.4655" y="1161.7368">*</text></g><!--link Agent to Visit--><g id="link_Agent_Visit"><path codeLine="124" d="M789.8844,37.99 C832.4044,61.39 925.8344,112.8 966.9644,135.43 " fill="none" id="Agent-Visit" style="stroke:#181818;stroke-width:1.0;"/><polygon fill="#000000" points="893.465,84.5862,886.9572,77.6508,884.1235,82.8005,893.465,84.5862" style="stroke:#000000;stroke-width:1.0;"/><text fill="#000000" font-family="sans-serif" font-size="13" lengthAdjust="spacing" textLength="59" x="898.0844" y="87.4951">schedules</text><text fill="#000000" font-family="sans-serif" font-size="13" lengthAdjust="spacing" textLength="7" x="797.6325" y="37.127">1</text><text fill="#000000" font-family="sans-serif" font-size="13" lengthAdjust="spacing" textLength="5" x="954.1887" y="126.0489">*</text></g><!--link Customer to Visit--><g id="link_Customer_Visit"><path codeLine="125" d="M1077.2644,43.01 C1058.9444,64.03 1027.7044,99.89 1007.2244,123.39 " fill="none" id="Customer-Visit" style="stroke:#181818;stroke-width:1.0;"/><polygon fill="#000000" points="1049.7996,85.9455,1057.9575,81.0568,1053.526,77.1953,1049.7996,85.9455" style="stroke:#000000;stroke-width:1.0;"/><text fill="#000000" font-family="sans-serif" font-size="13" lengthAdjust="spacing" textLength="50" x="1062.0844" y="87.4951">requests</text><text fill="#000000" font-family="sans-serif" font-size="13" lengthAdjust="spacing" textLength="7" x="1064.8829" y="64.2546">1</text><text fill="#000000" font-family="sans-serif" font-size="13" lengthAdjust="spacing" textLength="5" x="1014.7239" y="110.2707">*</text></g><!--link StoreManager to Agency--><g id="link_StoreManager_Agency"><path codeLine="126" d="M502.0844,332.12 C502.0844,358.35 502.0844,410.08 502.0844,454 C502.0844,454 502.0844,454 502.0844,744 C502.0844,769.75 498.5744,798.09 494.6544,821.73 " fill="none" id="StoreManager-Agency" style="stroke:#181818;stroke-width:1.0;"/><polygon fill="#000000" points="507.0085,613.1752,510.0843,604.1758,504.2071,604.0866,507.0085,613.1752" style="stroke:#000000;stroke-width:1.0;"/><text fill="#000000" font-family="sans-serif" font-size="13" lengthAdjust="spacing" textLength="53" x="516.0844" y="613.4951">manages</text><text fill="#000000" font-family="sans-serif" font-size="13" lengthAdjust="spacing" textLength="7" x="494.1" y="353.0657">1</text><text fill="#000000" font-family="sans-serif" font-size="13" lengthAdjust="spacing" textLength="7" x="488.6044" y="811.0124">1</text></g><!--link Network to NetworkManager--><g id="link_Network_NetworkManager"><path codeLine="127" d="M74.8444,43.01 C85.2744,65.85 103.6844,106.2 114.1844,129.19 " fill="none" id="Network-NetworkManager" style="stroke:#181818;stroke-width:1.0;"/><polygon fill="#000000" points="100.008,77.6273,101.0906,87.076,106.4377,84.6352,100.008,77.6273" style="stroke:#000000;stroke-width:1.0;"/><text fill="#000000" font-family="sans-serif" font-size="13" lengthAdjust="spacing" textLength="53" x="111.0844" y="87.4951">manages</text><text fill="#000000" font-family="sans-serif" font-size="13" lengthAdjust="spacing" textLength="7" x="69.0957" y="64.2546">1</text><text fill="#000000" font-family="sans-serif" font-size="13" lengthAdjust="spacing" textLength="7" x="103.6931" y="118.7413">1</text></g><!--link Agency to Network--><g id="link_Agency_Network"><path codeLine="128" d="M433.2344,870.76 C311.4444,861.63 13.0844,830.42 13.0844,744 C13.0844,146.5 13.0844,146.5 13.0844,146.5 C13.0844,106.84 37.7444,65.75 53.7344,43.28 " fill="none" id="Agency-Network" style="stroke:#181818;stroke-width:1.0;"/><polygon fill="#000000" points="16,507.631,17.0993,517.0778,22.442,514.6275,16,507.631" style="stroke:#000000;stroke-width:1.0;"/><text fill="#000000" font-family="sans-serif" font-size="13" lengthAdjust="spacing" textLength="50" x="27.0844" y="517.4951">is part of</text><text fill="#000000" font-family="sans-serif" font-size="13" lengthAdjust="spacing" textLength="20" x="405.4379" y="866.7064">1..*</text><text fill="#000000" font-family="sans-serif" font-size="13" lengthAdjust="spacing" textLength="7" x="41.9953" y="64.2707">1</text></g><!--link Announcement to Property--><g id="link_Announcement_Property"><path codeLine="129" d="M752.6944,1217.69 C833.4544,1245.91 991.4444,1301.11 1081.0144,1332.41 " fill="none" id="Announcement-Property" style="stroke:#181818;stroke-width:1.0;"/><polygon fill="#000000" points="960.8045,1283.8251,953.2351,1278.067,951.2962,1283.6159,960.8045,1283.8251" style="stroke:#000000;stroke-width:1.0;"/><text fill="#000000" font-family="sans-serif" font-size="13" lengthAdjust="spacing" textLength="49" x="965.0844" y="1287.4951">contains</text><text fill="#000000" font-family="sans-serif" font-size="13" lengthAdjust="spacing" textLength="7" x="760.6418" y="1216.765">1</text><text fill="#000000" font-family="sans-serif" font-size="13" lengthAdjust="spacing" textLength="7" x="1065.9703" y="1326.225">1</text></g><!--link Announcement to Owner--><g id="link_Announcement_Owner"><path codeLine="130" d="M733.0444,1225.75 C755.6944,1244.34 787.3644,1269.79 816.0844,1291 C835.1244,1305.06 841.2244,1306.7 860.0844,1321 C867.2044,1326.4 874.7444,1332.6 881.3944,1338.24 " fill="none" id="Announcement-Owner" style="stroke:#181818;stroke-width:1.0;"/><polygon fill="#000000" points="817.1002,1279.1547,822.5318,1286.9617,826.0833,1282.2781,817.1002,1279.1547" style="stroke:#000000;stroke-width:1.0;"/><text fill="#000000" font-family="sans-serif" font-size="13" lengthAdjust="spacing" textLength="50" x="830.0844" y="1287.4951">requests</text><text fill="#000000" font-family="sans-serif" font-size="13" lengthAdjust="spacing" textLength="5" x="734.6257" y="1247.2964">*</text><text fill="#000000" font-family="sans-serif" font-size="13" lengthAdjust="spacing" textLength="7" x="867.0025" y="1327.483">1</text></g><!--link Visit to Property--><g id="link_Visit_Property"><path codeLine="131" d="M1007.2544,161.93 C1021.4544,172.16 1040.1644,187.3 1053.0844,204 C1085.9244,246.46 1105.0844,259.33 1105.0844,313 C1105.0844,313 1105.0844,313 1105.0844,1117 C1105.0844,1190.37 1124.5944,1274.53 1137.0244,1320.68 " fill="none" id="Visit-Property" style="stroke:#181818;stroke-width:1.0;"/><polygon fill="#000000" points="1110.6408,709.1447,1112.5548,699.8287,1106.7135,700.4829,1110.6408,709.1447" style="stroke:#000000;stroke-width:1.0;"/><text fill="#000000" font-family="sans-serif" font-size="13" lengthAdjust="spacing" textLength="43" x="1119.0844" y="709.4951">done to</text><text fill="#000000" font-family="sans-serif" font-size="13" lengthAdjust="spacing" textLength="7" x="1015.095" y="161.5771">1</text><text fill="#000000" font-family="sans-serif" font-size="13" lengthAdjust="spacing" textLength="7" x="1127.5242" y="1310.1441">1</text></g><!--link Residence to Property--><g id="link_Residence_Property"><path codeLine="132" d="M1341.4144,1243.01 C1331.3044,1259.74 1317.9644,1277.97 1302.0844,1291 C1281.7344,1307.71 1256.4344,1320.66 1232.2244,1330.42 " fill="none" id="Residence-to-Property" style="stroke:#181818;stroke-width:1.0;"/><polygon fill="none" points="1234.3444,1337.1,1213.1544,1337.57,1229.4244,1323.99,1234.3444,1337.1" style="stroke:#181818;stroke-width:1.0;"/></g><!--link House to Residence--><g id="link_House_Residence"><path codeLine="133" d="M1372.6644,1077.09 C1371.2744,1094.72 1369.6244,1115.48 1368.0944,1134.77 " fill="none" id="House-to-Residence" style="stroke:#181818;stroke-width:1.0;"/><polygon fill="none" points="1375.0544,1135.53,1366.5044,1154.91,1361.1044,1134.42,1375.0544,1135.53" style="stroke:#181818;stroke-width:1.0;"/></g><!--link Visit to VisitReport--><g id="link_Visit_VisitReport"><path codeLine="134" d="M966.8544,168.67 C939.4844,195.95 890.2644,245.02 856.9044,278.29 " fill="none" id="Visit-VisitReport" style="stroke:#181818;stroke-width:1.0;"/><polygon fill="#000000" points="936.6252,209.6456,928.1447,213.9505,932.2948,218.113,936.6252,209.6456" style="stroke:#000000;stroke-width:1.0;"/><text fill="#000000" font-family="sans-serif" font-size="13" lengthAdjust="spacing" textLength="102" x="942.0844" y="218.4951">is a description of</text><text fill="#000000" font-family="sans-serif" font-size="13" lengthAdjust="spacing" textLength="7" x="951.9938" y="170.5497">1</text><text fill="#000000" font-family="sans-serif" font-size="13" lengthAdjust="spacing" textLength="7" x="855.679" y="267.7743">1</text></g><!--link Agent to VisitReport--><g id="link_Agent_VisitReport"><path codeLine="135" d="M771.3044,43.09 C779.9544,89.07 803.8444,216.08 815.5144,278.06 " fill="none" id="Agent-VisitReport" style="stroke:#181818;stroke-width:1.0;"/><polygon fill="#000000" points="801.0089,152.5896,802.2246,143.157,796.4481,144.2439,801.0089,152.5896" style="stroke:#000000;stroke-width:1.0;"/><text fill="#000000" font-family="sans-serif" font-size="13" lengthAdjust="spacing" textLength="50" x="809.0844" y="152.9951">registers</text><text fill="#000000" font-family="sans-serif" font-size="13" lengthAdjust="spacing" textLength="7" x="764.2256" y="64.0273">1</text><text fill="#000000" font-family="sans-serif" font-size="13" lengthAdjust="spacing" textLength="5" x="808.8988" y="267.7749">*</text></g><!--link Employee to Agency--><g id="link_Employee_Agency"><path codeLine="136" d="M386.0844,473.13 C386.0844,493.57 386.0844,528.78 386.0844,559 C386.0844,559 386.0844,559 386.0844,744 C386.0844,779.33 409.4544,811.15 433.3644,834.47 " fill="none" id="Employee-Agency" style="stroke:#181818;stroke-width:1.0;"/><polygon fill="#000000" points="391.7331,661.1335,393.4736,651.7836,387.6455,652.5462,391.7331,661.1335" style="stroke:#000000;stroke-width:1.0;"/><text fill="#000000" font-family="sans-serif" font-size="13" lengthAdjust="spacing" textLength="48" x="400.0844" y="661.4951">works in</text><text fill="#000000" font-family="sans-serif" font-size="13" lengthAdjust="spacing" textLength="7" x="378.1" y="494.0785">1</text><text fill="#000000" font-family="sans-serif" font-size="13" lengthAdjust="spacing" textLength="7" x="418.7397" y="825.162">1</text></g><!--link TypeProperty to Property--><g id="link_TypeProperty_Property"><path codeLine="137" d="M1194.6744,1225.68 C1185.1544,1251.64 1170.3844,1291.95 1159.8244,1320.76 " fill="none" id="TypeProperty-Property" style="stroke:#181818;stroke-width:1.0;"/><polygon fill="#000000" points="1180.3636,1286.8704,1186.2359,1279.3892,1180.717,1277.3664,1180.3636,1286.8704" style="stroke:#000000;stroke-width:1.0;"/><text fill="#000000" font-family="sans-serif" font-size="13" lengthAdjust="spacing" textLength="102" x="1191.0844" y="1287.4951">is a description of</text><text fill="#000000" font-family="sans-serif" font-size="13" lengthAdjust="spacing" textLength="7" x="1184.6889" y="1247.2102">1</text><text fill="#000000" font-family="sans-serif" font-size="13" lengthAdjust="spacing" textLength="7" x="1154.528" y="1310.2388">1</text></g><!--link TypeResidence to Residence--><g id="link_TypeResidence_Residence"><path codeLine="138" d="M1232.4344,1059.86 C1231.0344,1079.21 1232.0644,1105.58 1244.0844,1125 C1256.9044,1145.71 1277.9944,1161.41 1298.8944,1172.85 " fill="none" id="TypeResidence-Residence" style="stroke:#181818;stroke-width:1.0;"/><polygon fill="#000000" points="1251.6193,1120.4855,1249.5667,1111.1991,1244.5003,1114.1791,1251.6193,1120.4855" style="stroke:#000000;stroke-width:1.0;"/><text fill="#000000" font-family="sans-serif" font-size="13" lengthAdjust="spacing" textLength="102" x="1258.0844" y="1121.4951">is a description of</text><text fill="#000000" font-family="sans-serif" font-size="13" lengthAdjust="spacing" textLength="7" x="1223.7809" y="1081.4318">1</text><text fill="#000000" font-family="sans-serif" font-size="13" lengthAdjust="spacing" textLength="7" x="1284.0677" y="1166.3916">1</text></g><!--link Property to Photograph--><g id="link_Property_Photograph"><path codeLine="139" d="M1213.3044,1365.45 C1253.5044,1373.49 1303.2344,1389.63 1336.0844,1422 C1358.7044,1444.29 1368.2544,1480.59 1372.2544,1505.11 " fill="none" id="Property-Photograph" style="stroke:#181818;stroke-width:1.0;"/><polygon fill="#000000" points="1357.8405,1434.476,1352.9855,1426.298,1349.1058,1430.7136,1357.8405,1434.476" style="stroke:#000000;stroke-width:1.0;"/><text fill="#000000" font-family="sans-serif" font-size="13" lengthAdjust="spacing" textLength="49" x="1363.0844" y="1436.4951">contains</text><text fill="#000000" font-family="sans-serif" font-size="13" lengthAdjust="spacing" textLength="7" x="1220.93" y="1363.0776">1</text><text fill="#000000" font-family="sans-serif" font-size="13" lengthAdjust="spacing" textLength="20" x="1349.2874" y="1494.5522">1..*</text></g><!--link Property to Location--><g id="link_Property_Location"><path codeLine="140" d="M1098.4644,1392.12 C1086.7344,1401.31 1074.5744,1411.59 1064.0844,1422 C1048.6844,1437.28 1033.4844,1455.29 1020.2444,1472.22 " fill="none" id="Property-Location" style="stroke:#181818;stroke-width:1.0;"/><polygon fill="#000000" points="1065.5911,1434.753,1074.0132,1430.335,1069.8078,1426.2284,1065.5911,1434.753" style="stroke:#000000;stroke-width:1.0;"/><text fill="#000000" font-family="sans-serif" font-size="13" lengthAdjust="spacing" textLength="56" x="1078.0844" y="1436.4951">is located</text><text fill="#000000" font-family="sans-serif" font-size="13" lengthAdjust="spacing" textLength="7" x="1082.1805" y="1413.4315">1</text><text fill="#000000" font-family="sans-serif" font-size="13" lengthAdjust="spacing" textLength="7" x="1027.5214" y="1458.9681">1</text></g><!--link Property to Transaction--><g id="link_Property_Transaction"><path codeLine="141" d="M1145.1644,1392.3 C1144.7244,1401.92 1144.3044,1412.36 1144.0844,1422 C1143.4244,1450.58 1144.5844,1483.37 1145.6444,1505.45 " fill="none" id="Property-Transaction" style="stroke:#181818;stroke-width:1.0;"/><polygon fill="#000000" points="1149.1056,1436.1757,1152.0061,1427.1183,1146.1283,1427.1432,1149.1056,1436.1757" style="stroke:#000000;stroke-width:1.0;"/><text fill="#000000" font-family="sans-serif" font-size="13" lengthAdjust="spacing" textLength="173" x="1158.0844" y="1436.4951">monetization is described bby</text><text fill="#000000" font-family="sans-serif" font-size="13" lengthAdjust="spacing" textLength="7" x="1137.2328" y="1413.3682">1</text><text fill="#000000" font-family="sans-serif" font-size="13" lengthAdjust="spacing" textLength="7" x="1137.4402" y="1494.5397">1</text></g><!--reverse link Transaction to Lease--><g id="link_Transaction_Lease"><path codeLine="142" d="M1147.0844,1578.96 C1147.0844,1603.87 1147.0844,1633.74 1147.0844,1654.61 " fill="none" id="Transaction-backto-Lease" style="stroke:#181818;stroke-width:1.0;"/><polygon fill="none" points="1140.0844,1578.69,1147.0844,1558.69,1154.0844,1578.69,1140.0844,1578.69" style="stroke:#181818;stroke-width:1.0;"/></g><!--link Person to Location--><g id="link_Person_Location"><path codeLine="143" d="M978.0844,376.24 C978.0844,400.46 978.0844,428.54 978.0844,454 C978.0844,454 978.0844,454 978.0844,1357.5 C978.0844,1394.85 978.0844,1436.72 978.0844,1469.98 " fill="none" id="Person-Location" style="stroke:#181818;stroke-width:1.0;"/><polygon fill="#000000" points="983.0844,788.1758,986.0233,779.1307,980.1454,779.1307,983.0844,788.1758" style="stroke:#000000;stroke-width:1.0;"/><text fill="#000000" font-family="sans-serif" font-size="13" lengthAdjust="spacing" textLength="56" x="992.0844" y="788.4951">is located</text><text fill="#000000" font-family="sans-serif" font-size="13" lengthAdjust="spacing" textLength="7" x="970.7234" y="397.0145">1</text><text fill="#000000" font-family="sans-serif" font-size="13" lengthAdjust="spacing" textLength="7" x="970.6578" y="1458.9838">1</text></g><!--link Agency to Location--><g id="link_Agency_Location"><path codeLine="144" d="M475.0344,928.18 C470.5444,958.41 466.0844,997.24 466.0844,1032 C466.0844,1032 466.0844,1032 466.0844,1283 C466.0844,1342.31 495.2444,1356.93 543.0844,1392 C667.2944,1483.05 853.4644,1515.95 936.0444,1526.53 " fill="none" id="Agency-Location" style="stroke:#181818;stroke-width:1.0;"/><polygon fill="#000000" points="474.136,1203.1365,470.9436,1194.1778,466.2875,1197.7652,474.136,1203.1365" style="stroke:#000000;stroke-width:1.0;"/><text fill="#000000" font-family="sans-serif" font-size="13" lengthAdjust="spacing" textLength="56" x="480.0844" y="1204.4951">is located</text><text fill="#000000" font-family="sans-serif" font-size="13" lengthAdjust="spacing" textLength="7" x="466.4264" y="949.5333">1</text><text fill="#000000" font-family="sans-serif" font-size="13" lengthAdjust="spacing" textLength="7" x="921.2172" y="1521.7697">1</text></g><!--link Residence to AvailableEquipment--><g id="link_Residence_AvailableEquipment"><path codeLine="145" d="M1370.8844,1243.32 C1375.9044,1271.17 1382.2444,1306.42 1386.4744,1329.9 " fill="none" id="Residence-AvailableEquipment" style="stroke:#181818;stroke-width:1.0;"/><polygon fill="#000000" points="1383.9704,1287.0966,1385.2599,1277.6739,1379.4751,1278.7155,1383.9704,1287.0966" style="stroke:#000000;stroke-width:1.0;"/><text fill="#000000" font-family="sans-serif" font-size="13" lengthAdjust="spacing" textLength="49" x="1392.0844" y="1287.4951">contains</text><text fill="#000000" font-family="sans-serif" font-size="13" lengthAdjust="spacing" textLength="7" x="1364.5428" y="1264.82">1</text><text fill="#000000" font-family="sans-serif" font-size="13" lengthAdjust="spacing" textLength="5" x="1379.7413" y="1318.9776">*</text></g><!--link Announcement to Commission--><g id="link_Announcement_Commission"><path codeLine="146" d="M686.6444,1225.53 C677.3444,1244.47 669.2044,1270.46 680.0844,1291 C686.5244,1303.16 696.3944,1313.44 707.3744,1321.99 " fill="none" id="Announcement-Commission" style="stroke:#181818;stroke-width:1.0;"/><polygon fill="#000000" points="684.0338,1277.2874,683.0609,1286.7481,688.8076,1285.5131,684.0338,1277.2874" style="stroke:#000000;stroke-width:1.0;"/><text fill="#000000" font-family="sans-serif" font-size="13" lengthAdjust="spacing" textLength="81" x="694.0844" y="1287.4951">is assigned to</text><text fill="#000000" font-family="sans-serif" font-size="13" lengthAdjust="spacing" textLength="7" x="675.2645" y="1247.0255">1</text><text fill="#000000" font-family="sans-serif" font-size="13" lengthAdjust="spacing" textLength="7" x="692.5858" y="1314.8642">1</text></g><!--link Agency to Announcement--><g id="link_Agency_Announcement"><path codeLine="147" d="M503.9344,928.12 C521.2644,970.29 548.8144,1030.15 582.0844,1077 C608.1244,1113.67 645.5444,1149.45 671.6544,1172.47 " fill="none" id="Agency-Announcement" style="stroke:#181818;stroke-width:1.0;"/><polygon fill="#000000" points="589.9139,1037.2981,587.2183,1028.1776,582.3722,1031.5039,589.9139,1037.2981" style="stroke:#000000;stroke-width:1.0;"/><text fill="#000000" font-family="sans-serif" font-size="13" lengthAdjust="spacing" textLength="98" x="596.0844" y="1038.4951">is responsible for</text><text fill="#000000" font-family="sans-serif" font-size="13" lengthAdjust="spacing" textLength="7" x="499.0292" y="949.4656">1</text><text fill="#000000" font-family="sans-serif" font-size="13" lengthAdjust="spacing" textLength="7" x="656.3839" y="1161.5646">1</text></g><!--link Announcement to Date--><g id="link_Announcement_Date"><path codeLine="148" d="M661.3144,1225.63 C631.0444,1247.1 591.7344,1280.67 572.0844,1321 C547.9644,1370.51 545.9844,1434.38 548.4444,1478.62 " fill="none" id="Announcement-Date" style="stroke:#181818;stroke-width:1.0;"/><polygon fill="#000000" points="575.0472,1361.242,581.4164,1354.1791,576.0485,1351.7843,575.0472,1361.242" style="stroke:#000000;stroke-width:1.0;"/><text fill="#000000" font-family="sans-serif" font-size="13" lengthAdjust="spacing" textLength="103" x="586.0844" y="1361.9951">has registration of</text><text fill="#000000" font-family="sans-serif" font-size="13" lengthAdjust="spacing" textLength="7" x="644.0769" y="1247.1487">1</text><text fill="#000000" font-family="sans-serif" font-size="13" lengthAdjust="spacing" textLength="7" x="540.2733" y="1468.2703">1</text></g><!--SRC=[XLPTRnih47tdLo2_H8hagdcreaYk4-bMQdEZkkexXl4kpIvGXhsfu_Q_Tu3zmFOszyqCPuOp7sVM-AoD4rwqlBN6ojhR5dZm7J0SRvoGpwA2RJWqm3t884pLb02iXR8lsbHyBne4TZLTDTf0E3ZWreVQigi6ze47oxskwi2LZk6qDKKmsGZ4TGXUxxe07wKrM_qA_3shjG8kjPVqTlhT0eLKoDXLq86etTjMQCC_MmKDOom5uji31cZNgjL6O_0YMC-FxFTmlQx0o0DPj68AK5T693v0ePgrKXuGcQkjWSUktO6VF1zQrzW3G1dj2JnQSsH6jC0SMHoblH5UzSv1_En_lHM_3_RlYm5V1Dzq6AWx_enzACvRoWu-2qFTIh1iVOJmOltpXNrjZEsCX3O5iV6vXqYBZOXx4M9-7dvqW26Uc90I74s0X7Jqy3rtC9rGDDay1FYcKLDiTM7x0h4qHyOLYER9MtGK9fvGUkrI2mOytJhmuK1WuK4GY1eP2MnqE6o8UzcLBzH3HIq5GfjKqG-WlBKjZcSHwjv00qTZLsrfm2Tww_-e16BNmCEFJhjScpbQ_zWEuoixWQc2Z6jJYvqEqVUJtPC1E_FmqrdiF9mtupWo_ahgc58iP_1tWIZoceCyrJROoWjN7rddcz7-oSe4F3AQVO3m60TJKjrOBABNL7Eg9JNdLRiDwMPwqmk3GcPVqTASX2aeY9WvAPFq9CDzvq_9R6pRQaGoqUn4yK-6FbHXYFFEvaIwNFww6qKsYrZSB0Yrv8lhnGXSqOAg2452v7TlU2MdBFvJbonXpcz_4MXwlpSdQn8c6-J88mUYcX4iIJBPJlaNoZnBxLIU_Cmnnoj95wfTSTVj6eqrHEe5D26Jq5OSPGsgQn9a95q4x66yLtcgMybsWDvC1MlJLKIUaK_OpcLqVrV2-tMxk7dtxhflNWdK63KPkDr7R95eIM8Gouh72QIDZnVWwn6SUhMQShjbATtvU8hMSFmutR5HRZmtQmIn9Fji746NCSibbz8IvMgB-TrUTlR4fvp9yLFJJ_nPDsBjaBOF9sYvJUQJd2EJ_QQa2yVH-3VFozTIRwUDTDAd4hrSHfTXHQNuJJo0uhDn5-LMMiK_B13qQtAElfdPZhntkqDCQG9dtQQzDIXvA2N_AuTYMlyVUbcxwyNbb-IDaPsId9PZBZd6TK-Fq63Udb7AOt2o4CY3_bCuQr3JotnF6s_sgUoRFl0hNWli1owlyjpPFm00]--></g></svg>