<?xml version="1.0" encoding="UTF-8" standalone="no"?><svg xmlns="http://www.w3.org/2000/svg" xmlns:xlink="http://www.w3.org/1999/xlink" contentStyleType="text/css" height="1531px" preserveAspectRatio="none" style="width:1914px;height:1531px;background:#FFFFFF;" version="1.1" viewBox="0 0 1914 1531" width="1914px" zoomAndPan="magnify"><defs/><g><!--class Company--><g id="elem_Company"><rect codeLine="12" fill="#F1F1F1" height="35.6094" id="Company" rx="2.5" ry="2.5" style="stroke:#181818;stroke-width:0.5;" width="66" x="144.1592" y="7"/><text fill="#000000" font-family="sans-serif" font-size="14" lengthAdjust="spacing" textLength="60" x="147.1592" y="26.5332">Company</text><line style="stroke:#181818;stroke-width:0.5;" x1="145.1592" x2="209.1592" y1="34.6094" y2="34.6094"/></g><!--class SystemAdministrator--><g id="elem_SystemAdministrator"><rect codeLine="15" fill="#F1F1F1" height="35.6094" id="SystemAdministrator" rx="2.5" ry="2.5" style="stroke:#181818;stroke-width:0.5;" width="135" x="387.6592" y="279"/><text fill="#000000" font-family="sans-serif" font-size="14" lengthAdjust="spacing" textLength="129" x="390.6592" y="298.5332">SystemAdministrator</text><line style="stroke:#181818;stroke-width:0.5;" x1="388.6592" x2="521.6592" y1="306.6094" y2="306.6094"/></g><!--class Agency--><g id="elem_Agency"><rect codeLine="18" fill="#F1F1F1" height="106.0469" id="Agency" rx="2.5" ry="2.5" style="stroke:#181818;stroke-width:0.5;" width="107" x="205.6592" y="1093"/><text fill="#000000" font-family="sans-serif" font-size="14" lengthAdjust="spacing" textLength="47" x="235.6592" y="1112.5332">Agency</text><line style="stroke:#181818;stroke-width:0.5;" x1="206.6592" x2="311.6592" y1="1120.6094" y2="1120.6094"/><text fill="#000000" font-family="sans-serif" font-size="14" lengthAdjust="spacing" textLength="13" x="211.6592" y="1139.1426">ID</text><text fill="#000000" font-family="sans-serif" font-size="14" lengthAdjust="spacing" textLength="73" x="211.6592" y="1156.752">designation</text><text fill="#000000" font-family="sans-serif" font-size="14" lengthAdjust="spacing" textLength="85" x="211.6592" y="1174.3613">emailAddress</text><text fill="#000000" font-family="sans-serif" font-size="14" lengthAdjust="spacing" textLength="95" x="211.6592" y="1191.9707">contactNumber</text></g><!--class Employee--><g id="elem_Employee"><rect codeLine="25" fill="#F1F1F1" height="35.6094" id="Employee" rx="2.5" ry="2.5" style="stroke:#181818;stroke-width:0.5;" width="68" x="439.1592" y="620.5"/><text fill="#000000" font-family="sans-serif" font-size="14" lengthAdjust="spacing" textLength="62" x="442.1592" y="640.0332">Employee</text><line style="stroke:#181818;stroke-width:0.5;" x1="440.1592" x2="506.1592" y1="648.1094" y2="648.1094"/></g><!--class Person--><g id="elem_Person"><rect codeLine="28" fill="#F1F1F1" height="123.6563" id="Person" rx="2.5" ry="2.5" style="stroke:#181818;stroke-width:0.5;" width="131" x="699.6592" y="235"/><text fill="#000000" font-family="sans-serif" font-size="14" lengthAdjust="spacing" textLength="45" x="742.6592" y="254.5332">Person</text><line style="stroke:#181818;stroke-width:0.5;" x1="700.6592" x2="829.6592" y1="262.6094" y2="262.6094"/><text fill="#000000" font-family="sans-serif" font-size="14" lengthAdjust="spacing" textLength="35" x="705.6592" y="281.1426">name</text><text fill="#000000" font-family="sans-serif" font-size="14" lengthAdjust="spacing" textLength="119" x="705.6592" y="298.752">citizenCardNumber</text><text fill="#000000" font-family="sans-serif" font-size="14" lengthAdjust="spacing" textLength="67" x="705.6592" y="316.3613">taxNumber</text><text fill="#000000" font-family="sans-serif" font-size="14" lengthAdjust="spacing" textLength="85" x="705.6592" y="333.9707">emailAddress</text><text fill="#000000" font-family="sans-serif" font-size="14" lengthAdjust="spacing" textLength="95" x="705.6592" y="351.5801">contactNumber</text></g><!--class Owner--><g id="elem_Owner"><rect codeLine="37" fill="#F1F1F1" height="35.6094" id="Owner" rx="2.5" ry="2.5" style="stroke:#181818;stroke-width:0.5;" width="47" x="1160.6592" y="463"/><text fill="#000000" font-family="sans-serif" font-size="14" lengthAdjust="spacing" textLength="41" x="1163.6592" y="482.5332">Owner</text><line style="stroke:#181818;stroke-width:0.5;" x1="1161.6592" x2="1206.6592" y1="490.6094" y2="490.6094"/></g><!--class Customer--><g id="elem_Customer"><rect codeLine="40" fill="#F1F1F1" height="35.6094" id="Customer" rx="2.5" ry="2.5" style="stroke:#181818;stroke-width:0.5;" width="67" x="776.6592" y="121"/><text fill="#000000" font-family="sans-serif" font-size="14" lengthAdjust="spacing" textLength="61" x="779.6592" y="140.5332">Customer</text><line style="stroke:#181818;stroke-width:0.5;" x1="777.6592" x2="842.6592" y1="148.6094" y2="148.6094"/></g><!--class Agent--><g id="elem_Agent"><rect codeLine="43" fill="#F1F1F1" height="35.6094" id="Agent" rx="2.5" ry="2.5" style="stroke:#181818;stroke-width:0.5;" width="43" x="1271.6592" y="121"/><text fill="#000000" font-family="sans-serif" font-size="14" lengthAdjust="spacing" textLength="37" x="1274.6592" y="140.5332">Agent</text><line style="stroke:#181818;stroke-width:0.5;" x1="1272.6592" x2="1313.6592" y1="148.6094" y2="148.6094"/></g><!--class StoreManager--><g id="elem_StoreManager"><rect codeLine="46" fill="#F1F1F1" height="35.6094" id="StoreManager" rx="2.5" ry="2.5" style="stroke:#181818;stroke-width:0.5;" width="96" x="253.1592" y="463"/><text fill="#000000" font-family="sans-serif" font-size="14" lengthAdjust="spacing" textLength="90" x="256.1592" y="482.5332">StoreManager</text><line style="stroke:#181818;stroke-width:0.5;" x1="254.1592" x2="348.1592" y1="490.6094" y2="490.6094"/></g><!--class NetworkManager--><g id="elem_NetworkManager"><rect codeLine="48" fill="#F1F1F1" height="35.6094" id="NetworkManager" rx="2.5" ry="2.5" style="stroke:#181818;stroke-width:0.5;" width="112" x="204.1592" y="279"/><text fill="#000000" font-family="sans-serif" font-size="14" lengthAdjust="spacing" textLength="106" x="207.1592" y="298.5332">NetworkManager</text><line style="stroke:#181818;stroke-width:0.5;" x1="205.1592" x2="315.1592" y1="306.6094" y2="306.6094"/></g><!--class Announcement--><g id="elem_Announcement"><rect codeLine="50" fill="#F1F1F1" height="70.8281" id="Announcement" rx="2.5" ry="2.5" style="stroke:#181818;stroke-width:0.5;" width="135" x="925.6592" y="445.5"/><text fill="#000000" font-family="sans-serif" font-size="14" lengthAdjust="spacing" textLength="95" x="945.6592" y="465.0332">Announcement</text><line style="stroke:#181818;stroke-width:0.5;" x1="926.6592" x2="1059.6592" y1="473.1094" y2="473.1094"/><text fill="#000000" font-family="sans-serif" font-size="14" lengthAdjust="spacing" textLength="103" x="931.6592" y="491.6426">typeCommission</text><text fill="#000000" font-family="sans-serif" font-size="14" lengthAdjust="spacing" textLength="123" x="931.6592" y="509.252">amountCommission</text></g><!--class Visit--><g id="elem_Visit"><rect codeLine="55" fill="#F1F1F1" height="53.2188" id="Visit" rx="2.5" ry="2.5" style="stroke:#181818;stroke-width:0.5;" width="40" x="1314.1592" y="270.5"/><text fill="#000000" font-family="sans-serif" font-size="14" lengthAdjust="spacing" textLength="26" x="1321.1592" y="290.0332">Visit</text><line style="stroke:#181818;stroke-width:0.5;" x1="1315.1592" x2="1353.1592" y1="298.1094" y2="298.1094"/><text fill="#000000" font-family="sans-serif" font-size="14" lengthAdjust="spacing" textLength="28" x="1320.1592" y="316.6426">date</text></g><!--class VisitReport--><g id="elem_VisitReport"><rect codeLine="58" fill="#F1F1F1" height="70.8281" id="VisitReport" rx="2.5" ry="2.5" style="stroke:#181818;stroke-width:0.5;" width="95" x="1505.6592" y="261.5"/><text fill="#000000" font-family="sans-serif" font-size="14" lengthAdjust="spacing" textLength="69" x="1518.6592" y="281.0332">VisitReport</text><line style="stroke:#181818;stroke-width:0.5;" x1="1506.6592" x2="1599.6592" y1="289.1094" y2="289.1094"/><text fill="#000000" font-family="sans-serif" font-size="14" lengthAdjust="spacing" textLength="83" x="1511.6592" y="307.6426">dealProspect</text><text fill="#000000" font-family="sans-serif" font-size="14" lengthAdjust="spacing" textLength="69" x="1511.6592" y="325.252">description</text></g><!--class Property--><g id="elem_Property"><rect codeLine="62" fill="#F1F1F1" height="70.8281" id="Property" rx="2.5" ry="2.5" style="stroke:#181818;stroke-width:0.5;" width="132" x="1336.1592" y="603"/><text fill="#000000" font-family="sans-serif" font-size="14" lengthAdjust="spacing" textLength="54" x="1375.1592" y="622.5332">Property</text><line style="stroke:#181818;stroke-width:0.5;" x1="1337.1592" x2="1467.1592" y1="630.6094" y2="630.6094"/><text fill="#000000" font-family="sans-serif" font-size="14" lengthAdjust="spacing" textLength="29" x="1342.1592" y="649.1426">area</text><text fill="#000000" font-family="sans-serif" font-size="14" lengthAdjust="spacing" textLength="120" x="1342.1592" y="666.752">distanceCityCenter</text></g><!--class Residence--><g id="elem_Residence"><rect codeLine="67" fill="#F1F1F1" height="88.4375" id="Residence" rx="2.5" ry="2.5" style="stroke:#181818;stroke-width:0.5;" width="128" x="1654.1592" y="437"/><text fill="#000000" font-family="sans-serif" font-size="14" lengthAdjust="spacing" textLength="67" x="1684.6592" y="456.5332">Residence</text><line style="stroke:#181818;stroke-width:0.5;" x1="1655.1592" x2="1781.1592" y1="464.6094" y2="464.6094"/><text fill="#000000" font-family="sans-serif" font-size="14" lengthAdjust="spacing" textLength="112" x="1660.1592" y="483.1426">numberBedrooms</text><text fill="#000000" font-family="sans-serif" font-size="14" lengthAdjust="spacing" textLength="116" x="1660.1592" y="500.752">numberBathrooms</text><text fill="#000000" font-family="sans-serif" font-size="14" lengthAdjust="spacing" textLength="87" x="1660.1592" y="518.3613">parkingSpace</text></g><!--class AvailableEquipment--><g id="elem_AvailableEquipment"><rect codeLine="72" fill="#F1F1F1" height="53.2188" id="AvailableEquipment" rx="2.5" ry="2.5" style="stroke:#181818;stroke-width:0.5;" width="130" x="1660.1592" y="612"/><text fill="#000000" font-family="sans-serif" font-size="14" lengthAdjust="spacing" textLength="124" x="1663.1592" y="631.5332">AvailableEquipment</text><line style="stroke:#181818;stroke-width:0.5;" x1="1661.1592" x2="1789.1592" y1="639.6094" y2="639.6094"/><text fill="#000000" font-family="sans-serif" font-size="14" lengthAdjust="spacing" textLength="69" x="1666.1592" y="658.1426">description</text></g><!--class House--><g id="elem_House"><rect codeLine="75" fill="#F1F1F1" height="88.4375" id="House" rx="2.5" ry="2.5" style="stroke:#181818;stroke-width:0.5;" width="105" x="1662.6592" y="253"/><text fill="#000000" font-family="sans-serif" font-size="14" lengthAdjust="spacing" textLength="40" x="1695.1592" y="272.5332">House</text><line style="stroke:#181818;stroke-width:0.5;" x1="1663.6592" x2="1766.6592" y1="280.6094" y2="280.6094"/><text fill="#000000" font-family="sans-serif" font-size="14" lengthAdjust="spacing" textLength="62" x="1668.6592" y="299.1426">basement</text><text fill="#000000" font-family="sans-serif" font-size="14" lengthAdjust="spacing" textLength="93" x="1668.6592" y="316.752">inhabitableLoft</text><text fill="#000000" font-family="sans-serif" font-size="14" lengthAdjust="spacing" textLength="82" x="1668.6592" y="334.3613">sunExposure</text></g><!--class Network--><g id="elem_Network"><rect codeLine="80" fill="#F1F1F1" height="35.6094" id="Network" rx="2.5" ry="2.5" style="stroke:#181818;stroke-width:0.5;" width="56" x="149.1592" y="121"/><text fill="#000000" font-family="sans-serif" font-size="14" lengthAdjust="spacing" textLength="50" x="152.1592" y="140.5332">Network</text><line style="stroke:#181818;stroke-width:0.5;" x1="150.1592" x2="204.1592" y1="148.6094" y2="148.6094"/></g><!--class Client--><g id="elem_Client"><rect codeLine="81" fill="#F1F1F1" height="35.6094" id="Client" rx="2.5" ry="2.5" style="stroke:#181818;stroke-width:0.5;" width="42" x="803.1592" y="463"/><text fill="#000000" font-family="sans-serif" font-size="14" lengthAdjust="spacing" textLength="36" x="806.1592" y="482.5332">Client</text><line style="stroke:#181818;stroke-width:0.5;" x1="804.1592" x2="844.1592" y1="490.6094" y2="490.6094"/></g><!--class TypeProperty--><g id="elem_TypeProperty"><rect codeLine="83" fill="#F1F1F1" height="53.2188" id="TypeProperty" rx="2.5" ry="2.5" style="stroke:#181818;stroke-width:0.5;" width="92" x="1495.1592" y="454.5"/><text fill="#000000" font-family="sans-serif" font-size="14" lengthAdjust="spacing" textLength="86" x="1498.1592" y="474.0332">TypeProperty</text><line style="stroke:#181818;stroke-width:0.5;" x1="1496.1592" x2="1586.1592" y1="482.1094" y2="482.1094"/><text fill="#000000" font-family="sans-serif" font-size="14" lengthAdjust="spacing" textLength="73" x="1501.1592" y="500.6426">designation</text></g><!--class TypeResidence--><g id="elem_TypeResidence"><rect codeLine="86" fill="#F1F1F1" height="53.2188" id="TypeResidence" rx="2.5" ry="2.5" style="stroke:#181818;stroke-width:0.5;" width="105" x="1802.6592" y="270.5"/><text fill="#000000" font-family="sans-serif" font-size="14" lengthAdjust="spacing" textLength="99" x="1805.6592" y="290.0332">TypeResidence</text><line style="stroke:#181818;stroke-width:0.5;" x1="1803.6592" x2="1906.6592" y1="298.1094" y2="298.1094"/><text fill="#000000" font-family="sans-serif" font-size="14" lengthAdjust="spacing" textLength="73" x="1808.6592" y="316.6426">designation</text></g><!--class Photograph--><g id="elem_Photograph"><rect codeLine="89" fill="#F1F1F1" height="53.2188" id="Photograph" rx="2.5" ry="2.5" style="stroke:#181818;stroke-width:0.5;" width="80" x="1309.1592" y="752"/><text fill="#000000" font-family="sans-serif" font-size="14" lengthAdjust="spacing" textLength="74" x="1312.1592" y="771.5332">Photograph</text><line style="stroke:#181818;stroke-width:0.5;" x1="1310.1592" x2="1388.1592" y1="779.6094" y2="779.6094"/><text fill="#000000" font-family="sans-serif" font-size="14" lengthAdjust="spacing" textLength="16" x="1315.1592" y="798.1426">url</text></g><!--class Location--><g id="elem_Location"><rect codeLine="92" fill="#F1F1F1" height="123.6563" id="Location" rx="2.5" ry="2.5" style="stroke:#181818;stroke-width:0.5;" width="84" x="708.1592" y="1401"/><text fill="#000000" font-family="sans-serif" font-size="14" lengthAdjust="spacing" textLength="54" x="723.1592" y="1420.5332">Location</text><line style="stroke:#181818;stroke-width:0.5;" x1="709.1592" x2="791.1592" y1="1428.6094" y2="1428.6094"/><text fill="#000000" font-family="sans-serif" font-size="14" lengthAdjust="spacing" textLength="72" x="714.1592" y="1447.1426">streetName</text><text fill="#000000" font-family="sans-serif" font-size="14" lengthAdjust="spacing" textLength="21" x="714.1592" y="1464.752">city</text><text fill="#000000" font-family="sans-serif" font-size="14" lengthAdjust="spacing" textLength="41" x="714.1592" y="1482.3613">district</text><text fill="#000000" font-family="sans-serif" font-size="14" lengthAdjust="spacing" textLength="31" x="714.1592" y="1499.9707">state</text><text fill="#000000" font-family="sans-serif" font-size="14" lengthAdjust="spacing" textLength="51" x="714.1592" y="1517.5801">zipCode</text></g><!--class Price--><g id="elem_Price"><rect codeLine="99" fill="#F1F1F1" height="53.2188" id="Price" rx="2.5" ry="2.5" style="stroke:#181818;stroke-width:0.5;" width="59" x="1424.6592" y="752"/><text fill="#000000" font-family="sans-serif" font-size="14" lengthAdjust="spacing" textLength="32" x="1438.1592" y="771.5332">Price</text><line style="stroke:#181818;stroke-width:0.5;" x1="1425.6592" x2="1482.6592" y1="779.6094" y2="779.6094"/><text fill="#000000" font-family="sans-serif" font-size="14" lengthAdjust="spacing" textLength="47" x="1430.6592" y="798.1426">amount</text></g><!--class Lease--><g id="elem_Lease"><rect codeLine="102" fill="#F1F1F1" height="53.2188" id="Lease" rx="2.5" ry="2.5" style="stroke:#181818;stroke-width:0.5;" width="117" x="1395.6592" y="883"/><text fill="#000000" font-family="sans-serif" font-size="14" lengthAdjust="spacing" textLength="39" x="1434.6592" y="902.5332">Lease</text><line style="stroke:#181818;stroke-width:0.5;" x1="1396.6592" x2="1511.6592" y1="910.6094" y2="910.6094"/><text fill="#000000" font-family="sans-serif" font-size="14" lengthAdjust="spacing" textLength="105" x="1401.6592" y="929.1426">contractDuration</text></g><!--link Company to Agency--><g id="link_Company_Agency"><path codeLine="107" d="M143.7792,33.1 C96.0892,45.43 14.1592,75.68 14.1592,138 C14.1592,138 14.1592,138 14.1592,1015 C14.1592,1100.95 133.2692,1130.24 205.3892,1140.1 " fill="none" id="Company-Agency" style="stroke:#181818;stroke-width:1.0;"/><polygon fill="#000000" points="19.437,643.6681,21.8688,634.4736,16,634.8003,19.437,643.6681" style="stroke:#000000;stroke-width:1.0;"/><text fill="#000000" font-family="sans-serif" font-size="13" lengthAdjust="spacing" textLength="30" x="28.1592" y="643.9951">owns</text><text fill="#000000" font-family="sans-serif" font-size="13" lengthAdjust="spacing" textLength="7" x="129.1727" y="30.6923">1</text><text fill="#000000" font-family="sans-serif" font-size="13" lengthAdjust="spacing" textLength="20" x="177.6172" y="1135.9196">1..*</text></g><!--link Company to SystemAdministrator--><g id="link_Company_SystemAdministrator"><path codeLine="108" d="M197.0292,43.15 C207.0792,51.95 219.3892,62.91 230.1592,73 C309.9992,147.86 401.6692,241.09 438.5392,278.89 " fill="none" id="Company-SystemAdministrator" style="stroke:#181818;stroke-width:1.0;"/><polygon fill="#000000" points="326.7372,142.6683,322.3173,134.2472,318.2116,138.4534,326.7372,142.6683" style="stroke:#000000;stroke-width:1.0;"/><text fill="#000000" font-family="sans-serif" font-size="13" lengthAdjust="spacing" textLength="37" x="332.1592" y="144.4951">knows</text><text fill="#000000" font-family="sans-serif" font-size="13" lengthAdjust="spacing" textLength="7" x="194.6332" y="64.1042">1</text><text fill="#000000" font-family="sans-serif" font-size="13" lengthAdjust="spacing" textLength="7" x="425.1259" y="268.1808">1</text></g><!--link SystemAdministrator to Employee--><g id="link_SystemAdministrator_Employee"><path codeLine="109" d="M456.0792,315.3 C458.8692,367.97 467.3092,527.16 471.1792,600.17 " fill="none" id="SystemAdministrator-to-Employee" style="stroke:#181818;stroke-width:1.0;"/><polygon fill="none" points="478.1792,599.89,472.2392,620.23,464.1992,600.63,478.1792,599.89" style="stroke:#181818;stroke-width:1.0;"/></g><!--link SystemAdministrator to Employee--><g id="link_SystemAdministrator_Employee"><path codeLine="110" d="M462.3992,315.09 C469.6892,333.12 480.6392,362.53 486.1592,389 C492.4892,419.32 494.4792,522.86 495.1592,555 C495.3292,563 496.4692,565.11 495.1592,573 C492.4092,589.57 485.9392,607.61 480.7292,620.38 " fill="none" id="SystemAdministrator-Employee" style="stroke:#181818;stroke-width:1.0;"/><polygon fill="#000000" points="499.4588,486.1668,501.8504,476.9618,495.9831,477.3141,499.4588,486.1668" style="stroke:#000000;stroke-width:1.0;"/><text fill="#000000" font-family="sans-serif" font-size="13" lengthAdjust="spacing" textLength="50" x="508.1592" y="486.4951">registers</text><text fill="#000000" font-family="sans-serif" font-size="13" lengthAdjust="spacing" textLength="7" x="456.451" y="336.0273">1</text><text fill="#000000" font-family="sans-serif" font-size="13" lengthAdjust="spacing" textLength="5" x="477.3452" y="609.6677">*</text></g><!--link SystemAdministrator to Agency--><g id="link_SystemAdministrator_Agency"><path codeLine="111" d="M418.6192,315.04 C348.1092,349.13 200.1592,426.97 200.1592,480 C200.1592,480 200.1592,480 200.1592,1015 C200.1592,1042.26 211.0492,1070.1 223.4792,1092.98 " fill="none" id="SystemAdministrator-Agency" style="stroke:#181818;stroke-width:1.0;"/><polygon fill="#000000" points="203.9426,783.5255,208.994,775.4673,203.2927,774.0372,203.9426,783.5255" style="stroke:#000000;stroke-width:1.0;"/><text fill="#000000" font-family="sans-serif" font-size="13" lengthAdjust="spacing" textLength="50" x="214.1592" y="783.9951">registers</text><text fill="#000000" font-family="sans-serif" font-size="13" lengthAdjust="spacing" textLength="7" x="400.3579" y="335.9632">1</text><text fill="#000000" font-family="sans-serif" font-size="13" lengthAdjust="spacing" textLength="5" x="213.3487" y="1082.296">*</text></g><!--reverse link Person to Employee--><g id="link_Person_Employee"><path codeLine="112" d="M699.5092,374.33 C630.3992,454.69 526.4092,575.59 488.0492,620.18 " fill="none" id="Person-backto-Employee" style="stroke:#181818;stroke-width:1.0;"/><polygon fill="none" points="694.2692,369.69,712.6192,359.09,704.8792,378.82,694.2692,369.69" style="stroke:#181818;stroke-width:1.0;"/></g><!--reverse link Person to Owner--><g id="link_Person_Owner"><path codeLine="113" d="M849.4792,334.63 C946.9392,376.96 1101.4892,444.09 1160.3392,469.65 " fill="none" id="Person-backto-Owner" style="stroke:#181818;stroke-width:1.0;"/><polygon fill="none" points="846.6492,341.03,831.0892,326.64,852.2192,328.19,846.6492,341.03" style="stroke:#181818;stroke-width:1.0;"/></g><!--link Customer to Person--><g id="link_Customer_Person"><path codeLine="114" d="M805.1692,157.29 C800.9992,171.77 794.7092,193.56 788.3492,215.6 " fill="none" id="Customer-to-Person" style="stroke:#181818;stroke-width:1.0;"/><polygon fill="none" points="795.0692,217.58,782.7992,234.86,781.6192,213.7,795.0692,217.58" style="stroke:#181818;stroke-width:1.0;"/></g><!--link Agent to Employee--><g id="link_Agent_Employee"><path codeLine="115" d="M1292.6892,157.15 C1290.4792,224.89 1278.7692,472.79 1225.1592,525 C1125.9092,621.67 683.8592,635.45 527.8692,637.27 " fill="none" id="Agent-to-Employee" style="stroke:#181818;stroke-width:1.0;"/><polygon fill="none" points="527.4792,644.28,507.4192,637.46,527.3492,630.28,527.4792,644.28" style="stroke:#181818;stroke-width:1.0;"/></g><!--link StoreManager to Employee--><g id="link_StoreManager_Employee"><path codeLine="116" d="M314.4492,499.15 C329.7092,518.27 355.9992,549.59 382.1592,573 C396.4692,585.81 413.3492,598.38 428.6692,608.96 " fill="none" id="StoreManager-to-Employee" style="stroke:#181818;stroke-width:1.0;"/><polygon fill="none" points="432.9692,603.42,445.6692,620.38,425.1692,615.04,432.9692,603.42" style="stroke:#181818;stroke-width:1.0;"/></g><!--link NetworkManager to Employee--><g id="link_NetworkManager_Employee"><path codeLine="117" d="M275.0192,315.29 C296.6592,340.9 337.5192,390.88 367.1592,437 C402.8492,492.54 437.2592,561.34 456.7592,602.2 " fill="none" id="NetworkManager-to-Employee" style="stroke:#181818;stroke-width:1.0;"/><polygon fill="none" points="463.0992,599.24,465.2992,620.32,450.4392,605.21,463.0992,599.24" style="stroke:#181818;stroke-width:1.0;"/></g><!--link Agent to Announcement--><g id="link_Agent_Announcement"><path codeLine="118" d="M1271.5892,152.96 C1244.7392,169.74 1198.3692,200.9 1165.1592,235 C1100.0692,301.83 1041.6992,395.39 1012.6192,445.34 " fill="none" id="Agent-Announcement" style="stroke:#181818;stroke-width:1.0;"/><polygon fill="#000000" points="1166.844,300.9187,1175.0413,296.0963,1170.6412,292.1991,1166.844,300.9187" style="stroke:#000000;stroke-width:1.0;"/><text fill="#000000" font-family="sans-serif" font-size="13" lengthAdjust="spacing" textLength="55" x="1179.1592" y="302.4951">publishes</text><text fill="#000000" font-family="sans-serif" font-size="13" lengthAdjust="spacing" textLength="7" x="1256.5981" y="152.4732">1</text><text fill="#000000" font-family="sans-serif" font-size="13" lengthAdjust="spacing" textLength="5" x="1010.8522" y="434.5623">*</text></g><!--link Agent to Visit--><g id="link_Agent_Visit"><path codeLine="119" d="M1297.6992,157.29 C1304.9192,184.74 1319.0292,238.43 1327.4192,270.37 " fill="none" id="Agent-Visit" style="stroke:#181818;stroke-width:1.0;"/><polygon fill="#000000" points="1315.4301,201.0116,1315.9733,191.5165,1310.2886,193.0106,1315.4301,201.0116" style="stroke:#000000;stroke-width:1.0;"/><text fill="#000000" font-family="sans-serif" font-size="13" lengthAdjust="spacing" textLength="59" x="1323.1592" y="201.4951">schedules</text><text fill="#000000" font-family="sans-serif" font-size="13" lengthAdjust="spacing" textLength="7" x="1290.9787" y="177.9503">1</text><text fill="#000000" font-family="sans-serif" font-size="13" lengthAdjust="spacing" textLength="5" x="1320.1669" y="259.4402">*</text></g><!--link Customer to Visit--><g id="link_Customer_Visit"><path codeLine="120" d="M843.7592,148.48 C905.8192,164.32 1042.4592,199.95 1156.1592,235 C1213.9092,252.81 1281.1492,276.73 1314.0092,288.64 " fill="none" id="Customer-Visit" style="stroke:#181818;stroke-width:1.0;"/><polygon fill="#000000" points="1060.9509,197.604,1053.1221,192.2039,1051.4431,197.8368,1060.9509,197.604" style="stroke:#000000;stroke-width:1.0;"/><text fill="#000000" font-family="sans-serif" font-size="13" lengthAdjust="spacing" textLength="50" x="1065.1592" y="201.4951">requests</text><text fill="#000000" font-family="sans-serif" font-size="13" lengthAdjust="spacing" textLength="7" x="851.8748" y="146.38">1</text><text fill="#000000" font-family="sans-serif" font-size="13" lengthAdjust="spacing" textLength="5" x="1301.2232" y="280.5342">*</text></g><!--link StoreManager to Agency--><g id="link_StoreManager_Agency"><path codeLine="121" d="M304.2792,499.19 C309.1892,527.79 318.1592,586.99 318.1592,637.5 C318.1592,637.5 318.1592,637.5 318.1592,1015 C318.1592,1042.26 307.2692,1070.1 294.8392,1092.98 " fill="none" id="StoreManager-Agency" style="stroke:#181818;stroke-width:1.0;"/><polygon fill="#000000" points="323.0797,849.1751,326.162,840.1779,320.2849,840.0845,323.0797,849.1751" style="stroke:#000000;stroke-width:1.0;"/><text fill="#000000" font-family="sans-serif" font-size="13" lengthAdjust="spacing" textLength="53" x="332.1592" y="849.4951">manages</text><text fill="#000000" font-family="sans-serif" font-size="13" lengthAdjust="spacing" textLength="7" x="297.1723" y="520.1554">1</text><text fill="#000000" font-family="sans-serif" font-size="13" lengthAdjust="spacing" textLength="7" x="292.1634" y="1082.296">1</text></g><!--link Network to NetworkManager--><g id="link_Network_NetworkManager"><path codeLine="122" d="M186.3592,157.29 C202.3092,187.28 234.9392,248.59 250.9192,278.63 " fill="none" id="Network-NetworkManager" style="stroke:#181818;stroke-width:1.0;"/><polygon fill="#000000" points="214.8106,191.7617,216.4646,201.1273,221.6537,198.3664,214.8106,191.7617" style="stroke:#000000;stroke-width:1.0;"/><text fill="#000000" font-family="sans-serif" font-size="13" lengthAdjust="spacing" textLength="53" x="226.1592" y="201.4951">manages</text><text fill="#000000" font-family="sans-serif" font-size="13" lengthAdjust="spacing" textLength="7" x="180.891" y="177.9503">1</text><text fill="#000000" font-family="sans-serif" font-size="13" lengthAdjust="spacing" textLength="7" x="240.0175" y="268.163">1</text></g><!--link Agency to Network--><g id="link_Agency_Network"><path codeLine="123" d="M205.2592,1123.29 C163.2992,1102.43 112.1592,1066.44 112.1592,1015 C112.1592,296 112.1592,296 112.1592,296 C112.1592,242.01 145.7392,185.04 164.6292,157.27 " fill="none" id="Agency-Network" style="stroke:#181818;stroke-width:1.0;"/><polygon fill="#000000" points="116.9491,708.1802,114.3928,717.3408,120.2655,717.0938,116.9491,708.1802" style="stroke:#000000;stroke-width:1.0;"/><text fill="#000000" font-family="sans-serif" font-size="13" lengthAdjust="spacing" textLength="50" x="126.1592" y="718.4951">is part of</text><text fill="#000000" font-family="sans-serif" font-size="13" lengthAdjust="spacing" textLength="20" x="177.4714" y="1117.0609">1..*</text><text fill="#000000" font-family="sans-serif" font-size="13" lengthAdjust="spacing" textLength="7" x="153.1207" y="178.2579">1</text></g><!--link Company to Network--><g id="link_Company_Network"><path codeLine="124" d="M177.1592,43.01 C177.1592,64.06 177.1592,99.7 177.1592,120.83 " fill="none" id="Company-Network" style="stroke:#181818;stroke-width:1.0;"/><polygon fill="#000000" points="182.1592,87.1758,185.0981,78.1307,179.2202,78.1307,182.1592,87.1758" style="stroke:#000000;stroke-width:1.0;"/><text fill="#000000" font-family="sans-serif" font-size="13" lengthAdjust="spacing" textLength="30" x="191.1592" y="87.4951">owns</text><text fill="#000000" font-family="sans-serif" font-size="13" lengthAdjust="spacing" textLength="7" x="169.131" y="64.2546">1</text><text fill="#000000" font-family="sans-serif" font-size="13" lengthAdjust="spacing" textLength="7" x="169.0435" y="110.1017">1</text></g><!--link Announcement to Property--><g id="link_Announcement_Property"><path codeLine="125" d="M1060.6992,507.68 C1136.9292,536.66 1260.1592,583.51 1335.8792,612.3 " fill="none" id="Announcement-Property" style="stroke:#181818;stroke-width:1.0;"/><polygon fill="#000000" points="1230.8328,565.9526,1223.4225,559.9912,1221.3337,565.4854,1230.8328,565.9526" style="stroke:#000000;stroke-width:1.0;"/><text fill="#000000" font-family="sans-serif" font-size="13" lengthAdjust="spacing" textLength="49" x="1235.1592" y="569.4951">contains</text><text fill="#000000" font-family="sans-serif" font-size="13" lengthAdjust="spacing" textLength="7" x="1068.4692" y="507.2469">1</text><text fill="#000000" font-family="sans-serif" font-size="13" lengthAdjust="spacing" textLength="7" x="1321.247" y="606.0831">1</text></g><!--link Announcement to Owner--><g id="link_Announcement_Owner"><path codeLine="126" d="M1060.7692,481 C1095.5392,481 1135.7092,481 1160.5292,481 " fill="none" id="Announcement-Owner" style="stroke:#181818;stroke-width:1.0;"/><polygon fill="#000000" points="1078.1592,469.1758,1087.2043,472.1147,1087.2043,466.2369,1078.1592,469.1758" style="stroke:#000000;stroke-width:1.0;"/><text fill="#000000" font-family="sans-serif" font-size="13" lengthAdjust="spacing" textLength="50" x="1092.1592" y="474.4951">requests</text><text fill="#000000" font-family="sans-serif" font-size="13" lengthAdjust="spacing" textLength="5" x="1068.8756" y="477.6004">*</text><text fill="#000000" font-family="sans-serif" font-size="13" lengthAdjust="spacing" textLength="7" x="1145.5597" y="476.2541">1</text></g><!--link Visit to Property--><g id="link_Visit_Property"><path codeLine="127" d="M1339.2692,323.52 C1351.3192,383.66 1381.4992,534.36 1395.1992,602.76 " fill="none" id="Visit-Property" style="stroke:#181818;stroke-width:1.0;"/><polygon fill="#000000" points="1385.1411,486.0784,1386.2464,476.6323,1380.483,477.7867,1385.1411,486.0784" style="stroke:#000000;stroke-width:1.0;"/><text fill="#000000" font-family="sans-serif" font-size="13" lengthAdjust="spacing" textLength="43" x="1393.1592" y="486.4951">done to</text><text fill="#000000" font-family="sans-serif" font-size="13" lengthAdjust="spacing" textLength="7" x="1332.6415" y="345.0132">1</text><text fill="#000000" font-family="sans-serif" font-size="13" lengthAdjust="spacing" textLength="7" x="1386.2706" y="592.2388">1</text></g><!--link Residence to Property--><g id="link_Residence_Property"><path codeLine="128" d="M1669.9292,525.23 C1649.4992,541.89 1624.7492,560.01 1600.1592,573 C1564.9592,591.59 1523.4092,606.12 1487.4892,616.65 " fill="none" id="Residence-to-Property" style="stroke:#181818;stroke-width:1.0;"/><polygon fill="none" points="1489.3292,623.4,1468.1792,622.08,1485.5392,609.92,1489.3292,623.4" style="stroke:#181818;stroke-width:1.0;"/></g><!--link House to Residence--><g id="link_House_Residence"><path codeLine="129" d="M1715.8692,341.13 C1716.2392,363.72 1716.7092,391.8 1717.1192,416.79 " fill="none" id="House-to-Residence" style="stroke:#181818;stroke-width:1.0;"/><polygon fill="none" points="1724.1192,416.75,1717.4492,436.86,1710.1192,416.98,1724.1192,416.75" style="stroke:#181818;stroke-width:1.0;"/></g><!--link Visit to VisitReport--><g id="link_Visit_VisitReport"><path codeLine="130" d="M1354.3692,297 C1388.4692,297 1458.2992,297 1505.4392,297 " fill="none" id="Visit-VisitReport" style="stroke:#181818;stroke-width:1.0;"/><polygon fill="#000000" points="1371.4092,285.1758,1380.4543,288.1147,1380.4543,282.2369,1371.4092,285.1758" style="stroke:#000000;stroke-width:1.0;"/><text fill="#000000" font-family="sans-serif" font-size="13" lengthAdjust="spacing" textLength="102" x="1385.4092" y="290.4951">is a description of</text><text fill="#000000" font-family="sans-serif" font-size="13" lengthAdjust="spacing" textLength="7" x="1362.2231" y="291.8671">1</text><text fill="#000000" font-family="sans-serif" font-size="13" lengthAdjust="spacing" textLength="7" x="1490.5961" y="293.3102">1</text></g><!--link Agent to VisitReport--><g id="link_Agent_VisitReport"><path codeLine="131" d="M1315.0292,149.39 C1335.1992,158.31 1365.7692,172.47 1391.1592,187 C1431.0292,209.81 1474.0792,239.01 1505.7692,261.45 " fill="none" id="Agent-VisitReport" style="stroke:#181818;stroke-width:1.0;"/><polygon fill="#000000" points="1427.4702,198.7085,1421.1602,191.5928,1418.1827,196.6607,1427.4702,198.7085" style="stroke:#000000;stroke-width:1.0;"/><text fill="#000000" font-family="sans-serif" font-size="13" lengthAdjust="spacing" textLength="50" x="1432.1592" y="201.4951">registers</text><text fill="#000000" font-family="sans-serif" font-size="13" lengthAdjust="spacing" textLength="7" x="1322.7987" y="147.7307">1</text><text fill="#000000" font-family="sans-serif" font-size="13" lengthAdjust="spacing" textLength="5" x="1492.5061" y="251.7755">*</text></g><!--link Client to Announcement--><g id="link_Client_Announcement"><path codeLine="132" d="M845.2192,481 C865.3092,481 896.6592,481 925.3492,481 " fill="none" id="Client-Announcement" style="stroke:#181818;stroke-width:1.0;"/><polygon fill="#000000" points="872.4092,469.1758,863.3641,466.2369,863.3641,472.1147,872.4092,469.1758" style="stroke:#000000;stroke-width:1.0;"/><text fill="#000000" font-family="sans-serif" font-size="13" lengthAdjust="spacing" textLength="31" x="876.4092" y="474.4951">views</text><text fill="#000000" font-family="sans-serif" font-size="13" lengthAdjust="spacing" textLength="7" x="853.0477" y="476.0634">1</text><text fill="#000000" font-family="sans-serif" font-size="13" lengthAdjust="spacing" textLength="20" x="897.6897" y="495.3084">1..*</text></g><!--link Employee to Agency--><g id="link_Employee_Agency"><path codeLine="133" d="M466.5292,656.63 C457.1592,682.43 441.1592,732.98 441.1592,777.5 C441.1592,777.5 441.1592,777.5 441.1592,1015 C441.1592,1078.68 366.4692,1114.12 312.7792,1131.37 " fill="none" id="Employee-Agency" style="stroke:#181818;stroke-width:1.0;"/><polygon fill="#000000" points="444.6186,914.4325,450.2014,906.733,444.6095,904.922,444.6186,914.4325" style="stroke:#000000;stroke-width:1.0;"/><text fill="#000000" font-family="sans-serif" font-size="13" lengthAdjust="spacing" textLength="48" x="455.1592" y="914.9951">works in</text><text fill="#000000" font-family="sans-serif" font-size="13" lengthAdjust="spacing" textLength="7" x="456.6801" y="677.5785">1</text><text fill="#000000" font-family="sans-serif" font-size="13" lengthAdjust="spacing" textLength="7" x="320.8117" y="1125.7042">1</text></g><!--link TypeProperty to Property--><g id="link_TypeProperty_Property"><path codeLine="134" d="M1518.2092,507.68 C1494.9992,533.64 1458.9692,573.95 1433.2192,602.76 " fill="none" id="TypeProperty-Property" style="stroke:#181818;stroke-width:1.0;"/><polygon fill="#000000" points="1476.827,567.9036,1485.0461,563.1185,1480.6638,559.2013,1476.827,567.9036" style="stroke:#000000;stroke-width:1.0;"/><text fill="#000000" font-family="sans-serif" font-size="13" lengthAdjust="spacing" textLength="102" x="1489.1592" y="569.4951">is a description of</text><text fill="#000000" font-family="sans-serif" font-size="13" lengthAdjust="spacing" textLength="7" x="1505.0926" y="529.2102">1</text><text fill="#000000" font-family="sans-serif" font-size="13" lengthAdjust="spacing" textLength="7" x="1431.3005" y="592.2388">1</text></g><!--link TypeResidence to Residence--><g id="link_TypeResidence_Residence"><path codeLine="135" d="M1835.8192,323.69 C1813.6892,353.09 1777.0992,401.7 1750.5892,436.92 " fill="none" id="TypeResidence-Residence" style="stroke:#181818;stroke-width:1.0;"/><polygon fill="#000000" points="1788.1522,402.1706,1795.9399,396.7114,1791.2438,393.1765,1788.1522,402.1706" style="stroke:#000000;stroke-width:1.0;"/><text fill="#000000" font-family="sans-serif" font-size="13" lengthAdjust="spacing" textLength="102" x="1800.1592" y="403.4951">is a description of</text><text fill="#000000" font-family="sans-serif" font-size="13" lengthAdjust="spacing" textLength="7" x="1823.5374" y="345.2225">1</text><text fill="#000000" font-family="sans-serif" font-size="13" lengthAdjust="spacing" textLength="7" x="1748.1999" y="426.108">1</text></g><!--link Property to Photograph--><g id="link_Property_Photograph"><path codeLine="136" d="M1370.7792,674.19 C1364.1692,683.3 1358.0292,693.53 1354.1592,704 C1348.5292,719.24 1347.2592,737.44 1347.3992,751.93 " fill="none" id="Property-Photograph" style="stroke:#181818;stroke-width:1.0;"/><polygon fill="#000000" points="1357.7191,717.9639,1363.1386,710.1485,1357.5098,708.4557,1357.7191,717.9639" style="stroke:#000000;stroke-width:1.0;"/><text fill="#000000" font-family="sans-serif" font-size="13" lengthAdjust="spacing" textLength="49" x="1368.1592" y="718.4951">contains</text><text fill="#000000" font-family="sans-serif" font-size="13" lengthAdjust="spacing" textLength="7" x="1357.7842" y="695.2393">1</text><text fill="#000000" font-family="sans-serif" font-size="13" lengthAdjust="spacing" textLength="20" x="1324.5327" y="741.0149">1..*</text></g><!--link Property to Location--><g id="link_Property_Location"><path codeLine="137" d="M1335.8092,639.57 C1241.0192,643.55 1078.1592,666.53 1078.1592,777.5 C1078.1592,777.5 1078.1592,777.5 1078.1592,1340 C1078.1592,1400.3 880.9592,1440.44 792.3692,1455.43 " fill="none" id="Property-Location" style="stroke:#181818;stroke-width:1.0;"/><polygon fill="#000000" points="1080.3873,1058.3371,1087.8476,1052.4384,1082.9557,1049.1799,1080.3873,1058.3371" style="stroke:#000000;stroke-width:1.0;"/><text fill="#000000" font-family="sans-serif" font-size="13" lengthAdjust="spacing" textLength="49" x="1092.1592" y="1059.4951">contains</text><text fill="#000000" font-family="sans-serif" font-size="13" lengthAdjust="spacing" textLength="7" x="1321.1693" y="636.3358">1</text><text fill="#000000" font-family="sans-serif" font-size="13" lengthAdjust="spacing" textLength="7" x="800.2256" y="1450.3088">1</text></g><!--link Property to Price--><g id="link_Property_Price"><path codeLine="138" d="M1415.2792,674.32 C1424.3692,698.44 1436.2592,730 1444.4892,751.84 " fill="none" id="Property-Price" style="stroke:#181818;stroke-width:1.0;"/><polygon fill="#000000" points="1438.9222,717.8546,1438.483,708.3542,1432.9827,710.4268,1438.9222,717.8546" style="stroke:#000000;stroke-width:1.0;"/><text fill="#000000" font-family="sans-serif" font-size="13" lengthAdjust="spacing" textLength="49" x="1446.1592" y="718.4951">contains</text><text fill="#000000" font-family="sans-serif" font-size="13" lengthAdjust="spacing" textLength="7" x="1409.9326" y="695.3917">1</text><text fill="#000000" font-family="sans-serif" font-size="13" lengthAdjust="spacing" textLength="7" x="1434.4436" y="741.3353">1</text></g><!--reverse link Price to Lease--><g id="link_Price_Lease"><path codeLine="139" d="M1454.1592,825.58 C1454.1592,844.8 1454.1592,866.41 1454.1592,882.75 " fill="none" id="Price-backto-Lease" style="stroke:#181818;stroke-width:1.0;"/><polygon fill="none" points="1447.1592,825.3,1454.1592,805.3,1461.1592,825.29,1447.1592,825.3" style="stroke:#181818;stroke-width:1.0;"/></g><!--link Person to Location--><g id="link_Person_Location"><path codeLine="140" d="M757.5692,359.39 C753.8492,394.63 750.1592,439.74 750.1592,480 C750.1592,480 750.1592,480 750.1592,1340 C750.1592,1359.8 750.1592,1381.42 750.1592,1400.87 " fill="none" id="Person-Location" style="stroke:#181818;stroke-width:1.0;"/><polygon fill="#000000" points="755.1236,980.1757,758.1268,971.1517,752.2491,971.1099,755.1236,980.1757" style="stroke:#000000;stroke-width:1.0;"/><text fill="#000000" font-family="sans-serif" font-size="13" lengthAdjust="spacing" textLength="49" x="764.1592" y="980.4951">contains</text><text fill="#000000" font-family="sans-serif" font-size="13" lengthAdjust="spacing" textLength="7" x="749.4255" y="380.1799">1</text><text fill="#000000" font-family="sans-serif" font-size="13" lengthAdjust="spacing" textLength="7" x="742.7545" y="1390.2965">1</text></g><!--link Agency to Location--><g id="link_Agency_Location"><path codeLine="141" d="M313.1092,1181.61 C411.6392,1244.82 618.7292,1377.68 707.8792,1434.87 " fill="none" id="Agency-Location" style="stroke:#181818;stroke-width:1.0;"/><polygon fill="#000000" points="519.3676,1302.8756,513.3414,1295.5179,510.1675,1300.4652,519.3676,1302.8756" style="stroke:#000000;stroke-width:1.0;"/><text fill="#000000" font-family="sans-serif" font-size="13" lengthAdjust="spacing" textLength="49" x="524.1592" y="1305.4951">contains</text><text fill="#000000" font-family="sans-serif" font-size="13" lengthAdjust="spacing" textLength="7" x="320.829" y="1182.8357">1</text><text fill="#000000" font-family="sans-serif" font-size="13" lengthAdjust="spacing" textLength="7" x="693.2969" y="1426.4387">1</text></g><!--link Residence to AvailableEquipment--><g id="link_Residence_AvailableEquipment"><path codeLine="142" d="M1720.1092,525.32 C1721.3592,553.17 1722.9492,588.42 1724.0092,611.9 " fill="none" id="Residence-AvailableEquipment" style="stroke:#181818;stroke-width:1.0;"/><polygon fill="#000000" points="1726.3842,569.1707,1728.9131,560.0025,1723.0412,560.267,1726.3842,569.1707" style="stroke:#000000;stroke-width:1.0;"/><text fill="#000000" font-family="sans-serif" font-size="13" lengthAdjust="spacing" textLength="49" x="1735.1592" y="569.4951">contains</text><text fill="#000000" font-family="sans-serif" font-size="13" lengthAdjust="spacing" textLength="7" x="1712.8718" y="546.82">1</text><text fill="#000000" font-family="sans-serif" font-size="13" lengthAdjust="spacing" textLength="5" x="1718.1195" y="600.9776">*</text></g><!--SRC=[XLNVJ-Cm37xFNn7j1Gbfw7YT4D9k81qIS0XEzvwrfhLeavAuZ37kVpydwOziAtSlM-jyTkpF_bptWhfHLjMoDjfafJKrIB8j23USD2fxKGKyqRO2QI4ZfOig1RXIvMQ3kf3Fgd8WJiQZ2ZNGjW5fB9L6d5JmJ9ACj5YK97FquT3e95XMAUUMH1RNBS5DPlGJVe3y9ahCGMPeCxuxFDV08NCdn0aXSMfNfbQevPt9eH8Yn94hKpTAR-LE_EbDJrj7K2_p6ZKwiegCJO-N1UZCEznSYHmS5bg53863Lyiyj-2SuAn8PNJVrckme-zrtLHc2v36Um3hZDu9hMeG6H8NerVAvfqlgVVkwTyNTD5-RZJO9FggTSGjimS5K5el5mXtIdCB0onQxu4snhuSsPTQcrPdK8SWldLCOOtEUGvKpMUK68PBVgD3nkUAO0WLR8_GSEjtGkQWgWThNCCTzsykizXG3D8nPKq3bhOCLXOKWxW_YdDP8MrNd4zAzIEt9kTE0QDrOEaxvDQOsWtlYihEm9F5yrKyyIIFwItVc6-rhk3wjSKcrZkLrW_JEd_BMhd0Yf2eIxL6yhwtvfaDhjNNxurnhOL3WdVz-wh2hY_n_HTJErQSJbgAICgSWZoKXanXLLFkH6khmNvhiW3S2Pvm0BhlXcyhFASMkGLCBVVg0viLwoNf0VgxOgF7SA0y1NueBK_bLMlxD8Je5JOxdydvVCx_PsUdirv62sassidB2TXiKeaB-QBDndjCdSxddvU3oYOHGtpEeGSkU6iLZ60bVX4tUWMdcFY-IzImb1UV31hlxyp16eGfUZdAc6a4YA18Rpf8Fn7cGMNxwfG7ZZ5UMccgseLisdM5hWIVUe8Do23AXNHP2NbR1SYGTC921sCMNbjm57XBq-sXvoDXTJZoo8Fi0xPj8hexI-7Tg7I3qm_704JdzKlIF1-DqJwmcxIKYnJNYsqXmtB52V1fO8cnePkBiVeB4GYP3fSR3VwRTYa6jNRz7q0YB95e741fpF2RRinGjqhtf2VWOg_tOwTwdtHeuy8PmaTLxit96q9Gsl3PwaRgeB6UNSTBJp8qtLhJR4ob7Vr6TXB7mVYLv_5jeP9ny-trCqNFvzwbNuLVmiOIq6UnXs9Bb7VOWBtWUvhab_67aVuVy9YJqzdnXsdFvIy0]--></g></svg>