<?xml version="1.0" encoding="UTF-8" standalone="no"?><svg xmlns="http://www.w3.org/2000/svg" xmlns:xlink="http://www.w3.org/1999/xlink" contentStyleType="text/css" height="1096px" preserveAspectRatio="none" style="width:1264px;height:1096px;background:#FFFFFF;" version="1.1" viewBox="0 0 1264 1096" width="1264px" zoomAndPan="magnify"><defs/><g><text fill="#000000" font-family="sans-serif" font-size="14" font-weight="bold" lengthAdjust="spacing" textLength="156" x="547.25" y="24.5332">Domain Model - US015</text><!--class Agency--><g id="elem_Agency"><rect codeLine="15" fill="#F1F1F1" height="106.0469" id="Agency" rx="2.5" ry="2.5" style="stroke:#181818;stroke-width:0.5;" width="101" x="328" y="45.6094"/><text fill="#000000" font-family="sans-serif" font-size="14" lengthAdjust="spacing" textLength="47" x="355" y="65.1426">Agency</text><line style="stroke:#181818;stroke-width:0.5;" x1="329" x2="428" y1="73.2188" y2="73.2188"/><text fill="#000000" font-family="sans-serif" font-size="14" lengthAdjust="spacing" textLength="11" x="334" y="91.752">id</text><text fill="#000000" font-family="sans-serif" font-size="14" lengthAdjust="spacing" textLength="73" x="334" y="109.3613">designation</text><text fill="#000000" font-family="sans-serif" font-size="14" lengthAdjust="spacing" textLength="85" x="334" y="126.9707">emailAddress</text><text fill="#000000" font-family="sans-serif" font-size="14" lengthAdjust="spacing" textLength="89" x="334" y="144.5801">phoneNumber</text></g><!--class Employee--><g id="elem_Employee"><rect codeLine="22" fill="#F1F1F1" height="35.6094" id="Employee" rx="2.5" ry="2.5" style="stroke:#181818;stroke-width:0.5;" width="68" x="46.5" y="605.6094"/><text fill="#000000" font-family="sans-serif" font-size="14" lengthAdjust="spacing" textLength="62" x="49.5" y="625.1426">Employee</text><line style="stroke:#181818;stroke-width:0.5;" x1="47.5" x2="113.5" y1="633.2188" y2="633.2188"/></g><!--class Person--><g id="elem_Person"><rect codeLine="25" fill="#F1F1F1" height="123.6563" id="Person" rx="2.5" ry="2.5" style="stroke:#181818;stroke-width:0.5;" width="147" x="7" y="763.6094"/><text fill="#000000" font-family="sans-serif" font-size="14" lengthAdjust="spacing" textLength="45" x="58" y="783.1426">Person</text><line style="stroke:#181818;stroke-width:0.5;" x1="8" x2="153" y1="791.2188" y2="791.2188"/><text fill="#000000" font-family="sans-serif" font-size="14" lengthAdjust="spacing" textLength="35" x="13" y="809.752">name</text><text fill="#000000" font-family="sans-serif" font-size="14" lengthAdjust="spacing" textLength="33" x="13" y="827.3613">email</text><text fill="#000000" font-family="sans-serif" font-size="14" lengthAdjust="spacing" textLength="135" x="13" y="844.9707">passportCardNumber</text><text fill="#000000" font-family="sans-serif" font-size="14" lengthAdjust="spacing" textLength="67" x="13" y="862.5801">taxNumber</text><text fill="#000000" font-family="sans-serif" font-size="14" lengthAdjust="spacing" textLength="89" x="13" y="880.1895">phoneNumber</text></g><!--class Agent--><g id="elem_Agent"><rect codeLine="33" fill="#F1F1F1" height="35.6094" id="Agent" rx="2.5" ry="2.5" style="stroke:#181818;stroke-width:0.5;" width="43" x="106" y="421.6094"/><text fill="#000000" font-family="sans-serif" font-size="14" lengthAdjust="spacing" textLength="37" x="109" y="441.1426">Agent</text><line style="stroke:#181818;stroke-width:0.5;" x1="107" x2="148" y1="449.2188" y2="449.2188"/></g><!--class Announcement--><g id="elem_Announcement"><rect codeLine="36" fill="#F1F1F1" height="53.2188" id="Announcement" rx="2.5" ry="2.5" style="stroke:#181818;stroke-width:0.5;" width="115" x="227" y="247.1094"/><text fill="#000000" font-family="sans-serif" font-size="14" lengthAdjust="spacing" textLength="95" x="237" y="266.6426">Announcement</text><line style="stroke:#181818;stroke-width:0.5;" x1="228" x2="341" y1="274.7188" y2="274.7188"/><text fill="#000000" font-family="sans-serif" font-size="14" lengthAdjust="spacing" textLength="103" x="233" y="293.252">acceptanceDate</text></g><!--class Visit--><g id="elem_Visit"><rect codeLine="40" fill="#F1F1F1" height="123.6563" id="Visit" rx="2.5" ry="2.5" style="stroke:#181818;stroke-width:0.5;" width="125" x="478" y="561.6094"/><text fill="#000000" font-family="sans-serif" font-size="14" lengthAdjust="spacing" textLength="26" x="527.5" y="581.1426">Visit</text><line style="stroke:#181818;stroke-width:0.5;" x1="479" x2="602" y1="589.2188" y2="589.2188"/><text fill="#000000" font-family="sans-serif" font-size="14" lengthAdjust="spacing" textLength="11" x="484" y="607.752">id</text><text fill="#000000" font-family="sans-serif" font-size="14" lengthAdjust="spacing" textLength="54" x="484" y="625.3613">visitDate</text><text fill="#000000" font-family="sans-serif" font-size="14" lengthAdjust="spacing" textLength="58" x="484" y="642.9707">startHour</text><text fill="#000000" font-family="sans-serif" font-size="14" lengthAdjust="spacing" textLength="54" x="484" y="660.5801">endHour</text><text fill="#000000" font-family="sans-serif" font-size="14" lengthAdjust="spacing" textLength="113" x="484" y="678.1895">acceptanceStatus</text></g><!--class Property--><g id="elem_Property"><rect codeLine="53" fill="#F1F1F1" height="70.8281" id="Property" rx="2.5" ry="2.5" style="stroke:#181818;stroke-width:0.5;" width="132" x="858.5" y="790.1094"/><text fill="#000000" font-family="sans-serif" font-size="14" lengthAdjust="spacing" textLength="54" x="897.5" y="809.6426">Property</text><line style="stroke:#181818;stroke-width:0.5;" x1="859.5" x2="989.5" y1="817.7188" y2="817.7188"/><text fill="#000000" font-family="sans-serif" font-size="14" lengthAdjust="spacing" textLength="29" x="864.5" y="836.252">area</text><text fill="#000000" font-family="sans-serif" font-size="14" lengthAdjust="spacing" textLength="120" x="864.5" y="853.8613">distanceCityCenter</text></g><!--class Residence--><g id="elem_Residence"><rect codeLine="58" fill="#F1F1F1" height="88.4375" id="Residence" rx="2.5" ry="2.5" style="stroke:#181818;stroke-width:0.5;" width="128" x="967.5" y="395.6094"/><text fill="#000000" font-family="sans-serif" font-size="14" lengthAdjust="spacing" textLength="67" x="998" y="415.1426">Residence</text><line style="stroke:#181818;stroke-width:0.5;" x1="968.5" x2="1094.5" y1="423.2188" y2="423.2188"/><text fill="#000000" font-family="sans-serif" font-size="14" lengthAdjust="spacing" textLength="112" x="973.5" y="441.752">numberBedrooms</text><text fill="#000000" font-family="sans-serif" font-size="14" lengthAdjust="spacing" textLength="116" x="973.5" y="459.3613">numberBathrooms</text><text fill="#000000" font-family="sans-serif" font-size="14" lengthAdjust="spacing" textLength="87" x="973.5" y="476.9707">parkingSpace</text></g><!--class AvailableEquipment--><g id="elem_AvailableEquipment"><rect codeLine="64" fill="#F1F1F1" height="53.2188" id="AvailableEquipment" rx="2.5" ry="2.5" style="stroke:#181818;stroke-width:0.5;" width="130" x="739.5" y="413.1094"/><text fill="#000000" font-family="sans-serif" font-size="14" lengthAdjust="spacing" textLength="124" x="742.5" y="432.6426">AvailableEquipment</text><line style="stroke:#181818;stroke-width:0.5;" x1="740.5" x2="868.5" y1="440.7188" y2="440.7188"/><text fill="#000000" font-family="sans-serif" font-size="14" lengthAdjust="spacing" textLength="69" x="745.5" y="459.252">description</text></g><!--class House--><g id="elem_House"><rect codeLine="68" fill="#F1F1F1" height="88.4375" id="House" rx="2.5" ry="2.5" style="stroke:#181818;stroke-width:0.5;" width="105" x="839" y="229.6094"/><text fill="#000000" font-family="sans-serif" font-size="14" lengthAdjust="spacing" textLength="40" x="871.5" y="249.1426">House</text><line style="stroke:#181818;stroke-width:0.5;" x1="840" x2="943" y1="257.2188" y2="257.2188"/><text fill="#000000" font-family="sans-serif" font-size="14" lengthAdjust="spacing" textLength="62" x="845" y="275.752">basement</text><text fill="#000000" font-family="sans-serif" font-size="14" lengthAdjust="spacing" textLength="93" x="845" y="293.3613">inhabitableLoft</text><text fill="#000000" font-family="sans-serif" font-size="14" lengthAdjust="spacing" textLength="82" x="845" y="310.9707">sunExposure</text></g><!--class PropertyType--><g id="elem_PropertyType"><rect codeLine="76" fill="#F1F1F1" height="53.2188" id="PropertyType" rx="2.5" ry="2.5" style="stroke:#181818;stroke-width:0.5;" width="92" x="920.5" y="597.1094"/><text fill="#000000" font-family="sans-serif" font-size="14" lengthAdjust="spacing" textLength="86" x="923.5" y="616.6426">PropertyType</text><line style="stroke:#181818;stroke-width:0.5;" x1="921.5" x2="1011.5" y1="624.7188" y2="624.7188"/><text fill="#000000" font-family="sans-serif" font-size="14" lengthAdjust="spacing" textLength="73" x="926.5" y="643.252">designation</text></g><!--class ResidenceType--><g id="elem_ResidenceType"><rect codeLine="80" fill="#F1F1F1" height="53.2188" id="ResidenceType" rx="2.5" ry="2.5" style="stroke:#181818;stroke-width:0.5;" width="105" x="979" y="247.1094"/><text fill="#000000" font-family="sans-serif" font-size="14" lengthAdjust="spacing" textLength="99" x="982" y="266.6426">ResidenceType</text><line style="stroke:#181818;stroke-width:0.5;" x1="980" x2="1083" y1="274.7188" y2="274.7188"/><text fill="#000000" font-family="sans-serif" font-size="14" lengthAdjust="spacing" textLength="73" x="985" y="293.252">designation</text></g><!--class Photograph--><g id="elem_Photograph"><rect codeLine="84" fill="#F1F1F1" height="53.2188" id="Photograph" rx="2.5" ry="2.5" style="stroke:#181818;stroke-width:0.5;" width="80" x="883.5" y="1001.1094"/><text fill="#000000" font-family="sans-serif" font-size="14" lengthAdjust="spacing" textLength="74" x="886.5" y="1020.6426">Photograph</text><line style="stroke:#181818;stroke-width:0.5;" x1="884.5" x2="962.5" y1="1028.7188" y2="1028.7188"/><text fill="#000000" font-family="sans-serif" font-size="14" lengthAdjust="spacing" textLength="16" x="889.5" y="1047.252">uri</text></g><!--class Location--><g id="elem_Location"><rect codeLine="88" fill="#F1F1F1" height="123.6563" id="Location" rx="2.5" ry="2.5" style="stroke:#181818;stroke-width:0.5;" width="84" x="1074.5" y="965.6094"/><text fill="#000000" font-family="sans-serif" font-size="14" lengthAdjust="spacing" textLength="54" x="1089.5" y="985.1426">Location</text><line style="stroke:#181818;stroke-width:0.5;" x1="1075.5" x2="1157.5" y1="993.2188" y2="993.2188"/><text fill="#000000" font-family="sans-serif" font-size="14" lengthAdjust="spacing" textLength="72" x="1080.5" y="1011.752">streetName</text><text fill="#000000" font-family="sans-serif" font-size="14" lengthAdjust="spacing" textLength="21" x="1080.5" y="1029.3613">city</text><text fill="#000000" font-family="sans-serif" font-size="14" lengthAdjust="spacing" textLength="41" x="1080.5" y="1046.9707">district</text><text fill="#000000" font-family="sans-serif" font-size="14" lengthAdjust="spacing" textLength="31" x="1080.5" y="1064.5801">state</text><text fill="#000000" font-family="sans-serif" font-size="14" lengthAdjust="spacing" textLength="51" x="1080.5" y="1082.1895">zipCode</text></g><!--class Business--><g id="elem_Business"><rect codeLine="96" fill="#F1F1F1" height="53.2188" id="Business" rx="2.5" ry="2.5" style="stroke:#181818;stroke-width:0.5;" width="63" x="528" y="413.1094"/><text fill="#000000" font-family="sans-serif" font-size="14" lengthAdjust="spacing" textLength="57" x="531" y="432.6426">Business</text><line style="stroke:#181818;stroke-width:0.5;" x1="529" x2="590" y1="440.7188" y2="440.7188"/><text fill="#000000" font-family="sans-serif" font-size="14" lengthAdjust="spacing" textLength="31" x="534" y="459.252">price</text></g><!--class BusinessType--><g id="elem_BusinessType"><rect codeLine="100" fill="#F1F1F1" height="53.2188" id="BusinessType" rx="2.5" ry="2.5" style="stroke:#181818;stroke-width:0.5;" width="95" x="638" y="597.1094"/><text fill="#000000" font-family="sans-serif" font-size="14" lengthAdjust="spacing" textLength="89" x="641" y="616.6426">BusinessType</text><line style="stroke:#181818;stroke-width:0.5;" x1="639" x2="732" y1="624.7188" y2="624.7188"/><text fill="#000000" font-family="sans-serif" font-size="14" lengthAdjust="spacing" textLength="73" x="644" y="643.252">designation</text></g><!--class Lease--><g id="elem_Lease"><rect codeLine="104" fill="#F1F1F1" height="53.2188" id="Lease" rx="2.5" ry="2.5" style="stroke:#181818;stroke-width:0.5;" width="117" x="768" y="597.1094"/><text fill="#000000" font-family="sans-serif" font-size="14" lengthAdjust="spacing" textLength="39" x="807" y="616.6426">Lease</text><line style="stroke:#181818;stroke-width:0.5;" x1="769" x2="884" y1="624.7188" y2="624.7188"/><text fill="#000000" font-family="sans-serif" font-size="14" lengthAdjust="spacing" textLength="105" x="774" y="643.252">contractDuration</text></g><!--class Request--><g id="elem_Request"><rect codeLine="116" fill="#F1F1F1" height="70.8281" id="Request" rx="2.5" ry="2.5" style="stroke:#181818;stroke-width:0.5;" width="90" x="300.5" y="404.1094"/><text fill="#000000" font-family="sans-serif" font-size="14" lengthAdjust="spacing" textLength="53" x="319" y="423.6426">Request</text><line style="stroke:#181818;stroke-width:0.5;" x1="301.5" x2="389.5" y1="431.7188" y2="431.7188"/><text fill="#000000" font-family="sans-serif" font-size="14" lengthAdjust="spacing" textLength="11" x="306.5" y="450.252">id</text><text fill="#000000" font-family="sans-serif" font-size="14" lengthAdjust="spacing" textLength="78" x="306.5" y="467.8613">requestDate</text></g><!--class Customer--><g id="elem_Customer"><rect fill="#F1F1F1" height="35.6094" id="Customer" rx="2.5" ry="2.5" style="stroke:#181818;stroke-width:0.5;" width="67" x="637" y="421.6094"/><text fill="#000000" font-family="sans-serif" font-size="14" lengthAdjust="spacing" textLength="61" x="640" y="441.1426">Customer</text><line style="stroke:#181818;stroke-width:0.5;" x1="638" x2="703" y1="449.2188" y2="449.2188"/></g><!--link PropertyType to Property--><g id="link_PropertyType_Property"><path codeLine="122" d="M950.3,650.1294 C940.09,667.7594 927.87,692.1794 922.5,715.6094 C916.92,739.9594 917.63,768.1794 919.62,789.7994 " fill="none" id="PropertyType-Property" style="stroke:#181818;stroke-width:1.0;"/><polygon fill="#000000" points="926.4273,729.6687,931.2383,721.4648,925.4974,720.2037,926.4273,729.6687" style="stroke:#000000;stroke-width:1.0;"/><text fill="#000000" font-family="sans-serif" font-size="13" lengthAdjust="spacing" textLength="102" x="936.5" y="730.1045">is a description of</text><text fill="#000000" font-family="sans-serif" font-size="13" lengthAdjust="spacing" textLength="7" x="938.7444" y="671.6226">1</text><text fill="#000000" font-family="sans-serif" font-size="13" lengthAdjust="spacing" textLength="7" x="911.0749" y="779.2653">1</text></g><!--link Property to Photograph--><g id="link_Property_Photograph"><path codeLine="123" d="M922.62,861.1694 C921.79,878.1594 920.91,898.9494 920.5,917.6094 C919.87,946.1894 921.03,978.9794 922.08,1001.0594 " fill="none" id="Property-Photograph" style="stroke:#181818;stroke-width:1.0;"/><polygon fill="#000000" points="925.4807,931.7851,928.4545,922.7514,922.5767,922.7288,925.4807,931.7851" style="stroke:#000000;stroke-width:1.0;"/><text fill="#000000" font-family="sans-serif" font-size="13" lengthAdjust="spacing" textLength="84" x="934.5" y="932.1045">is visualized in</text><text fill="#000000" font-family="sans-serif" font-size="13" lengthAdjust="spacing" textLength="7" x="914.6617" y="882.4702">1</text><text fill="#000000" font-family="sans-serif" font-size="13" lengthAdjust="spacing" textLength="20" x="899.2964" y="990.1491">1..*</text></g><!--link Announcement to Request--><g id="link_Announcement_Request"><path codeLine="124" d="M283.56,300.1194 C283.68,318.8094 285.58,344.4994 293.5,365.6094 C298.58,379.1594 306.83,392.4994 315.28,403.9894 " fill="none" id="Announcement-Request" style="stroke:#181818;stroke-width:1.0;"/><polygon fill="#000000" points="299.9603,361.5671,300.1293,352.0581,294.5078,353.7748,299.9603,361.5671" style="stroke:#000000;stroke-width:1.0;"/><text fill="#000000" font-family="sans-serif" font-size="13" lengthAdjust="spacing" textLength="78" x="307.5" y="362.1045">is a based on</text><text fill="#000000" font-family="sans-serif" font-size="13" lengthAdjust="spacing" textLength="7" x="275.5333" y="321.6103">1</text><text fill="#000000" font-family="sans-serif" font-size="13" lengthAdjust="spacing" textLength="7" x="301.8521" y="393.2193">1</text></g><!--link Agency to Announcement--><g id="link_Agency_Announcement"><path codeLine="125" d="M350.04,151.9894 C332.97,183.4094 312,221.9894 298.45,246.9294 " fill="none" id="Agency-Announcement" style="stroke:#181818;stroke-width:1.0;"/><polygon fill="#000000" points="334.1127,195.1784,341.0137,188.6341,335.8491,185.8277,334.1127,195.1784" style="stroke:#000000;stroke-width:1.0;"/><text fill="#000000" font-family="sans-serif" font-size="13" lengthAdjust="spacing" textLength="30" x="345.5" y="196.1045">owns</text><text fill="#000000" font-family="sans-serif" font-size="13" lengthAdjust="spacing" textLength="7" x="339.1449" y="172.9837">1</text><text fill="#000000" font-family="sans-serif" font-size="13" lengthAdjust="spacing" textLength="5" x="296.0978" y="236.4201">*</text></g><!--link Agency to Location--><g id="link_Agency_Location"><path codeLine="126" d="M429.01,99.7994 C603.68,101.7894 1171.5,119.9894 1171.5,272.6094 C1171.5,272.6094 1171.5,272.6094 1171.5,826.6094 C1171.5,874.3194 1156.77,926.2194 1142.55,965.1994 " fill="none" id="Agency-Location" style="stroke:#181818;stroke-width:1.0;"/><polygon fill="#000000" points="1179.6808,526.6429,1176.1942,517.7945,1171.6591,521.5338,1179.6808,526.6429" style="stroke:#000000;stroke-width:1.0;"/><text fill="#000000" font-family="sans-serif" font-size="13" lengthAdjust="spacing" textLength="71" x="1185.5" y="528.1045">has address</text><text fill="#000000" font-family="sans-serif" font-size="13" lengthAdjust="spacing" textLength="7" x="436.9427" y="96.3166">1</text><text fill="#000000" font-family="sans-serif" font-size="13" lengthAdjust="spacing" textLength="7" x="1138.1573" y="954.5935">1</text></g><!--link Agency to Request--><g id="link_Agency_Request"><path codeLine="127" d="M390.43,151.7194 C400.69,206.1794 410.92,293.5594 390.5,365.6094 C386.68,379.0694 379.6,392.4894 372.17,404.0794 " fill="none" id="Agency-Request" style="stroke:#181818;stroke-width:1.0;"/><polygon fill="#000000" points="407.1392,278.7721,410.7232,269.9627,404.8607,269.5385,407.1392,278.7721" style="stroke:#000000;stroke-width:1.0;"/><text fill="#000000" font-family="sans-serif" font-size="13" lengthAdjust="spacing" textLength="81" x="416.5" y="279.1045">is assigned to</text><text fill="#000000" font-family="sans-serif" font-size="13" lengthAdjust="spacing" textLength="7" x="384.5101" y="173.0637">1</text><text fill="#000000" font-family="sans-serif" font-size="13" lengthAdjust="spacing" textLength="5" x="371.7774" y="393.3265">*</text></g><!--link Customer to Visit--><g id="link_Customer_Visit"><path codeLine="128" d="M665.36,457.6794 C659.15,476.7294 647.5,507.9794 631.5,531.6094 C623.3,543.7294 613.33,555.5994 603.05,566.5594 " fill="none" id="Customer-Visit" style="stroke:#181818;stroke-width:1.0;"/><polygon fill="#000000" points="644.0165,527.1248,651.0599,520.7341,645.9584,517.8146,644.0165,527.1248" style="stroke:#000000;stroke-width:1.0;"/><text fill="#000000" font-family="sans-serif" font-size="13" lengthAdjust="spacing" textLength="50" x="655.5" y="528.1045">requests</text><text fill="#000000" font-family="sans-serif" font-size="13" lengthAdjust="spacing" textLength="7" x="655.93" y="478.611">1</text><text fill="#000000" font-family="sans-serif" font-size="13" lengthAdjust="spacing" textLength="5" x="610.978" y="556.1689">*</text></g><!--link Agent to Visit--><g id="link_Agent_Visit"><path codeLine="129" d="M149.02,446.7294 C201.99,462.1994 342.25,505.6594 450.5,561.6094 C459.55,566.2894 468.79,571.7094 477.74,577.3494 " fill="none" id="Agent-Visit" style="stroke:#181818;stroke-width:1.0;"/><polygon fill="#000000" points="392.1466,524.6315,384.8261,518.5602,382.6555,524.0226,392.1466,524.6315" style="stroke:#000000;stroke-width:1.0;"/><text fill="#000000" font-family="sans-serif" font-size="13" lengthAdjust="spacing" textLength="52" x="396.5" y="528.1045">schedule</text><text fill="#000000" font-family="sans-serif" font-size="13" lengthAdjust="spacing" textLength="7" x="156.9951" y="465.1623">1</text><text fill="#000000" font-family="sans-serif" font-size="13" lengthAdjust="spacing" textLength="5" x="465.1943" y="568.6109">*</text></g><!--link Announcement to Agent--><g id="link_Announcement_Agent"><path codeLine="130" d="M238.67,300.1694 C218.88,312.7094 196.44,329.0994 179.5,347.6094 C158.98,370.0294 143.11,401.9194 134.55,421.3894 " fill="none" id="Announcement-Agent" style="stroke:#181818;stroke-width:1.0;"/><polygon fill="#000000" points="181.2421,360.5781,189.3651,355.6315,184.9062,351.8017,181.2421,360.5781" style="stroke:#000000;stroke-width:1.0;"/><text fill="#000000" font-family="sans-serif" font-size="13" lengthAdjust="spacing" textLength="87" x="193.5" y="362.1045">is published by</text><text fill="#000000" font-family="sans-serif" font-size="13" lengthAdjust="spacing" textLength="5" x="222.4937" y="321.6718">*</text><text fill="#000000" font-family="sans-serif" font-size="13" lengthAdjust="spacing" textLength="7" x="128.6816" y="410.6452">1</text></g><!--link Agent to Request--><g id="link_Agent_Request"><path codeLine="131" d="M149.2,439.6094 C184.2,439.6094 253.86,439.6094 300.08,439.6094 " fill="none" id="Agent-Request" style="stroke:#181818;stroke-width:1.0;"/><polygon fill="#000000" points="176.25,427.7852,167.2049,424.8462,167.2049,430.7241,176.25,427.7852" style="stroke:#000000;stroke-width:1.0;"/><text fill="#000000" font-family="sans-serif" font-size="13" lengthAdjust="spacing" textLength="102" x="180.25" y="433.1045">is responsable for</text><text fill="#000000" font-family="sans-serif" font-size="13" lengthAdjust="spacing" textLength="7" x="156.9175" y="434.7681">1</text><text fill="#000000" font-family="sans-serif" font-size="13" lengthAdjust="spacing" textLength="5" x="287.4428" y="435.8712">*</text></g><!--link Agent to Employee--><g id="link_Agent_Employee"><path codeLine="132" d="M122.36,457.6594 C117.96,472.4094 111.56,494.3494 106.5,513.6094 C97.99,545.9694 89.18,584.0494 84.31,605.5594 " fill="none" id="Agent-Employee" style="stroke:#181818;stroke-width:1.0;"/><polygon fill="#000000" points="110.2542,527.6275,115.3541,519.5999,109.6616,518.1354,110.2542,527.6275" style="stroke:#000000;stroke-width:1.0;"/><text fill="#000000" font-family="sans-serif" font-size="13" lengthAdjust="spacing" textLength="49" x="120.5" y="528.1045">plays as</text><text fill="#000000" font-family="sans-serif" font-size="13" lengthAdjust="spacing" textLength="12" x="107.2269" y="478.5854">0*</text><text fill="#000000" font-family="sans-serif" font-size="13" lengthAdjust="spacing" textLength="7" x="77.4088" y="594.8693">1</text></g><!--link Employee to Agency--><g id="link_Employee_Agency"><path codeLine="133" d="M77.01,605.3894 C68.76,560.3394 51.8,436.3494 94.5,347.6094 C144.59,243.4994 260.61,165.0594 327.84,126.3894 " fill="none" id="Employee-Agency" style="stroke:#181818;stroke-width:1.0;"/><polygon fill="#000000" points="101.8195,352.3557,95.0199,359.0053,100.2271,361.732,101.8195,352.3557" style="stroke:#000000;stroke-width:1.0;"/><text fill="#000000" font-family="sans-serif" font-size="13" lengthAdjust="spacing" textLength="48" x="108.5" y="362.1045">works in</text><text fill="#000000" font-family="sans-serif" font-size="13" lengthAdjust="spacing" textLength="5" x="70.1007" y="594.6452">*</text><text fill="#000000" font-family="sans-serif" font-size="13" lengthAdjust="spacing" textLength="7" x="312.8853" y="126.8121">1</text></g><!--link Property to Location--><g id="link_Property_Location"><path codeLine="134" d="M964.56,861.4194 C983,877.9494 1004.87,898.2794 1023.5,917.6094 C1040.85,935.6094 1058.91,956.2794 1074.45,974.7394 " fill="none" id="Property-Location" style="stroke:#181818;stroke-width:1.0;"/><polygon fill="#000000" points="1047.9808,930.3746,1043.7938,921.8353,1039.5742,925.9272,1047.9808,930.3746" style="stroke:#000000;stroke-width:1.0;"/><text fill="#000000" font-family="sans-serif" font-size="13" lengthAdjust="spacing" textLength="71" x="1053.5" y="932.1045">has address</text><text fill="#000000" font-family="sans-serif" font-size="13" lengthAdjust="spacing" textLength="7" x="963.8437" y="882.4893">1</text><text fill="#000000" font-family="sans-serif" font-size="13" lengthAdjust="spacing" textLength="7" x="1059.6211" y="961.8322">1</text></g><!--link Visit to Property--><g id="link_Visit_Property"><path codeLine="135" d="M603.35,674.5494 C609.04,678.4494 614.81,682.1994 620.5,685.6094 C698.64,732.4694 795.28,774.1294 858.33,799.3494 " fill="none" id="Visit-Property" style="stroke:#181818;stroke-width:1.0;"/><polygon fill="#000000" points="718.9909,726.9832,712.1588,720.3672,709.5748,725.6466,718.9909,726.9832" style="stroke:#000000;stroke-width:1.0;"/><text fill="#000000" font-family="sans-serif" font-size="13" lengthAdjust="spacing" textLength="43" x="723.5" y="730.1045">done to</text><text fill="#000000" font-family="sans-serif" font-size="13" lengthAdjust="spacing" textLength="7" x="611.0217" y="677.0496">1</text><text fill="#000000" font-family="sans-serif" font-size="13" lengthAdjust="spacing" textLength="7" x="843.7098" y="793.1259">1</text></g><!--link Residence to Property--><g id="link_Residence_Property"><path codeLine="136" d="M1045.56,483.7594 C1062.34,543.3794 1083.48,652.7094 1043.5,733.6094 C1035.08,750.6494 1021.77,765.3694 1007.05,777.7194 " fill="none" id="Residence-to-Property" style="stroke:#181818;stroke-width:1.0;"/><polygon fill="none" points="1010.84,783.6294,990.69,790.1794,1002.36,772.4894,1010.84,783.6294" style="stroke:#181818;stroke-width:1.0;"/></g><!--link House to Residence--><g id="link_House_Residence"><path codeLine="137" d="M928.28,317.6994 C944.62,336.8294 964.09,359.6494 981.7,380.2694 " fill="none" id="House-to-Residence" style="stroke:#181818;stroke-width:1.0;"/><polygon fill="none" points="987.06,375.7694,994.72,395.5194,976.41,384.8594,987.06,375.7694" style="stroke:#181818;stroke-width:1.0;"/></g><!--link ResidenceType to Residence--><g id="link_ResidenceType_Residence"><path codeLine="138" d="M1030.19,300.2794 C1029.54,314.2694 1028.82,331.8794 1028.5,347.6094 C1028.18,363.2594 1028.55,380.4094 1029.14,395.5694 " fill="none" id="ResidenceType-Residence" style="stroke:#181818;stroke-width:1.0;"/><polygon fill="#000000" points="1033.4449,361.7849,1036.4833,352.7727,1030.6058,352.7079,1033.4449,361.7849" style="stroke:#000000;stroke-width:1.0;"/><text fill="#000000" font-family="sans-serif" font-size="13" lengthAdjust="spacing" textLength="102" x="1042.5" y="362.1045">is a description of</text><text fill="#000000" font-family="sans-serif" font-size="13" lengthAdjust="spacing" textLength="7" x="1022.0777" y="321.8073">1</text><text fill="#000000" font-family="sans-serif" font-size="13" lengthAdjust="spacing" textLength="7" x="1021.2061" y="384.7638">1</text></g><!--link AvailableEquipment to Residence--><g id="link_AvailableEquipment_Residence"><path codeLine="139" d="M869.55,439.6094 C900.21,439.6094 936.67,439.6094 967.23,439.6094 " fill="none" id="AvailableEquipment-Residence" style="stroke:#181818;stroke-width:1.0;"/><polygon fill="#000000" points="887,427.7852,896.0451,430.7241,896.0451,424.8462,887,427.7852" style="stroke:#000000;stroke-width:1.0;"/><text fill="#000000" font-family="sans-serif" font-size="13" lengthAdjust="spacing" textLength="48" x="901" y="433.1045">includes</text><text fill="#000000" font-family="sans-serif" font-size="13" lengthAdjust="spacing" textLength="5" x="877.3605" y="436.1872">*</text><text fill="#000000" font-family="sans-serif" font-size="13" lengthAdjust="spacing" textLength="7" x="952.3941" y="436.1745">1</text></g><!--reverse link BusinessType to Lease--><g id="link_BusinessType_Lease"><path codeLine="140" d="M753.17,623.6094 C758.04,623.6094 762.92,623.6094 767.79,623.6094 " fill="none" id="BusinessType-backto-Lease" style="stroke:#181818;stroke-width:1.0;"/><polygon fill="none" points="753.14,630.6094,733.14,623.6094,753.14,616.6094,753.14,630.6094" style="stroke:#181818;stroke-width:1.0;"/></g><!--link Business to BusinessType--><g id="link_Business_BusinessType"><path codeLine="141" d="M551.36,466.1894 C546.8,485.6394 544.2,512.2694 556.5,531.6094 C573.35,558.1194 594.5,543.9794 620.5,561.6094 C635.36,571.6894 650.1,585.1594 661.77,596.8694 " fill="none" id="Business-BusinessType" style="stroke:#181818;stroke-width:1.0;"/><polygon fill="#000000" points="558.2731,518.9658,561.8657,527.7718,566.3555,523.9783,558.2731,518.9658" style="stroke:#000000;stroke-width:1.0;"/><text fill="#000000" font-family="sans-serif" font-size="13" lengthAdjust="spacing" textLength="56" x="570.5" y="528.1045">describes</text><text fill="#000000" font-family="sans-serif" font-size="13" lengthAdjust="spacing" textLength="7" x="541.6683" y="487.6965">1</text><text fill="#000000" font-family="sans-serif" font-size="13" lengthAdjust="spacing" textLength="7" x="648.4731" y="586.3462">1</text></g><!--link Request to Business--><g id="link_Request_Business"><path codeLine="142" d="M390.62,439.6094 C431.83,439.6094 491.68,439.6094 527.96,439.6094 " fill="none" id="Request-Business" style="stroke:#181818;stroke-width:1.0;"/><polygon fill="#000000" points="417.75,427.7852,408.7049,424.8462,408.7049,430.7241,417.75,427.7852" style="stroke:#000000;stroke-width:1.0;"/><text fill="#000000" font-family="sans-serif" font-size="13" lengthAdjust="spacing" textLength="88" x="421.75" y="433.1045">is described by</text><text fill="#000000" font-family="sans-serif" font-size="13" lengthAdjust="spacing" textLength="7" x="398.3688" y="435.8712">1</text><text fill="#000000" font-family="sans-serif" font-size="13" lengthAdjust="spacing" textLength="7" x="512.857" y="435.2698">1</text></g><!--link Employee to Person--><g id="link_Employee_Person"><path codeLine="143" d="M80.5,641.6594 C80.5,668.3994 80.5,721.4694 80.5,763.5994 " fill="none" id="Employee-Person" style="stroke:#181818;stroke-width:1.0;"/><polygon fill="#000000" points="85.5,729.7852,88.4389,720.7401,82.5611,720.7401,85.5,729.7852" style="stroke:#000000;stroke-width:1.0;"/><text fill="#000000" font-family="sans-serif" font-size="13" lengthAdjust="spacing" textLength="96" x="94.5" y="730.1045">is represented in</text><text fill="#000000" font-family="sans-serif" font-size="13" lengthAdjust="spacing" textLength="7" x="72.5156" y="662.5854">1</text><text fill="#000000" font-family="sans-serif" font-size="13" lengthAdjust="spacing" textLength="7" x="73.0734" y="752.6044">1</text></g><!--link Request to Property--><g id="link_Request_Property"><path codeLine="144" d="M328.31,475.3594 C305.45,527.1294 273.2,624.9094 321.5,685.6094 C388.1,769.3094 715.92,806.8994 858.3,819.4694 " fill="none" id="Request-Property" style="stroke:#181818;stroke-width:1.0;"/><polygon fill="#000000" points="330.6936,626.508,324.7077,619.1174,321.5069,624.0473,330.6936,626.508" style="stroke:#000000;stroke-width:1.0;"/><text fill="#000000" font-family="sans-serif" font-size="13" lengthAdjust="spacing" textLength="124" x="335.5" y="629.1045">has information about</text><text fill="#000000" font-family="sans-serif" font-size="13" lengthAdjust="spacing" textLength="7" x="317.7539" y="496.419">1</text><text fill="#000000" font-family="sans-serif" font-size="13" lengthAdjust="spacing" textLength="7" x="843.6766" y="815.4466">1</text></g><!--SRC=[XLNBRjiw4DtpAuXi10H8aIxknei0hXEW1N9pWxhjVaoE9I8IoVBHrD7jltT8lMWxJJUsH9uvCtFc8V-aj0K77U-CDg9nfaCUN4JcvniBuWbgt8P3YzoX2A3hjWJu1gHvLhhcUsWzCbQrk0yy6EvKtGGkLR9IHhF2IBJW_Je4ftOnu2TXz5Qz8Bzch54IkL1Ea9Fyt65eZFIC1HKeX5lJWTByNoEnvLVyw_Rw_J-CiKp8rpLgSU0zKv99zAhMa3qZsRHhAHrwpsnZD3x4ReUE_PeixphRcWCYsSvdZ-YyqJtJqE50mIoTM-F21fmSAGBy79zU9KuXXO9qhRM9Mc2NZq48j2Ifm5i8kA2-AQz2JkD7UigNFe0B7qrq3BNC_ulrDa28FjbN1S5dJB7shE8IeNrqnbigHNxrmYcRjQcMV9snwCAXPnmS0gFI-So-KU6meNZBl3wJl9BKHaBhdFC7bCwOpi_l49hnW8fEfQ-tr4n5akiV92diMhpx7fKT12aZcu6Kh4z-Tk2pRemhtS1EXMHyR_PquAE- -scDZmuB5HumF1ltr9-b-ELWiJzgaVF4ti0yDYQOse5jUXQTMYxkZSZGdghb4CD3QXr1yh6afLEaFabAnNnHTaCjl5X-Y5vfQi-UMOAzSl56EFS8IH-Qek10XDlePi0enCPqdVAU3gd1Ap6_VOEMffrQe3f79eS9NRgi2fc-H_H3ZxhXUMfXLghCBzvVyAkh_3UThxZo7Cekv6RFRsQxnURTkykBGkriI1CHeQLr8QaDoAgSgC4o_uu1yj5PwXt9JJOOjiJaX3mSKQouUTR-19T_f-eIf04Y7HRA6VBorBbF0f9tseatR1Dze3thIlzvMWay2ZbHXjSmNZGe8st2qymlPvq7s-pRnbshF5dmtU6OzJnEIiOQxTDGyRrn2_nwePxtv8hR5WufESBDfpc8lFUNI4YO5KzZw8TwdLVv3MM7h5_f8K9AMhU3flFCSe9T_N_3PnZBkuFdmnd5ZcQyP9yl_jIYYwTibJzrbFJvAYC2BTf816IL1tH0fq3AaMRboq0QxH3CT9DIpN7iCjbKiumTlh4dQ0fzCXZhlXIeK39_tgRIMn8yhVXng8wSd0gVIgGqjKWt50rs9WOoedLJFROGqatPkl-v6hHwAIliiAQ5Y8xytVp1QaFhf3OkLnhtARS4FU8QexlEQw9epGR-Wlq2_ccUywfAh-K0JLGhBkX362OLgpCPHoe-0GUw1KRU5i6_UdGhJWjwd9h2RRwV4YOo2D2Qclmcu6y0]--></g></svg>