<?xml version="1.0" encoding="UTF-8" standalone="no"?><svg xmlns="http://www.w3.org/2000/svg" xmlns:xlink="http://www.w3.org/1999/xlink" contentStyleType="text/css" height="2142px" preserveAspectRatio="none" style="width:2059px;height:2142px;background:#FFFFFF;" version="1.1" viewBox="0 0 2059 2142" width="2059px" zoomAndPan="magnify"><defs/><g><!--class AuthenticationRepository--><g id="elem_AuthenticationRepository"><rect codeLine="11" fill="#F1F1F1" height="65.6094" id="AuthenticationRepository" rx="2.5" ry="2.5" style="stroke:#181818;stroke-width:0.5;" width="190" x="742" y="800.5"/><ellipse cx="757" cy="816.5" fill="#ADD1B2" rx="11" ry="11" style="stroke:#181818;stroke-width:1.0;"/><path d="M759.7656,812.375 Q759.9219,812.1563 760.1094,812.0469 Q760.2969,811.9375 760.5156,811.9375 Q760.8906,811.9375 761.125,812.2031 Q761.3594,812.4531 761.3594,813.0625 L761.3594,814.5156 Q761.3594,815.125 761.125,815.3906 Q760.8906,815.6563 760.5156,815.6563 Q760.1719,815.6563 759.9688,815.4531 Q759.7656,815.2656 759.6563,814.75 Q759.6094,814.3906 759.4219,814.2031 Q759.0938,813.8281 758.4844,813.6094 Q757.875,813.3906 757.25,813.3906 Q756.4844,813.3906 755.8438,813.7188 Q755.2188,814.0469 754.7188,814.7969 Q754.2344,815.5469 754.2344,816.5781 L754.2344,817.6719 Q754.2344,818.9063 755.125,819.7344 Q756.0156,820.5469 757.6094,820.5469 Q758.5469,820.5469 759.2031,820.2969 Q759.5938,820.1406 760.0156,819.7031 Q760.2813,819.4375 760.4219,819.3594 Q760.5781,819.2813 760.7813,819.2813 Q761.1094,819.2813 761.3594,819.5469 Q761.625,819.7969 761.625,820.1406 Q761.625,820.4844 761.2813,820.8906 Q760.7813,821.4688 759.9844,821.7969 Q758.9063,822.25 757.6094,822.25 Q756.0938,822.25 754.8906,821.625 Q753.9063,821.125 753.2188,820.0625 Q752.5313,818.9844 752.5313,817.7031 L752.5313,816.5469 Q752.5313,815.2188 753.1406,814.0781 Q753.7656,812.9219 754.8594,812.3125 Q755.9531,811.6875 757.1875,811.6875 Q757.9219,811.6875 758.5625,811.8594 Q759.2188,812.0156 759.7656,812.375 Z " fill="#000000"/><text fill="#000000" font-family="sans-serif" font-size="14" lengthAdjust="spacing" textLength="158" x="771" y="822.2285">AuthenticationRepository</text><line style="stroke:#181818;stroke-width:0.5;" x1="743" x2="931" y1="832.5" y2="832.5"/><line style="stroke:#181818;stroke-width:0.5;" x1="743" x2="931" y1="840.5" y2="840.5"/><text fill="#000000" font-family="sans-serif" font-size="14" lengthAdjust="spacing" textLength="165" x="748" y="859.0332">+getCurrentUserSession()</text></g><!--class UserSession--><g id="elem_UserSession"><rect codeLine="16" fill="#F1F1F1" height="65.6094" id="UserSession" rx="2.5" ry="2.5" style="stroke:#181818;stroke-width:0.5;" width="111" x="781.5" y="1005.5"/><ellipse cx="796.5" cy="1021.5" fill="#ADD1B2" rx="11" ry="11" style="stroke:#181818;stroke-width:1.0;"/><path d="M799.2656,1017.375 Q799.4219,1017.1563 799.6094,1017.0469 Q799.7969,1016.9375 800.0156,1016.9375 Q800.3906,1016.9375 800.625,1017.2031 Q800.8594,1017.4531 800.8594,1018.0625 L800.8594,1019.5156 Q800.8594,1020.125 800.625,1020.3906 Q800.3906,1020.6563 800.0156,1020.6563 Q799.6719,1020.6563 799.4688,1020.4531 Q799.2656,1020.2656 799.1563,1019.75 Q799.1094,1019.3906 798.9219,1019.2031 Q798.5938,1018.8281 797.9844,1018.6094 Q797.375,1018.3906 796.75,1018.3906 Q795.9844,1018.3906 795.3438,1018.7188 Q794.7188,1019.0469 794.2188,1019.7969 Q793.7344,1020.5469 793.7344,1021.5781 L793.7344,1022.6719 Q793.7344,1023.9063 794.625,1024.7344 Q795.5156,1025.5469 797.1094,1025.5469 Q798.0469,1025.5469 798.7031,1025.2969 Q799.0938,1025.1406 799.5156,1024.7031 Q799.7813,1024.4375 799.9219,1024.3594 Q800.0781,1024.2813 800.2813,1024.2813 Q800.6094,1024.2813 800.8594,1024.5469 Q801.125,1024.7969 801.125,1025.1406 Q801.125,1025.4844 800.7813,1025.8906 Q800.2813,1026.4688 799.4844,1026.7969 Q798.4063,1027.25 797.1094,1027.25 Q795.5938,1027.25 794.3906,1026.625 Q793.4063,1026.125 792.7188,1025.0625 Q792.0313,1023.9844 792.0313,1022.7031 L792.0313,1021.5469 Q792.0313,1020.2188 792.6406,1019.0781 Q793.2656,1017.9219 794.3594,1017.3125 Q795.4531,1016.6875 796.6875,1016.6875 Q797.4219,1016.6875 798.0625,1016.8594 Q798.7188,1017.0156 799.2656,1017.375 Z " fill="#000000"/><text fill="#000000" font-family="sans-serif" font-size="14" lengthAdjust="spacing" textLength="79" x="810.5" y="1027.2285">UserSession</text><line style="stroke:#181818;stroke-width:0.5;" x1="782.5" x2="891.5" y1="1037.5" y2="1037.5"/><line style="stroke:#181818;stroke-width:0.5;" x1="782.5" x2="891.5" y1="1045.5" y2="1045.5"/><text fill="#000000" font-family="sans-serif" font-size="14" lengthAdjust="spacing" textLength="78" x="787.5" y="1064.0332">+getUserId()</text></g><!--class Visit--><g id="elem_Visit"><rect codeLine="21" fill="#F1F1F1" height="276.9219" id="Visit" rx="2.5" ry="2.5" style="stroke:#181818;stroke-width:0.5;" width="365" x="820.5" y="1859"/><ellipse cx="985.75" cy="1875" fill="#ADD1B2" rx="11" ry="11" style="stroke:#181818;stroke-width:1.0;"/><path d="M988.5156,1870.875 Q988.6719,1870.6563 988.8594,1870.5469 Q989.0469,1870.4375 989.2656,1870.4375 Q989.6406,1870.4375 989.875,1870.7031 Q990.1094,1870.9531 990.1094,1871.5625 L990.1094,1873.0156 Q990.1094,1873.625 989.875,1873.8906 Q989.6406,1874.1563 989.2656,1874.1563 Q988.9219,1874.1563 988.7188,1873.9531 Q988.5156,1873.7656 988.4063,1873.25 Q988.3594,1872.8906 988.1719,1872.7031 Q987.8438,1872.3281 987.2344,1872.1094 Q986.625,1871.8906 986,1871.8906 Q985.2344,1871.8906 984.5938,1872.2188 Q983.9688,1872.5469 983.4688,1873.2969 Q982.9844,1874.0469 982.9844,1875.0781 L982.9844,1876.1719 Q982.9844,1877.4063 983.875,1878.2344 Q984.7656,1879.0469 986.3594,1879.0469 Q987.2969,1879.0469 987.9531,1878.7969 Q988.3438,1878.6406 988.7656,1878.2031 Q989.0313,1877.9375 989.1719,1877.8594 Q989.3281,1877.7813 989.5313,1877.7813 Q989.8594,1877.7813 990.1094,1878.0469 Q990.375,1878.2969 990.375,1878.6406 Q990.375,1878.9844 990.0313,1879.3906 Q989.5313,1879.9688 988.7344,1880.2969 Q987.6563,1880.75 986.3594,1880.75 Q984.8438,1880.75 983.6406,1880.125 Q982.6563,1879.625 981.9688,1878.5625 Q981.2813,1877.4844 981.2813,1876.2031 L981.2813,1875.0469 Q981.2813,1873.7188 981.8906,1872.5781 Q982.5156,1871.4219 983.6094,1870.8125 Q984.7031,1870.1875 985.9375,1870.1875 Q986.6719,1870.1875 987.3125,1870.3594 Q987.9688,1870.5156 988.5156,1870.875 Z " fill="#000000"/><text fill="#000000" font-family="sans-serif" font-size="14" lengthAdjust="spacing" textLength="26" x="1006.25" y="1880.7285">Visit</text><line style="stroke:#181818;stroke-width:0.5;" x1="821.5" x2="1184.5" y1="1891" y2="1891"/><text fill="#000000" font-family="sans-serif" font-size="14" lengthAdjust="spacing" textLength="64" x="826.5" y="1909.5332">-Integer id</text><text fill="#000000" font-family="sans-serif" font-size="14" lengthAdjust="spacing" textLength="110" x="826.5" y="1927.1426">-String userName</text><text fill="#000000" font-family="sans-serif" font-size="14" lengthAdjust="spacing" textLength="164" x="826.5" y="1944.752">-String userPhoneNumber</text><text fill="#000000" font-family="sans-serif" font-size="14" lengthAdjust="spacing" textLength="111" x="826.5" y="1962.3613">-Integer startHour</text><text fill="#000000" font-family="sans-serif" font-size="14" lengthAdjust="spacing" textLength="107" x="826.5" y="1979.9707">-Integer endHour</text><text fill="#000000" font-family="sans-serif" font-size="14" lengthAdjust="spacing" textLength="127" x="826.5" y="1997.5801">-LocalDate visitDate</text><text fill="#000000" font-family="sans-serif" font-size="14" lengthAdjust="spacing" textLength="174" x="826.5" y="2015.1895">-Boolean acceptanceStatus</text><line style="stroke:#181818;stroke-width:0.5;" x1="821.5" x2="1184.5" y1="2022.2656" y2="2022.2656"/><text fill="#000000" font-family="sans-serif" font-size="14" lengthAdjust="spacing" textLength="353" x="826.5" y="2040.7988">+Visit(visitDay, visitMonth, visitYear, startHour, endHour,</text><text fill="#000000" font-family="sans-serif" font-size="14" lengthAdjust="spacing" textLength="195" x="830.5" y="2058.4082">userName, userPhoneNumber)</text><text fill="#000000" font-family="sans-serif" font-size="14" lengthAdjust="spacing" textLength="94" x="826.5" y="2076.0176">+getVisitDate()</text><text fill="#000000" font-family="sans-serif" font-size="14" lengthAdjust="spacing" textLength="98" x="826.5" y="2093.627">+getStartHour()</text><text fill="#000000" font-family="sans-serif" font-size="14" lengthAdjust="spacing" textLength="93" x="826.5" y="2111.2363">+getEndHour()</text><text fill="#000000" font-family="sans-serif" font-size="14" lengthAdjust="spacing" textLength="188" x="826.5" y="2128.8457">+sendNotification(agentEmail)</text></g><!--class AgencyRepository--><g id="elem_AgencyRepository"><rect codeLine="36" fill="#F1F1F1" height="83.2188" id="AgencyRepository" rx="2.5" ry="2.5" style="stroke:#181818;stroke-width:0.5;" width="324" x="1046" y="792"/><ellipse cx="1146.25" cy="808" fill="#ADD1B2" rx="11" ry="11" style="stroke:#181818;stroke-width:1.0;"/><path d="M1149.0156,803.875 Q1149.1719,803.6563 1149.3594,803.5469 Q1149.5469,803.4375 1149.7656,803.4375 Q1150.1406,803.4375 1150.375,803.7031 Q1150.6094,803.9531 1150.6094,804.5625 L1150.6094,806.0156 Q1150.6094,806.625 1150.375,806.8906 Q1150.1406,807.1563 1149.7656,807.1563 Q1149.4219,807.1563 1149.2188,806.9531 Q1149.0156,806.7656 1148.9063,806.25 Q1148.8594,805.8906 1148.6719,805.7031 Q1148.3438,805.3281 1147.7344,805.1094 Q1147.125,804.8906 1146.5,804.8906 Q1145.7344,804.8906 1145.0938,805.2188 Q1144.4688,805.5469 1143.9688,806.2969 Q1143.4844,807.0469 1143.4844,808.0781 L1143.4844,809.1719 Q1143.4844,810.4063 1144.375,811.2344 Q1145.2656,812.0469 1146.8594,812.0469 Q1147.7969,812.0469 1148.4531,811.7969 Q1148.8438,811.6406 1149.2656,811.2031 Q1149.5313,810.9375 1149.6719,810.8594 Q1149.8281,810.7813 1150.0313,810.7813 Q1150.3594,810.7813 1150.6094,811.0469 Q1150.875,811.2969 1150.875,811.6406 Q1150.875,811.9844 1150.5313,812.3906 Q1150.0313,812.9688 1149.2344,813.2969 Q1148.1563,813.75 1146.8594,813.75 Q1145.3438,813.75 1144.1406,813.125 Q1143.1563,812.625 1142.4688,811.5625 Q1141.7813,810.4844 1141.7813,809.2031 L1141.7813,808.0469 Q1141.7813,806.7188 1142.3906,805.5781 Q1143.0156,804.4219 1144.1094,803.8125 Q1145.2031,803.1875 1146.4375,803.1875 Q1147.1719,803.1875 1147.8125,803.3594 Q1148.4688,803.5156 1149.0156,803.875 Z " fill="#000000"/><text fill="#000000" font-family="sans-serif" font-size="14" lengthAdjust="spacing" textLength="115" x="1166.75" y="813.7285">AgencyRepository</text><line style="stroke:#181818;stroke-width:0.5;" x1="1047" x2="1369" y1="824" y2="824"/><line style="stroke:#181818;stroke-width:0.5;" x1="1047" x2="1369" y1="832" y2="832"/><text fill="#000000" font-family="sans-serif" font-size="14" lengthAdjust="spacing" textLength="177" x="1052" y="850.5332">+getAllAnnouncementsList()</text><text fill="#000000" font-family="sans-serif" font-size="14" lengthAdjust="spacing" textLength="312" x="1052" y="868.1426">+getAgencyByAnnouncementId(announcementId)</text></g><!--class Agency--><g id="elem_Agency"><rect codeLine="41" fill="#F1F1F1" height="171.2656" id="Agency" rx="2.5" ry="2.5" style="stroke:#181818;stroke-width:0.5;" width="288" x="962" y="953"/><ellipse cx="1078.25" cy="969" fill="#ADD1B2" rx="11" ry="11" style="stroke:#181818;stroke-width:1.0;"/><path d="M1081.0156,964.875 Q1081.1719,964.6563 1081.3594,964.5469 Q1081.5469,964.4375 1081.7656,964.4375 Q1082.1406,964.4375 1082.375,964.7031 Q1082.6094,964.9531 1082.6094,965.5625 L1082.6094,967.0156 Q1082.6094,967.625 1082.375,967.8906 Q1082.1406,968.1563 1081.7656,968.1563 Q1081.4219,968.1563 1081.2188,967.9531 Q1081.0156,967.7656 1080.9063,967.25 Q1080.8594,966.8906 1080.6719,966.7031 Q1080.3438,966.3281 1079.7344,966.1094 Q1079.125,965.8906 1078.5,965.8906 Q1077.7344,965.8906 1077.0938,966.2188 Q1076.4688,966.5469 1075.9688,967.2969 Q1075.4844,968.0469 1075.4844,969.0781 L1075.4844,970.1719 Q1075.4844,971.4063 1076.375,972.2344 Q1077.2656,973.0469 1078.8594,973.0469 Q1079.7969,973.0469 1080.4531,972.7969 Q1080.8438,972.6406 1081.2656,972.2031 Q1081.5313,971.9375 1081.6719,971.8594 Q1081.8281,971.7813 1082.0313,971.7813 Q1082.3594,971.7813 1082.6094,972.0469 Q1082.875,972.2969 1082.875,972.6406 Q1082.875,972.9844 1082.5313,973.3906 Q1082.0313,973.9688 1081.2344,974.2969 Q1080.1563,974.75 1078.8594,974.75 Q1077.3438,974.75 1076.1406,974.125 Q1075.1563,973.625 1074.4688,972.5625 Q1073.7813,971.4844 1073.7813,970.2031 L1073.7813,969.0469 Q1073.7813,967.7188 1074.3906,966.5781 Q1075.0156,965.4219 1076.1094,964.8125 Q1077.2031,964.1875 1078.4375,964.1875 Q1079.1719,964.1875 1079.8125,964.3594 Q1080.4688,964.5156 1081.0156,964.875 Z " fill="#000000"/><text fill="#000000" font-family="sans-serif" font-size="14" lengthAdjust="spacing" textLength="47" x="1098.75" y="974.7285">Agency</text><line style="stroke:#181818;stroke-width:0.5;" x1="963" x2="1249" y1="985" y2="985"/><text fill="#000000" font-family="sans-serif" font-size="14" lengthAdjust="spacing" textLength="64" x="968" y="1003.5332">-Integer id</text><text fill="#000000" font-family="sans-serif" font-size="14" lengthAdjust="spacing" textLength="119" x="968" y="1021.1426">-String designation</text><text fill="#000000" font-family="sans-serif" font-size="14" lengthAdjust="spacing" textLength="131" x="968" y="1038.752">-String emailAddress</text><text fill="#000000" font-family="sans-serif" font-size="14" lengthAdjust="spacing" textLength="142" x="968" y="1056.3613">-Integer phoneNumber</text><line style="stroke:#181818;stroke-width:0.5;" x1="963" x2="1249" y1="1063.4375" y2="1063.4375"/><text fill="#000000" font-family="sans-serif" font-size="14" lengthAdjust="spacing" textLength="155" x="968" y="1081.9707">+getAnnouncementList()</text><text fill="#000000" font-family="sans-serif" font-size="14" lengthAdjust="spacing" textLength="265" x="968" y="1099.5801">+getAnnouncementById(announcementId)</text><text fill="#000000" font-family="sans-serif" font-size="14" lengthAdjust="spacing" textLength="276" x="968" y="1117.1895">+anyAnnouncementHasId(announcementId)</text></g><!--class Repositories--><g id="elem_Repositories"><rect codeLine="51" fill="#F1F1F1" height="153.6563" id="Repositories" rx="2.5" ry="2.5" style="stroke:#181818;stroke-width:0.5;" width="208" x="733" y="560"/><ellipse cx="793.25" cy="576" fill="#ADD1B2" rx="11" ry="11" style="stroke:#181818;stroke-width:1.0;"/><path d="M796.0156,571.875 Q796.1719,571.6563 796.3594,571.5469 Q796.5469,571.4375 796.7656,571.4375 Q797.1406,571.4375 797.375,571.7031 Q797.6094,571.9531 797.6094,572.5625 L797.6094,574.0156 Q797.6094,574.625 797.375,574.8906 Q797.1406,575.1563 796.7656,575.1563 Q796.4219,575.1563 796.2188,574.9531 Q796.0156,574.7656 795.9063,574.25 Q795.8594,573.8906 795.6719,573.7031 Q795.3438,573.3281 794.7344,573.1094 Q794.125,572.8906 793.5,572.8906 Q792.7344,572.8906 792.0938,573.2188 Q791.4688,573.5469 790.9688,574.2969 Q790.4844,575.0469 790.4844,576.0781 L790.4844,577.1719 Q790.4844,578.4063 791.375,579.2344 Q792.2656,580.0469 793.8594,580.0469 Q794.7969,580.0469 795.4531,579.7969 Q795.8438,579.6406 796.2656,579.2031 Q796.5313,578.9375 796.6719,578.8594 Q796.8281,578.7813 797.0313,578.7813 Q797.3594,578.7813 797.6094,579.0469 Q797.875,579.2969 797.875,579.6406 Q797.875,579.9844 797.5313,580.3906 Q797.0313,580.9688 796.2344,581.2969 Q795.1563,581.75 793.8594,581.75 Q792.3438,581.75 791.1406,581.125 Q790.1563,580.625 789.4688,579.5625 Q788.7813,578.4844 788.7813,577.2031 L788.7813,576.0469 Q788.7813,574.7188 789.3906,573.5781 Q790.0156,572.4219 791.1094,571.8125 Q792.2031,571.1875 793.4375,571.1875 Q794.1719,571.1875 794.8125,571.3594 Q795.4688,571.5156 796.0156,571.875 Z " fill="#000000"/><text fill="#000000" font-family="sans-serif" font-size="14" lengthAdjust="spacing" textLength="79" x="813.75" y="581.7285">Repositories</text><line style="stroke:#181818;stroke-width:0.5;" x1="734" x2="940" y1="592" y2="592"/><line style="stroke:#181818;stroke-width:0.5;" x1="734" x2="940" y1="600" y2="600"/><text fill="#000000" font-family="sans-serif" font-size="14" lengthAdjust="spacing" textLength="94" x="739" y="618.5332">-Repositories()</text><text fill="#000000" font-family="sans-serif" font-size="14" lengthAdjust="spacing" textLength="182" x="739" y="636.1426">+getInstance() : Repositories</text><text fill="#000000" font-family="sans-serif" font-size="14" lengthAdjust="spacing" textLength="151" x="739" y="653.752">+getPersonRepository()</text><text fill="#000000" font-family="sans-serif" font-size="14" lengthAdjust="spacing" textLength="153" x="739" y="671.3613">+getAgencyRepository()</text><text fill="#000000" font-family="sans-serif" font-size="14" lengthAdjust="spacing" textLength="196" x="739" y="688.9707">+getAuthenticationRepository()</text><text fill="#000000" font-family="sans-serif" font-size="14" lengthAdjust="spacing" textLength="152" x="739" y="706.5801">+getCriteriaRepository()</text></g><!--class ScheduleVisitController--><g id="elem_ScheduleVisitController"><rect codeLine="60" fill="#F1F1F1" height="241.7031" id="ScheduleVisitController" rx="2.5" ry="2.5" style="stroke:#181818;stroke-width:0.5;" width="410" x="987" y="257"/><ellipse cx="1114.25" cy="273" fill="#ADD1B2" rx="11" ry="11" style="stroke:#181818;stroke-width:1.0;"/><path d="M1117.0156,268.875 Q1117.1719,268.6563 1117.3594,268.5469 Q1117.5469,268.4375 1117.7656,268.4375 Q1118.1406,268.4375 1118.375,268.7031 Q1118.6094,268.9531 1118.6094,269.5625 L1118.6094,271.0156 Q1118.6094,271.625 1118.375,271.8906 Q1118.1406,272.1563 1117.7656,272.1563 Q1117.4219,272.1563 1117.2188,271.9531 Q1117.0156,271.7656 1116.9063,271.25 Q1116.8594,270.8906 1116.6719,270.7031 Q1116.3438,270.3281 1115.7344,270.1094 Q1115.125,269.8906 1114.5,269.8906 Q1113.7344,269.8906 1113.0938,270.2188 Q1112.4688,270.5469 1111.9688,271.2969 Q1111.4844,272.0469 1111.4844,273.0781 L1111.4844,274.1719 Q1111.4844,275.4063 1112.375,276.2344 Q1113.2656,277.0469 1114.8594,277.0469 Q1115.7969,277.0469 1116.4531,276.7969 Q1116.8438,276.6406 1117.2656,276.2031 Q1117.5313,275.9375 1117.6719,275.8594 Q1117.8281,275.7813 1118.0313,275.7813 Q1118.3594,275.7813 1118.6094,276.0469 Q1118.875,276.2969 1118.875,276.6406 Q1118.875,276.9844 1118.5313,277.3906 Q1118.0313,277.9688 1117.2344,278.2969 Q1116.1563,278.75 1114.8594,278.75 Q1113.3438,278.75 1112.1406,278.125 Q1111.1563,277.625 1110.4688,276.5625 Q1109.7813,275.4844 1109.7813,274.2031 L1109.7813,273.0469 Q1109.7813,271.7188 1110.3906,270.5781 Q1111.0156,269.4219 1112.1094,268.8125 Q1113.2031,268.1875 1114.4375,268.1875 Q1115.1719,268.1875 1115.8125,268.3594 Q1116.4688,268.5156 1117.0156,268.875 Z " fill="#000000"/><text fill="#000000" font-family="sans-serif" font-size="14" lengthAdjust="spacing" textLength="147" x="1134.75" y="278.7285">ScheduleVisitController</text><line style="stroke:#181818;stroke-width:0.5;" x1="988" x2="1396" y1="289" y2="289"/><line style="stroke:#181818;stroke-width:0.5;" x1="988" x2="1396" y1="297" y2="297"/><text fill="#000000" font-family="sans-serif" font-size="14" lengthAdjust="spacing" textLength="398" x="993" y="315.5332">+ScheduleVisitController(agencyRepository, personRepository,</text><text fill="#000000" font-family="sans-serif" font-size="14" lengthAdjust="spacing" textLength="282" x="997" y="333.1426">criteriaRepository, AuthenticationRepository)</text><text fill="#000000" font-family="sans-serif" font-size="14" lengthAdjust="spacing" textLength="177" x="993" y="350.752">+getAnnouncementListDto()</text><text fill="#000000" font-family="sans-serif" font-size="14" lengthAdjust="spacing" textLength="177" x="993" y="368.3613">+getAllAnnouncementsList()</text><text fill="#000000" font-family="sans-serif" font-size="14" lengthAdjust="spacing" textLength="184" x="993" y="385.9707">+toModel(announcementDto)</text><text fill="#000000" font-family="sans-serif" font-size="14" lengthAdjust="spacing" textLength="384" x="993" y="403.5801">+scheduleVisit(announcement, visitDay, visitMonth, visitYear,</text><text fill="#000000" font-family="sans-serif" font-size="14" lengthAdjust="spacing" textLength="125" x="997" y="421.1895">startHour, endHour)</text><text fill="#000000" font-family="sans-serif" font-size="14" lengthAdjust="spacing" textLength="106" x="993" y="438.7988">+getCriteriaList()</text><text fill="#000000" font-family="sans-serif" font-size="14" lengthAdjust="spacing" textLength="132" x="993" y="456.4082">+toDto(listToDisplay)</text><text fill="#000000" font-family="sans-serif" font-size="14" lengthAdjust="spacing" textLength="151" x="993" y="474.0176">+getFilteredList(criteria)</text><text fill="#000000" font-family="sans-serif" font-size="14" lengthAdjust="spacing" textLength="112" x="993" y="491.627">+getUserPerson()</text></g><g id="elem_GMN9"><path d="M1055,6 L1055,195.8672 A0,0 0 0 0 1055,195.8672 L1188,195.8672 L1192,256.63 L1196,195.8672 L1329,195.8672 A0,0 0 0 0 1329,195.8672 L1329,16 L1319,6 L1055,6 A0,0 0 0 0 1055,6 " fill="#FEFFDD" style="stroke:#181818;stroke-width:0.5;"/><path d="M1319,6 L1319,16 L1329,16 L1319,6 " fill="#FEFFDD" style="stroke:#181818;stroke-width:0.5;"/><text fill="#000000" font-family="sans-serif" font-size="13" lengthAdjust="spacing" textLength="179" x="1061" y="24.4951">- announcementDto is retrieved</text><text fill="#000000" font-family="sans-serif" font-size="13" lengthAdjust="spacing" textLength="107" x="1069" y="40.8467">from selected data</text><text fill="#000000" font-family="sans-serif" font-size="13" lengthAdjust="spacing" textLength="188" x="1061" y="57.1982">- announcement is retrieved from</text><text fill="#000000" font-family="sans-serif" font-size="13" lengthAdjust="spacing" textLength="181" x="1069" y="73.5498">convertion of announcementDto</text><text fill="#000000" font-family="sans-serif" font-size="13" lengthAdjust="spacing" textLength="50" x="1069" y="89.9014">to Model</text><text fill="#000000" font-family="sans-serif" font-size="13" lengthAdjust="spacing" textLength="214" x="1061" y="106.2529">- visit is retrieved from announcement</text><text fill="#000000" font-family="sans-serif" font-size="13" lengthAdjust="spacing" textLength="241" x="1061" y="122.6045">- visitDay, visitMonth, visitYear, startHour,</text><text fill="#000000" font-family="sans-serif" font-size="13" lengthAdjust="spacing" textLength="181" x="1065" y="138.9561">endHour are retrieved from Visit</text><text fill="#000000" font-family="sans-serif" font-size="13" lengthAdjust="spacing" textLength="214" x="1061" y="155.3076">- listToDisplay is the list of properties</text><text fill="#000000" font-family="sans-serif" font-size="13" lengthAdjust="spacing" textLength="56" x="1069" y="171.6592">to display</text><text fill="#000000" font-family="sans-serif" font-size="13" lengthAdjust="spacing" textLength="253" x="1061" y="188.0107">- criteria is a string with the criteria choosen</text></g><!--class ScheduleVisitUI--><g id="elem_ScheduleVisitUI"><rect codeLine="86" fill="#F1F1F1" height="48" id="ScheduleVisitUI" rx="2.5" ry="2.5" style="stroke:#181818;stroke-width:0.5;" width="129" x="1774.5" y="77"/><ellipse cx="1789.5" cy="93" fill="#ADD1B2" rx="11" ry="11" style="stroke:#181818;stroke-width:1.0;"/><path d="M1792.2656,88.875 Q1792.4219,88.6563 1792.6094,88.5469 Q1792.7969,88.4375 1793.0156,88.4375 Q1793.3906,88.4375 1793.625,88.7031 Q1793.8594,88.9531 1793.8594,89.5625 L1793.8594,91.0156 Q1793.8594,91.625 1793.625,91.8906 Q1793.3906,92.1563 1793.0156,92.1563 Q1792.6719,92.1563 1792.4688,91.9531 Q1792.2656,91.7656 1792.1563,91.25 Q1792.1094,90.8906 1791.9219,90.7031 Q1791.5938,90.3281 1790.9844,90.1094 Q1790.375,89.8906 1789.75,89.8906 Q1788.9844,89.8906 1788.3438,90.2188 Q1787.7188,90.5469 1787.2188,91.2969 Q1786.7344,92.0469 1786.7344,93.0781 L1786.7344,94.1719 Q1786.7344,95.4063 1787.625,96.2344 Q1788.5156,97.0469 1790.1094,97.0469 Q1791.0469,97.0469 1791.7031,96.7969 Q1792.0938,96.6406 1792.5156,96.2031 Q1792.7813,95.9375 1792.9219,95.8594 Q1793.0781,95.7813 1793.2813,95.7813 Q1793.6094,95.7813 1793.8594,96.0469 Q1794.125,96.2969 1794.125,96.6406 Q1794.125,96.9844 1793.7813,97.3906 Q1793.2813,97.9688 1792.4844,98.2969 Q1791.4063,98.75 1790.1094,98.75 Q1788.5938,98.75 1787.3906,98.125 Q1786.4063,97.625 1785.7188,96.5625 Q1785.0313,95.4844 1785.0313,94.2031 L1785.0313,93.0469 Q1785.0313,91.7188 1785.6406,90.5781 Q1786.2656,89.4219 1787.3594,88.8125 Q1788.4531,88.1875 1789.6875,88.1875 Q1790.4219,88.1875 1791.0625,88.3594 Q1791.7188,88.5156 1792.2656,88.875 Z " fill="#000000"/><text fill="#000000" font-family="sans-serif" font-size="14" lengthAdjust="spacing" textLength="97" x="1803.5" y="98.7285">ScheduleVisitUI</text><line style="stroke:#181818;stroke-width:0.5;" x1="1775.5" x2="1902.5" y1="109" y2="109"/><line style="stroke:#181818;stroke-width:0.5;" x1="1775.5" x2="1902.5" y1="117" y2="117"/></g><!--class Announcement--><g id="elem_Announcement"><rect codeLine="89" fill="#F1F1F1" height="259.3125" id="Announcement" rx="2.5" ry="2.5" style="stroke:#181818;stroke-width:0.5;" width="343" x="831.5" y="1522"/><ellipse cx="951.25" cy="1538" fill="#ADD1B2" rx="11" ry="11" style="stroke:#181818;stroke-width:1.0;"/><path d="M954.0156,1533.875 Q954.1719,1533.6563 954.3594,1533.5469 Q954.5469,1533.4375 954.7656,1533.4375 Q955.1406,1533.4375 955.375,1533.7031 Q955.6094,1533.9531 955.6094,1534.5625 L955.6094,1536.0156 Q955.6094,1536.625 955.375,1536.8906 Q955.1406,1537.1563 954.7656,1537.1563 Q954.4219,1537.1563 954.2188,1536.9531 Q954.0156,1536.7656 953.9063,1536.25 Q953.8594,1535.8906 953.6719,1535.7031 Q953.3438,1535.3281 952.7344,1535.1094 Q952.125,1534.8906 951.5,1534.8906 Q950.7344,1534.8906 950.0938,1535.2188 Q949.4688,1535.5469 948.9688,1536.2969 Q948.4844,1537.0469 948.4844,1538.0781 L948.4844,1539.1719 Q948.4844,1540.4063 949.375,1541.2344 Q950.2656,1542.0469 951.8594,1542.0469 Q952.7969,1542.0469 953.4531,1541.7969 Q953.8438,1541.6406 954.2656,1541.2031 Q954.5313,1540.9375 954.6719,1540.8594 Q954.8281,1540.7813 955.0313,1540.7813 Q955.3594,1540.7813 955.6094,1541.0469 Q955.875,1541.2969 955.875,1541.6406 Q955.875,1541.9844 955.5313,1542.3906 Q955.0313,1542.9688 954.2344,1543.2969 Q953.1563,1543.75 951.8594,1543.75 Q950.3438,1543.75 949.1406,1543.125 Q948.1563,1542.625 947.4688,1541.5625 Q946.7813,1540.4844 946.7813,1539.2031 L946.7813,1538.0469 Q946.7813,1536.7188 947.3906,1535.5781 Q948.0156,1534.4219 949.1094,1533.8125 Q950.2031,1533.1875 951.4375,1533.1875 Q952.1719,1533.1875 952.8125,1533.3594 Q953.4688,1533.5156 954.0156,1533.875 Z " fill="#000000"/><text fill="#000000" font-family="sans-serif" font-size="14" lengthAdjust="spacing" textLength="95" x="971.75" y="1543.7285">Announcement</text><line style="stroke:#181818;stroke-width:0.5;" x1="832.5" x2="1173.5" y1="1554" y2="1554"/><text fill="#000000" font-family="sans-serif" font-size="14" lengthAdjust="spacing" textLength="104" x="837.5" y="1572.5332">-List&lt;Visit&gt; visits</text><text fill="#000000" font-family="sans-serif" font-size="14" lengthAdjust="spacing" textLength="176" x="837.5" y="1590.1426">-LocalDate acceptanceDate</text><text fill="#000000" font-family="sans-serif" font-size="14" lengthAdjust="spacing" textLength="64" x="837.5" y="1607.752">-Integer id</text><text fill="#000000" font-family="sans-serif" font-size="14" lengthAdjust="spacing" textLength="107" x="837.5" y="1625.3613">-Employee agent</text><line style="stroke:#181818;stroke-width:0.5;" x1="832.5" x2="1173.5" y1="1632.4375" y2="1632.4375"/><text fill="#000000" font-family="sans-serif" font-size="14" lengthAdjust="spacing" textLength="49" x="837.5" y="1650.9707">+getId()</text><text fill="#000000" font-family="sans-serif" font-size="14" lengthAdjust="spacing" textLength="157" x="837.5" y="1668.5801">+hasId(announcementId)</text><text fill="#000000" font-family="sans-serif" font-size="14" lengthAdjust="spacing" textLength="219" x="837.5" y="1686.1895">+getAnnouncementInfoToDisplay()</text><text fill="#000000" font-family="sans-serif" font-size="14" lengthAdjust="spacing" textLength="331" x="837.5" y="1703.7988">+createVisit(visitDay, visitMonth, visitYear, startHour,</text><text fill="#000000" font-family="sans-serif" font-size="14" lengthAdjust="spacing" textLength="257" x="841.5" y="1721.4082">endHour, userName, userPhoneNumber)</text><text fill="#000000" font-family="sans-serif" font-size="14" lengthAdjust="spacing" textLength="92" x="837.5" y="1739.0176">+addVisit(visit)</text><text fill="#000000" font-family="sans-serif" font-size="14" lengthAdjust="spacing" textLength="114" x="837.5" y="1756.627">-validateVisit(visit)</text><text fill="#000000" font-family="sans-serif" font-size="14" lengthAdjust="spacing" textLength="109" x="837.5" y="1774.2363">+getAgentEmail()</text></g><!--class AnnouncementMapper--><g id="elem_AnnouncementMapper"><rect codeLine="103" fill="#F1F1F1" height="83.2188" id="AnnouncementMapper" rx="2.5" ry="2.5" style="stroke:#181818;stroke-width:0.5;" width="327" x="1316.5" y="595.5"/><ellipse cx="1404.25" cy="611.5" fill="#ADD1B2" rx="11" ry="11" style="stroke:#181818;stroke-width:1.0;"/><path d="M1407.0156,607.375 Q1407.1719,607.1563 1407.3594,607.0469 Q1407.5469,606.9375 1407.7656,606.9375 Q1408.1406,606.9375 1408.375,607.2031 Q1408.6094,607.4531 1408.6094,608.0625 L1408.6094,609.5156 Q1408.6094,610.125 1408.375,610.3906 Q1408.1406,610.6563 1407.7656,610.6563 Q1407.4219,610.6563 1407.2188,610.4531 Q1407.0156,610.2656 1406.9063,609.75 Q1406.8594,609.3906 1406.6719,609.2031 Q1406.3438,608.8281 1405.7344,608.6094 Q1405.125,608.3906 1404.5,608.3906 Q1403.7344,608.3906 1403.0938,608.7188 Q1402.4688,609.0469 1401.9688,609.7969 Q1401.4844,610.5469 1401.4844,611.5781 L1401.4844,612.6719 Q1401.4844,613.9063 1402.375,614.7344 Q1403.2656,615.5469 1404.8594,615.5469 Q1405.7969,615.5469 1406.4531,615.2969 Q1406.8438,615.1406 1407.2656,614.7031 Q1407.5313,614.4375 1407.6719,614.3594 Q1407.8281,614.2813 1408.0313,614.2813 Q1408.3594,614.2813 1408.6094,614.5469 Q1408.875,614.7969 1408.875,615.1406 Q1408.875,615.4844 1408.5313,615.8906 Q1408.0313,616.4688 1407.2344,616.7969 Q1406.1563,617.25 1404.8594,617.25 Q1403.3438,617.25 1402.1406,616.625 Q1401.1563,616.125 1400.4688,615.0625 Q1399.7813,613.9844 1399.7813,612.7031 L1399.7813,611.5469 Q1399.7813,610.2188 1400.3906,609.0781 Q1401.0156,607.9219 1402.1094,607.3125 Q1403.2031,606.6875 1404.4375,606.6875 Q1405.1719,606.6875 1405.8125,606.8594 Q1406.4688,607.0156 1407.0156,607.375 Z " fill="#000000"/><text fill="#000000" font-family="sans-serif" font-size="14" lengthAdjust="spacing" textLength="143" x="1424.75" y="617.2285">AnnouncementMapper</text><line style="stroke:#181818;stroke-width:0.5;" x1="1317.5" x2="1642.5" y1="627.5" y2="627.5"/><line style="stroke:#181818;stroke-width:0.5;" x1="1317.5" x2="1642.5" y1="635.5" y2="635.5"/><text fill="#000000" font-family="sans-serif" font-size="14" lengthAdjust="spacing" textLength="132" x="1322.5" y="654.0332">+toDto(listToDisplay)</text><text fill="#000000" font-family="sans-serif" font-size="14" lengthAdjust="spacing" textLength="315" x="1322.5" y="671.6426">+getAnnouncementIdFromDto(announcementDto)</text></g><!--class AnnouncementList--><g id="elem_AnnouncementList"><rect codeLine="108" fill="#F1F1F1" height="188.875" id="AnnouncementList" rx="2.5" ry="2.5" style="stroke:#181818;stroke-width:0.5;" width="431" x="1050.5" y="1228.5"/><ellipse cx="1203.25" cy="1244.5" fill="#ADD1B2" rx="11" ry="11" style="stroke:#181818;stroke-width:1.0;"/><path d="M1206.0156,1240.375 Q1206.1719,1240.1563 1206.3594,1240.0469 Q1206.5469,1239.9375 1206.7656,1239.9375 Q1207.1406,1239.9375 1207.375,1240.2031 Q1207.6094,1240.4531 1207.6094,1241.0625 L1207.6094,1242.5156 Q1207.6094,1243.125 1207.375,1243.3906 Q1207.1406,1243.6563 1206.7656,1243.6563 Q1206.4219,1243.6563 1206.2188,1243.4531 Q1206.0156,1243.2656 1205.9063,1242.75 Q1205.8594,1242.3906 1205.6719,1242.2031 Q1205.3438,1241.8281 1204.7344,1241.6094 Q1204.125,1241.3906 1203.5,1241.3906 Q1202.7344,1241.3906 1202.0938,1241.7188 Q1201.4688,1242.0469 1200.9688,1242.7969 Q1200.4844,1243.5469 1200.4844,1244.5781 L1200.4844,1245.6719 Q1200.4844,1246.9063 1201.375,1247.7344 Q1202.2656,1248.5469 1203.8594,1248.5469 Q1204.7969,1248.5469 1205.4531,1248.2969 Q1205.8438,1248.1406 1206.2656,1247.7031 Q1206.5313,1247.4375 1206.6719,1247.3594 Q1206.8281,1247.2813 1207.0313,1247.2813 Q1207.3594,1247.2813 1207.6094,1247.5469 Q1207.875,1247.7969 1207.875,1248.1406 Q1207.875,1248.4844 1207.5313,1248.8906 Q1207.0313,1249.4688 1206.2344,1249.7969 Q1205.1563,1250.25 1203.8594,1250.25 Q1202.3438,1250.25 1201.1406,1249.625 Q1200.1563,1249.125 1199.4688,1248.0625 Q1198.7813,1246.9844 1198.7813,1245.7031 L1198.7813,1244.5469 Q1198.7813,1243.2188 1199.3906,1242.0781 Q1200.0156,1240.9219 1201.1094,1240.3125 Q1202.2031,1239.6875 1203.4375,1239.6875 Q1204.1719,1239.6875 1204.8125,1239.8594 Q1205.4688,1240.0156 1206.0156,1240.375 Z " fill="#000000"/><text fill="#000000" font-family="sans-serif" font-size="14" lengthAdjust="spacing" textLength="117" x="1223.75" y="1250.2285">AnnouncementList</text><line style="stroke:#181818;stroke-width:0.5;" x1="1051.5" x2="1480.5" y1="1260.5" y2="1260.5"/><text fill="#000000" font-family="sans-serif" font-size="14" lengthAdjust="spacing" textLength="243" x="1056.5" y="1279.0332">-List&lt;Announcement&gt; announcements</text><line style="stroke:#181818;stroke-width:0.5;" x1="1051.5" x2="1480.5" y1="1286.1094" y2="1286.1094"/><text fill="#000000" font-family="sans-serif" font-size="14" lengthAdjust="spacing" textLength="135" x="1056.5" y="1304.6426">+AnnouncementList()</text><text fill="#000000" font-family="sans-serif" font-size="14" lengthAdjust="spacing" textLength="155" x="1056.5" y="1322.252">+getAnnouncementList()</text><text fill="#000000" font-family="sans-serif" font-size="14" lengthAdjust="spacing" textLength="150" x="1056.5" y="1339.8613">+getAnnouncement(idx)</text><text fill="#000000" font-family="sans-serif" font-size="14" lengthAdjust="spacing" textLength="173" x="1056.5" y="1357.4707">+addAll(announcementList)</text><text fill="#000000" font-family="sans-serif" font-size="14" lengthAdjust="spacing" textLength="193" x="1056.5" y="1375.0801">+hasSameId(announcementId)</text><text fill="#000000" font-family="sans-serif" font-size="14" lengthAdjust="spacing" textLength="169" x="1056.5" y="1392.6895">+sortListByCriteria(criteria)</text><text fill="#000000" font-family="sans-serif" font-size="14" lengthAdjust="spacing" textLength="419" x="1056.5" y="1410.2988">+sortAnnouncementsByMostRecentAcceptanceDate(listToDisplay)</text></g><path d="M1516.5,1288.5 L1516.5,1314.0273 L1211.5,1316.5234 L1516.5,1322.0273 L1516.5,1347.5547 A0,0 0 0 0 1516.5,1347.5547 L1707.5,1347.5547 A0,0 0 0 0 1707.5,1347.5547 L1707.5,1298.5 L1697.5,1288.5 L1516.5,1288.5 A0,0 0 0 0 1516.5,1288.5 " fill="#FEFFDD" style="stroke:#181818;stroke-width:0.5;"/><path d="M1697.5,1288.5 L1697.5,1298.5 L1707.5,1298.5 L1697.5,1288.5 " fill="#FEFFDD" style="stroke:#181818;stroke-width:0.5;"/><text fill="#000000" font-family="sans-serif" font-size="13" lengthAdjust="spacing" textLength="162" x="1522.5" y="1306.9951">The variable idx refers to the</text><text fill="#000000" font-family="sans-serif" font-size="13" lengthAdjust="spacing" textLength="170" x="1522.5" y="1323.3467">position of the announcement</text><text fill="#000000" font-family="sans-serif" font-size="13" lengthAdjust="spacing" textLength="148" x="1522.5" y="1339.6982">in the Announcement List</text><!--class AnnouncementDto--><g id="elem_AnnouncementDto"><rect codeLine="132" fill="#F1F1F1" height="83.2188" id="AnnouncementDto" rx="2.5" ry="2.5" style="stroke:#181818;stroke-width:0.5;" width="254" x="1687" y="792"/><ellipse cx="1751.25" cy="808" fill="#ADD1B2" rx="11" ry="11" style="stroke:#181818;stroke-width:1.0;"/><path d="M1754.0156,803.875 Q1754.1719,803.6563 1754.3594,803.5469 Q1754.5469,803.4375 1754.7656,803.4375 Q1755.1406,803.4375 1755.375,803.7031 Q1755.6094,803.9531 1755.6094,804.5625 L1755.6094,806.0156 Q1755.6094,806.625 1755.375,806.8906 Q1755.1406,807.1563 1754.7656,807.1563 Q1754.4219,807.1563 1754.2188,806.9531 Q1754.0156,806.7656 1753.9063,806.25 Q1753.8594,805.8906 1753.6719,805.7031 Q1753.3438,805.3281 1752.7344,805.1094 Q1752.125,804.8906 1751.5,804.8906 Q1750.7344,804.8906 1750.0938,805.2188 Q1749.4688,805.5469 1748.9688,806.2969 Q1748.4844,807.0469 1748.4844,808.0781 L1748.4844,809.1719 Q1748.4844,810.4063 1749.375,811.2344 Q1750.2656,812.0469 1751.8594,812.0469 Q1752.7969,812.0469 1753.4531,811.7969 Q1753.8438,811.6406 1754.2656,811.2031 Q1754.5313,810.9375 1754.6719,810.8594 Q1754.8281,810.7813 1755.0313,810.7813 Q1755.3594,810.7813 1755.6094,811.0469 Q1755.875,811.2969 1755.875,811.6406 Q1755.875,811.9844 1755.5313,812.3906 Q1755.0313,812.9688 1754.2344,813.2969 Q1753.1563,813.75 1751.8594,813.75 Q1750.3438,813.75 1749.1406,813.125 Q1748.1563,812.625 1747.4688,811.5625 Q1746.7813,810.4844 1746.7813,809.2031 L1746.7813,808.0469 Q1746.7813,806.7188 1747.3906,805.5781 Q1748.0156,804.4219 1749.1094,803.8125 Q1750.2031,803.1875 1751.4375,803.1875 Q1752.1719,803.1875 1752.8125,803.3594 Q1753.4688,803.5156 1754.0156,803.875 Z " fill="#000000"/><text fill="#000000" font-family="sans-serif" font-size="14" lengthAdjust="spacing" textLength="117" x="1771.75" y="813.7285">AnnouncementDto</text><line style="stroke:#181818;stroke-width:0.5;" x1="1688" x2="1940" y1="824" y2="824"/><line style="stroke:#181818;stroke-width:0.5;" x1="1688" x2="1940" y1="832" y2="832"/><text fill="#000000" font-family="sans-serif" font-size="14" lengthAdjust="spacing" textLength="242" x="1693" y="850.5332">+create(announcementId, requestInfo)</text><text fill="#000000" font-family="sans-serif" font-size="14" lengthAdjust="spacing" textLength="144" x="1693" y="868.1426">+getAnnouncementId()</text></g><g id="elem_GMN21"><path d="M1732.5,1009 L1732.5,1068.0547 A0,0 0 0 0 1732.5,1068.0547 L1895.5,1068.0547 A0,0 0 0 0 1895.5,1068.0547 L1895.5,1019 L1885.5,1009 L1818,1009 L1814,875.09 L1810,1009 L1732.5,1009 A0,0 0 0 0 1732.5,1009 " fill="#FEFFDD" style="stroke:#181818;stroke-width:0.5;"/><path d="M1885.5,1009 L1885.5,1019 L1895.5,1019 L1885.5,1009 " fill="#FEFFDD" style="stroke:#181818;stroke-width:0.5;"/><text fill="#000000" font-family="sans-serif" font-size="13" lengthAdjust="spacing" textLength="123" x="1738.5" y="1027.4951">- requestInfo is String</text><text fill="#000000" font-family="sans-serif" font-size="13" lengthAdjust="spacing" textLength="138" x="1742.5" y="1043.8467">from the Announcement</text><text fill="#000000" font-family="sans-serif" font-size="13" lengthAdjust="spacing" textLength="114" x="1742.5" y="1060.1982">Request's toString()</text></g><!--class AnnouncementListDto--><g id="elem_AnnouncementListDto"><rect codeLine="143" fill="#F1F1F1" height="76.3125" id="AnnouncementListDto" rx="2.5" ry="2.5" style="stroke:#181818;stroke-width:0.5;" width="178" x="1750" y="599"/><ellipse cx="1765" cy="620.3516" fill="#ADD1B2" rx="11" ry="11" style="stroke:#181818;stroke-width:1.0;"/><path d="M1767.7656,616.2266 Q1767.9219,616.0078 1768.1094,615.8984 Q1768.2969,615.7891 1768.5156,615.7891 Q1768.8906,615.7891 1769.125,616.0547 Q1769.3594,616.3047 1769.3594,616.9141 L1769.3594,618.3672 Q1769.3594,618.9766 1769.125,619.2422 Q1768.8906,619.5078 1768.5156,619.5078 Q1768.1719,619.5078 1767.9688,619.3047 Q1767.7656,619.1172 1767.6563,618.6016 Q1767.6094,618.2422 1767.4219,618.0547 Q1767.0938,617.6797 1766.4844,617.4609 Q1765.875,617.2422 1765.25,617.2422 Q1764.4844,617.2422 1763.8438,617.5703 Q1763.2188,617.8984 1762.7188,618.6484 Q1762.2344,619.3984 1762.2344,620.4297 L1762.2344,621.5234 Q1762.2344,622.7578 1763.125,623.5859 Q1764.0156,624.3984 1765.6094,624.3984 Q1766.5469,624.3984 1767.2031,624.1484 Q1767.5938,623.9922 1768.0156,623.5547 Q1768.2813,623.2891 1768.4219,623.2109 Q1768.5781,623.1328 1768.7813,623.1328 Q1769.1094,623.1328 1769.3594,623.3984 Q1769.625,623.6484 1769.625,623.9922 Q1769.625,624.3359 1769.2813,624.7422 Q1768.7813,625.3203 1767.9844,625.6484 Q1766.9063,626.1016 1765.6094,626.1016 Q1764.0938,626.1016 1762.8906,625.4766 Q1761.9063,624.9766 1761.2188,623.9141 Q1760.5313,622.8359 1760.5313,621.5547 L1760.5313,620.3984 Q1760.5313,619.0703 1761.1406,617.9297 Q1761.7656,616.7734 1762.8594,616.1641 Q1763.9531,615.5391 1765.1875,615.5391 Q1765.9219,615.5391 1766.5625,615.7109 Q1767.2188,615.8672 1767.7656,616.2266 Z " fill="#000000"/><text fill="#000000" font-family="sans-serif" font-size="12" font-style="italic" lengthAdjust="spacing" textLength="150" x="1777" y="616.457">«List&lt;AnnouncementDto&gt;»</text><text fill="#000000" font-family="sans-serif" font-size="14" lengthAdjust="spacing" textLength="139" x="1782.5" y="633.627">AnnouncementListDto</text><line style="stroke:#181818;stroke-width:0.5;" x1="1751" x2="1927" y1="641.7031" y2="641.7031"/><line style="stroke:#181818;stroke-width:0.5;" x1="1751" x2="1927" y1="649.7031" y2="649.7031"/><text fill="#000000" font-family="sans-serif" font-size="14" lengthAdjust="spacing" textLength="158" x="1756" y="668.2363">+add(announcementDto)</text></g><!--class Request--><g id="elem_Request"><rect codeLine="148" fill="#F1F1F1" height="188.875" id="Request" rx="2.5" ry="2.5" style="stroke:#181818;stroke-width:0.5;" width="163" x="547.5" y="1557"/><ellipse cx="598.25" cy="1573" fill="#ADD1B2" rx="11" ry="11" style="stroke:#181818;stroke-width:1.0;"/><path d="M601.0156,1568.875 Q601.1719,1568.6563 601.3594,1568.5469 Q601.5469,1568.4375 601.7656,1568.4375 Q602.1406,1568.4375 602.375,1568.7031 Q602.6094,1568.9531 602.6094,1569.5625 L602.6094,1571.0156 Q602.6094,1571.625 602.375,1571.8906 Q602.1406,1572.1563 601.7656,1572.1563 Q601.4219,1572.1563 601.2188,1571.9531 Q601.0156,1571.7656 600.9063,1571.25 Q600.8594,1570.8906 600.6719,1570.7031 Q600.3438,1570.3281 599.7344,1570.1094 Q599.125,1569.8906 598.5,1569.8906 Q597.7344,1569.8906 597.0938,1570.2188 Q596.4688,1570.5469 595.9688,1571.2969 Q595.4844,1572.0469 595.4844,1573.0781 L595.4844,1574.1719 Q595.4844,1575.4063 596.375,1576.2344 Q597.2656,1577.0469 598.8594,1577.0469 Q599.7969,1577.0469 600.4531,1576.7969 Q600.8438,1576.6406 601.2656,1576.2031 Q601.5313,1575.9375 601.6719,1575.8594 Q601.8281,1575.7813 602.0313,1575.7813 Q602.3594,1575.7813 602.6094,1576.0469 Q602.875,1576.2969 602.875,1576.6406 Q602.875,1576.9844 602.5313,1577.3906 Q602.0313,1577.9688 601.2344,1578.2969 Q600.1563,1578.75 598.8594,1578.75 Q597.3438,1578.75 596.1406,1578.125 Q595.1563,1577.625 594.4688,1576.5625 Q593.7813,1575.4844 593.7813,1574.2031 L593.7813,1573.0469 Q593.7813,1571.7188 594.3906,1570.5781 Q595.0156,1569.4219 596.1094,1568.8125 Q597.2031,1568.1875 598.4375,1568.1875 Q599.1719,1568.1875 599.8125,1568.3594 Q600.4688,1568.5156 601.0156,1568.875 Z " fill="#000000"/><text fill="#000000" font-family="sans-serif" font-size="14" lengthAdjust="spacing" textLength="53" x="618.75" y="1578.7285">Request</text><line style="stroke:#181818;stroke-width:0.5;" x1="548.5" x2="709.5" y1="1589" y2="1589"/><text fill="#000000" font-family="sans-serif" font-size="14" lengthAdjust="spacing" textLength="151" x="553.5" y="1607.5332">-LocalDate requestDate</text><text fill="#000000" font-family="sans-serif" font-size="14" lengthAdjust="spacing" textLength="64" x="553.5" y="1625.1426">-Integer id</text><text fill="#000000" font-family="sans-serif" font-size="14" lengthAdjust="spacing" textLength="133" x="553.5" y="1642.752">-Employee Employee</text><text fill="#000000" font-family="sans-serif" font-size="14" lengthAdjust="spacing" textLength="115" x="553.5" y="1660.3613">-Email ownerEmail</text><text fill="#000000" font-family="sans-serif" font-size="14" lengthAdjust="spacing" textLength="122" x="553.5" y="1677.9707">-Business business</text><text fill="#000000" font-family="sans-serif" font-size="14" lengthAdjust="spacing" textLength="116" x="553.5" y="1695.5801">-Property property</text><line style="stroke:#181818;stroke-width:0.5;" x1="548.5" x2="709.5" y1="1702.6563" y2="1702.6563"/><text fill="#000000" font-family="sans-serif" font-size="14" lengthAdjust="spacing" textLength="92" x="553.5" y="1721.1895">+getLocation()</text><text fill="#000000" font-family="sans-serif" font-size="14" lengthAdjust="spacing" textLength="67" x="553.5" y="1738.7988">+toString()</text></g><!--class Property--><g id="elem_Property"><rect codeLine="165" fill="#F1F1F1" height="171.2656" id="Property" rx="2.5" ry="2.5" style="stroke:#181818;stroke-width:0.5;" width="206" x="1643" y="1912"/><ellipse cx="1714.75" cy="1928" fill="#ADD1B2" rx="11" ry="11" style="stroke:#181818;stroke-width:1.0;"/><path d="M1717.5156,1923.875 Q1717.6719,1923.6563 1717.8594,1923.5469 Q1718.0469,1923.4375 1718.2656,1923.4375 Q1718.6406,1923.4375 1718.875,1923.7031 Q1719.1094,1923.9531 1719.1094,1924.5625 L1719.1094,1926.0156 Q1719.1094,1926.625 1718.875,1926.8906 Q1718.6406,1927.1563 1718.2656,1927.1563 Q1717.9219,1927.1563 1717.7188,1926.9531 Q1717.5156,1926.7656 1717.4063,1926.25 Q1717.3594,1925.8906 1717.1719,1925.7031 Q1716.8438,1925.3281 1716.2344,1925.1094 Q1715.625,1924.8906 1715,1924.8906 Q1714.2344,1924.8906 1713.5938,1925.2188 Q1712.9688,1925.5469 1712.4688,1926.2969 Q1711.9844,1927.0469 1711.9844,1928.0781 L1711.9844,1929.1719 Q1711.9844,1930.4063 1712.875,1931.2344 Q1713.7656,1932.0469 1715.3594,1932.0469 Q1716.2969,1932.0469 1716.9531,1931.7969 Q1717.3438,1931.6406 1717.7656,1931.2031 Q1718.0313,1930.9375 1718.1719,1930.8594 Q1718.3281,1930.7813 1718.5313,1930.7813 Q1718.8594,1930.7813 1719.1094,1931.0469 Q1719.375,1931.2969 1719.375,1931.6406 Q1719.375,1931.9844 1719.0313,1932.3906 Q1718.5313,1932.9688 1717.7344,1933.2969 Q1716.6563,1933.75 1715.3594,1933.75 Q1713.8438,1933.75 1712.6406,1933.125 Q1711.6563,1932.625 1710.9688,1931.5625 Q1710.2813,1930.4844 1710.2813,1929.2031 L1710.2813,1928.0469 Q1710.2813,1926.7188 1710.8906,1925.5781 Q1711.5156,1924.4219 1712.6094,1923.8125 Q1713.7031,1923.1875 1714.9375,1923.1875 Q1715.6719,1923.1875 1716.3125,1923.3594 Q1716.9688,1923.5156 1717.5156,1923.875 Z " fill="#000000"/><text fill="#000000" font-family="sans-serif" font-size="14" lengthAdjust="spacing" textLength="54" x="1735.25" y="1933.7285">Property</text><line style="stroke:#181818;stroke-width:0.5;" x1="1644" x2="1848" y1="1944" y2="1944"/><text fill="#000000" font-family="sans-serif" font-size="14" lengthAdjust="spacing" textLength="180" x="1649" y="1962.5332">-PropertyType propertyType</text><text fill="#000000" font-family="sans-serif" font-size="14" lengthAdjust="spacing" textLength="83" x="1649" y="1980.1426">-Double area</text><text fill="#000000" font-family="sans-serif" font-size="14" lengthAdjust="spacing" textLength="174" x="1649" y="1997.752">-Double distanceCityCenter</text><text fill="#000000" font-family="sans-serif" font-size="14" lengthAdjust="spacing" textLength="112" x="1649" y="2015.3613">-Location location</text><text fill="#000000" font-family="sans-serif" font-size="14" lengthAdjust="spacing" textLength="194" x="1649" y="2032.9707">-List&lt;Photograph&gt; photograph</text><line style="stroke:#181818;stroke-width:0.5;" x1="1644" x2="1848" y1="2040.0469" y2="2040.0469"/><text fill="#000000" font-family="sans-serif" font-size="14" lengthAdjust="spacing" textLength="92" x="1649" y="2058.5801">+getLocation()</text><text fill="#000000" font-family="sans-serif" font-size="14" lengthAdjust="spacing" textLength="67" x="1649" y="2076.1895">+toString()</text></g><!--class Employee--><g id="elem_Employee"><rect codeLine="175" fill="#F1F1F1" height="83.2188" id="Employee" rx="2.5" ry="2.5" style="stroke:#181818;stroke-width:0.5;" width="136" x="301" y="997"/><ellipse cx="334.9" cy="1013" fill="#ADD1B2" rx="11" ry="11" style="stroke:#181818;stroke-width:1.0;"/><path d="M337.6656,1008.875 Q337.8219,1008.6563 338.0094,1008.5469 Q338.1969,1008.4375 338.4156,1008.4375 Q338.7906,1008.4375 339.025,1008.7031 Q339.2594,1008.9531 339.2594,1009.5625 L339.2594,1011.0156 Q339.2594,1011.625 339.025,1011.8906 Q338.7906,1012.1563 338.4156,1012.1563 Q338.0719,1012.1563 337.8688,1011.9531 Q337.6656,1011.7656 337.5563,1011.25 Q337.5094,1010.8906 337.3219,1010.7031 Q336.9938,1010.3281 336.3844,1010.1094 Q335.775,1009.8906 335.15,1009.8906 Q334.3844,1009.8906 333.7438,1010.2188 Q333.1188,1010.5469 332.6188,1011.2969 Q332.1344,1012.0469 332.1344,1013.0781 L332.1344,1014.1719 Q332.1344,1015.4063 333.025,1016.2344 Q333.9156,1017.0469 335.5094,1017.0469 Q336.4469,1017.0469 337.1031,1016.7969 Q337.4938,1016.6406 337.9156,1016.2031 Q338.1813,1015.9375 338.3219,1015.8594 Q338.4781,1015.7813 338.6813,1015.7813 Q339.0094,1015.7813 339.2594,1016.0469 Q339.525,1016.2969 339.525,1016.6406 Q339.525,1016.9844 339.1813,1017.3906 Q338.6813,1017.9688 337.8844,1018.2969 Q336.8063,1018.75 335.5094,1018.75 Q333.9938,1018.75 332.7906,1018.125 Q331.8063,1017.625 331.1188,1016.5625 Q330.4313,1015.4844 330.4313,1014.2031 L330.4313,1013.0469 Q330.4313,1011.7188 331.0406,1010.5781 Q331.6656,1009.4219 332.7594,1008.8125 Q333.8531,1008.1875 335.0875,1008.1875 Q335.8219,1008.1875 336.4625,1008.3594 Q337.1188,1008.5156 337.6656,1008.875 Z " fill="#000000"/><text fill="#000000" font-family="sans-serif" font-size="14" lengthAdjust="spacing" textLength="62" x="353.1" y="1018.7285">Employee</text><line style="stroke:#181818;stroke-width:0.5;" x1="302" x2="436" y1="1029" y2="1029"/><text fill="#000000" font-family="sans-serif" font-size="14" lengthAdjust="spacing" textLength="103" x="307" y="1047.5332">-String agencyId</text><line style="stroke:#181818;stroke-width:0.5;" x1="302" x2="436" y1="1054.6094" y2="1054.6094"/><text fill="#000000" font-family="sans-serif" font-size="14" lengthAdjust="spacing" textLength="124" x="307" y="1073.1426">+getEmailAddress()</text></g><!--class Person--><g id="elem_Person"><rect codeLine="180" fill="#F1F1F1" height="241.7031" id="Person" rx="2.5" ry="2.5" style="stroke:#181818;stroke-width:0.5;" width="197" x="17.5" y="1202"/><ellipse cx="89.25" cy="1218" fill="#ADD1B2" rx="11" ry="11" style="stroke:#181818;stroke-width:1.0;"/><path d="M92.0156,1213.875 Q92.1719,1213.6563 92.3594,1213.5469 Q92.5469,1213.4375 92.7656,1213.4375 Q93.1406,1213.4375 93.375,1213.7031 Q93.6094,1213.9531 93.6094,1214.5625 L93.6094,1216.0156 Q93.6094,1216.625 93.375,1216.8906 Q93.1406,1217.1563 92.7656,1217.1563 Q92.4219,1217.1563 92.2188,1216.9531 Q92.0156,1216.7656 91.9063,1216.25 Q91.8594,1215.8906 91.6719,1215.7031 Q91.3438,1215.3281 90.7344,1215.1094 Q90.125,1214.8906 89.5,1214.8906 Q88.7344,1214.8906 88.0938,1215.2188 Q87.4688,1215.5469 86.9688,1216.2969 Q86.4844,1217.0469 86.4844,1218.0781 L86.4844,1219.1719 Q86.4844,1220.4063 87.375,1221.2344 Q88.2656,1222.0469 89.8594,1222.0469 Q90.7969,1222.0469 91.4531,1221.7969 Q91.8438,1221.6406 92.2656,1221.2031 Q92.5313,1220.9375 92.6719,1220.8594 Q92.8281,1220.7813 93.0313,1220.7813 Q93.3594,1220.7813 93.6094,1221.0469 Q93.875,1221.2969 93.875,1221.6406 Q93.875,1221.9844 93.5313,1222.3906 Q93.0313,1222.9688 92.2344,1223.2969 Q91.1563,1223.75 89.8594,1223.75 Q88.3438,1223.75 87.1406,1223.125 Q86.1563,1222.625 85.4688,1221.5625 Q84.7813,1220.4844 84.7813,1219.2031 L84.7813,1218.0469 Q84.7813,1216.7188 85.3906,1215.5781 Q86.0156,1214.4219 87.1094,1213.8125 Q88.2031,1213.1875 89.4375,1213.1875 Q90.1719,1213.1875 90.8125,1213.3594 Q91.4688,1213.5156 92.0156,1213.875 Z " fill="#000000"/><text fill="#000000" font-family="sans-serif" font-size="14" lengthAdjust="spacing" textLength="45" x="109.75" y="1223.7285">Person</text><line style="stroke:#181818;stroke-width:0.5;" x1="18.5" x2="213.5" y1="1234" y2="1234"/><text fill="#000000" font-family="sans-serif" font-size="14" lengthAdjust="spacing" textLength="85" x="23.5" y="1252.5332">-String name;</text><text fill="#000000" font-family="sans-serif" font-size="14" lengthAdjust="spacing" textLength="117" x="23.5" y="1270.1426">-String taxNumber;</text><text fill="#000000" font-family="sans-serif" font-size="14" lengthAdjust="spacing" textLength="132" x="23.5" y="1287.752">-Email emailAddress;</text><text fill="#000000" font-family="sans-serif" font-size="14" lengthAdjust="spacing" textLength="139" x="23.5" y="1305.3613">-String phoneNumber;</text><text fill="#000000" font-family="sans-serif" font-size="14" lengthAdjust="spacing" textLength="185" x="23.5" y="1322.9707">-String passportCardNumber;</text><text fill="#000000" font-family="sans-serif" font-size="14" lengthAdjust="spacing" textLength="119" x="23.5" y="1340.5801">-List&lt;String&gt; roles;</text><text fill="#000000" font-family="sans-serif" font-size="14" lengthAdjust="spacing" textLength="116" x="23.5" y="1358.1895">-Location location;</text><line style="stroke:#181818;stroke-width:0.5;" x1="18.5" x2="213.5" y1="1365.2656" y2="1365.2656"/><text fill="#000000" font-family="sans-serif" font-size="14" lengthAdjust="spacing" textLength="74" x="23.5" y="1383.7988">+getName()</text><text fill="#000000" font-family="sans-serif" font-size="14" lengthAdjust="spacing" textLength="128" x="23.5" y="1401.4082">+getPhoneNumber()</text><text fill="#000000" font-family="sans-serif" font-size="14" lengthAdjust="spacing" textLength="124" x="23.5" y="1419.0176">+getEmailAddress()</text><text fill="#000000" font-family="sans-serif" font-size="14" lengthAdjust="spacing" textLength="137" x="23.5" y="1436.627">+hasEmail(userEmail)</text></g><!--class PersonRepository--><g id="elem_PersonRepository"><rect codeLine="194" fill="#F1F1F1" height="65.6094" id="PersonRepository" rx="2.5" ry="2.5" style="stroke:#181818;stroke-width:0.5;" width="207" x="247.5" y="800.5"/><ellipse cx="290.4" cy="816.5" fill="#ADD1B2" rx="11" ry="11" style="stroke:#181818;stroke-width:1.0;"/><path d="M293.1656,812.375 Q293.3219,812.1563 293.5094,812.0469 Q293.6969,811.9375 293.9156,811.9375 Q294.2906,811.9375 294.525,812.2031 Q294.7594,812.4531 294.7594,813.0625 L294.7594,814.5156 Q294.7594,815.125 294.525,815.3906 Q294.2906,815.6563 293.9156,815.6563 Q293.5719,815.6563 293.3688,815.4531 Q293.1656,815.2656 293.0563,814.75 Q293.0094,814.3906 292.8219,814.2031 Q292.4938,813.8281 291.8844,813.6094 Q291.275,813.3906 290.65,813.3906 Q289.8844,813.3906 289.2438,813.7188 Q288.6188,814.0469 288.1188,814.7969 Q287.6344,815.5469 287.6344,816.5781 L287.6344,817.6719 Q287.6344,818.9063 288.525,819.7344 Q289.4156,820.5469 291.0094,820.5469 Q291.9469,820.5469 292.6031,820.2969 Q292.9938,820.1406 293.4156,819.7031 Q293.6813,819.4375 293.8219,819.3594 Q293.9781,819.2813 294.1813,819.2813 Q294.5094,819.2813 294.7594,819.5469 Q295.025,819.7969 295.025,820.1406 Q295.025,820.4844 294.6813,820.8906 Q294.1813,821.4688 293.3844,821.7969 Q292.3063,822.25 291.0094,822.25 Q289.4938,822.25 288.2906,821.625 Q287.3063,821.125 286.6188,820.0625 Q285.9313,818.9844 285.9313,817.7031 L285.9313,816.5469 Q285.9313,815.2188 286.5406,814.0781 Q287.1656,812.9219 288.2594,812.3125 Q289.3531,811.6875 290.5875,811.6875 Q291.3219,811.6875 291.9625,811.8594 Q292.6188,812.0156 293.1656,812.375 Z " fill="#000000"/><text fill="#000000" font-family="sans-serif" font-size="14" lengthAdjust="spacing" textLength="113" x="310.6" y="822.2285">PersonRepository</text><line style="stroke:#181818;stroke-width:0.5;" x1="248.5" x2="453.5" y1="832.5" y2="832.5"/><line style="stroke:#181818;stroke-width:0.5;" x1="248.5" x2="453.5" y1="840.5" y2="840.5"/><text fill="#000000" font-family="sans-serif" font-size="14" lengthAdjust="spacing" textLength="195" x="253.5" y="859.0332">+getPersonByEmail(userEmail)</text></g><!--class CriteriaRepository--><g id="elem_CriteriaRepository"><rect codeLine="198" fill="#F1F1F1" height="65.6094" id="CriteriaRepository" rx="2.5" ry="2.5" style="stroke:#181818;stroke-width:0.5;" width="146" x="561" y="800.5"/><ellipse cx="576" cy="816.5" fill="#ADD1B2" rx="11" ry="11" style="stroke:#181818;stroke-width:1.0;"/><path d="M578.7656,812.375 Q578.9219,812.1563 579.1094,812.0469 Q579.2969,811.9375 579.5156,811.9375 Q579.8906,811.9375 580.125,812.2031 Q580.3594,812.4531 580.3594,813.0625 L580.3594,814.5156 Q580.3594,815.125 580.125,815.3906 Q579.8906,815.6563 579.5156,815.6563 Q579.1719,815.6563 578.9688,815.4531 Q578.7656,815.2656 578.6563,814.75 Q578.6094,814.3906 578.4219,814.2031 Q578.0938,813.8281 577.4844,813.6094 Q576.875,813.3906 576.25,813.3906 Q575.4844,813.3906 574.8438,813.7188 Q574.2188,814.0469 573.7188,814.7969 Q573.2344,815.5469 573.2344,816.5781 L573.2344,817.6719 Q573.2344,818.9063 574.125,819.7344 Q575.0156,820.5469 576.6094,820.5469 Q577.5469,820.5469 578.2031,820.2969 Q578.5938,820.1406 579.0156,819.7031 Q579.2813,819.4375 579.4219,819.3594 Q579.5781,819.2813 579.7813,819.2813 Q580.1094,819.2813 580.3594,819.5469 Q580.625,819.7969 580.625,820.1406 Q580.625,820.4844 580.2813,820.8906 Q579.7813,821.4688 578.9844,821.7969 Q577.9063,822.25 576.6094,822.25 Q575.0938,822.25 573.8906,821.625 Q572.9063,821.125 572.2188,820.0625 Q571.5313,818.9844 571.5313,817.7031 L571.5313,816.5469 Q571.5313,815.2188 572.1406,814.0781 Q572.7656,812.9219 573.8594,812.3125 Q574.9531,811.6875 576.1875,811.6875 Q576.9219,811.6875 577.5625,811.8594 Q578.2188,812.0156 578.7656,812.375 Z " fill="#000000"/><text fill="#000000" font-family="sans-serif" font-size="14" lengthAdjust="spacing" textLength="114" x="590" y="822.2285">CriteriaRepository</text><line style="stroke:#181818;stroke-width:0.5;" x1="562" x2="706" y1="832.5" y2="832.5"/><line style="stroke:#181818;stroke-width:0.5;" x1="562" x2="706" y1="840.5" y2="840.5"/><text fill="#000000" font-family="sans-serif" font-size="14" lengthAdjust="spacing" textLength="106" x="567" y="859.0332">+getCriteriaList()</text></g><g id="elem_GMN31"><path d="M59.5,812 L59.5,854.7031 A0,0 0 0 0 59.5,854.7031 L212.5,854.7031 A0,0 0 0 0 212.5,854.7031 L212.5,837.5 L247.4,833.5 L212.5,829.5 L212.5,822 L202.5,812 L59.5,812 A0,0 0 0 0 59.5,812 " fill="#FEFFDD" style="stroke:#181818;stroke-width:0.5;"/><path d="M202.5,812 L202.5,822 L212.5,822 L202.5,812 " fill="#FEFFDD" style="stroke:#181818;stroke-width:0.5;"/><text fill="#000000" font-family="sans-serif" font-size="13" lengthAdjust="spacing" textLength="132" x="65.5" y="830.4951">- userEmail is retrieved</text><text fill="#000000" font-family="sans-serif" font-size="13" lengthAdjust="spacing" textLength="103" x="65.5" y="846.8467">from user session</text></g><!--class Notification--><g id="elem_Notification"><rect codeLine="207" fill="#F1F1F1" height="76.3125" id="Notification" rx="2.5" ry="2.5" style="stroke:#181818;stroke-width:0.5;" width="163" x="540.5" y="1959.5"/><ellipse cx="582.95" cy="1980.8516" fill="#B4A7E5" rx="11" ry="11" style="stroke:#181818;stroke-width:1.0;"/><path d="M583.9031,1977.4922 L583.9031,1984.1484 L585.6219,1984.1484 Q586.2313,1984.1484 586.4969,1984.3828 Q586.7625,1984.6172 586.7625,1985.0078 Q586.7625,1985.3828 586.4969,1985.6172 Q586.2313,1985.8516 585.6219,1985.8516 L580.4813,1985.8516 Q579.8719,1985.8516 579.6063,1985.6172 Q579.3406,1985.3828 579.3406,1984.9922 Q579.3406,1984.6172 579.6063,1984.3828 Q579.8719,1984.1484 580.4813,1984.1484 L582.2,1984.1484 L582.2,1977.4922 L580.4813,1977.4922 Q579.8719,1977.4922 579.6063,1977.2578 Q579.3406,1977.0234 579.3406,1976.6328 Q579.3406,1976.2578 579.6063,1976.0234 Q579.8719,1975.7891 580.4813,1975.7891 L585.6219,1975.7891 Q586.2313,1975.7891 586.4969,1976.0234 Q586.7625,1976.2578 586.7625,1976.6328 Q586.7625,1977.0234 586.4969,1977.2578 Q586.2313,1977.4922 585.6219,1977.4922 L583.9031,1977.4922 Z " fill="#000000"/><text fill="#000000" font-family="sans-serif" font-size="12" font-style="italic" lengthAdjust="spacing" textLength="62" x="607.05" y="1976.957">«Interface»</text><text fill="#000000" font-family="sans-serif" font-size="14" font-style="italic" lengthAdjust="spacing" textLength="70" x="603.05" y="1994.127">Notification</text><line style="stroke:#181818;stroke-width:0.5;" x1="541.5" x2="702.5" y1="2002.2031" y2="2002.2031"/><line style="stroke:#181818;stroke-width:0.5;" x1="541.5" x2="702.5" y1="2010.2031" y2="2010.2031"/><text fill="#000000" font-family="sans-serif" font-size="14" lengthAdjust="spacing" textLength="151" x="546.5" y="2028.7363">+sendNotification(email)</text></g><!--link ScheduleVisitUI to ScheduleVisitController--><g id="link_ScheduleVisitUI_ScheduleVisitController"><path codeLine="213" d="M1784.67,125.09 C1701.1,160.61 1536.56,230.55 1402.01,287.74 " fill="none" id="ScheduleVisitUI-to-ScheduleVisitController" style="stroke:#181818;stroke-width:1.0;stroke-dasharray:7.0,7.0;"/><polygon fill="#181818" points="1397.24,289.76,1407.0876,289.9172,1401.8409,287.8025,1403.9556,282.5558,1397.24,289.76" style="stroke:#181818;stroke-width:1.0;"/></g><!--link Repositories to Repositories--><g id="link_Repositories_Repositories"><path codeLine="215" d="M941.26,618.01 C961.58,620.21 976,626.54 976,637 C976,646.56 963.95,652.67 946.36,655.33 " fill="none" id="Repositories-to-Repositories" style="stroke:#181818;stroke-width:1.0;"/><polygon fill="#181818" points="941.26,655.99,950.6997,658.7993,946.2185,655.347,949.6708,650.8658,941.26,655.99" style="stroke:#181818;stroke-width:1.0;"/><text fill="#000000" font-family="sans-serif" font-size="13" lengthAdjust="spacing" textLength="49" x="982" y="642.4951">instance</text></g><!--link AuthenticationRepository to AuthenticationRepository--><g id="link_AuthenticationRepository_AuthenticationRepository"><path codeLine="217" d="M932.23,818.98 C952.42,820.46 967,825.3 967,833.5 C967,841 954.82,845.69 937.31,847.56 " fill="none" id="AuthenticationRepository-to-AuthenticationRepository" style="stroke:#181818;stroke-width:1.0;"/><polygon fill="#181818" points="932.23,848.02,941.5585,851.1791,937.209,847.5622,940.8259,843.2127,932.23,848.02" style="stroke:#181818;stroke-width:1.0;"/><text fill="#000000" font-family="sans-serif" font-size="13" lengthAdjust="spacing" textLength="49" x="973" y="838.9951">instance</text></g><!--link AuthenticationRepository to UserSession--><g id="link_AuthenticationRepository_UserSession"><path codeLine="219" d="M837,866.67 C837,903.04 837,962.18 837,1000.46 " fill="none" id="AuthenticationRepository-to-UserSession" style="stroke:#181818;stroke-width:1.0;"/><polygon fill="#181818" points="837,1005.48,841,996.48,837,1000.48,833,996.48,837,1005.48" style="stroke:#181818;stroke-width:1.0;"/><text fill="#000000" font-family="sans-serif" font-size="13" lengthAdjust="spacing" textLength="7" x="829.2781" y="994.5913">1</text></g><!--link ScheduleVisitController to AuthenticationRepository--><g id="link_ScheduleVisitController_AuthenticationRepository"><path codeLine="221" d="M1136.26,499.47 C1091.82,595.51 1037,714 1037,714 C1037,714 954.7,762.76 895.69,797.73 " fill="none" id="ScheduleVisitController-to-AuthenticationRepository" style="stroke:#181818;stroke-width:1.0;stroke-dasharray:7.0,7.0;"/><polygon fill="#181818" points="891.12,800.43,900.9,799.2678,895.4175,797.8743,896.811,792.3918,891.12,800.43" style="stroke:#181818;stroke-width:1.0;"/></g><!--link ScheduleVisitController to Repositories--><g id="link_ScheduleVisitController_Repositories"><path codeLine="223" d="M1026.19,499.03 C998.76,518.89 970.96,539.02 945.42,557.51 " fill="none" id="ScheduleVisitController-to-Repositories" style="stroke:#181818;stroke-width:1.0;stroke-dasharray:7.0,7.0;"/><polygon fill="#181818" points="941.34,560.47,950.9752,558.4296,945.3892,557.5368,946.2821,551.9509,941.34,560.47" style="stroke:#181818;stroke-width:1.0;"/></g><!--link Repositories to PersonRepository--><g id="link_Repositories_PersonRepository"><path codeLine="225" d="M732.74,679.73 C644.14,715.18 518.53,765.45 435.94,798.51 " fill="none" id="Repositories-to-PersonRepository" style="stroke:#181818;stroke-width:1.0;"/><polygon fill="#181818" points="431.06,800.46,440.9019,800.8314,435.7024,798.603,437.9307,793.4036,431.06,800.46" style="stroke:#181818;stroke-width:1.0;"/><text fill="#000000" font-family="sans-serif" font-size="13" lengthAdjust="spacing" textLength="7" x="718.1631" y="679.6915">1</text><text fill="#000000" font-family="sans-serif" font-size="13" lengthAdjust="spacing" textLength="7" x="439.8505" y="789.5672">1</text></g><!--link Repositories to CriteriaRepository--><g id="link_Repositories_CriteriaRepository"><path codeLine="227" d="M757.64,714.03 C727.88,742.55 695.44,773.63 671.26,796.8 " fill="none" id="Repositories-to-CriteriaRepository" style="stroke:#181818;stroke-width:1.0;"/><polygon fill="#181818" points="667.45,800.45,676.7121,797.1012,671.0564,796.9867,671.1709,791.331,667.45,800.45" style="stroke:#181818;stroke-width:1.0;"/><text fill="#000000" font-family="sans-serif" font-size="13" lengthAdjust="spacing" textLength="7" x="743.2603" y="735.1291">1</text><text fill="#000000" font-family="sans-serif" font-size="13" lengthAdjust="spacing" textLength="7" x="666.6272" y="789.5551">1</text></g><!--link Repositories to AgencyRepository--><g id="link_Repositories_AgencyRepository"><path codeLine="229" d="M941.33,692.7 C999.8,723.35 1071.68,761.03 1126.07,789.55 " fill="none" id="Repositories-to-AgencyRepository" style="stroke:#181818;stroke-width:1.0;"/><polygon fill="#181818" points="1130.62,791.93,1124.4961,784.2165,1126.1886,789.6142,1120.7909,791.3067,1130.62,791.93" style="stroke:#181818;stroke-width:1.0;"/><text fill="#000000" font-family="sans-serif" font-size="13" lengthAdjust="spacing" textLength="7" x="948.9118" y="693.5735">1</text><text fill="#000000" font-family="sans-serif" font-size="13" lengthAdjust="spacing" textLength="7" x="1110.2243" y="781.2261">1</text></g><!--link Repositories to AuthenticationRepository--><g id="link_Repositories_AuthenticationRepository"><path codeLine="231" d="M837,714.03 C837,741.97 837,772.36 837,795.36 " fill="none" id="Repositories-to-AuthenticationRepository" style="stroke:#181818;stroke-width:1.0;"/><polygon fill="#181818" points="837,800.45,841,791.45,837,795.45,833,791.45,837,800.45" style="stroke:#181818;stroke-width:1.0;"/><text fill="#000000" font-family="sans-serif" font-size="13" lengthAdjust="spacing" textLength="7" x="829.6883" y="735.1291">1</text><text fill="#000000" font-family="sans-serif" font-size="13" lengthAdjust="spacing" textLength="7" x="829.2781" y="789.5551">1</text></g><!--link ScheduleVisitController to PersonRepository--><g id="link_ScheduleVisitController_PersonRepository"><path codeLine="233" d="M986.64,422.39 C776.95,466.69 482,529 482,529 C482,529 401.84,714.73 366.93,795.6 " fill="none" id="ScheduleVisitController-to-PersonRepository" style="stroke:#181818;stroke-width:1.0;stroke-dasharray:7.0,7.0;"/><polygon fill="#181818" points="364.9,800.31,372.1469,793.6405,366.8868,795.7217,364.8057,790.4616,364.9,800.31" style="stroke:#181818;stroke-width:1.0;"/></g><!--link ScheduleVisitController to CriteriaRepository--><g id="link_ScheduleVisitController_CriteriaRepository"><path codeLine="235" d="M986.94,456.81 C857.66,505.87 715,560 715,560 C715,560 667.26,720.6 645.08,795.22 " fill="none" id="ScheduleVisitController-to-CriteriaRepository" style="stroke:#181818;stroke-width:1.0;stroke-dasharray:7.0,7.0;"/><polygon fill="#181818" points="643.53,800.44,649.9372,792.9602,644.9602,795.6489,642.2714,790.6719,643.53,800.44" style="stroke:#181818;stroke-width:1.0;"/></g><!--link ScheduleVisitController to AgencyRepository--><g id="link_ScheduleVisitController_AgencyRepository"><path codeLine="237" d="M1196.24,499.04 C1199.57,593.54 1204.03,720.07 1206.39,786.83 " fill="none" id="ScheduleVisitController-to-AgencyRepository" style="stroke:#181818;stroke-width:1.0;stroke-dasharray:7.0,7.0;"/><polygon fill="#181818" points="1206.57,791.92,1210.2593,782.7882,1206.3987,786.9229,1202.264,783.0623,1206.57,791.92" style="stroke:#181818;stroke-width:1.0;"/></g><!--link ScheduleVisitController to Agency--><g id="link_ScheduleVisitController_Agency"><path codeLine="239" d="M1230.48,499.47 C1261.15,595.51 1299,714 1299,714 C1299,714 1388,792 1388,792 C1388,792 1388,875 1388,875 C1388,875 1322.59,912.69 1254.77,951.77 " fill="none" id="ScheduleVisitController-to-Agency" style="stroke:#181818;stroke-width:1.0;stroke-dasharray:7.0,7.0;"/><polygon fill="#181818" points="1250.3,954.35,1260.0955,953.3265,1254.6333,951.8555,1256.1043,946.3933,1250.3,954.35" style="stroke:#181818;stroke-width:1.0;"/></g><!--link AgencyRepository to Agency--><g id="link_AgencyRepository_Agency"><path codeLine="241" d="M1187.6,875.09 C1177.04,896.11 1163.7,922.67 1150.88,948.18 " fill="none" id="AgencyRepository-to-Agency" style="stroke:#181818;stroke-width:1.0;"/><polygon fill="#181818" points="1148.49,952.93,1156.1006,946.6787,1150.7318,948.4607,1148.9498,943.0919,1148.49,952.93" style="stroke:#181818;stroke-width:1.0;"/><text fill="#000000" font-family="sans-serif" font-size="13" lengthAdjust="spacing" textLength="64" x="1174" y="919.4951">aggregates</text><text fill="#000000" font-family="sans-serif" font-size="13" lengthAdjust="spacing" textLength="7" x="1176.6416" y="896.8095">1</text><text fill="#000000" font-family="sans-serif" font-size="13" lengthAdjust="spacing" textLength="5" x="1147.0516" y="942.0954">*</text></g><!--link PersonRepository to Person--><g id="link_PersonRepository_Person"><path codeLine="243" d="M314.74,866.57 C275.05,901.66 217,953 217,953 C217,953 146,1154 146,1154 C146,1154 142.74,1172.25 138.37,1196.72 " fill="none" id="PersonRepository-to-Person" style="stroke:#181818;stroke-width:1.0;"/><polygon fill="#181818" points="137.48,1201.69,143.0088,1193.5394,138.3644,1196.7688,135.135,1192.1244,137.48,1201.69" style="stroke:#181818;stroke-width:1.0;"/><text fill="#000000" font-family="sans-serif" font-size="13" lengthAdjust="spacing" textLength="64" x="218" y="1043.9951">aggregates</text><text fill="#000000" font-family="sans-serif" font-size="13" lengthAdjust="spacing" textLength="7" x="300.4093" y="887.7058">1</text><text fill="#000000" font-family="sans-serif" font-size="13" lengthAdjust="spacing" textLength="5" x="133.6366" y="1191.325">*</text></g><!--link ScheduleVisitController to Person--><g id="link_ScheduleVisitController_Person"><path codeLine="245" d="M986.73,421.88 C774.54,466.21 474,529 474,529 C474,529 6,636 6,636 C6,636 6,636 6,1039.5 C6,1039.5 37.84,1121.27 67.26,1196.82 " fill="none" id="ScheduleVisitController-to-Person" style="stroke:#181818;stroke-width:1.0;stroke-dasharray:7.0,7.0;"/><polygon fill="#181818" points="69.19,1201.78,69.6502,1191.9419,67.375,1197.1211,62.1959,1194.8459,69.19,1201.78" style="stroke:#181818;stroke-width:1.0;"/></g><!--link ScheduleVisitController to Visit--><g id="link_ScheduleVisitController_Visit"><path codeLine="247" d="M1397.04,428.22 C1620.31,481.82 1946,560 1946,560 C1946,560 2052,752 2052,752 C2052,752 2052,752 2052,1652.5 C2052,1652.5 1492.33,1836.03 1190.59,1934.98 " fill="none" id="ScheduleVisitController-to-Visit" style="stroke:#181818;stroke-width:1.0;stroke-dasharray:7.0,7.0;"/><polygon fill="#181818" points="1185.72,1936.58,1195.5187,1937.573,1190.4705,1935.0203,1193.0232,1929.9722,1185.72,1936.58" style="stroke:#181818;stroke-width:1.0;"/></g><!--link ScheduleVisitController to Announcement--><g id="link_ScheduleVisitController_Announcement"><path codeLine="249" d="M986.71,449.11 C837.65,500.01 662,560 662,560 C662,560 508,636 508,636 C508,636 508,636 508,1039.5 C508,1039.5 668,1202 668,1202 C668,1202 725,1444 725,1444 C725,1444 771.78,1478.75 826.96,1519.74 " fill="none" id="ScheduleVisitController-to-Announcement" style="stroke:#181818;stroke-width:1.0;stroke-dasharray:7.0,7.0;"/><polygon fill="#181818" points="831.29,1522.95,826.4557,1514.3693,827.278,1519.966,821.6813,1520.7884,831.29,1522.95" style="stroke:#181818;stroke-width:1.0;"/></g><!--link ScheduleVisitController to AnnouncementMapper--><g id="link_ScheduleVisitController_AnnouncementMapper"><path codeLine="251" d="M1326.72,499.22 C1363.85,532.35 1401.81,566.22 1430.66,591.97 " fill="none" id="ScheduleVisitController-to-AnnouncementMapper" style="stroke:#181818;stroke-width:1.0;stroke-dasharray:7.0,7.0;"/><polygon fill="#181818" points="1434.49,595.39,1430.4399,586.4124,1430.7601,592.0602,1425.1123,592.3803,1434.49,595.39" style="stroke:#181818;stroke-width:1.0;"/></g><!--link AnnouncementMapper to Announcement--><g id="link_AnnouncementMapper_Announcement"><path codeLine="253" d="M1497.62,678.56 C1553.8,807.88 1725,1202 1725,1202 C1725,1202 1725,1444 1725,1444 C1725,1444 1393.33,1538.86 1179.59,1599.99 " fill="none" id="AnnouncementMapper-to-Announcement" style="stroke:#181818;stroke-width:1.0;stroke-dasharray:7.0,7.0;"/><polygon fill="#181818" points="1174.56,1601.43,1184.3115,1602.8113,1179.3687,1600.0602,1182.1198,1595.1173,1174.56,1601.43" style="stroke:#181818;stroke-width:1.0;"/></g><!--link AnnouncementMapper to AnnouncementDto--><g id="link_AnnouncementMapper_AnnouncementDto"><path codeLine="255" d="M1546.47,678.6 C1605.67,714.77 1683,762 1683,762 C1683,762 1706.82,774.82 1734.14,789.52 " fill="none" id="AnnouncementMapper-to-AnnouncementDto" style="stroke:#181818;stroke-width:1.0;stroke-dasharray:7.0,7.0;"/><polygon fill="#181818" points="1738.56,791.9,1732.5352,784.1089,1734.1586,789.5278,1728.7396,791.1512,1738.56,791.9" style="stroke:#181818;stroke-width:1.0;"/></g><!--link AnnouncementMapper to AnnouncementListDto--><g id="link_AnnouncementMapper_AnnouncementListDto"><path codeLine="257" d="M1643.55,637 C1677.7,637 1719.33,637 1719.33,637 C1719.33,637 1729.86,637 1744.66,637 " fill="none" id="AnnouncementMapper-to-AnnouncementListDto" style="stroke:#181818;stroke-width:1.0;stroke-dasharray:7.0,7.0;"/><polygon fill="#181818" points="1749.84,637,1740.84,633,1744.84,637,1740.84,641,1749.84,637" style="stroke:#181818;stroke-width:1.0;"/></g><!--link ScheduleVisitController to AnnouncementListDto--><g id="link_ScheduleVisitController_AnnouncementListDto"><path codeLine="259" d="M1397.3,436.99 C1546.72,479.2 1723,529 1723,529 C1723,529 1762.01,564.99 1794.79,595.22 " fill="none" id="ScheduleVisitController-to-AnnouncementListDto" style="stroke:#181818;stroke-width:1.0;stroke-dasharray:7.0,7.0;"/><polygon fill="#181818" points="1798.75,598.88,1794.8645,589.83,1795.0815,595.4827,1789.4288,595.6996,1798.75,598.88" style="stroke:#181818;stroke-width:1.0;"/></g><!--link ScheduleVisitController to AnnouncementDto--><g id="link_ScheduleVisitController_AnnouncementDto"><path codeLine="261" d="M1397.03,458.13 C1523.23,506.83 1661,560 1661,560 C1661,560 1733,714 1733,714 C1733,714 1760.2,753.79 1783.07,787.25 " fill="none" id="ScheduleVisitController-to-AnnouncementDto" style="stroke:#181818;stroke-width:1.0;stroke-dasharray:7.0,7.0;"/><polygon fill="#181818" points="1786.12,791.72,1784.3331,782.0346,1783.294,787.5952,1777.7334,786.5562,1786.12,791.72" style="stroke:#181818;stroke-width:1.0;"/></g><!--link ScheduleVisitUI to AnnouncementListDto--><g id="link_ScheduleVisitUI_AnnouncementListDto"><path codeLine="263" d="M1839,125.29 C1839,207.71 1839,486.35 1839,593.51 " fill="none" id="ScheduleVisitUI-to-AnnouncementListDto" style="stroke:#181818;stroke-width:1.0;stroke-dasharray:7.0,7.0;"/><polygon fill="#181818" points="1839,598.79,1843,589.79,1839,593.79,1835,589.79,1839,598.79" style="stroke:#181818;stroke-width:1.0;"/></g><!--link ScheduleVisitUI to AnnouncementDto--><g id="link_ScheduleVisitUI_AnnouncementDto"><path codeLine="265" d="M1844.38,125.03 C1866.08,217.9 1946,560 1946,560 C1946,560 1946,714 1946,714 C1946,714 1897,762 1897,762 C1897,762 1882.52,774.3 1865.66,788.62 " fill="none" id="ScheduleVisitUI-to-AnnouncementDto" style="stroke:#181818;stroke-width:1.0;stroke-dasharray:7.0,7.0;"/><polygon fill="#181818" points="1861.8,791.9,1871.2538,789.1385,1865.6164,788.6696,1866.0852,783.0323,1861.8,791.9" style="stroke:#181818;stroke-width:1.0;"/></g><!--link AnnouncementListDto to AnnouncementDto--><g id="link_AnnouncementListDto_AnnouncementDto"><path codeLine="267" d="M1834.24,675.04 C1830.16,706.74 1824.28,752.51 1819.91,786.55 " fill="none" id="AnnouncementListDto-to-AnnouncementDto" style="stroke:#181818;stroke-width:1.0;"/><polygon fill="#181818" points="1819.22,791.9,1824.3442,783.4892,1819.863,786.9415,1816.4107,782.4603,1819.22,791.9" style="stroke:#181818;stroke-width:1.0;"/><polygon fill="#000000" points="1829.3627,758.135,1833.4305,749.5383,1827.6006,748.7891,1829.3627,758.135" style="stroke:#000000;stroke-width:1.0;"/><text fill="#000000" font-family="sans-serif" font-size="13" lengthAdjust="spacing" textLength="49" x="1839" y="758.4951">contains</text></g><!--reverse link Employee to Person--><g id="link_Employee_Person"><path codeLine="269" d="M296.05,1079.08 C235.07,1112.18 158,1154 158,1154 C158,1154 152.81,1174.76 146.08,1201.69 " fill="none" id="Employee-backto-Person" style="stroke:#181818;stroke-width:1.0;"/><polygon fill="#181818" points="300.79,1076.52,290.9716,1077.2935,296.3945,1078.9033,294.7848,1084.3262,300.79,1076.52" style="stroke:#181818;stroke-width:1.0;"/><polygon fill="#000000" points="159.129,1166.3405,167.9919,1162.8907,164.2715,1158.3401,159.129,1166.3405" style="stroke:#000000;stroke-width:1.0;"/><text fill="#000000" font-family="sans-serif" font-size="13" lengthAdjust="spacing" textLength="82" x="172" y="1168.4951">represented in</text><text fill="#000000" font-family="sans-serif" font-size="13" lengthAdjust="spacing" textLength="7" x="285.9467" y="1077.3058">1</text><text fill="#000000" font-family="sans-serif" font-size="13" lengthAdjust="spacing" textLength="7" x="140.6997" y="1191.325">1</text></g><!--link Employee to Announcement--><g id="link_Employee_Announcement"><path codeLine="270" d="M384.07,1080.14 C422.11,1182.71 519,1444 519,1444 C519,1444 728,1522 728,1522 C728,1522 773.03,1543.04 826.64,1568.09 " fill="none" id="Employee-to-Announcement" style="stroke:#181818;stroke-width:1.0;"/><polygon fill="#181818" points="831.18,1570.21,824.7172,1562.7782,826.6494,1568.0948,821.3328,1570.0271,831.18,1570.21" style="stroke:#181818;stroke-width:1.0;"/><polygon fill="#000000" points="520.6409,1319.4722,524.5407,1328.1465,528.8945,1324.1976,520.6409,1319.4722" style="stroke:#000000;stroke-width:1.0;"/><text fill="#000000" font-family="sans-serif" font-size="13" lengthAdjust="spacing" textLength="87" x="533" y="1328.4951">is published by</text><text fill="#000000" font-family="sans-serif" font-size="13" lengthAdjust="spacing" textLength="7" x="378.9863" y="1101.8677">1</text><text fill="#000000" font-family="sans-serif" font-size="13" lengthAdjust="spacing" textLength="5" x="818.2811" y="1563.66">*</text></g><!--link Employee to Visit--><g id="link_Employee_Visit"><path codeLine="271" d="M374.53,1080.14 C388.47,1182.71 424,1444 424,1444 C424,1444 530,1781 530,1781 C530,1781 721,1859 721,1859 C721,1859 763.6,1879.77 815.68,1905.17 " fill="none" id="Employee-to-Visit" style="stroke:#181818;stroke-width:1.0;"/><polygon fill="#181818" points="820.42,1907.48,814.0914,1899.9336,815.9281,1905.2839,810.5777,1907.1206,820.42,1907.48" style="stroke:#181818;stroke-width:1.0;"/><polygon fill="#000000" points="446.3577,1487.585,444.6843,1478.2228,439.5009,1480.9944,446.3577,1487.585" style="stroke:#000000;stroke-width:1.0;"/><text fill="#000000" font-family="sans-serif" font-size="13" lengthAdjust="spacing" textLength="59" x="453" y="1488.4951">schedules</text><text fill="#000000" font-family="sans-serif" font-size="13" lengthAdjust="spacing" textLength="7" x="367.8662" y="1101.8677">1</text><text fill="#000000" font-family="sans-serif" font-size="13" lengthAdjust="spacing" textLength="5" x="807.6119" y="1900.849">*</text></g><!--link Person to Visit--><g id="link_Person_Visit"><path codeLine="272" d="M135.44,1444.07 C157.37,1579.47 190,1781 190,1781 C190,1781 255,1829 255,1829 C255,1829 721,1859 721,1859 C721,1859 763.6,1879.77 815.68,1905.17 " fill="none" id="Person-to-Visit" style="stroke:#181818;stroke-width:1.0;"/><polygon fill="#181818" points="820.42,1907.48,814.0914,1899.9336,815.9281,1905.2839,810.5777,1907.1206,820.42,1907.48" style="stroke:#181818;stroke-width:1.0;"/><polygon fill="#000000" points="199.1388,1654.4812,193.3007,1646.9734,190.0027,1651.8388,199.1388,1654.4812" style="stroke:#000000;stroke-width:1.0;"/><text fill="#000000" font-family="sans-serif" font-size="13" lengthAdjust="spacing" textLength="50" x="204" y="1656.9951">requests</text><text fill="#000000" font-family="sans-serif" font-size="13" lengthAdjust="spacing" textLength="7" x="129.3615" y="1465.0457">1</text><text fill="#000000" font-family="sans-serif" font-size="13" lengthAdjust="spacing" textLength="5" x="807.6119" y="1917.524">*</text></g><!--link Visit to Property--><g id="link_Visit_Property"><path codeLine="273" d="M1185.71,1997.5 C1327.44,1997.5 1519.09,1997.5 1637.53,1997.5 " fill="none" id="Visit-to-Property" style="stroke:#181818;stroke-width:1.0;"/><polygon fill="#181818" points="1642.76,1997.5,1633.76,1993.5,1637.76,1997.5,1633.76,2001.5,1642.76,1997.5" style="stroke:#181818;stroke-width:1.0;"/><polygon fill="#000000" points="1395.25,1985.6758,1386.2049,1982.7369,1386.2049,1988.6147,1395.25,1985.6758" style="stroke:#000000;stroke-width:1.0;"/><text fill="#000000" font-family="sans-serif" font-size="13" lengthAdjust="spacing" textLength="43" x="1399.25" y="1990.9951">done to</text><text fill="#000000" font-family="sans-serif" font-size="13" lengthAdjust="spacing" textLength="7" x="1193.5657" y="1994.6667">1</text><text fill="#000000" font-family="sans-serif" font-size="13" lengthAdjust="spacing" textLength="7" x="1627.9213" y="1994.4108">1</text></g><!--link Announcement to Visit--><g id="link_Announcement_Visit"><path codeLine="274" d="M1003,1781.08 C1003,1804.78 1003,1829.65 1003,1853.73 " fill="none" id="Announcement-to-Visit" style="stroke:#181818;stroke-width:1.0;"/><polygon fill="#181818" points="1003,1858.86,1007,1849.86,1003,1853.86,999,1849.86,1003,1858.86" style="stroke:#181818;stroke-width:1.0;"/><polygon fill="#000000" points="1008,1825.1758,1010.9389,1816.1307,1005.0611,1816.1307,1008,1825.1758" style="stroke:#000000;stroke-width:1.0;"/><text fill="#000000" font-family="sans-serif" font-size="13" lengthAdjust="spacing" textLength="43" x="1017" y="1825.4951">records</text><text fill="#000000" font-family="sans-serif" font-size="13" lengthAdjust="spacing" textLength="7" x="995.7867" y="1802.9601">1</text><text fill="#000000" font-family="sans-serif" font-size="13" lengthAdjust="spacing" textLength="5" x="997.8633" y="1848.3475">*</text></g><!--link Employee to Agency--><g id="link_Employee_Agency"><path codeLine="275" d="M437.16,1010.01 C517.58,976.38 640.5,925 640.5,925 C640.5,925 703.5,925 703.5,925 C703.5,925 910,953 910,953 C910,953 929.88,961.67 956.98,973.49 " fill="none" id="Employee-to-Agency" style="stroke:#181818;stroke-width:1.0;"/><polygon fill="#181818" points="961.75,975.58,955.0995,968.3156,957.1669,973.5812,951.9014,975.6485,961.75,975.58" style="stroke:#181818;stroke-width:1.0;"/><polygon fill="#000000" points="650.4877,913.8254,641.2589,911.5276,641.6708,917.391,650.4877,913.8254" style="stroke:#000000;stroke-width:1.0;"/><text fill="#000000" font-family="sans-serif" font-size="13" lengthAdjust="spacing" textLength="48" x="654.5" y="919.4951">works in</text><text fill="#000000" font-family="sans-serif" font-size="13" lengthAdjust="spacing" textLength="7" x="444.9978" y="1003.5213">1</text><text fill="#000000" font-family="sans-serif" font-size="13" lengthAdjust="spacing" textLength="7" x="947.1316" y="969.4205">1</text></g><!--link Agency to AnnouncementList--><g id="link_Agency_AnnouncementList"><path codeLine="276" d="M1154.01,1124.26 C1171.8,1155.68 1192.12,1191.56 1210.53,1224.06 " fill="none" id="Agency-to-AnnouncementList" style="stroke:#181818;stroke-width:1.0;"/><polygon fill="#181818" points="1213,1228.42,1212.0389,1218.6181,1210.5331,1224.0709,1205.0804,1222.5651,1213,1228.42" style="stroke:#181818;stroke-width:1.0;"/><polygon fill="#000000" points="1184.464,1167.5265,1182.5639,1158.2077,1177.4493,1161.1042,1184.464,1167.5265" style="stroke:#000000;stroke-width:1.0;"/><text fill="#000000" font-family="sans-serif" font-size="13" lengthAdjust="spacing" textLength="30" x="1191" y="1168.4951">owns</text><text fill="#000000" font-family="sans-serif" font-size="13" lengthAdjust="spacing" textLength="7" x="1150.8351" y="1145.8163">1</text><text fill="#000000" font-family="sans-serif" font-size="13" lengthAdjust="spacing" textLength="7" x="1201.4977" y="1217.7598">1</text></g><!--link AnnouncementList to Announcement--><g id="link_AnnouncementList_Announcement"><path codeLine="277" d="M1190.63,1417.56 C1165.47,1448.8 1136.94,1484.22 1109.85,1517.85 " fill="none" id="AnnouncementList-to-Announcement" style="stroke:#181818;stroke-width:1.0;"/><polygon fill="#181818" points="1106.55,1521.94,1115.3199,1517.4579,1109.6943,1518.0524,1109.0998,1512.4269,1106.55,1521.94" style="stroke:#181818;stroke-width:1.0;"/><polygon fill="#000000" points="1144.8636,1487.0697,1152.8262,1481.8691,1148.2486,1478.182,1144.8636,1487.0697" style="stroke:#000000;stroke-width:1.0;"/><text fill="#000000" font-family="sans-serif" font-size="13" lengthAdjust="spacing" textLength="43" x="1157" y="1488.4951">records</text><text fill="#000000" font-family="sans-serif" font-size="13" lengthAdjust="spacing" textLength="7" x="1177.5915" y="1438.9256">1</text><text fill="#000000" font-family="sans-serif" font-size="13" lengthAdjust="spacing" textLength="5" x="1107.7077" y="1511.0537">*</text></g><!--reverse link Request to Property--><g id="link_Request_Property"><path codeLine="278" d="M715.05,1712.27 C763.34,1745.82 814,1781 814,1781 C814,1781 1069,1811 1069,1811 C1069,1811 1453.29,1916.3 1642.81,1968.23 " fill="none" id="Request-backto-Property" style="stroke:#181818;stroke-width:1.0;"/><polygon fill="#181818" points="710.68,1709.24,715.7907,1717.659,714.7868,1712.092,720.3539,1711.0881,710.68,1709.24" style="stroke:#181818;stroke-width:1.0;"/><polygon fill="#000000" points="1136.8199,1821.5056,1128.8822,1816.2669,1127.319,1821.9331,1136.8199,1821.5056" style="stroke:#000000;stroke-width:1.0;"/><text fill="#000000" font-family="sans-serif" font-size="13" lengthAdjust="spacing" textLength="124" x="1141" y="1825.4951">has information about</text><text fill="#000000" font-family="sans-serif" font-size="13" lengthAdjust="spacing" textLength="7" x="718.5325" y="1711.3425">1</text><text fill="#000000" font-family="sans-serif" font-size="13" lengthAdjust="spacing" textLength="7" x="1627.975" y="1962.9913">1</text></g><!--reverse link Request to Announcement--><g id="link_Request_Announcement"><path codeLine="280" d="M715.66,1651.5 C750.23,1651.5 791.28,1651.5 831.39,1651.5 " fill="none" id="Request-backto-Announcement" style="stroke:#181818;stroke-width:1.0;"/><polygon fill="#181818" points="710.61,1651.5,719.61,1655.5,715.61,1651.5,719.61,1647.5,710.61,1651.5" style="stroke:#181818;stroke-width:1.0;"/><polygon fill="#000000" points="728,1639.6758,737.0451,1642.6147,737.0451,1636.7369,728,1639.6758" style="stroke:#000000;stroke-width:1.0;"/><text fill="#000000" font-family="sans-serif" font-size="13" lengthAdjust="spacing" textLength="71" x="742" y="1644.9951">is  based on</text><text fill="#000000" font-family="sans-serif" font-size="13" lengthAdjust="spacing" textLength="7" x="718.4561" y="1648.2796">1</text><text fill="#000000" font-family="sans-serif" font-size="13" lengthAdjust="spacing" textLength="7" x="816.4553" y="1648.6335">1</text></g><!--link Agency to Request--><g id="link_Agency_Request"><path codeLine="281" d="M961.75,1101.69 C932.25,1114.41 910,1124 910,1124 C910,1124 629,1202 629,1202 C629,1202 629,1419.64 629,1551.7 " fill="none" id="Agency-to-Request" style="stroke:#181818;stroke-width:1.0;"/><polygon fill="#181818" points="629,1556.75,633,1547.75,629,1551.75,625,1547.75,629,1556.75" style="stroke:#181818;stroke-width:1.0;"/><polygon fill="#000000" points="631.0273,1327.1961,638.7681,1321.6706,634.0419,1318.176,631.0273,1327.1961" style="stroke:#000000;stroke-width:1.0;"/><text fill="#000000" font-family="sans-serif" font-size="13" lengthAdjust="spacing" textLength="81" x="643" y="1328.4951">is assigned to</text><text fill="#000000" font-family="sans-serif" font-size="13" lengthAdjust="spacing" textLength="7" x="947.1316" y="1102.0331">1</text><text fill="#000000" font-family="sans-serif" font-size="13" lengthAdjust="spacing" textLength="5" x="623.8008" y="1546.0762">*</text></g><!--reverse link Notification to Visit--><g id="link_Notification_Visit"><path codeLine="282" d="M723.74,1997.5 C753.58,1997.5 787.15,1997.5 820.41,1997.5 " fill="none" id="Notification-backto-Visit" style="stroke:#181818;stroke-width:1.0;stroke-dasharray:7.0,7.0;"/><polygon fill="none" points="723.73,2004.5,703.73,1997.5,723.73,1990.5,723.73,2004.5" style="stroke:#181818;stroke-width:1.0;"/><polygon fill="#000000" points="721,1985.6758,730.0451,1988.6147,730.0451,1982.7369,721,1985.6758" style="stroke:#000000;stroke-width:1.0;"/><text fill="#000000" font-family="sans-serif" font-size="13" lengthAdjust="spacing" textLength="67" x="735" y="1990.9951">implements</text></g><!--SRC=[dLXBRziu4BxhLn2vEDbrWjsh6mXm7aKDDDcYJWiii1TQecsYigWbgQJQRF_x3byI7vBZRauAEJESvpSpdeblj6umnmTqO3KhzfmT29Ay9Tbmq-3Y6zwHjUmgWZWf9AvtbKyWzhXaBxJUeIskX7zJqPh8hY6eOLMd_ibc8vUCIvPvN4M5XLXAoUccbMHLi7fD_o7ejooRLMGhaMI8qzrUef8gTIYhiqppe6KhzwIMjC3gz3DfcA2IyIvxpH3y_OfsHDwsd0FD5q7ucWW1TESNsGydmJlscTJnglG9lr8GZGp99LhLakm8HxIq1slG7XpI0jyZFf3qzDEUrUInFMm8ZsG8YRdymDhudDIbT_gH5RYwmvAWPwM9-h8tDunL1DS85mLf85W5X0xBLbXhjEBdbgcR6_O7Likz_VwJO3uVj9YxX-T_rRqzyzY6Yy5NNvq-vzxXsedp3- -DuFv8m4kFJDAj3U0vf5qjxm-OLfxdbt1OT4DmaHUdPLKjwvgrOFG1MCL7AgJ_ek6zwNmYY2iE_atUUZFC9H5qLskTmmkYT5-M9OUKYcGqKG8O_Jn54jszkvjkH6j3YUl0kWzO73EmToCbeZVJF_GrMDL2vzFv1Le4H0F99yA5NtcfyoVk9YhNfxdbL19ESN3RMx8kzgHiAwBJxnRocREg0Z-xx9YurpdcQpL7JMI3IlmYUNi-YJONq_6yaoom-bYwIlR0Ib85iGF-lbXyUmAYENghki6WjBv7F1tfexIluEY9tL7HLDYtz3sjW8MKciLvwo94K9CS9cWr0-YIh45iEnKQcusH_OWAw49GNkIPc394Q0jz2z2ZWcv0IbHYYKTu0qRDOhcXmJmJhcAeb8cUipJmhew6bQjTcGeCc7tIqv3Ml6N3WJ0diNZj82it28HI1P9H7oeZ6iuQPP8jJQr_QKWjkmkHuiIWWuQh5ohtMav_M-mP0rZEG2caGZPQRLzMK6K3Ple-Tv2Yqk9Q4-V6Tf7qiQ5VUSqiGTpxGrEnZW3vpldOO5FP9-f-5F96Qt9LRrdln5v0mGbeyDED4ghAjSgt6oKkI- -12vSikA9b-7O4eAOT-i3ds_E0cyR3lECb6pR1zv1WYZg1cz67L3p3uFgtUL08hZsSsjoEtPtJyhldGW3GG675wgN16Y8mcGe2vav5VzCvk4jmIv4407tJFJ0XFvC2_ba6-HfxsK6ScLIX96CB5ul8jEm92kyPm_CR6BJ1JgZ-BI2cgbseoKot5mjIgaO3hA6rFWjgJxtY5QvMHm_GezeCxZ1G3ke0D1o8tBCI8F80ipcC26VEHMVetC46U0jKn3tuzE21do5LjJKOj83ceETrI0UbAcjbq-fX7i00BaMZPlbdefskmCWyVULPC9A7aA6lGTL6mPw3vBzR8dIbJ-Q-rv8sJ4f0siX5hX5S-k8KT9evBnkwK1m5S_NPSCrKC0qBF1bZwiYmWAwlq-g2ynpb-MisrC6HghLFloPuQoqv2MpTHtyEWKNifIPSVxhDenMmqy6R6_jXpp-PRjIvjjGDSL3gIBE3ESZg_GCcp8mDJl1hDZCIxrYhq-e0HajtwAYUr5AvyVun187iMU-VNhdNI5ijfl7-oSAt8Tt24sYm6WvkgUnk8Gx4tzLqvLRsmyTDw0sIxJXkzhdQ2UptQHvI1xqXBaQluGfYvjjLwQrTtbBYDn8pdaNiDK3ek_18uk-cbxqBqi7VTI8ERzU9R-3X1Wh-5lCo9D3ECLGvWe6Gz48JTxuRR5Czr-yTNkSDDi_G1Nt3CCrLjUnuwumN6t_hD7SttJHtkhhu_D6u_IF2wlXfwuR-dNGYraYaxc4eDhzb35YZYfnlSK6Glsehe1bkyhnNBzd9IM_QxFFzn-NJwe_7TPR5y-3LLJuvrcV1qdcPXqle0b6xPcRPr8Qbc2RlJXC04iv-Fmj-xyccLaXbpEHFIqUvWYKvj5kzxhH88ZnDccRI4U9uupv6-h_iInK_HZsc-r6V9-g_JGqnZtyVwitynNa4SWJlTfpieFT1N9BQzZdCPSJnja-EqvX5Rfea3sU8utOdyp_u8Dq9hXAX9n2fkMUKJe-r4R6TMKuswsVfKre5DAV8JEaImzp0TPdGGUWBq0a3gg3S9Oj9aRQnrUDwxmA0k86cehf_2JY4hhD-XWhIq7jYeV2xWGc22b0PRRg4oV1eInRzxpvA6L-NaCfDTuhA_5IjYNJO7EZOqMQ1IkYHQX3F0uyOZXAcF5yqKYOMZ9TASg9cZpaBzCBuDw5SeCIQgWlm9buc5sgU594E-cRQSOCc_HIdYLNdjE_OyHV4Nwi63mfj6J-OdeSti8H06xCaFQl-SjEa3az916mr6nEUCJUDlWYCQ8C5SC5ZgHT-YMXXKA2x6gXrA8othzhctppir40BRZVxAD3z1m00]--></g></svg>