<?xml version="1.0" encoding="UTF-8" standalone="no"?><svg xmlns="http://www.w3.org/2000/svg" xmlns:xlink="http://www.w3.org/1999/xlink" contentStyleType="text/css" height="827px" preserveAspectRatio="none" style="width:753px;height:827px;background:#FFFFFF;" version="1.1" viewBox="0 0 753 827" width="753px" zoomAndPan="magnify"><defs/><g><rect fill="#FFFFFF" height="667.9375" style="stroke:#181818;stroke-width:1.0;" width="10" x="184" y="87.5703"/><rect fill="#FFFFFF" height="87.7969" style="stroke:#181818;stroke-width:1.0;" width="10" x="189" y="236.4922"/><rect fill="#FFFFFF" height="91.0547" style="stroke:#181818;stroke-width:1.0;" width="10" x="369" y="411.9922"/><rect fill="#FFFFFF" height="30.3516" style="stroke:#181818;stroke-width:1.0;" width="10" x="531" y="442.3438"/><rect fill="#FFFFFF" height="117.0547" style="stroke:#181818;stroke-width:1.0;" width="10" x="531" y="533.3984"/><rect fill="#FFFFFF" height="41.3516" style="stroke:#181818;stroke-width:1.0;" width="10" x="536" y="571.75"/><rect fill="#FFFFFF" height="30.3516" style="stroke:#181818;stroke-width:1.0;" width="10" x="531" y="687.8047"/><rect fill="none" height="623.5859" style="stroke:#000000;stroke-width:1.5;" width="660.5" x="86.5" y="102.5703"/><rect fill="none" height="287.1641" style="stroke:#000000;stroke-width:1.5;" width="640.5" x="96.5" y="371.2891"/><line style="stroke:#181818;stroke-width:0.5;stroke-dasharray:5.0,5.0;" x1="188.5" x2="188.5" y1="55.2188" y2="773.5078"/><line style="stroke:#181818;stroke-width:0.5;stroke-dasharray:5.0,5.0;" x1="373.5" x2="373.5" y1="55.2188" y2="773.5078"/><line style="stroke:#181818;stroke-width:0.5;stroke-dasharray:5.0,5.0;" x1="535.5" x2="535.5" y1="186.0313" y2="773.5078"/><rect fill="#E3E3E3" height="31.6094" rx="2.5" ry="2.5" style="stroke:#181818;stroke-width:0.5;" width="165" x="106.5" y="22.6094"/><text fill="#000000" font-family="sans-serif" font-size="14" lengthAdjust="spacing" textLength="151" x="113.5" y="44.1426">:ScheduleVisitController</text><rect fill="#E3E3E3" height="31.6094" rx="2.5" ry="2.5" style="stroke:#181818;stroke-width:0.5;" width="165" x="106.5" y="772.5078"/><text fill="#000000" font-family="sans-serif" font-size="14" lengthAdjust="spacing" textLength="151" x="113.5" y="794.041">:ScheduleVisitController</text><rect fill="#E3E3E3" height="49.2188" rx="2.5" ry="2.5" style="stroke:#181818;stroke-width:0.5;" width="65" x="341.5" y="5"/><text fill="#000000" font-family="sans-serif" font-size="14" lengthAdjust="spacing" textLength="46" x="351" y="26.5332">agency</text><text fill="#000000" font-family="sans-serif" font-size="14" lengthAdjust="spacing" textLength="51" x="348.5" y="44.1426">:Agency</text><rect fill="#E3E3E3" height="49.2188" rx="2.5" ry="2.5" style="stroke:#181818;stroke-width:0.5;" width="65" x="341.5" y="772.5078"/><text fill="#000000" font-family="sans-serif" font-size="14" lengthAdjust="spacing" textLength="46" x="351" y="794.041">agency</text><text fill="#000000" font-family="sans-serif" font-size="14" lengthAdjust="spacing" textLength="51" x="348.5" y="811.6504">:Agency</text><rect fill="#E3E3E3" height="49.2188" rx="2.5" ry="2.5" style="stroke:#181818;stroke-width:0.5;" width="135" x="468.5" y="772.5078"/><text fill="#000000" font-family="sans-serif" font-size="14" lengthAdjust="spacing" textLength="116" x="478" y="794.041">announcementList</text><text fill="#000000" font-family="sans-serif" font-size="14" lengthAdjust="spacing" textLength="121" x="475.5" y="811.6504">:AnnouncementList</text><rect fill="#FFFFFF" height="667.9375" style="stroke:#181818;stroke-width:1.0;" width="10" x="184" y="87.5703"/><rect fill="#FFFFFF" height="87.7969" style="stroke:#181818;stroke-width:1.0;" width="10" x="189" y="236.4922"/><rect fill="#FFFFFF" height="91.0547" style="stroke:#181818;stroke-width:1.0;" width="10" x="369" y="411.9922"/><rect fill="#FFFFFF" height="30.3516" style="stroke:#181818;stroke-width:1.0;" width="10" x="531" y="442.3438"/><rect fill="#FFFFFF" height="117.0547" style="stroke:#181818;stroke-width:1.0;" width="10" x="531" y="533.3984"/><rect fill="#FFFFFF" height="41.3516" style="stroke:#181818;stroke-width:1.0;" width="10" x="536" y="571.75"/><rect fill="#FFFFFF" height="30.3516" style="stroke:#181818;stroke-width:1.0;" width="10" x="531" y="687.8047"/><polygon fill="#181818" points="172,83.5703,182,87.5703,172,91.5703,176,87.5703" style="stroke:#181818;stroke-width:1.0;"/><line style="stroke:#181818;stroke-width:1.0;" x1="0" x2="178" y1="87.5703" y2="87.5703"/><text fill="#000000" font-family="sans-serif" font-size="13" font-weight="bold" lengthAdjust="spacing" textLength="7" x="7" y="82.7139">4</text><text fill="#000000" font-family="sans-serif" font-size="13" lengthAdjust="spacing" textLength="154" x="18" y="82.7139">getAnnouncementListDto()</text><path d="M86.5,102.5703 L316.5,102.5703 L316.5,110.9219 L306.5,120.9219 L86.5,120.9219 L86.5,102.5703 " fill="#EEEEEE" style="stroke:#000000;stroke-width:1.5;"/><rect fill="none" height="623.5859" style="stroke:#000000;stroke-width:1.5;" width="660.5" x="86.5" y="102.5703"/><text fill="#000000" font-family="sans-serif" font-size="13" font-weight="bold" lengthAdjust="spacing" textLength="185" x="101.5" y="117.0654">Get Announcements List DTO</text><polygon fill="#181818" points="456.5,164.2734,466.5,168.2734,456.5,172.2734,460.5,168.2734" style="stroke:#181818;stroke-width:1.0;"/><line style="stroke:#181818;stroke-width:1.0;" x1="194" x2="462.5" y1="168.2734" y2="168.2734"/><text fill="#000000" font-family="sans-serif" font-size="13" font-weight="bold" lengthAdjust="spacing" textLength="18" x="201" y="163.417">4.1</text><text fill="#000000" font-family="sans-serif" font-size="13" lengthAdjust="spacing" textLength="155" x="223" y="163.417">listToDisplay = createList()</text><rect fill="#E3E3E3" height="49.2188" rx="2.5" ry="2.5" style="stroke:#181818;stroke-width:0.5;" width="135" x="468.5" y="145.9219"/><text fill="#000000" font-family="sans-serif" font-size="14" lengthAdjust="spacing" textLength="116" x="478" y="167.4551">announcementList</text><text fill="#000000" font-family="sans-serif" font-size="14" lengthAdjust="spacing" textLength="121" x="475.5" y="185.0645">:AnnouncementList</text><line style="stroke:#181818;stroke-width:1.0;" x1="194" x2="241" y1="223.4922" y2="223.4922"/><line style="stroke:#181818;stroke-width:1.0;" x1="241" x2="241" y1="223.4922" y2="236.4922"/><line style="stroke:#181818;stroke-width:1.0;" x1="200" x2="241" y1="236.4922" y2="236.4922"/><polygon fill="#181818" points="210,232.4922,200,236.4922,210,240.4922,206,236.4922" style="stroke:#181818;stroke-width:1.0;"/><text fill="#000000" font-family="sans-serif" font-size="13" font-weight="bold" lengthAdjust="spacing" textLength="18" x="206" y="218.6357">4.2</text><text fill="#000000" font-family="sans-serif" font-size="13" lengthAdjust="spacing" textLength="80" x="228" y="218.6357">getAgencies()</text><rect fill="none" height="41.4453" style="stroke:#000000;stroke-width:1.5;" width="171" x="103.5" y="249.4922"/><path d="M103.5,249.4922 L165.5,249.4922 L165.5,257.4922 L155.5,267.4922 L103.5,267.4922 L103.5,249.4922 " fill="#EEEEEE" style="stroke:#000000;stroke-width:2.0;"/><text fill="#000000" font-family="sans-serif" font-size="13" font-weight="bold" lengthAdjust="spacing" textLength="17" x="116.5" y="264.9873">ref</text><text fill="#000000" font-family="sans-serif" font-size="12" lengthAdjust="spacing" textLength="96" x="141" y="283.9492">Get Agencies List</text><line style="stroke:#181818;stroke-width:1.0;stroke-dasharray:2.0,2.0;" x1="199" x2="241" y1="323.2891" y2="323.2891"/><line style="stroke:#181818;stroke-width:1.0;stroke-dasharray:2.0,2.0;" x1="241" x2="241" y1="323.2891" y2="336.2891"/><line style="stroke:#181818;stroke-width:1.0;stroke-dasharray:2.0,2.0;" x1="194" x2="241" y1="336.2891" y2="336.2891"/><polygon fill="#181818" points="204,332.2891,194,336.2891,204,340.2891,200,336.2891" style="stroke:#181818;stroke-width:1.0;"/><text fill="#000000" font-family="sans-serif" font-size="13" font-weight="bold" lengthAdjust="spacing" textLength="18" x="206" y="318.4326">4.3</text><text fill="#000000" font-family="sans-serif" font-size="13" lengthAdjust="spacing" textLength="73" x="228" y="318.4326">agenciesList</text><path d="M96.5,371.2891 L169.5,371.2891 L169.5,379.6406 L159.5,389.6406 L96.5,389.6406 L96.5,371.2891 " fill="#EEEEEE" style="stroke:#000000;stroke-width:1.5;"/><rect fill="none" height="287.1641" style="stroke:#000000;stroke-width:1.5;" width="640.5" x="96.5" y="371.2891"/><text fill="#000000" font-family="sans-serif" font-size="13" font-weight="bold" lengthAdjust="spacing" textLength="28" x="111.5" y="385.7842">loop</text><text fill="#000000" font-family="sans-serif" font-size="11" font-weight="bold" lengthAdjust="spacing" textLength="92" x="184.5" y="384.708">[for all agencies]</text><polygon fill="#181818" points="357,407.9922,367,411.9922,357,415.9922,361,411.9922" style="stroke:#181818;stroke-width:1.0;"/><line style="stroke:#181818;stroke-width:1.0;" x1="194" x2="363" y1="411.9922" y2="411.9922"/><text fill="#000000" font-family="sans-serif" font-size="13" font-weight="bold" lengthAdjust="spacing" textLength="18" x="201" y="407.1357">4.4</text><text fill="#000000" font-family="sans-serif" font-size="13" lengthAdjust="spacing" textLength="134" x="223" y="407.1357">getAnnouncementList()</text><polygon fill="#181818" points="519,438.3438,529,442.3438,519,446.3438,523,442.3438" style="stroke:#181818;stroke-width:1.0;"/><line style="stroke:#181818;stroke-width:1.0;" x1="379" x2="525" y1="442.3438" y2="442.3438"/><text fill="#000000" font-family="sans-serif" font-size="13" font-weight="bold" lengthAdjust="spacing" textLength="18" x="386" y="437.4873">4.5</text><text fill="#000000" font-family="sans-serif" font-size="13" lengthAdjust="spacing" textLength="47" x="408" y="437.4873">getList()</text><polygon fill="#181818" points="390,468.6953,380,472.6953,390,476.6953,386,472.6953" style="stroke:#181818;stroke-width:1.0;"/><line style="stroke:#181818;stroke-width:1.0;stroke-dasharray:2.0,2.0;" x1="384" x2="535" y1="472.6953" y2="472.6953"/><text fill="#000000" font-family="sans-serif" font-size="13" font-weight="bold" lengthAdjust="spacing" textLength="18" x="396" y="467.8389">4.6</text><text fill="#000000" font-family="sans-serif" font-size="13" lengthAdjust="spacing" textLength="106" x="418" y="467.8389">announcementList</text><polygon fill="#181818" points="205,499.0469,195,503.0469,205,507.0469,201,503.0469" style="stroke:#181818;stroke-width:1.0;"/><line style="stroke:#181818;stroke-width:1.0;stroke-dasharray:2.0,2.0;" x1="199" x2="373" y1="503.0469" y2="503.0469"/><text fill="#000000" font-family="sans-serif" font-size="13" font-weight="bold" lengthAdjust="spacing" textLength="18" x="211" y="498.1904">4.7</text><text fill="#000000" font-family="sans-serif" font-size="13" lengthAdjust="spacing" textLength="106" x="233" y="498.1904">announcementList</text><polygon fill="#181818" points="519,529.3984,529,533.3984,519,537.3984,523,533.3984" style="stroke:#181818;stroke-width:1.0;"/><line style="stroke:#181818;stroke-width:1.0;" x1="194" x2="525" y1="533.3984" y2="533.3984"/><text fill="#000000" font-family="sans-serif" font-size="13" font-weight="bold" lengthAdjust="spacing" textLength="18" x="201" y="528.542">4.8</text><text fill="#000000" font-family="sans-serif" font-size="13" lengthAdjust="spacing" textLength="201" x="223" y="528.542">addListContent(announcementList)</text><line style="stroke:#181818;stroke-width:1.0;" x1="541" x2="588" y1="558.75" y2="558.75"/><line style="stroke:#181818;stroke-width:1.0;" x1="588" x2="588" y1="558.75" y2="571.75"/><line style="stroke:#181818;stroke-width:1.0;" x1="547" x2="588" y1="571.75" y2="571.75"/><polygon fill="#181818" points="557,567.75,547,571.75,557,575.75,553,571.75" style="stroke:#181818;stroke-width:1.0;"/><text fill="#000000" font-family="sans-serif" font-size="13" font-weight="bold" lengthAdjust="spacing" textLength="18" x="553" y="553.8936">4.9</text><text fill="#000000" font-family="sans-serif" font-size="13" lengthAdjust="spacing" textLength="150" x="575" y="553.8936">addAll(announcementList)</text><line style="stroke:#181818;stroke-width:1.0;stroke-dasharray:2.0,2.0;" x1="546" x2="588" y1="612.1016" y2="612.1016"/><line style="stroke:#181818;stroke-width:1.0;stroke-dasharray:2.0,2.0;" x1="588" x2="588" y1="612.1016" y2="625.1016"/><line style="stroke:#181818;stroke-width:1.0;stroke-dasharray:2.0,2.0;" x1="541" x2="588" y1="625.1016" y2="625.1016"/><polygon fill="#181818" points="551,621.1016,541,625.1016,551,629.1016,547,625.1016" style="stroke:#181818;stroke-width:1.0;"/><text fill="#000000" font-family="sans-serif" font-size="13" font-weight="bold" lengthAdjust="spacing" textLength="25" x="553" y="607.2451">4.10</text><text fill="#000000" font-family="sans-serif" font-size="13" lengthAdjust="spacing" textLength="4" x="582" y="607.2451"> </text><polygon fill="#181818" points="205,646.4531,195,650.4531,205,654.4531,201,650.4531" style="stroke:#181818;stroke-width:1.0;"/><line style="stroke:#181818;stroke-width:1.0;stroke-dasharray:2.0,2.0;" x1="199" x2="535" y1="650.4531" y2="650.4531"/><text fill="#000000" font-family="sans-serif" font-size="13" font-weight="bold" lengthAdjust="spacing" textLength="25" x="211" y="645.5967">4.11</text><text fill="#000000" font-family="sans-serif" font-size="13" lengthAdjust="spacing" textLength="74" x="240" y="645.5967">listToDisplay</text><polygon fill="#181818" points="519,683.8047,529,687.8047,519,691.8047,523,687.8047" style="stroke:#181818;stroke-width:1.0;"/><line style="stroke:#181818;stroke-width:1.0;" x1="194" x2="525" y1="687.8047" y2="687.8047"/><text fill="#000000" font-family="sans-serif" font-size="13" font-weight="bold" lengthAdjust="spacing" textLength="25" x="201" y="682.9482">4.12</text><text fill="#000000" font-family="sans-serif" font-size="13" lengthAdjust="spacing" textLength="237" x="230" y="682.9482">sortListByAcceptanceDate(listToDisplay)</text><polygon fill="#181818" points="205,714.1563,195,718.1563,205,722.1563,201,718.1563" style="stroke:#181818;stroke-width:1.0;"/><line style="stroke:#181818;stroke-width:1.0;stroke-dasharray:2.0,2.0;" x1="199" x2="535" y1="718.1563" y2="718.1563"/><text fill="#000000" font-family="sans-serif" font-size="13" font-weight="bold" lengthAdjust="spacing" textLength="25" x="211" y="713.2998">4.13</text><text fill="#000000" font-family="sans-serif" font-size="13" lengthAdjust="spacing" textLength="74" x="240" y="713.2998">listToDisplay</text><polygon fill="#181818" points="11,751.5078,1,755.5078,11,759.5078,7,755.5078" style="stroke:#181818;stroke-width:1.0;"/><line style="stroke:#181818;stroke-width:1.0;stroke-dasharray:2.0,2.0;" x1="5" x2="188" y1="755.5078" y2="755.5078"/><text fill="#000000" font-family="sans-serif" font-size="13" font-weight="bold" lengthAdjust="spacing" textLength="7" x="17" y="750.6514">5</text><text fill="#000000" font-family="sans-serif" font-size="13" lengthAdjust="spacing" textLength="74" x="28" y="750.6514">listToDisplay</text><!--SRC=[hLJ1QkCm4BthAuQUieKK5hgNi5jm4mWBWK8TUjgBLfuueh9a93aba8-l9AUf93k4Xix9I3FllNaQZtdbigMQDj0egTXMgmR1wWw9ETsqbBtI6akx5mWQcQMo5d62sT9AlN5PmuOAWuGGTsuvuosL5cvc9TjYrGbyuORRkP9MAo5Gtm0rC5y_hz9qHoNP_f-S5U4ZP1NBUPOafUeammQbNN5ZVNfs50fNVylrV5MK9I6qiqfspN_KS4y8J1y2DyoWHflNBgoQ_70bpF8TjTYh9E0YHhdxsP_LMdKjBD52ZEF87H8ira_aS3Y4n8y8n4x0ITtjhTCXNFfQBRXf1Tt37s0Q7RS7SLf6gYFvtYcE9is34VaVeN43QkUQ25UGHMZbY1cwI39GLhv-KDNh-XH6ZmW3W0fJPTwU944erS96QQ12d6386S87FntZpvZvaNZYHsfmwv7YT-bXBq55GmOZyOasFOdDvtTG67bq0JveZbp_0lAe1uFXzA1LvR7yl-jW9pd7TTv4lWpO2Y6-doMckTBm5EreUVBZNW7iVoW_yeHSUWUZTB3YSLymXgtRn0mN3dcII3Yp1RwlhT6Mucx2HiptvQzmy7iwxGa63FbQ8Ey0]--></g></svg>