<?xml version="1.0" encoding="UTF-8" standalone="no"?><svg xmlns="http://www.w3.org/2000/svg" xmlns:xlink="http://www.w3.org/1999/xlink" contentStyleType="text/css" height="789px" preserveAspectRatio="none" style="width:1251px;height:789px;background:#FFFFFF;" version="1.1" viewBox="0 0 1251 789" width="1251px" zoomAndPan="magnify"><defs/><g><rect fill="#FFFFFF" height="629.3594" style="stroke:#181818;stroke-width:1.0;" width="10" x="149" y="87.5703"/><rect fill="#FFFFFF" height="536.3047" style="stroke:#181818;stroke-width:1.0;" width="10" x="322" y="143.2734"/><rect fill="#FFFFFF" height="30.3516" style="stroke:#181818;stroke-width:1.0;" width="10" x="604" y="259.1953"/><rect fill="#FFFFFF" height="30.3516" style="stroke:#181818;stroke-width:1.0;" width="10" x="738" y="319.8984"/><rect fill="#FFFFFF" height="91.0547" style="stroke:#181818;stroke-width:1.0;" width="10" x="738" y="405.6016"/><rect fill="#FFFFFF" height="30.3516" style="stroke:#181818;stroke-width:1.0;" width="10" x="857" y="435.9531"/><rect fill="#FFFFFF" height="30" style="stroke:#181818;stroke-width:1.0;" width="10" x="989" y="612.2266"/><rect fill="none" height="585.0078" style="stroke:#000000;stroke-width:1.5;" width="1184" x="61.5" y="102.5703"/><rect fill="none" height="431.7344" style="stroke:#000000;stroke-width:1.5;" width="999" x="236.5" y="218.4922"/><line style="stroke:#181818;stroke-width:0.5;stroke-dasharray:5.0,5.0;" x1="153.5" x2="153.5" y1="55.2188" y2="734.9297"/><line style="stroke:#181818;stroke-width:0.5;stroke-dasharray:5.0,5.0;" x1="326.5" x2="326.5" y1="55.2188" y2="734.9297"/><line style="stroke:#181818;stroke-width:0.5;stroke-dasharray:5.0,5.0;" x1="608.5" x2="608.5" y1="55.2188" y2="734.9297"/><line style="stroke:#181818;stroke-width:0.5;stroke-dasharray:5.0,5.0;" x1="742.5" x2="742.5" y1="55.2188" y2="734.9297"/><line style="stroke:#181818;stroke-width:0.5;stroke-dasharray:5.0,5.0;" x1="861.5" x2="861.5" y1="55.2188" y2="734.9297"/><line style="stroke:#181818;stroke-width:0.5;stroke-dasharray:5.0,5.0;" x1="993.5" x2="993.5" y1="191.3828" y2="734.9297"/><line style="stroke:#181818;stroke-width:0.5;stroke-dasharray:5.0,5.0;" x1="1157.5" x2="1157.5" y1="569.7656" y2="734.9297"/><rect fill="#E3E3E3" height="31.6094" rx="2.5" ry="2.5" style="stroke:#181818;stroke-width:0.5;" width="165" x="71.5" y="22.6094"/><text fill="#000000" font-family="sans-serif" font-size="14" lengthAdjust="spacing" textLength="151" x="78.5" y="44.1426">:ScheduleVisitController</text><rect fill="#E3E3E3" height="31.6094" rx="2.5" ry="2.5" style="stroke:#181818;stroke-width:0.5;" width="165" x="71.5" y="733.9297"/><text fill="#000000" font-family="sans-serif" font-size="14" lengthAdjust="spacing" textLength="151" x="78.5" y="755.4629">:ScheduleVisitController</text><rect fill="#E3E3E3" height="31.6094" rx="2.5" ry="2.5" style="stroke:#181818;stroke-width:0.5;" width="161" x="246.5" y="22.6094"/><text fill="#000000" font-family="sans-serif" font-size="14" lengthAdjust="spacing" textLength="147" x="253.5" y="44.1426">:AnnouncementMapper</text><rect fill="#E3E3E3" height="31.6094" rx="2.5" ry="2.5" style="stroke:#181818;stroke-width:0.5;" width="161" x="246.5" y="733.9297"/><text fill="#000000" font-family="sans-serif" font-size="14" lengthAdjust="spacing" textLength="147" x="253.5" y="755.4629">:AnnouncementMapper</text><rect fill="#E3E3E3" height="49.2188" rx="2.5" ry="2.5" style="stroke:#181818;stroke-width:0.5;" width="135" x="541.5" y="5"/><text fill="#000000" font-family="sans-serif" font-size="14" lengthAdjust="spacing" textLength="116" x="551" y="26.5332">announcementList</text><text fill="#000000" font-family="sans-serif" font-size="14" lengthAdjust="spacing" textLength="121" x="548.5" y="44.1426">:AnnouncementList</text><rect fill="#E3E3E3" height="49.2188" rx="2.5" ry="2.5" style="stroke:#181818;stroke-width:0.5;" width="135" x="541.5" y="733.9297"/><text fill="#000000" font-family="sans-serif" font-size="14" lengthAdjust="spacing" textLength="116" x="551" y="755.4629">announcementList</text><text fill="#000000" font-family="sans-serif" font-size="14" lengthAdjust="spacing" textLength="121" x="548.5" y="773.0723">:AnnouncementList</text><rect fill="#E3E3E3" height="49.2188" rx="2.5" ry="2.5" style="stroke:#181818;stroke-width:0.5;" width="113" x="686.5" y="5"/><text fill="#000000" font-family="sans-serif" font-size="14" lengthAdjust="spacing" textLength="94" x="696" y="26.5332">announcement</text><text fill="#000000" font-family="sans-serif" font-size="14" lengthAdjust="spacing" textLength="99" x="693.5" y="44.1426">:Announcement</text><rect fill="#E3E3E3" height="49.2188" rx="2.5" ry="2.5" style="stroke:#181818;stroke-width:0.5;" width="113" x="686.5" y="733.9297"/><text fill="#000000" font-family="sans-serif" font-size="14" lengthAdjust="spacing" textLength="94" x="696" y="755.4629">announcement</text><text fill="#000000" font-family="sans-serif" font-size="14" lengthAdjust="spacing" textLength="99" x="693.5" y="773.0723">:Announcement</text><rect fill="#E3E3E3" height="49.2188" rx="2.5" ry="2.5" style="stroke:#181818;stroke-width:0.5;" width="71" x="826.5" y="5"/><text fill="#000000" font-family="sans-serif" font-size="14" lengthAdjust="spacing" textLength="48" x="838" y="26.5332">request</text><text fill="#000000" font-family="sans-serif" font-size="14" lengthAdjust="spacing" textLength="57" x="833.5" y="44.1426">:Request</text><rect fill="#E3E3E3" height="49.2188" rx="2.5" ry="2.5" style="stroke:#181818;stroke-width:0.5;" width="71" x="826.5" y="733.9297"/><text fill="#000000" font-family="sans-serif" font-size="14" lengthAdjust="spacing" textLength="48" x="838" y="755.4629">request</text><text fill="#000000" font-family="sans-serif" font-size="14" lengthAdjust="spacing" textLength="57" x="833.5" y="773.0723">:Request</text><rect fill="#E3E3E3" height="49.2188" rx="2.5" ry="2.5" style="stroke:#181818;stroke-width:0.5;" width="173" x="907.5" y="733.9297"/><text fill="#000000" font-family="sans-serif" font-size="14" lengthAdjust="spacing" textLength="138" x="925" y="755.4629">announcementListDto</text><text fill="#000000" font-family="sans-serif" font-size="14" lengthAdjust="spacing" textLength="159" x="914.5" y="773.0723">:List&lt;AnnouncementDto&gt;</text><rect fill="#E3E3E3" height="49.2188" rx="2.5" ry="2.5" style="stroke:#181818;stroke-width:0.5;" width="135" x="1090.5" y="733.9297"/><text fill="#000000" font-family="sans-serif" font-size="14" lengthAdjust="spacing" textLength="116" x="1100" y="755.4629">announcementDto</text><text fill="#000000" font-family="sans-serif" font-size="14" lengthAdjust="spacing" textLength="121" x="1097.5" y="773.0723">:AnnouncementDto</text><rect fill="#FFFFFF" height="629.3594" style="stroke:#181818;stroke-width:1.0;" width="10" x="149" y="87.5703"/><rect fill="#FFFFFF" height="536.3047" style="stroke:#181818;stroke-width:1.0;" width="10" x="322" y="143.2734"/><rect fill="#FFFFFF" height="30.3516" style="stroke:#181818;stroke-width:1.0;" width="10" x="604" y="259.1953"/><rect fill="#FFFFFF" height="30.3516" style="stroke:#181818;stroke-width:1.0;" width="10" x="738" y="319.8984"/><rect fill="#FFFFFF" height="91.0547" style="stroke:#181818;stroke-width:1.0;" width="10" x="738" y="405.6016"/><rect fill="#FFFFFF" height="30.3516" style="stroke:#181818;stroke-width:1.0;" width="10" x="857" y="435.9531"/><rect fill="#FFFFFF" height="30" style="stroke:#181818;stroke-width:1.0;" width="10" x="989" y="612.2266"/><polygon fill="#181818" points="137,83.5703,147,87.5703,137,91.5703,141,87.5703" style="stroke:#181818;stroke-width:1.0;"/><line style="stroke:#181818;stroke-width:1.0;" x1="0" x2="143" y1="87.5703" y2="87.5703"/><text fill="#000000" font-family="sans-serif" font-size="13" font-weight="bold" lengthAdjust="spacing" textLength="7" x="7" y="82.7139">8</text><text fill="#000000" font-family="sans-serif" font-size="13" lengthAdjust="spacing" textLength="119" x="18" y="82.7139">toDTO(listToDisplay)</text><path d="M61.5,102.5703 L278.5,102.5703 L278.5,110.9219 L268.5,120.9219 L61.5,120.9219 L61.5,102.5703 " fill="#EEEEEE" style="stroke:#000000;stroke-width:1.5;"/><rect fill="none" height="585.0078" style="stroke:#000000;stroke-width:1.5;" width="1184" x="61.5" y="102.5703"/><text fill="#000000" font-family="sans-serif" font-size="13" font-weight="bold" lengthAdjust="spacing" textLength="172" x="76.5" y="117.0654">Convert Display List to DTO</text><polygon fill="#181818" points="310,139.2734,320,143.2734,310,147.2734,314,143.2734" style="stroke:#181818;stroke-width:1.0;"/><line style="stroke:#181818;stroke-width:1.0;" x1="159" x2="316" y1="143.2734" y2="143.2734"/><text fill="#000000" font-family="sans-serif" font-size="13" font-weight="bold" lengthAdjust="spacing" textLength="18" x="166" y="138.417">8.1</text><text fill="#000000" font-family="sans-serif" font-size="13" lengthAdjust="spacing" textLength="119" x="188" y="138.417">toDTO(listToDisplay)</text><polygon fill="#181818" points="895.5,169.625,905.5,173.625,895.5,177.625,899.5,173.625" style="stroke:#181818;stroke-width:1.0;"/><line style="stroke:#181818;stroke-width:1.0;" x1="332" x2="901.5" y1="173.625" y2="173.625"/><text fill="#000000" font-family="sans-serif" font-size="13" font-weight="bold" lengthAdjust="spacing" textLength="18" x="339" y="168.7686">8.2</text><text fill="#000000" font-family="sans-serif" font-size="13" lengthAdjust="spacing" textLength="154" x="361" y="168.7686">listToDisplayDto = create()</text><rect fill="#E3E3E3" height="49.2188" rx="2.5" ry="2.5" style="stroke:#181818;stroke-width:0.5;" width="173" x="907.5" y="151.2734"/><text fill="#000000" font-family="sans-serif" font-size="14" lengthAdjust="spacing" textLength="138" x="925" y="172.8066">announcementListDto</text><text fill="#000000" font-family="sans-serif" font-size="14" lengthAdjust="spacing" textLength="159" x="914.5" y="190.416">:List&lt;AnnouncementDto&gt;</text><path d="M236.5,218.4922 L309.5,218.4922 L309.5,226.8438 L299.5,236.8438 L236.5,236.8438 L236.5,218.4922 " fill="#EEEEEE" style="stroke:#000000;stroke-width:1.5;"/><rect fill="none" height="431.7344" style="stroke:#000000;stroke-width:1.5;" width="999" x="236.5" y="218.4922"/><text fill="#000000" font-family="sans-serif" font-size="13" font-weight="bold" lengthAdjust="spacing" textLength="28" x="251.5" y="232.9873">loop</text><text fill="#000000" font-family="sans-serif" font-size="11" font-weight="bold" lengthAdjust="spacing" textLength="132" x="324.5" y="231.9111">[for all announcements]</text><polygon fill="#181818" points="592,255.1953,602,259.1953,592,263.1953,596,259.1953" style="stroke:#181818;stroke-width:1.0;"/><line style="stroke:#181818;stroke-width:1.0;" x1="332" x2="598" y1="259.1953" y2="259.1953"/><text fill="#000000" font-family="sans-serif" font-size="13" font-weight="bold" lengthAdjust="spacing" textLength="18" x="339" y="254.3389">8.3</text><text fill="#000000" font-family="sans-serif" font-size="13" lengthAdjust="spacing" textLength="231" x="361" y="254.3389">announcement = getAnnouncement(idx)</text><polygon fill="#181818" points="343,285.5469,333,289.5469,343,293.5469,339,289.5469" style="stroke:#181818;stroke-width:1.0;"/><line style="stroke:#181818;stroke-width:1.0;stroke-dasharray:2.0,2.0;" x1="337" x2="608" y1="289.5469" y2="289.5469"/><text fill="#000000" font-family="sans-serif" font-size="13" font-weight="bold" lengthAdjust="spacing" textLength="18" x="349" y="284.6904">8.4</text><text fill="#000000" font-family="sans-serif" font-size="13" lengthAdjust="spacing" textLength="85" x="371" y="284.6904">announcement</text><polygon fill="#181818" points="726,315.8984,736,319.8984,726,323.8984,730,319.8984" style="stroke:#181818;stroke-width:1.0;"/><line style="stroke:#181818;stroke-width:1.0;" x1="332" x2="732" y1="319.8984" y2="319.8984"/><text fill="#000000" font-family="sans-serif" font-size="13" font-weight="bold" lengthAdjust="spacing" textLength="18" x="339" y="315.042">8.5</text><text fill="#000000" font-family="sans-serif" font-size="13" lengthAdjust="spacing" textLength="234" x="361" y="315.042">announcementId = getAnnouncementId()</text><polygon fill="#181818" points="343,346.25,333,350.25,343,354.25,339,350.25" style="stroke:#181818;stroke-width:1.0;"/><line style="stroke:#181818;stroke-width:1.0;stroke-dasharray:2.0,2.0;" x1="337" x2="742" y1="350.25" y2="350.25"/><text fill="#000000" font-family="sans-serif" font-size="13" font-weight="bold" lengthAdjust="spacing" textLength="18" x="349" y="345.3936">8.6</text><text fill="#000000" font-family="sans-serif" font-size="13" lengthAdjust="spacing" textLength="95" x="371" y="345.3936">announcementId</text><polygon fill="#181818" points="726,401.6016,736,405.6016,726,409.6016,730,405.6016" style="stroke:#181818;stroke-width:1.0;"/><line style="stroke:#181818;stroke-width:1.0;" x1="332" x2="732" y1="405.6016" y2="405.6016"/><text fill="#000000" font-family="sans-serif" font-size="13" font-weight="bold" lengthAdjust="spacing" textLength="18" x="339" y="400.7451">8.7</text><text fill="#000000" font-family="sans-serif" font-size="13" lengthAdjust="spacing" textLength="269" x="361" y="400.7451">requestInfo = getAnnouncementInfoToDisplay()</text><polygon fill="#181818" points="845,431.9531,855,435.9531,845,439.9531,849,435.9531" style="stroke:#181818;stroke-width:1.0;"/><line style="stroke:#181818;stroke-width:1.0;" x1="748" x2="851" y1="435.9531" y2="435.9531"/><text fill="#000000" font-family="sans-serif" font-size="13" font-weight="bold" lengthAdjust="spacing" textLength="18" x="755" y="431.0967">8.8</text><text fill="#000000" font-family="sans-serif" font-size="13" lengthAdjust="spacing" textLength="53" x="777" y="431.0967">toString()</text><polygon fill="#181818" points="759,462.3047,749,466.3047,759,470.3047,755,466.3047" style="stroke:#181818;stroke-width:1.0;"/><line style="stroke:#181818;stroke-width:1.0;stroke-dasharray:2.0,2.0;" x1="753" x2="861" y1="466.3047" y2="466.3047"/><text fill="#000000" font-family="sans-serif" font-size="13" font-weight="bold" lengthAdjust="spacing" textLength="18" x="765" y="461.4482">8.9</text><text fill="#000000" font-family="sans-serif" font-size="13" lengthAdjust="spacing" textLength="63" x="787" y="461.4482">requestInfo</text><polygon fill="#181818" points="343,492.6563,333,496.6563,343,500.6563,339,496.6563" style="stroke:#181818;stroke-width:1.0;"/><line style="stroke:#181818;stroke-width:1.0;stroke-dasharray:2.0,2.0;" x1="337" x2="742" y1="496.6563" y2="496.6563"/><text fill="#000000" font-family="sans-serif" font-size="13" font-weight="bold" lengthAdjust="spacing" textLength="25" x="349" y="491.7998">8.10</text><text fill="#000000" font-family="sans-serif" font-size="13" lengthAdjust="spacing" textLength="63" x="378" y="491.7998">requestInfo</text><polygon fill="#181818" points="1078.5,548.0078,1088.5,552.0078,1078.5,556.0078,1082.5,552.0078" style="stroke:#181818;stroke-width:1.0;"/><line style="stroke:#181818;stroke-width:1.0;stroke-dasharray:2.0,2.0;" x1="332" x2="1084.5" y1="552.0078" y2="552.0078"/><text fill="#000000" font-family="sans-serif" font-size="13" font-weight="bold" lengthAdjust="spacing" textLength="25" x="339" y="547.1514">8.11</text><text fill="#000000" font-family="sans-serif" font-size="13" lengthAdjust="spacing" textLength="210" x="368" y="547.1514">create(announcementId, requestInfo)</text><rect fill="#E3E3E3" height="49.2188" rx="2.5" ry="2.5" style="stroke:#181818;stroke-width:0.5;" width="135" x="1090.5" y="529.6563"/><text fill="#000000" font-family="sans-serif" font-size="14" lengthAdjust="spacing" textLength="116" x="1100" y="551.1895">announcementDto</text><text fill="#000000" font-family="sans-serif" font-size="14" lengthAdjust="spacing" textLength="121" x="1097.5" y="568.7988">:AnnouncementDto</text><polygon fill="#181818" points="977,608.2266,987,612.2266,977,616.2266,981,612.2266" style="stroke:#181818;stroke-width:1.0;"/><line style="stroke:#181818;stroke-width:1.0;" x1="332" x2="983" y1="612.2266" y2="612.2266"/><text fill="#000000" font-family="sans-serif" font-size="13" font-weight="bold" lengthAdjust="spacing" textLength="25" x="339" y="607.3701">8.12</text><text fill="#000000" font-family="sans-serif" font-size="13" lengthAdjust="spacing" textLength="134" x="368" y="607.3701">add(announcementDto)</text><polygon fill="#181818" points="170,675.5781,160,679.5781,170,683.5781,166,679.5781" style="stroke:#181818;stroke-width:1.0;"/><line style="stroke:#181818;stroke-width:1.0;" x1="164" x2="326" y1="679.5781" y2="679.5781"/><text fill="#000000" font-family="sans-serif" font-size="13" font-weight="bold" lengthAdjust="spacing" textLength="25" x="176" y="674.7217">8.13</text><text fill="#000000" font-family="sans-serif" font-size="13" lengthAdjust="spacing" textLength="94" x="205" y="674.7217">listToDisplayDto</text><polygon fill="#181818" points="11,712.9297,1,716.9297,11,720.9297,7,716.9297" style="stroke:#181818;stroke-width:1.0;"/><line style="stroke:#181818;stroke-width:1.0;stroke-dasharray:2.0,2.0;" x1="5" x2="153" y1="716.9297" y2="716.9297"/><text fill="#000000" font-family="sans-serif" font-size="13" font-weight="bold" lengthAdjust="spacing" textLength="7" x="17" y="712.0732">9</text><text fill="#000000" font-family="sans-serif" font-size="13" lengthAdjust="spacing" textLength="94" x="28" y="712.0732">listToDisplayDto</text><!--SRC=[ZLJ1Zjem4BtdAwoz55QbKcyjsaL28T96Oe6IKAbIBsvimDfWfuwpBH8Vtx7Z13iagBuaijzxypoUcVADyG9BV48dmKLsbE94aP8L3ShsfC3P6pxGH9rpYYJD5EQ7t0MKHqp47yOFQ8_paWP10FkAPQp0NA67QP8TAQbo-fsLJ8M2AododCe7X4iKfjjb1pxdN5GyeoVArIik2ejydMysqTR7OWUwPANwoJsstZBSPPoauNAU9CFq3jNGvglLUhSA8vybwU-AcbZR-izWjz6tNPIamGSFMqW1_jKPm1lxQz2RxHeka_xem2Kj6Q5WmOZRVokVn8j8U_4PHr6L6lsYlmRvijubqVqqBPG0YlvxSkyCsxCsNOjqFInI2tIuDcMXPWO1hfJWrUaNbUXB4A39p3mrcY8b033A8NWg5gmiSdmU0pnJx1qhMXT4W62v2fy-rti7AQe2GGszGogHfIDz4z159ZAoouI3i7NT30Lkq6ryMsRjWQM3aCtAuoDeUIfmT_ICCac1FnfVgRaG1TeBYN2U8pTzvP2ygL6GTy4WVQ3ApVM8aRyzpgz5tfxfTTMTkDbmGxHuGk-fNRqsZT7HYScjsPYCUhosdTKUjPA3BcFIvxDLkbmkzvtQletvNlJOXDtsGV_FiUzwram0Ksc9aZ0F7HrFgvaLtgbUZSHaqBb7STBGAzcVqpwreOJUPDGO2qqRJ9kIzn_fenjWVAUHzFCICkhCbO72rgqzKALUrrDEJD_rnRK3gDkxVRhk5D2IPkxSZAMlPkDfCgcb-xGTJJFP_W40]--></g></svg>