<?xml version="1.0" encoding="UTF-8" standalone="no"?><svg xmlns="http://www.w3.org/2000/svg" xmlns:xlink="http://www.w3.org/1999/xlink" contentStyleType="text/css" height="2029px" preserveAspectRatio="none" style="width:1095px;height:2029px;background:#FFFFFF;" version="1.1" viewBox="0 0 1095 2029" width="1095px" zoomAndPan="magnify"><defs/><g><text fill="#000000" font-family="sans-serif" font-size="14" font-weight="bold" lengthAdjust="spacing" textLength="221" x="438.75" y="29.5332">Sequence Diagram (SD) - US009</text><rect fill="#FFFFFF" height="1807.1406" style="stroke:#181818;stroke-width:1.0;" width="10" x="66" y="131.2188"/><rect fill="#FFFFFF" height="424.9609" style="stroke:#181818;stroke-width:1.0;" width="10" x="415" y="153.5703"/><rect fill="#FFFFFF" height="224.2031" style="stroke:#181818;stroke-width:1.0;" width="10" x="415" y="634.2344"/><rect fill="#FFFFFF" height="309.9063" style="stroke:#181818;stroke-width:1.0;" width="10" x="415" y="914.1406"/><rect fill="#FFFFFF" height="239.2969" style="stroke:#181818;stroke-width:1.0;" width="10" x="415" y="1268.3984"/><rect fill="#FFFFFF" height="30.3516" style="stroke:#181818;stroke-width:1.0;" width="10" x="415" y="1579.75"/><rect fill="#FFFFFF" height="288.9063" style="stroke:#181818;stroke-width:1.0;" width="10" x="415" y="1640.4531"/><rect fill="#FFFFFF" height="321.6484" style="stroke:#181818;stroke-width:1.0;" width="10" x="702" y="226.5313"/><rect fill="#FFFFFF" height="87.7969" style="stroke:#181818;stroke-width:1.0;" width="10" x="707" y="264.8828"/><rect fill="#FFFFFF" height="87.7969" style="stroke:#181818;stroke-width:1.0;" width="10" x="707" y="423.0313"/><rect fill="#FFFFFF" height="163.5" style="stroke:#181818;stroke-width:1.0;" width="10" x="702" y="664.5859"/><rect fill="#FFFFFF" height="87.7969" style="stroke:#181818;stroke-width:1.0;" width="10" x="707" y="702.9375"/><rect fill="#FFFFFF" height="249.2031" style="stroke:#181818;stroke-width:1.0;" width="10" x="702" y="944.4922"/><rect fill="#FFFFFF" height="87.7969" style="stroke:#181818;stroke-width:1.0;" width="10" x="707" y="1068.5469"/><rect fill="#FFFFFF" height="178.5938" style="stroke:#181818;stroke-width:1.0;" width="10" x="702" y="1298.75"/><rect fill="#FFFFFF" height="102.8906" style="stroke:#181818;stroke-width:1.0;" width="10" x="707" y="1337.1016"/><rect fill="#FFFFFF" height="211.8516" style="stroke:#181818;stroke-width:1.0;" width="10" x="702" y="1687.1563"/><rect fill="#FFFFFF" height="87.7969" style="stroke:#181818;stroke-width:1.0;" width="10" x="707" y="1741.8594"/><rect fill="#FFFFFF" height="30.3516" style="stroke:#181818;stroke-width:1.0;" width="10" x="986" y="974.8438"/><rect fill="none" height="645.5156" style="stroke:#000000;stroke-width:1.5;" width="1079.5" x="10" y="593.5313"/><rect fill="none" height="358.6094" style="stroke:#000000;stroke-width:1.5;" width="1059.5" x="20" y="873.4375"/><rect fill="none" height="346.9609" style="stroke:#000000;stroke-width:1.5;" width="974" x="20" y="1522.6953"/><line style="stroke:#181818;stroke-width:0.5;stroke-dasharray:5.0,5.0;" x1="71" x2="71" y1="121.2188" y2="1947.3594"/><line style="stroke:#181818;stroke-width:0.5;stroke-dasharray:5.0,5.0;" x1="420" x2="420" y1="121.2188" y2="1947.3594"/><line style="stroke:#181818;stroke-width:0.5;stroke-dasharray:5.0,5.0;" x1="706.5" x2="706.5" y1="192.875" y2="1947.3594"/><line style="stroke:#181818;stroke-width:0.5;stroke-dasharray:5.0,5.0;" x1="990.5" x2="990.5" y1="121.2188" y2="1947.3594"/><text fill="#000000" font-family="sans-serif" font-size="14" font-weight="bold" lengthAdjust="spacing" textLength="68" x="34" y="118.1426">Customer</text><ellipse cx="71" cy="52.1094" fill="#E3E3E3" rx="8" ry="8" style="stroke:#181818;stroke-width:0.5;"/><path d="M71,60.1094 L71,87.1094 M58,68.1094 L84,68.1094 M71,87.1094 L58,102.1094 M71,87.1094 L84,102.1094 " fill="none" style="stroke:#181818;stroke-width:0.5;"/><text fill="#000000" font-family="sans-serif" font-size="14" font-weight="bold" lengthAdjust="spacing" textLength="68" x="34" y="1960.8926">Customer</text><ellipse cx="71" cy="1972.4688" fill="#E3E3E3" rx="8" ry="8" style="stroke:#181818;stroke-width:0.5;"/><path d="M71,1980.4688 L71,2007.4688 M58,1988.4688 L84,1988.4688 M71,2007.4688 L58,2022.4688 M71,2007.4688 L84,2022.4688 " fill="none" style="stroke:#181818;stroke-width:0.5;"/><rect fill="#E3E3E3" height="31.6094" rx="2.5" ry="2.5" style="stroke:#181818;stroke-width:0.5;" width="136" x="352" y="88.6094"/><text fill="#000000" font-family="sans-serif" font-size="14" font-weight="bold" lengthAdjust="spacing" textLength="114" x="363" y="110.1426">:ScheduleVisitUI</text><rect fill="#E3E3E3" height="31.6094" rx="2.5" ry="2.5" style="stroke:#181818;stroke-width:0.5;" width="136" x="352" y="1946.3594"/><text fill="#000000" font-family="sans-serif" font-size="14" font-weight="bold" lengthAdjust="spacing" textLength="114" x="363" y="1967.8926">:ScheduleVisitUI</text><rect fill="#E3E3E3" height="31.6094" rx="2.5" ry="2.5" style="stroke:#181818;stroke-width:0.5;" width="193" x="610.5" y="1946.3594"/><text fill="#000000" font-family="sans-serif" font-size="14" font-weight="bold" lengthAdjust="spacing" textLength="171" x="621.5" y="1967.8926">:ScheduleVisitController</text><rect fill="#E3E3E3" height="49.2188" rx="2.5" ry="2.5" style="stroke:#181818;stroke-width:0.5;" width="157" x="912.5" y="71"/><text fill="#000000" font-family="sans-serif" font-size="14" font-weight="bold" lengthAdjust="spacing" textLength="130" x="928" y="92.5332">announcementList</text><text fill="#000000" font-family="sans-serif" font-size="14" font-weight="bold" lengthAdjust="spacing" textLength="135" x="923.5" y="110.1426">:AnnouncementList</text><rect fill="#E3E3E3" height="49.2188" rx="2.5" ry="2.5" style="stroke:#181818;stroke-width:0.5;" width="157" x="912.5" y="1946.3594"/><text fill="#000000" font-family="sans-serif" font-size="14" font-weight="bold" lengthAdjust="spacing" textLength="130" x="928" y="1967.8926">announcementList</text><text fill="#000000" font-family="sans-serif" font-size="14" font-weight="bold" lengthAdjust="spacing" textLength="135" x="923.5" y="1985.502">:AnnouncementList</text><rect fill="#FFFFFF" height="1807.1406" style="stroke:#181818;stroke-width:1.0;" width="10" x="66" y="131.2188"/><rect fill="#FFFFFF" height="424.9609" style="stroke:#181818;stroke-width:1.0;" width="10" x="415" y="153.5703"/><rect fill="#FFFFFF" height="224.2031" style="stroke:#181818;stroke-width:1.0;" width="10" x="415" y="634.2344"/><rect fill="#FFFFFF" height="309.9063" style="stroke:#181818;stroke-width:1.0;" width="10" x="415" y="914.1406"/><rect fill="#FFFFFF" height="239.2969" style="stroke:#181818;stroke-width:1.0;" width="10" x="415" y="1268.3984"/><rect fill="#FFFFFF" height="30.3516" style="stroke:#181818;stroke-width:1.0;" width="10" x="415" y="1579.75"/><rect fill="#FFFFFF" height="288.9063" style="stroke:#181818;stroke-width:1.0;" width="10" x="415" y="1640.4531"/><rect fill="#FFFFFF" height="321.6484" style="stroke:#181818;stroke-width:1.0;" width="10" x="702" y="226.5313"/><rect fill="#FFFFFF" height="87.7969" style="stroke:#181818;stroke-width:1.0;" width="10" x="707" y="264.8828"/><rect fill="#FFFFFF" height="87.7969" style="stroke:#181818;stroke-width:1.0;" width="10" x="707" y="423.0313"/><rect fill="#FFFFFF" height="163.5" style="stroke:#181818;stroke-width:1.0;" width="10" x="702" y="664.5859"/><rect fill="#FFFFFF" height="87.7969" style="stroke:#181818;stroke-width:1.0;" width="10" x="707" y="702.9375"/><rect fill="#FFFFFF" height="249.2031" style="stroke:#181818;stroke-width:1.0;" width="10" x="702" y="944.4922"/><rect fill="#FFFFFF" height="87.7969" style="stroke:#181818;stroke-width:1.0;" width="10" x="707" y="1068.5469"/><rect fill="#FFFFFF" height="178.5938" style="stroke:#181818;stroke-width:1.0;" width="10" x="702" y="1298.75"/><rect fill="#FFFFFF" height="102.8906" style="stroke:#181818;stroke-width:1.0;" width="10" x="707" y="1337.1016"/><rect fill="#FFFFFF" height="211.8516" style="stroke:#181818;stroke-width:1.0;" width="10" x="702" y="1687.1563"/><rect fill="#FFFFFF" height="87.7969" style="stroke:#181818;stroke-width:1.0;" width="10" x="707" y="1741.8594"/><rect fill="#FFFFFF" height="30.3516" style="stroke:#181818;stroke-width:1.0;" width="10" x="986" y="974.8438"/><polygon fill="#181818" points="403,149.5703,413,153.5703,403,157.5703,407,153.5703" style="stroke:#181818;stroke-width:1.0;"/><line style="stroke:#181818;stroke-width:1.0;" x1="76" x2="409" y1="153.5703" y2="153.5703"/><text fill="#000000" font-family="sans-serif" font-size="13" font-weight="bold" lengthAdjust="spacing" textLength="7" x="83" y="148.7139">1</text><text fill="#000000" font-family="sans-serif" font-size="13" lengthAdjust="spacing" textLength="163" x="94" y="148.7139">asks to schedule a new visit</text><polygon fill="#181818" points="598.5,179.9219,608.5,183.9219,598.5,187.9219,602.5,183.9219" style="stroke:#181818;stroke-width:1.0;"/><line style="stroke:#181818;stroke-width:1.0;" x1="425" x2="604.5" y1="183.9219" y2="183.9219"/><text fill="#000000" font-family="sans-serif" font-size="13" font-weight="bold" lengthAdjust="spacing" textLength="7" x="432" y="179.0654">2</text><text fill="#000000" font-family="sans-serif" font-size="13" lengthAdjust="spacing" textLength="36" x="443" y="179.0654">create</text><rect fill="#E3E3E3" height="31.6094" rx="2.5" ry="2.5" style="stroke:#181818;stroke-width:0.5;" width="193" x="610.5" y="161.5703"/><text fill="#000000" font-family="sans-serif" font-size="14" font-weight="bold" lengthAdjust="spacing" textLength="171" x="621.5" y="183.1035">:ScheduleVisitController</text><polygon fill="#181818" points="690,222.5313,700,226.5313,690,230.5313,694,226.5313" style="stroke:#181818;stroke-width:1.0;"/><line style="stroke:#181818;stroke-width:1.0;" x1="425" x2="696" y1="226.5313" y2="226.5313"/><text fill="#000000" font-family="sans-serif" font-size="13" font-weight="bold" lengthAdjust="spacing" textLength="7" x="432" y="221.6748">3</text><text fill="#000000" font-family="sans-serif" font-size="13" lengthAdjust="spacing" textLength="154" x="443" y="221.6748">getAnnouncementListDto()</text><line style="stroke:#181818;stroke-width:1.0;" x1="712" x2="759" y1="251.8828" y2="251.8828"/><line style="stroke:#181818;stroke-width:1.0;" x1="759" x2="759" y1="251.8828" y2="264.8828"/><line style="stroke:#181818;stroke-width:1.0;" x1="718" x2="759" y1="264.8828" y2="264.8828"/><polygon fill="#181818" points="728,260.8828,718,264.8828,728,268.8828,724,264.8828" style="stroke:#181818;stroke-width:1.0;"/><text fill="#000000" font-family="sans-serif" font-size="13" font-weight="bold" lengthAdjust="spacing" textLength="7" x="724" y="247.0264">4</text><text fill="#000000" font-family="sans-serif" font-size="13" lengthAdjust="spacing" textLength="156" x="735" y="247.0264">getAllAnnouncementsList()</text><rect fill="none" height="41.4453" style="stroke:#000000;stroke-width:1.5;" width="199" x="607.5" y="277.8828"/><path d="M607.5,277.8828 L669.5,277.8828 L669.5,285.8828 L659.5,295.8828 L607.5,295.8828 L607.5,277.8828 " fill="#EEEEEE" style="stroke:#000000;stroke-width:2.0;"/><text fill="#000000" font-family="sans-serif" font-size="13" font-weight="bold" lengthAdjust="spacing" textLength="17" x="620.5" y="293.3779">ref</text><text fill="#000000" font-family="sans-serif" font-size="12" lengthAdjust="spacing" textLength="135" x="639.5" y="312.3398">Get Announcements List</text><line style="stroke:#181818;stroke-width:1.0;stroke-dasharray:2.0,2.0;" x1="717" x2="759" y1="351.6797" y2="351.6797"/><line style="stroke:#181818;stroke-width:1.0;stroke-dasharray:2.0,2.0;" x1="759" x2="759" y1="351.6797" y2="364.6797"/><line style="stroke:#181818;stroke-width:1.0;stroke-dasharray:2.0,2.0;" x1="712" x2="759" y1="364.6797" y2="364.6797"/><polygon fill="#181818" points="722,360.6797,712,364.6797,722,368.6797,718,364.6797" style="stroke:#181818;stroke-width:1.0;"/><text fill="#000000" font-family="sans-serif" font-size="13" font-weight="bold" lengthAdjust="spacing" textLength="7" x="724" y="346.8232">5</text><text fill="#000000" font-family="sans-serif" font-size="13" lengthAdjust="spacing" textLength="74" x="735" y="346.8232">listToDisplay</text><line style="stroke:#181818;stroke-width:1.0;" x1="712" x2="759" y1="410.0313" y2="410.0313"/><line style="stroke:#181818;stroke-width:1.0;" x1="759" x2="759" y1="410.0313" y2="423.0313"/><line style="stroke:#181818;stroke-width:1.0;" x1="718" x2="759" y1="423.0313" y2="423.0313"/><polygon fill="#181818" points="728,419.0313,718,423.0313,728,427.0313,724,423.0313" style="stroke:#181818;stroke-width:1.0;"/><text fill="#000000" font-family="sans-serif" font-size="13" font-weight="bold" lengthAdjust="spacing" textLength="7" x="724" y="405.1748">6</text><text fill="#000000" font-family="sans-serif" font-size="13" lengthAdjust="spacing" textLength="113" x="735" y="405.1748">toDto(listToDisplay)</text><rect fill="none" height="41.4453" style="stroke:#000000;stroke-width:1.5;" width="199" x="607.5" y="436.0313"/><path d="M607.5,436.0313 L669.5,436.0313 L669.5,444.0313 L659.5,454.0313 L607.5,454.0313 L607.5,436.0313 " fill="#EEEEEE" style="stroke:#000000;stroke-width:2.0;"/><text fill="#000000" font-family="sans-serif" font-size="13" font-weight="bold" lengthAdjust="spacing" textLength="17" x="620.5" y="451.5264">ref</text><text fill="#000000" font-family="sans-serif" font-size="12" lengthAdjust="spacing" textLength="150" x="632" y="470.4883">Convert Display List to DTO</text><line style="stroke:#181818;stroke-width:1.0;stroke-dasharray:2.0,2.0;" x1="717" x2="759" y1="509.8281" y2="509.8281"/><line style="stroke:#181818;stroke-width:1.0;stroke-dasharray:2.0,2.0;" x1="759" x2="759" y1="509.8281" y2="522.8281"/><line style="stroke:#181818;stroke-width:1.0;stroke-dasharray:2.0,2.0;" x1="712" x2="759" y1="522.8281" y2="522.8281"/><polygon fill="#181818" points="722,518.8281,712,522.8281,722,526.8281,718,522.8281" style="stroke:#181818;stroke-width:1.0;"/><text fill="#000000" font-family="sans-serif" font-size="13" font-weight="bold" lengthAdjust="spacing" textLength="7" x="724" y="504.9717">7</text><text fill="#000000" font-family="sans-serif" font-size="13" lengthAdjust="spacing" textLength="94" x="735" y="504.9717">listToDisplayDto</text><polygon fill="#181818" points="436,544.1797,426,548.1797,436,552.1797,432,548.1797" style="stroke:#181818;stroke-width:1.0;"/><line style="stroke:#181818;stroke-width:1.0;stroke-dasharray:2.0,2.0;" x1="430" x2="706" y1="548.1797" y2="548.1797"/><text fill="#000000" font-family="sans-serif" font-size="13" font-weight="bold" lengthAdjust="spacing" textLength="7" x="442" y="543.3232">8</text><text fill="#000000" font-family="sans-serif" font-size="13" lengthAdjust="spacing" textLength="94" x="453" y="543.3232">listToDisplayDto</text><polygon fill="#181818" points="87,574.5313,77,578.5313,87,582.5313,83,578.5313" style="stroke:#181818;stroke-width:1.0;"/><line style="stroke:#181818;stroke-width:1.0;stroke-dasharray:2.0,2.0;" x1="81" x2="419" y1="578.5313" y2="578.5313"/><text fill="#000000" font-family="sans-serif" font-size="13" font-weight="bold" lengthAdjust="spacing" textLength="7" x="93" y="573.6748">9</text><text fill="#000000" font-family="sans-serif" font-size="13" lengthAdjust="spacing" textLength="154" x="104" y="573.6748">shows announcements list</text><path d="M10,593.5313 L75,593.5313 L75,601.8828 L65,611.8828 L10,611.8828 L10,593.5313 " fill="#EEEEEE" style="stroke:#000000;stroke-width:1.5;"/><rect fill="none" height="645.5156" style="stroke:#000000;stroke-width:1.5;" width="1079.5" x="10" y="593.5313"/><text fill="#000000" font-family="sans-serif" font-size="13" font-weight="bold" lengthAdjust="spacing" textLength="20" x="25" y="608.0264">opt</text><text fill="#000000" font-family="sans-serif" font-size="11" font-weight="bold" lengthAdjust="spacing" textLength="122" x="90" y="606.9502">[Selection of criterias]</text><polygon fill="#181818" points="403,630.2344,413,634.2344,403,638.2344,407,634.2344" style="stroke:#181818;stroke-width:1.0;"/><line style="stroke:#181818;stroke-width:1.0;" x1="76" x2="409" y1="634.2344" y2="634.2344"/><text fill="#000000" font-family="sans-serif" font-size="13" font-weight="bold" lengthAdjust="spacing" textLength="14" x="83" y="629.3779">10</text><text fill="#000000" font-family="sans-serif" font-size="13" lengthAdjust="spacing" textLength="149" x="101" y="629.3779">asks to select filter for list</text><polygon fill="#181818" points="690,660.5859,700,664.5859,690,668.5859,694,664.5859" style="stroke:#181818;stroke-width:1.0;"/><line style="stroke:#181818;stroke-width:1.0;" x1="425" x2="696" y1="664.5859" y2="664.5859"/><text fill="#000000" font-family="sans-serif" font-size="13" font-weight="bold" lengthAdjust="spacing" textLength="14" x="432" y="659.7295">11</text><text fill="#000000" font-family="sans-serif" font-size="13" lengthAdjust="spacing" textLength="88" x="450" y="659.7295">getCriteriaList()</text><line style="stroke:#181818;stroke-width:1.0;" x1="712" x2="759" y1="689.9375" y2="689.9375"/><line style="stroke:#181818;stroke-width:1.0;" x1="759" x2="759" y1="689.9375" y2="702.9375"/><line style="stroke:#181818;stroke-width:1.0;" x1="718" x2="759" y1="702.9375" y2="702.9375"/><polygon fill="#181818" points="728,698.9375,718,702.9375,728,706.9375,724,702.9375" style="stroke:#181818;stroke-width:1.0;"/><text fill="#000000" font-family="sans-serif" font-size="13" font-weight="bold" lengthAdjust="spacing" textLength="14" x="724" y="685.0811">12</text><text fill="#000000" font-family="sans-serif" font-size="13" lengthAdjust="spacing" textLength="88" x="742" y="685.0811">getCriteriaList()</text><rect fill="none" height="41.4453" style="stroke:#000000;stroke-width:1.5;" width="199" x="607.5" y="715.9375"/><path d="M607.5,715.9375 L669.5,715.9375 L669.5,723.9375 L659.5,733.9375 L607.5,733.9375 L607.5,715.9375 " fill="#EEEEEE" style="stroke:#000000;stroke-width:2.0;"/><text fill="#000000" font-family="sans-serif" font-size="13" font-weight="bold" lengthAdjust="spacing" textLength="17" x="620.5" y="731.4326">ref</text><text fill="#000000" font-family="sans-serif" font-size="12" lengthAdjust="spacing" textLength="85" x="664.5" y="750.3945">Get Criteria List</text><line style="stroke:#181818;stroke-width:1.0;stroke-dasharray:2.0,2.0;" x1="717" x2="759" y1="789.7344" y2="789.7344"/><line style="stroke:#181818;stroke-width:1.0;stroke-dasharray:2.0,2.0;" x1="759" x2="759" y1="789.7344" y2="802.7344"/><line style="stroke:#181818;stroke-width:1.0;stroke-dasharray:2.0,2.0;" x1="712" x2="759" y1="802.7344" y2="802.7344"/><polygon fill="#181818" points="722,798.7344,712,802.7344,722,806.7344,718,802.7344" style="stroke:#181818;stroke-width:1.0;"/><text fill="#000000" font-family="sans-serif" font-size="13" font-weight="bold" lengthAdjust="spacing" textLength="14" x="724" y="784.8779">13</text><text fill="#000000" font-family="sans-serif" font-size="13" lengthAdjust="spacing" textLength="60" x="742" y="784.8779">criteriaList</text><polygon fill="#181818" points="436,824.0859,426,828.0859,436,832.0859,432,828.0859" style="stroke:#181818;stroke-width:1.0;"/><line style="stroke:#181818;stroke-width:1.0;stroke-dasharray:2.0,2.0;" x1="430" x2="706" y1="828.0859" y2="828.0859"/><text fill="#000000" font-family="sans-serif" font-size="13" font-weight="bold" lengthAdjust="spacing" textLength="14" x="442" y="823.2295">14</text><text fill="#000000" font-family="sans-serif" font-size="13" lengthAdjust="spacing" textLength="60" x="460" y="823.2295">criteriaList</text><polygon fill="#181818" points="87,854.4375,77,858.4375,87,862.4375,83,858.4375" style="stroke:#181818;stroke-width:1.0;"/><line style="stroke:#181818;stroke-width:1.0;stroke-dasharray:2.0,2.0;" x1="81" x2="419" y1="858.4375" y2="858.4375"/><text fill="#000000" font-family="sans-serif" font-size="13" font-weight="bold" lengthAdjust="spacing" textLength="14" x="93" y="853.5811">15</text><text fill="#000000" font-family="sans-serif" font-size="13" lengthAdjust="spacing" textLength="101" x="111" y="853.5811">shows criteria list</text><path d="M20,873.4375 L93,873.4375 L93,881.7891 L83,891.7891 L20,891.7891 L20,873.4375 " fill="#EEEEEE" style="stroke:#000000;stroke-width:1.5;"/><rect fill="none" height="358.6094" style="stroke:#000000;stroke-width:1.5;" width="1059.5" x="20" y="873.4375"/><text fill="#000000" font-family="sans-serif" font-size="13" font-weight="bold" lengthAdjust="spacing" textLength="28" x="35" y="887.9326">loop</text><text fill="#000000" font-family="sans-serif" font-size="11" font-weight="bold" lengthAdjust="spacing" textLength="105" x="108" y="886.8564">[For each criterion]</text><polygon fill="#181818" points="403,910.1406,413,914.1406,403,918.1406,407,914.1406" style="stroke:#181818;stroke-width:1.0;"/><line style="stroke:#181818;stroke-width:1.0;" x1="76" x2="409" y1="914.1406" y2="914.1406"/><text fill="#000000" font-family="sans-serif" font-size="13" font-weight="bold" lengthAdjust="spacing" textLength="14" x="83" y="909.2842">16</text><text fill="#000000" font-family="sans-serif" font-size="13" lengthAdjust="spacing" textLength="85" x="101" y="909.2842">selects criteria</text><polygon fill="#181818" points="690,940.4922,700,944.4922,690,948.4922,694,944.4922" style="stroke:#181818;stroke-width:1.0;"/><line style="stroke:#181818;stroke-width:1.0;" x1="425" x2="696" y1="944.4922" y2="944.4922"/><text fill="#000000" font-family="sans-serif" font-size="13" font-weight="bold" lengthAdjust="spacing" textLength="14" x="432" y="939.6357">17</text><text fill="#000000" font-family="sans-serif" font-size="13" lengthAdjust="spacing" textLength="129" x="450" y="939.6357">getFilteredList(criteria)</text><polygon fill="#181818" points="974,970.8438,984,974.8438,974,978.8438,978,974.8438" style="stroke:#181818;stroke-width:1.0;"/><line style="stroke:#181818;stroke-width:1.0;" x1="712" x2="980" y1="974.8438" y2="974.8438"/><text fill="#000000" font-family="sans-serif" font-size="13" font-weight="bold" lengthAdjust="spacing" textLength="14" x="719" y="969.9873">18</text><text fill="#000000" font-family="sans-serif" font-size="13" lengthAdjust="spacing" textLength="237" x="737" y="969.9873">listToDisplay = sortListByCriteria(criteria)</text><polygon fill="#181818" points="723,1001.1953,713,1005.1953,723,1009.1953,719,1005.1953" style="stroke:#181818;stroke-width:1.0;"/><line style="stroke:#181818;stroke-width:1.0;stroke-dasharray:2.0,2.0;" x1="717" x2="990" y1="1005.1953" y2="1005.1953"/><text fill="#000000" font-family="sans-serif" font-size="13" font-weight="bold" lengthAdjust="spacing" textLength="14" x="729" y="1000.3389">19</text><text fill="#000000" font-family="sans-serif" font-size="13" lengthAdjust="spacing" textLength="74" x="747" y="1000.3389">listToDisplay</text><line style="stroke:#181818;stroke-width:1.0;" x1="712" x2="759" y1="1055.5469" y2="1055.5469"/><line style="stroke:#181818;stroke-width:1.0;" x1="759" x2="759" y1="1055.5469" y2="1068.5469"/><line style="stroke:#181818;stroke-width:1.0;" x1="718" x2="759" y1="1068.5469" y2="1068.5469"/><polygon fill="#181818" points="728,1064.5469,718,1068.5469,728,1072.5469,724,1068.5469" style="stroke:#181818;stroke-width:1.0;"/><text fill="#000000" font-family="sans-serif" font-size="13" font-weight="bold" lengthAdjust="spacing" textLength="14" x="724" y="1050.6904">20</text><text fill="#000000" font-family="sans-serif" font-size="13" lengthAdjust="spacing" textLength="113" x="742" y="1050.6904">toDto(listToDisplay)</text><rect fill="none" height="41.4453" style="stroke:#000000;stroke-width:1.5;" width="199" x="607.5" y="1081.5469"/><path d="M607.5,1081.5469 L669.5,1081.5469 L669.5,1089.5469 L659.5,1099.5469 L607.5,1099.5469 L607.5,1081.5469 " fill="#EEEEEE" style="stroke:#000000;stroke-width:2.0;"/><text fill="#000000" font-family="sans-serif" font-size="13" font-weight="bold" lengthAdjust="spacing" textLength="17" x="620.5" y="1097.042">ref</text><text fill="#000000" font-family="sans-serif" font-size="12" lengthAdjust="spacing" textLength="150" x="632" y="1116.0039">Convert Display List to DTO</text><line style="stroke:#181818;stroke-width:1.0;stroke-dasharray:2.0,2.0;" x1="717" x2="759" y1="1155.3438" y2="1155.3438"/><line style="stroke:#181818;stroke-width:1.0;stroke-dasharray:2.0,2.0;" x1="759" x2="759" y1="1155.3438" y2="1168.3438"/><line style="stroke:#181818;stroke-width:1.0;stroke-dasharray:2.0,2.0;" x1="712" x2="759" y1="1168.3438" y2="1168.3438"/><polygon fill="#181818" points="722,1164.3438,712,1168.3438,722,1172.3438,718,1168.3438" style="stroke:#181818;stroke-width:1.0;"/><text fill="#000000" font-family="sans-serif" font-size="13" font-weight="bold" lengthAdjust="spacing" textLength="14" x="724" y="1150.4873">21</text><text fill="#000000" font-family="sans-serif" font-size="13" lengthAdjust="spacing" textLength="94" x="742" y="1150.4873">listToDisplayDto</text><polygon fill="#181818" points="436,1189.6953,426,1193.6953,436,1197.6953,432,1193.6953" style="stroke:#181818;stroke-width:1.0;"/><line style="stroke:#181818;stroke-width:1.0;stroke-dasharray:2.0,2.0;" x1="430" x2="706" y1="1193.6953" y2="1193.6953"/><text fill="#000000" font-family="sans-serif" font-size="13" font-weight="bold" lengthAdjust="spacing" textLength="14" x="442" y="1188.8389">22</text><text fill="#000000" font-family="sans-serif" font-size="13" lengthAdjust="spacing" textLength="94" x="460" y="1188.8389">listToDisplayDto</text><polygon fill="#181818" points="87,1220.0469,77,1224.0469,87,1228.0469,83,1224.0469" style="stroke:#181818;stroke-width:1.0;"/><line style="stroke:#181818;stroke-width:1.0;stroke-dasharray:2.0,2.0;" x1="81" x2="419" y1="1224.0469" y2="1224.0469"/><text fill="#000000" font-family="sans-serif" font-size="13" font-weight="bold" lengthAdjust="spacing" textLength="14" x="93" y="1219.1904">23</text><text fill="#000000" font-family="sans-serif" font-size="13" lengthAdjust="spacing" textLength="154" x="111" y="1219.1904">shows announcements list</text><polygon fill="#181818" points="403,1264.3984,413,1268.3984,403,1272.3984,407,1268.3984" style="stroke:#181818;stroke-width:1.0;"/><line style="stroke:#181818;stroke-width:1.0;" x1="76" x2="409" y1="1268.3984" y2="1268.3984"/><text fill="#000000" font-family="sans-serif" font-size="13" font-weight="bold" lengthAdjust="spacing" textLength="14" x="83" y="1263.542">24</text><text fill="#000000" font-family="sans-serif" font-size="13" lengthAdjust="spacing" textLength="149" x="101" y="1263.542">selects an announcement</text><polygon fill="#181818" points="690,1294.75,700,1298.75,690,1302.75,694,1298.75" style="stroke:#181818;stroke-width:1.0;"/><line style="stroke:#181818;stroke-width:1.0;" x1="425" x2="696" y1="1298.75" y2="1298.75"/><text fill="#000000" font-family="sans-serif" font-size="13" font-weight="bold" lengthAdjust="spacing" textLength="14" x="432" y="1293.8936">25</text><text fill="#000000" font-family="sans-serif" font-size="13" lengthAdjust="spacing" textLength="159" x="450" y="1293.8936">toModel(announcementDto)</text><line style="stroke:#181818;stroke-width:1.0;" x1="712" x2="759" y1="1324.1016" y2="1324.1016"/><line style="stroke:#181818;stroke-width:1.0;" x1="759" x2="759" y1="1324.1016" y2="1337.1016"/><line style="stroke:#181818;stroke-width:1.0;" x1="718" x2="759" y1="1337.1016" y2="1337.1016"/><polygon fill="#181818" points="728,1333.1016,718,1337.1016,728,1341.1016,724,1337.1016" style="stroke:#181818;stroke-width:1.0;"/><text fill="#000000" font-family="sans-serif" font-size="13" font-weight="bold" lengthAdjust="spacing" textLength="14" x="724" y="1319.2451">26</text><text fill="#000000" font-family="sans-serif" font-size="13" lengthAdjust="spacing" textLength="159" x="742" y="1319.2451">toModel(announcementDto)</text><rect fill="none" height="56.5391" style="stroke:#000000;stroke-width:1.5;" width="199" x="607.5" y="1350.1016"/><path d="M607.5,1350.1016 L669.5,1350.1016 L669.5,1358.1016 L659.5,1368.1016 L607.5,1368.1016 L607.5,1350.1016 " fill="#EEEEEE" style="stroke:#000000;stroke-width:2.0;"/><text fill="#000000" font-family="sans-serif" font-size="13" font-weight="bold" lengthAdjust="spacing" textLength="17" x="620.5" y="1365.5967">ref</text><text fill="#000000" font-family="sans-serif" font-size="12" lengthAdjust="spacing" textLength="156" x="629" y="1384.5586">Convert Announcement DTO</text><text fill="#000000" font-family="sans-serif" font-size="12" lengthAdjust="spacing" textLength="46" x="685.5" y="1399.6523">to Model</text><line style="stroke:#181818;stroke-width:1.0;stroke-dasharray:2.0,2.0;" x1="717" x2="759" y1="1438.9922" y2="1438.9922"/><line style="stroke:#181818;stroke-width:1.0;stroke-dasharray:2.0,2.0;" x1="759" x2="759" y1="1438.9922" y2="1451.9922"/><line style="stroke:#181818;stroke-width:1.0;stroke-dasharray:2.0,2.0;" x1="712" x2="759" y1="1451.9922" y2="1451.9922"/><polygon fill="#181818" points="722,1447.9922,712,1451.9922,722,1455.9922,718,1451.9922" style="stroke:#181818;stroke-width:1.0;"/><text fill="#000000" font-family="sans-serif" font-size="13" font-weight="bold" lengthAdjust="spacing" textLength="14" x="724" y="1434.1357">27</text><text fill="#000000" font-family="sans-serif" font-size="13" lengthAdjust="spacing" textLength="85" x="742" y="1434.1357">announcement</text><polygon fill="#181818" points="436,1473.3438,426,1477.3438,436,1481.3438,432,1477.3438" style="stroke:#181818;stroke-width:1.0;"/><line style="stroke:#181818;stroke-width:1.0;stroke-dasharray:2.0,2.0;" x1="430" x2="706" y1="1477.3438" y2="1477.3438"/><text fill="#000000" font-family="sans-serif" font-size="13" font-weight="bold" lengthAdjust="spacing" textLength="14" x="442" y="1472.4873">28</text><text fill="#000000" font-family="sans-serif" font-size="13" lengthAdjust="spacing" textLength="85" x="460" y="1472.4873">announcement</text><polygon fill="#181818" points="87,1503.6953,77,1507.6953,87,1511.6953,83,1507.6953" style="stroke:#181818;stroke-width:1.0;"/><line style="stroke:#181818;stroke-width:1.0;stroke-dasharray:2.0,2.0;" x1="81" x2="419" y1="1507.6953" y2="1507.6953"/><text fill="#000000" font-family="sans-serif" font-size="13" font-weight="bold" lengthAdjust="spacing" textLength="14" x="93" y="1502.8389">29</text><text fill="#000000" font-family="sans-serif" font-size="13" lengthAdjust="spacing" textLength="79" x="111" y="1502.8389">requests data</text><path d="M20,1522.6953 L93,1522.6953 L93,1531.0469 L83,1541.0469 L20,1541.0469 L20,1522.6953 " fill="#EEEEEE" style="stroke:#000000;stroke-width:1.5;"/><rect fill="none" height="346.9609" style="stroke:#000000;stroke-width:1.5;" width="974" x="20" y="1522.6953"/><text fill="#000000" font-family="sans-serif" font-size="13" font-weight="bold" lengthAdjust="spacing" textLength="28" x="35" y="1537.1904">loop</text><text fill="#000000" font-family="sans-serif" font-size="11" font-weight="bold" lengthAdjust="spacing" textLength="142" x="108" y="1536.1143">[While Costumer intends]</text><polygon fill="#181818" points="403,1575.75,413,1579.75,403,1583.75,407,1579.75" style="stroke:#181818;stroke-width:1.0;"/><line style="stroke:#181818;stroke-width:1.0;" x1="76" x2="409" y1="1579.75" y2="1579.75"/><text fill="#000000" font-family="sans-serif" font-size="13" font-weight="bold" lengthAdjust="spacing" textLength="14" x="83" y="1566.7178">30</text><text fill="#000000" font-family="sans-serif" font-size="13" lengthAdjust="spacing" textLength="302" x="101" y="1558.542">types requested data (visitDay, visitMonth, visitYear,</text><text fill="#000000" font-family="sans-serif" font-size="13" lengthAdjust="spacing" textLength="113" x="105" y="1574.8936">startHour, endHour)</text><polygon fill="#181818" points="87,1606.1016,77,1610.1016,87,1614.1016,83,1610.1016" style="stroke:#181818;stroke-width:1.0;"/><line style="stroke:#181818;stroke-width:1.0;stroke-dasharray:2.0,2.0;" x1="81" x2="419" y1="1610.1016" y2="1610.1016"/><text fill="#000000" font-family="sans-serif" font-size="13" font-weight="bold" lengthAdjust="spacing" textLength="14" x="93" y="1605.2451">31</text><text fill="#000000" font-family="sans-serif" font-size="13" lengthAdjust="spacing" textLength="198" x="111" y="1605.2451">shows all data and asks to submit</text><polygon fill="#181818" points="403,1636.4531,413,1640.4531,403,1644.4531,407,1640.4531" style="stroke:#181818;stroke-width:1.0;"/><line style="stroke:#181818;stroke-width:1.0;" x1="76" x2="409" y1="1640.4531" y2="1640.4531"/><text fill="#000000" font-family="sans-serif" font-size="13" font-weight="bold" lengthAdjust="spacing" textLength="14" x="83" y="1635.5967">32</text><text fill="#000000" font-family="sans-serif" font-size="13" lengthAdjust="spacing" textLength="75" x="101" y="1635.5967">submits data</text><polygon fill="#181818" points="690,1683.1563,700,1687.1563,690,1691.1563,694,1687.1563" style="stroke:#181818;stroke-width:1.0;"/><line style="stroke:#181818;stroke-width:1.0;" x1="425" x2="696" y1="1687.1563" y2="1687.1563"/><text fill="#000000" font-family="sans-serif" font-size="13" font-weight="bold" lengthAdjust="spacing" textLength="14" x="432" y="1674.124">33</text><text fill="#000000" font-family="sans-serif" font-size="13" lengthAdjust="spacing" textLength="224" x="450" y="1665.9482">scheduleVisit(announcement, visitDay,</text><text fill="#000000" font-family="sans-serif" font-size="13" lengthAdjust="spacing" textLength="236" x="454" y="1682.2998">visitMonth, visitYear, startHour, endHour)</text><line style="stroke:#181818;stroke-width:1.0;" x1="712" x2="759" y1="1728.8594" y2="1728.8594"/><line style="stroke:#181818;stroke-width:1.0;" x1="759" x2="759" y1="1728.8594" y2="1741.8594"/><line style="stroke:#181818;stroke-width:1.0;" x1="718" x2="759" y1="1741.8594" y2="1741.8594"/><polygon fill="#181818" points="728,1737.8594,718,1741.8594,728,1745.8594,724,1741.8594" style="stroke:#181818;stroke-width:1.0;"/><text fill="#000000" font-family="sans-serif" font-size="13" font-weight="bold" lengthAdjust="spacing" textLength="14" x="724" y="1715.8271">34</text><text fill="#000000" font-family="sans-serif" font-size="13" lengthAdjust="spacing" textLength="224" x="742" y="1707.6514">scheduleVisit(announcement, visitDay,</text><text fill="#000000" font-family="sans-serif" font-size="13" lengthAdjust="spacing" textLength="236" x="746" y="1724.0029">visitMonth, visitYear, startHour, endHour)</text><rect fill="none" height="41.4453" style="stroke:#000000;stroke-width:1.5;" width="199" x="607.5" y="1754.8594"/><path d="M607.5,1754.8594 L669.5,1754.8594 L669.5,1762.8594 L659.5,1772.8594 L607.5,1772.8594 L607.5,1754.8594 " fill="#EEEEEE" style="stroke:#000000;stroke-width:2.0;"/><text fill="#000000" font-family="sans-serif" font-size="13" font-weight="bold" lengthAdjust="spacing" textLength="17" x="620.5" y="1770.3545">ref</text><text fill="#000000" font-family="sans-serif" font-size="12" lengthAdjust="spacing" textLength="78" x="668" y="1789.3164">Schedule Visit</text><line style="stroke:#181818;stroke-width:1.0;stroke-dasharray:2.0,2.0;" x1="717" x2="759" y1="1828.6563" y2="1828.6563"/><line style="stroke:#181818;stroke-width:1.0;stroke-dasharray:2.0,2.0;" x1="759" x2="759" y1="1828.6563" y2="1841.6563"/><line style="stroke:#181818;stroke-width:1.0;stroke-dasharray:2.0,2.0;" x1="712" x2="759" y1="1841.6563" y2="1841.6563"/><polygon fill="#181818" points="722,1837.6563,712,1841.6563,722,1845.6563,718,1841.6563" style="stroke:#181818;stroke-width:1.0;"/><text fill="#000000" font-family="sans-serif" font-size="13" font-weight="bold" lengthAdjust="spacing" textLength="14" x="724" y="1823.7998">35</text><text fill="#000000" font-family="sans-serif" font-size="13" lengthAdjust="spacing" textLength="70" x="742" y="1823.7998">confirmation</text><polygon fill="#181818" points="436,1895.0078,426,1899.0078,436,1903.0078,432,1899.0078" style="stroke:#181818;stroke-width:1.0;"/><line style="stroke:#181818;stroke-width:1.0;stroke-dasharray:2.0,2.0;" x1="430" x2="706" y1="1899.0078" y2="1899.0078"/><text fill="#000000" font-family="sans-serif" font-size="13" font-weight="bold" lengthAdjust="spacing" textLength="14" x="442" y="1894.1514">36</text><text fill="#000000" font-family="sans-serif" font-size="13" lengthAdjust="spacing" textLength="70" x="460" y="1894.1514">confirmation</text><polygon fill="#181818" points="87,1925.3594,77,1929.3594,87,1933.3594,83,1929.3594" style="stroke:#181818;stroke-width:1.0;"/><line style="stroke:#181818;stroke-width:1.0;stroke-dasharray:2.0,2.0;" x1="81" x2="419" y1="1929.3594" y2="1929.3594"/><text fill="#000000" font-family="sans-serif" font-size="13" font-weight="bold" lengthAdjust="spacing" textLength="14" x="93" y="1924.5029">37</text><text fill="#000000" font-family="sans-serif" font-size="13" lengthAdjust="spacing" textLength="158" x="111" y="1924.5029">displays operation success</text><!--SRC=[jLVVQzim47xtNt7qAIajw-jAL-WIkXKI1dFQCUYBOYkng2nbajmIw1-_anmxbYqxISVqv4Htt_twxdpMBqniY28vv5B895Cofs1KGIDTtsn8yaBMD3PRJa7Hn12nvaq1dP5KlZ6nXXNXcaQHOGP5O_gde2AXC6LaRUL6yNGCb_0ONrrzZY9I62cAV4aLFYT6AZYxMTx2fD06dL1mysbvUmP4msGnZz2GOGdR465AiUiuoMXQSFh4D3EF3tlnnuT3qXCfZ9AS-qP-phfwH0XPO0Wv5MR6jB7Ypy8XthMkzb2pXtWncTt5iOkBlH93NGmHuC47kBn59-4QPLyq60bwvnmG4FGDNgsFJjYU6WBZSd-YAW9OVy_F4IHH56_RLtYnfgRjuzJ8qRYBx6BVUOUgFWJdJHHjONOOlZuqZg8haA-OtiwDFT-e0GyJBAWdHaLgGUh_Ih_sZd5KMCWfqnjEjaugfRuxx-_leOYCj3dmrFyj6EGItXdOWRbGR4sdYnyVZmXz30RLrNOyEatNaiJPdQEgpkIRzcYk7LmReYAVt1ZiQuv3W4a1SeNqOuOgHlG0lPqyh1X7ILXXezSM1iXTqc-oWpz4kovn0vh3TJvSwugy5NINjw5AXwgTD9oh1OCLyolTqGlg12fSAPQfxwkkFLpA3TnZaV0wg_IaY5hnxCjSbdTlmXCCcWWL-jwnWwQkN1NKE0g3-OI65WVg-Tjk3VW2MYet2Rzkgo8sZBK1QtkDYHxYnDxWu8XgdaRo1y2h8TONwQ6XrXjGBxsFRuIF3C5ZMcMeROA3RY2rOPwSC4G_Z7tya1qmqUwPGUizUZR5jgMZwWTEyEwehdgO2C_DOvOGnx-vJ2aVDLKnWttZkiFUaxI7sLaniRbVT6c8r7GsepOHen3hEXavyhLyd9x756LNPes5I8aXqK1ftPJ-bJ5S6YTIcy8kp4mOZ4DtYcks6wehQ9ewR1YvBNDAjXVblZd7dJZRFV-cH5qy2z06z-7lib0NDa7sOJpCY3RZEI-D4KnllGqKovprxXSUAPra8nT1WdjCrCqrtsFKBZGRC4OM3ZaOS7JWxTDYyt_mu803_SrGVVJ0a_T5uP6zTqEHOiLKJkoUrxkXDDzHzQ09hIrjiCETa9Q3MEEyeief8X-IX6hTqnP_0G00]--></g></svg>