<?xml version="1.0" encoding="UTF-8" standalone="no"?><svg xmlns="http://www.w3.org/2000/svg" xmlns:xlink="http://www.w3.org/1999/xlink" contentStyleType="text/css" height="1183px" preserveAspectRatio="none" style="width:1333px;height:1183px;background:#FFFFFF;" version="1.1" viewBox="0 0 1333 1183" width="1333px" zoomAndPan="magnify"><defs/><g><rect fill="#FFFFFF" height="1007.2344" style="stroke:#181818;stroke-width:1.0;" width="10" x="277" y="103.9219"/><rect fill="#FFFFFF" height="87.7969" style="stroke:#181818;stroke-width:1.0;" width="10" x="282" y="192.625"/><rect fill="#FFFFFF" height="250.4609" style="stroke:#181818;stroke-width:1.0;" width="10" x="634" y="505.5313"/><rect fill="#FFFFFF" height="128.0547" style="stroke:#181818;stroke-width:1.0;" width="10" x="639" y="590.5859"/><rect fill="#FFFFFF" height="41.3516" style="stroke:#181818;stroke-width:1.0;" width="10" x="644" y="633.9375"/><rect fill="#FFFFFF" height="151.7578" style="stroke:#181818;stroke-width:1.0;" width="10" x="634" y="811.3438"/><rect fill="#FFFFFF" height="30.3516" style="stroke:#181818;stroke-width:1.0;" width="10" x="1025" y="1018.4531"/><rect fill="#FFFFFF" height="91.0547" style="stroke:#181818;stroke-width:1.0;" width="10" x="1109" y="841.6953"/><rect fill="#FFFFFF" height="30.3516" style="stroke:#181818;stroke-width:1.0;" width="10" x="1281" y="342.7734"/><rect fill="#FFFFFF" height="30.3516" style="stroke:#181818;stroke-width:1.0;" width="10" x="1281" y="403.4766"/><rect fill="#FFFFFF" height="30.3516" style="stroke:#181818;stroke-width:1.0;" width="10" x="1281" y="872.0469"/><rect fill="none" height="962.8828" style="stroke:#000000;stroke-width:1.5;" width="1137.5" x="189.5" y="118.9219"/><line style="stroke:#181818;stroke-width:0.5;stroke-dasharray:5.0,5.0;" x1="281.5" x2="281.5" y1="55.2188" y2="1129.1563"/><line style="stroke:#181818;stroke-width:0.5;stroke-dasharray:5.0,5.0;" x1="638.5" x2="638.5" y1="55.2188" y2="1129.1563"/><line style="stroke:#181818;stroke-width:0.5;stroke-dasharray:5.0,5.0;" x1="1030" x2="1030" y1="546.8828" y2="1129.1563"/><line style="stroke:#181818;stroke-width:0.5;stroke-dasharray:5.0,5.0;" x1="1114" x2="1114" y1="55.2188" y2="1129.1563"/><line style="stroke:#181818;stroke-width:0.5;stroke-dasharray:5.0,5.0;" x1="1286" x2="1286" y1="55.2188" y2="1129.1563"/><rect fill="#E3E3E3" height="31.6094" rx="2.5" ry="2.5" style="stroke:#181818;stroke-width:0.5;" width="165" x="199.5" y="22.6094"/><text fill="#000000" font-family="sans-serif" font-size="14" lengthAdjust="spacing" textLength="151" x="206.5" y="44.1426">:ScheduleVisitController</text><rect fill="#E3E3E3" height="31.6094" rx="2.5" ry="2.5" style="stroke:#181818;stroke-width:0.5;" width="165" x="199.5" y="1128.1563"/><text fill="#000000" font-family="sans-serif" font-size="14" lengthAdjust="spacing" textLength="151" x="206.5" y="1149.6895">:ScheduleVisitController</text><rect fill="#E3E3E3" height="49.2188" rx="2.5" ry="2.5" style="stroke:#181818;stroke-width:0.5;" width="113" x="582.5" y="5"/><text fill="#000000" font-family="sans-serif" font-size="14" lengthAdjust="spacing" textLength="94" x="592" y="26.5332">announcement</text><text fill="#000000" font-family="sans-serif" font-size="14" lengthAdjust="spacing" textLength="99" x="589.5" y="44.1426">:Announcement</text><rect fill="#E3E3E3" height="49.2188" rx="2.5" ry="2.5" style="stroke:#181818;stroke-width:0.5;" width="113" x="582.5" y="1128.1563"/><text fill="#000000" font-family="sans-serif" font-size="14" lengthAdjust="spacing" textLength="94" x="592" y="1149.6895">announcement</text><text fill="#000000" font-family="sans-serif" font-size="14" lengthAdjust="spacing" textLength="99" x="589.5" y="1167.2988">:Announcement</text><rect fill="#E3E3E3" height="31.6094" rx="2.5" ry="2.5" style="stroke:#181818;stroke-width:0.5;" width="68" x="996" y="1128.1563"/><text fill="#000000" font-family="sans-serif" font-size="14" lengthAdjust="spacing" textLength="54" x="1003" y="1149.6895">visit:Visit</text><rect fill="#E3E3E3" height="49.2188" rx="2.5" ry="2.5" style="stroke:#181818;stroke-width:0.5;" width="80" x="1074" y="5"/><text fill="#000000" font-family="sans-serif" font-size="14" lengthAdjust="spacing" textLength="61" x="1083.5" y="26.5332">employee</text><text fill="#000000" font-family="sans-serif" font-size="14" lengthAdjust="spacing" textLength="66" x="1081" y="44.1426">:Employee</text><rect fill="#E3E3E3" height="49.2188" rx="2.5" ry="2.5" style="stroke:#181818;stroke-width:0.5;" width="80" x="1074" y="1128.1563"/><text fill="#000000" font-family="sans-serif" font-size="14" lengthAdjust="spacing" textLength="61" x="1083.5" y="1149.6895">employee</text><text fill="#000000" font-family="sans-serif" font-size="14" lengthAdjust="spacing" textLength="66" x="1081" y="1167.2988">:Employee</text><rect fill="#E3E3E3" height="49.2188" rx="2.5" ry="2.5" style="stroke:#181818;stroke-width:0.5;" width="62" x="1255" y="5"/><text fill="#000000" font-family="sans-serif" font-size="14" lengthAdjust="spacing" textLength="48" x="1262" y="26.5332">person:</text><text fill="#000000" font-family="sans-serif" font-size="14" lengthAdjust="spacing" textLength="45" x="1263.5" y="44.1426">Person</text><rect fill="#E3E3E3" height="49.2188" rx="2.5" ry="2.5" style="stroke:#181818;stroke-width:0.5;" width="62" x="1255" y="1128.1563"/><text fill="#000000" font-family="sans-serif" font-size="14" lengthAdjust="spacing" textLength="48" x="1262" y="1149.6895">person:</text><text fill="#000000" font-family="sans-serif" font-size="14" lengthAdjust="spacing" textLength="45" x="1263.5" y="1167.2988">Person</text><rect fill="#FFFFFF" height="1007.2344" style="stroke:#181818;stroke-width:1.0;" width="10" x="277" y="103.9219"/><rect fill="#FFFFFF" height="87.7969" style="stroke:#181818;stroke-width:1.0;" width="10" x="282" y="192.625"/><rect fill="#FFFFFF" height="250.4609" style="stroke:#181818;stroke-width:1.0;" width="10" x="634" y="505.5313"/><rect fill="#FFFFFF" height="128.0547" style="stroke:#181818;stroke-width:1.0;" width="10" x="639" y="590.5859"/><rect fill="#FFFFFF" height="41.3516" style="stroke:#181818;stroke-width:1.0;" width="10" x="644" y="633.9375"/><rect fill="#FFFFFF" height="151.7578" style="stroke:#181818;stroke-width:1.0;" width="10" x="634" y="811.3438"/><rect fill="#FFFFFF" height="30.3516" style="stroke:#181818;stroke-width:1.0;" width="10" x="1025" y="1018.4531"/><rect fill="#FFFFFF" height="91.0547" style="stroke:#181818;stroke-width:1.0;" width="10" x="1109" y="841.6953"/><rect fill="#FFFFFF" height="30.3516" style="stroke:#181818;stroke-width:1.0;" width="10" x="1281" y="342.7734"/><rect fill="#FFFFFF" height="30.3516" style="stroke:#181818;stroke-width:1.0;" width="10" x="1281" y="403.4766"/><rect fill="#FFFFFF" height="30.3516" style="stroke:#181818;stroke-width:1.0;" width="10" x="1281" y="872.0469"/><polygon fill="#181818" points="265,99.9219,275,103.9219,265,107.9219,269,103.9219" style="stroke:#181818;stroke-width:1.0;"/><line style="stroke:#181818;stroke-width:1.0;" x1="0" x2="271" y1="103.9219" y2="103.9219"/><text fill="#000000" font-family="sans-serif" font-size="13" font-weight="bold" lengthAdjust="spacing" textLength="14" x="7" y="90.8896">34</text><text fill="#000000" font-family="sans-serif" font-size="13" lengthAdjust="spacing" textLength="224" x="25" y="82.7139">scheduleVisit(announcement, visitDay,</text><text fill="#000000" font-family="sans-serif" font-size="13" lengthAdjust="spacing" textLength="236" x="29" y="99.0654">visitMonth, visitYear, startHour, endHour)</text><path d="M189.5,118.9219 L325.5,118.9219 L325.5,127.2734 L315.5,137.2734 L189.5,137.2734 L189.5,118.9219 " fill="#EEEEEE" style="stroke:#000000;stroke-width:1.5;"/><rect fill="none" height="962.8828" style="stroke:#000000;stroke-width:1.5;" width="1137.5" x="189.5" y="118.9219"/><text fill="#000000" font-family="sans-serif" font-size="13" font-weight="bold" lengthAdjust="spacing" textLength="91" x="204.5" y="133.417">Schedule Visit</text><line style="stroke:#181818;stroke-width:1.0;" x1="287" x2="334" y1="179.625" y2="179.625"/><line style="stroke:#181818;stroke-width:1.0;" x1="334" x2="334" y1="179.625" y2="192.625"/><line style="stroke:#181818;stroke-width:1.0;" x1="293" x2="334" y1="192.625" y2="192.625"/><polygon fill="#181818" points="303,188.625,293,192.625,303,196.625,299,192.625" style="stroke:#181818;stroke-width:1.0;"/><text fill="#000000" font-family="sans-serif" font-size="13" font-weight="bold" lengthAdjust="spacing" textLength="25" x="299" y="174.7686">34.1</text><text fill="#000000" font-family="sans-serif" font-size="13" lengthAdjust="spacing" textLength="94" x="328" y="174.7686">getUserPerson()</text><rect fill="none" height="41.4453" style="stroke:#000000;stroke-width:1.5;" width="171" x="196.5" y="205.625"/><path d="M196.5,205.625 L258.5,205.625 L258.5,213.625 L248.5,223.625 L196.5,223.625 L196.5,205.625 " fill="#EEEEEE" style="stroke:#000000;stroke-width:2.0;"/><text fill="#000000" font-family="sans-serif" font-size="13" font-weight="bold" lengthAdjust="spacing" textLength="17" x="209.5" y="221.1201">ref</text><text fill="#000000" font-family="sans-serif" font-size="12" lengthAdjust="spacing" textLength="92" x="236" y="240.082">Get User Person</text><line style="stroke:#181818;stroke-width:1.0;stroke-dasharray:2.0,2.0;" x1="292" x2="334" y1="279.4219" y2="279.4219"/><line style="stroke:#181818;stroke-width:1.0;stroke-dasharray:2.0,2.0;" x1="334" x2="334" y1="279.4219" y2="292.4219"/><line style="stroke:#181818;stroke-width:1.0;stroke-dasharray:2.0,2.0;" x1="287" x2="334" y1="292.4219" y2="292.4219"/><polygon fill="#181818" points="297,288.4219,287,292.4219,297,296.4219,293,292.4219" style="stroke:#181818;stroke-width:1.0;"/><text fill="#000000" font-family="sans-serif" font-size="13" font-weight="bold" lengthAdjust="spacing" textLength="25" x="299" y="274.5654">34.2</text><text fill="#000000" font-family="sans-serif" font-size="13" lengthAdjust="spacing" textLength="39" x="328" y="274.5654">person</text><polygon fill="#181818" points="1269,338.7734,1279,342.7734,1269,346.7734,1273,342.7734" style="stroke:#181818;stroke-width:1.0;"/><line style="stroke:#181818;stroke-width:1.0;" x1="287" x2="1275" y1="342.7734" y2="342.7734"/><text fill="#000000" font-family="sans-serif" font-size="13" font-weight="bold" lengthAdjust="spacing" textLength="25" x="294" y="337.917">34.3</text><text fill="#000000" font-family="sans-serif" font-size="13" lengthAdjust="spacing" textLength="135" x="323" y="337.917">userName = getName()</text><polygon fill="#181818" points="298,369.125,288,373.125,298,377.125,294,373.125" style="stroke:#181818;stroke-width:1.0;"/><line style="stroke:#181818;stroke-width:1.0;stroke-dasharray:2.0,2.0;" x1="292" x2="1285" y1="373.125" y2="373.125"/><text fill="#000000" font-family="sans-serif" font-size="13" font-weight="bold" lengthAdjust="spacing" textLength="25" x="304" y="368.2686">34.4</text><text fill="#000000" font-family="sans-serif" font-size="13" lengthAdjust="spacing" textLength="59" x="333" y="368.2686">userName</text><polygon fill="#181818" points="1269,399.4766,1279,403.4766,1269,407.4766,1273,403.4766" style="stroke:#181818;stroke-width:1.0;"/><line style="stroke:#181818;stroke-width:1.0;" x1="287" x2="1275" y1="403.4766" y2="403.4766"/><text fill="#000000" font-family="sans-serif" font-size="13" font-weight="bold" lengthAdjust="spacing" textLength="25" x="294" y="398.6201">34.5</text><text fill="#000000" font-family="sans-serif" font-size="13" lengthAdjust="spacing" textLength="231" x="323" y="398.6201">userPhoneNumber = getPhoneNumber()</text><polygon fill="#181818" points="298,429.8281,288,433.8281,298,437.8281,294,433.8281" style="stroke:#181818;stroke-width:1.0;"/><line style="stroke:#181818;stroke-width:1.0;stroke-dasharray:2.0,2.0;" x1="292" x2="1285" y1="433.8281" y2="433.8281"/><text fill="#000000" font-family="sans-serif" font-size="13" font-weight="bold" lengthAdjust="spacing" textLength="25" x="304" y="428.9717">34.6</text><text fill="#000000" font-family="sans-serif" font-size="13" lengthAdjust="spacing" textLength="107" x="333" y="428.9717">userPhoneNumber</text><polygon fill="#181818" points="622,501.5313,632,505.5313,622,509.5313,626,505.5313" style="stroke:#181818;stroke-width:1.0;"/><line style="stroke:#181818;stroke-width:1.0;" x1="287" x2="628" y1="505.5313" y2="505.5313"/><text fill="#000000" font-family="sans-serif" font-size="13" font-weight="bold" lengthAdjust="spacing" textLength="25" x="294" y="492.499">34.7</text><text fill="#000000" font-family="sans-serif" font-size="13" lengthAdjust="spacing" textLength="238" x="323" y="484.3232">createVisit(visitDay, visitMonth, visitYear,</text><text fill="#000000" font-family="sans-serif" font-size="13" lengthAdjust="spacing" textLength="295" x="327" y="500.6748">startHour, endHour, userName, userPhoneNumber)</text><polygon fill="#181818" points="984,548.2344,994,552.2344,984,556.2344,988,552.2344" style="stroke:#181818;stroke-width:1.0;"/><line style="stroke:#181818;stroke-width:1.0;" x1="644" x2="990" y1="552.2344" y2="552.2344"/><text fill="#000000" font-family="sans-serif" font-size="13" font-weight="bold" lengthAdjust="spacing" textLength="25" x="651" y="539.2021">34.8</text><text fill="#000000" font-family="sans-serif" font-size="13" lengthAdjust="spacing" textLength="212" x="680" y="531.0264">create(visitDay, visitMonth, visitYear,</text><text fill="#000000" font-family="sans-serif" font-size="13" lengthAdjust="spacing" textLength="295" x="684" y="547.3779">startHour, endHour, userName, userPhoneNumber)</text><rect fill="#E3E3E3" height="31.6094" rx="2.5" ry="2.5" style="stroke:#181818;stroke-width:0.5;" width="68" x="996" y="517.625"/><text fill="#000000" font-family="sans-serif" font-size="14" lengthAdjust="spacing" textLength="54" x="1003" y="539.1582">visit:Visit</text><line style="stroke:#181818;stroke-width:1.0;" x1="644" x2="691" y1="577.5859" y2="577.5859"/><line style="stroke:#181818;stroke-width:1.0;" x1="691" x2="691" y1="577.5859" y2="590.5859"/><line style="stroke:#181818;stroke-width:1.0;" x1="650" x2="691" y1="590.5859" y2="590.5859"/><polygon fill="#181818" points="660,586.5859,650,590.5859,660,594.5859,656,590.5859" style="stroke:#181818;stroke-width:1.0;"/><text fill="#000000" font-family="sans-serif" font-size="13" font-weight="bold" lengthAdjust="spacing" textLength="25" x="656" y="572.7295">34.9</text><text fill="#000000" font-family="sans-serif" font-size="13" lengthAdjust="spacing" textLength="77" x="685" y="572.7295">addVisit(visit)</text><line style="stroke:#181818;stroke-width:1.0;" x1="649" x2="696" y1="620.9375" y2="620.9375"/><line style="stroke:#181818;stroke-width:1.0;" x1="696" x2="696" y1="620.9375" y2="633.9375"/><line style="stroke:#181818;stroke-width:1.0;" x1="655" x2="696" y1="633.9375" y2="633.9375"/><polygon fill="#181818" points="665,629.9375,655,633.9375,665,637.9375,661,633.9375" style="stroke:#181818;stroke-width:1.0;"/><text fill="#000000" font-family="sans-serif" font-size="13" font-weight="bold" lengthAdjust="spacing" textLength="32" x="661" y="616.0811">34.10</text><text fill="#000000" font-family="sans-serif" font-size="13" lengthAdjust="spacing" textLength="99" x="697" y="616.0811">validateVisit(visit)</text><line style="stroke:#181818;stroke-width:1.0;stroke-dasharray:2.0,2.0;" x1="654" x2="696" y1="674.2891" y2="674.2891"/><line style="stroke:#181818;stroke-width:1.0;stroke-dasharray:2.0,2.0;" x1="696" x2="696" y1="674.2891" y2="687.2891"/><line style="stroke:#181818;stroke-width:1.0;stroke-dasharray:2.0,2.0;" x1="649" x2="696" y1="687.2891" y2="687.2891"/><polygon fill="#181818" points="659,683.2891,649,687.2891,659,691.2891,655,687.2891" style="stroke:#181818;stroke-width:1.0;"/><text fill="#000000" font-family="sans-serif" font-size="13" font-weight="bold" lengthAdjust="spacing" textLength="32" x="661" y="669.4326">34.11</text><text fill="#000000" font-family="sans-serif" font-size="13" lengthAdjust="spacing" textLength="4" x="697" y="669.4326"> </text><line style="stroke:#181818;stroke-width:1.0;stroke-dasharray:2.0,2.0;" x1="649" x2="691" y1="717.6406" y2="717.6406"/><line style="stroke:#181818;stroke-width:1.0;stroke-dasharray:2.0,2.0;" x1="691" x2="691" y1="717.6406" y2="730.6406"/><line style="stroke:#181818;stroke-width:1.0;stroke-dasharray:2.0,2.0;" x1="644" x2="691" y1="730.6406" y2="730.6406"/><polygon fill="#181818" points="654,726.6406,644,730.6406,654,734.6406,650,730.6406" style="stroke:#181818;stroke-width:1.0;"/><text fill="#000000" font-family="sans-serif" font-size="13" font-weight="bold" lengthAdjust="spacing" textLength="32" x="656" y="712.7842">34.12</text><text fill="#000000" font-family="sans-serif" font-size="13" lengthAdjust="spacing" textLength="4" x="692" y="712.7842"> </text><polygon fill="#181818" points="298,751.9922,288,755.9922,298,759.9922,294,755.9922" style="stroke:#181818;stroke-width:1.0;"/><line style="stroke:#181818;stroke-width:1.0;stroke-dasharray:2.0,2.0;" x1="292" x2="638" y1="755.9922" y2="755.9922"/><text fill="#000000" font-family="sans-serif" font-size="13" font-weight="bold" lengthAdjust="spacing" textLength="32" x="304" y="751.1357">34.13</text><text fill="#000000" font-family="sans-serif" font-size="13" lengthAdjust="spacing" textLength="22" x="340" y="751.1357">visit</text><polygon fill="#181818" points="622,807.3438,632,811.3438,622,815.3438,626,811.3438" style="stroke:#181818;stroke-width:1.0;"/><line style="stroke:#181818;stroke-width:1.0;" x1="287" x2="628" y1="811.3438" y2="811.3438"/><text fill="#000000" font-family="sans-serif" font-size="13" font-weight="bold" lengthAdjust="spacing" textLength="32" x="294" y="806.4873">34.14</text><text fill="#000000" font-family="sans-serif" font-size="13" lengthAdjust="spacing" textLength="174" x="330" y="806.4873">agentEmail = getAgentEmail()</text><polygon fill="#181818" points="1097,837.6953,1107,841.6953,1097,845.6953,1101,841.6953" style="stroke:#181818;stroke-width:1.0;"/><line style="stroke:#181818;stroke-width:1.0;" x1="644" x2="1103" y1="841.6953" y2="841.6953"/><text fill="#000000" font-family="sans-serif" font-size="13" font-weight="bold" lengthAdjust="spacing" textLength="32" x="651" y="836.8389">34.15</text><text fill="#000000" font-family="sans-serif" font-size="13" lengthAdjust="spacing" textLength="93" x="687" y="836.8389">getAgentEmail()</text><polygon fill="#181818" points="1269,868.0469,1279,872.0469,1269,876.0469,1273,872.0469" style="stroke:#181818;stroke-width:1.0;"/><line style="stroke:#181818;stroke-width:1.0;" x1="1119" x2="1275" y1="872.0469" y2="872.0469"/><text fill="#000000" font-family="sans-serif" font-size="13" font-weight="bold" lengthAdjust="spacing" textLength="32" x="1126" y="867.1904">34.16</text><text fill="#000000" font-family="sans-serif" font-size="13" lengthAdjust="spacing" textLength="107" x="1162" y="867.1904">getEmailAddress()</text><polygon fill="#181818" points="1130,898.3984,1120,902.3984,1130,906.3984,1126,902.3984" style="stroke:#181818;stroke-width:1.0;"/><line style="stroke:#181818;stroke-width:1.0;stroke-dasharray:2.0,2.0;" x1="1124" x2="1285" y1="902.3984" y2="902.3984"/><text fill="#000000" font-family="sans-serif" font-size="13" font-weight="bold" lengthAdjust="spacing" textLength="32" x="1136" y="897.542">34.17</text><text fill="#000000" font-family="sans-serif" font-size="13" lengthAdjust="spacing" textLength="65" x="1172" y="897.542">agentEmail</text><polygon fill="#181818" points="655,928.75,645,932.75,655,936.75,651,932.75" style="stroke:#181818;stroke-width:1.0;"/><line style="stroke:#181818;stroke-width:1.0;stroke-dasharray:2.0,2.0;" x1="649" x2="1113" y1="932.75" y2="932.75"/><text fill="#000000" font-family="sans-serif" font-size="13" font-weight="bold" lengthAdjust="spacing" textLength="32" x="661" y="927.8936">34.18</text><text fill="#000000" font-family="sans-serif" font-size="13" lengthAdjust="spacing" textLength="65" x="697" y="927.8936">agentEmail</text><polygon fill="#181818" points="298,959.1016,288,963.1016,298,967.1016,294,963.1016" style="stroke:#181818;stroke-width:1.0;"/><line style="stroke:#181818;stroke-width:1.0;stroke-dasharray:2.0,2.0;" x1="292" x2="638" y1="963.1016" y2="963.1016"/><text fill="#000000" font-family="sans-serif" font-size="13" font-weight="bold" lengthAdjust="spacing" textLength="32" x="304" y="958.2451">34.19</text><text fill="#000000" font-family="sans-serif" font-size="13" lengthAdjust="spacing" textLength="65" x="340" y="958.2451">agentEmail</text><polygon fill="#181818" points="1013,1014.4531,1023,1018.4531,1013,1022.4531,1017,1018.4531" style="stroke:#181818;stroke-width:1.0;"/><line style="stroke:#181818;stroke-width:1.0;" x1="287" x2="1019" y1="1018.4531" y2="1018.4531"/><text fill="#000000" font-family="sans-serif" font-size="13" font-weight="bold" lengthAdjust="spacing" textLength="32" x="294" y="1013.5967">34.20</text><text fill="#000000" font-family="sans-serif" font-size="13" lengthAdjust="spacing" textLength="218" x="330" y="1013.5967">sendNotificationMessage(agentEmail)</text><polygon fill="#181818" points="298,1044.8047,288,1048.8047,298,1052.8047,294,1048.8047" style="stroke:#181818;stroke-width:1.0;"/><line style="stroke:#181818;stroke-width:1.0;stroke-dasharray:2.0,2.0;" x1="292" x2="1029" y1="1048.8047" y2="1048.8047"/><text fill="#000000" font-family="sans-serif" font-size="13" font-weight="bold" lengthAdjust="spacing" textLength="32" x="304" y="1043.9482">34.21</text><text fill="#000000" font-family="sans-serif" font-size="13" lengthAdjust="spacing" textLength="70" x="340" y="1043.9482">confirmation</text><polygon fill="#181818" points="11,1107.1563,1,1111.1563,11,1115.1563,7,1111.1563" style="stroke:#181818;stroke-width:1.0;"/><line style="stroke:#181818;stroke-width:1.0;stroke-dasharray:2.0,2.0;" x1="5" x2="281" y1="1111.1563" y2="1111.1563"/><text fill="#000000" font-family="sans-serif" font-size="13" font-weight="bold" lengthAdjust="spacing" textLength="14" x="17" y="1106.2998">35</text><text fill="#000000" font-family="sans-serif" font-size="13" lengthAdjust="spacing" textLength="22" x="35" y="1106.2998">visit</text><!--SRC=[jLLHQzim47xthn1zIaio6DjUmZe8MTWU5ZSqRM6G5ys-sAAsP2Gv8v0VlvDaEx9IhTjWVf9FzttttUbEKi-CDrJIcjI2YwoKeWQYPGk96dOQcZtJ0hRwM06Ha6dAYyftK2NDnK_62xAdbO8aGRDc6Mier-HglirAoDiAdfXYUYcubgAgG5uHgiZouVxRs9roBbgUGGrSx_XyuVrQn29DxnxJvMgCEXZkkOrWlPws3sC7g9jA706GSjKjhUDglHaxDY2LuFCTtzY5TTgixhTtQP8ajDM2j_KFaEJT-oGX-Cq-sIJ8d2W_pucVnvHOVP_fSRhZRht6EfIT_JjGEILAeuoleiKbyDmihcq0ccbse1fShPp9b_7chJCMKhGDwOjDh0gpSJgTx7xtMR5dqGNeHmNI9JkvzZt7WSduax0due02NjeqtnVGn30JHnswO8g68pGxTMTvpGKuXx6kFhq-BtTM26qnU4gndMzDacOr2GhQ7sjFtK6zy3r74aGU6Y8QULCA3gax8ol0C_oR3eyW8YSiHJygI919G4VNcKClHZeHM_Io5wT3BQQXcY2ROK2jUT20Ud0eRsu6CVz1XwkW7z8h0SrpB_-kqoEgOnm7Mh5yNCXNY4PS7baIDdDKm5-0GbpNFOV-AdWH6kiQh5Y1TzUgfgnoBRmO_YT_VEPulxfR9WusLx2r65z_ZX1b0Oiybw3KAsFZJOqBUfOV6zyEQUC6pHB53ceZnOuZenN7kJ3F1tPuAZJRiung9lWQKqQooPamoD-ySSEv6mvFHIRudidQ4eKw3AwNOAvX-t1SFYmV1kwFizblMydUmxy0]--></g></svg>