<?xml version="1.0" encoding="UTF-8" standalone="no"?><svg xmlns="http://www.w3.org/2000/svg" xmlns:xlink="http://www.w3.org/1999/xlink" contentStyleType="text/css" height="404px" preserveAspectRatio="none" style="width:584px;height:404px;background:#FFFFFF;" version="1.1" viewBox="0 0 584 404" width="584px" zoomAndPan="magnify"><defs/><g><rect fill="#FFFFFF" height="244.8125" style="stroke:#181818;stroke-width:1.0;" width="10" x="125" y="87.5703"/><rect fill="#FFFFFF" height="30.3516" style="stroke:#181818;stroke-width:1.0;" width="10" x="266" y="143.2734"/><rect fill="#FFFFFF" height="30.3516" style="stroke:#181818;stroke-width:1.0;" width="10" x="373" y="203.9766"/><rect fill="#FFFFFF" height="30.3516" style="stroke:#181818;stroke-width:1.0;" width="10" x="497.5" y="264.6797"/><rect fill="none" height="200.4609" style="stroke:#000000;stroke-width:1.5;" width="541" x="37.5" y="102.5703"/><line style="stroke:#181818;stroke-width:0.5;stroke-dasharray:5.0,5.0;" x1="129.5" x2="129.5" y1="55.2188" y2="350.3828"/><line style="stroke:#181818;stroke-width:0.5;stroke-dasharray:5.0,5.0;" x1="270.5" x2="270.5" y1="55.2188" y2="350.3828"/><line style="stroke:#181818;stroke-width:0.5;stroke-dasharray:5.0,5.0;" x1="377.5" x2="377.5" y1="55.2188" y2="350.3828"/><line style="stroke:#181818;stroke-width:0.5;stroke-dasharray:5.0,5.0;" x1="502.5" x2="502.5" y1="55.2188" y2="350.3828"/><rect fill="#E3E3E3" height="31.6094" rx="2.5" ry="2.5" style="stroke:#181818;stroke-width:0.5;" width="165" x="47.5" y="22.6094"/><text fill="#000000" font-family="sans-serif" font-size="14" lengthAdjust="spacing" textLength="151" x="54.5" y="44.1426">:ScheduleVisitController</text><rect fill="#E3E3E3" height="31.6094" rx="2.5" ry="2.5" style="stroke:#181818;stroke-width:0.5;" width="165" x="47.5" y="349.3828"/><text fill="#000000" font-family="sans-serif" font-size="14" lengthAdjust="spacing" textLength="151" x="54.5" y="370.916">:ScheduleVisitController</text><rect fill="#E3E3E3" height="31.6094" rx="2.5" ry="2.5" style="stroke:#181818;stroke-width:0.5;" width="97" x="222.5" y="22.6094"/><text fill="#000000" font-family="sans-serif" font-size="14" lengthAdjust="spacing" textLength="83" x="229.5" y="44.1426">:Repositories</text><rect fill="#E3E3E3" height="31.6094" rx="2.5" ry="2.5" style="stroke:#181818;stroke-width:0.5;" width="97" x="222.5" y="349.3828"/><text fill="#000000" font-family="sans-serif" font-size="14" lengthAdjust="spacing" textLength="83" x="229.5" y="370.916">:Repositories</text><rect fill="#E3E3E3" height="49.2188" rx="2.5" ry="2.5" style="stroke:#181818;stroke-width:0.5;" width="97" x="329.5" y="5"/><text fill="#000000" font-family="sans-serif" font-size="14" lengthAdjust="spacing" textLength="74" x="341" y="26.5332">repositories</text><text fill="#000000" font-family="sans-serif" font-size="14" lengthAdjust="spacing" textLength="83" x="336.5" y="44.1426">:Repositories</text><rect fill="#E3E3E3" height="49.2188" rx="2.5" ry="2.5" style="stroke:#181818;stroke-width:0.5;" width="97" x="329.5" y="349.3828"/><text fill="#000000" font-family="sans-serif" font-size="14" lengthAdjust="spacing" textLength="74" x="341" y="370.916">repositories</text><text fill="#000000" font-family="sans-serif" font-size="14" lengthAdjust="spacing" textLength="83" x="336.5" y="388.5254">:Repositories</text><rect fill="#E3E3E3" height="49.2188" rx="2.5" ry="2.5" style="stroke:#181818;stroke-width:0.5;" width="132" x="436.5" y="5"/><text fill="#000000" font-family="sans-serif" font-size="14" lengthAdjust="spacing" textLength="111" x="447" y="26.5332">criteriaRepository</text><text fill="#000000" font-family="sans-serif" font-size="14" lengthAdjust="spacing" textLength="118" x="443.5" y="44.1426">:CriteriaRepository</text><rect fill="#E3E3E3" height="49.2188" rx="2.5" ry="2.5" style="stroke:#181818;stroke-width:0.5;" width="132" x="436.5" y="349.3828"/><text fill="#000000" font-family="sans-serif" font-size="14" lengthAdjust="spacing" textLength="111" x="447" y="370.916">criteriaRepository</text><text fill="#000000" font-family="sans-serif" font-size="14" lengthAdjust="spacing" textLength="118" x="443.5" y="388.5254">:CriteriaRepository</text><rect fill="#FFFFFF" height="244.8125" style="stroke:#181818;stroke-width:1.0;" width="10" x="125" y="87.5703"/><rect fill="#FFFFFF" height="30.3516" style="stroke:#181818;stroke-width:1.0;" width="10" x="266" y="143.2734"/><rect fill="#FFFFFF" height="30.3516" style="stroke:#181818;stroke-width:1.0;" width="10" x="373" y="203.9766"/><rect fill="#FFFFFF" height="30.3516" style="stroke:#181818;stroke-width:1.0;" width="10" x="497.5" y="264.6797"/><polygon fill="#181818" points="113,83.5703,123,87.5703,113,91.5703,117,87.5703" style="stroke:#181818;stroke-width:1.0;"/><line style="stroke:#181818;stroke-width:1.0;" x1="0" x2="119" y1="87.5703" y2="87.5703"/><text fill="#000000" font-family="sans-serif" font-size="13" font-weight="bold" lengthAdjust="spacing" textLength="14" x="7" y="82.7139">12</text><text fill="#000000" font-family="sans-serif" font-size="13" lengthAdjust="spacing" textLength="88" x="25" y="82.7139">getCriteriaList()</text><path d="M37.5,102.5703 L181.5,102.5703 L181.5,110.9219 L171.5,120.9219 L37.5,120.9219 L37.5,102.5703 " fill="#EEEEEE" style="stroke:#000000;stroke-width:1.5;"/><rect fill="none" height="200.4609" style="stroke:#000000;stroke-width:1.5;" width="541" x="37.5" y="102.5703"/><text fill="#000000" font-family="sans-serif" font-size="13" font-weight="bold" lengthAdjust="spacing" textLength="99" x="52.5" y="117.0654">Get Criteria List</text><polygon fill="#181818" points="254,139.2734,264,143.2734,254,147.2734,258,143.2734" style="stroke:#181818;stroke-width:1.0;"/><line style="stroke:#181818;stroke-width:1.0;" x1="135" x2="260" y1="143.2734" y2="143.2734"/><text fill="#000000" font-family="sans-serif" font-size="13" font-weight="bold" lengthAdjust="spacing" textLength="25" x="142" y="138.417">12.1</text><text fill="#000000" font-family="sans-serif" font-size="13" lengthAdjust="spacing" textLength="75" x="171" y="138.417">getInstance()</text><polygon fill="#181818" points="146,169.625,136,173.625,146,177.625,142,173.625" style="stroke:#181818;stroke-width:1.0;"/><line style="stroke:#181818;stroke-width:1.0;stroke-dasharray:2.0,2.0;" x1="140" x2="270" y1="173.625" y2="173.625"/><text fill="#000000" font-family="sans-serif" font-size="13" font-weight="bold" lengthAdjust="spacing" textLength="25" x="152" y="168.7686">12.2</text><text fill="#000000" font-family="sans-serif" font-size="13" lengthAdjust="spacing" textLength="67" x="181" y="168.7686">repositories</text><polygon fill="#181818" points="361,199.9766,371,203.9766,361,207.9766,365,203.9766" style="stroke:#181818;stroke-width:1.0;"/><line style="stroke:#181818;stroke-width:1.0;" x1="135" x2="367" y1="203.9766" y2="203.9766"/><text fill="#000000" font-family="sans-serif" font-size="13" font-weight="bold" lengthAdjust="spacing" textLength="25" x="142" y="199.1201">12.3</text><text fill="#000000" font-family="sans-serif" font-size="13" lengthAdjust="spacing" textLength="129" x="171" y="199.1201">getCriteriaRepository()</text><polygon fill="#181818" points="146,230.3281,136,234.3281,146,238.3281,142,234.3281" style="stroke:#181818;stroke-width:1.0;"/><line style="stroke:#181818;stroke-width:1.0;stroke-dasharray:2.0,2.0;" x1="140" x2="377" y1="234.3281" y2="234.3281"/><text fill="#000000" font-family="sans-serif" font-size="13" font-weight="bold" lengthAdjust="spacing" textLength="25" x="152" y="229.4717">12.4</text><text fill="#000000" font-family="sans-serif" font-size="13" lengthAdjust="spacing" textLength="103" x="181" y="229.4717">CriteriaRepository</text><polygon fill="#181818" points="485.5,260.6797,495.5,264.6797,485.5,268.6797,489.5,264.6797" style="stroke:#181818;stroke-width:1.0;"/><line style="stroke:#181818;stroke-width:1.0;" x1="135" x2="491.5" y1="264.6797" y2="264.6797"/><text fill="#000000" font-family="sans-serif" font-size="13" font-weight="bold" lengthAdjust="spacing" textLength="25" x="142" y="259.8232">12.5</text><text fill="#000000" font-family="sans-serif" font-size="13" lengthAdjust="spacing" textLength="80" x="171" y="259.8232">getCriteriaList</text><polygon fill="#181818" points="146,291.0313,136,295.0313,146,299.0313,142,295.0313" style="stroke:#181818;stroke-width:1.0;"/><line style="stroke:#181818;stroke-width:1.0;stroke-dasharray:2.0,2.0;" x1="140" x2="501.5" y1="295.0313" y2="295.0313"/><text fill="#000000" font-family="sans-serif" font-size="13" font-weight="bold" lengthAdjust="spacing" textLength="25" x="152" y="290.1748">12.6</text><text fill="#000000" font-family="sans-serif" font-size="13" lengthAdjust="spacing" textLength="60" x="181" y="290.1748">criteriaList</text><polygon fill="#181818" points="11,328.3828,1,332.3828,11,336.3828,7,332.3828" style="stroke:#181818;stroke-width:1.0;"/><line style="stroke:#181818;stroke-width:1.0;stroke-dasharray:2.0,2.0;" x1="5" x2="129" y1="332.3828" y2="332.3828"/><text fill="#000000" font-family="sans-serif" font-size="13" font-weight="bold" lengthAdjust="spacing" textLength="14" x="17" y="327.5264">13</text><text fill="#000000" font-family="sans-serif" font-size="13" lengthAdjust="spacing" textLength="60" x="35" y="327.5264">criteriaList</text><!--SRC=[ZLAzJiCm4Dxz5ATEC0Ifi5K82NMea3AWfc9YCSwHM7NioBw0-lOu2N4SOg7U59s_lxkBEqlTSiiRQ8msehQcGI3R8NFXfUNYp2iiwA8GB0hYkb8nmDMyDDzIL_39bKF6V9kaa2tN19jT8MeiEuLlqadQ6qtMA8Ls0zp1_dJC_y2Fs1eFD5QY6p2XSIbaxqn6BoasOhphjS1h_dnQCeILX5RoMThpzglc677LPentFaJNVA25xJrZsTCm2EoWGfhmkNHqS-knWkGN9nndNJ3ljeo1hygQheK3KZ23ditOeEhL4oiOpLwqy-SGs1l1RmN3rE82gg-KR3OF4-yry4gyJd-AtYz_kPYPbamzN6iHSv28SgKkaeYt59hohCdhioLI_UUPa8pIYgHmb3CXFK1Gb-D7_Cyyp1AFMNQzXyVz0000]--></g></svg>