<?xml version="1.0" encoding="UTF-8" standalone="no"?><svg xmlns="http://www.w3.org/2000/svg" xmlns:xlink="http://www.w3.org/1999/xlink" contentStyleType="text/css" height="651px" preserveAspectRatio="none" style="width:1961px;height:651px;background:#FFFFFF;" version="1.1" viewBox="0 0 1961 651" width="1961px" zoomAndPan="magnify"><defs/><g><rect fill="#FFFFFF" height="491.625" style="stroke:#181818;stroke-width:1.0;" width="10" x="240" y="87.5703"/><rect fill="#FFFFFF" height="91.0547" style="stroke:#181818;stroke-width:1.0;" width="10" x="687" y="143.2734"/><rect fill="#FFFFFF" height="30.3516" style="stroke:#181818;stroke-width:1.0;" width="10" x="868" y="173.625"/><rect fill="#FFFFFF" height="277.1641" style="stroke:#181818;stroke-width:1.0;" width="10" x="1012" y="264.6797"/><rect fill="#FFFFFF" height="191.1094" style="stroke:#181818;stroke-width:1.0;" width="10" x="1325" y="320.3828"/><rect fill="#FFFFFF" height="130.4063" style="stroke:#181818;stroke-width:1.0;" width="10" x="1638" y="350.7344"/><rect fill="#FFFFFF" height="30.3516" style="stroke:#181818;stroke-width:1.0;" width="10" x="1864" y="406.4375"/><rect fill="none" height="447.2734" style="stroke:#000000;stroke-width:1.5;" width="1803" x="152.5" y="102.5703"/><rect fill="none" height="172.1094" style="stroke:#000000;stroke-width:1.5;" width="1005" x="940.5" y="279.6797"/><rect fill="none" height="79.0547" style="stroke:#000000;stroke-width:1.5;" width="370" x="1565.5" y="365.7344"/><line style="stroke:#181818;stroke-width:0.5;stroke-dasharray:5.0,5.0;" x1="244.5" x2="244.5" y1="55.2188" y2="597.1953"/><line style="stroke:#181818;stroke-width:0.5;stroke-dasharray:5.0,5.0;" x1="691.5" x2="691.5" y1="55.2188" y2="597.1953"/><line style="stroke:#181818;stroke-width:0.5;stroke-dasharray:5.0,5.0;" x1="872.5" x2="872.5" y1="55.2188" y2="597.1953"/><line style="stroke:#181818;stroke-width:0.5;stroke-dasharray:5.0,5.0;" x1="1016.5" x2="1016.5" y1="55.2188" y2="597.1953"/><line style="stroke:#181818;stroke-width:0.5;stroke-dasharray:5.0,5.0;" x1="1329.5" x2="1329.5" y1="55.2188" y2="597.1953"/><line style="stroke:#181818;stroke-width:0.5;stroke-dasharray:5.0,5.0;" x1="1642.5" x2="1642.5" y1="55.2188" y2="597.1953"/><line style="stroke:#181818;stroke-width:0.5;stroke-dasharray:5.0,5.0;" x1="1868.5" x2="1868.5" y1="55.2188" y2="597.1953"/><rect fill="#E3E3E3" height="31.6094" rx="2.5" ry="2.5" style="stroke:#181818;stroke-width:0.5;" width="165" x="162.5" y="22.6094"/><text fill="#000000" font-family="sans-serif" font-size="14" lengthAdjust="spacing" textLength="151" x="169.5" y="44.1426">:ScheduleVisitController</text><rect fill="#E3E3E3" height="31.6094" rx="2.5" ry="2.5" style="stroke:#181818;stroke-width:0.5;" width="165" x="162.5" y="596.1953"/><text fill="#000000" font-family="sans-serif" font-size="14" lengthAdjust="spacing" textLength="151" x="169.5" y="617.7285">:ScheduleVisitController</text><rect fill="#E3E3E3" height="31.6094" rx="2.5" ry="2.5" style="stroke:#181818;stroke-width:0.5;" width="161" x="611.5" y="22.6094"/><text fill="#000000" font-family="sans-serif" font-size="14" lengthAdjust="spacing" textLength="147" x="618.5" y="44.1426">:AnnouncementMapper</text><rect fill="#E3E3E3" height="31.6094" rx="2.5" ry="2.5" style="stroke:#181818;stroke-width:0.5;" width="161" x="611.5" y="596.1953"/><text fill="#000000" font-family="sans-serif" font-size="14" lengthAdjust="spacing" textLength="147" x="618.5" y="617.7285">:AnnouncementMapper</text><rect fill="#E3E3E3" height="49.2188" rx="2.5" ry="2.5" style="stroke:#181818;stroke-width:0.5;" width="135" x="805.5" y="5"/><text fill="#000000" font-family="sans-serif" font-size="14" lengthAdjust="spacing" textLength="116" x="815" y="26.5332">announcementDto</text><text fill="#000000" font-family="sans-serif" font-size="14" lengthAdjust="spacing" textLength="121" x="812.5" y="44.1426">:AnnouncementDto</text><rect fill="#E3E3E3" height="49.2188" rx="2.5" ry="2.5" style="stroke:#181818;stroke-width:0.5;" width="135" x="805.5" y="596.1953"/><text fill="#000000" font-family="sans-serif" font-size="14" lengthAdjust="spacing" textLength="116" x="815" y="617.7285">announcementDto</text><text fill="#000000" font-family="sans-serif" font-size="14" lengthAdjust="spacing" textLength="121" x="812.5" y="635.3379">:AnnouncementDto</text><rect fill="#E3E3E3" height="49.2188" rx="2.5" ry="2.5" style="stroke:#181818;stroke-width:0.5;" width="133" x="950.5" y="5"/><text fill="#000000" font-family="sans-serif" font-size="14" lengthAdjust="spacing" textLength="114" x="960" y="26.5332">agencyRepository</text><text fill="#000000" font-family="sans-serif" font-size="14" lengthAdjust="spacing" textLength="119" x="957.5" y="44.1426">:AgencyRepository</text><rect fill="#E3E3E3" height="49.2188" rx="2.5" ry="2.5" style="stroke:#181818;stroke-width:0.5;" width="133" x="950.5" y="596.1953"/><text fill="#000000" font-family="sans-serif" font-size="14" lengthAdjust="spacing" textLength="114" x="960" y="617.7285">agencyRepository</text><text fill="#000000" font-family="sans-serif" font-size="14" lengthAdjust="spacing" textLength="119" x="957.5" y="635.3379">:AgencyRepository</text><rect fill="#E3E3E3" height="49.2188" rx="2.5" ry="2.5" style="stroke:#181818;stroke-width:0.5;" width="65" x="1297.5" y="5"/><text fill="#000000" font-family="sans-serif" font-size="14" lengthAdjust="spacing" textLength="46" x="1307" y="26.5332">agency</text><text fill="#000000" font-family="sans-serif" font-size="14" lengthAdjust="spacing" textLength="51" x="1304.5" y="44.1426">:Agency</text><rect fill="#E3E3E3" height="49.2188" rx="2.5" ry="2.5" style="stroke:#181818;stroke-width:0.5;" width="65" x="1297.5" y="596.1953"/><text fill="#000000" font-family="sans-serif" font-size="14" lengthAdjust="spacing" textLength="46" x="1307" y="617.7285">agency</text><text fill="#000000" font-family="sans-serif" font-size="14" lengthAdjust="spacing" textLength="51" x="1304.5" y="635.3379">:Agency</text><rect fill="#E3E3E3" height="49.2188" rx="2.5" ry="2.5" style="stroke:#181818;stroke-width:0.5;" width="135" x="1575.5" y="5"/><text fill="#000000" font-family="sans-serif" font-size="14" lengthAdjust="spacing" textLength="116" x="1585" y="26.5332">announcementList</text><text fill="#000000" font-family="sans-serif" font-size="14" lengthAdjust="spacing" textLength="121" x="1582.5" y="44.1426">:AnnouncementList</text><rect fill="#E3E3E3" height="49.2188" rx="2.5" ry="2.5" style="stroke:#181818;stroke-width:0.5;" width="135" x="1575.5" y="596.1953"/><text fill="#000000" font-family="sans-serif" font-size="14" lengthAdjust="spacing" textLength="116" x="1585" y="617.7285">announcementList</text><text fill="#000000" font-family="sans-serif" font-size="14" lengthAdjust="spacing" textLength="121" x="1582.5" y="635.3379">:AnnouncementList</text><rect fill="#E3E3E3" height="49.2188" rx="2.5" ry="2.5" style="stroke:#181818;stroke-width:0.5;" width="113" x="1812.5" y="5"/><text fill="#000000" font-family="sans-serif" font-size="14" lengthAdjust="spacing" textLength="94" x="1822" y="26.5332">announcement</text><text fill="#000000" font-family="sans-serif" font-size="14" lengthAdjust="spacing" textLength="99" x="1819.5" y="44.1426">:Announcement</text><rect fill="#E3E3E3" height="49.2188" rx="2.5" ry="2.5" style="stroke:#181818;stroke-width:0.5;" width="113" x="1812.5" y="596.1953"/><text fill="#000000" font-family="sans-serif" font-size="14" lengthAdjust="spacing" textLength="94" x="1822" y="617.7285">announcement</text><text fill="#000000" font-family="sans-serif" font-size="14" lengthAdjust="spacing" textLength="99" x="1819.5" y="635.3379">:Announcement</text><rect fill="#FFFFFF" height="491.625" style="stroke:#181818;stroke-width:1.0;" width="10" x="240" y="87.5703"/><rect fill="#FFFFFF" height="91.0547" style="stroke:#181818;stroke-width:1.0;" width="10" x="687" y="143.2734"/><rect fill="#FFFFFF" height="30.3516" style="stroke:#181818;stroke-width:1.0;" width="10" x="868" y="173.625"/><rect fill="#FFFFFF" height="277.1641" style="stroke:#181818;stroke-width:1.0;" width="10" x="1012" y="264.6797"/><rect fill="#FFFFFF" height="191.1094" style="stroke:#181818;stroke-width:1.0;" width="10" x="1325" y="320.3828"/><rect fill="#FFFFFF" height="130.4063" style="stroke:#181818;stroke-width:1.0;" width="10" x="1638" y="350.7344"/><rect fill="#FFFFFF" height="30.3516" style="stroke:#181818;stroke-width:1.0;" width="10" x="1864" y="406.4375"/><polygon fill="#181818" points="228,83.5703,238,87.5703,228,91.5703,232,87.5703" style="stroke:#181818;stroke-width:1.0;"/><line style="stroke:#181818;stroke-width:1.0;" x1="0" x2="234" y1="87.5703" y2="87.5703"/><text fill="#000000" font-family="sans-serif" font-size="13" font-weight="bold" lengthAdjust="spacing" textLength="14" x="7" y="82.7139">21</text><text fill="#000000" font-family="sans-serif" font-size="13" lengthAdjust="spacing" textLength="203" x="25" y="82.7139">convertToModel(announcementDto)</text><path d="M152.5,102.5703 L436.5,102.5703 L436.5,110.9219 L426.5,120.9219 L152.5,120.9219 L152.5,102.5703 " fill="#EEEEEE" style="stroke:#000000;stroke-width:1.5;"/><rect fill="none" height="447.2734" style="stroke:#000000;stroke-width:1.5;" width="1803" x="152.5" y="102.5703"/><text fill="#000000" font-family="sans-serif" font-size="13" font-weight="bold" lengthAdjust="spacing" textLength="239" x="167.5" y="117.0654">Convert Announcement DTO to Model</text><polygon fill="#181818" points="675,139.2734,685,143.2734,675,147.2734,679,143.2734" style="stroke:#181818;stroke-width:1.0;"/><line style="stroke:#181818;stroke-width:1.0;" x1="250" x2="681" y1="143.2734" y2="143.2734"/><text fill="#000000" font-family="sans-serif" font-size="13" font-weight="bold" lengthAdjust="spacing" textLength="25" x="257" y="138.417">21.1</text><text fill="#000000" font-family="sans-serif" font-size="13" lengthAdjust="spacing" textLength="389" x="286" y="138.417">announcementId = getAnnouncementIdFromDto(announcementDto)</text><polygon fill="#181818" points="856,169.625,866,173.625,856,177.625,860,173.625" style="stroke:#181818;stroke-width:1.0;"/><line style="stroke:#181818;stroke-width:1.0;" x1="697" x2="862" y1="173.625" y2="173.625"/><text fill="#000000" font-family="sans-serif" font-size="13" font-weight="bold" lengthAdjust="spacing" textLength="25" x="704" y="168.7686">21.2</text><text fill="#000000" font-family="sans-serif" font-size="13" lengthAdjust="spacing" textLength="123" x="733" y="168.7686">getAnnouncementId()</text><polygon fill="#181818" points="708,199.9766,698,203.9766,708,207.9766,704,203.9766" style="stroke:#181818;stroke-width:1.0;"/><line style="stroke:#181818;stroke-width:1.0;stroke-dasharray:2.0,2.0;" x1="702" x2="872" y1="203.9766" y2="203.9766"/><text fill="#000000" font-family="sans-serif" font-size="13" font-weight="bold" lengthAdjust="spacing" textLength="25" x="714" y="199.1201">21.3</text><text fill="#000000" font-family="sans-serif" font-size="13" lengthAdjust="spacing" textLength="95" x="743" y="199.1201">announcementId</text><polygon fill="#181818" points="261,230.3281,251,234.3281,261,238.3281,257,234.3281" style="stroke:#181818;stroke-width:1.0;"/><line style="stroke:#181818;stroke-width:1.0;stroke-dasharray:2.0,2.0;" x1="255" x2="691" y1="234.3281" y2="234.3281"/><text fill="#000000" font-family="sans-serif" font-size="13" font-weight="bold" lengthAdjust="spacing" textLength="25" x="267" y="229.4717">21.4</text><text fill="#000000" font-family="sans-serif" font-size="13" lengthAdjust="spacing" textLength="95" x="296" y="229.4717">announcementId</text><polygon fill="#181818" points="1000,260.6797,1010,264.6797,1000,268.6797,1004,264.6797" style="stroke:#181818;stroke-width:1.0;"/><line style="stroke:#181818;stroke-width:1.0;" x1="250" x2="1006" y1="264.6797" y2="264.6797"/><text fill="#000000" font-family="sans-serif" font-size="13" font-weight="bold" lengthAdjust="spacing" textLength="25" x="257" y="259.8232">21.5</text><text fill="#000000" font-family="sans-serif" font-size="13" lengthAdjust="spacing" textLength="255" x="286" y="259.8232">searchAnnouncementById(announcementId)</text><path d="M940.5,279.6797 L1013.5,279.6797 L1013.5,288.0313 L1003.5,298.0313 L940.5,298.0313 L940.5,279.6797 " fill="#EEEEEE" style="stroke:#000000;stroke-width:1.5;"/><rect fill="none" height="172.1094" style="stroke:#000000;stroke-width:1.5;" width="1005" x="940.5" y="279.6797"/><text fill="#000000" font-family="sans-serif" font-size="13" font-weight="bold" lengthAdjust="spacing" textLength="28" x="955.5" y="294.1748">loop</text><text fill="#000000" font-family="sans-serif" font-size="11" font-weight="bold" lengthAdjust="spacing" textLength="92" x="1028.5" y="293.0986">[for all agencies]</text><polygon fill="#181818" points="1313,316.3828,1323,320.3828,1313,324.3828,1317,320.3828" style="stroke:#181818;stroke-width:1.0;"/><line style="stroke:#181818;stroke-width:1.0;" x1="1022" x2="1319" y1="320.3828" y2="320.3828"/><text fill="#000000" font-family="sans-serif" font-size="13" font-weight="bold" lengthAdjust="spacing" textLength="25" x="1029" y="315.5264">21.6</text><text fill="#000000" font-family="sans-serif" font-size="13" lengthAdjust="spacing" textLength="255" x="1058" y="315.5264">searchAnnouncementById(announcementId)</text><polygon fill="#181818" points="1626,346.7344,1636,350.7344,1626,354.7344,1630,350.7344" style="stroke:#181818;stroke-width:1.0;"/><line style="stroke:#181818;stroke-width:1.0;" x1="1335" x2="1632" y1="350.7344" y2="350.7344"/><text fill="#000000" font-family="sans-serif" font-size="13" font-weight="bold" lengthAdjust="spacing" textLength="25" x="1342" y="345.8779">21.7</text><text fill="#000000" font-family="sans-serif" font-size="13" lengthAdjust="spacing" textLength="255" x="1371" y="345.8779">searchAnnouncementById(announcementId)</text><path d="M1565.5,365.7344 L1638.5,365.7344 L1638.5,374.0859 L1628.5,384.0859 L1565.5,384.0859 L1565.5,365.7344 " fill="#EEEEEE" style="stroke:#000000;stroke-width:1.5;"/><rect fill="none" height="79.0547" style="stroke:#000000;stroke-width:1.5;" width="370" x="1565.5" y="365.7344"/><text fill="#000000" font-family="sans-serif" font-size="13" font-weight="bold" lengthAdjust="spacing" textLength="28" x="1580.5" y="380.2295">loop</text><text fill="#000000" font-family="sans-serif" font-size="11" font-weight="bold" lengthAdjust="spacing" textLength="132" x="1653.5" y="379.1533">[for all announcements]</text><polygon fill="#181818" points="1852,402.4375,1862,406.4375,1852,410.4375,1856,406.4375" style="stroke:#181818;stroke-width:1.0;"/><line style="stroke:#181818;stroke-width:1.0;stroke-dasharray:2.0,2.0;" x1="1648" x2="1858" y1="406.4375" y2="406.4375"/><text fill="#000000" font-family="sans-serif" font-size="13" font-weight="bold" lengthAdjust="spacing" textLength="25" x="1655" y="401.5811">21.8</text><text fill="#000000" font-family="sans-serif" font-size="13" lengthAdjust="spacing" textLength="168" x="1684" y="401.5811">hasSameId(announcementId)</text><polygon fill="#181818" points="1659,432.7891,1649,436.7891,1659,440.7891,1655,436.7891" style="stroke:#181818;stroke-width:1.0;"/><line style="stroke:#181818;stroke-width:1.0;stroke-dasharray:2.0,2.0;" x1="1653" x2="1868" y1="436.7891" y2="436.7891"/><text fill="#000000" font-family="sans-serif" font-size="13" font-weight="bold" lengthAdjust="spacing" textLength="25" x="1665" y="431.9326">21.9</text><text fill="#000000" font-family="sans-serif" font-size="13" lengthAdjust="spacing" textLength="53" x="1694" y="431.9326">true/false</text><polygon fill="#181818" points="1346,477.1406,1336,481.1406,1346,485.1406,1342,481.1406" style="stroke:#181818;stroke-width:1.0;"/><line style="stroke:#181818;stroke-width:1.0;stroke-dasharray:2.0,2.0;" x1="1340" x2="1642" y1="481.1406" y2="481.1406"/><text fill="#000000" font-family="sans-serif" font-size="13" font-weight="bold" lengthAdjust="spacing" textLength="32" x="1352" y="476.2842">21.10</text><text fill="#000000" font-family="sans-serif" font-size="13" lengthAdjust="spacing" textLength="85" x="1388" y="476.2842">announcement</text><polygon fill="#181818" points="1033,507.4922,1023,511.4922,1033,515.4922,1029,511.4922" style="stroke:#181818;stroke-width:1.0;"/><line style="stroke:#181818;stroke-width:1.0;stroke-dasharray:2.0,2.0;" x1="1027" x2="1329" y1="511.4922" y2="511.4922"/><text fill="#000000" font-family="sans-serif" font-size="13" font-weight="bold" lengthAdjust="spacing" textLength="32" x="1039" y="506.6357">21.11</text><text fill="#000000" font-family="sans-serif" font-size="13" lengthAdjust="spacing" textLength="85" x="1075" y="506.6357">announcement</text><polygon fill="#181818" points="261,537.8438,251,541.8438,261,545.8438,257,541.8438" style="stroke:#181818;stroke-width:1.0;"/><line style="stroke:#181818;stroke-width:1.0;stroke-dasharray:2.0,2.0;" x1="255" x2="1016" y1="541.8438" y2="541.8438"/><text fill="#000000" font-family="sans-serif" font-size="13" font-weight="bold" lengthAdjust="spacing" textLength="32" x="267" y="536.9873">21.12</text><text fill="#000000" font-family="sans-serif" font-size="13" lengthAdjust="spacing" textLength="85" x="303" y="536.9873">announcement</text><polygon fill="#181818" points="11,575.1953,1,579.1953,11,583.1953,7,579.1953" style="stroke:#181818;stroke-width:1.0;"/><line style="stroke:#181818;stroke-width:1.0;stroke-dasharray:2.0,2.0;" x1="5" x2="244" y1="579.1953" y2="579.1953"/><text fill="#000000" font-family="sans-serif" font-size="13" font-weight="bold" lengthAdjust="spacing" textLength="14" x="17" y="574.3389">22</text><text fill="#000000" font-family="sans-serif" font-size="13" lengthAdjust="spacing" textLength="85" x="35" y="574.3389">announcement</text><!--SRC=[bLJ1RjmW4BtxAqOvfGUtIevHMybrqYZIxYPQRtlgXUA9RGM31JZL_dqnUBq6uoRbECnxysPuWtffU4SaQQ4LND1QYXP1onuJDTrqXBwG2WjzP0WIgIQyOlC4LPDI_6bu1S-4AKoInCHrGvkES0qNDmMjiUmP_cnKetF1jHICeRm0eY0_x3T1UiQvw3d55hdUaguRCxVPqzFTtiybizHRBNvn3smY5fdjyjl3Ou2iaDFZ7ZjXD0bv7A11o663O8nbmZh4VRukSjCe7QWSGXQuUIWE-IOhYdLu01sxspt-sELtPkoaruBtxM-KS7sL991-jVE56w22lwBK1x4L9RBBO6uV39JgvfLeT0-IW3aUsySh5woaw3l87HtCnO2PCMW1je9B7euLO8IuvpDIvhKVIlW25UhCYtqtBZIgbYfFd9FOqHFJnLZ4b7DlRiejs2yZFAD3felXZ0pfklOflSH_CfrKdP_ZRPwmizCOGpyQCeL4qdhUvBUZQTEl4MiwjFQKmeJeu5b888o1zNY3AfXEg6FGTf__lnnVajaTxyQMChI6VLgFzzTOKFcDpRBLCjSJTjxDQDvPMsgzvpRI2As9AaYBxz4M6FAqrB1ofY9fC9lXz_xaFk8OplFgMX7afPtL-MOPYVHjtt_UQCpPAwEqhnmt-5kC2zSipHbVlIXPT2k6zktNj_mQhrteSvgw4c6D6RVzM_y2]--></g></svg>