<?xml version="1.0" encoding="UTF-8" standalone="no"?><svg xmlns="http://www.w3.org/2000/svg" xmlns:xlink="http://www.w3.org/1999/xlink" contentStyleType="text/css" height="693px" preserveAspectRatio="none" style="width:1087px;height:693px;background:#FFFFFF;" version="1.1" viewBox="0 0 1087 693" width="1087px" zoomAndPan="magnify"><defs/><g><rect fill="#FFFFFF" height="533.4375" style="stroke:#181818;stroke-width:1.0;" width="10" x="186" y="87.5703"/><rect fill="#FFFFFF" height="422.3828" style="stroke:#181818;stroke-width:1.0;" width="10" x="393" y="168.2734"/><rect fill="#FFFFFF" height="91.0547" style="stroke:#181818;stroke-width:1.0;" width="10" x="578" y="284.1953"/><rect fill="#FFFFFF" height="30.3516" style="stroke:#181818;stroke-width:1.0;" width="10" x="824" y="314.5469"/><rect fill="#FFFFFF" height="30.3516" style="stroke:#181818;stroke-width:1.0;" width="10" x="824" y="497.9531"/><rect fill="#FFFFFF" height="30" style="stroke:#181818;stroke-width:1.0;" width="10" x="979" y="405.6016"/><rect fill="none" height="458.7344" style="stroke:#000000;stroke-width:1.5;" width="983" x="98.5" y="102.5703"/><rect fill="none" height="225.1094" style="stroke:#000000;stroke-width:1.5;" width="750" x="321.5" y="243.4922"/><line style="stroke:#181818;stroke-width:0.5;stroke-dasharray:5.0,5.0;" x1="190.5" x2="190.5" y1="55.2188" y2="639.0078"/><line style="stroke:#181818;stroke-width:0.5;stroke-dasharray:5.0,5.0;" x1="397.5" x2="397.5" y1="55.2188" y2="639.0078"/><line style="stroke:#181818;stroke-width:0.5;stroke-dasharray:5.0,5.0;" x1="582.5" x2="582.5" y1="55.2188" y2="639.0078"/><line style="stroke:#181818;stroke-width:0.5;stroke-dasharray:5.0,5.0;" x1="828.5" x2="828.5" y1="55.2188" y2="639.0078"/><line style="stroke:#181818;stroke-width:0.5;stroke-dasharray:5.0,5.0;" x1="983.5" x2="983.5" y1="216.3828" y2="639.0078"/><rect fill="#E3E3E3" height="31.6094" rx="2.5" ry="2.5" style="stroke:#181818;stroke-width:0.5;" width="165" x="108.5" y="22.6094"/><text fill="#000000" font-family="sans-serif" font-size="14" lengthAdjust="spacing" textLength="151" x="115.5" y="44.1426">:ScheduleVisitController</text><rect fill="#E3E3E3" height="31.6094" rx="2.5" ry="2.5" style="stroke:#181818;stroke-width:0.5;" width="165" x="108.5" y="638.0078"/><text fill="#000000" font-family="sans-serif" font-size="14" lengthAdjust="spacing" textLength="151" x="115.5" y="659.541">:ScheduleVisitController</text><rect fill="#E3E3E3" height="49.2188" rx="2.5" ry="2.5" style="stroke:#181818;stroke-width:0.5;" width="133" x="331.5" y="5"/><text fill="#000000" font-family="sans-serif" font-size="14" lengthAdjust="spacing" textLength="114" x="341" y="26.5332">agencyRepository</text><text fill="#000000" font-family="sans-serif" font-size="14" lengthAdjust="spacing" textLength="119" x="338.5" y="44.1426">:AgencyRepository</text><rect fill="#E3E3E3" height="49.2188" rx="2.5" ry="2.5" style="stroke:#181818;stroke-width:0.5;" width="133" x="331.5" y="638.0078"/><text fill="#000000" font-family="sans-serif" font-size="14" lengthAdjust="spacing" textLength="114" x="341" y="659.541">agencyRepository</text><text fill="#000000" font-family="sans-serif" font-size="14" lengthAdjust="spacing" textLength="119" x="338.5" y="677.1504">:AgencyRepository</text><rect fill="#E3E3E3" height="49.2188" rx="2.5" ry="2.5" style="stroke:#181818;stroke-width:0.5;" width="65" x="550.5" y="5"/><text fill="#000000" font-family="sans-serif" font-size="14" lengthAdjust="spacing" textLength="46" x="560" y="26.5332">agency</text><text fill="#000000" font-family="sans-serif" font-size="14" lengthAdjust="spacing" textLength="51" x="557.5" y="44.1426">:Agency</text><rect fill="#E3E3E3" height="49.2188" rx="2.5" ry="2.5" style="stroke:#181818;stroke-width:0.5;" width="65" x="550.5" y="638.0078"/><text fill="#000000" font-family="sans-serif" font-size="14" lengthAdjust="spacing" textLength="46" x="560" y="659.541">agency</text><text fill="#000000" font-family="sans-serif" font-size="14" lengthAdjust="spacing" textLength="51" x="557.5" y="677.1504">:Agency</text><rect fill="#E3E3E3" height="49.2188" rx="2.5" ry="2.5" style="stroke:#181818;stroke-width:0.5;" width="135" x="761.5" y="5"/><text fill="#000000" font-family="sans-serif" font-size="14" lengthAdjust="spacing" textLength="116" x="771" y="26.5332">announcementList</text><text fill="#000000" font-family="sans-serif" font-size="14" lengthAdjust="spacing" textLength="121" x="768.5" y="44.1426">:AnnouncementList</text><rect fill="#E3E3E3" height="49.2188" rx="2.5" ry="2.5" style="stroke:#181818;stroke-width:0.5;" width="135" x="761.5" y="638.0078"/><text fill="#000000" font-family="sans-serif" font-size="14" lengthAdjust="spacing" textLength="116" x="771" y="659.541">announcementList</text><text fill="#000000" font-family="sans-serif" font-size="14" lengthAdjust="spacing" textLength="121" x="768.5" y="677.1504">:AnnouncementList</text><rect fill="#E3E3E3" height="49.2188" rx="2.5" ry="2.5" style="stroke:#181818;stroke-width:0.5;" width="155" x="906.5" y="638.0078"/><text fill="#000000" font-family="sans-serif" font-size="14" lengthAdjust="spacing" textLength="119" x="924.5" y="659.541">listAnnouncements</text><text fill="#000000" font-family="sans-serif" font-size="14" lengthAdjust="spacing" textLength="141" x="913.5" y="677.1504">: List&lt;Announcement&gt;</text><rect fill="#FFFFFF" height="533.4375" style="stroke:#181818;stroke-width:1.0;" width="10" x="186" y="87.5703"/><rect fill="#FFFFFF" height="422.3828" style="stroke:#181818;stroke-width:1.0;" width="10" x="393" y="168.2734"/><rect fill="#FFFFFF" height="91.0547" style="stroke:#181818;stroke-width:1.0;" width="10" x="578" y="284.1953"/><rect fill="#FFFFFF" height="30.3516" style="stroke:#181818;stroke-width:1.0;" width="10" x="824" y="314.5469"/><rect fill="#FFFFFF" height="30.3516" style="stroke:#181818;stroke-width:1.0;" width="10" x="824" y="497.9531"/><rect fill="#FFFFFF" height="30" style="stroke:#181818;stroke-width:1.0;" width="10" x="979" y="405.6016"/><polygon fill="#181818" points="174,83.5703,184,87.5703,174,91.5703,178,87.5703" style="stroke:#181818;stroke-width:1.0;"/><line style="stroke:#181818;stroke-width:1.0;" x1="0" x2="180" y1="87.5703" y2="87.5703"/><text fill="#000000" font-family="sans-serif" font-size="13" font-weight="bold" lengthAdjust="spacing" textLength="7" x="7" y="82.7139">4</text><text fill="#000000" font-family="sans-serif" font-size="13" lengthAdjust="spacing" textLength="156" x="18" y="82.7139">getAllAnnouncementsList()</text><path d="M98.5,102.5703 L297.5,102.5703 L297.5,110.9219 L287.5,120.9219 L98.5,120.9219 L98.5,102.5703 " fill="#EEEEEE" style="stroke:#000000;stroke-width:1.5;"/><rect fill="none" height="458.7344" style="stroke:#000000;stroke-width:1.5;" width="983" x="98.5" y="102.5703"/><text fill="#000000" font-family="sans-serif" font-size="13" font-weight="bold" lengthAdjust="spacing" textLength="154" x="113.5" y="117.0654">Get Announcements List</text><polygon fill="#181818" points="381,164.2734,391,168.2734,381,172.2734,385,168.2734" style="stroke:#181818;stroke-width:1.0;"/><line style="stroke:#181818;stroke-width:1.0;" x1="196" x2="387" y1="168.2734" y2="168.2734"/><text fill="#000000" font-family="sans-serif" font-size="13" font-weight="bold" lengthAdjust="spacing" textLength="18" x="203" y="163.417">4.1</text><text fill="#000000" font-family="sans-serif" font-size="13" lengthAdjust="spacing" textLength="156" x="225" y="163.417">getAllAnnouncementsList()</text><polygon fill="#181818" points="894.5,194.625,904.5,198.625,894.5,202.625,898.5,198.625" style="stroke:#181818;stroke-width:1.0;"/><line style="stroke:#181818;stroke-width:1.0;" x1="403" x2="900.5" y1="198.625" y2="198.625"/><text fill="#000000" font-family="sans-serif" font-size="13" font-weight="bold" lengthAdjust="spacing" textLength="18" x="410" y="193.7686">4.2</text><text fill="#000000" font-family="sans-serif" font-size="13" lengthAdjust="spacing" textLength="134" x="432" y="193.7686">listToDisplay = create()</text><rect fill="#E3E3E3" height="49.2188" rx="2.5" ry="2.5" style="stroke:#181818;stroke-width:0.5;" width="155" x="906.5" y="176.2734"/><text fill="#000000" font-family="sans-serif" font-size="14" lengthAdjust="spacing" textLength="119" x="924.5" y="197.8066">listAnnouncements</text><text fill="#000000" font-family="sans-serif" font-size="14" lengthAdjust="spacing" textLength="141" x="913.5" y="215.416">: List&lt;Announcement&gt;</text><path d="M321.5,243.4922 L394.5,243.4922 L394.5,251.8438 L384.5,261.8438 L321.5,261.8438 L321.5,243.4922 " fill="#EEEEEE" style="stroke:#000000;stroke-width:1.5;"/><rect fill="none" height="225.1094" style="stroke:#000000;stroke-width:1.5;" width="750" x="321.5" y="243.4922"/><text fill="#000000" font-family="sans-serif" font-size="13" font-weight="bold" lengthAdjust="spacing" textLength="28" x="336.5" y="257.9873">loop</text><text fill="#000000" font-family="sans-serif" font-size="11" font-weight="bold" lengthAdjust="spacing" textLength="92" x="409.5" y="256.9111">[for all agencies]</text><polygon fill="#181818" points="566,280.1953,576,284.1953,566,288.1953,570,284.1953" style="stroke:#181818;stroke-width:1.0;"/><line style="stroke:#181818;stroke-width:1.0;" x1="403" x2="572" y1="284.1953" y2="284.1953"/><text fill="#000000" font-family="sans-serif" font-size="13" font-weight="bold" lengthAdjust="spacing" textLength="18" x="410" y="279.3389">4.3</text><text fill="#000000" font-family="sans-serif" font-size="13" lengthAdjust="spacing" textLength="134" x="432" y="279.3389">getAnnouncementList()</text><polygon fill="#181818" points="812,310.5469,822,314.5469,812,318.5469,816,314.5469" style="stroke:#181818;stroke-width:1.0;"/><line style="stroke:#181818;stroke-width:1.0;" x1="588" x2="818" y1="314.5469" y2="314.5469"/><text fill="#000000" font-family="sans-serif" font-size="13" font-weight="bold" lengthAdjust="spacing" textLength="18" x="595" y="309.6904">4.4</text><text fill="#000000" font-family="sans-serif" font-size="13" lengthAdjust="spacing" textLength="134" x="617" y="309.6904">getAnnouncementList()</text><polygon fill="#181818" points="599,340.8984,589,344.8984,599,348.8984,595,344.8984" style="stroke:#181818;stroke-width:1.0;"/><line style="stroke:#181818;stroke-width:1.0;stroke-dasharray:2.0,2.0;" x1="593" x2="828" y1="344.8984" y2="344.8984"/><text fill="#000000" font-family="sans-serif" font-size="13" font-weight="bold" lengthAdjust="spacing" textLength="18" x="605" y="340.042">4.5</text><text fill="#000000" font-family="sans-serif" font-size="13" lengthAdjust="spacing" textLength="106" x="627" y="340.042">announcementList</text><polygon fill="#181818" points="414,371.25,404,375.25,414,379.25,410,375.25" style="stroke:#181818;stroke-width:1.0;"/><line style="stroke:#181818;stroke-width:1.0;stroke-dasharray:2.0,2.0;" x1="408" x2="582" y1="375.25" y2="375.25"/><text fill="#000000" font-family="sans-serif" font-size="13" font-weight="bold" lengthAdjust="spacing" textLength="18" x="420" y="370.3936">4.6</text><text fill="#000000" font-family="sans-serif" font-size="13" lengthAdjust="spacing" textLength="106" x="442" y="370.3936">announcementList</text><polygon fill="#181818" points="967,401.6016,977,405.6016,967,409.6016,971,405.6016" style="stroke:#181818;stroke-width:1.0;"/><line style="stroke:#181818;stroke-width:1.0;" x1="403" x2="973" y1="405.6016" y2="405.6016"/><text fill="#000000" font-family="sans-serif" font-size="13" font-weight="bold" lengthAdjust="spacing" textLength="18" x="410" y="400.7451">4.7</text><text fill="#000000" font-family="sans-serif" font-size="13" lengthAdjust="spacing" textLength="150" x="432" y="400.7451">addAll(announcementList)</text><polygon fill="#181818" points="812,493.9531,822,497.9531,812,501.9531,816,497.9531" style="stroke:#181818;stroke-width:1.0;"/><line style="stroke:#181818;stroke-width:1.0;" x1="403" x2="818" y1="497.9531" y2="497.9531"/><text fill="#000000" font-family="sans-serif" font-size="13" font-weight="bold" lengthAdjust="spacing" textLength="18" x="410" y="493.0967">4.8</text><text fill="#000000" font-family="sans-serif" font-size="13" lengthAdjust="spacing" textLength="380" x="432" y="493.0967">sortAnnouncementsByMostRecentAcceptanceDate(listToDisplay)</text><polygon fill="#181818" points="414,524.3047,404,528.3047,414,532.3047,410,528.3047" style="stroke:#181818;stroke-width:1.0;"/><line style="stroke:#181818;stroke-width:1.0;stroke-dasharray:2.0,2.0;" x1="408" x2="828" y1="528.3047" y2="528.3047"/><text fill="#000000" font-family="sans-serif" font-size="13" font-weight="bold" lengthAdjust="spacing" textLength="18" x="420" y="523.4482">4.9</text><text fill="#000000" font-family="sans-serif" font-size="13" lengthAdjust="spacing" textLength="74" x="442" y="523.4482">listToDisplay</text><polygon fill="#181818" points="207,586.6563,197,590.6563,207,594.6563,203,590.6563" style="stroke:#181818;stroke-width:1.0;"/><line style="stroke:#181818;stroke-width:1.0;stroke-dasharray:2.0,2.0;" x1="201" x2="397" y1="590.6563" y2="590.6563"/><text fill="#000000" font-family="sans-serif" font-size="13" font-weight="bold" lengthAdjust="spacing" textLength="25" x="213" y="585.7998">4.10</text><text fill="#000000" font-family="sans-serif" font-size="13" lengthAdjust="spacing" textLength="74" x="242" y="585.7998">listToDisplay</text><polygon fill="#181818" points="11,617.0078,1,621.0078,11,625.0078,7,621.0078" style="stroke:#181818;stroke-width:1.0;"/><line style="stroke:#181818;stroke-width:1.0;stroke-dasharray:2.0,2.0;" x1="5" x2="190" y1="621.0078" y2="621.0078"/><text fill="#000000" font-family="sans-serif" font-size="13" font-weight="bold" lengthAdjust="spacing" textLength="7" x="17" y="616.1514">5</text><text fill="#000000" font-family="sans-serif" font-size="13" lengthAdjust="spacing" textLength="74" x="28" y="616.1514">listToDisplay</text><!--SRC=[fLJ1QkCm4BthAuQUkeKK2jrBQ0kf2w6GlSHXJtjHvQaZAaj6ahSOyl6LvAmZoKdJfRvvDE-zcNaZcJSkMwff0usIYcsrQX2ixf2OyQIbx8tMMDfU86XabifQn0bcIolrpcKDhrGO98IukEMCjrHQk9YNR8jL9_0tDzmMIbgjX41z0TH0iLclqdGd9Lc_nbQvRANxFtA-o481cGUFiOpO0R4iiYGfLISPDYZjYXlhqxDG0AwUoqsnMfHb2XVkFCut3WyUT1T77mRjVSGVkm7HpYhPDI-euPOGc3s4GS0SQhGB8H9M3xdyuJ3Cyh_KuZ0p0kwBQQvlXbYjLTV24YqaBA4mijljGfB_Wg9JpWVvQHN_m6Cn4nl6b0clruh6S7NbbFmCD-g9crRG7kw1QNIiljqzYr2gXLUbWGe1mLMEXXnKJYejYtqZcQDH4saZRZjILiVWY4Rp_u_ki3F9kVyEZBEnq7mL4r25Nw4DzHxtywliqncSyT1pLvNRbSjSujIKutjmgeeu9zfOb5LOX_CbnfuPfTDR-jZ_KiQkaRcV1MFOkWUDuPDVksGRlstir8U4_xp5yMtrpOUhVQxxmrjoN2qUzEJkvg_Apn2ucyq6pWbfH3QyIXy0]--></g></svg>