<?xml version="1.0" encoding="UTF-8" standalone="no"?><svg xmlns="http://www.w3.org/2000/svg" xmlns:xlink="http://www.w3.org/1999/xlink" contentStyleType="text/css" height="1838px" preserveAspectRatio="none" style="width:1196px;height:1838px;background:#FFFFFF;" version="1.1" viewBox="0 0 1196 1838" width="1196px" zoomAndPan="magnify"><defs/><g><text fill="#000000" font-family="sans-serif" font-size="14" font-weight="bold" lengthAdjust="spacing" textLength="221" x="489.25" y="29.5332">Sequence Diagram (SD) - US009</text><rect fill="#FFFFFF" height="1616.3281" style="stroke:#181818;stroke-width:1.0;" width="10" x="66" y="131.2188"/><rect fill="#FFFFFF" height="510.6641" style="stroke:#181818;stroke-width:1.0;" width="10" x="413" y="153.5703"/><rect fill="#FFFFFF" height="309.9063" style="stroke:#181818;stroke-width:1.0;" width="10" x="413" y="745.2891"/><rect fill="#FFFFFF" height="152.5938" style="stroke:#181818;stroke-width:1.0;" width="10" x="413" y="1099.5469"/><rect fill="#FFFFFF" height="430.7031" style="stroke:#181818;stroke-width:1.0;" width="10" x="413" y="1307.8438"/><rect fill="#FFFFFF" height="407.3516" style="stroke:#181818;stroke-width:1.0;" width="10" x="748" y="226.5313"/><rect fill="#FFFFFF" height="87.7969" style="stroke:#181818;stroke-width:1.0;" width="10" x="753" y="264.8828"/><rect fill="#FFFFFF" height="87.7969" style="stroke:#181818;stroke-width:1.0;" width="10" x="753" y="508.7344"/><rect fill="#FFFFFF" height="249.2031" style="stroke:#181818;stroke-width:1.0;" width="10" x="748" y="775.6406"/><rect fill="#FFFFFF" height="87.7969" style="stroke:#181818;stroke-width:1.0;" width="10" x="753" y="899.6953"/><rect fill="#FFFFFF" height="91.8906" style="stroke:#181818;stroke-width:1.0;" width="10" x="748" y="1129.8984"/><rect fill="#FFFFFF" height="353.6484" style="stroke:#181818;stroke-width:1.0;" width="10" x="748" y="1354.5469"/><rect fill="#FFFFFF" height="87.7969" style="stroke:#181818;stroke-width:1.0;" width="10" x="753" y="1392.8984"/><rect fill="#FFFFFF" height="87.7969" style="stroke:#181818;stroke-width:1.0;" width="10" x="753" y="1551.0469"/><rect fill="#FFFFFF" height="30.3516" style="stroke:#181818;stroke-width:1.0;" width="10" x="1098" y="415.0313"/><rect fill="#FFFFFF" height="30.3516" style="stroke:#181818;stroke-width:1.0;" width="10" x="1098" y="805.9922"/><rect fill="none" height="390.9609" style="stroke:#000000;stroke-width:1.5;" width="1180.5" x="10" y="679.2344"/><rect fill="none" height="358.6094" style="stroke:#000000;stroke-width:1.5;" width="1160.5" x="20" y="704.5859"/><rect fill="none" height="411.7031" style="stroke:#000000;stroke-width:1.5;" width="1032" x="20" y="1267.1406"/><line style="stroke:#181818;stroke-width:0.5;stroke-dasharray:5.0,5.0;" x1="71" x2="71" y1="121.2188" y2="1756.5469"/><line style="stroke:#181818;stroke-width:0.5;stroke-dasharray:5.0,5.0;" x1="418" x2="418" y1="121.2188" y2="1756.5469"/><line style="stroke:#181818;stroke-width:0.5;stroke-dasharray:5.0,5.0;" x1="752.5" x2="752.5" y1="192.875" y2="1756.5469"/><line style="stroke:#181818;stroke-width:0.5;stroke-dasharray:5.0,5.0;" x1="1102.5" x2="1102.5" y1="121.2188" y2="1756.5469"/><text fill="#000000" font-family="sans-serif" font-size="14" font-weight="bold" lengthAdjust="spacing" textLength="68" x="34" y="118.1426">Customer</text><ellipse cx="71" cy="52.1094" fill="#E3E3E3" rx="8" ry="8" style="stroke:#181818;stroke-width:0.5;"/><path d="M71,60.1094 L71,87.1094 M58,68.1094 L84,68.1094 M71,87.1094 L58,102.1094 M71,87.1094 L84,102.1094 " fill="none" style="stroke:#181818;stroke-width:0.5;"/><text fill="#000000" font-family="sans-serif" font-size="14" font-weight="bold" lengthAdjust="spacing" textLength="68" x="34" y="1770.0801">Customer</text><ellipse cx="71" cy="1781.6563" fill="#E3E3E3" rx="8" ry="8" style="stroke:#181818;stroke-width:0.5;"/><path d="M71,1789.6563 L71,1816.6563 M58,1797.6563 L84,1797.6563 M71,1816.6563 L58,1831.6563 M71,1816.6563 L84,1831.6563 " fill="none" style="stroke:#181818;stroke-width:0.5;"/><rect fill="#E3E3E3" height="31.6094" rx="2.5" ry="2.5" style="stroke:#181818;stroke-width:0.5;" width="136" x="350" y="88.6094"/><text fill="#000000" font-family="sans-serif" font-size="14" font-weight="bold" lengthAdjust="spacing" textLength="114" x="361" y="110.1426">:ScheduleVisitUI</text><rect fill="#E3E3E3" height="31.6094" rx="2.5" ry="2.5" style="stroke:#181818;stroke-width:0.5;" width="136" x="350" y="1755.5469"/><text fill="#000000" font-family="sans-serif" font-size="14" font-weight="bold" lengthAdjust="spacing" textLength="114" x="361" y="1777.0801">:ScheduleVisitUI</text><rect fill="#E3E3E3" height="31.6094" rx="2.5" ry="2.5" style="stroke:#181818;stroke-width:0.5;" width="193" x="656.5" y="1755.5469"/><text fill="#000000" font-family="sans-serif" font-size="14" font-weight="bold" lengthAdjust="spacing" textLength="171" x="667.5" y="1777.0801">:ScheduleVisitController</text><rect fill="#E3E3E3" height="49.2188" rx="2.5" ry="2.5" style="stroke:#181818;stroke-width:0.5;" width="135" x="1035.5" y="71"/><text fill="#000000" font-family="sans-serif" font-size="14" lengthAdjust="spacing" textLength="116" x="1045" y="92.5332">announcementList</text><text fill="#000000" font-family="sans-serif" font-size="14" lengthAdjust="spacing" textLength="121" x="1042.5" y="110.1426">:AnnouncementList</text><rect fill="#E3E3E3" height="49.2188" rx="2.5" ry="2.5" style="stroke:#181818;stroke-width:0.5;" width="135" x="1035.5" y="1755.5469"/><text fill="#000000" font-family="sans-serif" font-size="14" lengthAdjust="spacing" textLength="116" x="1045" y="1777.0801">announcementList</text><text fill="#000000" font-family="sans-serif" font-size="14" lengthAdjust="spacing" textLength="121" x="1042.5" y="1794.6895">:AnnouncementList</text><rect fill="#FFFFFF" height="1616.3281" style="stroke:#181818;stroke-width:1.0;" width="10" x="66" y="131.2188"/><rect fill="#FFFFFF" height="510.6641" style="stroke:#181818;stroke-width:1.0;" width="10" x="413" y="153.5703"/><rect fill="#FFFFFF" height="309.9063" style="stroke:#181818;stroke-width:1.0;" width="10" x="413" y="745.2891"/><rect fill="#FFFFFF" height="152.5938" style="stroke:#181818;stroke-width:1.0;" width="10" x="413" y="1099.5469"/><rect fill="#FFFFFF" height="430.7031" style="stroke:#181818;stroke-width:1.0;" width="10" x="413" y="1307.8438"/><rect fill="#FFFFFF" height="407.3516" style="stroke:#181818;stroke-width:1.0;" width="10" x="748" y="226.5313"/><rect fill="#FFFFFF" height="87.7969" style="stroke:#181818;stroke-width:1.0;" width="10" x="753" y="264.8828"/><rect fill="#FFFFFF" height="87.7969" style="stroke:#181818;stroke-width:1.0;" width="10" x="753" y="508.7344"/><rect fill="#FFFFFF" height="249.2031" style="stroke:#181818;stroke-width:1.0;" width="10" x="748" y="775.6406"/><rect fill="#FFFFFF" height="87.7969" style="stroke:#181818;stroke-width:1.0;" width="10" x="753" y="899.6953"/><rect fill="#FFFFFF" height="91.8906" style="stroke:#181818;stroke-width:1.0;" width="10" x="748" y="1129.8984"/><rect fill="#FFFFFF" height="353.6484" style="stroke:#181818;stroke-width:1.0;" width="10" x="748" y="1354.5469"/><rect fill="#FFFFFF" height="87.7969" style="stroke:#181818;stroke-width:1.0;" width="10" x="753" y="1392.8984"/><rect fill="#FFFFFF" height="87.7969" style="stroke:#181818;stroke-width:1.0;" width="10" x="753" y="1551.0469"/><rect fill="#FFFFFF" height="30.3516" style="stroke:#181818;stroke-width:1.0;" width="10" x="1098" y="415.0313"/><rect fill="#FFFFFF" height="30.3516" style="stroke:#181818;stroke-width:1.0;" width="10" x="1098" y="805.9922"/><polygon fill="#181818" points="401,149.5703,411,153.5703,401,157.5703,405,153.5703" style="stroke:#181818;stroke-width:1.0;"/><line style="stroke:#181818;stroke-width:1.0;" x1="76" x2="407" y1="153.5703" y2="153.5703"/><text fill="#000000" font-family="sans-serif" font-size="13" font-weight="bold" lengthAdjust="spacing" textLength="7" x="83" y="148.7139">1</text><text fill="#000000" font-family="sans-serif" font-size="13" lengthAdjust="spacing" textLength="163" x="94" y="148.7139">asks to schedule a new visit</text><polygon fill="#181818" points="644.5,179.9219,654.5,183.9219,644.5,187.9219,648.5,183.9219" style="stroke:#181818;stroke-width:1.0;"/><line style="stroke:#181818;stroke-width:1.0;" x1="423" x2="650.5" y1="183.9219" y2="183.9219"/><text fill="#000000" font-family="sans-serif" font-size="13" font-weight="bold" lengthAdjust="spacing" textLength="7" x="430" y="179.0654">2</text><text fill="#000000" font-family="sans-serif" font-size="13" lengthAdjust="spacing" textLength="36" x="441" y="179.0654">create</text><rect fill="#E3E3E3" height="31.6094" rx="2.5" ry="2.5" style="stroke:#181818;stroke-width:0.5;" width="193" x="656.5" y="161.5703"/><text fill="#000000" font-family="sans-serif" font-size="14" font-weight="bold" lengthAdjust="spacing" textLength="171" x="667.5" y="183.1035">:ScheduleVisitController</text><polygon fill="#181818" points="736,222.5313,746,226.5313,736,230.5313,740,226.5313" style="stroke:#181818;stroke-width:1.0;"/><line style="stroke:#181818;stroke-width:1.0;" x1="423" x2="742" y1="226.5313" y2="226.5313"/><text fill="#000000" font-family="sans-serif" font-size="13" font-weight="bold" lengthAdjust="spacing" textLength="7" x="430" y="221.6748">3</text><text fill="#000000" font-family="sans-serif" font-size="13" lengthAdjust="spacing" textLength="154" x="441" y="221.6748">getAnnouncementListDto()</text><line style="stroke:#181818;stroke-width:1.0;" x1="758" x2="805" y1="251.8828" y2="251.8828"/><line style="stroke:#181818;stroke-width:1.0;" x1="805" x2="805" y1="251.8828" y2="264.8828"/><line style="stroke:#181818;stroke-width:1.0;" x1="764" x2="805" y1="264.8828" y2="264.8828"/><polygon fill="#181818" points="774,260.8828,764,264.8828,774,268.8828,770,264.8828" style="stroke:#181818;stroke-width:1.0;"/><text fill="#000000" font-family="sans-serif" font-size="13" font-weight="bold" lengthAdjust="spacing" textLength="7" x="770" y="247.0264">4</text><text fill="#000000" font-family="sans-serif" font-size="13" lengthAdjust="spacing" textLength="154" x="781" y="247.0264">getAnnouncementListDto()</text><rect fill="none" height="41.4453" style="stroke:#000000;stroke-width:1.5;" width="199" x="653.5" y="277.8828"/><path d="M653.5,277.8828 L715.5,277.8828 L715.5,285.8828 L705.5,295.8828 L653.5,295.8828 L653.5,277.8828 " fill="#EEEEEE" style="stroke:#000000;stroke-width:2.0;"/><text fill="#000000" font-family="sans-serif" font-size="13" font-weight="bold" lengthAdjust="spacing" textLength="17" x="666.5" y="293.3779">ref</text><text fill="#000000" font-family="sans-serif" font-size="12" lengthAdjust="spacing" textLength="163" x="671.5" y="312.3398">Get Announcements List DTO</text><line style="stroke:#181818;stroke-width:1.0;stroke-dasharray:2.0,2.0;" x1="763" x2="805" y1="351.6797" y2="351.6797"/><line style="stroke:#181818;stroke-width:1.0;stroke-dasharray:2.0,2.0;" x1="805" x2="805" y1="351.6797" y2="364.6797"/><line style="stroke:#181818;stroke-width:1.0;stroke-dasharray:2.0,2.0;" x1="758" x2="805" y1="364.6797" y2="364.6797"/><polygon fill="#181818" points="768,360.6797,758,364.6797,768,368.6797,764,364.6797" style="stroke:#181818;stroke-width:1.0;"/><text fill="#000000" font-family="sans-serif" font-size="13" font-weight="bold" lengthAdjust="spacing" textLength="7" x="770" y="346.8232">5</text><text fill="#000000" font-family="sans-serif" font-size="13" lengthAdjust="spacing" textLength="74" x="781" y="346.8232">listToDisplay</text><polygon fill="#181818" points="1086,411.0313,1096,415.0313,1086,419.0313,1090,415.0313" style="stroke:#181818;stroke-width:1.0;"/><line style="stroke:#181818;stroke-width:1.0;" x1="758" x2="1092" y1="415.0313" y2="415.0313"/><text fill="#000000" font-family="sans-serif" font-size="13" font-weight="bold" lengthAdjust="spacing" textLength="7" x="765" y="410.1748">6</text><text fill="#000000" font-family="sans-serif" font-size="13" lengthAdjust="spacing" textLength="310" x="776" y="410.1748">sortAnnouncementsByAcceptanceDate(listToDisplay)</text><polygon fill="#181818" points="769,441.3828,759,445.3828,769,449.3828,765,445.3828" style="stroke:#181818;stroke-width:1.0;"/><line style="stroke:#181818;stroke-width:1.0;stroke-dasharray:2.0,2.0;" x1="763" x2="1102" y1="445.3828" y2="445.3828"/><text fill="#000000" font-family="sans-serif" font-size="13" font-weight="bold" lengthAdjust="spacing" textLength="7" x="775" y="440.5264">7</text><text fill="#000000" font-family="sans-serif" font-size="13" lengthAdjust="spacing" textLength="74" x="786" y="440.5264">listToDisplay</text><line style="stroke:#181818;stroke-width:1.0;" x1="758" x2="805" y1="495.7344" y2="495.7344"/><line style="stroke:#181818;stroke-width:1.0;" x1="805" x2="805" y1="495.7344" y2="508.7344"/><line style="stroke:#181818;stroke-width:1.0;" x1="764" x2="805" y1="508.7344" y2="508.7344"/><polygon fill="#181818" points="774,504.7344,764,508.7344,774,512.7344,770,508.7344" style="stroke:#181818;stroke-width:1.0;"/><text fill="#000000" font-family="sans-serif" font-size="13" font-weight="bold" lengthAdjust="spacing" textLength="7" x="770" y="490.8779">8</text><text fill="#000000" font-family="sans-serif" font-size="13" lengthAdjust="spacing" textLength="119" x="781" y="490.8779">toDTO(listToDisplay)</text><rect fill="none" height="41.4453" style="stroke:#000000;stroke-width:1.5;" width="199" x="653.5" y="521.7344"/><path d="M653.5,521.7344 L715.5,521.7344 L715.5,529.7344 L705.5,539.7344 L653.5,539.7344 L653.5,521.7344 " fill="#EEEEEE" style="stroke:#000000;stroke-width:2.0;"/><text fill="#000000" font-family="sans-serif" font-size="13" font-weight="bold" lengthAdjust="spacing" textLength="17" x="666.5" y="537.2295">ref</text><text fill="#000000" font-family="sans-serif" font-size="12" lengthAdjust="spacing" textLength="150" x="678" y="556.1914">Convert Display List to DTO</text><line style="stroke:#181818;stroke-width:1.0;stroke-dasharray:2.0,2.0;" x1="763" x2="805" y1="595.5313" y2="595.5313"/><line style="stroke:#181818;stroke-width:1.0;stroke-dasharray:2.0,2.0;" x1="805" x2="805" y1="595.5313" y2="608.5313"/><line style="stroke:#181818;stroke-width:1.0;stroke-dasharray:2.0,2.0;" x1="758" x2="805" y1="608.5313" y2="608.5313"/><polygon fill="#181818" points="768,604.5313,758,608.5313,768,612.5313,764,608.5313" style="stroke:#181818;stroke-width:1.0;"/><text fill="#000000" font-family="sans-serif" font-size="13" font-weight="bold" lengthAdjust="spacing" textLength="7" x="770" y="590.6748">9</text><text fill="#000000" font-family="sans-serif" font-size="13" lengthAdjust="spacing" textLength="94" x="781" y="590.6748">listToDisplayDto</text><polygon fill="#181818" points="434,629.8828,424,633.8828,434,637.8828,430,633.8828" style="stroke:#181818;stroke-width:1.0;"/><line style="stroke:#181818;stroke-width:1.0;stroke-dasharray:2.0,2.0;" x1="428" x2="752" y1="633.8828" y2="633.8828"/><text fill="#000000" font-family="sans-serif" font-size="13" font-weight="bold" lengthAdjust="spacing" textLength="14" x="440" y="629.0264">10</text><text fill="#000000" font-family="sans-serif" font-size="13" lengthAdjust="spacing" textLength="94" x="458" y="629.0264">listToDisplayDto</text><polygon fill="#181818" points="87,660.2344,77,664.2344,87,668.2344,83,664.2344" style="stroke:#181818;stroke-width:1.0;"/><line style="stroke:#181818;stroke-width:1.0;stroke-dasharray:2.0,2.0;" x1="81" x2="417" y1="664.2344" y2="664.2344"/><text fill="#000000" font-family="sans-serif" font-size="13" font-weight="bold" lengthAdjust="spacing" textLength="14" x="93" y="659.3779">11</text><text fill="#000000" font-family="sans-serif" font-size="13" lengthAdjust="spacing" textLength="154" x="111" y="659.3779">shows announcements list</text><path d="M10,679.2344 L71,679.2344 L71,687.5859 L61,697.5859 L10,697.5859 L10,679.2344 " fill="#EEEEEE" style="stroke:#000000;stroke-width:1.5;"/><rect fill="none" height="390.9609" style="stroke:#000000;stroke-width:1.5;" width="1180.5" x="10" y="679.2344"/><text fill="#000000" font-family="sans-serif" font-size="13" font-weight="bold" lengthAdjust="spacing" textLength="16" x="25" y="693.7295">alt</text><text fill="#000000" font-family="sans-serif" font-size="11" font-weight="bold" lengthAdjust="spacing" textLength="111" x="86" y="692.6533">[Selection of Filters]</text><path d="M20,704.5859 L93,704.5859 L93,712.9375 L83,722.9375 L20,722.9375 L20,704.5859 " fill="#EEEEEE" style="stroke:#000000;stroke-width:1.5;"/><rect fill="none" height="358.6094" style="stroke:#000000;stroke-width:1.5;" width="1160.5" x="20" y="704.5859"/><text fill="#000000" font-family="sans-serif" font-size="13" font-weight="bold" lengthAdjust="spacing" textLength="28" x="35" y="719.0811">loop</text><text fill="#000000" font-family="sans-serif" font-size="11" font-weight="bold" lengthAdjust="spacing" textLength="82" x="108" y="718.0049">[for each filter]</text><polygon fill="#181818" points="401,741.2891,411,745.2891,401,749.2891,405,745.2891" style="stroke:#181818;stroke-width:1.0;"/><line style="stroke:#181818;stroke-width:1.0;" x1="76" x2="407" y1="745.2891" y2="745.2891"/><text fill="#000000" font-family="sans-serif" font-size="13" font-weight="bold" lengthAdjust="spacing" textLength="14" x="83" y="740.4326">12</text><text fill="#000000" font-family="sans-serif" font-size="13" lengthAdjust="spacing" textLength="70" x="101" y="740.4326">selects filter</text><polygon fill="#181818" points="736,771.6406,746,775.6406,736,779.6406,740,775.6406" style="stroke:#181818;stroke-width:1.0;"/><line style="stroke:#181818;stroke-width:1.0;" x1="423" x2="742" y1="775.6406" y2="775.6406"/><text fill="#000000" font-family="sans-serif" font-size="13" font-weight="bold" lengthAdjust="spacing" textLength="14" x="430" y="770.7842">13</text><text fill="#000000" font-family="sans-serif" font-size="13" lengthAdjust="spacing" textLength="24" x="448" y="770.7842">filter</text><polygon fill="#181818" points="1086,801.9922,1096,805.9922,1086,809.9922,1090,805.9922" style="stroke:#181818;stroke-width:1.0;"/><line style="stroke:#181818;stroke-width:1.0;" x1="758" x2="1092" y1="805.9922" y2="805.9922"/><text fill="#000000" font-family="sans-serif" font-size="13" font-weight="bold" lengthAdjust="spacing" textLength="14" x="765" y="801.1357">14</text><text fill="#000000" font-family="sans-serif" font-size="13" lengthAdjust="spacing" textLength="210" x="783" y="801.1357">listToDisplay = sortListByFilter(filter)</text><polygon fill="#181818" points="769,832.3438,759,836.3438,769,840.3438,765,836.3438" style="stroke:#181818;stroke-width:1.0;"/><line style="stroke:#181818;stroke-width:1.0;stroke-dasharray:2.0,2.0;" x1="763" x2="1102" y1="836.3438" y2="836.3438"/><text fill="#000000" font-family="sans-serif" font-size="13" font-weight="bold" lengthAdjust="spacing" textLength="14" x="775" y="831.4873">15</text><text fill="#000000" font-family="sans-serif" font-size="13" lengthAdjust="spacing" textLength="74" x="793" y="831.4873">listToDisplay</text><line style="stroke:#181818;stroke-width:1.0;" x1="758" x2="805" y1="886.6953" y2="886.6953"/><line style="stroke:#181818;stroke-width:1.0;" x1="805" x2="805" y1="886.6953" y2="899.6953"/><line style="stroke:#181818;stroke-width:1.0;" x1="764" x2="805" y1="899.6953" y2="899.6953"/><polygon fill="#181818" points="774,895.6953,764,899.6953,774,903.6953,770,899.6953" style="stroke:#181818;stroke-width:1.0;"/><text fill="#000000" font-family="sans-serif" font-size="13" font-weight="bold" lengthAdjust="spacing" textLength="14" x="770" y="881.8389">16</text><text fill="#000000" font-family="sans-serif" font-size="13" lengthAdjust="spacing" textLength="119" x="788" y="881.8389">toDTO(listToDisplay)</text><rect fill="none" height="41.4453" style="stroke:#000000;stroke-width:1.5;" width="199" x="653.5" y="912.6953"/><path d="M653.5,912.6953 L715.5,912.6953 L715.5,920.6953 L705.5,930.6953 L653.5,930.6953 L653.5,912.6953 " fill="#EEEEEE" style="stroke:#000000;stroke-width:2.0;"/><text fill="#000000" font-family="sans-serif" font-size="13" font-weight="bold" lengthAdjust="spacing" textLength="17" x="666.5" y="928.1904">ref</text><text fill="#000000" font-family="sans-serif" font-size="12" lengthAdjust="spacing" textLength="150" x="678" y="947.1523">Convert Display List to DTO</text><line style="stroke:#181818;stroke-width:1.0;stroke-dasharray:2.0,2.0;" x1="763" x2="805" y1="986.4922" y2="986.4922"/><line style="stroke:#181818;stroke-width:1.0;stroke-dasharray:2.0,2.0;" x1="805" x2="805" y1="986.4922" y2="999.4922"/><line style="stroke:#181818;stroke-width:1.0;stroke-dasharray:2.0,2.0;" x1="758" x2="805" y1="999.4922" y2="999.4922"/><polygon fill="#181818" points="768,995.4922,758,999.4922,768,1003.4922,764,999.4922" style="stroke:#181818;stroke-width:1.0;"/><text fill="#000000" font-family="sans-serif" font-size="13" font-weight="bold" lengthAdjust="spacing" textLength="14" x="770" y="981.6357">17</text><text fill="#000000" font-family="sans-serif" font-size="13" lengthAdjust="spacing" textLength="94" x="788" y="981.6357">listToDisplayDto</text><polygon fill="#181818" points="434,1020.8438,424,1024.8438,434,1028.8438,430,1024.8438" style="stroke:#181818;stroke-width:1.0;"/><line style="stroke:#181818;stroke-width:1.0;stroke-dasharray:2.0,2.0;" x1="428" x2="752" y1="1024.8438" y2="1024.8438"/><text fill="#000000" font-family="sans-serif" font-size="13" font-weight="bold" lengthAdjust="spacing" textLength="14" x="440" y="1019.9873">18</text><text fill="#000000" font-family="sans-serif" font-size="13" lengthAdjust="spacing" textLength="94" x="458" y="1019.9873">listToDisplayDto</text><polygon fill="#181818" points="87,1051.1953,77,1055.1953,87,1059.1953,83,1055.1953" style="stroke:#181818;stroke-width:1.0;"/><line style="stroke:#181818;stroke-width:1.0;stroke-dasharray:2.0,2.0;" x1="81" x2="417" y1="1055.1953" y2="1055.1953"/><text fill="#000000" font-family="sans-serif" font-size="13" font-weight="bold" lengthAdjust="spacing" textLength="14" x="93" y="1050.3389">19</text><text fill="#000000" font-family="sans-serif" font-size="13" lengthAdjust="spacing" textLength="154" x="111" y="1050.3389">shows announcements list</text><polygon fill="#181818" points="401,1095.5469,411,1099.5469,401,1103.5469,405,1099.5469" style="stroke:#181818;stroke-width:1.0;"/><line style="stroke:#181818;stroke-width:1.0;" x1="76" x2="407" y1="1099.5469" y2="1099.5469"/><text fill="#000000" font-family="sans-serif" font-size="13" font-weight="bold" lengthAdjust="spacing" textLength="14" x="83" y="1094.6904">20</text><text fill="#000000" font-family="sans-serif" font-size="13" lengthAdjust="spacing" textLength="149" x="101" y="1094.6904">selects an announcement</text><polygon fill="#181818" points="736,1125.8984,746,1129.8984,736,1133.8984,740,1129.8984" style="stroke:#181818;stroke-width:1.0;"/><line style="stroke:#181818;stroke-width:1.0;" x1="423" x2="742" y1="1129.8984" y2="1129.8984"/><text fill="#000000" font-family="sans-serif" font-size="13" font-weight="bold" lengthAdjust="spacing" textLength="14" x="430" y="1125.042">21</text><text fill="#000000" font-family="sans-serif" font-size="13" lengthAdjust="spacing" textLength="203" x="448" y="1125.042">convertToModel(announcementDto)</text><rect fill="none" height="56.5391" style="stroke:#000000;stroke-width:1.5;" width="199" x="653.5" y="1137.8984"/><path d="M653.5,1137.8984 L715.5,1137.8984 L715.5,1145.8984 L705.5,1155.8984 L653.5,1155.8984 L653.5,1137.8984 " fill="#EEEEEE" style="stroke:#000000;stroke-width:2.0;"/><text fill="#000000" font-family="sans-serif" font-size="13" font-weight="bold" lengthAdjust="spacing" textLength="17" x="666.5" y="1153.3936">ref</text><text fill="#000000" font-family="sans-serif" font-size="12" lengthAdjust="spacing" textLength="156" x="675" y="1172.3555">Convert Announcement DTO</text><text fill="#000000" font-family="sans-serif" font-size="12" lengthAdjust="spacing" textLength="46" x="731.5" y="1187.4492">to Model</text><polygon fill="#181818" points="434,1217.7891,424,1221.7891,434,1225.7891,430,1221.7891" style="stroke:#181818;stroke-width:1.0;"/><line style="stroke:#181818;stroke-width:1.0;stroke-dasharray:2.0,2.0;" x1="428" x2="752" y1="1221.7891" y2="1221.7891"/><text fill="#000000" font-family="sans-serif" font-size="13" font-weight="bold" lengthAdjust="spacing" textLength="14" x="440" y="1216.9326">22</text><text fill="#000000" font-family="sans-serif" font-size="13" lengthAdjust="spacing" textLength="85" x="458" y="1216.9326">announcement</text><polygon fill="#181818" points="87,1248.1406,77,1252.1406,87,1256.1406,83,1252.1406" style="stroke:#181818;stroke-width:1.0;"/><line style="stroke:#181818;stroke-width:1.0;stroke-dasharray:2.0,2.0;" x1="81" x2="417" y1="1252.1406" y2="1252.1406"/><text fill="#000000" font-family="sans-serif" font-size="13" font-weight="bold" lengthAdjust="spacing" textLength="14" x="93" y="1247.2842">23</text><text fill="#000000" font-family="sans-serif" font-size="13" lengthAdjust="spacing" textLength="79" x="111" y="1247.2842">requests data</text><path d="M20,1267.1406 L93,1267.1406 L93,1275.4922 L83,1285.4922 L20,1285.4922 L20,1267.1406 " fill="#EEEEEE" style="stroke:#000000;stroke-width:1.5;"/><rect fill="none" height="411.7031" style="stroke:#000000;stroke-width:1.5;" width="1032" x="20" y="1267.1406"/><text fill="#000000" font-family="sans-serif" font-size="13" font-weight="bold" lengthAdjust="spacing" textLength="28" x="35" y="1281.6357">loop</text><text fill="#000000" font-family="sans-serif" font-size="11" font-weight="bold" lengthAdjust="spacing" textLength="80" x="108" y="1280.5596">[At least once]</text><polygon fill="#181818" points="401,1303.8438,411,1307.8438,401,1311.8438,405,1307.8438" style="stroke:#181818;stroke-width:1.0;"/><line style="stroke:#181818;stroke-width:1.0;" x1="76" x2="407" y1="1307.8438" y2="1307.8438"/><text fill="#000000" font-family="sans-serif" font-size="13" font-weight="bold" lengthAdjust="spacing" textLength="14" x="83" y="1302.9873">24</text><text fill="#000000" font-family="sans-serif" font-size="13" lengthAdjust="spacing" textLength="300" x="101" y="1302.9873">types requested data (visitDate, startHour, endHour)</text><polygon fill="#181818" points="736,1350.5469,746,1354.5469,736,1358.5469,740,1354.5469" style="stroke:#181818;stroke-width:1.0;"/><line style="stroke:#181818;stroke-width:1.0;" x1="423" x2="742" y1="1354.5469" y2="1354.5469"/><text fill="#000000" font-family="sans-serif" font-size="13" font-weight="bold" lengthAdjust="spacing" textLength="14" x="430" y="1341.5146">25</text><text fill="#000000" font-family="sans-serif" font-size="13" lengthAdjust="spacing" textLength="288" x="448" y="1333.3389">scheduleVisitFromAnnouncement(announcement,</text><text fill="#000000" font-family="sans-serif" font-size="13" lengthAdjust="spacing" textLength="170" x="452" y="1349.6904">visitDate, startHour, endHour)</text><line style="stroke:#181818;stroke-width:1.0;" x1="758" x2="805" y1="1379.8984" y2="1379.8984"/><line style="stroke:#181818;stroke-width:1.0;" x1="805" x2="805" y1="1379.8984" y2="1392.8984"/><line style="stroke:#181818;stroke-width:1.0;" x1="764" x2="805" y1="1392.8984" y2="1392.8984"/><polygon fill="#181818" points="774,1388.8984,764,1392.8984,774,1396.8984,770,1392.8984" style="stroke:#181818;stroke-width:1.0;"/><text fill="#000000" font-family="sans-serif" font-size="13" font-weight="bold" lengthAdjust="spacing" textLength="14" x="770" y="1375.042">26</text><text fill="#000000" font-family="sans-serif" font-size="13" lengthAdjust="spacing" textLength="252" x="788" y="1375.042">scheduleVisit(visitDate, startHour, endHour)</text><rect fill="none" height="41.4453" style="stroke:#000000;stroke-width:1.5;" width="199" x="653.5" y="1405.8984"/><path d="M653.5,1405.8984 L715.5,1405.8984 L715.5,1413.8984 L705.5,1423.8984 L653.5,1423.8984 L653.5,1405.8984 " fill="#EEEEEE" style="stroke:#000000;stroke-width:2.0;"/><text fill="#000000" font-family="sans-serif" font-size="13" font-weight="bold" lengthAdjust="spacing" textLength="17" x="666.5" y="1421.3936">ref</text><text fill="#000000" font-family="sans-serif" font-size="12" lengthAdjust="spacing" textLength="78" x="714" y="1440.3555">Schedule Visit</text><line style="stroke:#181818;stroke-width:1.0;stroke-dasharray:2.0,2.0;" x1="763" x2="805" y1="1479.6953" y2="1479.6953"/><line style="stroke:#181818;stroke-width:1.0;stroke-dasharray:2.0,2.0;" x1="805" x2="805" y1="1479.6953" y2="1492.6953"/><line style="stroke:#181818;stroke-width:1.0;stroke-dasharray:2.0,2.0;" x1="758" x2="805" y1="1492.6953" y2="1492.6953"/><polygon fill="#181818" points="768,1488.6953,758,1492.6953,768,1496.6953,764,1492.6953" style="stroke:#181818;stroke-width:1.0;"/><text fill="#000000" font-family="sans-serif" font-size="13" font-weight="bold" lengthAdjust="spacing" textLength="14" x="770" y="1474.8389">27</text><text fill="#000000" font-family="sans-serif" font-size="13" lengthAdjust="spacing" textLength="22" x="788" y="1474.8389">visit</text><line style="stroke:#181818;stroke-width:1.0;" x1="758" x2="805" y1="1538.0469" y2="1538.0469"/><line style="stroke:#181818;stroke-width:1.0;" x1="805" x2="805" y1="1538.0469" y2="1551.0469"/><line style="stroke:#181818;stroke-width:1.0;" x1="764" x2="805" y1="1551.0469" y2="1551.0469"/><polygon fill="#181818" points="774,1547.0469,764,1551.0469,774,1555.0469,770,1551.0469" style="stroke:#181818;stroke-width:1.0;"/><text fill="#000000" font-family="sans-serif" font-size="13" font-weight="bold" lengthAdjust="spacing" textLength="14" x="770" y="1533.1904">28</text><text fill="#000000" font-family="sans-serif" font-size="13" lengthAdjust="spacing" textLength="175" x="788" y="1533.1904">sendNotificationMessage(visit)</text><rect fill="none" height="41.4453" style="stroke:#000000;stroke-width:1.5;" width="199" x="653.5" y="1564.0469"/><path d="M653.5,1564.0469 L715.5,1564.0469 L715.5,1572.0469 L705.5,1582.0469 L653.5,1582.0469 L653.5,1564.0469 " fill="#EEEEEE" style="stroke:#000000;stroke-width:2.0;"/><text fill="#000000" font-family="sans-serif" font-size="13" font-weight="bold" lengthAdjust="spacing" textLength="17" x="666.5" y="1579.542">ref</text><text fill="#000000" font-family="sans-serif" font-size="12" lengthAdjust="spacing" textLength="147" x="679.5" y="1598.5039">Send Notification Message</text><line style="stroke:#181818;stroke-width:1.0;stroke-dasharray:2.0,2.0;" x1="763" x2="805" y1="1637.8438" y2="1637.8438"/><line style="stroke:#181818;stroke-width:1.0;stroke-dasharray:2.0,2.0;" x1="805" x2="805" y1="1637.8438" y2="1650.8438"/><line style="stroke:#181818;stroke-width:1.0;stroke-dasharray:2.0,2.0;" x1="758" x2="805" y1="1650.8438" y2="1650.8438"/><polygon fill="#181818" points="768,1646.8438,758,1650.8438,768,1654.8438,764,1650.8438" style="stroke:#181818;stroke-width:1.0;"/><text fill="#000000" font-family="sans-serif" font-size="13" font-weight="bold" lengthAdjust="spacing" textLength="14" x="770" y="1632.9873">29</text><text fill="#000000" font-family="sans-serif" font-size="13" lengthAdjust="spacing" textLength="70" x="788" y="1632.9873">confirmation</text><polygon fill="#181818" points="434,1704.1953,424,1708.1953,434,1712.1953,430,1708.1953" style="stroke:#181818;stroke-width:1.0;"/><line style="stroke:#181818;stroke-width:1.0;stroke-dasharray:2.0,2.0;" x1="428" x2="752" y1="1708.1953" y2="1708.1953"/><text fill="#000000" font-family="sans-serif" font-size="13" font-weight="bold" lengthAdjust="spacing" textLength="14" x="440" y="1703.3389">30</text><text fill="#000000" font-family="sans-serif" font-size="13" lengthAdjust="spacing" textLength="70" x="458" y="1703.3389">confirmation</text><polygon fill="#181818" points="87,1734.5469,77,1738.5469,87,1742.5469,83,1738.5469" style="stroke:#181818;stroke-width:1.0;"/><line style="stroke:#181818;stroke-width:1.0;stroke-dasharray:2.0,2.0;" x1="81" x2="417" y1="1738.5469" y2="1738.5469"/><text fill="#000000" font-family="sans-serif" font-size="13" font-weight="bold" lengthAdjust="spacing" textLength="14" x="93" y="1733.6904">31</text><text fill="#000000" font-family="sans-serif" font-size="13" lengthAdjust="spacing" textLength="158" x="111" y="1733.6904">displays operation success</text><!--SRC=[fLPBJ-Cm4BxdLumujGYqN1UnIAKLkqZjhhGfdBYOPD9Qf7RMTa2L-F4xTfhMpgCFyAcDPxvvVJCU_Sf5mHHRmKeAcIoLN24OLMAajpS5IrxP0cEppX4K9eQ9HUuBw2LBvJiN2yXOhZ6A33Sa6kE_4aM2CE5iOUK6yMG8b_0ONrrzZo9M6YdArGig-fqOgU3ivkKMngKsv8I2csyljsV0D8pdiuWC6PxmWWbJYLt7oHBJCiSdhhbvVDY9FpuSaXvBOPJCyz38tscenuIG9Rc_Gc6cN9jdSJrgV7AQquTuFfwEujY5mT-OGUTo17Je1rpUaazmJRAl6em4lV4560XyXpVhaXEsPmj1ORYFf4e0rhtpSm995D9jyuek5cYQxasC70pRo2xKZNUaUYH4g0xUKPY1VADajcxi-Oa6V5HA6E72PFud44MHMg3jjygrdMyvAStbXEiYPsidbMBeqiV7Hn3KjYwahQKAGjDtwr6IO45KJd1248C0ln6nL-7QlHtuiJvw84rFD-f6KbBsEd9YweddT4Uvhi2gn1C1lvHxOaHd-jlQZlIdwLf6ExipMxIbVDV00kvOk2P4tIaiDpHpSXfGN0gG6TpptA3IE_XSoW8ocZIal8JCNGUPyDjLEoZT9TOoxVk_JTj6iLipZ3lCNSZT88Fmmt7PLl9kNSKtgEmCMs3x-EkV8xdidsvUDwLgdlT5UOZtlG5riltullXidpHFis-wuppGHtjIsysH4_hiqzZ7z-4U4ytcQ5dllRQQkqkRPjkvKVs76htzkjRjoaJWwZ4FgtrMAmhCvKocc0zy14hclZ7SJxMQLlx3q-OKySpPZ9giwXcehU0wYneKKDb5J5DkKcPOjATIRZwE3EJ8g0CaMMcbsQmBr3KYfWuI1cw7iU_e1MX3IzGlMQeB6udzCOpspisW3jhVq-vf6_MJ5vJbubd00RFHWQdRc4E1xPD32g7xML5lel0Kx7sjgdSDa71LFBG0rM4Hz6zfUCOJPb_66MfDwtmLu5S2iIxxmB11xewf6GjrNCRLocbsyjX_GROZ86etn46WTaEarPZK80jKbU-wf7rGwvxk-0y0]--></g></svg>