<?xml version="1.0" encoding="UTF-8" standalone="no"?><svg xmlns="http://www.w3.org/2000/svg" xmlns:xlink="http://www.w3.org/1999/xlink" contentStyleType="text/css" height="1210px" preserveAspectRatio="none" style="width:1215px;height:1210px;background:#FFFFFF;" version="1.1" viewBox="0 0 1215 1210" width="1215px" zoomAndPan="magnify"><defs/><g><!--class ApplicationSession--><g id="elem_ApplicationSession"><rect codeLine="11" fill="#F1F1F1" height="83.2188" id="ApplicationSession" rx="2.5" ry="2.5" style="stroke:#181818;stroke-width:0.5;" width="151" x="70" y="303.3564"/><ellipse cx="85" cy="319.3564" fill="#ADD1B2" rx="11" ry="11" style="stroke:#181818;stroke-width:1.0;"/><path d="M87.7656,315.2314 Q87.9219,315.0127 88.1094,314.9033 Q88.2969,314.7939 88.5156,314.7939 Q88.8906,314.7939 89.125,315.0596 Q89.3594,315.3096 89.3594,315.9189 L89.3594,317.3721 Q89.3594,317.9814 89.125,318.2471 Q88.8906,318.5127 88.5156,318.5127 Q88.1719,318.5127 87.9688,318.3096 Q87.7656,318.1221 87.6563,317.6064 Q87.6094,317.2471 87.4219,317.0596 Q87.0938,316.6846 86.4844,316.4658 Q85.875,316.2471 85.25,316.2471 Q84.4844,316.2471 83.8438,316.5752 Q83.2188,316.9033 82.7188,317.6533 Q82.2344,318.4033 82.2344,319.4346 L82.2344,320.5283 Q82.2344,321.7627 83.125,322.5908 Q84.0156,323.4033 85.6094,323.4033 Q86.5469,323.4033 87.2031,323.1533 Q87.5938,322.9971 88.0156,322.5596 Q88.2813,322.2939 88.4219,322.2158 Q88.5781,322.1377 88.7813,322.1377 Q89.1094,322.1377 89.3594,322.4033 Q89.625,322.6533 89.625,322.9971 Q89.625,323.3408 89.2813,323.7471 Q88.7813,324.3252 87.9844,324.6533 Q86.9063,325.1064 85.6094,325.1064 Q84.0938,325.1064 82.8906,324.4814 Q81.9063,323.9814 81.2188,322.9189 Q80.5313,321.8408 80.5313,320.5596 L80.5313,319.4033 Q80.5313,318.0752 81.1406,316.9346 Q81.7656,315.7783 82.8594,315.1689 Q83.9531,314.5439 85.1875,314.5439 Q85.9219,314.5439 86.5625,314.7158 Q87.2188,314.8721 87.7656,315.2314 Z " fill="#000000"/><text fill="#000000" font-family="sans-serif" font-size="14" lengthAdjust="spacing" textLength="119" x="99" y="325.085">ApplicationSession</text><line style="stroke:#181818;stroke-width:0.5;" x1="71" x2="220" y1="335.3564" y2="335.3564"/><line style="stroke:#181818;stroke-width:0.5;" x1="71" x2="220" y1="343.3564" y2="343.3564"/><text fill="#000000" font-family="sans-serif" font-size="14" lengthAdjust="spacing" textLength="128" x="76" y="361.8896">+static getInstance()</text><text fill="#000000" font-family="sans-serif" font-size="14" lengthAdjust="spacing" textLength="136" x="76" y="379.499">+getCurrentSession()</text></g><!--class UserSession--><g id="elem_UserSession"><rect codeLine="17" fill="#F1F1F1" height="65.6094" id="UserSession" rx="2.5" ry="2.5" style="stroke:#181818;stroke-width:0.5;" width="113" x="7" y="560.8564"/><ellipse cx="22.9" cy="576.8564" fill="#ADD1B2" rx="11" ry="11" style="stroke:#181818;stroke-width:1.0;"/><path d="M25.6656,572.7314 Q25.8219,572.5127 26.0094,572.4033 Q26.1969,572.2939 26.4156,572.2939 Q26.7906,572.2939 27.025,572.5596 Q27.2594,572.8096 27.2594,573.4189 L27.2594,574.8721 Q27.2594,575.4814 27.025,575.7471 Q26.7906,576.0127 26.4156,576.0127 Q26.0719,576.0127 25.8688,575.8096 Q25.6656,575.6221 25.5563,575.1064 Q25.5094,574.7471 25.3219,574.5596 Q24.9938,574.1846 24.3844,573.9658 Q23.775,573.7471 23.15,573.7471 Q22.3844,573.7471 21.7438,574.0752 Q21.1188,574.4033 20.6188,575.1533 Q20.1344,575.9033 20.1344,576.9346 L20.1344,578.0283 Q20.1344,579.2627 21.025,580.0908 Q21.9156,580.9033 23.5094,580.9033 Q24.4469,580.9033 25.1031,580.6533 Q25.4938,580.4971 25.9156,580.0596 Q26.1813,579.7939 26.3219,579.7158 Q26.4781,579.6377 26.6813,579.6377 Q27.0094,579.6377 27.2594,579.9033 Q27.525,580.1533 27.525,580.4971 Q27.525,580.8408 27.1813,581.2471 Q26.6813,581.8252 25.8844,582.1533 Q24.8063,582.6064 23.5094,582.6064 Q21.9938,582.6064 20.7906,581.9814 Q19.8063,581.4814 19.1188,580.4189 Q18.4313,579.3408 18.4313,578.0596 L18.4313,576.9033 Q18.4313,575.5752 19.0406,574.4346 Q19.6656,573.2783 20.7594,572.6689 Q21.8531,572.0439 23.0875,572.0439 Q23.8219,572.0439 24.4625,572.2158 Q25.1188,572.3721 25.6656,572.7314 Z " fill="#000000"/><text fill="#000000" font-family="sans-serif" font-size="14" lengthAdjust="spacing" textLength="79" x="37.1" y="582.585">UserSession</text><line style="stroke:#181818;stroke-width:0.5;" x1="8" x2="119" y1="592.8564" y2="592.8564"/><line style="stroke:#181818;stroke-width:0.5;" x1="8" x2="119" y1="600.8564" y2="600.8564"/><text fill="#000000" font-family="sans-serif" font-size="14" lengthAdjust="spacing" textLength="101" x="13" y="619.3896">+getUserEmail()</text></g><!--class Employee--><g id="elem_Employee"><rect codeLine="22" fill="#F1F1F1" height="118.4375" id="Employee" rx="2.5" ry="2.5" style="stroke:#181818;stroke-width:0.5;" width="94" x="802.5" y="1085.3564"/><ellipse cx="817.5" cy="1101.3564" fill="#ADD1B2" rx="11" ry="11" style="stroke:#181818;stroke-width:1.0;"/><path d="M820.2656,1097.2314 Q820.4219,1097.0127 820.6094,1096.9033 Q820.7969,1096.7939 821.0156,1096.7939 Q821.3906,1096.7939 821.625,1097.0596 Q821.8594,1097.3096 821.8594,1097.9189 L821.8594,1099.3721 Q821.8594,1099.9814 821.625,1100.2471 Q821.3906,1100.5127 821.0156,1100.5127 Q820.6719,1100.5127 820.4688,1100.3096 Q820.2656,1100.1221 820.1563,1099.6064 Q820.1094,1099.2471 819.9219,1099.0596 Q819.5938,1098.6846 818.9844,1098.4658 Q818.375,1098.2471 817.75,1098.2471 Q816.9844,1098.2471 816.3438,1098.5752 Q815.7188,1098.9033 815.2188,1099.6533 Q814.7344,1100.4033 814.7344,1101.4346 L814.7344,1102.5283 Q814.7344,1103.7627 815.625,1104.5908 Q816.5156,1105.4033 818.1094,1105.4033 Q819.0469,1105.4033 819.7031,1105.1533 Q820.0938,1104.9971 820.5156,1104.5596 Q820.7813,1104.2939 820.9219,1104.2158 Q821.0781,1104.1377 821.2813,1104.1377 Q821.6094,1104.1377 821.8594,1104.4033 Q822.125,1104.6533 822.125,1104.9971 Q822.125,1105.3408 821.7813,1105.7471 Q821.2813,1106.3252 820.4844,1106.6533 Q819.4063,1107.1064 818.1094,1107.1064 Q816.5938,1107.1064 815.3906,1106.4814 Q814.4063,1105.9814 813.7188,1104.9189 Q813.0313,1103.8408 813.0313,1102.5596 L813.0313,1101.4033 Q813.0313,1100.0752 813.6406,1098.9346 Q814.2656,1097.7783 815.3594,1097.1689 Q816.4531,1096.5439 817.6875,1096.5439 Q818.4219,1096.5439 819.0625,1096.7158 Q819.7188,1096.8721 820.2656,1097.2314 Z " fill="#000000"/><text fill="#000000" font-family="sans-serif" font-size="14" lengthAdjust="spacing" textLength="62" x="831.5" y="1107.085">Employee</text><line style="stroke:#181818;stroke-width:0.5;" x1="803.5" x2="895.5" y1="1117.3564" y2="1117.3564"/><text fill="#000000" font-family="sans-serif" font-size="14" lengthAdjust="spacing" textLength="40" x="808.5" y="1135.8896">-name</text><text fill="#000000" font-family="sans-serif" font-size="14" lengthAdjust="spacing" textLength="38" x="808.5" y="1153.499">-email</text><text fill="#000000" font-family="sans-serif" font-size="14" lengthAdjust="spacing" textLength="54" x="808.5" y="1171.1084">-position</text><text fill="#000000" font-family="sans-serif" font-size="14" lengthAdjust="spacing" textLength="45" x="808.5" y="1188.7178">-phone</text><line style="stroke:#181818;stroke-width:0.5;" x1="803.5" x2="895.5" y1="1195.7939" y2="1195.7939"/></g><!--class Task--><g id="elem_Task"><rect codeLine="29" fill="#F1F1F1" height="206.4844" id="Task" rx="2.5" ry="2.5" style="stroke:#181818;stroke-width:0.5;" width="272" x="580.5" y="801.3564"/><ellipse cx="696.75" cy="817.3564" fill="#ADD1B2" rx="11" ry="11" style="stroke:#181818;stroke-width:1.0;"/><path d="M699.5156,813.2314 Q699.6719,813.0127 699.8594,812.9033 Q700.0469,812.7939 700.2656,812.7939 Q700.6406,812.7939 700.875,813.0596 Q701.1094,813.3096 701.1094,813.9189 L701.1094,815.3721 Q701.1094,815.9814 700.875,816.2471 Q700.6406,816.5127 700.2656,816.5127 Q699.9219,816.5127 699.7188,816.3096 Q699.5156,816.1221 699.4063,815.6064 Q699.3594,815.2471 699.1719,815.0596 Q698.8438,814.6846 698.2344,814.4658 Q697.625,814.2471 697,814.2471 Q696.2344,814.2471 695.5938,814.5752 Q694.9688,814.9033 694.4688,815.6533 Q693.9844,816.4033 693.9844,817.4346 L693.9844,818.5283 Q693.9844,819.7627 694.875,820.5908 Q695.7656,821.4033 697.3594,821.4033 Q698.2969,821.4033 698.9531,821.1533 Q699.3438,820.9971 699.7656,820.5596 Q700.0313,820.2939 700.1719,820.2158 Q700.3281,820.1377 700.5313,820.1377 Q700.8594,820.1377 701.1094,820.4033 Q701.375,820.6533 701.375,820.9971 Q701.375,821.3408 701.0313,821.7471 Q700.5313,822.3252 699.7344,822.6533 Q698.6563,823.1064 697.3594,823.1064 Q695.8438,823.1064 694.6406,822.4814 Q693.6563,821.9814 692.9688,820.9189 Q692.2813,819.8408 692.2813,818.5596 L692.2813,817.4033 Q692.2813,816.0752 692.8906,814.9346 Q693.5156,813.7783 694.6094,813.1689 Q695.7031,812.5439 696.9375,812.5439 Q697.6719,812.5439 698.3125,812.7158 Q698.9688,812.8721 699.5156,813.2314 Z " fill="#000000"/><text fill="#000000" font-family="sans-serif" font-size="14" lengthAdjust="spacing" textLength="31" x="717.25" y="823.085">Task</text><line style="stroke:#181818;stroke-width:0.5;" x1="581.5" x2="851.5" y1="833.3564" y2="833.3564"/><text fill="#000000" font-family="sans-serif" font-size="14" lengthAdjust="spacing" textLength="107" x="586.5" y="851.8896">-String reference</text><text fill="#000000" font-family="sans-serif" font-size="14" lengthAdjust="spacing" textLength="115" x="586.5" y="869.499">-String description</text><text fill="#000000" font-family="sans-serif" font-size="14" lengthAdjust="spacing" textLength="167" x="586.5" y="887.1084">-String informalDescription</text><text fill="#000000" font-family="sans-serif" font-size="14" lengthAdjust="spacing" textLength="173" x="586.5" y="904.7178">-String technicalDescription</text><text fill="#000000" font-family="sans-serif" font-size="14" lengthAdjust="spacing" textLength="105" x="586.5" y="922.3271">-Integer duration</text><text fill="#000000" font-family="sans-serif" font-size="14" lengthAdjust="spacing" textLength="80" x="586.5" y="939.9365">-Double cost</text><line style="stroke:#181818;stroke-width:0.5;" x1="581.5" x2="851.5" y1="947.0127" y2="947.0127"/><text fill="#000000" font-family="sans-serif" font-size="14" lengthAdjust="spacing" textLength="186" x="586.5" y="965.5459">+Task(reference, description,</text><text fill="#000000" font-family="sans-serif" font-size="14" lengthAdjust="spacing" textLength="260" x="586.5" y="983.1553">informalDescription, technicalDescription,</text><text fill="#000000" font-family="sans-serif" font-size="14" lengthAdjust="spacing" textLength="255" x="586.5" y="1000.7646">duration, cost, createdBy, taskCategory)</text></g><!--class TaskCategory--><g id="elem_TaskCategory"><rect codeLine="40" fill="#F1F1F1" height="83.2188" id="TaskCategory" rx="2.5" ry="2.5" style="stroke:#181818;stroke-width:0.5;" width="188" x="338.5" y="1102.8564"/><ellipse cx="383.75" cy="1118.8564" fill="#ADD1B2" rx="11" ry="11" style="stroke:#181818;stroke-width:1.0;"/><path d="M386.5156,1114.7314 Q386.6719,1114.5127 386.8594,1114.4033 Q387.0469,1114.2939 387.2656,1114.2939 Q387.6406,1114.2939 387.875,1114.5596 Q388.1094,1114.8096 388.1094,1115.4189 L388.1094,1116.8721 Q388.1094,1117.4814 387.875,1117.7471 Q387.6406,1118.0127 387.2656,1118.0127 Q386.9219,1118.0127 386.7188,1117.8096 Q386.5156,1117.6221 386.4063,1117.1064 Q386.3594,1116.7471 386.1719,1116.5596 Q385.8438,1116.1846 385.2344,1115.9658 Q384.625,1115.7471 384,1115.7471 Q383.2344,1115.7471 382.5938,1116.0752 Q381.9688,1116.4033 381.4688,1117.1533 Q380.9844,1117.9033 380.9844,1118.9346 L380.9844,1120.0283 Q380.9844,1121.2627 381.875,1122.0908 Q382.7656,1122.9033 384.3594,1122.9033 Q385.2969,1122.9033 385.9531,1122.6533 Q386.3438,1122.4971 386.7656,1122.0596 Q387.0313,1121.7939 387.1719,1121.7158 Q387.3281,1121.6377 387.5313,1121.6377 Q387.8594,1121.6377 388.1094,1121.9033 Q388.375,1122.1533 388.375,1122.4971 Q388.375,1122.8408 388.0313,1123.2471 Q387.5313,1123.8252 386.7344,1124.1533 Q385.6563,1124.6064 384.3594,1124.6064 Q382.8438,1124.6064 381.6406,1123.9814 Q380.6563,1123.4814 379.9688,1122.4189 Q379.2813,1121.3408 379.2813,1120.0596 L379.2813,1118.9033 Q379.2813,1117.5752 379.8906,1116.4346 Q380.5156,1115.2783 381.6094,1114.6689 Q382.7031,1114.0439 383.9375,1114.0439 Q384.6719,1114.0439 385.3125,1114.2158 Q385.9688,1114.3721 386.5156,1114.7314 Z " fill="#000000"/><text fill="#000000" font-family="sans-serif" font-size="14" lengthAdjust="spacing" textLength="89" x="404.25" y="1124.585">TaskCategory</text><line style="stroke:#181818;stroke-width:0.5;" x1="339.5" x2="525.5" y1="1134.8564" y2="1134.8564"/><text fill="#000000" font-family="sans-serif" font-size="14" lengthAdjust="spacing" textLength="115" x="344.5" y="1153.3896">-String description</text><line style="stroke:#181818;stroke-width:0.5;" x1="339.5" x2="525.5" y1="1160.4658" y2="1160.4658"/><text fill="#000000" font-family="sans-serif" font-size="14" lengthAdjust="spacing" textLength="176" x="344.5" y="1178.999">+TaskCategory(description)</text></g><!--class Organization--><g id="elem_Organization"><rect codeLine="46" fill="#F1F1F1" height="259.3125" id="Organization" rx="2.5" ry="2.5" style="stroke:#181818;stroke-width:0.5;" width="529" x="658" y="464.3564"/><ellipse cx="878.25" cy="480.3564" fill="#ADD1B2" rx="11" ry="11" style="stroke:#181818;stroke-width:1.0;"/><path d="M881.0156,476.2314 Q881.1719,476.0127 881.3594,475.9033 Q881.5469,475.7939 881.7656,475.7939 Q882.1406,475.7939 882.375,476.0596 Q882.6094,476.3096 882.6094,476.9189 L882.6094,478.3721 Q882.6094,478.9814 882.375,479.2471 Q882.1406,479.5127 881.7656,479.5127 Q881.4219,479.5127 881.2188,479.3096 Q881.0156,479.1221 880.9063,478.6064 Q880.8594,478.2471 880.6719,478.0596 Q880.3438,477.6846 879.7344,477.4658 Q879.125,477.2471 878.5,477.2471 Q877.7344,477.2471 877.0938,477.5752 Q876.4688,477.9033 875.9688,478.6533 Q875.4844,479.4033 875.4844,480.4346 L875.4844,481.5283 Q875.4844,482.7627 876.375,483.5908 Q877.2656,484.4033 878.8594,484.4033 Q879.7969,484.4033 880.4531,484.1533 Q880.8438,483.9971 881.2656,483.5596 Q881.5313,483.2939 881.6719,483.2158 Q881.8281,483.1377 882.0313,483.1377 Q882.3594,483.1377 882.6094,483.4033 Q882.875,483.6533 882.875,483.9971 Q882.875,484.3408 882.5313,484.7471 Q882.0313,485.3252 881.2344,485.6533 Q880.1563,486.1064 878.8594,486.1064 Q877.3438,486.1064 876.1406,485.4814 Q875.1563,484.9814 874.4688,483.9189 Q873.7813,482.8408 873.7813,481.5596 L873.7813,480.4033 Q873.7813,479.0752 874.3906,477.9346 Q875.0156,476.7783 876.1094,476.1689 Q877.2031,475.5439 878.4375,475.5439 Q879.1719,475.5439 879.8125,475.7158 Q880.4688,475.8721 881.0156,476.2314 Z " fill="#000000"/><text fill="#000000" font-family="sans-serif" font-size="14" lengthAdjust="spacing" textLength="80" x="898.75" y="486.085">Organization</text><line style="stroke:#181818;stroke-width:0.5;" x1="659" x2="1186" y1="496.3564" y2="496.3564"/><text fill="#000000" font-family="sans-serif" font-size="14" lengthAdjust="spacing" textLength="81" x="664" y="514.8896">-String name</text><text fill="#000000" font-family="sans-serif" font-size="14" lengthAdjust="spacing" textLength="114" x="664" y="532.499">-String vatNumber</text><text fill="#000000" font-family="sans-serif" font-size="14" lengthAdjust="spacing" textLength="93" x="664" y="550.1084">-String website</text><text fill="#000000" font-family="sans-serif" font-size="14" lengthAdjust="spacing" textLength="86" x="664" y="567.7178">-String phone</text><text fill="#000000" font-family="sans-serif" font-size="14" lengthAdjust="spacing" textLength="79" x="664" y="585.3271">-String email</text><line style="stroke:#181818;stroke-width:0.5;" x1="659" x2="1186" y1="592.4033" y2="592.4033"/><text fill="#000000" font-family="sans-serif" font-size="14" lengthAdjust="spacing" textLength="96" x="664" y="610.9365">-addTask(task)</text><text fill="#000000" font-family="sans-serif" font-size="14" lengthAdjust="spacing" textLength="121" x="664" y="628.5459">-validateTask(task)</text><text fill="#000000" font-family="sans-serif" font-size="14" lengthAdjust="spacing" textLength="194" x="664" y="646.1553">+anyEmployeeHasEmail(email)</text><text fill="#000000" font-family="sans-serif" font-size="14" lengthAdjust="spacing" textLength="517" x="664" y="663.7646">+Organization(name, vatNumber, webSite, phone, email, postalAddress, manager)</text><text fill="#000000" font-family="sans-serif" font-size="14" lengthAdjust="spacing" textLength="362" x="664" y="681.374">+createTask(reference, description, informalDesccription,</text><text fill="#000000" font-family="sans-serif" font-size="14" lengthAdjust="spacing" textLength="389" x="664" y="698.9834">technicalDescription, duration, cost, taskCategoryDescription)</text><text fill="#000000" font-family="sans-serif" font-size="14" lengthAdjust="spacing" textLength="180" x="664" y="716.5928">-getEmployeeByEmail(email)</text></g><!--class TaskCategoryRepository--><g id="elem_TaskCategoryRepository"><rect codeLine="63" fill="#F1F1F1" height="65.6094" id="TaskCategoryRepository" rx="2.5" ry="2.5" style="stroke:#181818;stroke-width:0.5;" width="295" x="407" y="311.8564"/><ellipse cx="471.75" cy="327.8564" fill="#ADD1B2" rx="11" ry="11" style="stroke:#181818;stroke-width:1.0;"/><path d="M474.5156,323.7314 Q474.6719,323.5127 474.8594,323.4033 Q475.0469,323.2939 475.2656,323.2939 Q475.6406,323.2939 475.875,323.5596 Q476.1094,323.8096 476.1094,324.4189 L476.1094,325.8721 Q476.1094,326.4814 475.875,326.7471 Q475.6406,327.0127 475.2656,327.0127 Q474.9219,327.0127 474.7188,326.8096 Q474.5156,326.6221 474.4063,326.1064 Q474.3594,325.7471 474.1719,325.5596 Q473.8438,325.1846 473.2344,324.9658 Q472.625,324.7471 472,324.7471 Q471.2344,324.7471 470.5938,325.0752 Q469.9688,325.4033 469.4688,326.1533 Q468.9844,326.9033 468.9844,327.9346 L468.9844,329.0283 Q468.9844,330.2627 469.875,331.0908 Q470.7656,331.9033 472.3594,331.9033 Q473.2969,331.9033 473.9531,331.6533 Q474.3438,331.4971 474.7656,331.0596 Q475.0313,330.7939 475.1719,330.7158 Q475.3281,330.6377 475.5313,330.6377 Q475.8594,330.6377 476.1094,330.9033 Q476.375,331.1533 476.375,331.4971 Q476.375,331.8408 476.0313,332.2471 Q475.5313,332.8252 474.7344,333.1533 Q473.6563,333.6064 472.3594,333.6064 Q470.8438,333.6064 469.6406,332.9814 Q468.6563,332.4814 467.9688,331.4189 Q467.2813,330.3408 467.2813,329.0596 L467.2813,327.9033 Q467.2813,326.5752 467.8906,325.4346 Q468.5156,324.2783 469.6094,323.6689 Q470.7031,323.0439 471.9375,323.0439 Q472.6719,323.0439 473.3125,323.2158 Q473.9688,323.3721 474.5156,323.7314 Z " fill="#000000"/><text fill="#000000" font-family="sans-serif" font-size="14" lengthAdjust="spacing" textLength="157" x="492.25" y="333.585">TaskCategoryRepository</text><line style="stroke:#181818;stroke-width:0.5;" x1="408" x2="701" y1="343.8564" y2="343.8564"/><line style="stroke:#181818;stroke-width:0.5;" x1="408" x2="701" y1="351.8564" y2="351.8564"/><text fill="#000000" font-family="sans-serif" font-size="14" lengthAdjust="spacing" textLength="283" x="413" y="370.3896">+getTaskCategoryByDescription(description)</text></g><!--class OrganizationRepository--><g id="elem_OrganizationRepository"><rect codeLine="67" fill="#F1F1F1" height="65.6094" id="OrganizationRepository" rx="2.5" ry="2.5" style="stroke:#181818;stroke-width:0.5;" width="275" x="880" y="311.8564"/><ellipse cx="939.25" cy="327.8564" fill="#ADD1B2" rx="11" ry="11" style="stroke:#181818;stroke-width:1.0;"/><path d="M942.0156,323.7314 Q942.1719,323.5127 942.3594,323.4033 Q942.5469,323.2939 942.7656,323.2939 Q943.1406,323.2939 943.375,323.5596 Q943.6094,323.8096 943.6094,324.4189 L943.6094,325.8721 Q943.6094,326.4814 943.375,326.7471 Q943.1406,327.0127 942.7656,327.0127 Q942.4219,327.0127 942.2188,326.8096 Q942.0156,326.6221 941.9063,326.1064 Q941.8594,325.7471 941.6719,325.5596 Q941.3438,325.1846 940.7344,324.9658 Q940.125,324.7471 939.5,324.7471 Q938.7344,324.7471 938.0938,325.0752 Q937.4688,325.4033 936.9688,326.1533 Q936.4844,326.9033 936.4844,327.9346 L936.4844,329.0283 Q936.4844,330.2627 937.375,331.0908 Q938.2656,331.9033 939.8594,331.9033 Q940.7969,331.9033 941.4531,331.6533 Q941.8438,331.4971 942.2656,331.0596 Q942.5313,330.7939 942.6719,330.7158 Q942.8281,330.6377 943.0313,330.6377 Q943.3594,330.6377 943.6094,330.9033 Q943.875,331.1533 943.875,331.4971 Q943.875,331.8408 943.5313,332.2471 Q943.0313,332.8252 942.2344,333.1533 Q941.1563,333.6064 939.8594,333.6064 Q938.3438,333.6064 937.1406,332.9814 Q936.1563,332.4814 935.4688,331.4189 Q934.7813,330.3408 934.7813,329.0596 L934.7813,327.9033 Q934.7813,326.5752 935.3906,325.4346 Q936.0156,324.2783 937.1094,323.6689 Q938.2031,323.0439 939.4375,323.0439 Q940.1719,323.0439 940.8125,323.2158 Q941.4688,323.3721 942.0156,323.7314 Z " fill="#000000"/><text fill="#000000" font-family="sans-serif" font-size="14" lengthAdjust="spacing" textLength="148" x="959.75" y="333.585">OrganizationRepository</text><line style="stroke:#181818;stroke-width:0.5;" x1="881" x2="1154" y1="343.8564" y2="343.8564"/><line style="stroke:#181818;stroke-width:0.5;" x1="881" x2="1154" y1="351.8564" y2="351.8564"/><text fill="#000000" font-family="sans-serif" font-size="14" lengthAdjust="spacing" textLength="263" x="886" y="370.3896">+getOrganizationByEmployeeEmail(email)</text></g><!--class Repositories--><g id="elem_Repositories"><rect codeLine="71" fill="#F1F1F1" height="118.4375" id="Repositories" rx="2.5" ry="2.5" style="stroke:#181818;stroke-width:0.5;" width="207" x="905" y="80.8564"/><ellipse cx="964.75" cy="96.8564" fill="#ADD1B2" rx="11" ry="11" style="stroke:#181818;stroke-width:1.0;"/><path d="M967.5156,92.7314 Q967.6719,92.5127 967.8594,92.4033 Q968.0469,92.2939 968.2656,92.2939 Q968.6406,92.2939 968.875,92.5596 Q969.1094,92.8096 969.1094,93.4189 L969.1094,94.8721 Q969.1094,95.4814 968.875,95.7471 Q968.6406,96.0127 968.2656,96.0127 Q967.9219,96.0127 967.7188,95.8096 Q967.5156,95.6221 967.4063,95.1064 Q967.3594,94.7471 967.1719,94.5596 Q966.8438,94.1846 966.2344,93.9658 Q965.625,93.7471 965,93.7471 Q964.2344,93.7471 963.5938,94.0752 Q962.9688,94.4033 962.4688,95.1533 Q961.9844,95.9033 961.9844,96.9346 L961.9844,98.0283 Q961.9844,99.2627 962.875,100.0908 Q963.7656,100.9033 965.3594,100.9033 Q966.2969,100.9033 966.9531,100.6533 Q967.3438,100.4971 967.7656,100.0596 Q968.0313,99.7939 968.1719,99.7158 Q968.3281,99.6377 968.5313,99.6377 Q968.8594,99.6377 969.1094,99.9033 Q969.375,100.1533 969.375,100.4971 Q969.375,100.8408 969.0313,101.2471 Q968.5313,101.8252 967.7344,102.1533 Q966.6563,102.6064 965.3594,102.6064 Q963.8438,102.6064 962.6406,101.9814 Q961.6563,101.4814 960.9688,100.4189 Q960.2813,99.3408 960.2813,98.0596 L960.2813,96.9033 Q960.2813,95.5752 960.8906,94.4346 Q961.5156,93.2783 962.6094,92.6689 Q963.7031,92.0439 964.9375,92.0439 Q965.6719,92.0439 966.3125,92.2158 Q966.9688,92.3721 967.5156,92.7314 Z " fill="#000000"/><text fill="#000000" font-family="sans-serif" font-size="14" lengthAdjust="spacing" textLength="79" x="985.25" y="102.585">Repositories</text><line style="stroke:#181818;stroke-width:0.5;" x1="906" x2="1111" y1="112.8564" y2="112.8564"/><line style="stroke:#181818;stroke-width:0.5;" x1="906" x2="1111" y1="120.8564" y2="120.8564"/><text fill="#000000" font-family="sans-serif" font-size="14" lengthAdjust="spacing" textLength="94" x="911" y="139.3896">-Repositories()</text><text fill="#000000" font-family="sans-serif" font-size="14" lengthAdjust="spacing" textLength="182" x="911" y="156.999">+getInstance() : Repositories</text><text fill="#000000" font-family="sans-serif" font-size="14" lengthAdjust="spacing" textLength="195" x="911" y="174.6084">+getTaskCategoryRepository()</text><text fill="#000000" font-family="sans-serif" font-size="14" lengthAdjust="spacing" textLength="186" x="911" y="192.2178">+getOrganizationRepository()</text></g><!--class CreateTaskController--><g id="elem_CreateTaskController"><rect codeLine="78" fill="#F1F1F1" height="171.2656" id="CreateTaskController" rx="2.5" ry="2.5" style="stroke:#181818;stroke-width:0.5;" width="471" x="169" y="54.3564"/><ellipse cx="332.25" cy="70.3564" fill="#ADD1B2" rx="11" ry="11" style="stroke:#181818;stroke-width:1.0;"/><path d="M335.0156,66.2314 Q335.1719,66.0127 335.3594,65.9033 Q335.5469,65.7939 335.7656,65.7939 Q336.1406,65.7939 336.375,66.0596 Q336.6094,66.3096 336.6094,66.9189 L336.6094,68.3721 Q336.6094,68.9814 336.375,69.2471 Q336.1406,69.5127 335.7656,69.5127 Q335.4219,69.5127 335.2188,69.3096 Q335.0156,69.1221 334.9063,68.6064 Q334.8594,68.2471 334.6719,68.0596 Q334.3438,67.6846 333.7344,67.4658 Q333.125,67.2471 332.5,67.2471 Q331.7344,67.2471 331.0938,67.5752 Q330.4688,67.9033 329.9688,68.6533 Q329.4844,69.4033 329.4844,70.4346 L329.4844,71.5283 Q329.4844,72.7627 330.375,73.5908 Q331.2656,74.4033 332.8594,74.4033 Q333.7969,74.4033 334.4531,74.1533 Q334.8438,73.9971 335.2656,73.5596 Q335.5313,73.2939 335.6719,73.2158 Q335.8281,73.1377 336.0313,73.1377 Q336.3594,73.1377 336.6094,73.4033 Q336.875,73.6533 336.875,73.9971 Q336.875,74.3408 336.5313,74.7471 Q336.0313,75.3252 335.2344,75.6533 Q334.1563,76.1064 332.8594,76.1064 Q331.3438,76.1064 330.1406,75.4814 Q329.1563,74.9814 328.4688,73.9189 Q327.7813,72.8408 327.7813,71.5596 L327.7813,70.4033 Q327.7813,69.0752 328.3906,67.9346 Q329.0156,66.7783 330.1094,66.1689 Q331.2031,65.5439 332.4375,65.5439 Q333.1719,65.5439 333.8125,65.7158 Q334.4688,65.8721 335.0156,66.2314 Z " fill="#000000"/><text fill="#000000" font-family="sans-serif" font-size="14" lengthAdjust="spacing" textLength="136" x="352.75" y="76.085">CreateTaskController</text><line style="stroke:#181818;stroke-width:0.5;" x1="170" x2="639" y1="86.3564" y2="86.3564"/><line style="stroke:#181818;stroke-width:0.5;" x1="170" x2="639" y1="94.3564" y2="94.3564"/><text fill="#000000" font-family="sans-serif" font-size="14" lengthAdjust="spacing" textLength="459" x="175" y="112.8896">+CreateTaskController(organizationRepository, taskCategoryRepository)</text><text fill="#000000" font-family="sans-serif" font-size="14" lengthAdjust="spacing" textLength="138" x="175" y="130.499">+getTaskCategories()</text><text fill="#000000" font-family="sans-serif" font-size="14" lengthAdjust="spacing" textLength="296" x="175" y="148.1084">+createTask(userEmail, reference, description,</text><text fill="#000000" font-family="sans-serif" font-size="14" lengthAdjust="spacing" textLength="260" x="175" y="165.7178">informalDescription, technicalDescription,</text><text fill="#000000" font-family="sans-serif" font-size="14" lengthAdjust="spacing" textLength="225" x="175" y="183.3271">duration, cost, categoryDescription)</text><text fill="#000000" font-family="sans-serif" font-size="14" lengthAdjust="spacing" textLength="366" x="175" y="200.9365">-getTaskCategoryByDescription(taskCategoryDescription)</text><text fill="#000000" font-family="sans-serif" font-size="14" lengthAdjust="spacing" textLength="180" x="175" y="218.5459">-getEmployeeFromSession()</text></g><g id="elem_GMN12"><path d="M675.5,102.3564 L675.5,177.7627 L869.5,177.7627 L869.5,112.3564 L859.5,102.3564 L675.5,102.3564 " fill="#FEFFDD" style="stroke:#181818;stroke-width:0.5;"/><path d="M859.5,102.3564 L859.5,112.3564 L869.5,112.3564 L859.5,102.3564 " fill="#FEFFDD" style="stroke:#181818;stroke-width:1.0;"/><text fill="#000000" font-family="sans-serif" font-size="13" lengthAdjust="spacing" textLength="133" x="681.5" y="120.8516">- userEmail is obtained</text><text fill="#000000" font-family="sans-serif" font-size="13" lengthAdjust="spacing" textLength="125" x="681.5" y="137.2031">from the user session</text><text fill="#000000" font-family="sans-serif" font-size="13" lengthAdjust="spacing" textLength="123" x="681.5" y="153.5547">- categoryDescription</text><text fill="#000000" font-family="sans-serif" font-size="13" lengthAdjust="spacing" textLength="173" x="681.5" y="169.9063">is retrieved from selected data</text></g><g id="elem_GMN15"><path d="M486,572.3564 L486,615.0596 A0,0 0 0 0 486,615.0596 L623,615.0596 A0,0 0 0 0 623,615.0596 L623,582.3564 L613,572.3564 L558.5,572.3564 L554.5,377.8964 L550.5,572.3564 L486,572.3564 A0,0 0 0 0 486,572.3564 " fill="#FEFFDD" style="stroke:#181818;stroke-width:0.5;"/><path d="M613,572.3564 L613,582.3564 L623,582.3564 L613,572.3564 " fill="#FEFFDD" style="stroke:#181818;stroke-width:0.5;"/><text fill="#000000" font-family="sans-serif" font-size="13" lengthAdjust="spacing" textLength="116" x="492" y="590.8516">- used for displaying</text><text fill="#000000" font-family="sans-serif" font-size="13" lengthAdjust="spacing" textLength="93" x="492" y="607.2031">the category list</text></g><!--class CreateTaskUI--><g id="elem_CreateTaskUI"><rect codeLine="98" fill="#F1F1F1" height="48" id="CreateTaskUI" rx="2.5" ry="2.5" style="stroke:#181818;stroke-width:0.5;" width="118" x="15.5" y="115.8564"/><ellipse cx="30.5" cy="131.8564" fill="#ADD1B2" rx="11" ry="11" style="stroke:#181818;stroke-width:1.0;"/><path d="M33.2656,127.7314 Q33.4219,127.5127 33.6094,127.4033 Q33.7969,127.2939 34.0156,127.2939 Q34.3906,127.2939 34.625,127.5596 Q34.8594,127.8096 34.8594,128.4189 L34.8594,129.8721 Q34.8594,130.4814 34.625,130.7471 Q34.3906,131.0127 34.0156,131.0127 Q33.6719,131.0127 33.4688,130.8096 Q33.2656,130.6221 33.1563,130.1064 Q33.1094,129.7471 32.9219,129.5596 Q32.5938,129.1846 31.9844,128.9658 Q31.375,128.7471 30.75,128.7471 Q29.9844,128.7471 29.3438,129.0752 Q28.7188,129.4033 28.2188,130.1533 Q27.7344,130.9033 27.7344,131.9346 L27.7344,133.0283 Q27.7344,134.2627 28.625,135.0908 Q29.5156,135.9033 31.1094,135.9033 Q32.0469,135.9033 32.7031,135.6533 Q33.0938,135.4971 33.5156,135.0596 Q33.7813,134.7939 33.9219,134.7158 Q34.0781,134.6377 34.2813,134.6377 Q34.6094,134.6377 34.8594,134.9033 Q35.125,135.1533 35.125,135.4971 Q35.125,135.8408 34.7813,136.2471 Q34.2813,136.8252 33.4844,137.1533 Q32.4063,137.6064 31.1094,137.6064 Q29.5938,137.6064 28.3906,136.9814 Q27.4063,136.4814 26.7188,135.4189 Q26.0313,134.3408 26.0313,133.0596 L26.0313,131.9033 Q26.0313,130.5752 26.6406,129.4346 Q27.2656,128.2783 28.3594,127.6689 Q29.4531,127.0439 30.6875,127.0439 Q31.4219,127.0439 32.0625,127.2158 Q32.7188,127.3721 33.2656,127.7314 Z " fill="#000000"/><text fill="#000000" font-family="sans-serif" font-size="14" lengthAdjust="spacing" textLength="86" x="44.5" y="137.585">CreateTaskUI</text><line style="stroke:#181818;stroke-width:0.5;" x1="16.5" x2="132.5" y1="147.8564" y2="147.8564"/><line style="stroke:#181818;stroke-width:0.5;" x1="16.5" x2="132.5" y1="155.8564" y2="155.8564"/></g><!--link CreateTaskController to GMN12--><g id="link_CreateTaskController_GMN12"><path d="M640.21,139.8564 C646.21,139.8564 649.83,139.8564 649.83,139.8564 C649.83,139.8564 660.36,139.8564 675.25,139.8564 " fill="none" id="CreateTaskController-GMN12" style="stroke:#181818;stroke-width:1.0;stroke-dasharray:7.0,7.0;"/></g><!--link Repositories to Repositories--><g id="link_Repositories_Repositories"><path codeLine="101" d="M1112.09,117.6064 C1132.49,120.1464 1147,127.5664 1147,139.8564 C1147,151.0864 1134.87,158.2564 1117.21,161.3464 " fill="none" id="Repositories-to-Repositories" style="stroke:#181818;stroke-width:1.0;"/><polygon fill="#181818" points="1112.09,162.1064,1121.576,164.7552,1117.0369,161.3794,1120.4127,156.8403,1112.09,162.1064" style="stroke:#181818;stroke-width:1.0;"/><text fill="#000000" font-family="sans-serif" font-size="13" lengthAdjust="spacing" textLength="49" x="1153" y="145.3516">instance</text></g><!--link ApplicationSession to ApplicationSession--><g id="link_ApplicationSession_ApplicationSession"><path codeLine="102" d="M221.16,329.9964 C241,330.8764 256,335.8364 256,344.8564 C256,353.1064 243.47,357.9464 226.16,359.3964 " fill="none" id="ApplicationSession-to-ApplicationSession" style="stroke:#181818;stroke-width:1.0;"/><polygon fill="#181818" points="221.16,359.7164,230.3932,363.144,226.1502,359.4028,229.8913,355.1597,221.16,359.7164" style="stroke:#181818;stroke-width:1.0;"/><text fill="#000000" font-family="sans-serif" font-size="13" lengthAdjust="spacing" textLength="49" x="262" y="350.3516">instance</text></g><!--link CreateTaskUI to CreateTaskController--><g id="link_CreateTaskUI_CreateTaskController"><path codeLine="104" d="M133.69,139.8564 C144.47,139.8564 155.03,139.8564 163.71,139.8564 " fill="none" id="CreateTaskUI-to-CreateTaskController" style="stroke:#181818;stroke-width:1.0;stroke-dasharray:7.0,7.0;"/><polygon fill="#181818" points="168.86,139.8564,159.86,135.8564,163.86,139.8564,159.86,143.8564,168.86,139.8564" style="stroke:#181818;stroke-width:1.0;"/></g><!--link CreateTaskController to Repositories--><g id="link_CreateTaskController_Repositories"><path codeLine="106" d="M640.19,59.6464 C695.16,40.9364 738,26.3564 738,26.3564 C738,26.3564 807,26.3564 807,26.3564 C807,26.3564 887.5,54.3564 887.5,54.3564 C887.5,54.3564 901.75,64.4264 920.47,77.6564 " fill="none" id="CreateTaskController-to-Repositories" style="stroke:#181818;stroke-width:1.0;stroke-dasharray:7.0,7.0;"/><polygon fill="#181818" points="924.79,80.7064,919.7603,72.2387,920.7107,77.8152,915.1343,78.7656,924.79,80.7064" style="stroke:#181818;stroke-width:1.0;"/><text fill="#000000" font-family="sans-serif" font-size="13" lengthAdjust="spacing" textLength="67" x="739" y="20.8516">repositories</text></g><!--link Repositories to TaskCategoryRepository--><g id="link_Repositories_TaskCategoryRepository"><path codeLine="108" d="M989.64,198.9764 C978.09,234.5764 965.5,273.3564 965.5,273.3564 C965.5,273.3564 729.5,303.3564 729.5,303.3564 C729.5,303.3564 716.56,306.3464 697.73,310.7064 " fill="none" id="Repositories-to-TaskCategoryRepository" style="stroke:#181818;stroke-width:1.0;"/><polygon fill="#181818" points="692.81,311.8464,702.4806,313.712,697.681,310.718,700.675,305.9184,692.81,311.8464" style="stroke:#181818;stroke-width:1.0;"/><text fill="#000000" font-family="sans-serif" font-size="13" lengthAdjust="spacing" textLength="7" x="709.823" y="302.1028">1</text></g><!--link CreateTaskController to TaskCategory--><g id="link_CreateTaskController_TaskCategory"><path codeLine="110" d="M383.24,225.4764 C369.25,281.1764 353.5,343.8564 353.5,343.8564 C353.5,343.8564 353.5,343.8564 353.5,905.3564 C353.5,905.3564 394.46,1028.7464 417.39,1097.8364 " fill="none" id="CreateTaskController-to-TaskCategory" style="stroke:#181818;stroke-width:1.0;stroke-dasharray:7.0,7.0;"/><polygon fill="#181818" points="419.01,1102.7164,419.9764,1092.9151,417.4374,1097.9702,412.3824,1095.4312,419.01,1102.7164" style="stroke:#181818;stroke-width:1.0;"/></g><!--link CreateTaskController to OrganizationRepository--><g id="link_CreateTaskController_OrganizationRepository"><path codeLine="111" d="M640.11,219.5464 C651.01,223.1864 657.5,225.3564 657.5,225.3564 C657.5,225.3564 791.5,255.3564 791.5,255.3564 C791.5,255.3564 866.93,284.8964 930.64,309.8364 " fill="none" id="CreateTaskController-to-OrganizationRepository" style="stroke:#181818;stroke-width:1.0;stroke-dasharray:7.0,7.0;"/><polygon fill="#181818" points="935.59,311.7764,928.6559,304.7823,930.9311,309.9615,925.7519,312.2366,935.59,311.7764" style="stroke:#181818;stroke-width:1.0;"/><text fill="#000000" font-family="sans-serif" font-size="13" lengthAdjust="spacing" textLength="132" x="836.5" y="269.8516">organizationRepository</text></g><!--link CreateTaskController to TaskCategoryRepository--><g id="link_CreateTaskController_TaskCategoryRepository"><path codeLine="112" d="M467.03,225.4764 C488.22,254.1564 510.77,284.6764 527.67,307.5464 " fill="none" id="CreateTaskController-to-TaskCategoryRepository" style="stroke:#181818;stroke-width:1.0;stroke-dasharray:7.0,7.0;"/><polygon fill="#181818" points="530.76,311.7264,528.6368,302.1092,527.7921,307.7026,522.1986,306.8579,530.76,311.7264" style="stroke:#181818;stroke-width:1.0;"/><text fill="#000000" font-family="sans-serif" font-size="13" lengthAdjust="spacing" textLength="142" x="503.5" y="269.8516">TaskCategoryRepository</text></g><!--link Repositories to OrganizationRepository--><g id="link_Repositories_OrganizationRepository"><path codeLine="114" d="M1011.08,199.0264 C1012.62,233.6964 1014.52,276.6564 1015.86,306.7564 " fill="none" id="Repositories-to-OrganizationRepository" style="stroke:#181818;stroke-width:1.0;"/><polygon fill="#181818" points="1016.08,311.8464,1019.691,302.6834,1015.8659,306.851,1011.6983,303.026,1016.08,311.8464" style="stroke:#181818;stroke-width:1.0;"/><text fill="#000000" font-family="sans-serif" font-size="13" lengthAdjust="spacing" textLength="7" x="1008.0653" y="300.9598">1</text></g><!--link OrganizationRepository to Organization--><g id="link_OrganizationRepository_Organization"><path codeLine="116" d="M1005.18,377.8964 C996.96,399.2664 985.54,428.9564 973.81,459.4564 " fill="none" id="OrganizationRepository-to-Organization" style="stroke:#181818;stroke-width:1.0;"/><polygon fill="#181818" points="971.92,464.3564,978.8956,457.4037,973.7226,459.6927,971.4336,454.5196,971.92,464.3564" style="stroke:#181818;stroke-width:1.0;"/><text fill="#000000" font-family="sans-serif" font-size="13" lengthAdjust="spacing" textLength="5" x="969.7792" y="453.4738">*</text></g><!--link ApplicationSession to UserSession--><g id="link_ApplicationSession_UserSession"><path codeLine="117" d="M132.05,386.3664 C116.44,433.3764 90.93,510.2464 75.82,555.7564 " fill="none" id="ApplicationSession-to-UserSession" style="stroke:#181818;stroke-width:1.0;"/><polygon fill="#181818" points="74.21,560.5964,80.8311,553.3053,75.7783,555.8488,73.2348,550.796,74.21,560.5964" style="stroke:#181818;stroke-width:1.0;"/><text fill="#000000" font-family="sans-serif" font-size="13" lengthAdjust="spacing" textLength="72" x="122.5" y="430.8516">userSession</text><text fill="#000000" font-family="sans-serif" font-size="13" lengthAdjust="spacing" textLength="7" x="68.6295" y="550.0416">1</text></g><!--link CreateTaskController to Organization--><g id="link_CreateTaskController_Organization"><path codeLine="119" d="M589.14,225.4264 C626.45,242.5064 654.5,255.3564 654.5,255.3564 C654.5,255.3564 719.5,303.3564 719.5,303.3564 C719.5,303.3564 775.8,383.6464 829.1,459.6564 " fill="none" id="CreateTaskController-to-Organization" style="stroke:#181818;stroke-width:1.0;stroke-dasharray:7.0,7.0;"/><polygon fill="#181818" points="832.28,464.1964,830.3776,454.5331,829.405,460.1057,823.8324,459.133,832.28,464.1964" style="stroke:#181818;stroke-width:1.0;"/><text fill="#000000" font-family="sans-serif" font-size="13" lengthAdjust="spacing" textLength="70" x="776.5" y="350.3516">organization</text><text fill="#000000" font-family="sans-serif" font-size="13" lengthAdjust="spacing" textLength="7" x="819.5689" y="453.3041">1</text></g><!--link CreateTaskController to ApplicationSession--><g id="link_CreateTaskController_ApplicationSession"><path codeLine="120" d="M296.54,225.4764 C263.86,251.0864 229.3,278.1764 201.5,299.9664 " fill="none" id="CreateTaskController-to-ApplicationSession" style="stroke:#181818;stroke-width:1.0;stroke-dasharray:7.0,7.0;"/><polygon fill="#181818" points="197.45,303.1464,207.0028,300.7497,201.3875,300.0649,202.0723,294.4497,197.45,303.1464" style="stroke:#181818;stroke-width:1.0;"/></g><!--link CreateTaskController to UserSession--><g id="link_CreateTaskController_UserSession"><path codeLine="121" d="M221.28,225.4364 C135.75,264.9264 52.5,303.3564 52.5,303.3564 C52.5,303.3564 52.5,386.3564 52.5,386.3564 C52.5,386.3564 58.33,495.8064 61.5,555.3364 " fill="none" id="CreateTaskController-to-UserSession" style="stroke:#181818;stroke-width:1.0;stroke-dasharray:7.0,7.0;"/><polygon fill="#181818" points="61.78,560.5864,65.3111,551.3924,61.5225,555.5931,57.3217,551.8044,61.78,560.5864" style="stroke:#181818;stroke-width:1.0;"/></g><!--link Task to TaskCategory--><g id="link_Task_TaskCategory"><path codeLine="122" d="M594.41,1007.6664 C556.14,1039.7464 515.9,1073.4664 485.11,1099.2664 " fill="none" id="Task-to-TaskCategory" style="stroke:#181818;stroke-width:1.0;"/><polygon fill="#181818" points="481.02,1102.6964,490.4848,1099.973,484.8494,1099.4815,485.3409,1093.846,481.02,1102.6964" style="stroke:#181818;stroke-width:1.0;"/><text fill="#000000" font-family="sans-serif" font-size="13" lengthAdjust="spacing" textLength="77" x="558.5" y="1051.8516">taskCategory</text><text fill="#000000" font-family="sans-serif" font-size="13" lengthAdjust="spacing" textLength="5" x="580.2604" y="1029.331">*</text><text fill="#000000" font-family="sans-serif" font-size="13" lengthAdjust="spacing" textLength="7" x="481.4764" y="1091.9776">1</text></g><!--link TaskCategoryRepository to TaskCategory--><g id="link_TaskCategoryRepository_TaskCategory"><path codeLine="123" d="M531.23,377.9264 C505.76,413.0164 468.5,464.3564 468.5,464.3564 C468.5,464.3564 443.03,944.7164 434.94,1097.3764 " fill="none" id="TaskCategoryRepository-to-TaskCategory" style="stroke:#181818;stroke-width:1.0;"/><polygon fill="#181818" points="434.66,1102.6664,439.142,1093.8965,434.931,1097.6738,431.1537,1093.4629,434.66,1102.6664" style="stroke:#181818;stroke-width:1.0;"/><text fill="#000000" font-family="sans-serif" font-size="13" lengthAdjust="spacing" textLength="77" x="454.5" y="767.8516">taskCategory</text><text fill="#000000" font-family="sans-serif" font-size="13" lengthAdjust="spacing" textLength="7" x="519.2943" y="399.0623">1</text><text fill="#000000" font-family="sans-serif" font-size="13" lengthAdjust="spacing" textLength="5" x="429.6037" y="1091.9427">*</text></g><!--link Organization to Task--><g id="link_Organization_Task"><path codeLine="124" d="M836.63,723.4564 C820.31,747.8864 803.41,773.2064 787.61,796.8664 " fill="none" id="Organization-to-Task" style="stroke:#181818;stroke-width:1.0;"/><polygon fill="#181818" points="784.67,801.2664,792.9905,795.9968,787.4435,797.1062,786.3341,791.5592,784.67,801.2664" style="stroke:#181818;stroke-width:1.0;"/><text fill="#000000" font-family="sans-serif" font-size="13" lengthAdjust="spacing" textLength="32" x="814.5" y="767.8516">tasks</text><text fill="#000000" font-family="sans-serif" font-size="13" lengthAdjust="spacing" textLength="7" x="824.184" y="745.3378">1</text><text fill="#000000" font-family="sans-serif" font-size="13" lengthAdjust="spacing" textLength="5" x="784.4926" y="790.5985">*</text></g><!--link Task to Employee--><g id="link_Task_Employee"><path codeLine="125" d="M773.68,1007.6664 C787.54,1032.4764 801.95,1058.2664 814.44,1080.6164 " fill="none" id="Task-to-Employee" style="stroke:#181818;stroke-width:1.0;"/><polygon fill="#181818" points="816.91,1085.0364,816.0358,1075.2265,814.4818,1080.6657,809.0426,1079.1116,816.91,1085.0364" style="stroke:#181818;stroke-width:1.0;"/><text fill="#000000" font-family="sans-serif" font-size="13" lengthAdjust="spacing" textLength="59" x="800.5" y="1051.8516">createdBy</text></g><!--link Organization to Employee--><g id="link_Organization_Employee"><path codeLine="127" d="M907.42,723.4364 C891.45,859.6864 868.5,1055.3564 868.5,1055.3564 C868.5,1055.3564 866.2,1066.0064 863.2,1079.8964 " fill="none" id="Organization-to-Employee" style="stroke:#181818;stroke-width:1.0;"/><polygon fill="#181818" points="862.07,1085.1464,867.8606,1077.1797,863.1137,1080.2566,860.0369,1075.5097,862.07,1085.1464" style="stroke:#181818;stroke-width:1.0;"/><text fill="#000000" font-family="sans-serif" font-size="13" lengthAdjust="spacing" textLength="49" x="898.5" y="909.8516">employs</text><text fill="#000000" font-family="sans-serif" font-size="13" lengthAdjust="spacing" textLength="5" x="858.2973" y="1074.4451">*</text></g><!--SRC=[jLPBJzmm4BxxLrXSM4f0xPK34WjKvT9AtNBhnPlCxbeuTcHxGQ7gV-yuSP9nS12Nxc4Lp-FpDm-FVUgUf6w45JMlZJRbmPeQkBT7O9Ec4UMJsCF6jmguXT8BlLVKm1r4PLwatlETK8vgbDJWsmPuOrGR5kmqepJM6qQyIYMSk_7UoktHmqDfz4Q-0l_CsAc2dUVUS2lt1yyh6UX8endhVFXDqoXPYY3QW7D1yuTn_9rpvr5SyZtu1utVkeJLMLIXxFPeBMWVdL3pTu1yT63dMEWGnFUra8hQtjUDCYq0xmqlk1Orn4y8nl6xCKvsjEFoO30p8yeluPv6X0rc0HDhOGT8i8HKN84hhMm8LbH8lJEs5kfkoS13UT2Ogep5W_Qm1ykhenL4V6UEMso0qZZFOXu2qzL8hQ1qYjywmw78xeksmrv5Xu__5eI7QjsY1svoYukziUrPcgL1FCyMJGkXEfYlY9uW_h1xeULhnsEEI0eP9S_2Vp_MMx2f-0MsMDkPRL_WHDItGvI9gkfI6K8zYx9deMI5X6UASovqE_JPD-7w7kpG1WCQnoeGBoQoHI2uGO95JwheYHIX9RrGDrLbiTSBNWkDHzuEa7qvtYjtqd6aiDbwytcvQOtlQ77wNE1v6q9Ujqd4x1JfEV5CqvHjaP_G7RgfMRfJJ2tMTESFj4WUaLginq8bd4Uq4K626nkE2kc4cgOMlqgCyj5Cx2X8dZyTORTZfM-DzjOeXPDWY2-dN9aiPbhJINwMfKjZ9Rrs78PimV_Fb7ctvPQRu-Fj-XKlrEHIqSP3lBtCBflG23B6pgNZPki5tfPLfziX9lS7w4ouYtTJxvM9gDCWXWMSFF0CLG_WGE7TYIiSCeA1hdYW5WbkZVTeWmppFJLnH3I3LuLqZH8j3hPE4yWDJF2QnmjZmf-tsUC3jXSc9ZaC5zVfuRZ2yTAtFtjxnGVhZ9Jui6Ixo-jytbcszo_VKB7qyBtXVVBbP2bf2nlW3jHXsMfX-bpn_17ys7O9q1BnDCWOPPuEOmiqExTFgLkscX6UFBoGsP4ymvO3czEQvMRPCVDmNBIbByBkhHQYkiYK7dUdau8jf3su3Sbvppq9REuKZLtFA6Z6n-ZLz9fAYpC245FeFXtx1m00]--></g></svg>