<?xml version="1.0" encoding="UTF-8" standalone="no"?><svg xmlns="http://www.w3.org/2000/svg" xmlns:xlink="http://www.w3.org/1999/xlink" contentStyleType="text/css" height="491px" preserveAspectRatio="none" style="width:582px;height:491px;background:#FFFFFF;" version="1.1" viewBox="0 0 582 491" width="582px" zoomAndPan="magnify"><defs/><g><rect fill="#FFFFFF" height="299.1641" style="stroke:#181818;stroke-width:1.0;" width="10" x="265" y="120.2734"/><rect fill="#FFFFFF" height="128.0547" style="stroke:#181818;stroke-width:1.0;" width="10" x="270" y="247.0313"/><rect fill="#FFFFFF" height="41.3516" style="stroke:#181818;stroke-width:1.0;" width="10" x="275" y="290.3828"/><rect fill="none" height="254.8125" style="stroke:#000000;stroke-width:1.5;" width="347.5" x="228.5" y="135.2734"/><line style="stroke:#181818;stroke-width:0.5;stroke-dasharray:5.0,5.0;" x1="269.5" x2="269.5" y1="55.2188" y2="437.4375"/><line style="stroke:#181818;stroke-width:0.5;stroke-dasharray:5.0,5.0;" x1="533" x2="533" y1="195.1523" y2="437.4375"/><rect fill="#E3E3E3" height="49.2188" rx="2.5" ry="2.5" style="stroke:#181818;stroke-width:0.5;" width="63" x="238.5" y="5"/><text fill="#000000" font-family="sans-serif" font-size="14" lengthAdjust="spacing" textLength="44" x="248" y="26.5332">person</text><text fill="#000000" font-family="sans-serif" font-size="14" lengthAdjust="spacing" textLength="49" x="245.5" y="44.1426">:Person</text><rect fill="#E3E3E3" height="49.2188" rx="2.5" ry="2.5" style="stroke:#181818;stroke-width:0.5;" width="63" x="238.5" y="436.4375"/><text fill="#000000" font-family="sans-serif" font-size="14" lengthAdjust="spacing" textLength="44" x="248" y="457.9707">person</text><text fill="#000000" font-family="sans-serif" font-size="14" lengthAdjust="spacing" textLength="49" x="245.5" y="475.5801">:Person</text><rect fill="#E3E3E3" height="49.2188" rx="2.5" ry="2.5" style="stroke:#181818;stroke-width:0.5;" width="65" x="501" y="436.4375"/><text fill="#000000" font-family="sans-serif" font-size="14" lengthAdjust="spacing" textLength="46" x="510.5" y="457.9707">agency</text><text fill="#000000" font-family="sans-serif" font-size="14" lengthAdjust="spacing" textLength="51" x="508" y="475.5801">:Agency</text><rect fill="#FFFFFF" height="299.1641" style="stroke:#181818;stroke-width:1.0;" width="10" x="265" y="120.2734"/><rect fill="#FFFFFF" height="128.0547" style="stroke:#181818;stroke-width:1.0;" width="10" x="270" y="247.0313"/><rect fill="#FFFFFF" height="41.3516" style="stroke:#181818;stroke-width:1.0;" width="10" x="275" y="290.3828"/><polygon fill="#181818" points="253,116.2734,263,120.2734,253,124.2734,257,120.2734" style="stroke:#181818;stroke-width:1.0;"/><line style="stroke:#181818;stroke-width:1.0;" x1="0" x2="259" y1="120.2734" y2="120.2734"/><text fill="#000000" font-family="sans-serif" font-size="13" font-weight="bold" lengthAdjust="spacing" textLength="14" x="7" y="99.0654">16</text><text fill="#000000" font-family="sans-serif" font-size="13" lengthAdjust="spacing" textLength="224" x="25" y="82.7139">registerEmployee(name, passport card</text><text fill="#000000" font-family="sans-serif" font-size="13" lengthAdjust="spacing" textLength="173" x="25" y="99.0654">number, tax number, location,</text><text fill="#000000" font-family="sans-serif" font-size="13" lengthAdjust="spacing" textLength="125" x="29" y="115.417">email, phone number)</text><path d="M228.5,135.2734 L392.5,135.2734 L392.5,143.625 L382.5,153.625 L228.5,153.625 L228.5,135.2734 " fill="#EEEEEE" style="stroke:#000000;stroke-width:1.5;"/><rect fill="none" height="254.8125" style="stroke:#000000;stroke-width:1.5;" width="347.5" x="228.5" y="135.2734"/><text fill="#000000" font-family="sans-serif" font-size="13" font-weight="bold" lengthAdjust="spacing" textLength="119" x="243.5" y="149.7686">Register Employee</text><polygon fill="#181818" points="489,204.6797,499,208.6797,489,212.6797,493,208.6797" style="stroke:#181818;stroke-width:1.0;"/><line style="stroke:#181818;stroke-width:1.0;" x1="275" x2="495" y1="208.6797" y2="208.6797"/><text fill="#000000" font-family="sans-serif" font-size="13" font-weight="bold" lengthAdjust="spacing" textLength="25" x="282" y="187.4717">16.1</text><text fill="#000000" font-family="sans-serif" font-size="13" lengthAdjust="spacing" textLength="166" x="311" y="171.1201">register(name, passport card</text><text fill="#000000" font-family="sans-serif" font-size="13" lengthAdjust="spacing" textLength="173" x="311" y="187.4717">number, tax number, location,</text><text fill="#000000" font-family="sans-serif" font-size="13" lengthAdjust="spacing" textLength="125" x="315" y="203.8232">email, phone number)</text><rect fill="#E3E3E3" height="49.2188" rx="2.5" ry="2.5" style="stroke:#181818;stroke-width:0.5;" width="65" x="501" y="156.4609"/><text fill="#000000" font-family="sans-serif" font-size="14" lengthAdjust="spacing" textLength="46" x="510.5" y="177.9941">agency</text><text fill="#000000" font-family="sans-serif" font-size="14" lengthAdjust="spacing" textLength="51" x="508" y="195.6035">:Agency</text><line style="stroke:#181818;stroke-width:1.0;" x1="275" x2="322" y1="234.0313" y2="234.0313"/><line style="stroke:#181818;stroke-width:1.0;" x1="322" x2="322" y1="234.0313" y2="247.0313"/><line style="stroke:#181818;stroke-width:1.0;" x1="281" x2="322" y1="247.0313" y2="247.0313"/><polygon fill="#181818" points="291,243.0313,281,247.0313,291,251.0313,287,247.0313" style="stroke:#181818;stroke-width:1.0;"/><text fill="#000000" font-family="sans-serif" font-size="13" font-weight="bold" lengthAdjust="spacing" textLength="25" x="287" y="229.1748">16.2</text><text fill="#000000" font-family="sans-serif" font-size="13" lengthAdjust="spacing" textLength="147" x="316" y="229.1748">addEmployee (employee)</text><line style="stroke:#181818;stroke-width:1.0;" x1="280" x2="327" y1="277.3828" y2="277.3828"/><line style="stroke:#181818;stroke-width:1.0;" x1="327" x2="327" y1="277.3828" y2="290.3828"/><line style="stroke:#181818;stroke-width:1.0;" x1="286" x2="327" y1="290.3828" y2="290.3828"/><polygon fill="#181818" points="296,286.3828,286,290.3828,296,294.3828,292,290.3828" style="stroke:#181818;stroke-width:1.0;"/><text fill="#000000" font-family="sans-serif" font-size="13" font-weight="bold" lengthAdjust="spacing" textLength="25" x="292" y="272.5264">16.3</text><text fill="#000000" font-family="sans-serif" font-size="13" lengthAdjust="spacing" textLength="165" x="321" y="272.5264">validateEmployee(employee)</text><line style="stroke:#181818;stroke-width:1.0;stroke-dasharray:2.0,2.0;" x1="285" x2="327" y1="330.7344" y2="330.7344"/><line style="stroke:#181818;stroke-width:1.0;stroke-dasharray:2.0,2.0;" x1="327" x2="327" y1="330.7344" y2="343.7344"/><line style="stroke:#181818;stroke-width:1.0;stroke-dasharray:2.0,2.0;" x1="280" x2="327" y1="343.7344" y2="343.7344"/><polygon fill="#181818" points="290,339.7344,280,343.7344,290,347.7344,286,343.7344" style="stroke:#181818;stroke-width:1.0;"/><text fill="#000000" font-family="sans-serif" font-size="13" font-weight="bold" lengthAdjust="spacing" textLength="25" x="292" y="325.8779">16.4</text><text fill="#000000" font-family="sans-serif" font-size="13" lengthAdjust="spacing" textLength="4" x="321" y="325.8779"> </text><line style="stroke:#181818;stroke-width:1.0;stroke-dasharray:2.0,2.0;" x1="280" x2="322" y1="374.0859" y2="374.0859"/><line style="stroke:#181818;stroke-width:1.0;stroke-dasharray:2.0,2.0;" x1="322" x2="322" y1="374.0859" y2="387.0859"/><line style="stroke:#181818;stroke-width:1.0;stroke-dasharray:2.0,2.0;" x1="275" x2="322" y1="387.0859" y2="387.0859"/><polygon fill="#181818" points="285,383.0859,275,387.0859,285,391.0859,281,387.0859" style="stroke:#181818;stroke-width:1.0;"/><text fill="#000000" font-family="sans-serif" font-size="13" font-weight="bold" lengthAdjust="spacing" textLength="25" x="287" y="369.2295">16.5</text><text fill="#000000" font-family="sans-serif" font-size="13" lengthAdjust="spacing" textLength="4" x="316" y="369.2295"> </text><polygon fill="#181818" points="11,415.4375,1,419.4375,11,423.4375,7,419.4375" style="stroke:#181818;stroke-width:1.0;"/><line style="stroke:#181818;stroke-width:1.0;stroke-dasharray:2.0,2.0;" x1="5" x2="269" y1="419.4375" y2="419.4375"/><text fill="#000000" font-family="sans-serif" font-size="13" font-weight="bold" lengthAdjust="spacing" textLength="14" x="17" y="414.5811">17</text><text fill="#000000" font-family="sans-serif" font-size="13" lengthAdjust="spacing" textLength="43" x="35" y="414.5811">register</text><!--SRC=[hP5DQm8n48Rl-HM39nKjU6b1Ia6Az6P5JmKlqsIw1fF9acHj_VUD- -6k7oqzDATXvdtVUPA4dUOSFLgmZftSUcS9eYz8XDCaHxd3ZDRnO0WyoOYScQuWR56vJyqPVA0994HgHorrZXoXbvCFZZSyNPP53p30ShvQloxETMa5oqFIpSgYrCrUveldDo6mY8uB-quU9lTY_5G7J1DEfaCaFxUvSGUYFgEbKK8E8NS-WaIlOCELTmGHlw2fZPCOjUFHXe4iQfDiMyTK2mONM-yc0cNKUupKu4CwcNT53giQ0neEKGwFfz92OgukCnosrFz9UxslUIDKgi62FjNLe2MyTQsVq_Pej4hgquktYLtZRw7Tu5FocKBHfL_ypNnjF7Q9LHNG_T67ilCu7ZTnxR-86_k_0G00]--></g></svg>