<?xml version="1.0" encoding="UTF-8" standalone="no"?><svg xmlns="http://www.w3.org/2000/svg" xmlns:xlink="http://www.w3.org/1999/xlink" contentStyleType="text/css" height="883px" preserveAspectRatio="none" style="width:1288px;height:883px;background:#FFFFFF;" version="1.1" viewBox="0 0 1288 883" width="1288px" zoomAndPan="magnify"><defs/><g><!--class Employee--><g id="elem_Employee"><rect codeLine="12" fill="#F1F1F1" height="118.4375" id="Employee" rx="2.5" ry="2.5" style="stroke:#181818;stroke-width:0.5;" width="94" x="352.5" y="758"/><ellipse cx="367.5" cy="774" fill="#ADD1B2" rx="11" ry="11" style="stroke:#181818;stroke-width:1.0;"/><path d="M370.2656,769.875 Q370.4219,769.6563 370.6094,769.5469 Q370.7969,769.4375 371.0156,769.4375 Q371.3906,769.4375 371.625,769.7031 Q371.8594,769.9531 371.8594,770.5625 L371.8594,772.0156 Q371.8594,772.625 371.625,772.8906 Q371.3906,773.1563 371.0156,773.1563 Q370.6719,773.1563 370.4688,772.9531 Q370.2656,772.7656 370.1563,772.25 Q370.1094,771.8906 369.9219,771.7031 Q369.5938,771.3281 368.9844,771.1094 Q368.375,770.8906 367.75,770.8906 Q366.9844,770.8906 366.3438,771.2188 Q365.7188,771.5469 365.2188,772.2969 Q364.7344,773.0469 364.7344,774.0781 L364.7344,775.1719 Q364.7344,776.4063 365.625,777.2344 Q366.5156,778.0469 368.1094,778.0469 Q369.0469,778.0469 369.7031,777.7969 Q370.0938,777.6406 370.5156,777.2031 Q370.7813,776.9375 370.9219,776.8594 Q371.0781,776.7813 371.2813,776.7813 Q371.6094,776.7813 371.8594,777.0469 Q372.125,777.2969 372.125,777.6406 Q372.125,777.9844 371.7813,778.3906 Q371.2813,778.9688 370.4844,779.2969 Q369.4063,779.75 368.1094,779.75 Q366.5938,779.75 365.3906,779.125 Q364.4063,778.625 363.7188,777.5625 Q363.0313,776.4844 363.0313,775.2031 L363.0313,774.0469 Q363.0313,772.7188 363.6406,771.5781 Q364.2656,770.4219 365.3594,769.8125 Q366.4531,769.1875 367.6875,769.1875 Q368.4219,769.1875 369.0625,769.3594 Q369.7188,769.5156 370.2656,769.875 Z " fill="#000000"/><text fill="#000000" font-family="sans-serif" font-size="14" lengthAdjust="spacing" textLength="62" x="381.5" y="779.7285">Employee</text><line style="stroke:#181818;stroke-width:0.5;" x1="353.5" x2="445.5" y1="790" y2="790"/><text fill="#000000" font-family="sans-serif" font-size="14" lengthAdjust="spacing" textLength="40" x="358.5" y="808.5332">-name</text><text fill="#000000" font-family="sans-serif" font-size="14" lengthAdjust="spacing" textLength="38" x="358.5" y="826.1426">-email</text><text fill="#000000" font-family="sans-serif" font-size="14" lengthAdjust="spacing" textLength="29" x="358.5" y="843.752">-role</text><text fill="#000000" font-family="sans-serif" font-size="14" lengthAdjust="spacing" textLength="45" x="358.5" y="861.3613">-phone</text><line style="stroke:#181818;stroke-width:0.5;" x1="353.5" x2="445.5" y1="868.4375" y2="868.4375"/></g><!--class Person--><g id="elem_Person"><rect codeLine="19" fill="#F1F1F1" height="188.875" id="Person" rx="2.5" ry="2.5" style="stroke:#181818;stroke-width:0.5;" width="317" x="12" y="491"/><ellipse cx="143.75" cy="507" fill="#ADD1B2" rx="11" ry="11" style="stroke:#181818;stroke-width:1.0;"/><path d="M146.5156,502.875 Q146.6719,502.6563 146.8594,502.5469 Q147.0469,502.4375 147.2656,502.4375 Q147.6406,502.4375 147.875,502.7031 Q148.1094,502.9531 148.1094,503.5625 L148.1094,505.0156 Q148.1094,505.625 147.875,505.8906 Q147.6406,506.1563 147.2656,506.1563 Q146.9219,506.1563 146.7188,505.9531 Q146.5156,505.7656 146.4063,505.25 Q146.3594,504.8906 146.1719,504.7031 Q145.8438,504.3281 145.2344,504.1094 Q144.625,503.8906 144,503.8906 Q143.2344,503.8906 142.5938,504.2188 Q141.9688,504.5469 141.4688,505.2969 Q140.9844,506.0469 140.9844,507.0781 L140.9844,508.1719 Q140.9844,509.4063 141.875,510.2344 Q142.7656,511.0469 144.3594,511.0469 Q145.2969,511.0469 145.9531,510.7969 Q146.3438,510.6406 146.7656,510.2031 Q147.0313,509.9375 147.1719,509.8594 Q147.3281,509.7813 147.5313,509.7813 Q147.8594,509.7813 148.1094,510.0469 Q148.375,510.2969 148.375,510.6406 Q148.375,510.9844 148.0313,511.3906 Q147.5313,511.9688 146.7344,512.2969 Q145.6563,512.75 144.3594,512.75 Q142.8438,512.75 141.6406,512.125 Q140.6563,511.625 139.9688,510.5625 Q139.2813,509.4844 139.2813,508.2031 L139.2813,507.0469 Q139.2813,505.7188 139.8906,504.5781 Q140.5156,503.4219 141.6094,502.8125 Q142.7031,502.1875 143.9375,502.1875 Q144.6719,502.1875 145.3125,502.3594 Q145.9688,502.5156 146.5156,502.875 Z " fill="#000000"/><text fill="#000000" font-family="sans-serif" font-size="14" lengthAdjust="spacing" textLength="45" x="164.25" y="512.7285">Person</text><line style="stroke:#181818;stroke-width:0.5;" x1="13" x2="328" y1="523" y2="523"/><text fill="#000000" font-family="sans-serif" font-size="14" lengthAdjust="spacing" textLength="140" x="18" y="541.5332">-passportCardNumber</text><text fill="#000000" font-family="sans-serif" font-size="14" lengthAdjust="spacing" textLength="72" x="18" y="559.1426">-taxNumber</text><text fill="#000000" font-family="sans-serif" font-size="14" lengthAdjust="spacing" textLength="94" x="18" y="576.752">-phoneNumber</text><line style="stroke:#181818;stroke-width:0.5;" x1="13" x2="328" y1="583.8281" y2="583.8281"/><text fill="#000000" font-family="sans-serif" font-size="14" lengthAdjust="spacing" textLength="162" x="18" y="602.3613">-addEmployee(employee)</text><text fill="#000000" font-family="sans-serif" font-size="14" lengthAdjust="spacing" textLength="187" x="18" y="619.9707">-validateEmployee(employee)</text><text fill="#000000" font-family="sans-serif" font-size="14" lengthAdjust="spacing" textLength="296" x="18" y="637.5801">+Role(Agent, StoreManager, NetworkManager)</text><text fill="#000000" font-family="sans-serif" font-size="14" lengthAdjust="spacing" textLength="305" x="18" y="655.1895">+registerEmployee(name, passportCardNumber,</text><text fill="#000000" font-family="sans-serif" font-size="14" lengthAdjust="spacing" textLength="267" x="22" y="672.7988">taxNumber, location, email, phoneNumber)</text></g><!--class Agency--><g id="elem_Agency"><rect codeLine="33" fill="#F1F1F1" height="48" id="Agency" rx="2.5" ry="2.5" style="stroke:#181818;stroke-width:0.5;" width="79" x="486" y="561.5"/><ellipse cx="501" cy="577.5" fill="#ADD1B2" rx="11" ry="11" style="stroke:#181818;stroke-width:1.0;"/><path d="M503.7656,573.375 Q503.9219,573.1563 504.1094,573.0469 Q504.2969,572.9375 504.5156,572.9375 Q504.8906,572.9375 505.125,573.2031 Q505.3594,573.4531 505.3594,574.0625 L505.3594,575.5156 Q505.3594,576.125 505.125,576.3906 Q504.8906,576.6563 504.5156,576.6563 Q504.1719,576.6563 503.9688,576.4531 Q503.7656,576.2656 503.6563,575.75 Q503.6094,575.3906 503.4219,575.2031 Q503.0938,574.8281 502.4844,574.6094 Q501.875,574.3906 501.25,574.3906 Q500.4844,574.3906 499.8438,574.7188 Q499.2188,575.0469 498.7188,575.7969 Q498.2344,576.5469 498.2344,577.5781 L498.2344,578.6719 Q498.2344,579.9063 499.125,580.7344 Q500.0156,581.5469 501.6094,581.5469 Q502.5469,581.5469 503.2031,581.2969 Q503.5938,581.1406 504.0156,580.7031 Q504.2813,580.4375 504.4219,580.3594 Q504.5781,580.2813 504.7813,580.2813 Q505.1094,580.2813 505.3594,580.5469 Q505.625,580.7969 505.625,581.1406 Q505.625,581.4844 505.2813,581.8906 Q504.7813,582.4688 503.9844,582.7969 Q502.9063,583.25 501.6094,583.25 Q500.0938,583.25 498.8906,582.625 Q497.9063,582.125 497.2188,581.0625 Q496.5313,579.9844 496.5313,578.7031 L496.5313,577.5469 Q496.5313,576.2188 497.1406,575.0781 Q497.7656,573.9219 498.8594,573.3125 Q499.9531,572.6875 501.1875,572.6875 Q501.9219,572.6875 502.5625,572.8594 Q503.2188,573.0156 503.7656,573.375 Z " fill="#000000"/><text fill="#000000" font-family="sans-serif" font-size="14" lengthAdjust="spacing" textLength="47" x="515" y="583.2285">Agency</text><line style="stroke:#181818;stroke-width:0.5;" x1="487" x2="564" y1="593.5" y2="593.5"/><line style="stroke:#181818;stroke-width:0.5;" x1="487" x2="564" y1="601.5" y2="601.5"/></g><!--class Role--><g id="elem_Role"><rect codeLine="37" fill="#F1F1F1" height="100.8281" id="Role" rx="2.5" ry="2.5" style="stroke:#181818;stroke-width:0.5;" width="164" x="355.5" y="312"/><ellipse cx="418.75" cy="328" fill="#ADD1B2" rx="11" ry="11" style="stroke:#181818;stroke-width:1.0;"/><path d="M421.5156,323.875 Q421.6719,323.6563 421.8594,323.5469 Q422.0469,323.4375 422.2656,323.4375 Q422.6406,323.4375 422.875,323.7031 Q423.1094,323.9531 423.1094,324.5625 L423.1094,326.0156 Q423.1094,326.625 422.875,326.8906 Q422.6406,327.1563 422.2656,327.1563 Q421.9219,327.1563 421.7188,326.9531 Q421.5156,326.7656 421.4063,326.25 Q421.3594,325.8906 421.1719,325.7031 Q420.8438,325.3281 420.2344,325.1094 Q419.625,324.8906 419,324.8906 Q418.2344,324.8906 417.5938,325.2188 Q416.9688,325.5469 416.4688,326.2969 Q415.9844,327.0469 415.9844,328.0781 L415.9844,329.1719 Q415.9844,330.4063 416.875,331.2344 Q417.7656,332.0469 419.3594,332.0469 Q420.2969,332.0469 420.9531,331.7969 Q421.3438,331.6406 421.7656,331.2031 Q422.0313,330.9375 422.1719,330.8594 Q422.3281,330.7813 422.5313,330.7813 Q422.8594,330.7813 423.1094,331.0469 Q423.375,331.2969 423.375,331.6406 Q423.375,331.9844 423.0313,332.3906 Q422.5313,332.9688 421.7344,333.2969 Q420.6563,333.75 419.3594,333.75 Q417.8438,333.75 416.6406,333.125 Q415.6563,332.625 414.9688,331.5625 Q414.2813,330.4844 414.2813,329.2031 L414.2813,328.0469 Q414.2813,326.7188 414.8906,325.5781 Q415.5156,324.4219 416.6094,323.8125 Q417.7031,323.1875 418.9375,323.1875 Q419.6719,323.1875 420.3125,323.3594 Q420.9688,323.5156 421.5156,323.875 Z " fill="#000000"/><text fill="#000000" font-family="sans-serif" font-size="14" lengthAdjust="spacing" textLength="29" x="439.25" y="333.7285">Role</text><line style="stroke:#181818;stroke-width:0.5;" x1="356.5" x2="518.5" y1="344" y2="344"/><text fill="#000000" font-family="sans-serif" font-size="14" lengthAdjust="spacing" textLength="83" x="361.5" y="362.5332">-String Agent</text><text fill="#000000" font-family="sans-serif" font-size="14" lengthAdjust="spacing" textLength="136" x="361.5" y="380.1426">-String StoreManager</text><text fill="#000000" font-family="sans-serif" font-size="14" lengthAdjust="spacing" textLength="152" x="361.5" y="397.752">-String NetworkManager</text><line style="stroke:#181818;stroke-width:0.5;" x1="356.5" x2="518.5" y1="404.8281" y2="404.8281"/></g><!--class AgencyRepository--><g id="elem_AgencyRepository"><rect codeLine="43" fill="#F1F1F1" height="48" id="AgencyRepository" rx="2.5" ry="2.5" style="stroke:#181818;stroke-width:0.5;" width="147" x="725" y="203"/><ellipse cx="740" cy="219" fill="#ADD1B2" rx="11" ry="11" style="stroke:#181818;stroke-width:1.0;"/><path d="M742.7656,214.875 Q742.9219,214.6563 743.1094,214.5469 Q743.2969,214.4375 743.5156,214.4375 Q743.8906,214.4375 744.125,214.7031 Q744.3594,214.9531 744.3594,215.5625 L744.3594,217.0156 Q744.3594,217.625 744.125,217.8906 Q743.8906,218.1563 743.5156,218.1563 Q743.1719,218.1563 742.9688,217.9531 Q742.7656,217.7656 742.6563,217.25 Q742.6094,216.8906 742.4219,216.7031 Q742.0938,216.3281 741.4844,216.1094 Q740.875,215.8906 740.25,215.8906 Q739.4844,215.8906 738.8438,216.2188 Q738.2188,216.5469 737.7188,217.2969 Q737.2344,218.0469 737.2344,219.0781 L737.2344,220.1719 Q737.2344,221.4063 738.125,222.2344 Q739.0156,223.0469 740.6094,223.0469 Q741.5469,223.0469 742.2031,222.7969 Q742.5938,222.6406 743.0156,222.2031 Q743.2813,221.9375 743.4219,221.8594 Q743.5781,221.7813 743.7813,221.7813 Q744.1094,221.7813 744.3594,222.0469 Q744.625,222.2969 744.625,222.6406 Q744.625,222.9844 744.2813,223.3906 Q743.7813,223.9688 742.9844,224.2969 Q741.9063,224.75 740.6094,224.75 Q739.0938,224.75 737.8906,224.125 Q736.9063,223.625 736.2188,222.5625 Q735.5313,221.4844 735.5313,220.2031 L735.5313,219.0469 Q735.5313,217.7188 736.1406,216.5781 Q736.7656,215.4219 737.8594,214.8125 Q738.9531,214.1875 740.1875,214.1875 Q740.9219,214.1875 741.5625,214.3594 Q742.2188,214.5156 742.7656,214.875 Z " fill="#000000"/><text fill="#000000" font-family="sans-serif" font-size="14" lengthAdjust="spacing" textLength="115" x="754" y="224.7285">AgencyRepository</text><line style="stroke:#181818;stroke-width:0.5;" x1="726" x2="871" y1="235" y2="235"/><line style="stroke:#181818;stroke-width:0.5;" x1="726" x2="871" y1="243" y2="243"/></g><!--class RoleRepository--><g id="elem_RoleRepository"><rect codeLine="46" fill="#F1F1F1" height="48" id="RoleRepository" rx="2.5" ry="2.5" style="stroke:#181818;stroke-width:0.5;" width="129" x="507" y="203"/><ellipse cx="522" cy="219" fill="#ADD1B2" rx="11" ry="11" style="stroke:#181818;stroke-width:1.0;"/><path d="M524.7656,214.875 Q524.9219,214.6563 525.1094,214.5469 Q525.2969,214.4375 525.5156,214.4375 Q525.8906,214.4375 526.125,214.7031 Q526.3594,214.9531 526.3594,215.5625 L526.3594,217.0156 Q526.3594,217.625 526.125,217.8906 Q525.8906,218.1563 525.5156,218.1563 Q525.1719,218.1563 524.9688,217.9531 Q524.7656,217.7656 524.6563,217.25 Q524.6094,216.8906 524.4219,216.7031 Q524.0938,216.3281 523.4844,216.1094 Q522.875,215.8906 522.25,215.8906 Q521.4844,215.8906 520.8438,216.2188 Q520.2188,216.5469 519.7188,217.2969 Q519.2344,218.0469 519.2344,219.0781 L519.2344,220.1719 Q519.2344,221.4063 520.125,222.2344 Q521.0156,223.0469 522.6094,223.0469 Q523.5469,223.0469 524.2031,222.7969 Q524.5938,222.6406 525.0156,222.2031 Q525.2813,221.9375 525.4219,221.8594 Q525.5781,221.7813 525.7813,221.7813 Q526.1094,221.7813 526.3594,222.0469 Q526.625,222.2969 526.625,222.6406 Q526.625,222.9844 526.2813,223.3906 Q525.7813,223.9688 524.9844,224.2969 Q523.9063,224.75 522.6094,224.75 Q521.0938,224.75 519.8906,224.125 Q518.9063,223.625 518.2188,222.5625 Q517.5313,221.4844 517.5313,220.2031 L517.5313,219.0469 Q517.5313,217.7188 518.1406,216.5781 Q518.7656,215.4219 519.8594,214.8125 Q520.9531,214.1875 522.1875,214.1875 Q522.9219,214.1875 523.5625,214.3594 Q524.2188,214.5156 524.7656,214.875 Z " fill="#000000"/><text fill="#000000" font-family="sans-serif" font-size="14" lengthAdjust="spacing" textLength="97" x="536" y="224.7285">RoleRepository</text><line style="stroke:#181818;stroke-width:0.5;" x1="508" x2="635" y1="235" y2="235"/><line style="stroke:#181818;stroke-width:0.5;" x1="508" x2="635" y1="243" y2="243"/></g><!--class Repositories--><g id="elem_Repositories"><rect codeLine="50" fill="#F1F1F1" height="118.4375" id="Repositories" rx="2.5" ry="2.5" style="stroke:#181818;stroke-width:0.5;" width="194" x="725.5" y="7"/><ellipse cx="778.75" cy="23" fill="#ADD1B2" rx="11" ry="11" style="stroke:#181818;stroke-width:1.0;"/><path d="M781.5156,18.875 Q781.6719,18.6563 781.8594,18.5469 Q782.0469,18.4375 782.2656,18.4375 Q782.6406,18.4375 782.875,18.7031 Q783.1094,18.9531 783.1094,19.5625 L783.1094,21.0156 Q783.1094,21.625 782.875,21.8906 Q782.6406,22.1563 782.2656,22.1563 Q781.9219,22.1563 781.7188,21.9531 Q781.5156,21.7656 781.4063,21.25 Q781.3594,20.8906 781.1719,20.7031 Q780.8438,20.3281 780.2344,20.1094 Q779.625,19.8906 779,19.8906 Q778.2344,19.8906 777.5938,20.2188 Q776.9688,20.5469 776.4688,21.2969 Q775.9844,22.0469 775.9844,23.0781 L775.9844,24.1719 Q775.9844,25.4063 776.875,26.2344 Q777.7656,27.0469 779.3594,27.0469 Q780.2969,27.0469 780.9531,26.7969 Q781.3438,26.6406 781.7656,26.2031 Q782.0313,25.9375 782.1719,25.8594 Q782.3281,25.7813 782.5313,25.7813 Q782.8594,25.7813 783.1094,26.0469 Q783.375,26.2969 783.375,26.6406 Q783.375,26.9844 783.0313,27.3906 Q782.5313,27.9688 781.7344,28.2969 Q780.6563,28.75 779.3594,28.75 Q777.8438,28.75 776.6406,28.125 Q775.6563,27.625 774.9688,26.5625 Q774.2813,25.4844 774.2813,24.2031 L774.2813,23.0469 Q774.2813,21.7188 774.8906,20.5781 Q775.5156,19.4219 776.6094,18.8125 Q777.7031,18.1875 778.9375,18.1875 Q779.6719,18.1875 780.3125,18.3594 Q780.9688,18.5156 781.5156,18.875 Z " fill="#000000"/><text fill="#000000" font-family="sans-serif" font-size="14" lengthAdjust="spacing" textLength="79" x="799.25" y="28.7285">Repositories</text><line style="stroke:#181818;stroke-width:0.5;" x1="726.5" x2="918.5" y1="39" y2="39"/><line style="stroke:#181818;stroke-width:0.5;" x1="726.5" x2="918.5" y1="47" y2="47"/><text fill="#000000" font-family="sans-serif" font-size="14" lengthAdjust="spacing" textLength="94" x="731.5" y="65.5332">-Repositories()</text><text fill="#000000" font-family="sans-serif" font-size="14" lengthAdjust="spacing" textLength="182" x="731.5" y="83.1426">+getInstance() : Repositories</text><text fill="#000000" font-family="sans-serif" font-size="14" lengthAdjust="spacing" textLength="153" x="731.5" y="100.752">+getAgencyRepository()</text><text fill="#000000" font-family="sans-serif" font-size="14" lengthAdjust="spacing" textLength="135" x="731.5" y="118.3613">+getRoleRepository()</text></g><!--class RegisterEmployeeController--><g id="elem_RegisterEmployeeController"><rect codeLine="57" fill="#F1F1F1" height="100.8281" id="RegisterEmployeeController" rx="2.5" ry="2.5" style="stroke:#181818;stroke-width:0.5;" width="421" x="201" y="15.5"/><ellipse cx="318.75" cy="31.5" fill="#ADD1B2" rx="11" ry="11" style="stroke:#181818;stroke-width:1.0;"/><path d="M321.5156,27.375 Q321.6719,27.1563 321.8594,27.0469 Q322.0469,26.9375 322.2656,26.9375 Q322.6406,26.9375 322.875,27.2031 Q323.1094,27.4531 323.1094,28.0625 L323.1094,29.5156 Q323.1094,30.125 322.875,30.3906 Q322.6406,30.6563 322.2656,30.6563 Q321.9219,30.6563 321.7188,30.4531 Q321.5156,30.2656 321.4063,29.75 Q321.3594,29.3906 321.1719,29.2031 Q320.8438,28.8281 320.2344,28.6094 Q319.625,28.3906 319,28.3906 Q318.2344,28.3906 317.5938,28.7188 Q316.9688,29.0469 316.4688,29.7969 Q315.9844,30.5469 315.9844,31.5781 L315.9844,32.6719 Q315.9844,33.9063 316.875,34.7344 Q317.7656,35.5469 319.3594,35.5469 Q320.2969,35.5469 320.9531,35.2969 Q321.3438,35.1406 321.7656,34.7031 Q322.0313,34.4375 322.1719,34.3594 Q322.3281,34.2813 322.5313,34.2813 Q322.8594,34.2813 323.1094,34.5469 Q323.375,34.7969 323.375,35.1406 Q323.375,35.4844 323.0313,35.8906 Q322.5313,36.4688 321.7344,36.7969 Q320.6563,37.25 319.3594,37.25 Q317.8438,37.25 316.6406,36.625 Q315.6563,36.125 314.9688,35.0625 Q314.2813,33.9844 314.2813,32.7031 L314.2813,31.5469 Q314.2813,30.2188 314.8906,29.0781 Q315.5156,27.9219 316.6094,27.3125 Q317.7031,26.6875 318.9375,26.6875 Q319.6719,26.6875 320.3125,26.8594 Q320.9688,27.0156 321.5156,27.375 Z " fill="#000000"/><text fill="#000000" font-family="sans-serif" font-size="14" lengthAdjust="spacing" textLength="177" x="339.25" y="37.2285">RegisterEmployeeController</text><line style="stroke:#181818;stroke-width:0.5;" x1="202" x2="621" y1="47.5" y2="47.5"/><line style="stroke:#181818;stroke-width:0.5;" x1="202" x2="621" y1="55.5" y2="55.5"/><text fill="#000000" font-family="sans-serif" font-size="14" lengthAdjust="spacing" textLength="409" x="207" y="74.0332">+RegisterEmployeeController(roleRepository, agencyRepository)</text><text fill="#000000" font-family="sans-serif" font-size="14" lengthAdjust="spacing" textLength="85" x="207" y="91.6426">+getAgency()</text><text fill="#000000" font-family="sans-serif" font-size="14" lengthAdjust="spacing" textLength="67" x="207" y="109.252">+getRole()</text></g><g id="elem_GMN10"><path d="M842,341 L842,383.7031 A0,0 0 0 0 842,383.7031 L979,383.7031 A0,0 0 0 0 979,383.7031 L979,351 L969,341 L897.05,341 L818.01,251.25 L889.05,341 L842,341 A0,0 0 0 0 842,341 " fill="#FEFFDD" style="stroke:#181818;stroke-width:0.5;"/><path d="M969,341 L969,351 L979,351 L969,341 " fill="#FEFFDD" style="stroke:#181818;stroke-width:0.5;"/><text fill="#000000" font-family="sans-serif" font-size="13" lengthAdjust="spacing" textLength="116" x="848" y="359.4951">- used for displaying</text><text fill="#000000" font-family="sans-serif" font-size="13" lengthAdjust="spacing" textLength="85" x="848" y="375.8467">the agency list</text></g><g id="elem_GMN13"><path d="M555,341 L555,383.7031 A0,0 0 0 0 555,383.7031 L692,383.7031 A0,0 0 0 0 692,383.7031 L692,351 L682,341 L619.4,341 L580.56,251.25 L611.4,341 L555,341 A0,0 0 0 0 555,341 " fill="#FEFFDD" style="stroke:#181818;stroke-width:0.5;"/><path d="M682,341 L682,351 L692,351 L682,341 " fill="#FEFFDD" style="stroke:#181818;stroke-width:0.5;"/><text fill="#000000" font-family="sans-serif" font-size="13" lengthAdjust="spacing" textLength="116" x="561" y="359.4951">- used for displaying</text><text fill="#000000" font-family="sans-serif" font-size="13" lengthAdjust="spacing" textLength="64" x="561" y="375.8467">the role list</text></g><!--class RegisterEmployeeUI--><g id="elem_RegisterEmployeeUI"><rect codeLine="75" fill="#F1F1F1" height="48" id="RegisterEmployeeUI" rx="2.5" ry="2.5" style="stroke:#181818;stroke-width:0.5;" width="159" x="7" y="42"/><ellipse cx="22" cy="58" fill="#ADD1B2" rx="11" ry="11" style="stroke:#181818;stroke-width:1.0;"/><path d="M24.7656,53.875 Q24.9219,53.6563 25.1094,53.5469 Q25.2969,53.4375 25.5156,53.4375 Q25.8906,53.4375 26.125,53.7031 Q26.3594,53.9531 26.3594,54.5625 L26.3594,56.0156 Q26.3594,56.625 26.125,56.8906 Q25.8906,57.1563 25.5156,57.1563 Q25.1719,57.1563 24.9688,56.9531 Q24.7656,56.7656 24.6563,56.25 Q24.6094,55.8906 24.4219,55.7031 Q24.0938,55.3281 23.4844,55.1094 Q22.875,54.8906 22.25,54.8906 Q21.4844,54.8906 20.8438,55.2188 Q20.2188,55.5469 19.7188,56.2969 Q19.2344,57.0469 19.2344,58.0781 L19.2344,59.1719 Q19.2344,60.4063 20.125,61.2344 Q21.0156,62.0469 22.6094,62.0469 Q23.5469,62.0469 24.2031,61.7969 Q24.5938,61.6406 25.0156,61.2031 Q25.2813,60.9375 25.4219,60.8594 Q25.5781,60.7813 25.7813,60.7813 Q26.1094,60.7813 26.3594,61.0469 Q26.625,61.2969 26.625,61.6406 Q26.625,61.9844 26.2813,62.3906 Q25.7813,62.9688 24.9844,63.2969 Q23.9063,63.75 22.6094,63.75 Q21.0938,63.75 19.8906,63.125 Q18.9063,62.625 18.2188,61.5625 Q17.5313,60.4844 17.5313,59.2031 L17.5313,58.0469 Q17.5313,56.7188 18.1406,55.5781 Q18.7656,54.4219 19.8594,53.8125 Q20.9531,53.1875 22.1875,53.1875 Q22.9219,53.1875 23.5625,53.3594 Q24.2188,53.5156 24.7656,53.875 Z " fill="#000000"/><text fill="#000000" font-family="sans-serif" font-size="14" lengthAdjust="spacing" textLength="127" x="36" y="63.7285">RegisterEmployeeUI</text><line style="stroke:#181818;stroke-width:0.5;" x1="8" x2="165" y1="74" y2="74"/><line style="stroke:#181818;stroke-width:0.5;" x1="8" x2="165" y1="82" y2="82"/></g><!--class ApplicationSession--><g id="elem_ApplicationSession"><rect fill="#F1F1F1" height="48" id="ApplicationSession" rx="2.5" ry="2.5" style="stroke:#181818;stroke-width:0.5;" width="151" x="1034" y="42"/><ellipse cx="1049" cy="58" fill="#ADD1B2" rx="11" ry="11" style="stroke:#181818;stroke-width:1.0;"/><path d="M1051.7656,53.875 Q1051.9219,53.6563 1052.1094,53.5469 Q1052.2969,53.4375 1052.5156,53.4375 Q1052.8906,53.4375 1053.125,53.7031 Q1053.3594,53.9531 1053.3594,54.5625 L1053.3594,56.0156 Q1053.3594,56.625 1053.125,56.8906 Q1052.8906,57.1563 1052.5156,57.1563 Q1052.1719,57.1563 1051.9688,56.9531 Q1051.7656,56.7656 1051.6563,56.25 Q1051.6094,55.8906 1051.4219,55.7031 Q1051.0938,55.3281 1050.4844,55.1094 Q1049.875,54.8906 1049.25,54.8906 Q1048.4844,54.8906 1047.8438,55.2188 Q1047.2188,55.5469 1046.7188,56.2969 Q1046.2344,57.0469 1046.2344,58.0781 L1046.2344,59.1719 Q1046.2344,60.4063 1047.125,61.2344 Q1048.0156,62.0469 1049.6094,62.0469 Q1050.5469,62.0469 1051.2031,61.7969 Q1051.5938,61.6406 1052.0156,61.2031 Q1052.2813,60.9375 1052.4219,60.8594 Q1052.5781,60.7813 1052.7813,60.7813 Q1053.1094,60.7813 1053.3594,61.0469 Q1053.625,61.2969 1053.625,61.6406 Q1053.625,61.9844 1053.2813,62.3906 Q1052.7813,62.9688 1051.9844,63.2969 Q1050.9063,63.75 1049.6094,63.75 Q1048.0938,63.75 1046.8906,63.125 Q1045.9063,62.625 1045.2188,61.5625 Q1044.5313,60.4844 1044.5313,59.2031 L1044.5313,58.0469 Q1044.5313,56.7188 1045.1406,55.5781 Q1045.7656,54.4219 1046.8594,53.8125 Q1047.9531,53.1875 1049.1875,53.1875 Q1049.9219,53.1875 1050.5625,53.3594 Q1051.2188,53.5156 1051.7656,53.875 Z " fill="#000000"/><text fill="#000000" font-family="sans-serif" font-size="14" lengthAdjust="spacing" textLength="119" x="1063" y="63.7285">ApplicationSession</text><line style="stroke:#181818;stroke-width:0.5;" x1="1035" x2="1184" y1="74" y2="74"/><line style="stroke:#181818;stroke-width:0.5;" x1="1035" x2="1184" y1="82" y2="82"/></g><!--link Repositories to Repositories--><g id="link_Repositories_Repositories"><path codeLine="78" d="M919.78,48.27 C939.98,50.14 954.5,56.05 954.5,66 C954.5,75.1 942.37,80.82 924.86,83.16 " fill="none" id="Repositories-to-Repositories" style="stroke:#181818;stroke-width:1.0;"/><polygon fill="#181818" points="919.78,83.73,929.1695,86.7028,924.7489,83.1731,928.2785,78.7525,919.78,83.73" style="stroke:#181818;stroke-width:1.0;"/><text fill="#000000" font-family="sans-serif" font-size="13" lengthAdjust="spacing" textLength="49" x="960.5" y="71.4951">instance</text></g><!--link ApplicationSession to ApplicationSession--><g id="link_ApplicationSession_ApplicationSession"><path codeLine="79" d="M1185.16,47.8 C1205,48.88 1220,54.95 1220,66 C1220,76.1 1207.47,82.04 1190.16,83.81 " fill="none" id="ApplicationSession-to-ApplicationSession" style="stroke:#181818;stroke-width:1.0;"/><polygon fill="#181818" points="1185.16,84.2,1194.4417,87.4939,1190.1451,83.8143,1193.8247,79.5177,1185.16,84.2" style="stroke:#181818;stroke-width:1.0;"/><text fill="#000000" font-family="sans-serif" font-size="13" lengthAdjust="spacing" textLength="49" x="1226" y="71.4951">instance</text></g><!--link RegisterEmployeeUI to RegisterEmployeeController--><g id="link_RegisterEmployeeUI_RegisterEmployeeController"><path codeLine="81" d="M166.09,66 C182.46,66 194.83,66 194.83,66 C194.83,66 195.15,66 195.75,66 " fill="none" id="RegisterEmployeeUI-to-RegisterEmployeeController" style="stroke:#181818;stroke-width:1.0;stroke-dasharray:7.0,7.0;"/><polygon fill="#181818" points="200.97,66,191.97,62,195.97,66,191.97,70,200.97,66" style="stroke:#181818;stroke-width:1.0;"/></g><!--link RegisterEmployeeController to Repositories--><g id="link_RegisterEmployeeController_Repositories"><path codeLine="83" d="M622.12,66 C656.25,66 690.19,66 720.18,66 " fill="none" id="RegisterEmployeeController-to-Repositories" style="stroke:#181818;stroke-width:1.0;stroke-dasharray:7.0,7.0;"/><polygon fill="#181818" points="725.34,66,716.34,62,720.34,66,716.34,70,725.34,66" style="stroke:#181818;stroke-width:1.0;"/><text fill="#000000" font-family="sans-serif" font-size="13" lengthAdjust="spacing" textLength="67" x="640.25" y="59.4951">repositories</text></g><!--link Repositories to AgencyRepository--><g id="link_Repositories_AgencyRepository"><path codeLine="85" d="M813.7,125.3 C809.97,150.04 805.79,177.72 802.76,197.79 " fill="none" id="Repositories-to-AgencyRepository" style="stroke:#181818;stroke-width:1.0;"/><polygon fill="#181818" points="801.97,202.99,807.2632,194.6844,802.7131,198.0455,799.352,193.4955,801.97,202.99" style="stroke:#181818;stroke-width:1.0;"/><text fill="#000000" font-family="sans-serif" font-size="13" lengthAdjust="spacing" textLength="7" x="794.9623" y="192.3276">1</text></g><!--link RegisterEmployeeController to Agency--><g id="link_RegisterEmployeeController_Agency"><path codeLine="87" d="M396.52,116.58 C374.9,188.17 337.5,312 337.5,312 C337.5,312 337.5,413 337.5,413 C337.5,413 476.5,491 476.5,491 C476.5,491 496.5,529.16 510.94,556.72 " fill="none" id="RegisterEmployeeController-to-Agency" style="stroke:#181818;stroke-width:1.0;stroke-dasharray:7.0,7.0;"/><polygon fill="#181818" points="513.39,561.39,512.7667,551.5609,511.0742,556.9586,505.6765,555.2661,513.39,561.39" style="stroke:#181818;stroke-width:1.0;"/></g><!--link RegisterEmployeeController to RoleRepository--><g id="link_RegisterEmployeeController_RoleRepository"><path codeLine="88" d="M453.6,116.59 C477.02,144.17 501.5,173 501.5,173 C501.5,173 519.34,186.51 537,199.88 " fill="none" id="RegisterEmployeeController-to-RoleRepository" style="stroke:#181818;stroke-width:1.0;stroke-dasharray:7.0,7.0;"/><polygon fill="#181818" points="541,202.91,536.2345,194.2909,537.012,199.894,531.4089,200.6716,541,202.91" style="stroke:#181818;stroke-width:1.0;"/><text fill="#000000" font-family="sans-serif" font-size="13" lengthAdjust="spacing" textLength="83" x="502.5" y="169.4951">roleRepository</text></g><!--link RegisterEmployeeController to AgencyRepository--><g id="link_RegisterEmployeeController_AgencyRepository"><path codeLine="89" d="M532.09,116.55 C600.25,144.55 682.53,178.35 737.45,200.92 " fill="none" id="RegisterEmployeeController-to-AgencyRepository" style="stroke:#181818;stroke-width:1.0;stroke-dasharray:7.0,7.0;"/><polygon fill="#181818" points="742.35,202.93,735.5432,195.8119,737.7245,201.0313,732.5052,203.2127,742.35,202.93" style="stroke:#181818;stroke-width:1.0;"/><text fill="#000000" font-family="sans-serif" font-size="13" lengthAdjust="spacing" textLength="104" x="663.5" y="169.4951">agencyRepository</text></g><!--link Repositories to RoleRepository--><g id="link_Repositories_RoleRepository"><path codeLine="91" d="M779.07,125.27 C760.71,149.9 743.5,173 743.5,173 C743.5,173 688.67,189.89 640.93,204.61 " fill="none" id="Repositories-to-RoleRepository" style="stroke:#181818;stroke-width:1.0;"/><polygon fill="#181818" points="636.04,206.11,645.8191,207.2802,640.818,204.6366,643.4616,199.6354,636.04,206.11" style="stroke:#181818;stroke-width:1.0;"/><text fill="#000000" font-family="sans-serif" font-size="13" lengthAdjust="spacing" textLength="7" x="643.9071" y="200.285">1</text></g><!--link RoleRepository to Role--><g id="link_RoleRepository_Role"><path codeLine="93" d="M548.16,251.25 C532.41,266.94 510.97,288.31 491.15,308.05 " fill="none" id="RoleRepository-to-Role" style="stroke:#181818;stroke-width:1.0;"/><polygon fill="#181818" points="487.21,311.98,496.4095,308.463,490.7527,308.4516,490.7641,302.7948,487.21,311.98" style="stroke:#181818;stroke-width:1.0;"/><text fill="#000000" font-family="sans-serif" font-size="13" lengthAdjust="spacing" textLength="5" x="488.8489" y="301.2825">*</text></g><!--link RegisterEmployeeController to Role--><g id="link_RegisterEmployeeController_Role"><path codeLine="95" d="M415.88,116.62 C420.52,169.19 427.83,251.96 432.64,306.49 " fill="none" id="RegisterEmployeeController-to-Role" style="stroke:#181818;stroke-width:1.0;stroke-dasharray:7.0,7.0;"/><polygon fill="#181818" points="433.1,311.67,436.3122,302.3597,432.6706,306.6885,428.3418,303.0468,433.1,311.67" style="stroke:#181818;stroke-width:1.0;"/><text fill="#000000" font-family="sans-serif" font-size="13" lengthAdjust="spacing" textLength="21" x="429.5" y="232.4951">role</text><text fill="#000000" font-family="sans-serif" font-size="13" lengthAdjust="spacing" textLength="7" x="425.0384" y="301.295">1</text></g><!--link Agency to Agency--><g id="link_Agency_Agency"><path codeLine="96" d="M563.83,561.48 C582.95,558.16 600,566.16 600,585.5 C600,603.02 586,611.24 569.14,610.15 " fill="none" id="Agency-to-Agency" style="stroke:#181818;stroke-width:1.0;"/><polygon fill="#181818" points="563.83,609.52,572.2985,614.5484,568.7955,610.1067,573.2372,606.6037,563.83,609.52" style="stroke:#181818;stroke-width:1.0;"/><text fill="#000000" font-family="sans-serif" font-size="13" lengthAdjust="spacing" textLength="42" x="606" y="590.9951">agency</text><text fill="#000000" font-family="sans-serif" font-size="13" lengthAdjust="spacing" textLength="5" x="568.0114" y="550.815">*</text><text fill="#000000" font-family="sans-serif" font-size="13" lengthAdjust="spacing" textLength="7" x="565.3198" y="630.8628">1</text></g><!--link AgencyRepository to Agency--><g id="link_AgencyRepository_Agency"><path codeLine="97" d="M787.41,251.06 C763.55,300.65 709.5,413 709.5,413 C709.5,413 606,509.47 554.25,557.7 " fill="none" id="AgencyRepository-to-Agency" style="stroke:#181818;stroke-width:1.0;"/><polygon fill="#181818" points="550.32,561.37,559.6283,558.1521,553.9748,557.9579,554.169,552.3044,550.32,561.37" style="stroke:#181818;stroke-width:1.0;"/><text fill="#000000" font-family="sans-serif" font-size="13" lengthAdjust="spacing" textLength="42" x="758.5" y="367.9951">agency</text><text fill="#000000" font-family="sans-serif" font-size="13" lengthAdjust="spacing" textLength="7" x="776.8537" y="272.4126">1</text><text fill="#000000" font-family="sans-serif" font-size="13" lengthAdjust="spacing" textLength="5" x="551.0395" y="550.6768">*</text></g><!--link Role to Agency--><g id="link_Role_Agency"><path codeLine="98" d="M457.25,413.1 C474.9,457.43 500.13,520.78 514.45,556.75 " fill="none" id="Role-to-Agency" style="stroke:#181818;stroke-width:1.0;"/><polygon fill="#181818" points="516.31,561.43,516.6814,551.5881,514.453,556.7876,509.2536,554.5593,516.31,561.43" style="stroke:#181818;stroke-width:1.0;"/><text fill="#000000" font-family="sans-serif" font-size="13" lengthAdjust="spacing" textLength="32" x="477.5" y="457.4951">tasks</text><text fill="#000000" font-family="sans-serif" font-size="13" lengthAdjust="spacing" textLength="7" x="452.4336" y="434.5047">1</text><text fill="#000000" font-family="sans-serif" font-size="13" lengthAdjust="spacing" textLength="5" x="508.3144" y="550.7522">*</text></g><!--link Agency to Employee--><g id="link_Agency_Employee"><path codeLine="99" d="M512.73,609.77 C494.42,643.11 460.07,705.68 433.98,753.2 " fill="none" id="Agency-to-Employee" style="stroke:#181818;stroke-width:1.0;"/><polygon fill="#181818" points="431.48,757.75,439.3244,751.7947,433.8912,753.3698,432.3161,747.9367,431.48,757.75" style="stroke:#181818;stroke-width:1.0;"/><text fill="#000000" font-family="sans-serif" font-size="13" lengthAdjust="spacing" textLength="49" x="456.5" y="724.4951">employs</text></g><!--link Role to Employee--><g id="link_Role_Employee"><path codeLine="101" d="M429.71,413.16 C424.09,448.96 417.5,491 417.5,491 C417.5,491 408.23,658.37 403,752.89 " fill="none" id="Role-to-Employee" style="stroke:#181818;stroke-width:1.0;"/><polygon fill="#181818" points="402.72,757.9,407.2033,749.1308,402.9918,752.9074,399.2152,748.6959,402.72,757.9" style="stroke:#181818;stroke-width:1.0;"/><text fill="#000000" font-family="sans-serif" font-size="13" lengthAdjust="spacing" textLength="49" x="418.5" y="590.9951">employs</text><text fill="#000000" font-family="sans-serif" font-size="13" lengthAdjust="spacing" textLength="5" x="397.8078" y="747.2121">*</text></g><!--reverse link Person to Employee--><g id="link_Person_Employee"><path codeLine="103" d="M278.35,694.59 C304.38,720.67 330.86,747.21 352.4,768.8 " fill="none" id="Person-backto-Employee" style="stroke:#181818;stroke-width:1.0;"/><polygon fill="none" points="273.14,699.28,263.97,680.18,283.06,689.39,273.14,699.28" style="stroke:#181818;stroke-width:1.0;"/><text fill="#000000" font-family="sans-serif" font-size="13" lengthAdjust="spacing" textLength="19" x="307.5" y="724.4951">isA</text></g><!--SRC=[ZLMnRjim4Dtv5OSibcivQDUW26047J8qAE9swy98PvamHGhaEQcRzjzBIhH4IefJ3xB8U_VktJjAMjY3K0qtl8PQArtiZQuHo1oH3P665mTUuPPE4i5WGLnLCWROFI_rYr0LxBYqSKGAXNHg41ejJtx15ZD1RKYpAAkGtDeDaH5FHyBxGgkj-8tmaR65n1q1QJ2YsXEKmiiHMZ76sYJuKZTIdn3XbO7xhK7n6iCjrbp8S6-qF6ytU-rq_JqpV4DZjVBvBkGs6gVkZflouLW_eV6xn7yDYpOxB9cdusLv5f5Xk5csfLpmcKjHSiAt42juTCAoJOMASjYIDlYLAsU-oU41wKMRGrZt2GOhOGbDJ-axpcUavp_L83q7gGlkhSixN_AuawLhPU78BN_6xzmUCdANfVSecEG55YTdqk2R5zwxldMpSyUXxIFTYdjA8sb_0t5Nwn4RROLBzbMJeaFaDLBOxmgqlQnuC-iSN465TA-iEzG5PakuIK03PAmYJazLPCj8tsWuTrgHEteIJT2qkW39JCAR0nzfM8xbZKLrKXXJcX2UD96kGUycZWPtZXPBs6dZ7YlRI7voGsaZjCTGsZsobXYg4ZpZX3VrWRr5wVbyQsEsUSj-t7S3JmQwlaq7V0CYZ91jcaQAxcXlqLhtvz4pkr4EcobwVNjXDDECQBBN4t4cFbAJJgu-NKr7Sh60gz0bl8TA9-ALf2Fwho890PyH6hSJ-XaT1JOIqi8-TB1tMptp1Vail7ny_ZgnhvV79i8zw5nq36wvPm7-jMVFzNoq_xpSGFVcjbrhVUeS87nHuFEVzJe62BjX_m00]--></g></svg>