<?xml version="1.0" encoding="UTF-8" standalone="no"?><svg xmlns="http://www.w3.org/2000/svg" xmlns:xlink="http://www.w3.org/1999/xlink" contentStyleType="text/css" height="848px" preserveAspectRatio="none" style="width:1623px;height:848px;background:#FFFFFF;" version="1.1" viewBox="0 0 1623 848" width="1623px" zoomAndPan="magnify"><defs/><g><!--class Employee--><g id="elem_Employee"><rect codeLine="12" fill="#F1F1F1" height="118.4375" id="Employee" rx="2.5" ry="2.5" style="stroke:#181818;stroke-width:0.5;" width="94" x="381.5" y="723"/><ellipse cx="396.5" cy="739" fill="#ADD1B2" rx="11" ry="11" style="stroke:#181818;stroke-width:1.0;"/><path d="M399.2656,734.875 Q399.4219,734.6563 399.6094,734.5469 Q399.7969,734.4375 400.0156,734.4375 Q400.3906,734.4375 400.625,734.7031 Q400.8594,734.9531 400.8594,735.5625 L400.8594,737.0156 Q400.8594,737.625 400.625,737.8906 Q400.3906,738.1563 400.0156,738.1563 Q399.6719,738.1563 399.4688,737.9531 Q399.2656,737.7656 399.1563,737.25 Q399.1094,736.8906 398.9219,736.7031 Q398.5938,736.3281 397.9844,736.1094 Q397.375,735.8906 396.75,735.8906 Q395.9844,735.8906 395.3438,736.2188 Q394.7188,736.5469 394.2188,737.2969 Q393.7344,738.0469 393.7344,739.0781 L393.7344,740.1719 Q393.7344,741.4063 394.625,742.2344 Q395.5156,743.0469 397.1094,743.0469 Q398.0469,743.0469 398.7031,742.7969 Q399.0938,742.6406 399.5156,742.2031 Q399.7813,741.9375 399.9219,741.8594 Q400.0781,741.7813 400.2813,741.7813 Q400.6094,741.7813 400.8594,742.0469 Q401.125,742.2969 401.125,742.6406 Q401.125,742.9844 400.7813,743.3906 Q400.2813,743.9688 399.4844,744.2969 Q398.4063,744.75 397.1094,744.75 Q395.5938,744.75 394.3906,744.125 Q393.4063,743.625 392.7188,742.5625 Q392.0313,741.4844 392.0313,740.2031 L392.0313,739.0469 Q392.0313,737.7188 392.6406,736.5781 Q393.2656,735.4219 394.3594,734.8125 Q395.4531,734.1875 396.6875,734.1875 Q397.4219,734.1875 398.0625,734.3594 Q398.7188,734.5156 399.2656,734.875 Z " fill="#000000"/><text fill="#000000" font-family="sans-serif" font-size="14" lengthAdjust="spacing" textLength="62" x="410.5" y="744.7285">Employee</text><line style="stroke:#181818;stroke-width:0.5;" x1="382.5" x2="474.5" y1="755" y2="755"/><text fill="#000000" font-family="sans-serif" font-size="14" lengthAdjust="spacing" textLength="40" x="387.5" y="773.5332">-name</text><text fill="#000000" font-family="sans-serif" font-size="14" lengthAdjust="spacing" textLength="38" x="387.5" y="791.1426">-email</text><text fill="#000000" font-family="sans-serif" font-size="14" lengthAdjust="spacing" textLength="29" x="387.5" y="808.752">-role</text><text fill="#000000" font-family="sans-serif" font-size="14" lengthAdjust="spacing" textLength="45" x="387.5" y="826.3613">-phone</text><line style="stroke:#181818;stroke-width:0.5;" x1="382.5" x2="474.5" y1="833.4375" y2="833.4375"/></g><!--class Person--><g id="elem_Person"><rect codeLine="19" fill="#F1F1F1" height="188.875" id="Person" rx="2.5" ry="2.5" style="stroke:#181818;stroke-width:0.5;" width="317" x="1299" y="7"/><ellipse cx="1430.75" cy="23" fill="#ADD1B2" rx="11" ry="11" style="stroke:#181818;stroke-width:1.0;"/><path d="M1433.5156,18.875 Q1433.6719,18.6563 1433.8594,18.5469 Q1434.0469,18.4375 1434.2656,18.4375 Q1434.6406,18.4375 1434.875,18.7031 Q1435.1094,18.9531 1435.1094,19.5625 L1435.1094,21.0156 Q1435.1094,21.625 1434.875,21.8906 Q1434.6406,22.1563 1434.2656,22.1563 Q1433.9219,22.1563 1433.7188,21.9531 Q1433.5156,21.7656 1433.4063,21.25 Q1433.3594,20.8906 1433.1719,20.7031 Q1432.8438,20.3281 1432.2344,20.1094 Q1431.625,19.8906 1431,19.8906 Q1430.2344,19.8906 1429.5938,20.2188 Q1428.9688,20.5469 1428.4688,21.2969 Q1427.9844,22.0469 1427.9844,23.0781 L1427.9844,24.1719 Q1427.9844,25.4063 1428.875,26.2344 Q1429.7656,27.0469 1431.3594,27.0469 Q1432.2969,27.0469 1432.9531,26.7969 Q1433.3438,26.6406 1433.7656,26.2031 Q1434.0313,25.9375 1434.1719,25.8594 Q1434.3281,25.7813 1434.5313,25.7813 Q1434.8594,25.7813 1435.1094,26.0469 Q1435.375,26.2969 1435.375,26.6406 Q1435.375,26.9844 1435.0313,27.3906 Q1434.5313,27.9688 1433.7344,28.2969 Q1432.6563,28.75 1431.3594,28.75 Q1429.8438,28.75 1428.6406,28.125 Q1427.6563,27.625 1426.9688,26.5625 Q1426.2813,25.4844 1426.2813,24.2031 L1426.2813,23.0469 Q1426.2813,21.7188 1426.8906,20.5781 Q1427.5156,19.4219 1428.6094,18.8125 Q1429.7031,18.1875 1430.9375,18.1875 Q1431.6719,18.1875 1432.3125,18.3594 Q1432.9688,18.5156 1433.5156,18.875 Z " fill="#000000"/><text fill="#000000" font-family="sans-serif" font-size="14" lengthAdjust="spacing" textLength="45" x="1451.25" y="28.7285">Person</text><line style="stroke:#181818;stroke-width:0.5;" x1="1300" x2="1615" y1="39" y2="39"/><text fill="#000000" font-family="sans-serif" font-size="14" lengthAdjust="spacing" textLength="140" x="1305" y="57.5332">-passportCardNumber</text><text fill="#000000" font-family="sans-serif" font-size="14" lengthAdjust="spacing" textLength="72" x="1305" y="75.1426">-taxNumber</text><text fill="#000000" font-family="sans-serif" font-size="14" lengthAdjust="spacing" textLength="94" x="1305" y="92.752">-phoneNumber</text><line style="stroke:#181818;stroke-width:0.5;" x1="1300" x2="1615" y1="99.8281" y2="99.8281"/><text fill="#000000" font-family="sans-serif" font-size="14" lengthAdjust="spacing" textLength="128" x="1305" y="118.3613">-addPerson(person)</text><text fill="#000000" font-family="sans-serif" font-size="14" lengthAdjust="spacing" textLength="153" x="1305" y="135.9707">-validatePerson(person)</text><text fill="#000000" font-family="sans-serif" font-size="14" lengthAdjust="spacing" textLength="296" x="1305" y="153.5801">+Role(Agent, StoreManager, NetworkManager)</text><text fill="#000000" font-family="sans-serif" font-size="14" lengthAdjust="spacing" textLength="305" x="1305" y="171.1895">+registerEmployee(name, passportCardNumber,</text><text fill="#000000" font-family="sans-serif" font-size="14" lengthAdjust="spacing" textLength="267" x="1309" y="188.7988">taxNumber, location, email, phoneNumber)</text></g><!--class Agency--><g id="elem_Agency"><rect codeLine="33" fill="#F1F1F1" height="83.2188" id="Agency" rx="2.5" ry="2.5" style="stroke:#181818;stroke-width:0.5;" width="146" x="485.5" y="562"/><ellipse cx="530.75" cy="578" fill="#ADD1B2" rx="11" ry="11" style="stroke:#181818;stroke-width:1.0;"/><path d="M533.5156,573.875 Q533.6719,573.6563 533.8594,573.5469 Q534.0469,573.4375 534.2656,573.4375 Q534.6406,573.4375 534.875,573.7031 Q535.1094,573.9531 535.1094,574.5625 L535.1094,576.0156 Q535.1094,576.625 534.875,576.8906 Q534.6406,577.1563 534.2656,577.1563 Q533.9219,577.1563 533.7188,576.9531 Q533.5156,576.7656 533.4063,576.25 Q533.3594,575.8906 533.1719,575.7031 Q532.8438,575.3281 532.2344,575.1094 Q531.625,574.8906 531,574.8906 Q530.2344,574.8906 529.5938,575.2188 Q528.9688,575.5469 528.4688,576.2969 Q527.9844,577.0469 527.9844,578.0781 L527.9844,579.1719 Q527.9844,580.4063 528.875,581.2344 Q529.7656,582.0469 531.3594,582.0469 Q532.2969,582.0469 532.9531,581.7969 Q533.3438,581.6406 533.7656,581.2031 Q534.0313,580.9375 534.1719,580.8594 Q534.3281,580.7813 534.5313,580.7813 Q534.8594,580.7813 535.1094,581.0469 Q535.375,581.2969 535.375,581.6406 Q535.375,581.9844 535.0313,582.3906 Q534.5313,582.9688 533.7344,583.2969 Q532.6563,583.75 531.3594,583.75 Q529.8438,583.75 528.6406,583.125 Q527.6563,582.625 526.9688,581.5625 Q526.2813,580.4844 526.2813,579.2031 L526.2813,578.0469 Q526.2813,576.7188 526.8906,575.5781 Q527.5156,574.4219 528.6094,573.8125 Q529.7031,573.1875 530.9375,573.1875 Q531.6719,573.1875 532.3125,573.3594 Q532.9688,573.5156 533.5156,573.875 Z " fill="#000000"/><text fill="#000000" font-family="sans-serif" font-size="14" lengthAdjust="spacing" textLength="47" x="551.25" y="583.7285">Agency</text><line style="stroke:#181818;stroke-width:0.5;" x1="486.5" x2="630.5" y1="594" y2="594"/><text fill="#000000" font-family="sans-serif" font-size="14" lengthAdjust="spacing" textLength="115" x="491.5" y="612.5332">-String description</text><line style="stroke:#181818;stroke-width:0.5;" x1="486.5" x2="630.5" y1="619.6094" y2="619.6094"/><text fill="#000000" font-family="sans-serif" font-size="14" lengthAdjust="spacing" textLength="134" x="491.5" y="638.1426">+Agency(description)</text></g><!--class Role--><g id="elem_Role"><rect codeLine="39" fill="#F1F1F1" height="100.8281" id="Role" rx="2.5" ry="2.5" style="stroke:#181818;stroke-width:0.5;" width="164" x="355.5" y="383"/><ellipse cx="418.75" cy="399" fill="#ADD1B2" rx="11" ry="11" style="stroke:#181818;stroke-width:1.0;"/><path d="M421.5156,394.875 Q421.6719,394.6563 421.8594,394.5469 Q422.0469,394.4375 422.2656,394.4375 Q422.6406,394.4375 422.875,394.7031 Q423.1094,394.9531 423.1094,395.5625 L423.1094,397.0156 Q423.1094,397.625 422.875,397.8906 Q422.6406,398.1563 422.2656,398.1563 Q421.9219,398.1563 421.7188,397.9531 Q421.5156,397.7656 421.4063,397.25 Q421.3594,396.8906 421.1719,396.7031 Q420.8438,396.3281 420.2344,396.1094 Q419.625,395.8906 419,395.8906 Q418.2344,395.8906 417.5938,396.2188 Q416.9688,396.5469 416.4688,397.2969 Q415.9844,398.0469 415.9844,399.0781 L415.9844,400.1719 Q415.9844,401.4063 416.875,402.2344 Q417.7656,403.0469 419.3594,403.0469 Q420.2969,403.0469 420.9531,402.7969 Q421.3438,402.6406 421.7656,402.2031 Q422.0313,401.9375 422.1719,401.8594 Q422.3281,401.7813 422.5313,401.7813 Q422.8594,401.7813 423.1094,402.0469 Q423.375,402.2969 423.375,402.6406 Q423.375,402.9844 423.0313,403.3906 Q422.5313,403.9688 421.7344,404.2969 Q420.6563,404.75 419.3594,404.75 Q417.8438,404.75 416.6406,404.125 Q415.6563,403.625 414.9688,402.5625 Q414.2813,401.4844 414.2813,400.2031 L414.2813,399.0469 Q414.2813,397.7188 414.8906,396.5781 Q415.5156,395.4219 416.6094,394.8125 Q417.7031,394.1875 418.9375,394.1875 Q419.6719,394.1875 420.3125,394.3594 Q420.9688,394.5156 421.5156,394.875 Z " fill="#000000"/><text fill="#000000" font-family="sans-serif" font-size="14" lengthAdjust="spacing" textLength="29" x="439.25" y="404.7285">Role</text><line style="stroke:#181818;stroke-width:0.5;" x1="356.5" x2="518.5" y1="415" y2="415"/><text fill="#000000" font-family="sans-serif" font-size="14" lengthAdjust="spacing" textLength="83" x="361.5" y="433.5332">-String Agent</text><text fill="#000000" font-family="sans-serif" font-size="14" lengthAdjust="spacing" textLength="136" x="361.5" y="451.1426">-String StoreManager</text><text fill="#000000" font-family="sans-serif" font-size="14" lengthAdjust="spacing" textLength="152" x="361.5" y="468.752">-String NetworkManager</text><line style="stroke:#181818;stroke-width:0.5;" x1="356.5" x2="518.5" y1="475.8281" y2="475.8281"/></g><!--class AgencyRepository--><g id="elem_AgencyRepository"><rect codeLine="45" fill="#F1F1F1" height="48" id="AgencyRepository" rx="2.5" ry="2.5" style="stroke:#181818;stroke-width:0.5;" width="147" x="725" y="274"/><ellipse cx="740" cy="290" fill="#ADD1B2" rx="11" ry="11" style="stroke:#181818;stroke-width:1.0;"/><path d="M742.7656,285.875 Q742.9219,285.6563 743.1094,285.5469 Q743.2969,285.4375 743.5156,285.4375 Q743.8906,285.4375 744.125,285.7031 Q744.3594,285.9531 744.3594,286.5625 L744.3594,288.0156 Q744.3594,288.625 744.125,288.8906 Q743.8906,289.1563 743.5156,289.1563 Q743.1719,289.1563 742.9688,288.9531 Q742.7656,288.7656 742.6563,288.25 Q742.6094,287.8906 742.4219,287.7031 Q742.0938,287.3281 741.4844,287.1094 Q740.875,286.8906 740.25,286.8906 Q739.4844,286.8906 738.8438,287.2188 Q738.2188,287.5469 737.7188,288.2969 Q737.2344,289.0469 737.2344,290.0781 L737.2344,291.1719 Q737.2344,292.4063 738.125,293.2344 Q739.0156,294.0469 740.6094,294.0469 Q741.5469,294.0469 742.2031,293.7969 Q742.5938,293.6406 743.0156,293.2031 Q743.2813,292.9375 743.4219,292.8594 Q743.5781,292.7813 743.7813,292.7813 Q744.1094,292.7813 744.3594,293.0469 Q744.625,293.2969 744.625,293.6406 Q744.625,293.9844 744.2813,294.3906 Q743.7813,294.9688 742.9844,295.2969 Q741.9063,295.75 740.6094,295.75 Q739.0938,295.75 737.8906,295.125 Q736.9063,294.625 736.2188,293.5625 Q735.5313,292.4844 735.5313,291.2031 L735.5313,290.0469 Q735.5313,288.7188 736.1406,287.5781 Q736.7656,286.4219 737.8594,285.8125 Q738.9531,285.1875 740.1875,285.1875 Q740.9219,285.1875 741.5625,285.3594 Q742.2188,285.5156 742.7656,285.875 Z " fill="#000000"/><text fill="#000000" font-family="sans-serif" font-size="14" lengthAdjust="spacing" textLength="115" x="754" y="295.7285">AgencyRepository</text><line style="stroke:#181818;stroke-width:0.5;" x1="726" x2="871" y1="306" y2="306"/><line style="stroke:#181818;stroke-width:0.5;" x1="726" x2="871" y1="314" y2="314"/></g><!--class RoleRepository--><g id="elem_RoleRepository"><rect codeLine="48" fill="#F1F1F1" height="48" id="RoleRepository" rx="2.5" ry="2.5" style="stroke:#181818;stroke-width:0.5;" width="129" x="507" y="274"/><ellipse cx="522" cy="290" fill="#ADD1B2" rx="11" ry="11" style="stroke:#181818;stroke-width:1.0;"/><path d="M524.7656,285.875 Q524.9219,285.6563 525.1094,285.5469 Q525.2969,285.4375 525.5156,285.4375 Q525.8906,285.4375 526.125,285.7031 Q526.3594,285.9531 526.3594,286.5625 L526.3594,288.0156 Q526.3594,288.625 526.125,288.8906 Q525.8906,289.1563 525.5156,289.1563 Q525.1719,289.1563 524.9688,288.9531 Q524.7656,288.7656 524.6563,288.25 Q524.6094,287.8906 524.4219,287.7031 Q524.0938,287.3281 523.4844,287.1094 Q522.875,286.8906 522.25,286.8906 Q521.4844,286.8906 520.8438,287.2188 Q520.2188,287.5469 519.7188,288.2969 Q519.2344,289.0469 519.2344,290.0781 L519.2344,291.1719 Q519.2344,292.4063 520.125,293.2344 Q521.0156,294.0469 522.6094,294.0469 Q523.5469,294.0469 524.2031,293.7969 Q524.5938,293.6406 525.0156,293.2031 Q525.2813,292.9375 525.4219,292.8594 Q525.5781,292.7813 525.7813,292.7813 Q526.1094,292.7813 526.3594,293.0469 Q526.625,293.2969 526.625,293.6406 Q526.625,293.9844 526.2813,294.3906 Q525.7813,294.9688 524.9844,295.2969 Q523.9063,295.75 522.6094,295.75 Q521.0938,295.75 519.8906,295.125 Q518.9063,294.625 518.2188,293.5625 Q517.5313,292.4844 517.5313,291.2031 L517.5313,290.0469 Q517.5313,288.7188 518.1406,287.5781 Q518.7656,286.4219 519.8594,285.8125 Q520.9531,285.1875 522.1875,285.1875 Q522.9219,285.1875 523.5625,285.3594 Q524.2188,285.5156 524.7656,285.875 Z " fill="#000000"/><text fill="#000000" font-family="sans-serif" font-size="14" lengthAdjust="spacing" textLength="97" x="536" y="295.7285">RoleRepository</text><line style="stroke:#181818;stroke-width:0.5;" x1="508" x2="635" y1="306" y2="306"/><line style="stroke:#181818;stroke-width:0.5;" x1="508" x2="635" y1="314" y2="314"/></g><!--class Repositories--><g id="elem_Repositories"><rect codeLine="52" fill="#F1F1F1" height="118.4375" id="Repositories" rx="2.5" ry="2.5" style="stroke:#181818;stroke-width:0.5;" width="194" x="725.5" y="42.5"/><ellipse cx="778.75" cy="58.5" fill="#ADD1B2" rx="11" ry="11" style="stroke:#181818;stroke-width:1.0;"/><path d="M781.5156,54.375 Q781.6719,54.1563 781.8594,54.0469 Q782.0469,53.9375 782.2656,53.9375 Q782.6406,53.9375 782.875,54.2031 Q783.1094,54.4531 783.1094,55.0625 L783.1094,56.5156 Q783.1094,57.125 782.875,57.3906 Q782.6406,57.6563 782.2656,57.6563 Q781.9219,57.6563 781.7188,57.4531 Q781.5156,57.2656 781.4063,56.75 Q781.3594,56.3906 781.1719,56.2031 Q780.8438,55.8281 780.2344,55.6094 Q779.625,55.3906 779,55.3906 Q778.2344,55.3906 777.5938,55.7188 Q776.9688,56.0469 776.4688,56.7969 Q775.9844,57.5469 775.9844,58.5781 L775.9844,59.6719 Q775.9844,60.9063 776.875,61.7344 Q777.7656,62.5469 779.3594,62.5469 Q780.2969,62.5469 780.9531,62.2969 Q781.3438,62.1406 781.7656,61.7031 Q782.0313,61.4375 782.1719,61.3594 Q782.3281,61.2813 782.5313,61.2813 Q782.8594,61.2813 783.1094,61.5469 Q783.375,61.7969 783.375,62.1406 Q783.375,62.4844 783.0313,62.8906 Q782.5313,63.4688 781.7344,63.7969 Q780.6563,64.25 779.3594,64.25 Q777.8438,64.25 776.6406,63.625 Q775.6563,63.125 774.9688,62.0625 Q774.2813,60.9844 774.2813,59.7031 L774.2813,58.5469 Q774.2813,57.2188 774.8906,56.0781 Q775.5156,54.9219 776.6094,54.3125 Q777.7031,53.6875 778.9375,53.6875 Q779.6719,53.6875 780.3125,53.8594 Q780.9688,54.0156 781.5156,54.375 Z " fill="#000000"/><text fill="#000000" font-family="sans-serif" font-size="14" lengthAdjust="spacing" textLength="79" x="799.25" y="64.2285">Repositories</text><line style="stroke:#181818;stroke-width:0.5;" x1="726.5" x2="918.5" y1="74.5" y2="74.5"/><line style="stroke:#181818;stroke-width:0.5;" x1="726.5" x2="918.5" y1="82.5" y2="82.5"/><text fill="#000000" font-family="sans-serif" font-size="14" lengthAdjust="spacing" textLength="94" x="731.5" y="101.0332">-Repositories()</text><text fill="#000000" font-family="sans-serif" font-size="14" lengthAdjust="spacing" textLength="182" x="731.5" y="118.6426">+getInstance() : Repositories</text><text fill="#000000" font-family="sans-serif" font-size="14" lengthAdjust="spacing" textLength="153" x="731.5" y="136.252">+getAgencyRepository()</text><text fill="#000000" font-family="sans-serif" font-size="14" lengthAdjust="spacing" textLength="135" x="731.5" y="153.8613">+getRoleRepository()</text></g><!--class RegisterEmployeeController--><g id="elem_RegisterEmployeeController"><rect codeLine="59" fill="#F1F1F1" height="136.0469" id="RegisterEmployeeController" rx="2.5" ry="2.5" style="stroke:#181818;stroke-width:0.5;" width="421" x="201" y="33.5"/><ellipse cx="318.75" cy="49.5" fill="#ADD1B2" rx="11" ry="11" style="stroke:#181818;stroke-width:1.0;"/><path d="M321.5156,45.375 Q321.6719,45.1563 321.8594,45.0469 Q322.0469,44.9375 322.2656,44.9375 Q322.6406,44.9375 322.875,45.2031 Q323.1094,45.4531 323.1094,46.0625 L323.1094,47.5156 Q323.1094,48.125 322.875,48.3906 Q322.6406,48.6563 322.2656,48.6563 Q321.9219,48.6563 321.7188,48.4531 Q321.5156,48.2656 321.4063,47.75 Q321.3594,47.3906 321.1719,47.2031 Q320.8438,46.8281 320.2344,46.6094 Q319.625,46.3906 319,46.3906 Q318.2344,46.3906 317.5938,46.7188 Q316.9688,47.0469 316.4688,47.7969 Q315.9844,48.5469 315.9844,49.5781 L315.9844,50.6719 Q315.9844,51.9063 316.875,52.7344 Q317.7656,53.5469 319.3594,53.5469 Q320.2969,53.5469 320.9531,53.2969 Q321.3438,53.1406 321.7656,52.7031 Q322.0313,52.4375 322.1719,52.3594 Q322.3281,52.2813 322.5313,52.2813 Q322.8594,52.2813 323.1094,52.5469 Q323.375,52.7969 323.375,53.1406 Q323.375,53.4844 323.0313,53.8906 Q322.5313,54.4688 321.7344,54.7969 Q320.6563,55.25 319.3594,55.25 Q317.8438,55.25 316.6406,54.625 Q315.6563,54.125 314.9688,53.0625 Q314.2813,51.9844 314.2813,50.7031 L314.2813,49.5469 Q314.2813,48.2188 314.8906,47.0781 Q315.5156,45.9219 316.6094,45.3125 Q317.7031,44.6875 318.9375,44.6875 Q319.6719,44.6875 320.3125,44.8594 Q320.9688,45.0156 321.5156,45.375 Z " fill="#000000"/><text fill="#000000" font-family="sans-serif" font-size="14" lengthAdjust="spacing" textLength="177" x="339.25" y="55.2285">RegisterEmployeeController</text><line style="stroke:#181818;stroke-width:0.5;" x1="202" x2="621" y1="65.5" y2="65.5"/><line style="stroke:#181818;stroke-width:0.5;" x1="202" x2="621" y1="73.5" y2="73.5"/><text fill="#000000" font-family="sans-serif" font-size="14" lengthAdjust="spacing" textLength="409" x="207" y="92.0332">+RegisterEmployeeController(roleRepository, agencyRepository)</text><text fill="#000000" font-family="sans-serif" font-size="14" lengthAdjust="spacing" textLength="85" x="207" y="109.6426">+getAgency()</text><text fill="#000000" font-family="sans-serif" font-size="14" lengthAdjust="spacing" textLength="67" x="207" y="127.252">+getRole()</text><text fill="#000000" font-family="sans-serif" font-size="14" lengthAdjust="spacing" textLength="261" x="207" y="144.8613">+registerEmployee(agencyByDescription)</text><text fill="#000000" font-family="sans-serif" font-size="14" lengthAdjust="spacing" textLength="302" x="207" y="162.4707">-getAgencyByDescription(agencyByDescription)</text></g><g id="elem_GMN10"><path d="M842,412 L842,454.7031 A0,0 0 0 0 842,454.7031 L979,454.7031 A0,0 0 0 0 979,454.7031 L979,422 L969,412 L897.05,412 L818.01,322.25 L889.05,412 L842,412 A0,0 0 0 0 842,412 " fill="#FEFFDD" style="stroke:#181818;stroke-width:0.5;"/><path d="M969,412 L969,422 L979,422 L969,412 " fill="#FEFFDD" style="stroke:#181818;stroke-width:0.5;"/><text fill="#000000" font-family="sans-serif" font-size="13" lengthAdjust="spacing" textLength="116" x="848" y="430.4951">- used for displaying</text><text fill="#000000" font-family="sans-serif" font-size="13" lengthAdjust="spacing" textLength="85" x="848" y="446.8467">the agency list</text></g><g id="elem_GMN13"><path d="M555,412 L555,454.7031 A0,0 0 0 0 555,454.7031 L692,454.7031 A0,0 0 0 0 692,454.7031 L692,422 L682,412 L619.4,412 L580.56,322.25 L611.4,412 L555,412 A0,0 0 0 0 555,412 " fill="#FEFFDD" style="stroke:#181818;stroke-width:0.5;"/><path d="M682,412 L682,422 L692,422 L682,412 " fill="#FEFFDD" style="stroke:#181818;stroke-width:0.5;"/><text fill="#000000" font-family="sans-serif" font-size="13" lengthAdjust="spacing" textLength="116" x="561" y="430.4951">- used for displaying</text><text fill="#000000" font-family="sans-serif" font-size="13" lengthAdjust="spacing" textLength="64" x="561" y="446.8467">the role list</text></g><!--class RegisterEmployeeUI--><g id="elem_RegisterEmployeeUI"><rect codeLine="80" fill="#F1F1F1" height="48" id="RegisterEmployeeUI" rx="2.5" ry="2.5" style="stroke:#181818;stroke-width:0.5;" width="159" x="7" y="77.5"/><ellipse cx="22" cy="93.5" fill="#ADD1B2" rx="11" ry="11" style="stroke:#181818;stroke-width:1.0;"/><path d="M24.7656,89.375 Q24.9219,89.1563 25.1094,89.0469 Q25.2969,88.9375 25.5156,88.9375 Q25.8906,88.9375 26.125,89.2031 Q26.3594,89.4531 26.3594,90.0625 L26.3594,91.5156 Q26.3594,92.125 26.125,92.3906 Q25.8906,92.6563 25.5156,92.6563 Q25.1719,92.6563 24.9688,92.4531 Q24.7656,92.2656 24.6563,91.75 Q24.6094,91.3906 24.4219,91.2031 Q24.0938,90.8281 23.4844,90.6094 Q22.875,90.3906 22.25,90.3906 Q21.4844,90.3906 20.8438,90.7188 Q20.2188,91.0469 19.7188,91.7969 Q19.2344,92.5469 19.2344,93.5781 L19.2344,94.6719 Q19.2344,95.9063 20.125,96.7344 Q21.0156,97.5469 22.6094,97.5469 Q23.5469,97.5469 24.2031,97.2969 Q24.5938,97.1406 25.0156,96.7031 Q25.2813,96.4375 25.4219,96.3594 Q25.5781,96.2813 25.7813,96.2813 Q26.1094,96.2813 26.3594,96.5469 Q26.625,96.7969 26.625,97.1406 Q26.625,97.4844 26.2813,97.8906 Q25.7813,98.4688 24.9844,98.7969 Q23.9063,99.25 22.6094,99.25 Q21.0938,99.25 19.8906,98.625 Q18.9063,98.125 18.2188,97.0625 Q17.5313,95.9844 17.5313,94.7031 L17.5313,93.5469 Q17.5313,92.2188 18.1406,91.0781 Q18.7656,89.9219 19.8594,89.3125 Q20.9531,88.6875 22.1875,88.6875 Q22.9219,88.6875 23.5625,88.8594 Q24.2188,89.0156 24.7656,89.375 Z " fill="#000000"/><text fill="#000000" font-family="sans-serif" font-size="14" lengthAdjust="spacing" textLength="127" x="36" y="99.2285">RegisterEmployeeUI</text><line style="stroke:#181818;stroke-width:0.5;" x1="8" x2="165" y1="109.5" y2="109.5"/><line style="stroke:#181818;stroke-width:0.5;" x1="8" x2="165" y1="117.5" y2="117.5"/></g><!--class ApplicationSession--><g id="elem_ApplicationSession"><rect fill="#F1F1F1" height="48" id="ApplicationSession" rx="2.5" ry="2.5" style="stroke:#181818;stroke-width:0.5;" width="151" x="1034" y="77.5"/><ellipse cx="1049" cy="93.5" fill="#ADD1B2" rx="11" ry="11" style="stroke:#181818;stroke-width:1.0;"/><path d="M1051.7656,89.375 Q1051.9219,89.1563 1052.1094,89.0469 Q1052.2969,88.9375 1052.5156,88.9375 Q1052.8906,88.9375 1053.125,89.2031 Q1053.3594,89.4531 1053.3594,90.0625 L1053.3594,91.5156 Q1053.3594,92.125 1053.125,92.3906 Q1052.8906,92.6563 1052.5156,92.6563 Q1052.1719,92.6563 1051.9688,92.4531 Q1051.7656,92.2656 1051.6563,91.75 Q1051.6094,91.3906 1051.4219,91.2031 Q1051.0938,90.8281 1050.4844,90.6094 Q1049.875,90.3906 1049.25,90.3906 Q1048.4844,90.3906 1047.8438,90.7188 Q1047.2188,91.0469 1046.7188,91.7969 Q1046.2344,92.5469 1046.2344,93.5781 L1046.2344,94.6719 Q1046.2344,95.9063 1047.125,96.7344 Q1048.0156,97.5469 1049.6094,97.5469 Q1050.5469,97.5469 1051.2031,97.2969 Q1051.5938,97.1406 1052.0156,96.7031 Q1052.2813,96.4375 1052.4219,96.3594 Q1052.5781,96.2813 1052.7813,96.2813 Q1053.1094,96.2813 1053.3594,96.5469 Q1053.625,96.7969 1053.625,97.1406 Q1053.625,97.4844 1053.2813,97.8906 Q1052.7813,98.4688 1051.9844,98.7969 Q1050.9063,99.25 1049.6094,99.25 Q1048.0938,99.25 1046.8906,98.625 Q1045.9063,98.125 1045.2188,97.0625 Q1044.5313,95.9844 1044.5313,94.7031 L1044.5313,93.5469 Q1044.5313,92.2188 1045.1406,91.0781 Q1045.7656,89.9219 1046.8594,89.3125 Q1047.9531,88.6875 1049.1875,88.6875 Q1049.9219,88.6875 1050.5625,88.8594 Q1051.2188,89.0156 1051.7656,89.375 Z " fill="#000000"/><text fill="#000000" font-family="sans-serif" font-size="14" lengthAdjust="spacing" textLength="119" x="1063" y="99.2285">ApplicationSession</text><line style="stroke:#181818;stroke-width:0.5;" x1="1035" x2="1184" y1="109.5" y2="109.5"/><line style="stroke:#181818;stroke-width:0.5;" x1="1035" x2="1184" y1="117.5" y2="117.5"/></g><!--link Repositories to Repositories--><g id="link_Repositories_Repositories"><path codeLine="83" d="M919.78,77.62 C939.98,80.13 954.5,88.09 954.5,101.5 C954.5,113.75 942.37,121.46 924.86,124.61 " fill="none" id="Repositories-to-Repositories" style="stroke:#181818;stroke-width:1.0;"/><polygon fill="#181818" points="919.78,125.38,929.2819,127.9712,924.7224,124.6229,928.0706,120.0634,919.78,125.38" style="stroke:#181818;stroke-width:1.0;"/><text fill="#000000" font-family="sans-serif" font-size="13" lengthAdjust="spacing" textLength="49" x="960.5" y="106.9951">instance</text></g><!--link ApplicationSession to ApplicationSession--><g id="link_ApplicationSession_ApplicationSession"><path codeLine="84" d="M1166.35,77.48 C1194.71,74.16 1220,82.16 1220,101.5 C1220,119.63 1197.77,127.8 1171.63,126.01 " fill="none" id="ApplicationSession-to-ApplicationSession" style="stroke:#181818;stroke-width:1.0;"/><polygon fill="#181818" points="1166.35,125.52,1174.9322,130.3518,1171.3277,125.992,1175.6874,122.3875,1166.35,125.52" style="stroke:#181818;stroke-width:1.0;"/><text fill="#000000" font-family="sans-serif" font-size="13" lengthAdjust="spacing" textLength="49" x="1226" y="106.9951">instance</text></g><!--link RegisterEmployeeUI to RegisterEmployeeController--><g id="link_RegisterEmployeeUI_RegisterEmployeeController"><path codeLine="86" d="M166.09,101.5 C182.46,101.5 194.83,101.5 194.83,101.5 C194.83,101.5 195.15,101.5 195.75,101.5 " fill="none" id="RegisterEmployeeUI-to-RegisterEmployeeController" style="stroke:#181818;stroke-width:1.0;stroke-dasharray:7.0,7.0;"/><polygon fill="#181818" points="200.97,101.5,191.97,97.5,195.97,101.5,191.97,105.5,200.97,101.5" style="stroke:#181818;stroke-width:1.0;"/></g><!--link RegisterEmployeeController to Repositories--><g id="link_RegisterEmployeeController_Repositories"><path codeLine="88" d="M622.12,101.5 C656.25,101.5 690.19,101.5 720.18,101.5 " fill="none" id="RegisterEmployeeController-to-Repositories" style="stroke:#181818;stroke-width:1.0;stroke-dasharray:7.0,7.0;"/><polygon fill="#181818" points="725.34,101.5,716.34,97.5,720.34,101.5,716.34,105.5,725.34,101.5" style="stroke:#181818;stroke-width:1.0;"/><text fill="#000000" font-family="sans-serif" font-size="13" lengthAdjust="spacing" textLength="67" x="640.25" y="94.9951">repositories</text></g><!--link Repositories to AgencyRepository--><g id="link_Repositories_AgencyRepository"><path codeLine="90" d="M815.33,160.59 C810.94,196.21 805.5,240.24 802.02,268.47 " fill="none" id="Repositories-to-AgencyRepository" style="stroke:#181818;stroke-width:1.0;"/><polygon fill="#181818" points="801.39,273.55,806.4664,265.1102,802.0049,268.588,798.5272,264.1264,801.39,273.55" style="stroke:#181818;stroke-width:1.0;"/><text fill="#000000" font-family="sans-serif" font-size="13" lengthAdjust="spacing" textLength="7" x="794.2413" y="263.1783">1</text></g><!--link RegisterEmployeeController to Agency--><g id="link_RegisterEmployeeController_Agency"><path codeLine="92" d="M393.78,169.69 C371.88,252.67 337.5,383 337.5,383 C337.5,383 337.5,484 337.5,484 C337.5,484 417.02,526.64 480.66,560.76 " fill="none" id="RegisterEmployeeController-to-Agency" style="stroke:#181818;stroke-width:1.0;stroke-dasharray:7.0,7.0;"/><polygon fill="#181818" points="485.22,563.21,479.1846,555.427,480.8154,560.8438,475.3986,562.4745,485.22,563.21" style="stroke:#181818;stroke-width:1.0;"/></g><!--link RegisterEmployeeController to RoleRepository--><g id="link_RegisterEmployeeController_RoleRepository"><path codeLine="93" d="M454.13,169.52 C477.39,206.09 501.5,244 501.5,244 C501.5,244 519.34,257.51 537,270.88 " fill="none" id="RegisterEmployeeController-to-RoleRepository" style="stroke:#181818;stroke-width:1.0;stroke-dasharray:7.0,7.0;"/><polygon fill="#181818" points="541,273.91,536.2345,265.2909,537.012,270.894,531.4089,271.6716,541,273.91" style="stroke:#181818;stroke-width:1.0;"/><text fill="#000000" font-family="sans-serif" font-size="13" lengthAdjust="spacing" textLength="83" x="502.5" y="240.4951">roleRepository</text></g><!--link RegisterEmployeeController to AgencyRepository--><g id="link_RegisterEmployeeController_AgencyRepository"><path codeLine="94" d="M544.59,169.52 C617.22,206.09 692.5,244 692.5,244 C692.5,244 720.43,257.96 747.61,271.56 " fill="none" id="RegisterEmployeeController-to-AgencyRepository" style="stroke:#181818;stroke-width:1.0;stroke-dasharray:7.0,7.0;"/><polygon fill="#181818" points="752.32,273.91,746.0687,266.2994,747.8507,271.6682,742.4819,273.4502,752.32,273.91" style="stroke:#181818;stroke-width:1.0;"/><text fill="#000000" font-family="sans-serif" font-size="13" lengthAdjust="spacing" textLength="104" x="693.5" y="240.4951">agencyRepository</text></g><!--link Repositories to RoleRepository--><g id="link_Repositories_RoleRepository"><path codeLine="96" d="M789.91,160.87 C768.15,199.85 743.5,244 743.5,244 C743.5,244 688.67,260.89 640.93,275.61 " fill="none" id="Repositories-to-RoleRepository" style="stroke:#181818;stroke-width:1.0;"/><polygon fill="#181818" points="636.04,277.11,645.8191,278.2802,640.818,275.6366,643.4616,270.6354,636.04,277.11" style="stroke:#181818;stroke-width:1.0;"/><text fill="#000000" font-family="sans-serif" font-size="13" lengthAdjust="spacing" textLength="7" x="643.9071" y="271.285">1</text></g><!--link RoleRepository to Role--><g id="link_RoleRepository_Role"><path codeLine="98" d="M548.16,322.25 C532.41,337.94 510.97,359.31 491.15,379.05 " fill="none" id="RoleRepository-to-Role" style="stroke:#181818;stroke-width:1.0;"/><polygon fill="#181818" points="487.21,382.98,496.4095,379.463,490.7527,379.4516,490.7641,373.7948,487.21,382.98" style="stroke:#181818;stroke-width:1.0;"/><text fill="#000000" font-family="sans-serif" font-size="13" lengthAdjust="spacing" textLength="5" x="488.8489" y="372.2825">*</text></g><!--link RegisterEmployeeController to Role--><g id="link_RegisterEmployeeController_Role"><path codeLine="100" d="M416.79,169.68 C421.63,231.05 428.69,320.68 433.19,377.8 " fill="none" id="RegisterEmployeeController-to-Role" style="stroke:#181818;stroke-width:1.0;stroke-dasharray:7.0,7.0;"/><polygon fill="#181818" points="433.59,382.88,436.8574,373.5889,433.1901,377.896,428.8831,374.2287,433.59,382.88" style="stroke:#181818;stroke-width:1.0;"/><text fill="#000000" font-family="sans-serif" font-size="13" lengthAdjust="spacing" textLength="21" x="430.5" y="303.4951">role</text><text fill="#000000" font-family="sans-serif" font-size="13" lengthAdjust="spacing" textLength="7" x="425.548" y="372.1685">1</text></g><!--link Agency to Agency--><g id="link_Agency_Agency"><path codeLine="101" d="M631.69,588.61 C651.46,589.4 666.5,594.36 666.5,603.5 C666.5,611.78 654.15,616.64 637.12,618.06 " fill="none" id="Agency-to-Agency" style="stroke:#181818;stroke-width:1.0;"/><polygon fill="#181818" points="631.69,618.39,640.914,621.8422,636.681,618.0897,640.4335,613.8567,631.69,618.39" style="stroke:#181818;stroke-width:1.0;"/><text fill="#000000" font-family="sans-serif" font-size="13" lengthAdjust="spacing" textLength="42" x="672.5" y="608.9951">agency</text><text fill="#000000" font-family="sans-serif" font-size="13" lengthAdjust="spacing" textLength="5" x="639.4955" y="583.7514">*</text><text fill="#000000" font-family="sans-serif" font-size="13" lengthAdjust="spacing" textLength="7" x="639.5987" y="616.6025">1</text></g><!--link AgencyRepository to Agency--><g id="link_AgencyRepository_Agency"><path codeLine="102" d="M787.41,322.06 C763.55,371.65 709.5,484 709.5,484 C709.5,484 657.55,524.77 614.59,558.48 " fill="none" id="AgencyRepository-to-Agency" style="stroke:#181818;stroke-width:1.0;"/><polygon fill="#181818" points="610.47,561.72,620.0185,559.3064,614.4021,558.6315,615.077,553.0151,610.47,561.72" style="stroke:#181818;stroke-width:1.0;"/><text fill="#000000" font-family="sans-serif" font-size="13" lengthAdjust="spacing" textLength="42" x="758.5" y="438.9951">agency</text><text fill="#000000" font-family="sans-serif" font-size="13" lengthAdjust="spacing" textLength="7" x="776.8537" y="343.4126">1</text><text fill="#000000" font-family="sans-serif" font-size="13" lengthAdjust="spacing" textLength="5" x="613.3543" y="551.292">*</text></g><!--link Role to Agency--><g id="link_Role_Agency"><path codeLine="103" d="M473.48,484.45 C490.2,507.67 509.93,535.07 526.18,557.62 " fill="none" id="Role-to-Agency" style="stroke:#181818;stroke-width:1.0;"/><polygon fill="#181818" points="529.17,561.77,527.1458,552.1314,526.2436,557.7159,520.6591,556.8137,529.17,561.77" style="stroke:#181818;stroke-width:1.0;"/><text fill="#000000" font-family="sans-serif" font-size="13" lengthAdjust="spacing" textLength="32" x="506.5" y="528.4951">tasks</text><text fill="#000000" font-family="sans-serif" font-size="13" lengthAdjust="spacing" textLength="7" x="470.4385" y="505.1615">1</text><text fill="#000000" font-family="sans-serif" font-size="13" lengthAdjust="spacing" textLength="5" x="518.8982" y="551.0396">*</text></g><!--link Agency to Employee--><g id="link_Agency_Employee"><path codeLine="104" d="M528.35,645.44 C512.32,667.19 492.29,694.4 474.38,718.71 " fill="none" id="Agency-to-Employee" style="stroke:#181818;stroke-width:1.0;"/><polygon fill="#181818" points="471.29,722.9,479.8401,718.0118,474.2487,718.8693,473.3911,713.2779,471.29,722.9" style="stroke:#181818;stroke-width:1.0;"/><text fill="#000000" font-family="sans-serif" font-size="13" lengthAdjust="spacing" textLength="59" x="506.5" y="689.4951">createdBy</text></g><!--link Role to Employee--><g id="link_Role_Employee"><path codeLine="106" d="M429.32,484.16 C423.42,519.96 416.5,562 416.5,562 C416.5,562 416.5,645 416.5,645 C416.5,645 419.78,682.21 422.92,717.71 " fill="none" id="Role-to-Employee" style="stroke:#181818;stroke-width:1.0;"/><polygon fill="#181818" points="423.38,722.93,426.568,713.6114,422.9376,717.9496,418.5994,714.3192,423.38,722.93" style="stroke:#181818;stroke-width:1.0;"/><text fill="#000000" font-family="sans-serif" font-size="13" lengthAdjust="spacing" textLength="49" x="417.5" y="608.9951">employs</text><text fill="#000000" font-family="sans-serif" font-size="13" lengthAdjust="spacing" textLength="5" x="417.4513" y="712.2457">*</text></g><!--SRC=[ZLLDSvim4BthL-paOcXmfhtca1adxI67PZfnU-j5WJNMM4WQIKvAC_tlbK2013If3mRjnzktRnVOc1CJYchQG2E5B8zQDWXMdv5C7aNB4wrnRrkEeB6qLDGy3Z17MiaN9ceuK6vY3sS2RQiGbEIjFv3DYbDgAqcKLN9gpCvQpPxE5kzBAVRiDy97GZOS3nQi1CtgeuMAUJfC2a98bmHV6iLbYmYl1Dnl2u8s66wneOo7UotvO5P7wNZz6H2-eJPI-7pdSWRbsDrHNJsScoVKtchfh-dGPOSZyN2qgdg8J7MNl2lZ7C-KiufQNFDUmgCZbErg5BQ0lPKQlrBXHDS5FA1zaVeKpcE2nfePYtheEFET5YkKYvzYebm0boNraXMz7aNSGUvQs3XmGv_nEpMdpBg_t6iJnF44otOKT-z6vAPUeIarK_qWUdPzO1PvyabYt-iSesizDSKof9vKaWcuh_g8IXhcaZtHfEZaUOsQ6gqCpKWhDcPvwAf6Uo-Cs_yIinokaw0fPCuYJazPPB4eitdUIM7TbdBKWTFb6o6PJd0Be3CE-PpUdDHuNknL3tNRVevdsOiqeYNUzOnES2AaHNYIrie6v64ni81xDbZ1GMhtW1l5QUjctddi4KDdxkLXB45HWKTSuAOoatz1UZolt1njVI8_xljzIlPbUvFkppMmi25afnHd_SEsHsFSnKUlMACSibBqwkQDoIypeiMvMf3JySOkEhduTB4SoPi5N8K-uRseT2AUIJgY_ogI0D0Led4xeP_PAf0PaIxiGn_sRgi3Ng1FmklGvsyJ-KPwP47S1mr5vy4Tzcg0Vn6RePxtZX-wQoWrkizATHkQ6vEZ4Enk3VaB]--></g></svg>