<?xml version="1.0" encoding="UTF-8" standalone="no"?><svg xmlns="http://www.w3.org/2000/svg" xmlns:xlink="http://www.w3.org/1999/xlink" contentStyleType="text/css" height="1157px" preserveAspectRatio="none" style="width:621px;height:1157px;background:#FFFFFF;" version="1.1" viewBox="0 0 621 1157" width="621px" zoomAndPan="magnify"><defs/><g><text fill="#000000" font-family="sans-serif" font-size="14" font-weight="bold" lengthAdjust="spacing" textLength="284" x="169.5" y="29.5332">System Sequence Diagram (SSD) - US004</text><rect fill="#FFFFFF" height="935.0547" style="stroke:#181818;stroke-width:1.0;" width="10" x="41" y="131.2188"/><rect fill="#FFFFFF" height="30.3516" style="stroke:#181818;stroke-width:1.0;" width="10" x="565" y="153.5703"/><rect fill="#FFFFFF" height="30.3516" style="stroke:#181818;stroke-width:1.0;" width="10" x="565" y="214.2734"/><rect fill="#FFFFFF" height="30.3516" style="stroke:#181818;stroke-width:1.0;" width="10" x="565" y="300.3281"/><rect fill="#FFFFFF" height="30.3516" style="stroke:#181818;stroke-width:1.0;" width="10" x="565" y="376.8672"/><rect fill="#FFFFFF" height="30.3516" style="stroke:#181818;stroke-width:1.0;" width="10" x="565" y="460.9219"/><rect fill="#FFFFFF" height="30.3516" style="stroke:#181818;stroke-width:1.0;" width="10" x="565" y="521.625"/><rect fill="#FFFFFF" height="30.3516" style="stroke:#181818;stroke-width:1.0;" width="10" x="565" y="582.3281"/><rect fill="#FFFFFF" height="30.3516" style="stroke:#181818;stroke-width:1.0;" width="10" x="565" y="668.3828"/><rect fill="#FFFFFF" height="30.3516" style="stroke:#181818;stroke-width:1.0;" width="10" x="565" y="761.2734"/><rect fill="#FFFFFF" height="30.3516" style="stroke:#181818;stroke-width:1.0;" width="10" x="565" y="837.8125"/><rect fill="#FFFFFF" height="30.3516" style="stroke:#181818;stroke-width:1.0;" width="10" x="565" y="905.5156"/><rect fill="#FFFFFF" height="30.3516" style="stroke:#181818;stroke-width:1.0;" width="10" x="565" y="966.2188"/><rect fill="#FFFFFF" height="30.3516" style="stroke:#181818;stroke-width:1.0;" width="10" x="565" y="1026.9219"/><rect fill="none" height="155.5938" style="stroke:#000000;stroke-width:1.5;" width="604" x="10" y="259.625"/><rect fill="none" height="248.4844" style="stroke:#000000;stroke-width:1.5;" width="604" x="10" y="627.6797"/><line style="stroke:#181818;stroke-width:0.5;stroke-dasharray:5.0,5.0;" x1="46" x2="46" y1="121.2188" y2="1075.2734"/><line style="stroke:#181818;stroke-width:0.5;stroke-dasharray:5.0,5.0;" x1="570" x2="570" y1="121.2188" y2="1075.2734"/><text fill="#000000" font-family="sans-serif" font-size="14" font-weight="bold" lengthAdjust="spacing" textLength="46" x="20" y="118.1426">Owner</text><ellipse cx="46" cy="52.1094" fill="#E3E3E3" rx="8" ry="8" style="stroke:#181818;stroke-width:0.5;"/><path d="M46,60.1094 L46,87.1094 M33,68.1094 L59,68.1094 M46,87.1094 L33,102.1094 M46,87.1094 L59,102.1094 " fill="none" style="stroke:#181818;stroke-width:0.5;"/><text fill="#000000" font-family="sans-serif" font-size="14" font-weight="bold" lengthAdjust="spacing" textLength="46" x="20" y="1088.8066">Owner</text><ellipse cx="46" cy="1100.3828" fill="#E3E3E3" rx="8" ry="8" style="stroke:#181818;stroke-width:0.5;"/><path d="M46,1108.3828 L46,1135.3828 M33,1116.3828 L59,1116.3828 M46,1135.3828 L33,1150.3828 M46,1135.3828 L59,1150.3828 " fill="none" style="stroke:#181818;stroke-width:0.5;"/><rect fill="#E3E3E3" height="31.6094" rx="2.5" ry="2.5" style="stroke:#181818;stroke-width:0.5;" width="68" x="536" y="88.6094"/><text fill="#000000" font-family="sans-serif" font-size="14" font-weight="bold" lengthAdjust="spacing" textLength="54" x="543" y="110.1426">:System</text><rect fill="#E3E3E3" height="31.6094" rx="2.5" ry="2.5" style="stroke:#181818;stroke-width:0.5;" width="68" x="536" y="1074.2734"/><text fill="#000000" font-family="sans-serif" font-size="14" font-weight="bold" lengthAdjust="spacing" textLength="54" x="543" y="1095.8066">:System</text><rect fill="#FFFFFF" height="935.0547" style="stroke:#181818;stroke-width:1.0;" width="10" x="41" y="131.2188"/><rect fill="#FFFFFF" height="30.3516" style="stroke:#181818;stroke-width:1.0;" width="10" x="565" y="153.5703"/><rect fill="#FFFFFF" height="30.3516" style="stroke:#181818;stroke-width:1.0;" width="10" x="565" y="214.2734"/><rect fill="#FFFFFF" height="30.3516" style="stroke:#181818;stroke-width:1.0;" width="10" x="565" y="300.3281"/><rect fill="#FFFFFF" height="30.3516" style="stroke:#181818;stroke-width:1.0;" width="10" x="565" y="376.8672"/><rect fill="#FFFFFF" height="30.3516" style="stroke:#181818;stroke-width:1.0;" width="10" x="565" y="460.9219"/><rect fill="#FFFFFF" height="30.3516" style="stroke:#181818;stroke-width:1.0;" width="10" x="565" y="521.625"/><rect fill="#FFFFFF" height="30.3516" style="stroke:#181818;stroke-width:1.0;" width="10" x="565" y="582.3281"/><rect fill="#FFFFFF" height="30.3516" style="stroke:#181818;stroke-width:1.0;" width="10" x="565" y="668.3828"/><rect fill="#FFFFFF" height="30.3516" style="stroke:#181818;stroke-width:1.0;" width="10" x="565" y="761.2734"/><rect fill="#FFFFFF" height="30.3516" style="stroke:#181818;stroke-width:1.0;" width="10" x="565" y="837.8125"/><rect fill="#FFFFFF" height="30.3516" style="stroke:#181818;stroke-width:1.0;" width="10" x="565" y="905.5156"/><rect fill="#FFFFFF" height="30.3516" style="stroke:#181818;stroke-width:1.0;" width="10" x="565" y="966.2188"/><rect fill="#FFFFFF" height="30.3516" style="stroke:#181818;stroke-width:1.0;" width="10" x="565" y="1026.9219"/><polygon fill="#181818" points="553,149.5703,563,153.5703,553,157.5703,557,153.5703" style="stroke:#181818;stroke-width:1.0;"/><line style="stroke:#181818;stroke-width:1.0;" x1="51" x2="559" y1="153.5703" y2="153.5703"/><text fill="#000000" font-family="sans-serif" font-size="13" font-weight="bold" lengthAdjust="spacing" textLength="7" x="58" y="148.7139">1</text><text fill="#000000" font-family="sans-serif" font-size="13" lengthAdjust="spacing" textLength="159" x="69" y="148.7139">asks to create a new listing</text><polygon fill="#181818" points="62,179.9219,52,183.9219,62,187.9219,58,183.9219" style="stroke:#181818;stroke-width:1.0;"/><line style="stroke:#181818;stroke-width:1.0;stroke-dasharray:2.0,2.0;" x1="56" x2="569" y1="183.9219" y2="183.9219"/><text fill="#000000" font-family="sans-serif" font-size="13" font-weight="bold" lengthAdjust="spacing" textLength="7" x="68" y="179.0654">2</text><text fill="#000000" font-family="sans-serif" font-size="13" lengthAdjust="spacing" textLength="117" x="79" y="179.0654">requests listing type</text><polygon fill="#181818" points="553,210.2734,563,214.2734,553,218.2734,557,214.2734" style="stroke:#181818;stroke-width:1.0;"/><line style="stroke:#181818;stroke-width:1.0;" x1="51" x2="559" y1="214.2734" y2="214.2734"/><text fill="#000000" font-family="sans-serif" font-size="13" font-weight="bold" lengthAdjust="spacing" textLength="7" x="58" y="209.417">3</text><text fill="#000000" font-family="sans-serif" font-size="13" lengthAdjust="spacing" textLength="109" x="69" y="209.417">selects listing type</text><polygon fill="#181818" points="62,240.625,52,244.625,62,248.625,58,244.625" style="stroke:#181818;stroke-width:1.0;"/><line style="stroke:#181818;stroke-width:1.0;stroke-dasharray:2.0,2.0;" x1="56" x2="569" y1="244.625" y2="244.625"/><text fill="#000000" font-family="sans-serif" font-size="13" font-weight="bold" lengthAdjust="spacing" textLength="7" x="68" y="239.7686">4</text><text fill="#000000" font-family="sans-serif" font-size="13" lengthAdjust="spacing" textLength="79" x="79" y="239.7686">requests data</text><path d="M10,259.625 L71,259.625 L71,267.9766 L61,277.9766 L10,277.9766 L10,259.625 " fill="#EEEEEE" style="stroke:#000000;stroke-width:1.5;"/><rect fill="none" height="155.5938" style="stroke:#000000;stroke-width:1.5;" width="604" x="10" y="259.625"/><text fill="#000000" font-family="sans-serif" font-size="13" font-weight="bold" lengthAdjust="spacing" textLength="16" x="25" y="274.1201">alt</text><text fill="#000000" font-family="sans-serif" font-size="11" font-weight="bold" lengthAdjust="spacing" textLength="42" x="86" y="273.0439">[Lease]</text><polygon fill="#181818" points="553,296.3281,563,300.3281,553,304.3281,557,300.3281" style="stroke:#181818;stroke-width:1.0;"/><line style="stroke:#181818;stroke-width:1.0;" x1="51" x2="559" y1="300.3281" y2="300.3281"/><text fill="#000000" font-family="sans-serif" font-size="13" font-weight="bold" lengthAdjust="spacing" textLength="7" x="58" y="295.4717">5</text><text fill="#000000" font-family="sans-serif" font-size="13" lengthAdjust="spacing" textLength="270" x="69" y="295.4717">types requested data (rent, contract's duration)</text><polygon fill="#181818" points="62,326.6797,52,330.6797,62,334.6797,58,330.6797" style="stroke:#181818;stroke-width:1.0;"/><line style="stroke:#181818;stroke-width:1.0;stroke-dasharray:2.0,2.0;" x1="56" x2="569" y1="330.6797" y2="330.6797"/><text fill="#000000" font-family="sans-serif" font-size="13" font-weight="bold" lengthAdjust="spacing" textLength="7" x="68" y="325.8232">6</text><text fill="#000000" font-family="sans-serif" font-size="13" lengthAdjust="spacing" textLength="129" x="79" y="325.8232">requests Owner's data</text><line style="stroke:#000000;stroke-width:1.0;stroke-dasharray:2.0,2.0;" x1="10" x2="614" y1="339.6797" y2="339.6797"/><text fill="#000000" font-family="sans-serif" font-size="11" font-weight="bold" lengthAdjust="spacing" textLength="31" x="15" y="351.0986">[Sale]</text><polygon fill="#181818" points="553,372.8672,563,376.8672,553,380.8672,557,376.8672" style="stroke:#181818;stroke-width:1.0;"/><line style="stroke:#181818;stroke-width:1.0;" x1="51" x2="559" y1="376.8672" y2="376.8672"/><text fill="#000000" font-family="sans-serif" font-size="13" font-weight="bold" lengthAdjust="spacing" textLength="7" x="58" y="372.0107">5</text><text fill="#000000" font-family="sans-serif" font-size="13" lengthAdjust="spacing" textLength="162" x="69" y="372.0107">types requested data (price)</text><polygon fill="#181818" points="62,403.2188,52,407.2188,62,411.2188,58,407.2188" style="stroke:#181818;stroke-width:1.0;"/><line style="stroke:#181818;stroke-width:1.0;stroke-dasharray:2.0,2.0;" x1="56" x2="569" y1="407.2188" y2="407.2188"/><text fill="#000000" font-family="sans-serif" font-size="13" font-weight="bold" lengthAdjust="spacing" textLength="7" x="68" y="402.3623">6</text><text fill="#000000" font-family="sans-serif" font-size="13" lengthAdjust="spacing" textLength="129" x="79" y="402.3623">requests Owner's data</text><polygon fill="#181818" points="553,456.9219,563,460.9219,553,464.9219,557,460.9219" style="stroke:#181818;stroke-width:1.0;"/><line style="stroke:#181818;stroke-width:1.0;" x1="51" x2="559" y1="460.9219" y2="460.9219"/><text fill="#000000" font-family="sans-serif" font-size="13" font-weight="bold" lengthAdjust="spacing" textLength="7" x="58" y="447.8896">7</text><text fill="#000000" font-family="sans-serif" font-size="13" lengthAdjust="spacing" textLength="484" x="69" y="439.7139">types requested data (name, citizen's card number, tax number, *Owner's address*,</text><text fill="#000000" font-family="sans-serif" font-size="13" lengthAdjust="spacing" textLength="437" x="73" y="456.0654">email address, telephone number, location, distance from City Center, area)</text><polygon fill="#181818" points="62,487.2734,52,491.2734,62,495.2734,58,491.2734" style="stroke:#181818;stroke-width:1.0;"/><line style="stroke:#181818;stroke-width:1.0;stroke-dasharray:2.0,2.0;" x1="56" x2="569" y1="491.2734" y2="491.2734"/><text fill="#000000" font-family="sans-serif" font-size="13" font-weight="bold" lengthAdjust="spacing" textLength="7" x="68" y="486.417">8</text><text fill="#000000" font-family="sans-serif" font-size="13" lengthAdjust="spacing" textLength="137" x="79" y="486.417">requests data (pictures)</text><polygon fill="#181818" points="553,517.625,563,521.625,553,525.625,557,521.625" style="stroke:#181818;stroke-width:1.0;"/><line style="stroke:#181818;stroke-width:1.0;" x1="51" x2="559" y1="521.625" y2="521.625"/><text fill="#000000" font-family="sans-serif" font-size="13" font-weight="bold" lengthAdjust="spacing" textLength="7" x="58" y="516.7686">9</text><text fill="#000000" font-family="sans-serif" font-size="13" lengthAdjust="spacing" textLength="315" x="69" y="516.7686">imports/uploads requested data (photographs/pictures)</text><polygon fill="#181818" points="62,547.9766,52,551.9766,62,555.9766,58,551.9766" style="stroke:#181818;stroke-width:1.0;"/><line style="stroke:#181818;stroke-width:1.0;stroke-dasharray:2.0,2.0;" x1="56" x2="569" y1="551.9766" y2="551.9766"/><text fill="#000000" font-family="sans-serif" font-size="13" font-weight="bold" lengthAdjust="spacing" textLength="14" x="68" y="547.1201">10</text><text fill="#000000" font-family="sans-serif" font-size="13" lengthAdjust="spacing" textLength="126" x="86" y="547.1201">shows property's type</text><polygon fill="#181818" points="553,578.3281,563,582.3281,553,586.3281,557,582.3281" style="stroke:#181818;stroke-width:1.0;"/><line style="stroke:#181818;stroke-width:1.0;" x1="51" x2="559" y1="582.3281" y2="582.3281"/><text fill="#000000" font-family="sans-serif" font-size="13" font-weight="bold" lengthAdjust="spacing" textLength="14" x="58" y="577.4717">11</text><text fill="#000000" font-family="sans-serif" font-size="13" lengthAdjust="spacing" textLength="142" x="76" y="577.4717">selects a property's type</text><polygon fill="#181818" points="62,608.6797,52,612.6797,62,616.6797,58,612.6797" style="stroke:#181818;stroke-width:1.0;"/><line style="stroke:#181818;stroke-width:1.0;stroke-dasharray:2.0,2.0;" x1="56" x2="569" y1="612.6797" y2="612.6797"/><text fill="#000000" font-family="sans-serif" font-size="13" font-weight="bold" lengthAdjust="spacing" textLength="14" x="68" y="607.8232">12</text><text fill="#000000" font-family="sans-serif" font-size="13" lengthAdjust="spacing" textLength="72" x="86" y="607.8232">request data</text><path d="M10,627.6797 L71,627.6797 L71,636.0313 L61,646.0313 L10,646.0313 L10,627.6797 " fill="#EEEEEE" style="stroke:#000000;stroke-width:1.5;"/><rect fill="none" height="248.4844" style="stroke:#000000;stroke-width:1.5;" width="604" x="10" y="627.6797"/><text fill="#000000" font-family="sans-serif" font-size="13" font-weight="bold" lengthAdjust="spacing" textLength="16" x="25" y="642.1748">alt</text><text fill="#000000" font-family="sans-serif" font-size="11" font-weight="bold" lengthAdjust="spacing" textLength="67" x="86" y="641.0986">[Apartment]</text><polygon fill="#181818" points="553,664.3828,563,668.3828,553,672.3828,557,668.3828" style="stroke:#181818;stroke-width:1.0;"/><line style="stroke:#181818;stroke-width:1.0;" x1="51" x2="559" y1="668.3828" y2="668.3828"/><text fill="#000000" font-family="sans-serif" font-size="13" font-weight="bold" lengthAdjust="spacing" textLength="14" x="58" y="663.5264">13</text><text fill="#000000" font-family="sans-serif" font-size="13" lengthAdjust="spacing" textLength="458" x="76" y="663.5264">selects requested data (bedrooms, bathrooms, central heating, air conditioning)</text><polygon fill="#181818" points="62,694.7344,52,698.7344,62,702.7344,58,698.7344" style="stroke:#181818;stroke-width:1.0;"/><line style="stroke:#181818;stroke-width:1.0;stroke-dasharray:2.0,2.0;" x1="56" x2="569" y1="698.7344" y2="698.7344"/><text fill="#000000" font-family="sans-serif" font-size="13" font-weight="bold" lengthAdjust="spacing" textLength="14" x="68" y="693.8779">14</text><text fill="#000000" font-family="sans-serif" font-size="13" lengthAdjust="spacing" textLength="154" x="86" y="693.8779">request agency's selection</text><line style="stroke:#000000;stroke-width:1.0;stroke-dasharray:2.0,2.0;" x1="10" x2="614" y1="707.7344" y2="707.7344"/><text fill="#000000" font-family="sans-serif" font-size="11" font-weight="bold" lengthAdjust="spacing" textLength="43" x="15" y="719.1533">[House]</text><polygon fill="#181818" points="553,757.2734,563,761.2734,553,765.2734,557,761.2734" style="stroke:#181818;stroke-width:1.0;"/><line style="stroke:#181818;stroke-width:1.0;" x1="51" x2="559" y1="761.2734" y2="761.2734"/><text fill="#000000" font-family="sans-serif" font-size="13" font-weight="bold" lengthAdjust="spacing" textLength="14" x="58" y="748.2412">13</text><text fill="#000000" font-family="sans-serif" font-size="13" lengthAdjust="spacing" textLength="458" x="76" y="740.0654">selects requested data (bedrooms, bathrooms, central heating, air conditioning,</text><text fill="#000000" font-family="sans-serif" font-size="13" lengthAdjust="spacing" textLength="238" x="80" y="756.417">basement, inhabitable loft, sun exposure)</text><polygon fill="#181818" points="62,787.625,52,791.625,62,795.625,58,791.625" style="stroke:#181818;stroke-width:1.0;"/><line style="stroke:#181818;stroke-width:1.0;stroke-dasharray:2.0,2.0;" x1="56" x2="569" y1="791.625" y2="791.625"/><text fill="#000000" font-family="sans-serif" font-size="13" font-weight="bold" lengthAdjust="spacing" textLength="14" x="68" y="786.7686">14</text><text fill="#000000" font-family="sans-serif" font-size="13" lengthAdjust="spacing" textLength="154" x="86" y="786.7686">request agency's selection</text><line style="stroke:#000000;stroke-width:1.0;stroke-dasharray:2.0,2.0;" x1="10" x2="614" y1="800.625" y2="800.625"/><text fill="#000000" font-family="sans-serif" font-size="11" font-weight="bold" lengthAdjust="spacing" textLength="35" x="15" y="812.0439">[Land]</text><polygon fill="#181818" points="62,833.8125,52,837.8125,62,841.8125,58,837.8125" style="stroke:#181818;stroke-width:1.0;"/><polygon fill="#181818" points="553,833.8125,563,837.8125,553,841.8125,557,837.8125" style="stroke:#181818;stroke-width:1.0;"/><line style="stroke:#181818;stroke-width:1.0;stroke-dasharray:2.0,2.0;" x1="56" x2="559" y1="837.8125" y2="837.8125"/><text fill="#000000" font-family="sans-serif" font-size="13" font-weight="bold" lengthAdjust="spacing" textLength="14" x="68" y="832.9561">13</text><text fill="#000000" font-family="sans-serif" font-size="13" lengthAdjust="spacing" textLength="245" x="86" y="832.9561">No data needed when selecting this option</text><polygon fill="#181818" points="62,864.1641,52,868.1641,62,872.1641,58,868.1641" style="stroke:#181818;stroke-width:1.0;"/><line style="stroke:#181818;stroke-width:1.0;stroke-dasharray:2.0,2.0;" x1="56" x2="569" y1="868.1641" y2="868.1641"/><text fill="#000000" font-family="sans-serif" font-size="13" font-weight="bold" lengthAdjust="spacing" textLength="14" x="68" y="863.3076">14</text><text fill="#000000" font-family="sans-serif" font-size="13" lengthAdjust="spacing" textLength="154" x="86" y="863.3076">request agency's selection</text><polygon fill="#181818" points="553,901.5156,563,905.5156,553,909.5156,557,905.5156" style="stroke:#181818;stroke-width:1.0;"/><line style="stroke:#181818;stroke-width:1.0;" x1="51" x2="559" y1="905.5156" y2="905.5156"/><text fill="#000000" font-family="sans-serif" font-size="13" font-weight="bold" lengthAdjust="spacing" textLength="14" x="58" y="900.6592">15</text><text fill="#000000" font-family="sans-serif" font-size="13" lengthAdjust="spacing" textLength="106" x="76" y="900.6592">selects an agency</text><polygon fill="#181818" points="62,931.8672,52,935.8672,62,939.8672,58,935.8672" style="stroke:#181818;stroke-width:1.0;"/><line style="stroke:#181818;stroke-width:1.0;stroke-dasharray:2.0,2.0;" x1="56" x2="569" y1="935.8672" y2="935.8672"/><text fill="#000000" font-family="sans-serif" font-size="13" font-weight="bold" lengthAdjust="spacing" textLength="14" x="68" y="931.0107">16</text><text fill="#000000" font-family="sans-serif" font-size="13" lengthAdjust="spacing" textLength="170" x="86" y="931.0107">shows list of agency's agents</text><polygon fill="#181818" points="553,962.2188,563,966.2188,553,970.2188,557,966.2188" style="stroke:#181818;stroke-width:1.0;"/><line style="stroke:#181818;stroke-width:1.0;" x1="51" x2="559" y1="966.2188" y2="966.2188"/><text fill="#000000" font-family="sans-serif" font-size="13" font-weight="bold" lengthAdjust="spacing" textLength="14" x="58" y="961.3623">17</text><text fill="#000000" font-family="sans-serif" font-size="13" lengthAdjust="spacing" textLength="96" x="76" y="961.3623">selects an agent</text><polygon fill="#181818" points="62,992.5703,52,996.5703,62,1000.5703,58,996.5703" style="stroke:#181818;stroke-width:1.0;"/><line style="stroke:#181818;stroke-width:1.0;stroke-dasharray:2.0,2.0;" x1="56" x2="569" y1="996.5703" y2="996.5703"/><text fill="#000000" font-family="sans-serif" font-size="13" font-weight="bold" lengthAdjust="spacing" textLength="14" x="68" y="991.7139">18</text><text fill="#000000" font-family="sans-serif" font-size="13" lengthAdjust="spacing" textLength="236" x="86" y="991.7139">shows all data and requests confirmation</text><polygon fill="#181818" points="553,1022.9219,563,1026.9219,553,1030.9219,557,1026.9219" style="stroke:#181818;stroke-width:1.0;"/><line style="stroke:#181818;stroke-width:1.0;" x1="51" x2="559" y1="1026.9219" y2="1026.9219"/><text fill="#000000" font-family="sans-serif" font-size="13" font-weight="bold" lengthAdjust="spacing" textLength="14" x="58" y="1022.0654">19</text><text fill="#000000" font-family="sans-serif" font-size="13" lengthAdjust="spacing" textLength="238" x="76" y="1022.0654">confirms data and submits created listing</text><polygon fill="#181818" points="62,1053.2734,52,1057.2734,62,1061.2734,58,1057.2734" style="stroke:#181818;stroke-width:1.0;"/><line style="stroke:#181818;stroke-width:1.0;stroke-dasharray:2.0,2.0;" x1="56" x2="569" y1="1057.2734" y2="1057.2734"/><text fill="#000000" font-family="sans-serif" font-size="13" font-weight="bold" lengthAdjust="spacing" textLength="14" x="68" y="1052.417">20</text><text fill="#000000" font-family="sans-serif" font-size="13" lengthAdjust="spacing" textLength="158" x="86" y="1052.417">displays operation success</text><!--SRC=[nLOzRzim4DtrAmvU4WSsagBDOWG1YcJe4BI3qQtBYJfRH2XI9Kzrt5_VexvifvBZ1cchYQB8T-y-tft2exObUYoWSDQftBk2W7r5IUY_bAWUSKrBtXe2JuhHhit-WP1ZvZRQhc659b2Ii6Ovkjm6fWAMzBqYgmZkDQxZyVFbyduAS_YwlBhwa2HOiRDLaPANjMBdONAJtdxPMF8tb-dj1310_PQ8DTPAbsYvFhDeBFIdcjSQHVz0flPQ0lBKIvZVTgmMSk4n03jGdk9P14iRC3gmE59VwM4wN6YV5c8kQ0tiGi8YJWOE7G3mjgJwGaQ3EB_p2MGajWC8h-AH8UEOVK50m_106AW7swK1hllDIOqxsV5SrBH2PuUosX2SUx8y0-KiUp5t9lOhZwoTdUuCZBdnp9NEvfupzSxPdbD70ajIWR14yrQUbLuh-lTUs6oiJePfMYn84g1P_oGhHXJw31glPy3urAylEXgOPPv2k9Xziq05QjFjo7afnJ9tblfRngawdJF8f3mnodablGBkD6_XJf8V3w4eQJfUiiUZqqPRAww4nFJFjAEBqdaEbrLf76O3ISmTEsa-PHuk3qsynBGJLiZT9a3fNKcUjnA-Nfwl4ZaEGfrAfdNlgCWZd8ZyOsoQXIGe6I_zFLxF0vTIvfqhf2PIvBnTAeeoDv1BuvHE9OdNFce_qx54PES4kHpnIcQDLJ4k3Ic1F4dpdrmLPy-0wj-zFoRxjtKzgYcLlbhK3L7R75FDcCeuD6ubEw4IjJsLBaW9_fSmFQ2qbjE2T3FV2zDdryJ54cKIeqrEjhCSXrMk0xZoWCLVT-gWKUwxSjtREg90snfxaUzeDuYJ6jngHpekE8oENJYL5B-YDQ4nJO8alxkkAgMvqhx0FfB7U0qrXXOWxB13bHOwGjV_JTdBlqo3VL_6I6bm6uk6cZy50LPAniy8pLy0]--></g></svg>