<?xml version="1.0" encoding="UTF-8" standalone="no"?><svg xmlns="http://www.w3.org/2000/svg" xmlns:xlink="http://www.w3.org/1999/xlink" contentStyleType="text/css" height="1409px" preserveAspectRatio="none" style="width:545px;height:1409px;background:#FFFFFF;" version="1.1" viewBox="0 0 545 1409" width="545px" zoomAndPan="magnify"><defs/><g><text fill="#000000" font-family="sans-serif" font-size="14" font-weight="bold" lengthAdjust="spacing" textLength="284" x="132" y="29.5332">System Sequence Diagram (SSD) - US004</text><rect fill="#FFFFFF" height="1177.7109" style="stroke:#181818;stroke-width:1.0;" width="10" x="61" y="131.2188"/><rect fill="#FFFFFF" height="30.3516" style="stroke:#181818;stroke-width:1.0;" width="10" x="470" y="153.5703"/><rect fill="#FFFFFF" height="30.3516" style="stroke:#181818;stroke-width:1.0;" width="10" x="470" y="230.625"/><rect fill="#FFFFFF" height="55.7031" style="stroke:#181818;stroke-width:1.0;" width="10" x="470" y="291.3281"/><rect fill="#FFFFFF" height="37.3516" style="stroke:#181818;stroke-width:1.0;" width="10" x="470" y="377.3828"/><rect fill="#FFFFFF" height="30.3516" style="stroke:#181818;stroke-width:1.0;" width="10" x="470" y="445.0859"/><rect fill="#FFFFFF" height="30.3516" style="stroke:#181818;stroke-width:1.0;" width="10" x="470" y="531.1406"/><rect fill="#FFFFFF" height="55.7031" style="stroke:#181818;stroke-width:1.0;" width="10" x="470" y="591.8438"/><rect fill="#FFFFFF" height="62.7031" style="stroke:#181818;stroke-width:1.0;" width="10" x="470" y="677.8984"/><rect fill="#FFFFFF" height="37.3516" style="stroke:#181818;stroke-width:1.0;" width="10" x="470" y="796.3047"/><rect fill="#FFFFFF" height="30.3516" style="stroke:#181818;stroke-width:1.0;" width="10" x="470" y="896.3594"/><rect fill="#FFFFFF" height="37.3516" style="stroke:#181818;stroke-width:1.0;" width="10" x="470" y="982.4141"/><rect fill="#FFFFFF" height="37.3516" style="stroke:#181818;stroke-width:1.0;" width="10" x="470" y="1089.4688"/><rect fill="#FFFFFF" height="30.3516" style="stroke:#181818;stroke-width:1.0;" width="10" x="470" y="1157.1719"/><rect fill="#FFFFFF" height="30.3516" style="stroke:#181818;stroke-width:1.0;" width="10" x="470" y="1217.875"/><rect fill="#FFFFFF" height="30.3516" style="stroke:#181818;stroke-width:1.0;" width="10" x="470" y="1278.5781"/><rect fill="none" height="79.0547" style="stroke:#000000;stroke-width:1.5;" width="489" x="30" y="306.3281"/><rect fill="none" height="544.3281" style="stroke:#000000;stroke-width:1.5;" width="529" x="10" y="490.4375"/><rect fill="none" height="79.0547" style="stroke:#000000;stroke-width:1.5;" width="489" x="30" y="606.8438"/><rect fill="none" height="141.7578" style="stroke:#000000;stroke-width:1.5;" width="509" x="20" y="699.8984"/><rect fill="none" height="48.7031" style="stroke:#000000;stroke-width:1.5;" width="489" x="30" y="755.6016"/><rect fill="none" height="172.1094" style="stroke:#000000;stroke-width:1.5;" width="509" x="20" y="855.6563"/><rect fill="none" height="48.7031" style="stroke:#000000;stroke-width:1.5;" width="489" x="30" y="941.7109"/><rect fill="none" height="48.7031" style="stroke:#000000;stroke-width:1.5;" width="489" x="30" y="1048.7656"/><line style="stroke:#181818;stroke-width:0.5;stroke-dasharray:5.0,5.0;" x1="66" x2="66" y1="121.2188" y2="1326.9297"/><line style="stroke:#181818;stroke-width:0.5;stroke-dasharray:5.0,5.0;" x1="475" x2="475" y1="121.2188" y2="1326.9297"/><text fill="#000000" font-family="sans-serif" font-size="14" font-weight="bold" lengthAdjust="spacing" textLength="46" x="40" y="118.1426">Owner</text><ellipse cx="66" cy="52.1094" fill="#E3E3E3" rx="8" ry="8" style="stroke:#181818;stroke-width:0.5;"/><path d="M66,60.1094 L66,87.1094 M53,68.1094 L79,68.1094 M66,87.1094 L53,102.1094 M66,87.1094 L79,102.1094 " fill="none" style="stroke:#181818;stroke-width:0.5;"/><text fill="#000000" font-family="sans-serif" font-size="14" font-weight="bold" lengthAdjust="spacing" textLength="46" x="40" y="1340.4629">Owner</text><ellipse cx="66" cy="1352.0391" fill="#E3E3E3" rx="8" ry="8" style="stroke:#181818;stroke-width:0.5;"/><path d="M66,1360.0391 L66,1387.0391 M53,1368.0391 L79,1368.0391 M66,1387.0391 L53,1402.0391 M66,1387.0391 L79,1402.0391 " fill="none" style="stroke:#181818;stroke-width:0.5;"/><rect fill="#E3E3E3" height="31.6094" rx="2.5" ry="2.5" style="stroke:#181818;stroke-width:0.5;" width="68" x="441" y="88.6094"/><text fill="#000000" font-family="sans-serif" font-size="14" font-weight="bold" lengthAdjust="spacing" textLength="54" x="448" y="110.1426">:System</text><rect fill="#E3E3E3" height="31.6094" rx="2.5" ry="2.5" style="stroke:#181818;stroke-width:0.5;" width="68" x="441" y="1325.9297"/><text fill="#000000" font-family="sans-serif" font-size="14" font-weight="bold" lengthAdjust="spacing" textLength="54" x="448" y="1347.4629">:System</text><rect fill="#FFFFFF" height="1177.7109" style="stroke:#181818;stroke-width:1.0;" width="10" x="61" y="131.2188"/><rect fill="#FFFFFF" height="30.3516" style="stroke:#181818;stroke-width:1.0;" width="10" x="470" y="153.5703"/><rect fill="#FFFFFF" height="30.3516" style="stroke:#181818;stroke-width:1.0;" width="10" x="470" y="230.625"/><rect fill="#FFFFFF" height="55.7031" style="stroke:#181818;stroke-width:1.0;" width="10" x="470" y="291.3281"/><rect fill="#FFFFFF" height="37.3516" style="stroke:#181818;stroke-width:1.0;" width="10" x="470" y="377.3828"/><rect fill="#FFFFFF" height="30.3516" style="stroke:#181818;stroke-width:1.0;" width="10" x="470" y="445.0859"/><rect fill="#FFFFFF" height="30.3516" style="stroke:#181818;stroke-width:1.0;" width="10" x="470" y="531.1406"/><rect fill="#FFFFFF" height="55.7031" style="stroke:#181818;stroke-width:1.0;" width="10" x="470" y="591.8438"/><rect fill="#FFFFFF" height="62.7031" style="stroke:#181818;stroke-width:1.0;" width="10" x="470" y="677.8984"/><rect fill="#FFFFFF" height="37.3516" style="stroke:#181818;stroke-width:1.0;" width="10" x="470" y="796.3047"/><rect fill="#FFFFFF" height="30.3516" style="stroke:#181818;stroke-width:1.0;" width="10" x="470" y="896.3594"/><rect fill="#FFFFFF" height="37.3516" style="stroke:#181818;stroke-width:1.0;" width="10" x="470" y="982.4141"/><rect fill="#FFFFFF" height="37.3516" style="stroke:#181818;stroke-width:1.0;" width="10" x="470" y="1089.4688"/><rect fill="#FFFFFF" height="30.3516" style="stroke:#181818;stroke-width:1.0;" width="10" x="470" y="1157.1719"/><rect fill="#FFFFFF" height="30.3516" style="stroke:#181818;stroke-width:1.0;" width="10" x="470" y="1217.875"/><rect fill="#FFFFFF" height="30.3516" style="stroke:#181818;stroke-width:1.0;" width="10" x="470" y="1278.5781"/><polygon fill="#181818" points="458,149.5703,468,153.5703,458,157.5703,462,153.5703" style="stroke:#181818;stroke-width:1.0;"/><line style="stroke:#181818;stroke-width:1.0;" x1="71" x2="464" y1="153.5703" y2="153.5703"/><text fill="#000000" font-family="sans-serif" font-size="13" font-weight="bold" lengthAdjust="spacing" textLength="7" x="78" y="148.7139">1</text><text fill="#000000" font-family="sans-serif" font-size="13" lengthAdjust="spacing" textLength="173" x="89" y="148.7139">asks to create a new Request</text><polygon fill="#181818" points="82,179.9219,72,183.9219,82,187.9219,78,183.9219" style="stroke:#181818;stroke-width:1.0;"/><line style="stroke:#181818;stroke-width:1.0;stroke-dasharray:2.0,2.0;" x1="76" x2="474" y1="183.9219" y2="183.9219"/><text fill="#000000" font-family="sans-serif" font-size="13" font-weight="bold" lengthAdjust="spacing" textLength="7" x="88" y="179.0654">2</text><text fill="#000000" font-family="sans-serif" font-size="13" lengthAdjust="spacing" textLength="79" x="99" y="179.0654">requests data</text><polygon fill="#181818" points="458,226.625,468,230.625,458,234.625,462,230.625" style="stroke:#181818;stroke-width:1.0;"/><line style="stroke:#181818;stroke-width:1.0;" x1="71" x2="464" y1="230.625" y2="230.625"/><text fill="#000000" font-family="sans-serif" font-size="13" font-weight="bold" lengthAdjust="spacing" textLength="7" x="78" y="217.5928">3</text><text fill="#000000" font-family="sans-serif" font-size="13" lengthAdjust="spacing" textLength="328" x="89" y="209.417">types requested data (amount, area, distanceCityCenter,</text><text fill="#000000" font-family="sans-serif" font-size="13" lengthAdjust="spacing" textLength="239" x="93" y="225.7686">streetName, city, district, state, zipCode)</text><polygon fill="#181818" points="82,256.9766,72,260.9766,82,264.9766,78,260.9766" style="stroke:#181818;stroke-width:1.0;"/><line style="stroke:#181818;stroke-width:1.0;stroke-dasharray:2.0,2.0;" x1="76" x2="474" y1="260.9766" y2="260.9766"/><text fill="#000000" font-family="sans-serif" font-size="13" font-weight="bold" lengthAdjust="spacing" textLength="7" x="88" y="256.1201">4</text><text fill="#000000" font-family="sans-serif" font-size="13" lengthAdjust="spacing" textLength="286" x="99" y="256.1201">shows business types list and asks to select one</text><polygon fill="#181818" points="458,287.3281,468,291.3281,458,295.3281,462,291.3281" style="stroke:#181818;stroke-width:1.0;"/><line style="stroke:#181818;stroke-width:1.0;" x1="71" x2="464" y1="291.3281" y2="291.3281"/><text fill="#000000" font-family="sans-serif" font-size="13" font-weight="bold" lengthAdjust="spacing" textLength="7" x="78" y="286.4717">5</text><text fill="#000000" font-family="sans-serif" font-size="13" lengthAdjust="spacing" textLength="138" x="89" y="286.4717">selects a business type</text><path d="M30,306.3281 L91,306.3281 L91,314.6797 L81,324.6797 L30,324.6797 L30,306.3281 " fill="#EEEEEE" style="stroke:#000000;stroke-width:1.5;"/><rect fill="none" height="79.0547" style="stroke:#000000;stroke-width:1.5;" width="489" x="30" y="306.3281"/><text fill="#000000" font-family="sans-serif" font-size="13" font-weight="bold" lengthAdjust="spacing" textLength="16" x="45" y="320.8232">alt</text><text fill="#000000" font-family="sans-serif" font-size="11" font-weight="bold" lengthAdjust="spacing" textLength="42" x="106" y="319.7471">[Lease]</text><polygon fill="#181818" points="82,343.0313,72,347.0313,82,351.0313,78,347.0313" style="stroke:#181818;stroke-width:1.0;"/><line style="stroke:#181818;stroke-width:1.0;stroke-dasharray:2.0,2.0;" x1="76" x2="474" y1="347.0313" y2="347.0313"/><text fill="#000000" font-family="sans-serif" font-size="13" font-weight="bold" lengthAdjust="spacing" textLength="18" x="88" y="342.1748">5.1</text><text fill="#000000" font-family="sans-serif" font-size="13" lengthAdjust="spacing" textLength="79" x="110" y="342.1748">requests data</text><polygon fill="#181818" points="458,373.3828,468,377.3828,458,381.3828,462,377.3828" style="stroke:#181818;stroke-width:1.0;"/><line style="stroke:#181818;stroke-width:1.0;" x1="71" x2="464" y1="377.3828" y2="377.3828"/><text fill="#000000" font-family="sans-serif" font-size="13" font-weight="bold" lengthAdjust="spacing" textLength="18" x="78" y="372.5264">5.2</text><text fill="#000000" font-family="sans-serif" font-size="13" lengthAdjust="spacing" textLength="229" x="100" y="372.5264">types requested data (contractDuration)</text><polygon fill="#181818" points="82,410.7344,72,414.7344,82,418.7344,78,414.7344" style="stroke:#181818;stroke-width:1.0;"/><line style="stroke:#181818;stroke-width:1.0;stroke-dasharray:2.0,2.0;" x1="76" x2="474" y1="414.7344" y2="414.7344"/><text fill="#000000" font-family="sans-serif" font-size="13" font-weight="bold" lengthAdjust="spacing" textLength="7" x="88" y="409.8779">6</text><text fill="#000000" font-family="sans-serif" font-size="13" lengthAdjust="spacing" textLength="281" x="99" y="409.8779">shows property types list and asks to select one</text><polygon fill="#181818" points="458,441.0859,468,445.0859,458,449.0859,462,445.0859" style="stroke:#181818;stroke-width:1.0;"/><line style="stroke:#181818;stroke-width:1.0;" x1="71" x2="464" y1="445.0859" y2="445.0859"/><text fill="#000000" font-family="sans-serif" font-size="13" font-weight="bold" lengthAdjust="spacing" textLength="7" x="78" y="440.2295">7</text><text fill="#000000" font-family="sans-serif" font-size="13" lengthAdjust="spacing" textLength="133" x="89" y="440.2295">selects a property type</text><polygon fill="#181818" points="82,471.4375,72,475.4375,82,479.4375,78,475.4375" style="stroke:#181818;stroke-width:1.0;"/><line style="stroke:#181818;stroke-width:1.0;stroke-dasharray:2.0,2.0;" x1="76" x2="474" y1="475.4375" y2="475.4375"/><text fill="#000000" font-family="sans-serif" font-size="13" font-weight="bold" lengthAdjust="spacing" textLength="7" x="88" y="470.5811">8</text><text fill="#000000" font-family="sans-serif" font-size="13" lengthAdjust="spacing" textLength="79" x="99" y="470.5811">requests data</text><path d="M10,490.4375 L71,490.4375 L71,498.7891 L61,508.7891 L10,508.7891 L10,490.4375 " fill="#EEEEEE" style="stroke:#000000;stroke-width:1.5;"/><rect fill="none" height="544.3281" style="stroke:#000000;stroke-width:1.5;" width="529" x="10" y="490.4375"/><text fill="#000000" font-family="sans-serif" font-size="13" font-weight="bold" lengthAdjust="spacing" textLength="16" x="25" y="504.9326">alt</text><text fill="#000000" font-family="sans-serif" font-size="11" font-weight="bold" lengthAdjust="spacing" textLength="210" x="86" y="503.8564">[Property Type = House or Apartment]</text><polygon fill="#181818" points="458,527.1406,468,531.1406,458,535.1406,462,531.1406" style="stroke:#181818;stroke-width:1.0;"/><line style="stroke:#181818;stroke-width:1.0;" x1="71" x2="464" y1="531.1406" y2="531.1406"/><text fill="#000000" font-family="sans-serif" font-size="13" font-weight="bold" lengthAdjust="spacing" textLength="7" x="78" y="526.2842">9</text><text fill="#000000" font-family="sans-serif" font-size="13" lengthAdjust="spacing" textLength="223" x="89" y="526.2842">selects requested data (parkingSpace)</text><polygon fill="#181818" points="82,557.4922,72,561.4922,82,565.4922,78,561.4922" style="stroke:#181818;stroke-width:1.0;"/><line style="stroke:#181818;stroke-width:1.0;stroke-dasharray:2.0,2.0;" x1="76" x2="474" y1="561.4922" y2="561.4922"/><text fill="#000000" font-family="sans-serif" font-size="13" font-weight="bold" lengthAdjust="spacing" textLength="14" x="88" y="556.6357">10</text><text fill="#000000" font-family="sans-serif" font-size="13" lengthAdjust="spacing" textLength="79" x="106" y="556.6357">requests data</text><polygon fill="#181818" points="458,587.8438,468,591.8438,458,595.8438,462,591.8438" style="stroke:#181818;stroke-width:1.0;"/><line style="stroke:#181818;stroke-width:1.0;" x1="71" x2="464" y1="591.8438" y2="591.8438"/><text fill="#000000" font-family="sans-serif" font-size="13" font-weight="bold" lengthAdjust="spacing" textLength="14" x="78" y="586.9873">11</text><text fill="#000000" font-family="sans-serif" font-size="13" lengthAdjust="spacing" textLength="229" x="96" y="586.9873">types requested data (numberBedroom)</text><path d="M30,606.8438 L95,606.8438 L95,615.1953 L85,625.1953 L30,625.1953 L30,606.8438 " fill="#EEEEEE" style="stroke:#000000;stroke-width:1.5;"/><rect fill="none" height="79.0547" style="stroke:#000000;stroke-width:1.5;" width="489" x="30" y="606.8438"/><text fill="#000000" font-family="sans-serif" font-size="13" font-weight="bold" lengthAdjust="spacing" textLength="20" x="45" y="621.3389">opt</text><text fill="#000000" font-family="sans-serif" font-size="11" font-weight="bold" lengthAdjust="spacing" textLength="130" x="110" y="620.2627">[number of bathrooms]</text><polygon fill="#181818" points="82,643.5469,72,647.5469,82,651.5469,78,647.5469" style="stroke:#181818;stroke-width:1.0;"/><line style="stroke:#181818;stroke-width:1.0;stroke-dasharray:2.0,2.0;" x1="76" x2="474" y1="647.5469" y2="647.5469"/><text fill="#000000" font-family="sans-serif" font-size="13" font-weight="bold" lengthAdjust="spacing" textLength="14" x="88" y="642.6904">12</text><text fill="#000000" font-family="sans-serif" font-size="13" lengthAdjust="spacing" textLength="79" x="106" y="642.6904">requests data</text><polygon fill="#181818" points="458,673.8984,468,677.8984,458,681.8984,462,677.8984" style="stroke:#181818;stroke-width:1.0;"/><line style="stroke:#181818;stroke-width:1.0;" x1="71" x2="464" y1="677.8984" y2="677.8984"/><text fill="#000000" font-family="sans-serif" font-size="13" font-weight="bold" lengthAdjust="spacing" textLength="14" x="78" y="673.042">13</text><text fill="#000000" font-family="sans-serif" font-size="13" lengthAdjust="spacing" textLength="233" x="96" y="673.042">types requested data (numberBathroom)</text><path d="M20,699.8984 L85,699.8984 L85,708.25 L75,718.25 L20,718.25 L20,699.8984 " fill="#EEEEEE" style="stroke:#000000;stroke-width:1.5;"/><rect fill="none" height="141.7578" style="stroke:#000000;stroke-width:1.5;" width="509" x="20" y="699.8984"/><text fill="#000000" font-family="sans-serif" font-size="13" font-weight="bold" lengthAdjust="spacing" textLength="20" x="35" y="714.3936">opt</text><text fill="#000000" font-family="sans-serif" font-size="11" font-weight="bold" lengthAdjust="spacing" textLength="159" x="100" y="713.3174">[list of available equipments]</text><polygon fill="#181818" points="82,736.6016,72,740.6016,82,744.6016,78,740.6016" style="stroke:#181818;stroke-width:1.0;"/><line style="stroke:#181818;stroke-width:1.0;stroke-dasharray:2.0,2.0;" x1="76" x2="474" y1="740.6016" y2="740.6016"/><text fill="#000000" font-family="sans-serif" font-size="13" font-weight="bold" lengthAdjust="spacing" textLength="14" x="88" y="735.7451">14</text><text fill="#000000" font-family="sans-serif" font-size="13" lengthAdjust="spacing" textLength="72" x="106" y="735.7451">request data</text><path d="M30,755.6016 L103,755.6016 L103,763.9531 L93,773.9531 L30,773.9531 L30,755.6016 " fill="#EEEEEE" style="stroke:#000000;stroke-width:1.5;"/><rect fill="none" height="48.7031" style="stroke:#000000;stroke-width:1.5;" width="489" x="30" y="755.6016"/><text fill="#000000" font-family="sans-serif" font-size="13" font-weight="bold" lengthAdjust="spacing" textLength="28" x="45" y="770.0967">loop</text><text fill="#000000" font-family="sans-serif" font-size="11" font-weight="bold" lengthAdjust="spacing" textLength="114" x="118" y="769.0205">[availableEquipment]</text><polygon fill="#181818" points="458,792.3047,468,796.3047,458,800.3047,462,796.3047" style="stroke:#181818;stroke-width:1.0;"/><line style="stroke:#181818;stroke-width:1.0;" x1="71" x2="464" y1="796.3047" y2="796.3047"/><text fill="#000000" font-family="sans-serif" font-size="13" font-weight="bold" lengthAdjust="spacing" textLength="14" x="78" y="791.4482">15</text><text fill="#000000" font-family="sans-serif" font-size="13" lengthAdjust="spacing" textLength="245" x="96" y="791.4482">types requested data (availableEquipment)</text><polygon fill="#181818" points="82,829.6563,72,833.6563,82,837.6563,78,833.6563" style="stroke:#181818;stroke-width:1.0;"/><line style="stroke:#181818;stroke-width:1.0;stroke-dasharray:2.0,2.0;" x1="76" x2="474" y1="833.6563" y2="833.6563"/><text fill="#000000" font-family="sans-serif" font-size="13" font-weight="bold" lengthAdjust="spacing" textLength="14" x="88" y="828.7998">16</text><text fill="#000000" font-family="sans-serif" font-size="13" lengthAdjust="spacing" textLength="79" x="106" y="828.7998">requests data</text><path d="M20,855.6563 L81,855.6563 L81,864.0078 L71,874.0078 L20,874.0078 L20,855.6563 " fill="#EEEEEE" style="stroke:#000000;stroke-width:1.5;"/><rect fill="none" height="172.1094" style="stroke:#000000;stroke-width:1.5;" width="509" x="20" y="855.6563"/><text fill="#000000" font-family="sans-serif" font-size="13" font-weight="bold" lengthAdjust="spacing" textLength="16" x="35" y="870.1514">alt</text><text fill="#000000" font-family="sans-serif" font-size="11" font-weight="bold" lengthAdjust="spacing" textLength="133" x="96" y="869.0752">[Property Type = House]</text><polygon fill="#181818" points="458,892.3594,468,896.3594,458,900.3594,462,896.3594" style="stroke:#181818;stroke-width:1.0;"/><line style="stroke:#181818;stroke-width:1.0;" x1="71" x2="464" y1="896.3594" y2="896.3594"/><text fill="#000000" font-family="sans-serif" font-size="13" font-weight="bold" lengthAdjust="spacing" textLength="14" x="78" y="891.5029">17</text><text fill="#000000" font-family="sans-serif" font-size="13" lengthAdjust="spacing" textLength="292" x="96" y="891.5029">selects requested data (basement, inhabitableLoft)</text><polygon fill="#181818" points="82,922.7109,72,926.7109,82,930.7109,78,926.7109" style="stroke:#181818;stroke-width:1.0;"/><line style="stroke:#181818;stroke-width:1.0;stroke-dasharray:2.0,2.0;" x1="76" x2="474" y1="926.7109" y2="926.7109"/><text fill="#000000" font-family="sans-serif" font-size="13" font-weight="bold" lengthAdjust="spacing" textLength="14" x="88" y="921.8545">18</text><text fill="#000000" font-family="sans-serif" font-size="13" lengthAdjust="spacing" textLength="79" x="106" y="921.8545">requests data</text><path d="M30,941.7109 L95,941.7109 L95,950.0625 L85,960.0625 L30,960.0625 L30,941.7109 " fill="#EEEEEE" style="stroke:#000000;stroke-width:1.5;"/><rect fill="none" height="48.7031" style="stroke:#000000;stroke-width:1.5;" width="489" x="30" y="941.7109"/><text fill="#000000" font-family="sans-serif" font-size="13" font-weight="bold" lengthAdjust="spacing" textLength="20" x="45" y="956.2061">opt</text><text fill="#000000" font-family="sans-serif" font-size="11" font-weight="bold" lengthAdjust="spacing" textLength="151" x="110" y="955.1299">[direction of sun exposure]</text><polygon fill="#181818" points="458,978.4141,468,982.4141,458,986.4141,462,982.4141" style="stroke:#181818;stroke-width:1.0;"/><line style="stroke:#181818;stroke-width:1.0;" x1="71" x2="464" y1="982.4141" y2="982.4141"/><text fill="#000000" font-family="sans-serif" font-size="13" font-weight="bold" lengthAdjust="spacing" textLength="14" x="78" y="977.5576">19</text><text fill="#000000" font-family="sans-serif" font-size="13" lengthAdjust="spacing" textLength="220" x="96" y="977.5576">selects requested data (sunExposure)</text><polygon fill="#181818" points="82,1015.7656,72,1019.7656,82,1023.7656,78,1019.7656" style="stroke:#181818;stroke-width:1.0;"/><line style="stroke:#181818;stroke-width:1.0;stroke-dasharray:2.0,2.0;" x1="76" x2="474" y1="1019.7656" y2="1019.7656"/><text fill="#000000" font-family="sans-serif" font-size="13" font-weight="bold" lengthAdjust="spacing" textLength="14" x="88" y="1014.9092">20</text><text fill="#000000" font-family="sans-serif" font-size="13" lengthAdjust="spacing" textLength="79" x="106" y="1014.9092">requests data</text><path d="M30,1048.7656 L103,1048.7656 L103,1057.1172 L93,1067.1172 L30,1067.1172 L30,1048.7656 " fill="#EEEEEE" style="stroke:#000000;stroke-width:1.5;"/><rect fill="none" height="48.7031" style="stroke:#000000;stroke-width:1.5;" width="489" x="30" y="1048.7656"/><text fill="#000000" font-family="sans-serif" font-size="13" font-weight="bold" lengthAdjust="spacing" textLength="28" x="45" y="1063.2607">loop</text><text fill="#000000" font-family="sans-serif" font-size="11" font-weight="bold" lengthAdjust="spacing" textLength="108" x="118" y="1062.1846">[min = 1 &amp; max = 30]</text><polygon fill="#181818" points="458,1085.4688,468,1089.4688,458,1093.4688,462,1089.4688" style="stroke:#181818;stroke-width:1.0;"/><line style="stroke:#181818;stroke-width:1.0;" x1="71" x2="464" y1="1089.4688" y2="1089.4688"/><text fill="#000000" font-family="sans-serif" font-size="13" font-weight="bold" lengthAdjust="spacing" textLength="7" x="78" y="1084.6123">9</text><text fill="#000000" font-family="sans-serif" font-size="13" lengthAdjust="spacing" textLength="148" x="89" y="1084.6123">types requested data (uri)</text><polygon fill="#181818" points="82,1122.8203,72,1126.8203,82,1130.8203,78,1126.8203" style="stroke:#181818;stroke-width:1.0;"/><line style="stroke:#181818;stroke-width:1.0;stroke-dasharray:2.0,2.0;" x1="76" x2="474" y1="1126.8203" y2="1126.8203"/><text fill="#000000" font-family="sans-serif" font-size="13" font-weight="bold" lengthAdjust="spacing" textLength="14" x="88" y="1121.9639">10</text><text fill="#000000" font-family="sans-serif" font-size="13" lengthAdjust="spacing" textLength="264" x="106" y="1121.9639">shows list of agencies and asks to select one</text><polygon fill="#181818" points="458,1153.1719,468,1157.1719,458,1161.1719,462,1157.1719" style="stroke:#181818;stroke-width:1.0;"/><line style="stroke:#181818;stroke-width:1.0;" x1="71" x2="464" y1="1157.1719" y2="1157.1719"/><text fill="#000000" font-family="sans-serif" font-size="13" font-weight="bold" lengthAdjust="spacing" textLength="14" x="78" y="1152.3154">11</text><text fill="#000000" font-family="sans-serif" font-size="13" lengthAdjust="spacing" textLength="108" x="96" y="1152.3154">selects an Agency</text><polygon fill="#181818" points="82,1183.5234,72,1187.5234,82,1191.5234,78,1187.5234" style="stroke:#181818;stroke-width:1.0;"/><line style="stroke:#181818;stroke-width:1.0;stroke-dasharray:2.0,2.0;" x1="76" x2="474" y1="1187.5234" y2="1187.5234"/><text fill="#000000" font-family="sans-serif" font-size="13" font-weight="bold" lengthAdjust="spacing" textLength="14" x="88" y="1182.667">12</text><text fill="#000000" font-family="sans-serif" font-size="13" lengthAdjust="spacing" textLength="357" x="106" y="1182.667">shows list of agents in chosen agency and asks to select one</text><polygon fill="#181818" points="458,1213.875,468,1217.875,458,1221.875,462,1217.875" style="stroke:#181818;stroke-width:1.0;"/><line style="stroke:#181818;stroke-width:1.0;" x1="71" x2="464" y1="1217.875" y2="1217.875"/><text fill="#000000" font-family="sans-serif" font-size="13" font-weight="bold" lengthAdjust="spacing" textLength="14" x="78" y="1213.0186">13</text><text fill="#000000" font-family="sans-serif" font-size="13" lengthAdjust="spacing" textLength="96" x="96" y="1213.0186">selects an agent</text><polygon fill="#181818" points="82,1244.2266,72,1248.2266,82,1252.2266,78,1248.2266" style="stroke:#181818;stroke-width:1.0;"/><line style="stroke:#181818;stroke-width:1.0;stroke-dasharray:2.0,2.0;" x1="76" x2="474" y1="1248.2266" y2="1248.2266"/><text fill="#000000" font-family="sans-serif" font-size="13" font-weight="bold" lengthAdjust="spacing" textLength="14" x="88" y="1243.3701">14</text><text fill="#000000" font-family="sans-serif" font-size="13" lengthAdjust="spacing" textLength="232" x="106" y="1243.3701">shows all data and asks for confirmation</text><polygon fill="#181818" points="458,1274.5781,468,1278.5781,458,1282.5781,462,1278.5781" style="stroke:#181818;stroke-width:1.0;"/><line style="stroke:#181818;stroke-width:1.0;" x1="71" x2="464" y1="1278.5781" y2="1278.5781"/><text fill="#000000" font-family="sans-serif" font-size="13" font-weight="bold" lengthAdjust="spacing" textLength="14" x="78" y="1273.7217">15</text><text fill="#000000" font-family="sans-serif" font-size="13" lengthAdjust="spacing" textLength="75" x="96" y="1273.7217">submits data</text><polygon fill="#181818" points="77,1304.9297,67,1308.9297,77,1312.9297,73,1308.9297" style="stroke:#181818;stroke-width:1.0;"/><line style="stroke:#181818;stroke-width:1.0;stroke-dasharray:2.0,2.0;" x1="71" x2="474" y1="1308.9297" y2="1308.9297"/><text fill="#000000" font-family="sans-serif" font-size="13" font-weight="bold" lengthAdjust="spacing" textLength="14" x="83" y="1304.0732">16</text><text fill="#000000" font-family="sans-serif" font-size="13" lengthAdjust="spacing" textLength="158" x="101" y="1304.0732">displays operation success</text><!--SRC=[jLPBRvmm4BxpAqOvL5bfqoRgGsgKHagJI3r4RHNQMo-3cTsr0ZQrJJRqrtSCx1jObcqv0RQ_-UQRb-sJL1aQJ27LIekPqIc1Cpa5ThcIeNZ2AOMkI0WC2OTgcgnli3ECzLogAKmmiHG4A9msS78LNN-RAp9NRwBh4q0BvLV0XvmKCaFboZsNOM4TfSjTrMSGEEdOOFK58VtEIGc2EubJR_Gq3Ez6S0O_m_FpTsmoTrhbQSJuthnyHaUrlG3uAL_Xx7g1TycMdYmu3SAGtukWQ0wFtenrrHd_BB4Mh1OBDSuPGrRObwnDUTX2Z0vNEsDg1Dbbv8gCx0A5uX86JZ7LkN9ZGEOvXbXQrb_GhNJ5BIb7PlnBWNM6o7t5bCOWUANQPwJWSxpVyUy_ChlLCOs6kMPdUcuXogrKP6tDD64RW2fUIcafuVG0hMY0zzLXou7OCDE3RxcOE7WWjBJvkrnQfWQyVtsnizm_a7jSMd_w1bTevGoZtUK6dTHgr42_onPvzPFrV5qv- -6OK6T6PsHSyPz3lM6cHcecspDCRR7n-V5zOUm76uDFy4Ndbe0xrOrlIIbNqwQuxSItmyZdkHjEGswLr132xXZkzGmEJC2-oLVboMUAZTRfWPcdCmTrdka9HEXc7iGs-3xOotzVRRN3DTbHgyakWxxYlFUjddfbod9XNV0PPO8HZp5c8ZEVOeCaEbgXzIVHEbinkryG6oxhBjQecq6JnbrxlUQUzO5r4nmWaZUn7TNMdh7jNVz64V64yWADGQePHj9vsHxqP5UnFI4zi9psfeZFsbZwsnrF8P-wDbT0BvcskQ76QFPtcg7kQwJ6ckjEXQR836aetH9i3jATiLhMJ2eLPy05l88KN_ZjxVdM7MGrUp_MAtrBA3ToAmFQHDciXTRvlUn0KxurIxROChoxbEaOt0fkF71np1LZdI9ZihXYfYsfYdFHnNWmwzBMCQGnIQgGBTbD-0B1rxY9D6bvXGk6CCoZLEwqhKFOyNq_Ix2muDjLoOD1XU1RT1UTjLybq5y0]--></g></svg>