<?xml version="1.0" encoding="UTF-8" standalone="no"?><svg xmlns="http://www.w3.org/2000/svg" xmlns:xlink="http://www.w3.org/1999/xlink" contentStyleType="text/css" height="1388px" preserveAspectRatio="none" style="width:596px;height:1388px;background:#FFFFFF;" version="1.1" viewBox="0 0 596 1388" width="596px" zoomAndPan="magnify"><defs/><g><text fill="#000000" font-family="sans-serif" font-size="14" font-weight="bold" lengthAdjust="spacing" textLength="284" x="157.75" y="29.5332">System Sequence Diagram (SSD) - US002</text><rect fill="#FFFFFF" height="1166.3594" style="stroke:#181818;stroke-width:1.0;" width="10" x="56.5" y="131.2188"/><rect fill="#FFFFFF" height="30.3516" style="stroke:#181818;stroke-width:1.0;" width="10" x="523.5" y="153.5703"/><rect fill="#FFFFFF" height="30.3516" style="stroke:#181818;stroke-width:1.0;" width="10" x="523.5" y="214.2734"/><rect fill="#FFFFFF" height="30.3516" style="stroke:#181818;stroke-width:1.0;" width="10" x="523.5" y="274.9766"/><rect fill="#FFFFFF" height="30.3516" style="stroke:#181818;stroke-width:1.0;" width="10" x="523.5" y="335.6797"/><rect fill="#FFFFFF" height="30.3516" style="stroke:#181818;stroke-width:1.0;" width="10" x="523.5" y="396.3828"/><rect fill="#FFFFFF" height="30.3516" style="stroke:#181818;stroke-width:1.0;" width="10" x="523.5" y="457.0859"/><rect fill="#FFFFFF" height="30.3516" style="stroke:#181818;stroke-width:1.0;" width="10" x="523.5" y="517.7891"/><rect fill="#FFFFFF" height="30.3516" style="stroke:#181818;stroke-width:1.0;" width="10" x="523.5" y="578.4922"/><rect fill="#FFFFFF" height="55.7031" style="stroke:#181818;stroke-width:1.0;" width="10" x="523.5" y="639.1953"/><rect fill="#FFFFFF" height="62.7031" style="stroke:#181818;stroke-width:1.0;" width="10" x="523.5" y="725.25"/><rect fill="#FFFFFF" height="30.3516" style="stroke:#181818;stroke-width:1.0;" width="10" x="523.5" y="818.3047"/><rect fill="#FFFFFF" height="62.7031" style="stroke:#181818;stroke-width:1.0;" width="10" x="523.5" y="904.3594"/><rect fill="#FFFFFF" height="62.7031" style="stroke:#181818;stroke-width:1.0;" width="10" x="523.5" y="997.4141"/><rect fill="#FFFFFF" height="55.7031" style="stroke:#181818;stroke-width:1.0;" width="10" x="523.5" y="1090.4688"/><rect fill="#FFFFFF" height="51.3516" style="stroke:#181818;stroke-width:1.0;" width="10" x="523.5" y="1176.5234"/><rect fill="#FFFFFF" height="30.3516" style="stroke:#181818;stroke-width:1.0;" width="10" x="523.5" y="1258.2266"/><rect fill="none" height="79.0547" style="stroke:#000000;stroke-width:1.5;" width="540.5" x="30" y="654.1953"/><rect fill="none" height="451.2734" style="stroke:#000000;stroke-width:1.5;" width="580.5" x="10" y="747.25"/><rect fill="none" height="48.7031" style="stroke:#000000;stroke-width:1.5;" width="540.5" x="30" y="863.6563"/><rect fill="none" height="79.0547" style="stroke:#000000;stroke-width:1.5;" width="540.5" x="30" y="926.3594"/><rect fill="none" height="172.1094" style="stroke:#000000;stroke-width:1.5;" width="560.5" x="20" y="1019.4141"/><rect fill="none" height="79.0547" style="stroke:#000000;stroke-width:1.5;" width="540.5" x="30" y="1105.4688"/><line style="stroke:#181818;stroke-width:0.5;stroke-dasharray:5.0,5.0;" x1="61" x2="61" y1="121.2188" y2="1306.5781"/><line style="stroke:#181818;stroke-width:0.5;stroke-dasharray:5.0,5.0;" x1="528.5" x2="528.5" y1="121.2188" y2="1306.5781"/><text fill="#000000" font-family="sans-serif" font-size="14" lengthAdjust="spacing" textLength="37" x="40" y="118.1426">Agent</text><ellipse cx="61.5" cy="52.1094" fill="#E3E3E3" rx="8" ry="8" style="stroke:#181818;stroke-width:0.5;"/><path d="M61.5,60.1094 L61.5,87.1094 M48.5,68.1094 L74.5,68.1094 M61.5,87.1094 L48.5,102.1094 M61.5,87.1094 L74.5,102.1094 " fill="none" style="stroke:#181818;stroke-width:0.5;"/><text fill="#000000" font-family="sans-serif" font-size="14" lengthAdjust="spacing" textLength="37" x="40" y="1320.1113">Agent</text><ellipse cx="61.5" cy="1331.6875" fill="#E3E3E3" rx="8" ry="8" style="stroke:#181818;stroke-width:0.5;"/><path d="M61.5,1339.6875 L61.5,1366.6875 M48.5,1347.6875 L74.5,1347.6875 M61.5,1366.6875 L48.5,1381.6875 M61.5,1366.6875 L74.5,1381.6875 " fill="none" style="stroke:#181818;stroke-width:0.5;"/><rect fill="#E3E3E3" height="31.6094" rx="2.5" ry="2.5" style="stroke:#181818;stroke-width:0.5;" width="64" x="496.5" y="88.6094"/><text fill="#000000" font-family="sans-serif" font-size="14" lengthAdjust="spacing" textLength="50" x="503.5" y="110.1426">:System</text><rect fill="#E3E3E3" height="31.6094" rx="2.5" ry="2.5" style="stroke:#181818;stroke-width:0.5;" width="64" x="496.5" y="1305.5781"/><text fill="#000000" font-family="sans-serif" font-size="14" lengthAdjust="spacing" textLength="50" x="503.5" y="1327.1113">:System</text><rect fill="#FFFFFF" height="1166.3594" style="stroke:#181818;stroke-width:1.0;" width="10" x="56.5" y="131.2188"/><rect fill="#FFFFFF" height="30.3516" style="stroke:#181818;stroke-width:1.0;" width="10" x="523.5" y="153.5703"/><rect fill="#FFFFFF" height="30.3516" style="stroke:#181818;stroke-width:1.0;" width="10" x="523.5" y="214.2734"/><rect fill="#FFFFFF" height="30.3516" style="stroke:#181818;stroke-width:1.0;" width="10" x="523.5" y="274.9766"/><rect fill="#FFFFFF" height="30.3516" style="stroke:#181818;stroke-width:1.0;" width="10" x="523.5" y="335.6797"/><rect fill="#FFFFFF" height="30.3516" style="stroke:#181818;stroke-width:1.0;" width="10" x="523.5" y="396.3828"/><rect fill="#FFFFFF" height="30.3516" style="stroke:#181818;stroke-width:1.0;" width="10" x="523.5" y="457.0859"/><rect fill="#FFFFFF" height="30.3516" style="stroke:#181818;stroke-width:1.0;" width="10" x="523.5" y="517.7891"/><rect fill="#FFFFFF" height="30.3516" style="stroke:#181818;stroke-width:1.0;" width="10" x="523.5" y="578.4922"/><rect fill="#FFFFFF" height="55.7031" style="stroke:#181818;stroke-width:1.0;" width="10" x="523.5" y="639.1953"/><rect fill="#FFFFFF" height="62.7031" style="stroke:#181818;stroke-width:1.0;" width="10" x="523.5" y="725.25"/><rect fill="#FFFFFF" height="30.3516" style="stroke:#181818;stroke-width:1.0;" width="10" x="523.5" y="818.3047"/><rect fill="#FFFFFF" height="62.7031" style="stroke:#181818;stroke-width:1.0;" width="10" x="523.5" y="904.3594"/><rect fill="#FFFFFF" height="62.7031" style="stroke:#181818;stroke-width:1.0;" width="10" x="523.5" y="997.4141"/><rect fill="#FFFFFF" height="55.7031" style="stroke:#181818;stroke-width:1.0;" width="10" x="523.5" y="1090.4688"/><rect fill="#FFFFFF" height="51.3516" style="stroke:#181818;stroke-width:1.0;" width="10" x="523.5" y="1176.5234"/><rect fill="#FFFFFF" height="30.3516" style="stroke:#181818;stroke-width:1.0;" width="10" x="523.5" y="1258.2266"/><polygon fill="#181818" points="511.5,149.5703,521.5,153.5703,511.5,157.5703,515.5,153.5703" style="stroke:#181818;stroke-width:1.0;"/><line style="stroke:#181818;stroke-width:1.0;" x1="66.5" x2="517.5" y1="153.5703" y2="153.5703"/><text fill="#000000" font-family="sans-serif" font-size="13" font-weight="bold" lengthAdjust="spacing" textLength="7" x="73.5" y="148.7139">1</text><text fill="#000000" font-family="sans-serif" font-size="13" lengthAdjust="spacing" textLength="205" x="84.5" y="148.7139">asks to publish sale announcement</text><polygon fill="#181818" points="77.5,179.9219,67.5,183.9219,77.5,187.9219,73.5,183.9219" style="stroke:#181818;stroke-width:1.0;"/><line style="stroke:#181818;stroke-width:1.0;stroke-dasharray:2.0,2.0;" x1="71.5" x2="527.5" y1="183.9219" y2="183.9219"/><text fill="#000000" font-family="sans-serif" font-size="13" font-weight="bold" lengthAdjust="spacing" textLength="7" x="83.5" y="179.0654">2</text><text fill="#000000" font-family="sans-serif" font-size="13" lengthAdjust="spacing" textLength="297" x="94.5" y="179.0654">shows types of commission and asks to select one</text><polygon fill="#181818" points="511.5,210.2734,521.5,214.2734,511.5,218.2734,515.5,214.2734" style="stroke:#181818;stroke-width:1.0;"/><line style="stroke:#181818;stroke-width:1.0;" x1="66.5" x2="517.5" y1="214.2734" y2="214.2734"/><text fill="#000000" font-family="sans-serif" font-size="13" font-weight="bold" lengthAdjust="spacing" textLength="7" x="73.5" y="209.417">3</text><text fill="#000000" font-family="sans-serif" font-size="13" lengthAdjust="spacing" textLength="159" x="84.5" y="209.417">selects type of commission</text><polygon fill="#181818" points="77.5,240.625,67.5,244.625,77.5,248.625,73.5,244.625" style="stroke:#181818;stroke-width:1.0;"/><line style="stroke:#181818;stroke-width:1.0;stroke-dasharray:2.0,2.0;" x1="71.5" x2="527.5" y1="244.625" y2="244.625"/><text fill="#000000" font-family="sans-serif" font-size="13" font-weight="bold" lengthAdjust="spacing" textLength="7" x="83.5" y="239.7686">4</text><text fill="#000000" font-family="sans-serif" font-size="13" lengthAdjust="spacing" textLength="171" x="94.5" y="239.7686">requests value of commission</text><polygon fill="#181818" points="511.5,270.9766,521.5,274.9766,511.5,278.9766,515.5,274.9766" style="stroke:#181818;stroke-width:1.0;"/><line style="stroke:#181818;stroke-width:1.0;" x1="66.5" x2="517.5" y1="274.9766" y2="274.9766"/><text fill="#000000" font-family="sans-serif" font-size="13" font-weight="bold" lengthAdjust="spacing" textLength="7" x="73.5" y="270.1201">5</text><text fill="#000000" font-family="sans-serif" font-size="13" lengthAdjust="spacing" textLength="143" x="84.5" y="270.1201">enters commission value</text><polygon fill="#181818" points="77.5,301.3281,67.5,305.3281,77.5,309.3281,73.5,305.3281" style="stroke:#181818;stroke-width:1.0;"/><line style="stroke:#181818;stroke-width:1.0;stroke-dasharray:2.0,2.0;" x1="71.5" x2="527.5" y1="305.3281" y2="305.3281"/><text fill="#000000" font-family="sans-serif" font-size="13" font-weight="bold" lengthAdjust="spacing" textLength="7" x="83.5" y="300.4717">6</text><text fill="#000000" font-family="sans-serif" font-size="13" lengthAdjust="spacing" textLength="123" x="94.5" y="300.4717">requests owner email</text><polygon fill="#181818" points="511.5,331.6797,521.5,335.6797,511.5,339.6797,515.5,335.6797" style="stroke:#181818;stroke-width:1.0;"/><line style="stroke:#181818;stroke-width:1.0;" x1="66.5" x2="517.5" y1="335.6797" y2="335.6797"/><text fill="#000000" font-family="sans-serif" font-size="13" font-weight="bold" lengthAdjust="spacing" textLength="7" x="73.5" y="330.8232">7</text><text fill="#000000" font-family="sans-serif" font-size="13" lengthAdjust="spacing" textLength="205" x="84.5" y="330.8232">enters requested data (ownerEmail)</text><polygon fill="#181818" points="77.5,362.0313,67.5,366.0313,77.5,370.0313,73.5,366.0313" style="stroke:#181818;stroke-width:1.0;"/><line style="stroke:#181818;stroke-width:1.0;stroke-dasharray:2.0,2.0;" x1="71.5" x2="527.5" y1="366.0313" y2="366.0313"/><text fill="#000000" font-family="sans-serif" font-size="13" font-weight="bold" lengthAdjust="spacing" textLength="7" x="83.5" y="361.1748">8</text><text fill="#000000" font-family="sans-serif" font-size="13" lengthAdjust="spacing" textLength="284" x="94.5" y="361.1748">shows types of properties and asks to select one</text><polygon fill="#181818" points="511.5,392.3828,521.5,396.3828,511.5,400.3828,515.5,396.3828" style="stroke:#181818;stroke-width:1.0;"/><line style="stroke:#181818;stroke-width:1.0;" x1="66.5" x2="517.5" y1="396.3828" y2="396.3828"/><text fill="#000000" font-family="sans-serif" font-size="13" font-weight="bold" lengthAdjust="spacing" textLength="7" x="73.5" y="391.5264">9</text><text fill="#000000" font-family="sans-serif" font-size="13" lengthAdjust="spacing" textLength="147" x="84.5" y="391.5264">selects a type of property</text><polygon fill="#181818" points="77.5,422.7344,67.5,426.7344,77.5,430.7344,73.5,426.7344" style="stroke:#181818;stroke-width:1.0;"/><line style="stroke:#181818;stroke-width:1.0;stroke-dasharray:2.0,2.0;" x1="71.5" x2="527.5" y1="426.7344" y2="426.7344"/><text fill="#000000" font-family="sans-serif" font-size="13" font-weight="bold" lengthAdjust="spacing" textLength="14" x="83.5" y="421.8779">10</text><text fill="#000000" font-family="sans-serif" font-size="13" lengthAdjust="spacing" textLength="397" x="101.5" y="421.8779">requests streetName, city, district, state and zipCode of the property</text><polygon fill="#181818" points="511.5,453.0859,521.5,457.0859,511.5,461.0859,515.5,457.0859" style="stroke:#181818;stroke-width:1.0;"/><line style="stroke:#181818;stroke-width:1.0;" x1="66.5" x2="517.5" y1="457.0859" y2="457.0859"/><text fill="#000000" font-family="sans-serif" font-size="13" font-weight="bold" lengthAdjust="spacing" textLength="14" x="73.5" y="452.2295">11</text><text fill="#000000" font-family="sans-serif" font-size="13" lengthAdjust="spacing" textLength="369" x="91.5" y="452.2295">types requested data (streetName, city, district, state, zipCode)</text><polygon fill="#181818" points="77.5,483.4375,67.5,487.4375,77.5,491.4375,73.5,487.4375" style="stroke:#181818;stroke-width:1.0;"/><line style="stroke:#181818;stroke-width:1.0;stroke-dasharray:2.0,2.0;" x1="71.5" x2="527.5" y1="487.4375" y2="487.4375"/><text fill="#000000" font-family="sans-serif" font-size="13" font-weight="bold" lengthAdjust="spacing" textLength="14" x="83.5" y="482.5811">12</text><text fill="#000000" font-family="sans-serif" font-size="13" lengthAdjust="spacing" textLength="166" x="101.5" y="482.5811">requests area of the property</text><polygon fill="#181818" points="511.5,513.7891,521.5,517.7891,511.5,521.7891,515.5,517.7891" style="stroke:#181818;stroke-width:1.0;"/><line style="stroke:#181818;stroke-width:1.0;" x1="66.5" x2="517.5" y1="517.7891" y2="517.7891"/><text fill="#000000" font-family="sans-serif" font-size="13" font-weight="bold" lengthAdjust="spacing" textLength="14" x="73.5" y="512.9326">13</text><text fill="#000000" font-family="sans-serif" font-size="13" lengthAdjust="spacing" textLength="159" x="91.5" y="512.9326">types requested data (area)</text><polygon fill="#181818" points="77.5,544.1406,67.5,548.1406,77.5,552.1406,73.5,548.1406" style="stroke:#181818;stroke-width:1.0;"/><line style="stroke:#181818;stroke-width:1.0;stroke-dasharray:2.0,2.0;" x1="71.5" x2="527.5" y1="548.1406" y2="548.1406"/><text fill="#000000" font-family="sans-serif" font-size="13" font-weight="bold" lengthAdjust="spacing" textLength="14" x="83.5" y="543.2842">14</text><text fill="#000000" font-family="sans-serif" font-size="13" lengthAdjust="spacing" textLength="284" x="101.5" y="543.2842">requests distance from city center of the property</text><polygon fill="#181818" points="511.5,574.4922,521.5,578.4922,511.5,582.4922,515.5,578.4922" style="stroke:#181818;stroke-width:1.0;"/><line style="stroke:#181818;stroke-width:1.0;" x1="66.5" x2="517.5" y1="578.4922" y2="578.4922"/><text fill="#000000" font-family="sans-serif" font-size="13" font-weight="bold" lengthAdjust="spacing" textLength="14" x="73.5" y="573.6357">15</text><text fill="#000000" font-family="sans-serif" font-size="13" lengthAdjust="spacing" textLength="244" x="91.5" y="573.6357">types requested data (distanceCityCentre)</text><polygon fill="#181818" points="77.5,604.8438,67.5,608.8438,77.5,612.8438,73.5,608.8438" style="stroke:#181818;stroke-width:1.0;"/><line style="stroke:#181818;stroke-width:1.0;stroke-dasharray:2.0,2.0;" x1="71.5" x2="527.5" y1="608.8438" y2="608.8438"/><text fill="#000000" font-family="sans-serif" font-size="13" font-weight="bold" lengthAdjust="spacing" textLength="14" x="83.5" y="603.9873">16</text><text fill="#000000" font-family="sans-serif" font-size="13" lengthAdjust="spacing" textLength="169" x="101.5" y="603.9873">requests price of the property</text><polygon fill="#181818" points="511.5,635.1953,521.5,639.1953,511.5,643.1953,515.5,639.1953" style="stroke:#181818;stroke-width:1.0;"/><line style="stroke:#181818;stroke-width:1.0;" x1="66.5" x2="517.5" y1="639.1953" y2="639.1953"/><text fill="#000000" font-family="sans-serif" font-size="13" font-weight="bold" lengthAdjust="spacing" textLength="14" x="73.5" y="634.3389">17</text><text fill="#000000" font-family="sans-serif" font-size="13" lengthAdjust="spacing" textLength="162" x="91.5" y="634.3389">types requested data (price)</text><path d="M30,654.1953 L103,654.1953 L103,662.5469 L93,672.5469 L30,672.5469 L30,654.1953 " fill="#EEEEEE" style="stroke:#000000;stroke-width:1.5;"/><rect fill="none" height="79.0547" style="stroke:#000000;stroke-width:1.5;" width="540.5" x="30" y="654.1953"/><text fill="#000000" font-family="sans-serif" font-size="13" font-weight="bold" lengthAdjust="spacing" textLength="28" x="45" y="668.6904">loop</text><text fill="#000000" font-family="sans-serif" font-size="11" font-weight="bold" lengthAdjust="spacing" textLength="55" x="118" y="667.6143">[30 times]</text><polygon fill="#181818" points="77.5,690.8984,67.5,694.8984,77.5,698.8984,73.5,694.8984" style="stroke:#181818;stroke-width:1.0;"/><line style="stroke:#181818;stroke-width:1.0;stroke-dasharray:2.0,2.0;" x1="71.5" x2="527.5" y1="694.8984" y2="694.8984"/><text fill="#000000" font-family="sans-serif" font-size="13" font-weight="bold" lengthAdjust="spacing" textLength="14" x="83.5" y="690.042">18</text><text fill="#000000" font-family="sans-serif" font-size="13" lengthAdjust="spacing" textLength="252" x="101.5" y="690.042">requests the photograph URI of the property</text><polygon fill="#181818" points="511.5,721.25,521.5,725.25,511.5,729.25,515.5,725.25" style="stroke:#181818;stroke-width:1.0;"/><line style="stroke:#181818;stroke-width:1.0;" x1="66.5" x2="517.5" y1="725.25" y2="725.25"/><text fill="#000000" font-family="sans-serif" font-size="13" font-weight="bold" lengthAdjust="spacing" textLength="14" x="73.5" y="720.3936">19</text><text fill="#000000" font-family="sans-serif" font-size="13" lengthAdjust="spacing" textLength="148" x="91.5" y="720.3936">types requested data (uri)</text><path d="M10,747.25 L71,747.25 L71,755.6016 L61,765.6016 L10,765.6016 L10,747.25 " fill="#EEEEEE" style="stroke:#000000;stroke-width:1.5;"/><rect fill="none" height="451.2734" style="stroke:#000000;stroke-width:1.5;" width="580.5" x="10" y="747.25"/><text fill="#000000" font-family="sans-serif" font-size="13" font-weight="bold" lengthAdjust="spacing" textLength="16" x="25" y="761.7451">alt</text><text fill="#000000" font-family="sans-serif" font-size="11" font-weight="bold" lengthAdjust="spacing" textLength="286" x="86" y="760.6689">[propertyType = apartment || propertyType = house]</text><polygon fill="#181818" points="77.5,783.9531,67.5,787.9531,77.5,791.9531,73.5,787.9531" style="stroke:#181818;stroke-width:1.0;"/><line style="stroke:#181818;stroke-width:1.0;stroke-dasharray:2.0,2.0;" x1="71.5" x2="527.5" y1="787.9531" y2="787.9531"/><text fill="#000000" font-family="sans-serif" font-size="13" font-weight="bold" lengthAdjust="spacing" textLength="25" x="83.5" y="783.0967">17.1</text><text fill="#000000" font-family="sans-serif" font-size="13" lengthAdjust="spacing" textLength="366" x="112.5" y="783.0967">requests data (number of bedrooms, number of parking spaces)</text><polygon fill="#181818" points="511.5,814.3047,521.5,818.3047,511.5,822.3047,515.5,818.3047" style="stroke:#181818;stroke-width:1.0;"/><line style="stroke:#181818;stroke-width:1.0;" x1="66.5" x2="517.5" y1="818.3047" y2="818.3047"/><text fill="#000000" font-family="sans-serif" font-size="13" font-weight="bold" lengthAdjust="spacing" textLength="25" x="73.5" y="813.4482">17.2</text><text fill="#000000" font-family="sans-serif" font-size="13" lengthAdjust="spacing" textLength="409" x="102.5" y="813.4482">types requested data (number of bedrooms, number of parking spaces)</text><polygon fill="#181818" points="77.5,844.6563,67.5,848.6563,77.5,852.6563,73.5,848.6563" style="stroke:#181818;stroke-width:1.0;"/><line style="stroke:#181818;stroke-width:1.0;stroke-dasharray:2.0,2.0;" x1="71.5" x2="527.5" y1="848.6563" y2="848.6563"/><text fill="#000000" font-family="sans-serif" font-size="13" font-weight="bold" lengthAdjust="spacing" textLength="25" x="83.5" y="843.7998">17.3</text><text fill="#000000" font-family="sans-serif" font-size="13" lengthAdjust="spacing" textLength="176" x="112.5" y="843.7998">requests number of bathrooms</text><path d="M30,863.6563 L95,863.6563 L95,872.0078 L85,882.0078 L30,882.0078 L30,863.6563 " fill="#EEEEEE" style="stroke:#000000;stroke-width:1.5;"/><rect fill="none" height="48.7031" style="stroke:#000000;stroke-width:1.5;" width="540.5" x="30" y="863.6563"/><text fill="#000000" font-family="sans-serif" font-size="13" font-weight="bold" lengthAdjust="spacing" textLength="20" x="45" y="878.1514">opt</text><text fill="#000000" font-family="sans-serif" font-size="11" font-weight="bold" lengthAdjust="spacing" textLength="113" x="110" y="877.0752">[numberBathrooms]</text><polygon fill="#181818" points="511.5,900.3594,521.5,904.3594,511.5,908.3594,515.5,904.3594" style="stroke:#181818;stroke-width:1.0;"/><line style="stroke:#181818;stroke-width:1.0;" x1="66.5" x2="517.5" y1="904.3594" y2="904.3594"/><text fill="#000000" font-family="sans-serif" font-size="13" font-weight="bold" lengthAdjust="spacing" textLength="25" x="73.5" y="899.5029">17.4</text><text fill="#000000" font-family="sans-serif" font-size="13" lengthAdjust="spacing" textLength="240" x="102.5" y="899.5029">types requested data (numberBathrooms)</text><path d="M30,926.3594 L103,926.3594 L103,934.7109 L93,944.7109 L30,944.7109 L30,926.3594 " fill="#EEEEEE" style="stroke:#000000;stroke-width:1.5;"/><rect fill="none" height="79.0547" style="stroke:#000000;stroke-width:1.5;" width="540.5" x="30" y="926.3594"/><text fill="#000000" font-family="sans-serif" font-size="13" font-weight="bold" lengthAdjust="spacing" textLength="28" x="45" y="940.8545">loop</text><text fill="#000000" font-family="sans-serif" font-size="11" font-weight="bold" lengthAdjust="spacing" textLength="83" x="118" y="939.7783">[while intends]</text><polygon fill="#181818" points="77.5,963.0625,67.5,967.0625,77.5,971.0625,73.5,967.0625" style="stroke:#181818;stroke-width:1.0;"/><line style="stroke:#181818;stroke-width:1.0;stroke-dasharray:2.0,2.0;" x1="71.5" x2="527.5" y1="967.0625" y2="967.0625"/><text fill="#000000" font-family="sans-serif" font-size="13" font-weight="bold" lengthAdjust="spacing" textLength="25" x="83.5" y="962.2061">17.5</text><text fill="#000000" font-family="sans-serif" font-size="13" lengthAdjust="spacing" textLength="167" x="112.5" y="962.2061">requests available equipment</text><polygon fill="#181818" points="511.5,993.4141,521.5,997.4141,511.5,1001.4141,515.5,997.4141" style="stroke:#181818;stroke-width:1.0;"/><line style="stroke:#181818;stroke-width:1.0;" x1="66.5" x2="517.5" y1="997.4141" y2="997.4141"/><text fill="#000000" font-family="sans-serif" font-size="13" font-weight="bold" lengthAdjust="spacing" textLength="25" x="73.5" y="992.5576">17.6</text><text fill="#000000" font-family="sans-serif" font-size="13" lengthAdjust="spacing" textLength="245" x="102.5" y="992.5576">types requested data (availableEquipment)</text><path d="M20,1019.4141 L81,1019.4141 L81,1027.7656 L71,1037.7656 L20,1037.7656 L20,1019.4141 " fill="#EEEEEE" style="stroke:#000000;stroke-width:1.5;"/><rect fill="none" height="172.1094" style="stroke:#000000;stroke-width:1.5;" width="560.5" x="20" y="1019.4141"/><text fill="#000000" font-family="sans-serif" font-size="13" font-weight="bold" lengthAdjust="spacing" textLength="16" x="35" y="1033.9092">alt</text><text fill="#000000" font-family="sans-serif" font-size="11" font-weight="bold" lengthAdjust="spacing" textLength="144" x="96" y="1032.833">[type of property = house]</text><polygon fill="#181818" points="77.5,1056.1172,67.5,1060.1172,77.5,1064.1172,73.5,1060.1172" style="stroke:#181818;stroke-width:1.0;"/><line style="stroke:#181818;stroke-width:1.0;stroke-dasharray:2.0,2.0;" x1="71.5" x2="527.5" y1="1060.1172" y2="1060.1172"/><text fill="#000000" font-family="sans-serif" font-size="13" font-weight="bold" lengthAdjust="spacing" textLength="25" x="83.5" y="1055.2607">17.7</text><text fill="#000000" font-family="sans-serif" font-size="13" lengthAdjust="spacing" textLength="313" x="112.5" y="1055.2607">requests data (existence of basement; inhabitable loft)</text><polygon fill="#181818" points="511.5,1086.4688,521.5,1090.4688,511.5,1094.4688,515.5,1090.4688" style="stroke:#181818;stroke-width:1.0;"/><line style="stroke:#181818;stroke-width:1.0;" x1="66.5" x2="517.5" y1="1090.4688" y2="1090.4688"/><text fill="#000000" font-family="sans-serif" font-size="13" font-weight="bold" lengthAdjust="spacing" textLength="25" x="73.5" y="1085.6123">17.8</text><text fill="#000000" font-family="sans-serif" font-size="13" lengthAdjust="spacing" textLength="122" x="102.5" y="1085.6123">types requested data</text><path d="M30,1105.4688 L95,1105.4688 L95,1113.8203 L85,1123.8203 L30,1123.8203 L30,1105.4688 " fill="#EEEEEE" style="stroke:#000000;stroke-width:1.5;"/><rect fill="none" height="79.0547" style="stroke:#000000;stroke-width:1.5;" width="540.5" x="30" y="1105.4688"/><text fill="#000000" font-family="sans-serif" font-size="13" font-weight="bold" lengthAdjust="spacing" textLength="20" x="45" y="1119.9639">opt</text><text fill="#000000" font-family="sans-serif" font-size="11" font-weight="bold" lengthAdjust="spacing" textLength="85" x="110" y="1118.8877">[sun exposure]</text><polygon fill="#181818" points="77.5,1142.1719,67.5,1146.1719,77.5,1150.1719,73.5,1146.1719" style="stroke:#181818;stroke-width:1.0;"/><line style="stroke:#181818;stroke-width:1.0;stroke-dasharray:2.0,2.0;" x1="71.5" x2="527.5" y1="1146.1719" y2="1146.1719"/><text fill="#000000" font-family="sans-serif" font-size="13" font-weight="bold" lengthAdjust="spacing" textLength="25" x="83.5" y="1141.3154">17.9</text><text fill="#000000" font-family="sans-serif" font-size="13" lengthAdjust="spacing" textLength="164" x="112.5" y="1141.3154">asks to select sun exposure</text><polygon fill="#181818" points="511.5,1172.5234,521.5,1176.5234,511.5,1180.5234,515.5,1176.5234" style="stroke:#181818;stroke-width:1.0;"/><line style="stroke:#181818;stroke-width:1.0;" x1="66.5" x2="517.5" y1="1176.5234" y2="1176.5234"/><text fill="#000000" font-family="sans-serif" font-size="13" font-weight="bold" lengthAdjust="spacing" textLength="32" x="73.5" y="1171.667">17.10</text><text fill="#000000" font-family="sans-serif" font-size="13" lengthAdjust="spacing" textLength="220" x="109.5" y="1171.667">selects requested data (sunExposure)</text><polygon fill="#181818" points="77.5,1223.875,67.5,1227.875,77.5,1231.875,73.5,1227.875" style="stroke:#181818;stroke-width:1.0;"/><line style="stroke:#181818;stroke-width:1.0;stroke-dasharray:2.0,2.0;" x1="71.5" x2="527.5" y1="1227.875" y2="1227.875"/><text fill="#000000" font-family="sans-serif" font-size="13" font-weight="bold" lengthAdjust="spacing" textLength="14" x="83.5" y="1223.0186">18</text><text fill="#000000" font-family="sans-serif" font-size="13" lengthAdjust="spacing" textLength="236" x="101.5" y="1223.0186">shows all data and requests confirmation</text><polygon fill="#181818" points="511.5,1254.2266,521.5,1258.2266,511.5,1262.2266,515.5,1258.2266" style="stroke:#181818;stroke-width:1.0;"/><line style="stroke:#181818;stroke-width:1.0;" x1="66.5" x2="517.5" y1="1258.2266" y2="1258.2266"/><text fill="#000000" font-family="sans-serif" font-size="13" font-weight="bold" lengthAdjust="spacing" textLength="14" x="73.5" y="1253.3701">19</text><text fill="#000000" font-family="sans-serif" font-size="13" lengthAdjust="spacing" textLength="75" x="91.5" y="1253.3701">submits data</text><polygon fill="#181818" points="77.5,1284.5781,67.5,1288.5781,77.5,1292.5781,73.5,1288.5781" style="stroke:#181818;stroke-width:1.0;"/><line style="stroke:#181818;stroke-width:1.0;stroke-dasharray:2.0,2.0;" x1="71.5" x2="527.5" y1="1288.5781" y2="1288.5781"/><text fill="#000000" font-family="sans-serif" font-size="13" font-weight="bold" lengthAdjust="spacing" textLength="14" x="83.5" y="1283.7217">20</text><text fill="#000000" font-family="sans-serif" font-size="13" lengthAdjust="spacing" textLength="158" x="101.5" y="1283.7217">displays operation success</text><!--SRC=[jLR9Rjim4BthAmOvHO1J9EsXHOeMQ1CVUkcXRZzWB8qjmk9IaehZ8X_V8RN4LkJOLX9TR96Qzzuiv8nR2MNGeWIfbSuAgoM1jnKbhjincArmIJE_AGaiPHxLijp-m1MOwxLGIrXWwIX9lF3ywMpZF4cOqT-AL4PmAt0PFZ-VpMvJk80_iylBzqc2bTUgadEo_3_psiBPjoKfVmReO2fDgJT42JDvaGc3oiFPTGqTlwZ_HbDnXvuUJHBWfts3Yw-je6isMpdm6amrBuKhm27BHQLqnJebSqVJ3h6bWFWqA1SCs85VSmpqcZ4tXXpe1MHQIk6Sq8fnyuxGKSdn0wqeWkKqo36ekJQjANOPzeiTbcf3GXn3tM5P3M6T8ek3HTPj-njHHslIQqKMIA8ensffi2Y773t2UOIS1iJqL5czh1gh3N4TyjihPnMxl3OScz4HTDuI-PyeQGAPy9i9v8BNHEOdl1V0WlP_mjpeF3BwWdPPJt6WZaq_v0SrJ5e1wMW_qHA-aVm0FLvOS1N3XRVWspIw3raipJTIs_BTCDCD4zaN1DLmZjwgA29s-jpL2b1gRU339NWXoNMh1qH7hONscjkBAU3Fhn-37WnxqUwSu4XbHThPxSCZFcJ1cwHs3alVgVaTZleNmD3JGhU1XuV-Ng4hrtGmU6oGSFNntTMnKQcrDeOSZpdbLclf9l2unWfMeMyxxl7aqcV2D2PEuxYVC1_hy1OT-YBo7UDGUBJnZVdt9wQZdEvWqXsSVSNI5Wphw9s5TI5uDX5yVQZyw0E1TzpiSCw6l29CDz6yNcexXcbBSCg9wBxaGz7lUxtYFxREwPvlmJXcnloxECPzvi0LE1S-ngBK2_-w9Rw_Pll5vIe5T6-qgopjR0uxrviizbhllyuEJXnFMdQbfWt52sgM5vBjt-sxwzE1ZDR35fPbhIXCALsICwqMmahqOsPKLysbQ2hb-VOpB8mRh2bnmoCWLsYKm90PNrfkZvJ_]--></g></svg>