<?xml version="1.0" encoding="UTF-8" standalone="no"?><svg xmlns="http://www.w3.org/2000/svg" xmlns:xlink="http://www.w3.org/1999/xlink" contentStyleType="text/css" height="1371px" preserveAspectRatio="none" style="width:1714px;height:1371px;background:#FFFFFF;" version="1.1" viewBox="0 0 1714 1371" width="1714px" zoomAndPan="magnify"><defs/><g><rect fill="#FFFFFF" height="1187.8594" style="stroke:#181818;stroke-width:1.0;" width="10" x="69.5" y="92.6094"/><rect fill="#FFFFFF" height="72.9609" style="stroke:#181818;stroke-width:1.0;" width="10" x="388.5" y="114.9609"/><rect fill="#FFFFFF" height="30.3516" style="stroke:#181818;stroke-width:1.0;" width="10" x="388.5" y="218.2734"/><rect fill="#FFFFFF" height="992.4922" style="stroke:#181818;stroke-width:1.0;" width="10" x="388.5" y="278.9766"/><rect fill="#FFFFFF" height="931.7891" style="stroke:#181818;stroke-width:1.0;" width="10" x="608.5" y="309.3281"/><rect fill="#FFFFFF" height="87.7969" style="stroke:#181818;stroke-width:1.0;" width="10" x="613.5" y="696.2266"/><rect fill="#FFFFFF" height="87.7969" style="stroke:#181818;stroke-width:1.0;" width="10" x="613.5" y="854.375"/><rect fill="#FFFFFF" height="87.7969" style="stroke:#181818;stroke-width:1.0;" width="10" x="613.5" y="1083.9688"/><rect fill="#FFFFFF" height="136.9219" style="stroke:#181818;stroke-width:1.0;" width="10" x="1056.5" y="375.0313"/><rect fill="#FFFFFF" height="41.3516" style="stroke:#181818;stroke-width:1.0;" width="10" x="1061.5" y="433.25"/><rect fill="#FFFFFF" height="90.5703" style="stroke:#181818;stroke-width:1.0;" width="10" x="1303.5" y="542.3047"/><rect fill="none" height="887.4375" style="stroke:#000000;stroke-width:1.5;" width="1222.5" x="486" y="324.3281"/><line style="stroke:#181818;stroke-width:0.5;stroke-dasharray:5.0,5.0;" x1="74" x2="74" y1="82.6094" y2="1289.4688"/><line style="stroke:#181818;stroke-width:0.5;stroke-dasharray:5.0,5.0;" x1="393" x2="393" y1="82.6094" y2="1289.4688"/><line style="stroke:#181818;stroke-width:0.5;stroke-dasharray:5.0,5.0;" x1="613" x2="613" y1="154.2656" y2="1289.4688"/><line style="stroke:#181818;stroke-width:0.5;stroke-dasharray:5.0,5.0;" x1="1061.5" x2="1061.5" y1="382.7891" y2="1289.4688"/><line style="stroke:#181818;stroke-width:0.5;stroke-dasharray:5.0,5.0;" x1="1308.5" x2="1308.5" y1="82.6094" y2="1289.4688"/><line style="stroke:#181818;stroke-width:0.5;stroke-dasharray:5.0,5.0;" x1="1632.5" x2="1632.5" y1="590.4141" y2="1289.4688"/><text fill="#000000" font-family="sans-serif" font-size="14" lengthAdjust="spacing" textLength="133" x="5" y="79.5332">System Administrator</text><ellipse cx="74.5" cy="13.5" fill="#E3E3E3" rx="8" ry="8" style="stroke:#181818;stroke-width:0.5;"/><path d="M74.5,21.5 L74.5,48.5 M61.5,29.5 L87.5,29.5 M74.5,48.5 L61.5,63.5 M74.5,48.5 L87.5,63.5 " fill="none" style="stroke:#181818;stroke-width:0.5;"/><text fill="#000000" font-family="sans-serif" font-size="14" lengthAdjust="spacing" textLength="133" x="5" y="1303.002">System Administrator</text><ellipse cx="74.5" cy="1314.5781" fill="#E3E3E3" rx="8" ry="8" style="stroke:#181818;stroke-width:0.5;"/><path d="M74.5,1322.5781 L74.5,1349.5781 M61.5,1330.5781 L87.5,1330.5781 M74.5,1349.5781 L61.5,1364.5781 M74.5,1349.5781 L87.5,1364.5781 " fill="none" style="stroke:#181818;stroke-width:0.5;"/><rect fill="#E3E3E3" height="31.6094" rx="2.5" ry="2.5" style="stroke:#181818;stroke-width:0.5;" width="185" x="301" y="50"/><text fill="#000000" font-family="sans-serif" font-size="14" lengthAdjust="spacing" textLength="171" x="308" y="71.5332">:importLegacyInformationUI</text><rect fill="#E3E3E3" height="31.6094" rx="2.5" ry="2.5" style="stroke:#181818;stroke-width:0.5;" width="185" x="301" y="1288.4688"/><text fill="#000000" font-family="sans-serif" font-size="14" lengthAdjust="spacing" textLength="171" x="308" y="1310.002">:importLegacyInformationUI</text><rect fill="#E3E3E3" height="31.6094" rx="2.5" ry="2.5" style="stroke:#181818;stroke-width:0.5;" width="235" x="496" y="1288.4688"/><text fill="#000000" font-family="sans-serif" font-size="14" lengthAdjust="spacing" textLength="221" x="503" y="1310.002">:importLegacyInformationController</text><rect fill="#E3E3E3" height="49.2188" rx="2.5" ry="2.5" style="stroke:#181818;stroke-width:0.5;" width="110" x="1006.5" y="1288.4688"/><text fill="#000000" font-family="sans-serif" font-size="14" lengthAdjust="spacing" textLength="87" x="1018" y="1310.002">legacySystem</text><text fill="#000000" font-family="sans-serif" font-size="14" lengthAdjust="spacing" textLength="96" x="1013.5" y="1327.6113">:LegacySystem</text><rect fill="#E3E3E3" height="49.2188" rx="2.5" ry="2.5" style="stroke:#181818;stroke-width:0.5;" width="158" x="1229.5" y="32.3906"/><text fill="#000000" font-family="sans-serif" font-size="14" lengthAdjust="spacing" textLength="135" x="1241" y="53.9238">legacySystemMapper</text><text fill="#000000" font-family="sans-serif" font-size="14" lengthAdjust="spacing" textLength="144" x="1236.5" y="71.5332">:LegacySystemMapper</text><rect fill="#E3E3E3" height="49.2188" rx="2.5" ry="2.5" style="stroke:#181818;stroke-width:0.5;" width="158" x="1229.5" y="1288.4688"/><text fill="#000000" font-family="sans-serif" font-size="14" lengthAdjust="spacing" textLength="135" x="1241" y="1310.002">legacySystemMapper</text><text fill="#000000" font-family="sans-serif" font-size="14" lengthAdjust="spacing" textLength="144" x="1236.5" y="1327.6113">:LegacySystemMapper</text><rect fill="#E3E3E3" height="49.2188" rx="2.5" ry="2.5" style="stroke:#181818;stroke-width:0.5;" width="132" x="1566.5" y="1288.4688"/><text fill="#000000" font-family="sans-serif" font-size="14" lengthAdjust="spacing" textLength="109" x="1578" y="1310.002">legacySystemDto</text><text fill="#000000" font-family="sans-serif" font-size="14" lengthAdjust="spacing" textLength="118" x="1573.5" y="1327.6113">:LegacySystemDto</text><rect fill="#FFFFFF" height="1187.8594" style="stroke:#181818;stroke-width:1.0;" width="10" x="69.5" y="92.6094"/><rect fill="#FFFFFF" height="72.9609" style="stroke:#181818;stroke-width:1.0;" width="10" x="388.5" y="114.9609"/><rect fill="#FFFFFF" height="30.3516" style="stroke:#181818;stroke-width:1.0;" width="10" x="388.5" y="218.2734"/><rect fill="#FFFFFF" height="992.4922" style="stroke:#181818;stroke-width:1.0;" width="10" x="388.5" y="278.9766"/><rect fill="#FFFFFF" height="931.7891" style="stroke:#181818;stroke-width:1.0;" width="10" x="608.5" y="309.3281"/><rect fill="#FFFFFF" height="87.7969" style="stroke:#181818;stroke-width:1.0;" width="10" x="613.5" y="696.2266"/><rect fill="#FFFFFF" height="87.7969" style="stroke:#181818;stroke-width:1.0;" width="10" x="613.5" y="854.375"/><rect fill="#FFFFFF" height="87.7969" style="stroke:#181818;stroke-width:1.0;" width="10" x="613.5" y="1083.9688"/><rect fill="#FFFFFF" height="136.9219" style="stroke:#181818;stroke-width:1.0;" width="10" x="1056.5" y="375.0313"/><rect fill="#FFFFFF" height="41.3516" style="stroke:#181818;stroke-width:1.0;" width="10" x="1061.5" y="433.25"/><rect fill="#FFFFFF" height="90.5703" style="stroke:#181818;stroke-width:1.0;" width="10" x="1303.5" y="542.3047"/><polygon fill="#181818" points="376.5,110.9609,386.5,114.9609,376.5,118.9609,380.5,114.9609" style="stroke:#181818;stroke-width:1.0;"/><line style="stroke:#181818;stroke-width:1.0;" x1="79.5" x2="382.5" y1="114.9609" y2="114.9609"/><text fill="#000000" font-family="sans-serif" font-size="13" font-weight="bold" lengthAdjust="spacing" textLength="7" x="86.5" y="110.1045">1</text><text fill="#000000" font-family="sans-serif" font-size="13" lengthAdjust="spacing" textLength="279" x="97.5" y="110.1045">asks to import information from a legacy system</text><polygon fill="#181818" points="484,141.3125,494,145.3125,484,149.3125,488,145.3125" style="stroke:#181818;stroke-width:1.0;"/><line style="stroke:#181818;stroke-width:1.0;" x1="398.5" x2="490" y1="145.3125" y2="145.3125"/><text fill="#000000" font-family="sans-serif" font-size="13" font-weight="bold" lengthAdjust="spacing" textLength="7" x="405.5" y="140.4561">2</text><text fill="#000000" font-family="sans-serif" font-size="13" lengthAdjust="spacing" textLength="36" x="416.5" y="140.4561">create</text><rect fill="#E3E3E3" height="31.6094" rx="2.5" ry="2.5" style="stroke:#181818;stroke-width:0.5;" width="235" x="496" y="122.9609"/><text fill="#000000" font-family="sans-serif" font-size="14" lengthAdjust="spacing" textLength="221" x="503" y="144.4941">:importLegacyInformationController</text><polygon fill="#181818" points="90.5,183.9219,80.5,187.9219,90.5,191.9219,86.5,187.9219" style="stroke:#181818;stroke-width:1.0;"/><line style="stroke:#181818;stroke-width:1.0;stroke-dasharray:2.0,2.0;" x1="84.5" x2="392.5" y1="187.9219" y2="187.9219"/><text fill="#000000" font-family="sans-serif" font-size="13" font-weight="bold" lengthAdjust="spacing" textLength="7" x="96.5" y="183.0654">3</text><text fill="#000000" font-family="sans-serif" font-size="13" lengthAdjust="spacing" textLength="99" x="107.5" y="183.0654">requests file path</text><polygon fill="#181818" points="376.5,214.2734,386.5,218.2734,376.5,222.2734,380.5,218.2734" style="stroke:#181818;stroke-width:1.0;"/><line style="stroke:#181818;stroke-width:1.0;" x1="79.5" x2="382.5" y1="218.2734" y2="218.2734"/><text fill="#000000" font-family="sans-serif" font-size="13" font-weight="bold" lengthAdjust="spacing" textLength="7" x="86.5" y="213.417">4</text><text fill="#000000" font-family="sans-serif" font-size="13" lengthAdjust="spacing" textLength="81" x="97.5" y="213.417">types file path</text><polygon fill="#181818" points="90.5,244.625,80.5,248.625,90.5,252.625,86.5,248.625" style="stroke:#181818;stroke-width:1.0;"/><line style="stroke:#181818;stroke-width:1.0;stroke-dasharray:2.0,2.0;" x1="84.5" x2="392.5" y1="248.625" y2="248.625"/><text fill="#000000" font-family="sans-serif" font-size="13" font-weight="bold" lengthAdjust="spacing" textLength="7" x="96.5" y="243.7686">5</text><text fill="#000000" font-family="sans-serif" font-size="13" lengthAdjust="spacing" textLength="186" x="107.5" y="243.7686">asks to confirm and submit data</text><polygon fill="#181818" points="376.5,274.9766,386.5,278.9766,376.5,282.9766,380.5,278.9766" style="stroke:#181818;stroke-width:1.0;"/><line style="stroke:#181818;stroke-width:1.0;" x1="79.5" x2="382.5" y1="278.9766" y2="278.9766"/><text fill="#000000" font-family="sans-serif" font-size="13" font-weight="bold" lengthAdjust="spacing" textLength="7" x="86.5" y="274.1201">6</text><text fill="#000000" font-family="sans-serif" font-size="13" lengthAdjust="spacing" textLength="75" x="97.5" y="274.1201">submits data</text><polygon fill="#181818" points="596.5,305.3281,606.5,309.3281,596.5,313.3281,600.5,309.3281" style="stroke:#181818;stroke-width:1.0;"/><line style="stroke:#181818;stroke-width:1.0;" x1="398.5" x2="602.5" y1="309.3281" y2="309.3281"/><text fill="#000000" font-family="sans-serif" font-size="13" font-weight="bold" lengthAdjust="spacing" textLength="7" x="405.5" y="304.4717">7</text><text fill="#000000" font-family="sans-serif" font-size="13" lengthAdjust="spacing" textLength="107" x="416.5" y="304.4717">importInfo(filePath)</text><path d="M486,324.3281 L559,324.3281 L559,332.6797 L549,342.6797 L486,342.6797 L486,324.3281 " fill="#EEEEEE" style="stroke:#000000;stroke-width:1.5;"/><rect fill="none" height="887.4375" style="stroke:#000000;stroke-width:1.5;" width="1222.5" x="486" y="324.3281"/><text fill="#000000" font-family="sans-serif" font-size="13" font-weight="bold" lengthAdjust="spacing" textLength="28" x="501" y="338.8232">loop</text><text fill="#000000" font-family="sans-serif" font-size="11" font-weight="bold" lengthAdjust="spacing" textLength="131" x="574" y="337.7471">[while file has next line]</text><polygon fill="#181818" points="994.5,361.0313,1004.5,365.0313,994.5,369.0313,998.5,365.0313" style="stroke:#181818;stroke-width:1.0;"/><line style="stroke:#181818;stroke-width:1.0;" x1="618.5" x2="1000.5" y1="365.0313" y2="365.0313"/><text fill="#000000" font-family="sans-serif" font-size="13" font-weight="bold" lengthAdjust="spacing" textLength="7" x="625.5" y="360.1748">8</text><text fill="#000000" font-family="sans-serif" font-size="13" lengthAdjust="spacing" textLength="148" x="636.5" y="360.1748">importInformation(filepath)</text><rect fill="#E3E3E3" height="49.2188" rx="2.5" ry="2.5" style="stroke:#181818;stroke-width:0.5;" width="110" x="1006.5" y="342.6797"/><text fill="#000000" font-family="sans-serif" font-size="14" lengthAdjust="spacing" textLength="87" x="1018" y="364.2129">legacySystem</text><text fill="#000000" font-family="sans-serif" font-size="14" lengthAdjust="spacing" textLength="96" x="1013.5" y="381.8223">:LegacySystem</text><line style="stroke:#181818;stroke-width:1.0;" x1="1066.5" x2="1113.5" y1="420.25" y2="420.25"/><line style="stroke:#181818;stroke-width:1.0;" x1="1113.5" x2="1113.5" y1="420.25" y2="433.25"/><line style="stroke:#181818;stroke-width:1.0;" x1="1072.5" x2="1113.5" y1="433.25" y2="433.25"/><polygon fill="#181818" points="1082.5,429.25,1072.5,433.25,1082.5,437.25,1078.5,433.25" style="stroke:#181818;stroke-width:1.0;"/><text fill="#000000" font-family="sans-serif" font-size="13" font-weight="bold" lengthAdjust="spacing" textLength="7" x="1078.5" y="415.3936">9</text><text fill="#000000" font-family="sans-serif" font-size="13" lengthAdjust="spacing" textLength="212" x="1089.5" y="415.3936">readLineInformationFromFile(filepath)</text><line style="stroke:#181818;stroke-width:1.0;stroke-dasharray:2.0,2.0;" x1="1071.5" x2="1113.5" y1="473.6016" y2="473.6016"/><line style="stroke:#181818;stroke-width:1.0;stroke-dasharray:2.0,2.0;" x1="1113.5" x2="1113.5" y1="473.6016" y2="486.6016"/><line style="stroke:#181818;stroke-width:1.0;stroke-dasharray:2.0,2.0;" x1="1066.5" x2="1113.5" y1="486.6016" y2="486.6016"/><polygon fill="#181818" points="1076.5,482.6016,1066.5,486.6016,1076.5,490.6016,1072.5,486.6016" style="stroke:#181818;stroke-width:1.0;"/><text fill="#000000" font-family="sans-serif" font-size="13" font-weight="bold" lengthAdjust="spacing" textLength="14" x="1078.5" y="468.7451">10</text><text fill="#000000" font-family="sans-serif" font-size="13" lengthAdjust="spacing" textLength="167" x="1096.5" y="468.7451">legacySystemInformationList</text><polygon fill="#181818" points="629.5,507.9531,619.5,511.9531,629.5,515.9531,625.5,511.9531" style="stroke:#181818;stroke-width:1.0;"/><line style="stroke:#181818;stroke-width:1.0;stroke-dasharray:2.0,2.0;" x1="623.5" x2="1060.5" y1="511.9531" y2="511.9531"/><text fill="#000000" font-family="sans-serif" font-size="13" font-weight="bold" lengthAdjust="spacing" textLength="14" x="635.5" y="507.0967">11</text><text fill="#000000" font-family="sans-serif" font-size="13" lengthAdjust="spacing" textLength="167" x="653.5" y="507.0967">legacySystemInformationList</text><polygon fill="#181818" points="1291.5,538.3047,1301.5,542.3047,1291.5,546.3047,1295.5,542.3047" style="stroke:#181818;stroke-width:1.0;"/><line style="stroke:#181818;stroke-width:1.0;" x1="618.5" x2="1297.5" y1="542.3047" y2="542.3047"/><text fill="#000000" font-family="sans-serif" font-size="13" font-weight="bold" lengthAdjust="spacing" textLength="14" x="625.5" y="537.4482">12</text><text fill="#000000" font-family="sans-serif" font-size="13" lengthAdjust="spacing" textLength="206" x="643.5" y="537.4482">toDto(legacySystemInformationList)</text><polygon fill="#181818" points="1554.5,568.6563,1564.5,572.6563,1554.5,576.6563,1558.5,572.6563" style="stroke:#181818;stroke-width:1.0;"/><line style="stroke:#181818;stroke-width:1.0;" x1="1313.5" x2="1560.5" y1="572.6563" y2="572.6563"/><text fill="#000000" font-family="sans-serif" font-size="13" font-weight="bold" lengthAdjust="spacing" textLength="14" x="1320.5" y="567.7998">13</text><text fill="#000000" font-family="sans-serif" font-size="13" lengthAdjust="spacing" textLength="211" x="1338.5" y="567.7998">create(legacySystemInformationList)</text><rect fill="#E3E3E3" height="49.2188" rx="2.5" ry="2.5" style="stroke:#181818;stroke-width:0.5;" width="132" x="1566.5" y="550.3047"/><text fill="#000000" font-family="sans-serif" font-size="14" lengthAdjust="spacing" textLength="109" x="1578" y="571.8379">legacySystemDto</text><text fill="#000000" font-family="sans-serif" font-size="14" lengthAdjust="spacing" textLength="118" x="1573.5" y="589.4473">:LegacySystemDto</text><polygon fill="#181818" points="629.5,628.875,619.5,632.875,629.5,636.875,625.5,632.875" style="stroke:#181818;stroke-width:1.0;"/><line style="stroke:#181818;stroke-width:1.0;stroke-dasharray:2.0,2.0;" x1="623.5" x2="1307.5" y1="632.875" y2="632.875"/><text fill="#000000" font-family="sans-serif" font-size="13" font-weight="bold" lengthAdjust="spacing" textLength="14" x="635.5" y="628.0186">14</text><text fill="#000000" font-family="sans-serif" font-size="13" lengthAdjust="spacing" textLength="103" x="653.5" y="628.0186">legacySystemDto</text><line style="stroke:#181818;stroke-width:1.0;" x1="618.5" x2="665.5" y1="683.2266" y2="683.2266"/><line style="stroke:#181818;stroke-width:1.0;" x1="665.5" x2="665.5" y1="683.2266" y2="696.2266"/><line style="stroke:#181818;stroke-width:1.0;" x1="624.5" x2="665.5" y1="696.2266" y2="696.2266"/><polygon fill="#181818" points="634.5,692.2266,624.5,696.2266,634.5,700.2266,630.5,696.2266" style="stroke:#181818;stroke-width:1.0;"/><text fill="#000000" font-family="sans-serif" font-size="13" font-weight="bold" lengthAdjust="spacing" textLength="14" x="630.5" y="678.3701">15</text><text fill="#000000" font-family="sans-serif" font-size="13" lengthAdjust="spacing" textLength="198" x="648.5" y="678.3701">registerAgency(legacySystemDto)</text><rect fill="none" height="41.4453" style="stroke:#000000;stroke-width:1.5;" width="241" x="493" y="709.2266"/><path d="M493,709.2266 L555,709.2266 L555,717.2266 L545,727.2266 L493,727.2266 L493,709.2266 " fill="#EEEEEE" style="stroke:#000000;stroke-width:2.0;"/><text fill="#000000" font-family="sans-serif" font-size="13" font-weight="bold" lengthAdjust="spacing" textLength="17" x="506" y="724.7217">ref</text><text fill="#000000" font-family="sans-serif" font-size="12" lengthAdjust="spacing" textLength="89" x="569" y="743.6836">Register Agency</text><line style="stroke:#181818;stroke-width:1.0;stroke-dasharray:2.0,2.0;" x1="623.5" x2="665.5" y1="783.0234" y2="783.0234"/><line style="stroke:#181818;stroke-width:1.0;stroke-dasharray:2.0,2.0;" x1="665.5" x2="665.5" y1="783.0234" y2="796.0234"/><line style="stroke:#181818;stroke-width:1.0;stroke-dasharray:2.0,2.0;" x1="618.5" x2="665.5" y1="796.0234" y2="796.0234"/><polygon fill="#181818" points="628.5,792.0234,618.5,796.0234,628.5,800.0234,624.5,796.0234" style="stroke:#181818;stroke-width:1.0;"/><text fill="#000000" font-family="sans-serif" font-size="13" font-weight="bold" lengthAdjust="spacing" textLength="14" x="630.5" y="778.167">16</text><text fill="#000000" font-family="sans-serif" font-size="13" lengthAdjust="spacing" textLength="42" x="648.5" y="778.167">agency</text><line style="stroke:#181818;stroke-width:1.0;" x1="618.5" x2="665.5" y1="841.375" y2="841.375"/><line style="stroke:#181818;stroke-width:1.0;" x1="665.5" x2="665.5" y1="841.375" y2="854.375"/><line style="stroke:#181818;stroke-width:1.0;" x1="624.5" x2="665.5" y1="854.375" y2="854.375"/><polygon fill="#181818" points="634.5,850.375,624.5,854.375,634.5,858.375,630.5,854.375" style="stroke:#181818;stroke-width:1.0;"/><text fill="#000000" font-family="sans-serif" font-size="13" font-weight="bold" lengthAdjust="spacing" textLength="14" x="630.5" y="836.5186">17</text><text fill="#000000" font-family="sans-serif" font-size="13" lengthAdjust="spacing" textLength="127" x="648.5" y="836.5186">registerAgent(agency)</text><rect fill="none" height="41.4453" style="stroke:#000000;stroke-width:1.5;" width="241" x="493" y="867.375"/><path d="M493,867.375 L555,867.375 L555,875.375 L545,885.375 L493,885.375 L493,867.375 " fill="#EEEEEE" style="stroke:#000000;stroke-width:2.0;"/><text fill="#000000" font-family="sans-serif" font-size="13" font-weight="bold" lengthAdjust="spacing" textLength="17" x="506" y="882.8701">ref</text><text fill="#000000" font-family="sans-serif" font-size="12" lengthAdjust="spacing" textLength="81" x="573" y="901.832">Register Agent</text><line style="stroke:#181818;stroke-width:1.0;stroke-dasharray:2.0,2.0;" x1="623.5" x2="665.5" y1="941.1719" y2="941.1719"/><line style="stroke:#181818;stroke-width:1.0;stroke-dasharray:2.0,2.0;" x1="665.5" x2="665.5" y1="941.1719" y2="954.1719"/><line style="stroke:#181818;stroke-width:1.0;stroke-dasharray:2.0,2.0;" x1="618.5" x2="665.5" y1="954.1719" y2="954.1719"/><polygon fill="#181818" points="628.5,950.1719,618.5,954.1719,628.5,958.1719,624.5,954.1719" style="stroke:#181818;stroke-width:1.0;"/><text fill="#000000" font-family="sans-serif" font-size="13" font-weight="bold" lengthAdjust="spacing" textLength="14" x="630.5" y="936.3154">18</text><text fill="#000000" font-family="sans-serif" font-size="13" lengthAdjust="spacing" textLength="32" x="648.5" y="936.3154">agent</text><rect fill="none" height="41.4453" style="stroke:#000000;stroke-width:1.5;" width="241" x="493" y="982.1719"/><path d="M493,982.1719 L555,982.1719 L555,990.1719 L545,1000.1719 L493,1000.1719 L493,982.1719 " fill="#EEEEEE" style="stroke:#000000;stroke-width:2.0;"/><text fill="#000000" font-family="sans-serif" font-size="13" font-weight="bold" lengthAdjust="spacing" textLength="17" x="506" y="997.667">ref</text><text fill="#000000" font-family="sans-serif" font-size="12" lengthAdjust="spacing" textLength="86" x="570.5" y="1016.6289">Register Owner</text><line style="stroke:#181818;stroke-width:1.0;" x1="618.5" x2="665.5" y1="1070.9688" y2="1070.9688"/><line style="stroke:#181818;stroke-width:1.0;" x1="665.5" x2="665.5" y1="1070.9688" y2="1083.9688"/><line style="stroke:#181818;stroke-width:1.0;" x1="624.5" x2="665.5" y1="1083.9688" y2="1083.9688"/><polygon fill="#181818" points="634.5,1079.9688,624.5,1083.9688,634.5,1087.9688,630.5,1083.9688" style="stroke:#181818;stroke-width:1.0;"/><text fill="#000000" font-family="sans-serif" font-size="13" font-weight="bold" lengthAdjust="spacing" textLength="14" x="630.5" y="1066.1123">19</text><text fill="#000000" font-family="sans-serif" font-size="13" lengthAdjust="spacing" textLength="406" x="648.5" y="1066.1123">PublishAnnouncement(legacySystemDto, agency, agent, ownerEmail)</text><rect fill="none" height="41.4453" style="stroke:#000000;stroke-width:1.5;" width="241" x="493" y="1096.9688"/><path d="M493,1096.9688 L555,1096.9688 L555,1104.9688 L545,1114.9688 L493,1114.9688 L493,1096.9688 " fill="#EEEEEE" style="stroke:#000000;stroke-width:2.0;"/><text fill="#000000" font-family="sans-serif" font-size="13" font-weight="bold" lengthAdjust="spacing" textLength="17" x="506" y="1112.4639">ref</text><text fill="#000000" font-family="sans-serif" font-size="12" lengthAdjust="spacing" textLength="128" x="549.5" y="1131.4258">Publish Announcement</text><line style="stroke:#181818;stroke-width:1.0;stroke-dasharray:2.0,2.0;" x1="623.5" x2="665.5" y1="1170.7656" y2="1170.7656"/><line style="stroke:#181818;stroke-width:1.0;stroke-dasharray:2.0,2.0;" x1="665.5" x2="665.5" y1="1170.7656" y2="1183.7656"/><line style="stroke:#181818;stroke-width:1.0;stroke-dasharray:2.0,2.0;" x1="618.5" x2="665.5" y1="1183.7656" y2="1183.7656"/><polygon fill="#181818" points="628.5,1179.7656,618.5,1183.7656,628.5,1187.7656,624.5,1183.7656" style="stroke:#181818;stroke-width:1.0;"/><text fill="#000000" font-family="sans-serif" font-size="13" font-weight="bold" lengthAdjust="spacing" textLength="14" x="630.5" y="1165.9092">20</text><text fill="#000000" font-family="sans-serif" font-size="13" lengthAdjust="spacing" textLength="4" x="648.5" y="1165.9092"> </text><polygon fill="#181818" points="409.5,1237.1172,399.5,1241.1172,409.5,1245.1172,405.5,1241.1172" style="stroke:#181818;stroke-width:1.0;"/><line style="stroke:#181818;stroke-width:1.0;stroke-dasharray:2.0,2.0;" x1="403.5" x2="612.5" y1="1241.1172" y2="1241.1172"/><text fill="#000000" font-family="sans-serif" font-size="13" font-weight="bold" lengthAdjust="spacing" textLength="14" x="415.5" y="1236.2607">21</text><text fill="#000000" font-family="sans-serif" font-size="13" lengthAdjust="spacing" textLength="104" x="433.5" y="1236.2607">operationSuccess</text><polygon fill="#181818" points="90.5,1267.4688,80.5,1271.4688,90.5,1275.4688,86.5,1271.4688" style="stroke:#181818;stroke-width:1.0;"/><line style="stroke:#181818;stroke-width:1.0;stroke-dasharray:2.0,2.0;" x1="84.5" x2="392.5" y1="1271.4688" y2="1271.4688"/><text fill="#000000" font-family="sans-serif" font-size="13" font-weight="bold" lengthAdjust="spacing" textLength="14" x="96.5" y="1266.6123">22</text><text fill="#000000" font-family="sans-serif" font-size="13" lengthAdjust="spacing" textLength="158" x="114.5" y="1266.6123">displays operation success</text><!--SRC=[fPJRRjim38Rl_HH4RvO5xGiOmu2W1o20YnNDUhSRnQPZeRRaINJR07tuKOSvQk9asUQRn3Bv_UGlIlPPgbuOqK6dbIuRepi4CWDcTlpIY_9PR715snR1O4b2RTeqm3QYqgzIRQ0MhSKi4mDfDNHhD5dsgP4LGgqrhVLR9ahI1YvMMqlOmQBgf9AMZE3L2n0M5ZVt6KD9bh8NYk0Ybrsl3HMu4ULsgMfjEa5IgwUbZtzQdXT-hHKPtROOPAw_FnOV4rkV4UhweV8YUVKPnUfu_BteUpHxMM4nveQNuuGRqdlfl19p-L_cV9ClWj0Rb04__0Uklh81a7FSimNI49e7kUiRQjvH4134m7gspn-9RA5VO1Bpd3FpUGwbGVwu-yAVd6BE0_1pG4iMQidZq0jgV4o51y2qGjhsk9yoMS6eyxkdKgjQ6kv1LM27TIS9Aa7Y7D4GRdVn9thEetbkPcQkpWSky_F7B3yr8R7LkeVNnlNZcsfugnI-4RHIHTV0npj-iPhF8HM8c-Dr-b4dKU9fYql5AX2yyw8g69yGxdXtxnXoBicZSaX7Bw4LV1HZSEBiIF3jVBcw2jNy6oFn99m9DnkQHtnsWZVHL3nGOsiHvi5Cytw74JuDFW34STXhq9t1YQRIAjxVtxEqmKWnk64XD8iDgd8xsuDE3PXRCLY3Vk5wnXNtF4OM19XVHpuM79r8xxJ5BYmfUqIwYlzKCiq2v3yAfRFgf9DbdY7rxLNnLgHIHtRaOLYtqZOBfVIWIknSatlRSXcj2xzq2Th1RpiXsxyp8cf1AdPWnu4barQCxVXST_za7yryMkQWUHpzTA-6iaHhfqa7TsqbRT-AhTtbyzqv2U2BynS0]--></g></svg>