<?xml version="1.0" encoding="UTF-8" standalone="no"?><svg xmlns="http://www.w3.org/2000/svg" xmlns:xlink="http://www.w3.org/1999/xlink" contentStyleType="text/css" height="977px" preserveAspectRatio="none" style="width:2157px;height:977px;background:#FFFFFF;" version="1.1" viewBox="0 0 2157 977" width="2157px" zoomAndPan="magnify"><defs/><g><rect fill="#FFFFFF" height="817.2109" style="stroke:#181818;stroke-width:1.0;" width="10" x="441" y="87.5703"/><rect fill="#FFFFFF" height="87.7969" style="stroke:#181818;stroke-width:1.0;" width="10" x="446" y="176.2734"/><rect fill="#FFFFFF" height="91.0547" style="stroke:#181818;stroke-width:1.0;" width="10" x="908" y="326.4219"/><rect fill="#FFFFFF" height="91.0547" style="stroke:#181818;stroke-width:1.0;" width="10" x="908" y="447.8281"/><rect fill="#FFFFFF" height="30.3516" style="stroke:#181818;stroke-width:1.0;" width="10" x="1175" y="356.7734"/><rect fill="#FFFFFF" height="30.3516" style="stroke:#181818;stroke-width:1.0;" width="10" x="1175" y="478.1797"/><rect fill="#FFFFFF" height="298.1953" style="stroke:#181818;stroke-width:1.0;" width="10" x="1281" y="569.2344"/><rect fill="#FFFFFF" height="117.0547" style="stroke:#181818;stroke-width:1.0;" width="10" x="1547" y="720.0234"/><rect fill="#FFFFFF" height="41.3516" style="stroke:#181818;stroke-width:1.0;" width="10" x="1552" y="758.375"/><rect fill="#FFFFFF" height="50.2188" style="stroke:#181818;stroke-width:1.0;" width="10" x="1830" y="609.5859"/><rect fill="none" height="772.8594" style="stroke:#000000;stroke-width:1.5;" width="1832.5" x="318.5" y="102.5703"/><line style="stroke:#181818;stroke-width:0.5;stroke-dasharray:5.0,5.0;" x1="445.5" x2="445.5" y1="55.2188" y2="922.7813"/><line style="stroke:#181818;stroke-width:0.5;stroke-dasharray:5.0,5.0;" x1="913" x2="913" y1="55.2188" y2="922.7813"/><line style="stroke:#181818;stroke-width:0.5;stroke-dasharray:5.0,5.0;" x1="1179.5" x2="1179.5" y1="55.2188" y2="922.7813"/><line style="stroke:#181818;stroke-width:0.5;stroke-dasharray:5.0,5.0;" x1="1285.5" x2="1285.5" y1="55.2188" y2="922.7813"/><line style="stroke:#181818;stroke-width:0.5;stroke-dasharray:5.0,5.0;" x1="1551.5" x2="1551.5" y1="55.2188" y2="922.7813"/><line style="stroke:#181818;stroke-width:0.5;stroke-dasharray:5.0,5.0;" x1="1834.5" x2="1834.5" y1="617.3438" y2="922.7813"/><line style="stroke:#181818;stroke-width:0.5;stroke-dasharray:5.0,5.0;" x1="2094" x2="2094" y1="677.5625" y2="922.7813"/><rect fill="#E3E3E3" height="31.6094" rx="2.5" ry="2.5" style="stroke:#181818;stroke-width:0.5;" width="235" x="328.5" y="22.6094"/><text fill="#000000" font-family="sans-serif" font-size="14" lengthAdjust="spacing" textLength="221" x="335.5" y="44.1426">:ImportLegacyInformationController</text><rect fill="#E3E3E3" height="31.6094" rx="2.5" ry="2.5" style="stroke:#181818;stroke-width:0.5;" width="235" x="328.5" y="921.7813"/><text fill="#000000" font-family="sans-serif" font-size="14" lengthAdjust="spacing" textLength="221" x="335.5" y="943.3145">:ImportLegacyInformationController</text><rect fill="#E3E3E3" height="31.6094" rx="2.5" ry="2.5" style="stroke:#181818;stroke-width:0.5;" width="158" x="834" y="22.6094"/><text fill="#000000" font-family="sans-serif" font-size="14" lengthAdjust="spacing" textLength="144" x="841" y="44.1426">:LegacySystemMapper</text><rect fill="#E3E3E3" height="31.6094" rx="2.5" ry="2.5" style="stroke:#181818;stroke-width:0.5;" width="158" x="834" y="921.7813"/><text fill="#000000" font-family="sans-serif" font-size="14" lengthAdjust="spacing" textLength="144" x="841" y="943.3145">:LegacySystemMapper</text><rect fill="#E3E3E3" height="49.2188" rx="2.5" ry="2.5" style="stroke:#181818;stroke-width:0.5;" width="127" x="1116.5" y="5"/><text fill="#000000" font-family="sans-serif" font-size="14" lengthAdjust="spacing" textLength="109" x="1125.5" y="26.5332">legacySystemDto</text><text fill="#000000" font-family="sans-serif" font-size="14" lengthAdjust="spacing" textLength="113" x="1123.5" y="44.1426">:legacySystemDto</text><rect fill="#E3E3E3" height="49.2188" rx="2.5" ry="2.5" style="stroke:#181818;stroke-width:0.5;" width="127" x="1116.5" y="921.7813"/><text fill="#000000" font-family="sans-serif" font-size="14" lengthAdjust="spacing" textLength="109" x="1125.5" y="943.3145">legacySystemDto</text><text fill="#000000" font-family="sans-serif" font-size="14" lengthAdjust="spacing" textLength="113" x="1123.5" y="960.9238">:legacySystemDto</text><rect fill="#E3E3E3" height="49.2188" rx="2.5" ry="2.5" style="stroke:#181818;stroke-width:0.5;" width="65" x="1253.5" y="5"/><text fill="#000000" font-family="sans-serif" font-size="14" lengthAdjust="spacing" textLength="46" x="1263" y="26.5332">agency</text><text fill="#000000" font-family="sans-serif" font-size="14" lengthAdjust="spacing" textLength="51" x="1260.5" y="44.1426">:Agency</text><rect fill="#E3E3E3" height="49.2188" rx="2.5" ry="2.5" style="stroke:#181818;stroke-width:0.5;" width="65" x="1253.5" y="921.7813"/><text fill="#000000" font-family="sans-serif" font-size="14" lengthAdjust="spacing" textLength="46" x="1263" y="943.3145">agency</text><text fill="#000000" font-family="sans-serif" font-size="14" lengthAdjust="spacing" textLength="51" x="1260.5" y="960.9238">:Agency</text><rect fill="#E3E3E3" height="49.2188" rx="2.5" ry="2.5" style="stroke:#181818;stroke-width:0.5;" width="135" x="1484.5" y="5"/><text fill="#000000" font-family="sans-serif" font-size="14" lengthAdjust="spacing" textLength="116" x="1494" y="26.5332">announcementList</text><text fill="#000000" font-family="sans-serif" font-size="14" lengthAdjust="spacing" textLength="121" x="1491.5" y="44.1426">:AnnouncementList</text><rect fill="#E3E3E3" height="49.2188" rx="2.5" ry="2.5" style="stroke:#181818;stroke-width:0.5;" width="135" x="1484.5" y="921.7813"/><text fill="#000000" font-family="sans-serif" font-size="14" lengthAdjust="spacing" textLength="116" x="1494" y="943.3145">announcementList</text><text fill="#000000" font-family="sans-serif" font-size="14" lengthAdjust="spacing" textLength="121" x="1491.5" y="960.9238">:AnnouncementList</text><rect fill="#E3E3E3" height="49.2188" rx="2.5" ry="2.5" style="stroke:#181818;stroke-width:0.5;" width="113" x="1778.5" y="921.7813"/><text fill="#000000" font-family="sans-serif" font-size="14" lengthAdjust="spacing" textLength="94" x="1788" y="943.3145">announcement</text><text fill="#000000" font-family="sans-serif" font-size="14" lengthAdjust="spacing" textLength="99" x="1785.5" y="960.9238">:Announcement</text><rect fill="#E3E3E3" height="49.2188" rx="2.5" ry="2.5" style="stroke:#181818;stroke-width:0.5;" width="94" x="2047" y="921.7813"/><text fill="#000000" font-family="sans-serif" font-size="14" lengthAdjust="spacing" textLength="73" x="2057.5" y="943.3145">commission</text><text fill="#000000" font-family="sans-serif" font-size="14" lengthAdjust="spacing" textLength="80" x="2054" y="960.9238">:Commission</text><rect fill="#FFFFFF" height="817.2109" style="stroke:#181818;stroke-width:1.0;" width="10" x="441" y="87.5703"/><rect fill="#FFFFFF" height="87.7969" style="stroke:#181818;stroke-width:1.0;" width="10" x="446" y="176.2734"/><rect fill="#FFFFFF" height="91.0547" style="stroke:#181818;stroke-width:1.0;" width="10" x="908" y="326.4219"/><rect fill="#FFFFFF" height="91.0547" style="stroke:#181818;stroke-width:1.0;" width="10" x="908" y="447.8281"/><rect fill="#FFFFFF" height="30.3516" style="stroke:#181818;stroke-width:1.0;" width="10" x="1175" y="356.7734"/><rect fill="#FFFFFF" height="30.3516" style="stroke:#181818;stroke-width:1.0;" width="10" x="1175" y="478.1797"/><rect fill="#FFFFFF" height="298.1953" style="stroke:#181818;stroke-width:1.0;" width="10" x="1281" y="569.2344"/><rect fill="#FFFFFF" height="117.0547" style="stroke:#181818;stroke-width:1.0;" width="10" x="1547" y="720.0234"/><rect fill="#FFFFFF" height="41.3516" style="stroke:#181818;stroke-width:1.0;" width="10" x="1552" y="758.375"/><rect fill="#FFFFFF" height="50.2188" style="stroke:#181818;stroke-width:1.0;" width="10" x="1830" y="609.5859"/><polygon fill="#181818" points="429,83.5703,439,87.5703,429,91.5703,433,87.5703" style="stroke:#181818;stroke-width:1.0;"/><line style="stroke:#181818;stroke-width:1.0;" x1="0" x2="435" y1="87.5703" y2="87.5703"/><text fill="#000000" font-family="sans-serif" font-size="13" font-weight="bold" lengthAdjust="spacing" textLength="14" x="7" y="82.7139">23</text><text fill="#000000" font-family="sans-serif" font-size="13" lengthAdjust="spacing" textLength="404" x="25" y="82.7139">publishAnnouncement(legacySystemDto, agency, agent, ownerEmail)</text><path d="M318.5,102.5703 L510.5,102.5703 L510.5,110.9219 L500.5,120.9219 L318.5,120.9219 L318.5,102.5703 " fill="#EEEEEE" style="stroke:#000000;stroke-width:1.5;"/><rect fill="none" height="772.8594" style="stroke:#000000;stroke-width:1.5;" width="1832.5" x="318.5" y="102.5703"/><text fill="#000000" font-family="sans-serif" font-size="13" font-weight="bold" lengthAdjust="spacing" textLength="147" x="333.5" y="117.0654">Publish Announcement</text><line style="stroke:#181818;stroke-width:1.0;" x1="451" x2="498" y1="163.2734" y2="163.2734"/><line style="stroke:#181818;stroke-width:1.0;" x1="498" x2="498" y1="163.2734" y2="176.2734"/><line style="stroke:#181818;stroke-width:1.0;" x1="457" x2="498" y1="176.2734" y2="176.2734"/><polygon fill="#181818" points="467,172.2734,457,176.2734,467,180.2734,463,176.2734" style="stroke:#181818;stroke-width:1.0;"/><text fill="#000000" font-family="sans-serif" font-size="13" font-weight="bold" lengthAdjust="spacing" textLength="25" x="463" y="158.417">23.1</text><text fill="#000000" font-family="sans-serif" font-size="13" lengthAdjust="spacing" textLength="414" x="492" y="158.417">getRequestFromLegacy(legacySystemDto, agency, agent, ownerEmail)</text><rect fill="none" height="41.4453" style="stroke:#000000;stroke-width:1.5;" width="241" x="325.5" y="189.2734"/><path d="M325.5,189.2734 L387.5,189.2734 L387.5,197.2734 L377.5,207.2734 L325.5,207.2734 L325.5,189.2734 " fill="#EEEEEE" style="stroke:#000000;stroke-width:2.0;"/><text fill="#000000" font-family="sans-serif" font-size="13" font-weight="bold" lengthAdjust="spacing" textLength="17" x="338.5" y="204.7686">ref</text><text fill="#000000" font-family="sans-serif" font-size="12" lengthAdjust="spacing" textLength="87" x="402.5" y="223.7305">Create Request</text><line style="stroke:#181818;stroke-width:1.0;stroke-dasharray:2.0,2.0;" x1="456" x2="498" y1="263.0703" y2="263.0703"/><line style="stroke:#181818;stroke-width:1.0;stroke-dasharray:2.0,2.0;" x1="498" x2="498" y1="263.0703" y2="276.0703"/><line style="stroke:#181818;stroke-width:1.0;stroke-dasharray:2.0,2.0;" x1="451" x2="498" y1="276.0703" y2="276.0703"/><polygon fill="#181818" points="461,272.0703,451,276.0703,461,280.0703,457,276.0703" style="stroke:#181818;stroke-width:1.0;"/><text fill="#000000" font-family="sans-serif" font-size="13" font-weight="bold" lengthAdjust="spacing" textLength="25" x="463" y="258.2139">23.2</text><text fill="#000000" font-family="sans-serif" font-size="13" lengthAdjust="spacing" textLength="43" x="492" y="258.2139">request</text><polygon fill="#181818" points="896,322.4219,906,326.4219,896,330.4219,900,326.4219" style="stroke:#181818;stroke-width:1.0;"/><line style="stroke:#181818;stroke-width:1.0;" x1="451" x2="902" y1="326.4219" y2="326.4219"/><text fill="#000000" font-family="sans-serif" font-size="13" font-weight="bold" lengthAdjust="spacing" textLength="25" x="458" y="321.5654">23.3</text><text fill="#000000" font-family="sans-serif" font-size="13" lengthAdjust="spacing" textLength="131" x="487" y="321.5654">getCommissionValue()</text><polygon fill="#181818" points="1163,352.7734,1173,356.7734,1163,360.7734,1167,356.7734" style="stroke:#181818;stroke-width:1.0;"/><line style="stroke:#181818;stroke-width:1.0;" x1="918" x2="1169" y1="356.7734" y2="356.7734"/><text fill="#000000" font-family="sans-serif" font-size="13" font-weight="bold" lengthAdjust="spacing" textLength="25" x="925" y="351.917">23.4</text><text fill="#000000" font-family="sans-serif" font-size="13" lengthAdjust="spacing" textLength="131" x="954" y="351.917">getCommissionValue()</text><polygon fill="#181818" points="929,383.125,919,387.125,929,391.125,925,387.125" style="stroke:#181818;stroke-width:1.0;"/><line style="stroke:#181818;stroke-width:1.0;stroke-dasharray:2.0,2.0;" x1="923" x2="1179" y1="387.125" y2="387.125"/><text fill="#000000" font-family="sans-serif" font-size="13" font-weight="bold" lengthAdjust="spacing" textLength="25" x="935" y="382.2686">23.5</text><text fill="#000000" font-family="sans-serif" font-size="13" lengthAdjust="spacing" textLength="103" x="964" y="382.2686">commissionValue</text><polygon fill="#181818" points="462,413.4766,452,417.4766,462,421.4766,458,417.4766" style="stroke:#181818;stroke-width:1.0;"/><line style="stroke:#181818;stroke-width:1.0;stroke-dasharray:2.0,2.0;" x1="456" x2="912" y1="417.4766" y2="417.4766"/><text fill="#000000" font-family="sans-serif" font-size="13" font-weight="bold" lengthAdjust="spacing" textLength="25" x="468" y="412.6201">23.6</text><text fill="#000000" font-family="sans-serif" font-size="13" lengthAdjust="spacing" textLength="103" x="497" y="412.6201">commissionValue</text><polygon fill="#181818" points="896,443.8281,906,447.8281,896,451.8281,900,447.8281" style="stroke:#181818;stroke-width:1.0;"/><line style="stroke:#181818;stroke-width:1.0;" x1="451" x2="902" y1="447.8281" y2="447.8281"/><text fill="#000000" font-family="sans-serif" font-size="13" font-weight="bold" lengthAdjust="spacing" textLength="25" x="458" y="442.9717">23.7</text><text fill="#000000" font-family="sans-serif" font-size="13" lengthAdjust="spacing" textLength="209" x="487" y="442.9717">getAnnouncementAcceptanceDate()</text><polygon fill="#181818" points="1163,474.1797,1173,478.1797,1163,482.1797,1167,478.1797" style="stroke:#181818;stroke-width:1.0;"/><line style="stroke:#181818;stroke-width:1.0;" x1="918" x2="1169" y1="478.1797" y2="478.1797"/><text fill="#000000" font-family="sans-serif" font-size="13" font-weight="bold" lengthAdjust="spacing" textLength="25" x="925" y="473.3232">23.8</text><text fill="#000000" font-family="sans-serif" font-size="13" lengthAdjust="spacing" textLength="209" x="954" y="473.3232">getAnnouncementAcceptanceDate()</text><polygon fill="#181818" points="929,504.5313,919,508.5313,929,512.5313,925,508.5313" style="stroke:#181818;stroke-width:1.0;"/><line style="stroke:#181818;stroke-width:1.0;stroke-dasharray:2.0,2.0;" x1="923" x2="1179" y1="508.5313" y2="508.5313"/><text fill="#000000" font-family="sans-serif" font-size="13" font-weight="bold" lengthAdjust="spacing" textLength="25" x="935" y="503.6748">23.9</text><text fill="#000000" font-family="sans-serif" font-size="13" lengthAdjust="spacing" textLength="94" x="964" y="503.6748">acceptanceDate</text><polygon fill="#181818" points="462,534.8828,452,538.8828,462,542.8828,458,538.8828" style="stroke:#181818;stroke-width:1.0;"/><line style="stroke:#181818;stroke-width:1.0;stroke-dasharray:2.0,2.0;" x1="456" x2="912" y1="538.8828" y2="538.8828"/><text fill="#000000" font-family="sans-serif" font-size="13" font-weight="bold" lengthAdjust="spacing" textLength="32" x="468" y="534.0264">23.10</text><text fill="#000000" font-family="sans-serif" font-size="13" lengthAdjust="spacing" textLength="94" x="504" y="534.0264">acceptanceDate</text><polygon fill="#181818" points="1269,565.2344,1279,569.2344,1269,573.2344,1273,569.2344" style="stroke:#181818;stroke-width:1.0;"/><line style="stroke:#181818;stroke-width:1.0;" x1="451" x2="1275" y1="569.2344" y2="569.2344"/><text fill="#000000" font-family="sans-serif" font-size="13" font-weight="bold" lengthAdjust="spacing" textLength="32" x="458" y="564.3779">23.11</text><text fill="#000000" font-family="sans-serif" font-size="13" lengthAdjust="spacing" textLength="504" x="494" y="564.3779">publishAnnouncementFromLegacy(agent, acceptanceDate, commissionValue, request)</text><polygon fill="#181818" points="1766.5,595.5859,1776.5,599.5859,1766.5,603.5859,1770.5,599.5859" style="stroke:#181818;stroke-width:1.0;"/><line style="stroke:#181818;stroke-width:1.0;" x1="1291" x2="1772.5" y1="599.5859" y2="599.5859"/><text fill="#000000" font-family="sans-serif" font-size="13" font-weight="bold" lengthAdjust="spacing" textLength="32" x="1298" y="594.7295">23.12</text><text fill="#000000" font-family="sans-serif" font-size="13" lengthAdjust="spacing" textLength="340" x="1334" y="594.7295">create(agent, acceptanceDate, commissionValue, request)</text><rect fill="#E3E3E3" height="49.2188" rx="2.5" ry="2.5" style="stroke:#181818;stroke-width:0.5;" width="113" x="1778.5" y="577.2344"/><text fill="#000000" font-family="sans-serif" font-size="14" lengthAdjust="spacing" textLength="94" x="1788" y="598.7676">announcement</text><text fill="#000000" font-family="sans-serif" font-size="14" lengthAdjust="spacing" textLength="99" x="1785.5" y="616.377">:Announcement</text><polygon fill="#181818" points="2035,655.8047,2045,659.8047,2035,663.8047,2039,659.8047" style="stroke:#181818;stroke-width:1.0;"/><line style="stroke:#181818;stroke-width:1.0;" x1="1835" x2="2041" y1="659.8047" y2="659.8047"/><text fill="#000000" font-family="sans-serif" font-size="13" font-weight="bold" lengthAdjust="spacing" textLength="32" x="1842" y="654.9482">23.13</text><text fill="#000000" font-family="sans-serif" font-size="13" lengthAdjust="spacing" textLength="147" x="1878" y="654.9482">create(commissionValue)</text><rect fill="#E3E3E3" height="49.2188" rx="2.5" ry="2.5" style="stroke:#181818;stroke-width:0.5;" width="94" x="2047" y="637.4531"/><text fill="#000000" font-family="sans-serif" font-size="14" lengthAdjust="spacing" textLength="73" x="2057.5" y="658.9863">commission</text><text fill="#000000" font-family="sans-serif" font-size="14" lengthAdjust="spacing" textLength="80" x="2054" y="676.5957">:Commission</text><polygon fill="#181818" points="1535,716.0234,1545,720.0234,1535,724.0234,1539,720.0234" style="stroke:#181818;stroke-width:1.0;"/><line style="stroke:#181818;stroke-width:1.0;" x1="1291" x2="1541" y1="720.0234" y2="720.0234"/><text fill="#000000" font-family="sans-serif" font-size="13" font-weight="bold" lengthAdjust="spacing" textLength="32" x="1298" y="715.167">23.14</text><text fill="#000000" font-family="sans-serif" font-size="13" lengthAdjust="spacing" textLength="201" x="1334" y="715.167">addAnnouncement(announcement)</text><line style="stroke:#181818;stroke-width:1.0;" x1="1557" x2="1604" y1="745.375" y2="745.375"/><line style="stroke:#181818;stroke-width:1.0;" x1="1604" x2="1604" y1="745.375" y2="758.375"/><line style="stroke:#181818;stroke-width:1.0;" x1="1563" x2="1604" y1="758.375" y2="758.375"/><polygon fill="#181818" points="1573,754.375,1563,758.375,1573,762.375,1569,758.375" style="stroke:#181818;stroke-width:1.0;"/><text fill="#000000" font-family="sans-serif" font-size="13" font-weight="bold" lengthAdjust="spacing" textLength="32" x="1569" y="740.5186">23.15</text><text fill="#000000" font-family="sans-serif" font-size="13" lengthAdjust="spacing" textLength="223" x="1605" y="740.5186">validateAnnouncement(announcement)</text><line style="stroke:#181818;stroke-width:1.0;stroke-dasharray:2.0,2.0;" x1="1562" x2="1604" y1="798.7266" y2="798.7266"/><line style="stroke:#181818;stroke-width:1.0;stroke-dasharray:2.0,2.0;" x1="1604" x2="1604" y1="798.7266" y2="811.7266"/><line style="stroke:#181818;stroke-width:1.0;stroke-dasharray:2.0,2.0;" x1="1557" x2="1604" y1="811.7266" y2="811.7266"/><polygon fill="#181818" points="1567,807.7266,1557,811.7266,1567,815.7266,1563,811.7266" style="stroke:#181818;stroke-width:1.0;"/><text fill="#000000" font-family="sans-serif" font-size="13" font-weight="bold" lengthAdjust="spacing" textLength="32" x="1569" y="793.8701">23.16</text><text fill="#000000" font-family="sans-serif" font-size="13" lengthAdjust="spacing" textLength="4" x="1605" y="793.8701"> </text><polygon fill="#181818" points="1302,833.0781,1292,837.0781,1302,841.0781,1298,837.0781" style="stroke:#181818;stroke-width:1.0;"/><line style="stroke:#181818;stroke-width:1.0;stroke-dasharray:2.0,2.0;" x1="1296" x2="1551" y1="837.0781" y2="837.0781"/><text fill="#000000" font-family="sans-serif" font-size="13" font-weight="bold" lengthAdjust="spacing" textLength="32" x="1308" y="832.2217">23.17</text><text fill="#000000" font-family="sans-serif" font-size="13" lengthAdjust="spacing" textLength="85" x="1344" y="832.2217">announcement</text><polygon fill="#181818" points="462,863.4297,452,867.4297,462,871.4297,458,867.4297" style="stroke:#181818;stroke-width:1.0;"/><line style="stroke:#181818;stroke-width:1.0;stroke-dasharray:2.0,2.0;" x1="456" x2="1285" y1="867.4297" y2="867.4297"/><text fill="#000000" font-family="sans-serif" font-size="13" font-weight="bold" lengthAdjust="spacing" textLength="32" x="468" y="862.5732">23.18</text><text fill="#000000" font-family="sans-serif" font-size="13" lengthAdjust="spacing" textLength="85" x="504" y="862.5732">announcement</text><polygon fill="#181818" points="11,900.7813,1,904.7813,11,908.7813,7,904.7813" style="stroke:#181818;stroke-width:1.0;"/><line style="stroke:#181818;stroke-width:1.0;stroke-dasharray:2.0,2.0;" x1="5" x2="445" y1="904.7813" y2="904.7813"/><text fill="#000000" font-family="sans-serif" font-size="13" font-weight="bold" lengthAdjust="spacing" textLength="14" x="17" y="899.9248">24</text><text fill="#000000" font-family="sans-serif" font-size="13" lengthAdjust="spacing" textLength="97" x="35" y="899.9248">operationSucess</text><!--SRC=[hLLDYzim4BtxLuWzRKDIwCSfb49mqXB85_5keT2BLfbupLgIAybP0ldnbIN5bhHkGaDzIJoQzzxeQJIMBmMhiC0KKSuuUHQS0bAYXaIsAnKcBpY7J1rBG0A8mYml_GJvF5cjre-hTCPV2vQZFIub97fD5QIeC5FeRZod5HTg0JacnpdRSq6nAZXBELE2boM8EuGbIX-sYmXe8TbHAg1BN5KkSpdPR6RRCBVqKgUA_sBZA6AGquTr2DDxO-IeioVcZqcQV9-jqfzH7cEyPWGeCBKef6eGKSXW5_FiuU_826NLd7qXYd1A2ocrIngJjY_MgFLoES-o-NgL90dI3wuLPpLz0e4-Vh8XDFfg34LZLDLFPQ6FoHE-ZxmP8kk3_LL3n5yPY1d5HVdEAX1L7B02UqXlHTz_iC5SyBf26wk8V4cxVZgTpAyfhIin1xM5tpL8zKqteJtr_r6ZW3tY1rsX2I7tf0AQDATemi1sJNBIvPW2kmg5bxo3K2hUb6rFkwtkw7xWieRxg5JNoQsiWseItQcN60AMfglRQFCqu95V2Gb9scHlAm79kOxEW3u63-rlfCy7lnKcX42b1mc1gORUOCbLidzq1mSSDvZJGt356pjZ-c-dTmTSguVym_WmXkVsZAnqWwmjt8asycxe30RwPCrrk4qgb3jFiaxGHSnLRwVMO81QrOZUiNhcXQJT3ff1gutVxOAvvW_Ro0mpcTlAchUEve3BOgUJhd2zvVFRob8wphucwgl0RmLVCBc8FTlWTU05RD07pQGpKpf9_0d-sQv-6OtEZ5n_RSrdEgi9IDax-Vu0]--></g></svg>