<?xml version="1.0" encoding="UTF-8" standalone="no"?><svg xmlns="http://www.w3.org/2000/svg" xmlns:xlink="http://www.w3.org/1999/xlink" contentStyleType="text/css" height="531px" preserveAspectRatio="none" style="width:537px;height:531px;background:#FFFFFF;" version="1.1" viewBox="0 0 537 531" width="537px" zoomAndPan="magnify"><defs/><g><text fill="#000000" font-family="sans-serif" font-size="14" font-weight="bold" lengthAdjust="spacing" textLength="284" x="128" y="29.5332">System Sequence Diagram (SSD) - US007</text><rect fill="#FFFFFF" height="308.8672" style="stroke:#181818;stroke-width:1.0;" width="10" x="75" y="131.2188"/><rect fill="#FFFFFF" height="46.7031" style="stroke:#181818;stroke-width:1.0;" width="10" x="484" y="153.5703"/><rect fill="#FFFFFF" height="55.7031" style="stroke:#181818;stroke-width:1.0;" width="10" x="484" y="246.9766"/><rect fill="#FFFFFF" height="37.3516" style="stroke:#181818;stroke-width:1.0;" width="10" x="484" y="333.0313"/><rect fill="#FFFFFF" height="30.3516" style="stroke:#181818;stroke-width:1.0;" width="10" x="484" y="400.7344"/><rect fill="none" height="79.0547" style="stroke:#000000;stroke-width:1.5;" width="521" x="10" y="261.9766"/><line style="stroke:#181818;stroke-width:0.5;stroke-dasharray:5.0,5.0;" x1="80" x2="80" y1="121.2188" y2="449.0859"/><line style="stroke:#181818;stroke-width:0.5;stroke-dasharray:5.0,5.0;" x1="489" x2="489" y1="121.2188" y2="449.0859"/><text fill="#000000" font-family="sans-serif" font-size="14" lengthAdjust="spacing" textLength="114" x="20" y="118.1426">Unregistered User</text><ellipse cx="80" cy="52.1094" fill="#E3E3E3" rx="8" ry="8" style="stroke:#181818;stroke-width:0.5;"/><path d="M80,60.1094 L80,87.1094 M67,68.1094 L93,68.1094 M80,87.1094 L67,102.1094 M80,87.1094 L93,102.1094 " fill="none" style="stroke:#181818;stroke-width:0.5;"/><text fill="#000000" font-family="sans-serif" font-size="14" lengthAdjust="spacing" textLength="114" x="20" y="462.6191">Unregistered User</text><ellipse cx="80" cy="474.1953" fill="#E3E3E3" rx="8" ry="8" style="stroke:#181818;stroke-width:0.5;"/><path d="M80,482.1953 L80,509.1953 M67,490.1953 L93,490.1953 M80,509.1953 L67,524.1953 M80,509.1953 L93,524.1953 " fill="none" style="stroke:#181818;stroke-width:0.5;"/><rect fill="#E3E3E3" height="31.6094" rx="2.5" ry="2.5" style="stroke:#181818;stroke-width:0.5;" width="64" x="457" y="88.6094"/><text fill="#000000" font-family="sans-serif" font-size="14" lengthAdjust="spacing" textLength="50" x="464" y="110.1426">:System</text><rect fill="#E3E3E3" height="31.6094" rx="2.5" ry="2.5" style="stroke:#181818;stroke-width:0.5;" width="64" x="457" y="448.0859"/><text fill="#000000" font-family="sans-serif" font-size="14" lengthAdjust="spacing" textLength="50" x="464" y="469.6191">:System</text><rect fill="#FFFFFF" height="308.8672" style="stroke:#181818;stroke-width:1.0;" width="10" x="75" y="131.2188"/><rect fill="#FFFFFF" height="46.7031" style="stroke:#181818;stroke-width:1.0;" width="10" x="484" y="153.5703"/><rect fill="#FFFFFF" height="55.7031" style="stroke:#181818;stroke-width:1.0;" width="10" x="484" y="246.9766"/><rect fill="#FFFFFF" height="37.3516" style="stroke:#181818;stroke-width:1.0;" width="10" x="484" y="333.0313"/><rect fill="#FFFFFF" height="30.3516" style="stroke:#181818;stroke-width:1.0;" width="10" x="484" y="400.7344"/><polygon fill="#181818" points="472,149.5703,482,153.5703,472,157.5703,476,153.5703" style="stroke:#181818;stroke-width:1.0;"/><line style="stroke:#181818;stroke-width:1.0;" x1="85" x2="478" y1="153.5703" y2="153.5703"/><text fill="#000000" font-family="sans-serif" font-size="13" font-weight="bold" lengthAdjust="spacing" textLength="7" x="92" y="148.7139">1</text><text fill="#000000" font-family="sans-serif" font-size="13" lengthAdjust="spacing" textLength="173" x="103" y="148.7139">asks to register in the system</text><polygon fill="#181818" points="96,196.2734,86,200.2734,96,204.2734,92,200.2734" style="stroke:#181818;stroke-width:1.0;"/><line style="stroke:#181818;stroke-width:1.0;stroke-dasharray:2.0,2.0;" x1="90" x2="488" y1="200.2734" y2="200.2734"/><text fill="#000000" font-family="sans-serif" font-size="13" font-weight="bold" lengthAdjust="spacing" textLength="7" x="102" y="187.2412">2</text><text fill="#000000" font-family="sans-serif" font-size="13" lengthAdjust="spacing" textLength="326" x="113" y="179.0654">requests data (name, passportCardNumber, tax number,</text><text fill="#000000" font-family="sans-serif" font-size="13" lengthAdjust="spacing" textLength="234" x="117" y="195.417">emailAddress, phoneNumber, password)</text><polygon fill="#181818" points="472,242.9766,482,246.9766,472,250.9766,476,246.9766" style="stroke:#181818;stroke-width:1.0;"/><line style="stroke:#181818;stroke-width:1.0;" x1="85" x2="478" y1="246.9766" y2="246.9766"/><text fill="#000000" font-family="sans-serif" font-size="13" font-weight="bold" lengthAdjust="spacing" textLength="7" x="92" y="233.9443">3</text><text fill="#000000" font-family="sans-serif" font-size="13" lengthAdjust="spacing" textLength="363" x="103" y="225.7686">types requested data (name, passportCardNumber,taxNumber,</text><text fill="#000000" font-family="sans-serif" font-size="13" lengthAdjust="spacing" textLength="234" x="107" y="242.1201">emailAddress, phoneNumber, password)</text><path d="M10,261.9766 L75,261.9766 L75,270.3281 L65,280.3281 L10,280.3281 L10,261.9766 " fill="#EEEEEE" style="stroke:#000000;stroke-width:1.5;"/><rect fill="none" height="79.0547" style="stroke:#000000;stroke-width:1.5;" width="521" x="10" y="261.9766"/><text fill="#000000" font-family="sans-serif" font-size="13" font-weight="bold" lengthAdjust="spacing" textLength="20" x="25" y="276.4717">opt</text><text fill="#000000" font-family="sans-serif" font-size="11" font-weight="bold" lengthAdjust="spacing" textLength="80" x="90" y="275.3955">[user location]</text><polygon fill="#181818" points="96,298.6797,86,302.6797,96,306.6797,92,302.6797" style="stroke:#181818;stroke-width:1.0;"/><line style="stroke:#181818;stroke-width:1.0;stroke-dasharray:2.0,2.0;" x1="90" x2="488" y1="302.6797" y2="302.6797"/><text fill="#000000" font-family="sans-serif" font-size="13" font-weight="bold" lengthAdjust="spacing" textLength="7" x="102" y="297.8232">4</text><text fill="#000000" font-family="sans-serif" font-size="13" lengthAdjust="spacing" textLength="326" x="113" y="297.8232">requests data (streetName, city, district, state, zipCode)</text><polygon fill="#181818" points="472,329.0313,482,333.0313,472,337.0313,476,333.0313" style="stroke:#181818;stroke-width:1.0;"/><line style="stroke:#181818;stroke-width:1.0;" x1="85" x2="478" y1="333.0313" y2="333.0313"/><text fill="#000000" font-family="sans-serif" font-size="13" font-weight="bold" lengthAdjust="spacing" textLength="7" x="92" y="328.1748">5</text><text fill="#000000" font-family="sans-serif" font-size="13" lengthAdjust="spacing" textLength="369" x="103" y="328.1748">types requested data (streetName, city, district, state, zipCode)</text><polygon fill="#181818" points="96,366.3828,86,370.3828,96,374.3828,92,370.3828" style="stroke:#181818;stroke-width:1.0;"/><line style="stroke:#181818;stroke-width:1.0;stroke-dasharray:2.0,2.0;" x1="90" x2="488" y1="370.3828" y2="370.3828"/><text fill="#000000" font-family="sans-serif" font-size="13" font-weight="bold" lengthAdjust="spacing" textLength="7" x="102" y="365.5264">6</text><text fill="#000000" font-family="sans-serif" font-size="13" lengthAdjust="spacing" textLength="227" x="113" y="365.5264">shows all data and asks to submit data</text><polygon fill="#181818" points="472,396.7344,482,400.7344,472,404.7344,476,400.7344" style="stroke:#181818;stroke-width:1.0;"/><line style="stroke:#181818;stroke-width:1.0;" x1="85" x2="478" y1="400.7344" y2="400.7344"/><text fill="#000000" font-family="sans-serif" font-size="13" font-weight="bold" lengthAdjust="spacing" textLength="7" x="92" y="395.8779">7</text><text fill="#000000" font-family="sans-serif" font-size="13" lengthAdjust="spacing" textLength="75" x="103" y="395.8779">submits data</text><polygon fill="#181818" points="96,427.0859,86,431.0859,96,435.0859,92,431.0859" style="stroke:#181818;stroke-width:1.0;"/><line style="stroke:#181818;stroke-width:1.0;stroke-dasharray:2.0,2.0;" x1="90" x2="488" y1="431.0859" y2="431.0859"/><text fill="#000000" font-family="sans-serif" font-size="13" font-weight="bold" lengthAdjust="spacing" textLength="7" x="102" y="426.2295">8</text><text fill="#000000" font-family="sans-serif" font-size="13" lengthAdjust="spacing" textLength="158" x="113" y="426.2295">displays operation success</text><!--SRC=[hL9DJyCm3BttLrWxRL8dxOQq0n8QvrsgtRXuYMcZjKc9NKRvzRWf7GWsiKdaP2NFxyCE7vnlCM83JV31L34q118xolZqqg8vO4c5z3L192Feo_exW2kquUXy2SzOCsMPE55eqRDG0mMzTEGDmQF3Se3FY-9n0KlO5QlLNPPX9y5tpPwYraP2XDdEHogTTaUoi6EACq1EHQQAuenhqGlCrgD4UXtBHE5UKMY4Pw1dg61vFnbQA_p0804c5N0Uf2BWaMFeET5ClCFb9y5IkHBdMXaq70k3HK6OUsmeru4njo7A1gFTfcGv2Bx1c39_ya0Dklh1saZCYg-2fmauD1z3j8kaQEciaL-9f6-99pSwj3_ig9ljxMREMWcjG3VOgOD1SS5VDocMI2JRPD0uwNEmkeheZEJ0eY8vlBjs4opzno1kLVkfDToHjqFOIp-1gt1amBeU9L7HqpVZRjyuIVStPHdx-Alnoa-fsTeQUrQx5DDEbCeONUy5-Gy0]--></g></svg>