<?xml version="1.0" encoding="UTF-8" standalone="no"?><svg xmlns="http://www.w3.org/2000/svg" xmlns:xlink="http://www.w3.org/1999/xlink" contentStyleType="text/css" height="1490px" preserveAspectRatio="none" style="width:536px;height:1490px;background:#FFFFFF;" version="1.1" viewBox="0 0 536 1490" width="536px" zoomAndPan="magnify"><defs/><g><text fill="#000000" font-family="sans-serif" font-size="14" font-weight="bold" lengthAdjust="spacing" textLength="228" x="155.5" y="29.5332">System Sequence Diagram (SSD)</text><rect fill="#FFFFFF" height="1268.4688" style="stroke:#181818;stroke-width:1.0;" width="10" x="46" y="131.2188"/><rect fill="#FFFFFF" height="30.3516" style="stroke:#181818;stroke-width:1.0;" width="10" x="473" y="153.5703"/><rect fill="#FFFFFF" height="30.3516" style="stroke:#181818;stroke-width:1.0;" width="10" x="473" y="239.625"/><rect fill="#FFFFFF" height="46.7031" style="stroke:#181818;stroke-width:1.0;" width="10" x="473" y="300.3281"/><rect fill="#FFFFFF" height="30.3516" style="stroke:#181818;stroke-width:1.0;" width="10" x="473" y="409.7344"/><rect fill="#FFFFFF" height="46.7031" style="stroke:#181818;stroke-width:1.0;" width="10" x="473" y="470.4375"/><rect fill="#FFFFFF" height="30.3516" style="stroke:#181818;stroke-width:1.0;" width="10" x="473" y="605.1953"/><rect fill="#FFFFFF" height="46.7031" style="stroke:#181818;stroke-width:1.0;" width="10" x="473" y="665.8984"/><rect fill="#FFFFFF" height="30.3516" style="stroke:#181818;stroke-width:1.0;" width="10" x="473" y="782.3047"/><rect fill="#FFFFFF" height="46.7031" style="stroke:#181818;stroke-width:1.0;" width="10" x="473" y="843.0078"/><rect fill="#FFFFFF" height="30.3516" style="stroke:#181818;stroke-width:1.0;" width="10" x="473" y="952.4141"/><rect fill="#FFFFFF" height="46.7031" style="stroke:#181818;stroke-width:1.0;" width="10" x="473" y="1013.1172"/><rect fill="#FFFFFF" height="30.3516" style="stroke:#181818;stroke-width:1.0;" width="10" x="473" y="1122.5234"/><rect fill="#FFFFFF" height="46.7031" style="stroke:#181818;stroke-width:1.0;" width="10" x="473" y="1183.2266"/><rect fill="#FFFFFF" height="30.3516" style="stroke:#181818;stroke-width:1.0;" width="10" x="473" y="1267.2813"/><rect fill="#FFFFFF" height="37.3516" style="stroke:#181818;stroke-width:1.0;" width="10" x="473" y="1353.3359"/><rect fill="none" height="156.1094" style="stroke:#000000;stroke-width:1.5;" width="500" x="20" y="198.9219"/><rect fill="none" height="156.1094" style="stroke:#000000;stroke-width:1.5;" width="500" x="20" y="369.0313"/><rect fill="none" height="188.4609" style="stroke:#000000;stroke-width:1.5;" width="520" x="10" y="539.1406"/><rect fill="none" height="156.1094" style="stroke:#000000;stroke-width:1.5;" width="500" x="20" y="564.4922"/><rect fill="none" height="156.1094" style="stroke:#000000;stroke-width:1.5;" width="500" x="20" y="741.6016"/><rect fill="none" height="156.1094" style="stroke:#000000;stroke-width:1.5;" width="500" x="20" y="911.7109"/><rect fill="none" height="156.1094" style="stroke:#000000;stroke-width:1.5;" width="500" x="20" y="1081.8203"/><rect fill="none" height="48.7031" style="stroke:#000000;stroke-width:1.5;" width="500" x="20" y="1312.6328"/><line style="stroke:#181818;stroke-width:0.5;stroke-dasharray:5.0,5.0;" x1="51" x2="51" y1="121.2188" y2="1408.6875"/><line style="stroke:#181818;stroke-width:0.5;stroke-dasharray:5.0,5.0;" x1="478" x2="478" y1="121.2188" y2="1408.6875"/><text fill="#000000" font-family="sans-serif" font-size="14" lengthAdjust="spacing" textLength="36" x="30" y="118.1426">Client</text><ellipse cx="51" cy="52.1094" fill="#E3E3E3" rx="8" ry="8" style="stroke:#181818;stroke-width:0.5;"/><path d="M51,60.1094 L51,87.1094 M38,68.1094 L64,68.1094 M51,87.1094 L38,102.1094 M51,87.1094 L64,102.1094 " fill="none" style="stroke:#181818;stroke-width:0.5;"/><text fill="#000000" font-family="sans-serif" font-size="14" lengthAdjust="spacing" textLength="36" x="30" y="1422.2207">Client</text><ellipse cx="51" cy="1433.7969" fill="#E3E3E3" rx="8" ry="8" style="stroke:#181818;stroke-width:0.5;"/><path d="M51,1441.7969 L51,1468.7969 M38,1449.7969 L64,1449.7969 M51,1468.7969 L38,1483.7969 M51,1468.7969 L64,1483.7969 " fill="none" style="stroke:#181818;stroke-width:0.5;"/><rect fill="#E3E3E3" height="31.6094" rx="2.5" ry="2.5" style="stroke:#181818;stroke-width:0.5;" width="64" x="446" y="88.6094"/><text fill="#000000" font-family="sans-serif" font-size="14" lengthAdjust="spacing" textLength="50" x="453" y="110.1426">:System</text><rect fill="#E3E3E3" height="31.6094" rx="2.5" ry="2.5" style="stroke:#181818;stroke-width:0.5;" width="64" x="446" y="1407.6875"/><text fill="#000000" font-family="sans-serif" font-size="14" lengthAdjust="spacing" textLength="50" x="453" y="1429.2207">:System</text><rect fill="#FFFFFF" height="1268.4688" style="stroke:#181818;stroke-width:1.0;" width="10" x="46" y="131.2188"/><rect fill="#FFFFFF" height="30.3516" style="stroke:#181818;stroke-width:1.0;" width="10" x="473" y="153.5703"/><rect fill="#FFFFFF" height="30.3516" style="stroke:#181818;stroke-width:1.0;" width="10" x="473" y="239.625"/><rect fill="#FFFFFF" height="46.7031" style="stroke:#181818;stroke-width:1.0;" width="10" x="473" y="300.3281"/><rect fill="#FFFFFF" height="30.3516" style="stroke:#181818;stroke-width:1.0;" width="10" x="473" y="409.7344"/><rect fill="#FFFFFF" height="46.7031" style="stroke:#181818;stroke-width:1.0;" width="10" x="473" y="470.4375"/><rect fill="#FFFFFF" height="30.3516" style="stroke:#181818;stroke-width:1.0;" width="10" x="473" y="605.1953"/><rect fill="#FFFFFF" height="46.7031" style="stroke:#181818;stroke-width:1.0;" width="10" x="473" y="665.8984"/><rect fill="#FFFFFF" height="30.3516" style="stroke:#181818;stroke-width:1.0;" width="10" x="473" y="782.3047"/><rect fill="#FFFFFF" height="46.7031" style="stroke:#181818;stroke-width:1.0;" width="10" x="473" y="843.0078"/><rect fill="#FFFFFF" height="30.3516" style="stroke:#181818;stroke-width:1.0;" width="10" x="473" y="952.4141"/><rect fill="#FFFFFF" height="46.7031" style="stroke:#181818;stroke-width:1.0;" width="10" x="473" y="1013.1172"/><rect fill="#FFFFFF" height="30.3516" style="stroke:#181818;stroke-width:1.0;" width="10" x="473" y="1122.5234"/><rect fill="#FFFFFF" height="46.7031" style="stroke:#181818;stroke-width:1.0;" width="10" x="473" y="1183.2266"/><rect fill="#FFFFFF" height="30.3516" style="stroke:#181818;stroke-width:1.0;" width="10" x="473" y="1267.2813"/><rect fill="#FFFFFF" height="37.3516" style="stroke:#181818;stroke-width:1.0;" width="10" x="473" y="1353.3359"/><polygon fill="#181818" points="461,149.5703,471,153.5703,461,157.5703,465,153.5703" style="stroke:#181818;stroke-width:1.0;"/><line style="stroke:#181818;stroke-width:1.0;" x1="56" x2="467" y1="153.5703" y2="153.5703"/><text fill="#000000" font-family="sans-serif" font-size="13" font-weight="bold" lengthAdjust="spacing" textLength="7" x="63" y="148.7139">1</text><text fill="#000000" font-family="sans-serif" font-size="13" lengthAdjust="spacing" textLength="221" x="74" y="148.7139">asks to request an order on a property</text><polygon fill="#181818" points="67,179.9219,57,183.9219,67,187.9219,63,183.9219" style="stroke:#181818;stroke-width:1.0;"/><line style="stroke:#181818;stroke-width:1.0;stroke-dasharray:2.0,2.0;" x1="61" x2="477" y1="183.9219" y2="183.9219"/><text fill="#000000" font-family="sans-serif" font-size="13" font-weight="bold" lengthAdjust="spacing" textLength="7" x="73" y="179.0654">2</text><text fill="#000000" font-family="sans-serif" font-size="13" lengthAdjust="spacing" textLength="243" x="84" y="179.0654">shows the list of announcements available</text><path d="M20,198.9219 L85,198.9219 L85,207.2734 L75,217.2734 L20,217.2734 L20,198.9219 " fill="#EEEEEE" style="stroke:#000000;stroke-width:1.5;"/><rect fill="none" height="156.1094" style="stroke:#000000;stroke-width:1.5;" width="500" x="20" y="198.9219"/><text fill="#000000" font-family="sans-serif" font-size="13" font-weight="bold" lengthAdjust="spacing" textLength="20" x="35" y="213.417">opt</text><text fill="#000000" font-family="sans-serif" font-size="11" font-weight="bold" lengthAdjust="spacing" textLength="101" x="100" y="212.3408">[type of business]</text><polygon fill="#181818" points="461,235.625,471,239.625,461,243.625,465,239.625" style="stroke:#181818;stroke-width:1.0;"/><line style="stroke:#181818;stroke-width:1.0;" x1="56" x2="467" y1="239.625" y2="239.625"/><text fill="#000000" font-family="sans-serif" font-size="13" font-weight="bold" lengthAdjust="spacing" textLength="7" x="63" y="234.7686">3</text><text fill="#000000" font-family="sans-serif" font-size="13" lengthAdjust="spacing" textLength="181" x="74" y="234.7686">asks to select type of business</text><polygon fill="#181818" points="67,265.9766,57,269.9766,67,273.9766,63,269.9766" style="stroke:#181818;stroke-width:1.0;"/><line style="stroke:#181818;stroke-width:1.0;stroke-dasharray:2.0,2.0;" x1="61" x2="477" y1="269.9766" y2="269.9766"/><text fill="#000000" font-family="sans-serif" font-size="13" font-weight="bold" lengthAdjust="spacing" textLength="7" x="73" y="265.1201">4</text><text fill="#000000" font-family="sans-serif" font-size="13" lengthAdjust="spacing" textLength="244" x="84" y="265.1201">shows types of business and request data</text><polygon fill="#181818" points="461,296.3281,471,300.3281,461,304.3281,465,300.3281" style="stroke:#181818;stroke-width:1.0;"/><line style="stroke:#181818;stroke-width:1.0;" x1="56" x2="467" y1="300.3281" y2="300.3281"/><text fill="#000000" font-family="sans-serif" font-size="13" font-weight="bold" lengthAdjust="spacing" textLength="7" x="63" y="295.4717">5</text><text fill="#000000" font-family="sans-serif" font-size="13" lengthAdjust="spacing" textLength="163" x="74" y="295.4717">selects data (businessType)</text><polygon fill="#181818" points="67,343.0313,57,347.0313,67,351.0313,63,347.0313" style="stroke:#181818;stroke-width:1.0;"/><line style="stroke:#181818;stroke-width:1.0;stroke-dasharray:2.0,2.0;" x1="61" x2="477" y1="347.0313" y2="347.0313"/><text fill="#000000" font-family="sans-serif" font-size="13" font-weight="bold" lengthAdjust="spacing" textLength="7" x="73" y="333.999">6</text><text fill="#000000" font-family="sans-serif" font-size="13" lengthAdjust="spacing" textLength="277" x="84" y="325.8232">display all the listed properties, according to the</text><text fill="#000000" font-family="sans-serif" font-size="13" lengthAdjust="spacing" textLength="85" x="84" y="342.1748">criteria chosen</text><path d="M20,369.0313 L85,369.0313 L85,377.3828 L75,387.3828 L20,387.3828 L20,369.0313 " fill="#EEEEEE" style="stroke:#000000;stroke-width:1.5;"/><rect fill="none" height="156.1094" style="stroke:#000000;stroke-width:1.5;" width="500" x="20" y="369.0313"/><text fill="#000000" font-family="sans-serif" font-size="13" font-weight="bold" lengthAdjust="spacing" textLength="20" x="35" y="383.5264">opt</text><text fill="#000000" font-family="sans-serif" font-size="11" font-weight="bold" lengthAdjust="spacing" textLength="97" x="100" y="382.4502">[type of property]</text><polygon fill="#181818" points="461,405.7344,471,409.7344,461,413.7344,465,409.7344" style="stroke:#181818;stroke-width:1.0;"/><line style="stroke:#181818;stroke-width:1.0;" x1="56" x2="467" y1="409.7344" y2="409.7344"/><text fill="#000000" font-family="sans-serif" font-size="13" font-weight="bold" lengthAdjust="spacing" textLength="7" x="63" y="404.8779">7</text><text fill="#000000" font-family="sans-serif" font-size="13" lengthAdjust="spacing" textLength="176" x="74" y="404.8779">asks to select type of property</text><polygon fill="#181818" points="67,436.0859,57,440.0859,67,444.0859,63,440.0859" style="stroke:#181818;stroke-width:1.0;"/><line style="stroke:#181818;stroke-width:1.0;stroke-dasharray:2.0,2.0;" x1="61" x2="477" y1="440.0859" y2="440.0859"/><text fill="#000000" font-family="sans-serif" font-size="13" font-weight="bold" lengthAdjust="spacing" textLength="7" x="73" y="435.2295">8</text><text fill="#000000" font-family="sans-serif" font-size="13" lengthAdjust="spacing" textLength="249" x="84" y="435.2295">shows types of properties and request data</text><polygon fill="#181818" points="461,466.4375,471,470.4375,461,474.4375,465,470.4375" style="stroke:#181818;stroke-width:1.0;"/><line style="stroke:#181818;stroke-width:1.0;" x1="56" x2="467" y1="470.4375" y2="470.4375"/><text fill="#000000" font-family="sans-serif" font-size="13" font-weight="bold" lengthAdjust="spacing" textLength="7" x="63" y="465.5811">9</text><text fill="#000000" font-family="sans-serif" font-size="13" lengthAdjust="spacing" textLength="158" x="74" y="465.5811">selects data (propertyType)</text><polygon fill="#181818" points="67,513.1406,57,517.1406,67,521.1406,63,517.1406" style="stroke:#181818;stroke-width:1.0;"/><line style="stroke:#181818;stroke-width:1.0;stroke-dasharray:2.0,2.0;" x1="61" x2="477" y1="517.1406" y2="517.1406"/><text fill="#000000" font-family="sans-serif" font-size="13" font-weight="bold" lengthAdjust="spacing" textLength="14" x="73" y="504.1084">10</text><text fill="#000000" font-family="sans-serif" font-size="13" lengthAdjust="spacing" textLength="277" x="91" y="495.9326">display all the listed properties, according to the</text><text fill="#000000" font-family="sans-serif" font-size="13" lengthAdjust="spacing" textLength="85" x="91" y="512.2842">criteria chosen</text><path d="M10,539.1406 L71,539.1406 L71,547.4922 L61,557.4922 L10,557.4922 L10,539.1406 " fill="#EEEEEE" style="stroke:#000000;stroke-width:1.5;"/><rect fill="none" height="188.4609" style="stroke:#000000;stroke-width:1.5;" width="520" x="10" y="539.1406"/><text fill="#000000" font-family="sans-serif" font-size="13" font-weight="bold" lengthAdjust="spacing" textLength="16" x="25" y="553.6357">alt</text><text fill="#000000" font-family="sans-serif" font-size="11" font-weight="bold" lengthAdjust="spacing" textLength="111" x="86" y="552.5596">[properType != land]</text><path d="M20,564.4922 L85,564.4922 L85,572.8438 L75,582.8438 L20,582.8438 L20,564.4922 " fill="#EEEEEE" style="stroke:#000000;stroke-width:1.5;"/><rect fill="none" height="156.1094" style="stroke:#000000;stroke-width:1.5;" width="500" x="20" y="564.4922"/><text fill="#000000" font-family="sans-serif" font-size="13" font-weight="bold" lengthAdjust="spacing" textLength="20" x="35" y="578.9873">opt</text><text fill="#000000" font-family="sans-serif" font-size="11" font-weight="bold" lengthAdjust="spacing" textLength="127" x="100" y="577.9111">[number of bedrooms]</text><polygon fill="#181818" points="461,601.1953,471,605.1953,461,609.1953,465,605.1953" style="stroke:#181818;stroke-width:1.0;"/><line style="stroke:#181818;stroke-width:1.0;" x1="56" x2="467" y1="605.1953" y2="605.1953"/><text fill="#000000" font-family="sans-serif" font-size="13" font-weight="bold" lengthAdjust="spacing" textLength="14" x="63" y="600.3389">11</text><text fill="#000000" font-family="sans-serif" font-size="13" lengthAdjust="spacing" textLength="204" x="81" y="600.3389">asks to select number of bedrooms</text><polygon fill="#181818" points="67,631.5469,57,635.5469,67,639.5469,63,635.5469" style="stroke:#181818;stroke-width:1.0;"/><line style="stroke:#181818;stroke-width:1.0;stroke-dasharray:2.0,2.0;" x1="61" x2="477" y1="635.5469" y2="635.5469"/><text fill="#000000" font-family="sans-serif" font-size="13" font-weight="bold" lengthAdjust="spacing" textLength="14" x="73" y="630.6904">12</text><text fill="#000000" font-family="sans-serif" font-size="13" lengthAdjust="spacing" textLength="324" x="91" y="630.6904">shows options for number of bedrooms and request data</text><polygon fill="#181818" points="461,661.8984,471,665.8984,461,669.8984,465,665.8984" style="stroke:#181818;stroke-width:1.0;"/><line style="stroke:#181818;stroke-width:1.0;" x1="56" x2="467" y1="665.8984" y2="665.8984"/><text fill="#000000" font-family="sans-serif" font-size="13" font-weight="bold" lengthAdjust="spacing" textLength="14" x="63" y="661.042">13</text><text fill="#000000" font-family="sans-serif" font-size="13" lengthAdjust="spacing" textLength="185" x="81" y="661.042">selects data (numberBedrooms)</text><polygon fill="#181818" points="67,708.6016,57,712.6016,67,716.6016,63,712.6016" style="stroke:#181818;stroke-width:1.0;"/><line style="stroke:#181818;stroke-width:1.0;stroke-dasharray:2.0,2.0;" x1="61" x2="477" y1="712.6016" y2="712.6016"/><text fill="#000000" font-family="sans-serif" font-size="13" font-weight="bold" lengthAdjust="spacing" textLength="14" x="73" y="699.5693">14</text><text fill="#000000" font-family="sans-serif" font-size="13" lengthAdjust="spacing" textLength="277" x="91" y="691.3936">display all the listed properties, according to the</text><text fill="#000000" font-family="sans-serif" font-size="13" lengthAdjust="spacing" textLength="85" x="91" y="707.7451">criteria chosen</text><path d="M20,741.6016 L85,741.6016 L85,749.9531 L75,759.9531 L20,759.9531 L20,741.6016 " fill="#EEEEEE" style="stroke:#000000;stroke-width:1.5;"/><rect fill="none" height="156.1094" style="stroke:#000000;stroke-width:1.5;" width="500" x="20" y="741.6016"/><text fill="#000000" font-family="sans-serif" font-size="13" font-weight="bold" lengthAdjust="spacing" textLength="20" x="35" y="756.0967">opt</text><text fill="#000000" font-family="sans-serif" font-size="11" font-weight="bold" lengthAdjust="spacing" textLength="36" x="100" y="755.0205">[price]</text><polygon fill="#181818" points="461,778.3047,471,782.3047,461,786.3047,465,782.3047" style="stroke:#181818;stroke-width:1.0;"/><line style="stroke:#181818;stroke-width:1.0;" x1="56" x2="467" y1="782.3047" y2="782.3047"/><text fill="#000000" font-family="sans-serif" font-size="13" font-weight="bold" lengthAdjust="spacing" textLength="14" x="63" y="777.4482">15</text><text fill="#000000" font-family="sans-serif" font-size="13" lengthAdjust="spacing" textLength="215" x="81" y="777.4482">asks to sort announcements by price</text><polygon fill="#181818" points="67,808.6563,57,812.6563,67,816.6563,63,812.6563" style="stroke:#181818;stroke-width:1.0;"/><line style="stroke:#181818;stroke-width:1.0;stroke-dasharray:2.0,2.0;" x1="61" x2="477" y1="812.6563" y2="812.6563"/><text fill="#000000" font-family="sans-serif" font-size="13" font-weight="bold" lengthAdjust="spacing" textLength="14" x="73" y="807.7998">16</text><text fill="#000000" font-family="sans-serif" font-size="13" lengthAdjust="spacing" textLength="374" x="91" y="807.7998">shows options for sort announcements by price and request data</text><polygon fill="#181818" points="461,839.0078,471,843.0078,461,847.0078,465,843.0078" style="stroke:#181818;stroke-width:1.0;"/><line style="stroke:#181818;stroke-width:1.0;" x1="56" x2="467" y1="843.0078" y2="843.0078"/><text fill="#000000" font-family="sans-serif" font-size="13" font-weight="bold" lengthAdjust="spacing" textLength="14" x="63" y="838.1514">17</text><text fill="#000000" font-family="sans-serif" font-size="13" lengthAdjust="spacing" textLength="143" x="81" y="838.1514">select data (sortingType)</text><polygon fill="#181818" points="67,885.7109,57,889.7109,67,893.7109,63,889.7109" style="stroke:#181818;stroke-width:1.0;"/><line style="stroke:#181818;stroke-width:1.0;stroke-dasharray:2.0,2.0;" x1="61" x2="477" y1="889.7109" y2="889.7109"/><text fill="#000000" font-family="sans-serif" font-size="13" font-weight="bold" lengthAdjust="spacing" textLength="14" x="73" y="876.6787">18</text><text fill="#000000" font-family="sans-serif" font-size="13" lengthAdjust="spacing" textLength="277" x="91" y="868.5029">display all the listed properties, according to the</text><text fill="#000000" font-family="sans-serif" font-size="13" lengthAdjust="spacing" textLength="85" x="91" y="884.8545">criteria chosen</text><path d="M20,911.7109 L85,911.7109 L85,920.0625 L75,930.0625 L20,930.0625 L20,911.7109 " fill="#EEEEEE" style="stroke:#000000;stroke-width:1.5;"/><rect fill="none" height="156.1094" style="stroke:#000000;stroke-width:1.5;" width="500" x="20" y="911.7109"/><text fill="#000000" font-family="sans-serif" font-size="13" font-weight="bold" lengthAdjust="spacing" textLength="20" x="35" y="926.2061">opt</text><text fill="#000000" font-family="sans-serif" font-size="11" font-weight="bold" lengthAdjust="spacing" textLength="27" x="100" y="925.1299">[city]</text><polygon fill="#181818" points="461,948.4141,471,952.4141,461,956.4141,465,952.4141" style="stroke:#181818;stroke-width:1.0;"/><line style="stroke:#181818;stroke-width:1.0;" x1="56" x2="467" y1="952.4141" y2="952.4141"/><text fill="#000000" font-family="sans-serif" font-size="13" font-weight="bold" lengthAdjust="spacing" textLength="14" x="63" y="947.5576">19</text><text fill="#000000" font-family="sans-serif" font-size="13" lengthAdjust="spacing" textLength="208" x="81" y="947.5576">asks to sort announcements by city</text><polygon fill="#181818" points="67,978.7656,57,982.7656,67,986.7656,63,982.7656" style="stroke:#181818;stroke-width:1.0;"/><line style="stroke:#181818;stroke-width:1.0;stroke-dasharray:2.0,2.0;" x1="61" x2="477" y1="982.7656" y2="982.7656"/><text fill="#000000" font-family="sans-serif" font-size="13" font-weight="bold" lengthAdjust="spacing" textLength="14" x="73" y="977.9092">20</text><text fill="#000000" font-family="sans-serif" font-size="13" lengthAdjust="spacing" textLength="367" x="91" y="977.9092">shows options for sort announcements by city and request data</text><polygon fill="#181818" points="461,1009.1172,471,1013.1172,461,1017.1172,465,1013.1172" style="stroke:#181818;stroke-width:1.0;"/><line style="stroke:#181818;stroke-width:1.0;" x1="56" x2="467" y1="1013.1172" y2="1013.1172"/><text fill="#000000" font-family="sans-serif" font-size="13" font-weight="bold" lengthAdjust="spacing" textLength="14" x="63" y="1008.2607">21</text><text fill="#000000" font-family="sans-serif" font-size="13" lengthAdjust="spacing" textLength="143" x="81" y="1008.2607">select data (sortingType)</text><polygon fill="#181818" points="67,1055.8203,57,1059.8203,67,1063.8203,63,1059.8203" style="stroke:#181818;stroke-width:1.0;"/><line style="stroke:#181818;stroke-width:1.0;stroke-dasharray:2.0,2.0;" x1="61" x2="477" y1="1059.8203" y2="1059.8203"/><text fill="#000000" font-family="sans-serif" font-size="13" font-weight="bold" lengthAdjust="spacing" textLength="14" x="73" y="1046.7881">22</text><text fill="#000000" font-family="sans-serif" font-size="13" lengthAdjust="spacing" textLength="277" x="91" y="1038.6123">display all the listed properties, according to the</text><text fill="#000000" font-family="sans-serif" font-size="13" lengthAdjust="spacing" textLength="85" x="91" y="1054.9639">criteria chosen</text><path d="M20,1081.8203 L85,1081.8203 L85,1090.1719 L75,1100.1719 L20,1100.1719 L20,1081.8203 " fill="#EEEEEE" style="stroke:#000000;stroke-width:1.5;"/><rect fill="none" height="156.1094" style="stroke:#000000;stroke-width:1.5;" width="500" x="20" y="1081.8203"/><text fill="#000000" font-family="sans-serif" font-size="13" font-weight="bold" lengthAdjust="spacing" textLength="20" x="35" y="1096.3154">opt</text><text fill="#000000" font-family="sans-serif" font-size="11" font-weight="bold" lengthAdjust="spacing" textLength="36" x="100" y="1095.2393">[state]</text><polygon fill="#181818" points="461,1118.5234,471,1122.5234,461,1126.5234,465,1122.5234" style="stroke:#181818;stroke-width:1.0;"/><line style="stroke:#181818;stroke-width:1.0;" x1="56" x2="467" y1="1122.5234" y2="1122.5234"/><text fill="#000000" font-family="sans-serif" font-size="13" font-weight="bold" lengthAdjust="spacing" textLength="14" x="63" y="1117.667">23</text><text fill="#000000" font-family="sans-serif" font-size="13" lengthAdjust="spacing" textLength="216" x="81" y="1117.667">asks to sort announcements by state</text><polygon fill="#181818" points="67,1148.875,57,1152.875,67,1156.875,63,1152.875" style="stroke:#181818;stroke-width:1.0;"/><line style="stroke:#181818;stroke-width:1.0;stroke-dasharray:2.0,2.0;" x1="61" x2="477" y1="1152.875" y2="1152.875"/><text fill="#000000" font-family="sans-serif" font-size="13" font-weight="bold" lengthAdjust="spacing" textLength="14" x="73" y="1148.0186">24</text><text fill="#000000" font-family="sans-serif" font-size="13" lengthAdjust="spacing" textLength="375" x="91" y="1148.0186">shows options for sort announcements by state and request data</text><polygon fill="#181818" points="461,1179.2266,471,1183.2266,461,1187.2266,465,1183.2266" style="stroke:#181818;stroke-width:1.0;"/><line style="stroke:#181818;stroke-width:1.0;" x1="56" x2="467" y1="1183.2266" y2="1183.2266"/><text fill="#000000" font-family="sans-serif" font-size="13" font-weight="bold" lengthAdjust="spacing" textLength="14" x="63" y="1178.3701">25</text><text fill="#000000" font-family="sans-serif" font-size="13" lengthAdjust="spacing" textLength="143" x="81" y="1178.3701">select data (sortingType)</text><polygon fill="#181818" points="67,1225.9297,57,1229.9297,67,1233.9297,63,1229.9297" style="stroke:#181818;stroke-width:1.0;"/><line style="stroke:#181818;stroke-width:1.0;stroke-dasharray:2.0,2.0;" x1="61" x2="477" y1="1229.9297" y2="1229.9297"/><text fill="#000000" font-family="sans-serif" font-size="13" font-weight="bold" lengthAdjust="spacing" textLength="14" x="73" y="1216.8975">26</text><text fill="#000000" font-family="sans-serif" font-size="13" lengthAdjust="spacing" textLength="277" x="91" y="1208.7217">display all the listed properties, according to the</text><text fill="#000000" font-family="sans-serif" font-size="13" lengthAdjust="spacing" textLength="85" x="91" y="1225.0732">criteria chosen</text><polygon fill="#181818" points="461,1263.2813,471,1267.2813,461,1271.2813,465,1267.2813" style="stroke:#181818;stroke-width:1.0;"/><line style="stroke:#181818;stroke-width:1.0;" x1="56" x2="467" y1="1267.2813" y2="1267.2813"/><text fill="#000000" font-family="sans-serif" font-size="13" font-weight="bold" lengthAdjust="spacing" textLength="14" x="63" y="1262.4248">27</text><text fill="#000000" font-family="sans-serif" font-size="13" lengthAdjust="spacing" textLength="149" x="81" y="1262.4248">selects an announcement</text><polygon fill="#181818" points="67,1293.6328,57,1297.6328,67,1301.6328,63,1297.6328" style="stroke:#181818;stroke-width:1.0;"/><line style="stroke:#181818;stroke-width:1.0;stroke-dasharray:2.0,2.0;" x1="61" x2="477" y1="1297.6328" y2="1297.6328"/><text fill="#000000" font-family="sans-serif" font-size="13" font-weight="bold" lengthAdjust="spacing" textLength="14" x="73" y="1292.7764">28</text><text fill="#000000" font-family="sans-serif" font-size="13" lengthAdjust="spacing" textLength="79" x="91" y="1292.7764">requests data</text><path d="M20,1312.6328 L93,1312.6328 L93,1320.9844 L83,1330.9844 L20,1330.9844 L20,1312.6328 " fill="#EEEEEE" style="stroke:#000000;stroke-width:1.5;"/><rect fill="none" height="48.7031" style="stroke:#000000;stroke-width:1.5;" width="500" x="20" y="1312.6328"/><text fill="#000000" font-family="sans-serif" font-size="13" font-weight="bold" lengthAdjust="spacing" textLength="28" x="35" y="1327.1279">loop</text><text fill="#000000" font-family="sans-serif" font-size="11" font-weight="bold" lengthAdjust="spacing" textLength="269" x="108" y="1326.0518">[While the order amount is higher than the price]</text><polygon fill="#181818" points="461,1349.3359,471,1353.3359,461,1357.3359,465,1353.3359" style="stroke:#181818;stroke-width:1.0;"/><line style="stroke:#181818;stroke-width:1.0;" x1="56" x2="467" y1="1353.3359" y2="1353.3359"/><text fill="#000000" font-family="sans-serif" font-size="13" font-weight="bold" lengthAdjust="spacing" textLength="14" x="63" y="1348.4795">29</text><text fill="#000000" font-family="sans-serif" font-size="13" lengthAdjust="spacing" textLength="208" x="81" y="1348.4795">types requested data (orderAmount)</text><polygon fill="#181818" points="67,1386.6875,57,1390.6875,67,1394.6875,63,1390.6875" style="stroke:#181818;stroke-width:1.0;"/><line style="stroke:#181818;stroke-width:1.0;stroke-dasharray:2.0,2.0;" x1="61" x2="477" y1="1390.6875" y2="1390.6875"/><text fill="#000000" font-family="sans-serif" font-size="13" font-weight="bold" lengthAdjust="spacing" textLength="14" x="73" y="1385.8311">30</text><text fill="#000000" font-family="sans-serif" font-size="13" lengthAdjust="spacing" textLength="158" x="91" y="1385.8311">displays operation success</text><!--SRC=[xPTBRjim48RtEiNKgnXeBc2W1Thc1YxGJJTZQcmHeKYLCqgWstVqSWL7akN6pgADLe99_lyyFf4cFrfVOCGSyk23oMB82IIMbF1nf43pY0VQIkK88Xb1Vt332PnX6fwjFy0U7LEIY1MTkgrOA8Sj_Ih96u87YuTw-jrs-x1E4Ymb-3BVKTHt8o72wfkpv6K5oD2-9ceWrjW2lS1gqoesu-rhiz8-eL2_805zsdUu_zp7iD4bZmmID7wDXWNGGuWfHGWU48eO2efIDQi7pr6zjnkCTTBtwjBvRRGIuLbjCW9drIJirSU7KhFFTG83Fg5rkDFgdHYbD6SL2W6f2ge5ToLRJyod2cVoPdBQkKKgSv4iI5uTU6YX9KYFPKzHS4nlFl-P_Dgyk166kzxpkmQnlcPkgUN2OGNetB6zbFRSMEAFAcsKgFehq7BNStvw4wrGj0Wc2qn-MU8d4yYdBw8SyZ25xcKypAbSYOS_jNfB8lh4_d4Yq4bdNISA7pw1mv5fFJpjljjyfPJ64FBHZM0PGikrbfHw7YQDtGRFiDVJugNl8gwMixM8hpQAhrq4wrkaVZFI5j4sHTpKlbH4Q-ZIpIX4EJafTzMqqkisf253CyPliKbr3DLHQE_-WqFBsCiFgj4MJGdT6etQzvsC6v31eckkWiQaqjyMQp4SZVCx7LUaO-RurGlSi06llRbr7UFHbistouLGm8_CwfMthaHxhSHSGnEm39azPFg3P1fnFTuUQsUoRFyrTq5fxTk6Dz9V6kNr9GbhMPieprQXwtmDEqMiUGSkZHcvA8wK9FaD]--></g></svg>