<?xml version="1.0" encoding="UTF-8" standalone="no"?><svg xmlns="http://www.w3.org/2000/svg" xmlns:xlink="http://www.w3.org/1999/xlink" contentStyleType="text/css" height="437px" preserveAspectRatio="none" style="width:432px;height:437px;background:#FFFFFF;" version="1.1" viewBox="0 0 432 437" width="432px" zoomAndPan="magnify"><defs/><g><text fill="#000000" font-family="sans-serif" font-size="14" font-weight="bold" lengthAdjust="spacing" textLength="404" x="10" y="29.5332">System Sequence Diagram (SSD) - US008 (Alternative two)</text><rect fill="#FFFFFF" height="215.4609" style="stroke:#181818;stroke-width:1.0;" width="10" x="52.25" y="131.2188"/><rect fill="#FFFFFF" height="55.7031" style="stroke:#181818;stroke-width:1.0;" width="10" x="352.25" y="153.5703"/><rect fill="#FFFFFF" height="30.3516" style="stroke:#181818;stroke-width:1.0;" width="10" x="352.25" y="239.625"/><rect fill="#FFFFFF" height="30.3516" style="stroke:#181818;stroke-width:1.0;" width="10" x="352.25" y="300.3281"/><rect fill="none" height="170.1094" style="stroke:#000000;stroke-width:1.5;" width="373.5" x="25.75" y="168.5703"/><line style="stroke:#181818;stroke-width:0.5;stroke-dasharray:5.0,5.0;" x1="56.75" x2="56.75" y1="121.2188" y2="355.6797"/><line style="stroke:#181818;stroke-width:0.5;stroke-dasharray:5.0,5.0;" x1="357.25" x2="357.25" y1="121.2188" y2="355.6797"/><text fill="#000000" font-family="sans-serif" font-size="14" lengthAdjust="spacing" textLength="37" x="35.75" y="118.1426">Agent</text><ellipse cx="57.25" cy="52.1094" fill="#E3E3E3" rx="8" ry="8" style="stroke:#181818;stroke-width:0.5;"/><path d="M57.25,60.1094 L57.25,87.1094 M44.25,68.1094 L70.25,68.1094 M57.25,87.1094 L44.25,102.1094 M57.25,87.1094 L70.25,102.1094 " fill="none" style="stroke:#181818;stroke-width:0.5;"/><text fill="#000000" font-family="sans-serif" font-size="14" lengthAdjust="spacing" textLength="37" x="35.75" y="369.2129">Agent</text><ellipse cx="57.25" cy="380.7891" fill="#E3E3E3" rx="8" ry="8" style="stroke:#181818;stroke-width:0.5;"/><path d="M57.25,388.7891 L57.25,415.7891 M44.25,396.7891 L70.25,396.7891 M57.25,415.7891 L44.25,430.7891 M57.25,415.7891 L70.25,430.7891 " fill="none" style="stroke:#181818;stroke-width:0.5;"/><rect fill="#E3E3E3" height="31.6094" rx="2.5" ry="2.5" style="stroke:#181818;stroke-width:0.5;" width="64" x="325.25" y="88.6094"/><text fill="#000000" font-family="sans-serif" font-size="14" lengthAdjust="spacing" textLength="50" x="332.25" y="110.1426">:System</text><rect fill="#E3E3E3" height="31.6094" rx="2.5" ry="2.5" style="stroke:#181818;stroke-width:0.5;" width="64" x="325.25" y="354.6797"/><text fill="#000000" font-family="sans-serif" font-size="14" lengthAdjust="spacing" textLength="50" x="332.25" y="376.2129">:System</text><rect fill="#FFFFFF" height="215.4609" style="stroke:#181818;stroke-width:1.0;" width="10" x="52.25" y="131.2188"/><rect fill="#FFFFFF" height="55.7031" style="stroke:#181818;stroke-width:1.0;" width="10" x="352.25" y="153.5703"/><rect fill="#FFFFFF" height="30.3516" style="stroke:#181818;stroke-width:1.0;" width="10" x="352.25" y="239.625"/><rect fill="#FFFFFF" height="30.3516" style="stroke:#181818;stroke-width:1.0;" width="10" x="352.25" y="300.3281"/><polygon fill="#181818" points="340.25,149.5703,350.25,153.5703,340.25,157.5703,344.25,153.5703" style="stroke:#181818;stroke-width:1.0;"/><line style="stroke:#181818;stroke-width:1.0;" x1="62.25" x2="346.25" y1="153.5703" y2="153.5703"/><text fill="#000000" font-family="sans-serif" font-size="13" font-weight="bold" lengthAdjust="spacing" textLength="7" x="69.25" y="148.7139">1</text><text fill="#000000" font-family="sans-serif" font-size="13" lengthAdjust="spacing" textLength="260" x="80.25" y="148.7139">asks to display the requests made to himself</text><path d="M25.75,168.5703 L98.75,168.5703 L98.75,176.9219 L88.75,186.9219 L25.75,186.9219 L25.75,168.5703 " fill="#EEEEEE" style="stroke:#000000;stroke-width:1.5;"/><rect fill="none" height="170.1094" style="stroke:#000000;stroke-width:1.5;" width="373.5" x="25.75" y="168.5703"/><text fill="#000000" font-family="sans-serif" font-size="13" font-weight="bold" lengthAdjust="spacing" textLength="28" x="40.75" y="183.0654">loop</text><text fill="#000000" font-family="sans-serif" font-size="11" font-weight="bold" lengthAdjust="spacing" textLength="100" x="113.75" y="181.9893">[for each request]</text><polygon fill="#181818" points="73.25,205.2734,63.25,209.2734,73.25,213.2734,69.25,209.2734" style="stroke:#181818;stroke-width:1.0;"/><line style="stroke:#181818;stroke-width:1.0;stroke-dasharray:2.0,2.0;" x1="67.25" x2="356.25" y1="209.2734" y2="209.2734"/><text fill="#000000" font-family="sans-serif" font-size="13" font-weight="bold" lengthAdjust="spacing" textLength="7" x="79.25" y="204.417">2</text><text fill="#000000" font-family="sans-serif" font-size="13" lengthAdjust="spacing" textLength="148" x="90.25" y="204.417">shows the list of requests</text><polygon fill="#181818" points="340.25,235.625,350.25,239.625,340.25,243.625,344.25,239.625" style="stroke:#181818;stroke-width:1.0;"/><line style="stroke:#181818;stroke-width:1.0;" x1="62.25" x2="346.25" y1="239.625" y2="239.625"/><text fill="#000000" font-family="sans-serif" font-size="13" font-weight="bold" lengthAdjust="spacing" textLength="7" x="69.25" y="234.7686">3</text><text fill="#000000" font-family="sans-serif" font-size="13" lengthAdjust="spacing" textLength="100" x="80.25" y="234.7686">selects a request</text><polygon fill="#181818" points="73.25,265.9766,63.25,269.9766,73.25,273.9766,69.25,269.9766" style="stroke:#181818;stroke-width:1.0;"/><line style="stroke:#181818;stroke-width:1.0;stroke-dasharray:2.0,2.0;" x1="67.25" x2="356.25" y1="269.9766" y2="269.9766"/><text fill="#000000" font-family="sans-serif" font-size="13" font-weight="bold" lengthAdjust="spacing" textLength="7" x="79.25" y="265.1201">4</text><text fill="#000000" font-family="sans-serif" font-size="13" lengthAdjust="spacing" textLength="255" x="90.25" y="265.1201">shows the request and asks for confirmation</text><polygon fill="#181818" points="340.25,296.3281,350.25,300.3281,340.25,304.3281,344.25,300.3281" style="stroke:#181818;stroke-width:1.0;"/><line style="stroke:#181818;stroke-width:1.0;" x1="62.25" x2="346.25" y1="300.3281" y2="300.3281"/><text fill="#000000" font-family="sans-serif" font-size="13" font-weight="bold" lengthAdjust="spacing" textLength="7" x="69.25" y="295.4717">5</text><text fill="#000000" font-family="sans-serif" font-size="13" lengthAdjust="spacing" textLength="75" x="80.25" y="295.4717">submits data</text><polygon fill="#181818" points="73.25,326.6797,63.25,330.6797,73.25,334.6797,69.25,330.6797" style="stroke:#181818;stroke-width:1.0;"/><line style="stroke:#181818;stroke-width:1.0;stroke-dasharray:2.0,2.0;" x1="67.25" x2="356.25" y1="330.6797" y2="330.6797"/><text fill="#000000" font-family="sans-serif" font-size="13" font-weight="bold" lengthAdjust="spacing" textLength="7" x="79.25" y="325.8232">6</text><text fill="#000000" font-family="sans-serif" font-size="13" lengthAdjust="spacing" textLength="147" x="90.25" y="325.8232">shows operation success</text><!--SRC=[fP71Ri8m38RlVGgB2t10uZXnc8J4dg3Q0vZKRIEIE8jTKDz-QKkxIMpQjENanBz_VtRaOaF4X1uy1pPjOa-WgQD2ban4Sy66IkqTGIAZ61htMI0jLdopeO4QdL1HgDKiBNjHyb3IMqV149miDeDyKvQdBUpWjTplds1pT4efeDfhxdpZRL5WfnmwVwQKOwESO7LiAEWAKE35HySzKP5xgpKsOb1O7QPces8Anr9xHQMFaWBocM-mUvuH3xdi8g0CbPNei0TjXr4pkAY0nug6P6kzaAj7byLyxZQ-EkO8TGOcDEriCAM6i-QeZwztY5tcMTWEUQbyav73ML7WUk5P2Yjwe9XJNmwPuVFl2U32CCk_zVc9xMu46AffXyFmXaDjayzVok7liDtPsmnReUB_E3bI6bcofp4alrdWca8rNORW7G00]--></g></svg>