<?xml version="1.0" encoding="UTF-8" standalone="no"?><svg xmlns="http://www.w3.org/2000/svg" xmlns:xlink="http://www.w3.org/1999/xlink" contentStyleType="text/css" height="761px" preserveAspectRatio="none" style="width:471px;height:761px;background:#FFFFFF;" version="1.1" viewBox="0 0 471 761" width="471px" zoomAndPan="magnify"><defs/><g><text fill="#000000" font-family="sans-serif" font-size="14" font-weight="bold" lengthAdjust="spacing" textLength="284" x="95.25" y="29.5332">System Sequence Diagram (SSD) - US008</text><rect fill="#FFFFFF" height="538.8125" style="stroke:#181818;stroke-width:1.0;" width="10" x="56.5" y="131.2188"/><rect fill="#FFFFFF" height="55.7031" style="stroke:#181818;stroke-width:1.0;" width="10" x="398.5" y="153.5703"/><rect fill="#FFFFFF" height="30.3516" style="stroke:#181818;stroke-width:1.0;" width="10" x="398.5" y="264.9766"/><rect fill="#FFFFFF" height="55.7031" style="stroke:#181818;stroke-width:1.0;" width="10" x="398.5" y="325.6797"/><rect fill="#FFFFFF" height="30.3516" style="stroke:#181818;stroke-width:1.0;" width="10" x="398.5" y="411.7344"/><rect fill="#FFFFFF" height="30.3516" style="stroke:#181818;stroke-width:1.0;" width="10" x="398.5" y="472.4375"/><rect fill="#FFFFFF" height="46.1875" style="stroke:#181818;stroke-width:1.0;" width="10" x="398.5" y="533.1406"/><rect fill="#FFFFFF" height="37.3516" style="stroke:#181818;stroke-width:1.0;" width="10" x="398.5" y="609.6797"/><rect fill="none" height="493.4609" style="stroke:#000000;stroke-width:1.5;" width="455.5" x="10" y="168.5703"/><rect fill="none" height="430.7578" style="stroke:#000000;stroke-width:1.5;" width="435.5" x="20" y="224.2734"/><rect fill="none" height="277" style="stroke:#000000;stroke-width:1.5;" width="415.5" x="30" y="340.6797"/><line style="stroke:#181818;stroke-width:0.5;stroke-dasharray:5.0,5.0;" x1="61" x2="61" y1="121.2188" y2="679.0313"/><line style="stroke:#181818;stroke-width:0.5;stroke-dasharray:5.0,5.0;" x1="403.5" x2="403.5" y1="121.2188" y2="679.0313"/><text fill="#000000" font-family="sans-serif" font-size="14" lengthAdjust="spacing" textLength="37" x="40" y="118.1426">Agent</text><ellipse cx="61.5" cy="52.1094" fill="#E3E3E3" rx="8" ry="8" style="stroke:#181818;stroke-width:0.5;"/><path d="M61.5,60.1094 L61.5,87.1094 M48.5,68.1094 L74.5,68.1094 M61.5,87.1094 L48.5,102.1094 M61.5,87.1094 L74.5,102.1094 " fill="none" style="stroke:#181818;stroke-width:0.5;"/><text fill="#000000" font-family="sans-serif" font-size="14" lengthAdjust="spacing" textLength="37" x="40" y="692.5645">Agent</text><ellipse cx="61.5" cy="704.1406" fill="#E3E3E3" rx="8" ry="8" style="stroke:#181818;stroke-width:0.5;"/><path d="M61.5,712.1406 L61.5,739.1406 M48.5,720.1406 L74.5,720.1406 M61.5,739.1406 L48.5,754.1406 M61.5,739.1406 L74.5,754.1406 " fill="none" style="stroke:#181818;stroke-width:0.5;"/><rect fill="#E3E3E3" height="31.6094" rx="2.5" ry="2.5" style="stroke:#181818;stroke-width:0.5;" width="64" x="371.5" y="88.6094"/><text fill="#000000" font-family="sans-serif" font-size="14" lengthAdjust="spacing" textLength="50" x="378.5" y="110.1426">:System</text><rect fill="#E3E3E3" height="31.6094" rx="2.5" ry="2.5" style="stroke:#181818;stroke-width:0.5;" width="64" x="371.5" y="678.0313"/><text fill="#000000" font-family="sans-serif" font-size="14" lengthAdjust="spacing" textLength="50" x="378.5" y="699.5645">:System</text><rect fill="#FFFFFF" height="538.8125" style="stroke:#181818;stroke-width:1.0;" width="10" x="56.5" y="131.2188"/><rect fill="#FFFFFF" height="55.7031" style="stroke:#181818;stroke-width:1.0;" width="10" x="398.5" y="153.5703"/><rect fill="#FFFFFF" height="30.3516" style="stroke:#181818;stroke-width:1.0;" width="10" x="398.5" y="264.9766"/><rect fill="#FFFFFF" height="55.7031" style="stroke:#181818;stroke-width:1.0;" width="10" x="398.5" y="325.6797"/><rect fill="#FFFFFF" height="30.3516" style="stroke:#181818;stroke-width:1.0;" width="10" x="398.5" y="411.7344"/><rect fill="#FFFFFF" height="30.3516" style="stroke:#181818;stroke-width:1.0;" width="10" x="398.5" y="472.4375"/><rect fill="#FFFFFF" height="46.1875" style="stroke:#181818;stroke-width:1.0;" width="10" x="398.5" y="533.1406"/><rect fill="#FFFFFF" height="37.3516" style="stroke:#181818;stroke-width:1.0;" width="10" x="398.5" y="609.6797"/><polygon fill="#181818" points="386.5,149.5703,396.5,153.5703,386.5,157.5703,390.5,153.5703" style="stroke:#181818;stroke-width:1.0;"/><line style="stroke:#181818;stroke-width:1.0;" x1="66.5" x2="392.5" y1="153.5703" y2="153.5703"/><text fill="#000000" font-family="sans-serif" font-size="13" font-weight="bold" lengthAdjust="spacing" textLength="7" x="73.5" y="148.7139">1</text><text fill="#000000" font-family="sans-serif" font-size="13" lengthAdjust="spacing" textLength="260" x="84.5" y="148.7139">asks to display the requests made to himself</text><path d="M10,168.5703 L83,168.5703 L83,176.9219 L73,186.9219 L10,186.9219 L10,168.5703 " fill="#EEEEEE" style="stroke:#000000;stroke-width:1.5;"/><rect fill="none" height="493.4609" style="stroke:#000000;stroke-width:1.5;" width="455.5" x="10" y="168.5703"/><text fill="#000000" font-family="sans-serif" font-size="13" font-weight="bold" lengthAdjust="spacing" textLength="28" x="25" y="183.0654">loop</text><text fill="#000000" font-family="sans-serif" font-size="11" font-weight="bold" lengthAdjust="spacing" textLength="168" x="98" y="181.9893">[for the requests of the agent]</text><polygon fill="#181818" points="77.5,205.2734,67.5,209.2734,77.5,213.2734,73.5,209.2734" style="stroke:#181818;stroke-width:1.0;"/><line style="stroke:#181818;stroke-width:1.0;stroke-dasharray:2.0,2.0;" x1="71.5" x2="402.5" y1="209.2734" y2="209.2734"/><text fill="#000000" font-family="sans-serif" font-size="13" font-weight="bold" lengthAdjust="spacing" textLength="7" x="83.5" y="204.417">2</text><text fill="#000000" font-family="sans-serif" font-size="13" lengthAdjust="spacing" textLength="148" x="94.5" y="204.417">shows the list of requests</text><path d="M20,224.2734 L85,224.2734 L85,232.625 L75,242.625 L20,242.625 L20,224.2734 " fill="#EEEEEE" style="stroke:#000000;stroke-width:1.5;"/><rect fill="none" height="430.7578" style="stroke:#000000;stroke-width:1.5;" width="435.5" x="20" y="224.2734"/><text fill="#000000" font-family="sans-serif" font-size="13" font-weight="bold" lengthAdjust="spacing" textLength="20" x="35" y="238.7686">opt</text><text fill="#000000" font-family="sans-serif" font-size="11" font-weight="bold" lengthAdjust="spacing" textLength="105" x="100" y="237.6924">[selects a request]</text><polygon fill="#181818" points="386.5,260.9766,396.5,264.9766,386.5,268.9766,390.5,264.9766" style="stroke:#181818;stroke-width:1.0;"/><line style="stroke:#181818;stroke-width:1.0;" x1="66.5" x2="392.5" y1="264.9766" y2="264.9766"/><text fill="#000000" font-family="sans-serif" font-size="13" font-weight="bold" lengthAdjust="spacing" textLength="7" x="73.5" y="260.1201">3</text><text fill="#000000" font-family="sans-serif" font-size="13" lengthAdjust="spacing" textLength="100" x="84.5" y="260.1201">selects a request</text><polygon fill="#181818" points="77.5,291.3281,67.5,295.3281,77.5,299.3281,73.5,295.3281" style="stroke:#181818;stroke-width:1.0;"/><line style="stroke:#181818;stroke-width:1.0;stroke-dasharray:2.0,2.0;" x1="71.5" x2="402.5" y1="295.3281" y2="295.3281"/><text fill="#000000" font-family="sans-serif" font-size="13" font-weight="bold" lengthAdjust="spacing" textLength="7" x="83.5" y="290.4717">4</text><text fill="#000000" font-family="sans-serif" font-size="13" lengthAdjust="spacing" textLength="239" x="94.5" y="290.4717">shows the request and asks data (option)</text><polygon fill="#181818" points="386.5,321.6797,396.5,325.6797,386.5,329.6797,390.5,325.6797" style="stroke:#181818;stroke-width:1.0;"/><line style="stroke:#181818;stroke-width:1.0;" x1="66.5" x2="392.5" y1="325.6797" y2="325.6797"/><text fill="#000000" font-family="sans-serif" font-size="13" font-weight="bold" lengthAdjust="spacing" textLength="7" x="73.5" y="320.8232">5</text><text fill="#000000" font-family="sans-serif" font-size="13" lengthAdjust="spacing" textLength="122" x="84.5" y="320.8232">submits data (option)</text><path d="M30,340.6797 L91,340.6797 L91,349.0313 L81,359.0313 L30,359.0313 L30,340.6797 " fill="#EEEEEE" style="stroke:#000000;stroke-width:1.5;"/><rect fill="none" height="277" style="stroke:#000000;stroke-width:1.5;" width="415.5" x="30" y="340.6797"/><text fill="#000000" font-family="sans-serif" font-size="13" font-weight="bold" lengthAdjust="spacing" textLength="16" x="45" y="355.1748">alt</text><text fill="#000000" font-family="sans-serif" font-size="11" font-weight="bold" lengthAdjust="spacing" textLength="97" x="106" y="354.0986">[option == accept]</text><polygon fill="#181818" points="77.5,377.3828,67.5,381.3828,77.5,385.3828,73.5,381.3828" style="stroke:#181818;stroke-width:1.0;"/><line style="stroke:#181818;stroke-width:1.0;stroke-dasharray:2.0,2.0;" x1="71.5" x2="402.5" y1="381.3828" y2="381.3828"/><text fill="#000000" font-family="sans-serif" font-size="13" font-weight="bold" lengthAdjust="spacing" textLength="7" x="83.5" y="376.5264">6</text><text fill="#000000" font-family="sans-serif" font-size="13" lengthAdjust="spacing" textLength="297" x="94.5" y="376.5264">shows types of commission and asks to select one</text><polygon fill="#181818" points="386.5,407.7344,396.5,411.7344,386.5,415.7344,390.5,411.7344" style="stroke:#181818;stroke-width:1.0;"/><line style="stroke:#181818;stroke-width:1.0;" x1="66.5" x2="392.5" y1="411.7344" y2="411.7344"/><text fill="#000000" font-family="sans-serif" font-size="13" font-weight="bold" lengthAdjust="spacing" textLength="7" x="73.5" y="406.8779">7</text><text fill="#000000" font-family="sans-serif" font-size="13" lengthAdjust="spacing" textLength="159" x="84.5" y="406.8779">selects type of commission</text><polygon fill="#181818" points="77.5,438.0859,67.5,442.0859,77.5,446.0859,73.5,442.0859" style="stroke:#181818;stroke-width:1.0;"/><line style="stroke:#181818;stroke-width:1.0;stroke-dasharray:2.0,2.0;" x1="71.5" x2="402.5" y1="442.0859" y2="442.0859"/><text fill="#000000" font-family="sans-serif" font-size="13" font-weight="bold" lengthAdjust="spacing" textLength="7" x="83.5" y="437.2295">8</text><text fill="#000000" font-family="sans-serif" font-size="13" lengthAdjust="spacing" textLength="171" x="94.5" y="437.2295">requests value of commission</text><polygon fill="#181818" points="386.5,468.4375,396.5,472.4375,386.5,476.4375,390.5,472.4375" style="stroke:#181818;stroke-width:1.0;"/><line style="stroke:#181818;stroke-width:1.0;" x1="66.5" x2="392.5" y1="472.4375" y2="472.4375"/><text fill="#000000" font-family="sans-serif" font-size="13" font-weight="bold" lengthAdjust="spacing" textLength="7" x="73.5" y="467.5811">9</text><text fill="#000000" font-family="sans-serif" font-size="13" lengthAdjust="spacing" textLength="143" x="84.5" y="467.5811">enters commission value</text><polygon fill="#181818" points="77.5,498.7891,67.5,502.7891,77.5,506.7891,73.5,502.7891" style="stroke:#181818;stroke-width:1.0;"/><line style="stroke:#181818;stroke-width:1.0;stroke-dasharray:2.0,2.0;" x1="71.5" x2="402.5" y1="502.7891" y2="502.7891"/><text fill="#000000" font-family="sans-serif" font-size="13" font-weight="bold" lengthAdjust="spacing" textLength="14" x="83.5" y="497.9326">10</text><text fill="#000000" font-family="sans-serif" font-size="13" lengthAdjust="spacing" textLength="205" x="101.5" y="497.9326">shows all data and asks to submits</text><polygon fill="#181818" points="386.5,529.1406,396.5,533.1406,386.5,537.1406,390.5,533.1406" style="stroke:#181818;stroke-width:1.0;"/><line style="stroke:#181818;stroke-width:1.0;" x1="66.5" x2="392.5" y1="533.1406" y2="533.1406"/><text fill="#000000" font-family="sans-serif" font-size="13" font-weight="bold" lengthAdjust="spacing" textLength="14" x="73.5" y="528.2842">11</text><text fill="#000000" font-family="sans-serif" font-size="13" lengthAdjust="spacing" textLength="75" x="91.5" y="528.2842">submits data</text><line style="stroke:#000000;stroke-width:1.0;stroke-dasharray:2.0,2.0;" x1="30" x2="445.5" y1="542.1406" y2="542.1406"/><text fill="#000000" font-family="sans-serif" font-size="11" font-weight="bold" lengthAdjust="spacing" textLength="101" x="35" y="553.5596">[option == decline]</text><polygon fill="#181818" points="77.5,575.3281,67.5,579.3281,77.5,583.3281,73.5,579.3281" style="stroke:#181818;stroke-width:1.0;"/><line style="stroke:#181818;stroke-width:1.0;stroke-dasharray:2.0,2.0;" x1="71.5" x2="402.5" y1="579.3281" y2="579.3281"/><text fill="#000000" font-family="sans-serif" font-size="13" font-weight="bold" lengthAdjust="spacing" textLength="14" x="83.5" y="574.4717">12</text><text fill="#000000" font-family="sans-serif" font-size="13" lengthAdjust="spacing" textLength="172" x="101.5" y="574.4717">asks for justification message</text><polygon fill="#181818" points="386.5,605.6797,396.5,609.6797,386.5,613.6797,390.5,609.6797" style="stroke:#181818;stroke-width:1.0;"/><line style="stroke:#181818;stroke-width:1.0;" x1="66.5" x2="392.5" y1="609.6797" y2="609.6797"/><text fill="#000000" font-family="sans-serif" font-size="13" font-weight="bold" lengthAdjust="spacing" textLength="14" x="73.5" y="604.8232">13</text><text fill="#000000" font-family="sans-serif" font-size="13" lengthAdjust="spacing" textLength="103" x="91.5" y="604.8232">submits message</text><polygon fill="#181818" points="77.5,643.0313,67.5,647.0313,77.5,651.0313,73.5,647.0313" style="stroke:#181818;stroke-width:1.0;"/><line style="stroke:#181818;stroke-width:1.0;stroke-dasharray:2.0,2.0;" x1="71.5" x2="402.5" y1="647.0313" y2="647.0313"/><text fill="#000000" font-family="sans-serif" font-size="13" font-weight="bold" lengthAdjust="spacing" textLength="14" x="83.5" y="642.1748">14</text><text fill="#000000" font-family="sans-serif" font-size="13" lengthAdjust="spacing" textLength="147" x="101.5" y="642.1748">shows operation success</text><!--SRC=[xLRDRjim3BxxAOXSt1u2z3W4w801tHCOUm16fXCj-l5CkONVVf8SEJ-EcyJjOK3danoH7p_o8-dmJfeQ6zIWhR5YsrXDu9gMCXvkQXGxt53XEaNGa71eDkhOWBTOsZTfDb2XOieo9vqtBJfsfA6WFoqPGV0YSHFC7uhYvH6MyAjuUlgMPTWwQrgzfiQVXRCDB7vioBW58CDFNIlR4MK-afD2rcWSB5OzTBJeZz5LlgAZWqi6_abliFoU2Asysux1MIWbrmexSDkGcAV9Za5ZIU5oApMJgYBA09wYnL-LjJLKdl29lwtYEuOSUhlmx6ClFOs1qifNphvnD5UINN1DC8DZIQFWwShM3Zn5hmW39i_3zSNKn_R9V3BCDUfx841JzfKjqI4yU7RIciTR4hdCj5rhwQRG9h5GEUYDuVdPcmcgRvMXgodA9wpMaZb033dvXkXB1zRG_9psrG-XJYFDbM5ekrTKxHJclJHzvrB3ntM8w1zh5LIgr_Aafht8dz8ar-cHtqv7pL6IKDBGDVgHQnZptoqxMKc14K0Jin_okTGJytEOQVAclAtGjgQcfyYjRt- -gReHFSkFfwYVdM5FvEyAaGJLkAF3Se4rYV15mJ19nhR-Cw33MiodiiqFLtUldI2HiAQIZOxf7w36UUTNqZdfgu-o7GaIER-p-syZ7hjvtyDtgfIypdGPetosFfT7QBvGvrCqd_ZNRA4mzVdn_ucX0_xF-pyfLZhy1G00]--></g></svg>