<?xml version="1.0" encoding="UTF-8" standalone="no"?><svg xmlns="http://www.w3.org/2000/svg" xmlns:xlink="http://www.w3.org/1999/xlink" contentStyleType="text/css" height="1622px" preserveAspectRatio="none" style="width:1816px;height:1622px;background:#FFFFFF;" version="1.1" viewBox="0 0 1816 1622" width="1816px" zoomAndPan="magnify"><defs/><g><rect fill="#FFFFFF" height="1462.7969" style="stroke:#181818;stroke-width:1.0;" width="10" x="154" y="87.5703"/><rect fill="#FFFFFF" height="30.3516" style="stroke:#181818;stroke-width:1.0;" width="10" x="324.5" y="143.2734"/><rect fill="#FFFFFF" height="1309.0391" style="stroke:#181818;stroke-width:1.0;" width="10" x="481.5" y="203.9766"/><rect fill="#FFFFFF" height="227.4609" style="stroke:#181818;stroke-width:1.0;" width="10" x="486.5" y="1095.6328"/><rect fill="#FFFFFF" height="30.3516" style="stroke:#181818;stroke-width:1.0;" width="10" x="835.5" y="1156.3359"/><rect fill="#FFFFFF" height="30.3516" style="stroke:#181818;stroke-width:1.0;" width="10" x="835.5" y="1242.3906"/><rect fill="#FFFFFF" height="30.3516" style="stroke:#181818;stroke-width:1.0;" width="10" x="945.5" y="319.8984"/><rect fill="#FFFFFF" height="30.3516" style="stroke:#181818;stroke-width:1.0;" width="10" x="1079.5" y="380.6016"/><rect fill="#FFFFFF" height="30.3516" style="stroke:#181818;stroke-width:1.0;" width="10" x="1079.5" y="441.3047"/><rect fill="#FFFFFF" height="30.3516" style="stroke:#181818;stroke-width:1.0;" width="10" x="1079.5" y="502.0078"/><rect fill="#FFFFFF" height="91.0547" style="stroke:#181818;stroke-width:1.0;" width="10" x="1079.5" y="587.7109"/><rect fill="#FFFFFF" height="30.3516" style="stroke:#181818;stroke-width:1.0;" width="10" x="1079.5" y="734.1172"/><rect fill="#FFFFFF" height="91.0547" style="stroke:#181818;stroke-width:1.0;" width="10" x="1079.5" y="819.8203"/><rect fill="#FFFFFF" height="91.0547" style="stroke:#181818;stroke-width:1.0;" width="10" x="1079.5" y="941.2266"/><rect fill="#FFFFFF" height="30.3516" style="stroke:#181818;stroke-width:1.0;" width="10" x="1239.5" y="618.0625"/><rect fill="#FFFFFF" height="30.3516" style="stroke:#181818;stroke-width:1.0;" width="10" x="1332" y="850.1719"/><rect fill="#FFFFFF" height="30.3516" style="stroke:#181818;stroke-width:1.0;" width="10" x="1417.5" y="971.5781"/><rect fill="#FFFFFF" height="30" style="stroke:#181818;stroke-width:1.0;" width="10" x="1554" y="1445.6641"/><rect fill="none" height="1418.4453" style="stroke:#000000;stroke-width:1.5;" width="1755.5" x="55" y="102.5703"/><rect fill="none" height="1204.4688" style="stroke:#000000;stroke-width:1.5;" width="1424.5" x="376" y="279.1953"/><rect fill="none" height="172.1094" style="stroke:#000000;stroke-width:1.5;" width="507" x="386" y="1115.6328"/><rect fill="none" height="79.0547" style="stroke:#000000;stroke-width:1.5;" width="487" x="396" y="1201.6875"/><line style="stroke:#181818;stroke-width:0.5;stroke-dasharray:5.0,5.0;" x1="159" x2="159" y1="55.2188" y2="1568.3672"/><line style="stroke:#181818;stroke-width:0.5;stroke-dasharray:5.0,5.0;" x1="329" x2="329" y1="55.2188" y2="1568.3672"/><line style="stroke:#181818;stroke-width:0.5;stroke-dasharray:5.0,5.0;" x1="486" x2="486" y1="55.2188" y2="1568.3672"/><line style="stroke:#181818;stroke-width:0.5;stroke-dasharray:5.0,5.0;" x1="840" x2="840" y1="55.2188" y2="1568.3672"/><line style="stroke:#181818;stroke-width:0.5;stroke-dasharray:5.0,5.0;" x1="950" x2="950" y1="55.2188" y2="1568.3672"/><line style="stroke:#181818;stroke-width:0.5;stroke-dasharray:5.0,5.0;" x1="1084" x2="1084" y1="55.2188" y2="1568.3672"/><line style="stroke:#181818;stroke-width:0.5;stroke-dasharray:5.0,5.0;" x1="1244.5" x2="1244.5" y1="55.2188" y2="1568.3672"/><line style="stroke:#181818;stroke-width:0.5;stroke-dasharray:5.0,5.0;" x1="1336.5" x2="1336.5" y1="55.2188" y2="1568.3672"/><line style="stroke:#181818;stroke-width:0.5;stroke-dasharray:5.0,5.0;" x1="1422.5" x2="1422.5" y1="55.2188" y2="1568.3672"/><line style="stroke:#181818;stroke-width:0.5;stroke-dasharray:5.0,5.0;" x1="1558.5" x2="1558.5" y1="252.0859" y2="1568.3672"/><line style="stroke:#181818;stroke-width:0.5;stroke-dasharray:5.0,5.0;" x1="1722.5" x2="1722.5" y1="1403.2031" y2="1568.3672"/><rect fill="#E3E3E3" height="31.6094" rx="2.5" ry="2.5" style="stroke:#181818;stroke-width:0.5;" width="188" x="65" y="22.6094"/><text fill="#000000" font-family="sans-serif" font-size="14" lengthAdjust="spacing" textLength="174" x="72" y="44.1426">:ListDealsNetworkController</text><rect fill="#E3E3E3" height="31.6094" rx="2.5" ry="2.5" style="stroke:#181818;stroke-width:0.5;" width="188" x="65" y="1567.3672"/><text fill="#000000" font-family="sans-serif" font-size="14" lengthAdjust="spacing" textLength="174" x="72" y="1588.9004">:ListDealsNetworkController</text><rect fill="#E3E3E3" height="49.2188" rx="2.5" ry="2.5" style="stroke:#181818;stroke-width:0.5;" width="133" x="263" y="5"/><text fill="#000000" font-family="sans-serif" font-size="14" lengthAdjust="spacing" textLength="114" x="272.5" y="26.5332">agencyRepository</text><text fill="#000000" font-family="sans-serif" font-size="14" lengthAdjust="spacing" textLength="119" x="270" y="44.1426">:AgencyRepository</text><rect fill="#E3E3E3" height="49.2188" rx="2.5" ry="2.5" style="stroke:#181818;stroke-width:0.5;" width="133" x="263" y="1567.3672"/><text fill="#000000" font-family="sans-serif" font-size="14" lengthAdjust="spacing" textLength="114" x="272.5" y="1588.9004">agencyRepository</text><text fill="#000000" font-family="sans-serif" font-size="14" lengthAdjust="spacing" textLength="119" x="270" y="1606.5098">:AgencyRepository</text><rect fill="#E3E3E3" height="31.6094" rx="2.5" ry="2.5" style="stroke:#181818;stroke-width:0.5;" width="161" x="406" y="22.6094"/><text fill="#000000" font-family="sans-serif" font-size="14" lengthAdjust="spacing" textLength="147" x="413" y="44.1426">:AnnouncementMapper</text><rect fill="#E3E3E3" height="31.6094" rx="2.5" ry="2.5" style="stroke:#181818;stroke-width:0.5;" width="161" x="406" y="1567.3672"/><text fill="#000000" font-family="sans-serif" font-size="14" lengthAdjust="spacing" textLength="147" x="413" y="1588.9004">:AnnouncementMapper</text><rect fill="#E3E3E3" height="49.2188" rx="2.5" ry="2.5" style="stroke:#181818;stroke-width:0.5;" width="65" x="808" y="5"/><text fill="#000000" font-family="sans-serif" font-size="14" lengthAdjust="spacing" textLength="46" x="817.5" y="26.5332">agency</text><text fill="#000000" font-family="sans-serif" font-size="14" lengthAdjust="spacing" textLength="51" x="815" y="44.1426">:Agency</text><rect fill="#E3E3E3" height="49.2188" rx="2.5" ry="2.5" style="stroke:#181818;stroke-width:0.5;" width="65" x="808" y="1567.3672"/><text fill="#000000" font-family="sans-serif" font-size="14" lengthAdjust="spacing" textLength="46" x="817.5" y="1588.9004">agency</text><text fill="#000000" font-family="sans-serif" font-size="14" lengthAdjust="spacing" textLength="51" x="815" y="1606.5098">:Agency</text><rect fill="#E3E3E3" height="49.2188" rx="2.5" ry="2.5" style="stroke:#181818;stroke-width:0.5;" width="135" x="883" y="5"/><text fill="#000000" font-family="sans-serif" font-size="14" lengthAdjust="spacing" textLength="116" x="892.5" y="26.5332">announcementList</text><text fill="#000000" font-family="sans-serif" font-size="14" lengthAdjust="spacing" textLength="121" x="890" y="44.1426">:AnnouncementList</text><rect fill="#E3E3E3" height="49.2188" rx="2.5" ry="2.5" style="stroke:#181818;stroke-width:0.5;" width="135" x="883" y="1567.3672"/><text fill="#000000" font-family="sans-serif" font-size="14" lengthAdjust="spacing" textLength="116" x="892.5" y="1588.9004">announcementList</text><text fill="#000000" font-family="sans-serif" font-size="14" lengthAdjust="spacing" textLength="121" x="890" y="1606.5098">:AnnouncementList</text><rect fill="#E3E3E3" height="49.2188" rx="2.5" ry="2.5" style="stroke:#181818;stroke-width:0.5;" width="113" x="1028" y="5"/><text fill="#000000" font-family="sans-serif" font-size="14" lengthAdjust="spacing" textLength="94" x="1037.5" y="26.5332">announcement</text><text fill="#000000" font-family="sans-serif" font-size="14" lengthAdjust="spacing" textLength="99" x="1035" y="44.1426">:Announcement</text><rect fill="#E3E3E3" height="49.2188" rx="2.5" ry="2.5" style="stroke:#181818;stroke-width:0.5;" width="113" x="1028" y="1567.3672"/><text fill="#000000" font-family="sans-serif" font-size="14" lengthAdjust="spacing" textLength="94" x="1037.5" y="1588.9004">announcement</text><text fill="#000000" font-family="sans-serif" font-size="14" lengthAdjust="spacing" textLength="99" x="1035" y="1606.5098">:Announcement</text><rect fill="#E3E3E3" height="49.2188" rx="2.5" ry="2.5" style="stroke:#181818;stroke-width:0.5;" width="94" x="1197.5" y="5"/><text fill="#000000" font-family="sans-serif" font-size="14" lengthAdjust="spacing" textLength="73" x="1208" y="26.5332">commission</text><text fill="#000000" font-family="sans-serif" font-size="14" lengthAdjust="spacing" textLength="80" x="1204.5" y="44.1426">:Commission</text><rect fill="#E3E3E3" height="49.2188" rx="2.5" ry="2.5" style="stroke:#181818;stroke-width:0.5;" width="94" x="1197.5" y="1567.3672"/><text fill="#000000" font-family="sans-serif" font-size="14" lengthAdjust="spacing" textLength="73" x="1208" y="1588.9004">commission</text><text fill="#000000" font-family="sans-serif" font-size="14" lengthAdjust="spacing" textLength="80" x="1204.5" y="1606.5098">:Commission</text><rect fill="#E3E3E3" height="49.2188" rx="2.5" ry="2.5" style="stroke:#181818;stroke-width:0.5;" width="71" x="1301.5" y="5"/><text fill="#000000" font-family="sans-serif" font-size="14" lengthAdjust="spacing" textLength="48" x="1313" y="26.5332">request</text><text fill="#000000" font-family="sans-serif" font-size="14" lengthAdjust="spacing" textLength="57" x="1308.5" y="44.1426">:Request</text><rect fill="#E3E3E3" height="49.2188" rx="2.5" ry="2.5" style="stroke:#181818;stroke-width:0.5;" width="71" x="1301.5" y="1567.3672"/><text fill="#000000" font-family="sans-serif" font-size="14" lengthAdjust="spacing" textLength="48" x="1313" y="1588.9004">request</text><text fill="#000000" font-family="sans-serif" font-size="14" lengthAdjust="spacing" textLength="57" x="1308.5" y="1606.5098">:Request</text><rect fill="#E3E3E3" height="49.2188" rx="2.5" ry="2.5" style="stroke:#181818;stroke-width:0.5;" width="80" x="1382.5" y="5"/><text fill="#000000" font-family="sans-serif" font-size="14" lengthAdjust="spacing" textLength="61" x="1392" y="26.5332">employee</text><text fill="#000000" font-family="sans-serif" font-size="14" lengthAdjust="spacing" textLength="66" x="1389.5" y="44.1426">:Employee</text><rect fill="#E3E3E3" height="49.2188" rx="2.5" ry="2.5" style="stroke:#181818;stroke-width:0.5;" width="80" x="1382.5" y="1567.3672"/><text fill="#000000" font-family="sans-serif" font-size="14" lengthAdjust="spacing" textLength="61" x="1392" y="1588.9004">employee</text><text fill="#000000" font-family="sans-serif" font-size="14" lengthAdjust="spacing" textLength="66" x="1389.5" y="1606.5098">:Employee</text><rect fill="#E3E3E3" height="49.2188" rx="2.5" ry="2.5" style="stroke:#181818;stroke-width:0.5;" width="173" x="1472.5" y="1567.3672"/><text fill="#000000" font-family="sans-serif" font-size="14" lengthAdjust="spacing" textLength="138" x="1490" y="1588.9004">announcementListDto</text><text fill="#000000" font-family="sans-serif" font-size="14" lengthAdjust="spacing" textLength="159" x="1479.5" y="1606.5098">:List&lt;AnnouncementDto&gt;</text><rect fill="#E3E3E3" height="49.2188" rx="2.5" ry="2.5" style="stroke:#181818;stroke-width:0.5;" width="135" x="1655.5" y="1567.3672"/><text fill="#000000" font-family="sans-serif" font-size="14" lengthAdjust="spacing" textLength="116" x="1665" y="1588.9004">announcementDto</text><text fill="#000000" font-family="sans-serif" font-size="14" lengthAdjust="spacing" textLength="121" x="1662.5" y="1606.5098">:AnnouncementDto</text><rect fill="#FFFFFF" height="1462.7969" style="stroke:#181818;stroke-width:1.0;" width="10" x="154" y="87.5703"/><rect fill="#FFFFFF" height="30.3516" style="stroke:#181818;stroke-width:1.0;" width="10" x="324.5" y="143.2734"/><rect fill="#FFFFFF" height="1309.0391" style="stroke:#181818;stroke-width:1.0;" width="10" x="481.5" y="203.9766"/><rect fill="#FFFFFF" height="227.4609" style="stroke:#181818;stroke-width:1.0;" width="10" x="486.5" y="1095.6328"/><rect fill="#FFFFFF" height="30.3516" style="stroke:#181818;stroke-width:1.0;" width="10" x="835.5" y="1156.3359"/><rect fill="#FFFFFF" height="30.3516" style="stroke:#181818;stroke-width:1.0;" width="10" x="835.5" y="1242.3906"/><rect fill="#FFFFFF" height="30.3516" style="stroke:#181818;stroke-width:1.0;" width="10" x="945.5" y="319.8984"/><rect fill="#FFFFFF" height="30.3516" style="stroke:#181818;stroke-width:1.0;" width="10" x="1079.5" y="380.6016"/><rect fill="#FFFFFF" height="30.3516" style="stroke:#181818;stroke-width:1.0;" width="10" x="1079.5" y="441.3047"/><rect fill="#FFFFFF" height="30.3516" style="stroke:#181818;stroke-width:1.0;" width="10" x="1079.5" y="502.0078"/><rect fill="#FFFFFF" height="91.0547" style="stroke:#181818;stroke-width:1.0;" width="10" x="1079.5" y="587.7109"/><rect fill="#FFFFFF" height="30.3516" style="stroke:#181818;stroke-width:1.0;" width="10" x="1079.5" y="734.1172"/><rect fill="#FFFFFF" height="91.0547" style="stroke:#181818;stroke-width:1.0;" width="10" x="1079.5" y="819.8203"/><rect fill="#FFFFFF" height="91.0547" style="stroke:#181818;stroke-width:1.0;" width="10" x="1079.5" y="941.2266"/><rect fill="#FFFFFF" height="30.3516" style="stroke:#181818;stroke-width:1.0;" width="10" x="1239.5" y="618.0625"/><rect fill="#FFFFFF" height="30.3516" style="stroke:#181818;stroke-width:1.0;" width="10" x="1332" y="850.1719"/><rect fill="#FFFFFF" height="30.3516" style="stroke:#181818;stroke-width:1.0;" width="10" x="1417.5" y="971.5781"/><rect fill="#FFFFFF" height="30" style="stroke:#181818;stroke-width:1.0;" width="10" x="1554" y="1445.6641"/><polygon fill="#181818" points="142,83.5703,152,87.5703,142,91.5703,146,87.5703" style="stroke:#181818;stroke-width:1.0;"/><line style="stroke:#181818;stroke-width:1.0;" x1="0" x2="148" y1="87.5703" y2="87.5703"/><text fill="#000000" font-family="sans-serif" font-size="13" font-weight="bold" lengthAdjust="spacing" textLength="14" x="7" y="82.7139">20</text><text fill="#000000" font-family="sans-serif" font-size="13" lengthAdjust="spacing" textLength="117" x="25" y="82.7139">toDto(listOfAllDeals)</text><path d="M55,102.5703 L222,102.5703 L222,110.9219 L212,120.9219 L55,120.9219 L55,102.5703 " fill="#EEEEEE" style="stroke:#000000;stroke-width:1.5;"/><rect fill="none" height="1418.4453" style="stroke:#000000;stroke-width:1.5;" width="1755.5" x="55" y="102.5703"/><text fill="#000000" font-family="sans-serif" font-size="13" font-weight="bold" lengthAdjust="spacing" textLength="122" x="70" y="117.0654">Convert List to DTO</text><polygon fill="#181818" points="312.5,139.2734,322.5,143.2734,312.5,147.2734,316.5,143.2734" style="stroke:#181818;stroke-width:1.0;"/><line style="stroke:#181818;stroke-width:1.0;" x1="164" x2="318.5" y1="143.2734" y2="143.2734"/><text fill="#000000" font-family="sans-serif" font-size="13" font-weight="bold" lengthAdjust="spacing" textLength="25" x="171" y="138.417">20.1</text><text fill="#000000" font-family="sans-serif" font-size="13" lengthAdjust="spacing" textLength="101" x="200" y="138.417">getAgenciesList()</text><polygon fill="#181818" points="175,169.625,165,173.625,175,177.625,171,173.625" style="stroke:#181818;stroke-width:1.0;"/><line style="stroke:#181818;stroke-width:1.0;" x1="169" x2="328.5" y1="173.625" y2="173.625"/><text fill="#000000" font-family="sans-serif" font-size="13" font-weight="bold" lengthAdjust="spacing" textLength="25" x="181" y="168.7686">20.2</text><text fill="#000000" font-family="sans-serif" font-size="13" lengthAdjust="spacing" textLength="73" x="210" y="168.7686">agenciesList</text><polygon fill="#181818" points="469.5,199.9766,479.5,203.9766,469.5,207.9766,473.5,203.9766" style="stroke:#181818;stroke-width:1.0;"/><line style="stroke:#181818;stroke-width:1.0;" x1="164" x2="475.5" y1="203.9766" y2="203.9766"/><text fill="#000000" font-family="sans-serif" font-size="13" font-weight="bold" lengthAdjust="spacing" textLength="25" x="171" y="199.1201">20.3</text><text fill="#000000" font-family="sans-serif" font-size="13" lengthAdjust="spacing" textLength="245" x="200" y="199.1201">toNetworkDto(listOfAllDeals, agenciesList)</text><polygon fill="#181818" points="1460.5,230.3281,1470.5,234.3281,1460.5,238.3281,1464.5,234.3281" style="stroke:#181818;stroke-width:1.0;"/><line style="stroke:#181818;stroke-width:1.0;" x1="491.5" x2="1466.5" y1="234.3281" y2="234.3281"/><text fill="#000000" font-family="sans-serif" font-size="13" font-weight="bold" lengthAdjust="spacing" textLength="25" x="498.5" y="229.4717">20.4</text><text fill="#000000" font-family="sans-serif" font-size="13" lengthAdjust="spacing" textLength="158" x="527.5" y="229.4717">listOfAllDealsDto = create()</text><rect fill="#E3E3E3" height="49.2188" rx="2.5" ry="2.5" style="stroke:#181818;stroke-width:0.5;" width="173" x="1472.5" y="211.9766"/><text fill="#000000" font-family="sans-serif" font-size="14" lengthAdjust="spacing" textLength="138" x="1490" y="233.5098">announcementListDto</text><text fill="#000000" font-family="sans-serif" font-size="14" lengthAdjust="spacing" textLength="159" x="1479.5" y="251.1191">:List&lt;AnnouncementDto&gt;</text><path d="M376,279.1953 L449,279.1953 L449,287.5469 L439,297.5469 L376,297.5469 L376,279.1953 " fill="#EEEEEE" style="stroke:#000000;stroke-width:1.5;"/><rect fill="none" height="1204.4688" style="stroke:#000000;stroke-width:1.5;" width="1424.5" x="376" y="279.1953"/><text fill="#000000" font-family="sans-serif" font-size="13" font-weight="bold" lengthAdjust="spacing" textLength="28" x="391" y="293.6904">loop</text><text fill="#000000" font-family="sans-serif" font-size="11" font-weight="bold" lengthAdjust="spacing" textLength="132" x="464" y="292.6143">[for all announcements]</text><polygon fill="#181818" points="933.5,315.8984,943.5,319.8984,933.5,323.8984,937.5,319.8984" style="stroke:#181818;stroke-width:1.0;"/><line style="stroke:#181818;stroke-width:1.0;" x1="491.5" x2="939.5" y1="319.8984" y2="319.8984"/><text fill="#000000" font-family="sans-serif" font-size="13" font-weight="bold" lengthAdjust="spacing" textLength="25" x="498.5" y="315.042">20.5</text><text fill="#000000" font-family="sans-serif" font-size="13" lengthAdjust="spacing" textLength="130" x="527.5" y="315.042">getAnnouncement(idx)</text><polygon fill="#181818" points="502.5,346.25,492.5,350.25,502.5,354.25,498.5,350.25" style="stroke:#181818;stroke-width:1.0;"/><line style="stroke:#181818;stroke-width:1.0;stroke-dasharray:2.0,2.0;" x1="496.5" x2="949.5" y1="350.25" y2="350.25"/><text fill="#000000" font-family="sans-serif" font-size="13" font-weight="bold" lengthAdjust="spacing" textLength="25" x="508.5" y="345.3936">20.6</text><text fill="#000000" font-family="sans-serif" font-size="13" lengthAdjust="spacing" textLength="85" x="537.5" y="345.3936">announcement</text><polygon fill="#181818" points="1067.5,376.6016,1077.5,380.6016,1067.5,384.6016,1071.5,380.6016" style="stroke:#181818;stroke-width:1.0;"/><line style="stroke:#181818;stroke-width:1.0;" x1="491.5" x2="1073.5" y1="380.6016" y2="380.6016"/><text fill="#000000" font-family="sans-serif" font-size="13" font-weight="bold" lengthAdjust="spacing" textLength="25" x="498.5" y="375.7451">20.7</text><text fill="#000000" font-family="sans-serif" font-size="13" lengthAdjust="spacing" textLength="79" x="527.5" y="375.7451">getSaleDate()</text><polygon fill="#181818" points="502.5,406.9531,492.5,410.9531,502.5,414.9531,498.5,410.9531" style="stroke:#181818;stroke-width:1.0;"/><line style="stroke:#181818;stroke-width:1.0;stroke-dasharray:2.0,2.0;" x1="496.5" x2="1083.5" y1="410.9531" y2="410.9531"/><text fill="#000000" font-family="sans-serif" font-size="13" font-weight="bold" lengthAdjust="spacing" textLength="25" x="508.5" y="406.0967">20.8</text><text fill="#000000" font-family="sans-serif" font-size="13" lengthAdjust="spacing" textLength="51" x="537.5" y="406.0967">saleDate</text><polygon fill="#181818" points="1067.5,437.3047,1077.5,441.3047,1067.5,445.3047,1071.5,441.3047" style="stroke:#181818;stroke-width:1.0;"/><line style="stroke:#181818;stroke-width:1.0;" x1="491.5" x2="1073.5" y1="441.3047" y2="441.3047"/><text fill="#000000" font-family="sans-serif" font-size="13" font-weight="bold" lengthAdjust="spacing" textLength="25" x="498.5" y="436.4482">20.9</text><text fill="#000000" font-family="sans-serif" font-size="13" lengthAdjust="spacing" textLength="36" x="527.5" y="436.4482">getId()</text><polygon fill="#181818" points="502.5,467.6563,492.5,471.6563,502.5,475.6563,498.5,471.6563" style="stroke:#181818;stroke-width:1.0;"/><line style="stroke:#181818;stroke-width:1.0;stroke-dasharray:2.0,2.0;" x1="496.5" x2="1083.5" y1="471.6563" y2="471.6563"/><text fill="#000000" font-family="sans-serif" font-size="13" font-weight="bold" lengthAdjust="spacing" textLength="32" x="508.5" y="466.7998">20.10</text><text fill="#000000" font-family="sans-serif" font-size="13" lengthAdjust="spacing" textLength="95" x="544.5" y="466.7998">announcementId</text><polygon fill="#181818" points="1067.5,498.0078,1077.5,502.0078,1067.5,506.0078,1071.5,502.0078" style="stroke:#181818;stroke-width:1.0;"/><line style="stroke:#181818;stroke-width:1.0;" x1="491.5" x2="1073.5" y1="502.0078" y2="502.0078"/><text fill="#000000" font-family="sans-serif" font-size="13" font-weight="bold" lengthAdjust="spacing" textLength="32" x="498.5" y="497.1514">20.11</text><text fill="#000000" font-family="sans-serif" font-size="13" lengthAdjust="spacing" textLength="101" x="534.5" y="497.1514">getRequestDate()</text><polygon fill="#181818" points="502.5,528.3594,492.5,532.3594,502.5,536.3594,498.5,532.3594" style="stroke:#181818;stroke-width:1.0;"/><line style="stroke:#181818;stroke-width:1.0;stroke-dasharray:2.0,2.0;" x1="496.5" x2="1083.5" y1="532.3594" y2="532.3594"/><text fill="#000000" font-family="sans-serif" font-size="13" font-weight="bold" lengthAdjust="spacing" textLength="32" x="508.5" y="527.5029">20.12</text><text fill="#000000" font-family="sans-serif" font-size="13" lengthAdjust="spacing" textLength="70" x="544.5" y="527.5029">requestDate</text><polygon fill="#181818" points="1067.5,583.7109,1077.5,587.7109,1067.5,591.7109,1071.5,587.7109" style="stroke:#181818;stroke-width:1.0;"/><line style="stroke:#181818;stroke-width:1.0;" x1="491.5" x2="1073.5" y1="587.7109" y2="587.7109"/><text fill="#000000" font-family="sans-serif" font-size="13" font-weight="bold" lengthAdjust="spacing" textLength="32" x="498.5" y="582.8545">20.13</text><text fill="#000000" font-family="sans-serif" font-size="13" lengthAdjust="spacing" textLength="118" x="534.5" y="582.8545">getCommissionInfo()</text><polygon fill="#181818" points="1227.5,614.0625,1237.5,618.0625,1227.5,622.0625,1231.5,618.0625" style="stroke:#181818;stroke-width:1.0;"/><line style="stroke:#181818;stroke-width:1.0;" x1="1089.5" x2="1233.5" y1="618.0625" y2="618.0625"/><text fill="#000000" font-family="sans-serif" font-size="13" font-weight="bold" lengthAdjust="spacing" textLength="32" x="1096.5" y="613.2061">20.14</text><text fill="#000000" font-family="sans-serif" font-size="13" lengthAdjust="spacing" textLength="53" x="1132.5" y="613.2061">toString()</text><polygon fill="#181818" points="1100.5,644.4141,1090.5,648.4141,1100.5,652.4141,1096.5,648.4141" style="stroke:#181818;stroke-width:1.0;"/><line style="stroke:#181818;stroke-width:1.0;stroke-dasharray:2.0,2.0;" x1="1094.5" x2="1243.5" y1="648.4141" y2="648.4141"/><text fill="#000000" font-family="sans-serif" font-size="13" font-weight="bold" lengthAdjust="spacing" textLength="32" x="1106.5" y="643.5576">20.15</text><text fill="#000000" font-family="sans-serif" font-size="13" lengthAdjust="spacing" textLength="90" x="1142.5" y="643.5576">commissionInfo</text><polygon fill="#181818" points="502.5,674.7656,492.5,678.7656,502.5,682.7656,498.5,678.7656" style="stroke:#181818;stroke-width:1.0;"/><line style="stroke:#181818;stroke-width:1.0;stroke-dasharray:2.0,2.0;" x1="496.5" x2="1083.5" y1="678.7656" y2="678.7656"/><text fill="#000000" font-family="sans-serif" font-size="13" font-weight="bold" lengthAdjust="spacing" textLength="32" x="508.5" y="673.9092">20.16</text><text fill="#000000" font-family="sans-serif" font-size="13" lengthAdjust="spacing" textLength="90" x="544.5" y="673.9092">commissionInfo</text><polygon fill="#181818" points="1067.5,730.1172,1077.5,734.1172,1067.5,738.1172,1071.5,734.1172" style="stroke:#181818;stroke-width:1.0;"/><line style="stroke:#181818;stroke-width:1.0;" x1="491.5" x2="1073.5" y1="734.1172" y2="734.1172"/><text fill="#000000" font-family="sans-serif" font-size="13" font-weight="bold" lengthAdjust="spacing" textLength="32" x="498.5" y="729.2607">20.17</text><text fill="#000000" font-family="sans-serif" font-size="13" lengthAdjust="spacing" textLength="97" x="534.5" y="729.2607">getSaleAmount()</text><polygon fill="#181818" points="502.5,760.4688,492.5,764.4688,502.5,768.4688,498.5,764.4688" style="stroke:#181818;stroke-width:1.0;"/><line style="stroke:#181818;stroke-width:1.0;stroke-dasharray:2.0,2.0;" x1="496.5" x2="1083.5" y1="764.4688" y2="764.4688"/><text fill="#000000" font-family="sans-serif" font-size="13" font-weight="bold" lengthAdjust="spacing" textLength="32" x="508.5" y="759.6123">20.18</text><text fill="#000000" font-family="sans-serif" font-size="13" lengthAdjust="spacing" textLength="69" x="544.5" y="759.6123">saleAmount</text><polygon fill="#181818" points="1067.5,815.8203,1077.5,819.8203,1067.5,823.8203,1071.5,819.8203" style="stroke:#181818;stroke-width:1.0;"/><line style="stroke:#181818;stroke-width:1.0;" x1="491.5" x2="1073.5" y1="819.8203" y2="819.8203"/><text fill="#000000" font-family="sans-serif" font-size="13" font-weight="bold" lengthAdjust="spacing" textLength="32" x="498.5" y="814.9639">20.19</text><text fill="#000000" font-family="sans-serif" font-size="13" lengthAdjust="spacing" textLength="94" x="534.5" y="814.9639">getRequestInfo()</text><polygon fill="#181818" points="1320,846.1719,1330,850.1719,1320,854.1719,1324,850.1719" style="stroke:#181818;stroke-width:1.0;"/><line style="stroke:#181818;stroke-width:1.0;" x1="1089.5" x2="1326" y1="850.1719" y2="850.1719"/><text fill="#000000" font-family="sans-serif" font-size="13" font-weight="bold" lengthAdjust="spacing" textLength="32" x="1096.5" y="845.3154">20.20</text><text fill="#000000" font-family="sans-serif" font-size="13" lengthAdjust="spacing" textLength="53" x="1132.5" y="845.3154">toString()</text><polygon fill="#181818" points="1100.5,876.5234,1090.5,880.5234,1100.5,884.5234,1096.5,880.5234" style="stroke:#181818;stroke-width:1.0;"/><line style="stroke:#181818;stroke-width:1.0;stroke-dasharray:2.0,2.0;" x1="1094.5" x2="1336" y1="880.5234" y2="880.5234"/><text fill="#000000" font-family="sans-serif" font-size="13" font-weight="bold" lengthAdjust="spacing" textLength="32" x="1106.5" y="875.667">20.21</text><text fill="#000000" font-family="sans-serif" font-size="13" lengthAdjust="spacing" textLength="63" x="1142.5" y="875.667">requestInfo</text><polygon fill="#181818" points="502.5,906.875,492.5,910.875,502.5,914.875,498.5,910.875" style="stroke:#181818;stroke-width:1.0;"/><line style="stroke:#181818;stroke-width:1.0;stroke-dasharray:2.0,2.0;" x1="496.5" x2="1083.5" y1="910.875" y2="910.875"/><text fill="#000000" font-family="sans-serif" font-size="13" font-weight="bold" lengthAdjust="spacing" textLength="32" x="508.5" y="906.0186">20.22</text><text fill="#000000" font-family="sans-serif" font-size="13" lengthAdjust="spacing" textLength="63" x="544.5" y="906.0186">requestInfo</text><polygon fill="#181818" points="1067.5,937.2266,1077.5,941.2266,1067.5,945.2266,1071.5,941.2266" style="stroke:#181818;stroke-width:1.0;"/><line style="stroke:#181818;stroke-width:1.0;" x1="491.5" x2="1073.5" y1="941.2266" y2="941.2266"/><text fill="#000000" font-family="sans-serif" font-size="13" font-weight="bold" lengthAdjust="spacing" textLength="32" x="498.5" y="936.3701">20.23</text><text fill="#000000" font-family="sans-serif" font-size="13" lengthAdjust="spacing" textLength="80" x="534.5" y="936.3701">getAgencyId()</text><polygon fill="#181818" points="1405.5,967.5781,1415.5,971.5781,1405.5,975.5781,1409.5,971.5781" style="stroke:#181818;stroke-width:1.0;"/><line style="stroke:#181818;stroke-width:1.0;" x1="1089.5" x2="1411.5" y1="971.5781" y2="971.5781"/><text fill="#000000" font-family="sans-serif" font-size="13" font-weight="bold" lengthAdjust="spacing" textLength="32" x="1096.5" y="966.7217">20.24</text><text fill="#000000" font-family="sans-serif" font-size="13" lengthAdjust="spacing" textLength="80" x="1132.5" y="966.7217">getAgencyId()</text><polygon fill="#181818" points="1100.5,997.9297,1090.5,1001.9297,1100.5,1005.9297,1096.5,1001.9297" style="stroke:#181818;stroke-width:1.0;"/><line style="stroke:#181818;stroke-width:1.0;stroke-dasharray:2.0,2.0;" x1="1094.5" x2="1421.5" y1="1001.9297" y2="1001.9297"/><text fill="#000000" font-family="sans-serif" font-size="13" font-weight="bold" lengthAdjust="spacing" textLength="32" x="1106.5" y="997.0732">20.25</text><text fill="#000000" font-family="sans-serif" font-size="13" lengthAdjust="spacing" textLength="52" x="1142.5" y="997.0732">agencyId</text><polygon fill="#181818" points="502.5,1028.2813,492.5,1032.2813,502.5,1036.2813,498.5,1032.2813" style="stroke:#181818;stroke-width:1.0;"/><line style="stroke:#181818;stroke-width:1.0;stroke-dasharray:2.0,2.0;" x1="496.5" x2="1083.5" y1="1032.2813" y2="1032.2813"/><text fill="#000000" font-family="sans-serif" font-size="13" font-weight="bold" lengthAdjust="spacing" textLength="32" x="508.5" y="1027.4248">20.26</text><text fill="#000000" font-family="sans-serif" font-size="13" lengthAdjust="spacing" textLength="52" x="544.5" y="1027.4248">agencyId</text><line style="stroke:#181818;stroke-width:1.0;" x1="491.5" x2="538.5" y1="1082.6328" y2="1082.6328"/><line style="stroke:#181818;stroke-width:1.0;" x1="538.5" x2="538.5" y1="1082.6328" y2="1095.6328"/><line style="stroke:#181818;stroke-width:1.0;" x1="497.5" x2="538.5" y1="1095.6328" y2="1095.6328"/><polygon fill="#181818" points="507.5,1091.6328,497.5,1095.6328,507.5,1099.6328,503.5,1095.6328" style="stroke:#181818;stroke-width:1.0;"/><text fill="#000000" font-family="sans-serif" font-size="13" font-weight="bold" lengthAdjust="spacing" textLength="32" x="503.5" y="1077.7764">20.27</text><text fill="#000000" font-family="sans-serif" font-size="13" lengthAdjust="spacing" textLength="294" x="539.5" y="1077.7764">getAgencyDescriptionById(agencyId, agenciesList)</text><path d="M386,1115.6328 L459,1115.6328 L459,1123.9844 L449,1133.9844 L386,1133.9844 L386,1115.6328 " fill="#EEEEEE" style="stroke:#000000;stroke-width:1.5;"/><rect fill="none" height="172.1094" style="stroke:#000000;stroke-width:1.5;" width="507" x="386" y="1115.6328"/><text fill="#000000" font-family="sans-serif" font-size="13" font-weight="bold" lengthAdjust="spacing" textLength="28" x="401" y="1130.1279">loop</text><text fill="#000000" font-family="sans-serif" font-size="11" font-weight="bold" lengthAdjust="spacing" textLength="92" x="474" y="1129.0518">[for all agencies]</text><polygon fill="#181818" points="823.5,1152.3359,833.5,1156.3359,823.5,1160.3359,827.5,1156.3359" style="stroke:#181818;stroke-width:1.0;"/><line style="stroke:#181818;stroke-width:1.0;" x1="496.5" x2="829.5" y1="1156.3359" y2="1156.3359"/><text fill="#000000" font-family="sans-serif" font-size="13" font-weight="bold" lengthAdjust="spacing" textLength="32" x="503.5" y="1151.4795">20.28</text><text fill="#000000" font-family="sans-serif" font-size="13" lengthAdjust="spacing" textLength="39" x="539.5" y="1151.4795">hasId()</text><polygon fill="#181818" points="507.5,1182.6875,497.5,1186.6875,507.5,1190.6875,503.5,1186.6875" style="stroke:#181818;stroke-width:1.0;"/><line style="stroke:#181818;stroke-width:1.0;stroke-dasharray:2.0,2.0;" x1="501.5" x2="839.5" y1="1186.6875" y2="1186.6875"/><text fill="#000000" font-family="sans-serif" font-size="13" font-weight="bold" lengthAdjust="spacing" textLength="32" x="513.5" y="1181.8311">20.29</text><text fill="#000000" font-family="sans-serif" font-size="13" lengthAdjust="spacing" textLength="53" x="549.5" y="1181.8311">true/false</text><path d="M396,1201.6875 L461,1201.6875 L461,1210.0391 L451,1220.0391 L396,1220.0391 L396,1201.6875 " fill="#EEEEEE" style="stroke:#000000;stroke-width:1.5;"/><rect fill="none" height="79.0547" style="stroke:#000000;stroke-width:1.5;" width="487" x="396" y="1201.6875"/><text fill="#000000" font-family="sans-serif" font-size="13" font-weight="bold" lengthAdjust="spacing" textLength="20" x="411" y="1216.1826">opt</text><text fill="#000000" font-family="sans-serif" font-size="11" font-weight="bold" lengthAdjust="spacing" textLength="31" x="476" y="1215.1064">[true]</text><polygon fill="#181818" points="823.5,1238.3906,833.5,1242.3906,823.5,1246.3906,827.5,1242.3906" style="stroke:#181818;stroke-width:1.0;"/><line style="stroke:#181818;stroke-width:1.0;" x1="496.5" x2="829.5" y1="1242.3906" y2="1242.3906"/><text fill="#000000" font-family="sans-serif" font-size="13" font-weight="bold" lengthAdjust="spacing" textLength="32" x="503.5" y="1237.5342">20.30</text><text fill="#000000" font-family="sans-serif" font-size="13" lengthAdjust="spacing" textLength="91" x="539.5" y="1237.5342">getDescription()</text><polygon fill="#181818" points="507.5,1268.7422,497.5,1272.7422,507.5,1276.7422,503.5,1272.7422" style="stroke:#181818;stroke-width:1.0;"/><line style="stroke:#181818;stroke-width:1.0;stroke-dasharray:2.0,2.0;" x1="501.5" x2="839.5" y1="1272.7422" y2="1272.7422"/><text fill="#000000" font-family="sans-serif" font-size="13" font-weight="bold" lengthAdjust="spacing" textLength="32" x="513.5" y="1267.8857">20.31</text><text fill="#000000" font-family="sans-serif" font-size="13" lengthAdjust="spacing" textLength="107" x="549.5" y="1267.8857">agencyDescription</text><line style="stroke:#181818;stroke-width:1.0;stroke-dasharray:2.0,2.0;" x1="496.5" x2="538.5" y1="1322.0938" y2="1322.0938"/><line style="stroke:#181818;stroke-width:1.0;stroke-dasharray:2.0,2.0;" x1="538.5" x2="538.5" y1="1322.0938" y2="1335.0938"/><line style="stroke:#181818;stroke-width:1.0;stroke-dasharray:2.0,2.0;" x1="491.5" x2="538.5" y1="1335.0938" y2="1335.0938"/><polygon fill="#181818" points="501.5,1331.0938,491.5,1335.0938,501.5,1339.0938,497.5,1335.0938" style="stroke:#181818;stroke-width:1.0;"/><text fill="#000000" font-family="sans-serif" font-size="13" font-weight="bold" lengthAdjust="spacing" textLength="32" x="503.5" y="1317.2373">20.32</text><text fill="#000000" font-family="sans-serif" font-size="13" lengthAdjust="spacing" textLength="107" x="539.5" y="1317.2373">agencyDescription</text><polygon fill="#181818" points="1643.5,1381.4453,1653.5,1385.4453,1643.5,1389.4453,1647.5,1385.4453" style="stroke:#181818;stroke-width:1.0;"/><line style="stroke:#181818;stroke-width:1.0;stroke-dasharray:2.0,2.0;" x1="491.5" x2="1649.5" y1="1385.4453" y2="1385.4453"/><text fill="#000000" font-family="sans-serif" font-size="13" font-weight="bold" lengthAdjust="spacing" textLength="32" x="498.5" y="1380.5889">20.33</text><text fill="#000000" font-family="sans-serif" font-size="13" lengthAdjust="spacing" textLength="697" x="534.5" y="1380.5889">create(announcementId, requestInfo, saleDate, saleAmount, requestDate, commissionInfo, agencyDescription, agencyId)</text><rect fill="#E3E3E3" height="49.2188" rx="2.5" ry="2.5" style="stroke:#181818;stroke-width:0.5;" width="135" x="1655.5" y="1363.0938"/><text fill="#000000" font-family="sans-serif" font-size="14" lengthAdjust="spacing" textLength="116" x="1665" y="1384.627">announcementDto</text><text fill="#000000" font-family="sans-serif" font-size="14" lengthAdjust="spacing" textLength="121" x="1662.5" y="1402.2363">:AnnouncementDto</text><polygon fill="#181818" points="1542,1441.6641,1552,1445.6641,1542,1449.6641,1546,1445.6641" style="stroke:#181818;stroke-width:1.0;"/><line style="stroke:#181818;stroke-width:1.0;" x1="491.5" x2="1548" y1="1445.6641" y2="1445.6641"/><text fill="#000000" font-family="sans-serif" font-size="13" font-weight="bold" lengthAdjust="spacing" textLength="32" x="498.5" y="1440.8076">20.34</text><text fill="#000000" font-family="sans-serif" font-size="13" lengthAdjust="spacing" textLength="134" x="534.5" y="1440.8076">add(announcementDto)</text><polygon fill="#181818" points="175,1509.0156,165,1513.0156,175,1517.0156,171,1513.0156" style="stroke:#181818;stroke-width:1.0;"/><line style="stroke:#181818;stroke-width:1.0;" x1="169" x2="485.5" y1="1513.0156" y2="1513.0156"/><text fill="#000000" font-family="sans-serif" font-size="13" font-weight="bold" lengthAdjust="spacing" textLength="32" x="181" y="1508.1592">20.35</text><text fill="#000000" font-family="sans-serif" font-size="13" lengthAdjust="spacing" textLength="98" x="217" y="1508.1592">listOfAllDealsDto</text><polygon fill="#181818" points="11,1546.3672,1,1550.3672,11,1554.3672,7,1550.3672" style="stroke:#181818;stroke-width:1.0;"/><line style="stroke:#181818;stroke-width:1.0;stroke-dasharray:2.0,2.0;" x1="5" x2="158" y1="1550.3672" y2="1550.3672"/><text fill="#000000" font-family="sans-serif" font-size="13" font-weight="bold" lengthAdjust="spacing" textLength="14" x="17" y="1545.5107">21</text><text fill="#000000" font-family="sans-serif" font-size="13" lengthAdjust="spacing" textLength="98" x="35" y="1545.5107">listOfAllDealsDto</text><!--SRC=[hLTDRwCm4BtpAwnUDgd8VXshRgKiGLMaV7IJzh3INbnm4bJ0h77QHkgFNziOOnj3sEvo8cRcpVERyNXIFYLv0GdCG8Pp71q8pX2Wv8YyKdqfOFG4zsXBJoa214KKvljKDoWFCCOlIRu7EvYMoFC-798OWHt6z16_Uio89b5Im9o2Ywj5Kj8POdOhH5ymUGfmJWbEKqGk02n1SBzPc1uiT1wTDgZ0PK8nEVtAhwRMal2q5wsuqpp7npn26Shf4XQ5ZBUStjs56rT45QT2lmqi8msFxucRMqkLusgrVbW5uMA-lUz6iBmDJzChmbcMb6M2S-OJg1-LUElbShxTpjShquUWtqSaA6wgDs6z2NyyX3Ofb1KfFY74R4FvAep3vTrY_JCC-qMOKSmS-TkrlXssV2DGk0Yp-tKtI0LW-Ker0kxfmIF5-J5xH0Hy_UnvW3sJ6r4su0fGpCn7AOk_tatJLDJPk3A24KsU8KLLXNbxWey5OCNtZ0W5d35p1YA2iDQZVFnIBV971681xMfZmVU8YjK4bHnlD5PEAdQhHfL92w_P5DH0bNsCpeFMNAiQ5_B8GzTMoJV2EAZBWw8-I506BvDwUSaYcA0i3FW68e8Om6ZS-AOO5wmz403J5EZfBrtu-WcICcikeoH-TIcj7plrMIYjmqrqUNGcJg6Tc6sY5SajJD6isdWdEpSparKfSVeOdMSpZuVnS7FGbPd7_yP4jg3XqhWfaGQcby_RszjPIaqRdUSx_9w4tMYzLnoqBINiGjIWp1xKD6h3G9pQ1cXYCeqCceQZjdCNjbl23hmk5GTL_3HZXKB_HyrNIFsrDYIvijxUdrbvJmv8QtsZjd9QGrW99Gsrhcmw8NjFnDbSdbMikb26TWnRhdfIwCGoyDHSqT9CuLYYGOdOfLWRiQEdsJZ3kuV2K1kSeJ8YIK7PMVhETrk3__MrQbwDqbSJHylPRS0O761fYjliWKsipJAtDhRFX_nFrRpkKj7qnWMj_XMOARB9C3aq8QoKTp5pieEsggQzHLIjeppcN1jqli0bDUFLl8T5r8B9RBcgGXHf8EQWgthaCQzDNp-XlhhNVQtR-VgrvbiDsczpz5KLZticCxwxE1vPSxQZ6ElntB7p-bEFiarSERYsXi4UIJsE9uRozW0kn-_hoQGRsRDlGJxb_m40]--></g></svg>