<?xml version="1.0" encoding="UTF-8" standalone="no"?><svg xmlns="http://www.w3.org/2000/svg" xmlns:xlink="http://www.w3.org/1999/xlink" contentStyleType="text/css" height="1857px" preserveAspectRatio="none" style="width:2193px;height:1857px;background:#FFFFFF;" version="1.1" viewBox="0 0 2193 1857" width="2193px" zoomAndPan="magnify"><defs/><g><text fill="#000000" font-family="sans-serif" font-size="14" font-weight="bold" lengthAdjust="spacing" textLength="221" x="987.75" y="29.5332">Sequence Diagram (SD) - US017</text><rect fill="#FFFFFF" height="1635.2813" style="stroke:#181818;stroke-width:1.0;" width="10" x="73" y="131.2188"/><rect fill="#FFFFFF" height="909.75" style="stroke:#181818;stroke-width:1.0;" width="10" x="515" y="153.5703"/><rect fill="#FFFFFF" height="30.3516" style="stroke:#181818;stroke-width:1.0;" width="10" x="515" y="1093.6719"/><rect fill="#FFFFFF" height="611.125" style="stroke:#181818;stroke-width:1.0;" width="10" x="515" y="1154.375"/><rect fill="#FFFFFF" height="781.0859" style="stroke:#181818;stroke-width:1.0;" width="10" x="850" y="226.5313"/><rect fill="#FFFFFF" height="87.7969" style="stroke:#181818;stroke-width:1.0;" width="10" x="855" y="882.4688"/><rect fill="#FFFFFF" height="489.0703" style="stroke:#181818;stroke-width:1.0;" width="10" x="850" y="1214.7266"/><rect fill="#FFFFFF" height="238.8672" style="stroke:#181818;stroke-width:1.0;" width="10" x="855" y="1269.4297"/><rect fill="#FFFFFF" height="87.7969" style="stroke:#181818;stroke-width:1.0;" width="10" x="855" y="1578.6484"/><rect fill="#FFFFFF" height="30.3516" style="stroke:#181818;stroke-width:1.0;" width="10" x="1109" y="256.8828"/><rect fill="#FFFFFF" height="30.3516" style="stroke:#181818;stroke-width:1.0;" width="10" x="1216" y="317.5859"/><rect fill="#FFFFFF" height="440.8281" style="stroke:#181818;stroke-width:1.0;" width="10" x="1341" y="378.2891"/><rect fill="#FFFFFF" height="184.1094" style="stroke:#181818;stroke-width:1.0;" width="10" x="1555" y="476.6016"/><rect fill="#FFFFFF" height="123.4063" style="stroke:#181818;stroke-width:1.0;" width="10" x="1682" y="506.9531"/><rect fill="#FFFFFF" height="30.3516" style="stroke:#181818;stroke-width:1.0;" width="10" x="1682" y="758.4141"/><rect fill="#FFFFFF" height="98.7578" style="stroke:#181818;stroke-width:1.0;" width="10" x="1820.5" y="1373.1875"/><rect fill="#FFFFFF" height="30.3516" style="stroke:#181818;stroke-width:1.0;" width="10" x="1948" y="562.6563"/><rect fill="#FFFFFF" height="30" style="stroke:#181818;stroke-width:1.0;" width="10" x="2093.5" y="691.0625"/><rect fill="none" height="293.1641" style="stroke:#000000;stroke-width:1.5;" width="918" x="1269.5" y="435.8984"/><rect fill="none" height="79.0547" style="stroke:#000000;stroke-width:1.5;" width="410" x="1609.5" y="521.9531"/><rect fill="none" height="735.8828" style="stroke:#000000;stroke-width:1.5;" width="1886.5" x="10" y="1022.6172"/><line style="stroke:#181818;stroke-width:0.5;stroke-dasharray:5.0,5.0;" x1="78" x2="78" y1="121.2188" y2="1775.5"/><line style="stroke:#181818;stroke-width:0.5;stroke-dasharray:5.0,5.0;" x1="520" x2="520" y1="121.2188" y2="1775.5"/><line style="stroke:#181818;stroke-width:0.5;stroke-dasharray:5.0,5.0;" x1="855" x2="855" y1="192.875" y2="1775.5"/><line style="stroke:#181818;stroke-width:0.5;stroke-dasharray:5.0,5.0;" x1="1113.5" x2="1113.5" y1="121.2188" y2="1775.5"/><line style="stroke:#181818;stroke-width:0.5;stroke-dasharray:5.0,5.0;" x1="1220.5" x2="1220.5" y1="121.2188" y2="1775.5"/><line style="stroke:#181818;stroke-width:0.5;stroke-dasharray:5.0,5.0;" x1="1345.5" x2="1345.5" y1="121.2188" y2="1775.5"/><line style="stroke:#181818;stroke-width:0.5;stroke-dasharray:5.0,5.0;" x1="1559.5" x2="1559.5" y1="121.2188" y2="1775.5"/><line style="stroke:#181818;stroke-width:0.5;stroke-dasharray:5.0,5.0;" x1="1686.5" x2="1686.5" y1="121.2188" y2="1775.5"/><line style="stroke:#181818;stroke-width:0.5;stroke-dasharray:5.0,5.0;" x1="1825.5" x2="1825.5" y1="121.2188" y2="1775.5"/><line style="stroke:#181818;stroke-width:0.5;stroke-dasharray:5.0,5.0;" x1="1952.5" x2="1952.5" y1="121.2188" y2="1775.5"/><line style="stroke:#181818;stroke-width:0.5;stroke-dasharray:5.0,5.0;" x1="2098.5" x2="2098.5" y1="417.5938" y2="1775.5"/><text fill="#000000" font-family="sans-serif" font-size="14" lengthAdjust="spacing" textLength="110" x="20" y="118.1426">Network Manager</text><ellipse cx="78" cy="52.1094" fill="#E3E3E3" rx="8" ry="8" style="stroke:#181818;stroke-width:0.5;"/><path d="M78,60.1094 L78,87.1094 M65,68.1094 L91,68.1094 M78,87.1094 L65,102.1094 M78,87.1094 L91,102.1094 " fill="none" style="stroke:#181818;stroke-width:0.5;"/><text fill="#000000" font-family="sans-serif" font-size="14" lengthAdjust="spacing" textLength="110" x="20" y="1789.0332">Network Manager</text><ellipse cx="78" cy="1800.6094" fill="#E3E3E3" rx="8" ry="8" style="stroke:#181818;stroke-width:0.5;"/><path d="M78,1808.6094 L78,1835.6094 M65,1816.6094 L91,1816.6094 M78,1835.6094 L65,1850.6094 M78,1835.6094 L91,1850.6094 " fill="none" style="stroke:#181818;stroke-width:0.5;"/><rect fill="#E3E3E3" height="31.6094" rx="2.5" ry="2.5" style="stroke:#181818;stroke-width:0.5;" width="138" x="451" y="88.6094"/><text fill="#000000" font-family="sans-serif" font-size="14" lengthAdjust="spacing" textLength="124" x="458" y="110.1426">:ListDealsNetworkUI</text><rect fill="#E3E3E3" height="31.6094" rx="2.5" ry="2.5" style="stroke:#181818;stroke-width:0.5;" width="138" x="451" y="1774.5"/><text fill="#000000" font-family="sans-serif" font-size="14" lengthAdjust="spacing" textLength="124" x="458" y="1796.0332">:ListDealsNetworkUI</text><rect fill="#E3E3E3" height="31.6094" rx="2.5" ry="2.5" style="stroke:#181818;stroke-width:0.5;" width="188" x="761" y="1774.5"/><text fill="#000000" font-family="sans-serif" font-size="14" lengthAdjust="spacing" textLength="174" x="768" y="1796.0332">:ListDealsNetworkController</text><rect fill="#E3E3E3" height="31.6094" rx="2.5" ry="2.5" style="stroke:#181818;stroke-width:0.5;" width="97" x="1065.5" y="88.6094"/><text fill="#000000" font-family="sans-serif" font-size="14" lengthAdjust="spacing" textLength="83" x="1072.5" y="110.1426">:Repositories</text><rect fill="#E3E3E3" height="31.6094" rx="2.5" ry="2.5" style="stroke:#181818;stroke-width:0.5;" width="97" x="1065.5" y="1774.5"/><text fill="#000000" font-family="sans-serif" font-size="14" lengthAdjust="spacing" textLength="83" x="1072.5" y="1796.0332">:Repositories</text><rect fill="#E3E3E3" height="49.2188" rx="2.5" ry="2.5" style="stroke:#181818;stroke-width:0.5;" width="97" x="1172.5" y="71"/><text fill="#000000" font-family="sans-serif" font-size="14" lengthAdjust="spacing" textLength="74" x="1184" y="92.5332">repositories</text><text fill="#000000" font-family="sans-serif" font-size="14" lengthAdjust="spacing" textLength="83" x="1179.5" y="110.1426">:Repositories</text><rect fill="#E3E3E3" height="49.2188" rx="2.5" ry="2.5" style="stroke:#181818;stroke-width:0.5;" width="97" x="1172.5" y="1774.5"/><text fill="#000000" font-family="sans-serif" font-size="14" lengthAdjust="spacing" textLength="74" x="1184" y="1796.0332">repositories</text><text fill="#000000" font-family="sans-serif" font-size="14" lengthAdjust="spacing" textLength="83" x="1179.5" y="1813.6426">:Repositories</text><rect fill="#E3E3E3" height="49.2188" rx="2.5" ry="2.5" style="stroke:#181818;stroke-width:0.5;" width="133" x="1279.5" y="71"/><text fill="#000000" font-family="sans-serif" font-size="14" lengthAdjust="spacing" textLength="114" x="1289" y="92.5332">agencyRepository</text><text fill="#000000" font-family="sans-serif" font-size="14" lengthAdjust="spacing" textLength="119" x="1286.5" y="110.1426">:AgencyRepository</text><rect fill="#E3E3E3" height="49.2188" rx="2.5" ry="2.5" style="stroke:#181818;stroke-width:0.5;" width="133" x="1279.5" y="1774.5"/><text fill="#000000" font-family="sans-serif" font-size="14" lengthAdjust="spacing" textLength="114" x="1289" y="1796.0332">agencyRepository</text><text fill="#000000" font-family="sans-serif" font-size="14" lengthAdjust="spacing" textLength="119" x="1286.5" y="1813.6426">:AgencyRepository</text><rect fill="#E3E3E3" height="49.2188" rx="2.5" ry="2.5" style="stroke:#181818;stroke-width:0.5;" width="65" x="1527.5" y="71"/><text fill="#000000" font-family="sans-serif" font-size="14" lengthAdjust="spacing" textLength="46" x="1537" y="92.5332">agency</text><text fill="#000000" font-family="sans-serif" font-size="14" lengthAdjust="spacing" textLength="51" x="1534.5" y="110.1426">:Agency</text><rect fill="#E3E3E3" height="49.2188" rx="2.5" ry="2.5" style="stroke:#181818;stroke-width:0.5;" width="65" x="1527.5" y="1774.5"/><text fill="#000000" font-family="sans-serif" font-size="14" lengthAdjust="spacing" textLength="46" x="1537" y="1796.0332">agency</text><text fill="#000000" font-family="sans-serif" font-size="14" lengthAdjust="spacing" textLength="51" x="1534.5" y="1813.6426">:Agency</text><rect fill="#E3E3E3" height="49.2188" rx="2.5" ry="2.5" style="stroke:#181818;stroke-width:0.5;" width="135" x="1619.5" y="71"/><text fill="#000000" font-family="sans-serif" font-size="14" lengthAdjust="spacing" textLength="116" x="1629" y="92.5332">announcementList</text><text fill="#000000" font-family="sans-serif" font-size="14" lengthAdjust="spacing" textLength="121" x="1626.5" y="110.1426">:AnnouncementList</text><rect fill="#E3E3E3" height="49.2188" rx="2.5" ry="2.5" style="stroke:#181818;stroke-width:0.5;" width="135" x="1619.5" y="1774.5"/><text fill="#000000" font-family="sans-serif" font-size="14" lengthAdjust="spacing" textLength="116" x="1629" y="1796.0332">announcementList</text><text fill="#000000" font-family="sans-serif" font-size="14" lengthAdjust="spacing" textLength="121" x="1626.5" y="1813.6426">:AnnouncementList</text><rect fill="#E3E3E3" height="49.2188" rx="2.5" ry="2.5" style="stroke:#181818;stroke-width:0.5;" width="122" x="1764.5" y="71"/><text fill="#000000" font-family="sans-serif" font-size="14" font-weight="bold" lengthAdjust="spacing" textLength="79" x="1786" y="92.5332">«Interface»</text><text fill="#000000" font-family="sans-serif" font-size="14" lengthAdjust="spacing" textLength="108" x="1771.5" y="110.1426">:SortingAlgorithm</text><rect fill="#E3E3E3" height="49.2188" rx="2.5" ry="2.5" style="stroke:#181818;stroke-width:0.5;" width="122" x="1764.5" y="1774.5"/><text fill="#000000" font-family="sans-serif" font-size="14" font-weight="bold" lengthAdjust="spacing" textLength="79" x="1786" y="1796.0332">«Interface»</text><text fill="#000000" font-family="sans-serif" font-size="14" lengthAdjust="spacing" textLength="108" x="1771.5" y="1813.6426">:SortingAlgorithm</text><rect fill="#E3E3E3" height="49.2188" rx="2.5" ry="2.5" style="stroke:#181818;stroke-width:0.5;" width="113" x="1896.5" y="71"/><text fill="#000000" font-family="sans-serif" font-size="14" lengthAdjust="spacing" textLength="94" x="1906" y="92.5332">announcement</text><text fill="#000000" font-family="sans-serif" font-size="14" lengthAdjust="spacing" textLength="99" x="1903.5" y="110.1426">:Announcement</text><rect fill="#E3E3E3" height="49.2188" rx="2.5" ry="2.5" style="stroke:#181818;stroke-width:0.5;" width="113" x="1896.5" y="1774.5"/><text fill="#000000" font-family="sans-serif" font-size="14" lengthAdjust="spacing" textLength="94" x="1906" y="1796.0332">announcement</text><text fill="#000000" font-family="sans-serif" font-size="14" lengthAdjust="spacing" textLength="99" x="1903.5" y="1813.6426">:Announcement</text><rect fill="#E3E3E3" height="31.6094" rx="2.5" ry="2.5" style="stroke:#181818;stroke-width:0.5;" width="158" x="2019.5" y="1774.5"/><text fill="#000000" font-family="sans-serif" font-size="14" lengthAdjust="spacing" textLength="144" x="2026.5" y="1796.0332">:List&lt;Announcements&gt;</text><rect fill="#FFFFFF" height="1635.2813" style="stroke:#181818;stroke-width:1.0;" width="10" x="73" y="131.2188"/><rect fill="#FFFFFF" height="909.75" style="stroke:#181818;stroke-width:1.0;" width="10" x="515" y="153.5703"/><rect fill="#FFFFFF" height="30.3516" style="stroke:#181818;stroke-width:1.0;" width="10" x="515" y="1093.6719"/><rect fill="#FFFFFF" height="611.125" style="stroke:#181818;stroke-width:1.0;" width="10" x="515" y="1154.375"/><rect fill="#FFFFFF" height="781.0859" style="stroke:#181818;stroke-width:1.0;" width="10" x="850" y="226.5313"/><rect fill="#FFFFFF" height="87.7969" style="stroke:#181818;stroke-width:1.0;" width="10" x="855" y="882.4688"/><rect fill="#FFFFFF" height="489.0703" style="stroke:#181818;stroke-width:1.0;" width="10" x="850" y="1214.7266"/><rect fill="#FFFFFF" height="238.8672" style="stroke:#181818;stroke-width:1.0;" width="10" x="855" y="1269.4297"/><rect fill="#FFFFFF" height="87.7969" style="stroke:#181818;stroke-width:1.0;" width="10" x="855" y="1578.6484"/><rect fill="#FFFFFF" height="30.3516" style="stroke:#181818;stroke-width:1.0;" width="10" x="1109" y="256.8828"/><rect fill="#FFFFFF" height="30.3516" style="stroke:#181818;stroke-width:1.0;" width="10" x="1216" y="317.5859"/><rect fill="#FFFFFF" height="440.8281" style="stroke:#181818;stroke-width:1.0;" width="10" x="1341" y="378.2891"/><rect fill="#FFFFFF" height="184.1094" style="stroke:#181818;stroke-width:1.0;" width="10" x="1555" y="476.6016"/><rect fill="#FFFFFF" height="123.4063" style="stroke:#181818;stroke-width:1.0;" width="10" x="1682" y="506.9531"/><rect fill="#FFFFFF" height="30.3516" style="stroke:#181818;stroke-width:1.0;" width="10" x="1682" y="758.4141"/><rect fill="#FFFFFF" height="98.7578" style="stroke:#181818;stroke-width:1.0;" width="10" x="1820.5" y="1373.1875"/><rect fill="#FFFFFF" height="30.3516" style="stroke:#181818;stroke-width:1.0;" width="10" x="1948" y="562.6563"/><rect fill="#FFFFFF" height="30" style="stroke:#181818;stroke-width:1.0;" width="10" x="2093.5" y="691.0625"/><polygon fill="#181818" points="503,149.5703,513,153.5703,503,157.5703,507,153.5703" style="stroke:#181818;stroke-width:1.0;"/><line style="stroke:#181818;stroke-width:1.0;" x1="83" x2="509" y1="153.5703" y2="153.5703"/><text fill="#000000" font-family="sans-serif" font-size="13" font-weight="bold" lengthAdjust="spacing" textLength="7" x="90" y="148.7139">1</text><text fill="#000000" font-family="sans-serif" font-size="13" lengthAdjust="spacing" textLength="274" x="101" y="148.7139">asks to analyse the performance of the network</text><polygon fill="#181818" points="749,179.9219,759,183.9219,749,187.9219,753,183.9219" style="stroke:#181818;stroke-width:1.0;"/><line style="stroke:#181818;stroke-width:1.0;" x1="525" x2="755" y1="183.9219" y2="183.9219"/><text fill="#000000" font-family="sans-serif" font-size="13" font-weight="bold" lengthAdjust="spacing" textLength="7" x="532" y="179.0654">2</text><text fill="#000000" font-family="sans-serif" font-size="13" lengthAdjust="spacing" textLength="44" x="543" y="179.0654">create()</text><rect fill="#E3E3E3" height="31.6094" rx="2.5" ry="2.5" style="stroke:#181818;stroke-width:0.5;" width="188" x="761" y="161.5703"/><text fill="#000000" font-family="sans-serif" font-size="14" lengthAdjust="spacing" textLength="174" x="768" y="183.1035">:ListDealsNetworkController</text><polygon fill="#181818" points="838,222.5313,848,226.5313,838,230.5313,842,226.5313" style="stroke:#181818;stroke-width:1.0;"/><line style="stroke:#181818;stroke-width:1.0;" x1="525" x2="844" y1="226.5313" y2="226.5313"/><text fill="#000000" font-family="sans-serif" font-size="13" font-weight="bold" lengthAdjust="spacing" textLength="7" x="532" y="221.6748">3</text><text fill="#000000" font-family="sans-serif" font-size="13" lengthAdjust="spacing" textLength="95" x="543" y="221.6748">getAllDealsList()</text><polygon fill="#181818" points="1097,252.8828,1107,256.8828,1097,260.8828,1101,256.8828" style="stroke:#181818;stroke-width:1.0;"/><line style="stroke:#181818;stroke-width:1.0;" x1="860" x2="1103" y1="256.8828" y2="256.8828"/><text fill="#000000" font-family="sans-serif" font-size="13" font-weight="bold" lengthAdjust="spacing" textLength="7" x="867" y="252.0264">4</text><text fill="#000000" font-family="sans-serif" font-size="13" lengthAdjust="spacing" textLength="75" x="878" y="252.0264">getInstance()</text><polygon fill="#181818" points="871,283.2344,861,287.2344,871,291.2344,867,287.2344" style="stroke:#181818;stroke-width:1.0;"/><line style="stroke:#181818;stroke-width:1.0;stroke-dasharray:2.0,2.0;" x1="865" x2="1113" y1="287.2344" y2="287.2344"/><text fill="#000000" font-family="sans-serif" font-size="13" font-weight="bold" lengthAdjust="spacing" textLength="7" x="877" y="282.3779">5</text><text fill="#000000" font-family="sans-serif" font-size="13" lengthAdjust="spacing" textLength="67" x="888" y="282.3779">repositories</text><polygon fill="#181818" points="1204,313.5859,1214,317.5859,1204,321.5859,1208,317.5859" style="stroke:#181818;stroke-width:1.0;"/><line style="stroke:#181818;stroke-width:1.0;" x1="860" x2="1210" y1="317.5859" y2="317.5859"/><text fill="#000000" font-family="sans-serif" font-size="13" font-weight="bold" lengthAdjust="spacing" textLength="7" x="867" y="312.7295">6</text><text fill="#000000" font-family="sans-serif" font-size="13" lengthAdjust="spacing" textLength="132" x="878" y="312.7295">getAgencyRepository()</text><polygon fill="#181818" points="871,343.9375,861,347.9375,871,351.9375,867,347.9375" style="stroke:#181818;stroke-width:1.0;"/><line style="stroke:#181818;stroke-width:1.0;stroke-dasharray:2.0,2.0;" x1="865" x2="1220" y1="347.9375" y2="347.9375"/><text fill="#000000" font-family="sans-serif" font-size="13" font-weight="bold" lengthAdjust="spacing" textLength="7" x="877" y="343.0811">7</text><text fill="#000000" font-family="sans-serif" font-size="13" lengthAdjust="spacing" textLength="106" x="888" y="343.0811">AgencyRepository</text><polygon fill="#181818" points="1329,374.2891,1339,378.2891,1329,382.2891,1333,378.2891" style="stroke:#181818;stroke-width:1.0;"/><line style="stroke:#181818;stroke-width:1.0;" x1="860" x2="1335" y1="378.2891" y2="378.2891"/><text fill="#000000" font-family="sans-serif" font-size="13" font-weight="bold" lengthAdjust="spacing" textLength="7" x="867" y="373.4326">8</text><text fill="#000000" font-family="sans-serif" font-size="13" lengthAdjust="spacing" textLength="168" x="878" y="373.4326">getAllDealsAnnouncements()</text><polygon fill="#181818" points="2007.5,404.6406,2017.5,408.6406,2007.5,412.6406,2011.5,408.6406" style="stroke:#181818;stroke-width:1.0;"/><line style="stroke:#181818;stroke-width:1.0;" x1="1351" x2="2013.5" y1="408.6406" y2="408.6406"/><text fill="#000000" font-family="sans-serif" font-size="13" font-weight="bold" lengthAdjust="spacing" textLength="7" x="1358" y="403.7842">9</text><text fill="#000000" font-family="sans-serif" font-size="13" lengthAdjust="spacing" textLength="138" x="1369" y="403.7842">listOfAllDeals = create()</text><rect fill="#E3E3E3" height="31.6094" rx="2.5" ry="2.5" style="stroke:#181818;stroke-width:0.5;" width="158" x="2019.5" y="386.2891"/><text fill="#000000" font-family="sans-serif" font-size="14" lengthAdjust="spacing" textLength="144" x="2026.5" y="407.8223">:List&lt;Announcements&gt;</text><path d="M1269.5,435.8984 L1342.5,435.8984 L1342.5,444.25 L1332.5,454.25 L1269.5,454.25 L1269.5,435.8984 " fill="#EEEEEE" style="stroke:#000000;stroke-width:1.5;"/><rect fill="none" height="293.1641" style="stroke:#000000;stroke-width:1.5;" width="918" x="1269.5" y="435.8984"/><text fill="#000000" font-family="sans-serif" font-size="13" font-weight="bold" lengthAdjust="spacing" textLength="28" x="1284.5" y="450.3936">loop</text><text fill="#000000" font-family="sans-serif" font-size="11" font-weight="bold" lengthAdjust="spacing" textLength="92" x="1357.5" y="449.3174">[for all agencies]</text><polygon fill="#181818" points="1543,472.6016,1553,476.6016,1543,480.6016,1547,476.6016" style="stroke:#181818;stroke-width:1.0;"/><line style="stroke:#181818;stroke-width:1.0;" x1="1351" x2="1549" y1="476.6016" y2="476.6016"/><text fill="#000000" font-family="sans-serif" font-size="13" font-weight="bold" lengthAdjust="spacing" textLength="14" x="1358" y="471.7451">10</text><text fill="#000000" font-family="sans-serif" font-size="13" lengthAdjust="spacing" textLength="167" x="1376" y="471.7451">getDealsAnnouncementList()</text><polygon fill="#181818" points="1670,502.9531,1680,506.9531,1670,510.9531,1674,506.9531" style="stroke:#181818;stroke-width:1.0;"/><line style="stroke:#181818;stroke-width:1.0;" x1="1565" x2="1676" y1="506.9531" y2="506.9531"/><text fill="#000000" font-family="sans-serif" font-size="13" font-weight="bold" lengthAdjust="spacing" textLength="14" x="1572" y="502.0967">11</text><text fill="#000000" font-family="sans-serif" font-size="13" lengthAdjust="spacing" textLength="80" x="1590" y="502.0967">getDealsList()</text><path d="M1609.5,521.9531 L1682.5,521.9531 L1682.5,530.3047 L1672.5,540.3047 L1609.5,540.3047 L1609.5,521.9531 " fill="#EEEEEE" style="stroke:#000000;stroke-width:1.5;"/><rect fill="none" height="79.0547" style="stroke:#000000;stroke-width:1.5;" width="410" x="1609.5" y="521.9531"/><text fill="#000000" font-family="sans-serif" font-size="13" font-weight="bold" lengthAdjust="spacing" textLength="28" x="1624.5" y="536.4482">loop</text><text fill="#000000" font-family="sans-serif" font-size="11" font-weight="bold" lengthAdjust="spacing" textLength="132" x="1697.5" y="535.3721">[for all announcements]</text><polygon fill="#181818" points="1936,558.6563,1946,562.6563,1936,566.6563,1940,562.6563" style="stroke:#181818;stroke-width:1.0;"/><line style="stroke:#181818;stroke-width:1.0;" x1="1692" x2="1942" y1="562.6563" y2="562.6563"/><text fill="#000000" font-family="sans-serif" font-size="13" font-weight="bold" lengthAdjust="spacing" textLength="14" x="1699" y="557.7998">12</text><text fill="#000000" font-family="sans-serif" font-size="13" lengthAdjust="spacing" textLength="44" x="1717" y="557.7998">isDeal()</text><polygon fill="#181818" points="1703,589.0078,1693,593.0078,1703,597.0078,1699,593.0078" style="stroke:#181818;stroke-width:1.0;"/><line style="stroke:#181818;stroke-width:1.0;stroke-dasharray:2.0,2.0;" x1="1697" x2="1952" y1="593.0078" y2="593.0078"/><text fill="#000000" font-family="sans-serif" font-size="13" font-weight="bold" lengthAdjust="spacing" textLength="14" x="1709" y="588.1514">13</text><text fill="#000000" font-family="sans-serif" font-size="13" lengthAdjust="spacing" textLength="53" x="1727" y="588.1514">true/false</text><polygon fill="#181818" points="1576,626.3594,1566,630.3594,1576,634.3594,1572,630.3594" style="stroke:#181818;stroke-width:1.0;"/><line style="stroke:#181818;stroke-width:1.0;stroke-dasharray:2.0,2.0;" x1="1570" x2="1686" y1="630.3594" y2="630.3594"/><text fill="#000000" font-family="sans-serif" font-size="13" font-weight="bold" lengthAdjust="spacing" textLength="14" x="1582" y="625.5029">14</text><text fill="#000000" font-family="sans-serif" font-size="13" lengthAdjust="spacing" textLength="52" x="1600" y="625.5029">dealsList</text><polygon fill="#181818" points="1362,656.7109,1352,660.7109,1362,664.7109,1358,660.7109" style="stroke:#181818;stroke-width:1.0;"/><line style="stroke:#181818;stroke-width:1.0;stroke-dasharray:2.0,2.0;" x1="1356" x2="1559" y1="660.7109" y2="660.7109"/><text fill="#000000" font-family="sans-serif" font-size="13" font-weight="bold" lengthAdjust="spacing" textLength="14" x="1368" y="655.8545">15</text><text fill="#000000" font-family="sans-serif" font-size="13" lengthAdjust="spacing" textLength="52" x="1386" y="655.8545">dealsList</text><polygon fill="#181818" points="2081.5,687.0625,2091.5,691.0625,2081.5,695.0625,2085.5,691.0625" style="stroke:#181818;stroke-width:1.0;"/><line style="stroke:#181818;stroke-width:1.0;" x1="1351" x2="2087.5" y1="691.0625" y2="691.0625"/><text fill="#000000" font-family="sans-serif" font-size="13" font-weight="bold" lengthAdjust="spacing" textLength="14" x="1358" y="686.2061">16</text><text fill="#000000" font-family="sans-serif" font-size="13" lengthAdjust="spacing" textLength="96" x="1376" y="686.2061">addAll(dealsList)</text><polygon fill="#181818" points="1670,754.4141,1680,758.4141,1670,762.4141,1674,758.4141" style="stroke:#181818;stroke-width:1.0;"/><line style="stroke:#181818;stroke-width:1.0;" x1="1351" x2="1676" y1="758.4141" y2="758.4141"/><text fill="#000000" font-family="sans-serif" font-size="13" font-weight="bold" lengthAdjust="spacing" textLength="14" x="1358" y="753.5576">17</text><text fill="#000000" font-family="sans-serif" font-size="13" lengthAdjust="spacing" textLength="263" x="1376" y="753.5576">sortAnnouncementsByMostRecentSaleDate()</text><polygon fill="#181818" points="1362,784.7656,1352,788.7656,1362,792.7656,1358,788.7656" style="stroke:#181818;stroke-width:1.0;"/><line style="stroke:#181818;stroke-width:1.0;stroke-dasharray:2.0,2.0;" x1="1356" x2="1686" y1="788.7656" y2="788.7656"/><text fill="#000000" font-family="sans-serif" font-size="13" font-weight="bold" lengthAdjust="spacing" textLength="14" x="1368" y="783.9092">18</text><text fill="#000000" font-family="sans-serif" font-size="13" lengthAdjust="spacing" textLength="52" x="1386" y="783.9092">dealsList</text><polygon fill="#181818" points="871,815.1172,861,819.1172,871,823.1172,867,819.1172" style="stroke:#181818;stroke-width:1.0;"/><line style="stroke:#181818;stroke-width:1.0;stroke-dasharray:2.0,2.0;" x1="865" x2="1345" y1="819.1172" y2="819.1172"/><text fill="#000000" font-family="sans-serif" font-size="13" font-weight="bold" lengthAdjust="spacing" textLength="14" x="877" y="814.2607">19</text><text fill="#000000" font-family="sans-serif" font-size="13" lengthAdjust="spacing" textLength="78" x="895" y="814.2607">listOfAllDeals</text><line style="stroke:#181818;stroke-width:1.0;" x1="860" x2="907" y1="869.4688" y2="869.4688"/><line style="stroke:#181818;stroke-width:1.0;" x1="907" x2="907" y1="869.4688" y2="882.4688"/><line style="stroke:#181818;stroke-width:1.0;" x1="866" x2="907" y1="882.4688" y2="882.4688"/><polygon fill="#181818" points="876,878.4688,866,882.4688,876,886.4688,872,882.4688" style="stroke:#181818;stroke-width:1.0;"/><text fill="#000000" font-family="sans-serif" font-size="13" font-weight="bold" lengthAdjust="spacing" textLength="14" x="872" y="864.6123">20</text><text fill="#000000" font-family="sans-serif" font-size="13" lengthAdjust="spacing" textLength="161" x="890" y="864.6123">convertToDto(listOfAllDeals)</text><rect fill="none" height="41.4453" style="stroke:#000000;stroke-width:1.5;" width="194" x="758" y="895.4688"/><path d="M758,895.4688 L820,895.4688 L820,903.4688 L810,913.4688 L758,913.4688 L758,895.4688 " fill="#EEEEEE" style="stroke:#000000;stroke-width:2.0;"/><text fill="#000000" font-family="sans-serif" font-size="13" font-weight="bold" lengthAdjust="spacing" textLength="17" x="771" y="910.9639">ref</text><text fill="#000000" font-family="sans-serif" font-size="12" lengthAdjust="spacing" textLength="106" x="802" y="929.9258">Convert List to DTO</text><line style="stroke:#181818;stroke-width:1.0;stroke-dasharray:2.0,2.0;" x1="865" x2="907" y1="969.2656" y2="969.2656"/><line style="stroke:#181818;stroke-width:1.0;stroke-dasharray:2.0,2.0;" x1="907" x2="907" y1="969.2656" y2="982.2656"/><line style="stroke:#181818;stroke-width:1.0;stroke-dasharray:2.0,2.0;" x1="860" x2="907" y1="982.2656" y2="982.2656"/><polygon fill="#181818" points="870,978.2656,860,982.2656,870,986.2656,866,982.2656" style="stroke:#181818;stroke-width:1.0;"/><text fill="#000000" font-family="sans-serif" font-size="13" font-weight="bold" lengthAdjust="spacing" textLength="14" x="872" y="964.4092">21</text><text fill="#000000" font-family="sans-serif" font-size="13" lengthAdjust="spacing" textLength="98" x="890" y="964.4092">listOfAllDealsDto</text><polygon fill="#181818" points="536,1003.6172,526,1007.6172,536,1011.6172,532,1007.6172" style="stroke:#181818;stroke-width:1.0;"/><line style="stroke:#181818;stroke-width:1.0;stroke-dasharray:2.0,2.0;" x1="530" x2="854" y1="1007.6172" y2="1007.6172"/><text fill="#000000" font-family="sans-serif" font-size="13" font-weight="bold" lengthAdjust="spacing" textLength="14" x="542" y="1002.7607">22</text><text fill="#000000" font-family="sans-serif" font-size="13" lengthAdjust="spacing" textLength="98" x="560" y="1002.7607">listOfAllDealsDto</text><path d="M10,1022.6172 L83,1022.6172 L83,1030.9688 L73,1040.9688 L10,1040.9688 L10,1022.6172 " fill="#EEEEEE" style="stroke:#000000;stroke-width:1.5;"/><rect fill="none" height="735.8828" style="stroke:#000000;stroke-width:1.5;" width="1886.5" x="10" y="1022.6172"/><text fill="#000000" font-family="sans-serif" font-size="13" font-weight="bold" lengthAdjust="spacing" textLength="28" x="25" y="1037.1123">loop</text><text fill="#000000" font-family="sans-serif" font-size="11" font-weight="bold" lengthAdjust="spacing" textLength="236" x="98" y="1036.0361">[At least once until when the user intends]</text><polygon fill="#181818" points="94,1059.3203,84,1063.3203,94,1067.3203,90,1063.3203" style="stroke:#181818;stroke-width:1.0;"/><line style="stroke:#181818;stroke-width:1.0;stroke-dasharray:2.0,2.0;" x1="88" x2="519" y1="1063.3203" y2="1063.3203"/><text fill="#000000" font-family="sans-serif" font-size="13" font-weight="bold" lengthAdjust="spacing" textLength="14" x="100" y="1058.4639">23</text><text fill="#000000" font-family="sans-serif" font-size="13" lengthAdjust="spacing" textLength="390" x="118" y="1058.4639">shows list of all deals, types of sorting order and asks to select one</text><polygon fill="#181818" points="503,1089.6719,513,1093.6719,503,1097.6719,507,1093.6719" style="stroke:#181818;stroke-width:1.0;"/><line style="stroke:#181818;stroke-width:1.0;" x1="83" x2="509" y1="1093.6719" y2="1093.6719"/><text fill="#000000" font-family="sans-serif" font-size="13" font-weight="bold" lengthAdjust="spacing" textLength="14" x="90" y="1088.8154">24</text><text fill="#000000" font-family="sans-serif" font-size="13" lengthAdjust="spacing" textLength="129" x="108" y="1088.8154">selects a sorting order</text><polygon fill="#181818" points="94,1120.0234,84,1124.0234,94,1128.0234,90,1124.0234" style="stroke:#181818;stroke-width:1.0;"/><line style="stroke:#181818;stroke-width:1.0;stroke-dasharray:2.0,2.0;" x1="88" x2="519" y1="1124.0234" y2="1124.0234"/><text fill="#000000" font-family="sans-serif" font-size="13" font-weight="bold" lengthAdjust="spacing" textLength="14" x="100" y="1119.167">25</text><text fill="#000000" font-family="sans-serif" font-size="13" lengthAdjust="spacing" textLength="333" x="118" y="1119.167">shows sorting algorithms available and asks to select one</text><polygon fill="#181818" points="503,1150.375,513,1154.375,503,1158.375,507,1154.375" style="stroke:#181818;stroke-width:1.0;"/><line style="stroke:#181818;stroke-width:1.0;" x1="83" x2="509" y1="1154.375" y2="1154.375"/><text fill="#000000" font-family="sans-serif" font-size="13" font-weight="bold" lengthAdjust="spacing" textLength="14" x="90" y="1149.5186">26</text><text fill="#000000" font-family="sans-serif" font-size="13" lengthAdjust="spacing" textLength="153" x="108" y="1149.5186">selects a sorting algorithm</text><polygon fill="#181818" points="838,1210.7266,848,1214.7266,838,1218.7266,842,1214.7266" style="stroke:#181818;stroke-width:1.0;"/><line style="stroke:#181818;stroke-width:1.0;" x1="525" x2="844" y1="1214.7266" y2="1214.7266"/><text fill="#000000" font-family="sans-serif" font-size="13" font-weight="bold" lengthAdjust="spacing" textLength="14" x="532" y="1209.8701">27</text><text fill="#000000" font-family="sans-serif" font-size="13" lengthAdjust="spacing" textLength="288" x="550" y="1209.8701">getListSortedByAlgorithm(sortingOrder, algorithm)</text><line style="stroke:#181818;stroke-width:1.0;" x1="860" x2="907" y1="1256.4297" y2="1256.4297"/><line style="stroke:#181818;stroke-width:1.0;" x1="907" x2="907" y1="1256.4297" y2="1269.4297"/><line style="stroke:#181818;stroke-width:1.0;" x1="866" x2="907" y1="1269.4297" y2="1269.4297"/><polygon fill="#181818" points="876,1265.4297,866,1269.4297,876,1273.4297,872,1269.4297" style="stroke:#181818;stroke-width:1.0;"/><text fill="#000000" font-family="sans-serif" font-size="13" font-weight="bold" lengthAdjust="spacing" textLength="14" x="872" y="1243.3975">28</text><text fill="#000000" font-family="sans-serif" font-size="13" lengthAdjust="spacing" textLength="217" x="890" y="1235.2217">getSortedList(algorithm, sortingOrder,</text><text fill="#000000" font-family="sans-serif" font-size="13" lengthAdjust="spacing" textLength="82" x="894" y="1251.5732">listOfAllDeals)</text><polygon fill="#181818" points="1808.5,1369.1875,1818.5,1373.1875,1808.5,1377.1875,1812.5,1373.1875" style="stroke:#181818;stroke-width:1.0;"/><line style="stroke:#181818;stroke-width:1.0;" x1="865" x2="1814.5" y1="1373.1875" y2="1373.1875"/><text fill="#000000" font-family="sans-serif" font-size="13" font-weight="bold" lengthAdjust="spacing" textLength="14" x="872" y="1368.3311">29</text><text fill="#000000" font-family="sans-serif" font-size="13" lengthAdjust="spacing" textLength="187" x="890" y="1368.3311">sort(sortingOrder, listOfAllDeals)</text><path d="M615,1287.4297 L615,1444.4297 L845,1444.4297 L845,1297.4297 L835,1287.4297 L615,1287.4297 " fill="#FAFAFA" style="stroke:#181818;stroke-width:0.5;"/><path d="M835,1287.4297 L835,1297.4297 L845,1297.4297 L835,1287.4297 " fill="#FAFAFA" style="stroke:#181818;stroke-width:0.5;"/><text fill="#000000" font-family="sans-serif" font-size="13" lengthAdjust="spacing" textLength="166" x="621" y="1305.9248">It is an instance of any class</text><text fill="#000000" font-family="sans-serif" font-size="13" lengthAdjust="spacing" textLength="152" x="621" y="1322.2764">implementing the interface</text><text fill="#000000" font-family="sans-serif" font-size="13" lengthAdjust="spacing" textLength="209" x="621" y="1338.6279">"SortingAlgorithm" (MergeAlgorithm,</text><text fill="#000000" font-family="sans-serif" font-size="13" lengthAdjust="spacing" textLength="103" x="621" y="1354.9795">BubbleAlgorithm).</text><text fill="#000000" font-family="sans-serif" font-size="13" lengthAdjust="spacing" textLength="4" x="621" y="1371.3311"> </text><text fill="#000000" font-family="sans-serif" font-size="13" lengthAdjust="spacing" textLength="200" x="621" y="1387.6826">One cannot detail what happens in</text><text fill="#000000" font-family="sans-serif" font-size="13" lengthAdjust="spacing" textLength="207" x="621" y="1404.0342">“SortingAlgorithm” when the method</text><text fill="#000000" font-family="sans-serif" font-size="13" lengthAdjust="spacing" textLength="199" x="621" y="1420.3857">“sort()" is invoked since it depends</text><text fill="#000000" font-family="sans-serif" font-size="13" lengthAdjust="spacing" textLength="122" x="625" y="1436.7373">on the instance type.</text><polygon fill="#181818" points="876,1467.9453,866,1471.9453,876,1475.9453,872,1471.9453" style="stroke:#181818;stroke-width:1.0;"/><line style="stroke:#181818;stroke-width:1.0;stroke-dasharray:2.0,2.0;" x1="870" x2="1824.5" y1="1471.9453" y2="1471.9453"/><text fill="#000000" font-family="sans-serif" font-size="13" font-weight="bold" lengthAdjust="spacing" textLength="14" x="882" y="1467.0889">30</text><text fill="#000000" font-family="sans-serif" font-size="13" lengthAdjust="spacing" textLength="57" x="900" y="1467.0889">sortedList</text><line style="stroke:#181818;stroke-width:1.0;stroke-dasharray:2.0,2.0;" x1="865" x2="907" y1="1507.2969" y2="1507.2969"/><line style="stroke:#181818;stroke-width:1.0;stroke-dasharray:2.0,2.0;" x1="907" x2="907" y1="1507.2969" y2="1520.2969"/><line style="stroke:#181818;stroke-width:1.0;stroke-dasharray:2.0,2.0;" x1="860" x2="907" y1="1520.2969" y2="1520.2969"/><polygon fill="#181818" points="870,1516.2969,860,1520.2969,870,1524.2969,866,1520.2969" style="stroke:#181818;stroke-width:1.0;"/><text fill="#000000" font-family="sans-serif" font-size="13" font-weight="bold" lengthAdjust="spacing" textLength="14" x="872" y="1502.4404">31</text><text fill="#000000" font-family="sans-serif" font-size="13" lengthAdjust="spacing" textLength="57" x="890" y="1502.4404">sortedList</text><line style="stroke:#181818;stroke-width:1.0;" x1="860" x2="907" y1="1565.6484" y2="1565.6484"/><line style="stroke:#181818;stroke-width:1.0;" x1="907" x2="907" y1="1565.6484" y2="1578.6484"/><line style="stroke:#181818;stroke-width:1.0;" x1="866" x2="907" y1="1578.6484" y2="1578.6484"/><polygon fill="#181818" points="876,1574.6484,866,1578.6484,876,1582.6484,872,1578.6484" style="stroke:#181818;stroke-width:1.0;"/><text fill="#000000" font-family="sans-serif" font-size="13" font-weight="bold" lengthAdjust="spacing" textLength="14" x="872" y="1560.792">32</text><text fill="#000000" font-family="sans-serif" font-size="13" lengthAdjust="spacing" textLength="140" x="890" y="1560.792">convertToDto(sortedList)</text><rect fill="none" height="41.4453" style="stroke:#000000;stroke-width:1.5;" width="194" x="758" y="1591.6484"/><path d="M758,1591.6484 L820,1591.6484 L820,1599.6484 L810,1609.6484 L758,1609.6484 L758,1591.6484 " fill="#EEEEEE" style="stroke:#000000;stroke-width:2.0;"/><text fill="#000000" font-family="sans-serif" font-size="13" font-weight="bold" lengthAdjust="spacing" textLength="17" x="771" y="1607.1436">ref</text><text fill="#000000" font-family="sans-serif" font-size="12" lengthAdjust="spacing" textLength="106" x="802" y="1626.1055">Convert List to DTO</text><line style="stroke:#181818;stroke-width:1.0;stroke-dasharray:2.0,2.0;" x1="865" x2="907" y1="1665.4453" y2="1665.4453"/><line style="stroke:#181818;stroke-width:1.0;stroke-dasharray:2.0,2.0;" x1="907" x2="907" y1="1665.4453" y2="1678.4453"/><line style="stroke:#181818;stroke-width:1.0;stroke-dasharray:2.0,2.0;" x1="860" x2="907" y1="1678.4453" y2="1678.4453"/><polygon fill="#181818" points="870,1674.4453,860,1678.4453,870,1682.4453,866,1678.4453" style="stroke:#181818;stroke-width:1.0;"/><text fill="#000000" font-family="sans-serif" font-size="13" font-weight="bold" lengthAdjust="spacing" textLength="14" x="872" y="1660.5889">33</text><text fill="#000000" font-family="sans-serif" font-size="13" lengthAdjust="spacing" textLength="77" x="890" y="1660.5889">sortedListDto</text><polygon fill="#181818" points="536,1699.7969,526,1703.7969,536,1707.7969,532,1703.7969" style="stroke:#181818;stroke-width:1.0;"/><line style="stroke:#181818;stroke-width:1.0;stroke-dasharray:2.0,2.0;" x1="530" x2="854" y1="1703.7969" y2="1703.7969"/><text fill="#000000" font-family="sans-serif" font-size="13" font-weight="bold" lengthAdjust="spacing" textLength="14" x="542" y="1698.9404">34</text><text fill="#000000" font-family="sans-serif" font-size="13" lengthAdjust="spacing" textLength="84" x="560" y="1698.9404">sortedListsDto</text><polygon fill="#181818" points="94,1746.5,84,1750.5,94,1754.5,90,1750.5" style="stroke:#181818;stroke-width:1.0;"/><line style="stroke:#181818;stroke-width:1.0;stroke-dasharray:2.0,2.0;" x1="88" x2="514" y1="1750.5" y2="1750.5"/><text fill="#000000" font-family="sans-serif" font-size="13" font-weight="bold" lengthAdjust="spacing" textLength="14" x="100" y="1737.4678">35</text><text fill="#000000" font-family="sans-serif" font-size="13" lengthAdjust="spacing" textLength="323" x="118" y="1729.292">displays results, asks if the user wants to sort list again</text><text fill="#000000" font-family="sans-serif" font-size="13" lengthAdjust="spacing" textLength="183" x="122" y="1745.6436">and displays operation success</text><!--SRC=[bLVDRjiu4BxhAGXVuXH9spqjK6GDE75H64ZiHUnWBxtGqjWcGfDQaOhNG0vzaDsNwvFi36Nza99iLwT4cldcxviVcrUXKfxn7TjffUDjfdV0R9P3PAelAOzV-GOMzY21PH1RhZQoAM2sFD5xeJPipQM1ABhQYWJOMckxqlz4FBOwOuCPsBtENjaJLuYM3HWtRFRNKuGOLiGYvSgomPT7OUm44EOe_Z9rWY_JCt8FMjbCIta4VbW-FmOQpv1g8z0L0SR9L2yE2q4HMQrybQoXyLsr0Vvy72zz3GnCnOSQ6BN6mIkd6RxiGgbq2url3u6GKZfNCUn0MKe6YGUl2iNPRFuoU_ZwE5q4pjwjHdTtKsKXM_COHgExJwiHeYmqogZDM6umKhlTEPJ5_7avVlpMxq9WtZFTKRgxfh0PEN7dOMI5HPejuEySOmSs4Nn371ik9jVibhqiFl_sUnJn78kLxrQGHKGlySOjE39531_yWzsEa3Fi2-A-6cOrGzB9Wq5kRu6b6B7ETfpmzTgzKWMBd3ez5IWIpxr4C8GaMdtuWB1n1lXrU1r-n4yRi6Cf7JSfKfJn01qptIidZteTF2nWfifOSh8qqtAkYy6U93rTyBUrkqsIUxe9N6wd38KwufY2WE6zCRWcQZdjW1fUjXgcpzK2BWeT2_NzEdbaF1RCSxBVV0iOZH6H7Kiard- -BgsmFmBQq2ErJd5IPenBoLpZKnsywBfCu3WeGcZvt-1SEmmS8ZuqmX1QOqOqO4z2DSUA9-97rCniOBjfjE44EY0CsJzdkisQ2kAs7HGjjK_5VkgXJethIO1AN4odlAygafHvYyvPQIVE5QERgnV0jahRGqoQYKc2d1nMe3rvTXxsc6jxtvEcBkxwXJ6uRxm6l3yyQMEV8SP_5bp2f6YPNwHXTv5EfVQN2jOEh1vMVjj7NPZXF7b_Vs_Dh2DQhDKRP7Qf9rOFVUYUfDGhfdmoM3EDACKdRt8Nw8moG7joifotoehQNUE-Bs3qivUcRTSgBBUkJo3rehY1CxPC0iSOD6trN5aXsNuBocttt63e0YyTbPX6TzFQHiDqBY0Djtfld7sw2MXsEMRSC7j8mT0xKnn6J6S9md5CJ7bS691u5gDfw7Itl272swHGCupxqDr59P1JdfSGlBpR4FUD2ybNU4xrEDjJfClzhOo5hTU9rQgW5q_pW28sqXqAoVsXEaI7HwjpIj9DRRjZN_i42HeAyGjijzygc1lcuNzNB6osw89Ek-BIrgxXoX_SvoiimQ3xO3hUrSSn64HuKRENbxdtLMdy8c7j3xMfnSsANC1MA0vBntHrOB7anZ_-n2wLRXfJbQc5HFaxmHCRj7yi39yWsq3ruiQJBt9HVRp-wBizLy1YEXaiSiLoryBSiYrFKr06VV2aV_xuDpJ_yyT_TTVlm6vr4gguF5yFA1D2lUbNI9WHb0j1HbCt8ZmgQtLCm35dD0y-jcOaPTmBvee1tXe-5Lnga0bNvwb0tCH5I0fdM74LMALMby6XK68tPhQfMg1tM5VKYle6VnT8sEMNhhOQwsn3Tw-pKwkijSRw8xbiwVXhgzQkTrQVgZUx4s5IoGy6dJEvjBXkt9WMwtflxV5NSp6uqKYneFY62uK3YiPwXQ3nPost0kbgyZW6REZ8lydy2Vy_]--></g></svg>