<?xml version="1.0" encoding="UTF-8" standalone="no"?><svg xmlns="http://www.w3.org/2000/svg" xmlns:xlink="http://www.w3.org/1999/xlink" contentStyleType="text/css" height="1548px" preserveAspectRatio="none" style="width:1521px;height:1548px;background:#FFFFFF;" version="1.1" viewBox="0 0 1521 1548" width="1521px" zoomAndPan="magnify"><defs/><g><text fill="#000000" font-family="sans-serif" font-size="14" font-weight="bold" lengthAdjust="spacing" textLength="155" x="676.25" y="24.5332">Class Diagram - US017</text><!--class Agency--><g id="elem_Agency"><rect codeLine="13" fill="#F1F1F1" height="206.4844" id="Agency" rx="2.5" ry="2.5" style="stroke:#181818;stroke-width:0.5;" width="239" x="269" y="678.6094"/><ellipse cx="360.75" cy="694.6094" fill="#ADD1B2" rx="11" ry="11" style="stroke:#181818;stroke-width:1.0;"/><path d="M363.5156,690.4844 Q363.6719,690.2656 363.8594,690.1563 Q364.0469,690.0469 364.2656,690.0469 Q364.6406,690.0469 364.875,690.3125 Q365.1094,690.5625 365.1094,691.1719 L365.1094,692.625 Q365.1094,693.2344 364.875,693.5 Q364.6406,693.7656 364.2656,693.7656 Q363.9219,693.7656 363.7188,693.5625 Q363.5156,693.375 363.4063,692.8594 Q363.3594,692.5 363.1719,692.3125 Q362.8438,691.9375 362.2344,691.7188 Q361.625,691.5 361,691.5 Q360.2344,691.5 359.5938,691.8281 Q358.9688,692.1563 358.4688,692.9063 Q357.9844,693.6563 357.9844,694.6875 L357.9844,695.7813 Q357.9844,697.0156 358.875,697.8438 Q359.7656,698.6563 361.3594,698.6563 Q362.2969,698.6563 362.9531,698.4063 Q363.3438,698.25 363.7656,697.8125 Q364.0313,697.5469 364.1719,697.4688 Q364.3281,697.3906 364.5313,697.3906 Q364.8594,697.3906 365.1094,697.6563 Q365.375,697.9063 365.375,698.25 Q365.375,698.5938 365.0313,699 Q364.5313,699.5781 363.7344,699.9063 Q362.6563,700.3594 361.3594,700.3594 Q359.8438,700.3594 358.6406,699.7344 Q357.6563,699.2344 356.9688,698.1719 Q356.2813,697.0938 356.2813,695.8125 L356.2813,694.6563 Q356.2813,693.3281 356.8906,692.1875 Q357.5156,691.0313 358.6094,690.4219 Q359.7031,689.7969 360.9375,689.7969 Q361.6719,689.7969 362.3125,689.9688 Q362.9688,690.125 363.5156,690.4844 Z " fill="#000000"/><text fill="#000000" font-family="sans-serif" font-size="14" lengthAdjust="spacing" textLength="47" x="381.25" y="700.3379">Agency</text><line style="stroke:#181818;stroke-width:0.5;" x1="270" x2="507" y1="710.6094" y2="710.6094"/><text fill="#000000" font-family="sans-serif" font-size="14" lengthAdjust="spacing" textLength="64" x="275" y="729.1426">-Integer id</text><text fill="#000000" font-family="sans-serif" font-size="14" lengthAdjust="spacing" textLength="115" x="275" y="746.752">-String description</text><text fill="#000000" font-family="sans-serif" font-size="14" lengthAdjust="spacing" textLength="128" x="275" y="764.3613">-Email emailAddress</text><text fill="#000000" font-family="sans-serif" font-size="14" lengthAdjust="spacing" textLength="135" x="275" y="781.9707">-String phoneNumber</text><text fill="#000000" font-family="sans-serif" font-size="14" lengthAdjust="spacing" textLength="112" x="275" y="799.5801">-Location location</text><text fill="#000000" font-family="sans-serif" font-size="14" lengthAdjust="spacing" textLength="177" x="275" y="817.1895">-List&lt;Employee&gt; employees</text><text fill="#000000" font-family="sans-serif" font-size="14" lengthAdjust="spacing" textLength="227" x="275" y="834.7988">-AnnouncementList announcements</text><text fill="#000000" font-family="sans-serif" font-size="14" lengthAdjust="spacing" textLength="139" x="275" y="852.4082">-RequestList requests</text><line style="stroke:#181818;stroke-width:0.5;" x1="270" x2="507" y1="859.4844" y2="859.4844"/><text fill="#000000" font-family="sans-serif" font-size="14" lengthAdjust="spacing" textLength="191" x="275" y="878.0176">+getDealsAnnouncementList()</text></g><!--class AnnouncementList--><g id="elem_AnnouncementList"><rect codeLine="25" fill="#F1F1F1" height="118.4375" id="AnnouncementList" rx="2.5" ry="2.5" style="stroke:#181818;stroke-width:0.5;" width="305" x="236" y="962.6094"/><ellipse cx="325.75" cy="978.6094" fill="#ADD1B2" rx="11" ry="11" style="stroke:#181818;stroke-width:1.0;"/><path d="M328.5156,974.4844 Q328.6719,974.2656 328.8594,974.1563 Q329.0469,974.0469 329.2656,974.0469 Q329.6406,974.0469 329.875,974.3125 Q330.1094,974.5625 330.1094,975.1719 L330.1094,976.625 Q330.1094,977.2344 329.875,977.5 Q329.6406,977.7656 329.2656,977.7656 Q328.9219,977.7656 328.7188,977.5625 Q328.5156,977.375 328.4063,976.8594 Q328.3594,976.5 328.1719,976.3125 Q327.8438,975.9375 327.2344,975.7188 Q326.625,975.5 326,975.5 Q325.2344,975.5 324.5938,975.8281 Q323.9688,976.1563 323.4688,976.9063 Q322.9844,977.6563 322.9844,978.6875 L322.9844,979.7813 Q322.9844,981.0156 323.875,981.8438 Q324.7656,982.6563 326.3594,982.6563 Q327.2969,982.6563 327.9531,982.4063 Q328.3438,982.25 328.7656,981.8125 Q329.0313,981.5469 329.1719,981.4688 Q329.3281,981.3906 329.5313,981.3906 Q329.8594,981.3906 330.1094,981.6563 Q330.375,981.9063 330.375,982.25 Q330.375,982.5938 330.0313,983 Q329.5313,983.5781 328.7344,983.9063 Q327.6563,984.3594 326.3594,984.3594 Q324.8438,984.3594 323.6406,983.7344 Q322.6563,983.2344 321.9688,982.1719 Q321.2813,981.0938 321.2813,979.8125 L321.2813,978.6563 Q321.2813,977.3281 321.8906,976.1875 Q322.5156,975.0313 323.6094,974.4219 Q324.7031,973.7969 325.9375,973.7969 Q326.6719,973.7969 327.3125,973.9688 Q327.9688,974.125 328.5156,974.4844 Z " fill="#000000"/><text fill="#000000" font-family="sans-serif" font-size="14" lengthAdjust="spacing" textLength="117" x="346.25" y="984.3379">AnnouncementList</text><line style="stroke:#181818;stroke-width:0.5;" x1="237" x2="540" y1="994.6094" y2="994.6094"/><text fill="#000000" font-family="sans-serif" font-size="14" lengthAdjust="spacing" textLength="243" x="242" y="1013.1426">-List&lt;Announcement&gt; announcements</text><line style="stroke:#181818;stroke-width:0.5;" x1="237" x2="540" y1="1020.2188" y2="1020.2188"/><text fill="#000000" font-family="sans-serif" font-size="14" lengthAdjust="spacing" textLength="96" x="242" y="1038.752">+getDealsList()</text><text fill="#000000" font-family="sans-serif" font-size="14" lengthAdjust="spacing" textLength="293" x="242" y="1056.3613">+sortAnnouncementsByMostRecentSaleDate()</text><text fill="#000000" font-family="sans-serif" font-size="14" lengthAdjust="spacing" textLength="150" x="242" y="1073.9707">+getAnnouncement(idx)</text></g><path d="M576,987.1094 L576,1012.6367 L392,1068.2422 L576,1020.6367 L576,1046.1641 A0,0 0 0 0 576,1046.1641 L767,1046.1641 A0,0 0 0 0 767,1046.1641 L767,997.1094 L757,987.1094 L576,987.1094 A0,0 0 0 0 576,987.1094 " fill="#FEFFDD" style="stroke:#181818;stroke-width:0.5;"/><path d="M757,987.1094 L757,997.1094 L767,997.1094 L757,987.1094 " fill="#FEFFDD" style="stroke:#181818;stroke-width:0.5;"/><text fill="#000000" font-family="sans-serif" font-size="13" lengthAdjust="spacing" textLength="162" x="582" y="1005.6045">The variable idx refers to the</text><text fill="#000000" font-family="sans-serif" font-size="13" lengthAdjust="spacing" textLength="170" x="582" y="1021.9561">position of the announcement</text><text fill="#000000" font-family="sans-serif" font-size="13" lengthAdjust="spacing" textLength="148" x="582" y="1038.3076">in the Announcement List</text><!--class AnnouncementMapper--><g id="elem_AnnouncementMapper"><rect codeLine="38" fill="#F1F1F1" height="65.6094" id="AnnouncementMapper" rx="2.5" ry="2.5" style="stroke:#181818;stroke-width:0.5;" width="175" x="846" y="748.6094"/><ellipse cx="861" cy="764.6094" fill="#ADD1B2" rx="11" ry="11" style="stroke:#181818;stroke-width:1.0;"/><path d="M863.7656,760.4844 Q863.9219,760.2656 864.1094,760.1563 Q864.2969,760.0469 864.5156,760.0469 Q864.8906,760.0469 865.125,760.3125 Q865.3594,760.5625 865.3594,761.1719 L865.3594,762.625 Q865.3594,763.2344 865.125,763.5 Q864.8906,763.7656 864.5156,763.7656 Q864.1719,763.7656 863.9688,763.5625 Q863.7656,763.375 863.6563,762.8594 Q863.6094,762.5 863.4219,762.3125 Q863.0938,761.9375 862.4844,761.7188 Q861.875,761.5 861.25,761.5 Q860.4844,761.5 859.8438,761.8281 Q859.2188,762.1563 858.7188,762.9063 Q858.2344,763.6563 858.2344,764.6875 L858.2344,765.7813 Q858.2344,767.0156 859.125,767.8438 Q860.0156,768.6563 861.6094,768.6563 Q862.5469,768.6563 863.2031,768.4063 Q863.5938,768.25 864.0156,767.8125 Q864.2813,767.5469 864.4219,767.4688 Q864.5781,767.3906 864.7813,767.3906 Q865.1094,767.3906 865.3594,767.6563 Q865.625,767.9063 865.625,768.25 Q865.625,768.5938 865.2813,769 Q864.7813,769.5781 863.9844,769.9063 Q862.9063,770.3594 861.6094,770.3594 Q860.0938,770.3594 858.8906,769.7344 Q857.9063,769.2344 857.2188,768.1719 Q856.5313,767.0938 856.5313,765.8125 L856.5313,764.6563 Q856.5313,763.3281 857.1406,762.1875 Q857.7656,761.0313 858.8594,760.4219 Q859.9531,759.7969 861.1875,759.7969 Q861.9219,759.7969 862.5625,759.9688 Q863.2188,760.125 863.7656,760.4844 Z " fill="#000000"/><text fill="#000000" font-family="sans-serif" font-size="14" lengthAdjust="spacing" textLength="143" x="875" y="770.3379">AnnouncementMapper</text><line style="stroke:#181818;stroke-width:0.5;" x1="847" x2="1020" y1="780.6094" y2="780.6094"/><line style="stroke:#181818;stroke-width:0.5;" x1="847" x2="1020" y1="788.6094" y2="788.6094"/><text fill="#000000" font-family="sans-serif" font-size="14" lengthAdjust="spacing" textLength="136" x="852" y="807.1426">+toDto(sortedListDto)</text></g><!--class AnnouncementDto--><g id="elem_AnnouncementDto"><rect codeLine="42" fill="#F1F1F1" height="100.8281" id="AnnouncementDto" rx="2.5" ry="2.5" style="stroke:#181818;stroke-width:0.5;" width="262" x="802.5" y="971.1094"/><ellipse cx="870.75" cy="987.1094" fill="#ADD1B2" rx="11" ry="11" style="stroke:#181818;stroke-width:1.0;"/><path d="M873.5156,982.9844 Q873.6719,982.7656 873.8594,982.6563 Q874.0469,982.5469 874.2656,982.5469 Q874.6406,982.5469 874.875,982.8125 Q875.1094,983.0625 875.1094,983.6719 L875.1094,985.125 Q875.1094,985.7344 874.875,986 Q874.6406,986.2656 874.2656,986.2656 Q873.9219,986.2656 873.7188,986.0625 Q873.5156,985.875 873.4063,985.3594 Q873.3594,985 873.1719,984.8125 Q872.8438,984.4375 872.2344,984.2188 Q871.625,984 871,984 Q870.2344,984 869.5938,984.3281 Q868.9688,984.6563 868.4688,985.4063 Q867.9844,986.1563 867.9844,987.1875 L867.9844,988.2813 Q867.9844,989.5156 868.875,990.3438 Q869.7656,991.1563 871.3594,991.1563 Q872.2969,991.1563 872.9531,990.9063 Q873.3438,990.75 873.7656,990.3125 Q874.0313,990.0469 874.1719,989.9688 Q874.3281,989.8906 874.5313,989.8906 Q874.8594,989.8906 875.1094,990.1563 Q875.375,990.4063 875.375,990.75 Q875.375,991.0938 875.0313,991.5 Q874.5313,992.0781 873.7344,992.4063 Q872.6563,992.8594 871.3594,992.8594 Q869.8438,992.8594 868.6406,992.2344 Q867.6563,991.7344 866.9688,990.6719 Q866.2813,989.5938 866.2813,988.3125 L866.2813,987.1563 Q866.2813,985.8281 866.8906,984.6875 Q867.5156,983.5313 868.6094,982.9219 Q869.7031,982.2969 870.9375,982.2969 Q871.6719,982.2969 872.3125,982.4688 Q872.9688,982.625 873.5156,982.9844 Z " fill="#000000"/><text fill="#000000" font-family="sans-serif" font-size="14" lengthAdjust="spacing" textLength="117" x="891.25" y="992.8379">AnnouncementDto</text><line style="stroke:#181818;stroke-width:0.5;" x1="803.5" x2="1063.5" y1="1003.1094" y2="1003.1094"/><line style="stroke:#181818;stroke-width:0.5;" x1="803.5" x2="1063.5" y1="1011.1094" y2="1011.1094"/><text fill="#000000" font-family="sans-serif" font-size="14" lengthAdjust="spacing" textLength="241" x="808.5" y="1029.6426">+create(announcementId, requestInfo,</text><text fill="#000000" font-family="sans-serif" font-size="14" lengthAdjust="spacing" textLength="228" x="812.5" y="1047.252">saleDate, saleAmount, requestDate,</text><text fill="#000000" font-family="sans-serif" font-size="14" lengthAdjust="spacing" textLength="246" x="812.5" y="1064.8613">commissionInfo, agentName, agencyId)</text></g><g id="elem_GMN8"><path d="M636,727.6094 L636,835.7188 A0,0 0 0 0 636,835.7188 L766.37,835.7188 L889.65,970.9094 L774.37,835.7188 L811,835.7188 A0,0 0 0 0 811,835.7188 L811,737.6094 L801,727.6094 L636,727.6094 A0,0 0 0 0 636,727.6094 " fill="#FEFFDD" style="stroke:#181818;stroke-width:0.5;"/><path d="M801,727.6094 L801,737.6094 L811,737.6094 L801,727.6094 " fill="#FEFFDD" style="stroke:#181818;stroke-width:0.5;"/><text fill="#000000" font-family="sans-serif" font-size="13" lengthAdjust="spacing" textLength="123" x="642" y="746.1045">- requestInfo is String</text><text fill="#000000" font-family="sans-serif" font-size="13" lengthAdjust="spacing" textLength="138" x="646" y="762.4561">from the Announcement</text><text fill="#000000" font-family="sans-serif" font-size="13" lengthAdjust="spacing" textLength="114" x="646" y="778.8076">Request's toString()</text><text fill="#000000" font-family="sans-serif" font-size="13" lengthAdjust="spacing" textLength="112" x="642" y="795.1592">- commissionInfo is</text><text fill="#000000" font-family="sans-serif" font-size="13" lengthAdjust="spacing" textLength="154" x="642" y="811.5107">String from Announcement</text><text fill="#000000" font-family="sans-serif" font-size="13" lengthAdjust="spacing" textLength="138" x="642" y="827.8623">Commission's toString()</text></g><!--class Announcement--><g id="elem_Announcement"><rect codeLine="59" fill="#F1F1F1" height="382.5781" id="Announcement" rx="2.5" ry="2.5" style="stroke:#181818;stroke-width:0.5;" width="188" x="637.5" y="1158.6094"/><ellipse cx="679.95" cy="1174.6094" fill="#ADD1B2" rx="11" ry="11" style="stroke:#181818;stroke-width:1.0;"/><path d="M682.7156,1170.4844 Q682.8719,1170.2656 683.0594,1170.1563 Q683.2469,1170.0469 683.4656,1170.0469 Q683.8406,1170.0469 684.075,1170.3125 Q684.3094,1170.5625 684.3094,1171.1719 L684.3094,1172.625 Q684.3094,1173.2344 684.075,1173.5 Q683.8406,1173.7656 683.4656,1173.7656 Q683.1219,1173.7656 682.9188,1173.5625 Q682.7156,1173.375 682.6063,1172.8594 Q682.5594,1172.5 682.3719,1172.3125 Q682.0438,1171.9375 681.4344,1171.7188 Q680.825,1171.5 680.2,1171.5 Q679.4344,1171.5 678.7938,1171.8281 Q678.1688,1172.1563 677.6688,1172.9063 Q677.1844,1173.6563 677.1844,1174.6875 L677.1844,1175.7813 Q677.1844,1177.0156 678.075,1177.8438 Q678.9656,1178.6563 680.5594,1178.6563 Q681.4969,1178.6563 682.1531,1178.4063 Q682.5438,1178.25 682.9656,1177.8125 Q683.2313,1177.5469 683.3719,1177.4688 Q683.5281,1177.3906 683.7313,1177.3906 Q684.0594,1177.3906 684.3094,1177.6563 Q684.575,1177.9063 684.575,1178.25 Q684.575,1178.5938 684.2313,1179 Q683.7313,1179.5781 682.9344,1179.9063 Q681.8563,1180.3594 680.5594,1180.3594 Q679.0438,1180.3594 677.8406,1179.7344 Q676.8563,1179.2344 676.1688,1178.1719 Q675.4813,1177.0938 675.4813,1175.8125 L675.4813,1174.6563 Q675.4813,1173.3281 676.0906,1172.1875 Q676.7156,1171.0313 677.8094,1170.4219 Q678.9031,1169.7969 680.1375,1169.7969 Q680.8719,1169.7969 681.5125,1169.9688 Q682.1688,1170.125 682.7156,1170.4844 Z " fill="#000000"/><text fill="#000000" font-family="sans-serif" font-size="14" lengthAdjust="spacing" textLength="95" x="700.05" y="1180.3379">Announcement</text><line style="stroke:#181818;stroke-width:0.5;" x1="638.5" x2="824.5" y1="1190.6094" y2="1190.6094"/><text fill="#000000" font-family="sans-serif" font-size="14" lengthAdjust="spacing" textLength="176" x="643.5" y="1209.1426">-LocalDate acceptanceDate</text><text fill="#000000" font-family="sans-serif" font-size="14" lengthAdjust="spacing" textLength="129" x="643.5" y="1226.752">-LocalDate saleDate</text><text fill="#000000" font-family="sans-serif" font-size="14" lengthAdjust="spacing" textLength="128" x="643.5" y="1244.3613">-Double saleAmount</text><text fill="#000000" font-family="sans-serif" font-size="14" lengthAdjust="spacing" textLength="158" x="643.5" y="1261.9707">-Commission commission</text><text fill="#000000" font-family="sans-serif" font-size="14" lengthAdjust="spacing" textLength="110" x="643.5" y="1279.5801">-Request request</text><text fill="#000000" font-family="sans-serif" font-size="14" lengthAdjust="spacing" textLength="107" x="643.5" y="1297.1895">-Employee agent</text><text fill="#000000" font-family="sans-serif" font-size="14" lengthAdjust="spacing" textLength="64" x="643.5" y="1314.7988">-Integer id</text><text fill="#000000" font-family="sans-serif" font-size="14" lengthAdjust="spacing" textLength="158" x="643.5" y="1332.4082">-Commission commission</text><text fill="#000000" font-family="sans-serif" font-size="14" lengthAdjust="spacing" textLength="109" x="643.5" y="1350.0176">-OrderList orders</text><text fill="#000000" font-family="sans-serif" font-size="14" lengthAdjust="spacing" textLength="119" x="643.5" y="1367.627">-List&lt;Visit&gt; visitList</text><line style="stroke:#181818;stroke-width:0.5;" x1="638.5" x2="824.5" y1="1374.7031" y2="1374.7031"/><text fill="#000000" font-family="sans-serif" font-size="14" lengthAdjust="spacing" textLength="64" x="643.5" y="1393.2363">+isItDeal()</text><text fill="#000000" font-family="sans-serif" font-size="14" lengthAdjust="spacing" textLength="96" x="643.5" y="1410.8457">+getSaleDate()</text><text fill="#000000" font-family="sans-serif" font-size="14" lengthAdjust="spacing" textLength="49" x="643.5" y="1428.4551">+getId()</text><text fill="#000000" font-family="sans-serif" font-size="14" lengthAdjust="spacing" textLength="121" x="643.5" y="1446.0645">+getRequestDate()</text><text fill="#000000" font-family="sans-serif" font-size="14" lengthAdjust="spacing" textLength="137" x="643.5" y="1463.6738">+getCommissionInfo()</text><text fill="#000000" font-family="sans-serif" font-size="14" lengthAdjust="spacing" textLength="114" x="643.5" y="1481.2832">+getSaleAmount()</text><text fill="#000000" font-family="sans-serif" font-size="14" lengthAdjust="spacing" textLength="114" x="643.5" y="1498.8926">+getRequestInfo()</text><text fill="#000000" font-family="sans-serif" font-size="14" lengthAdjust="spacing" textLength="111" x="643.5" y="1516.502">+getAgentName()</text><text fill="#000000" font-family="sans-serif" font-size="14" lengthAdjust="spacing" textLength="133" x="643.5" y="1534.1113">+getAgentAgencyId()</text></g><path d="M403,1307.6094 L403,1383.0156 A0,0 0 0 0 403,1383.0156 L602,1383.0156 A0,0 0 0 0 602,1383.0156 L602,1349.3125 L641.5,1387.5078 L602,1341.3125 L602,1317.6094 L592,1307.6094 L403,1307.6094 A0,0 0 0 0 403,1307.6094 " fill="#FEFFDD" style="stroke:#181818;stroke-width:0.5;"/><path d="M592,1307.6094 L592,1317.6094 L602,1317.6094 L592,1307.6094 " fill="#FEFFDD" style="stroke:#181818;stroke-width:0.5;"/><text fill="#000000" font-family="sans-serif" font-size="13" lengthAdjust="spacing" textLength="149" x="409" y="1326.1045">This method checks if the</text><text fill="#000000" font-family="sans-serif" font-size="13" lengthAdjust="spacing" textLength="178" x="409" y="1342.4561">saleDate of the Announcement</text><text fill="#000000" font-family="sans-serif" font-size="13" lengthAdjust="spacing" textLength="177" x="409" y="1358.8076">is different from the default one</text><text fill="#000000" font-family="sans-serif" font-size="13" lengthAdjust="spacing" textLength="37" x="409" y="1375.1592">(1-1-1)</text><!--class Commission--><g id="elem_Commission"><rect codeLine="89" fill="#F1F1F1" height="100.8281" id="Commission" rx="2.5" ry="2.5" style="stroke:#181818;stroke-width:0.5;" width="234" x="956.5" y="1299.6094"/><ellipse cx="1031.25" cy="1315.6094" fill="#ADD1B2" rx="11" ry="11" style="stroke:#181818;stroke-width:1.0;"/><path d="M1034.0156,1311.4844 Q1034.1719,1311.2656 1034.3594,1311.1563 Q1034.5469,1311.0469 1034.7656,1311.0469 Q1035.1406,1311.0469 1035.375,1311.3125 Q1035.6094,1311.5625 1035.6094,1312.1719 L1035.6094,1313.625 Q1035.6094,1314.2344 1035.375,1314.5 Q1035.1406,1314.7656 1034.7656,1314.7656 Q1034.4219,1314.7656 1034.2188,1314.5625 Q1034.0156,1314.375 1033.9063,1313.8594 Q1033.8594,1313.5 1033.6719,1313.3125 Q1033.3438,1312.9375 1032.7344,1312.7188 Q1032.125,1312.5 1031.5,1312.5 Q1030.7344,1312.5 1030.0938,1312.8281 Q1029.4688,1313.1563 1028.9688,1313.9063 Q1028.4844,1314.6563 1028.4844,1315.6875 L1028.4844,1316.7813 Q1028.4844,1318.0156 1029.375,1318.8438 Q1030.2656,1319.6563 1031.8594,1319.6563 Q1032.7969,1319.6563 1033.4531,1319.4063 Q1033.8438,1319.25 1034.2656,1318.8125 Q1034.5313,1318.5469 1034.6719,1318.4688 Q1034.8281,1318.3906 1035.0313,1318.3906 Q1035.3594,1318.3906 1035.6094,1318.6563 Q1035.875,1318.9063 1035.875,1319.25 Q1035.875,1319.5938 1035.5313,1320 Q1035.0313,1320.5781 1034.2344,1320.9063 Q1033.1563,1321.3594 1031.8594,1321.3594 Q1030.3438,1321.3594 1029.1406,1320.7344 Q1028.1563,1320.2344 1027.4688,1319.1719 Q1026.7813,1318.0938 1026.7813,1316.8125 L1026.7813,1315.6563 Q1026.7813,1314.3281 1027.3906,1313.1875 Q1028.0156,1312.0313 1029.1094,1311.4219 Q1030.2031,1310.7969 1031.4375,1310.7969 Q1032.1719,1310.7969 1032.8125,1310.9688 Q1033.4688,1311.125 1034.0156,1311.4844 Z " fill="#000000"/><text fill="#000000" font-family="sans-serif" font-size="14" lengthAdjust="spacing" textLength="76" x="1051.75" y="1321.3379">Commission</text><line style="stroke:#181818;stroke-width:0.5;" x1="957.5" x2="1189.5" y1="1331.6094" y2="1331.6094"/><text fill="#000000" font-family="sans-serif" font-size="14" lengthAdjust="spacing" textLength="163" x="962.5" y="1350.1426">-Double commissionValue</text><text fill="#000000" font-family="sans-serif" font-size="14" lengthAdjust="spacing" textLength="222" x="962.5" y="1367.752">-CommissionType commissionType</text><line style="stroke:#181818;stroke-width:0.5;" x1="957.5" x2="1189.5" y1="1374.8281" y2="1374.8281"/><text fill="#000000" font-family="sans-serif" font-size="14" lengthAdjust="spacing" textLength="67" x="962.5" y="1393.3613">+toString()</text></g><!--class Request--><g id="elem_Request"><rect codeLine="95" fill="#F1F1F1" height="171.2656" id="Request" rx="2.5" ry="2.5" style="stroke:#181818;stroke-width:0.5;" width="163" x="1226" y="1264.6094"/><ellipse cx="1276.75" cy="1280.6094" fill="#ADD1B2" rx="11" ry="11" style="stroke:#181818;stroke-width:1.0;"/><path d="M1279.5156,1276.4844 Q1279.6719,1276.2656 1279.8594,1276.1563 Q1280.0469,1276.0469 1280.2656,1276.0469 Q1280.6406,1276.0469 1280.875,1276.3125 Q1281.1094,1276.5625 1281.1094,1277.1719 L1281.1094,1278.625 Q1281.1094,1279.2344 1280.875,1279.5 Q1280.6406,1279.7656 1280.2656,1279.7656 Q1279.9219,1279.7656 1279.7188,1279.5625 Q1279.5156,1279.375 1279.4063,1278.8594 Q1279.3594,1278.5 1279.1719,1278.3125 Q1278.8438,1277.9375 1278.2344,1277.7188 Q1277.625,1277.5 1277,1277.5 Q1276.2344,1277.5 1275.5938,1277.8281 Q1274.9688,1278.1563 1274.4688,1278.9063 Q1273.9844,1279.6563 1273.9844,1280.6875 L1273.9844,1281.7813 Q1273.9844,1283.0156 1274.875,1283.8438 Q1275.7656,1284.6563 1277.3594,1284.6563 Q1278.2969,1284.6563 1278.9531,1284.4063 Q1279.3438,1284.25 1279.7656,1283.8125 Q1280.0313,1283.5469 1280.1719,1283.4688 Q1280.3281,1283.3906 1280.5313,1283.3906 Q1280.8594,1283.3906 1281.1094,1283.6563 Q1281.375,1283.9063 1281.375,1284.25 Q1281.375,1284.5938 1281.0313,1285 Q1280.5313,1285.5781 1279.7344,1285.9063 Q1278.6563,1286.3594 1277.3594,1286.3594 Q1275.8438,1286.3594 1274.6406,1285.7344 Q1273.6563,1285.2344 1272.9688,1284.1719 Q1272.2813,1283.0938 1272.2813,1281.8125 L1272.2813,1280.6563 Q1272.2813,1279.3281 1272.8906,1278.1875 Q1273.5156,1277.0313 1274.6094,1276.4219 Q1275.7031,1275.7969 1276.9375,1275.7969 Q1277.6719,1275.7969 1278.3125,1275.9688 Q1278.9688,1276.125 1279.5156,1276.4844 Z " fill="#000000"/><text fill="#000000" font-family="sans-serif" font-size="14" lengthAdjust="spacing" textLength="53" x="1297.25" y="1286.3379">Request</text><line style="stroke:#181818;stroke-width:0.5;" x1="1227" x2="1388" y1="1296.6094" y2="1296.6094"/><text fill="#000000" font-family="sans-serif" font-size="14" lengthAdjust="spacing" textLength="151" x="1232" y="1315.1426">-LocalDate requestDate</text><text fill="#000000" font-family="sans-serif" font-size="14" lengthAdjust="spacing" textLength="64" x="1232" y="1332.752">-Integer id</text><text fill="#000000" font-family="sans-serif" font-size="14" lengthAdjust="spacing" textLength="133" x="1232" y="1350.3613">-Employee Employee</text><text fill="#000000" font-family="sans-serif" font-size="14" lengthAdjust="spacing" textLength="115" x="1232" y="1367.9707">-Email ownerEmail</text><text fill="#000000" font-family="sans-serif" font-size="14" lengthAdjust="spacing" textLength="122" x="1232" y="1385.5801">-Business business</text><text fill="#000000" font-family="sans-serif" font-size="14" lengthAdjust="spacing" textLength="116" x="1232" y="1403.1895">-Property property</text><line style="stroke:#181818;stroke-width:0.5;" x1="1227" x2="1388" y1="1410.2656" y2="1410.2656"/><text fill="#000000" font-family="sans-serif" font-size="14" lengthAdjust="spacing" textLength="67" x="1232" y="1428.7988">+toString()</text></g><!--class AgencyRepository--><g id="elem_AgencyRepository"><rect codeLine="105" fill="#F1F1F1" height="65.6094" id="AgencyRepository" rx="2.5" ry="2.5" style="stroke:#181818;stroke-width:0.5;" width="203" x="287" y="473.1094"/><ellipse cx="327.2" cy="489.1094" fill="#ADD1B2" rx="11" ry="11" style="stroke:#181818;stroke-width:1.0;"/><path d="M329.9656,484.9844 Q330.1219,484.7656 330.3094,484.6563 Q330.4969,484.5469 330.7156,484.5469 Q331.0906,484.5469 331.325,484.8125 Q331.5594,485.0625 331.5594,485.6719 L331.5594,487.125 Q331.5594,487.7344 331.325,488 Q331.0906,488.2656 330.7156,488.2656 Q330.3719,488.2656 330.1688,488.0625 Q329.9656,487.875 329.8563,487.3594 Q329.8094,487 329.6219,486.8125 Q329.2938,486.4375 328.6844,486.2188 Q328.075,486 327.45,486 Q326.6844,486 326.0438,486.3281 Q325.4188,486.6563 324.9188,487.4063 Q324.4344,488.1563 324.4344,489.1875 L324.4344,490.2813 Q324.4344,491.5156 325.325,492.3438 Q326.2156,493.1563 327.8094,493.1563 Q328.7469,493.1563 329.4031,492.9063 Q329.7938,492.75 330.2156,492.3125 Q330.4813,492.0469 330.6219,491.9688 Q330.7781,491.8906 330.9813,491.8906 Q331.3094,491.8906 331.5594,492.1563 Q331.825,492.4063 331.825,492.75 Q331.825,493.0938 331.4813,493.5 Q330.9813,494.0781 330.1844,494.4063 Q329.1063,494.8594 327.8094,494.8594 Q326.2938,494.8594 325.0906,494.2344 Q324.1063,493.7344 323.4188,492.6719 Q322.7313,491.5938 322.7313,490.3125 L322.7313,489.1563 Q322.7313,487.8281 323.3406,486.6875 Q323.9656,485.5313 325.0594,484.9219 Q326.1531,484.2969 327.3875,484.2969 Q328.1219,484.2969 328.7625,484.4688 Q329.4188,484.625 329.9656,484.9844 Z " fill="#000000"/><text fill="#000000" font-family="sans-serif" font-size="14" lengthAdjust="spacing" textLength="115" x="346.8" y="494.8379">AgencyRepository</text><line style="stroke:#181818;stroke-width:0.5;" x1="288" x2="489" y1="505.1094" y2="505.1094"/><line style="stroke:#181818;stroke-width:0.5;" x1="288" x2="489" y1="513.1094" y2="513.1094"/><text fill="#000000" font-family="sans-serif" font-size="14" lengthAdjust="spacing" textLength="191" x="293" y="531.6426">+getAllDealsAnnouncements()</text></g><!--class Repositories--><g id="elem_Repositories"><rect codeLine="109" fill="#F1F1F1" height="100.8281" id="Repositories" rx="2.5" ry="2.5" style="stroke:#181818;stroke-width:0.5;" width="189" x="525" y="455.6094"/><ellipse cx="575.75" cy="471.6094" fill="#ADD1B2" rx="11" ry="11" style="stroke:#181818;stroke-width:1.0;"/><path d="M578.5156,467.4844 Q578.6719,467.2656 578.8594,467.1563 Q579.0469,467.0469 579.2656,467.0469 Q579.6406,467.0469 579.875,467.3125 Q580.1094,467.5625 580.1094,468.1719 L580.1094,469.625 Q580.1094,470.2344 579.875,470.5 Q579.6406,470.7656 579.2656,470.7656 Q578.9219,470.7656 578.7188,470.5625 Q578.5156,470.375 578.4063,469.8594 Q578.3594,469.5 578.1719,469.3125 Q577.8438,468.9375 577.2344,468.7188 Q576.625,468.5 576,468.5 Q575.2344,468.5 574.5938,468.8281 Q573.9688,469.1563 573.4688,469.9063 Q572.9844,470.6563 572.9844,471.6875 L572.9844,472.7813 Q572.9844,474.0156 573.875,474.8438 Q574.7656,475.6563 576.3594,475.6563 Q577.2969,475.6563 577.9531,475.4063 Q578.3438,475.25 578.7656,474.8125 Q579.0313,474.5469 579.1719,474.4688 Q579.3281,474.3906 579.5313,474.3906 Q579.8594,474.3906 580.1094,474.6563 Q580.375,474.9063 580.375,475.25 Q580.375,475.5938 580.0313,476 Q579.5313,476.5781 578.7344,476.9063 Q577.6563,477.3594 576.3594,477.3594 Q574.8438,477.3594 573.6406,476.7344 Q572.6563,476.2344 571.9688,475.1719 Q571.2813,474.0938 571.2813,472.8125 L571.2813,471.6563 Q571.2813,470.3281 571.8906,469.1875 Q572.5156,468.0313 573.6094,467.4219 Q574.7031,466.7969 575.9375,466.7969 Q576.6719,466.7969 577.3125,466.9688 Q577.9688,467.125 578.5156,467.4844 Z " fill="#000000"/><text fill="#000000" font-family="sans-serif" font-size="14" lengthAdjust="spacing" textLength="79" x="596.25" y="477.3379">Repositories</text><line style="stroke:#181818;stroke-width:0.5;" x1="526" x2="713" y1="487.6094" y2="487.6094"/><line style="stroke:#181818;stroke-width:0.5;" x1="526" x2="713" y1="495.6094" y2="495.6094"/><text fill="#000000" font-family="sans-serif" font-size="14" lengthAdjust="spacing" textLength="94" x="531" y="514.1426">-Repositories()</text><text fill="#000000" font-family="sans-serif" font-size="14" lengthAdjust="spacing" textLength="177" x="531" y="531.752">+getInstance() : repositories</text><text fill="#000000" font-family="sans-serif" font-size="14" lengthAdjust="spacing" textLength="153" x="531" y="549.3613">+getAgencyRepository()</text></g><!--class ListDealsNetworkController--><g id="elem_ListDealsNetworkController"><rect codeLine="115" fill="#F1F1F1" height="136.0469" id="ListDealsNetworkController" rx="2.5" ry="2.5" style="stroke:#181818;stroke-width:0.5;" width="351" x="653" y="197.6094"/><ellipse cx="739.25" cy="213.6094" fill="#ADD1B2" rx="11" ry="11" style="stroke:#181818;stroke-width:1.0;"/><path d="M742.0156,209.4844 Q742.1719,209.2656 742.3594,209.1563 Q742.5469,209.0469 742.7656,209.0469 Q743.1406,209.0469 743.375,209.3125 Q743.6094,209.5625 743.6094,210.1719 L743.6094,211.625 Q743.6094,212.2344 743.375,212.5 Q743.1406,212.7656 742.7656,212.7656 Q742.4219,212.7656 742.2188,212.5625 Q742.0156,212.375 741.9063,211.8594 Q741.8594,211.5 741.6719,211.3125 Q741.3438,210.9375 740.7344,210.7188 Q740.125,210.5 739.5,210.5 Q738.7344,210.5 738.0938,210.8281 Q737.4688,211.1563 736.9688,211.9063 Q736.4844,212.6563 736.4844,213.6875 L736.4844,214.7813 Q736.4844,216.0156 737.375,216.8438 Q738.2656,217.6563 739.8594,217.6563 Q740.7969,217.6563 741.4531,217.4063 Q741.8438,217.25 742.2656,216.8125 Q742.5313,216.5469 742.6719,216.4688 Q742.8281,216.3906 743.0313,216.3906 Q743.3594,216.3906 743.6094,216.6563 Q743.875,216.9063 743.875,217.25 Q743.875,217.5938 743.5313,218 Q743.0313,218.5781 742.2344,218.9063 Q741.1563,219.3594 739.8594,219.3594 Q738.3438,219.3594 737.1406,218.7344 Q736.1563,218.2344 735.4688,217.1719 Q734.7813,216.0938 734.7813,214.8125 L734.7813,213.6563 Q734.7813,212.3281 735.3906,211.1875 Q736.0156,210.0313 737.1094,209.4219 Q738.2031,208.7969 739.4375,208.7969 Q740.1719,208.7969 740.8125,208.9688 Q741.4688,209.125 742.0156,209.4844 Z " fill="#000000"/><text fill="#000000" font-family="sans-serif" font-size="14" lengthAdjust="spacing" textLength="170" x="759.75" y="219.3379">ListDealsNetworkController</text><line style="stroke:#181818;stroke-width:0.5;" x1="654" x2="1003" y1="229.6094" y2="229.6094"/><line style="stroke:#181818;stroke-width:0.5;" x1="654" x2="1003" y1="237.6094" y2="237.6094"/><text fill="#000000" font-family="sans-serif" font-size="14" lengthAdjust="spacing" textLength="303" x="659" y="256.1426">+ListDealsNetworkController(AgencyRepository)</text><text fill="#000000" font-family="sans-serif" font-size="14" lengthAdjust="spacing" textLength="111" x="659" y="273.752">+getAllDealsList()</text><text fill="#000000" font-family="sans-serif" font-size="14" lengthAdjust="spacing" textLength="323" x="659" y="291.3613">+getListSortedByAlgorithm(sortingOrder, algorithm)</text><text fill="#000000" font-family="sans-serif" font-size="14" lengthAdjust="spacing" textLength="339" x="659" y="308.9707">+getSortedList(algorithm, sortingOrder, listOfAllDeals)</text><text fill="#000000" font-family="sans-serif" font-size="14" lengthAdjust="spacing" textLength="187" x="659" y="326.5801">+convertToDto(listOfAllDeals)</text></g><!--class SortingAlgorithm--><g id="elem_SortingAlgorithm"><rect codeLine="123" fill="#F1F1F1" height="78.8281" id="SortingAlgorithm" rx="2.5" ry="2.5" style="stroke:#181818;stroke-width:0.5;" width="136" x="1039.5" y="226.1094"/><ellipse cx="1054.5" cy="248.7188" fill="#B4A7E5" rx="11" ry="11" style="stroke:#181818;stroke-width:1.0;"/><path d="M1055.4531,245.3594 L1055.4531,252.0156 L1057.1719,252.0156 Q1057.7813,252.0156 1058.0469,252.25 Q1058.3125,252.4844 1058.3125,252.875 Q1058.3125,253.25 1058.0469,253.4844 Q1057.7813,253.7188 1057.1719,253.7188 L1052.0313,253.7188 Q1051.4219,253.7188 1051.1563,253.4844 Q1050.8906,253.25 1050.8906,252.8594 Q1050.8906,252.4844 1051.1563,252.25 Q1051.4219,252.0156 1052.0313,252.0156 L1053.75,252.0156 L1053.75,245.3594 L1052.0313,245.3594 Q1051.4219,245.3594 1051.1563,245.125 Q1050.8906,244.8906 1050.8906,244.5 Q1050.8906,244.125 1051.1563,243.8906 Q1051.4219,243.6563 1052.0313,243.6563 L1057.1719,243.6563 Q1057.7813,243.6563 1058.0469,243.8906 Q1058.3125,244.125 1058.3125,244.5 Q1058.3125,244.8906 1058.0469,245.125 Q1057.7813,245.3594 1057.1719,245.3594 L1055.4531,245.3594 Z " fill="#000000"/><text fill="#000000" font-family="sans-serif" font-size="14" font-style="italic" font-weight="bold" lengthAdjust="spacing" textLength="75" x="1083" y="245.6426">«Interface»</text><text fill="#000000" font-family="sans-serif" font-size="14" font-style="italic" lengthAdjust="spacing" textLength="104" x="1068.5" y="263.252">SortingAlgorithm</text><line style="stroke:#181818;stroke-width:0.5;" x1="1040.5" x2="1174.5" y1="271.3281" y2="271.3281"/><line style="stroke:#181818;stroke-width:0.5;" x1="1040.5" x2="1174.5" y1="279.3281" y2="279.3281"/><text fill="#000000" font-family="sans-serif" font-size="14" lengthAdjust="spacing" textLength="98" x="1045.5" y="297.8613">-sort(order, list)</text></g><!--class MergeAlgorithm--><g id="elem_MergeAlgorithm"><rect codeLine="127" fill="#F1F1F1" height="65.6094" id="MergeAlgorithm" rx="2.5" ry="2.5" style="stroke:#181818;stroke-width:0.5;" width="222" x="996.5" y="473.1094"/><ellipse cx="1053.75" cy="489.1094" fill="#ADD1B2" rx="11" ry="11" style="stroke:#181818;stroke-width:1.0;"/><path d="M1056.5156,484.9844 Q1056.6719,484.7656 1056.8594,484.6563 Q1057.0469,484.5469 1057.2656,484.5469 Q1057.6406,484.5469 1057.875,484.8125 Q1058.1094,485.0625 1058.1094,485.6719 L1058.1094,487.125 Q1058.1094,487.7344 1057.875,488 Q1057.6406,488.2656 1057.2656,488.2656 Q1056.9219,488.2656 1056.7188,488.0625 Q1056.5156,487.875 1056.4063,487.3594 Q1056.3594,487 1056.1719,486.8125 Q1055.8438,486.4375 1055.2344,486.2188 Q1054.625,486 1054,486 Q1053.2344,486 1052.5938,486.3281 Q1051.9688,486.6563 1051.4688,487.4063 Q1050.9844,488.1563 1050.9844,489.1875 L1050.9844,490.2813 Q1050.9844,491.5156 1051.875,492.3438 Q1052.7656,493.1563 1054.3594,493.1563 Q1055.2969,493.1563 1055.9531,492.9063 Q1056.3438,492.75 1056.7656,492.3125 Q1057.0313,492.0469 1057.1719,491.9688 Q1057.3281,491.8906 1057.5313,491.8906 Q1057.8594,491.8906 1058.1094,492.1563 Q1058.375,492.4063 1058.375,492.75 Q1058.375,493.0938 1058.0313,493.5 Q1057.5313,494.0781 1056.7344,494.4063 Q1055.6563,494.8594 1054.3594,494.8594 Q1052.8438,494.8594 1051.6406,494.2344 Q1050.6563,493.7344 1049.9688,492.6719 Q1049.2813,491.5938 1049.2813,490.3125 L1049.2813,489.1563 Q1049.2813,487.8281 1049.8906,486.6875 Q1050.5156,485.5313 1051.6094,484.9219 Q1052.7031,484.2969 1053.9375,484.2969 Q1054.6719,484.2969 1055.3125,484.4688 Q1055.9688,484.625 1056.5156,484.9844 Z " fill="#000000"/><text fill="#000000" font-family="sans-serif" font-size="14" lengthAdjust="spacing" textLength="99" x="1074.25" y="494.8379">MergeAlgorithm</text><line style="stroke:#181818;stroke-width:0.5;" x1="997.5" x2="1217.5" y1="505.1094" y2="505.1094"/><line style="stroke:#181818;stroke-width:0.5;" x1="997.5" x2="1217.5" y1="513.1094" y2="513.1094"/><text fill="#000000" font-family="sans-serif" font-size="14" lengthAdjust="spacing" textLength="210" x="1002.5" y="531.6426">-sort(sortingOrder, listOfAllDeals)</text></g><!--class BubbleAlgorithm--><g id="elem_BubbleAlgorithm"><rect codeLine="131" fill="#F1F1F1" height="65.6094" id="BubbleAlgorithm" rx="2.5" ry="2.5" style="stroke:#181818;stroke-width:0.5;" width="222" x="1292.5" y="232.6094"/><ellipse cx="1347.75" cy="248.6094" fill="#ADD1B2" rx="11" ry="11" style="stroke:#181818;stroke-width:1.0;"/><path d="M1350.5156,244.4844 Q1350.6719,244.2656 1350.8594,244.1563 Q1351.0469,244.0469 1351.2656,244.0469 Q1351.6406,244.0469 1351.875,244.3125 Q1352.1094,244.5625 1352.1094,245.1719 L1352.1094,246.625 Q1352.1094,247.2344 1351.875,247.5 Q1351.6406,247.7656 1351.2656,247.7656 Q1350.9219,247.7656 1350.7188,247.5625 Q1350.5156,247.375 1350.4063,246.8594 Q1350.3594,246.5 1350.1719,246.3125 Q1349.8438,245.9375 1349.2344,245.7188 Q1348.625,245.5 1348,245.5 Q1347.2344,245.5 1346.5938,245.8281 Q1345.9688,246.1563 1345.4688,246.9063 Q1344.9844,247.6563 1344.9844,248.6875 L1344.9844,249.7813 Q1344.9844,251.0156 1345.875,251.8438 Q1346.7656,252.6563 1348.3594,252.6563 Q1349.2969,252.6563 1349.9531,252.4063 Q1350.3438,252.25 1350.7656,251.8125 Q1351.0313,251.5469 1351.1719,251.4688 Q1351.3281,251.3906 1351.5313,251.3906 Q1351.8594,251.3906 1352.1094,251.6563 Q1352.375,251.9063 1352.375,252.25 Q1352.375,252.5938 1352.0313,253 Q1351.5313,253.5781 1350.7344,253.9063 Q1349.6563,254.3594 1348.3594,254.3594 Q1346.8438,254.3594 1345.6406,253.7344 Q1344.6563,253.2344 1343.9688,252.1719 Q1343.2813,251.0938 1343.2813,249.8125 L1343.2813,248.6563 Q1343.2813,247.3281 1343.8906,246.1875 Q1344.5156,245.0313 1345.6094,244.4219 Q1346.7031,243.7969 1347.9375,243.7969 Q1348.6719,243.7969 1349.3125,243.9688 Q1349.9688,244.125 1350.5156,244.4844 Z " fill="#000000"/><text fill="#000000" font-family="sans-serif" font-size="14" lengthAdjust="spacing" textLength="103" x="1368.25" y="254.3379">BubbleAlgorithm</text><line style="stroke:#181818;stroke-width:0.5;" x1="1293.5" x2="1513.5" y1="264.6094" y2="264.6094"/><line style="stroke:#181818;stroke-width:0.5;" x1="1293.5" x2="1513.5" y1="272.6094" y2="272.6094"/><text fill="#000000" font-family="sans-serif" font-size="14" lengthAdjust="spacing" textLength="210" x="1298.5" y="291.1426">-sort(sortingOrder, listOfAllDeals)</text></g><g id="elem_GMN22"><path d="M737.5,44.6094 L737.5,136.3672 A0,0 0 0 0 737.5,136.3672 L824.5,136.3672 L828.5,197.3294 L832.5,136.3672 L919.5,136.3672 A0,0 0 0 0 919.5,136.3672 L919.5,54.6094 L909.5,44.6094 L737.5,44.6094 A0,0 0 0 0 737.5,44.6094 " fill="#FEFFDD" style="stroke:#181818;stroke-width:0.5;"/><path d="M909.5,44.6094 L909.5,54.6094 L919.5,54.6094 L909.5,44.6094 " fill="#FEFFDD" style="stroke:#181818;stroke-width:0.5;"/><text fill="#000000" font-family="sans-serif" font-size="13" lengthAdjust="spacing" textLength="161" x="743.5" y="63.1045">- sortingOrder and algorithm</text><text fill="#000000" font-family="sans-serif" font-size="13" lengthAdjust="spacing" textLength="152" x="743.5" y="79.4561">are retrieved from selected</text><text fill="#000000" font-family="sans-serif" font-size="13" lengthAdjust="spacing" textLength="25" x="743.5" y="95.8076">data</text><text fill="#000000" font-family="sans-serif" font-size="13" lengthAdjust="spacing" textLength="152" x="743.5" y="112.1592">- listOfAllDeals is retrieved</text><text fill="#000000" font-family="sans-serif" font-size="13" lengthAdjust="spacing" textLength="137" x="743.5" y="128.5107">from the sorting method</text></g><!--class ListDealsNetworkUI--><g id="elem_ListDealsNetworkUI"><rect codeLine="143" fill="#F1F1F1" height="48" id="ListDealsNetworkUI" rx="2.5" ry="2.5" style="stroke:#181818;stroke-width:0.5;" width="152" x="465.5" y="241.6094"/><ellipse cx="480.5" cy="257.6094" fill="#ADD1B2" rx="11" ry="11" style="stroke:#181818;stroke-width:1.0;"/><path d="M483.2656,253.4844 Q483.4219,253.2656 483.6094,253.1563 Q483.7969,253.0469 484.0156,253.0469 Q484.3906,253.0469 484.625,253.3125 Q484.8594,253.5625 484.8594,254.1719 L484.8594,255.625 Q484.8594,256.2344 484.625,256.5 Q484.3906,256.7656 484.0156,256.7656 Q483.6719,256.7656 483.4688,256.5625 Q483.2656,256.375 483.1563,255.8594 Q483.1094,255.5 482.9219,255.3125 Q482.5938,254.9375 481.9844,254.7188 Q481.375,254.5 480.75,254.5 Q479.9844,254.5 479.3438,254.8281 Q478.7188,255.1563 478.2188,255.9063 Q477.7344,256.6563 477.7344,257.6875 L477.7344,258.7813 Q477.7344,260.0156 478.625,260.8438 Q479.5156,261.6563 481.1094,261.6563 Q482.0469,261.6563 482.7031,261.4063 Q483.0938,261.25 483.5156,260.8125 Q483.7813,260.5469 483.9219,260.4688 Q484.0781,260.3906 484.2813,260.3906 Q484.6094,260.3906 484.8594,260.6563 Q485.125,260.9063 485.125,261.25 Q485.125,261.5938 484.7813,262 Q484.2813,262.5781 483.4844,262.9063 Q482.4063,263.3594 481.1094,263.3594 Q479.5938,263.3594 478.3906,262.7344 Q477.4063,262.2344 476.7188,261.1719 Q476.0313,260.0938 476.0313,258.8125 L476.0313,257.6563 Q476.0313,256.3281 476.6406,255.1875 Q477.2656,254.0313 478.3594,253.4219 Q479.4531,252.7969 480.6875,252.7969 Q481.4219,252.7969 482.0625,252.9688 Q482.7188,253.125 483.2656,253.4844 Z " fill="#000000"/><text fill="#000000" font-family="sans-serif" font-size="14" lengthAdjust="spacing" textLength="120" x="494.5" y="263.3379">ListDealsNetworkUI</text><line style="stroke:#181818;stroke-width:0.5;" x1="466.5" x2="616.5" y1="273.6094" y2="273.6094"/><line style="stroke:#181818;stroke-width:0.5;" x1="466.5" x2="616.5" y1="281.6094" y2="281.6094"/></g><!--class Person--><g id="elem_Person"><rect codeLine="146" fill="#F1F1F1" height="188.875" id="Person" rx="2.5" ry="2.5" style="stroke:#181818;stroke-width:0.5;" width="197" x="7" y="411.6094"/><ellipse cx="78.75" cy="427.6094" fill="#ADD1B2" rx="11" ry="11" style="stroke:#181818;stroke-width:1.0;"/><path d="M81.5156,423.4844 Q81.6719,423.2656 81.8594,423.1563 Q82.0469,423.0469 82.2656,423.0469 Q82.6406,423.0469 82.875,423.3125 Q83.1094,423.5625 83.1094,424.1719 L83.1094,425.625 Q83.1094,426.2344 82.875,426.5 Q82.6406,426.7656 82.2656,426.7656 Q81.9219,426.7656 81.7188,426.5625 Q81.5156,426.375 81.4063,425.8594 Q81.3594,425.5 81.1719,425.3125 Q80.8438,424.9375 80.2344,424.7188 Q79.625,424.5 79,424.5 Q78.2344,424.5 77.5938,424.8281 Q76.9688,425.1563 76.4688,425.9063 Q75.9844,426.6563 75.9844,427.6875 L75.9844,428.7813 Q75.9844,430.0156 76.875,430.8438 Q77.7656,431.6563 79.3594,431.6563 Q80.2969,431.6563 80.9531,431.4063 Q81.3438,431.25 81.7656,430.8125 Q82.0313,430.5469 82.1719,430.4688 Q82.3281,430.3906 82.5313,430.3906 Q82.8594,430.3906 83.1094,430.6563 Q83.375,430.9063 83.375,431.25 Q83.375,431.5938 83.0313,432 Q82.5313,432.5781 81.7344,432.9063 Q80.6563,433.3594 79.3594,433.3594 Q77.8438,433.3594 76.6406,432.7344 Q75.6563,432.2344 74.9688,431.1719 Q74.2813,430.0938 74.2813,428.8125 L74.2813,427.6563 Q74.2813,426.3281 74.8906,425.1875 Q75.5156,424.0313 76.6094,423.4219 Q77.7031,422.7969 78.9375,422.7969 Q79.6719,422.7969 80.3125,422.9688 Q80.9688,423.125 81.5156,423.4844 Z " fill="#000000"/><text fill="#000000" font-family="sans-serif" font-size="14" lengthAdjust="spacing" textLength="45" x="99.25" y="433.3379">Person</text><line style="stroke:#181818;stroke-width:0.5;" x1="8" x2="203" y1="443.6094" y2="443.6094"/><text fill="#000000" font-family="sans-serif" font-size="14" lengthAdjust="spacing" textLength="85" x="13" y="462.1426">-String name;</text><text fill="#000000" font-family="sans-serif" font-size="14" lengthAdjust="spacing" textLength="117" x="13" y="479.752">-String taxNumber;</text><text fill="#000000" font-family="sans-serif" font-size="14" lengthAdjust="spacing" textLength="132" x="13" y="497.3613">-Email emailAddress;</text><text fill="#000000" font-family="sans-serif" font-size="14" lengthAdjust="spacing" textLength="139" x="13" y="514.9707">-String phoneNumber;</text><text fill="#000000" font-family="sans-serif" font-size="14" lengthAdjust="spacing" textLength="185" x="13" y="532.5801">-String passportCardNumber;</text><text fill="#000000" font-family="sans-serif" font-size="14" lengthAdjust="spacing" textLength="119" x="13" y="550.1895">-List&lt;String&gt; roles;</text><text fill="#000000" font-family="sans-serif" font-size="14" lengthAdjust="spacing" textLength="116" x="13" y="567.7988">-Location location;</text><line style="stroke:#181818;stroke-width:0.5;" x1="8" x2="203" y1="574.875" y2="574.875"/><text fill="#000000" font-family="sans-serif" font-size="14" lengthAdjust="spacing" textLength="74" x="13" y="593.4082">+getName()</text></g><!--class Employee--><g id="elem_Employee"><rect codeLine="158" fill="#F1F1F1" height="100.8281" id="Employee" rx="2.5" ry="2.5" style="stroke:#181818;stroke-width:0.5;" width="115" x="48" y="731.1094"/><ellipse cx="72.45" cy="747.1094" fill="#ADD1B2" rx="11" ry="11" style="stroke:#181818;stroke-width:1.0;"/><path d="M75.2156,742.9844 Q75.3719,742.7656 75.5594,742.6563 Q75.7469,742.5469 75.9656,742.5469 Q76.3406,742.5469 76.575,742.8125 Q76.8094,743.0625 76.8094,743.6719 L76.8094,745.125 Q76.8094,745.7344 76.575,746 Q76.3406,746.2656 75.9656,746.2656 Q75.6219,746.2656 75.4188,746.0625 Q75.2156,745.875 75.1063,745.3594 Q75.0594,745 74.8719,744.8125 Q74.5438,744.4375 73.9344,744.2188 Q73.325,744 72.7,744 Q71.9344,744 71.2938,744.3281 Q70.6688,744.6563 70.1688,745.4063 Q69.6844,746.1563 69.6844,747.1875 L69.6844,748.2813 Q69.6844,749.5156 70.575,750.3438 Q71.4656,751.1563 73.0594,751.1563 Q73.9969,751.1563 74.6531,750.9063 Q75.0438,750.75 75.4656,750.3125 Q75.7313,750.0469 75.8719,749.9688 Q76.0281,749.8906 76.2313,749.8906 Q76.5594,749.8906 76.8094,750.1563 Q77.075,750.4063 77.075,750.75 Q77.075,751.0938 76.7313,751.5 Q76.2313,752.0781 75.4344,752.4063 Q74.3563,752.8594 73.0594,752.8594 Q71.5438,752.8594 70.3406,752.2344 Q69.3563,751.7344 68.6688,750.6719 Q67.9813,749.5938 67.9813,748.3125 L67.9813,747.1563 Q67.9813,745.8281 68.5906,744.6875 Q69.2156,743.5313 70.3094,742.9219 Q71.4031,742.2969 72.6375,742.2969 Q73.3719,742.2969 74.0125,742.4688 Q74.6688,742.625 75.2156,742.9844 Z " fill="#000000"/><text fill="#000000" font-family="sans-serif" font-size="14" lengthAdjust="spacing" textLength="62" x="88.55" y="752.8379">Employee</text><line style="stroke:#181818;stroke-width:0.5;" x1="49" x2="162" y1="763.1094" y2="763.1094"/><text fill="#000000" font-family="sans-serif" font-size="14" lengthAdjust="spacing" textLength="103" x="54" y="781.6426">-String agencyId</text><line style="stroke:#181818;stroke-width:0.5;" x1="49" x2="162" y1="788.7188" y2="788.7188"/><text fill="#000000" font-family="sans-serif" font-size="14" lengthAdjust="spacing" textLength="74" x="54" y="807.252">+getName()</text><text fill="#000000" font-family="sans-serif" font-size="14" lengthAdjust="spacing" textLength="96" x="54" y="824.8613">+getAgencyId()</text></g><!--link ListDealsNetworkUI to ListDealsNetworkController--><g id="link_ListDealsNetworkUI_ListDealsNetworkController"><path codeLine="167" d="M617.81,265.6094 C629.17,265.6094 637.17,265.6094 637.17,265.6094 C637.17,265.6094 641.2,265.6094 647.62,265.6094 " fill="none" id="ListDealsNetworkUI-to-ListDealsNetworkController" style="stroke:#181818;stroke-width:1.0;stroke-dasharray:7.0,7.0;"/><polygon fill="#181818" points="652.96,265.6094,643.96,261.6094,647.96,265.6094,643.96,269.6094,652.96,265.6094" style="stroke:#181818;stroke-width:1.0;"/></g><!--link Repositories to Repositories--><g id="link_Repositories_Repositories"><path codeLine="169" d="M714.08,482.1194 C734.34,484.5194 749,492.5094 749,506.1094 C749,518.5394 736.75,526.2894 719.17,529.3494 " fill="none" id="Repositories-to-Repositories" style="stroke:#181818;stroke-width:1.0;"/><polygon fill="#181818" points="714.08,530.0994,723.566,532.7482,719.0269,529.3723,722.4027,524.8332,714.08,530.0994" style="stroke:#181818;stroke-width:1.0;"/><text fill="#000000" font-family="sans-serif" font-size="13" lengthAdjust="spacing" textLength="49" x="755" y="511.6045">instance</text></g><!--link ListDealsNetworkController to Repositories--><g id="link_ListDealsNetworkController_Repositories"><path codeLine="171" d="M769.73,333.6794 C736.99,371.0294 696.8,416.8994 666.23,451.7794 " fill="none" id="ListDealsNetworkController-to-Repositories" style="stroke:#181818;stroke-width:1.0;stroke-dasharray:7.0,7.0;"/><polygon fill="#181818" points="662.93,455.5494,671.8746,451.427,666.2296,451.7927,665.8639,446.1477,662.93,455.5494" style="stroke:#181818;stroke-width:1.0;"/><text fill="#000000" font-family="sans-serif" font-size="13" lengthAdjust="spacing" textLength="67" x="744.5" y="378.1045">repositories</text></g><!--reverse link AgencyRepository to Repositories--><g id="link_AgencyRepository_Repositories"><path codeLine="173" d="M495.4,506.1094 C505.36,506.1094 516.12,506.1094 524.83,506.1094 " fill="none" id="AgencyRepository-backto-Repositories" style="stroke:#181818;stroke-width:1.0;"/><polygon fill="#181818" points="490.29,506.1094,499.29,510.1094,495.29,506.1094,499.29,502.1094,490.29,506.1094" style="stroke:#181818;stroke-width:1.0;"/><text fill="#000000" font-family="sans-serif" font-size="13" lengthAdjust="spacing" textLength="7" x="498.0222" y="503.0442">1</text></g><!--link ListDealsNetworkController to Agency--><g id="link_ListDealsNetworkController_Agency"><path codeLine="175" d="M824.88,333.7994 C819.62,431.3294 810.5,600.6094 810.5,600.6094 C810.5,600.6094 618.5,678.6094 618.5,678.6094 C618.5,678.6094 567.04,701.4294 512.8,725.4894 " fill="none" id="ListDealsNetworkController-to-Agency" style="stroke:#181818;stroke-width:1.0;stroke-dasharray:7.0,7.0;"/><polygon fill="#181818" points="508.22,727.5194,518.0689,727.5251,512.7902,725.4913,514.824,720.2127,508.22,727.5194" style="stroke:#181818;stroke-width:1.0;"/></g><!--link ListDealsNetworkController to SortingAlgorithm--><g id="link_ListDealsNetworkController_SortingAlgorithm"><path codeLine="177" d="M1004.19,265.6094 C1010.51,265.6094 1014.5,265.6094 1014.5,265.6094 C1014.5,265.6094 1022.72,265.6094 1034.28,265.6094 " fill="none" id="ListDealsNetworkController-to-SortingAlgorithm" style="stroke:#181818;stroke-width:1.0;stroke-dasharray:7.0,7.0;"/><polygon fill="#181818" points="1039.42,265.6094,1030.42,261.6094,1034.42,265.6094,1030.42,269.6094,1039.42,265.6094" style="stroke:#181818;stroke-width:1.0;"/></g><!--link ListDealsNetworkController to AgencyRepository--><g id="link_ListDealsNetworkController_AgencyRepository"><path codeLine="179" d="M679.75,333.7994 C595.78,371.7294 507.5,411.6094 507.5,411.6094 C507.5,411.6094 467.22,443.2594 433.53,469.7294 " fill="none" id="ListDealsNetworkController-to-AgencyRepository" style="stroke:#181818;stroke-width:1.0;stroke-dasharray:7.0,7.0;"/><polygon fill="#181818" points="429.45,472.9294,438.9931,470.4944,433.3751,469.8321,434.0374,464.2141,429.45,472.9294" style="stroke:#181818;stroke-width:1.0;"/></g><!--link AgencyRepository to Agency--><g id="link_AgencyRepository_Agency"><path codeLine="181" d="M388.5,539.2894 C388.5,572.2594 388.5,625.3494 388.5,673.3394 " fill="none" id="AgencyRepository-to-Agency" style="stroke:#181818;stroke-width:1.0;"/><polygon fill="#181818" points="388.5,678.5694,392.5,669.5694,388.5,673.5694,384.5,669.5694,388.5,678.5694" style="stroke:#181818;stroke-width:1.0;"/><polygon fill="#000000" points="393.5,644.7852,396.4389,635.7401,390.5611,635.7401,393.5,644.7852" style="stroke:#000000;stroke-width:1.0;"/><text fill="#000000" font-family="sans-serif" font-size="13" lengthAdjust="spacing" textLength="64" x="402.5" y="645.1045">aggregates</text><text fill="#000000" font-family="sans-serif" font-size="13" lengthAdjust="spacing" textLength="7" x="380.8766" y="560.1858">1</text><text fill="#000000" font-family="sans-serif" font-size="13" lengthAdjust="spacing" textLength="5" x="383.3164" y="667.9051">*</text></g><!--link Agency to AnnouncementList--><g id="link_Agency_AnnouncementList"><path codeLine="183" d="M388.5,884.9194 C388.5,909.4194 388.5,934.8694 388.5,957.0294 " fill="none" id="Agency-to-AnnouncementList" style="stroke:#181818;stroke-width:1.0;"/><polygon fill="#181818" points="388.5,962.2894,392.5,953.2894,388.5,957.2894,384.5,953.2894,388.5,962.2894" style="stroke:#181818;stroke-width:1.0;"/><polygon fill="#000000" points="393.5,928.7852,396.4389,919.7401,390.5611,919.7401,393.5,928.7852" style="stroke:#000000;stroke-width:1.0;"/><text fill="#000000" font-family="sans-serif" font-size="13" lengthAdjust="spacing" textLength="30" x="402.5" y="929.1045">owns</text><text fill="#000000" font-family="sans-serif" font-size="13" lengthAdjust="spacing" textLength="7" x="381.243" y="906.5839">1</text><text fill="#000000" font-family="sans-serif" font-size="13" lengthAdjust="spacing" textLength="7" x="381.0734" y="951.5746">1</text></g><!--link ListDealsNetworkController to AnnouncementMapper--><g id="link_ListDealsNetworkController_AnnouncementMapper"><path codeLine="185" d="M858.94,333.7194 C866.5,350.3894 872.5,363.6094 872.5,363.6094 C872.5,363.6094 913.15,641.4694 928.08,743.5594 " fill="none" id="ListDealsNetworkController-to-AnnouncementMapper" style="stroke:#181818;stroke-width:1.0;stroke-dasharray:7.0,7.0;"/><polygon fill="#181818" points="928.81,748.5794,931.4548,739.0923,928.0809,743.6328,923.5403,740.2589,928.81,748.5794" style="stroke:#181818;stroke-width:1.0;"/></g><!--link AnnouncementMapper to AnnouncementList--><g id="link_AnnouncementMapper_AnnouncementList"><path codeLine="187" d="M900.28,814.8794 C869.52,844.7694 828.5,884.6094 828.5,884.6094 C828.5,884.6094 558.5,962.6094 558.5,962.6094 C558.5,962.6094 553.96,964.1594 546.37,966.7494 " fill="none" id="AnnouncementMapper-to-AnnouncementList" style="stroke:#181818;stroke-width:1.0;stroke-dasharray:7.0,7.0;"/><polygon fill="#181818" points="541.26,968.4894,551.0697,969.3671,545.9919,966.874,548.485,961.7962,541.26,968.4894" style="stroke:#181818;stroke-width:1.0;"/></g><!--link AnnouncementMapper to Announcement--><g id="link_AnnouncementMapper_Announcement"><path codeLine="189" d="M960.14,814.7894 C1003,866.5594 1082.5,962.6094 1082.5,962.6094 C1082.5,962.6094 1082.5,1080.6094 1082.5,1080.6094 C1082.5,1080.6094 939.5,1158.6094 939.5,1158.6094 C939.5,1158.6094 883.52,1209.8794 829.64,1259.2294 " fill="none" id="AnnouncementMapper-to-Announcement" style="stroke:#181818;stroke-width:1.0;stroke-dasharray:7.0,7.0;"/><polygon fill="#181818" points="825.76,1262.7794,835.1006,1259.6563,829.4493,1259.4046,829.701,1253.7534,825.76,1262.7794" style="stroke:#181818;stroke-width:1.0;"/></g><!--link AnnouncementMapper to AnnouncementDto--><g id="link_AnnouncementMapper_AnnouncementDto"><path codeLine="191" d="M933.5,814.7094 C933.5,853.3894 933.5,919.0194 933.5,965.7794 " fill="none" id="AnnouncementMapper-to-AnnouncementDto" style="stroke:#181818;stroke-width:1.0;stroke-dasharray:7.0,7.0;"/><polygon fill="#181818" points="933.5,970.8194,937.5,961.8194,933.5,965.8194,929.5,961.8194,933.5,970.8194" style="stroke:#181818;stroke-width:1.0;"/></g><!--reverse link SortingAlgorithm to MergeAlgorithm--><g id="link_SortingAlgorithm_MergeAlgorithm"><path codeLine="193" d="M1107.5,325.2794 C1107.5,371.8994 1107.5,435.3494 1107.5,473.0794 " fill="none" id="SortingAlgorithm-backto-MergeAlgorithm" style="stroke:#181818;stroke-width:1.0;stroke-dasharray:7.0,7.0;"/><polygon fill="none" points="1100.5,325.1894,1107.5,305.1894,1114.5,325.1894,1100.5,325.1894" style="stroke:#181818;stroke-width:1.0;"/><polygon fill="#000000" points="1112.5,367.7852,1109.5611,376.8302,1115.4389,376.8302,1112.5,367.7852" style="stroke:#000000;stroke-width:1.0;"/><text fill="#000000" font-family="sans-serif" font-size="13" lengthAdjust="spacing" textLength="67" x="1121.5" y="378.1045">implements</text></g><!--reverse link SortingAlgorithm to BubbleAlgorithm--><g id="link_SortingAlgorithm_BubbleAlgorithm"><path codeLine="195" d="M1196.02,265.6094 C1226.29,265.6094 1260.54,265.6094 1292.37,265.6094 " fill="none" id="SortingAlgorithm-backto-BubbleAlgorithm" style="stroke:#181818;stroke-width:1.0;stroke-dasharray:7.0,7.0;"/><polygon fill="none" points="1195.78,272.6094,1175.78,265.6094,1195.78,258.6094,1195.78,272.6094" style="stroke:#181818;stroke-width:1.0;"/><polygon fill="#000000" points="1193,253.7852,1202.0451,256.7241,1202.0451,250.8462,1193,253.7852" style="stroke:#000000;stroke-width:1.0;"/><text fill="#000000" font-family="sans-serif" font-size="13" lengthAdjust="spacing" textLength="67" x="1207" y="259.1045">implements</text></g><!--link Person to Employee--><g id="link_Person_Employee"><path codeLine="205" d="M105.5,600.8494 C105.5,642.4094 105.5,689.8794 105.5,725.5894 " fill="none" id="Person-to-Employee" style="stroke:#181818;stroke-width:1.0;"/><polygon fill="#181818" points="105.5,730.7794,109.5,721.7794,105.5,725.7794,101.5,721.7794,105.5,730.7794" style="stroke:#181818;stroke-width:1.0;"/><polygon fill="#000000" points="110.5,634.7852,107.5611,643.8302,113.4389,643.8302,110.5,634.7852" style="stroke:#000000;stroke-width:1.0;"/><text fill="#000000" font-family="sans-serif" font-size="13" lengthAdjust="spacing" textLength="82" x="119.5" y="645.1045">represented in</text><text fill="#000000" font-family="sans-serif" font-size="13" lengthAdjust="spacing" textLength="7" x="98.243" y="621.907">1</text><text fill="#000000" font-family="sans-serif" font-size="13" lengthAdjust="spacing" textLength="7" x="98.0297" y="720.4044">1</text></g><!--link Employee to Announcement--><g id="link_Employee_Announcement"><path codeLine="206" d="M107.33,832.1494 C110.46,916.8894 116.5,1080.6094 116.5,1080.6094 C116.5,1080.6094 619.5,1158.6094 619.5,1158.6094 C619.5,1158.6094 625.53,1168.8694 634.8,1184.6294 " fill="none" id="Employee-to-Announcement" style="stroke:#181818;stroke-width:1.0;"/><polygon fill="#181818" points="637.49,1189.2194,636.3901,1179.4321,634.9618,1184.9057,629.4882,1183.4773,637.49,1189.2194" style="stroke:#181818;stroke-width:1.0;"/><polygon fill="#000000" points="117.3428,1019.0071,123.2304,1026.4762,126.4962,1021.5891,117.3428,1019.0071" style="stroke:#000000;stroke-width:1.0;"/><text fill="#000000" font-family="sans-serif" font-size="13" lengthAdjust="spacing" textLength="87" x="130.5" y="1027.1045">is published by</text><text fill="#000000" font-family="sans-serif" font-size="13" lengthAdjust="spacing" textLength="7" x="100.1056" y="853.546">1</text><text fill="#000000" font-family="sans-serif" font-size="13" lengthAdjust="spacing" textLength="5" x="624.4978" y="1190.0853">*</text></g><!--link Employee to Agency--><g id="link_Employee_Agency"><path codeLine="207" d="M163.11,781.6094 C192.15,781.6094 228.56,781.6094 263.59,781.6094 " fill="none" id="Employee-to-Agency" style="stroke:#181818;stroke-width:1.0;"/><polygon fill="#181818" points="268.75,781.6094,259.75,777.6094,263.75,781.6094,259.75,785.6094,268.75,781.6094" style="stroke:#181818;stroke-width:1.0;"/><polygon fill="#000000" points="194.5,769.7852,185.4549,766.8462,185.4549,772.7241,194.5,769.7852" style="stroke:#000000;stroke-width:1.0;"/><text fill="#000000" font-family="sans-serif" font-size="13" lengthAdjust="spacing" textLength="48" x="198.5" y="775.1045">works in</text><text fill="#000000" font-family="sans-serif" font-size="13" lengthAdjust="spacing" textLength="7" x="170.9397" y="778.113">1</text><text fill="#000000" font-family="sans-serif" font-size="13" lengthAdjust="spacing" textLength="7" x="253.8543" y="778.5877">1</text></g><!--link AnnouncementList to Announcement--><g id="link_AnnouncementList_Announcement"><path codeLine="208" d="M487.13,1080.6794 C549.92,1117.6494 619.5,1158.6094 619.5,1158.6094 C619.5,1158.6094 625.53,1168.8694 634.8,1184.6294 " fill="none" id="AnnouncementList-to-Announcement" style="stroke:#181818;stroke-width:1.0;"/><polygon fill="#181818" points="637.49,1189.2194,636.3901,1179.4321,634.9618,1184.9057,629.4882,1183.4773,637.49,1189.2194" style="stroke:#181818;stroke-width:1.0;"/><polygon fill="#000000" points="573.5886,1122.6633,567.884,1115.0535,564.5006,1119.8599,573.5886,1122.6633" style="stroke:#000000;stroke-width:1.0;"/><text fill="#000000" font-family="sans-serif" font-size="13" lengthAdjust="spacing" textLength="43" x="578.5" y="1125.1045">records</text><text fill="#000000" font-family="sans-serif" font-size="13" lengthAdjust="spacing" textLength="7" x="491.724" y="1102.3434">1</text><text fill="#000000" font-family="sans-serif" font-size="13" lengthAdjust="spacing" textLength="5" x="624.4978" y="1172.7603">*</text></g><!--link Announcement to Request--><g id="link_Announcement_Request"><path codeLine="209" d="M825.76,1263.3194 C880.8,1212.6594 939.5,1158.6094 939.5,1158.6094 C939.5,1158.6094 1140.5,1148.6094 1140.5,1148.6094 C1140.5,1148.6094 1226.5,1148.6094 1226.5,1148.6094 C1226.5,1148.6094 1249.57,1205.9994 1271.09,1259.5294 " fill="none" id="Announcement-to-Request" style="stroke:#181818;stroke-width:1.0;"/><polygon fill="#181818" points="1273.03,1264.3594,1273.3753,1254.5166,1271.1608,1259.7219,1265.9554,1257.5074,1273.03,1264.3594" style="stroke:#181818;stroke-width:1.0;"/><polygon fill="#000000" points="1150.4998,1119.7426,1141.4301,1116.8808,1141.4801,1122.7584,1150.4998,1119.7426" style="stroke:#000000;stroke-width:1.0;"/><text fill="#000000" font-family="sans-serif" font-size="13" lengthAdjust="spacing" textLength="71" x="1154.5" y="1125.1045">is  based on</text><text fill="#000000" font-family="sans-serif" font-size="13" lengthAdjust="spacing" textLength="7" x="833.5503" y="1253.2917">1</text><text fill="#000000" font-family="sans-serif" font-size="13" lengthAdjust="spacing" textLength="7" x="1262.767" y="1253.8015">1</text></g><!--link Announcement to Commission--><g id="link_Announcement_Commission"><path codeLine="210" d="M825.86,1350.1094 C864.62,1350.1094 910,1350.1094 951.25,1350.1094 " fill="none" id="Announcement-to-Commission" style="stroke:#181818;stroke-width:1.0;"/><polygon fill="#181818" points="956.26,1350.1094,947.26,1346.1094,951.26,1350.1094,947.26,1354.1094,956.26,1350.1094" style="stroke:#181818;stroke-width:1.0;"/><polygon fill="#000000" points="843,1338.2852,852.0451,1341.2241,852.0451,1335.3462,843,1338.2852" style="stroke:#000000;stroke-width:1.0;"/><text fill="#000000" font-family="sans-serif" font-size="13" lengthAdjust="spacing" textLength="81" x="857" y="1343.6045">is assigned to</text><text fill="#000000" font-family="sans-serif" font-size="13" lengthAdjust="spacing" textLength="7" x="833.3524" y="1347.0216">1</text><text fill="#000000" font-family="sans-serif" font-size="13" lengthAdjust="spacing" textLength="7" x="941.5251" y="1347.1088">1</text></g><!--SRC=[dLTBRziu4BxpLn2vsDbDikrf0SSGu2Gz66ZJ8avxweMMnZ8HYTIIT5flTl_x3X-II4bEWss1bfeNv_aDFTDFN3HCiPhMKiXyhsGDrAW3a9xJiFo9bR0nnmgeWjmmKLQnWDwpGlxWegGxLkcOKt41vjW0RMHrj1zaDi6KoaWIQUKLqtfbZEBRWu5rBiM6_mtq7I6p2dQ66aaLB_U65jowmwKWn723tjrQJNh7MMdjNDAlctVl_oJ46QIh4aH-f2-4ufzBkXO6Ib2K5u6mmGinXW9qhdZZp7h6XvhnYeBzTrKK2hHEDPgz571_gBUW0kEZp9arGAjmQEbSc-M7kgda4I13a_xKsbi98GyYXng4iQAKHOHMw07-Ee3sVENFdlKxBS7S0PPWQ6T-JlxjiZ3WlSIknSniulR-Yc3M4pLMC5RLDyTFKfi7oF5ZmoguOmOwQJGH2yzvyTFv9wI1K5Yv6_cvM0pqoECUw3DJd6snycW4ix43fMrxc3sGHchkQe36y3k9Xd3XQB4zbm42eg3MaQbqVM9DWmtp4k8myix8kOqT2gkBNoVoZ9nMALTWSn4xiouksaAknKvUV1TKXvnTkDEgHbdJ2Ja62kMohhdM6A9JepYZmjop6lmnFwwBFgz6DiEiebUXzj7jbElGrev7TuW8erHvLcZ4cSsuLmablXouXZOTFOoBCpaoTzkff0RxWioc6nZ3eClbk7-Hdj4iUo4pdtbM54dQNRbca_LwYSQuikccBC-XGU3BNLb6xBPUWN4d3xOd-ze5UXzZbA5qhDjQTD3Z4S8NznHolMRtiof0ER2GzgJZSV_6SKGo-cp_SztlCyNrsWrvFB5JKxmkug-7lZjZyctI2aEJFZqJPeR2gxQvaJXBgO_ifmVVaVmgZC6ydmEtG0Q3i5Yq4IEcOF_NOFQoeFaUyYTDkOCFqfQuXPEaWL6fu3j47uiZtSWKi6E72g_3lJT_Vub_pqVuqgVd9MsUlf3VM7M0KQKVxURCayyEbxhXwRexP7NSs16cdEgkhWVRGx8MvGy1oXq3-UQWSR7ZdTjm2FGlIY9wcYDjmk4LTttX7i1Xk5J73dDjPQjgjEHq6cjGuw2xRHyJanuMsetr_9mkC1czKDfAiJFnNGw0h3VtO7v8zNGhXL6ogg8rSLfaFhHyFeuosRD8jzyRjt9kZgkgH5VDldPB25FePXtHlwN7mzQjgNd7lg2fNeNSpxlsvbOPdr_FMAv7j-s68fW8ZlsYTYm7kl7MEhSePPgUBRVPShbkXR9i-SSs-ow6icTTfQnFSzbx56Nx4wWIUlE9nkkXT2Pk3bkShlzh8rwbf-iQcMojuUkZwElY19YoquUj3yzGUD3GKE5x5lpW5SomO2drnAxeJf4aIpfS6H1i13P3bx-kCVukDLzmE_Gm59QrGCYzJaccnTlha-_ZwvCFv247BsxGwLkcYbJ0BIWlbL7CAtH6Hu_hwxxDmuQW65I8gWMjGLpj2scicevzkpp8xE73nzNZ-lFzXf29F5vbhpK4IJ3fCainQa5vGA6nwGXGhaPg2LuDxh2BBgDdxyz6OFhw9NYBL_YLByC9VgFPs8yHp5jtBp4zPx-rRcEKh2mLbBYWDCrQdLxI1ZZysRImMyb9_ygbqUiUBnY_-8UYxgtq5i4t2TbtE1b0szNLeVbdd6FRAjZFVkVP-8PmTdLbw_uMpTcKPrPv8bRduUprTdYRZf-KQTcfXtreuq6wC1ZSIePnNsGFNBub2gnyQ8jsyjsS82gXBW8j_l9Rakv9apHS_2Iq8DlWGuphFIfjZoEbUBOMrCQchMtqPzIEfozHaEEcqmEb-8BsPu5pY6wPHcymrYa5zzCvgFNlHAU8GCXBWQhsjnBv3m00]--></g></svg>