<?xml version="1.0" encoding="UTF-8" standalone="no"?><svg xmlns="http://www.w3.org/2000/svg" xmlns:xlink="http://www.w3.org/1999/xlink" contentStyleType="text/css" height="842px" preserveAspectRatio="none" style="width:579px;height:842px;background:#FFFFFF;" version="1.1" viewBox="0 0 579 842" width="579px" zoomAndPan="magnify"><defs/><g><rect fill="#FFFFFF" height="682.3281" style="stroke:#181818;stroke-width:1.0;" width="10" x="140" y="87.5703"/><rect fill="#FFFFFF" height="564.2734" style="stroke:#181818;stroke-width:1.0;" width="10" x="301" y="143.2734"/><rect fill="#FFFFFF" height="431.2188" style="stroke:#181818;stroke-width:1.0;" width="10" x="306" y="206.9766"/><rect fill="#FFFFFF" height="41.3516" style="stroke:#181818;stroke-width:1.0;" width="10" x="311" y="553.4922"/><rect fill="#FFFFFF" height="30.3516" style="stroke:#181818;stroke-width:1.0;" width="10" x="500" y="242.3281"/><rect fill="#FFFFFF" height="30.3516" style="stroke:#181818;stroke-width:1.0;" width="10" x="500" y="303.0313"/><rect fill="#FFFFFF" height="30.3516" style="stroke:#181818;stroke-width:1.0;" width="10" x="500" y="363.7344"/><rect fill="#FFFFFF" height="30.3516" style="stroke:#181818;stroke-width:1.0;" width="10" x="500" y="424.4375"/><rect fill="#FFFFFF" height="30" style="stroke:#181818;stroke-width:1.0;" width="10" x="500" y="485.1406"/><rect fill="none" height="637.9766" style="stroke:#000000;stroke-width:1.5;" width="519.5" x="54" y="102.5703"/><rect fill="none" height="519.9219" style="stroke:#000000;stroke-width:1.5;" width="329" x="234.5" y="158.2734"/><line style="stroke:#181818;stroke-width:0.5;stroke-dasharray:5.0,5.0;" x1="145" x2="145" y1="55.2188" y2="787.8984"/><line style="stroke:#181818;stroke-width:0.5;stroke-dasharray:5.0,5.0;" x1="305.5" x2="305.5" y1="55.2188" y2="787.8984"/><line style="stroke:#181818;stroke-width:0.5;stroke-dasharray:5.0,5.0;" x1="504.5" x2="504.5" y1="55.2188" y2="787.8984"/><rect fill="#E3E3E3" height="31.6094" rx="2.5" ry="2.5" style="stroke:#181818;stroke-width:0.5;" width="162" x="64" y="22.6094"/><text fill="#000000" font-family="sans-serif" font-size="14" lengthAdjust="spacing" textLength="148" x="71" y="44.1426">:ListRequestsController</text><rect fill="#E3E3E3" height="31.6094" rx="2.5" ry="2.5" style="stroke:#181818;stroke-width:0.5;" width="162" x="64" y="786.8984"/><text fill="#000000" font-family="sans-serif" font-size="14" lengthAdjust="spacing" textLength="148" x="71" y="808.4316">:ListRequestsController</text><rect fill="#E3E3E3" height="49.2188" rx="2.5" ry="2.5" style="stroke:#181818;stroke-width:0.5;" width="123" x="244.5" y="5"/><text fill="#000000" font-family="sans-serif" font-size="14" lengthAdjust="spacing" textLength="96" x="258" y="26.5332">requestMapper</text><text fill="#000000" font-family="sans-serif" font-size="14" lengthAdjust="spacing" textLength="109" x="251.5" y="44.1426">: RequestMapper</text><rect fill="#E3E3E3" height="49.2188" rx="2.5" ry="2.5" style="stroke:#181818;stroke-width:0.5;" width="123" x="244.5" y="786.8984"/><text fill="#000000" font-family="sans-serif" font-size="14" lengthAdjust="spacing" textLength="96" x="258" y="808.4316">requestMapper</text><text fill="#000000" font-family="sans-serif" font-size="14" lengthAdjust="spacing" textLength="109" x="251.5" y="826.041">: RequestMapper</text><rect fill="#E3E3E3" height="49.2188" rx="2.5" ry="2.5" style="stroke:#181818;stroke-width:0.5;" width="97" x="456.5" y="5"/><text fill="#000000" font-family="sans-serif" font-size="14" lengthAdjust="spacing" textLength="70" x="470" y="26.5332">requestDto</text><text fill="#000000" font-family="sans-serif" font-size="14" lengthAdjust="spacing" textLength="83" x="463.5" y="44.1426">: RequestDto</text><rect fill="#E3E3E3" height="49.2188" rx="2.5" ry="2.5" style="stroke:#181818;stroke-width:0.5;" width="97" x="456.5" y="786.8984"/><text fill="#000000" font-family="sans-serif" font-size="14" lengthAdjust="spacing" textLength="70" x="470" y="808.4316">requestDto</text><text fill="#000000" font-family="sans-serif" font-size="14" lengthAdjust="spacing" textLength="83" x="463.5" y="826.041">: RequestDto</text><rect fill="#FFFFFF" height="682.3281" style="stroke:#181818;stroke-width:1.0;" width="10" x="140" y="87.5703"/><rect fill="#FFFFFF" height="564.2734" style="stroke:#181818;stroke-width:1.0;" width="10" x="301" y="143.2734"/><rect fill="#FFFFFF" height="431.2188" style="stroke:#181818;stroke-width:1.0;" width="10" x="306" y="206.9766"/><rect fill="#FFFFFF" height="41.3516" style="stroke:#181818;stroke-width:1.0;" width="10" x="311" y="553.4922"/><rect fill="#FFFFFF" height="30.3516" style="stroke:#181818;stroke-width:1.0;" width="10" x="500" y="242.3281"/><rect fill="#FFFFFF" height="30.3516" style="stroke:#181818;stroke-width:1.0;" width="10" x="500" y="303.0313"/><rect fill="#FFFFFF" height="30.3516" style="stroke:#181818;stroke-width:1.0;" width="10" x="500" y="363.7344"/><rect fill="#FFFFFF" height="30.3516" style="stroke:#181818;stroke-width:1.0;" width="10" x="500" y="424.4375"/><rect fill="#FFFFFF" height="30" style="stroke:#181818;stroke-width:1.0;" width="10" x="500" y="485.1406"/><polygon fill="#181818" points="128,83.5703,138,87.5703,128,91.5703,132,87.5703" style="stroke:#181818;stroke-width:1.0;"/><line style="stroke:#181818;stroke-width:1.0;" x1="0" x2="134" y1="87.5703" y2="87.5703"/><text fill="#000000" font-family="sans-serif" font-size="13" font-weight="bold" lengthAdjust="spacing" textLength="14" x="7" y="82.7139">14</text><text fill="#000000" font-family="sans-serif" font-size="13" lengthAdjust="spacing" textLength="103" x="25" y="82.7139">toDto(requestList)</text><path d="M54,102.5703 L268,102.5703 L268,110.9219 L258,120.9219 L54,120.9219 L54,102.5703 " fill="#EEEEEE" style="stroke:#000000;stroke-width:1.5;"/><rect fill="none" height="637.9766" style="stroke:#000000;stroke-width:1.5;" width="519.5" x="54" y="102.5703"/><text fill="#000000" font-family="sans-serif" font-size="13" font-weight="bold" lengthAdjust="spacing" textLength="169" x="69" y="117.0654">Convert request list to DTO</text><polygon fill="#181818" points="289,139.2734,299,143.2734,289,147.2734,293,143.2734" style="stroke:#181818;stroke-width:1.0;"/><line style="stroke:#181818;stroke-width:1.0;" x1="150" x2="295" y1="143.2734" y2="143.2734"/><text fill="#000000" font-family="sans-serif" font-size="13" font-weight="bold" lengthAdjust="spacing" textLength="25" x="157" y="138.417">14.1</text><text fill="#000000" font-family="sans-serif" font-size="13" lengthAdjust="spacing" textLength="103" x="186" y="138.417">toDto(requestList)</text><path d="M234.5,158.2734 L307.5,158.2734 L307.5,166.625 L297.5,176.625 L234.5,176.625 L234.5,158.2734 " fill="#EEEEEE" style="stroke:#000000;stroke-width:1.5;"/><rect fill="none" height="519.9219" style="stroke:#000000;stroke-width:1.5;" width="329" x="234.5" y="158.2734"/><text fill="#000000" font-family="sans-serif" font-size="13" font-weight="bold" lengthAdjust="spacing" textLength="28" x="249.5" y="172.7686">loop</text><text fill="#000000" font-family="sans-serif" font-size="11" font-weight="bold" lengthAdjust="spacing" textLength="100" x="322.5" y="171.6924">[for each request]</text><line style="stroke:#181818;stroke-width:1.0;" x1="311" x2="358" y1="193.9766" y2="193.9766"/><line style="stroke:#181818;stroke-width:1.0;" x1="358" x2="358" y1="193.9766" y2="206.9766"/><line style="stroke:#181818;stroke-width:1.0;" x1="317" x2="358" y1="206.9766" y2="206.9766"/><polygon fill="#181818" points="327,202.9766,317,206.9766,327,210.9766,323,206.9766" style="stroke:#181818;stroke-width:1.0;"/><text fill="#000000" font-family="sans-serif" font-size="13" font-weight="bold" lengthAdjust="spacing" textLength="25" x="323" y="189.1201">14.2</text><text fill="#000000" font-family="sans-serif" font-size="13" lengthAdjust="spacing" textLength="82" x="352" y="189.1201">toDto(request)</text><polygon fill="#181818" points="488,238.3281,498,242.3281,488,246.3281,492,242.3281" style="stroke:#181818;stroke-width:1.0;"/><line style="stroke:#181818;stroke-width:1.0;" x1="316" x2="494" y1="242.3281" y2="242.3281"/><text fill="#000000" font-family="sans-serif" font-size="13" font-weight="bold" lengthAdjust="spacing" textLength="25" x="323" y="237.4717">14.3</text><text fill="#000000" font-family="sans-serif" font-size="13" lengthAdjust="spacing" textLength="131" x="352" y="237.4717">getPropertyAttributes()</text><polygon fill="#181818" points="327,268.6797,317,272.6797,327,276.6797,323,272.6797" style="stroke:#181818;stroke-width:1.0;"/><line style="stroke:#181818;stroke-width:1.0;stroke-dasharray:2.0,2.0;" x1="321" x2="504" y1="272.6797" y2="272.6797"/><text fill="#000000" font-family="sans-serif" font-size="13" font-weight="bold" lengthAdjust="spacing" textLength="25" x="333" y="267.8232">14.4</text><text fill="#000000" font-family="sans-serif" font-size="13" lengthAdjust="spacing" textLength="103" x="362" y="267.8232">propertyAttributes</text><polygon fill="#181818" points="488,299.0313,498,303.0313,488,307.0313,492,303.0313" style="stroke:#181818;stroke-width:1.0;"/><line style="stroke:#181818;stroke-width:1.0;" x1="316" x2="494" y1="303.0313" y2="303.0313"/><text fill="#000000" font-family="sans-serif" font-size="13" font-weight="bold" lengthAdjust="spacing" textLength="25" x="323" y="298.1748">14.5</text><text fill="#000000" font-family="sans-serif" font-size="13" lengthAdjust="spacing" textLength="136" x="352" y="298.1748">getBusinessAttributes()</text><polygon fill="#181818" points="327,329.3828,317,333.3828,327,337.3828,323,333.3828" style="stroke:#181818;stroke-width:1.0;"/><line style="stroke:#181818;stroke-width:1.0;stroke-dasharray:2.0,2.0;" x1="321" x2="504" y1="333.3828" y2="333.3828"/><text fill="#000000" font-family="sans-serif" font-size="13" font-weight="bold" lengthAdjust="spacing" textLength="25" x="333" y="328.5264">14.6</text><text fill="#000000" font-family="sans-serif" font-size="13" lengthAdjust="spacing" textLength="108" x="362" y="328.5264">businessAttributes</text><polygon fill="#181818" points="488,359.7344,498,363.7344,488,367.7344,492,363.7344" style="stroke:#181818;stroke-width:1.0;"/><line style="stroke:#181818;stroke-width:1.0;" x1="316" x2="494" y1="363.7344" y2="363.7344"/><text fill="#000000" font-family="sans-serif" font-size="13" font-weight="bold" lengthAdjust="spacing" textLength="25" x="323" y="358.8779">14.7</text><text fill="#000000" font-family="sans-serif" font-size="13" lengthAdjust="spacing" textLength="101" x="352" y="358.8779">getRequestDate()</text><polygon fill="#181818" points="327,390.0859,317,394.0859,327,398.0859,323,394.0859" style="stroke:#181818;stroke-width:1.0;"/><line style="stroke:#181818;stroke-width:1.0;stroke-dasharray:2.0,2.0;" x1="321" x2="504" y1="394.0859" y2="394.0859"/><text fill="#000000" font-family="sans-serif" font-size="13" font-weight="bold" lengthAdjust="spacing" textLength="25" x="333" y="389.2295">14.8</text><text fill="#000000" font-family="sans-serif" font-size="13" lengthAdjust="spacing" textLength="70" x="362" y="389.2295">requestDate</text><polygon fill="#181818" points="488,420.4375,498,424.4375,488,428.4375,492,424.4375" style="stroke:#181818;stroke-width:1.0;"/><line style="stroke:#181818;stroke-width:1.0;" x1="316" x2="494" y1="424.4375" y2="424.4375"/><text fill="#000000" font-family="sans-serif" font-size="13" font-weight="bold" lengthAdjust="spacing" textLength="25" x="323" y="419.5811">14.9</text><text fill="#000000" font-family="sans-serif" font-size="13" lengthAdjust="spacing" textLength="86" x="352" y="419.5811">getRequestID()</text><polygon fill="#181818" points="327,450.7891,317,454.7891,327,458.7891,323,454.7891" style="stroke:#181818;stroke-width:1.0;"/><line style="stroke:#181818;stroke-width:1.0;stroke-dasharray:2.0,2.0;" x1="321" x2="504" y1="454.7891" y2="454.7891"/><text fill="#000000" font-family="sans-serif" font-size="13" font-weight="bold" lengthAdjust="spacing" textLength="32" x="333" y="449.9326">14.10</text><text fill="#000000" font-family="sans-serif" font-size="13" lengthAdjust="spacing" textLength="55" x="369" y="449.9326">requestID</text><polygon fill="#181818" points="488,481.1406,498,485.1406,488,489.1406,492,485.1406" style="stroke:#181818;stroke-width:1.0;"/><line style="stroke:#181818;stroke-width:1.0;" x1="316" x2="494" y1="485.1406" y2="485.1406"/><text fill="#000000" font-family="sans-serif" font-size="13" font-weight="bold" lengthAdjust="spacing" textLength="32" x="323" y="480.2842">14.11</text><text fill="#000000" font-family="sans-serif" font-size="13" lengthAdjust="spacing" textLength="36" x="359" y="480.2842">create</text><line style="stroke:#181818;stroke-width:1.0;" x1="316" x2="363" y1="540.4922" y2="540.4922"/><line style="stroke:#181818;stroke-width:1.0;" x1="363" x2="363" y1="540.4922" y2="553.4922"/><line style="stroke:#181818;stroke-width:1.0;" x1="322" x2="363" y1="553.4922" y2="553.4922"/><polygon fill="#181818" points="332,549.4922,322,553.4922,332,557.4922,328,553.4922" style="stroke:#181818;stroke-width:1.0;"/><text fill="#000000" font-family="sans-serif" font-size="13" font-weight="bold" lengthAdjust="spacing" textLength="32" x="328" y="535.6357">14.12</text><text fill="#000000" font-family="sans-serif" font-size="13" lengthAdjust="spacing" textLength="29" x="364" y="535.6357">add()</text><line style="stroke:#181818;stroke-width:1.0;stroke-dasharray:2.0,2.0;" x1="321" x2="363" y1="593.8438" y2="593.8438"/><line style="stroke:#181818;stroke-width:1.0;stroke-dasharray:2.0,2.0;" x1="363" x2="363" y1="593.8438" y2="606.8438"/><line style="stroke:#181818;stroke-width:1.0;stroke-dasharray:2.0,2.0;" x1="316" x2="363" y1="606.8438" y2="606.8438"/><polygon fill="#181818" points="326,602.8438,316,606.8438,326,610.8438,322,606.8438" style="stroke:#181818;stroke-width:1.0;"/><text fill="#000000" font-family="sans-serif" font-size="13" font-weight="bold" lengthAdjust="spacing" textLength="32" x="328" y="588.9873">14.13</text><text fill="#000000" font-family="sans-serif" font-size="13" lengthAdjust="spacing" textLength="4" x="364" y="588.9873"> </text><line style="stroke:#181818;stroke-width:1.0;stroke-dasharray:2.0,2.0;" x1="316" x2="358" y1="637.1953" y2="637.1953"/><line style="stroke:#181818;stroke-width:1.0;stroke-dasharray:2.0,2.0;" x1="358" x2="358" y1="637.1953" y2="650.1953"/><line style="stroke:#181818;stroke-width:1.0;stroke-dasharray:2.0,2.0;" x1="311" x2="358" y1="650.1953" y2="650.1953"/><polygon fill="#181818" points="321,646.1953,311,650.1953,321,654.1953,317,650.1953" style="stroke:#181818;stroke-width:1.0;"/><text fill="#000000" font-family="sans-serif" font-size="13" font-weight="bold" lengthAdjust="spacing" textLength="32" x="323" y="632.3389">14.14</text><text fill="#000000" font-family="sans-serif" font-size="13" lengthAdjust="spacing" textLength="4" x="359" y="632.3389"> </text><polygon fill="#181818" points="161,703.5469,151,707.5469,161,711.5469,157,707.5469" style="stroke:#181818;stroke-width:1.0;"/><line style="stroke:#181818;stroke-width:1.0;stroke-dasharray:2.0,2.0;" x1="155" x2="305" y1="707.5469" y2="707.5469"/><text fill="#000000" font-family="sans-serif" font-size="13" font-weight="bold" lengthAdjust="spacing" textLength="32" x="167" y="702.6904">14.15</text><text fill="#000000" font-family="sans-serif" font-size="13" lengthAdjust="spacing" textLength="84" x="203" y="702.6904">requestListDto</text><polygon fill="#181818" points="11,765.8984,1,769.8984,11,773.8984,7,769.8984" style="stroke:#181818;stroke-width:1.0;"/><line style="stroke:#181818;stroke-width:1.0;stroke-dasharray:2.0,2.0;" x1="5" x2="144" y1="769.8984" y2="769.8984"/><text fill="#000000" font-family="sans-serif" font-size="13" font-weight="bold" lengthAdjust="spacing" textLength="14" x="17" y="765.042">15</text><text fill="#000000" font-family="sans-serif" font-size="13" lengthAdjust="spacing" textLength="84" x="35" y="765.042">requestListDto</text><!--SRC=[fPHDRy8m38Rl-HNMJkpGIKZR1KsJDhXCOjh4EEuIMbCgsYHpN2OaVlpIz0CeXGtefOtZz_6RDB5T9if8aXbaMkbmGJf3OCfHs6R6o70fO_paTOf06B9KSRgRO1SoqZ-9Yc4kKuj221Vd94oCL0mtWt5YUOBVELgsGwsOT9eYtO2qC9nEnllPL2Q-IMEGljG09hi1BtAHSjIf7B7UaRbHhN6VGiYSjSgp6HBqxmMu9tZoBWR0scNqAahX-TRFov2JbMGilOgOT6x0BME5n51bG-hI7G16q_TMZRk-fnJYebJZ7Vukk5sdZwTQ6vXh0fJXegxiPxRGKnLEqziC9tI06Fc3j8lo-fcPabdEQ7k79B-t5QPG1YqZvW3YioCy1kdsyfBRHA6rLtcP7K0kyb8VC2UeJ1mrSi8CRIbDweLENaSNR0RLslFt82IiNRTLPx0Q9pAAUly-ellQZdfNweg9pMRZtwYYBew_qSq65jUtU-Kjed0uy4rahqyyb7__CGYgRjJ1tGMNpUWN]--></g></svg>