<?xml version="1.0" encoding="UTF-8" standalone="no"?><svg xmlns="http://www.w3.org/2000/svg" xmlns:xlink="http://www.w3.org/1999/xlink" contentStyleType="text/css" height="932px" preserveAspectRatio="none" style="width:1849px;height:932px;background:#FFFFFF;" version="1.1" viewBox="0 0 1849 932" width="1849px" zoomAndPan="magnify"><defs/><g><!--class ApplicationSession--><g id="elem_ApplicationSession"><rect codeLine="11" fill="#F1F1F1" height="83.2188" id="ApplicationSession" rx="2.5" ry="2.5" style="stroke:#181818;stroke-width:0.5;" width="151" x="375" y="230.5"/><ellipse cx="390" cy="246.5" fill="#ADD1B2" rx="11" ry="11" style="stroke:#181818;stroke-width:1.0;"/><path d="M392.7656,242.375 Q392.9219,242.1563 393.1094,242.0469 Q393.2969,241.9375 393.5156,241.9375 Q393.8906,241.9375 394.125,242.2031 Q394.3594,242.4531 394.3594,243.0625 L394.3594,244.5156 Q394.3594,245.125 394.125,245.3906 Q393.8906,245.6563 393.5156,245.6563 Q393.1719,245.6563 392.9688,245.4531 Q392.7656,245.2656 392.6563,244.75 Q392.6094,244.3906 392.4219,244.2031 Q392.0938,243.8281 391.4844,243.6094 Q390.875,243.3906 390.25,243.3906 Q389.4844,243.3906 388.8438,243.7188 Q388.2188,244.0469 387.7188,244.7969 Q387.2344,245.5469 387.2344,246.5781 L387.2344,247.6719 Q387.2344,248.9063 388.125,249.7344 Q389.0156,250.5469 390.6094,250.5469 Q391.5469,250.5469 392.2031,250.2969 Q392.5938,250.1406 393.0156,249.7031 Q393.2813,249.4375 393.4219,249.3594 Q393.5781,249.2813 393.7813,249.2813 Q394.1094,249.2813 394.3594,249.5469 Q394.625,249.7969 394.625,250.1406 Q394.625,250.4844 394.2813,250.8906 Q393.7813,251.4688 392.9844,251.7969 Q391.9063,252.25 390.6094,252.25 Q389.0938,252.25 387.8906,251.625 Q386.9063,251.125 386.2188,250.0625 Q385.5313,248.9844 385.5313,247.7031 L385.5313,246.5469 Q385.5313,245.2188 386.1406,244.0781 Q386.7656,242.9219 387.8594,242.3125 Q388.9531,241.6875 390.1875,241.6875 Q390.9219,241.6875 391.5625,241.8594 Q392.2188,242.0156 392.7656,242.375 Z " fill="#000000"/><text fill="#000000" font-family="sans-serif" font-size="14" lengthAdjust="spacing" textLength="119" x="404" y="252.2285">ApplicationSession</text><line style="stroke:#181818;stroke-width:0.5;" x1="376" x2="525" y1="262.5" y2="262.5"/><line style="stroke:#181818;stroke-width:0.5;" x1="376" x2="525" y1="270.5" y2="270.5"/><text fill="#000000" font-family="sans-serif" font-size="14" lengthAdjust="spacing" textLength="128" x="381" y="289.0332">+static getInstance()</text><text fill="#000000" font-family="sans-serif" font-size="14" lengthAdjust="spacing" textLength="136" x="381" y="306.6426">+getCurrentSession()</text></g><!--class UserSession--><g id="elem_UserSession"><rect codeLine="16" fill="#F1F1F1" height="65.6094" id="UserSession" rx="2.5" ry="2.5" style="stroke:#181818;stroke-width:0.5;" width="113" x="506" y="491.5"/><ellipse cx="521.9" cy="507.5" fill="#ADD1B2" rx="11" ry="11" style="stroke:#181818;stroke-width:1.0;"/><path d="M524.6656,503.375 Q524.8219,503.1563 525.0094,503.0469 Q525.1969,502.9375 525.4156,502.9375 Q525.7906,502.9375 526.025,503.2031 Q526.2594,503.4531 526.2594,504.0625 L526.2594,505.5156 Q526.2594,506.125 526.025,506.3906 Q525.7906,506.6563 525.4156,506.6563 Q525.0719,506.6563 524.8688,506.4531 Q524.6656,506.2656 524.5563,505.75 Q524.5094,505.3906 524.3219,505.2031 Q523.9938,504.8281 523.3844,504.6094 Q522.775,504.3906 522.15,504.3906 Q521.3844,504.3906 520.7438,504.7188 Q520.1188,505.0469 519.6188,505.7969 Q519.1344,506.5469 519.1344,507.5781 L519.1344,508.6719 Q519.1344,509.9063 520.025,510.7344 Q520.9156,511.5469 522.5094,511.5469 Q523.4469,511.5469 524.1031,511.2969 Q524.4938,511.1406 524.9156,510.7031 Q525.1813,510.4375 525.3219,510.3594 Q525.4781,510.2813 525.6813,510.2813 Q526.0094,510.2813 526.2594,510.5469 Q526.525,510.7969 526.525,511.1406 Q526.525,511.4844 526.1813,511.8906 Q525.6813,512.4688 524.8844,512.7969 Q523.8063,513.25 522.5094,513.25 Q520.9938,513.25 519.7906,512.625 Q518.8063,512.125 518.1188,511.0625 Q517.4313,509.9844 517.4313,508.7031 L517.4313,507.5469 Q517.4313,506.2188 518.0406,505.0781 Q518.6656,503.9219 519.7594,503.3125 Q520.8531,502.6875 522.0875,502.6875 Q522.8219,502.6875 523.4625,502.8594 Q524.1188,503.0156 524.6656,503.375 Z " fill="#000000"/><text fill="#000000" font-family="sans-serif" font-size="14" lengthAdjust="spacing" textLength="79" x="536.1" y="513.2285">UserSession</text><line style="stroke:#181818;stroke-width:0.5;" x1="507" x2="618" y1="523.5" y2="523.5"/><line style="stroke:#181818;stroke-width:0.5;" x1="507" x2="618" y1="531.5" y2="531.5"/><text fill="#000000" font-family="sans-serif" font-size="14" lengthAdjust="spacing" textLength="101" x="512" y="550.0332">+getUserEmail()</text></g><!--class CommissionTypeRepository--><g id="elem_CommissionTypeRepository"><rect codeLine="24" fill="#F1F1F1" height="83.2188" id="CommissionTypeRepository" rx="2.5" ry="2.5" style="stroke:#181818;stroke-width:0.5;" width="322" x="1289.5" y="370"/><ellipse cx="1358.25" cy="386" fill="#ADD1B2" rx="11" ry="11" style="stroke:#181818;stroke-width:1.0;"/><path d="M1361.0156,381.875 Q1361.1719,381.6563 1361.3594,381.5469 Q1361.5469,381.4375 1361.7656,381.4375 Q1362.1406,381.4375 1362.375,381.7031 Q1362.6094,381.9531 1362.6094,382.5625 L1362.6094,384.0156 Q1362.6094,384.625 1362.375,384.8906 Q1362.1406,385.1563 1361.7656,385.1563 Q1361.4219,385.1563 1361.2188,384.9531 Q1361.0156,384.7656 1360.9063,384.25 Q1360.8594,383.8906 1360.6719,383.7031 Q1360.3438,383.3281 1359.7344,383.1094 Q1359.125,382.8906 1358.5,382.8906 Q1357.7344,382.8906 1357.0938,383.2188 Q1356.4688,383.5469 1355.9688,384.2969 Q1355.4844,385.0469 1355.4844,386.0781 L1355.4844,387.1719 Q1355.4844,388.4063 1356.375,389.2344 Q1357.2656,390.0469 1358.8594,390.0469 Q1359.7969,390.0469 1360.4531,389.7969 Q1360.8438,389.6406 1361.2656,389.2031 Q1361.5313,388.9375 1361.6719,388.8594 Q1361.8281,388.7813 1362.0313,388.7813 Q1362.3594,388.7813 1362.6094,389.0469 Q1362.875,389.2969 1362.875,389.6406 Q1362.875,389.9844 1362.5313,390.3906 Q1362.0313,390.9688 1361.2344,391.2969 Q1360.1563,391.75 1358.8594,391.75 Q1357.3438,391.75 1356.1406,391.125 Q1355.1563,390.625 1354.4688,389.5625 Q1353.7813,388.4844 1353.7813,387.2031 L1353.7813,386.0469 Q1353.7813,384.7188 1354.3906,383.5781 Q1355.0156,382.4219 1356.1094,381.8125 Q1357.2031,381.1875 1358.4375,381.1875 Q1359.1719,381.1875 1359.8125,381.3594 Q1360.4688,381.5156 1361.0156,381.875 Z " fill="#000000"/><text fill="#000000" font-family="sans-serif" font-size="14" lengthAdjust="spacing" textLength="176" x="1378.75" y="391.7285">CommissionTypeRepository</text><line style="stroke:#181818;stroke-width:0.5;" x1="1290.5" x2="1610.5" y1="402" y2="402"/><line style="stroke:#181818;stroke-width:0.5;" x1="1290.5" x2="1610.5" y1="410" y2="410"/><text fill="#000000" font-family="sans-serif" font-size="14" lengthAdjust="spacing" textLength="168" x="1295.5" y="428.5332">+getCommissionTypeList()</text><text fill="#000000" font-family="sans-serif" font-size="14" lengthAdjust="spacing" textLength="310" x="1295.5" y="446.1426">+getCommissionTypeByDesignation(designation)</text></g><!--class AgencyRepository--><g id="elem_AgencyRepository"><rect codeLine="29" fill="#F1F1F1" height="65.6094" id="AgencyRepository" rx="2.5" ry="2.5" style="stroke:#181818;stroke-width:0.5;" width="279" x="1563" y="239"/><ellipse cx="1640.75" cy="255" fill="#ADD1B2" rx="11" ry="11" style="stroke:#181818;stroke-width:1.0;"/><path d="M1643.5156,250.875 Q1643.6719,250.6563 1643.8594,250.5469 Q1644.0469,250.4375 1644.2656,250.4375 Q1644.6406,250.4375 1644.875,250.7031 Q1645.1094,250.9531 1645.1094,251.5625 L1645.1094,253.0156 Q1645.1094,253.625 1644.875,253.8906 Q1644.6406,254.1563 1644.2656,254.1563 Q1643.9219,254.1563 1643.7188,253.9531 Q1643.5156,253.7656 1643.4063,253.25 Q1643.3594,252.8906 1643.1719,252.7031 Q1642.8438,252.3281 1642.2344,252.1094 Q1641.625,251.8906 1641,251.8906 Q1640.2344,251.8906 1639.5938,252.2188 Q1638.9688,252.5469 1638.4688,253.2969 Q1637.9844,254.0469 1637.9844,255.0781 L1637.9844,256.1719 Q1637.9844,257.4063 1638.875,258.2344 Q1639.7656,259.0469 1641.3594,259.0469 Q1642.2969,259.0469 1642.9531,258.7969 Q1643.3438,258.6406 1643.7656,258.2031 Q1644.0313,257.9375 1644.1719,257.8594 Q1644.3281,257.7813 1644.5313,257.7813 Q1644.8594,257.7813 1645.1094,258.0469 Q1645.375,258.2969 1645.375,258.6406 Q1645.375,258.9844 1645.0313,259.3906 Q1644.5313,259.9688 1643.7344,260.2969 Q1642.6563,260.75 1641.3594,260.75 Q1639.8438,260.75 1638.6406,260.125 Q1637.6563,259.625 1636.9688,258.5625 Q1636.2813,257.4844 1636.2813,256.2031 L1636.2813,255.0469 Q1636.2813,253.7188 1636.8906,252.5781 Q1637.5156,251.4219 1638.6094,250.8125 Q1639.7031,250.1875 1640.9375,250.1875 Q1641.6719,250.1875 1642.3125,250.3594 Q1642.9688,250.5156 1643.5156,250.875 Z " fill="#000000"/><text fill="#000000" font-family="sans-serif" font-size="14" lengthAdjust="spacing" textLength="115" x="1661.25" y="260.7285">AgencyRepository</text><line style="stroke:#181818;stroke-width:0.5;" x1="1564" x2="1841" y1="271" y2="271"/><line style="stroke:#181818;stroke-width:0.5;" x1="1564" x2="1841" y1="279" y2="279"/><text fill="#000000" font-family="sans-serif" font-size="14" lengthAdjust="spacing" textLength="267" x="1569" y="297.5332">+getAgencyByEmployeeEmail(agentEmail)</text></g><!--class Repositories--><g id="elem_Repositories"><rect codeLine="33" fill="#F1F1F1" height="136.0469" id="Repositories" rx="2.5" ry="2.5" style="stroke:#181818;stroke-width:0.5;" width="226" x="1396.5" y="7"/><ellipse cx="1465.75" cy="23" fill="#ADD1B2" rx="11" ry="11" style="stroke:#181818;stroke-width:1.0;"/><path d="M1468.5156,18.875 Q1468.6719,18.6563 1468.8594,18.5469 Q1469.0469,18.4375 1469.2656,18.4375 Q1469.6406,18.4375 1469.875,18.7031 Q1470.1094,18.9531 1470.1094,19.5625 L1470.1094,21.0156 Q1470.1094,21.625 1469.875,21.8906 Q1469.6406,22.1563 1469.2656,22.1563 Q1468.9219,22.1563 1468.7188,21.9531 Q1468.5156,21.7656 1468.4063,21.25 Q1468.3594,20.8906 1468.1719,20.7031 Q1467.8438,20.3281 1467.2344,20.1094 Q1466.625,19.8906 1466,19.8906 Q1465.2344,19.8906 1464.5938,20.2188 Q1463.9688,20.5469 1463.4688,21.2969 Q1462.9844,22.0469 1462.9844,23.0781 L1462.9844,24.1719 Q1462.9844,25.4063 1463.875,26.2344 Q1464.7656,27.0469 1466.3594,27.0469 Q1467.2969,27.0469 1467.9531,26.7969 Q1468.3438,26.6406 1468.7656,26.2031 Q1469.0313,25.9375 1469.1719,25.8594 Q1469.3281,25.7813 1469.5313,25.7813 Q1469.8594,25.7813 1470.1094,26.0469 Q1470.375,26.2969 1470.375,26.6406 Q1470.375,26.9844 1470.0313,27.3906 Q1469.5313,27.9688 1468.7344,28.2969 Q1467.6563,28.75 1466.3594,28.75 Q1464.8438,28.75 1463.6406,28.125 Q1462.6563,27.625 1461.9688,26.5625 Q1461.2813,25.4844 1461.2813,24.2031 L1461.2813,23.0469 Q1461.2813,21.7188 1461.8906,20.5781 Q1462.5156,19.4219 1463.6094,18.8125 Q1464.7031,18.1875 1465.9375,18.1875 Q1466.6719,18.1875 1467.3125,18.3594 Q1467.9688,18.5156 1468.5156,18.875 Z " fill="#000000"/><text fill="#000000" font-family="sans-serif" font-size="14" lengthAdjust="spacing" textLength="79" x="1486.25" y="28.7285">Repositories</text><line style="stroke:#181818;stroke-width:0.5;" x1="1397.5" x2="1621.5" y1="39" y2="39"/><line style="stroke:#181818;stroke-width:0.5;" x1="1397.5" x2="1621.5" y1="47" y2="47"/><text fill="#000000" font-family="sans-serif" font-size="14" lengthAdjust="spacing" textLength="94" x="1402.5" y="65.5332">-Repositories()</text><text fill="#000000" font-family="sans-serif" font-size="14" lengthAdjust="spacing" textLength="177" x="1402.5" y="83.1426">+getInstance() : repositories</text><text fill="#000000" font-family="sans-serif" font-size="14" lengthAdjust="spacing" textLength="214" x="1402.5" y="100.752">+getCommissionTypeRepository()</text><text fill="#000000" font-family="sans-serif" font-size="14" lengthAdjust="spacing" textLength="153" x="1402.5" y="118.3613">+getAgencyRepository()</text><text fill="#000000" font-family="sans-serif" font-size="14" lengthAdjust="spacing" textLength="196" x="1402.5" y="135.9707">+getAuthenticationRepository()</text></g><!--class ListRequestsController--><g id="elem_ListRequestsController"><rect codeLine="41" fill="#F1F1F1" height="100.8281" id="ListRequestsController" rx="2.5" ry="2.5" style="stroke:#181818;stroke-width:0.5;" width="479" x="490" y="24.5"/><ellipse cx="653.25" cy="40.5" fill="#ADD1B2" rx="11" ry="11" style="stroke:#181818;stroke-width:1.0;"/><path d="M656.0156,36.375 Q656.1719,36.1563 656.3594,36.0469 Q656.5469,35.9375 656.7656,35.9375 Q657.1406,35.9375 657.375,36.2031 Q657.6094,36.4531 657.6094,37.0625 L657.6094,38.5156 Q657.6094,39.125 657.375,39.3906 Q657.1406,39.6563 656.7656,39.6563 Q656.4219,39.6563 656.2188,39.4531 Q656.0156,39.2656 655.9063,38.75 Q655.8594,38.3906 655.6719,38.2031 Q655.3438,37.8281 654.7344,37.6094 Q654.125,37.3906 653.5,37.3906 Q652.7344,37.3906 652.0938,37.7188 Q651.4688,38.0469 650.9688,38.7969 Q650.4844,39.5469 650.4844,40.5781 L650.4844,41.6719 Q650.4844,42.9063 651.375,43.7344 Q652.2656,44.5469 653.8594,44.5469 Q654.7969,44.5469 655.4531,44.2969 Q655.8438,44.1406 656.2656,43.7031 Q656.5313,43.4375 656.6719,43.3594 Q656.8281,43.2813 657.0313,43.2813 Q657.3594,43.2813 657.6094,43.5469 Q657.875,43.7969 657.875,44.1406 Q657.875,44.4844 657.5313,44.8906 Q657.0313,45.4688 656.2344,45.7969 Q655.1563,46.25 653.8594,46.25 Q652.3438,46.25 651.1406,45.625 Q650.1563,45.125 649.4688,44.0625 Q648.7813,42.9844 648.7813,41.7031 L648.7813,40.5469 Q648.7813,39.2188 649.3906,38.0781 Q650.0156,36.9219 651.1094,36.3125 Q652.2031,35.6875 653.4375,35.6875 Q654.1719,35.6875 654.8125,35.8594 Q655.4688,36.0156 656.0156,36.375 Z " fill="#000000"/><text fill="#000000" font-family="sans-serif" font-size="14" lengthAdjust="spacing" textLength="144" x="673.75" y="46.2285">ListRequestsController</text><line style="stroke:#181818;stroke-width:0.5;" x1="491" x2="968" y1="56.5" y2="56.5"/><line style="stroke:#181818;stroke-width:0.5;" x1="491" x2="968" y1="64.5" y2="64.5"/><text fill="#000000" font-family="sans-serif" font-size="14" lengthAdjust="spacing" textLength="467" x="496" y="83.0332">+ListRequestsController(organizationRepository, taskCategoryRepository)</text><text fill="#000000" font-family="sans-serif" font-size="14" lengthAdjust="spacing" textLength="138" x="496" y="100.6426">+getTaskCategories()</text><text fill="#000000" font-family="sans-serif" font-size="14" lengthAdjust="spacing" textLength="180" x="496" y="118.252">-getEmployeeFromSession()</text></g><!--class ListRequestsUI--><g id="elem_ListRequestsUI"><rect codeLine="47" fill="#F1F1F1" height="48" id="ListRequestsUI" rx="2.5" ry="2.5" style="stroke:#181818;stroke-width:0.5;" width="126" x="328.5" y="51"/><ellipse cx="343.5" cy="67" fill="#ADD1B2" rx="11" ry="11" style="stroke:#181818;stroke-width:1.0;"/><path d="M346.2656,62.875 Q346.4219,62.6563 346.6094,62.5469 Q346.7969,62.4375 347.0156,62.4375 Q347.3906,62.4375 347.625,62.7031 Q347.8594,62.9531 347.8594,63.5625 L347.8594,65.0156 Q347.8594,65.625 347.625,65.8906 Q347.3906,66.1563 347.0156,66.1563 Q346.6719,66.1563 346.4688,65.9531 Q346.2656,65.7656 346.1563,65.25 Q346.1094,64.8906 345.9219,64.7031 Q345.5938,64.3281 344.9844,64.1094 Q344.375,63.8906 343.75,63.8906 Q342.9844,63.8906 342.3438,64.2188 Q341.7188,64.5469 341.2188,65.2969 Q340.7344,66.0469 340.7344,67.0781 L340.7344,68.1719 Q340.7344,69.4063 341.625,70.2344 Q342.5156,71.0469 344.1094,71.0469 Q345.0469,71.0469 345.7031,70.7969 Q346.0938,70.6406 346.5156,70.2031 Q346.7813,69.9375 346.9219,69.8594 Q347.0781,69.7813 347.2813,69.7813 Q347.6094,69.7813 347.8594,70.0469 Q348.125,70.2969 348.125,70.6406 Q348.125,70.9844 347.7813,71.3906 Q347.2813,71.9688 346.4844,72.2969 Q345.4063,72.75 344.1094,72.75 Q342.5938,72.75 341.3906,72.125 Q340.4063,71.625 339.7188,70.5625 Q339.0313,69.4844 339.0313,68.2031 L339.0313,67.0469 Q339.0313,65.7188 339.6406,64.5781 Q340.2656,63.4219 341.3594,62.8125 Q342.4531,62.1875 343.6875,62.1875 Q344.4219,62.1875 345.0625,62.3594 Q345.7188,62.5156 346.2656,62.875 Z " fill="#000000"/><text fill="#000000" font-family="sans-serif" font-size="14" lengthAdjust="spacing" textLength="94" x="357.5" y="72.7285">ListRequestsUI</text><line style="stroke:#181818;stroke-width:0.5;" x1="329.5" x2="453.5" y1="83" y2="83"/><line style="stroke:#181818;stroke-width:0.5;" x1="329.5" x2="453.5" y1="91" y2="91"/></g><!--class Email--><g id="elem_Email"><rect codeLine="50" fill="#F1F1F1" height="65.6094" id="Email" rx="2.5" ry="2.5" style="stroke:#181818;stroke-width:0.5;" width="79" x="523" y="644.5"/><ellipse cx="543.85" cy="660.5" fill="#ADD1B2" rx="11" ry="11" style="stroke:#181818;stroke-width:1.0;"/><path d="M546.6156,656.375 Q546.7719,656.1563 546.9594,656.0469 Q547.1469,655.9375 547.3656,655.9375 Q547.7406,655.9375 547.975,656.2031 Q548.2094,656.4531 548.2094,657.0625 L548.2094,658.5156 Q548.2094,659.125 547.975,659.3906 Q547.7406,659.6563 547.3656,659.6563 Q547.0219,659.6563 546.8188,659.4531 Q546.6156,659.2656 546.5063,658.75 Q546.4594,658.3906 546.2719,658.2031 Q545.9438,657.8281 545.3344,657.6094 Q544.725,657.3906 544.1,657.3906 Q543.3344,657.3906 542.6938,657.7188 Q542.0688,658.0469 541.5688,658.7969 Q541.0844,659.5469 541.0844,660.5781 L541.0844,661.6719 Q541.0844,662.9063 541.975,663.7344 Q542.8656,664.5469 544.4594,664.5469 Q545.3969,664.5469 546.0531,664.2969 Q546.4438,664.1406 546.8656,663.7031 Q547.1313,663.4375 547.2719,663.3594 Q547.4281,663.2813 547.6313,663.2813 Q547.9594,663.2813 548.2094,663.5469 Q548.475,663.7969 548.475,664.1406 Q548.475,664.4844 548.1313,664.8906 Q547.6313,665.4688 546.8344,665.7969 Q545.7563,666.25 544.4594,666.25 Q542.9438,666.25 541.7406,665.625 Q540.7563,665.125 540.0688,664.0625 Q539.3813,662.9844 539.3813,661.7031 L539.3813,660.5469 Q539.3813,659.2188 539.9906,658.0781 Q540.6156,656.9219 541.7094,656.3125 Q542.8031,655.6875 544.0375,655.6875 Q544.7719,655.6875 545.4125,655.8594 Q546.0688,656.0156 546.6156,656.375 Z " fill="#000000"/><text fill="#000000" font-family="sans-serif" font-size="14" lengthAdjust="spacing" textLength="34" x="559.15" y="666.2285">Email</text><line style="stroke:#181818;stroke-width:0.5;" x1="524" x2="601" y1="676.5" y2="676.5"/><line style="stroke:#181818;stroke-width:0.5;" x1="524" x2="601" y1="684.5" y2="684.5"/><text fill="#000000" font-family="sans-serif" font-size="14" lengthAdjust="spacing" textLength="67" x="529" y="703.0332">+toString()</text></g><!--class Announcement--><g id="elem_Announcement"><rect codeLine="54" fill="#F1F1F1" height="83.2188" id="Announcement" rx="2.5" ry="2.5" style="stroke:#181818;stroke-width:0.5;" width="447" x="783" y="230.5"/><ellipse cx="954.75" cy="246.5" fill="#ADD1B2" rx="11" ry="11" style="stroke:#181818;stroke-width:1.0;"/><path d="M957.5156,242.375 Q957.6719,242.1563 957.8594,242.0469 Q958.0469,241.9375 958.2656,241.9375 Q958.6406,241.9375 958.875,242.2031 Q959.1094,242.4531 959.1094,243.0625 L959.1094,244.5156 Q959.1094,245.125 958.875,245.3906 Q958.6406,245.6563 958.2656,245.6563 Q957.9219,245.6563 957.7188,245.4531 Q957.5156,245.2656 957.4063,244.75 Q957.3594,244.3906 957.1719,244.2031 Q956.8438,243.8281 956.2344,243.6094 Q955.625,243.3906 955,243.3906 Q954.2344,243.3906 953.5938,243.7188 Q952.9688,244.0469 952.4688,244.7969 Q951.9844,245.5469 951.9844,246.5781 L951.9844,247.6719 Q951.9844,248.9063 952.875,249.7344 Q953.7656,250.5469 955.3594,250.5469 Q956.2969,250.5469 956.9531,250.2969 Q957.3438,250.1406 957.7656,249.7031 Q958.0313,249.4375 958.1719,249.3594 Q958.3281,249.2813 958.5313,249.2813 Q958.8594,249.2813 959.1094,249.5469 Q959.375,249.7969 959.375,250.1406 Q959.375,250.4844 959.0313,250.8906 Q958.5313,251.4688 957.7344,251.7969 Q956.6563,252.25 955.3594,252.25 Q953.8438,252.25 952.6406,251.625 Q951.6563,251.125 950.9688,250.0625 Q950.2813,248.9844 950.2813,247.7031 L950.2813,246.5469 Q950.2813,245.2188 950.8906,244.0781 Q951.5156,242.9219 952.6094,242.3125 Q953.7031,241.6875 954.9375,241.6875 Q955.6719,241.6875 956.3125,241.8594 Q956.9688,242.0156 957.5156,242.375 Z " fill="#000000"/><text fill="#000000" font-family="sans-serif" font-size="14" lengthAdjust="spacing" textLength="95" x="975.25" y="252.2285">Announcement</text><line style="stroke:#181818;stroke-width:0.5;" x1="784" x2="1229" y1="262.5" y2="262.5"/><text fill="#000000" font-family="sans-serif" font-size="14" lengthAdjust="spacing" textLength="176" x="789" y="281.0332">-LocalDate acceptanceDate</text><line style="stroke:#181818;stroke-width:0.5;" x1="784" x2="1229" y1="288.1094" y2="288.1094"/><text fill="#000000" font-family="sans-serif" font-size="14" lengthAdjust="spacing" textLength="435" x="789" y="306.6426">+Announcement(agent, commissionType, commissionValue, request)</text></g><!--class Commission--><g id="elem_Commission"><rect codeLine="59" fill="#F1F1F1" height="83.2188" id="Commission" rx="2.5" ry="2.5" style="stroke:#181818;stroke-width:0.5;" width="328" x="1227.5" y="483"/><ellipse cx="1349.25" cy="499" fill="#ADD1B2" rx="11" ry="11" style="stroke:#181818;stroke-width:1.0;"/><path d="M1352.0156,494.875 Q1352.1719,494.6563 1352.3594,494.5469 Q1352.5469,494.4375 1352.7656,494.4375 Q1353.1406,494.4375 1353.375,494.7031 Q1353.6094,494.9531 1353.6094,495.5625 L1353.6094,497.0156 Q1353.6094,497.625 1353.375,497.8906 Q1353.1406,498.1563 1352.7656,498.1563 Q1352.4219,498.1563 1352.2188,497.9531 Q1352.0156,497.7656 1351.9063,497.25 Q1351.8594,496.8906 1351.6719,496.7031 Q1351.3438,496.3281 1350.7344,496.1094 Q1350.125,495.8906 1349.5,495.8906 Q1348.7344,495.8906 1348.0938,496.2188 Q1347.4688,496.5469 1346.9688,497.2969 Q1346.4844,498.0469 1346.4844,499.0781 L1346.4844,500.1719 Q1346.4844,501.4063 1347.375,502.2344 Q1348.2656,503.0469 1349.8594,503.0469 Q1350.7969,503.0469 1351.4531,502.7969 Q1351.8438,502.6406 1352.2656,502.2031 Q1352.5313,501.9375 1352.6719,501.8594 Q1352.8281,501.7813 1353.0313,501.7813 Q1353.3594,501.7813 1353.6094,502.0469 Q1353.875,502.2969 1353.875,502.6406 Q1353.875,502.9844 1353.5313,503.3906 Q1353.0313,503.9688 1352.2344,504.2969 Q1351.1563,504.75 1349.8594,504.75 Q1348.3438,504.75 1347.1406,504.125 Q1346.1563,503.625 1345.4688,502.5625 Q1344.7813,501.4844 1344.7813,500.2031 L1344.7813,499.0469 Q1344.7813,497.7188 1345.3906,496.5781 Q1346.0156,495.4219 1347.1094,494.8125 Q1348.2031,494.1875 1349.4375,494.1875 Q1350.1719,494.1875 1350.8125,494.3594 Q1351.4688,494.5156 1352.0156,494.875 Z " fill="#000000"/><text fill="#000000" font-family="sans-serif" font-size="14" lengthAdjust="spacing" textLength="76" x="1369.75" y="504.7285">Commission</text><line style="stroke:#181818;stroke-width:0.5;" x1="1228.5" x2="1554.5" y1="515" y2="515"/><line style="stroke:#181818;stroke-width:0.5;" x1="1228.5" x2="1554.5" y1="523" y2="523"/><text fill="#000000" font-family="sans-serif" font-size="14" lengthAdjust="spacing" textLength="273" x="1233.5" y="541.5332">-create(commissionValue,commissionType)</text><text fill="#000000" font-family="sans-serif" font-size="14" lengthAdjust="spacing" textLength="316" x="1233.5" y="559.1426">+Commission(commissionValue, commissionType)</text></g><!--class Agency--><g id="elem_Agency"><rect codeLine="64" fill="#F1F1F1" height="83.2188" id="Agency" rx="2.5" ry="2.5" style="stroke:#181818;stroke-width:0.5;" width="224" x="1590.5" y="483"/><ellipse cx="1674.75" cy="499" fill="#ADD1B2" rx="11" ry="11" style="stroke:#181818;stroke-width:1.0;"/><path d="M1677.5156,494.875 Q1677.6719,494.6563 1677.8594,494.5469 Q1678.0469,494.4375 1678.2656,494.4375 Q1678.6406,494.4375 1678.875,494.7031 Q1679.1094,494.9531 1679.1094,495.5625 L1679.1094,497.0156 Q1679.1094,497.625 1678.875,497.8906 Q1678.6406,498.1563 1678.2656,498.1563 Q1677.9219,498.1563 1677.7188,497.9531 Q1677.5156,497.7656 1677.4063,497.25 Q1677.3594,496.8906 1677.1719,496.7031 Q1676.8438,496.3281 1676.2344,496.1094 Q1675.625,495.8906 1675,495.8906 Q1674.2344,495.8906 1673.5938,496.2188 Q1672.9688,496.5469 1672.4688,497.2969 Q1671.9844,498.0469 1671.9844,499.0781 L1671.9844,500.1719 Q1671.9844,501.4063 1672.875,502.2344 Q1673.7656,503.0469 1675.3594,503.0469 Q1676.2969,503.0469 1676.9531,502.7969 Q1677.3438,502.6406 1677.7656,502.2031 Q1678.0313,501.9375 1678.1719,501.8594 Q1678.3281,501.7813 1678.5313,501.7813 Q1678.8594,501.7813 1679.1094,502.0469 Q1679.375,502.2969 1679.375,502.6406 Q1679.375,502.9844 1679.0313,503.3906 Q1678.5313,503.9688 1677.7344,504.2969 Q1676.6563,504.75 1675.3594,504.75 Q1673.8438,504.75 1672.6406,504.125 Q1671.6563,503.625 1670.9688,502.5625 Q1670.2813,501.4844 1670.2813,500.2031 L1670.2813,499.0469 Q1670.2813,497.7188 1670.8906,496.5781 Q1671.5156,495.4219 1672.6094,494.8125 Q1673.7031,494.1875 1674.9375,494.1875 Q1675.6719,494.1875 1676.3125,494.3594 Q1676.9688,494.5156 1677.5156,494.875 Z " fill="#000000"/><text fill="#000000" font-family="sans-serif" font-size="14" lengthAdjust="spacing" textLength="47" x="1695.25" y="504.7285">Agency</text><line style="stroke:#181818;stroke-width:0.5;" x1="1591.5" x2="1813.5" y1="515" y2="515"/><line style="stroke:#181818;stroke-width:0.5;" x1="1591.5" x2="1813.5" y1="523" y2="523"/><text fill="#000000" font-family="sans-serif" font-size="14" lengthAdjust="spacing" textLength="212" x="1596.5" y="541.5332">+getAgentByEmail(email, agency)</text><text fill="#000000" font-family="sans-serif" font-size="14" lengthAdjust="spacing" textLength="203" x="1596.5" y="559.1426">-anyAgentHasEmail(agentEmail)</text></g><!--class Request--><g id="elem_Request"><rect codeLine="69" fill="#F1F1F1" height="136.0469" id="Request" rx="2.5" ry="2.5" style="stroke:#181818;stroke-width:0.5;" width="232" x="633.5" y="789"/><ellipse cx="718.75" cy="805" fill="#ADD1B2" rx="11" ry="11" style="stroke:#181818;stroke-width:1.0;"/><path d="M721.5156,800.875 Q721.6719,800.6563 721.8594,800.5469 Q722.0469,800.4375 722.2656,800.4375 Q722.6406,800.4375 722.875,800.7031 Q723.1094,800.9531 723.1094,801.5625 L723.1094,803.0156 Q723.1094,803.625 722.875,803.8906 Q722.6406,804.1563 722.2656,804.1563 Q721.9219,804.1563 721.7188,803.9531 Q721.5156,803.7656 721.4063,803.25 Q721.3594,802.8906 721.1719,802.7031 Q720.8438,802.3281 720.2344,802.1094 Q719.625,801.8906 719,801.8906 Q718.2344,801.8906 717.5938,802.2188 Q716.9688,802.5469 716.4688,803.2969 Q715.9844,804.0469 715.9844,805.0781 L715.9844,806.1719 Q715.9844,807.4063 716.875,808.2344 Q717.7656,809.0469 719.3594,809.0469 Q720.2969,809.0469 720.9531,808.7969 Q721.3438,808.6406 721.7656,808.2031 Q722.0313,807.9375 722.1719,807.8594 Q722.3281,807.7813 722.5313,807.7813 Q722.8594,807.7813 723.1094,808.0469 Q723.375,808.2969 723.375,808.6406 Q723.375,808.9844 723.0313,809.3906 Q722.5313,809.9688 721.7344,810.2969 Q720.6563,810.75 719.3594,810.75 Q717.8438,810.75 716.6406,810.125 Q715.6563,809.625 714.9688,808.5625 Q714.2813,807.4844 714.2813,806.2031 L714.2813,805.0469 Q714.2813,803.7188 714.8906,802.5781 Q715.5156,801.4219 716.6094,800.8125 Q717.7031,800.1875 718.9375,800.1875 Q719.6719,800.1875 720.3125,800.3594 Q720.9688,800.5156 721.5156,800.875 Z " fill="#000000"/><text fill="#000000" font-family="sans-serif" font-size="14" lengthAdjust="spacing" textLength="53" x="739.25" y="810.7285">Request</text><line style="stroke:#181818;stroke-width:0.5;" x1="634.5" x2="864.5" y1="821" y2="821"/><line style="stroke:#181818;stroke-width:0.5;" x1="634.5" x2="864.5" y1="829" y2="829"/><text fill="#000000" font-family="sans-serif" font-size="14" lengthAdjust="spacing" textLength="210" x="639.5" y="847.5332">+hasAgentWithEmail(agentEmail)</text><text fill="#000000" font-family="sans-serif" font-size="14" lengthAdjust="spacing" textLength="42" x="639.5" y="865.1426">+add()</text><text fill="#000000" font-family="sans-serif" font-size="14" lengthAdjust="spacing" textLength="113" x="639.5" y="882.752">+getOwnerEmail()</text><text fill="#000000" font-family="sans-serif" font-size="14" lengthAdjust="spacing" textLength="220" x="639.5" y="900.3613">+sendEmail(ownerEmail, message)</text><text fill="#000000" font-family="sans-serif" font-size="14" lengthAdjust="spacing" textLength="99" x="639.5" y="917.9707">+hasSameId(id)</text></g><!--class RequestList--><g id="elem_RequestList"><rect codeLine="77" fill="#F1F1F1" height="100.8281" id="RequestList" rx="2.5" ry="2.5" style="stroke:#181818;stroke-width:0.5;" width="229" x="1185" y="627"/><ellipse cx="1257.75" cy="643" fill="#ADD1B2" rx="11" ry="11" style="stroke:#181818;stroke-width:1.0;"/><path d="M1260.5156,638.875 Q1260.6719,638.6563 1260.8594,638.5469 Q1261.0469,638.4375 1261.2656,638.4375 Q1261.6406,638.4375 1261.875,638.7031 Q1262.1094,638.9531 1262.1094,639.5625 L1262.1094,641.0156 Q1262.1094,641.625 1261.875,641.8906 Q1261.6406,642.1563 1261.2656,642.1563 Q1260.9219,642.1563 1260.7188,641.9531 Q1260.5156,641.7656 1260.4063,641.25 Q1260.3594,640.8906 1260.1719,640.7031 Q1259.8438,640.3281 1259.2344,640.1094 Q1258.625,639.8906 1258,639.8906 Q1257.2344,639.8906 1256.5938,640.2188 Q1255.9688,640.5469 1255.4688,641.2969 Q1254.9844,642.0469 1254.9844,643.0781 L1254.9844,644.1719 Q1254.9844,645.4063 1255.875,646.2344 Q1256.7656,647.0469 1258.3594,647.0469 Q1259.2969,647.0469 1259.9531,646.7969 Q1260.3438,646.6406 1260.7656,646.2031 Q1261.0313,645.9375 1261.1719,645.8594 Q1261.3281,645.7813 1261.5313,645.7813 Q1261.8594,645.7813 1262.1094,646.0469 Q1262.375,646.2969 1262.375,646.6406 Q1262.375,646.9844 1262.0313,647.3906 Q1261.5313,647.9688 1260.7344,648.2969 Q1259.6563,648.75 1258.3594,648.75 Q1256.8438,648.75 1255.6406,648.125 Q1254.6563,647.625 1253.9688,646.5625 Q1253.2813,645.4844 1253.2813,644.2031 L1253.2813,643.0469 Q1253.2813,641.7188 1253.8906,640.5781 Q1254.5156,639.4219 1255.6094,638.8125 Q1256.7031,638.1875 1257.9375,638.1875 Q1258.6719,638.1875 1259.3125,638.3594 Q1259.9688,638.5156 1260.5156,638.875 Z " fill="#000000"/><text fill="#000000" font-family="sans-serif" font-size="14" lengthAdjust="spacing" textLength="75" x="1278.25" y="648.7285">RequestList</text><line style="stroke:#181818;stroke-width:0.5;" x1="1186" x2="1413" y1="659" y2="659"/><text fill="#000000" font-family="sans-serif" font-size="14" lengthAdjust="spacing" textLength="217" x="1191" y="677.5332">+sortRequestByMostRecentAdded</text><line style="stroke:#181818;stroke-width:0.5;" x1="1186" x2="1413" y1="684.6094" y2="684.6094"/><text fill="#000000" font-family="sans-serif" font-size="14" lengthAdjust="spacing" textLength="100" x="1191" y="703.1426">+hasSAmeId(id)</text><text fill="#000000" font-family="sans-serif" font-size="14" lengthAdjust="spacing" textLength="177" x="1191" y="720.752">+getRequestById(requestId)</text></g><!--class RequestMapper--><g id="elem_RequestMapper"><rect codeLine="83" fill="#F1F1F1" height="83.2188" id="RequestMapper" rx="2.5" ry="2.5" style="stroke:#181818;stroke-width:0.5;" width="133" x="7" y="230.5"/><ellipse cx="22" cy="246.5" fill="#ADD1B2" rx="11" ry="11" style="stroke:#181818;stroke-width:1.0;"/><path d="M24.7656,242.375 Q24.9219,242.1563 25.1094,242.0469 Q25.2969,241.9375 25.5156,241.9375 Q25.8906,241.9375 26.125,242.2031 Q26.3594,242.4531 26.3594,243.0625 L26.3594,244.5156 Q26.3594,245.125 26.125,245.3906 Q25.8906,245.6563 25.5156,245.6563 Q25.1719,245.6563 24.9688,245.4531 Q24.7656,245.2656 24.6563,244.75 Q24.6094,244.3906 24.4219,244.2031 Q24.0938,243.8281 23.4844,243.6094 Q22.875,243.3906 22.25,243.3906 Q21.4844,243.3906 20.8438,243.7188 Q20.2188,244.0469 19.7188,244.7969 Q19.2344,245.5469 19.2344,246.5781 L19.2344,247.6719 Q19.2344,248.9063 20.125,249.7344 Q21.0156,250.5469 22.6094,250.5469 Q23.5469,250.5469 24.2031,250.2969 Q24.5938,250.1406 25.0156,249.7031 Q25.2813,249.4375 25.4219,249.3594 Q25.5781,249.2813 25.7813,249.2813 Q26.1094,249.2813 26.3594,249.5469 Q26.625,249.7969 26.625,250.1406 Q26.625,250.4844 26.2813,250.8906 Q25.7813,251.4688 24.9844,251.7969 Q23.9063,252.25 22.6094,252.25 Q21.0938,252.25 19.8906,251.625 Q18.9063,251.125 18.2188,250.0625 Q17.5313,248.9844 17.5313,247.7031 L17.5313,246.5469 Q17.5313,245.2188 18.1406,244.0781 Q18.7656,242.9219 19.8594,242.3125 Q20.9531,241.6875 22.1875,241.6875 Q22.9219,241.6875 23.5625,241.8594 Q24.2188,242.0156 24.7656,242.375 Z " fill="#000000"/><text fill="#000000" font-family="sans-serif" font-size="14" lengthAdjust="spacing" textLength="101" x="36" y="252.2285">RequestMapper</text><line style="stroke:#181818;stroke-width:0.5;" x1="8" x2="139" y1="262.5" y2="262.5"/><line style="stroke:#181818;stroke-width:0.5;" x1="8" x2="139" y1="270.5" y2="270.5"/><text fill="#000000" font-family="sans-serif" font-size="14" lengthAdjust="spacing" textLength="100" x="13" y="289.0332">+toDto(request)</text><text fill="#000000" font-family="sans-serif" font-size="14" lengthAdjust="spacing" textLength="42" x="13" y="306.6426">+add()</text></g><!--class RequestDto--><g id="elem_RequestDto"><rect codeLine="88" fill="#F1F1F1" height="136.0469" id="RequestDto" rx="2.5" ry="2.5" style="stroke:#181818;stroke-width:0.5;" width="164" x="175.5" y="204"/><ellipse cx="216.15" cy="220" fill="#ADD1B2" rx="11" ry="11" style="stroke:#181818;stroke-width:1.0;"/><path d="M218.9156,215.875 Q219.0719,215.6563 219.2594,215.5469 Q219.4469,215.4375 219.6656,215.4375 Q220.0406,215.4375 220.275,215.7031 Q220.5094,215.9531 220.5094,216.5625 L220.5094,218.0156 Q220.5094,218.625 220.275,218.8906 Q220.0406,219.1563 219.6656,219.1563 Q219.3219,219.1563 219.1188,218.9531 Q218.9156,218.7656 218.8063,218.25 Q218.7594,217.8906 218.5719,217.7031 Q218.2438,217.3281 217.6344,217.1094 Q217.025,216.8906 216.4,216.8906 Q215.6344,216.8906 214.9938,217.2188 Q214.3688,217.5469 213.8688,218.2969 Q213.3844,219.0469 213.3844,220.0781 L213.3844,221.1719 Q213.3844,222.4063 214.275,223.2344 Q215.1656,224.0469 216.7594,224.0469 Q217.6969,224.0469 218.3531,223.7969 Q218.7438,223.6406 219.1656,223.2031 Q219.4313,222.9375 219.5719,222.8594 Q219.7281,222.7813 219.9313,222.7813 Q220.2594,222.7813 220.5094,223.0469 Q220.775,223.2969 220.775,223.6406 Q220.775,223.9844 220.4313,224.3906 Q219.9313,224.9688 219.1344,225.2969 Q218.0563,225.75 216.7594,225.75 Q215.2438,225.75 214.0406,225.125 Q213.0563,224.625 212.3688,223.5625 Q211.6813,222.4844 211.6813,221.2031 L211.6813,220.0469 Q211.6813,218.7188 212.2906,217.5781 Q212.9156,216.4219 214.0094,215.8125 Q215.1031,215.1875 216.3375,215.1875 Q217.0719,215.1875 217.7125,215.3594 Q218.3688,215.5156 218.9156,215.875 Z " fill="#000000"/><text fill="#000000" font-family="sans-serif" font-size="14" lengthAdjust="spacing" textLength="75" x="235.85" y="225.7285">RequestDto</text><line style="stroke:#181818;stroke-width:0.5;" x1="176.5" x2="338.5" y1="236" y2="236"/><text fill="#000000" font-family="sans-serif" font-size="14" lengthAdjust="spacing" textLength="118" x="181.5" y="254.5332">-propertyAttributes</text><text fill="#000000" font-family="sans-serif" font-size="14" lengthAdjust="spacing" textLength="64" x="181.5" y="272.1426">-requestId</text><line style="stroke:#181818;stroke-width:0.5;" x1="176.5" x2="338.5" y1="279.2188" y2="279.2188"/><text fill="#000000" font-family="sans-serif" font-size="14" lengthAdjust="spacing" textLength="141" x="181.5" y="297.752">+RequestDto(request)</text><text fill="#000000" font-family="sans-serif" font-size="14" lengthAdjust="spacing" textLength="152" x="181.5" y="315.3613">+getPropertyAttributes()</text><text fill="#000000" font-family="sans-serif" font-size="14" lengthAdjust="spacing" textLength="102" x="181.5" y="332.9707">+getRequestId()</text></g><!--class Notification--><g id="elem_Notification"><rect codeLine="97" fill="#F1F1F1" height="48" id="Notification" rx="2.5" ry="2.5" style="stroke:#181818;stroke-width:0.5;" width="102" x="900.5" y="833"/><ellipse cx="915.5" cy="849" fill="#B4A7E5" rx="11" ry="11" style="stroke:#181818;stroke-width:1.0;"/><path d="M916.4531,845.6406 L916.4531,852.2969 L918.1719,852.2969 Q918.7813,852.2969 919.0469,852.5313 Q919.3125,852.7656 919.3125,853.1563 Q919.3125,853.5313 919.0469,853.7656 Q918.7813,854 918.1719,854 L913.0313,854 Q912.4219,854 912.1563,853.7656 Q911.8906,853.5313 911.8906,853.1406 Q911.8906,852.7656 912.1563,852.5313 Q912.4219,852.2969 913.0313,852.2969 L914.75,852.2969 L914.75,845.6406 L913.0313,845.6406 Q912.4219,845.6406 912.1563,845.4063 Q911.8906,845.1719 911.8906,844.7813 Q911.8906,844.4063 912.1563,844.1719 Q912.4219,843.9375 913.0313,843.9375 L918.1719,843.9375 Q918.7813,843.9375 919.0469,844.1719 Q919.3125,844.4063 919.3125,844.7813 Q919.3125,845.1719 919.0469,845.4063 Q918.7813,845.6406 918.1719,845.6406 L916.4531,845.6406 Z " fill="#000000"/><text fill="#000000" font-family="sans-serif" font-size="14" font-style="italic" lengthAdjust="spacing" textLength="70" x="929.5" y="854.7285">Notification</text><line style="stroke:#181818;stroke-width:0.5;" x1="901.5" x2="1001.5" y1="865" y2="865"/><line style="stroke:#181818;stroke-width:0.5;" x1="901.5" x2="1001.5" y1="873" y2="873"/></g><!--class CommissionMapper--><g id="elem_CommissionMapper"><rect codeLine="100" fill="#F1F1F1" height="83.2188" id="CommissionMapper" rx="2.5" ry="2.5" style="stroke:#181818;stroke-width:0.5;" width="191" x="1265" y="230.5"/><ellipse cx="1295.75" cy="246.5" fill="#ADD1B2" rx="11" ry="11" style="stroke:#181818;stroke-width:1.0;"/><path d="M1298.5156,242.375 Q1298.6719,242.1563 1298.8594,242.0469 Q1299.0469,241.9375 1299.2656,241.9375 Q1299.6406,241.9375 1299.875,242.2031 Q1300.1094,242.4531 1300.1094,243.0625 L1300.1094,244.5156 Q1300.1094,245.125 1299.875,245.3906 Q1299.6406,245.6563 1299.2656,245.6563 Q1298.9219,245.6563 1298.7188,245.4531 Q1298.5156,245.2656 1298.4063,244.75 Q1298.3594,244.3906 1298.1719,244.2031 Q1297.8438,243.8281 1297.2344,243.6094 Q1296.625,243.3906 1296,243.3906 Q1295.2344,243.3906 1294.5938,243.7188 Q1293.9688,244.0469 1293.4688,244.7969 Q1292.9844,245.5469 1292.9844,246.5781 L1292.9844,247.6719 Q1292.9844,248.9063 1293.875,249.7344 Q1294.7656,250.5469 1296.3594,250.5469 Q1297.2969,250.5469 1297.9531,250.2969 Q1298.3438,250.1406 1298.7656,249.7031 Q1299.0313,249.4375 1299.1719,249.3594 Q1299.3281,249.2813 1299.5313,249.2813 Q1299.8594,249.2813 1300.1094,249.5469 Q1300.375,249.7969 1300.375,250.1406 Q1300.375,250.4844 1300.0313,250.8906 Q1299.5313,251.4688 1298.7344,251.7969 Q1297.6563,252.25 1296.3594,252.25 Q1294.8438,252.25 1293.6406,251.625 Q1292.6563,251.125 1291.9688,250.0625 Q1291.2813,248.9844 1291.2813,247.7031 L1291.2813,246.5469 Q1291.2813,245.2188 1291.8906,244.0781 Q1292.5156,242.9219 1293.6094,242.3125 Q1294.7031,241.6875 1295.9375,241.6875 Q1296.6719,241.6875 1297.3125,241.8594 Q1297.9688,242.0156 1298.5156,242.375 Z " fill="#000000"/><text fill="#000000" font-family="sans-serif" font-size="14" lengthAdjust="spacing" textLength="124" x="1313.25" y="252.2285">CommissionMapper</text><line style="stroke:#181818;stroke-width:0.5;" x1="1266" x2="1455" y1="262.5" y2="262.5"/><line style="stroke:#181818;stroke-width:0.5;" x1="1266" x2="1455" y1="270.5" y2="270.5"/><text fill="#000000" font-family="sans-serif" font-size="14" lengthAdjust="spacing" textLength="179" x="1271" y="289.0332">+toDto(commissionTypeList)</text><text fill="#000000" font-family="sans-serif" font-size="14" lengthAdjust="spacing" textLength="146" x="1271" y="306.6426">+getCommissionType()</text></g><!--class CommissionTypeDto--><g id="elem_CommissionTypeDto"><rect codeLine="105" fill="#F1F1F1" height="65.6094" id="CommissionTypeDto" rx="2.5" ry="2.5" style="stroke:#181818;stroke-width:0.5;" width="287" x="905" y="491.5"/><ellipse cx="979.25" cy="507.5" fill="#ADD1B2" rx="11" ry="11" style="stroke:#181818;stroke-width:1.0;"/><path d="M982.0156,503.375 Q982.1719,503.1563 982.3594,503.0469 Q982.5469,502.9375 982.7656,502.9375 Q983.1406,502.9375 983.375,503.2031 Q983.6094,503.4531 983.6094,504.0625 L983.6094,505.5156 Q983.6094,506.125 983.375,506.3906 Q983.1406,506.6563 982.7656,506.6563 Q982.4219,506.6563 982.2188,506.4531 Q982.0156,506.2656 981.9063,505.75 Q981.8594,505.3906 981.6719,505.2031 Q981.3438,504.8281 980.7344,504.6094 Q980.125,504.3906 979.5,504.3906 Q978.7344,504.3906 978.0938,504.7188 Q977.4688,505.0469 976.9688,505.7969 Q976.4844,506.5469 976.4844,507.5781 L976.4844,508.6719 Q976.4844,509.9063 977.375,510.7344 Q978.2656,511.5469 979.8594,511.5469 Q980.7969,511.5469 981.4531,511.2969 Q981.8438,511.1406 982.2656,510.7031 Q982.5313,510.4375 982.6719,510.3594 Q982.8281,510.2813 983.0313,510.2813 Q983.3594,510.2813 983.6094,510.5469 Q983.875,510.7969 983.875,511.1406 Q983.875,511.4844 983.5313,511.8906 Q983.0313,512.4688 982.2344,512.7969 Q981.1563,513.25 979.8594,513.25 Q978.3438,513.25 977.1406,512.625 Q976.1563,512.125 975.4688,511.0625 Q974.7813,509.9844 974.7813,508.7031 L974.7813,507.5469 Q974.7813,506.2188 975.3906,505.0781 Q976.0156,503.9219 977.1094,503.3125 Q978.2031,502.6875 979.4375,502.6875 Q980.1719,502.6875 980.8125,502.8594 Q981.4688,503.0156 982.0156,503.375 Z " fill="#000000"/><text fill="#000000" font-family="sans-serif" font-size="14" lengthAdjust="spacing" textLength="130" x="999.75" y="513.2285">CommissionTypeDto</text><line style="stroke:#181818;stroke-width:0.5;" x1="906" x2="1191" y1="523.5" y2="523.5"/><line style="stroke:#181818;stroke-width:0.5;" x1="906" x2="1191" y1="531.5" y2="531.5"/><text fill="#000000" font-family="sans-serif" font-size="14" lengthAdjust="spacing" textLength="275" x="911" y="550.0332">+CommissionTypeDto(commissionTypeList)</text></g><!--link Repositories to Repositories--><g id="link_Repositories_Repositories"><path codeLine="112" d="M1622.74,57.67 C1643.19,59.89 1657.5,65.67 1657.5,75 C1657.5,83.53 1645.54,89.09 1627.87,91.68 " fill="none" id="Repositories-to-Repositories" style="stroke:#181818;stroke-width:1.0;"/><polygon fill="#181818" points="1622.74,92.33,1632.1717,95.1661,1627.7003,91.701,1631.1653,87.2296,1622.74,92.33" style="stroke:#181818;stroke-width:1.0;"/><text fill="#000000" font-family="sans-serif" font-size="13" lengthAdjust="spacing" textLength="49" x="1663.5" y="80.4951">instance</text></g><!--link ApplicationSession to ApplicationSession--><g id="link_ApplicationSession_ApplicationSession"><path codeLine="113" d="M526.16,253.8 C546,254.88 561,260.95 561,272 C561,282.1 548.47,288.04 531.16,289.81 " fill="none" id="ApplicationSession-to-ApplicationSession" style="stroke:#181818;stroke-width:1.0;"/><polygon fill="#181818" points="526.16,290.2,535.4417,293.4939,531.1451,289.8143,534.8247,285.5177,526.16,290.2" style="stroke:#181818;stroke-width:1.0;"/><text fill="#000000" font-family="sans-serif" font-size="13" lengthAdjust="spacing" textLength="49" x="567" y="277.4951">instance</text></g><!--link ListRequestsUI to ListRequestsController--><g id="link_ListRequestsUI_ListRequestsController"><path codeLine="115" d="M454.75,75 C465.72,75 476.33,75 484.89,75 " fill="none" id="ListRequestsUI-to-ListRequestsController" style="stroke:#181818;stroke-width:1.0;stroke-dasharray:7.0,7.0;"/><polygon fill="#181818" points="489.94,75,480.94,71,484.94,75,480.94,79,489.94,75" style="stroke:#181818;stroke-width:1.0;"/></g><!--link ListRequestsController to Repositories--><g id="link_ListRequestsController_Repositories"><path codeLine="117" d="M969.09,75 C1109.04,75 1279.5,75 1391.07,75 " fill="none" id="ListRequestsController-to-Repositories" style="stroke:#181818;stroke-width:1.0;stroke-dasharray:7.0,7.0;"/><polygon fill="#181818" points="1396.34,75,1387.34,71,1391.34,75,1387.34,79,1396.34,75" style="stroke:#181818;stroke-width:1.0;"/><text fill="#000000" font-family="sans-serif" font-size="13" lengthAdjust="spacing" textLength="67" x="1149.25" y="68.4951">repositories</text></g><!--link Repositories to AgencyRepository--><g id="link_Repositories_AgencyRepository"><path codeLine="119" d="M1575.92,143.11 C1606.47,173.98 1641.5,209.37 1666.95,235.08 " fill="none" id="Repositories-to-AgencyRepository" style="stroke:#181818;stroke-width:1.0;"/><polygon fill="#181818" points="1670.63,238.8,1667.1502,229.5864,1667.116,235.2431,1661.4592,235.2088,1670.63,238.8" style="stroke:#181818;stroke-width:1.0;"/><text fill="#000000" font-family="sans-serif" font-size="13" lengthAdjust="spacing" textLength="7" x="1656.6665" y="228.2569">1</text></g><!--link Repositories to CommissionTypeRepository--><g id="link_Repositories_CommissionTypeRepository"><path codeLine="120" d="M1500.32,143.3 C1489.66,221.52 1473.5,340 1473.5,340 C1473.5,340 1469.82,351.28 1465.4,364.82 " fill="none" id="Repositories-to-CommissionTypeRepository" style="stroke:#181818;stroke-width:1.0;"/><polygon fill="#181818" points="1463.75,369.9,1470.3513,362.5909,1465.3054,365.1481,1462.7482,360.1022,1463.75,369.9" style="stroke:#181818;stroke-width:1.0;"/><text fill="#000000" font-family="sans-serif" font-size="13" lengthAdjust="spacing" textLength="7" x="1458.3648" y="359.1911">1</text></g><!--link AgencyRepository to Agency--><g id="link_AgencyRepository_Agency"><path codeLine="122" d="M1702.5,305.24 C1702.5,349.06 1702.5,427.67 1702.5,477.63 " fill="none" id="AgencyRepository-to-Agency" style="stroke:#181818;stroke-width:1.0;"/><polygon fill="#181818" points="1702.5,482.67,1706.5,473.67,1702.5,477.67,1698.5,473.67,1702.5,482.67" style="stroke:#181818;stroke-width:1.0;"/><text fill="#000000" font-family="sans-serif" font-size="13" lengthAdjust="spacing" textLength="5" x="1697.1016" y="472.234">*</text></g><!--link ApplicationSession to UserSession--><g id="link_ApplicationSession_UserSession"><path codeLine="124" d="M468.62,313.53 C490.05,361.45 525.41,440.54 546.07,486.75 " fill="none" id="ApplicationSession-to-UserSession" style="stroke:#181818;stroke-width:1.0;"/><polygon fill="#181818" points="548.14,491.39,548.1085,481.5412,546.0947,486.8275,540.8085,484.8136,548.14,491.39" style="stroke:#181818;stroke-width:1.0;"/><text fill="#000000" font-family="sans-serif" font-size="13" lengthAdjust="spacing" textLength="72" x="530.5" y="416.9951">userSession</text><text fill="#000000" font-family="sans-serif" font-size="13" lengthAdjust="spacing" textLength="7" x="537.4564" y="480.4827">1</text></g><!--link UserSession to Email--><g id="link_UserSession_Email"><path codeLine="125" d="M562.5,557.52 C562.5,581.37 562.5,613.98 562.5,639.04 " fill="none" id="UserSession-to-Email" style="stroke:#181818;stroke-width:1.0;"/><polygon fill="#181818" points="562.5,644.26,566.5,635.26,562.5,639.26,558.5,635.26,562.5,644.26" style="stroke:#181818;stroke-width:1.0;"/></g><!--link ListRequestsController to ApplicationSession--><g id="link_ListRequestsController_ApplicationSession"><path codeLine="127" d="M658.37,125.71 C613.49,157.08 556.05,197.23 512.93,227.36 " fill="none" id="ListRequestsController-to-ApplicationSession" style="stroke:#181818;stroke-width:1.0;stroke-dasharray:7.0,7.0;"/><polygon fill="#181818" points="508.81,230.25,518.4765,228.3635,512.9055,227.3817,513.8873,221.8107,508.81,230.25" style="stroke:#181818;stroke-width:1.0;"/></g><!--link ListRequestsController to UserSession--><g id="link_ListRequestsController_UserSession"><path codeLine="128" d="M713.95,125.67 C681.91,228.05 611.5,453 611.5,453 C611.5,453 599.92,469.66 588.02,486.79 " fill="none" id="ListRequestsController-to-UserSession" style="stroke:#181818;stroke-width:1.0;stroke-dasharray:7.0,7.0;"/><polygon fill="#181818" points="584.99,491.14,593.4174,486.043,587.8487,487.0378,586.8539,481.4691,584.99,491.14" style="stroke:#181818;stroke-width:1.0;"/></g><!--link ListRequestsController to RequestMapper--><g id="link_ListRequestsController_RequestMapper"><path codeLine="130" d="M538.61,125.57 C500.28,135.53 471.5,143 471.5,143 C471.5,143 157.5,204 157.5,204 C157.5,204 144.32,214.51 128.4,227.21 " fill="none" id="ListRequestsController-to-RequestMapper" style="stroke:#181818;stroke-width:1.0;stroke-dasharray:7.0,7.0;"/><polygon fill="#181818" points="124.3,230.48,133.8333,228.0067,128.2127,227.367,128.8524,221.7464,124.3,230.48" style="stroke:#181818;stroke-width:1.0;"/></g><!--link ListRequestsController to CommissionMapper--><g id="link_ListRequestsController_CommissionMapper"><path codeLine="131" d="M930.14,125.58 C1075.83,161.58 1247.5,204 1247.5,204 C1247.5,204 1265.84,214.87 1287.74,227.86 " fill="none" id="ListRequestsController-to-CommissionMapper" style="stroke:#181818;stroke-width:1.0;stroke-dasharray:7.0,7.0;"/><polygon fill="#181818" points="1292.16,230.48,1286.4376,222.4641,1287.8525,227.9412,1282.3755,229.3561,1292.16,230.48" style="stroke:#181818;stroke-width:1.0;"/></g><!--link ListRequestsController to Announcement--><g id="link_ListRequestsController_Announcement"><path codeLine="132" d="M800.12,125.71 C844.68,157.08 901.7,197.23 944.51,227.36 " fill="none" id="ListRequestsController-to-Announcement" style="stroke:#181818;stroke-width:1.0;"/><polygon fill="#181818" points="948.61,230.25,943.5466,221.8024,944.5192,227.375,938.9466,228.3476,948.61,230.25" style="stroke:#181818;stroke-width:1.0;"/></g><!--link ListRequestsController to Request--><g id="link_ListRequestsController_Request"><path codeLine="133" d="M729.5,125.71 C729.5,183.48 729.5,271 729.5,271 C729.5,271 729.5,271 729.5,678.5 C729.5,678.5 735.83,734.7 741.37,783.86 " fill="none" id="ListRequestsController-to-Request" style="stroke:#181818;stroke-width:1.0;"/><polygon fill="#181818" points="741.94,788.89,744.9128,779.5005,741.3831,783.9211,736.9625,780.3915,741.94,788.89" style="stroke:#181818;stroke-width:1.0;"/></g><!--link Agency to RequestList--><g id="link_Agency_RequestList"><path codeLine="134" d="M1594.24,566.06 C1540.15,586.33 1474.56,610.91 1419,631.72 " fill="none" id="Agency-to-RequestList" style="stroke:#181818;stroke-width:1.0;"/><polygon fill="#181818" points="1414,633.6,1423.8315,634.1852,1418.6816,631.8444,1421.0225,626.6946,1414,633.6" style="stroke:#181818;stroke-width:1.0;"/></g><!--link RequestList to Request--><g id="link_RequestList_Request"><path codeLine="135" d="M1184.72,708.99 C1061.59,741.69 883.5,789 883.5,789 C883.5,789 878.52,791.49 870.48,795.51 " fill="none" id="RequestList-to-Request" style="stroke:#181818;stroke-width:1.0;"/><polygon fill="#181818" points="865.71,797.9,875.5493,797.4654,870.185,795.6697,871.9807,790.3054,865.71,797.9" style="stroke:#181818;stroke-width:1.0;"/></g><!--link Request to Notification--><g id="link_Request_Notification"><path codeLine="136" d="M865.77,857 C876.21,857 884.17,857 884.17,857 C884.17,857 888.55,857 895.09,857 " fill="none" id="Request-to-Notification" style="stroke:#181818;stroke-width:1.0;stroke-dasharray:7.0,7.0;"/><polygon fill="#181818" points="900.47,857,891.47,853,895.47,857,891.47,861,900.47,857" style="stroke:#181818;stroke-width:1.0;"/></g><!--link CommissionTypeRepository to Commission--><g id="link_CommissionTypeRepository_Commission"><path codeLine="137" d="M1428.87,453.2 C1424.54,461.35 1419.96,469.95 1415.56,478.24 " fill="none" id="CommissionTypeRepository-to-Commission" style="stroke:#181818;stroke-width:1.0;"/><polygon fill="#181818" points="1413.13,482.8,1420.8825,476.7255,1415.474,478.3835,1413.8161,472.9751,1413.13,482.8" style="stroke:#181818;stroke-width:1.0;"/></g><!--link Announcement to Commission--><g id="link_Announcement_Commission"><path codeLine="138" d="M1066.53,313.62 C1144.98,366.71 1272.5,453 1272.5,453 C1272.5,453 1293.96,465.71 1318.65,480.34 " fill="none" id="Announcement-to-Commission" style="stroke:#181818;stroke-width:1.0;"/><polygon fill="#181818" points="1322.97,482.9,1317.2673,474.8701,1318.6688,480.3506,1313.1883,481.7521,1322.97,482.9" style="stroke:#181818;stroke-width:1.0;"/></g><!--link CommissionMapper to CommissionTypeDto--><g id="link_CommissionMapper_CommissionTypeDto"><path codeLine="139" d="M1310.03,313.53 C1249.73,361.94 1149.84,442.14 1092.54,488.14 " fill="none" id="CommissionMapper-to-CommissionTypeDto" style="stroke:#181818;stroke-width:1.0;stroke-dasharray:7.0,7.0;"/><polygon fill="#181818" points="1088.49,491.39,1098.0132,488.8785,1092.3902,488.2613,1093.0073,482.6382,1088.49,491.39" style="stroke:#181818;stroke-width:1.0;"/></g><!--link RequestMapper to RequestDto--><g id="link_RequestMapper_RequestDto"><path codeLine="140" d="M140.06,272 C146.8,272 158.98,272 170.27,272 " fill="none" id="RequestMapper-to-RequestDto" style="stroke:#181818;stroke-width:1.0;stroke-dasharray:7.0,7.0;"/><polygon fill="#181818" points="175.38,272,166.38,268,170.38,272,166.38,276,175.38,272" style="stroke:#181818;stroke-width:1.0;"/></g><!--SRC=[VLPDRzim3BthLmYxn5sIOhlsK21DEon0knLDkvqrcN64sf8doIZSOlzzbFmX-IF98R78nwT7YgApCAz2baopWXPAAdxKgW1gTGKaU4h6Nra6UrldG3LmosIMnm1pPAbw4pAZ1vQRs9CB2ROkWPOghzs2B6QSIbj5eYYUCsCsrchnfxAmuqhknJlGBuGiSZXOQXNL8ZjQcWedHoX9Y8-XcxBC1MVEj0TZy8T-48gV9JKMpPncO7SIdoM7vA9reMrRQGtIja7e-TTHlXZGOouCSEQxWecymIuQy2Deut4B1rnJB9kq7aOMFUDM5ONmXC-O_HEKoWYhT1tJ3p7tmjXExSHvKz-24PdqMITfU8wIsA0ENizlrVXkwhkYp5KDq6GLb4SqFO40qrAi1yQufA7Cz0hR9e1EPHdanJHZwL4TDfKzeihsm0UGNh8htHFyhS1OirNIQfNdeFlyvzs9qXcJudt4kwAMcTSjiv3XAjWZjSy14CgnTfwklD_mYisqMIpaPOVwUey_1DIxj6gFLq9cSTX6IbLXaGkiGtSWzugp_1P5KCOvbFuGtB9H6KSqfxoYV70EyVeNooiqw4PPj74ukcvRhW4tISQnG-wsL25wWgVZW54JZphNkiPr3GlkU-Ll7A-xkZDPUz1tPiwsjS_kWooFp7ZyRs6Fqu0bIrCilckzdsyotF-b0Pas2zNRLxJ0KyRm2q-xPmNiqaIaqttTqUFU1iTWQxcf7vHh1uvxRz8KqePYqrCu2JqMRUtvx6RO7rXPWaP-gswjIlgJR9CPmn7pGTQbLXXawtu86xBkzo1a6S0H8MfwdCGb0x6xTaiXBUW3uq1_A2iExGt-c6klaNu-6OpD1iDHainsglFu_9OJsooluo1aCFJMryCXU4L5E-R8pBi7qJFMA8QChltbzOc9D4H6W-no8cWmQaVgKT2dhvychuDvrAdfJCZaTU93FdV4PBOMBMlyFhsYLLYHsEFGpNlpPEANSyKzXuxupx8EBiuvuBX9Js5TCl7OFOdhzsuhx2EZAK6YvzZNsLqtn1UAdFohiOxLarYSvuryuoH7cRVtXmoAHaCLdSz__WC0]--></g></svg>