<?xml version="1.0" encoding="UTF-8" standalone="no"?><svg xmlns="http://www.w3.org/2000/svg" xmlns:xlink="http://www.w3.org/1999/xlink" contentStyleType="text/css" height="541px" preserveAspectRatio="none" style="width:1349px;height:541px;background:#FFFFFF;" version="1.1" viewBox="0 0 1349 541" width="1349px" zoomAndPan="magnify"><defs/><g><rect fill="#FFFFFF" height="381.5469" style="stroke:#181818;stroke-width:1.0;" width="10" x="469" y="87.5703"/><rect fill="#FFFFFF" height="128.0547" style="stroke:#181818;stroke-width:1.0;" width="10" x="474" y="296.7109"/><rect fill="#FFFFFF" height="41.3516" style="stroke:#181818;stroke-width:1.0;" width="10" x="479" y="340.0625"/><rect fill="#FFFFFF" height="50.2188" style="stroke:#181818;stroke-width:1.0;" width="10" x="927.5" y="153.2734"/><rect fill="none" height="337.1953" style="stroke:#000000;stroke-width:1.5;" width="912" x="431.5" y="102.5703"/><line style="stroke:#181818;stroke-width:0.5;stroke-dasharray:5.0,5.0;" x1="473.5" x2="473.5" y1="55.2188" y2="487.1172"/><line style="stroke:#181818;stroke-width:0.5;stroke-dasharray:5.0,5.0;" x1="932" x2="932" y1="161.0313" y2="487.1172"/><line style="stroke:#181818;stroke-width:0.5;stroke-dasharray:5.0,5.0;" x1="1286.5" x2="1286.5" y1="221.25" y2="487.1172"/><rect fill="#E3E3E3" height="49.2188" rx="2.5" ry="2.5" style="stroke:#181818;stroke-width:0.5;" width="65" x="441.5" y="5"/><text fill="#000000" font-family="sans-serif" font-size="14" lengthAdjust="spacing" textLength="46" x="451" y="26.5332">agency</text><text fill="#000000" font-family="sans-serif" font-size="14" lengthAdjust="spacing" textLength="51" x="448.5" y="44.1426">:Agency</text><rect fill="#E3E3E3" height="49.2188" rx="2.5" ry="2.5" style="stroke:#181818;stroke-width:0.5;" width="65" x="441.5" y="486.1172"/><text fill="#000000" font-family="sans-serif" font-size="14" lengthAdjust="spacing" textLength="46" x="451" y="507.6504">agency</text><text fill="#000000" font-family="sans-serif" font-size="14" lengthAdjust="spacing" textLength="51" x="448.5" y="525.2598">:Agency</text><rect fill="#E3E3E3" height="49.2188" rx="2.5" ry="2.5" style="stroke:#181818;stroke-width:0.5;" width="113" x="876" y="486.1172"/><text fill="#000000" font-family="sans-serif" font-size="14" lengthAdjust="spacing" textLength="94" x="885.5" y="507.6504">announcement</text><text fill="#000000" font-family="sans-serif" font-size="14" lengthAdjust="spacing" textLength="99" x="883" y="525.2598">:Announcement</text><rect fill="#E3E3E3" height="49.2188" rx="2.5" ry="2.5" style="stroke:#181818;stroke-width:0.5;" width="94" x="1239.5" y="486.1172"/><text fill="#000000" font-family="sans-serif" font-size="14" lengthAdjust="spacing" textLength="73" x="1250" y="507.6504">commission</text><text fill="#000000" font-family="sans-serif" font-size="14" lengthAdjust="spacing" textLength="80" x="1246.5" y="525.2598">:Commission</text><rect fill="#FFFFFF" height="381.5469" style="stroke:#181818;stroke-width:1.0;" width="10" x="469" y="87.5703"/><rect fill="#FFFFFF" height="128.0547" style="stroke:#181818;stroke-width:1.0;" width="10" x="474" y="296.7109"/><rect fill="#FFFFFF" height="41.3516" style="stroke:#181818;stroke-width:1.0;" width="10" x="479" y="340.0625"/><rect fill="#FFFFFF" height="50.2188" style="stroke:#181818;stroke-width:1.0;" width="10" x="927.5" y="153.2734"/><polygon fill="#181818" points="457,83.5703,467,87.5703,457,91.5703,461,87.5703" style="stroke:#181818;stroke-width:1.0;"/><line style="stroke:#181818;stroke-width:1.0;" x1="0" x2="463" y1="87.5703" y2="87.5703"/><text fill="#000000" font-family="sans-serif" font-size="13" font-weight="bold" lengthAdjust="spacing" textLength="14" x="7" y="82.7139">46</text><text fill="#000000" font-family="sans-serif" font-size="13" lengthAdjust="spacing" textLength="432" x="25" y="82.7139">publishAnnouncement(agent,commissionType, commissionValue, request)</text><path d="M431.5,102.5703 L622.5,102.5703 L622.5,110.9219 L612.5,120.9219 L431.5,120.9219 L431.5,102.5703 " fill="#EEEEEE" style="stroke:#000000;stroke-width:1.5;"/><rect fill="none" height="337.1953" style="stroke:#000000;stroke-width:1.5;" width="912" x="431.5" y="102.5703"/><text fill="#000000" font-family="sans-serif" font-size="13" font-weight="bold" lengthAdjust="spacing" textLength="146" x="446.5" y="117.0654">Publish announcement</text><polygon fill="#181818" points="864,139.2734,874,143.2734,864,147.2734,868,143.2734" style="stroke:#181818;stroke-width:1.0;"/><line style="stroke:#181818;stroke-width:1.0;" x1="479" x2="870" y1="143.2734" y2="143.2734"/><text fill="#000000" font-family="sans-serif" font-size="13" font-weight="bold" lengthAdjust="spacing" textLength="25" x="486" y="138.417">46.1</text><text fill="#000000" font-family="sans-serif" font-size="13" lengthAdjust="spacing" textLength="344" x="515" y="138.417">create(agent, commissionType, commissionValue, request)</text><rect fill="#E3E3E3" height="49.2188" rx="2.5" ry="2.5" style="stroke:#181818;stroke-width:0.5;" width="113" x="876" y="120.9219"/><text fill="#000000" font-family="sans-serif" font-size="14" lengthAdjust="spacing" textLength="94" x="885.5" y="142.4551">announcement</text><text fill="#000000" font-family="sans-serif" font-size="14" lengthAdjust="spacing" textLength="99" x="883" y="160.0645">:Announcement</text><polygon fill="#181818" points="1227.5,199.4922,1237.5,203.4922,1227.5,207.4922,1231.5,203.4922" style="stroke:#181818;stroke-width:1.0;"/><line style="stroke:#181818;stroke-width:1.0;" x1="932.5" x2="1233.5" y1="203.4922" y2="203.4922"/><text fill="#000000" font-family="sans-serif" font-size="13" font-weight="bold" lengthAdjust="spacing" textLength="25" x="939.5" y="198.6357">46.2</text><text fill="#000000" font-family="sans-serif" font-size="13" lengthAdjust="spacing" textLength="249" x="968.5" y="198.6357">create(commissionValue,commissionType)</text><rect fill="#E3E3E3" height="49.2188" rx="2.5" ry="2.5" style="stroke:#181818;stroke-width:0.5;" width="94" x="1239.5" y="181.1406"/><text fill="#000000" font-family="sans-serif" font-size="14" lengthAdjust="spacing" textLength="73" x="1250" y="202.6738">commission</text><text fill="#000000" font-family="sans-serif" font-size="14" lengthAdjust="spacing" textLength="80" x="1246.5" y="220.2832">:Commission</text><line style="stroke:#181818;stroke-width:1.0;" x1="479" x2="526" y1="283.7109" y2="283.7109"/><line style="stroke:#181818;stroke-width:1.0;" x1="526" x2="526" y1="283.7109" y2="296.7109"/><line style="stroke:#181818;stroke-width:1.0;" x1="485" x2="526" y1="296.7109" y2="296.7109"/><polygon fill="#181818" points="495,292.7109,485,296.7109,495,300.7109,491,296.7109" style="stroke:#181818;stroke-width:1.0;"/><text fill="#000000" font-family="sans-serif" font-size="13" font-weight="bold" lengthAdjust="spacing" textLength="25" x="491" y="278.8545">46.3</text><text fill="#000000" font-family="sans-serif" font-size="13" lengthAdjust="spacing" textLength="201" x="520" y="278.8545">addAnnouncement(announcement)</text><line style="stroke:#181818;stroke-width:1.0;" x1="484" x2="531" y1="327.0625" y2="327.0625"/><line style="stroke:#181818;stroke-width:1.0;" x1="531" x2="531" y1="327.0625" y2="340.0625"/><line style="stroke:#181818;stroke-width:1.0;" x1="490" x2="531" y1="340.0625" y2="340.0625"/><polygon fill="#181818" points="500,336.0625,490,340.0625,500,344.0625,496,340.0625" style="stroke:#181818;stroke-width:1.0;"/><text fill="#000000" font-family="sans-serif" font-size="13" font-weight="bold" lengthAdjust="spacing" textLength="25" x="496" y="322.2061">46.4</text><text fill="#000000" font-family="sans-serif" font-size="13" lengthAdjust="spacing" textLength="223" x="525" y="322.2061">validateAnnouncement(announcement)</text><line style="stroke:#181818;stroke-width:1.0;stroke-dasharray:2.0,2.0;" x1="489" x2="531" y1="380.4141" y2="380.4141"/><line style="stroke:#181818;stroke-width:1.0;stroke-dasharray:2.0,2.0;" x1="531" x2="531" y1="380.4141" y2="393.4141"/><line style="stroke:#181818;stroke-width:1.0;stroke-dasharray:2.0,2.0;" x1="484" x2="531" y1="393.4141" y2="393.4141"/><polygon fill="#181818" points="494,389.4141,484,393.4141,494,397.4141,490,393.4141" style="stroke:#181818;stroke-width:1.0;"/><text fill="#000000" font-family="sans-serif" font-size="13" font-weight="bold" lengthAdjust="spacing" textLength="25" x="496" y="375.5576">46.5</text><text fill="#000000" font-family="sans-serif" font-size="13" lengthAdjust="spacing" textLength="4" x="525" y="375.5576"> </text><line style="stroke:#181818;stroke-width:1.0;stroke-dasharray:2.0,2.0;" x1="484" x2="526" y1="423.7656" y2="423.7656"/><line style="stroke:#181818;stroke-width:1.0;stroke-dasharray:2.0,2.0;" x1="526" x2="526" y1="423.7656" y2="436.7656"/><line style="stroke:#181818;stroke-width:1.0;stroke-dasharray:2.0,2.0;" x1="479" x2="526" y1="436.7656" y2="436.7656"/><polygon fill="#181818" points="489,432.7656,479,436.7656,489,440.7656,485,436.7656" style="stroke:#181818;stroke-width:1.0;"/><text fill="#000000" font-family="sans-serif" font-size="13" font-weight="bold" lengthAdjust="spacing" textLength="25" x="491" y="418.9092">46.6</text><text fill="#000000" font-family="sans-serif" font-size="13" lengthAdjust="spacing" textLength="4" x="520" y="418.9092"> </text><polygon fill="#181818" points="11,465.1172,1,469.1172,11,473.1172,7,469.1172" style="stroke:#181818;stroke-width:1.0;"/><line style="stroke:#181818;stroke-width:1.0;stroke-dasharray:2.0,2.0;" x1="5" x2="473" y1="469.1172" y2="469.1172"/><text fill="#000000" font-family="sans-serif" font-size="13" font-weight="bold" lengthAdjust="spacing" textLength="14" x="17" y="464.2607">47</text><text fill="#000000" font-family="sans-serif" font-size="13" lengthAdjust="spacing" textLength="85" x="35" y="464.2607">announcement</text><!--SRC=[dPFVIyCm4CVVyrSSFhco2O8e5176AhA7RS9447p9qhCBQvEQ7vF1_dZRjRP9rurXddBNxztdcqkgDrpaLD4CCYaaMokP8HXbaUZcIqxPXYQuDBiKGI4pL2IfAz1h6iiVBXBuegb6GegquOpdL1YuAae5stsAS7pON07LC7vvday-EZeXf1KCCnIcL3jXLHFvUYQpZ6lDfIZKaoOuQ2UBsMowN4uNSqAeDLBOR8KAxku90NUDdceh449kLodNQvTxNNetmvRqjijn26tyJbDR91H-MzHcu3UdpF0jDVXtMj_9pMtb9L7Ivl1QmS4T0kcOBLPjjhGT1K48J641g6t2FtrwLgCUQ5G2sv460JJaBiAtC3Xkjj_lZt8ndkUtXpxiGg1nx5-J4_GmknS1FUiOigKfZukgCwI-HfV0N613x5MwewbVqMNDo8akBWn5x3_AXwhiSJHgVmllHPwmH7u1]--></g></svg>