<?xml version="1.0" encoding="UTF-8" standalone="no"?><svg xmlns="http://www.w3.org/2000/svg" xmlns:xlink="http://www.w3.org/1999/xlink" contentStyleType="text/css" height="720px" preserveAspectRatio="none" style="width:553px;height:720px;background:#FFFFFF;" version="1.1" viewBox="0 0 553 720" width="553px" zoomAndPan="magnify"><defs/><g><rect fill="#FFFFFF" height="560.9219" style="stroke:#181818;stroke-width:1.0;" width="10" x="133" y="87.5703"/><rect fill="#FFFFFF" height="442.8672" style="stroke:#181818;stroke-width:1.0;" width="10" x="287" y="143.2734"/><rect fill="#FFFFFF" height="309.8125" style="stroke:#181818;stroke-width:1.0;" width="10" x="292" y="206.9766"/><rect fill="#FFFFFF" height="41.3516" style="stroke:#181818;stroke-width:1.0;" width="10" x="297" y="432.0859"/><rect fill="#FFFFFF" height="30.3516" style="stroke:#181818;stroke-width:1.0;" width="10" x="474" y="242.3281"/><rect fill="#FFFFFF" height="30.3516" style="stroke:#181818;stroke-width:1.0;" width="10" x="474" y="303.0313"/><rect fill="#FFFFFF" height="30" style="stroke:#181818;stroke-width:1.0;" width="10" x="474" y="363.7344"/><rect fill="none" height="516.5703" style="stroke:#000000;stroke-width:1.5;" width="500.5" x="47" y="102.5703"/><rect fill="none" height="398.5156" style="stroke:#000000;stroke-width:1.5;" width="317" x="220.5" y="158.2734"/><line style="stroke:#181818;stroke-width:0.5;stroke-dasharray:5.0,5.0;" x1="138" x2="138" y1="55.2188" y2="666.4922"/><line style="stroke:#181818;stroke-width:0.5;stroke-dasharray:5.0,5.0;" x1="291.5" x2="291.5" y1="55.2188" y2="666.4922"/><line style="stroke:#181818;stroke-width:0.5;stroke-dasharray:5.0,5.0;" x1="478.5" x2="478.5" y1="55.2188" y2="666.4922"/><rect fill="#E3E3E3" height="31.6094" rx="2.5" ry="2.5" style="stroke:#181818;stroke-width:0.5;" width="162" x="57" y="22.6094"/><text fill="#000000" font-family="sans-serif" font-size="14" lengthAdjust="spacing" textLength="148" x="64" y="44.1426">:ListRequestsController</text><rect fill="#E3E3E3" height="31.6094" rx="2.5" ry="2.5" style="stroke:#181818;stroke-width:0.5;" width="162" x="57" y="665.4922"/><text fill="#000000" font-family="sans-serif" font-size="14" lengthAdjust="spacing" textLength="148" x="64" y="687.0254">:ListRequestsController</text><rect fill="#E3E3E3" height="49.2188" rx="2.5" ry="2.5" style="stroke:#181818;stroke-width:0.5;" width="123" x="230.5" y="5"/><text fill="#000000" font-family="sans-serif" font-size="14" lengthAdjust="spacing" textLength="96" x="244" y="26.5332">requestMapper</text><text fill="#000000" font-family="sans-serif" font-size="14" lengthAdjust="spacing" textLength="109" x="237.5" y="44.1426">: RequestMapper</text><rect fill="#E3E3E3" height="49.2188" rx="2.5" ry="2.5" style="stroke:#181818;stroke-width:0.5;" width="123" x="230.5" y="665.4922"/><text fill="#000000" font-family="sans-serif" font-size="14" lengthAdjust="spacing" textLength="96" x="244" y="687.0254">requestMapper</text><text fill="#000000" font-family="sans-serif" font-size="14" lengthAdjust="spacing" textLength="109" x="237.5" y="704.6348">: RequestMapper</text><rect fill="#E3E3E3" height="49.2188" rx="2.5" ry="2.5" style="stroke:#181818;stroke-width:0.5;" width="97" x="430.5" y="5"/><text fill="#000000" font-family="sans-serif" font-size="14" lengthAdjust="spacing" textLength="70" x="444" y="26.5332">requestDto</text><text fill="#000000" font-family="sans-serif" font-size="14" lengthAdjust="spacing" textLength="83" x="437.5" y="44.1426">: RequestDto</text><rect fill="#E3E3E3" height="49.2188" rx="2.5" ry="2.5" style="stroke:#181818;stroke-width:0.5;" width="97" x="430.5" y="665.4922"/><text fill="#000000" font-family="sans-serif" font-size="14" lengthAdjust="spacing" textLength="70" x="444" y="687.0254">requestDto</text><text fill="#000000" font-family="sans-serif" font-size="14" lengthAdjust="spacing" textLength="83" x="437.5" y="704.6348">: RequestDto</text><rect fill="#FFFFFF" height="560.9219" style="stroke:#181818;stroke-width:1.0;" width="10" x="133" y="87.5703"/><rect fill="#FFFFFF" height="442.8672" style="stroke:#181818;stroke-width:1.0;" width="10" x="287" y="143.2734"/><rect fill="#FFFFFF" height="309.8125" style="stroke:#181818;stroke-width:1.0;" width="10" x="292" y="206.9766"/><rect fill="#FFFFFF" height="41.3516" style="stroke:#181818;stroke-width:1.0;" width="10" x="297" y="432.0859"/><rect fill="#FFFFFF" height="30.3516" style="stroke:#181818;stroke-width:1.0;" width="10" x="474" y="242.3281"/><rect fill="#FFFFFF" height="30.3516" style="stroke:#181818;stroke-width:1.0;" width="10" x="474" y="303.0313"/><rect fill="#FFFFFF" height="30" style="stroke:#181818;stroke-width:1.0;" width="10" x="474" y="363.7344"/><polygon fill="#181818" points="121,83.5703,131,87.5703,121,91.5703,125,87.5703" style="stroke:#181818;stroke-width:1.0;"/><line style="stroke:#181818;stroke-width:1.0;" x1="0" x2="127" y1="87.5703" y2="87.5703"/><text fill="#000000" font-family="sans-serif" font-size="13" font-weight="bold" lengthAdjust="spacing" textLength="7" x="7" y="82.7139">4</text><text fill="#000000" font-family="sans-serif" font-size="13" lengthAdjust="spacing" textLength="103" x="18" y="82.7139">toDto(requestList)</text><path d="M47,102.5703 L261,102.5703 L261,110.9219 L251,120.9219 L47,120.9219 L47,102.5703 " fill="#EEEEEE" style="stroke:#000000;stroke-width:1.5;"/><rect fill="none" height="516.5703" style="stroke:#000000;stroke-width:1.5;" width="500.5" x="47" y="102.5703"/><text fill="#000000" font-family="sans-serif" font-size="13" font-weight="bold" lengthAdjust="spacing" textLength="169" x="62" y="117.0654">Convert request list to DTO</text><polygon fill="#181818" points="275,139.2734,285,143.2734,275,147.2734,279,143.2734" style="stroke:#181818;stroke-width:1.0;"/><line style="stroke:#181818;stroke-width:1.0;" x1="143" x2="281" y1="143.2734" y2="143.2734"/><text fill="#000000" font-family="sans-serif" font-size="13" font-weight="bold" lengthAdjust="spacing" textLength="18" x="150" y="138.417">4.1</text><text fill="#000000" font-family="sans-serif" font-size="13" lengthAdjust="spacing" textLength="103" x="172" y="138.417">toDto(requestList)</text><path d="M220.5,158.2734 L293.5,158.2734 L293.5,166.625 L283.5,176.625 L220.5,176.625 L220.5,158.2734 " fill="#EEEEEE" style="stroke:#000000;stroke-width:1.5;"/><rect fill="none" height="398.5156" style="stroke:#000000;stroke-width:1.5;" width="317" x="220.5" y="158.2734"/><text fill="#000000" font-family="sans-serif" font-size="13" font-weight="bold" lengthAdjust="spacing" textLength="28" x="235.5" y="172.7686">loop</text><text fill="#000000" font-family="sans-serif" font-size="11" font-weight="bold" lengthAdjust="spacing" textLength="100" x="308.5" y="171.6924">[for each request]</text><line style="stroke:#181818;stroke-width:1.0;" x1="297" x2="344" y1="193.9766" y2="193.9766"/><line style="stroke:#181818;stroke-width:1.0;" x1="344" x2="344" y1="193.9766" y2="206.9766"/><line style="stroke:#181818;stroke-width:1.0;" x1="303" x2="344" y1="206.9766" y2="206.9766"/><polygon fill="#181818" points="313,202.9766,303,206.9766,313,210.9766,309,206.9766" style="stroke:#181818;stroke-width:1.0;"/><text fill="#000000" font-family="sans-serif" font-size="13" font-weight="bold" lengthAdjust="spacing" textLength="18" x="309" y="189.1201">4.2</text><text fill="#000000" font-family="sans-serif" font-size="13" lengthAdjust="spacing" textLength="82" x="331" y="189.1201">toDto(request)</text><polygon fill="#181818" points="462,238.3281,472,242.3281,462,246.3281,466,242.3281" style="stroke:#181818;stroke-width:1.0;"/><line style="stroke:#181818;stroke-width:1.0;" x1="302" x2="468" y1="242.3281" y2="242.3281"/><text fill="#000000" font-family="sans-serif" font-size="13" font-weight="bold" lengthAdjust="spacing" textLength="18" x="309" y="237.4717">4.3</text><text fill="#000000" font-family="sans-serif" font-size="13" lengthAdjust="spacing" textLength="131" x="331" y="237.4717">getPropertyAttributes()</text><polygon fill="#181818" points="313,268.6797,303,272.6797,313,276.6797,309,272.6797" style="stroke:#181818;stroke-width:1.0;"/><line style="stroke:#181818;stroke-width:1.0;stroke-dasharray:2.0,2.0;" x1="307" x2="478" y1="272.6797" y2="272.6797"/><text fill="#000000" font-family="sans-serif" font-size="13" font-weight="bold" lengthAdjust="spacing" textLength="18" x="319" y="267.8232">4.4</text><text fill="#000000" font-family="sans-serif" font-size="13" lengthAdjust="spacing" textLength="103" x="341" y="267.8232">propertyAttributes</text><polygon fill="#181818" points="462,299.0313,472,303.0313,462,307.0313,466,303.0313" style="stroke:#181818;stroke-width:1.0;"/><line style="stroke:#181818;stroke-width:1.0;" x1="302" x2="468" y1="303.0313" y2="303.0313"/><text fill="#000000" font-family="sans-serif" font-size="13" font-weight="bold" lengthAdjust="spacing" textLength="18" x="309" y="298.1748">4.5</text><text fill="#000000" font-family="sans-serif" font-size="13" lengthAdjust="spacing" textLength="86" x="331" y="298.1748">getRequestID()</text><polygon fill="#181818" points="313,329.3828,303,333.3828,313,337.3828,309,333.3828" style="stroke:#181818;stroke-width:1.0;"/><line style="stroke:#181818;stroke-width:1.0;stroke-dasharray:2.0,2.0;" x1="307" x2="478" y1="333.3828" y2="333.3828"/><text fill="#000000" font-family="sans-serif" font-size="13" font-weight="bold" lengthAdjust="spacing" textLength="18" x="319" y="328.5264">4.6</text><text fill="#000000" font-family="sans-serif" font-size="13" lengthAdjust="spacing" textLength="55" x="341" y="328.5264">requestID</text><polygon fill="#181818" points="462,359.7344,472,363.7344,462,367.7344,466,363.7344" style="stroke:#181818;stroke-width:1.0;"/><line style="stroke:#181818;stroke-width:1.0;" x1="302" x2="468" y1="363.7344" y2="363.7344"/><text fill="#000000" font-family="sans-serif" font-size="13" font-weight="bold" lengthAdjust="spacing" textLength="18" x="309" y="358.8779">4.7</text><text fill="#000000" font-family="sans-serif" font-size="13" lengthAdjust="spacing" textLength="36" x="331" y="358.8779">create</text><line style="stroke:#181818;stroke-width:1.0;" x1="302" x2="349" y1="419.0859" y2="419.0859"/><line style="stroke:#181818;stroke-width:1.0;" x1="349" x2="349" y1="419.0859" y2="432.0859"/><line style="stroke:#181818;stroke-width:1.0;" x1="308" x2="349" y1="432.0859" y2="432.0859"/><polygon fill="#181818" points="318,428.0859,308,432.0859,318,436.0859,314,432.0859" style="stroke:#181818;stroke-width:1.0;"/><text fill="#000000" font-family="sans-serif" font-size="13" font-weight="bold" lengthAdjust="spacing" textLength="18" x="314" y="414.2295">4.8</text><text fill="#000000" font-family="sans-serif" font-size="13" lengthAdjust="spacing" textLength="29" x="336" y="414.2295">add()</text><line style="stroke:#181818;stroke-width:1.0;stroke-dasharray:2.0,2.0;" x1="307" x2="349" y1="472.4375" y2="472.4375"/><line style="stroke:#181818;stroke-width:1.0;stroke-dasharray:2.0,2.0;" x1="349" x2="349" y1="472.4375" y2="485.4375"/><line style="stroke:#181818;stroke-width:1.0;stroke-dasharray:2.0,2.0;" x1="302" x2="349" y1="485.4375" y2="485.4375"/><polygon fill="#181818" points="312,481.4375,302,485.4375,312,489.4375,308,485.4375" style="stroke:#181818;stroke-width:1.0;"/><text fill="#000000" font-family="sans-serif" font-size="13" font-weight="bold" lengthAdjust="spacing" textLength="18" x="314" y="467.5811">4.9</text><text fill="#000000" font-family="sans-serif" font-size="13" lengthAdjust="spacing" textLength="4" x="336" y="467.5811"> </text><line style="stroke:#181818;stroke-width:1.0;stroke-dasharray:2.0,2.0;" x1="302" x2="344" y1="515.7891" y2="515.7891"/><line style="stroke:#181818;stroke-width:1.0;stroke-dasharray:2.0,2.0;" x1="344" x2="344" y1="515.7891" y2="528.7891"/><line style="stroke:#181818;stroke-width:1.0;stroke-dasharray:2.0,2.0;" x1="297" x2="344" y1="528.7891" y2="528.7891"/><polygon fill="#181818" points="307,524.7891,297,528.7891,307,532.7891,303,528.7891" style="stroke:#181818;stroke-width:1.0;"/><text fill="#000000" font-family="sans-serif" font-size="13" font-weight="bold" lengthAdjust="spacing" textLength="25" x="309" y="510.9326">4.10</text><text fill="#000000" font-family="sans-serif" font-size="13" lengthAdjust="spacing" textLength="4" x="338" y="510.9326"> </text><polygon fill="#181818" points="154,582.1406,144,586.1406,154,590.1406,150,586.1406" style="stroke:#181818;stroke-width:1.0;"/><line style="stroke:#181818;stroke-width:1.0;stroke-dasharray:2.0,2.0;" x1="148" x2="291" y1="586.1406" y2="586.1406"/><text fill="#000000" font-family="sans-serif" font-size="13" font-weight="bold" lengthAdjust="spacing" textLength="25" x="160" y="581.2842">4.11</text><text fill="#000000" font-family="sans-serif" font-size="13" lengthAdjust="spacing" textLength="84" x="189" y="581.2842">requestListDto</text><polygon fill="#181818" points="11,644.4922,1,648.4922,11,652.4922,7,648.4922" style="stroke:#181818;stroke-width:1.0;"/><line style="stroke:#181818;stroke-width:1.0;stroke-dasharray:2.0,2.0;" x1="5" x2="137" y1="648.4922" y2="648.4922"/><text fill="#000000" font-family="sans-serif" font-size="13" font-weight="bold" lengthAdjust="spacing" textLength="7" x="17" y="643.6357">5</text><text fill="#000000" font-family="sans-serif" font-size="13" lengthAdjust="spacing" textLength="84" x="28" y="643.6357">requestListDto</text><!--SRC=[fPF1Ji9048Rl-nGJJdYeYObUY34nS371Q92Zbw4TIaExkyvECIGylDjjWG8LHNjfTsR-xv_TxRXbfYqo5b0ORU85cu90k2JbTXcByH9JUfDrJi0K2-eqRnUu1IRcCzCfp35tf9JoSSdYpA8Mw0t6cPC9VPJan0sD5ZPvJjm3T32SJiQ7rLmNFgErnEzw09Ds88Xyf5vrAaTYMZA_schyfr9OYj5bCIE6MmN-YHv24mCGumlw3QHg-IhaCPPiXK9rgofbKrhmkrWH2pJLaFjo3u3HzENGulecG2fjvRJh77xss-yon7DZBCmD0s6ys1g7p1vwpk4y_PZXXHwGahooyL5PFufmDYk5NF-K54wsmLJAwAWHUm89rGbz1-dkfRdIfz4VMk2jzdBdcCaNTZfUmDfrWadI__Lb76ex_FwfgnARpIQyIITTdF3lxWwm-b6xTtv4L1u7OLhQ0t4Nyd0VHStKTM3Rt7helW00]--></g></svg>