<?xml version="1.0" encoding="UTF-8" standalone="no"?><svg xmlns="http://www.w3.org/2000/svg" xmlns:xlink="http://www.w3.org/1999/xlink" contentStyleType="text/css" height="668px" preserveAspectRatio="none" style="width:1059px;height:668px;background:#FFFFFF;" version="1.1" viewBox="0 0 1059 668" width="1059px" zoomAndPan="magnify"><defs/><g><rect fill="#FFFFFF" height="509.0859" style="stroke:#181818;stroke-width:1.0;" width="10" x="195" y="87.5703"/><rect fill="#FFFFFF" height="416.0313" style="stroke:#181818;stroke-width:1.0;" width="10" x="411" y="143.2734"/><rect fill="#FFFFFF" height="162.4063" style="stroke:#181818;stroke-width:1.0;" width="10" x="416" y="267.1953"/><rect fill="#FFFFFF" height="30.3516" style="stroke:#181818;stroke-width:1.0;" width="10" x="601" y="302.5469"/><rect fill="#FFFFFF" height="30" style="stroke:#181818;stroke-width:1.0;" width="10" x="771" y="466.9531"/><rect fill="#FFFFFF" height="30" style="stroke:#181818;stroke-width:1.0;" width="10" x="952" y="363.25"/><rect fill="none" height="464.7344" style="stroke:#000000;stroke-width:1.5;" width="944" x="109" y="102.5703"/><rect fill="none" height="311.4609" style="stroke:#000000;stroke-width:1.5;" width="726" x="317" y="218.4922"/><line style="stroke:#181818;stroke-width:0.5;stroke-dasharray:5.0,5.0;" x1="200" x2="200" y1="55.2188" y2="614.6563"/><line style="stroke:#181818;stroke-width:0.5;stroke-dasharray:5.0,5.0;" x1="416" x2="416" y1="55.2188" y2="614.6563"/><line style="stroke:#181818;stroke-width:0.5;stroke-dasharray:5.0,5.0;" x1="606" x2="606" y1="55.2188" y2="614.6563"/><line style="stroke:#181818;stroke-width:0.5;stroke-dasharray:5.0,5.0;" x1="776" x2="776" y1="191.3828" y2="614.6563"/><line style="stroke:#181818;stroke-width:0.5;stroke-dasharray:5.0,5.0;" x1="957" x2="957" y1="55.2188" y2="614.6563"/><rect fill="#E3E3E3" height="31.6094" rx="2.5" ry="2.5" style="stroke:#181818;stroke-width:0.5;" width="162" x="119" y="22.6094"/><text fill="#000000" font-family="sans-serif" font-size="14" lengthAdjust="spacing" textLength="148" x="126" y="44.1426">:ListRequestsController</text><rect fill="#E3E3E3" height="31.6094" rx="2.5" ry="2.5" style="stroke:#181818;stroke-width:0.5;" width="162" x="119" y="613.6563"/><text fill="#000000" font-family="sans-serif" font-size="14" lengthAdjust="spacing" textLength="148" x="126" y="635.1895">:ListRequestsController</text><rect fill="#E3E3E3" height="49.2188" rx="2.5" ry="2.5" style="stroke:#181818;stroke-width:0.5;" width="178" x="327" y="5"/><text fill="#000000" font-family="sans-serif" font-size="14" lengthAdjust="spacing" textLength="153" x="339.5" y="26.5332">commissionTypeMapper</text><text fill="#000000" font-family="sans-serif" font-size="14" lengthAdjust="spacing" textLength="164" x="334" y="44.1426">: CommissionTypeMapper</text><rect fill="#E3E3E3" height="49.2188" rx="2.5" ry="2.5" style="stroke:#181818;stroke-width:0.5;" width="178" x="327" y="613.6563"/><text fill="#000000" font-family="sans-serif" font-size="14" lengthAdjust="spacing" textLength="153" x="339.5" y="635.1895">commissionTypeMapper</text><text fill="#000000" font-family="sans-serif" font-size="14" lengthAdjust="spacing" textLength="164" x="334" y="652.7988">: CommissionTypeMapper</text><rect fill="#E3E3E3" height="49.2188" rx="2.5" ry="2.5" style="stroke:#181818;stroke-width:0.5;" width="130" x="541" y="5"/><text fill="#000000" font-family="sans-serif" font-size="14" lengthAdjust="spacing" textLength="105" x="553.5" y="26.5332">commissionType</text><text fill="#000000" font-family="sans-serif" font-size="14" lengthAdjust="spacing" textLength="116" x="548" y="44.1426">: CommissionType</text><rect fill="#E3E3E3" height="49.2188" rx="2.5" ry="2.5" style="stroke:#181818;stroke-width:0.5;" width="130" x="541" y="613.6563"/><text fill="#000000" font-family="sans-serif" font-size="14" lengthAdjust="spacing" textLength="105" x="553.5" y="635.1895">commissionType</text><text fill="#000000" font-family="sans-serif" font-size="14" lengthAdjust="spacing" textLength="116" x="548" y="652.7988">: CommissionType</text><rect fill="#E3E3E3" height="49.2188" rx="2.5" ry="2.5" style="stroke:#181818;stroke-width:0.5;" width="190" x="681" y="613.6563"/><text fill="#000000" font-family="sans-serif" font-size="14" lengthAdjust="spacing" textLength="125" x="713.5" y="635.1895">listCommissionType</text><text fill="#000000" font-family="sans-serif" font-size="14" lengthAdjust="spacing" textLength="176" x="688" y="652.7988">: List&lt;CommissionTypeDto&gt;</text><rect fill="#E3E3E3" height="49.2188" rx="2.5" ry="2.5" style="stroke:#181818;stroke-width:0.5;" width="152" x="881" y="5"/><text fill="#000000" font-family="sans-serif" font-size="14" lengthAdjust="spacing" textLength="127" x="893.5" y="26.5332">commissionTypeDto</text><text fill="#000000" font-family="sans-serif" font-size="14" lengthAdjust="spacing" textLength="138" x="888" y="44.1426">: CommissionTypeDto</text><rect fill="#E3E3E3" height="49.2188" rx="2.5" ry="2.5" style="stroke:#181818;stroke-width:0.5;" width="152" x="881" y="613.6563"/><text fill="#000000" font-family="sans-serif" font-size="14" lengthAdjust="spacing" textLength="127" x="893.5" y="635.1895">commissionTypeDto</text><text fill="#000000" font-family="sans-serif" font-size="14" lengthAdjust="spacing" textLength="138" x="888" y="652.7988">: CommissionTypeDto</text><rect fill="#FFFFFF" height="509.0859" style="stroke:#181818;stroke-width:1.0;" width="10" x="195" y="87.5703"/><rect fill="#FFFFFF" height="416.0313" style="stroke:#181818;stroke-width:1.0;" width="10" x="411" y="143.2734"/><rect fill="#FFFFFF" height="162.4063" style="stroke:#181818;stroke-width:1.0;" width="10" x="416" y="267.1953"/><rect fill="#FFFFFF" height="30.3516" style="stroke:#181818;stroke-width:1.0;" width="10" x="601" y="302.5469"/><rect fill="#FFFFFF" height="30" style="stroke:#181818;stroke-width:1.0;" width="10" x="771" y="466.9531"/><rect fill="#FFFFFF" height="30" style="stroke:#181818;stroke-width:1.0;" width="10" x="952" y="363.25"/><polygon fill="#181818" points="183,83.5703,193,87.5703,183,91.5703,187,87.5703" style="stroke:#181818;stroke-width:1.0;"/><line style="stroke:#181818;stroke-width:1.0;" x1="0" x2="189" y1="87.5703" y2="87.5703"/><text fill="#000000" font-family="sans-serif" font-size="13" font-weight="bold" lengthAdjust="spacing" textLength="14" x="7" y="82.7139">32</text><text fill="#000000" font-family="sans-serif" font-size="13" lengthAdjust="spacing" textLength="158" x="25" y="82.7139">toDto(commissionTypeList)</text><path d="M109,102.5703 L382,102.5703 L382,110.9219 L372,120.9219 L109,120.9219 L109,102.5703 " fill="#EEEEEE" style="stroke:#000000;stroke-width:1.5;"/><rect fill="none" height="464.7344" style="stroke:#000000;stroke-width:1.5;" width="944" x="109" y="102.5703"/><text fill="#000000" font-family="sans-serif" font-size="13" font-weight="bold" lengthAdjust="spacing" textLength="228" x="124" y="117.0654">Convert commission type list to DTO</text><polygon fill="#181818" points="399,139.2734,409,143.2734,399,147.2734,403,143.2734" style="stroke:#181818;stroke-width:1.0;"/><line style="stroke:#181818;stroke-width:1.0;" x1="205" x2="405" y1="143.2734" y2="143.2734"/><text fill="#000000" font-family="sans-serif" font-size="13" font-weight="bold" lengthAdjust="spacing" textLength="25" x="212" y="138.417">32.1</text><text fill="#000000" font-family="sans-serif" font-size="13" lengthAdjust="spacing" textLength="158" x="241" y="138.417">toDto(commissionTypeList)</text><polygon fill="#181818" points="669,169.625,679,173.625,669,177.625,673,173.625" style="stroke:#181818;stroke-width:1.0;"/><line style="stroke:#181818;stroke-width:1.0;" x1="421" x2="675" y1="173.625" y2="173.625"/><text fill="#000000" font-family="sans-serif" font-size="13" font-weight="bold" lengthAdjust="spacing" textLength="25" x="428" y="168.7686">32.2</text><text fill="#000000" font-family="sans-serif" font-size="13" lengthAdjust="spacing" textLength="44" x="457" y="168.7686">create()</text><rect fill="#E3E3E3" height="49.2188" rx="2.5" ry="2.5" style="stroke:#181818;stroke-width:0.5;" width="190" x="681" y="151.2734"/><text fill="#000000" font-family="sans-serif" font-size="14" lengthAdjust="spacing" textLength="125" x="713.5" y="172.8066">listCommissionType</text><text fill="#000000" font-family="sans-serif" font-size="14" lengthAdjust="spacing" textLength="176" x="688" y="190.416">: List&lt;CommissionTypeDto&gt;</text><path d="M317,218.4922 L390,218.4922 L390,226.8438 L380,236.8438 L317,236.8438 L317,218.4922 " fill="#EEEEEE" style="stroke:#000000;stroke-width:1.5;"/><rect fill="none" height="311.4609" style="stroke:#000000;stroke-width:1.5;" width="726" x="317" y="218.4922"/><text fill="#000000" font-family="sans-serif" font-size="13" font-weight="bold" lengthAdjust="spacing" textLength="28" x="332" y="232.9873">loop</text><text fill="#000000" font-family="sans-serif" font-size="11" font-weight="bold" lengthAdjust="spacing" textLength="152" x="405" y="231.9111">[for each commission type]</text><line style="stroke:#181818;stroke-width:1.0;" x1="421" x2="468" y1="254.1953" y2="254.1953"/><line style="stroke:#181818;stroke-width:1.0;" x1="468" x2="468" y1="254.1953" y2="267.1953"/><line style="stroke:#181818;stroke-width:1.0;" x1="427" x2="468" y1="267.1953" y2="267.1953"/><polygon fill="#181818" points="437,263.1953,427,267.1953,437,271.1953,433,267.1953" style="stroke:#181818;stroke-width:1.0;"/><text fill="#000000" font-family="sans-serif" font-size="13" font-weight="bold" lengthAdjust="spacing" textLength="25" x="433" y="249.3389">32.3</text><text fill="#000000" font-family="sans-serif" font-size="13" lengthAdjust="spacing" textLength="137" x="462" y="249.3389">toDto(commissionType)</text><polygon fill="#181818" points="589,298.5469,599,302.5469,589,306.5469,593,302.5469" style="stroke:#181818;stroke-width:1.0;"/><line style="stroke:#181818;stroke-width:1.0;" x1="426" x2="595" y1="302.5469" y2="302.5469"/><text fill="#000000" font-family="sans-serif" font-size="13" font-weight="bold" lengthAdjust="spacing" textLength="25" x="433" y="297.6904">32.4</text><text fill="#000000" font-family="sans-serif" font-size="13" lengthAdjust="spacing" textLength="126" x="462" y="297.6904">getCommissionType()</text><polygon fill="#181818" points="437,328.8984,427,332.8984,437,336.8984,433,332.8984" style="stroke:#181818;stroke-width:1.0;"/><line style="stroke:#181818;stroke-width:1.0;stroke-dasharray:2.0,2.0;" x1="431" x2="605" y1="332.8984" y2="332.8984"/><text fill="#000000" font-family="sans-serif" font-size="13" font-weight="bold" lengthAdjust="spacing" textLength="25" x="443" y="328.042">32.5</text><text fill="#000000" font-family="sans-serif" font-size="13" lengthAdjust="spacing" textLength="98" x="472" y="328.042">commissionType</text><polygon fill="#181818" points="940,359.25,950,363.25,940,367.25,944,363.25" style="stroke:#181818;stroke-width:1.0;"/><line style="stroke:#181818;stroke-width:1.0;" x1="426" x2="946" y1="363.25" y2="363.25"/><text fill="#000000" font-family="sans-serif" font-size="13" font-weight="bold" lengthAdjust="spacing" textLength="25" x="433" y="358.3936">32.6</text><text fill="#000000" font-family="sans-serif" font-size="13" lengthAdjust="spacing" textLength="142" x="462" y="358.3936">create(commissionType)</text><line style="stroke:#181818;stroke-width:1.0;stroke-dasharray:2.0,2.0;" x1="426" x2="468" y1="428.6016" y2="428.6016"/><line style="stroke:#181818;stroke-width:1.0;stroke-dasharray:2.0,2.0;" x1="468" x2="468" y1="428.6016" y2="441.6016"/><line style="stroke:#181818;stroke-width:1.0;stroke-dasharray:2.0,2.0;" x1="421" x2="468" y1="441.6016" y2="441.6016"/><polygon fill="#181818" points="431,437.6016,421,441.6016,431,445.6016,427,441.6016" style="stroke:#181818;stroke-width:1.0;"/><text fill="#000000" font-family="sans-serif" font-size="13" font-weight="bold" lengthAdjust="spacing" textLength="25" x="433" y="423.7451">32.7</text><text fill="#000000" font-family="sans-serif" font-size="13" lengthAdjust="spacing" textLength="118" x="462" y="423.7451">commissionTypeDto</text><polygon fill="#181818" points="759,462.9531,769,466.9531,759,470.9531,763,466.9531" style="stroke:#181818;stroke-width:1.0;"/><line style="stroke:#181818;stroke-width:1.0;" x1="421" x2="765" y1="466.9531" y2="466.9531"/><text fill="#000000" font-family="sans-serif" font-size="13" font-weight="bold" lengthAdjust="spacing" textLength="25" x="428" y="462.0967">32.8</text><text fill="#000000" font-family="sans-serif" font-size="13" lengthAdjust="spacing" textLength="147" x="457" y="462.0967">add(commissionTypeDto)</text><polygon fill="#181818" points="216,555.3047,206,559.3047,216,563.3047,212,559.3047" style="stroke:#181818;stroke-width:1.0;"/><line style="stroke:#181818;stroke-width:1.0;stroke-dasharray:2.0,2.0;" x1="210" x2="415" y1="559.3047" y2="559.3047"/><text fill="#000000" font-family="sans-serif" font-size="13" font-weight="bold" lengthAdjust="spacing" textLength="25" x="222" y="554.4482">32.9</text><text fill="#000000" font-family="sans-serif" font-size="13" lengthAdjust="spacing" textLength="139" x="251" y="554.4482">commissionTypeListDto</text><polygon fill="#181818" points="11,592.6563,1,596.6563,11,600.6563,7,596.6563" style="stroke:#181818;stroke-width:1.0;"/><line style="stroke:#181818;stroke-width:1.0;stroke-dasharray:2.0,2.0;" x1="5" x2="199" y1="596.6563" y2="596.6563"/><text fill="#000000" font-family="sans-serif" font-size="13" font-weight="bold" lengthAdjust="spacing" textLength="14" x="17" y="591.7998">33</text><text fill="#000000" font-family="sans-serif" font-size="13" lengthAdjust="spacing" textLength="139" x="35" y="591.7998">commissionTypeListDto</text><!--SRC=[ZPDDRuCm38Rl-HNMJhHI9sszLLKlzDXfKjVZBXcu51KIbeHEbVhZvuIg40Xit73inw-_z3aN5LUyX58AcPoKB16Cgf7fnql5apFFyCDS2mI5YU4YAxeE-iHJ-PEB38wyqCWO8xl9axpYmi3JQfThiyVl6hNHiHH6oQ90zGHSGtpOxtplH9PbhdKknU5QuHklAbIVOWLnmDuWPDbQfbX3IZVUZon8SZo8jeMiVVFMo4qNOrscH93_K0SPkmpwPOpNHegw_485orS6z2qshbqhC98y8fzhyywS6qzCVk46czwoJCcw8hAue3BG1e6XAB1r4W-sX_TUokSNcgFbMOpBtUqp_5-5Dvw6w95Qj8sUpmcTAAJGQ6OL559MS9GAa2Udldvw7uDDwYIDOm8d5H8kmzvYHE62FH0i0i9yISuznKdCG0zLrhPhK690bLsjS2AtTFr4Vwfsl27iCUsfKHECfsaq00Q6uwugaAUntsutnb2aRbT2_RfVpa2z3H_lo6CZBDgTaNSXInS6wyNYVfRZR0zkh_8N]--></g></svg>