<?xml version="1.0" encoding="UTF-8" standalone="no"?><svg xmlns="http://www.w3.org/2000/svg" xmlns:xlink="http://www.w3.org/1999/xlink" contentStyleType="text/css" height="1421px" preserveAspectRatio="none" style="width:596px;height:1421px;background:#FFFFFF;" version="1.1" viewBox="0 0 596 1421" width="596px" zoomAndPan="magnify"><defs/><g><text fill="#000000" font-family="sans-serif" font-size="14" font-weight="bold" lengthAdjust="spacing" textLength="284" x="157.75" y="29.5332">System Sequence Diagram (SSD) - US002</text><rect fill="#FFFFFF" height="1198.7109" style="stroke:#181818;stroke-width:1.0;" width="10" x="56.5" y="131.2188"/><rect fill="#FFFFFF" height="30.3516" style="stroke:#181818;stroke-width:1.0;" width="10" x="523.5" y="153.5703"/><rect fill="#FFFFFF" height="30.3516" style="stroke:#181818;stroke-width:1.0;" width="10" x="523.5" y="214.2734"/><rect fill="#FFFFFF" height="30.3516" style="stroke:#181818;stroke-width:1.0;" width="10" x="523.5" y="274.9766"/><rect fill="#FFFFFF" height="30.3516" style="stroke:#181818;stroke-width:1.0;" width="10" x="523.5" y="335.6797"/><rect fill="#FFFFFF" height="30.3516" style="stroke:#181818;stroke-width:1.0;" width="10" x="523.5" y="396.3828"/><rect fill="#FFFFFF" height="30.3516" style="stroke:#181818;stroke-width:1.0;" width="10" x="523.5" y="457.0859"/><rect fill="#FFFFFF" height="30.3516" style="stroke:#181818;stroke-width:1.0;" width="10" x="523.5" y="517.7891"/><rect fill="#FFFFFF" height="30.3516" style="stroke:#181818;stroke-width:1.0;" width="10" x="523.5" y="578.4922"/><rect fill="#FFFFFF" height="55.7031" style="stroke:#181818;stroke-width:1.0;" width="10" x="523.5" y="639.1953"/><rect fill="#FFFFFF" height="62.7031" style="stroke:#181818;stroke-width:1.0;" width="10" x="523.5" y="725.25"/><rect fill="#FFFFFF" height="30.3516" style="stroke:#181818;stroke-width:1.0;" width="10" x="523.5" y="818.3047"/><rect fill="#FFFFFF" height="62.7031" style="stroke:#181818;stroke-width:1.0;" width="10" x="523.5" y="904.3594"/><rect fill="#FFFFFF" height="69.7031" style="stroke:#181818;stroke-width:1.0;" width="10" x="523.5" y="1022.7656"/><rect fill="#FFFFFF" height="30.3516" style="stroke:#181818;stroke-width:1.0;" width="10" x="523.5" y="1122.8203"/><rect fill="#FFFFFF" height="51.3516" style="stroke:#181818;stroke-width:1.0;" width="10" x="523.5" y="1208.875"/><rect fill="#FFFFFF" height="30.3516" style="stroke:#181818;stroke-width:1.0;" width="10" x="523.5" y="1290.5781"/><rect fill="none" height="79.0547" style="stroke:#000000;stroke-width:1.5;" width="540.5" x="30" y="654.1953"/><rect fill="none" height="483.625" style="stroke:#000000;stroke-width:1.5;" width="580.5" x="10" y="747.25"/><rect fill="none" height="48.7031" style="stroke:#000000;stroke-width:1.5;" width="540.5" x="30" y="863.6563"/><rect fill="none" height="111.4063" style="stroke:#000000;stroke-width:1.5;" width="560.5" x="20" y="926.3594"/><rect fill="none" height="48.7031" style="stroke:#000000;stroke-width:1.5;" width="540.5" x="30" y="982.0625"/><rect fill="none" height="172.1094" style="stroke:#000000;stroke-width:1.5;" width="560.5" x="20" y="1051.7656"/><rect fill="none" height="48.7031" style="stroke:#000000;stroke-width:1.5;" width="540.5" x="30" y="1168.1719"/><line style="stroke:#181818;stroke-width:0.5;stroke-dasharray:5.0,5.0;" x1="61" x2="61" y1="121.2188" y2="1338.9297"/><line style="stroke:#181818;stroke-width:0.5;stroke-dasharray:5.0,5.0;" x1="528.5" x2="528.5" y1="121.2188" y2="1338.9297"/><text fill="#000000" font-family="sans-serif" font-size="14" lengthAdjust="spacing" textLength="37" x="40" y="118.1426">Agent</text><ellipse cx="61.5" cy="52.1094" fill="#E3E3E3" rx="8" ry="8" style="stroke:#181818;stroke-width:0.5;"/><path d="M61.5,60.1094 L61.5,87.1094 M48.5,68.1094 L74.5,68.1094 M61.5,87.1094 L48.5,102.1094 M61.5,87.1094 L74.5,102.1094 " fill="none" style="stroke:#181818;stroke-width:0.5;"/><text fill="#000000" font-family="sans-serif" font-size="14" lengthAdjust="spacing" textLength="37" x="40" y="1352.4629">Agent</text><ellipse cx="61.5" cy="1364.0391" fill="#E3E3E3" rx="8" ry="8" style="stroke:#181818;stroke-width:0.5;"/><path d="M61.5,1372.0391 L61.5,1399.0391 M48.5,1380.0391 L74.5,1380.0391 M61.5,1399.0391 L48.5,1414.0391 M61.5,1399.0391 L74.5,1414.0391 " fill="none" style="stroke:#181818;stroke-width:0.5;"/><rect fill="#E3E3E3" height="31.6094" rx="2.5" ry="2.5" style="stroke:#181818;stroke-width:0.5;" width="64" x="496.5" y="88.6094"/><text fill="#000000" font-family="sans-serif" font-size="14" lengthAdjust="spacing" textLength="50" x="503.5" y="110.1426">:System</text><rect fill="#E3E3E3" height="31.6094" rx="2.5" ry="2.5" style="stroke:#181818;stroke-width:0.5;" width="64" x="496.5" y="1337.9297"/><text fill="#000000" font-family="sans-serif" font-size="14" lengthAdjust="spacing" textLength="50" x="503.5" y="1359.4629">:System</text><rect fill="#FFFFFF" height="1198.7109" style="stroke:#181818;stroke-width:1.0;" width="10" x="56.5" y="131.2188"/><rect fill="#FFFFFF" height="30.3516" style="stroke:#181818;stroke-width:1.0;" width="10" x="523.5" y="153.5703"/><rect fill="#FFFFFF" height="30.3516" style="stroke:#181818;stroke-width:1.0;" width="10" x="523.5" y="214.2734"/><rect fill="#FFFFFF" height="30.3516" style="stroke:#181818;stroke-width:1.0;" width="10" x="523.5" y="274.9766"/><rect fill="#FFFFFF" height="30.3516" style="stroke:#181818;stroke-width:1.0;" width="10" x="523.5" y="335.6797"/><rect fill="#FFFFFF" height="30.3516" style="stroke:#181818;stroke-width:1.0;" width="10" x="523.5" y="396.3828"/><rect fill="#FFFFFF" height="30.3516" style="stroke:#181818;stroke-width:1.0;" width="10" x="523.5" y="457.0859"/><rect fill="#FFFFFF" height="30.3516" style="stroke:#181818;stroke-width:1.0;" width="10" x="523.5" y="517.7891"/><rect fill="#FFFFFF" height="30.3516" style="stroke:#181818;stroke-width:1.0;" width="10" x="523.5" y="578.4922"/><rect fill="#FFFFFF" height="55.7031" style="stroke:#181818;stroke-width:1.0;" width="10" x="523.5" y="639.1953"/><rect fill="#FFFFFF" height="62.7031" style="stroke:#181818;stroke-width:1.0;" width="10" x="523.5" y="725.25"/><rect fill="#FFFFFF" height="30.3516" style="stroke:#181818;stroke-width:1.0;" width="10" x="523.5" y="818.3047"/><rect fill="#FFFFFF" height="62.7031" style="stroke:#181818;stroke-width:1.0;" width="10" x="523.5" y="904.3594"/><rect fill="#FFFFFF" height="69.7031" style="stroke:#181818;stroke-width:1.0;" width="10" x="523.5" y="1022.7656"/><rect fill="#FFFFFF" height="30.3516" style="stroke:#181818;stroke-width:1.0;" width="10" x="523.5" y="1122.8203"/><rect fill="#FFFFFF" height="51.3516" style="stroke:#181818;stroke-width:1.0;" width="10" x="523.5" y="1208.875"/><rect fill="#FFFFFF" height="30.3516" style="stroke:#181818;stroke-width:1.0;" width="10" x="523.5" y="1290.5781"/><polygon fill="#181818" points="511.5,149.5703,521.5,153.5703,511.5,157.5703,515.5,153.5703" style="stroke:#181818;stroke-width:1.0;"/><line style="stroke:#181818;stroke-width:1.0;" x1="66.5" x2="517.5" y1="153.5703" y2="153.5703"/><text fill="#000000" font-family="sans-serif" font-size="13" font-weight="bold" lengthAdjust="spacing" textLength="7" x="73.5" y="148.7139">1</text><text fill="#000000" font-family="sans-serif" font-size="13" lengthAdjust="spacing" textLength="205" x="84.5" y="148.7139">asks to publish sale announcement</text><polygon fill="#181818" points="77.5,179.9219,67.5,183.9219,77.5,187.9219,73.5,183.9219" style="stroke:#181818;stroke-width:1.0;"/><line style="stroke:#181818;stroke-width:1.0;stroke-dasharray:2.0,2.0;" x1="71.5" x2="527.5" y1="183.9219" y2="183.9219"/><text fill="#000000" font-family="sans-serif" font-size="13" font-weight="bold" lengthAdjust="spacing" textLength="7" x="83.5" y="179.0654">2</text><text fill="#000000" font-family="sans-serif" font-size="13" lengthAdjust="spacing" textLength="297" x="94.5" y="179.0654">shows types of commission and asks to select one</text><polygon fill="#181818" points="511.5,210.2734,521.5,214.2734,511.5,218.2734,515.5,214.2734" style="stroke:#181818;stroke-width:1.0;"/><line style="stroke:#181818;stroke-width:1.0;" x1="66.5" x2="517.5" y1="214.2734" y2="214.2734"/><text fill="#000000" font-family="sans-serif" font-size="13" font-weight="bold" lengthAdjust="spacing" textLength="7" x="73.5" y="209.417">3</text><text fill="#000000" font-family="sans-serif" font-size="13" lengthAdjust="spacing" textLength="159" x="84.5" y="209.417">selects type of commission</text><polygon fill="#181818" points="77.5,240.625,67.5,244.625,77.5,248.625,73.5,244.625" style="stroke:#181818;stroke-width:1.0;"/><line style="stroke:#181818;stroke-width:1.0;stroke-dasharray:2.0,2.0;" x1="71.5" x2="527.5" y1="244.625" y2="244.625"/><text fill="#000000" font-family="sans-serif" font-size="13" font-weight="bold" lengthAdjust="spacing" textLength="7" x="83.5" y="239.7686">4</text><text fill="#000000" font-family="sans-serif" font-size="13" lengthAdjust="spacing" textLength="171" x="94.5" y="239.7686">requests value of commission</text><polygon fill="#181818" points="511.5,270.9766,521.5,274.9766,511.5,278.9766,515.5,274.9766" style="stroke:#181818;stroke-width:1.0;"/><line style="stroke:#181818;stroke-width:1.0;" x1="66.5" x2="517.5" y1="274.9766" y2="274.9766"/><text fill="#000000" font-family="sans-serif" font-size="13" font-weight="bold" lengthAdjust="spacing" textLength="7" x="73.5" y="270.1201">5</text><text fill="#000000" font-family="sans-serif" font-size="13" lengthAdjust="spacing" textLength="143" x="84.5" y="270.1201">enters commission value</text><polygon fill="#181818" points="77.5,301.3281,67.5,305.3281,77.5,309.3281,73.5,305.3281" style="stroke:#181818;stroke-width:1.0;"/><line style="stroke:#181818;stroke-width:1.0;stroke-dasharray:2.0,2.0;" x1="71.5" x2="527.5" y1="305.3281" y2="305.3281"/><text fill="#000000" font-family="sans-serif" font-size="13" font-weight="bold" lengthAdjust="spacing" textLength="7" x="83.5" y="300.4717">6</text><text fill="#000000" font-family="sans-serif" font-size="13" lengthAdjust="spacing" textLength="123" x="94.5" y="300.4717">requests owner email</text><polygon fill="#181818" points="511.5,331.6797,521.5,335.6797,511.5,339.6797,515.5,335.6797" style="stroke:#181818;stroke-width:1.0;"/><line style="stroke:#181818;stroke-width:1.0;" x1="66.5" x2="517.5" y1="335.6797" y2="335.6797"/><text fill="#000000" font-family="sans-serif" font-size="13" font-weight="bold" lengthAdjust="spacing" textLength="7" x="73.5" y="330.8232">7</text><text fill="#000000" font-family="sans-serif" font-size="13" lengthAdjust="spacing" textLength="205" x="84.5" y="330.8232">enters requested data (ownerEmail)</text><polygon fill="#181818" points="77.5,362.0313,67.5,366.0313,77.5,370.0313,73.5,366.0313" style="stroke:#181818;stroke-width:1.0;"/><line style="stroke:#181818;stroke-width:1.0;stroke-dasharray:2.0,2.0;" x1="71.5" x2="527.5" y1="366.0313" y2="366.0313"/><text fill="#000000" font-family="sans-serif" font-size="13" font-weight="bold" lengthAdjust="spacing" textLength="7" x="83.5" y="361.1748">8</text><text fill="#000000" font-family="sans-serif" font-size="13" lengthAdjust="spacing" textLength="284" x="94.5" y="361.1748">shows types of properties and asks to select one</text><polygon fill="#181818" points="511.5,392.3828,521.5,396.3828,511.5,400.3828,515.5,396.3828" style="stroke:#181818;stroke-width:1.0;"/><line style="stroke:#181818;stroke-width:1.0;" x1="66.5" x2="517.5" y1="396.3828" y2="396.3828"/><text fill="#000000" font-family="sans-serif" font-size="13" font-weight="bold" lengthAdjust="spacing" textLength="7" x="73.5" y="391.5264">9</text><text fill="#000000" font-family="sans-serif" font-size="13" lengthAdjust="spacing" textLength="147" x="84.5" y="391.5264">selects a type of property</text><polygon fill="#181818" points="77.5,422.7344,67.5,426.7344,77.5,430.7344,73.5,426.7344" style="stroke:#181818;stroke-width:1.0;"/><line style="stroke:#181818;stroke-width:1.0;stroke-dasharray:2.0,2.0;" x1="71.5" x2="527.5" y1="426.7344" y2="426.7344"/><text fill="#000000" font-family="sans-serif" font-size="13" font-weight="bold" lengthAdjust="spacing" textLength="14" x="83.5" y="421.8779">10</text><text fill="#000000" font-family="sans-serif" font-size="13" lengthAdjust="spacing" textLength="397" x="101.5" y="421.8779">requests streetName, city, district, state and zipCode of the property</text><polygon fill="#181818" points="511.5,453.0859,521.5,457.0859,511.5,461.0859,515.5,457.0859" style="stroke:#181818;stroke-width:1.0;"/><line style="stroke:#181818;stroke-width:1.0;" x1="66.5" x2="517.5" y1="457.0859" y2="457.0859"/><text fill="#000000" font-family="sans-serif" font-size="13" font-weight="bold" lengthAdjust="spacing" textLength="14" x="73.5" y="452.2295">11</text><text fill="#000000" font-family="sans-serif" font-size="13" lengthAdjust="spacing" textLength="369" x="91.5" y="452.2295">types requested data (streetName, city, district, state, zipCode)</text><polygon fill="#181818" points="77.5,483.4375,67.5,487.4375,77.5,491.4375,73.5,487.4375" style="stroke:#181818;stroke-width:1.0;"/><line style="stroke:#181818;stroke-width:1.0;stroke-dasharray:2.0,2.0;" x1="71.5" x2="527.5" y1="487.4375" y2="487.4375"/><text fill="#000000" font-family="sans-serif" font-size="13" font-weight="bold" lengthAdjust="spacing" textLength="14" x="83.5" y="482.5811">12</text><text fill="#000000" font-family="sans-serif" font-size="13" lengthAdjust="spacing" textLength="166" x="101.5" y="482.5811">requests area of the property</text><polygon fill="#181818" points="511.5,513.7891,521.5,517.7891,511.5,521.7891,515.5,517.7891" style="stroke:#181818;stroke-width:1.0;"/><line style="stroke:#181818;stroke-width:1.0;" x1="66.5" x2="517.5" y1="517.7891" y2="517.7891"/><text fill="#000000" font-family="sans-serif" font-size="13" font-weight="bold" lengthAdjust="spacing" textLength="14" x="73.5" y="512.9326">13</text><text fill="#000000" font-family="sans-serif" font-size="13" lengthAdjust="spacing" textLength="159" x="91.5" y="512.9326">types requested data (area)</text><polygon fill="#181818" points="77.5,544.1406,67.5,548.1406,77.5,552.1406,73.5,548.1406" style="stroke:#181818;stroke-width:1.0;"/><line style="stroke:#181818;stroke-width:1.0;stroke-dasharray:2.0,2.0;" x1="71.5" x2="527.5" y1="548.1406" y2="548.1406"/><text fill="#000000" font-family="sans-serif" font-size="13" font-weight="bold" lengthAdjust="spacing" textLength="14" x="83.5" y="543.2842">14</text><text fill="#000000" font-family="sans-serif" font-size="13" lengthAdjust="spacing" textLength="284" x="101.5" y="543.2842">requests distance from city center of the property</text><polygon fill="#181818" points="511.5,574.4922,521.5,578.4922,511.5,582.4922,515.5,578.4922" style="stroke:#181818;stroke-width:1.0;"/><line style="stroke:#181818;stroke-width:1.0;" x1="66.5" x2="517.5" y1="578.4922" y2="578.4922"/><text fill="#000000" font-family="sans-serif" font-size="13" font-weight="bold" lengthAdjust="spacing" textLength="14" x="73.5" y="573.6357">15</text><text fill="#000000" font-family="sans-serif" font-size="13" lengthAdjust="spacing" textLength="244" x="91.5" y="573.6357">types requested data (distanceCityCentre)</text><polygon fill="#181818" points="77.5,604.8438,67.5,608.8438,77.5,612.8438,73.5,608.8438" style="stroke:#181818;stroke-width:1.0;"/><line style="stroke:#181818;stroke-width:1.0;stroke-dasharray:2.0,2.0;" x1="71.5" x2="527.5" y1="608.8438" y2="608.8438"/><text fill="#000000" font-family="sans-serif" font-size="13" font-weight="bold" lengthAdjust="spacing" textLength="14" x="83.5" y="603.9873">16</text><text fill="#000000" font-family="sans-serif" font-size="13" lengthAdjust="spacing" textLength="169" x="101.5" y="603.9873">requests price of the property</text><polygon fill="#181818" points="511.5,635.1953,521.5,639.1953,511.5,643.1953,515.5,639.1953" style="stroke:#181818;stroke-width:1.0;"/><line style="stroke:#181818;stroke-width:1.0;" x1="66.5" x2="517.5" y1="639.1953" y2="639.1953"/><text fill="#000000" font-family="sans-serif" font-size="13" font-weight="bold" lengthAdjust="spacing" textLength="14" x="73.5" y="634.3389">17</text><text fill="#000000" font-family="sans-serif" font-size="13" lengthAdjust="spacing" textLength="162" x="91.5" y="634.3389">types requested data (price)</text><path d="M30,654.1953 L103,654.1953 L103,662.5469 L93,672.5469 L30,672.5469 L30,654.1953 " fill="#EEEEEE" style="stroke:#000000;stroke-width:1.5;"/><rect fill="none" height="79.0547" style="stroke:#000000;stroke-width:1.5;" width="540.5" x="30" y="654.1953"/><text fill="#000000" font-family="sans-serif" font-size="13" font-weight="bold" lengthAdjust="spacing" textLength="28" x="45" y="668.6904">loop</text><text fill="#000000" font-family="sans-serif" font-size="11" font-weight="bold" lengthAdjust="spacing" textLength="55" x="118" y="667.6143">[30 times]</text><polygon fill="#181818" points="77.5,690.8984,67.5,694.8984,77.5,698.8984,73.5,694.8984" style="stroke:#181818;stroke-width:1.0;"/><line style="stroke:#181818;stroke-width:1.0;stroke-dasharray:2.0,2.0;" x1="71.5" x2="527.5" y1="694.8984" y2="694.8984"/><text fill="#000000" font-family="sans-serif" font-size="13" font-weight="bold" lengthAdjust="spacing" textLength="14" x="83.5" y="690.042">18</text><text fill="#000000" font-family="sans-serif" font-size="13" lengthAdjust="spacing" textLength="252" x="101.5" y="690.042">requests the photograph URI of the property</text><polygon fill="#181818" points="511.5,721.25,521.5,725.25,511.5,729.25,515.5,725.25" style="stroke:#181818;stroke-width:1.0;"/><line style="stroke:#181818;stroke-width:1.0;" x1="66.5" x2="517.5" y1="725.25" y2="725.25"/><text fill="#000000" font-family="sans-serif" font-size="13" font-weight="bold" lengthAdjust="spacing" textLength="14" x="73.5" y="720.3936">19</text><text fill="#000000" font-family="sans-serif" font-size="13" lengthAdjust="spacing" textLength="148" x="91.5" y="720.3936">types requested data (uri)</text><path d="M10,747.25 L71,747.25 L71,755.6016 L61,765.6016 L10,765.6016 L10,747.25 " fill="#EEEEEE" style="stroke:#000000;stroke-width:1.5;"/><rect fill="none" height="483.625" style="stroke:#000000;stroke-width:1.5;" width="580.5" x="10" y="747.25"/><text fill="#000000" font-family="sans-serif" font-size="13" font-weight="bold" lengthAdjust="spacing" textLength="16" x="25" y="761.7451">alt</text><text fill="#000000" font-family="sans-serif" font-size="11" font-weight="bold" lengthAdjust="spacing" textLength="286" x="86" y="760.6689">[propertyType = apartment || propertyType = house]</text><polygon fill="#181818" points="77.5,783.9531,67.5,787.9531,77.5,791.9531,73.5,787.9531" style="stroke:#181818;stroke-width:1.0;"/><line style="stroke:#181818;stroke-width:1.0;stroke-dasharray:2.0,2.0;" x1="71.5" x2="527.5" y1="787.9531" y2="787.9531"/><text fill="#000000" font-family="sans-serif" font-size="13" font-weight="bold" lengthAdjust="spacing" textLength="25" x="83.5" y="783.0967">17.1</text><text fill="#000000" font-family="sans-serif" font-size="13" lengthAdjust="spacing" textLength="366" x="112.5" y="783.0967">requests data (number of bedrooms, number of parking spaces)</text><polygon fill="#181818" points="511.5,814.3047,521.5,818.3047,511.5,822.3047,515.5,818.3047" style="stroke:#181818;stroke-width:1.0;"/><line style="stroke:#181818;stroke-width:1.0;" x1="66.5" x2="517.5" y1="818.3047" y2="818.3047"/><text fill="#000000" font-family="sans-serif" font-size="13" font-weight="bold" lengthAdjust="spacing" textLength="25" x="73.5" y="813.4482">17.2</text><text fill="#000000" font-family="sans-serif" font-size="13" lengthAdjust="spacing" textLength="409" x="102.5" y="813.4482">types requested data (number of bedrooms, number of parking spaces)</text><polygon fill="#181818" points="77.5,844.6563,67.5,848.6563,77.5,852.6563,73.5,848.6563" style="stroke:#181818;stroke-width:1.0;"/><line style="stroke:#181818;stroke-width:1.0;stroke-dasharray:2.0,2.0;" x1="71.5" x2="527.5" y1="848.6563" y2="848.6563"/><text fill="#000000" font-family="sans-serif" font-size="13" font-weight="bold" lengthAdjust="spacing" textLength="25" x="83.5" y="843.7998">17.3</text><text fill="#000000" font-family="sans-serif" font-size="13" lengthAdjust="spacing" textLength="176" x="112.5" y="843.7998">requests number of bathrooms</text><path d="M30,863.6563 L95,863.6563 L95,872.0078 L85,882.0078 L30,882.0078 L30,863.6563 " fill="#EEEEEE" style="stroke:#000000;stroke-width:1.5;"/><rect fill="none" height="48.7031" style="stroke:#000000;stroke-width:1.5;" width="540.5" x="30" y="863.6563"/><text fill="#000000" font-family="sans-serif" font-size="13" font-weight="bold" lengthAdjust="spacing" textLength="20" x="45" y="878.1514">opt</text><text fill="#000000" font-family="sans-serif" font-size="11" font-weight="bold" lengthAdjust="spacing" textLength="113" x="110" y="877.0752">[numberBathrooms]</text><polygon fill="#181818" points="511.5,900.3594,521.5,904.3594,511.5,908.3594,515.5,904.3594" style="stroke:#181818;stroke-width:1.0;"/><line style="stroke:#181818;stroke-width:1.0;" x1="66.5" x2="517.5" y1="904.3594" y2="904.3594"/><text fill="#000000" font-family="sans-serif" font-size="13" font-weight="bold" lengthAdjust="spacing" textLength="25" x="73.5" y="899.5029">17.4</text><text fill="#000000" font-family="sans-serif" font-size="13" lengthAdjust="spacing" textLength="240" x="102.5" y="899.5029">types requested data (numberBathrooms)</text><path d="M20,926.3594 L93,926.3594 L93,934.7109 L83,944.7109 L20,944.7109 L20,926.3594 " fill="#EEEEEE" style="stroke:#000000;stroke-width:1.5;"/><rect fill="none" height="111.4063" style="stroke:#000000;stroke-width:1.5;" width="560.5" x="20" y="926.3594"/><text fill="#000000" font-family="sans-serif" font-size="13" font-weight="bold" lengthAdjust="spacing" textLength="28" x="35" y="940.8545">loop</text><text fill="#000000" font-family="sans-serif" font-size="11" font-weight="bold" lengthAdjust="spacing" textLength="114" x="108" y="939.7783">[availableEquipment]</text><polygon fill="#181818" points="77.5,963.0625,67.5,967.0625,77.5,971.0625,73.5,967.0625" style="stroke:#181818;stroke-width:1.0;"/><line style="stroke:#181818;stroke-width:1.0;stroke-dasharray:2.0,2.0;" x1="71.5" x2="527.5" y1="967.0625" y2="967.0625"/><text fill="#000000" font-family="sans-serif" font-size="13" font-weight="bold" lengthAdjust="spacing" textLength="25" x="83.5" y="962.2061">17.5</text><text fill="#000000" font-family="sans-serif" font-size="13" lengthAdjust="spacing" textLength="167" x="112.5" y="962.2061">requests available equipment</text><path d="M30,982.0625 L95,982.0625 L95,990.4141 L85,1000.4141 L30,1000.4141 L30,982.0625 " fill="#EEEEEE" style="stroke:#000000;stroke-width:1.5;"/><rect fill="none" height="48.7031" style="stroke:#000000;stroke-width:1.5;" width="540.5" x="30" y="982.0625"/><text fill="#000000" font-family="sans-serif" font-size="13" font-weight="bold" lengthAdjust="spacing" textLength="20" x="45" y="996.5576">opt</text><text fill="#000000" font-family="sans-serif" font-size="11" font-weight="bold" lengthAdjust="spacing" textLength="114" x="110" y="995.4814">[availableEquipment]</text><polygon fill="#181818" points="511.5,1018.7656,521.5,1022.7656,511.5,1026.7656,515.5,1022.7656" style="stroke:#181818;stroke-width:1.0;"/><line style="stroke:#181818;stroke-width:1.0;" x1="66.5" x2="517.5" y1="1022.7656" y2="1022.7656"/><text fill="#000000" font-family="sans-serif" font-size="13" font-weight="bold" lengthAdjust="spacing" textLength="25" x="73.5" y="1017.9092">17.6</text><text fill="#000000" font-family="sans-serif" font-size="13" lengthAdjust="spacing" textLength="245" x="102.5" y="1017.9092">types requested data (availableEquipment)</text><path d="M20,1051.7656 L81,1051.7656 L81,1060.1172 L71,1070.1172 L20,1070.1172 L20,1051.7656 " fill="#EEEEEE" style="stroke:#000000;stroke-width:1.5;"/><rect fill="none" height="172.1094" style="stroke:#000000;stroke-width:1.5;" width="560.5" x="20" y="1051.7656"/><text fill="#000000" font-family="sans-serif" font-size="13" font-weight="bold" lengthAdjust="spacing" textLength="16" x="35" y="1066.2607">alt</text><text fill="#000000" font-family="sans-serif" font-size="11" font-weight="bold" lengthAdjust="spacing" textLength="144" x="96" y="1065.1846">[type of property = house]</text><polygon fill="#181818" points="77.5,1088.4688,67.5,1092.4688,77.5,1096.4688,73.5,1092.4688" style="stroke:#181818;stroke-width:1.0;"/><line style="stroke:#181818;stroke-width:1.0;stroke-dasharray:2.0,2.0;" x1="71.5" x2="527.5" y1="1092.4688" y2="1092.4688"/><text fill="#000000" font-family="sans-serif" font-size="13" font-weight="bold" lengthAdjust="spacing" textLength="25" x="83.5" y="1087.6123">17.7</text><text fill="#000000" font-family="sans-serif" font-size="13" lengthAdjust="spacing" textLength="313" x="112.5" y="1087.6123">requests data (existence of basement; inhabitable loft)</text><polygon fill="#181818" points="511.5,1118.8203,521.5,1122.8203,511.5,1126.8203,515.5,1122.8203" style="stroke:#181818;stroke-width:1.0;"/><line style="stroke:#181818;stroke-width:1.0;" x1="66.5" x2="517.5" y1="1122.8203" y2="1122.8203"/><text fill="#000000" font-family="sans-serif" font-size="13" font-weight="bold" lengthAdjust="spacing" textLength="25" x="73.5" y="1117.9639">17.8</text><text fill="#000000" font-family="sans-serif" font-size="13" lengthAdjust="spacing" textLength="122" x="102.5" y="1117.9639">types requested data</text><polygon fill="#181818" points="77.5,1149.1719,67.5,1153.1719,77.5,1157.1719,73.5,1153.1719" style="stroke:#181818;stroke-width:1.0;"/><line style="stroke:#181818;stroke-width:1.0;stroke-dasharray:2.0,2.0;" x1="71.5" x2="527.5" y1="1153.1719" y2="1153.1719"/><text fill="#000000" font-family="sans-serif" font-size="13" font-weight="bold" lengthAdjust="spacing" textLength="25" x="83.5" y="1148.3154">17.9</text><text fill="#000000" font-family="sans-serif" font-size="13" lengthAdjust="spacing" textLength="164" x="112.5" y="1148.3154">asks to select sun exposure</text><path d="M30,1168.1719 L95,1168.1719 L95,1176.5234 L85,1186.5234 L30,1186.5234 L30,1168.1719 " fill="#EEEEEE" style="stroke:#000000;stroke-width:1.5;"/><rect fill="none" height="48.7031" style="stroke:#000000;stroke-width:1.5;" width="540.5" x="30" y="1168.1719"/><text fill="#000000" font-family="sans-serif" font-size="13" font-weight="bold" lengthAdjust="spacing" textLength="20" x="45" y="1182.667">opt</text><text fill="#000000" font-family="sans-serif" font-size="11" font-weight="bold" lengthAdjust="spacing" textLength="85" x="110" y="1181.5908">[sun exposure]</text><polygon fill="#181818" points="511.5,1204.875,521.5,1208.875,511.5,1212.875,515.5,1208.875" style="stroke:#181818;stroke-width:1.0;"/><line style="stroke:#181818;stroke-width:1.0;" x1="66.5" x2="517.5" y1="1208.875" y2="1208.875"/><text fill="#000000" font-family="sans-serif" font-size="13" font-weight="bold" lengthAdjust="spacing" textLength="32" x="73.5" y="1204.0186">17.10</text><text fill="#000000" font-family="sans-serif" font-size="13" lengthAdjust="spacing" textLength="220" x="109.5" y="1204.0186">selects requested data (sunExposure)</text><polygon fill="#181818" points="77.5,1256.2266,67.5,1260.2266,77.5,1264.2266,73.5,1260.2266" style="stroke:#181818;stroke-width:1.0;"/><line style="stroke:#181818;stroke-width:1.0;stroke-dasharray:2.0,2.0;" x1="71.5" x2="527.5" y1="1260.2266" y2="1260.2266"/><text fill="#000000" font-family="sans-serif" font-size="13" font-weight="bold" lengthAdjust="spacing" textLength="14" x="83.5" y="1255.3701">18</text><text fill="#000000" font-family="sans-serif" font-size="13" lengthAdjust="spacing" textLength="236" x="101.5" y="1255.3701">shows all data and requests confirmation</text><polygon fill="#181818" points="511.5,1286.5781,521.5,1290.5781,511.5,1294.5781,515.5,1290.5781" style="stroke:#181818;stroke-width:1.0;"/><line style="stroke:#181818;stroke-width:1.0;" x1="66.5" x2="517.5" y1="1290.5781" y2="1290.5781"/><text fill="#000000" font-family="sans-serif" font-size="13" font-weight="bold" lengthAdjust="spacing" textLength="14" x="73.5" y="1285.7217">19</text><text fill="#000000" font-family="sans-serif" font-size="13" lengthAdjust="spacing" textLength="75" x="91.5" y="1285.7217">submits data</text><polygon fill="#181818" points="77.5,1316.9297,67.5,1320.9297,77.5,1324.9297,73.5,1320.9297" style="stroke:#181818;stroke-width:1.0;"/><line style="stroke:#181818;stroke-width:1.0;stroke-dasharray:2.0,2.0;" x1="71.5" x2="527.5" y1="1320.9297" y2="1320.9297"/><text fill="#000000" font-family="sans-serif" font-size="13" font-weight="bold" lengthAdjust="spacing" textLength="14" x="83.5" y="1316.0732">20</text><text fill="#000000" font-family="sans-serif" font-size="13" lengthAdjust="spacing" textLength="158" x="101.5" y="1316.0732">displays operation success</text><!--SRC=[jLPBRzim3BxxLn0zrK0wjDjXGuSDsDeSTjbXMNy0OpEnKBqgoMqpzCUFaXzDyuxR-f9OCh_l8qMAzBT2MtIeG1bjYiePHH1SJPdlTomMjpYdILX80aT5G3sNon_u2alp8FGSPYWzPLaGWJ-TB7mW1HEwgqaN1DS2v_7pqydaEeSpk9cSdt_CCgo3qRMQakF_HJ0EJdxCIOSJG0zZPQLP46NC54GXBEe09vSDTFgY-PjCnJq6UZR9W9_k3Sw-Tu8ksUpMGp1WwwaKlWAFB1UrDZNhLCoTJ7l4ZWBIqwASCM0FVianC0-CkR3amSoWC4e9xuNHZ5lsX9uanm-CfWHMqaQEZPeRquRY9SDsiPkbkdWWdg7kKTQRi8wHnS4YvvVzJQY3DPa7JGv8eP13jRHOL4A90U4qGOuZOdwih9LJjSvOuZpajpS-LUpFjULO38wW3uue_4P58oX4M8oW5BmcYZ3YlGWMjVyJzigKYJ5Kz9Br60UQsAo6VA-6KISW7-mdEi9taX-XXmkBhcAyy6PycoRteKYf-KvgExuhPhfY8lUAe5e-e_TAYeITxxfQ0QGn5ZwTGn2AVB-wHtJIMfbWkBtO2cx-_DhemMOlkfqZ7AcTo7kxRNZ4HHQzoHhdK8PUpTzOwjy0Oq-BtGQUdbRtAbFxjeF1SuE4YyyVBWwDIgErDUHuJAbqnYW_WkSrLd0R-xRd7ay-tn6c8N4Qnht6VAZ3ItGOgiHtY4FnCJQqvZ_NJ0SvtSFaBt2s9KkNCAnZfHRmdliMJYMDxsfX-zdaaFknimHQCzrU1bqqTl0E2CewMhu6TqXirekhj-RwMcsXAtLqQCdG8r-eQM9DgUJJHFWLXAvmAaAAg3IpyBRLiZtzTsjVcK5yhO4UhV6resEIVwFTtgbbhUtNUjo2l2BlUI5R_bs-_xxi2KSpiA6KZQ8uwVIdMnWz4qvX63Bd-dggH9iYsO1puYPj9IvuZEJKJ18Oik2Bps-HyXy0]--></g></svg>