<?xml version="1.0" encoding="UTF-8" standalone="no"?><svg xmlns="http://www.w3.org/2000/svg" xmlns:xlink="http://www.w3.org/1999/xlink" contentStyleType="text/css" height="1218px" preserveAspectRatio="none" style="width:1382px;height:1218px;background:#FFFFFF;" version="1.1" viewBox="0 0 1382 1218" width="1382px" zoomAndPan="magnify"><defs/><g><text fill="#000000" font-family="sans-serif" font-size="14" font-weight="bold" lengthAdjust="spacing" textLength="156" x="606" y="24.5332">Domain Model - US017</text><!--class Agency--><g id="elem_Agency"><rect codeLine="18" fill="#F1F1F1" height="106.0469" id="Agency" rx="2.5" ry="2.5" style="stroke:#181818;stroke-width:0.5;" width="101" x="356.5" y="273.6094"/><text fill="#000000" font-family="sans-serif" font-size="14" lengthAdjust="spacing" textLength="47" x="383.5" y="293.1426">Agency</text><line style="stroke:#181818;stroke-width:0.5;" x1="357.5" x2="456.5" y1="301.2188" y2="301.2188"/><text fill="#000000" font-family="sans-serif" font-size="14" lengthAdjust="spacing" textLength="11" x="362.5" y="319.752">id</text><text fill="#000000" font-family="sans-serif" font-size="14" lengthAdjust="spacing" textLength="73" x="362.5" y="337.3613">designation</text><text fill="#000000" font-family="sans-serif" font-size="14" lengthAdjust="spacing" textLength="85" x="362.5" y="354.9707">emailAddress</text><text fill="#000000" font-family="sans-serif" font-size="14" lengthAdjust="spacing" textLength="89" x="362.5" y="372.5801">phoneNumber</text></g><!--class Employee--><g id="elem_Employee"><rect codeLine="25" fill="#F1F1F1" height="35.6094" id="Employee" rx="2.5" ry="2.5" style="stroke:#181818;stroke-width:0.5;" width="68" x="522" y="159.6094"/><text fill="#000000" font-family="sans-serif" font-size="14" lengthAdjust="spacing" textLength="62" x="525" y="179.1426">Employee</text><line style="stroke:#181818;stroke-width:0.5;" x1="523" x2="589" y1="187.2188" y2="187.2188"/></g><!--class Person--><g id="elem_Person"><rect codeLine="28" fill="#F1F1F1" height="123.6563" id="Person" rx="2.5" ry="2.5" style="stroke:#181818;stroke-width:0.5;" width="147" x="917.5" y="885.6094"/><text fill="#000000" font-family="sans-serif" font-size="14" lengthAdjust="spacing" textLength="45" x="968.5" y="905.1426">Person</text><line style="stroke:#181818;stroke-width:0.5;" x1="918.5" x2="1063.5" y1="913.2188" y2="913.2188"/><text fill="#000000" font-family="sans-serif" font-size="14" lengthAdjust="spacing" textLength="35" x="923.5" y="931.752">name</text><text fill="#000000" font-family="sans-serif" font-size="14" lengthAdjust="spacing" textLength="33" x="923.5" y="949.3613">email</text><text fill="#000000" font-family="sans-serif" font-size="14" lengthAdjust="spacing" textLength="135" x="923.5" y="966.9707">passportCardNumber</text><text fill="#000000" font-family="sans-serif" font-size="14" lengthAdjust="spacing" textLength="67" x="923.5" y="984.5801">taxNumber</text><text fill="#000000" font-family="sans-serif" font-size="14" lengthAdjust="spacing" textLength="89" x="923.5" y="1002.1895">phoneNumber</text></g><!--class Customer--><g id="elem_Customer"><rect codeLine="36" fill="#F1F1F1" height="35.6094" id="Customer" rx="2.5" ry="2.5" style="stroke:#181818;stroke-width:0.5;" width="67" x="882.5" y="763.1094"/><text fill="#000000" font-family="sans-serif" font-size="14" lengthAdjust="spacing" textLength="61" x="885.5" y="782.6426">Customer</text><line style="stroke:#181818;stroke-width:0.5;" x1="883.5" x2="948.5" y1="790.7188" y2="790.7188"/></g><!--class Agent--><g id="elem_Agent"><rect codeLine="39" fill="#F1F1F1" height="35.6094" id="Agent" rx="2.5" ry="2.5" style="stroke:#181818;stroke-width:0.5;" width="43" x="770.5" y="45.6094"/><text fill="#000000" font-family="sans-serif" font-size="14" lengthAdjust="spacing" textLength="37" x="773.5" y="65.1426">Agent</text><line style="stroke:#181818;stroke-width:0.5;" x1="771.5" x2="812.5" y1="73.2188" y2="73.2188"/></g><!--class NetworkManager--><g id="elem_NetworkManager"><rect codeLine="42" fill="#F1F1F1" height="35.6094" id="NetworkManager" rx="2.5" ry="2.5" style="stroke:#181818;stroke-width:0.5;" width="112" x="94" y="45.6094"/><text fill="#000000" font-family="sans-serif" font-size="14" lengthAdjust="spacing" textLength="106" x="97" y="65.1426">NetworkManager</text><line style="stroke:#181818;stroke-width:0.5;" x1="95" x2="205" y1="73.2188" y2="73.2188"/></g><!--class Announcement--><g id="elem_Announcement"><rect codeLine="44" fill="#F1F1F1" height="88.4375" id="Announcement" rx="2.5" ry="2.5" style="stroke:#181818;stroke-width:0.5;" width="115" x="478.5" y="457.6094"/><text fill="#000000" font-family="sans-serif" font-size="14" lengthAdjust="spacing" textLength="95" x="488.5" y="477.1426">Announcement</text><line style="stroke:#181818;stroke-width:0.5;" x1="479.5" x2="592.5" y1="485.2188" y2="485.2188"/><text fill="#000000" font-family="sans-serif" font-size="14" lengthAdjust="spacing" textLength="11" x="484.5" y="503.752">id</text><text fill="#000000" font-family="sans-serif" font-size="14" lengthAdjust="spacing" textLength="103" x="484.5" y="521.3613">acceptanceDate</text><text fill="#000000" font-family="sans-serif" font-size="14" lengthAdjust="spacing" textLength="56" x="484.5" y="538.9707">saleDate</text></g><!--class Property--><g id="elem_Property"><rect codeLine="50" fill="#F1F1F1" height="70.8281" id="Property" rx="2.5" ry="2.5" style="stroke:#181818;stroke-width:0.5;" width="132" x="1223" y="291.1094"/><text fill="#000000" font-family="sans-serif" font-size="14" lengthAdjust="spacing" textLength="54" x="1262" y="310.6426">Property</text><line style="stroke:#181818;stroke-width:0.5;" x1="1224" x2="1354" y1="318.7188" y2="318.7188"/><text fill="#000000" font-family="sans-serif" font-size="14" lengthAdjust="spacing" textLength="29" x="1229" y="337.252">area</text><text fill="#000000" font-family="sans-serif" font-size="14" lengthAdjust="spacing" textLength="120" x="1229" y="354.8613">distanceCityCenter</text></g><!--class Network--><g id="elem_Network"><rect codeLine="55" fill="#F1F1F1" height="35.6094" id="Network" rx="2.5" ry="2.5" style="stroke:#181818;stroke-width:0.5;" width="56" x="7" y="483.6094"/><text fill="#000000" font-family="sans-serif" font-size="14" lengthAdjust="spacing" textLength="50" x="10" y="503.1426">Network</text><line style="stroke:#181818;stroke-width:0.5;" x1="8" x2="62" y1="511.2188" y2="511.2188"/></g><!--class PropertyType--><g id="elem_PropertyType"><rect codeLine="57" fill="#F1F1F1" height="53.2188" id="PropertyType" rx="2.5" ry="2.5" style="stroke:#181818;stroke-width:0.5;" width="92" x="979" y="300.1094"/><text fill="#000000" font-family="sans-serif" font-size="14" lengthAdjust="spacing" textLength="86" x="982" y="319.6426">PropertyType</text><line style="stroke:#181818;stroke-width:0.5;" x1="980" x2="1070" y1="327.7188" y2="327.7188"/><text fill="#000000" font-family="sans-serif" font-size="14" lengthAdjust="spacing" textLength="73" x="985" y="346.252">designation</text></g><!--class Location--><g id="elem_Location"><rect codeLine="61" fill="#F1F1F1" height="123.6563" id="Location" rx="2.5" ry="2.5" style="stroke:#181818;stroke-width:0.5;" width="84" x="949" y="1087.6094"/><text fill="#000000" font-family="sans-serif" font-size="14" lengthAdjust="spacing" textLength="54" x="964" y="1107.1426">Location</text><line style="stroke:#181818;stroke-width:0.5;" x1="950" x2="1032" y1="1115.2188" y2="1115.2188"/><text fill="#000000" font-family="sans-serif" font-size="14" lengthAdjust="spacing" textLength="72" x="955" y="1133.752">streetName</text><text fill="#000000" font-family="sans-serif" font-size="14" lengthAdjust="spacing" textLength="21" x="955" y="1151.3613">city</text><text fill="#000000" font-family="sans-serif" font-size="14" lengthAdjust="spacing" textLength="41" x="955" y="1168.9707">district</text><text fill="#000000" font-family="sans-serif" font-size="14" lengthAdjust="spacing" textLength="31" x="955" y="1186.5801">state</text><text fill="#000000" font-family="sans-serif" font-size="14" lengthAdjust="spacing" textLength="51" x="955" y="1204.1895">zipCode</text></g><!--class Business--><g id="elem_Business"><rect codeLine="68" fill="#F1F1F1" height="53.2188" id="Business" rx="2.5" ry="2.5" style="stroke:#181818;stroke-width:0.5;" width="63" x="1166.5" y="623.6094"/><text fill="#000000" font-family="sans-serif" font-size="14" lengthAdjust="spacing" textLength="57" x="1169.5" y="643.1426">Business</text><line style="stroke:#181818;stroke-width:0.5;" x1="1167.5" x2="1228.5" y1="651.2188" y2="651.2188"/><text fill="#000000" font-family="sans-serif" font-size="14" lengthAdjust="spacing" textLength="31" x="1172.5" y="669.752">price</text></g><!--class BusinessType--><g id="elem_BusinessType"><rect codeLine="71" fill="#F1F1F1" height="53.2188" id="BusinessType" rx="2.5" ry="2.5" style="stroke:#181818;stroke-width:0.5;" width="95" x="965.5" y="623.6094"/><text fill="#000000" font-family="sans-serif" font-size="14" lengthAdjust="spacing" textLength="89" x="968.5" y="643.1426">BusinessType</text><line style="stroke:#181818;stroke-width:0.5;" x1="966.5" x2="1059.5" y1="651.2188" y2="651.2188"/><text fill="#000000" font-family="sans-serif" font-size="14" lengthAdjust="spacing" textLength="73" x="971.5" y="669.752">designation</text></g><!--class Lease--><g id="elem_Lease"><rect codeLine="74" fill="#F1F1F1" height="53.2188" id="Lease" rx="2.5" ry="2.5" style="stroke:#181818;stroke-width:0.5;" width="117" x="1118.5" y="754.6094"/><text fill="#000000" font-family="sans-serif" font-size="14" lengthAdjust="spacing" textLength="39" x="1157.5" y="774.1426">Lease</text><line style="stroke:#181818;stroke-width:0.5;" x1="1119.5" x2="1234.5" y1="782.2188" y2="782.2188"/><text fill="#000000" font-family="sans-serif" font-size="14" lengthAdjust="spacing" textLength="105" x="1124.5" y="800.752">contractDuration</text></g><!--class Commission--><g id="elem_Commission"><rect codeLine="77" fill="#F1F1F1" height="53.2188" id="Commission" rx="2.5" ry="2.5" style="stroke:#181818;stroke-width:0.5;" width="121" x="205.5" y="623.6094"/><text fill="#000000" font-family="sans-serif" font-size="14" lengthAdjust="spacing" textLength="76" x="228" y="643.1426">Commission</text><line style="stroke:#181818;stroke-width:0.5;" x1="206.5" x2="325.5" y1="651.2188" y2="651.2188"/><text fill="#000000" font-family="sans-serif" font-size="14" lengthAdjust="spacing" textLength="109" x="211.5" y="669.752">commissionValue</text></g><!--class CommissionType--><g id="elem_CommissionType"><rect codeLine="80" fill="#F1F1F1" height="53.2188" id="CommissionType" rx="2.5" ry="2.5" style="stroke:#181818;stroke-width:0.5;" width="114" x="471" y="623.6094"/><text fill="#000000" font-family="sans-serif" font-size="14" lengthAdjust="spacing" textLength="108" x="474" y="643.1426">CommissionType</text><line style="stroke:#181818;stroke-width:0.5;" x1="472" x2="584" y1="651.2188" y2="651.2188"/><text fill="#000000" font-family="sans-serif" font-size="14" lengthAdjust="spacing" textLength="73" x="477" y="669.752">designation</text></g><!--class Request--><g id="elem_Request"><rect codeLine="83" fill="#F1F1F1" height="70.8281" id="Request" rx="2.5" ry="2.5" style="stroke:#181818;stroke-width:0.5;" width="90" x="964" y="466.1094"/><text fill="#000000" font-family="sans-serif" font-size="14" lengthAdjust="spacing" textLength="53" x="982.5" y="485.6426">Request</text><line style="stroke:#181818;stroke-width:0.5;" x1="965" x2="1053" y1="493.7188" y2="493.7188"/><text fill="#000000" font-family="sans-serif" font-size="14" lengthAdjust="spacing" textLength="11" x="970" y="512.252">id</text><text fill="#000000" font-family="sans-serif" font-size="14" lengthAdjust="spacing" textLength="78" x="970" y="529.8613">requestDate</text></g><!--class Order--><g id="elem_Order"><rect codeLine="87" fill="#F1F1F1" height="88.4375" id="Order" rx="2.5" ry="2.5" style="stroke:#181818;stroke-width:0.5;" width="131" x="751.5" y="903.6094"/><text fill="#000000" font-family="sans-serif" font-size="14" lengthAdjust="spacing" textLength="37" x="798.5" y="923.1426">Order</text><line style="stroke:#181818;stroke-width:0.5;" x1="752.5" x2="881.5" y1="931.2188" y2="931.2188"/><text fill="#000000" font-family="sans-serif" font-size="14" lengthAdjust="spacing" textLength="82" x="757.5" y="949.752">orderAmount</text><text fill="#000000" font-family="sans-serif" font-size="14" lengthAdjust="spacing" textLength="64" x="757.5" y="967.3613">orderDate</text><text fill="#000000" font-family="sans-serif" font-size="14" lengthAdjust="spacing" textLength="119" x="757.5" y="984.9707">acceptanceAnswer</text></g><!--class Owner--><g id="elem_Owner"><rect fill="#F1F1F1" height="35.6094" id="Owner" rx="2.5" ry="2.5" style="stroke:#181818;stroke-width:0.5;" width="47" x="883.5" y="632.1094"/><text fill="#000000" font-family="sans-serif" font-size="14" lengthAdjust="spacing" textLength="41" x="886.5" y="651.6426">Owner</text><line style="stroke:#181818;stroke-width:0.5;" x1="884.5" x2="929.5" y1="659.7188" y2="659.7188"/></g><!--link Person to Employee--><g id="link_Person_Employee"><path codeLine="93" d="M917.4,896.9994 C890.87,878.7494 866.15,861.1694 861,855.6094 C769.06,756.3494 750.77,721.2794 706,593.6094 C678.67,515.6694 705.71,488.0994 680,409.6094 C651.95,323.9594 593.11,232.6194 567.89,195.6194 " fill="none" id="Person-Employee" style="stroke:#181818;stroke-width:1.0;"/><polygon fill="#000000" points="713.23,589.2603,711.8263,579.8539,706.5654,582.4755,713.23,589.2603" style="stroke:#000000;stroke-width:1.0;"/><text fill="#000000" font-family="sans-serif" font-size="13" lengthAdjust="spacing" textLength="82" x="720" y="590.1045">represented in</text><text fill="#000000" font-family="sans-serif" font-size="13" lengthAdjust="spacing" textLength="7" x="902.4491" y="888.4862">1</text><text fill="#000000" font-family="sans-serif" font-size="13" lengthAdjust="spacing" textLength="7" x="563.3546" y="216.8639">1</text></g><!--link Customer to Person--><g id="link_Customer_Person"><path codeLine="94" d="M928.77,799.4794 C936.2,810.1294 945.38,824.2294 952,837.6094 C959.49,852.7394 966.26,869.6794 971.98,885.6094 " fill="none" id="Customer-Person" style="stroke:#181818;stroke-width:1.0;"/><polygon fill="#000000" points="966.2421,851.2543,964.813,841.8517,959.5592,844.4874,966.2421,851.2543" style="stroke:#000000;stroke-width:1.0;"/><text fill="#000000" font-family="sans-serif" font-size="13" lengthAdjust="spacing" textLength="82" x="973" y="852.1045">represented in</text><text fill="#000000" font-family="sans-serif" font-size="13" lengthAdjust="spacing" textLength="7" x="924.2613" y="820.1612">1</text><text fill="#000000" font-family="sans-serif" font-size="13" lengthAdjust="spacing" textLength="7" x="962.2354" y="874.6156">1</text></g><!--link Owner to Customer--><g id="link_Owner_Customer"><path codeLine="95" d="M908.2,668.2394 C909.92,692.9094 913.08,738.1994 914.8,762.9094 " fill="none" id="Owner-Customer" style="stroke:#181818;stroke-width:1.0;"/><polygon fill="#000000" points="916.6523,710.7973,914.3495,720.0248,920.2131,719.6161,916.6523,710.7973" style="stroke:#000000;stroke-width:1.0;"/><text fill="#000000" font-family="sans-serif" font-size="13" lengthAdjust="spacing" textLength="49" x="926" y="721.1045">plays as</text><text fill="#000000" font-family="sans-serif" font-size="13" lengthAdjust="spacing" textLength="20" x="885.725" y="689.1879">0..*</text></g><!--link Agent to Employee--><g id="link_Agent_Employee"><path codeLine="96" d="M770.42,68.7294 C740.07,75.0694 683.63,88.9394 640,111.6094 C615.13,124.5294 590.18,145.0294 574.01,159.5394 " fill="none" id="Agent-Employee" style="stroke:#181818;stroke-width:1.0;"/><polygon fill="#000000" points="649.5384,118.6868,640.095,119.8151,642.5617,125.1503,649.5384,118.6868" style="stroke:#000000;stroke-width:1.0;"/><text fill="#000000" font-family="sans-serif" font-size="13" lengthAdjust="spacing" textLength="49" x="654" y="126.1045">plays as</text><text fill="#000000" font-family="sans-serif" font-size="13" lengthAdjust="spacing" textLength="20" x="742.3276" y="65.5816">0..*</text><text fill="#000000" font-family="sans-serif" font-size="13" lengthAdjust="spacing" textLength="7" x="571.6351" y="148.843">1</text></g><!--link NetworkManager to Employee--><g id="link_NetworkManager_Employee"><path codeLine="97" d="M206.03,80.0694 C291.52,103.6494 451.96,147.9094 521.93,167.2094 " fill="none" id="NetworkManager-Employee" style="stroke:#181818;stroke-width:1.0;"/><polygon fill="#000000" points="377.18,119.4556,385.1179,124.6939,386.681,119.0277,377.18,119.4556" style="stroke:#000000;stroke-width:1.0;"/><text fill="#000000" font-family="sans-serif" font-size="13" lengthAdjust="spacing" textLength="49" x="391" y="126.1045">plays as</text><text fill="#000000" font-family="sans-serif" font-size="13" lengthAdjust="spacing" textLength="20" x="214.0774" y="78.6408">0..*</text><text fill="#000000" font-family="sans-serif" font-size="13" lengthAdjust="spacing" textLength="7" x="507.1812" y="160.986">1</text></g><!--link Agent to Announcement--><g id="link_Agent_Announcement"><path codeLine="98" d="M783.89,81.6194 C770.36,110.5794 743.1,171.5894 727,225.6094 C700.86,313.3194 742.97,355.1994 687,427.6094 C664.03,457.3294 625.87,475.6294 593.66,486.4794 " fill="none" id="Agent-Announcement" style="stroke:#181818;stroke-width:1.0;"/><polygon fill="#000000" points="734.1263,230.2598,727.6198,237.1964,732.9397,239.6961,734.1263,230.2598" style="stroke:#000000;stroke-width:1.0;"/><text fill="#000000" font-family="sans-serif" font-size="13" lengthAdjust="spacing" textLength="87" x="741" y="240.1045">is published by</text><text fill="#000000" font-family="sans-serif" font-size="13" lengthAdjust="spacing" textLength="7" x="773.4796" y="102.8639">1</text><text fill="#000000" font-family="sans-serif" font-size="13" lengthAdjust="spacing" textLength="5" x="601.368" y="481.0055">*</text></g><!--link NetworkManager to Network--><g id="link_NetworkManager_Network"><path codeLine="99" d="M142.93,81.8194 C122.84,131.5794 65.33,280.2794 41,409.6094 C36.23,434.9694 35.1,464.9294 34.91,483.3494 " fill="none" id="NetworkManager-Network" style="stroke:#181818;stroke-width:1.0;"/><polygon fill="#000000" points="92.7011,239.6135,97.8889,231.6424,92.2128,230.1155,92.7011,239.6135" style="stroke:#000000;stroke-width:1.0;"/><text fill="#000000" font-family="sans-serif" font-size="13" lengthAdjust="spacing" textLength="53" x="103" y="240.1045">manages</text><text fill="#000000" font-family="sans-serif" font-size="13" lengthAdjust="spacing" textLength="7" x="132.9572" y="102.7904">1</text><text fill="#000000" font-family="sans-serif" font-size="13" lengthAdjust="spacing" textLength="7" x="26.7657" y="472.5924">1</text></g><!--link Agency to Network--><g id="link_Agency_Network"><path codeLine="100" d="M356.29,333.3194 C270.78,343.9594 103.07,369.4194 61,409.6094 C40.68,429.0194 35.91,463.0994 34.98,483.5894 " fill="none" id="Agency-Network" style="stroke:#181818;stroke-width:1.0;"/><polygon fill="#000000" points="61.4708,420.9033,70.9092,419.7337,68.4191,414.4093,61.4708,420.9033" style="stroke:#000000;stroke-width:1.0;"/><text fill="#000000" font-family="sans-serif" font-size="13" lengthAdjust="spacing" textLength="50" x="75" y="424.1045">is part of</text><text fill="#000000" font-family="sans-serif" font-size="13" lengthAdjust="spacing" textLength="20" x="328.5115" y="330.6687">1..*</text><text fill="#000000" font-family="sans-serif" font-size="13" lengthAdjust="spacing" textLength="7" x="36.0893" y="472.9089">1</text></g><!--link Request to Owner--><g id="link_Request_Owner"><path codeLine="101" d="M984.83,537.3294 C964.09,567.1094 935.08,608.7794 918.98,631.9094 " fill="none" id="Request-Owner" style="stroke:#181818;stroke-width:1.0;"/><polygon fill="#000000" points="965.8569,580.6818,958.2768,586.4256,963.1006,589.7841,965.8569,580.6818" style="stroke:#000000;stroke-width:1.0;"/><text fill="#000000" font-family="sans-serif" font-size="13" lengthAdjust="spacing" textLength="46" x="972" y="590.1045">submits</text><text fill="#000000" font-family="sans-serif" font-size="13" lengthAdjust="spacing" textLength="5" x="975.2461" y="558.3839">*</text><text fill="#000000" font-family="sans-serif" font-size="13" lengthAdjust="spacing" textLength="7" x="914.683" y="621.1715">1</text></g><!--link Employee to Agency--><g id="link_Employee_Agency"><path codeLine="102" d="M538.62,195.7594 C518.89,215.2194 485.8,247.8694 457.74,275.5494 " fill="none" id="Employee-Agency" style="stroke:#181818;stroke-width:1.0;"/><polygon fill="#000000" points="508.4406,238.2966,516.9436,234.0365,512.8157,229.8521,508.4406,238.2966" style="stroke:#000000;stroke-width:1.0;"/><text fill="#000000" font-family="sans-serif" font-size="13" lengthAdjust="spacing" textLength="48" x="521" y="240.1045">works in</text><text fill="#000000" font-family="sans-serif" font-size="13" lengthAdjust="spacing" textLength="7" x="525.7475" y="216.7135">1</text><text fill="#000000" font-family="sans-serif" font-size="13" lengthAdjust="spacing" textLength="7" x="465.3675" y="264.7606">1</text></g><!--link PropertyType to Property--><g id="link_PropertyType_Property"><path codeLine="103" d="M1071.29,326.6094 C1113.29,326.6094 1175.68,326.6094 1222.92,326.6094 " fill="none" id="PropertyType-Property" style="stroke:#181818;stroke-width:1.0;"/><polygon fill="#000000" points="1098.5,314.7852,1089.4549,311.8462,1089.4549,317.7241,1098.5,314.7852" style="stroke:#000000;stroke-width:1.0;"/><text fill="#000000" font-family="sans-serif" font-size="13" lengthAdjust="spacing" textLength="102" x="1102.5" y="320.1045">is a description of</text><text fill="#000000" font-family="sans-serif" font-size="13" lengthAdjust="spacing" textLength="7" x="1078.9141" y="322.8897">1</text><text fill="#000000" font-family="sans-serif" font-size="13" lengthAdjust="spacing" textLength="7" x="1207.8748" y="323.2098">1</text></g><!--link Property to Location--><g id="link_Property_Location"><path codeLine="104" d="M1289,362.3994 C1289,397.3394 1289,452.6994 1289,500.6094 C1289,500.6094 1289,500.6094 1289,948.6094 C1289,1070.4194 1115.21,1122.8194 1033.06,1140.7894 " fill="none" id="Property-Location" style="stroke:#181818;stroke-width:1.0;"/><polygon fill="#000000" points="1292.4382,720.535,1298.0554,712.8605,1292.4716,711.0245,1292.4382,720.535" style="stroke:#000000;stroke-width:1.0;"/><text fill="#000000" font-family="sans-serif" font-size="13" lengthAdjust="spacing" textLength="71" x="1303" y="721.1045">has address</text><text fill="#000000" font-family="sans-serif" font-size="13" lengthAdjust="spacing" textLength="7" x="1281.3984" y="383.4659">1</text><text fill="#000000" font-family="sans-serif" font-size="13" lengthAdjust="spacing" textLength="7" x="1040.8906" y="1135.4533">1</text></g><!--link Person to Location--><g id="link_Person_Location"><path codeLine="105" d="M991,1009.6994 C991,1034.3994 991,1062.8494 991,1087.5494 " fill="none" id="Person-Location" style="stroke:#181818;stroke-width:1.0;"/><polygon fill="#000000" points="996,1053.7852,998.9389,1044.7401,993.0611,1044.7401,996,1053.7852" style="stroke:#000000;stroke-width:1.0;"/><text fill="#000000" font-family="sans-serif" font-size="13" lengthAdjust="spacing" textLength="71" x="1005" y="1054.1045">has address</text><text fill="#000000" font-family="sans-serif" font-size="13" lengthAdjust="spacing" textLength="7" x="983.6172" y="1030.8986">1</text><text fill="#000000" font-family="sans-serif" font-size="13" lengthAdjust="spacing" textLength="7" x="983.5734" y="1076.5483">1</text></g><!--link Agency to Location--><g id="link_Agency_Location"><path codeLine="106" d="M356.32,337.9794 C281.95,356.4994 152,402.8394 152,500.6094 C152,500.6094 152,500.6094 152,948.6094 C152,1114.2594 778.68,1142.9694 948.82,1147.7094 " fill="none" id="Agency-Location" style="stroke:#181818;stroke-width:1.0;"/><polygon fill="#000000" points="159.9526,719.8203,156.9831,710.7852,152.2395,714.2562,159.9526,719.8203" style="stroke:#000000;stroke-width:1.0;"/><text fill="#000000" font-family="sans-serif" font-size="13" lengthAdjust="spacing" textLength="71" x="166" y="721.1045">has address</text><text fill="#000000" font-family="sans-serif" font-size="13" lengthAdjust="spacing" textLength="7" x="341.3623" y="354.3418">1</text><text fill="#000000" font-family="sans-serif" font-size="13" lengthAdjust="spacing" textLength="7" x="933.9688" y="1143.5627">1</text></g><!--link Announcement to Commission--><g id="link_Announcement_Commission"><path codeLine="107" d="M478.41,533.8594 C429.16,560.5794 359.15,598.5694 313.16,623.5194 " fill="none" id="Announcement-Commission" style="stroke:#181818;stroke-width:1.0;"/><polygon fill="#000000" points="410.3948,582.4007,401.043,584.1311,403.8461,589.2974,410.3948,582.4007" style="stroke:#000000;stroke-width:1.0;"/><text fill="#000000" font-family="sans-serif" font-size="13" lengthAdjust="spacing" textLength="81" x="415" y="590.1045">is assigned to</text><text fill="#000000" font-family="sans-serif" font-size="13" lengthAdjust="spacing" textLength="7" x="463.5828" y="534.456">1</text><text fill="#000000" font-family="sans-serif" font-size="13" lengthAdjust="spacing" textLength="7" x="316.8021" y="612.5994">1</text></g><!--link Agency to Announcement--><g id="link_Agency_Announcement"><path codeLine="108" d="M394.99,379.6494 C393.87,395.9594 395.62,413.3994 404,427.6094 C420.16,455.0194 450.72,472.8494 478.36,484.0294 " fill="none" id="Agency-Announcement" style="stroke:#181818;stroke-width:1.0;"/><polygon fill="#000000" points="412.1204,422.6919,408.7719,413.7904,404.1792,417.4586,412.1204,422.6919" style="stroke:#000000;stroke-width:1.0;"/><text fill="#000000" font-family="sans-serif" font-size="13" lengthAdjust="spacing" textLength="30" x="418" y="424.1045">owns</text><text fill="#000000" font-family="sans-serif" font-size="13" lengthAdjust="spacing" textLength="7" x="386.0028" y="400.9848">1</text><text fill="#000000" font-family="sans-serif" font-size="13" lengthAdjust="spacing" textLength="5" x="465.6546" y="478.2415">*</text></g><!--link Property to Request--><g id="link_Property_Request"><path codeLine="109" d="M1222.65,356.7094 C1191.83,371.1894 1155.2,389.8194 1124,409.6094 C1097.56,426.3894 1069.98,448.0494 1048.46,466.0294 " fill="none" id="Property-Request" style="stroke:#181818;stroke-width:1.0;"/><polygon fill="#000000" points="1133.2351,416.1273,1124.0115,418.4461,1127.136,423.4247,1133.2351,416.1273" style="stroke:#000000;stroke-width:1.0;"/><text fill="#000000" font-family="sans-serif" font-size="13" lengthAdjust="spacing" textLength="124" x="1138" y="424.1045">has information about</text><text fill="#000000" font-family="sans-serif" font-size="13" lengthAdjust="spacing" textLength="7" x="1208.0102" y="356.6503">1</text><text fill="#000000" font-family="sans-serif" font-size="13" lengthAdjust="spacing" textLength="7" x="1048.3149" y="455.2669">1</text></g><!--link Request to Business--><g id="link_Request_Business"><path codeLine="110" d="M1053.79,537.3294 C1088.39,564.1494 1135.43,600.6094 1166.24,624.4894 " fill="none" id="Request-Business" style="stroke:#181818;stroke-width:1.0;"/><polygon fill="#000000" points="1133.9519,587.8483,1128.6033,579.9842,1125.0024,584.6299,1133.9519,587.8483" style="stroke:#000000;stroke-width:1.0;"/><text fill="#000000" font-family="sans-serif" font-size="13" lengthAdjust="spacing" textLength="88" x="1139" y="590.1045">is described by</text><text fill="#000000" font-family="sans-serif" font-size="13" lengthAdjust="spacing" textLength="7" x="1053.8867" y="558.3839">1</text><text fill="#000000" font-family="sans-serif" font-size="13" lengthAdjust="spacing" textLength="7" x="1151.5269" y="614.6446">1</text></g><!--reverse link Business to Lease--><g id="link_Business_Lease"><path codeLine="111" d="M1190.55,696.8794 C1187.41,716.1794 1183.87,737.9294 1181.19,754.3594 " fill="none" id="Business-backto-Lease" style="stroke:#181818;stroke-width:1.0;"/><polygon fill="none" points="1183.68,695.5194,1193.8,676.9094,1197.5,697.7694,1183.68,695.5194" style="stroke:#181818;stroke-width:1.0;"/></g><!--link BusinessType to Business--><g id="link_BusinessType_Business"><path codeLine="112" d="M1060.64,650.1094 C1093.83,650.1094 1137.18,650.1094 1166.23,650.1094 " fill="none" id="BusinessType-Business" style="stroke:#181818;stroke-width:1.0;"/><polygon fill="#000000" points="1088,638.2852,1078.9549,635.3462,1078.9549,641.2241,1088,638.2852" style="stroke:#000000;stroke-width:1.0;"/><text fill="#000000" font-family="sans-serif" font-size="13" lengthAdjust="spacing" textLength="56" x="1092" y="643.6045">describes</text><text fill="#000000" font-family="sans-serif" font-size="13" lengthAdjust="spacing" textLength="7" x="1068.4708" y="646.3897">1</text><text fill="#000000" font-family="sans-serif" font-size="13" lengthAdjust="spacing" textLength="7" x="1151.5147" y="645.869">1</text></g><!--link Announcement to Request--><g id="link_Announcement_Request"><path codeLine="113" d="M557.2,457.5194 C566.19,443.7794 578.09,430.2394 593,422.6094 C624.24,406.6294 873.78,435.1294 937,457.6094 C946.11,460.8494 955.31,465.3394 963.94,470.2294 " fill="none" id="Announcement-Request" style="stroke:#181818;stroke-width:1.0;"/><polygon fill="#000000" points="602.9976,418.9413,594.0487,415.7213,593.8651,421.5963,602.9976,418.9413" style="stroke:#000000;stroke-width:1.0;"/><text fill="#000000" font-family="sans-serif" font-size="13" lengthAdjust="spacing" textLength="71" x="607" y="424.1045">is  based on</text><text fill="#000000" font-family="sans-serif" font-size="13" lengthAdjust="spacing" textLength="7" x="553.0209" y="446.7058">1</text><text fill="#000000" font-family="sans-serif" font-size="13" lengthAdjust="spacing" textLength="7" x="948.8973" y="479.8955">1</text></g><!--link Commission to CommissionType--><g id="link_Commission_CommissionType"><path codeLine="114" d="M326.77,650.1094 C370.15,650.1094 428.13,650.1094 470.71,650.1094 " fill="none" id="Commission-CommissionType" style="stroke:#181818;stroke-width:1.0;"/><polygon fill="#000000" points="353.75,638.2852,344.7049,635.3462,344.7049,641.2241,353.75,638.2852" style="stroke:#000000;stroke-width:1.0;"/><text fill="#000000" font-family="sans-serif" font-size="13" lengthAdjust="spacing" textLength="95" x="357.75" y="643.6045">is categorized in</text><text fill="#000000" font-family="sans-serif" font-size="13" lengthAdjust="spacing" textLength="5" x="334.481" y="646.6376">*</text><text fill="#000000" font-family="sans-serif" font-size="13" lengthAdjust="spacing" textLength="7" x="455.9213" y="646.588">1</text></g><!--link Agency to Request--><g id="link_Agency_Request"><path codeLine="115" d="M437.06,379.6794 C450.48,398.0594 468.04,416.8194 489,427.6094 C577.71,473.2794 841.76,427.8694 937,457.6094 C946.03,460.4294 955.12,464.5894 963.65,469.2294 " fill="none" id="Agency-Request" style="stroke:#181818;stroke-width:1.0;"/><polygon fill="#000000" points="498.9292,419.6234,490.5049,415.2097,489.5195,421.0043,498.9292,419.6234" style="stroke:#000000;stroke-width:1.0;"/><text fill="#000000" font-family="sans-serif" font-size="13" lengthAdjust="spacing" textLength="81" x="503" y="424.1045">is assigned to</text><text fill="#000000" font-family="sans-serif" font-size="13" lengthAdjust="spacing" textLength="7" x="433.463" y="401.0186">1</text><text fill="#000000" font-family="sans-serif" font-size="13" lengthAdjust="spacing" textLength="5" x="951.0239" y="460.3306">*</text></g><!--link Agent to Request--><g id="link_Agent_Request"><path codeLine="116" d="M813.81,70.7594 C834.03,77.5594 863.55,90.4394 881,111.6094 C960.13,207.6394 921.44,261.9694 962,379.6094 C972.14,409.0094 985,441.8794 994.71,465.9294 " fill="none" id="Agent-Request" style="stroke:#181818;stroke-width:1.0;"/><polygon fill="#000000" points="943.0812,239.3314,941.9885,229.8838,936.644,232.3304,943.0812,239.3314" style="stroke:#000000;stroke-width:1.0;"/><text fill="#000000" font-family="sans-serif" font-size="13" lengthAdjust="spacing" textLength="98" x="950" y="240.1045">is responsible for</text><text fill="#000000" font-family="sans-serif" font-size="13" lengthAdjust="spacing" textLength="7" x="821.5612" y="68.1078">1</text><text fill="#000000" font-family="sans-serif" font-size="13" lengthAdjust="spacing" textLength="5" x="986.5094" y="455.1479">*</text></g><!--link Agent to Order--><g id="link_Agent_Order"><path codeLine="117" d="M797.87,81.7294 C807.51,110.8494 826.29,172.0894 833,225.6094 C852.79,383.4994 829,424.4894 829,583.6094 C829,583.6094 829,583.6094 829,782.1094 C829,823.3394 825.2,870.2394 821.88,903.3794 " fill="none" id="Agent-Order" style="stroke:#181818;stroke-width:1.0;"/><polygon fill="#000000" points="838.854,496.7873,836.1805,505.9144,842.0558,505.7427,838.854,496.7873" style="stroke:#000000;stroke-width:1.0;"/><text fill="#000000" font-family="sans-serif" font-size="13" lengthAdjust="spacing" textLength="85" x="848" y="507.1045">is accepted by</text><text fill="#000000" font-family="sans-serif" font-size="13" lengthAdjust="spacing" textLength="7" x="791.5366" y="102.6751">1</text><text fill="#000000" font-family="sans-serif" font-size="13" lengthAdjust="spacing" textLength="5" x="817.2444" y="892.8702">*</text></g><!--link Order to Announcement--><g id="link_Order_Announcement"><path codeLine="118" d="M775.33,903.1794 C761.34,888.2894 745.8,871.3994 732,855.6094 C682.54,798.9994 657.68,792.3094 625,724.6094 C605.03,683.2394 619.19,666.6094 603,623.6094 C592.8,596.5294 577.36,568.1394 563.87,545.6594 " fill="none" id="Order-Announcement" style="stroke:#181818;stroke-width:1.0;"/><polygon fill="#000000" points="627.4546,711.4816,629.5297,720.763,634.5889,717.7707,627.4546,711.4816" style="stroke:#000000;stroke-width:1.0;"/><text fill="#000000" font-family="sans-serif" font-size="13" lengthAdjust="spacing" textLength="92" x="639" y="721.1045">is associated to</text><text fill="#000000" font-family="sans-serif" font-size="13" lengthAdjust="spacing" textLength="5" x="763.5665" y="892.6396">*</text><text fill="#000000" font-family="sans-serif" font-size="13" lengthAdjust="spacing" textLength="7" x="560.754" y="567.4431">1</text></g><!--link Customer to Order--><g id="link_Customer_Order"><path codeLine="119" d="M904.42,799.4594 C897.24,810.3294 887.92,824.6794 880,837.6094 C866.81,859.1394 852.7,883.4194 841.18,903.5994 " fill="none" id="Customer-Order" style="stroke:#181818;stroke-width:1.0;"/><polygon fill="#000000" points="882.4047,851.0589,889.6116,844.8531,884.5876,841.8022,882.4047,851.0589" style="stroke:#000000;stroke-width:1.0;"/><text fill="#000000" font-family="sans-serif" font-size="13" lengthAdjust="spacing" textLength="49" x="894" y="852.1045">places a</text><text fill="#000000" font-family="sans-serif" font-size="13" lengthAdjust="spacing" textLength="7" x="893.3672" y="820.1358">1</text><text fill="#000000" font-family="sans-serif" font-size="13" lengthAdjust="spacing" textLength="5" x="839.6352" y="892.7986">*</text></g><!--SRC=[ZLN1Rjim3BthAuXU1WnhqPmA6466BEqXGDiKITkxBBE9K5lo91bPcktVHqcs8oSfjaliY8_auoCfstUfQcvu1PLMMcoChX2SQP3Ptb9pySxNk7Ax4i6WS5ojonHWDxpGMwdMyCPBYunzAV7DWTDWv7hZe93UIsh54YTHSckdpXcPDmxdGgkL_42uPcmZ2mGXZQ0auRr2jz65PSn9HnHkTSMbWWTTO0cNyBAw7jrGJfWjxXUpwH9UvwlvCzorp-NTqsBv_9q0BwlHJGPJ2nmKkgqsxr1nHPMPRp27BLU1SYcj0rwMK20LGuW2hnWBR66wHYLsi6UoO0LQkLOyb8L4g9mMXK5hMRtH2X-RAaV3_dIUTrLTwXqY-VPdJsYiLdkcU8Kn1AlflDR6pRWfsX2E_shVpWQUDTPHpqmIrxDqoV_7MEn3hDKRMfnIkb42gm2dahWGM5Dt1TvoHmtcPNmvC3QwHkDsUmRS86VKMHlmC-bsCmgJCclJxa-ydtSrxWVwzP1xBSB9dbbd4DsZbqPGSEOp6IaS6Job3rdFgFzzBJyQAnMflsSreKxFp-LiKoAtPABvSuOBTzkOeNscgqfQIqVWKTsVLrusU0Ra4y7vJ4lysQ2DKflutieRxGjJe25VxP_JYdhZudj07PepLNORXOuJ11UZ2xYy38zkpZ9Qr9h6qVUa0DgMCUic9U0wV8nmWfwmnLPvwFNLrTSGlFFEe2xvZdR8KiWmQGbeo2013aVmVppQq6rb14wdDGDfeMvosjKD4SvtPr9up_3R6h9ssIqLr-xnnIYbqUDyR6uSw3U2jaqB55fWa2O3s-ILT9vhlzn98sAA37n8woMbMEa290Ixuv2PqxrZXP6r7vr8eREduRj5oM13Sl5uzNZioKHyXkmr-3SoKJx57uO-ChT-vAaTT8cEZyEVD51lbVsajaxo3CQ1YLHlsbI16l1SD-xGb8DJj-Y1IfGmZwCnOPqDnhy97HQUfHT3qeiUclL1pajmn9IIGavn2z1-Uv9B8mpEaLuXQN0YnN6j3NtvshqxrMsG91LvShea0oorhzRAofo-cQJWENoyScBaSBzqsnGDoT0F5EYeQ26vwyWCxfUZ-BJO0lrmJzXV]--></g></svg>