<?xml version="1.0" encoding="UTF-8" standalone="no"?><svg xmlns="http://www.w3.org/2000/svg" xmlns:xlink="http://www.w3.org/1999/xlink" contentStyleType="text/css" height="1513px" preserveAspectRatio="none" style="width:1931px;height:1513px;background:#FFFFFF;" version="1.1" viewBox="0 0 1931 1513" width="1931px" zoomAndPan="magnify"><defs/><g><!--class Company--><g id="elem_Company"><rect codeLine="12" fill="#F1F1F1" height="35.6094" id="Company" rx="2.5" ry="2.5" style="stroke:#181818;stroke-width:0.5;" width="66" x="144.1606" y="7"/><text fill="#000000" font-family="sans-serif" font-size="14" lengthAdjust="spacing" textLength="60" x="147.1606" y="26.5332">Company</text><line style="stroke:#181818;stroke-width:0.5;" x1="145.1606" x2="209.1606" y1="34.6094" y2="34.6094"/></g><!--class SystemAdministrator--><g id="elem_SystemAdministrator"><rect codeLine="15" fill="#F1F1F1" height="35.6094" id="SystemAdministrator" rx="2.5" ry="2.5" style="stroke:#181818;stroke-width:0.5;" width="135" x="387.6606" y="279"/><text fill="#000000" font-family="sans-serif" font-size="14" lengthAdjust="spacing" textLength="129" x="390.6606" y="298.5332">SystemAdministrator</text><line style="stroke:#181818;stroke-width:0.5;" x1="388.6606" x2="521.6606" y1="306.6094" y2="306.6094"/></g><!--class Agency--><g id="elem_Agency"><rect codeLine="18" fill="#F1F1F1" height="88.4375" id="Agency" rx="2.5" ry="2.5" style="stroke:#181818;stroke-width:0.5;" width="107" x="205.6606" y="1093"/><text fill="#000000" font-family="sans-serif" font-size="14" lengthAdjust="spacing" textLength="47" x="235.6606" y="1112.5332">Agency</text><line style="stroke:#181818;stroke-width:0.5;" x1="206.6606" x2="311.6606" y1="1120.6094" y2="1120.6094"/><text fill="#000000" font-family="sans-serif" font-size="14" lengthAdjust="spacing" textLength="73" x="211.6606" y="1139.1426">designation</text><text fill="#000000" font-family="sans-serif" font-size="14" lengthAdjust="spacing" textLength="85" x="211.6606" y="1156.752">emailAddress</text><text fill="#000000" font-family="sans-serif" font-size="14" lengthAdjust="spacing" textLength="95" x="211.6606" y="1174.3613">contactNumber</text></g><!--class Employee--><g id="elem_Employee"><rect codeLine="24" fill="#F1F1F1" height="35.6094" id="Employee" rx="2.5" ry="2.5" style="stroke:#181818;stroke-width:0.5;" width="68" x="439.1606" y="620.5"/><text fill="#000000" font-family="sans-serif" font-size="14" lengthAdjust="spacing" textLength="62" x="442.1606" y="640.0332">Employee</text><line style="stroke:#181818;stroke-width:0.5;" x1="440.1606" x2="506.1606" y1="648.1094" y2="648.1094"/></g><!--class Person--><g id="elem_Person"><rect codeLine="27" fill="#F1F1F1" height="123.6563" id="Person" rx="2.5" ry="2.5" style="stroke:#181818;stroke-width:0.5;" width="131" x="699.6606" y="235"/><text fill="#000000" font-family="sans-serif" font-size="14" lengthAdjust="spacing" textLength="45" x="742.6606" y="254.5332">Person</text><line style="stroke:#181818;stroke-width:0.5;" x1="700.6606" x2="829.6606" y1="262.6094" y2="262.6094"/><text fill="#000000" font-family="sans-serif" font-size="14" lengthAdjust="spacing" textLength="35" x="705.6606" y="281.1426">name</text><text fill="#000000" font-family="sans-serif" font-size="14" lengthAdjust="spacing" textLength="119" x="705.6606" y="298.752">citizenCardNumber</text><text fill="#000000" font-family="sans-serif" font-size="14" lengthAdjust="spacing" textLength="67" x="705.6606" y="316.3613">taxNumber</text><text fill="#000000" font-family="sans-serif" font-size="14" lengthAdjust="spacing" textLength="85" x="705.6606" y="333.9707">emailAddress</text><text fill="#000000" font-family="sans-serif" font-size="14" lengthAdjust="spacing" textLength="95" x="705.6606" y="351.5801">contactNumber</text></g><!--class Owner--><g id="elem_Owner"><rect codeLine="36" fill="#F1F1F1" height="35.6094" id="Owner" rx="2.5" ry="2.5" style="stroke:#181818;stroke-width:0.5;" width="47" x="1177.6606" y="463"/><text fill="#000000" font-family="sans-serif" font-size="14" lengthAdjust="spacing" textLength="41" x="1180.6606" y="482.5332">Owner</text><line style="stroke:#181818;stroke-width:0.5;" x1="1178.6606" x2="1223.6606" y1="490.6094" y2="490.6094"/></g><!--class Customer--><g id="elem_Customer"><rect codeLine="39" fill="#F1F1F1" height="35.6094" id="Customer" rx="2.5" ry="2.5" style="stroke:#181818;stroke-width:0.5;" width="67" x="778.6606" y="121"/><text fill="#000000" font-family="sans-serif" font-size="14" lengthAdjust="spacing" textLength="61" x="781.6606" y="140.5332">Customer</text><line style="stroke:#181818;stroke-width:0.5;" x1="779.6606" x2="844.6606" y1="148.6094" y2="148.6094"/></g><!--class Agent--><g id="elem_Agent"><rect codeLine="42" fill="#F1F1F1" height="35.6094" id="Agent" rx="2.5" ry="2.5" style="stroke:#181818;stroke-width:0.5;" width="43" x="1288.6606" y="121"/><text fill="#000000" font-family="sans-serif" font-size="14" lengthAdjust="spacing" textLength="37" x="1291.6606" y="140.5332">Agent</text><line style="stroke:#181818;stroke-width:0.5;" x1="1289.6606" x2="1330.6606" y1="148.6094" y2="148.6094"/></g><!--class StoreManager--><g id="elem_StoreManager"><rect codeLine="45" fill="#F1F1F1" height="35.6094" id="StoreManager" rx="2.5" ry="2.5" style="stroke:#181818;stroke-width:0.5;" width="96" x="253.1606" y="463"/><text fill="#000000" font-family="sans-serif" font-size="14" lengthAdjust="spacing" textLength="90" x="256.1606" y="482.5332">StoreManager</text><line style="stroke:#181818;stroke-width:0.5;" x1="254.1606" x2="348.1606" y1="490.6094" y2="490.6094"/></g><!--class NetworkManager--><g id="elem_NetworkManager"><rect codeLine="47" fill="#F1F1F1" height="35.6094" id="NetworkManager" rx="2.5" ry="2.5" style="stroke:#181818;stroke-width:0.5;" width="112" x="204.1606" y="279"/><text fill="#000000" font-family="sans-serif" font-size="14" lengthAdjust="spacing" textLength="106" x="207.1606" y="298.5332">NetworkManager</text><line style="stroke:#181818;stroke-width:0.5;" x1="205.1606" x2="315.1606" y1="306.6094" y2="306.6094"/></g><!--class Announcement--><g id="elem_Announcement"><rect codeLine="50" fill="#F1F1F1" height="70.8281" id="Announcement" rx="2.5" ry="2.5" style="stroke:#181818;stroke-width:0.5;" width="135" x="942.6606" y="445.5"/><text fill="#000000" font-family="sans-serif" font-size="14" lengthAdjust="spacing" textLength="95" x="962.6606" y="465.0332">Announcement</text><line style="stroke:#181818;stroke-width:0.5;" x1="943.6606" x2="1076.6606" y1="473.1094" y2="473.1094"/><text fill="#000000" font-family="sans-serif" font-size="14" lengthAdjust="spacing" textLength="103" x="948.6606" y="491.6426">typeCommission</text><text fill="#000000" font-family="sans-serif" font-size="14" lengthAdjust="spacing" textLength="123" x="948.6606" y="509.252">amountCommission</text></g><!--class Visit--><g id="elem_Visit"><rect codeLine="55" fill="#F1F1F1" height="53.2188" id="Visit" rx="2.5" ry="2.5" style="stroke:#181818;stroke-width:0.5;" width="40" x="1331.1606" y="270.5"/><text fill="#000000" font-family="sans-serif" font-size="14" lengthAdjust="spacing" textLength="26" x="1338.1606" y="290.0332">Visit</text><line style="stroke:#181818;stroke-width:0.5;" x1="1332.1606" x2="1370.1606" y1="298.1094" y2="298.1094"/><text fill="#000000" font-family="sans-serif" font-size="14" lengthAdjust="spacing" textLength="28" x="1337.1606" y="316.6426">date</text></g><!--class VisitReport--><g id="elem_VisitReport"><rect codeLine="58" fill="#F1F1F1" height="70.8281" id="VisitReport" rx="2.5" ry="2.5" style="stroke:#181818;stroke-width:0.5;" width="95" x="1522.6606" y="261.5"/><text fill="#000000" font-family="sans-serif" font-size="14" lengthAdjust="spacing" textLength="69" x="1535.6606" y="281.0332">VisitReport</text><line style="stroke:#181818;stroke-width:0.5;" x1="1523.6606" x2="1616.6606" y1="289.1094" y2="289.1094"/><text fill="#000000" font-family="sans-serif" font-size="14" lengthAdjust="spacing" textLength="83" x="1528.6606" y="307.6426">dealProspect</text><text fill="#000000" font-family="sans-serif" font-size="14" lengthAdjust="spacing" textLength="69" x="1528.6606" y="325.252">description</text></g><!--class Property--><g id="elem_Property"><rect codeLine="62" fill="#F1F1F1" height="70.8281" id="Property" rx="2.5" ry="2.5" style="stroke:#181818;stroke-width:0.5;" width="132" x="1353.1606" y="603"/><text fill="#000000" font-family="sans-serif" font-size="14" lengthAdjust="spacing" textLength="54" x="1392.1606" y="622.5332">Property</text><line style="stroke:#181818;stroke-width:0.5;" x1="1354.1606" x2="1484.1606" y1="630.6094" y2="630.6094"/><text fill="#000000" font-family="sans-serif" font-size="14" lengthAdjust="spacing" textLength="29" x="1359.1606" y="649.1426">area</text><text fill="#000000" font-family="sans-serif" font-size="14" lengthAdjust="spacing" textLength="120" x="1359.1606" y="666.752">distanceCityCenter</text></g><!--class Residence--><g id="elem_Residence"><rect codeLine="67" fill="#F1F1F1" height="88.4375" id="Residence" rx="2.5" ry="2.5" style="stroke:#181818;stroke-width:0.5;" width="128" x="1671.1606" y="437"/><text fill="#000000" font-family="sans-serif" font-size="14" lengthAdjust="spacing" textLength="67" x="1701.6606" y="456.5332">Residence</text><line style="stroke:#181818;stroke-width:0.5;" x1="1672.1606" x2="1798.1606" y1="464.6094" y2="464.6094"/><text fill="#000000" font-family="sans-serif" font-size="14" lengthAdjust="spacing" textLength="112" x="1677.1606" y="483.1426">numberBedrooms</text><text fill="#000000" font-family="sans-serif" font-size="14" lengthAdjust="spacing" textLength="116" x="1677.1606" y="500.752">numberBathrooms</text><text fill="#000000" font-family="sans-serif" font-size="14" lengthAdjust="spacing" textLength="87" x="1677.1606" y="518.3613">parkingSpace</text></g><!--class AvailableEquipment--><g id="elem_AvailableEquipment"><rect codeLine="72" fill="#F1F1F1" height="53.2188" id="AvailableEquipment" rx="2.5" ry="2.5" style="stroke:#181818;stroke-width:0.5;" width="130" x="1677.1606" y="612"/><text fill="#000000" font-family="sans-serif" font-size="14" lengthAdjust="spacing" textLength="124" x="1680.1606" y="631.5332">AvailableEquipment</text><line style="stroke:#181818;stroke-width:0.5;" x1="1678.1606" x2="1806.1606" y1="639.6094" y2="639.6094"/><text fill="#000000" font-family="sans-serif" font-size="14" lengthAdjust="spacing" textLength="69" x="1683.1606" y="658.1426">description</text></g><!--class House--><g id="elem_House"><rect codeLine="75" fill="#F1F1F1" height="88.4375" id="House" rx="2.5" ry="2.5" style="stroke:#181818;stroke-width:0.5;" width="105" x="1679.6606" y="253"/><text fill="#000000" font-family="sans-serif" font-size="14" lengthAdjust="spacing" textLength="40" x="1712.1606" y="272.5332">House</text><line style="stroke:#181818;stroke-width:0.5;" x1="1680.6606" x2="1783.6606" y1="280.6094" y2="280.6094"/><text fill="#000000" font-family="sans-serif" font-size="14" lengthAdjust="spacing" textLength="62" x="1685.6606" y="299.1426">basement</text><text fill="#000000" font-family="sans-serif" font-size="14" lengthAdjust="spacing" textLength="93" x="1685.6606" y="316.752">inhabitableLoft</text><text fill="#000000" font-family="sans-serif" font-size="14" lengthAdjust="spacing" textLength="82" x="1685.6606" y="334.3613">sunExposure</text></g><!--class Network--><g id="elem_Network"><rect codeLine="80" fill="#F1F1F1" height="35.6094" id="Network" rx="2.5" ry="2.5" style="stroke:#181818;stroke-width:0.5;" width="56" x="149.1606" y="121"/><text fill="#000000" font-family="sans-serif" font-size="14" lengthAdjust="spacing" textLength="50" x="152.1606" y="140.5332">Network</text><line style="stroke:#181818;stroke-width:0.5;" x1="150.1606" x2="204.1606" y1="148.6094" y2="148.6094"/></g><!--class Client--><g id="elem_Client"><rect codeLine="81" fill="#F1F1F1" height="35.6094" id="Client" rx="2.5" ry="2.5" style="stroke:#181818;stroke-width:0.5;" width="42" x="803.1606" y="463"/><text fill="#000000" font-family="sans-serif" font-size="14" lengthAdjust="spacing" textLength="36" x="806.1606" y="482.5332">Client</text><line style="stroke:#181818;stroke-width:0.5;" x1="804.1606" x2="844.1606" y1="490.6094" y2="490.6094"/></g><!--class TypeProperty--><g id="elem_TypeProperty"><rect codeLine="83" fill="#F1F1F1" height="53.2188" id="TypeProperty" rx="2.5" ry="2.5" style="stroke:#181818;stroke-width:0.5;" width="92" x="1512.1606" y="454.5"/><text fill="#000000" font-family="sans-serif" font-size="14" lengthAdjust="spacing" textLength="86" x="1515.1606" y="474.0332">TypeProperty</text><line style="stroke:#181818;stroke-width:0.5;" x1="1513.1606" x2="1603.1606" y1="482.1094" y2="482.1094"/><text fill="#000000" font-family="sans-serif" font-size="14" lengthAdjust="spacing" textLength="73" x="1518.1606" y="500.6426">designation</text></g><!--class TypeResidence--><g id="elem_TypeResidence"><rect codeLine="86" fill="#F1F1F1" height="53.2188" id="TypeResidence" rx="2.5" ry="2.5" style="stroke:#181818;stroke-width:0.5;" width="105" x="1819.6606" y="270.5"/><text fill="#000000" font-family="sans-serif" font-size="14" lengthAdjust="spacing" textLength="99" x="1822.6606" y="290.0332">TypeResidence</text><line style="stroke:#181818;stroke-width:0.5;" x1="1820.6606" x2="1923.6606" y1="298.1094" y2="298.1094"/><text fill="#000000" font-family="sans-serif" font-size="14" lengthAdjust="spacing" textLength="73" x="1825.6606" y="316.6426">designation</text></g><!--class Photograph--><g id="elem_Photograph"><rect codeLine="89" fill="#F1F1F1" height="53.2188" id="Photograph" rx="2.5" ry="2.5" style="stroke:#181818;stroke-width:0.5;" width="80" x="1326.1606" y="752"/><text fill="#000000" font-family="sans-serif" font-size="14" lengthAdjust="spacing" textLength="74" x="1329.1606" y="771.5332">Photograph</text><line style="stroke:#181818;stroke-width:0.5;" x1="1327.1606" x2="1405.1606" y1="779.6094" y2="779.6094"/><text fill="#000000" font-family="sans-serif" font-size="14" lengthAdjust="spacing" textLength="16" x="1332.1606" y="798.1426">url</text></g><!--class Location--><g id="elem_Location"><rect codeLine="92" fill="#F1F1F1" height="123.6563" id="Location" rx="2.5" ry="2.5" style="stroke:#181818;stroke-width:0.5;" width="84" x="708.1606" y="1383"/><text fill="#000000" font-family="sans-serif" font-size="14" lengthAdjust="spacing" textLength="54" x="723.1606" y="1402.5332">Location</text><line style="stroke:#181818;stroke-width:0.5;" x1="709.1606" x2="791.1606" y1="1410.6094" y2="1410.6094"/><text fill="#000000" font-family="sans-serif" font-size="14" lengthAdjust="spacing" textLength="72" x="714.1606" y="1429.1426">streetName</text><text fill="#000000" font-family="sans-serif" font-size="14" lengthAdjust="spacing" textLength="21" x="714.1606" y="1446.752">city</text><text fill="#000000" font-family="sans-serif" font-size="14" lengthAdjust="spacing" textLength="41" x="714.1606" y="1464.3613">district</text><text fill="#000000" font-family="sans-serif" font-size="14" lengthAdjust="spacing" textLength="31" x="714.1606" y="1481.9707">state</text><text fill="#000000" font-family="sans-serif" font-size="14" lengthAdjust="spacing" textLength="51" x="714.1606" y="1499.5801">zipCode</text></g><!--class Price--><g id="elem_Price"><rect codeLine="99" fill="#F1F1F1" height="53.2188" id="Price" rx="2.5" ry="2.5" style="stroke:#181818;stroke-width:0.5;" width="59" x="1441.6606" y="752"/><text fill="#000000" font-family="sans-serif" font-size="14" lengthAdjust="spacing" textLength="32" x="1455.1606" y="771.5332">Price</text><line style="stroke:#181818;stroke-width:0.5;" x1="1442.6606" x2="1499.6606" y1="779.6094" y2="779.6094"/><text fill="#000000" font-family="sans-serif" font-size="14" lengthAdjust="spacing" textLength="47" x="1447.6606" y="798.1426">amount</text></g><!--class Lease--><g id="elem_Lease"><rect codeLine="102" fill="#F1F1F1" height="53.2188" id="Lease" rx="2.5" ry="2.5" style="stroke:#181818;stroke-width:0.5;" width="117" x="1412.6606" y="883"/><text fill="#000000" font-family="sans-serif" font-size="14" lengthAdjust="spacing" textLength="39" x="1451.6606" y="902.5332">Lease</text><line style="stroke:#181818;stroke-width:0.5;" x1="1413.6606" x2="1528.6606" y1="910.6094" y2="910.6094"/><text fill="#000000" font-family="sans-serif" font-size="14" lengthAdjust="spacing" textLength="105" x="1418.6606" y="929.1426">contractDuration</text></g><!--link Company to Agency--><g id="link_Company_Agency"><path codeLine="107" d="M143.7806,33.1 C96.0906,45.43 14.1606,75.68 14.1606,138 C14.1606,138 14.1606,138 14.1606,1015 C14.1606,1099.68 133.2706,1125.1 205.3906,1132.73 " fill="none" id="Company-Agency" style="stroke:#181818;stroke-width:1.0;"/><polygon fill="#000000" points="19.4403,643.668,21.8686,634.4726,16,634.8014,19.4403,643.668" style="stroke:#000000;stroke-width:1.0;"/><text fill="#000000" font-family="sans-serif" font-size="13" lengthAdjust="spacing" textLength="30" x="28.1606" y="643.9951">owns</text><text fill="#000000" font-family="sans-serif" font-size="13" lengthAdjust="spacing" textLength="7" x="129.1741" y="30.6923">1</text><text fill="#000000" font-family="sans-serif" font-size="13" lengthAdjust="spacing" textLength="20" x="177.6186" y="1146.6745">1..*</text></g><!--link Company to SystemAdministrator--><g id="link_Company_SystemAdministrator"><path codeLine="108" d="M197.0306,43.15 C207.0806,51.95 219.3906,62.91 230.1606,73 C310.0006,147.86 401.6706,241.09 438.5406,278.89 " fill="none" id="Company-SystemAdministrator" style="stroke:#181818;stroke-width:1.0;"/><polygon fill="#000000" points="326.7386,142.6683,322.3188,134.2472,318.2131,138.4534,326.7386,142.6683" style="stroke:#000000;stroke-width:1.0;"/><text fill="#000000" font-family="sans-serif" font-size="13" lengthAdjust="spacing" textLength="37" x="332.1606" y="144.4951">knows</text><text fill="#000000" font-family="sans-serif" font-size="13" lengthAdjust="spacing" textLength="7" x="194.6347" y="64.1042">1</text><text fill="#000000" font-family="sans-serif" font-size="13" lengthAdjust="spacing" textLength="7" x="425.1274" y="268.1808">1</text></g><!--link SystemAdministrator to Employee--><g id="link_SystemAdministrator_Employee"><path codeLine="109" d="M456.0806,315.3 C458.8706,367.97 467.3106,527.16 471.1806,600.17 " fill="none" id="SystemAdministrator-to-Employee" style="stroke:#181818;stroke-width:1.0;"/><polygon fill="none" points="478.1806,599.89,472.2406,620.23,464.2006,600.63,478.1806,599.89" style="stroke:#181818;stroke-width:1.0;"/></g><!--link SystemAdministrator to Employee--><g id="link_SystemAdministrator_Employee"><path codeLine="110" d="M462.4006,315.09 C469.6906,333.12 480.6406,362.53 486.1606,389 C492.4906,419.32 494.4806,522.86 495.1606,555 C495.3306,563 496.4706,565.11 495.1606,573 C492.4106,589.57 485.9406,607.61 480.7306,620.38 " fill="none" id="SystemAdministrator-Employee" style="stroke:#181818;stroke-width:1.0;"/><polygon fill="#000000" points="499.4603,486.1668,501.8518,476.9618,495.9845,477.3141,499.4603,486.1668" style="stroke:#000000;stroke-width:1.0;"/><text fill="#000000" font-family="sans-serif" font-size="13" lengthAdjust="spacing" textLength="50" x="508.1606" y="486.4951">registers</text><text fill="#000000" font-family="sans-serif" font-size="13" lengthAdjust="spacing" textLength="7" x="456.4525" y="336.0273">1</text><text fill="#000000" font-family="sans-serif" font-size="13" lengthAdjust="spacing" textLength="20" x="459.956" y="609.6677">0..*</text></g><!--link SystemAdministrator to Agency--><g id="link_SystemAdministrator_Agency"><path codeLine="111" d="M418.6206,315.04 C348.1106,349.13 200.1606,426.97 200.1606,480 C200.1606,480 200.1606,480 200.1606,1015 C200.1606,1042.69 212.8006,1070.68 226.3806,1092.75 " fill="none" id="SystemAdministrator-Agency" style="stroke:#181818;stroke-width:1.0;"/><polygon fill="#000000" points="203.9608,783.5297,208.9843,775.4541,203.2782,774.0436,203.9608,783.5297" style="stroke:#000000;stroke-width:1.0;"/><text fill="#000000" font-family="sans-serif" font-size="13" lengthAdjust="spacing" textLength="50" x="214.1606" y="783.9951">registers</text><text fill="#000000" font-family="sans-serif" font-size="13" lengthAdjust="spacing" textLength="7" x="400.3594" y="335.9632">1</text><text fill="#000000" font-family="sans-serif" font-size="13" lengthAdjust="spacing" textLength="20" x="199.8299" y="1082.2378">0..*</text></g><!--reverse link Person to Employee--><g id="link_Person_Employee"><path codeLine="112" d="M699.5106,374.33 C630.4006,454.69 526.4106,575.59 488.0506,620.18 " fill="none" id="Person-backto-Employee" style="stroke:#181818;stroke-width:1.0;"/><polygon fill="none" points="694.2706,369.69,712.6206,359.09,704.8806,378.82,694.2706,369.69" style="stroke:#181818;stroke-width:1.0;"/></g><!--reverse link Person to Owner--><g id="link_Person_Owner"><path codeLine="113" d="M849.4406,333.18 C951.2006,375.66 1116.3106,444.58 1177.4306,470.09 " fill="none" id="Person-backto-Owner" style="stroke:#181818;stroke-width:1.0;"/><polygon fill="none" points="846.6706,339.61,830.9106,325.44,852.0606,326.69,846.6706,339.61" style="stroke:#181818;stroke-width:1.0;"/></g><!--link Customer to Person--><g id="link_Customer_Person"><path codeLine="114" d="M806.9506,157.29 C802.5906,171.77 796.0206,193.56 789.3806,215.6 " fill="none" id="Customer-to-Person" style="stroke:#181818;stroke-width:1.0;"/><polygon fill="none" points="796.0506,217.72,783.5806,234.86,782.6506,213.69,796.0506,217.72" style="stroke:#181818;stroke-width:1.0;"/></g><!--link Agent to Employee--><g id="link_Agent_Employee"><path codeLine="115" d="M1309.7006,157.15 C1307.5006,224.92 1295.8506,472.87 1242.1606,525 C1140.2206,623.97 685.6006,636.24 527.5306,637.48 " fill="none" id="Agent-to-Employee" style="stroke:#181818;stroke-width:1.0;"/><polygon fill="none" points="527.3006,644.48,507.2606,637.59,527.2306,630.48,527.3006,644.48" style="stroke:#181818;stroke-width:1.0;"/></g><!--link StoreManager to Employee--><g id="link_StoreManager_Employee"><path codeLine="116" d="M314.4506,499.15 C329.7106,518.27 356.0006,549.59 382.1606,573 C396.4706,585.81 413.3506,598.38 428.6706,608.96 " fill="none" id="StoreManager-to-Employee" style="stroke:#181818;stroke-width:1.0;"/><polygon fill="none" points="432.9706,603.42,445.6706,620.38,425.1706,615.04,432.9706,603.42" style="stroke:#181818;stroke-width:1.0;"/></g><!--link NetworkManager to Employee--><g id="link_NetworkManager_Employee"><path codeLine="117" d="M275.0206,315.29 C296.6606,340.9 337.5206,390.88 367.1606,437 C402.8506,492.54 437.2606,561.34 456.7606,602.2 " fill="none" id="NetworkManager-to-Employee" style="stroke:#181818;stroke-width:1.0;"/><polygon fill="none" points="463.1006,599.24,465.3006,620.32,450.4406,605.21,463.1006,599.24" style="stroke:#181818;stroke-width:1.0;"/></g><!--link Agent to Announcement--><g id="link_Agent_Announcement"><path codeLine="118" d="M1288.5906,152.96 C1261.7406,169.74 1215.3706,200.9 1182.1606,235 C1117.0706,301.83 1058.7006,395.39 1029.6206,445.34 " fill="none" id="Agent-Announcement" style="stroke:#181818;stroke-width:1.0;"/><polygon fill="#000000" points="1183.8454,300.9187,1192.0427,296.0963,1187.6426,292.1991,1183.8454,300.9187" style="stroke:#000000;stroke-width:1.0;"/><text fill="#000000" font-family="sans-serif" font-size="13" lengthAdjust="spacing" textLength="55" x="1196.1606" y="302.4951">publishes</text><text fill="#000000" font-family="sans-serif" font-size="13" lengthAdjust="spacing" textLength="7" x="1273.5995" y="152.4732">1</text><text fill="#000000" font-family="sans-serif" font-size="13" lengthAdjust="spacing" textLength="5" x="1027.8536" y="434.5623">*</text></g><!--link Agent to Visit--><g id="link_Agent_Visit"><path codeLine="119" d="M1314.7006,157.29 C1321.9206,184.74 1336.0306,238.43 1344.4206,270.37 " fill="none" id="Agent-Visit" style="stroke:#181818;stroke-width:1.0;"/><polygon fill="#000000" points="1332.4316,201.0116,1332.9748,191.5165,1327.29,193.0106,1332.4316,201.0116" style="stroke:#000000;stroke-width:1.0;"/><text fill="#000000" font-family="sans-serif" font-size="13" lengthAdjust="spacing" textLength="59" x="1340.1606" y="201.4951">schedules</text><text fill="#000000" font-family="sans-serif" font-size="13" lengthAdjust="spacing" textLength="7" x="1307.9801" y="177.9503">1</text><text fill="#000000" font-family="sans-serif" font-size="13" lengthAdjust="spacing" textLength="5" x="1337.1684" y="259.4402">*</text></g><!--link Customer to Visit--><g id="link_Customer_Visit"><path codeLine="120" d="M845.7306,148.23 C909.0906,163.93 1050.5106,199.73 1168.1606,235 C1227.8306,252.89 1297.3906,276.98 1330.9806,288.82 " fill="none" id="Customer-Visit" style="stroke:#181818;stroke-width:1.0;"/><polygon fill="#000000" points="1069.9631,197.5672,1062.0932,192.2273,1060.4575,197.8729,1069.9631,197.5672" style="stroke:#000000;stroke-width:1.0;"/><text fill="#000000" font-family="sans-serif" font-size="13" lengthAdjust="spacing" textLength="50" x="1074.1606" y="201.4951">requests</text><text fill="#000000" font-family="sans-serif" font-size="13" lengthAdjust="spacing" textLength="7" x="853.8397" y="146.0754">1</text><text fill="#000000" font-family="sans-serif" font-size="13" lengthAdjust="spacing" textLength="5" x="1318.1844" y="280.7761">*</text></g><!--link StoreManager to Agency--><g id="link_StoreManager_Agency"><path codeLine="121" d="M304.2806,499.19 C309.1906,527.79 318.1606,586.99 318.1606,637.5 C318.1606,637.5 318.1606,637.5 318.1606,1015 C318.1606,1042.69 305.5206,1070.68 291.9406,1092.75 " fill="none" id="StoreManager-Agency" style="stroke:#181818;stroke-width:1.0;"/><polygon fill="#000000" points="323.0567,849.1747,326.183,840.1927,320.3064,840.0705,323.0567,849.1747" style="stroke:#000000;stroke-width:1.0;"/><text fill="#000000" font-family="sans-serif" font-size="13" lengthAdjust="spacing" textLength="53" x="332.1606" y="849.4951">manages</text><text fill="#000000" font-family="sans-serif" font-size="13" lengthAdjust="spacing" textLength="7" x="297.1737" y="520.1554">1</text><text fill="#000000" font-family="sans-serif" font-size="13" lengthAdjust="spacing" textLength="7" x="289.4241" y="1082.2378">1</text></g><!--link Network to NetworkManager--><g id="link_Network_NetworkManager"><path codeLine="122" d="M186.3606,157.29 C202.3106,187.28 234.9406,248.59 250.9206,278.63 " fill="none" id="Network-NetworkManager" style="stroke:#181818;stroke-width:1.0;"/><polygon fill="#000000" points="214.812,191.7617,216.4661,201.1273,221.6552,198.3664,214.812,191.7617" style="stroke:#000000;stroke-width:1.0;"/><text fill="#000000" font-family="sans-serif" font-size="13" lengthAdjust="spacing" textLength="53" x="226.1606" y="201.4951">manages</text><text fill="#000000" font-family="sans-serif" font-size="13" lengthAdjust="spacing" textLength="7" x="180.8925" y="177.9503">1</text><text fill="#000000" font-family="sans-serif" font-size="13" lengthAdjust="spacing" textLength="7" x="240.019" y="268.163">1</text></g><!--link Agency to Network--><g id="link_Agency_Network"><path codeLine="123" d="M205.2606,1116.82 C163.3006,1098.04 112.1606,1064.91 112.1606,1015 C112.1606,296 112.1606,296 112.1606,296 C112.1606,242.01 145.7406,185.04 164.6306,157.27 " fill="none" id="Agency-Network" style="stroke:#181818;stroke-width:1.0;"/><polygon fill="#000000" points="116.9491,708.1803,114.3954,717.3416,120.268,717.0929,116.9491,708.1803" style="stroke:#000000;stroke-width:1.0;"/><text fill="#000000" font-family="sans-serif" font-size="13" lengthAdjust="spacing" textLength="50" x="126.1606" y="718.4951">is part of</text><text fill="#000000" font-family="sans-serif" font-size="13" lengthAdjust="spacing" textLength="7" x="190.5475" y="1110.5227">1</text><text fill="#000000" font-family="sans-serif" font-size="13" lengthAdjust="spacing" textLength="7" x="153.1222" y="178.2579">1</text></g><!--link Company to Network--><g id="link_Company_Network"><path codeLine="124" d="M177.1606,43.01 C177.1606,64.06 177.1606,99.7 177.1606,120.83 " fill="none" id="Company-Network" style="stroke:#181818;stroke-width:1.0;"/><polygon fill="#000000" points="182.1606,87.1758,185.0995,78.1307,179.2217,78.1307,182.1606,87.1758" style="stroke:#000000;stroke-width:1.0;"/><text fill="#000000" font-family="sans-serif" font-size="13" lengthAdjust="spacing" textLength="30" x="191.1606" y="87.4951">owns</text><text fill="#000000" font-family="sans-serif" font-size="13" lengthAdjust="spacing" textLength="7" x="169.1325" y="64.2546">1</text><text fill="#000000" font-family="sans-serif" font-size="13" lengthAdjust="spacing" textLength="7" x="169.045" y="110.1017">1</text></g><!--link Announcement to Property--><g id="link_Announcement_Property"><path codeLine="125" d="M1077.7006,507.68 C1153.9306,536.66 1277.1606,583.51 1352.8806,612.3 " fill="none" id="Announcement-Property" style="stroke:#181818;stroke-width:1.0;"/><polygon fill="#000000" points="1247.8342,565.9526,1240.424,559.9912,1238.3352,565.4854,1247.8342,565.9526" style="stroke:#000000;stroke-width:1.0;"/><text fill="#000000" font-family="sans-serif" font-size="13" lengthAdjust="spacing" textLength="49" x="1252.1606" y="569.4951">contains</text><text fill="#000000" font-family="sans-serif" font-size="13" lengthAdjust="spacing" textLength="7" x="1085.4706" y="507.2469">1</text><text fill="#000000" font-family="sans-serif" font-size="13" lengthAdjust="spacing" textLength="7" x="1338.2484" y="606.0831">1</text></g><!--link Announcement to Owner--><g id="link_Announcement_Owner"><path codeLine="126" d="M1077.7706,481 C1112.5406,481 1152.7106,481 1177.5306,481 " fill="none" id="Announcement-Owner" style="stroke:#181818;stroke-width:1.0;"/><polygon fill="#000000" points="1095.1606,469.1758,1104.2057,472.1147,1104.2057,466.2369,1095.1606,469.1758" style="stroke:#000000;stroke-width:1.0;"/><text fill="#000000" font-family="sans-serif" font-size="13" lengthAdjust="spacing" textLength="50" x="1109.1606" y="474.4951">requests</text><text fill="#000000" font-family="sans-serif" font-size="13" lengthAdjust="spacing" textLength="7" x="1085.5483" y="477.6487">1</text><text fill="#000000" font-family="sans-serif" font-size="13" lengthAdjust="spacing" textLength="7" x="1162.5612" y="476.2541">1</text></g><!--link Visit to Property--><g id="link_Visit_Property"><path codeLine="127" d="M1356.2706,323.52 C1368.3206,383.66 1398.5006,534.36 1412.2006,602.76 " fill="none" id="Visit-Property" style="stroke:#181818;stroke-width:1.0;"/><polygon fill="#000000" points="1402.1426,486.0784,1403.2479,476.6323,1397.4845,477.7867,1402.1426,486.0784" style="stroke:#000000;stroke-width:1.0;"/><text fill="#000000" font-family="sans-serif" font-size="13" lengthAdjust="spacing" textLength="43" x="1410.1606" y="486.4951">done to</text><text fill="#000000" font-family="sans-serif" font-size="13" lengthAdjust="spacing" textLength="7" x="1349.6429" y="345.0132">1</text><text fill="#000000" font-family="sans-serif" font-size="13" lengthAdjust="spacing" textLength="7" x="1403.272" y="592.2388">1</text></g><!--link Residence to Property--><g id="link_Residence_Property"><path codeLine="128" d="M1686.9306,525.23 C1666.5006,541.89 1641.7506,560.01 1617.1606,573 C1581.9606,591.59 1540.4106,606.12 1504.4906,616.65 " fill="none" id="Residence-to-Property" style="stroke:#181818;stroke-width:1.0;"/><polygon fill="none" points="1506.3306,623.4,1485.1806,622.08,1502.5406,609.92,1506.3306,623.4" style="stroke:#181818;stroke-width:1.0;"/></g><!--link House to Residence--><g id="link_House_Residence"><path codeLine="129" d="M1732.8706,341.13 C1733.2406,363.72 1733.7106,391.8 1734.1206,416.79 " fill="none" id="House-to-Residence" style="stroke:#181818;stroke-width:1.0;"/><polygon fill="none" points="1741.1206,416.75,1734.4506,436.86,1727.1206,416.98,1741.1206,416.75" style="stroke:#181818;stroke-width:1.0;"/></g><!--link Visit to VisitReport--><g id="link_Visit_VisitReport"><path codeLine="130" d="M1371.3706,297 C1405.4706,297 1475.3006,297 1522.4406,297 " fill="none" id="Visit-VisitReport" style="stroke:#181818;stroke-width:1.0;"/><polygon fill="#000000" points="1388.4106,285.1758,1397.4557,288.1147,1397.4557,282.2369,1388.4106,285.1758" style="stroke:#000000;stroke-width:1.0;"/><text fill="#000000" font-family="sans-serif" font-size="13" lengthAdjust="spacing" textLength="102" x="1402.4106" y="290.4951">is a description of</text><text fill="#000000" font-family="sans-serif" font-size="13" lengthAdjust="spacing" textLength="7" x="1379.2245" y="291.8671">1</text><text fill="#000000" font-family="sans-serif" font-size="13" lengthAdjust="spacing" textLength="7" x="1507.5975" y="293.3102">1</text></g><!--link Agent to VisitReport--><g id="link_Agent_VisitReport"><path codeLine="131" d="M1332.0306,149.39 C1352.2006,158.31 1382.7706,172.47 1408.1606,187 C1448.0306,209.81 1491.0806,239.01 1522.7706,261.45 " fill="none" id="Agent-VisitReport" style="stroke:#181818;stroke-width:1.0;"/><polygon fill="#000000" points="1444.4717,198.7085,1438.1616,191.5928,1435.1842,196.6607,1444.4717,198.7085" style="stroke:#000000;stroke-width:1.0;"/><text fill="#000000" font-family="sans-serif" font-size="13" lengthAdjust="spacing" textLength="50" x="1449.1606" y="201.4951">registers</text><text fill="#000000" font-family="sans-serif" font-size="13" lengthAdjust="spacing" textLength="7" x="1339.8002" y="147.7307">1</text><text fill="#000000" font-family="sans-serif" font-size="13" lengthAdjust="spacing" textLength="20" x="1494.7001" y="252.8577">0..*</text></g><!--link Client to Announcement--><g id="link_Client_Announcement"><path codeLine="132" d="M845.5006,481 C869.0706,481 908.2206,481 942.4306,481 " fill="none" id="Client-Announcement" style="stroke:#181818;stroke-width:1.0;"/><polygon fill="#000000" points="872.4106,469.1758,863.3655,466.2369,863.3655,472.1147,872.4106,469.1758" style="stroke:#000000;stroke-width:1.0;"/><text fill="#000000" font-family="sans-serif" font-size="13" lengthAdjust="spacing" textLength="48" x="876.4106" y="474.4951">displays</text><text fill="#000000" font-family="sans-serif" font-size="13" lengthAdjust="spacing" textLength="7" x="853.1079" y="476.1588">1</text><text fill="#000000" font-family="sans-serif" font-size="13" lengthAdjust="spacing" textLength="20" x="914.7791" y="495.3084">1..*</text></g><!--link Employee to Agency--><g id="link_Employee_Agency"><path codeLine="133" d="M466.5306,656.63 C457.1606,682.43 441.1606,732.98 441.1606,777.5 C441.1606,777.5 441.1606,777.5 441.1606,1015 C441.1606,1077.23 366.4706,1109.38 312.7806,1124.46 " fill="none" id="Employee-Agency" style="stroke:#181818;stroke-width:1.0;"/><polygon fill="#000000" points="444.5995,914.4258,450.2156,906.7505,444.6315,904.9153,444.5995,914.4258" style="stroke:#000000;stroke-width:1.0;"/><text fill="#000000" font-family="sans-serif" font-size="13" lengthAdjust="spacing" textLength="48" x="455.1606" y="914.9951">works in</text><text fill="#000000" font-family="sans-serif" font-size="13" lengthAdjust="spacing" textLength="7" x="456.6815" y="677.5785">1</text><text fill="#000000" font-family="sans-serif" font-size="13" lengthAdjust="spacing" textLength="7" x="320.8131" y="1119.0606">1</text></g><!--link TypeProperty to Property--><g id="link_TypeProperty_Property"><path codeLine="134" d="M1535.2106,507.68 C1512.0006,533.64 1475.9706,573.95 1450.2206,602.76 " fill="none" id="TypeProperty-Property" style="stroke:#181818;stroke-width:1.0;"/><polygon fill="#000000" points="1493.8284,567.9036,1502.0476,563.1185,1497.6653,559.2013,1493.8284,567.9036" style="stroke:#000000;stroke-width:1.0;"/><text fill="#000000" font-family="sans-serif" font-size="13" lengthAdjust="spacing" textLength="102" x="1506.1606" y="569.4951">is a description of</text><text fill="#000000" font-family="sans-serif" font-size="13" lengthAdjust="spacing" textLength="7" x="1522.094" y="529.2102">1</text><text fill="#000000" font-family="sans-serif" font-size="13" lengthAdjust="spacing" textLength="7" x="1448.302" y="592.2388">1</text></g><!--link TypeResidence to Residence--><g id="link_TypeResidence_Residence"><path codeLine="135" d="M1852.8206,323.69 C1830.6906,353.09 1794.1006,401.7 1767.5906,436.92 " fill="none" id="TypeResidence-Residence" style="stroke:#181818;stroke-width:1.0;"/><polygon fill="#000000" points="1805.1537,402.1706,1812.9413,396.7114,1808.2452,393.1765,1805.1537,402.1706" style="stroke:#000000;stroke-width:1.0;"/><text fill="#000000" font-family="sans-serif" font-size="13" lengthAdjust="spacing" textLength="102" x="1817.1606" y="403.4951">is a description of</text><text fill="#000000" font-family="sans-serif" font-size="13" lengthAdjust="spacing" textLength="7" x="1840.5389" y="345.2225">1</text><text fill="#000000" font-family="sans-serif" font-size="13" lengthAdjust="spacing" textLength="7" x="1765.2013" y="426.108">1</text></g><!--link Property to Photograph--><g id="link_Property_Photograph"><path codeLine="136" d="M1387.7806,674.19 C1381.1706,683.3 1375.0306,693.53 1371.1606,704 C1365.5306,719.24 1364.2606,737.44 1364.4006,751.93 " fill="none" id="Property-Photograph" style="stroke:#181818;stroke-width:1.0;"/><polygon fill="#000000" points="1374.7206,717.9639,1380.14,710.1485,1374.5112,708.4557,1374.7206,717.9639" style="stroke:#000000;stroke-width:1.0;"/><text fill="#000000" font-family="sans-serif" font-size="13" lengthAdjust="spacing" textLength="49" x="1385.1606" y="718.4951">contains</text><text fill="#000000" font-family="sans-serif" font-size="13" lengthAdjust="spacing" textLength="7" x="1374.7856" y="695.2393">1</text><text fill="#000000" font-family="sans-serif" font-size="13" lengthAdjust="spacing" textLength="20" x="1341.5341" y="741.0149">1..*</text></g><!--link Property to Location--><g id="link_Property_Location"><path codeLine="137" d="M1352.9706,652.88 C1255.8606,674.45 1086.1606,720.32 1086.1606,777.5 C1086.1606,777.5 1086.1606,777.5 1086.1606,1322 C1086.1606,1383.83 882.6206,1423.32 792.3706,1437.79 " fill="none" id="Property-Location" style="stroke:#181818;stroke-width:1.0;"/><polygon fill="#000000" points="1088.2546,1058.2446,1095.9032,1052.5922,1091.1201,1049.1759,1088.2546,1058.2446" style="stroke:#000000;stroke-width:1.0;"/><text fill="#000000" font-family="sans-serif" font-size="13" lengthAdjust="spacing" textLength="49" x="1100.1606" y="1059.4951">contains</text><text fill="#000000" font-family="sans-serif" font-size="13" lengthAdjust="spacing" textLength="7" x="1338.3483" y="651.1016">1</text><text fill="#000000" font-family="sans-serif" font-size="13" lengthAdjust="spacing" textLength="7" x="800.227" y="1432.7307">1</text></g><!--link Property to Price--><g id="link_Property_Price"><path codeLine="138" d="M1432.2806,674.32 C1441.3706,698.44 1453.2606,730 1461.4906,751.84 " fill="none" id="Property-Price" style="stroke:#181818;stroke-width:1.0;"/><polygon fill="#000000" points="1455.9236,717.8546,1455.4845,708.3542,1449.9841,710.4268,1455.9236,717.8546" style="stroke:#000000;stroke-width:1.0;"/><text fill="#000000" font-family="sans-serif" font-size="13" lengthAdjust="spacing" textLength="49" x="1463.1606" y="718.4951">contains</text><text fill="#000000" font-family="sans-serif" font-size="13" lengthAdjust="spacing" textLength="7" x="1426.934" y="695.3917">1</text><text fill="#000000" font-family="sans-serif" font-size="13" lengthAdjust="spacing" textLength="7" x="1451.445" y="741.3353">1</text></g><!--reverse link Price to Lease--><g id="link_Price_Lease"><path codeLine="139" d="M1471.1606,825.58 C1471.1606,844.8 1471.1606,866.41 1471.1606,882.75 " fill="none" id="Price-backto-Lease" style="stroke:#181818;stroke-width:1.0;"/><polygon fill="none" points="1464.1606,825.3,1471.1606,805.3,1478.1606,825.29,1464.1606,825.3" style="stroke:#181818;stroke-width:1.0;"/></g><!--link Person to Location--><g id="link_Person_Location"><path codeLine="140" d="M757.5706,359.39 C753.8506,394.63 750.1606,439.74 750.1606,480 C750.1606,480 750.1606,480 750.1606,1322 C750.1606,1341.8 750.1606,1363.42 750.1606,1382.87 " fill="none" id="Person-Location" style="stroke:#181818;stroke-width:1.0;"/><polygon fill="#000000" points="755.1244,980.1757,758.1287,971.1521,752.251,971.1095,755.1244,980.1757" style="stroke:#000000;stroke-width:1.0;"/><text fill="#000000" font-family="sans-serif" font-size="13" lengthAdjust="spacing" textLength="49" x="764.1606" y="980.4951">contains</text><text fill="#000000" font-family="sans-serif" font-size="13" lengthAdjust="spacing" textLength="7" x="749.427" y="380.1799">1</text><text fill="#000000" font-family="sans-serif" font-size="13" lengthAdjust="spacing" textLength="7" x="742.7559" y="1372.2965">1</text></g><!--link Agency to Location--><g id="link_Agency_Location"><path codeLine="141" d="M313.1106,1171.62 C411.6406,1233.03 618.7306,1362.09 707.8806,1417.65 " fill="none" id="Agency-Location" style="stroke:#181818;stroke-width:1.0;"/><polygon fill="#000000" points="513.404,1284.8204,507.2821,1277.5421,504.1732,1282.5305,513.404,1284.8204" style="stroke:#000000;stroke-width:1.0;"/><text fill="#000000" font-family="sans-serif" font-size="13" lengthAdjust="spacing" textLength="49" x="518.1606" y="1287.4951">contains</text><text fill="#000000" font-family="sans-serif" font-size="13" lengthAdjust="spacing" textLength="7" x="320.8305" y="1172.6864">1</text><text fill="#000000" font-family="sans-serif" font-size="13" lengthAdjust="spacing" textLength="7" x="693.2983" y="1409.3479">1</text></g><!--link Residence to AvailableEquipment--><g id="link_Residence_AvailableEquipment"><path codeLine="142" d="M1737.1106,525.32 C1738.3606,553.17 1739.9506,588.42 1741.0106,611.9 " fill="none" id="Residence-AvailableEquipment" style="stroke:#181818;stroke-width:1.0;"/><polygon fill="#000000" points="1743.3856,569.1707,1745.9145,560.0025,1740.0426,560.267,1743.3856,569.1707" style="stroke:#000000;stroke-width:1.0;"/><text fill="#000000" font-family="sans-serif" font-size="13" lengthAdjust="spacing" textLength="49" x="1752.1606" y="569.4951">contains</text><text fill="#000000" font-family="sans-serif" font-size="13" lengthAdjust="spacing" textLength="7" x="1729.8733" y="546.82">1</text><text fill="#000000" font-family="sans-serif" font-size="13" lengthAdjust="spacing" textLength="5" x="1735.1209" y="600.9776">*</text></g><!--SRC=[VLLDRzim3BthLmYv12YGORi6HO4iAx01MrUim-wAnTf2RScLwAPUjly-Ih9bENLsIMpgaNfy_B1xKheLLZIyCTeKbJKDSBGTC9TEMb4yYH8UiA-1MoXGwBBE0QuIqXoLBlcZg1smzNHKAmtOjy2DnSgmTGsFoD5mgyeAkLG-d38w2rRKmhaTebM73k5BOVI3-WtyFQkK15ueMz3TuRa12YaTOsjKIDG-cKOepRyP2JLZ8GxVcwOLkkSdzdSqFVGEeTd9Hcdbq0eqDZ_UbQ0Bxo31gLABG0yeShsJqe9pZ2YXAF2kQmvW9yVRfgrD3v07kmVhZ3unBHfWXKBAHE-5bOClYjVXwVyN3D6-7pNOBFg-SqZricViCK-MieDlGbFz0YnQxm2FnZub-reQSBm2JkKpl18lzAIvY4fGjOwLAYf_hXmdVv85fBUlKyITrgRJ1JJXUbznKhvHX2NrH4Ddc1aIlL_AAS9BWP121TiFQAbZJenB4FMzDQwbHl5lhh2gnHXaqDYQ5Yps11OM186eh8Aux1NsU-AJ5-a75LLIMa1e7VJz2D8QqxZqBh0Q3DIGr9Rb0mt0H6_tGfKIXnfkdplLndoNQ7qsdVEt78GBgZ2kT2KE2htlL_D81jVfszVMkCx2UMbEu_k-LaD5u_jFadRAEE_H796bkGIvhmoQqegsEh7Erid-rHG1U68q601uDxHjpxocLb49I5ggrM_LxcdCiXeeVrSiz1GEX9V0jxEbVlxKsP46O-DWhZwi-6QpeVztxwvMu_HjkJbgnsyMOAl50Txo9ssEtcFfTBFvSvFcSn6HuhyFD4RiblPTII0QumkXe-Fe5-dFlU8EuFpw3-4c5eCvMCDWit6SUUGR0InCj3UT9P4Dzbb-y-dcPuunNihNayvcTylRxb0hLu6ddc43CepcbhkY0jdL0P98Zq9CC5BXkGE7GRgSxWZzC0dMX2EFF6CVi5qRqSDP3XyQ9k-FXA9jHIECt3o-wQGvS6YsN8WSDyxRbeVDh2w0msyevNPA_Pe5DPR3IQF1xz4RbWPsA7u2iR17eZ61yfZXDr-Q8M-HhqelmFMiy6E_pjpoferh9zqGctlM9xGHsbhq7fo-V4CLpchhDNQq_JX1y_MrhCaI-UWtQPGv9kCbpxUtXMIc5JYhQexURBpBk1ClmgOKb6SnGv4bJdXOXUFCZpBnY_7dNVqVu5jDhbPllr0pbty0]--></g></svg>