<?xml version="1.0" encoding="UTF-8" standalone="no"?><svg xmlns="http://www.w3.org/2000/svg" xmlns:xlink="http://www.w3.org/1999/xlink" contentStyleType="text/css" height="1251px" preserveAspectRatio="none" style="width:1206px;height:1251px;background:#FFFFFF;" version="1.1" viewBox="0 0 1206 1251" width="1206px" zoomAndPan="magnify"><defs/><g><!--class Company--><g id="elem_Company"><rect codeLine="16" fill="#F1F1F1" height="35.6094" id="Company" rx="2.5" ry="2.5" style="stroke:#181818;stroke-width:0.5;" width="66" x="343.5" y="7"/><text fill="#000000" font-family="sans-serif" font-size="14" lengthAdjust="spacing" textLength="60" x="346.5" y="26.5332">Company</text><line style="stroke:#181818;stroke-width:0.5;" x1="344.5" x2="408.5" y1="34.6094" y2="34.6094"/></g><!--class SystemAdministrator--><g id="elem_SystemAdministrator"><rect codeLine="19" fill="#F1F1F1" height="35.6094" id="SystemAdministrator" rx="2.5" ry="2.5" style="stroke:#181818;stroke-width:0.5;" width="135" x="7" y="525"/><text fill="#000000" font-family="sans-serif" font-size="14" lengthAdjust="spacing" textLength="129" x="10" y="544.5332">SystemAdministrator</text><line style="stroke:#181818;stroke-width:0.5;" x1="8" x2="141" y1="552.6094" y2="552.6094"/></g><!--class Agency--><g id="elem_Agency"><rect codeLine="22" fill="#F1F1F1" height="35.6094" id="Agency" rx="2.5" ry="2.5" style="stroke:#181818;stroke-width:0.5;" width="53" x="431" y="297"/><text fill="#000000" font-family="sans-serif" font-size="14" lengthAdjust="spacing" textLength="47" x="434" y="316.5332">Agency</text><line style="stroke:#181818;stroke-width:0.5;" x1="432" x2="483" y1="324.6094" y2="324.6094"/></g><!--class Employee--><g id="elem_Employee"><rect codeLine="25" fill="#F1F1F1" height="35.6094" id="Employee" rx="2.5" ry="2.5" style="stroke:#181818;stroke-width:0.5;" width="68" x="366.5" y="867"/><text fill="#000000" font-family="sans-serif" font-size="14" lengthAdjust="spacing" textLength="62" x="369.5" y="886.5332">Employee</text><line style="stroke:#181818;stroke-width:0.5;" x1="367.5" x2="433.5" y1="894.6094" y2="894.6094"/></g><!--class Person--><g id="elem_Person"><rect codeLine="28" fill="#F1F1F1" height="35.6094" id="Person" rx="2.5" ry="2.5" style="stroke:#181818;stroke-width:0.5;" width="51" x="375" y="1209"/><text fill="#000000" font-family="sans-serif" font-size="14" lengthAdjust="spacing" textLength="45" x="378" y="1228.5332">Person</text><line style="stroke:#181818;stroke-width:0.5;" x1="376" x2="425" y1="1236.6094" y2="1236.6094"/></g><!--class Client--><g id="elem_Client"><rect codeLine="32" fill="#F1F1F1" height="35.6094" id="Client" rx="2.5" ry="2.5" style="stroke:#181818;stroke-width:0.5;" width="42" x="774.5" y="1095"/><text fill="#000000" font-family="sans-serif" font-size="14" lengthAdjust="spacing" textLength="36" x="777.5" y="1114.5332">Client</text><line style="stroke:#181818;stroke-width:0.5;" x1="775.5" x2="815.5" y1="1122.6094" y2="1122.6094"/></g><!--class Owner--><g id="elem_Owner"><rect codeLine="35" fill="#F1F1F1" height="35.6094" id="Owner" rx="2.5" ry="2.5" style="stroke:#181818;stroke-width:0.5;" width="47" x="896" y="981"/><text fill="#000000" font-family="sans-serif" font-size="14" lengthAdjust="spacing" textLength="41" x="899" y="1000.5332">Owner</text><line style="stroke:#181818;stroke-width:0.5;" x1="897" x2="942" y1="1008.6094" y2="1008.6094"/></g><!--class Customer--><g id="elem_Customer"><rect codeLine="38" fill="#F1F1F1" height="35.6094" id="Customer" rx="2.5" ry="2.5" style="stroke:#181818;stroke-width:0.5;" width="67" x="741" y="411"/><text fill="#000000" font-family="sans-serif" font-size="14" lengthAdjust="spacing" textLength="61" x="744" y="430.5332">Customer</text><line style="stroke:#181818;stroke-width:0.5;" x1="742" x2="807" y1="438.6094" y2="438.6094"/></g><!--class Agent--><g id="elem_Agent"><rect codeLine="41" fill="#F1F1F1" height="35.6094" id="Agent" rx="2.5" ry="2.5" style="stroke:#181818;stroke-width:0.5;" width="43" x="472" y="411"/><text fill="#000000" font-family="sans-serif" font-size="14" lengthAdjust="spacing" textLength="37" x="475" y="430.5332">Agent</text><line style="stroke:#181818;stroke-width:0.5;" x1="473" x2="514" y1="438.6094" y2="438.6094"/></g><!--class Manager--><g id="elem_Manager"><rect codeLine="44" fill="#F1F1F1" height="35.6094" id="Manager" rx="2.5" ry="2.5" style="stroke:#181818;stroke-width:0.5;" width="62" x="311.5" y="753"/><text fill="#000000" font-family="sans-serif" font-size="14" lengthAdjust="spacing" textLength="56" x="314.5" y="772.5332">Manager</text><line style="stroke:#181818;stroke-width:0.5;" x1="312.5" x2="372.5" y1="780.6094" y2="780.6094"/></g><!--class StoreManager--><g id="elem_StoreManager"><rect codeLine="46" fill="#F1F1F1" height="35.6094" id="StoreManager" rx="2.5" ry="2.5" style="stroke:#181818;stroke-width:0.5;" width="96" x="342.5" y="183"/><text fill="#000000" font-family="sans-serif" font-size="14" lengthAdjust="spacing" textLength="90" x="345.5" y="202.5332">StoreManager</text><line style="stroke:#181818;stroke-width:0.5;" x1="343.5" x2="437.5" y1="210.6094" y2="210.6094"/></g><!--class NetworkManager--><g id="elem_NetworkManager"><rect codeLine="47" fill="#F1F1F1" height="35.6094" id="NetworkManager" rx="2.5" ry="2.5" style="stroke:#181818;stroke-width:0.5;" width="112" x="177.5" y="525"/><text fill="#000000" font-family="sans-serif" font-size="14" lengthAdjust="spacing" textLength="106" x="180.5" y="544.5332">NetworkManager</text><line style="stroke:#181818;stroke-width:0.5;" x1="178.5" x2="288.5" y1="552.6094" y2="552.6094"/></g><!--class Announcement--><g id="elem_Announcement"><rect codeLine="48" fill="#F1F1F1" height="35.6094" id="Announcement" rx="2.5" ry="2.5" style="stroke:#181818;stroke-width:0.5;" width="101" x="624" y="753"/><text fill="#000000" font-family="sans-serif" font-size="14" lengthAdjust="spacing" textLength="95" x="627" y="772.5332">Announcement</text><line style="stroke:#181818;stroke-width:0.5;" x1="625" x2="724" y1="780.6094" y2="780.6094"/></g><!--class Listing--><g id="elem_Listing"><rect codeLine="49" fill="#F1F1F1" height="35.6094" id="Listing" rx="2.5" ry="2.5" style="stroke:#181818;stroke-width:0.5;" width="47" x="950" y="1095"/><text fill="#000000" font-family="sans-serif" font-size="14" lengthAdjust="spacing" textLength="41" x="953" y="1114.5332">Listing</text><line style="stroke:#181818;stroke-width:0.5;" x1="951" x2="996" y1="1122.6094" y2="1122.6094"/></g><!--class Visit--><g id="elem_Visit"><rect codeLine="50" fill="#F1F1F1" height="35.6094" id="Visit" rx="2.5" ry="2.5" style="stroke:#181818;stroke-width:0.5;" width="32" x="662.5" y="525"/><text fill="#000000" font-family="sans-serif" font-size="14" lengthAdjust="spacing" textLength="26" x="665.5" y="544.5332">Visit</text><line style="stroke:#181818;stroke-width:0.5;" x1="663.5" x2="693.5" y1="552.6094" y2="552.6094"/></g><!--class Property--><g id="elem_Property"><rect codeLine="51" fill="#F1F1F1" height="35.6094" id="Property" rx="2.5" ry="2.5" style="stroke:#181818;stroke-width:0.5;" width="60" x="938.5" y="867"/><text fill="#000000" font-family="sans-serif" font-size="14" lengthAdjust="spacing" textLength="54" x="941.5" y="886.5332">Property</text><line style="stroke:#181818;stroke-width:0.5;" x1="939.5" x2="997.5" y1="894.6094" y2="894.6094"/></g><!--class Land--><g id="elem_Land"><rect codeLine="52" fill="#F1F1F1" height="35.6094" id="Land" rx="2.5" ry="2.5" style="stroke:#181818;stroke-width:0.5;" width="38" x="908.5" y="753"/><text fill="#000000" font-family="sans-serif" font-size="14" lengthAdjust="spacing" textLength="32" x="911.5" y="772.5332">Land</text><line style="stroke:#181818;stroke-width:0.5;" x1="909.5" x2="945.5" y1="780.6094" y2="780.6094"/></g><!--class Housing--><g id="elem_Housing"><rect codeLine="53" fill="#F1F1F1" height="35.6094" id="Housing" rx="2.5" ry="2.5" style="stroke:#181818;stroke-width:0.5;" width="58" x="987.5" y="639"/><text fill="#000000" font-family="sans-serif" font-size="14" font-style="italic" lengthAdjust="spacing" textLength="52" x="990.5" y="658.5332">Housing</text><line style="stroke:#181818;stroke-width:0.5;" x1="988.5" x2="1044.5" y1="666.6094" y2="666.6094"/></g><!--class Apartment--><g id="elem_Apartment"><rect codeLine="54" fill="#F1F1F1" height="35.6094" id="Apartment" rx="2.5" ry="2.5" style="stroke:#181818;stroke-width:0.5;" width="71" x="1028" y="525"/><text fill="#000000" font-family="sans-serif" font-size="14" lengthAdjust="spacing" textLength="65" x="1031" y="544.5332">Apartment</text><line style="stroke:#181818;stroke-width:0.5;" x1="1029" x2="1098" y1="552.6094" y2="552.6094"/></g><!--class House--><g id="elem_House"><rect codeLine="55" fill="#F1F1F1" height="35.6094" id="House" rx="2.5" ry="2.5" style="stroke:#181818;stroke-width:0.5;" width="46" x="946.5" y="525"/><text fill="#000000" font-family="sans-serif" font-size="14" lengthAdjust="spacing" textLength="40" x="949.5" y="544.5332">House</text><line style="stroke:#181818;stroke-width:0.5;" x1="947.5" x2="991.5" y1="552.6094" y2="552.6094"/></g><!--class Network--><g id="elem_Network"><rect codeLine="56" fill="#F1F1F1" height="35.6094" id="Network" rx="2.5" ry="2.5" style="stroke:#181818;stroke-width:0.5;" width="56" x="233.5" y="411"/><text fill="#000000" font-family="sans-serif" font-size="14" lengthAdjust="spacing" textLength="50" x="236.5" y="430.5332">Network</text><line style="stroke:#181818;stroke-width:0.5;" x1="234.5" x2="288.5" y1="438.6094" y2="438.6094"/></g><!--class Payment--><g id="elem_Payment"><rect codeLine="58" fill="#F1F1F1" height="35.6094" id="Payment" rx="2.5" ry="2.5" style="stroke:#181818;stroke-width:0.5;" width="61" x="1128" y="981"/><text fill="#000000" font-family="sans-serif" font-size="14" lengthAdjust="spacing" textLength="55" x="1131" y="1000.5332">Payment</text><line style="stroke:#181818;stroke-width:0.5;" x1="1129" x2="1188" y1="1008.6094" y2="1008.6094"/></g><!--class Lease--><g id="elem_Lease"><rect codeLine="59" fill="#F1F1F1" height="35.6094" id="Lease" rx="2.5" ry="2.5" style="stroke:#181818;stroke-width:0.5;" width="45" x="1146" y="867"/><text fill="#000000" font-family="sans-serif" font-size="14" lengthAdjust="spacing" textLength="39" x="1149" y="886.5332">Lease</text><line style="stroke:#181818;stroke-width:0.5;" x1="1147" x2="1190" y1="894.6094" y2="894.6094"/></g><!--link Company to Agency--><g id="link_Company_Agency"><path codeLine="62" d="M387.04,43.24 C403.87,71.47 436.8,129.74 455.5,183 C465.43,211.29 466.37,219.18 469.5,249 C470.33,256.96 470.5,259.06 469.5,267 C468.24,277.03 465.52,287.98 463,296.79 " fill="none" id="Company-Agency" style="stroke:#181818;stroke-width:1.0;"/><polygon fill="#000000" points="450.9349,148.9655,451.1544,139.4574,445.5238,141.1443,450.9349,148.9655" style="stroke:#000000;stroke-width:1.0;"/><text fill="#000000" font-family="sans-serif" font-size="13" lengthAdjust="spacing" textLength="30" x="458.5" y="149.4951">owns</text><text fill="#000000" font-family="sans-serif" font-size="13" lengthAdjust="spacing" textLength="7" x="382.02" y="64.2195">1</text><text fill="#000000" font-family="sans-serif" font-size="13" lengthAdjust="spacing" textLength="20" x="441.5656" y="286.049">1..*</text></g><!--link Company to Employee--><g id="link_Company_Employee"><path codeLine="63" d="M409.56,28.88 C479.79,35.91 637.5,56.94 637.5,104 C637.5,104 637.5,104 637.5,430 C637.5,629.63 568.34,678.1 447.5,837 C439.4,847.66 428.99,858.3 420.03,866.76 " fill="none" id="Company-Employee" style="stroke:#181818;stroke-width:1.0;"/><polygon fill="#000000" points="642.5625,434.1754,645.3882,425.0943,639.5108,425.1677,642.5625,434.1754" style="stroke:#000000;stroke-width:1.0;"/><text fill="#000000" font-family="sans-serif" font-size="13" lengthAdjust="spacing" textLength="21" x="651.5" y="434.4951">has</text><text fill="#000000" font-family="sans-serif" font-size="13" lengthAdjust="spacing" textLength="7" x="417.5575" y="25.555">1</text><text fill="#000000" font-family="sans-serif" font-size="13" lengthAdjust="spacing" textLength="20" x="403.0677" y="856.0094">1..*</text></g><!--link Company to SystemAdministrator--><g id="link_Company_SystemAdministrator"><path codeLine="64" d="M343.3,29.24 C274.87,36.85 124.5,58.72 124.5,104 C124.5,104 124.5,104 124.5,430 C124.5,466.2 102.45,503.71 87.64,524.83 " fill="none" id="Company-SystemAdministrator" style="stroke:#181818;stroke-width:1.0;"/><polygon fill="#000000" points="127.2077,262.6194,133.9664,255.9282,128.7426,253.2335,127.2077,262.6194" style="stroke:#000000;stroke-width:1.0;"/><text fill="#000000" font-family="sans-serif" font-size="13" lengthAdjust="spacing" textLength="21" x="138.5" y="263.4951">has</text><text fill="#000000" font-family="sans-serif" font-size="13" lengthAdjust="spacing" textLength="7" x="328.2719" y="45.4938">1</text><text fill="#000000" font-family="sans-serif" font-size="13" lengthAdjust="spacing" textLength="7" x="83.7128" y="514.1017">1</text></g><!--link SystemAdministrator to Person--><g id="link_SystemAdministrator_Person"><path codeLine="65" d="M75.24,561.07 C76.13,583.03 77.5,622.35 77.5,656 C77.5,656 77.5,656 77.5,1114 C77.5,1176.84 298.49,1212.35 374.88,1222.75 " fill="none" id="SystemAdministrator-Person" style="stroke:#181818;stroke-width:1.0;"/><polygon fill="#000000" points="84.5626,889.7305,83.5085,880.2786,78.1541,882.7033,84.5626,889.7305" style="stroke:#000000;stroke-width:1.0;"/><text fill="#000000" font-family="sans-serif" font-size="13" lengthAdjust="spacing" textLength="21" x="91.5" y="890.4951">is a</text><text fill="#000000" font-family="sans-serif" font-size="13" lengthAdjust="spacing" textLength="7" x="67.4638" y="582.0017">1</text><text fill="#000000" font-family="sans-serif" font-size="13" lengthAdjust="spacing" textLength="7" x="360.054" y="1217.0527">1</text></g><!--link SystemAdministrator to Employee--><g id="link_SystemAdministrator_Employee"><path codeLine="66" d="M87.96,561.31 C113.52,593.9 171.29,666.18 224.5,723 C253.51,753.98 262.29,760.24 293.5,789 C323.46,816.61 358.95,847.83 380.58,866.71 " fill="none" id="SystemAdministrator-Employee" style="stroke:#181818;stroke-width:1.0;"/><polygon fill="#000000" points="232.9592,717.786,228.8235,709.2218,224.5794,713.2883,232.9592,717.786" style="stroke:#000000;stroke-width:1.0;"/><text fill="#000000" font-family="sans-serif" font-size="13" lengthAdjust="spacing" textLength="50" x="238.5" y="719.4951">registers</text><text fill="#000000" font-family="sans-serif" font-size="13" lengthAdjust="spacing" textLength="7" x="83.6367" y="581.9757">1</text><text fill="#000000" font-family="sans-serif" font-size="13" lengthAdjust="spacing" textLength="20" x="351.417" y="856.2675">0..*</text></g><!--link Employee to Person--><g id="link_Employee_Person"><path codeLine="67" d="M400.5,903.33 C400.5,961.65 400.5,1150.43 400.5,1208.71 " fill="none" id="Employee-Person" style="stroke:#181818;stroke-width:1.0;"/><polygon fill="#000000" points="405.5,1061.1758,408.4389,1052.1307,402.5611,1052.1307,405.5,1061.1758" style="stroke:#000000;stroke-width:1.0;"/><text fill="#000000" font-family="sans-serif" font-size="13" lengthAdjust="spacing" textLength="21" x="414.5" y="1061.4951">is a</text><text fill="#000000" font-family="sans-serif" font-size="13" lengthAdjust="spacing" textLength="7" x="392.5594" y="924.001">1</text><text fill="#000000" font-family="sans-serif" font-size="13" lengthAdjust="spacing" textLength="7" x="392.4281" y="1198.2675">1</text></g><!--link Client to Person--><g id="link_Client_Person"><path codeLine="68" d="M774.26,1120.02 C707.04,1139.08 499.06,1198.05 426.11,1218.74 " fill="none" id="Client-Person" style="stroke:#181818;stroke-width:1.0;"/><polygon fill="#000000" points="621.6896,1171.5398,631.1934,1171.8997,629.5899,1166.2448,621.6896,1171.5398" style="stroke:#000000;stroke-width:1.0;"/><text fill="#000000" font-family="sans-serif" font-size="13" lengthAdjust="spacing" textLength="21" x="635.5" y="1175.4951">is a</text><text fill="#000000" font-family="sans-serif" font-size="13" lengthAdjust="spacing" textLength="7" x="759.3741" y="1117.321">1</text><text fill="#000000" font-family="sans-serif" font-size="13" lengthAdjust="spacing" textLength="7" x="433.9333" y="1211.965">1</text></g><!--link Owner to Client--><g id="link_Owner_Client"><path codeLine="69" d="M900.67,1017.01 C877.36,1038.06 837.9,1073.7 814.51,1094.83 " fill="none" id="Owner-Client" style="stroke:#181818;stroke-width:1.0;"/><polygon fill="#000000" points="865.7894,1059.5272,874.4718,1055.6455,870.532,1051.2834,865.7894,1059.5272" style="stroke:#000000;stroke-width:1.0;"/><text fill="#000000" font-family="sans-serif" font-size="13" lengthAdjust="spacing" textLength="21" x="878.5" y="1061.4951">is a</text><text fill="#000000" font-family="sans-serif" font-size="13" lengthAdjust="spacing" textLength="7" x="887.1106" y="1038.2546">1</text><text fill="#000000" font-family="sans-serif" font-size="13" lengthAdjust="spacing" textLength="7" x="812.4538" y="1084.1017">1</text></g><!--link Customer to Client--><g id="link_Customer_Client"><path codeLine="70" d="M779.8,447.27 C786.02,469.11 795.5,507.97 795.5,542 C795.5,542 795.5,542 795.5,1000 C795.5,1033.64 795.5,1072.96 795.5,1094.92 " fill="none" id="Customer-Client" style="stroke:#181818;stroke-width:1.0;"/><polygon fill="#000000" points="800.6212,776.1743,803.34,767.0607,797.4639,767.2031,800.6212,776.1743" style="stroke:#000000;stroke-width:1.0;"/><text fill="#000000" font-family="sans-serif" font-size="13" lengthAdjust="spacing" textLength="21" x="809.5" y="776.4951">is a</text><text fill="#000000" font-family="sans-serif" font-size="13" lengthAdjust="spacing" textLength="7" x="773.3063" y="468.2579">1</text><text fill="#000000" font-family="sans-serif" font-size="13" lengthAdjust="spacing" textLength="7" x="787.3844" y="1084.2204">1</text></g><!--link Agent to Employee--><g id="link_Agent_Employee"><path codeLine="71" d="M476.28,447.32 C457.63,468 430.5,504.52 430.5,542 C430.5,542 430.5,542 430.5,772 C430.5,806.62 416.96,845.28 408.07,866.92 " fill="none" id="Agent-Employee" style="stroke:#181818;stroke-width:1.0;"/><polygon fill="#000000" points="434.6977,662.111,439.0499,653.6547,433.2482,652.7115,434.6977,662.111" style="stroke:#000000;stroke-width:1.0;"/><text fill="#000000" font-family="sans-serif" font-size="13" lengthAdjust="spacing" textLength="21" x="444.5" y="662.4951">is a</text><text fill="#000000" font-family="sans-serif" font-size="13" lengthAdjust="spacing" textLength="7" x="463.7115" y="467.9883">1</text><text fill="#000000" font-family="sans-serif" font-size="13" lengthAdjust="spacing" textLength="7" x="402.3673" y="856.2204">1</text></g><!--link Manager to Employee--><g id="link_Manager_Employee"><path codeLine="72" d="M348.16,789.01 C352.88,802.4 360.16,821.34 368.5,837 C373.97,847.28 381.2,858.07 387.4,866.72 " fill="none" id="Manager-Employee" style="stroke:#181818;stroke-width:1.0;"/><polygon fill="#000000" points="375.7537,832.639,374.3001,823.2402,369.0532,825.8896,375.7537,832.639" style="stroke:#000000;stroke-width:1.0;"/><text fill="#000000" font-family="sans-serif" font-size="13" lengthAdjust="spacing" textLength="21" x="382.5" y="833.4951">is a</text><text fill="#000000" font-family="sans-serif" font-size="13" lengthAdjust="spacing" textLength="7" x="341.7945" y="810.2546">1</text><text fill="#000000" font-family="sans-serif" font-size="13" lengthAdjust="spacing" textLength="7" x="384.46" y="856.2805">1</text></g><!--link StoreManager to Manager--><g id="link_StoreManager_Manager"><path codeLine="73" d="M377.89,219.25 C363.67,240.45 342.5,278.04 342.5,314 C342.5,314 342.5,314 342.5,658 C342.5,691.64 342.5,730.96 342.5,752.92 " fill="none" id="StoreManager-Manager" style="stroke:#181818;stroke-width:1.0;"/><polygon fill="#000000" points="347.1692,491.1648,350.7001,482.334,344.8352,481.9451,347.1692,491.1648" style="stroke:#000000;stroke-width:1.0;"/><text fill="#000000" font-family="sans-serif" font-size="13" lengthAdjust="spacing" textLength="21" x="356.5" y="491.4951">is a</text><text fill="#000000" font-family="sans-serif" font-size="13" lengthAdjust="spacing" textLength="7" x="366.3591" y="240.2323">1</text><text fill="#000000" font-family="sans-serif" font-size="13" lengthAdjust="spacing" textLength="7" x="334.3844" y="742.2204">1</text></g><!--link NetworkManager to Manager--><g id="link_NetworkManager_Manager"><path codeLine="74" d="M238.23,561.06 C245.6,586.57 261.03,635.84 280.5,675 C294.79,703.75 316.02,734.4 329.56,752.88 " fill="none" id="NetworkManager-Manager" style="stroke:#181818;stroke-width:1.0;"/><polygon fill="#000000" points="287.6494,661.6902,286.4146,652.2601,281.1076,654.7869,287.6494,661.6902" style="stroke:#000000;stroke-width:1.0;"/><text fill="#000000" font-family="sans-serif" font-size="13" lengthAdjust="spacing" textLength="21" x="294.5" y="662.4951">is a</text><text fill="#000000" font-family="sans-serif" font-size="13" lengthAdjust="spacing" textLength="7" x="231.5759" y="581.9889">1</text><text fill="#000000" font-family="sans-serif" font-size="13" lengthAdjust="spacing" textLength="7" x="317.3198" y="742.1677">1</text></g><!--link Agent to Announcement--><g id="link_Agent_Announcement"><path codeLine="75" d="M502.72,447.33 C533.77,505.65 634.27,694.43 665.29,752.71 " fill="none" id="Agent-Announcement" style="stroke:#181818;stroke-width:1.0;"/><polygon fill="#000000" points="594.8496,604.5893,593.1934,595.2241,588.0049,597.9862,594.8496,604.5893" style="stroke:#000000;stroke-width:1.0;"/><text fill="#000000" font-family="sans-serif" font-size="13" lengthAdjust="spacing" textLength="55" x="601.5" y="605.4951">publishes</text><text fill="#000000" font-family="sans-serif" font-size="13" lengthAdjust="spacing" textLength="7" x="497.2573" y="468.001">1</text><text fill="#000000" font-family="sans-serif" font-size="13" lengthAdjust="spacing" textLength="5" x="656.7038" y="742.2675">*</text></g><!--link Agent to Visit--><g id="link_Agent_Visit"><path codeLine="76" d="M515.08,443.07 C552.64,465.8 629.17,512.13 662.45,532.28 " fill="none" id="Agent-Visit" style="stroke:#181818;stroke-width:1.0;"/><polygon fill="#000000" points="605.7773,488.7651,599.5615,481.5669,596.5176,486.5952,605.7773,488.7651" style="stroke:#000000;stroke-width:1.0;"/><text fill="#000000" font-family="sans-serif" font-size="13" lengthAdjust="spacing" textLength="59" x="610.5" y="491.4951">schedules</text><text fill="#000000" font-family="sans-serif" font-size="13" lengthAdjust="spacing" textLength="7" x="523.0743" y="442.6182">1</text><text fill="#000000" font-family="sans-serif" font-size="13" lengthAdjust="spacing" textLength="5" x="649.3344" y="521.7475">*</text></g><!--link Agency to Agent--><g id="link_Agency_Agent"><path codeLine="77" d="M462.97,333.01 C469.73,354.06 481.19,389.7 487.98,410.83 " fill="none" id="Agency-Agent" style="stroke:#181818;stroke-width:1.0;"/><polygon fill="#000000" points="485.0298,376.936,485.0603,367.4255,479.4643,369.2239,485.0298,376.936" style="stroke:#000000;stroke-width:1.0;"/><text fill="#000000" font-family="sans-serif" font-size="13" lengthAdjust="spacing" textLength="32" x="492.5" y="377.4951">has a</text><text fill="#000000" font-family="sans-serif" font-size="13" lengthAdjust="spacing" textLength="7" x="456.5487" y="354.2546">1</text><text fill="#000000" font-family="sans-serif" font-size="13" lengthAdjust="spacing" textLength="20" x="463.033" y="400.1017">1..*</text></g><!--link Owner to Listing--><g id="link_Owner_Listing"><path codeLine="78" d="M918.31,1017.13 C918.06,1030.75 919.3,1049.95 926.5,1065 C931.98,1076.45 941.43,1086.74 950.42,1094.75 " fill="none" id="Owner-Listing" style="stroke:#181818;stroke-width:1.0;"/><polygon fill="#000000" points="933.4113,1060.796,932.6694,1051.3145,927.238,1053.5614,933.4113,1060.796" style="stroke:#000000;stroke-width:1.0;"/><text fill="#000000" font-family="sans-serif" font-size="13" lengthAdjust="spacing" textLength="50" x="940.5" y="1061.4951">makes a</text><text fill="#000000" font-family="sans-serif" font-size="13" lengthAdjust="spacing" textLength="7" x="909.9909" y="1038.0785">1</text><text fill="#000000" font-family="sans-serif" font-size="13" lengthAdjust="spacing" textLength="5" x="937.2664" y="1083.9962">*</text></g><!--link Customer to Visit--><g id="link_Customer_Visit"><path codeLine="79" d="M740.97,446.85 C728.19,454.61 714.35,464.82 704.5,477 C693.11,491.08 686.17,510.79 682.36,524.81 " fill="none" id="Customer-Visit" style="stroke:#181818;stroke-width:1.0;"/><polygon fill="#000000" points="706.4954,490.1723,714.2799,484.7086,709.5817,481.1764,706.4954,490.1723" style="stroke:#000000;stroke-width:1.0;"/><text fill="#000000" font-family="sans-serif" font-size="13" lengthAdjust="spacing" textLength="50" x="718.5" y="491.4951">requests</text><text fill="#000000" font-family="sans-serif" font-size="13" lengthAdjust="spacing" textLength="7" x="725.8697" y="446.581">1</text><text fill="#000000" font-family="sans-serif" font-size="13" lengthAdjust="spacing" textLength="5" x="677.7935" y="514.0753">*</text></g><!--link StoreManager to Agency--><g id="link_StoreManager_Agency"><path codeLine="80" d="M388.83,219.1 C388.28,232.88 389.35,252.31 397.5,267 C405.14,280.77 418.64,291.89 430.91,299.85 " fill="none" id="StoreManager-Agency" style="stroke:#181818;stroke-width:1.0;"/><polygon fill="#000000" points="404.8107,262.6098,403.2369,253.2304,398.0244,255.9467,404.8107,262.6098" style="stroke:#000000;stroke-width:1.0;"/><text fill="#000000" font-family="sans-serif" font-size="13" lengthAdjust="spacing" textLength="53" x="411.5" y="263.4951">manages</text><text fill="#000000" font-family="sans-serif" font-size="13" lengthAdjust="spacing" textLength="7" x="380.3759" y="240.0401">1</text><text fill="#000000" font-family="sans-serif" font-size="13" lengthAdjust="spacing" textLength="7" x="415.8233" y="291.2233">1</text></g><!--link Network to NetworkManager--><g id="link_Network_NetworkManager"><path codeLine="81" d="M247.22,447.12 C241.1,455.56 234.65,466.22 231.5,477 C226.91,492.71 228.16,511.48 230.11,524.8 " fill="none" id="Network-NetworkManager" style="stroke:#181818;stroke-width:1.0;"/><polygon fill="#000000" points="237.5755,481.2928,232.7597,489.494,238.5,490.7584,237.5755,481.2928" style="stroke:#000000;stroke-width:1.0;"/><text fill="#000000" font-family="sans-serif" font-size="13" lengthAdjust="spacing" textLength="53" x="245.5" y="491.4951">manages</text><text fill="#000000" font-family="sans-serif" font-size="13" lengthAdjust="spacing" textLength="7" x="235.2194" y="468.0657">1</text><text fill="#000000" font-family="sans-serif" font-size="13" lengthAdjust="spacing" textLength="7" x="220.9138" y="514.0622">1</text></g><!--link Agency to Network--><g id="link_Agency_Network"><path codeLine="83" d="M430.66,331.34 C393.65,352.49 327.26,390.42 289.6,411.94 " fill="none" id="Agency-Network" style="stroke:#181818;stroke-width:1.0;"/><polygon fill="#000000" points="372.1587,374.6563,381.4702,372.7207,378.5541,367.6172,372.1587,374.6563" style="stroke:#000000;stroke-width:1.0;"/><text fill="#000000" font-family="sans-serif" font-size="13" lengthAdjust="spacing" textLength="50" x="385.5" y="377.4951">is part of</text><text fill="#000000" font-family="sans-serif" font-size="13" lengthAdjust="spacing" textLength="7" x="415.8854" y="331.0673">1</text><text fill="#000000" font-family="sans-serif" font-size="13" lengthAdjust="spacing" textLength="7" x="297.3025" y="403.4172">1</text></g><!--link Company to Network--><g id="link_Company_Network"><path codeLine="84" d="M343.22,33.65 C309.57,43.59 262.5,64.55 262.5,104 C262.5,104 262.5,104 262.5,316 C262.5,349.64 262.04,388.96 261.75,410.92 " fill="none" id="Company-Network" style="stroke:#181818;stroke-width:1.0;"/><polygon fill="#000000" points="266.4446,206.0631,271.2265,197.8422,265.4811,196.6015,266.4446,206.0631" style="stroke:#000000;stroke-width:1.0;"/><text fill="#000000" font-family="sans-serif" font-size="13" lengthAdjust="spacing" textLength="30" x="276.5" y="206.4951">owns</text><text fill="#000000" font-family="sans-serif" font-size="13" lengthAdjust="spacing" textLength="7" x="328.6341" y="31.3557">1</text><text fill="#000000" font-family="sans-serif" font-size="13" lengthAdjust="spacing" textLength="7" x="253.7141" y="400.2204">1</text></g><!--link Announcement to Property--><g id="link_Announcement_Property"><path codeLine="85" d="M719.15,789.01 C779.71,812.08 886.28,852.68 938.27,872.48 " fill="none" id="Announcement-Property" style="stroke:#181818;stroke-width:1.0;"/><polygon fill="#000000" points="848.1725,829.9557,840.7661,823.9894,838.6737,829.4822,848.1725,829.9557" style="stroke:#000000;stroke-width:1.0;"/><text fill="#000000" font-family="sans-serif" font-size="13" lengthAdjust="spacing" textLength="49" x="852.5" y="833.4951">contains</text><text fill="#000000" font-family="sans-serif" font-size="13" lengthAdjust="spacing" textLength="7" x="724.2378" y="810.2546">1</text><text fill="#000000" font-family="sans-serif" font-size="13" lengthAdjust="spacing" textLength="7" x="923.4699" y="865.3157">1</text></g><!--link Visit to Announcement--><g id="link_Visit_Announcement"><path codeLine="86" d="M678.19,561.36 C677.45,603.53 675.54,710.98 674.8,752.89 " fill="none" id="Visit-Announcement" style="stroke:#181818;stroke-width:1.0;"/><polygon fill="#000000" points="681.4115,662.175,684.5101,653.1833,678.6331,653.0793,681.4115,662.175" style="stroke:#000000;stroke-width:1.0;"/><text fill="#000000" font-family="sans-serif" font-size="13" lengthAdjust="spacing" textLength="49" x="690.5" y="662.4951">linked to</text><text fill="#000000" font-family="sans-serif" font-size="13" lengthAdjust="spacing" textLength="7" x="670.1661" y="582.0391">1</text><text fill="#000000" font-family="sans-serif" font-size="13" lengthAdjust="spacing" textLength="7" x="666.78" y="742.1808">1</text></g><!--link Land to Property--><g id="link_Land_Property"><path codeLine="87" d="M933.73,789.01 C941.43,810.06 954.48,845.7 962.21,866.83 " fill="none" id="Land-Property" style="stroke:#181818;stroke-width:1.0;"/><polygon fill="#000000" points="956.2184,832.8712,955.8697,823.367,950.3499,825.3871,956.2184,832.8712" style="stroke:#000000;stroke-width:1.0;"/><text fill="#000000" font-family="sans-serif" font-size="13" lengthAdjust="spacing" textLength="21" x="963.5" y="833.4951">is a</text><text fill="#000000" font-family="sans-serif" font-size="13" lengthAdjust="spacing" textLength="7" x="927.5319" y="810.2546">1</text><text fill="#000000" font-family="sans-serif" font-size="13" lengthAdjust="spacing" textLength="7" x="952.0894" y="856.1017">1</text></g><!--link Housing to Property--><g id="link_Housing_Property"><path codeLine="88" d="M1016.33,675.22 C1015.57,707.65 1011.76,779.68 993.5,837 C990.19,847.39 984.62,858.19 979.58,866.81 " fill="none" id="Housing-Property" style="stroke:#181818;stroke-width:1.0;"/><polygon fill="#000000" points="1014.5581,776.0863,1019.1483,767.7568,1013.3757,766.6495,1014.5581,776.0863" style="stroke:#000000;stroke-width:1.0;"/><text fill="#000000" font-family="sans-serif" font-size="13" lengthAdjust="spacing" textLength="72" x="1024.5" y="776.4951">represents a</text><text fill="#000000" font-family="sans-serif" font-size="13" lengthAdjust="spacing" textLength="7" x="1008.2978" y="696.1939">1</text><text fill="#000000" font-family="sans-serif" font-size="13" lengthAdjust="spacing" textLength="7" x="974.9961" y="856.0753">1</text></g><!--link Apartment to Housing--><g id="link_Apartment_Housing"><path codeLine="89" d="M1056.36,561.01 C1047.53,582.06 1032.57,617.7 1023.71,638.83 " fill="none" id="Apartment-Housing" style="stroke:#181818;stroke-width:1.0;"/><polygon fill="#000000" points="1045.5656,604.7864,1051.7751,597.5827,1046.3549,595.3087,1045.5656,604.7864" style="stroke:#000000;stroke-width:1.0;"/><text fill="#000000" font-family="sans-serif" font-size="13" lengthAdjust="spacing" textLength="21" x="1056.5" y="605.4951">is a</text><text fill="#000000" font-family="sans-serif" font-size="13" lengthAdjust="spacing" textLength="7" x="1046.2345" y="582.2546">1</text><text fill="#000000" font-family="sans-serif" font-size="13" lengthAdjust="spacing" textLength="7" x="1017.8926" y="628.1017">1</text></g><!--link House to Housing--><g id="link_House_Housing"><path codeLine="90" d="M974.86,561.07 C979.18,574.32 985.64,593.05 992.5,609 C996.84,619.1 1002.39,630.06 1007.05,638.85 " fill="none" id="House-Housing" style="stroke:#181818;stroke-width:1.0;"/><polygon fill="#000000" points="999.412,604.7958,998.6687,595.3143,993.2376,597.562,999.412,604.7958" style="stroke:#000000;stroke-width:1.0;"/><text fill="#000000" font-family="sans-serif" font-size="13" lengthAdjust="spacing" textLength="21" x="1006.5" y="605.4951">is a</text><text fill="#000000" font-family="sans-serif" font-size="13" lengthAdjust="spacing" textLength="7" x="968.3831" y="582.0017">1</text><text fill="#000000" font-family="sans-serif" font-size="13" lengthAdjust="spacing" textLength="7" x="995.9222" y="628.1281">1</text></g><!--link Listing to Property--><g id="link_Listing_Property"><path codeLine="91" d="M983.77,1094.8 C988.34,1086.17 993.19,1075.38 995.5,1065 C1008.24,1007.73 1010.62,989.68 995.5,933 C992.69,922.45 986.88,911.81 981.37,903.33 " fill="none" id="Listing-Property" style="stroke:#181818;stroke-width:1.0;"/><polygon fill="#000000" points="1010.4373,994.1762,1007.612,1003.2574,1013.4894,1003.1837,1010.4373,994.1762" style="stroke:#000000;stroke-width:1.0;"/><text fill="#000000" font-family="sans-serif" font-size="13" lengthAdjust="spacing" textLength="49" x="1019.5" y="1004.4951">contains</text><text fill="#000000" font-family="sans-serif" font-size="13" lengthAdjust="spacing" textLength="7" x="978.9279" y="1084.0622">1</text><text fill="#000000" font-family="sans-serif" font-size="13" lengthAdjust="spacing" textLength="7" x="976.8882" y="924.001">1</text></g><!--link Property to Payment--><g id="link_Property_Payment"><path codeLine="92" d="M997.36,903.01 C1033.07,924.06 1093.54,959.7 1129.37,980.83 " fill="none" id="Property-Payment" style="stroke:#181818;stroke-width:1.0;"/><polygon fill="#000000" points="1083.8073,944.7149,1077.5078,937.5898,1074.5229,942.6533,1083.8073,944.7149" style="stroke:#000000;stroke-width:1.0;"/><text fill="#000000" font-family="sans-serif" font-size="13" lengthAdjust="spacing" textLength="38" x="1088.5" y="947.4951">entails</text><text fill="#000000" font-family="sans-serif" font-size="13" lengthAdjust="spacing" textLength="7" x="997.8095" y="924.2546">1</text><text fill="#000000" font-family="sans-serif" font-size="13" lengthAdjust="spacing" textLength="7" x="1113.1928" y="971.0692">1</text></g><!--link Lease to Payment--><g id="link_Lease_Payment"><path codeLine="93" d="M1166.98,903.01 C1165.1,924.06 1161.92,959.7 1160.03,980.83 " fill="none" id="Lease-Payment" style="stroke:#181818;stroke-width:1.0;"/><polygon fill="#000000" points="1168.0552,947.156,1171.7871,938.4082,1165.9326,937.8853,1168.0552,947.156" style="stroke:#000000;stroke-width:1.0;"/><text fill="#000000" font-family="sans-serif" font-size="13" lengthAdjust="spacing" textLength="21" x="1177.5" y="947.4951">is a</text><text fill="#000000" font-family="sans-serif" font-size="13" lengthAdjust="spacing" textLength="7" x="1158.5054" y="924.2546">1</text><text fill="#000000" font-family="sans-serif" font-size="13" lengthAdjust="spacing" textLength="7" x="1152.4021" y="970.1017">1</text></g><!--link Property to Owner--><g id="link_Property_Owner"><path codeLine="94" d="M941.53,903.14 C931.74,910.94 921.78,921.1 916.5,933 C909.76,948.18 911.75,967.36 914.67,980.94 " fill="none" id="Property-Owner" style="stroke:#181818;stroke-width:1.0;"/><polygon fill="#000000" points="919.8683,946.902,925.5981,939.3113,920.0421,937.3931,919.8683,946.902" style="stroke:#000000;stroke-width:1.0;"/><text fill="#000000" font-family="sans-serif" font-size="13" lengthAdjust="spacing" textLength="60" x="930.5" y="947.4951">belongs to</text><text fill="#000000" font-family="sans-serif" font-size="13" lengthAdjust="spacing" textLength="7" x="925.9603" y="924.0914">1</text><text fill="#000000" font-family="sans-serif" font-size="13" lengthAdjust="spacing" textLength="7" x="905.0148" y="970.2468">1</text></g><!--SRC=[XLNDZjCm4BxdAKQzH4BQrNBDOLVLiX98B5IguEucqyIgVuBjR0c8Xq4SU91zCIQ9azXjMdggPpv_y_TvOWzSrSmm2L8hdLT6ImHd6apivAbPVc0bRbqh40pcZgbIX01RiK8VkIfXpuJ599rTWYjqROsWZQjqaWhSEt0Q32yh1mNlwBXM0LakcBLhvmpVDGu_v5fj-G-4kwJY1KBEJKwn-_yIYRAmIP8wxYYrTreohk1P5oZ8s1F1HZ2trqR2poG5k2dGveRNVSpqLv8Ce4SjQwPQmaocRMiTodKXkUBM6UQq2Tth4bKUNNYIjT0jOcZReB5QzOQKxd-nQD8nfE2eN83zV5HeWlDZOnqDmvm43QyyCqLpwH4-QSeIH-je_8JkgCtXrBnMIZSgHzbnZiQFL2lDSJf_vPRFtetHDHhNpd2c2ZgmNTUXt0spW_UwiI79cWRheZ0T0ayJf7EwHVFw6xur23LDKMeB1VBlp03Xk7nu6BktOMsSDxAUC4d6KQxUhk26VlJdzlRDQXnO1lgeBDnVn4rZpA1Y5u2hHNMC5vPyqUL15Hbm2-o_-BiegupUNqaeOg2RKwxNw0UXUSWIe1TUw1zkp0HUY5SWlJ13_volHtZrNSM4wWs1tZJXOa6FnIz2uyGw6GIgpw1kTeBR2kqfjCVsui_0vXKMZPX0UJidDqdB3TC_xoVv_QFAGB83NkZf78ucJFgtpbxfo916HzYvx8MUDFM0zhuGdhuGIAAeI6kC8Whs-lVrZuQNzAp4u3urjNlAeFTdxo86-ZSMDZiIeDyZ6T1sTxIpEt1VVZJCU5Rq9JbWqNqxxfDkxomJ-hdx5HJHpI0gk3PeYTQhP5nG8QUdY2Zn6i2F-KBCeDBH65KmBBGCi8E93jRlj4MC3xZ4qukFAjoXqAgqGxl-0G00]--></g></svg>