<?xml version="1.0" encoding="UTF-8" standalone="no"?><svg xmlns="http://www.w3.org/2000/svg" xmlns:xlink="http://www.w3.org/1999/xlink" contentStyleType="text/css" height="842px" preserveAspectRatio="none" style="width:589px;height:842px;background:#FFFFFF;" version="1.1" viewBox="0 0 589 842" width="589px" zoomAndPan="magnify"><defs/><g><text fill="#000000" font-family="sans-serif" font-size="14" font-weight="bold" lengthAdjust="spacing" textLength="156" x="209.5" y="24.5332">Domain Model - US004</text><!--class Property--><g id="elem_Property"><rect codeLine="14" fill="#F1F1F1" height="70.8281" id="Property" rx="2.5" ry="2.5" style="stroke:#181818;stroke-width:0.5;" width="60" x="314.5" y="405.1094"/><text fill="#000000" font-family="sans-serif" font-size="14" lengthAdjust="spacing" textLength="54" x="317.5" y="424.6426">Property</text><line style="stroke:#181818;stroke-width:0.5;" x1="315.5" x2="373.5" y1="432.7188" y2="432.7188"/><text fill="#000000" font-family="sans-serif" font-size="14" lengthAdjust="spacing" textLength="29" x="320.5" y="451.252">area</text><text fill="#000000" font-family="sans-serif" font-size="14" lengthAdjust="spacing" textLength="30" x="320.5" y="468.8613">DCC</text></g><!--class Photograph--><g id="elem_Photograph"><rect codeLine="19" fill="#F1F1F1" height="53.2188" id="Photograph" rx="2.5" ry="2.5" style="stroke:#181818;stroke-width:0.5;" width="80" x="304.5" y="598.1094"/><text fill="#000000" font-family="sans-serif" font-size="14" lengthAdjust="spacing" textLength="74" x="307.5" y="617.6426">Photograph</text><line style="stroke:#181818;stroke-width:0.5;" x1="305.5" x2="383.5" y1="625.7188" y2="625.7188"/><text fill="#000000" font-family="sans-serif" font-size="14" lengthAdjust="spacing" textLength="16" x="310.5" y="644.252">url</text></g><!--class Lease--><g id="elem_Lease"><rect codeLine="23" fill="#F1F1F1" height="53.2188" id="Lease" rx="2.5" ry="2.5" style="stroke:#181818;stroke-width:0.5;" width="117" x="436" y="598.1094"/><text fill="#000000" font-family="sans-serif" font-size="14" lengthAdjust="spacing" textLength="39" x="475" y="617.6426">Lease</text><line style="stroke:#181818;stroke-width:0.5;" x1="437" x2="552" y1="625.7188" y2="625.7188"/><text fill="#000000" font-family="sans-serif" font-size="14" lengthAdjust="spacing" textLength="105" x="442" y="644.252">contractDuration</text></g><!--class Price--><g id="elem_Price"><rect codeLine="27" fill="#F1F1F1" height="53.2188" id="Price" rx="2.5" ry="2.5" style="stroke:#181818;stroke-width:0.5;" width="43" x="473" y="414.1094"/><text fill="#000000" font-family="sans-serif" font-size="14" lengthAdjust="spacing" textLength="32" x="478.5" y="433.6426">Price</text><line style="stroke:#181818;stroke-width:0.5;" x1="474" x2="515" y1="441.7188" y2="441.7188"/><text fill="#000000" font-family="sans-serif" font-size="14" lengthAdjust="spacing" textLength="31" x="479" y="460.252">price</text></g><!--class Residence--><g id="elem_Residence"><rect codeLine="31" fill="#F1F1F1" height="88.4375" id="Residence" rx="2.5" ry="2.5" style="stroke:#181818;stroke-width:0.5;" width="128" x="71.5" y="580.6094"/><text fill="#000000" font-family="sans-serif" font-size="14" lengthAdjust="spacing" textLength="67" x="102" y="600.1426">Residence</text><line style="stroke:#181818;stroke-width:0.5;" x1="72.5" x2="198.5" y1="608.2188" y2="608.2188"/><text fill="#000000" font-family="sans-serif" font-size="14" lengthAdjust="spacing" textLength="112" x="77.5" y="626.752">numberBedrooms</text><text fill="#000000" font-family="sans-serif" font-size="14" lengthAdjust="spacing" textLength="116" x="77.5" y="644.3613">numberBathrooms</text><text fill="#000000" font-family="sans-serif" font-size="14" lengthAdjust="spacing" textLength="87" x="77.5" y="661.9707">parkingSpace</text></g><!--class Location--><g id="elem_Location"><rect codeLine="38" fill="#F1F1F1" height="123.6563" id="Location" rx="2.5" ry="2.5" style="stroke:#181818;stroke-width:0.5;" width="63" x="153" y="378.6094"/><text fill="#000000" font-family="sans-serif" font-size="14" lengthAdjust="spacing" textLength="54" x="157.5" y="398.1426">Location</text><line style="stroke:#181818;stroke-width:0.5;" x1="154" x2="215" y1="406.2188" y2="406.2188"/><text fill="#000000" font-family="sans-serif" font-size="14" lengthAdjust="spacing" textLength="36" x="159" y="424.752">street</text><text fill="#000000" font-family="sans-serif" font-size="14" lengthAdjust="spacing" textLength="21" x="159" y="442.3613">city</text><text fill="#000000" font-family="sans-serif" font-size="14" lengthAdjust="spacing" textLength="41" x="159" y="459.9707">district</text><text fill="#000000" font-family="sans-serif" font-size="14" lengthAdjust="spacing" textLength="31" x="159" y="477.5801">state</text><text fill="#000000" font-family="sans-serif" font-size="14" lengthAdjust="spacing" textLength="51" x="159" y="495.1895">zipCode</text></g><!--class TypeResidence--><g id="elem_TypeResidence"><rect codeLine="46" fill="#F1F1F1" height="53.2188" id="TypeResidence" rx="2.5" ry="2.5" style="stroke:#181818;stroke-width:0.5;" width="105" x="13" y="414.1094"/><text fill="#000000" font-family="sans-serif" font-size="14" lengthAdjust="spacing" textLength="99" x="16" y="433.6426">TypeResidence</text><line style="stroke:#181818;stroke-width:0.5;" x1="14" x2="117" y1="441.7188" y2="441.7188"/><text fill="#000000" font-family="sans-serif" font-size="14" lengthAdjust="spacing" textLength="73" x="19" y="460.252">designation</text></g><!--class TypeProperty--><g id="elem_TypeProperty"><rect codeLine="50" fill="#F1F1F1" height="53.2188" id="TypeProperty" rx="2.5" ry="2.5" style="stroke:#181818;stroke-width:0.5;" width="92" x="225.5" y="203.6094"/><text fill="#000000" font-family="sans-serif" font-size="14" lengthAdjust="spacing" textLength="86" x="228.5" y="223.1426">TypeProperty</text><line style="stroke:#181818;stroke-width:0.5;" x1="226.5" x2="316.5" y1="231.2188" y2="231.2188"/><text fill="#000000" font-family="sans-serif" font-size="14" lengthAdjust="spacing" textLength="73" x="231.5" y="249.752">designation</text></g><!--class House--><g id="elem_House"><rect codeLine="54" fill="#F1F1F1" height="88.4375" id="House" rx="2.5" ry="2.5" style="stroke:#181818;stroke-width:0.5;" width="105" x="7" y="746.6094"/><text fill="#000000" font-family="sans-serif" font-size="14" lengthAdjust="spacing" textLength="40" x="39.5" y="766.1426">House</text><line style="stroke:#181818;stroke-width:0.5;" x1="8" x2="111" y1="774.2188" y2="774.2188"/><text fill="#000000" font-family="sans-serif" font-size="14" lengthAdjust="spacing" textLength="62" x="13" y="792.752">basement</text><text fill="#000000" font-family="sans-serif" font-size="14" lengthAdjust="spacing" textLength="93" x="13" y="810.3613">inhabitableLoft</text><text fill="#000000" font-family="sans-serif" font-size="14" lengthAdjust="spacing" textLength="82" x="13" y="827.9707">sunExposure</text></g><!--class AvailableEquipment--><g id="elem_AvailableEquipment"><rect codeLine="60" fill="#F1F1F1" height="53.2188" id="AvailableEquipment" rx="2.5" ry="2.5" style="stroke:#181818;stroke-width:0.5;" width="130" x="147.5" y="764.1094"/><text fill="#000000" font-family="sans-serif" font-size="14" lengthAdjust="spacing" textLength="124" x="150.5" y="783.6426">AvailableEquipment</text><line style="stroke:#181818;stroke-width:0.5;" x1="148.5" x2="276.5" y1="791.7188" y2="791.7188"/><text fill="#000000" font-family="sans-serif" font-size="14" lengthAdjust="spacing" textLength="69" x="153.5" y="810.252">description</text></g><!--class Agent--><g id="elem_Agent"><rect codeLine="64" fill="#F1F1F1" height="35.6094" id="Agent" rx="2.5" ry="2.5" style="stroke:#181818;stroke-width:0.5;" width="43" x="356" y="212.1094"/><text fill="#000000" font-family="sans-serif" font-size="14" lengthAdjust="spacing" textLength="37" x="359" y="231.6426">Agent</text><line style="stroke:#181818;stroke-width:0.5;" x1="357" x2="398" y1="239.7188" y2="239.7188"/></g><!--class Employee--><g id="elem_Employee"><rect codeLine="72" fill="#F1F1F1" height="35.6094" id="Employee" rx="2.5" ry="2.5" style="stroke:#181818;stroke-width:0.5;" width="68" x="221.5" y="45.6094"/><text fill="#000000" font-family="sans-serif" font-size="14" lengthAdjust="spacing" textLength="62" x="224.5" y="65.1426">Employee</text><line style="stroke:#181818;stroke-width:0.5;" x1="222.5" x2="288.5" y1="73.2188" y2="73.2188"/></g><!--class Agency--><g id="elem_Agency"><rect codeLine="66" fill="#F1F1F1" height="106.0469" id="Agency" rx="2.5" ry="2.5" style="stroke:#181818;stroke-width:0.5;" width="107" x="83" y="177.1094"/><text fill="#000000" font-family="sans-serif" font-size="14" lengthAdjust="spacing" textLength="47" x="113" y="196.6426">Agency</text><line style="stroke:#181818;stroke-width:0.5;" x1="84" x2="189" y1="204.7188" y2="204.7188"/><text fill="#000000" font-family="sans-serif" font-size="14" lengthAdjust="spacing" textLength="13" x="89" y="223.252">ID</text><text fill="#000000" font-family="sans-serif" font-size="14" lengthAdjust="spacing" textLength="73" x="89" y="240.8613">designation</text><text fill="#000000" font-family="sans-serif" font-size="14" lengthAdjust="spacing" textLength="85" x="89" y="258.4707">emailAddress</text><text fill="#000000" font-family="sans-serif" font-size="14" lengthAdjust="spacing" textLength="95" x="89" y="276.0801">contactNumber</text></g><!--class Owner--><g id="elem_Owner"><rect codeLine="74" fill="#F1F1F1" height="141.2656" id="Owner" rx="2.5" ry="2.5" style="stroke:#181818;stroke-width:0.5;" width="145" x="437" y="159.6094"/><text fill="#000000" font-family="sans-serif" font-size="14" lengthAdjust="spacing" textLength="41" x="489" y="179.1426">Owner</text><line style="stroke:#181818;stroke-width:0.5;" x1="438" x2="581" y1="187.2188" y2="187.2188"/><text fill="#000000" font-family="sans-serif" font-size="14" lengthAdjust="spacing" textLength="35" x="443" y="205.752">name</text><text fill="#000000" font-family="sans-serif" font-size="14" lengthAdjust="spacing" textLength="133" x="443" y="223.3613">citizen's card number</text><text fill="#000000" font-family="sans-serif" font-size="14" lengthAdjust="spacing" textLength="70" x="443" y="240.9707">tax number</text><text fill="#000000" font-family="sans-serif" font-size="14" lengthAdjust="spacing" textLength="51" x="443" y="258.5801">address</text><text fill="#000000" font-family="sans-serif" font-size="14" lengthAdjust="spacing" textLength="88" x="443" y="276.1895">email address</text><text fill="#000000" font-family="sans-serif" font-size="14" lengthAdjust="spacing" textLength="115" x="443" y="293.7988">telephone number</text></g><!--reverse link Price to Lease--><g id="link_Price_Lease"><path d="M494.5,487.7794 C494.5,522.7594 494.5,569.5194 494.5,598.0494 " fill="none" id="Price-backto-Lease" style="stroke:#181818;stroke-width:1.0;"/><polygon fill="none" points="487.5,487.2994,494.5,467.2994,501.5,487.2994,487.5,487.2994" style="stroke:#181818;stroke-width:1.0;"/></g><!--reverse link Property to Residence--><g id="link_Property_Residence"><path d="M298.66,481.5294 C265.03,510.8194 219.39,550.5494 184.94,580.5594 " fill="none" id="Property-backto-Residence" style="stroke:#181818;stroke-width:1.0;"/><polygon fill="none" points="294.43,475.9294,314.11,468.0694,303.62,486.4894,294.43,475.9294" style="stroke:#181818;stroke-width:1.0;"/></g><!--reverse link Residence to House--><g id="link_Residence_House"><path d="M107.05,686.9994 C97.87,706.8094 87.9,728.3294 79.47,746.5194 " fill="none" id="Residence-backto-House" style="stroke:#181818;stroke-width:1.0;"/><polygon fill="none" points="100.77,683.8994,115.53,668.6994,113.47,689.7894,100.77,683.8994" style="stroke:#181818;stroke-width:1.0;"/></g><!--reverse link Employee to Agent--><g id="link_Employee_Agent"><path d="M284.4,97.0494 C299.89,114.9994 318.94,137.9894 334.5,159.6094 C346.85,176.7694 359.39,197.4994 367.72,211.8294 " fill="none" id="Employee-backto-Agent" style="stroke:#181818;stroke-width:1.0;"/><polygon fill="none" points="279.02,101.5394,271.12,81.8794,289.56,92.3094,279.02,101.5394" style="stroke:#181818;stroke-width:1.0;"/></g><!--link Employee to Agency--><g id="link_Employee_Agency"><path codeLine="84" d="M242.99,81.8994 C226.82,104.2594 197.93,144.1894 174.32,176.8294 " fill="none" id="Employee-Agency" style="stroke:#181818;stroke-width:1.0;"/><polygon fill="#000000" points="222.5695,124.8363,230.2521,119.2302,225.4896,115.7852,222.5695,124.8363" style="stroke:#000000;stroke-width:1.0;"/><text fill="#000000" font-family="sans-serif" font-size="13" lengthAdjust="spacing" textLength="48" x="234.5" y="126.1045">works in</text><text fill="#000000" font-family="sans-serif" font-size="13" lengthAdjust="spacing" textLength="7" x="231.6873" y="102.5597">1</text><text fill="#000000" font-family="sans-serif" font-size="13" lengthAdjust="spacing" textLength="7" x="171.9318" y="166.1105">1</text></g><!--link Agency to Location--><g id="link_Agency_Location"><path codeLine="85" d="M147.8,283.2194 C152.29,303.6294 157.55,327.2394 162.5,348.6094 C164.74,358.2694 167.16,368.4894 169.54,378.4594 " fill="none" id="Agency-Location" style="stroke:#181818;stroke-width:1.0;"/><polygon fill="#000000" points="168.6127,344.6598,169.465,335.1875,163.7346,336.4955,168.6127,344.6598" style="stroke:#000000;stroke-width:1.0;"/><text fill="#000000" font-family="sans-serif" font-size="13" lengthAdjust="spacing" textLength="49" x="176.5" y="345.1045">contains</text><text fill="#000000" font-family="sans-serif" font-size="13" lengthAdjust="spacing" textLength="7" x="141.7994" y="304.5637">1</text><text fill="#000000" font-family="sans-serif" font-size="13" lengthAdjust="spacing" textLength="7" x="160.4056" y="367.8836">1</text></g><!--link TypeProperty to Property--><g id="link_TypeProperty_Property"><path codeLine="86" d="M270.27,256.6594 C269.93,281.0094 271.6,318.3494 282.5,348.6094 C289.76,368.7494 302.53,388.6894 314.6,404.7394 " fill="none" id="TypeProperty-Property" style="stroke:#181818;stroke-width:1.0;"/><polygon fill="#000000" points="288.9339,344.5751,289.1554,335.0671,283.5244,336.7528,288.9339,344.5751" style="stroke:#000000;stroke-width:1.0;"/><text fill="#000000" font-family="sans-serif" font-size="13" lengthAdjust="spacing" textLength="54" x="296.5" y="345.1045">classifies</text><text fill="#000000" font-family="sans-serif" font-size="13" lengthAdjust="spacing" textLength="7" x="262.1762" y="278.1595">1</text><text fill="#000000" font-family="sans-serif" font-size="13" lengthAdjust="spacing" textLength="5" x="303.6263" y="394.1942">*</text></g><!--link Property to Price--><g id="link_Property_Price"><path codeLine="87" d="M374.85,440.6094 C403.96,440.6094 447.17,440.6094 472.92,440.6094 " fill="none" id="Property-Price" style="stroke:#181818;stroke-width:1.0;"/><polygon fill="#000000" points="401.75,428.7852,392.7049,425.8462,392.7049,431.7241,401.75,428.7852" style="stroke:#000000;stroke-width:1.0;"/><text fill="#000000" font-family="sans-serif" font-size="13" lengthAdjust="spacing" textLength="49" x="405.75" y="434.1045">contains</text><text fill="#000000" font-family="sans-serif" font-size="13" lengthAdjust="spacing" textLength="7" x="382.6778" y="436.315">1</text><text fill="#000000" font-family="sans-serif" font-size="13" lengthAdjust="spacing" textLength="7" x="457.9258" y="435.5757">1</text></g><!--link Owner to Property--><g id="link_Owner_Property"><path codeLine="88" d="M487.31,300.7894 C480.22,317.3694 471.34,334.3594 460.5,348.6094 C436.94,379.5694 400.47,405.8494 374.72,422.0894 " fill="none" id="Owner-Property" style="stroke:#181818;stroke-width:1.0;"/><polygon fill="#000000" points="480.9015,336.1205,472.5941,340.7506,476.9021,344.7493,480.9015,336.1205" style="stroke:#000000;stroke-width:1.0;"/><text fill="#000000" font-family="sans-serif" font-size="13" lengthAdjust="spacing" textLength="60" x="486.5" y="345.1045">belongs to</text><text fill="#000000" font-family="sans-serif" font-size="13" lengthAdjust="spacing" textLength="7" x="477.6607" y="322.4028">1</text><text fill="#000000" font-family="sans-serif" font-size="13" lengthAdjust="spacing" textLength="7" x="382.5178" y="413.5123">1</text></g><!--link Agent to Property--><g id="link_Agent_Property"><path codeLine="89" d="M374.8,248.1694 C369.4,282.3094 357.16,359.6094 350,404.8494 " fill="none" id="Agent-Property" style="stroke:#181818;stroke-width:1.0;"/><polygon fill="#000000" points="367.2817,334.8466,362.9648,343.321,368.7704,344.24,367.2817,334.8466" style="stroke:#000000;stroke-width:1.0;"/><text fill="#000000" font-family="sans-serif" font-size="13" lengthAdjust="spacing" textLength="76" x="375.5" y="345.1045">advertised by</text><text fill="#000000" font-family="sans-serif" font-size="13" lengthAdjust="spacing" textLength="7" x="366.0563" y="269.0982">1</text><text fill="#000000" font-family="sans-serif" font-size="13" lengthAdjust="spacing" textLength="5" x="345.5531" y="394.3245">*</text></g><!--link Property to Photograph--><g id="link_Property_Photograph"><path codeLine="90" d="M344.5,476.2694 C344.5,511.7494 344.5,566.0694 344.5,597.8894 " fill="none" id="Property-Photograph" style="stroke:#181818;stroke-width:1.0;"/><polygon fill="#000000" points="349.5,546.7852,352.4389,537.7401,346.5611,537.7401,349.5,546.7852" style="stroke:#000000;stroke-width:1.0;"/><text fill="#000000" font-family="sans-serif" font-size="13" lengthAdjust="spacing" textLength="49" x="358.5" y="547.1045">contains</text><text fill="#000000" font-family="sans-serif" font-size="13" lengthAdjust="spacing" textLength="7" x="336.8984" y="497.3135">1</text><text fill="#000000" font-family="sans-serif" font-size="13" lengthAdjust="spacing" textLength="20" x="322.1875" y="587.3708">1..*</text></g><!--link Location to Property--><g id="link_Location_Property"><path codeLine="91" d="M216.11,440.6094 C244.62,440.6094 286.25,440.6094 314.31,440.6094 " fill="none" id="Location-Property" style="stroke:#181818;stroke-width:1.0;"/><polygon fill="#000000" points="233.25,428.7852,242.2951,431.7241,242.2951,425.8462,233.25,428.7852" style="stroke:#000000;stroke-width:1.0;"/><text fill="#000000" font-family="sans-serif" font-size="13" lengthAdjust="spacing" textLength="49" x="247.25" y="434.1045">contains</text><text fill="#000000" font-family="sans-serif" font-size="13" lengthAdjust="spacing" textLength="7" x="223.7903" y="436.4305">1</text><text fill="#000000" font-family="sans-serif" font-size="13" lengthAdjust="spacing" textLength="7" x="299.5192" y="436.315">1</text></g><!--link Residence to AvailableEquipment--><g id="link_Residence_AvailableEquipment"><path codeLine="92" d="M155.73,668.6994 C169.9,698.8794 188.37,738.2094 200.33,763.6894 " fill="none" id="Residence-AvailableEquipment" style="stroke:#181818;stroke-width:1.0;"/><polygon fill="#000000" points="183.625,712.3111,182.4411,702.8745,177.1205,705.3727,183.625,712.3111" style="stroke:#000000;stroke-width:1.0;"/><text fill="#000000" font-family="sans-serif" font-size="13" lengthAdjust="spacing" textLength="49" x="190.5" y="713.1045">contains</text><text fill="#000000" font-family="sans-serif" font-size="13" lengthAdjust="spacing" textLength="7" x="151.3963" y="690.4895">1</text><text fill="#000000" font-family="sans-serif" font-size="13" lengthAdjust="spacing" textLength="5" x="191.9376" y="753.1246">*</text></g><!--link TypeResidence to Residence--><g id="link_TypeResidence_Residence"><path codeLine="93" d="M75.38,467.2994 C86.69,496.6994 105.38,545.3094 118.93,580.5294 " fill="none" id="TypeResidence-Residence" style="stroke:#181818;stroke-width:1.0;"/><polygon fill="#000000" points="114.2949,546.4519,113.7909,536.9547,108.3049,539.0647,114.2949,546.4519" style="stroke:#000000;stroke-width:1.0;"/><text fill="#000000" font-family="sans-serif" font-size="13" lengthAdjust="spacing" textLength="54" x="121.5" y="547.1045">classifies</text><text fill="#000000" font-family="sans-serif" font-size="13" lengthAdjust="spacing" textLength="7" x="69.8554" y="488.8319">1</text><text fill="#000000" font-family="sans-serif" font-size="13" lengthAdjust="spacing" textLength="7" x="108.7313" y="569.7174">1</text></g><!--SRC=[VLJRQXin47tNLuYy1089AVJ9X89h1nf8BzJj1sYbyUuGhQHAiqcSq7_lh6Jlod7elgoaENFcp4LA3-Y2YggNlNTUTz7t82aE8D9a2Ke_g1OsjBCW8sXIhhKr87NA-2TqhTmgcq28SmjRakHbnBOZQN3qGkz4vQIjIcb95B4P2EwqTnjy0NajH8S6fCQeEKXUzq2TDqa8Gc89QzyhTFAhDs3bfVozkRx-A4Jcap-Y3n1f9r-5v4z5K7cnNgt4tmdKUV9jLA4hg27QsNWFAe64Pm9dHZxKK52iaABIj1wYoidCV2De7p6Cwzdq4n9du7JDM1GMk1lw1k9dCD7xFjL7YhhvZ4l6XMitt0ekxwpLwoobS2MA05Iq8ktomY2VegOzG17arGk65PTlPlgr2p1fBNI6jwrxa-g8EyxWNTWNFrH5V4FSS85xS4KJkaurIAgnSE-tUvs3ktqEFWsnKhXyL6X7sEsV0SFeFyNN4SDn_6NBzYd-RH-itm6y7jdrOKZkrYU9Z7lWARDBOoAaD0q0z_zRxW_7AbIdvD-V7CGzjrCz73h2u-tEazGgcdsJiuNKSxrLLSGiuUY4m4Bel8E32qSL1mdoxCEPlBpClvBXGZxv-92uob9-4lkiAzHXWEIYP8SkCQvkyeI-E9ilrwBSNjmYZFWo_nauNln2NOCFr3VYc7O81Ligjf0DME_QDBuSHIqL7BykxaJ23HVcaTUOmCXc9-PRpKvNLnSL__jQfkHpZFnK_Gy-N-Mg9ATJULhAKqV-JOTlQlaF]--></g></svg>